<?xml version="1.0" encoding="UTF-8" standalone="no"?>
<!DOCTYPE svg PUBLIC "-//W3C//DTD SVG 1.1//EN"
 "http://www.w3.org/Graphics/SVG/1.1/DTD/svg11.dtd">
<!-- Generated by graphviz version 2.43.0 (0)
 -->
<!-- Title: src/wmtk/attribute/Accessor.hpp Pages: 1 -->
<svg width="7166pt" height="195pt"
 viewBox="0.00 0.00 7166.00 195.00" xmlns="http://www.w3.org/2000/svg" xmlns:xlink="http://www.w3.org/1999/xlink">
<g id="graph0" class="graph" transform="scale(1 1) rotate(0) translate(4 191)">
<title>src/wmtk/attribute/Accessor.hpp</title>
<!-- Node1 -->
<g id="node1" class="node">
<title>Node1</title>
<g id="a_node1"><a xlink:title=" ">
<polygon fill="#bfbfbf" stroke="black" points="3890,-156.5 3890,-186.5 3997,-186.5 3997,-156.5 3890,-156.5"/>
<text text-anchor="start" x="3898" y="-174.5" font-family="Helvetica,sans-Serif" font-size="10.00">src/wmtk/attribute</text>
<text text-anchor="middle" x="3943.5" y="-163.5" font-family="Helvetica,sans-Serif" font-size="10.00">/Accessor.hpp</text>
</a>
</g>
</g>
<!-- Node2 -->
<g id="node2" class="node">
<title>Node2</title>
<g id="a_node2"><a xlink:href="_accessor_8hxx.html" target="_top" xlink:title=" ">
<polygon fill="none" stroke="black" points="1841,-84 1841,-114 1948,-114 1948,-84 1841,-84"/>
<text text-anchor="start" x="1849" y="-102" font-family="Helvetica,sans-Serif" font-size="10.00">src/wmtk/attribute</text>
<text text-anchor="middle" x="1894.5" y="-91" font-family="Helvetica,sans-Serif" font-size="10.00">/Accessor.hxx</text>
</a>
</g>
</g>
<!-- Node1&#45;&gt;Node2 -->
<g id="edge1" class="edge">
<title>Node1&#45;&gt;Node2</title>
<path fill="none" stroke="midnightblue" d="M3879.77,-169.97C3560.36,-167.12 2141.98,-152.5 1948.5,-120 1940.35,-118.63 1931.8,-116.45 1923.93,-114.02"/>
<polygon fill="midnightblue" stroke="midnightblue" points="3879.75,-173.47 3889.78,-170.06 3879.82,-166.47 3879.75,-173.47"/>
</g>
<!-- Node3 -->
<g id="node3" class="node">
<title>Node3</title>
<g id="a_node3"><a xlink:href="_simplex_getter_8hpp.html" target="_top" xlink:title=" ">
<polygon fill="none" stroke="black" points="1966.5,-84 1966.5,-114 2094.5,-114 2094.5,-84 1966.5,-84"/>
<text text-anchor="start" x="1974.5" y="-102" font-family="Helvetica,sans-Serif" font-size="10.00">src/wmtk/function/utils</text>
<text text-anchor="middle" x="2030.5" y="-91" font-family="Helvetica,sans-Serif" font-size="10.00">/SimplexGetter.hpp</text>
</a>
</g>
</g>
<!-- Node1&#45;&gt;Node3 -->
<g id="edge3" class="edge">
<title>Node1&#45;&gt;Node3</title>
<path fill="none" stroke="midnightblue" d="M3879.44,-168.14C3587.73,-157.39 2386.65,-113.13 2094.68,-102.37"/>
<polygon fill="midnightblue" stroke="midnightblue" points="3879.71,-171.65 3889.84,-168.52 3879.97,-164.66 3879.71,-171.65"/>
</g>
<!-- Node7 -->
<g id="node7" class="node">
<title>Node7</title>
<g id="a_node7"><a xlink:href="_mesh_8hpp.html" target="_top" xlink:title=" ">
<polygon fill="none" stroke="red" points="3741.5,-89.5 3741.5,-108.5 3853.5,-108.5 3853.5,-89.5 3741.5,-89.5"/>
<text text-anchor="middle" x="3797.5" y="-96.5" font-family="Helvetica,sans-Serif" font-size="10.00">src/wmtk/Mesh.hpp</text>
</a>
</g>
</g>
<!-- Node1&#45;&gt;Node7 -->
<g id="edge7" class="edge">
<title>Node1&#45;&gt;Node7</title>
<path fill="none" stroke="midnightblue" d="M3905.22,-152.02C3876.11,-137.96 3837.38,-119.26 3815.17,-108.53"/>
<polygon fill="midnightblue" stroke="midnightblue" points="3903.78,-155.21 3914.31,-156.4 3906.82,-148.9 3903.78,-155.21"/>
</g>
<!-- Node219 -->
<g id="node46" class="node">
<title>Node219</title>
<g id="a_node46"><a xlink:href="_optimization_smoothing_8cpp.html" target="_top" xlink:title=" ">
<polygon fill="none" stroke="black" points="7003,-6 7003,-36 7158,-36 7158,-6 7003,-6"/>
<text text-anchor="start" x="7011" y="-24" font-family="Helvetica,sans-Serif" font-size="10.00">src/wmtk/operations</text>
<text text-anchor="middle" x="7080.5" y="-13" font-family="Helvetica,sans-Serif" font-size="10.00">/OptimizationSmoothing.cpp</text>
</a>
</g>
</g>
<!-- Node1&#45;&gt;Node219 -->
<g id="edge52" class="edge">
<title>Node1&#45;&gt;Node219</title>
<path fill="none" stroke="midnightblue" d="M3979.12,-151.21C3993.81,-142.52 4010.6,-131.62 4024.5,-120 4043.81,-103.85 4039.55,-88.35 4062.5,-78 4136.72,-44.52 6912.65,-51.68 6993.5,-42 7004.58,-40.67 7016.31,-38.51 7027.45,-36.09"/>
<polygon fill="midnightblue" stroke="midnightblue" points="3977.2,-148.27 3970.29,-156.31 3980.7,-154.33 3977.2,-148.27"/>
</g>
<!-- Node213 -->
<g id="node47" class="node">
<title>Node213</title>
<g id="a_node47"><a xlink:href="_tuple_tag_8cpp.html" target="_top" xlink:title=" ">
<polygon fill="none" stroke="black" points="4071.5,-84 4071.5,-114 4217.5,-114 4217.5,-84 4071.5,-84"/>
<text text-anchor="start" x="4079.5" y="-102" font-family="Helvetica,sans-Serif" font-size="10.00">src/wmtk/multimesh</text>
<text text-anchor="middle" x="4144.5" y="-91" font-family="Helvetica,sans-Serif" font-size="10.00">/utils/internal/TupleTag.cpp</text>
</a>
</g>
</g>
<!-- Node1&#45;&gt;Node213 -->
<g id="edge48" class="edge">
<title>Node1&#45;&gt;Node213</title>
<path fill="none" stroke="midnightblue" d="M3993.49,-152.96C4027.71,-140.96 4072.49,-125.26 4104.38,-114.07"/>
<polygon fill="midnightblue" stroke="midnightblue" points="3991.97,-149.79 3983.69,-156.4 3994.29,-156.4 3991.97,-149.79"/>
</g>
<!-- Node287 -->
<g id="node48" class="node">
<title>Node287</title>
<g id="a_node48"><a xlink:href="tuple__map__attribute__io_8hpp.html" target="_top" xlink:title=" ">
<polygon fill="none" stroke="red" points="3872,-78.5 3872,-119.5 4015,-119.5 4015,-78.5 3872,-78.5"/>
<text text-anchor="start" x="3880" y="-107.5" font-family="Helvetica,sans-Serif" font-size="10.00">src/wmtk/multimesh</text>
<text text-anchor="start" x="3880" y="-96.5" font-family="Helvetica,sans-Serif" font-size="10.00">/utils/tuple_map_attribute</text>
<text text-anchor="middle" x="3943.5" y="-85.5" font-family="Helvetica,sans-Serif" font-size="10.00">_io.hpp</text>
</a>
</g>
</g>
<!-- Node1&#45;&gt;Node287 -->
<g id="edge49" class="edge">
<title>Node1&#45;&gt;Node287</title>
<path fill="none" stroke="midnightblue" d="M3943.5,-145.98C3943.5,-137.35 3943.5,-127.76 3943.5,-119.59"/>
<polygon fill="midnightblue" stroke="midnightblue" points="3940,-146.23 3943.5,-156.23 3947,-146.23 3940,-146.23"/>
</g>
<!-- Node288 -->
<g id="node49" class="node">
<title>Node288</title>
<g id="a_node49"><a xlink:href="_operation_8hpp.html" target="_top" xlink:title=" ">
<polygon fill="none" stroke="red" points="4235.5,-84 4235.5,-114 4351.5,-114 4351.5,-84 4235.5,-84"/>
<text text-anchor="start" x="4243.5" y="-102" font-family="Helvetica,sans-Serif" font-size="10.00">src/wmtk/operations</text>
<text text-anchor="middle" x="4293.5" y="-91" font-family="Helvetica,sans-Serif" font-size="10.00">/Operation.hpp</text>
</a>
</g>
</g>
<!-- Node1&#45;&gt;Node288 -->
<g id="edge51" class="edge">
<title>Node1&#45;&gt;Node288</title>
<path fill="none" stroke="midnightblue" d="M4007.13,-161.26C4064.77,-152.39 4151.84,-137.74 4226.5,-120 4233.82,-118.26 4241.53,-116.19 4249,-114.05"/>
<polygon fill="midnightblue" stroke="midnightblue" points="4006.43,-157.83 3997.07,-162.8 4007.49,-164.75 4006.43,-157.83"/>
</g>
<!-- Node293 -->
<g id="node50" class="node">
<title>Node293</title>
<g id="a_node50"><a xlink:href="_update_vertex_multi_mesh_map_hash_8hpp.html" target="_top" xlink:title=" ">
<polygon fill="none" stroke="red" points="4370,-78.5 4370,-119.5 4531,-119.5 4531,-78.5 4370,-78.5"/>
<text text-anchor="start" x="4378" y="-107.5" font-family="Helvetica,sans-Serif" font-size="10.00">src/wmtk/operations</text>
<text text-anchor="start" x="4378" y="-96.5" font-family="Helvetica,sans-Serif" font-size="10.00">/utils/UpdateVertexMultiMesh</text>
<text text-anchor="middle" x="4450.5" y="-85.5" font-family="Helvetica,sans-Serif" font-size="10.00">MapHash.hpp</text>
</a>
</g>
</g>
<!-- Node1&#45;&gt;Node293 -->
<g id="edge53" class="edge">
<title>Node1&#45;&gt;Node293</title>
<path fill="none" stroke="midnightblue" d="M4007.23,-164.74C4089.27,-156.89 4236.08,-141.31 4360.5,-120 4363.5,-119.49 4366.55,-118.94 4369.62,-118.37"/>
<polygon fill="midnightblue" stroke="midnightblue" points="4006.69,-161.28 3997.06,-165.71 4007.35,-168.25 4006.69,-161.28"/>
</g>
<!-- Node2&#45;&gt;Node1 -->
<g id="edge2" class="edge">
<title>Node2&#45;&gt;Node1</title>
<path fill="none" stroke="midnightblue" d="M1951.31,-116.72C1956.42,-118.03 1961.53,-119.17 1966.5,-120 2161.02,-152.67 3593.61,-167.28 3889.97,-170.02"/>
<polygon fill="midnightblue" stroke="midnightblue" points="1952.1,-113.31 1941.52,-114.02 1950.23,-120.06 1952.1,-113.31"/>
</g>
<!-- Node4 -->
<g id="node4" class="node">
<title>Node4</title>
<g id="a_node4"><a xlink:href="_per_simplex_autodiff_function_8cpp.html" target="_top" xlink:title=" ">
<polygon fill="none" stroke="black" points="0,-6 0,-36 163,-36 163,-6 0,-6"/>
<text text-anchor="start" x="8" y="-24" font-family="Helvetica,sans-Serif" font-size="10.00">src/wmtk/function/PerSimplex</text>
<text text-anchor="middle" x="81.5" y="-13" font-family="Helvetica,sans-Serif" font-size="10.00">AutodiffFunction.cpp</text>
</a>
</g>
</g>
<!-- Node3&#45;&gt;Node4 -->
<g id="edge4" class="edge">
<title>Node3&#45;&gt;Node4</title>
<path fill="none" stroke="midnightblue" d="M1975.55,-81.57C1969.17,-80.13 1962.72,-78.89 1956.5,-78 1563.97,-21.85 566.26,-88.78 172.5,-42 160.93,-40.63 148.68,-38.44 137.03,-36.01"/>
<polygon fill="midnightblue" stroke="midnightblue" points="1974.93,-85.02 1985.47,-83.96 1976.57,-78.21 1974.93,-85.02"/>
</g>
<!-- Node5 -->
<g id="node5" class="node">
<title>Node5</title>
<g id="a_node5"><a xlink:href="simplex_2_a_m_i_p_s_8cpp.html" target="_top" xlink:title=" ">
<polygon fill="none" stroke="black" points="327.5,-6 327.5,-36 473.5,-36 473.5,-6 327.5,-6"/>
<text text-anchor="start" x="335.5" y="-24" font-family="Helvetica,sans-Serif" font-size="10.00">src/wmtk/function/simplex</text>
<text text-anchor="middle" x="400.5" y="-13" font-family="Helvetica,sans-Serif" font-size="10.00">/AMIPS.cpp</text>
</a>
</g>
</g>
<!-- Node3&#45;&gt;Node5 -->
<g id="edge5" class="edge">
<title>Node3&#45;&gt;Node5</title>
<path fill="none" stroke="midnightblue" d="M1975.55,-81.59C1969.17,-80.15 1962.72,-78.9 1956.5,-78 1307.99,16.16 1132.12,-128.14 482.5,-42 472.19,-40.63 461.29,-38.49 450.92,-36.1"/>
<polygon fill="midnightblue" stroke="midnightblue" points="1974.92,-85.04 1985.46,-83.99 1976.56,-78.24 1974.92,-85.04"/>
</g>
<!-- Node6 -->
<g id="node6" class="node">
<title>Node6</title>
<g id="a_node6"><a xlink:href="_simplex_getter_8cpp.html" target="_top" xlink:title=" ">
<polygon fill="none" stroke="black" points="181.5,-6 181.5,-36 309.5,-36 309.5,-6 181.5,-6"/>
<text text-anchor="start" x="189.5" y="-24" font-family="Helvetica,sans-Serif" font-size="10.00">src/wmtk/function/utils</text>
<text text-anchor="middle" x="245.5" y="-13" font-family="Helvetica,sans-Serif" font-size="10.00">/SimplexGetter.cpp</text>
</a>
</g>
</g>
<!-- Node3&#45;&gt;Node6 -->
<g id="edge6" class="edge">
<title>Node3&#45;&gt;Node6</title>
<path fill="none" stroke="midnightblue" d="M1975.55,-81.58C1969.17,-80.14 1962.72,-78.9 1956.5,-78 1235.75,25.75 1039.07,-146.99 318.5,-42 309.14,-40.64 299.27,-38.46 289.91,-36.03"/>
<polygon fill="midnightblue" stroke="midnightblue" points="1974.92,-85.03 1985.47,-83.97 1976.57,-78.22 1974.92,-85.03"/>
</g>
<!-- Node7&#45;&gt;Node5 -->
<g id="edge13" class="edge">
<title>Node7&#45;&gt;Node5</title>
<path fill="none" stroke="midnightblue" d="M3731.07,-97.3C3277.46,-92.45 649.38,-63.49 482.5,-42 472.04,-40.65 460.97,-38.48 450.47,-36.06"/>
<polygon fill="midnightblue" stroke="midnightblue" points="3731.34,-100.8 3741.38,-97.41 3731.42,-93.8 3731.34,-100.8"/>
</g>
<!-- Node8 -->
<g id="node8" class="node">
<title>Node8</title>
<g id="a_node8"><a xlink:href="_accessor_base_8cpp.html" target="_top" xlink:title=" ">
<polygon fill="none" stroke="black" points="4463,-6 4463,-36 4570,-36 4570,-6 4463,-6"/>
<text text-anchor="start" x="4471" y="-24" font-family="Helvetica,sans-Serif" font-size="10.00">src/wmtk/attribute</text>
<text text-anchor="middle" x="4516.5" y="-13" font-family="Helvetica,sans-Serif" font-size="10.00">/AccessorBase.cpp</text>
</a>
</g>
</g>
<!-- Node7&#45;&gt;Node8 -->
<g id="edge8" class="edge">
<title>Node7&#45;&gt;Node8</title>
<path fill="none" stroke="midnightblue" d="M3830.36,-86.23C3840.54,-83.04 3851.87,-79.93 3862.5,-78 4121.86,-30.91 4195.47,-90.85 4454.5,-42 4462.28,-40.53 4470.44,-38.37 4478.19,-36.01"/>
<polygon fill="midnightblue" stroke="midnightblue" points="3829.05,-82.97 3820.63,-89.41 3831.23,-89.63 3829.05,-82.97"/>
</g>
<!-- Node9 -->
<g id="node9" class="node">
<title>Node9</title>
<g id="a_node9"><a xlink:href="hash_8cpp.html" target="_top" xlink:title=" ">
<polygon fill="none" stroke="black" points="4588,-6 4588,-36 4695,-36 4695,-6 4588,-6"/>
<text text-anchor="start" x="4596" y="-24" font-family="Helvetica,sans-Serif" font-size="10.00">src/wmtk/attribute</text>
<text text-anchor="middle" x="4641.5" y="-13" font-family="Helvetica,sans-Serif" font-size="10.00">/internal/hash.cpp</text>
</a>
</g>
</g>
<!-- Node7&#45;&gt;Node9 -->
<g id="edge9" class="edge">
<title>Node7&#45;&gt;Node9</title>
<path fill="none" stroke="midnightblue" d="M3830.1,-86.24C3840.34,-83.01 3851.77,-79.89 3862.5,-78 4176.73,-22.66 4265.65,-99.47 4579.5,-42 4587.29,-40.57 4595.45,-38.43 4603.2,-36.07"/>
<polygon fill="midnightblue" stroke="midnightblue" points="3828.73,-83 3820.32,-89.45 3830.92,-89.65 3828.73,-83"/>
</g>
<!-- Node10 -->
<g id="node10" class="node">
<title>Node10</title>
<g id="a_node10"><a xlink:href="_mesh_attribute_handle_8cpp.html" target="_top" xlink:title=" ">
<polygon fill="none" stroke="black" points="4713,-6 4713,-36 4856,-36 4856,-6 4713,-6"/>
<text text-anchor="start" x="4721" y="-24" font-family="Helvetica,sans-Serif" font-size="10.00">src/wmtk/attribute</text>
<text text-anchor="middle" x="4784.5" y="-13" font-family="Helvetica,sans-Serif" font-size="10.00">/MeshAttributeHandle.cpp</text>
</a>
</g>
</g>
<!-- Node7&#45;&gt;Node10 -->
<g id="edge10" class="edge">
<title>Node7&#45;&gt;Node10</title>
<path fill="none" stroke="midnightblue" d="M3830.09,-86.19C3840.33,-82.96 3851.77,-79.85 3862.5,-78 4231.63,-14.4 4333.8,-95.7 4704.5,-42 4714.42,-40.56 4724.89,-38.42 4734.88,-36.06"/>
<polygon fill="midnightblue" stroke="midnightblue" points="3828.72,-82.96 3820.31,-89.41 3830.91,-89.6 3828.72,-82.96"/>
</g>
<!-- Node11 -->
<g id="node11" class="node">
<title>Node11</title>
<g id="a_node11"><a xlink:href="_function_8cpp.html" target="_top" xlink:title=" ">
<polygon fill="none" stroke="black" points="4874,-11.5 4874,-30.5 5043,-30.5 5043,-11.5 4874,-11.5"/>
<text text-anchor="middle" x="4958.5" y="-18.5" font-family="Helvetica,sans-Serif" font-size="10.00">src/wmtk/function/Function.cpp</text>
</a>
</g>
</g>
<!-- Node7&#45;&gt;Node11 -->
<g id="edge11" class="edge">
<title>Node7&#45;&gt;Node11</title>
<path fill="none" stroke="midnightblue" d="M3829.51,-86.32C3839.89,-83.03 3851.56,-79.85 3862.5,-78 4302.35,-3.77 4422.85,-97.1 4865.5,-42 4885.66,-39.49 4907.91,-34.78 4925.6,-30.55"/>
<polygon fill="midnightblue" stroke="midnightblue" points="3828.4,-83.01 3820.01,-89.47 3830.6,-89.65 3828.4,-83.01"/>
</g>
<!-- Node12 -->
<g id="node12" class="node">
<title>Node12</title>
<g id="a_node12"><a xlink:href="_per_simplex_function_8cpp.html" target="_top" xlink:title=" ">
<polygon fill="none" stroke="black" points="5061,-6 5061,-36 5224,-36 5224,-6 5061,-6"/>
<text text-anchor="start" x="5069" y="-24" font-family="Helvetica,sans-Serif" font-size="10.00">src/wmtk/function/PerSimplex</text>
<text text-anchor="middle" x="5142.5" y="-13" font-family="Helvetica,sans-Serif" font-size="10.00">Function.cpp</text>
</a>
</g>
</g>
<!-- Node7&#45;&gt;Node12 -->
<g id="edge12" class="edge">
<title>Node7&#45;&gt;Node12</title>
<path fill="none" stroke="midnightblue" d="M3829.5,-86.29C3839.89,-82.99 3851.55,-79.82 3862.5,-78 4384.5,8.58 4527.46,-107.68 5052.5,-42 5063.78,-40.59 5075.72,-38.42 5087.1,-36.03"/>
<polygon fill="midnightblue" stroke="midnightblue" points="3828.39,-82.97 3820,-89.44 3830.6,-89.61 3828.39,-82.97"/>
</g>
<!-- Node13 -->
<g id="node13" class="node">
<title>Node13</title>
<g id="a_node13"><a xlink:href="_envelope_invariant_8cpp.html" target="_top" xlink:title=" ">
<polygon fill="none" stroke="black" points="5242.5,-6 5242.5,-36 5370.5,-36 5370.5,-6 5242.5,-6"/>
<text text-anchor="start" x="5250.5" y="-24" font-family="Helvetica,sans-Serif" font-size="10.00">src/wmtk/invariants</text>
<text text-anchor="middle" x="5306.5" y="-13" font-family="Helvetica,sans-Serif" font-size="10.00">/EnvelopeInvariant.cpp</text>
</a>
</g>
</g>
<!-- Node7&#45;&gt;Node13 -->
<g id="edge14" class="edge">
<title>Node7&#45;&gt;Node13</title>
<path fill="none" stroke="midnightblue" d="M3829.5,-86.26C3839.88,-82.97 3851.55,-79.79 3862.5,-78 4464.03,20.54 4630.52,-131.18 5233.5,-42 5242.73,-40.63 5252.45,-38.49 5261.69,-36.1"/>
<polygon fill="midnightblue" stroke="midnightblue" points="3828.38,-82.94 3820,-89.42 3830.59,-89.59 3828.38,-82.94"/>
</g>
<!-- Node14 -->
<g id="node14" class="node">
<title>Node14</title>
<g id="a_node14"><a xlink:href="_function_invariant_8cpp.html" target="_top" xlink:title=" ">
<polygon fill="none" stroke="black" points="5389,-6 5389,-36 5514,-36 5514,-6 5389,-6"/>
<text text-anchor="start" x="5397" y="-24" font-family="Helvetica,sans-Serif" font-size="10.00">src/wmtk/invariants</text>
<text text-anchor="middle" x="5451.5" y="-13" font-family="Helvetica,sans-Serif" font-size="10.00">/FunctionInvariant.cpp</text>
</a>
</g>
</g>
<!-- Node7&#45;&gt;Node14 -->
<g id="edge15" class="edge">
<title>Node7&#45;&gt;Node14</title>
<path fill="none" stroke="midnightblue" d="M3829.49,-86.24C3839.88,-82.95 3851.55,-79.78 3862.5,-78 4195.34,-23.91 5045.95,-91.5 5379.5,-42 5388.74,-40.63 5398.48,-38.45 5407.7,-36.02"/>
<polygon fill="midnightblue" stroke="midnightblue" points="3828.38,-82.93 3820,-89.4 3830.59,-89.57 3828.38,-82.93"/>
</g>
<!-- Node15 -->
<g id="node15" class="node">
<title>Node15</title>
<g id="a_node15"><a xlink:href="_fusion_edge_invariant_8cpp.html" target="_top" xlink:title=" ">
<polygon fill="none" stroke="black" points="5532,-6 5532,-36 5671,-36 5671,-6 5532,-6"/>
<text text-anchor="start" x="5540" y="-24" font-family="Helvetica,sans-Serif" font-size="10.00">src/wmtk/invariants</text>
<text text-anchor="middle" x="5601.5" y="-13" font-family="Helvetica,sans-Serif" font-size="10.00">/FusionEdgeInvariant.cpp</text>
</a>
</g>
</g>
<!-- Node7&#45;&gt;Node15 -->
<g id="edge16" class="edge">
<title>Node7&#45;&gt;Node15</title>
<path fill="none" stroke="midnightblue" d="M3829.24,-86.31C3839.69,-82.98 3851.46,-79.78 3862.5,-78 4226.98,-19.15 5157.73,-92.18 5523.5,-42 5533.47,-40.63 5544,-38.45 5553.99,-36.02"/>
<polygon fill="midnightblue" stroke="midnightblue" points="3828.07,-83.01 3819.7,-89.5 3830.29,-89.65 3828.07,-83.01"/>
</g>
<!-- Node16 -->
<g id="node16" class="node">
<title>Node16</title>
<g id="a_node16"><a xlink:href="_interior_edge_invariant_8cpp.html" target="_top" xlink:title=" ">
<polygon fill="none" stroke="black" points="5689,-6 5689,-36 5832,-36 5832,-6 5689,-6"/>
<text text-anchor="start" x="5697" y="-24" font-family="Helvetica,sans-Serif" font-size="10.00">src/wmtk/invariants</text>
<text text-anchor="middle" x="5760.5" y="-13" font-family="Helvetica,sans-Serif" font-size="10.00">/InteriorEdgeInvariant.cpp</text>
</a>
</g>
</g>
<!-- Node7&#45;&gt;Node16 -->
<g id="edge17" class="edge">
<title>Node7&#45;&gt;Node16</title>
<path fill="none" stroke="midnightblue" d="M3829.24,-86.3C3839.69,-82.97 3851.46,-79.77 3862.5,-78 4261.47,-13.96 5279.96,-95.34 5680.5,-42 5690.72,-40.64 5701.52,-38.46 5711.76,-36.04"/>
<polygon fill="midnightblue" stroke="midnightblue" points="3828.07,-83 3819.7,-89.49 3830.29,-89.64 3828.07,-83"/>
</g>
<!-- Node17 -->
<g id="node17" class="node">
<title>Node17</title>
<g id="a_node17"><a xlink:href="_interior_simplex_invariant_8cpp.html" target="_top" xlink:title=" ">
<polygon fill="none" stroke="black" points="5850.5,-6 5850.5,-36 6008.5,-36 6008.5,-6 5850.5,-6"/>
<text text-anchor="start" x="5858.5" y="-24" font-family="Helvetica,sans-Serif" font-size="10.00">src/wmtk/invariants</text>
<text text-anchor="middle" x="5929.5" y="-13" font-family="Helvetica,sans-Serif" font-size="10.00">/InteriorSimplexInvariant.cpp</text>
</a>
</g>
</g>
<!-- Node7&#45;&gt;Node17 -->
<g id="edge18" class="edge">
<title>Node7&#45;&gt;Node17</title>
<path fill="none" stroke="midnightblue" d="M3829.24,-86.29C3839.69,-82.96 3851.46,-79.76 3862.5,-78 4296.85,-8.64 5404.86,-95.02 5841.5,-42 5852.7,-40.64 5864.56,-38.46 5875.82,-36.04"/>
<polygon fill="midnightblue" stroke="midnightblue" points="3828.07,-82.99 3819.69,-89.48 3830.29,-89.63 3828.07,-82.99"/>
</g>
<!-- Node18 -->
<g id="node18" class="node">
<title>Node18</title>
<g id="a_node18"><a xlink:href="_interior_vertex_invariant_8cpp.html" target="_top" xlink:title=" ">
<polygon fill="none" stroke="black" points="6026.5,-6 6026.5,-36 6176.5,-36 6176.5,-6 6026.5,-6"/>
<text text-anchor="start" x="6034.5" y="-24" font-family="Helvetica,sans-Serif" font-size="10.00">src/wmtk/invariants</text>
<text text-anchor="middle" x="6101.5" y="-13" font-family="Helvetica,sans-Serif" font-size="10.00">/InteriorVertexInvariant.cpp</text>
</a>
</g>
</g>
<!-- Node7&#45;&gt;Node18 -->
<g id="edge19" class="edge">
<title>Node7&#45;&gt;Node18</title>
<path fill="none" stroke="midnightblue" d="M3829.24,-86.28C3839.68,-82.95 3851.45,-79.76 3862.5,-78 4335.52,-2.83 5542.29,-101.82 6017.5,-42 6028.21,-40.65 6039.54,-38.48 6050.29,-36.05"/>
<polygon fill="midnightblue" stroke="midnightblue" points="3828.07,-82.98 3819.69,-89.47 3830.29,-89.62 3828.07,-82.98"/>
</g>
<!-- Node19 -->
<g id="node19" class="node">
<title>Node19</title>
<g id="a_node19"><a xlink:href="_invariant_8cpp.html" target="_top" xlink:title=" ">
<polygon fill="none" stroke="black" points="6195,-6 6195,-36 6308,-36 6308,-6 6195,-6"/>
<text text-anchor="start" x="6203" y="-24" font-family="Helvetica,sans-Serif" font-size="10.00">src/wmtk/invariants</text>
<text text-anchor="middle" x="6251.5" y="-13" font-family="Helvetica,sans-Serif" font-size="10.00">/Invariant.cpp</text>
</a>
</g>
</g>
<!-- Node7&#45;&gt;Node19 -->
<g id="edge20" class="edge">
<title>Node7&#45;&gt;Node19</title>
<path fill="none" stroke="midnightblue" d="M3829.23,-86.27C3839.68,-82.94 3851.45,-79.75 3862.5,-78 4372.43,2.72 5675.39,-121.64 6185.5,-42 6194.02,-40.67 6202.96,-38.51 6211.43,-36.08"/>
<polygon fill="midnightblue" stroke="midnightblue" points="3828.07,-82.97 3819.69,-89.46 3830.28,-89.61 3828.07,-82.97"/>
</g>
<!-- Node20 -->
<g id="node20" class="node">
<title>Node20</title>
<g id="a_node20"><a xlink:href="_invariant_collection_8cpp.html" target="_top" xlink:title=" ">
<polygon fill="none" stroke="black" points="6326.5,-6 6326.5,-36 6458.5,-36 6458.5,-6 6326.5,-6"/>
<text text-anchor="start" x="6334.5" y="-24" font-family="Helvetica,sans-Serif" font-size="10.00">src/wmtk/invariants</text>
<text text-anchor="middle" x="6392.5" y="-13" font-family="Helvetica,sans-Serif" font-size="10.00">/InvariantCollection.cpp</text>
</a>
</g>
</g>
<!-- Node7&#45;&gt;Node20 -->
<g id="edge21" class="edge">
<title>Node7&#45;&gt;Node20</title>
<path fill="none" stroke="midnightblue" d="M3829.23,-86.27C3839.68,-82.94 3851.45,-79.74 3862.5,-78 4401.44,7.08 5777.05,-116.86 6317.5,-42 6327.11,-40.67 6337.25,-38.5 6346.86,-36.08"/>
<polygon fill="midnightblue" stroke="midnightblue" points="3828.06,-82.97 3819.69,-89.46 3830.28,-89.6 3828.06,-82.97"/>
</g>
<!-- Node21 -->
<g id="node21" class="node">
<title>Node21</title>
<g id="a_node21"><a xlink:href="_max_edge_length_invariant_8cpp.html" target="_top" xlink:title=" ">
<polygon fill="none" stroke="black" points="6477,-6 6477,-36 6638,-36 6638,-6 6477,-6"/>
<text text-anchor="start" x="6485" y="-24" font-family="Helvetica,sans-Serif" font-size="10.00">src/wmtk/invariants</text>
<text text-anchor="middle" x="6557.5" y="-13" font-family="Helvetica,sans-Serif" font-size="10.00">/MaxEdgeLengthInvariant.cpp</text>
</a>
</g>
</g>
<!-- Node7&#45;&gt;Node21 -->
<g id="edge22" class="edge">
<title>Node7&#45;&gt;Node21</title>
<path fill="none" stroke="midnightblue" d="M3829.23,-86.26C3839.68,-82.93 3851.45,-79.74 3862.5,-78 4434.4,12.04 5892.46,-109.15 6467.5,-42 6478.95,-40.66 6491.07,-38.5 6502.59,-36.07"/>
<polygon fill="midnightblue" stroke="midnightblue" points="3828.06,-82.96 3819.69,-89.45 3830.28,-89.6 3828.06,-82.96"/>
</g>
<!-- Node22 -->
<g id="node22" class="node">
<title>Node22</title>
<g id="a_node22"><a xlink:href="_max_function_invariant_8cpp.html" target="_top" xlink:title=" ">
<polygon fill="none" stroke="black" points="6656.5,-6 6656.5,-36 6802.5,-36 6802.5,-6 6656.5,-6"/>
<text text-anchor="start" x="6664.5" y="-24" font-family="Helvetica,sans-Serif" font-size="10.00">src/wmtk/invariants</text>
<text text-anchor="middle" x="6729.5" y="-13" font-family="Helvetica,sans-Serif" font-size="10.00">/MaxFunctionInvariant.cpp</text>
</a>
</g>
</g>
<!-- Node7&#45;&gt;Node22 -->
<g id="edge23" class="edge">
<title>Node7&#45;&gt;Node22</title>
<path fill="none" stroke="midnightblue" d="M3829.23,-86.25C3839.68,-82.92 3851.45,-79.73 3862.5,-78 4473.95,17.99 6033.47,-119.83 6647.5,-42 6657.97,-40.67 6669.03,-38.51 6679.53,-36.09"/>
<polygon fill="midnightblue" stroke="midnightblue" points="3828.06,-82.95 3819.69,-89.45 3830.28,-89.59 3828.06,-82.95"/>
</g>
<!-- Node23 -->
<g id="node23" class="node">
<title>Node23</title>
<g id="a_node23"><a xlink:href="_min_edge_length_invariant_8cpp.html" target="_top" xlink:title=" ">
<polygon fill="none" stroke="black" points="491.5,-6 491.5,-36 649.5,-36 649.5,-6 491.5,-6"/>
<text text-anchor="start" x="499.5" y="-24" font-family="Helvetica,sans-Serif" font-size="10.00">src/wmtk/invariants</text>
<text text-anchor="middle" x="570.5" y="-13" font-family="Helvetica,sans-Serif" font-size="10.00">/MinEdgeLengthInvariant.cpp</text>
</a>
</g>
</g>
<!-- Node7&#45;&gt;Node23 -->
<g id="edge24" class="edge">
<title>Node7&#45;&gt;Node23</title>
<path fill="none" stroke="midnightblue" d="M3731.17,-97.2C3292.01,-91.88 816.25,-61.13 658.5,-42 647.3,-40.64 635.44,-38.47 624.18,-36.04"/>
<polygon fill="midnightblue" stroke="midnightblue" points="3731.42,-100.71 3741.46,-97.33 3731.5,-93.71 3731.42,-100.71"/>
</g>
<!-- Node24 -->
<g id="node24" class="node">
<title>Node24</title>
<g id="a_node24"><a xlink:href="_min_incident_valence_invariant_8cpp.html" target="_top" xlink:title=" ">
<polygon fill="none" stroke="black" points="668,-6 668,-36 847,-36 847,-6 668,-6"/>
<text text-anchor="start" x="676" y="-24" font-family="Helvetica,sans-Serif" font-size="10.00">src/wmtk/invariants</text>
<text text-anchor="middle" x="757.5" y="-13" font-family="Helvetica,sans-Serif" font-size="10.00">/MinIncidentValenceInvariant.cpp</text>
</a>
</g>
</g>
<!-- Node7&#45;&gt;Node24 -->
<g id="edge25" class="edge">
<title>Node7&#45;&gt;Node24</title>
<path fill="none" stroke="midnightblue" d="M3731.02,-97.08C3307.85,-91.17 1003.02,-58.32 855.5,-42 843.07,-40.63 829.88,-38.44 817.35,-36.01"/>
<polygon fill="midnightblue" stroke="midnightblue" points="3731.2,-100.58 3741.25,-97.22 3731.3,-93.58 3731.2,-100.58"/>
</g>
<!-- Node25 -->
<g id="node25" class="node">
<title>Node25</title>
<g id="a_node25"><a xlink:href="_multi_mesh_link_condition_invariant_8cpp.html" target="_top" xlink:title=" ">
<polygon fill="none" stroke="black" points="865,-6 865,-36 1066,-36 1066,-6 865,-6"/>
<text text-anchor="start" x="873" y="-24" font-family="Helvetica,sans-Serif" font-size="10.00">src/wmtk/invariants</text>
<text text-anchor="middle" x="965.5" y="-13" font-family="Helvetica,sans-Serif" font-size="10.00">/MultiMeshLinkConditionInvariant.cpp</text>
</a>
</g>
</g>
<!-- Node7&#45;&gt;Node25 -->
<g id="edge26" class="edge">
<title>Node7&#45;&gt;Node25</title>
<path fill="none" stroke="midnightblue" d="M3731.26,-97.28C3340.65,-92.93 1345.9,-69.51 1074.5,-42 1060.81,-40.61 1046.27,-38.44 1032.42,-36.03"/>
<polygon fill="midnightblue" stroke="midnightblue" points="3731.23,-100.78 3741.27,-97.39 3731.31,-93.78 3731.23,-100.78"/>
</g>
<!-- Node26 -->
<g id="node26" class="node">
<title>Node26</title>
<g id="a_node26"><a xlink:href="_multi_mesh_map_valid_invariant_8cpp.html" target="_top" xlink:title=" ">
<polygon fill="none" stroke="black" points="1084,-6 1084,-36 1263,-36 1263,-6 1084,-6"/>
<text text-anchor="start" x="1092" y="-24" font-family="Helvetica,sans-Serif" font-size="10.00">src/wmtk/invariants</text>
<text text-anchor="middle" x="1173.5" y="-13" font-family="Helvetica,sans-Serif" font-size="10.00">/MultiMeshMapValidInvariant.cpp</text>
</a>
</g>
</g>
<!-- Node7&#45;&gt;Node26 -->
<g id="edge27" class="edge">
<title>Node7&#45;&gt;Node26</title>
<path fill="none" stroke="midnightblue" d="M3731.37,-97.23C3358.13,-92.82 1522.85,-69.84 1272.5,-42 1260.04,-40.61 1246.82,-38.44 1234.23,-36.03"/>
<polygon fill="midnightblue" stroke="midnightblue" points="3731.43,-100.74 3741.47,-97.35 3731.51,-93.74 3731.43,-100.74"/>
</g>
<!-- Node27 -->
<g id="node27" class="node">
<title>Node27</title>
<g id="a_node27"><a xlink:href="_multi_mesh_topology_invariant_8cpp.html" target="_top" xlink:title=" ">
<polygon fill="none" stroke="black" points="1281.5,-6 1281.5,-36 1459.5,-36 1459.5,-6 1281.5,-6"/>
<text text-anchor="start" x="1289.5" y="-24" font-family="Helvetica,sans-Serif" font-size="10.00">src/wmtk/invariants</text>
<text text-anchor="middle" x="1370.5" y="-13" font-family="Helvetica,sans-Serif" font-size="10.00">/MultiMeshTopologyInvariant.cpp</text>
</a>
</g>
</g>
<!-- Node7&#45;&gt;Node27 -->
<g id="edge28" class="edge">
<title>Node7&#45;&gt;Node27</title>
<path fill="none" stroke="midnightblue" d="M3730.94,-98.01C3399.31,-97.83 1923.24,-94.03 1467.5,-42 1455.29,-40.61 1442.33,-38.43 1429.99,-36.02"/>
<polygon fill="midnightblue" stroke="midnightblue" points="3731.33,-101.51 3741.34,-98.02 3731.34,-94.51 3731.33,-101.51"/>
</g>
<!-- Node28 -->
<g id="node28" class="node">
<title>Node28</title>
<g id="a_node28"><a xlink:href="_no_boundary_collapse_to_interior_invariant_8cpp.html" target="_top" xlink:title=" ">
<polygon fill="none" stroke="black" points="1477,-0.5 1477,-41.5 1644,-41.5 1644,-0.5 1477,-0.5"/>
<text text-anchor="start" x="1485" y="-29.5" font-family="Helvetica,sans-Serif" font-size="10.00">src/wmtk/invariants</text>
<text text-anchor="start" x="1485" y="-18.5" font-family="Helvetica,sans-Serif" font-size="10.00">/NoBoundaryCollapseToInterior</text>
<text text-anchor="middle" x="1560.5" y="-7.5" font-family="Helvetica,sans-Serif" font-size="10.00">Invariant.cpp</text>
</a>
</g>
</g>
<!-- Node7&#45;&gt;Node28 -->
<g id="edge29" class="edge">
<title>Node7&#45;&gt;Node28</title>
<path fill="none" stroke="midnightblue" d="M3730.92,-97.95C3415.47,-97.44 2069.38,-92.3 1652.5,-42 1649.74,-41.67 1646.94,-41.29 1644.12,-40.88"/>
<polygon fill="midnightblue" stroke="midnightblue" points="3731.26,-101.45 3741.26,-97.96 3731.27,-94.45 3731.26,-101.45"/>
</g>
<!-- Node29 -->
<g id="node29" class="node">
<title>Node29</title>
<g id="a_node29"><a xlink:href="_simplex_inversion_invariant_8cpp.html" target="_top" xlink:title=" ">
<polygon fill="none" stroke="black" points="1661.5,-6 1661.5,-36 1829.5,-36 1829.5,-6 1661.5,-6"/>
<text text-anchor="start" x="1669.5" y="-24" font-family="Helvetica,sans-Serif" font-size="10.00">src/wmtk/invariants</text>
<text text-anchor="middle" x="1745.5" y="-13" font-family="Helvetica,sans-Serif" font-size="10.00">/SimplexInversionInvariant.cpp</text>
</a>
</g>
</g>
<!-- Node7&#45;&gt;Node29 -->
<g id="edge30" class="edge">
<title>Node7&#45;&gt;Node29</title>
<path fill="none" stroke="midnightblue" d="M3730.94,-97.74C3432.61,-96.3 2216.77,-87.69 1838.5,-42 1826.86,-40.59 1814.52,-38.43 1802.77,-36.04"/>
<polygon fill="midnightblue" stroke="midnightblue" points="3731.14,-101.24 3741.16,-97.78 3731.17,-94.24 3731.14,-101.24"/>
</g>
<!-- Node30 -->
<g id="node30" class="node">
<title>Node30</title>
<g id="a_node30"><a xlink:href="_tet_mesh_substructure_topology_preserving_invariant_8cpp.html" target="_top" xlink:title=" ">
<polygon fill="none" stroke="black" points="1848,-0.5 1848,-41.5 2013,-41.5 2013,-0.5 1848,-0.5"/>
<text text-anchor="start" x="1856" y="-29.5" font-family="Helvetica,sans-Serif" font-size="10.00">src/wmtk/invariants</text>
<text text-anchor="start" x="1856" y="-18.5" font-family="Helvetica,sans-Serif" font-size="10.00">/TetMeshSubstructureTopology</text>
<text text-anchor="middle" x="1930.5" y="-7.5" font-family="Helvetica,sans-Serif" font-size="10.00">PreservingInvariant.cpp</text>
</a>
</g>
</g>
<!-- Node7&#45;&gt;Node30 -->
<g id="edge31" class="edge">
<title>Node7&#45;&gt;Node30</title>
<path fill="none" stroke="midnightblue" d="M3731.25,-97.55C3451.02,-95.39 2361.87,-84.4 2021.5,-42 2018.77,-41.66 2016,-41.28 2013.21,-40.86"/>
<polygon fill="midnightblue" stroke="midnightblue" points="3731.24,-101.05 3741.27,-97.63 3731.3,-94.05 3731.24,-101.05"/>
</g>
<!-- Node31 -->
<g id="node31" class="node">
<title>Node31</title>
<g id="a_node31"><a xlink:href="_todo_invariant_8cpp.html" target="_top" xlink:title=" ">
<polygon fill="none" stroke="black" points="2031,-6 2031,-36 2144,-36 2144,-6 2031,-6"/>
<text text-anchor="start" x="2039" y="-24" font-family="Helvetica,sans-Serif" font-size="10.00">src/wmtk/invariants</text>
<text text-anchor="middle" x="2087.5" y="-13" font-family="Helvetica,sans-Serif" font-size="10.00">/TodoInvariant.cpp</text>
</a>
</g>
</g>
<!-- Node7&#45;&gt;Node31 -->
<g id="edge32" class="edge">
<title>Node7&#45;&gt;Node31</title>
<path fill="none" stroke="midnightblue" d="M3730.89,-98.04C3463.14,-97.83 2464.72,-93.55 2153.5,-42 2145.11,-40.61 2136.3,-38.45 2127.95,-36.06"/>
<polygon fill="midnightblue" stroke="midnightblue" points="3731.23,-101.54 3741.23,-98.04 3731.23,-94.54 3731.23,-101.54"/>
</g>
<!-- Node32 -->
<g id="node32" class="node">
<title>Node32</title>
<g id="a_node32"><a xlink:href="_tri_mesh_substructure_topology_preserving_invariant_8cpp.html" target="_top" xlink:title=" ">
<polygon fill="none" stroke="black" points="2162.5,-0.5 2162.5,-41.5 2324.5,-41.5 2324.5,-0.5 2162.5,-0.5"/>
<text text-anchor="start" x="2170.5" y="-29.5" font-family="Helvetica,sans-Serif" font-size="10.00">src/wmtk/invariants</text>
<text text-anchor="start" x="2170.5" y="-18.5" font-family="Helvetica,sans-Serif" font-size="10.00">/TriMeshSubstructureTopology</text>
<text text-anchor="middle" x="2243.5" y="-7.5" font-family="Helvetica,sans-Serif" font-size="10.00">PreservingInvariant.cpp</text>
</a>
</g>
</g>
<!-- Node7&#45;&gt;Node32 -->
<g id="edge33" class="edge">
<title>Node7&#45;&gt;Node32</title>
<path fill="none" stroke="midnightblue" d="M3731,-97.05C3482.61,-93.26 2609.38,-77.63 2333.5,-42 2330.64,-41.63 2327.74,-41.21 2324.82,-40.76"/>
<polygon fill="midnightblue" stroke="midnightblue" points="3731.26,-100.55 3741.31,-97.21 3731.37,-93.56 3731.26,-100.55"/>
</g>
<!-- Node33 -->
<g id="node33" class="node">
<title>Node33</title>
<g id="a_node33"><a xlink:href="_cache_8hpp.html" target="_top" xlink:title=" ">
<polygon fill="none" stroke="red" points="2342.5,-11.5 2342.5,-30.5 2470.5,-30.5 2470.5,-11.5 2342.5,-11.5"/>
<text text-anchor="middle" x="2406.5" y="-18.5" font-family="Helvetica,sans-Serif" font-size="10.00">src/wmtk/io/Cache.hpp</text>
</a>
</g>
</g>
<!-- Node7&#45;&gt;Node33 -->
<g id="edge34" class="edge">
<title>Node7&#45;&gt;Node33</title>
<path fill="none" stroke="midnightblue" d="M3731.09,-97.15C3498.96,-93.88 2724.64,-80.29 2479.5,-42 2463.53,-39.51 2446.05,-34.79 2432.21,-30.57"/>
<polygon fill="midnightblue" stroke="midnightblue" points="3731.36,-100.66 3741.41,-97.3 3731.46,-93.66 3731.36,-100.66"/>
</g>
<!-- Node91 -->
<g id="node34" class="node">
<title>Node91</title>
<g id="a_node34"><a xlink:href="_cached_multi_mesh_8cpp.html" target="_top" xlink:title=" ">
<polygon fill="none" stroke="black" points="2488.5,-11.5 2488.5,-30.5 2672.5,-30.5 2672.5,-11.5 2488.5,-11.5"/>
<text text-anchor="middle" x="2580.5" y="-18.5" font-family="Helvetica,sans-Serif" font-size="10.00">src/wmtk/io/CachedMultiMesh.cpp</text>
</a>
</g>
</g>
<!-- Node7&#45;&gt;Node91 -->
<g id="edge35" class="edge">
<title>Node7&#45;&gt;Node91</title>
<path fill="none" stroke="midnightblue" d="M3730.98,-98.03C3557.54,-97.36 3077.49,-90.88 2681.5,-42 2659.86,-39.33 2635.9,-34.66 2616.76,-30.51"/>
<polygon fill="midnightblue" stroke="midnightblue" points="3731.21,-101.53 3741.22,-98.06 3731.23,-94.53 3731.21,-101.53"/>
</g>
<!-- Node92 -->
<g id="node35" class="node">
<title>Node92</title>
<g id="a_node35"><a xlink:href="_h_d_f5_reader_8cpp.html" target="_top" xlink:title=" ">
<polygon fill="none" stroke="black" points="2690.5,-11.5 2690.5,-30.5 2848.5,-30.5 2848.5,-11.5 2690.5,-11.5"/>
<text text-anchor="middle" x="2769.5" y="-18.5" font-family="Helvetica,sans-Serif" font-size="10.00">src/wmtk/io/HDF5Reader.cpp</text>
</a>
</g>
</g>
<!-- Node7&#45;&gt;Node92 -->
<g id="edge36" class="edge">
<title>Node7&#45;&gt;Node92</title>
<path fill="none" stroke="midnightblue" d="M3731.04,-97.77C3576.79,-96.43 3182.83,-88.34 2857.5,-42 2838.73,-39.33 2818.05,-34.71 2801.45,-30.59"/>
<polygon fill="midnightblue" stroke="midnightblue" points="3731.26,-101.27 3741.29,-97.85 3731.32,-94.28 3731.26,-101.27"/>
</g>
<!-- Node93 -->
<g id="node36" class="node">
<title>Node93</title>
<g id="a_node36"><a xlink:href="_mesh_reader_8cpp.html" target="_top" xlink:title=" ">
<polygon fill="none" stroke="black" points="2867,-11.5 2867,-30.5 3024,-30.5 3024,-11.5 2867,-11.5"/>
<text text-anchor="middle" x="2945.5" y="-18.5" font-family="Helvetica,sans-Serif" font-size="10.00">src/wmtk/io/MeshReader.cpp</text>
</a>
</g>
</g>
<!-- Node7&#45;&gt;Node93 -->
<g id="edge37" class="edge">
<title>Node7&#45;&gt;Node93</title>
<path fill="none" stroke="midnightblue" d="M3731.07,-96.49C3598,-92.72 3289.57,-80.26 3033.5,-42 3014.91,-39.22 2994.41,-34.65 2977.88,-30.58"/>
<polygon fill="midnightblue" stroke="midnightblue" points="3731.01,-99.99 3741.11,-96.76 3731.21,-92.99 3731.01,-99.99"/>
</g>
<!-- Node94 -->
<g id="node37" class="node">
<title>Node94</title>
<g id="a_node37"><a xlink:href="_paraview_writer_8cpp.html" target="_top" xlink:title=" ">
<polygon fill="none" stroke="black" points="3042.5,-11.5 3042.5,-30.5 3212.5,-30.5 3212.5,-11.5 3042.5,-11.5"/>
<text text-anchor="middle" x="3127.5" y="-18.5" font-family="Helvetica,sans-Serif" font-size="10.00">src/wmtk/io/ParaviewWriter.cpp</text>
</a>
</g>
</g>
<!-- Node7&#45;&gt;Node94 -->
<g id="edge38" class="edge">
<title>Node7&#45;&gt;Node94</title>
<path fill="none" stroke="midnightblue" d="M3731.18,-93.99C3623.7,-86.95 3404.98,-70.35 3221.5,-42 3202.04,-38.99 3180.55,-34.51 3163.03,-30.55"/>
<polygon fill="midnightblue" stroke="midnightblue" points="3731.02,-97.49 3741.23,-94.64 3731.48,-90.5 3731.02,-97.49"/>
</g>
<!-- Node95 -->
<g id="node38" class="node">
<title>Node95</title>
<g id="a_node38"><a xlink:href="_mesh_8cpp.html" target="_top" xlink:title=" ">
<polygon fill="none" stroke="black" points="3231,-11.5 3231,-30.5 3342,-30.5 3342,-11.5 3231,-11.5"/>
<text text-anchor="middle" x="3286.5" y="-18.5" font-family="Helvetica,sans-Serif" font-size="10.00">src/wmtk/Mesh.cpp</text>
</a>
</g>
</g>
<!-- Node7&#45;&gt;Node95 -->
<g id="edge39" class="edge">
<title>Node7&#45;&gt;Node95</title>
<path fill="none" stroke="midnightblue" d="M3731.28,-93.3C3643.66,-86.25 3484.7,-70.63 3351.5,-42 3337.76,-39.05 3322.75,-34.52 3310.62,-30.52"/>
<polygon fill="midnightblue" stroke="midnightblue" points="3731.11,-96.79 3741.35,-94.09 3731.66,-89.82 3731.11,-96.79"/>
</g>
<!-- Node96 -->
<g id="node39" class="node">
<title>Node96</title>
<g id="a_node39"><a xlink:href="_mesh__attributes_8cpp.html" target="_top" xlink:title=" ">
<polygon fill="none" stroke="black" points="6820.5,-11.5 6820.5,-30.5 6984.5,-30.5 6984.5,-11.5 6820.5,-11.5"/>
<text text-anchor="middle" x="6902.5" y="-18.5" font-family="Helvetica,sans-Serif" font-size="10.00">src/wmtk/Mesh_attributes.cpp</text>
</a>
</g>
</g>
<!-- Node7&#45;&gt;Node96 -->
<g id="edge40" class="edge">
<title>Node7&#45;&gt;Node96</title>
<path fill="none" stroke="midnightblue" d="M3829.23,-86.25C3839.68,-82.92 3851.45,-79.73 3862.5,-78 4186.24,-27.3 6485.95,-79.37 6811.5,-42 6831.59,-39.69 6853.75,-34.87 6871.18,-30.54"/>
<polygon fill="midnightblue" stroke="midnightblue" points="3828.06,-82.95 3819.69,-89.44 3830.28,-89.59 3828.06,-82.95"/>
</g>
<!-- Node97 -->
<g id="node40" class="node">
<title>Node97</title>
<g id="a_node40"><a xlink:href="_mesh__construction_8cpp.html" target="_top" xlink:title=" ">
<polygon fill="none" stroke="black" points="3360.5,-11.5 3360.5,-30.5 3536.5,-30.5 3536.5,-11.5 3360.5,-11.5"/>
<text text-anchor="middle" x="3448.5" y="-18.5" font-family="Helvetica,sans-Serif" font-size="10.00">src/wmtk/Mesh_construction.cpp</text>
</a>
</g>
</g>
<!-- Node7&#45;&gt;Node97 -->
<g id="edge41" class="edge">
<title>Node7&#45;&gt;Node97</title>
<path fill="none" stroke="midnightblue" d="M3748.25,-87.28C3678.33,-72.05 3551.67,-44.47 3487.71,-30.54"/>
<polygon fill="midnightblue" stroke="midnightblue" points="3747.63,-90.72 3758.14,-89.43 3749.12,-83.88 3747.63,-90.72"/>
</g>
<!-- Node98 -->
<g id="node41" class="node">
<title>Node98</title>
<g id="a_node41"><a xlink:href="_mesh__hash_8cpp.html" target="_top" xlink:title=" ">
<polygon fill="none" stroke="black" points="3554.5,-11.5 3554.5,-30.5 3694.5,-30.5 3694.5,-11.5 3554.5,-11.5"/>
<text text-anchor="middle" x="3624.5" y="-18.5" font-family="Helvetica,sans-Serif" font-size="10.00">src/wmtk/Mesh_hash.cpp</text>
</a>
</g>
</g>
<!-- Node7&#45;&gt;Node98 -->
<g id="edge42" class="edge">
<title>Node7&#45;&gt;Node98</title>
<path fill="none" stroke="midnightblue" d="M3768.69,-85.34C3733.33,-69.81 3674.34,-43.9 3643.94,-30.54"/>
<polygon fill="midnightblue" stroke="midnightblue" points="3767.43,-88.61 3777.99,-89.43 3770.24,-82.2 3767.43,-88.61"/>
</g>
<!-- Node99 -->
<g id="node42" class="node">
<title>Node99</title>
<g id="a_node42"><a xlink:href="_mesh__multimesh_8cpp.html" target="_top" xlink:title=" ">
<polygon fill="none" stroke="black" points="3713,-11.5 3713,-30.5 3882,-30.5 3882,-11.5 3713,-11.5"/>
<text text-anchor="middle" x="3797.5" y="-18.5" font-family="Helvetica,sans-Serif" font-size="10.00">src/wmtk/Mesh_multimesh.cpp</text>
</a>
</g>
</g>
<!-- Node7&#45;&gt;Node99 -->
<g id="edge43" class="edge">
<title>Node7&#45;&gt;Node99</title>
<path fill="none" stroke="midnightblue" d="M3797.5,-79.22C3797.5,-63.7 3797.5,-42.36 3797.5,-30.62"/>
<polygon fill="midnightblue" stroke="midnightblue" points="3794,-79.28 3797.5,-89.28 3801,-79.28 3794,-79.28"/>
</g>
<!-- Node100 -->
<g id="node43" class="node">
<title>Node100</title>
<g id="a_node43"><a xlink:href="_mesh_c_r_t_p_8hpp.html" target="_top" xlink:title=" ">
<polygon fill="none" stroke="red" points="3900,-11.5 3900,-30.5 4035,-30.5 4035,-11.5 3900,-11.5"/>
<text text-anchor="middle" x="3967.5" y="-18.5" font-family="Helvetica,sans-Serif" font-size="10.00">src/wmtk/MeshCRTP.hpp</text>
</a>
</g>
</g>
<!-- Node7&#45;&gt;Node100 -->
<g id="edge44" class="edge">
<title>Node7&#45;&gt;Node100</title>
<path fill="none" stroke="midnightblue" d="M3825.81,-85.34C3860.55,-69.81 3918.52,-43.9 3948.4,-30.54"/>
<polygon fill="midnightblue" stroke="midnightblue" points="3824.37,-82.15 3816.67,-89.43 3827.23,-88.54 3824.37,-82.15"/>
</g>
<!-- Node109 -->
<g id="node44" class="node">
<title>Node109</title>
<g id="a_node44"><a xlink:href="multimesh_2attribute_2_attribute_scope_handle_8cpp.html" target="_top" xlink:title=" ">
<polygon fill="none" stroke="black" points="4053,-6 4053,-36 4244,-36 4244,-6 4053,-6"/>
<text text-anchor="start" x="4061" y="-24" font-family="Helvetica,sans-Serif" font-size="10.00">src/wmtk/multimesh</text>
<text text-anchor="middle" x="4148.5" y="-13" font-family="Helvetica,sans-Serif" font-size="10.00">/attribute/AttributeScopeHandle.cpp</text>
</a>
</g>
</g>
<!-- Node7&#45;&gt;Node109 -->
<g id="edge45" class="edge">
<title>Node7&#45;&gt;Node109</title>
<path fill="none" stroke="midnightblue" d="M3832.61,-86.46C3842.24,-83.49 3852.73,-80.45 3862.5,-78 3872.88,-75.39 3994.55,-51.76 4075.81,-36.04"/>
<polygon fill="midnightblue" stroke="midnightblue" points="3831.44,-83.16 3822.95,-89.49 3833.54,-89.84 3831.44,-83.16"/>
</g>
<!-- Node110 -->
<g id="node45" class="node">
<title>Node110</title>
<g id="a_node45"><a xlink:href="_use_parent_scope_r_a_i_i_8cpp.html" target="_top" xlink:title=" ">
<polygon fill="none" stroke="black" points="4262,-6 4262,-36 4445,-36 4445,-6 4262,-6"/>
<text text-anchor="start" x="4270" y="-24" font-family="Helvetica,sans-Serif" font-size="10.00">src/wmtk/multimesh</text>
<text text-anchor="middle" x="4353.5" y="-13" font-family="Helvetica,sans-Serif" font-size="10.00">/attribute/UseParentScopeRAII.cpp</text>
</a>
</g>
</g>
<!-- Node7&#45;&gt;Node110 -->
<g id="edge46" class="edge">
<title>Node7&#45;&gt;Node110</title>
<path fill="none" stroke="midnightblue" d="M3830.65,-86.36C3840.76,-83.2 3851.99,-80.08 3862.5,-78 4033.7,-44.16 4080.81,-67.15 4253.5,-42 4264.89,-40.34 4276.94,-38.24 4288.58,-36.02"/>
<polygon fill="midnightblue" stroke="midnightblue" points="3829.4,-83.08 3820.97,-89.49 3831.56,-89.74 3829.4,-83.08"/>
</g>
<!-- Node7&#45;&gt;Node219 -->
<g id="edge47" class="edge">
<title>Node7&#45;&gt;Node219</title>
<path fill="none" stroke="midnightblue" d="M3829.23,-86.24C3839.68,-82.91 3851.45,-79.73 3862.5,-78 4206.24,-24.29 6648.04,-83.21 6993.5,-42 7004.58,-40.68 7016.31,-38.52 7027.45,-36.1"/>
<polygon fill="midnightblue" stroke="midnightblue" points="3828.06,-82.95 3819.69,-89.44 3830.28,-89.58 3828.06,-82.95"/>
</g>
<!-- Node287&#45;&gt;Node96 -->
<g id="edge50" class="edge">
<title>Node287&#45;&gt;Node96</title>
<path fill="none" stroke="midnightblue" d="M4025.05,-78.58C4026.54,-78.37 4028.03,-78.18 4029.5,-78 4643.27,-3.54 6197.28,-112.72 6811.5,-42 6831.59,-39.69 6853.75,-34.86 6871.18,-30.53"/>
<polygon fill="midnightblue" stroke="midnightblue" points="4024.43,-75.13 4015.09,-80.13 4025.51,-82.05 4024.43,-75.13"/>
</g>
</g>
</svg>
