<?xml version="1.0" encoding="UTF-8" standalone="no"?>
<!DOCTYPE svg PUBLIC "-//W3C//DTD SVG 1.1//EN"
 "http://www.w3.org/Graphics/SVG/1.1/DTD/svg11.dtd">
<!-- Generated by graphviz version 2.43.0 (0)
 -->
<!-- Title: src/wmtk/operations/AttributesUpdate.hpp Pages: 1 -->
<!--zoomable 217 -->
<svg id="main" version="1.1" xmlns="http://www.w3.org/2000/svg" xmlns:xlink="http://www.w3.org/1999/xlink" xml:space="preserve" onload="init(evt)">
<style type="text/css"><![CDATA[
.edge:hover path { stroke: red; }
.edge:hover polygon { stroke: red; fill: red; }
]]></style>
<script type="text/javascript"><![CDATA[
var edges = document.getElementsByTagName('g');
if (edges && edges.length) {
  for (var i=0;i<edges.length;i++) {
    if (edges[i].id.substr(0,4)=='edge') {
      edges[i].setAttribute('class','edge');
    }
  }
}
]]></script>
        <defs>
                <circle id="rim" cx="0" cy="0" r="7"/>
                <circle id="rim2" cx="0" cy="0" r="3.5"/>
                <g id="zoomPlus">
                        <use xlink:href="#rim" fill="#404040">
                                <set attributeName="fill" to="#808080" begin="zoomplus.mouseover" end="zoomplus.mouseout"/>
                        </use>
                        <path d="M-4,0h8M0,-4v8" fill="none" stroke="white" stroke-width="1.5" pointer-events="none"/>
                </g>
                <g id="zoomMin">
                        <use xlink:href="#rim" fill="#404040">
                                <set attributeName="fill" to="#808080" begin="zoomminus.mouseover" end="zoomminus.mouseout"/>
                        </use>
                        <path d="M-4,0h8" fill="none" stroke="white" stroke-width="1.5" pointer-events="none"/>
                </g>
                <g id="dirArrow">
                        <path fill="none" stroke="white" stroke-width="1.5" d="M0,-3.0v7 M-2.5,-0.5L0,-3.0L2.5,-0.5"/>
                </g>
               <g id="resetDef">
                       <use xlink:href="#rim2" fill="#404040">
                               <set attributeName="fill" to="#808080" begin="reset.mouseover" end="reset.mouseout"/>
                       </use>
               </g>
        </defs>

<script type="text/javascript">
var viewWidth = 1654;
var viewHeight = 217;
var sectionId = 'dynsection-1';
</script>
<script xlink:href="svgpan.js"/>
<svg id="graph" class="graph">
<g id="viewport">
<title>src/wmtk/operations/AttributesUpdate.hpp</title>
<!-- Node1 -->
<g id="node1" class="node">
<title>Node1</title>
<g id="a_node1"><a xlink:title=" ">
<polygon fill="#bfbfbf" stroke="black" points="842,-178.5 842,-208.5 966,-208.5 966,-178.5 842,-178.5"/>
<text text-anchor="start" x="850" y="-196.5" font-family="Helvetica,sans-Serif" font-size="10.00">src/wmtk/operations</text>
<text text-anchor="middle" x="904" y="-185.5" font-family="Helvetica,sans-Serif" font-size="10.00">/AttributesUpdate.hpp</text>
</a>
</g>
</g>
<!-- Node2 -->
<g id="node2" class="node">
<title>Node2</title>
<g id="a_node2"><a xlink:href="_adjust_sizing_field_8hpp.html" target="_top" xlink:title=" ">
<polygon fill="none" stroke="black" points="130,-100.5 130,-130.5 254,-130.5 254,-100.5 130,-100.5"/>
<text text-anchor="start" x="138" y="-118.5" font-family="Helvetica,sans-Serif" font-size="10.00">src/wmtk/operations</text>
<text text-anchor="middle" x="192" y="-107.5" font-family="Helvetica,sans-Serif" font-size="10.00">/AdjustSizingField.hpp</text>
</a>
</g>
</g>
<!-- Node1&#45;&gt;Node2 -->
<g id="edge1" class="edge">
<title>Node1&#45;&gt;Node2</title>
<path fill="none" stroke="midnightblue" d="M831.64,-193.02C711.95,-192.51 465.81,-185.59 263,-142 250.45,-139.3 237.11,-134.93 225.41,-130.57"/>
<polygon fill="midnightblue" stroke="midnightblue" points="831.77,-196.52 841.78,-193.05 831.79,-189.52 831.77,-196.52"/>
</g>
<!-- Node3 -->
<g id="node3" class="node">
<title>Node3</title>
<g id="a_node3"><a xlink:href="_a_m_i_p_s_optimization_smoothing_8hpp.html" target="_top" xlink:title=" ">
<polygon fill="none" stroke="black" points="272.5,-100.5 272.5,-130.5 459.5,-130.5 459.5,-100.5 272.5,-100.5"/>
<text text-anchor="start" x="280.5" y="-118.5" font-family="Helvetica,sans-Serif" font-size="10.00">src/wmtk/operations</text>
<text text-anchor="middle" x="366" y="-107.5" font-family="Helvetica,sans-Serif" font-size="10.00">/AMIPSOptimizationSmoothing.hpp</text>
</a>
</g>
</g>
<!-- Node1&#45;&gt;Node3 -->
<g id="edge2" class="edge">
<title>Node1&#45;&gt;Node3</title>
<path fill="none" stroke="midnightblue" d="M831.69,-186.94C745.03,-179.62 595.65,-164.93 469,-142 451.96,-138.91 433.55,-134.66 417.07,-130.5"/>
<polygon fill="midnightblue" stroke="midnightblue" points="831.43,-190.43 841.68,-187.77 832.01,-183.45 831.43,-190.43"/>
</g>
<!-- Node7 -->
<g id="node7" class="node">
<title>Node7</title>
<g id="a_node7"><a xlink:href="_attributes_update_8cpp.html" target="_top" xlink:title=" ">
<polygon fill="none" stroke="black" points="980.5,-100.5 980.5,-130.5 1103.5,-130.5 1103.5,-100.5 980.5,-100.5"/>
<text text-anchor="start" x="988.5" y="-118.5" font-family="Helvetica,sans-Serif" font-size="10.00">src/wmtk/operations</text>
<text text-anchor="middle" x="1042" y="-107.5" font-family="Helvetica,sans-Serif" font-size="10.00">/AttributesUpdate.cpp</text>
</a>
</g>
</g>
<!-- Node1&#45;&gt;Node7 -->
<g id="edge6" class="edge">
<title>Node1&#45;&gt;Node7</title>
<path fill="none" stroke="midnightblue" d="M938.5,-173.5C962.72,-160.16 994.57,-142.62 1016.5,-130.54"/>
<polygon fill="midnightblue" stroke="midnightblue" points="936.7,-170.49 929.63,-178.38 940.08,-176.62 936.7,-170.49"/>
</g>
<!-- Node8 -->
<g id="node8" class="node">
<title>Node8</title>
<g id="a_node8"><a xlink:href="_project_operation_8hpp.html" target="_top" xlink:title=" ">
<polygon fill="none" stroke="black" points="652,-100.5 652,-130.5 828,-130.5 828,-100.5 652,-100.5"/>
<text text-anchor="start" x="660" y="-118.5" font-family="Helvetica,sans-Serif" font-size="10.00">src/wmtk/operations</text>
<text text-anchor="middle" x="740" y="-107.5" font-family="Helvetica,sans-Serif" font-size="10.00">/composite/ProjectOperation.hpp</text>
</a>
</g>
</g>
<!-- Node1&#45;&gt;Node8 -->
<g id="edge7" class="edge">
<title>Node1&#45;&gt;Node8</title>
<path fill="none" stroke="midnightblue" d="M864.13,-174.02C835.22,-160.63 796.72,-142.78 770.3,-130.54"/>
<polygon fill="midnightblue" stroke="midnightblue" points="862.99,-177.35 873.54,-178.38 865.94,-171 862.99,-177.35"/>
</g>
<!-- Node10 -->
<g id="node10" class="node">
<title>Node10</title>
<g id="a_node10"><a xlink:href="_optimization_smoothing_8hpp.html" target="_top" xlink:title=" ">
<polygon fill="none" stroke="black" points="478,-100.5 478,-130.5 634,-130.5 634,-100.5 478,-100.5"/>
<text text-anchor="start" x="486" y="-118.5" font-family="Helvetica,sans-Serif" font-size="10.00">src/wmtk/operations</text>
<text text-anchor="middle" x="556" y="-107.5" font-family="Helvetica,sans-Serif" font-size="10.00">/OptimizationSmoothing.hpp</text>
</a>
</g>
</g>
<!-- Node1&#45;&gt;Node10 -->
<g id="edge11" class="edge">
<title>Node1&#45;&gt;Node10</title>
<path fill="none" stroke="midnightblue" d="M832.03,-180.45C779.39,-171.19 706.41,-157.39 643,-142 629.23,-138.66 614.39,-134.51 600.94,-130.55"/>
<polygon fill="midnightblue" stroke="midnightblue" points="831.49,-183.91 841.95,-182.19 832.7,-177.02 831.49,-183.91"/>
</g>
<!-- Node12 -->
<g id="node12" class="node">
<title>Node12</title>
<g id="a_node12"><a xlink:href="_rounding_8hpp.html" target="_top" xlink:title=" ">
<polygon fill="none" stroke="black" points="846,-100.5 846,-130.5 962,-130.5 962,-100.5 846,-100.5"/>
<text text-anchor="start" x="854" y="-118.5" font-family="Helvetica,sans-Serif" font-size="10.00">src/wmtk/operations</text>
<text text-anchor="middle" x="904" y="-107.5" font-family="Helvetica,sans-Serif" font-size="10.00">/Rounding.hpp</text>
</a>
</g>
</g>
<!-- Node1&#45;&gt;Node12 -->
<g id="edge15" class="edge">
<title>Node1&#45;&gt;Node12</title>
<path fill="none" stroke="midnightblue" d="M904,-168.09C904,-155.76 904,-141.22 904,-130.73"/>
<polygon fill="midnightblue" stroke="midnightblue" points="900.5,-168.2 904,-178.2 907.5,-168.21 900.5,-168.2"/>
</g>
<!-- Node15 -->
<g id="node15" class="node">
<title>Node15</title>
<g id="a_node15"><a xlink:href="_round_rational_to_double_8hpp.html" target="_top" xlink:title=" ">
<polygon fill="none" stroke="black" points="1121.5,-100.5 1121.5,-130.5 1302.5,-130.5 1302.5,-100.5 1121.5,-100.5"/>
<text text-anchor="start" x="1129.5" y="-118.5" font-family="Helvetica,sans-Serif" font-size="10.00">src/wmtk/operations</text>
<text text-anchor="middle" x="1212" y="-107.5" font-family="Helvetica,sans-Serif" font-size="10.00">/utils/RoundRationalToDouble.hpp</text>
</a>
</g>
</g>
<!-- Node1&#45;&gt;Node15 -->
<g id="edge20" class="edge">
<title>Node1&#45;&gt;Node15</title>
<path fill="none" stroke="midnightblue" d="M972.9,-176.13C1013.68,-166.37 1066.32,-153.65 1113,-142 1127.64,-138.35 1143.47,-134.31 1158.09,-130.54"/>
<polygon fill="midnightblue" stroke="midnightblue" points="971.98,-172.75 963.06,-178.48 973.6,-179.56 971.98,-172.75"/>
</g>
<!-- Node17 -->
<g id="node17" class="node">
<title>Node17</title>
<g id="a_node17"><a xlink:href="test__component__isotropic__remeshing_8cpp.html" target="_top" xlink:title=" ">
<polygon fill="none" stroke="black" points="1320.5,-95 1320.5,-136 1445.5,-136 1445.5,-95 1320.5,-95"/>
<text text-anchor="start" x="1328.5" y="-124" font-family="Helvetica,sans-Serif" font-size="10.00">components/tests/test</text>
<text text-anchor="start" x="1328.5" y="-113" font-family="Helvetica,sans-Serif" font-size="10.00">_component_isotropic</text>
<text text-anchor="middle" x="1383" y="-102" font-family="Helvetica,sans-Serif" font-size="10.00">_remeshing.cpp</text>
</a>
</g>
</g>
<!-- Node1&#45;&gt;Node17 -->
<g id="edge22" class="edge">
<title>Node1&#45;&gt;Node17</title>
<path fill="none" stroke="midnightblue" d="M976.27,-188.41C1058.5,-182.64 1196.36,-169.56 1312,-142 1318.88,-140.36 1326.02,-138.28 1333,-136.01"/>
<polygon fill="midnightblue" stroke="midnightblue" points="976.01,-184.92 966.28,-189.09 976.49,-191.9 976.01,-184.92"/>
</g>
<!-- Node18 -->
<g id="node18" class="node">
<title>Node18</title>
<g id="a_node18"><a xlink:href="_isotropic_remeshing_8cpp.html" target="_top" xlink:title=" ">
<polygon fill="none" stroke="black" points="1464,-89.5 1464,-141.5 1646,-141.5 1646,-89.5 1464,-89.5"/>
<text text-anchor="start" x="1472" y="-129.5" font-family="Helvetica,sans-Serif" font-size="10.00">components/wmtk_components</text>
<text text-anchor="start" x="1472" y="-118.5" font-family="Helvetica,sans-Serif" font-size="10.00">/isotropic_remeshing/wmtk</text>
<text text-anchor="start" x="1472" y="-107.5" font-family="Helvetica,sans-Serif" font-size="10.00">/components/isotropic_remeshing</text>
<text text-anchor="middle" x="1555" y="-96.5" font-family="Helvetica,sans-Serif" font-size="10.00">/internal/IsotropicRemeshing.cpp</text>
</a>
</g>
</g>
<!-- Node1&#45;&gt;Node18 -->
<g id="edge23" class="edge">
<title>Node1&#45;&gt;Node18</title>
<path fill="none" stroke="midnightblue" d="M976.64,-189.51C1082.5,-184.32 1285.05,-171.27 1455,-142 1457.91,-141.5 1460.87,-140.96 1463.84,-140.38"/>
<polygon fill="midnightblue" stroke="midnightblue" points="976.21,-186.02 966.39,-190 976.55,-193.02 976.21,-186.02"/>
</g>
<!-- Node4 -->
<g id="node4" class="node">
<title>Node4</title>
<g id="a_node4"><a xlink:href="_a_m_i_p_s_optimization_smoothing_8cpp.html" target="_top" xlink:title=" ">
<polygon fill="none" stroke="black" points="0,-11.5 0,-41.5 186,-41.5 186,-11.5 0,-11.5"/>
<text text-anchor="start" x="8" y="-29.5" font-family="Helvetica,sans-Serif" font-size="10.00">src/wmtk/operations</text>
<text text-anchor="middle" x="93" y="-18.5" font-family="Helvetica,sans-Serif" font-size="10.00">/AMIPSOptimizationSmoothing.cpp</text>
</a>
</g>
</g>
<!-- Node3&#45;&gt;Node4 -->
<g id="edge3" class="edge">
<title>Node3&#45;&gt;Node4</title>
<path fill="none" stroke="midnightblue" d="M312.26,-97.37C261.04,-81.05 184.85,-56.77 137.1,-41.55"/>
<polygon fill="midnightblue" stroke="midnightblue" points="311.24,-100.72 321.83,-100.43 313.37,-94.05 311.24,-100.72"/>
</g>
<!-- Node5 -->
<g id="node5" class="node">
<title>Node5</title>
<g id="a_node5"><a xlink:href="test__component__wildmeshing_8cpp.html" target="_top" xlink:title=" ">
<polygon fill="none" stroke="black" points="378,-11.5 378,-41.5 542,-41.5 542,-11.5 378,-11.5"/>
<text text-anchor="start" x="386" y="-29.5" font-family="Helvetica,sans-Serif" font-size="10.00">components/tests/test</text>
<text text-anchor="middle" x="460" y="-18.5" font-family="Helvetica,sans-Serif" font-size="10.00">_component_wildmeshing.cpp</text>
</a>
</g>
</g>
<!-- Node3&#45;&gt;Node5 -->
<g id="edge4" class="edge">
<title>Node3&#45;&gt;Node5</title>
<path fill="none" stroke="midnightblue" d="M389.02,-93.19C406.37,-77.13 429.68,-55.57 444.77,-41.6"/>
<polygon fill="midnightblue" stroke="midnightblue" points="386.48,-90.77 381.52,-100.13 391.24,-95.91 386.48,-90.77"/>
</g>
<!-- Node6 -->
<g id="node6" class="node">
<title>Node6</title>
<g id="a_node6"><a xlink:href="wildmeshing_8cpp.html" target="_top" xlink:title=" ">
<polygon fill="none" stroke="black" points="560,-6 560,-47 736,-47 736,-6 560,-6"/>
<text text-anchor="start" x="568" y="-35" font-family="Helvetica,sans-Serif" font-size="10.00">components/wmtk_components</text>
<text text-anchor="start" x="568" y="-24" font-family="Helvetica,sans-Serif" font-size="10.00">/wildmeshing/wmtk/components</text>
<text text-anchor="middle" x="648" y="-13" font-family="Helvetica,sans-Serif" font-size="10.00">/wildmeshing/wildmeshing.cpp</text>
</a>
</g>
</g>
<!-- Node3&#45;&gt;Node6 -->
<g id="edge5" class="edge">
<title>Node3&#45;&gt;Node6</title>
<path fill="none" stroke="midnightblue" d="M421.31,-97.44C468.21,-82.97 535.48,-62.21 584.56,-47.07"/>
<polygon fill="midnightblue" stroke="midnightblue" points="420.15,-94.13 411.62,-100.43 422.21,-100.82 420.15,-94.13"/>
</g>
<!-- Node8&#45;&gt;Node5 -->
<g id="edge9" class="edge">
<title>Node8&#45;&gt;Node5</title>
<path fill="none" stroke="midnightblue" d="M684.88,-97.37C632.35,-81.05 554.21,-56.77 505.23,-41.55"/>
<polygon fill="midnightblue" stroke="midnightblue" points="684.11,-100.8 694.7,-100.43 686.19,-94.12 684.11,-100.8"/>
</g>
<!-- Node8&#45;&gt;Node6 -->
<g id="edge10" class="edge">
<title>Node8&#45;&gt;Node6</title>
<path fill="none" stroke="midnightblue" d="M717.48,-93.21C702.6,-79.13 683.23,-60.82 668.73,-47.1"/>
<polygon fill="midnightblue" stroke="midnightblue" points="715.14,-95.81 724.81,-100.13 719.95,-90.72 715.14,-95.81"/>
</g>
<!-- Node9 -->
<g id="node9" class="node">
<title>Node9</title>
<g id="a_node9"><a xlink:href="_project_operation_8cpp.html" target="_top" xlink:title=" ">
<polygon fill="none" stroke="black" points="754,-11.5 754,-41.5 930,-41.5 930,-11.5 754,-11.5"/>
<text text-anchor="start" x="762" y="-29.5" font-family="Helvetica,sans-Serif" font-size="10.00">src/wmtk/operations</text>
<text text-anchor="middle" x="842" y="-18.5" font-family="Helvetica,sans-Serif" font-size="10.00">/composite/ProjectOperation.cpp</text>
</a>
</g>
</g>
<!-- Node8&#45;&gt;Node9 -->
<g id="edge8" class="edge">
<title>Node8&#45;&gt;Node9</title>
<path fill="none" stroke="midnightblue" d="M764.48,-93.62C783.35,-77.52 808.95,-55.69 825.47,-41.6"/>
<polygon fill="midnightblue" stroke="midnightblue" points="762.18,-90.98 756.84,-100.13 766.72,-96.31 762.18,-90.98"/>
</g>
<!-- Node10&#45;&gt;Node5 -->
<g id="edge13" class="edge">
<title>Node10&#45;&gt;Node5</title>
<path fill="none" stroke="midnightblue" d="M532.49,-93.19C514.77,-77.13 490.97,-55.57 475.56,-41.6"/>
<polygon fill="midnightblue" stroke="midnightblue" points="530.39,-96.01 540.15,-100.13 535.09,-90.83 530.39,-96.01"/>
</g>
<!-- Node10&#45;&gt;Node6 -->
<g id="edge14" class="edge">
<title>Node10&#45;&gt;Node6</title>
<path fill="none" stroke="midnightblue" d="M578.52,-93.21C593.4,-79.13 612.77,-60.82 627.27,-47.1"/>
<polygon fill="midnightblue" stroke="midnightblue" points="576.05,-90.72 571.19,-100.13 580.86,-95.81 576.05,-90.72"/>
</g>
<!-- Node11 -->
<g id="node11" class="node">
<title>Node11</title>
<g id="a_node11"><a xlink:href="_optimization_smoothing_8cpp.html" target="_top" xlink:title=" ">
<polygon fill="none" stroke="black" points="204.5,-11.5 204.5,-41.5 359.5,-41.5 359.5,-11.5 204.5,-11.5"/>
<text text-anchor="start" x="212.5" y="-29.5" font-family="Helvetica,sans-Serif" font-size="10.00">src/wmtk/operations</text>
<text text-anchor="middle" x="282" y="-18.5" font-family="Helvetica,sans-Serif" font-size="10.00">/OptimizationSmoothing.cpp</text>
</a>
</g>
</g>
<!-- Node10&#45;&gt;Node11 -->
<g id="edge12" class="edge">
<title>Node10&#45;&gt;Node11</title>
<path fill="none" stroke="midnightblue" d="M502.06,-97.37C450.66,-81.05 374.19,-56.77 326.26,-41.55"/>
<polygon fill="midnightblue" stroke="midnightblue" points="501.08,-100.73 511.67,-100.43 503.2,-94.06 501.08,-100.73"/>
</g>
<!-- Node12&#45;&gt;Node5 -->
<g id="edge17" class="edge">
<title>Node12&#45;&gt;Node5</title>
<path fill="none" stroke="midnightblue" d="M862.32,-96.89C854.04,-93.89 845.33,-91.08 837,-89 712.69,-57.99 676.58,-78.35 551,-53 535.88,-49.95 519.6,-45.7 505.04,-41.54"/>
<polygon fill="midnightblue" stroke="midnightblue" points="861.19,-100.2 871.78,-100.46 863.66,-93.65 861.19,-100.2"/>
</g>
<!-- Node12&#45;&gt;Node6 -->
<g id="edge19" class="edge">
<title>Node12&#45;&gt;Node6</title>
<path fill="none" stroke="midnightblue" d="M858.38,-96.8C851.25,-94.13 843.94,-91.45 837,-89 795.19,-74.25 747.73,-58.81 710.83,-47.09"/>
<polygon fill="midnightblue" stroke="midnightblue" points="857.37,-100.15 867.96,-100.41 859.84,-93.6 857.37,-100.15"/>
</g>
<!-- Node13 -->
<g id="node13" class="node">
<title>Node13</title>
<g id="a_node13"><a xlink:href="_rounding_8cpp.html" target="_top" xlink:title=" ">
<polygon fill="none" stroke="black" points="948,-11.5 948,-41.5 1064,-41.5 1064,-11.5 948,-11.5"/>
<text text-anchor="start" x="956" y="-29.5" font-family="Helvetica,sans-Serif" font-size="10.00">src/wmtk/operations</text>
<text text-anchor="middle" x="1006" y="-18.5" font-family="Helvetica,sans-Serif" font-size="10.00">/Rounding.cpp</text>
</a>
</g>
</g>
<!-- Node12&#45;&gt;Node13 -->
<g id="edge16" class="edge">
<title>Node12&#45;&gt;Node13</title>
<path fill="none" stroke="midnightblue" d="M928.48,-93.62C947.35,-77.52 972.95,-55.69 989.47,-41.6"/>
<polygon fill="midnightblue" stroke="midnightblue" points="926.18,-90.98 920.84,-100.13 930.72,-96.31 926.18,-90.98"/>
</g>
<!-- Node14 -->
<g id="node14" class="node">
<title>Node14</title>
<g id="a_node14"><a xlink:href="triangle__insertion_8cpp.html" target="_top" xlink:title=" ">
<polygon fill="none" stroke="black" points="1082.5,-0.5 1082.5,-52.5 1255.5,-52.5 1255.5,-0.5 1082.5,-0.5"/>
<text text-anchor="start" x="1090.5" y="-40.5" font-family="Helvetica,sans-Serif" font-size="10.00">components/wmtk_components</text>
<text text-anchor="start" x="1090.5" y="-29.5" font-family="Helvetica,sans-Serif" font-size="10.00">/triangle_insertion/wmtk</text>
<text text-anchor="start" x="1090.5" y="-18.5" font-family="Helvetica,sans-Serif" font-size="10.00">/components/triangle_insertion</text>
<text text-anchor="middle" x="1169" y="-7.5" font-family="Helvetica,sans-Serif" font-size="10.00">/triangle_insertion.cpp</text>
</a>
</g>
</g>
<!-- Node12&#45;&gt;Node14 -->
<g id="edge18" class="edge">
<title>Node12&#45;&gt;Node14</title>
<path fill="none" stroke="midnightblue" d="M950.03,-96.84C957.36,-94.15 964.87,-91.45 972,-89 1008.94,-76.32 1050.14,-63.29 1085.27,-52.5"/>
<polygon fill="midnightblue" stroke="midnightblue" points="948.37,-93.72 940.21,-100.49 950.81,-100.29 948.37,-93.72"/>
</g>
<!-- Node16 -->
<g id="node16" class="node">
<title>Node16</title>
<g id="a_node16"><a xlink:href="_round_rational_to_double_8cpp.html" target="_top" xlink:title=" ">
<polygon fill="none" stroke="black" points="1274,-11.5 1274,-41.5 1454,-41.5 1454,-11.5 1274,-11.5"/>
<text text-anchor="start" x="1282" y="-29.5" font-family="Helvetica,sans-Serif" font-size="10.00">src/wmtk/operations</text>
<text text-anchor="middle" x="1364" y="-18.5" font-family="Helvetica,sans-Serif" font-size="10.00">/utils/RoundRationalToDouble.cpp</text>
</a>
</g>
</g>
<!-- Node15&#45;&gt;Node16 -->
<g id="edge21" class="edge">
<title>Node15&#45;&gt;Node16</title>
<path fill="none" stroke="midnightblue" d="M1245.51,-95.32C1273.83,-79.11 1313.75,-56.26 1339.25,-41.67"/>
<polygon fill="midnightblue" stroke="midnightblue" points="1243.7,-92.32 1236.76,-100.33 1247.18,-98.4 1243.7,-92.32"/>
</g>
</g>
</svg>
        <g id="navigator" transform="translate(0 0)" fill="#404254">
                <rect fill="#f2f5e9" fill-opacity="0.5" stroke="#606060" stroke-width=".5" x="0" y="0" width="60" height="60"/>
                <use id="zoomplus" xlink:href="#zoomPlus" x="17" y="9" onmousedown="handleZoom(evt,'in')"/>
                <use id="zoomminus" xlink:href="#zoomMin" x="42" y="9" onmousedown="handleZoom(evt,'out')"/>
                <use id="reset" xlink:href="#resetDef" x="30" y="36" onmousedown="handleReset()"/>
                <g id="arrowUp" xlink:href="#dirArrow" transform="translate(30 24)" onmousedown="handlePan(0,-1)">
                  <use xlink:href="#rim" fill="#404040">
                        <set attributeName="fill" to="#808080" begin="arrowUp.mouseover" end="arrowUp.mouseout"/>
                  </use>
                  <path fill="none" stroke="white" stroke-width="1.5" d="M0,-3.0v7 M-2.5,-0.5L0,-3.0L2.5,-0.5"/>
                </g>
                <g id="arrowRight" xlink:href="#dirArrow" transform="rotate(90) translate(36 -43)" onmousedown="handlePan(1,0)">
                  <use xlink:href="#rim" fill="#404040">
                        <set attributeName="fill" to="#808080" begin="arrowRight.mouseover" end="arrowRight.mouseout"/>
                  </use>
                  <path fill="none" stroke="white" stroke-width="1.5" d="M0,-3.0v7 M-2.5,-0.5L0,-3.0L2.5,-0.5"/>
                </g>
                <g id="arrowDown" xlink:href="#dirArrow" transform="rotate(180) translate(-30 -48)" onmousedown="handlePan(0,1)">
                  <use xlink:href="#rim" fill="#404040">
                        <set attributeName="fill" to="#808080" begin="arrowDown.mouseover" end="arrowDown.mouseout"/>
                  </use>
                  <path fill="none" stroke="white" stroke-width="1.5" d="M0,-3.0v7 M-2.5,-0.5L0,-3.0L2.5,-0.5"/>
                </g>
                <g id="arrowLeft" xlink:href="#dirArrow" transform="rotate(270) translate(-36 17)" onmousedown="handlePan(-1,0)">
                  <use xlink:href="#rim" fill="#404040">
                        <set attributeName="fill" to="#808080" begin="arrowLeft.mouseover" end="arrowLeft.mouseout"/>
                  </use>
                  <path fill="none" stroke="white" stroke-width="1.5" d="M0,-3.0v7 M-2.5,-0.5L0,-3.0L2.5,-0.5"/>
                </g>
        </g>
        <svg viewBox="0 0 15 15" width="100%" height="30px" preserveAspectRatio="xMaxYMin meet">
         <g id="arrow_out" transform="scale(0.3 0.3)">
          <a xlink:href="_attributes_update_8hpp__dep__incl_org.svg" target="_base">
           <rect id="button" ry="5" rx="5" y="6" x="6" height="38" width="38"
                fill="#f2f5e9" fill-opacity="0.5" stroke="#606060" stroke-width="1.0"/>
           <path id="arrow"
             d="M 11.500037,31.436501 C 11.940474,20.09759 22.043105,11.32322 32.158766,21.979434 L 37.068811,17.246167 C 37.068811,17.246167 37.088388,32 37.088388,32 L 22.160133,31.978069 C 22.160133,31.978069 26.997745,27.140456 26.997745,27.140456 C 18.528582,18.264221 13.291696,25.230495 11.500037,31.436501 z"
             style="fill:#404040;"/>
          </a>
         </g>
        </svg>
</svg>
