<?xml version="1.0" encoding="UTF-8" standalone="no"?>
<!DOCTYPE svg PUBLIC "-//W3C//DTD SVG 1.1//EN"
 "http://www.w3.org/Graphics/SVG/1.1/DTD/svg11.dtd">
<!-- Generated by graphviz version 2.43.0 (0)
 -->
<!-- Title: src/wmtk/invariants/EnvelopeInvariant.hpp Pages: 1 -->
<svg width="711pt" height="269pt"
 viewBox="0.00 0.00 711.00 269.00" xmlns="http://www.w3.org/2000/svg" xmlns:xlink="http://www.w3.org/1999/xlink">
<g id="graph0" class="graph" transform="scale(1 1) rotate(0) translate(4 265)">
<title>src/wmtk/invariants/EnvelopeInvariant.hpp</title>
<!-- Node1 -->
<g id="Node000001" class="node">
<title>Node1</title>
<g id="a_Node000001"><a xlink:title=" ">
<polygon fill="#999999" stroke="#666666" points="407,-261 278,-261 278,-231 407,-231 407,-261"/>
<text text-anchor="start" x="286" y="-249" font-family="Helvetica,sans-Serif" font-size="10.00">src/wmtk/invariants</text>
<text text-anchor="middle" x="342.5" y="-238" font-family="Helvetica,sans-Serif" font-size="10.00">/EnvelopeInvariant.hpp</text>
</a>
</g>
</g>
<!-- Node2 -->
<g id="Node000002" class="node">
<title>Node2</title>
<g id="a_Node000002"><a xlink:href="_invariant_8hpp.html" target="_top" xlink:title=" ">
<polygon fill="white" stroke="#666666" points="143,-129 62,-129 62,-110 143,-110 143,-129"/>
<text text-anchor="middle" x="102.5" y="-117" font-family="Helvetica,sans-Serif" font-size="10.00">Invariant.hpp</text>
</a>
</g>
</g>
<!-- Node1&#45;&gt;Node2 -->
<g id="edge1_Node000001_Node000002" class="edge">
<title>Node1&#45;&gt;Node2</title>
<g id="a_edge1_Node000001_Node000002"><a xlink:title=" ">
<path fill="none" stroke="#63b8ff" d="M312.89,-230.86C292.45,-221.01 264.7,-207.46 240.5,-195 200.44,-174.38 154.5,-149.29 127.03,-134.12"/>
<polygon fill="#63b8ff" stroke="#63b8ff" points="128.57,-130.97 118.12,-129.19 125.18,-137.1 128.57,-130.97"/>
</a>
</g>
</g>
<!-- Node7 -->
<g id="Node000007" class="node">
<title>Node7</title>
<g id="a_Node000007"><a xlink:title=" ">
<polygon fill="#e0e0e0" stroke="#999999" points="307.5,-189.5 249.5,-189.5 249.5,-170.5 307.5,-170.5 307.5,-189.5"/>
<text text-anchor="middle" x="278.5" y="-177.5" font-family="Helvetica,sans-Serif" font-size="10.00">memory</text>
</a>
</g>
</g>
<!-- Node1&#45;&gt;Node7 -->
<g id="edge7_Node000001_Node000007" class="edge">
<title>Node1&#45;&gt;Node7</title>
<g id="a_edge7_Node000001_Node000007"><a xlink:title=" ">
<path fill="none" stroke="#63b8ff" d="M328.3,-230.8C318.32,-220.82 304.96,-207.46 294.59,-197.09"/>
<polygon fill="#63b8ff" stroke="#63b8ff" points="296.89,-194.44 287.34,-189.84 291.94,-199.39 296.89,-194.44"/>
</a>
</g>
</g>
<!-- Node8 -->
<g id="Node000008" class="node">
<title>Node8</title>
<g id="a_Node000008"><a xlink:href="_mesh_attribute_handle_8hpp.html" target="_top" xlink:title=" ">
<polygon fill="white" stroke="#666666" points="487,-195 326,-195 326,-165 487,-165 487,-195"/>
<text text-anchor="start" x="334" y="-183" font-family="Helvetica,sans-Serif" font-size="10.00">wmtk/attribute/MeshAttribute</text>
<text text-anchor="middle" x="406.5" y="-172" font-family="Helvetica,sans-Serif" font-size="10.00">Handle.hpp</text>
</a>
</g>
</g>
<!-- Node1&#45;&gt;Node8 -->
<g id="edge8_Node000001_Node000008" class="edge">
<title>Node1&#45;&gt;Node8</title>
<g id="a_edge8_Node000001_Node000008"><a xlink:title=" ">
<path fill="none" stroke="#63b8ff" d="M356.7,-230.8C365.07,-222.43 375.82,-211.68 385.19,-202.31"/>
<polygon fill="#63b8ff" stroke="#63b8ff" points="387.74,-204.71 392.34,-195.16 382.79,-199.76 387.74,-204.71"/>
</a>
</g>
</g>
<!-- Node9 -->
<g id="Node000009" class="node">
<title>Node9</title>
<g id="a_Node000009"><a xlink:href="_rational_8hpp.html" target="_top" xlink:title=" ">
<polygon fill="white" stroke="#666666" points="607,-74 474,-74 474,-55 607,-55 607,-74"/>
<text text-anchor="middle" x="540.5" y="-62" font-family="Helvetica,sans-Serif" font-size="10.00">wmtk/utils/Rational.hpp</text>
</a>
</g>
</g>
<!-- Node1&#45;&gt;Node9 -->
<g id="edge23_Node000001_Node000009" class="edge">
<title>Node1&#45;&gt;Node9</title>
<g id="a_edge23_Node000001_Node000009"><a xlink:title=" ">
<path fill="none" stroke="#63b8ff" d="M407.18,-237.62C470.59,-226.41 563.14,-198.43 601.5,-129 612.58,-108.95 589.79,-90.62 568.99,-78.86"/>
<polygon fill="#63b8ff" stroke="#63b8ff" points="570.47,-75.69 560,-74.09 567.19,-81.87 570.47,-75.69"/>
</a>
</g>
</g>
<!-- Node3 -->
<g id="Node000003" class="node">
<title>Node3</title>
<g id="a_Node000003"><a xlink:title=" ">
<polygon fill="#e0e0e0" stroke="#999999" points="47,-19 0,-19 0,0 47,0 47,-19"/>
<text text-anchor="middle" x="23.5" y="-7" font-family="Helvetica,sans-Serif" font-size="10.00">vector</text>
</a>
</g>
</g>
<!-- Node2&#45;&gt;Node3 -->
<g id="edge2_Node000002_Node000003" class="edge">
<title>Node2&#45;&gt;Node3</title>
<g id="a_edge2_Node000002_Node000003"><a xlink:title=" ">
<path fill="none" stroke="#63b8ff" d="M85.63,-109.97C72.1,-102.3 53.6,-89.82 42.5,-74 33.1,-60.6 28.28,-42.5 25.86,-29.05"/>
<polygon fill="#63b8ff" stroke="#63b8ff" points="29.3,-28.41 24.33,-19.05 22.38,-29.47 29.3,-28.41"/>
</a>
</g>
</g>
<!-- Node4 -->
<g id="Node000004" class="node">
<title>Node4</title>
<g id="a_Node000004"><a xlink:href="_primitive_type_8hpp.html" target="_top" xlink:title=" ">
<polygon fill="white" stroke="#666666" points="187,-74 52,-74 52,-55 187,-55 187,-74"/>
<text text-anchor="middle" x="119.5" y="-62" font-family="Helvetica,sans-Serif" font-size="10.00">wmtk/PrimitiveType.hpp</text>
</a>
</g>
</g>
<!-- Node2&#45;&gt;Node4 -->
<g id="edge3_Node000002_Node000004" class="edge">
<title>Node2&#45;&gt;Node4</title>
<g id="a_edge3_Node000002_Node000004"><a xlink:title=" ">
<path fill="none" stroke="#63b8ff" d="M105.31,-109.75C107.56,-102.72 110.8,-92.62 113.62,-83.84"/>
<polygon fill="#63b8ff" stroke="#63b8ff" points="117.02,-84.68 116.75,-74.09 110.36,-82.54 117.02,-84.68"/>
</a>
</g>
</g>
<!-- Node4&#45;&gt;Node3 -->
<g id="edge6_Node000004_Node000003" class="edge">
<title>Node4&#45;&gt;Node3</title>
<g id="a_edge6_Node000004_Node000003"><a xlink:title=" ">
<path fill="none" stroke="#63b8ff" d="M104.08,-54.98C89.05,-46.69 65.96,-33.94 48.34,-24.22"/>
<polygon fill="#63b8ff" stroke="#63b8ff" points="49.65,-20.94 39.2,-19.17 46.27,-27.07 49.65,-20.94"/>
</a>
</g>
</g>
<!-- Node5 -->
<g id="Node000005" class="node">
<title>Node5</title>
<g id="a_Node000005"><a xlink:title=" ">
<polygon fill="#e0e0e0" stroke="#999999" points="221,-19 156,-19 156,0 221,0 221,-19"/>
<text text-anchor="middle" x="188.5" y="-7" font-family="Helvetica,sans-Serif" font-size="10.00">stdexcept</text>
</a>
</g>
</g>
<!-- Node4&#45;&gt;Node5 -->
<g id="edge4_Node000004_Node000005" class="edge">
<title>Node4&#45;&gt;Node5</title>
<g id="a_edge4_Node000004_Node000005"><a xlink:title=" ">
<path fill="none" stroke="#63b8ff" d="M130.59,-54.98C140.99,-47 156.76,-34.88 169.22,-25.31"/>
<polygon fill="#63b8ff" stroke="#63b8ff" points="171.41,-28.04 177.21,-19.17 167.15,-22.49 171.41,-28.04"/>
</a>
</g>
</g>
<!-- Node6 -->
<g id="Node000006" class="node">
<title>Node6</title>
<g id="a_Node000006"><a xlink:title=" ">
<polygon fill="#e0e0e0" stroke="#999999" points="138,-19 65,-19 65,0 138,0 138,-19"/>
<text text-anchor="middle" x="101.5" y="-7" font-family="Helvetica,sans-Serif" font-size="10.00">string_view</text>
</a>
</g>
</g>
<!-- Node4&#45;&gt;Node6 -->
<g id="edge5_Node000004_Node000006" class="edge">
<title>Node4&#45;&gt;Node6</title>
<g id="a_edge5_Node000004_Node000006"><a xlink:title=" ">
<path fill="none" stroke="#63b8ff" d="M116.53,-54.75C114.14,-47.72 110.71,-37.62 107.73,-28.84"/>
<polygon fill="#63b8ff" stroke="#63b8ff" points="110.95,-27.43 104.42,-19.09 104.32,-29.68 110.95,-27.43"/>
</a>
</g>
</g>
<!-- Node8&#45;&gt;Node9 -->
<g id="edge9_Node000008_Node000009" class="edge">
<title>Node8&#45;&gt;Node9</title>
<g id="a_edge9_Node000008_Node000009"><a xlink:title=" ">
<path fill="none" stroke="#63b8ff" d="M420.8,-164.75C435.39,-150.44 458.9,-127.98 480.5,-110 493.05,-99.55 507.77,-88.62 519.49,-80.2"/>
<polygon fill="#63b8ff" stroke="#63b8ff" points="521.65,-82.95 527.78,-74.31 517.6,-77.25 521.65,-82.95"/>
</a>
</g>
</g>
<!-- Node14 -->
<g id="Node000014" class="node">
<title>Node14</title>
<g id="a_Node000014"><a xlink:href="_attribute_type_8hpp.html" target="_top" xlink:title=" ">
<polygon fill="white" stroke="#666666" points="592,-129 489,-129 489,-110 592,-110 592,-129"/>
<text text-anchor="middle" x="540.5" y="-117" font-family="Helvetica,sans-Serif" font-size="10.00">AttributeType.hpp</text>
</a>
</g>
</g>
<!-- Node8&#45;&gt;Node14 -->
<g id="edge14_Node000008_Node000014" class="edge">
<title>Node8&#45;&gt;Node14</title>
<g id="a_edge14_Node000008_Node000014"><a xlink:title=" ">
<path fill="none" stroke="#63b8ff" d="M438.6,-164.99C460.75,-155.31 489.98,-142.56 511.45,-133.18"/>
<polygon fill="#63b8ff" stroke="#63b8ff" points="512.95,-136.35 520.71,-129.14 510.15,-129.93 512.95,-136.35"/>
</a>
</g>
</g>
<!-- Node15 -->
<g id="Node000015" class="node">
<title>Node15</title>
<g id="a_Node000015"><a xlink:href="_typed_attribute_handle_8hpp.html" target="_top" xlink:title=" ">
<polygon fill="white" stroke="#666666" points="304,-129 161,-129 161,-110 304,-110 304,-129"/>
<text text-anchor="middle" x="232.5" y="-117" font-family="Helvetica,sans-Serif" font-size="10.00">TypedAttributeHandle.hpp</text>
</a>
</g>
</g>
<!-- Node8&#45;&gt;Node15 -->
<g id="edge16_Node000008_Node000015" class="edge">
<title>Node8&#45;&gt;Node15</title>
<g id="a_edge16_Node000008_Node000015"><a xlink:title=" ">
<path fill="none" stroke="#63b8ff" d="M364.82,-164.99C335.18,-155.02 295.81,-141.78 267.73,-132.35"/>
<polygon fill="#63b8ff" stroke="#63b8ff" points="268.54,-128.92 257.94,-129.05 266.3,-135.56 268.54,-128.92"/>
</a>
</g>
</g>
<!-- Node19 -->
<g id="Node000019" class="node">
<title>Node19</title>
<g id="a_Node000019"><a xlink:title=" ">
<polygon fill="#e0e0e0" stroke="#999999" points="363,-129 322,-129 322,-110 363,-110 363,-129"/>
<text text-anchor="middle" x="342.5" y="-117" font-family="Helvetica,sans-Serif" font-size="10.00">tuple</text>
</a>
</g>
</g>
<!-- Node8&#45;&gt;Node19 -->
<g id="edge21_Node000008_Node000019" class="edge">
<title>Node8&#45;&gt;Node19</title>
<g id="a_edge21_Node000008_Node000019"><a xlink:title=" ">
<path fill="none" stroke="#63b8ff" d="M391.01,-164.84C381.53,-156.17 369.39,-145.08 359.62,-136.15"/>
<polygon fill="#63b8ff" stroke="#63b8ff" points="361.83,-133.43 352.09,-129.27 357.11,-138.6 361.83,-133.43"/>
</a>
</g>
</g>
<!-- Node20 -->
<g id="Node000020" class="node">
<title>Node20</title>
<g id="a_Node000020"><a xlink:title=" ">
<polygon fill="#e0e0e0" stroke="#999999" points="432,-129 381,-129 381,-110 432,-110 432,-129"/>
<text text-anchor="middle" x="406.5" y="-117" font-family="Helvetica,sans-Serif" font-size="10.00">variant</text>
</a>
</g>
</g>
<!-- Node8&#45;&gt;Node20 -->
<g id="edge22_Node000008_Node000020" class="edge">
<title>Node8&#45;&gt;Node20</title>
<g id="a_edge22_Node000008_Node000020"><a xlink:title=" ">
<path fill="none" stroke="#63b8ff" d="M406.5,-164.84C406.5,-157.21 406.5,-147.7 406.5,-139.45"/>
<polygon fill="#63b8ff" stroke="#63b8ff" points="410,-139.27 406.5,-129.27 403,-139.27 410,-139.27"/>
</a>
</g>
</g>
<!-- Node10 -->
<g id="Node000010" class="node">
<title>Node10</title>
<g id="a_Node000010"><a xlink:title=" ">
<polygon fill="#e0e0e0" stroke="#999999" points="703,-19 634,-19 634,0 703,0 703,-19"/>
<text text-anchor="middle" x="668.5" y="-7" font-family="Helvetica,sans-Serif" font-size="10.00">Eigen/Core</text>
</a>
</g>
</g>
<!-- Node9&#45;&gt;Node10 -->
<g id="edge10_Node000009_Node000010" class="edge">
<title>Node9&#45;&gt;Node10</title>
<g id="a_edge10_Node000009_Node000010"><a xlink:title=" ">
<path fill="none" stroke="#63b8ff" d="M561.07,-54.98C581.93,-46.34 614.47,-32.87 638.27,-23.02"/>
<polygon fill="#63b8ff" stroke="#63b8ff" points="639.66,-26.23 647.56,-19.17 636.98,-19.76 639.66,-26.23"/>
</a>
</g>
</g>
<!-- Node11 -->
<g id="Node000011" class="node">
<title>Node11</title>
<g id="a_Node000011"><a xlink:title=" ">
<polygon fill="#e0e0e0" stroke="#999999" points="475,-19 428,-19 428,0 475,0 475,-19"/>
<text text-anchor="middle" x="451.5" y="-7" font-family="Helvetica,sans-Serif" font-size="10.00">gmp.h</text>
</a>
</g>
</g>
<!-- Node9&#45;&gt;Node11 -->
<g id="edge11_Node000009_Node000011" class="edge">
<title>Node9&#45;&gt;Node11</title>
<g id="a_edge11_Node000009_Node000011"><a xlink:title=" ">
<path fill="none" stroke="#63b8ff" d="M526.2,-54.98C512.4,-46.77 491.26,-34.18 474.99,-24.49"/>
<polygon fill="#63b8ff" stroke="#63b8ff" points="476.44,-21.28 466.06,-19.17 472.86,-27.29 476.44,-21.28"/>
</a>
</g>
</g>
<!-- Node12 -->
<g id="Node000012" class="node">
<title>Node12</title>
<g id="a_Node000012"><a xlink:title=" ">
<polygon fill="#e0e0e0" stroke="#999999" points="553.5,-19 493.5,-19 493.5,0 553.5,0 553.5,-19"/>
<text text-anchor="middle" x="523.5" y="-7" font-family="Helvetica,sans-Serif" font-size="10.00">iostream</text>
</a>
</g>
</g>
<!-- Node9&#45;&gt;Node12 -->
<g id="edge12_Node000009_Node000012" class="edge">
<title>Node9&#45;&gt;Node12</title>
<g id="a_edge12_Node000009_Node000012"><a xlink:title=" ">
<path fill="none" stroke="#63b8ff" d="M537.69,-54.75C535.44,-47.72 532.2,-37.62 529.38,-28.84"/>
<polygon fill="#63b8ff" stroke="#63b8ff" points="532.64,-27.54 526.25,-19.09 525.98,-29.68 532.64,-27.54"/>
</a>
</g>
</g>
<!-- Node13 -->
<g id="Node000013" class="node">
<title>Node13</title>
<g id="a_Node000013"><a xlink:title=" ">
<polygon fill="#e0e0e0" stroke="#999999" points="615.5,-19 571.5,-19 571.5,0 615.5,0 615.5,-19"/>
<text text-anchor="middle" x="593.5" y="-7" font-family="Helvetica,sans-Serif" font-size="10.00">string</text>
</a>
</g>
</g>
<!-- Node9&#45;&gt;Node13 -->
<g id="edge13_Node000009_Node000013" class="edge">
<title>Node9&#45;&gt;Node13</title>
<g id="a_edge13_Node000009_Node000013"><a xlink:title=" ">
<path fill="none" stroke="#63b8ff" d="M549.25,-54.75C556.97,-47.03 568.4,-35.6 577.72,-26.28"/>
<polygon fill="#63b8ff" stroke="#63b8ff" points="580.31,-28.64 584.91,-19.09 575.36,-23.69 580.31,-28.64"/>
</a>
</g>
</g>
<!-- Node14&#45;&gt;Node9 -->
<g id="edge15_Node000014_Node000009" class="edge">
<title>Node14&#45;&gt;Node9</title>
<g id="a_edge15_Node000014_Node000009"><a xlink:title=" ">
<path fill="none" stroke="#63b8ff" d="M540.5,-109.75C540.5,-102.8 540.5,-92.85 540.5,-84.13"/>
<polygon fill="#63b8ff" stroke="#63b8ff" points="544,-84.09 540.5,-74.09 537,-84.09 544,-84.09"/>
</a>
</g>
</g>
<!-- Node15&#45;&gt;Node4 -->
<g id="edge17_Node000015_Node000004" class="edge">
<title>Node15&#45;&gt;Node4</title>
<g id="a_edge17_Node000015_Node000004"><a xlink:title=" ">
<path fill="none" stroke="#63b8ff" d="M214.34,-109.98C196.25,-101.5 168.22,-88.35 147.31,-78.54"/>
<polygon fill="#63b8ff" stroke="#63b8ff" points="148.53,-75.25 137.99,-74.17 145.55,-81.59 148.53,-75.25"/>
</a>
</g>
</g>
<!-- Node16 -->
<g id="Node000016" class="node">
<title>Node16</title>
<g id="a_Node000016"><a xlink:href="_attribute_handle_8hpp.html" target="_top" xlink:title=" ">
<polygon fill="white" stroke="#666666" points="331,-74 216,-74 216,-55 331,-55 331,-74"/>
<text text-anchor="middle" x="273.5" y="-62" font-family="Helvetica,sans-Serif" font-size="10.00">AttributeHandle.hpp</text>
</a>
</g>
</g>
<!-- Node15&#45;&gt;Node16 -->
<g id="edge18_Node000015_Node000016" class="edge">
<title>Node15&#45;&gt;Node16</title>
<g id="a_edge18_Node000015_Node000016"><a xlink:title=" ">
<path fill="none" stroke="#63b8ff" d="M239.27,-109.75C245.06,-102.26 253.56,-91.28 260.64,-82.13"/>
<polygon fill="#63b8ff" stroke="#63b8ff" points="263.51,-84.14 266.86,-74.09 257.97,-79.86 263.51,-84.14"/>
</a>
</g>
</g>
<!-- Node17 -->
<g id="Node000017" class="node">
<title>Node17</title>
<g id="a_Node000017"><a xlink:title=" ">
<polygon fill="#e0e0e0" stroke="#999999" points="376.5,-19 326.5,-19 326.5,0 376.5,0 376.5,-19"/>
<text text-anchor="middle" x="351.5" y="-7" font-family="Helvetica,sans-Serif" font-size="10.00">cstdint</text>
</a>
</g>
</g>
<!-- Node16&#45;&gt;Node17 -->
<g id="edge19_Node000016_Node000017" class="edge">
<title>Node16&#45;&gt;Node17</title>
<g id="a_edge19_Node000016_Node000017"><a xlink:title=" ">
<path fill="none" stroke="#63b8ff" d="M286.03,-54.98C297.9,-46.92 315.96,-34.65 330.11,-25.03"/>
<polygon fill="#63b8ff" stroke="#63b8ff" points="332.44,-27.69 338.74,-19.17 328.5,-21.9 332.44,-27.69"/>
</a>
</g>
</g>
<!-- Node18 -->
<g id="Node000018" class="node">
<title>Node18</title>
<g id="a_Node000018"><a xlink:title=" ">
<polygon fill="#e0e0e0" stroke="#999999" points="308,-19 239,-19 239,0 308,0 308,-19"/>
<text text-anchor="middle" x="273.5" y="-7" font-family="Helvetica,sans-Serif" font-size="10.00">type_traits</text>
</a>
</g>
</g>
<!-- Node16&#45;&gt;Node18 -->
<g id="edge20_Node000016_Node000018" class="edge">
<title>Node16&#45;&gt;Node18</title>
<g id="a_edge20_Node000016_Node000018"><a xlink:title=" ">
<path fill="none" stroke="#63b8ff" d="M273.5,-54.75C273.5,-47.8 273.5,-37.85 273.5,-29.13"/>
<polygon fill="#63b8ff" stroke="#63b8ff" points="277,-29.09 273.5,-19.09 270,-29.09 277,-29.09"/>
</a>
</g>
</g>
</g>
</svg>
