<?xml version="1.0" encoding="UTF-8" standalone="no"?>
<!DOCTYPE svg PUBLIC "-//W3C//DTD SVG 1.1//EN"
 "http://www.w3.org/Graphics/SVG/1.1/DTD/svg11.dtd">
<!-- Generated by graphviz version 2.43.0 (0)
 -->
<!-- Title: components/input/src/wmtk/components/input/InputOptions.cpp Pages: 1 -->
<svg width="552pt" height="162pt"
 viewBox="0.00 0.00 551.50 162.00" xmlns="http://www.w3.org/2000/svg" xmlns:xlink="http://www.w3.org/1999/xlink">
<g id="graph0" class="graph" transform="scale(1 1) rotate(0) translate(4 158)">
<title>components/input/src/wmtk/components/input/InputOptions.cpp</title>
<!-- Node1 -->
<g id="node1" class="node">
<title>Node1</title>
<g id="a_node1"><a xlink:title=" ">
<polygon fill="#bfbfbf" stroke="black" points="248,-112.5 248,-153.5 386,-153.5 386,-112.5 248,-112.5"/>
<text text-anchor="start" x="256" y="-141.5" font-family="Helvetica,sans-Serif" font-size="10.00">components/input/src</text>
<text text-anchor="start" x="256" y="-130.5" font-family="Helvetica,sans-Serif" font-size="10.00">/wmtk/components/input</text>
<text text-anchor="middle" x="317" y="-119.5" font-family="Helvetica,sans-Serif" font-size="10.00">/InputOptions.cpp</text>
</a>
</g>
</g>
<!-- Node2 -->
<g id="node2" class="node">
<title>Node2</title>
<g id="a_node2"><a xlink:href="_input_options_8hpp.html" target="_top" xlink:title=" ">
<polygon fill="none" stroke="black" points="192,-56.5 192,-75.5 292,-75.5 292,-56.5 192,-56.5"/>
<text text-anchor="middle" x="242" y="-63.5" font-family="Helvetica,sans-Serif" font-size="10.00">InputOptions.hpp</text>
</a>
</g>
</g>
<!-- Node1&#45;&gt;Node2 -->
<g id="edge1" class="edge">
<title>Node1&#45;&gt;Node2</title>
<path fill="none" stroke="midnightblue" d="M294.5,-112.5C283.33,-102.82 270.04,-91.3 259.62,-82.27"/>
<polygon fill="midnightblue" stroke="midnightblue" points="261.83,-79.56 251.98,-75.65 257.25,-84.85 261.83,-79.56"/>
</g>
<!-- Node7 -->
<g id="node7" class="node">
<title>Node7</title>
<g id="a_node7"><a xlink:href="_logger_8hpp.html" target="_top" xlink:title=" ">
<polygon fill="none" stroke="black" points="330.5,-56.5 330.5,-75.5 455.5,-75.5 455.5,-56.5 330.5,-56.5"/>
<text text-anchor="middle" x="393" y="-63.5" font-family="Helvetica,sans-Serif" font-size="10.00">wmtk/utils/Logger.hpp</text>
</a>
</g>
</g>
<!-- Node1&#45;&gt;Node7 -->
<g id="edge6" class="edge">
<title>Node1&#45;&gt;Node7</title>
<path fill="none" stroke="midnightblue" d="M339.8,-112.5C351.12,-102.82 364.59,-91.3 375.14,-82.27"/>
<polygon fill="midnightblue" stroke="midnightblue" points="377.56,-84.81 382.88,-75.65 373.01,-79.49 377.56,-84.81"/>
</g>
<!-- Node3 -->
<g id="node3" class="node">
<title>Node3</title>
<g id="a_node3"><a xlink:title=" ">
<polygon fill="none" stroke="#bfbfbf" points="0,-0.5 0,-19.5 68,-19.5 68,-0.5 0,-0.5"/>
<text text-anchor="middle" x="34" y="-7.5" font-family="Helvetica,sans-Serif" font-size="10.00">filesystem</text>
</a>
</g>
</g>
<!-- Node2&#45;&gt;Node3 -->
<g id="edge2" class="edge">
<title>Node2&#45;&gt;Node3</title>
<path fill="none" stroke="midnightblue" d="M209.04,-56.44C173.21,-47.14 115.84,-32.25 76.61,-22.06"/>
<polygon fill="midnightblue" stroke="midnightblue" points="77.36,-18.64 66.8,-19.52 75.6,-25.42 77.36,-18.64"/>
</g>
<!-- Node4 -->
<g id="node4" class="node">
<title>Node4</title>
<g id="a_node4"><a xlink:title=" ">
<polygon fill="none" stroke="#bfbfbf" points="86,-0.5 86,-19.5 196,-19.5 196,-0.5 86,-0.5"/>
<text text-anchor="middle" x="141" y="-7.5" font-family="Helvetica,sans-Serif" font-size="10.00">nlohmann/json.hpp</text>
</a>
</g>
</g>
<!-- Node2&#45;&gt;Node4 -->
<g id="edge3" class="edge">
<title>Node2&#45;&gt;Node4</title>
<path fill="none" stroke="midnightblue" d="M225.77,-56.32C209.65,-47.7 184.7,-34.36 166.04,-24.39"/>
<polygon fill="midnightblue" stroke="midnightblue" points="167.66,-21.28 157.19,-19.65 164.36,-27.46 167.66,-21.28"/>
</g>
<!-- Node5 -->
<g id="node5" class="node">
<title>Node5</title>
<g id="a_node5"><a xlink:title=" ">
<polygon fill="none" stroke="#bfbfbf" points="214,-0.5 214,-19.5 270,-19.5 270,-0.5 214,-0.5"/>
<text text-anchor="middle" x="242" y="-7.5" font-family="Helvetica,sans-Serif" font-size="10.00">optional</text>
</a>
</g>
</g>
<!-- Node2&#45;&gt;Node5 -->
<g id="edge4" class="edge">
<title>Node2&#45;&gt;Node5</title>
<path fill="none" stroke="midnightblue" d="M242,-56.08C242,-49.01 242,-38.86 242,-29.99"/>
<polygon fill="midnightblue" stroke="midnightblue" points="245.5,-29.75 242,-19.75 238.5,-29.75 245.5,-29.75"/>
</g>
<!-- Node6 -->
<g id="node6" class="node">
<title>Node6</title>
<g id="a_node6"><a xlink:title=" ">
<polygon fill="none" stroke="#bfbfbf" points="288.5,-0.5 288.5,-19.5 335.5,-19.5 335.5,-0.5 288.5,-0.5"/>
<text text-anchor="middle" x="312" y="-7.5" font-family="Helvetica,sans-Serif" font-size="10.00">vector</text>
</a>
</g>
</g>
<!-- Node2&#45;&gt;Node6 -->
<g id="edge5" class="edge">
<title>Node2&#45;&gt;Node6</title>
<path fill="none" stroke="midnightblue" d="M253.25,-56.32C263.8,-48.18 279.8,-35.84 292.44,-26.09"/>
<polygon fill="midnightblue" stroke="midnightblue" points="294.77,-28.71 300.55,-19.83 290.49,-23.17 294.77,-28.71"/>
</g>
<!-- Node8 -->
<g id="node8" class="node">
<title>Node8</title>
<g id="a_node8"><a xlink:title=" ">
<polygon fill="none" stroke="#bfbfbf" points="353.5,-0.5 353.5,-19.5 432.5,-19.5 432.5,-0.5 353.5,-0.5"/>
<text text-anchor="middle" x="393" y="-7.5" font-family="Helvetica,sans-Serif" font-size="10.00">fmt/ranges.h</text>
</a>
</g>
</g>
<!-- Node7&#45;&gt;Node8 -->
<g id="edge7" class="edge">
<title>Node7&#45;&gt;Node8</title>
<path fill="none" stroke="midnightblue" d="M393,-56.08C393,-49.01 393,-38.86 393,-29.99"/>
<polygon fill="midnightblue" stroke="midnightblue" points="396.5,-29.75 393,-19.75 389.5,-29.75 396.5,-29.75"/>
</g>
<!-- Node9 -->
<g id="node9" class="node">
<title>Node9</title>
<g id="a_node9"><a xlink:title=" ">
<polygon fill="none" stroke="#bfbfbf" points="450.5,-0.5 450.5,-19.5 543.5,-19.5 543.5,-0.5 450.5,-0.5"/>
<text text-anchor="middle" x="497" y="-7.5" font-family="Helvetica,sans-Serif" font-size="10.00">spdlog/spdlog.h</text>
</a>
</g>
</g>
<!-- Node7&#45;&gt;Node9 -->
<g id="edge8" class="edge">
<title>Node7&#45;&gt;Node9</title>
<path fill="none" stroke="midnightblue" d="M409.71,-56.32C426.31,-47.7 452,-34.36 471.22,-24.39"/>
<polygon fill="midnightblue" stroke="midnightblue" points="473.07,-27.37 480.33,-19.65 469.84,-21.16 473.07,-27.37"/>
</g>
</g>
</svg>
