<?xml version="1.0" encoding="UTF-8" standalone="no"?>
<!DOCTYPE svg PUBLIC "-//W3C//DTD SVG 1.1//EN"
 "http://www.w3.org/Graphics/SVG/1.1/DTD/svg11.dtd">
<!-- Generated by graphviz version 2.43.0 (0)
 -->
<!-- Title: src/wmtk/invariants/InteriorVertexInvariant.hpp Pages: 1 -->
<svg width="252pt" height="319pt"
 viewBox="0.00 0.00 251.50 319.00" xmlns="http://www.w3.org/2000/svg" xmlns:xlink="http://www.w3.org/1999/xlink">
<g id="graph0" class="graph" transform="scale(1 1) rotate(0) translate(4 315)">
<title>src/wmtk/invariants/InteriorVertexInvariant.hpp</title>
<!-- Node1 -->
<g id="node1" class="node">
<title>Node1</title>
<g id="a_node1"><a xlink:title=" ">
<polygon fill="#bfbfbf" stroke="black" points="2.5,-280.5 2.5,-310.5 153.5,-310.5 153.5,-280.5 2.5,-280.5"/>
<text text-anchor="start" x="10.5" y="-298.5" font-family="Helvetica,sans-Serif" font-size="10.00">src/wmtk/invariants</text>
<text text-anchor="middle" x="78" y="-287.5" font-family="Helvetica,sans-Serif" font-size="10.00">/InteriorVertexInvariant.hpp</text>
</a>
</g>
</g>
<!-- Node2 -->
<g id="node2" class="node">
<title>Node2</title>
<g id="a_node2"><a xlink:href="_interior_simplex_invariant_8hpp.html" target="_top" xlink:title=" ">
<polygon fill="none" stroke="black" points="0,-224.5 0,-243.5 156,-243.5 156,-224.5 0,-224.5"/>
<text text-anchor="middle" x="78" y="-231.5" font-family="Helvetica,sans-Serif" font-size="10.00">InteriorSimplexInvariant.hpp</text>
</a>
</g>
</g>
<!-- Node1&#45;&gt;Node2 -->
<g id="edge1" class="edge">
<title>Node1&#45;&gt;Node2</title>
<path fill="none" stroke="midnightblue" d="M78,-280.4C78,-272.47 78,-262.46 78,-253.86"/>
<polygon fill="midnightblue" stroke="midnightblue" points="81.5,-253.66 78,-243.66 74.5,-253.66 81.5,-253.66"/>
</g>
<!-- Node3 -->
<g id="node3" class="node">
<title>Node3</title>
<g id="a_node3"><a xlink:href="_mesh_invariant_8hpp.html" target="_top" xlink:title=" ">
<polygon fill="none" stroke="black" points="24.5,-168.5 24.5,-187.5 131.5,-187.5 131.5,-168.5 24.5,-168.5"/>
<text text-anchor="middle" x="78" y="-175.5" font-family="Helvetica,sans-Serif" font-size="10.00">MeshInvariant.hpp</text>
</a>
</g>
</g>
<!-- Node2&#45;&gt;Node3 -->
<g id="edge2" class="edge">
<title>Node2&#45;&gt;Node3</title>
<path fill="none" stroke="midnightblue" d="M78,-224.08C78,-217.01 78,-206.86 78,-197.99"/>
<polygon fill="midnightblue" stroke="midnightblue" points="81.5,-197.75 78,-187.75 74.5,-197.75 81.5,-197.75"/>
</g>
<!-- Node4 -->
<g id="node4" class="node">
<title>Node4</title>
<g id="a_node4"><a xlink:href="_invariant_8hpp.html" target="_top" xlink:title=" ">
<polygon fill="none" stroke="black" points="37.5,-112.5 37.5,-131.5 118.5,-131.5 118.5,-112.5 37.5,-112.5"/>
<text text-anchor="middle" x="78" y="-119.5" font-family="Helvetica,sans-Serif" font-size="10.00">Invariant.hpp</text>
</a>
</g>
</g>
<!-- Node3&#45;&gt;Node4 -->
<g id="edge3" class="edge">
<title>Node3&#45;&gt;Node4</title>
<path fill="none" stroke="midnightblue" d="M78,-168.08C78,-161.01 78,-150.86 78,-141.99"/>
<polygon fill="midnightblue" stroke="midnightblue" points="81.5,-141.75 78,-131.75 74.5,-141.75 81.5,-141.75"/>
</g>
<!-- Node5 -->
<g id="node5" class="node">
<title>Node5</title>
<g id="a_node5"><a xlink:title=" ">
<polygon fill="none" stroke="#bfbfbf" points="17.5,-0.5 17.5,-19.5 64.5,-19.5 64.5,-0.5 17.5,-0.5"/>
<text text-anchor="middle" x="41" y="-7.5" font-family="Helvetica,sans-Serif" font-size="10.00">vector</text>
</a>
</g>
</g>
<!-- Node4&#45;&gt;Node5 -->
<g id="edge4" class="edge">
<title>Node4&#45;&gt;Node5</title>
<path fill="none" stroke="midnightblue" d="M70.7,-112.34C63.88,-103.71 54,-89.81 49,-76 43.61,-61.12 41.72,-43.2 41.11,-29.95"/>
<polygon fill="midnightblue" stroke="midnightblue" points="44.6,-29.61 40.85,-19.7 37.61,-29.78 44.6,-29.61"/>
</g>
<!-- Node6 -->
<g id="node6" class="node">
<title>Node6</title>
<g id="a_node6"><a xlink:href="_primitive_type_8hpp.html" target="_top" xlink:title=" ">
<polygon fill="none" stroke="black" points="58.5,-56.5 58.5,-75.5 193.5,-75.5 193.5,-56.5 58.5,-56.5"/>
<text text-anchor="middle" x="126" y="-63.5" font-family="Helvetica,sans-Serif" font-size="10.00">wmtk/PrimitiveType.hpp</text>
</a>
</g>
</g>
<!-- Node4&#45;&gt;Node6 -->
<g id="edge5" class="edge">
<title>Node4&#45;&gt;Node6</title>
<path fill="none" stroke="midnightblue" d="M85.93,-112.08C92.85,-104.3 103.07,-92.8 111.45,-83.37"/>
<polygon fill="midnightblue" stroke="midnightblue" points="114.19,-85.55 118.22,-75.75 108.96,-80.9 114.19,-85.55"/>
</g>
<!-- Node6&#45;&gt;Node5 -->
<g id="edge8" class="edge">
<title>Node6&#45;&gt;Node5</title>
<path fill="none" stroke="midnightblue" d="M112.34,-56.32C99.08,-47.9 78.73,-34.97 63.15,-25.07"/>
<polygon fill="midnightblue" stroke="midnightblue" points="64.94,-22.06 54.62,-19.65 61.19,-27.97 64.94,-22.06"/>
</g>
<!-- Node7 -->
<g id="node7" class="node">
<title>Node7</title>
<g id="a_node7"><a xlink:title=" ">
<polygon fill="none" stroke="#bfbfbf" points="87.5,-0.5 87.5,-19.5 152.5,-19.5 152.5,-0.5 87.5,-0.5"/>
<text text-anchor="middle" x="120" y="-7.5" font-family="Helvetica,sans-Serif" font-size="10.00">stdexcept</text>
</a>
</g>
</g>
<!-- Node6&#45;&gt;Node7 -->
<g id="edge6" class="edge">
<title>Node6&#45;&gt;Node7</title>
<path fill="none" stroke="midnightblue" d="M125.01,-56.08C124.21,-48.93 123.07,-38.64 122.08,-29.69"/>
<polygon fill="midnightblue" stroke="midnightblue" points="125.56,-29.3 120.97,-19.75 118.6,-30.08 125.56,-29.3"/>
</g>
<!-- Node8 -->
<g id="node8" class="node">
<title>Node8</title>
<g id="a_node8"><a xlink:title=" ">
<polygon fill="none" stroke="#bfbfbf" points="170.5,-0.5 170.5,-19.5 243.5,-19.5 243.5,-0.5 170.5,-0.5"/>
<text text-anchor="middle" x="207" y="-7.5" font-family="Helvetica,sans-Serif" font-size="10.00">string_view</text>
</a>
</g>
</g>
<!-- Node6&#45;&gt;Node8 -->
<g id="edge7" class="edge">
<title>Node6&#45;&gt;Node8</title>
<path fill="none" stroke="midnightblue" d="M139.01,-56.32C151.53,-47.98 170.68,-35.21 185.47,-25.35"/>
<polygon fill="midnightblue" stroke="midnightblue" points="187.64,-28.11 194.02,-19.65 183.76,-22.29 187.64,-28.11"/>
</g>
</g>
</svg>
