<?xml version="1.0" encoding="UTF-8" standalone="no"?>
<!DOCTYPE svg PUBLIC "-//W3C//DTD SVG 1.1//EN"
 "http://www.w3.org/Graphics/SVG/1.1/DTD/svg11.dtd">
<!-- Generated by graphviz version 2.43.0 (0)
 -->
<!-- Title: src/wmtk/invariants/InteriorVertexInvariant.hpp Pages: 1 -->
<svg width="534pt" height="117pt"
 viewBox="0.00 0.00 534.00 117.00" xmlns="http://www.w3.org/2000/svg" xmlns:xlink="http://www.w3.org/1999/xlink">
<g id="graph0" class="graph" transform="scale(1 1) rotate(0) translate(4 113)">
<title>src/wmtk/invariants/InteriorVertexInvariant.hpp</title>
<!-- Node1 -->
<g id="node1" class="node">
<title>Node1</title>
<g id="a_node1"><a xlink:title=" ">
<polygon fill="#bfbfbf" stroke="black" points="174.5,-78.5 174.5,-108.5 325.5,-108.5 325.5,-78.5 174.5,-78.5"/>
<text text-anchor="start" x="182.5" y="-96.5" font-family="Helvetica,sans-Serif" font-size="10.00">src/wmtk/invariants</text>
<text text-anchor="middle" x="250" y="-85.5" font-family="Helvetica,sans-Serif" font-size="10.00">/InteriorVertexInvariant.hpp</text>
</a>
</g>
</g>
<!-- Node2 -->
<g id="node2" class="node">
<title>Node2</title>
<g id="a_node2"><a xlink:href="_interior_vertex_invariant_8cpp.html" target="_top" xlink:title=" ">
<polygon fill="none" stroke="black" points="0,-6 0,-36 150,-36 150,-6 0,-6"/>
<text text-anchor="start" x="8" y="-24" font-family="Helvetica,sans-Serif" font-size="10.00">src/wmtk/invariants</text>
<text text-anchor="middle" x="75" y="-13" font-family="Helvetica,sans-Serif" font-size="10.00">/InteriorVertexInvariant.cpp</text>
</a>
</g>
</g>
<!-- Node1&#45;&gt;Node2 -->
<g id="edge1" class="edge">
<title>Node1&#45;&gt;Node2</title>
<path fill="none" stroke="midnightblue" d="M205.7,-74.65C176.01,-62.69 137.46,-47.16 109.93,-36.07"/>
<polygon fill="midnightblue" stroke="midnightblue" points="204.42,-77.91 215.01,-78.4 207.04,-71.42 204.42,-77.91"/>
</g>
<!-- Node3 -->
<g id="node3" class="node">
<title>Node3</title>
<g id="a_node3"><a xlink:href="test__component__wildmeshing_8cpp.html" target="_top" xlink:title=" ">
<polygon fill="none" stroke="black" points="168,-6 168,-36 332,-36 332,-6 168,-6"/>
<text text-anchor="start" x="176" y="-24" font-family="Helvetica,sans-Serif" font-size="10.00">components/tests/test</text>
<text text-anchor="middle" x="250" y="-13" font-family="Helvetica,sans-Serif" font-size="10.00">_component_wildmeshing.cpp</text>
</a>
</g>
</g>
<!-- Node1&#45;&gt;Node3 -->
<g id="edge2" class="edge">
<title>Node1&#45;&gt;Node3</title>
<path fill="none" stroke="midnightblue" d="M250,-68.23C250,-57.57 250,-45.41 250,-36.25"/>
<polygon fill="midnightblue" stroke="midnightblue" points="246.5,-68.23 250,-78.23 253.5,-68.23 246.5,-68.23"/>
</g>
<!-- Node4 -->
<g id="node4" class="node">
<title>Node4</title>
<g id="a_node4"><a xlink:href="wildmeshing_8cpp.html" target="_top" xlink:title=" ">
<polygon fill="none" stroke="black" points="350,-0.5 350,-41.5 526,-41.5 526,-0.5 350,-0.5"/>
<text text-anchor="start" x="358" y="-29.5" font-family="Helvetica,sans-Serif" font-size="10.00">components/wmtk_components</text>
<text text-anchor="start" x="358" y="-18.5" font-family="Helvetica,sans-Serif" font-size="10.00">/wildmeshing/wmtk/components</text>
<text text-anchor="middle" x="438" y="-7.5" font-family="Helvetica,sans-Serif" font-size="10.00">/wildmeshing/wildmeshing.cpp</text>
</a>
</g>
</g>
<!-- Node1&#45;&gt;Node4 -->
<g id="edge3" class="edge">
<title>Node1&#45;&gt;Node4</title>
<path fill="none" stroke="midnightblue" d="M297.2,-74.8C324.19,-64.68 358.1,-51.96 385.88,-41.55"/>
<polygon fill="midnightblue" stroke="midnightblue" points="295.73,-71.61 287.59,-78.4 298.19,-78.17 295.73,-71.61"/>
</g>
</g>
</svg>
