<?xml version="1.0" encoding="UTF-8" standalone="no"?>
<!DOCTYPE svg PUBLIC "-//W3C//DTD SVG 1.1//EN"
 "http://www.w3.org/Graphics/SVG/1.1/DTD/svg11.dtd">
<!-- Generated by graphviz version 2.43.0 (0)
 -->
<!-- Title: components/isotropic_remeshing/wmtk/components/isotropic_remeshing/IsotropicRemeshingOptions.cpp Pages: 1 -->
<svg width="722pt" height="346pt"
 viewBox="0.00 0.00 721.50 346.00" xmlns="http://www.w3.org/2000/svg" xmlns:xlink="http://www.w3.org/1999/xlink">
<g id="graph0" class="graph" transform="scale(1 1) rotate(0) translate(4 342)">
<title>components/isotropic_remeshing/wmtk/components/isotropic_remeshing/IsotropicRemeshingOptions.cpp</title>
<!-- Node1 -->
<g id="Node000001" class="node">
<title>Node1</title>
<g id="a_Node000001"><a xlink:title=" ">
<polygon fill="#999999" stroke="#666666" points="519.5,-338 301.5,-338 301.5,-286 519.5,-286 519.5,-338"/>
<text text-anchor="start" x="309.5" y="-326" font-family="Helvetica,sans-Serif" font-size="10.00">components/isotropic</text>
<text text-anchor="start" x="309.5" y="-315" font-family="Helvetica,sans-Serif" font-size="10.00">_remeshing/wmtk/components</text>
<text text-anchor="start" x="309.5" y="-304" font-family="Helvetica,sans-Serif" font-size="10.00">/isotropic_remeshing/IsotropicRemeshing</text>
<text text-anchor="middle" x="410.5" y="-293" font-family="Helvetica,sans-Serif" font-size="10.00">Options.cpp</text>
</a>
</g>
</g>
<!-- Node2 -->
<g id="Node000002" class="node">
<title>Node2</title>
<g id="a_Node000002"><a xlink:title=" ">
<polygon fill="#e0e0e0" stroke="#999999" points="386.5,-250 276.5,-250 276.5,-231 386.5,-231 386.5,-250"/>
<text text-anchor="middle" x="331.5" y="-238" font-family="Helvetica,sans-Serif" font-size="10.00">nlohmann/json.hpp</text>
</a>
</g>
</g>
<!-- Node1&#45;&gt;Node2 -->
<g id="edge1_Node000001_Node000002" class="edge">
<title>Node1&#45;&gt;Node2</title>
<g id="a_edge1_Node000001_Node000002"><a xlink:title=" ">
<path fill="none" stroke="#63b8ff" d="M381.98,-285.91C371.04,-276.29 358.88,-265.59 349.24,-257.11"/>
<polygon fill="#63b8ff" stroke="#63b8ff" points="351.33,-254.28 341.51,-250.3 346.7,-259.54 351.33,-254.28"/>
</a>
</g>
</g>
<!-- Node3 -->
<g id="Node000003" class="node">
<title>Node3</title>
<g id="a_Node000003"><a xlink:href="_isotropic_remeshing_options_8hpp.html" target="_top" xlink:title=" ">
<polygon fill="white" stroke="#666666" points="576.5,-250 404.5,-250 404.5,-231 576.5,-231 576.5,-250"/>
<text text-anchor="middle" x="490.5" y="-238" font-family="Helvetica,sans-Serif" font-size="10.00">IsotropicRemeshingOptions.hpp</text>
</a>
</g>
</g>
<!-- Node1&#45;&gt;Node3 -->
<g id="edge2_Node000001_Node000003" class="edge">
<title>Node1&#45;&gt;Node3</title>
<g id="a_edge2_Node000001_Node000003"><a xlink:title=" ">
<path fill="none" stroke="#63b8ff" d="M439.38,-285.91C450.46,-276.29 462.77,-265.59 472.54,-257.11"/>
<polygon fill="#63b8ff" stroke="#63b8ff" points="475.11,-259.5 480.37,-250.3 470.52,-254.22 475.11,-259.5"/>
</a>
</g>
</g>
<!-- Node4 -->
<g id="Node000004" class="node">
<title>Node4</title>
<g id="a_Node000004"><a xlink:title=" ">
<polygon fill="#e0e0e0" stroke="#999999" points="309.5,-189.5 251.5,-189.5 251.5,-170.5 309.5,-170.5 309.5,-189.5"/>
<text text-anchor="middle" x="280.5" y="-177.5" font-family="Helvetica,sans-Serif" font-size="10.00">memory</text>
</a>
</g>
</g>
<!-- Node3&#45;&gt;Node4 -->
<g id="edge3_Node000003_Node000004" class="edge">
<title>Node3&#45;&gt;Node4</title>
<g id="a_edge3_Node000003_Node000004"><a xlink:title=" ">
<path fill="none" stroke="#63b8ff" d="M452.95,-230.93C417.9,-222.66 364.28,-209.32 318.5,-195 316.37,-194.34 314.19,-193.62 312,-192.88"/>
<polygon fill="#63b8ff" stroke="#63b8ff" points="313.07,-189.54 302.48,-189.52 310.74,-196.15 313.07,-189.54"/>
</a>
</g>
</g>
<!-- Node5 -->
<g id="Node000005" class="node">
<title>Node5</title>
<g id="a_Node000005"><a xlink:href="_mesh_attribute_handle_8hpp.html" target="_top" xlink:title=" ">
<polygon fill="white" stroke="#666666" points="489,-195 328,-195 328,-165 489,-165 489,-195"/>
<text text-anchor="start" x="336" y="-183" font-family="Helvetica,sans-Serif" font-size="10.00">wmtk/attribute/MeshAttribute</text>
<text text-anchor="middle" x="408.5" y="-172" font-family="Helvetica,sans-Serif" font-size="10.00">Handle.hpp</text>
</a>
</g>
</g>
<!-- Node3&#45;&gt;Node5 -->
<g id="edge4_Node000003_Node000005" class="edge">
<title>Node3&#45;&gt;Node5</title>
<g id="a_edge4_Node000003_Node000005"><a xlink:title=" ">
<path fill="none" stroke="#63b8ff" d="M478.4,-230.87C467.48,-223.08 450.99,-211.32 436.78,-201.17"/>
<polygon fill="#63b8ff" stroke="#63b8ff" points="438.46,-198.07 428.28,-195.11 434.39,-203.77 438.46,-198.07"/>
</a>
</g>
</g>
<!-- Node22 -->
<g id="Node000022" class="node">
<title>Node22</title>
<g id="a_Node000022"><a xlink:title=" ">
<polygon fill="#e0e0e0" stroke="#999999" points="639.5,-189.5 507.5,-189.5 507.5,-170.5 639.5,-170.5 639.5,-189.5"/>
<text text-anchor="middle" x="573.5" y="-177.5" font-family="Helvetica,sans-Serif" font-size="10.00">nlohmann/json_fwd.hpp</text>
</a>
</g>
</g>
<!-- Node3&#45;&gt;Node22 -->
<g id="edge22_Node000003_Node000022" class="edge">
<title>Node3&#45;&gt;Node22</title>
<g id="a_edge22_Node000003_Node000022"><a xlink:title=" ">
<path fill="none" stroke="#63b8ff" d="M502.75,-230.87C515.86,-221.62 536.92,-206.78 552.65,-195.69"/>
<polygon fill="#63b8ff" stroke="#63b8ff" points="555.05,-198.29 561.2,-189.67 551.01,-192.57 555.05,-198.29"/>
</a>
</g>
</g>
<!-- Node23 -->
<g id="Node000023" class="node">
<title>Node23</title>
<g id="a_Node000023"><a xlink:title=" ">
<polygon fill="#e0e0e0" stroke="#999999" points="713.5,-189.5 657.5,-189.5 657.5,-170.5 713.5,-170.5 713.5,-189.5"/>
<text text-anchor="middle" x="685.5" y="-177.5" font-family="Helvetica,sans-Serif" font-size="10.00">optional</text>
</a>
</g>
</g>
<!-- Node3&#45;&gt;Node23 -->
<g id="edge23_Node000003_Node000023" class="edge">
<title>Node3&#45;&gt;Node23</title>
<g id="a_edge23_Node000003_Node000023"><a xlink:title=" ">
<path fill="none" stroke="#63b8ff" d="M524.05,-230.96C556.21,-222.56 606,-208.99 648.5,-195 650.36,-194.39 652.26,-193.74 654.18,-193.07"/>
<polygon fill="#63b8ff" stroke="#63b8ff" points="655.5,-196.31 663.7,-189.61 653.11,-189.73 655.5,-196.31"/>
</a>
</g>
</g>
<!-- Node6 -->
<g id="Node000006" class="node">
<title>Node6</title>
<g id="a_Node000006"><a xlink:href="_rational_8hpp.html" target="_top" xlink:title=" ">
<polygon fill="white" stroke="#666666" points="250,-74 117,-74 117,-55 250,-55 250,-74"/>
<text text-anchor="middle" x="183.5" y="-62" font-family="Helvetica,sans-Serif" font-size="10.00">wmtk/utils/Rational.hpp</text>
</a>
</g>
</g>
<!-- Node5&#45;&gt;Node6 -->
<g id="edge5_Node000005_Node000006" class="edge">
<title>Node5&#45;&gt;Node6</title>
<g id="a_edge5_Node000005_Node000006"><a xlink:title=" ">
<path fill="none" stroke="#63b8ff" d="M337.54,-164.99C283.07,-153.66 215.52,-138.14 205.5,-129 192.98,-117.59 187.59,-98.69 185.26,-84.48"/>
<polygon fill="#63b8ff" stroke="#63b8ff" points="188.7,-83.79 183.98,-74.31 181.76,-84.67 188.7,-83.79"/>
</a>
</g>
</g>
<!-- Node11 -->
<g id="Node000011" class="node">
<title>Node11</title>
<g id="a_Node000011"><a xlink:href="_attribute_type_8hpp.html" target="_top" xlink:title=" ">
<polygon fill="white" stroke="#666666" points="318,-129 215,-129 215,-110 318,-110 318,-129"/>
<text text-anchor="middle" x="266.5" y="-117" font-family="Helvetica,sans-Serif" font-size="10.00">AttributeType.hpp</text>
</a>
</g>
</g>
<!-- Node5&#45;&gt;Node11 -->
<g id="edge10_Node000005_Node000011" class="edge">
<title>Node5&#45;&gt;Node11</title>
<g id="a_edge10_Node000005_Node000011"><a xlink:title=" ">
<path fill="none" stroke="#63b8ff" d="M374.49,-164.99C350.9,-155.27 319.76,-142.44 296.98,-133.06"/>
<polygon fill="#63b8ff" stroke="#63b8ff" points="298.05,-129.71 287.47,-129.14 295.38,-136.18 298.05,-129.71"/>
</a>
</g>
</g>
<!-- Node12 -->
<g id="Node000012" class="node">
<title>Node12</title>
<g id="a_Node000012"><a xlink:href="_typed_attribute_handle_8hpp.html" target="_top" xlink:title=" ">
<polygon fill="white" stroke="#666666" points="480,-129 337,-129 337,-110 480,-110 480,-129"/>
<text text-anchor="middle" x="408.5" y="-117" font-family="Helvetica,sans-Serif" font-size="10.00">TypedAttributeHandle.hpp</text>
</a>
</g>
</g>
<!-- Node5&#45;&gt;Node12 -->
<g id="edge12_Node000005_Node000012" class="edge">
<title>Node5&#45;&gt;Node12</title>
<g id="a_edge12_Node000005_Node000012"><a xlink:title=" ">
<path fill="none" stroke="#63b8ff" d="M408.5,-164.84C408.5,-157.21 408.5,-147.7 408.5,-139.45"/>
<polygon fill="#63b8ff" stroke="#63b8ff" points="412,-139.27 408.5,-129.27 405,-139.27 412,-139.27"/>
</a>
</g>
</g>
<!-- Node20 -->
<g id="Node000020" class="node">
<title>Node20</title>
<g id="a_Node000020"><a xlink:title=" ">
<polygon fill="#e0e0e0" stroke="#999999" points="539,-129 498,-129 498,-110 539,-110 539,-129"/>
<text text-anchor="middle" x="518.5" y="-117" font-family="Helvetica,sans-Serif" font-size="10.00">tuple</text>
</a>
</g>
</g>
<!-- Node5&#45;&gt;Node20 -->
<g id="edge20_Node000005_Node000020" class="edge">
<title>Node5&#45;&gt;Node20</title>
<g id="a_edge20_Node000005_Node000020"><a xlink:title=" ">
<path fill="none" stroke="#63b8ff" d="M434.85,-164.99C452.55,-155.58 475.73,-143.24 493.21,-133.95"/>
<polygon fill="#63b8ff" stroke="#63b8ff" points="495.07,-136.92 502.26,-129.14 491.78,-130.74 495.07,-136.92"/>
</a>
</g>
</g>
<!-- Node21 -->
<g id="Node000021" class="node">
<title>Node21</title>
<g id="a_Node000021"><a xlink:title=" ">
<polygon fill="#e0e0e0" stroke="#999999" points="608,-129 557,-129 557,-110 608,-110 608,-129"/>
<text text-anchor="middle" x="582.5" y="-117" font-family="Helvetica,sans-Serif" font-size="10.00">variant</text>
</a>
</g>
</g>
<!-- Node5&#45;&gt;Node21 -->
<g id="edge21_Node000005_Node000021" class="edge">
<title>Node5&#45;&gt;Node21</title>
<g id="a_edge21_Node000005_Node000021"><a xlink:title=" ">
<path fill="none" stroke="#63b8ff" d="M450.18,-164.99C479.82,-155.02 519.19,-141.78 547.27,-132.35"/>
<polygon fill="#63b8ff" stroke="#63b8ff" points="548.7,-135.56 557.06,-129.05 546.46,-128.92 548.7,-135.56"/>
</a>
</g>
</g>
<!-- Node7 -->
<g id="Node000007" class="node">
<title>Node7</title>
<g id="a_Node000007"><a xlink:title=" ">
<polygon fill="#e0e0e0" stroke="#999999" points="69,-19 0,-19 0,0 69,0 69,-19"/>
<text text-anchor="middle" x="34.5" y="-7" font-family="Helvetica,sans-Serif" font-size="10.00">Eigen/Core</text>
</a>
</g>
</g>
<!-- Node6&#45;&gt;Node7 -->
<g id="edge6_Node000006_Node000007" class="edge">
<title>Node6&#45;&gt;Node7</title>
<g id="a_edge6_Node000006_Node000007"><a xlink:title=" ">
<path fill="none" stroke="#63b8ff" d="M159.56,-54.98C134.94,-46.23 96.38,-32.51 68.58,-22.62"/>
<polygon fill="#63b8ff" stroke="#63b8ff" points="69.47,-19.22 58.88,-19.17 67.12,-25.82 69.47,-19.22"/>
</a>
</g>
</g>
<!-- Node8 -->
<g id="Node000008" class="node">
<title>Node8</title>
<g id="a_Node000008"><a xlink:title=" ">
<polygon fill="#e0e0e0" stroke="#999999" points="134,-19 87,-19 87,0 134,0 134,-19"/>
<text text-anchor="middle" x="110.5" y="-7" font-family="Helvetica,sans-Serif" font-size="10.00">gmp.h</text>
</a>
</g>
</g>
<!-- Node6&#45;&gt;Node8 -->
<g id="edge7_Node000006_Node000008" class="edge">
<title>Node6&#45;&gt;Node8</title>
<g id="a_edge7_Node000006_Node000008"><a xlink:title=" ">
<path fill="none" stroke="#63b8ff" d="M171.77,-54.98C160.77,-47 144.08,-34.88 130.9,-25.31"/>
<polygon fill="#63b8ff" stroke="#63b8ff" points="132.59,-22.21 122.44,-19.17 128.48,-27.88 132.59,-22.21"/>
</a>
</g>
</g>
<!-- Node9 -->
<g id="Node000009" class="node">
<title>Node9</title>
<g id="a_Node000009"><a xlink:title=" ">
<polygon fill="#e0e0e0" stroke="#999999" points="212.5,-19 152.5,-19 152.5,0 212.5,0 212.5,-19"/>
<text text-anchor="middle" x="182.5" y="-7" font-family="Helvetica,sans-Serif" font-size="10.00">iostream</text>
</a>
</g>
</g>
<!-- Node6&#45;&gt;Node9 -->
<g id="edge8_Node000006_Node000009" class="edge">
<title>Node6&#45;&gt;Node9</title>
<g id="a_edge8_Node000006_Node000009"><a xlink:title=" ">
<path fill="none" stroke="#63b8ff" d="M183.33,-54.75C183.2,-47.8 183.02,-37.85 182.85,-29.13"/>
<polygon fill="#63b8ff" stroke="#63b8ff" points="186.35,-29.02 182.66,-19.09 179.35,-29.15 186.35,-29.02"/>
</a>
</g>
</g>
<!-- Node10 -->
<g id="Node000010" class="node">
<title>Node10</title>
<g id="a_Node000010"><a xlink:title=" ">
<polygon fill="#e0e0e0" stroke="#999999" points="274.5,-19 230.5,-19 230.5,0 274.5,0 274.5,-19"/>
<text text-anchor="middle" x="252.5" y="-7" font-family="Helvetica,sans-Serif" font-size="10.00">string</text>
</a>
</g>
</g>
<!-- Node6&#45;&gt;Node10 -->
<g id="edge9_Node000006_Node000010" class="edge">
<title>Node6&#45;&gt;Node10</title>
<g id="a_edge9_Node000006_Node000010"><a xlink:title=" ">
<path fill="none" stroke="#63b8ff" d="M194.59,-54.98C204.99,-47 220.76,-34.88 233.22,-25.31"/>
<polygon fill="#63b8ff" stroke="#63b8ff" points="235.41,-28.04 241.21,-19.17 231.15,-22.49 235.41,-28.04"/>
</a>
</g>
</g>
<!-- Node11&#45;&gt;Node6 -->
<g id="edge11_Node000011_Node000006" class="edge">
<title>Node11&#45;&gt;Node6</title>
<g id="a_edge11_Node000011_Node000006"><a xlink:title=" ">
<path fill="none" stroke="#63b8ff" d="M253.16,-109.98C240.41,-101.84 220.95,-89.41 205.83,-79.76"/>
<polygon fill="#63b8ff" stroke="#63b8ff" points="207.39,-76.6 197.08,-74.17 203.62,-82.5 207.39,-76.6"/>
</a>
</g>
</g>
<!-- Node13 -->
<g id="Node000013" class="node">
<title>Node13</title>
<g id="a_Node000013"><a xlink:href="_primitive_type_8hpp.html" target="_top" xlink:title=" ">
<polygon fill="white" stroke="#666666" points="476,-74 341,-74 341,-55 476,-55 476,-74"/>
<text text-anchor="middle" x="408.5" y="-62" font-family="Helvetica,sans-Serif" font-size="10.00">wmtk/PrimitiveType.hpp</text>
</a>
</g>
</g>
<!-- Node12&#45;&gt;Node13 -->
<g id="edge13_Node000012_Node000013" class="edge">
<title>Node12&#45;&gt;Node13</title>
<g id="a_edge13_Node000012_Node000013"><a xlink:title=" ">
<path fill="none" stroke="#63b8ff" d="M408.5,-109.75C408.5,-102.8 408.5,-92.85 408.5,-84.13"/>
<polygon fill="#63b8ff" stroke="#63b8ff" points="412,-84.09 408.5,-74.09 405,-84.09 412,-84.09"/>
</a>
</g>
</g>
<!-- Node17 -->
<g id="Node000017" class="node">
<title>Node17</title>
<g id="a_Node000017"><a xlink:href="_attribute_handle_8hpp.html" target="_top" xlink:title=" ">
<polygon fill="white" stroke="#666666" points="615,-74 500,-74 500,-55 615,-55 615,-74"/>
<text text-anchor="middle" x="557.5" y="-62" font-family="Helvetica,sans-Serif" font-size="10.00">AttributeHandle.hpp</text>
</a>
</g>
</g>
<!-- Node12&#45;&gt;Node17 -->
<g id="edge17_Node000012_Node000017" class="edge">
<title>Node12&#45;&gt;Node17</title>
<g id="a_edge17_Node000012_Node000017"><a xlink:title=" ">
<path fill="none" stroke="#63b8ff" d="M432.44,-109.98C457.06,-101.23 495.62,-87.51 523.42,-77.62"/>
<polygon fill="#63b8ff" stroke="#63b8ff" points="524.88,-80.82 533.12,-74.17 522.53,-74.22 524.88,-80.82"/>
</a>
</g>
</g>
<!-- Node14 -->
<g id="Node000014" class="node">
<title>Node14</title>
<g id="a_Node000014"><a xlink:title=" ">
<polygon fill="#e0e0e0" stroke="#999999" points="358,-19 293,-19 293,0 358,0 358,-19"/>
<text text-anchor="middle" x="325.5" y="-7" font-family="Helvetica,sans-Serif" font-size="10.00">stdexcept</text>
</a>
</g>
</g>
<!-- Node13&#45;&gt;Node14 -->
<g id="edge14_Node000013_Node000014" class="edge">
<title>Node13&#45;&gt;Node14</title>
<g id="a_edge14_Node000013_Node000014"><a xlink:title=" ">
<path fill="none" stroke="#63b8ff" d="M395.16,-54.98C382.41,-46.84 362.95,-34.41 347.83,-24.76"/>
<polygon fill="#63b8ff" stroke="#63b8ff" points="349.39,-21.6 339.08,-19.17 345.62,-27.5 349.39,-21.6"/>
</a>
</g>
</g>
<!-- Node15 -->
<g id="Node000015" class="node">
<title>Node15</title>
<g id="a_Node000015"><a xlink:title=" ">
<polygon fill="#e0e0e0" stroke="#999999" points="449,-19 376,-19 376,0 449,0 449,-19"/>
<text text-anchor="middle" x="412.5" y="-7" font-family="Helvetica,sans-Serif" font-size="10.00">string_view</text>
</a>
</g>
</g>
<!-- Node13&#45;&gt;Node15 -->
<g id="edge15_Node000013_Node000015" class="edge">
<title>Node13&#45;&gt;Node15</title>
<g id="a_edge15_Node000013_Node000015"><a xlink:title=" ">
<path fill="none" stroke="#63b8ff" d="M409.16,-54.75C409.68,-47.8 410.44,-37.85 411.09,-29.13"/>
<polygon fill="#63b8ff" stroke="#63b8ff" points="414.59,-29.32 411.85,-19.09 407.61,-28.8 414.59,-29.32"/>
</a>
</g>
</g>
<!-- Node16 -->
<g id="Node000016" class="node">
<title>Node16</title>
<g id="a_Node000016"><a xlink:title=" ">
<polygon fill="#e0e0e0" stroke="#999999" points="514,-19 467,-19 467,0 514,0 514,-19"/>
<text text-anchor="middle" x="490.5" y="-7" font-family="Helvetica,sans-Serif" font-size="10.00">vector</text>
</a>
</g>
</g>
<!-- Node13&#45;&gt;Node16 -->
<g id="edge16_Node000013_Node000016" class="edge">
<title>Node13&#45;&gt;Node16</title>
<g id="a_edge16_Node000013_Node000016"><a xlink:title=" ">
<path fill="none" stroke="#63b8ff" d="M421.67,-54.98C434.27,-46.84 453.5,-34.41 468.44,-24.76"/>
<polygon fill="#63b8ff" stroke="#63b8ff" points="470.59,-27.54 477.09,-19.17 466.79,-21.66 470.59,-27.54"/>
</a>
</g>
</g>
<!-- Node18 -->
<g id="Node000018" class="node">
<title>Node18</title>
<g id="a_Node000018"><a xlink:title=" ">
<polygon fill="#e0e0e0" stroke="#999999" points="582.5,-19 532.5,-19 532.5,0 582.5,0 582.5,-19"/>
<text text-anchor="middle" x="557.5" y="-7" font-family="Helvetica,sans-Serif" font-size="10.00">cstdint</text>
</a>
</g>
</g>
<!-- Node17&#45;&gt;Node18 -->
<g id="edge18_Node000017_Node000018" class="edge">
<title>Node17&#45;&gt;Node18</title>
<g id="a_edge18_Node000017_Node000018"><a xlink:title=" ">
<path fill="none" stroke="#63b8ff" d="M557.5,-54.75C557.5,-47.8 557.5,-37.85 557.5,-29.13"/>
<polygon fill="#63b8ff" stroke="#63b8ff" points="561,-29.09 557.5,-19.09 554,-29.09 561,-29.09"/>
</a>
</g>
</g>
<!-- Node19 -->
<g id="Node000019" class="node">
<title>Node19</title>
<g id="a_Node000019"><a xlink:title=" ">
<polygon fill="#e0e0e0" stroke="#999999" points="670,-19 601,-19 601,0 670,0 670,-19"/>
<text text-anchor="middle" x="635.5" y="-7" font-family="Helvetica,sans-Serif" font-size="10.00">type_traits</text>
</a>
</g>
</g>
<!-- Node17&#45;&gt;Node19 -->
<g id="edge19_Node000017_Node000019" class="edge">
<title>Node17&#45;&gt;Node19</title>
<g id="a_edge19_Node000017_Node000019"><a xlink:title=" ">
<path fill="none" stroke="#63b8ff" d="M570.03,-54.98C581.9,-46.92 599.96,-34.65 614.11,-25.03"/>
<polygon fill="#63b8ff" stroke="#63b8ff" points="616.44,-27.69 622.74,-19.17 612.5,-21.9 616.44,-27.69"/>
</a>
</g>
</g>
</g>
</svg>
