<?xml version="1.0" encoding="UTF-8" standalone="no"?>
<!DOCTYPE svg PUBLIC "-//W3C//DTD SVG 1.1//EN"
 "http://www.w3.org/Graphics/SVG/1.1/DTD/svg11.dtd">
<!-- Generated by graphviz version 2.43.0 (0)
 -->
<!-- Title: components/wmtk_components/marching/wmtk/components/marching/internal/MarchingOptions.cpp Pages: 1 -->
<svg width="476pt" height="173pt"
 viewBox="0.00 0.00 475.50 173.00" xmlns="http://www.w3.org/2000/svg" xmlns:xlink="http://www.w3.org/1999/xlink">
<g id="graph0" class="graph" transform="scale(1 1) rotate(0) translate(4 169)">
<title>components/wmtk_components/marching/wmtk/components/marching/internal/MarchingOptions.cpp</title>
<!-- Node1 -->
<g id="node1" class="node">
<title>Node1</title>
<g id="a_node1"><a xlink:title=" ">
<polygon fill="#bfbfbf" stroke="black" points="118,-123.5 118,-164.5 330,-164.5 330,-123.5 118,-123.5"/>
<text text-anchor="start" x="126" y="-152.5" font-family="Helvetica,sans-Serif" font-size="10.00">components/wmtk_components</text>
<text text-anchor="start" x="126" y="-141.5" font-family="Helvetica,sans-Serif" font-size="10.00">/marching/wmtk/components</text>
<text text-anchor="middle" x="224" y="-130.5" font-family="Helvetica,sans-Serif" font-size="10.00">/marching/internal/MarchingOptions.cpp</text>
</a>
</g>
</g>
<!-- Node2 -->
<g id="node2" class="node">
<title>Node2</title>
<g id="a_node2"><a xlink:href="_marching_options_8hpp.html" target="_top" xlink:title=" ">
<polygon fill="none" stroke="black" points="94,-67.5 94,-86.5 214,-86.5 214,-67.5 94,-67.5"/>
<text text-anchor="middle" x="154" y="-74.5" font-family="Helvetica,sans-Serif" font-size="10.00">MarchingOptions.hpp</text>
</a>
</g>
</g>
<!-- Node1&#45;&gt;Node2 -->
<g id="edge1" class="edge">
<title>Node1&#45;&gt;Node2</title>
<path fill="none" stroke="midnightblue" d="M203,-123.5C192.68,-113.92 180.41,-102.53 170.74,-93.54"/>
<polygon fill="midnightblue" stroke="midnightblue" points="173.03,-90.89 163.32,-86.65 168.26,-96.02 173.03,-90.89"/>
</g>
<!-- Node5 -->
<g id="node5" class="node">
<title>Node5</title>
<g id="a_node5"><a xlink:href="_logger_8hpp.html" target="_top" xlink:title=" ">
<polygon fill="none" stroke="black" points="232.5,-67.5 232.5,-86.5 357.5,-86.5 357.5,-67.5 232.5,-67.5"/>
<text text-anchor="middle" x="295" y="-74.5" font-family="Helvetica,sans-Serif" font-size="10.00">wmtk/utils/Logger.hpp</text>
</a>
</g>
</g>
<!-- Node1&#45;&gt;Node5 -->
<g id="edge4" class="edge">
<title>Node1&#45;&gt;Node5</title>
<path fill="none" stroke="midnightblue" d="M245.3,-123.5C255.77,-113.92 268.21,-102.53 278.02,-93.54"/>
<polygon fill="midnightblue" stroke="midnightblue" points="280.54,-95.99 285.55,-86.65 275.81,-90.82 280.54,-95.99"/>
</g>
<!-- Node3 -->
<g id="node3" class="node">
<title>Node3</title>
<g id="a_node3"><a xlink:title=" ">
<polygon fill="none" stroke="#bfbfbf" points="128.5,-6 128.5,-25 221.5,-25 221.5,-6 128.5,-6"/>
<text text-anchor="middle" x="175" y="-13" font-family="Helvetica,sans-Serif" font-size="10.00">spdlog/spdlog.h</text>
</a>
</g>
</g>
<!-- Node2&#45;&gt;Node3 -->
<g id="edge2" class="edge">
<title>Node2&#45;&gt;Node3</title>
<path fill="none" stroke="midnightblue" d="M157.01,-67.48C160.03,-58.9 164.79,-45.43 168.65,-34.48"/>
<polygon fill="midnightblue" stroke="midnightblue" points="171.97,-35.6 172,-25.01 165.37,-33.27 171.97,-35.6"/>
</g>
<!-- Node4 -->
<g id="node4" class="node">
<title>Node4</title>
<g id="a_node4"><a xlink:title=" ">
<polygon fill="none" stroke="#bfbfbf" points="0,-6 0,-25 110,-25 110,-6 0,-6"/>
<text text-anchor="middle" x="55" y="-13" font-family="Helvetica,sans-Serif" font-size="10.00">nlohmann/json.hpp</text>
</a>
</g>
</g>
<!-- Node2&#45;&gt;Node4 -->
<g id="edge3" class="edge">
<title>Node2&#45;&gt;Node4</title>
<path fill="none" stroke="midnightblue" d="M139.82,-67.48C123.64,-57.75 96.97,-41.73 77.86,-30.24"/>
<polygon fill="midnightblue" stroke="midnightblue" points="79.53,-27.16 69.16,-25.01 75.93,-33.16 79.53,-27.16"/>
</g>
<!-- Node5&#45;&gt;Node3 -->
<g id="edge7" class="edge">
<title>Node5&#45;&gt;Node3</title>
<path fill="none" stroke="midnightblue" d="M277.81,-67.48C257.76,-57.53 224.4,-40.99 201.14,-29.46"/>
<polygon fill="midnightblue" stroke="midnightblue" points="202.68,-26.32 192.16,-25.01 199.57,-32.59 202.68,-26.32"/>
</g>
<!-- Node6 -->
<g id="node6" class="node">
<title>Node6</title>
<g id="a_node6"><a xlink:title=" ">
<polygon fill="none" stroke="#bfbfbf" points="239.5,-0.5 239.5,-30.5 350.5,-30.5 350.5,-0.5 239.5,-0.5"/>
<text text-anchor="start" x="247.5" y="-18.5" font-family="Helvetica,sans-Serif" font-size="10.00">spdlog/fmt/bundled</text>
<text text-anchor="middle" x="295" y="-7.5" font-family="Helvetica,sans-Serif" font-size="10.00">/ranges.h</text>
</a>
</g>
</g>
<!-- Node5&#45;&gt;Node6 -->
<g id="edge5" class="edge">
<title>Node5&#45;&gt;Node6</title>
<path fill="none" stroke="midnightblue" d="M295,-67.48C295,-60.47 295,-50.19 295,-40.7"/>
<polygon fill="midnightblue" stroke="midnightblue" points="298.5,-40.52 295,-30.52 291.5,-40.52 298.5,-40.52"/>
</g>
<!-- Node7 -->
<g id="node7" class="node">
<title>Node7</title>
<g id="a_node7"><a xlink:title=" ">
<polygon fill="none" stroke="#bfbfbf" points="368.5,-6 368.5,-25 467.5,-25 467.5,-6 368.5,-6"/>
<text text-anchor="middle" x="418" y="-13" font-family="Helvetica,sans-Serif" font-size="10.00">spdlog/fmt/ostr.h</text>
</a>
</g>
</g>
<!-- Node5&#45;&gt;Node7 -->
<g id="edge6" class="edge">
<title>Node5&#45;&gt;Node7</title>
<path fill="none" stroke="midnightblue" d="M312.62,-67.48C333.17,-57.53 367.36,-40.99 391.21,-29.46"/>
<polygon fill="midnightblue" stroke="midnightblue" points="392.93,-32.51 400.41,-25.01 389.88,-26.21 392.93,-32.51"/>
</g>
</g>
</svg>
