<?xml version="1.0" encoding="UTF-8" standalone="no"?>
<!DOCTYPE svg PUBLIC "-//W3C//DTD SVG 1.1//EN"
 "http://www.w3.org/Graphics/SVG/1.1/DTD/svg11.dtd">
<!-- Generated by graphviz version 2.43.0 (0)
 -->
<!-- Title: src/wmtk/MultiMeshManager.hpp Pages: 1 -->
<svg width="1331pt" height="789pt"
 viewBox="0.00 0.00 1331.00 789.00" xmlns="http://www.w3.org/2000/svg" xmlns:xlink="http://www.w3.org/1999/xlink">
<g id="graph0" class="graph" transform="scale(1 1) rotate(0) translate(4 785)">
<title>src/wmtk/MultiMeshManager.hpp</title>
<!-- Node1 -->
<g id="node1" class="node">
<title>Node1</title>
<g id="a_node1"><a xlink:title=" ">
<polygon fill="#bfbfbf" stroke="black" points="170,-761.5 170,-780.5 349,-780.5 349,-761.5 170,-761.5"/>
<text text-anchor="middle" x="259.5" y="-768.5" font-family="Helvetica,sans-Serif" font-size="10.00">src/wmtk/MultiMeshManager.hpp</text>
</a>
</g>
</g>
<!-- Node2 -->
<g id="node2" class="node">
<title>Node2</title>
<g id="a_node2"><a xlink:title=" ">
<polygon fill="none" stroke="#bfbfbf" points="0,-700 0,-719 41,-719 41,-700 0,-700"/>
<text text-anchor="middle" x="20.5" y="-707" font-family="Helvetica,sans-Serif" font-size="10.00">tuple</text>
</a>
</g>
</g>
<!-- Node1&#45;&gt;Node2 -->
<g id="edge1" class="edge">
<title>Node1&#45;&gt;Node2</title>
<path fill="none" stroke="midnightblue" d="M209.39,-761.49C167.7,-753.81 107.05,-741.22 55.5,-725 53.36,-724.33 51.17,-723.57 48.98,-722.78"/>
<polygon fill="midnightblue" stroke="midnightblue" points="50.12,-719.47 39.53,-719.09 47.58,-725.99 50.12,-719.47"/>
</g>
<!-- Node3 -->
<g id="node3" class="node">
<title>Node3</title>
<g id="a_node3"><a xlink:href="_tuple_8hpp.html" target="_top" xlink:title=" ">
<polygon fill="none" stroke="black" points="445,-112.5 445,-131.5 508,-131.5 508,-112.5 445,-112.5"/>
<text text-anchor="middle" x="476.5" y="-119.5" font-family="Helvetica,sans-Serif" font-size="10.00">Tuple.hpp</text>
</a>
</g>
</g>
<!-- Node1&#45;&gt;Node3 -->
<g id="edge2" class="edge">
<title>Node1&#45;&gt;Node3</title>
<path fill="none" stroke="midnightblue" d="M169.98,-764.47C140.58,-758.37 109.96,-746.73 88.5,-725 64.03,-700.23 69.5,-683.82 69.5,-649 69.5,-649 69.5,-649 69.5,-249.5 69.5,-212.31 60.75,-192.76 88.5,-168 113.98,-145.26 339.62,-130.44 434.62,-125.16"/>
<polygon fill="midnightblue" stroke="midnightblue" points="434.95,-128.65 444.74,-124.61 434.56,-121.66 434.95,-128.65"/>
</g>
<!-- Node8 -->
<g id="node8" class="node">
<title>Node8</title>
<g id="a_node8"><a xlink:href="attribute_2_attribute_scope_handle_8hpp.html" target="_top" xlink:title=" ">
<polygon fill="none" stroke="black" points="97.5,-694.5 97.5,-724.5 231.5,-724.5 231.5,-694.5 97.5,-694.5"/>
<text text-anchor="start" x="105.5" y="-712.5" font-family="Helvetica,sans-Serif" font-size="10.00">attribute/AttributeScope</text>
<text text-anchor="middle" x="164.5" y="-701.5" font-family="Helvetica,sans-Serif" font-size="10.00">Handle.hpp</text>
</a>
</g>
</g>
<!-- Node1&#45;&gt;Node8 -->
<g id="edge7" class="edge">
<title>Node1&#45;&gt;Node8</title>
<path fill="none" stroke="midnightblue" d="M245.89,-761.48C232.78,-753.27 212.49,-740.56 195.45,-729.88"/>
<polygon fill="midnightblue" stroke="midnightblue" points="197.22,-726.86 186.89,-724.52 193.51,-732.8 197.22,-726.86"/>
</g>
<!-- Node9 -->
<g id="node9" class="node">
<title>Node9</title>
<g id="a_node9"><a xlink:href="_mesh_attributes_8hpp.html" target="_top" xlink:title=" ">
<polygon fill="none" stroke="black" points="324,-414.5 324,-433.5 481,-433.5 481,-414.5 324,-414.5"/>
<text text-anchor="middle" x="402.5" y="-421.5" font-family="Helvetica,sans-Serif" font-size="10.00">attribute/MeshAttributes.hpp</text>
</a>
</g>
</g>
<!-- Node1&#45;&gt;Node9 -->
<g id="edge8" class="edge">
<title>Node1&#45;&gt;Node9</title>
<path fill="none" stroke="midnightblue" d="M272.54,-761.39C297.7,-743.63 350.5,-700.26 350.5,-649 350.5,-649 350.5,-649 350.5,-535 350.5,-499.12 373.39,-462.42 388.8,-441.79"/>
<polygon fill="midnightblue" stroke="midnightblue" points="391.68,-443.79 395.05,-433.74 386.15,-439.5 391.68,-443.79"/>
</g>
<!-- Node10 -->
<g id="node10" class="node">
<title>Node10</title>
<g id="a_node10"><a xlink:href="_merkle_tree_interior_node_8hpp.html" target="_top" xlink:title=" ">
<polygon fill="none" stroke="black" points="139,-235.5 139,-265.5 300,-265.5 300,-235.5 139,-235.5"/>
<text text-anchor="start" x="147" y="-253.5" font-family="Helvetica,sans-Serif" font-size="10.00">wmtk/utils/MerkleTreeInterior</text>
<text text-anchor="middle" x="219.5" y="-242.5" font-family="Helvetica,sans-Serif" font-size="10.00">Node.hpp</text>
</a>
</g>
</g>
<!-- Node1&#45;&gt;Node10 -->
<g id="edge61" class="edge">
<title>Node1&#45;&gt;Node10</title>
<path fill="none" stroke="midnightblue" d="M258.84,-761.43C254.38,-703.61 228.63,-369.84 221.39,-276.02"/>
<polygon fill="midnightblue" stroke="midnightblue" points="224.86,-275.51 220.6,-265.81 217.88,-276.05 224.86,-275.51"/>
</g>
<!-- Node26 -->
<g id="node26" class="node">
<title>Node26</title>
<g id="a_node26"><a xlink:href="_update_vertex_multi_mesh_map_hash_8hpp.html" target="_top" xlink:title=" ">
<polygon fill="none" stroke="black" points="628.5,-694.5 628.5,-724.5 832.5,-724.5 832.5,-694.5 628.5,-694.5"/>
<text text-anchor="start" x="636.5" y="-712.5" font-family="Helvetica,sans-Serif" font-size="10.00">wmtk/operations/utils</text>
<text text-anchor="middle" x="730.5" y="-701.5" font-family="Helvetica,sans-Serif" font-size="10.00">/UpdateVertexMultiMeshMapHash.hpp</text>
</a>
</g>
</g>
<!-- Node1&#45;&gt;Node26 -->
<g id="edge38" class="edge">
<title>Node1&#45;&gt;Node26</title>
<path fill="none" stroke="midnightblue" d="M326.98,-761.48C402.99,-751.87 527.71,-736.12 618.4,-724.66"/>
<polygon fill="midnightblue" stroke="midnightblue" points="618.97,-728.12 628.45,-723.39 618.09,-721.17 618.97,-728.12"/>
</g>
<!-- Node37 -->
<g id="node37" class="node">
<title>Node37</title>
<g id="a_node37"><a xlink:href="same__simplex__dimension__surjection_8hpp.html" target="_top" xlink:title=" ">
<polygon fill="none" stroke="black" points="1132,-168.5 1132,-198.5 1323,-198.5 1323,-168.5 1132,-168.5"/>
<text text-anchor="start" x="1140" y="-186.5" font-family="Helvetica,sans-Serif" font-size="10.00">wmtk/multimesh/same</text>
<text text-anchor="middle" x="1227.5" y="-175.5" font-family="Helvetica,sans-Serif" font-size="10.00">_simplex_dimension_surjection.hpp</text>
</a>
</g>
</g>
<!-- Node1&#45;&gt;Node37 -->
<g id="edge57" class="edge">
<title>Node1&#45;&gt;Node37</title>
<path fill="none" stroke="midnightblue" d="M349.08,-768.09C588.56,-761.81 1225.5,-736.84 1225.5,-649 1225.5,-649 1225.5,-649 1225.5,-311 1225.5,-275.41 1226.3,-234.2 1226.89,-208.74"/>
<polygon fill="midnightblue" stroke="midnightblue" points="1230.39,-208.62 1227.13,-198.54 1223.4,-208.45 1230.39,-208.62"/>
</g>
<!-- Node4 -->
<g id="node4" class="node">
<title>Node4</title>
<g id="a_node4"><a xlink:href="_primitive_type_8hpp.html" target="_top" xlink:title=" ">
<polygon fill="none" stroke="black" points="433.5,-56.5 433.5,-75.5 537.5,-75.5 537.5,-56.5 433.5,-56.5"/>
<text text-anchor="middle" x="485.5" y="-63.5" font-family="Helvetica,sans-Serif" font-size="10.00">PrimitiveType.hpp</text>
</a>
</g>
</g>
<!-- Node3&#45;&gt;Node4 -->
<g id="edge3" class="edge">
<title>Node3&#45;&gt;Node4</title>
<path fill="none" stroke="midnightblue" d="M477.99,-112.08C479.18,-104.93 480.89,-94.64 482.38,-85.69"/>
<polygon fill="midnightblue" stroke="midnightblue" points="485.85,-86.19 484.04,-75.75 478.95,-85.04 485.85,-86.19"/>
</g>
<!-- Node5 -->
<g id="node5" class="node">
<title>Node5</title>
<g id="a_node5"><a xlink:title=" ">
<polygon fill="none" stroke="#bfbfbf" points="410,-0.5 410,-19.5 475,-19.5 475,-0.5 410,-0.5"/>
<text text-anchor="middle" x="442.5" y="-7.5" font-family="Helvetica,sans-Serif" font-size="10.00">stdexcept</text>
</a>
</g>
</g>
<!-- Node4&#45;&gt;Node5 -->
<g id="edge4" class="edge">
<title>Node4&#45;&gt;Node5</title>
<path fill="none" stroke="midnightblue" d="M478.4,-56.08C472.26,-48.38 463.23,-37.03 455.76,-27.65"/>
<polygon fill="midnightblue" stroke="midnightblue" points="458.44,-25.39 449.47,-19.75 452.96,-29.75 458.44,-25.39"/>
</g>
<!-- Node6 -->
<g id="node6" class="node">
<title>Node6</title>
<g id="a_node6"><a xlink:title=" ">
<polygon fill="none" stroke="#bfbfbf" points="493,-0.5 493,-19.5 566,-19.5 566,-0.5 493,-0.5"/>
<text text-anchor="middle" x="529.5" y="-7.5" font-family="Helvetica,sans-Serif" font-size="10.00">string_view</text>
</a>
</g>
</g>
<!-- Node4&#45;&gt;Node6 -->
<g id="edge5" class="edge">
<title>Node4&#45;&gt;Node6</title>
<path fill="none" stroke="midnightblue" d="M492.77,-56.08C499.04,-48.38 508.29,-37.03 515.93,-27.65"/>
<polygon fill="midnightblue" stroke="midnightblue" points="518.77,-29.71 522.37,-19.75 513.34,-25.29 518.77,-29.71"/>
</g>
<!-- Node7 -->
<g id="node7" class="node">
<title>Node7</title>
<g id="a_node7"><a xlink:title=" ">
<polygon fill="none" stroke="#bfbfbf" points="837,-0.5 837,-19.5 884,-19.5 884,-0.5 837,-0.5"/>
<text text-anchor="middle" x="860.5" y="-7.5" font-family="Helvetica,sans-Serif" font-size="10.00">vector</text>
</a>
</g>
</g>
<!-- Node4&#45;&gt;Node7 -->
<g id="edge6" class="edge">
<title>Node4&#45;&gt;Node7</title>
<path fill="none" stroke="midnightblue" d="M537.64,-57.49C615.8,-46.24 761.16,-25.31 826.79,-15.85"/>
<polygon fill="midnightblue" stroke="midnightblue" points="827.59,-19.28 836.99,-14.39 826.59,-12.35 827.59,-19.28"/>
</g>
<!-- Node9&#45;&gt;Node7 -->
<g id="edge37" class="edge">
<title>Node9&#45;&gt;Node7</title>
<path fill="none" stroke="midnightblue" d="M481.07,-419.19C570.45,-413.9 720.48,-402.12 847.5,-378 879.71,-371.88 886.66,-365.81 918.5,-358 994.35,-339.4 1041.26,-382.62 1090.5,-322 1180.85,-210.78 960.8,-68.91 885.02,-24.75"/>
<polygon fill="midnightblue" stroke="midnightblue" points="886.54,-21.58 876.12,-19.63 883.05,-27.65 886.54,-21.58"/>
</g>
<!-- Node9&#45;&gt;Node10 -->
<g id="edge9" class="edge">
<title>Node9&#45;&gt;Node10</title>
<path fill="none" stroke="midnightblue" d="M383.06,-414.39C351.63,-399.6 289.35,-366.61 251.5,-322 240.02,-308.48 231.87,-290.16 226.67,-275.59"/>
<polygon fill="midnightblue" stroke="midnightblue" points="229.88,-274.14 223.4,-265.76 223.24,-276.35 229.88,-274.14"/>
</g>
<!-- Node13 -->
<g id="node13" class="node">
<title>Node13</title>
<g id="a_node13"><a xlink:title=" ">
<polygon fill="none" stroke="#bfbfbf" points="78.5,-112.5 78.5,-131.5 116.5,-131.5 116.5,-112.5 78.5,-112.5"/>
<text text-anchor="middle" x="97.5" y="-119.5" font-family="Helvetica,sans-Serif" font-size="10.00">map</text>
</a>
</g>
</g>
<!-- Node9&#45;&gt;Node13 -->
<g id="edge36" class="edge">
<title>Node9&#45;&gt;Node13</title>
<path fill="none" stroke="midnightblue" d="M374.93,-414.47C350.87,-406.53 315.39,-393.59 286.5,-378 211.07,-337.29 187.93,-328.71 129.5,-266 105.7,-240.46 97.97,-232.6 88.5,-199 83.11,-179.86 87.1,-157.12 91.34,-141.54"/>
<polygon fill="midnightblue" stroke="midnightblue" points="94.8,-142.19 94.35,-131.6 88.1,-140.16 94.8,-142.19"/>
</g>
<!-- Node15 -->
<g id="node15" class="node">
<title>Node15</title>
<g id="a_node15"><a xlink:href="_attribute_8hpp.html" target="_top" xlink:title=" ">
<polygon fill="none" stroke="black" points="430.5,-302.5 430.5,-321.5 510.5,-321.5 510.5,-302.5 430.5,-302.5"/>
<text text-anchor="middle" x="470.5" y="-309.5" font-family="Helvetica,sans-Serif" font-size="10.00">Attribute.hpp</text>
</a>
</g>
</g>
<!-- Node9&#45;&gt;Node15 -->
<g id="edge14" class="edge">
<title>Node9&#45;&gt;Node15</title>
<path fill="none" stroke="midnightblue" d="M407.84,-414.37C419.01,-396.3 445.05,-354.18 459.8,-330.31"/>
<polygon fill="midnightblue" stroke="midnightblue" points="462.91,-331.94 465.19,-321.59 456.95,-328.26 462.91,-331.94"/>
</g>
<!-- Node16 -->
<g id="node16" class="node">
<title>Node16</title>
<g id="a_node16"><a xlink:title=" ">
<polygon fill="none" stroke="#bfbfbf" points="603,-241 603,-260 672,-260 672,-241 603,-241"/>
<text text-anchor="middle" x="637.5" y="-248" font-family="Helvetica,sans-Serif" font-size="10.00">Eigen/Core</text>
</a>
</g>
</g>
<!-- Node9&#45;&gt;Node16 -->
<g id="edge35" class="edge">
<title>Node9&#45;&gt;Node16</title>
<path fill="none" stroke="midnightblue" d="M400.93,-414.31C397.5,-392.32 391.84,-333.94 421.5,-302 433.17,-289.43 533.25,-269.89 593,-259.18"/>
<polygon fill="midnightblue" stroke="midnightblue" points="593.71,-262.6 602.94,-257.41 592.49,-255.71 593.71,-262.6"/>
</g>
<!-- Node18 -->
<g id="node18" class="node">
<title>Node18</title>
<g id="a_node18"><a xlink:href="_attribute_handle_8hpp.html" target="_top" xlink:title=" ">
<polygon fill="none" stroke="black" points="481,-358.5 481,-377.5 596,-377.5 596,-358.5 481,-358.5"/>
<text text-anchor="middle" x="538.5" y="-365.5" font-family="Helvetica,sans-Serif" font-size="10.00">AttributeHandle.hpp</text>
</a>
</g>
</g>
<!-- Node9&#45;&gt;Node18 -->
<g id="edge19" class="edge">
<title>Node9&#45;&gt;Node18</title>
<path fill="none" stroke="midnightblue" d="M424.05,-414.44C446.53,-405.52 481.99,-391.44 507.48,-381.32"/>
<polygon fill="midnightblue" stroke="midnightblue" points="509.05,-384.46 517.05,-377.52 506.47,-377.95 509.05,-384.46"/>
</g>
<!-- Node11 -->
<g id="node11" class="node">
<title>Node11</title>
<g id="a_node11"><a xlink:title=" ">
<polygon fill="none" stroke="#bfbfbf" points="98,-174 98,-193 163,-193 163,-174 98,-174"/>
<text text-anchor="middle" x="130.5" y="-181" font-family="Helvetica,sans-Serif" font-size="10.00">functional</text>
</a>
</g>
</g>
<!-- Node10&#45;&gt;Node11 -->
<g id="edge10" class="edge">
<title>Node10&#45;&gt;Node11</title>
<path fill="none" stroke="midnightblue" d="M200.19,-235.4C185.54,-224.7 165.46,-210.03 150.62,-199.19"/>
<polygon fill="midnightblue" stroke="midnightblue" points="152.29,-196.08 142.15,-193.01 148.16,-201.73 152.29,-196.08"/>
</g>
<!-- Node12 -->
<g id="node12" class="node">
<title>Node12</title>
<g id="a_node12"><a xlink:href="_hashable_8hpp.html" target="_top" xlink:title=" ">
<polygon fill="none" stroke="black" points="181,-174 181,-193 264,-193 264,-174 181,-174"/>
<text text-anchor="middle" x="222.5" y="-181" font-family="Helvetica,sans-Serif" font-size="10.00">Hashable.hpp</text>
</a>
</g>
</g>
<!-- Node10&#45;&gt;Node12 -->
<g id="edge11" class="edge">
<title>Node10&#45;&gt;Node12</title>
<path fill="none" stroke="midnightblue" d="M220.15,-235.4C220.59,-225.96 221.16,-213.45 221.64,-203.19"/>
<polygon fill="midnightblue" stroke="midnightblue" points="225.13,-203.35 222.1,-193.19 218.14,-203.02 225.13,-203.35"/>
</g>
<!-- Node12&#45;&gt;Node13 -->
<g id="edge12" class="edge">
<title>Node12&#45;&gt;Node13</title>
<path fill="none" stroke="midnightblue" d="M204.59,-173.98C183.61,-163.99 148.65,-147.35 124.41,-135.81"/>
<polygon fill="midnightblue" stroke="midnightblue" points="125.91,-132.65 115.38,-131.51 122.9,-138.97 125.91,-132.65"/>
</g>
<!-- Node14 -->
<g id="node14" class="node">
<title>Node14</title>
<g id="a_node14"><a xlink:title=" ">
<polygon fill="none" stroke="#bfbfbf" points="200.5,-112.5 200.5,-131.5 244.5,-131.5 244.5,-112.5 200.5,-112.5"/>
<text text-anchor="middle" x="222.5" y="-119.5" font-family="Helvetica,sans-Serif" font-size="10.00">string</text>
</a>
</g>
</g>
<!-- Node12&#45;&gt;Node14 -->
<g id="edge13" class="edge">
<title>Node12&#45;&gt;Node14</title>
<path fill="none" stroke="midnightblue" d="M222.5,-173.98C222.5,-165.58 222.5,-152.48 222.5,-141.66"/>
<polygon fill="midnightblue" stroke="midnightblue" points="226,-141.51 222.5,-131.51 219,-141.51 226,-141.51"/>
</g>
<!-- Node15&#45;&gt;Node7 -->
<g id="edge17" class="edge">
<title>Node15&#45;&gt;Node7</title>
<path fill="none" stroke="midnightblue" d="M485.4,-302.32C514.16,-284.32 574.5,-239.94 574.5,-184.5 574.5,-184.5 574.5,-184.5 574.5,-121 574.5,-67.52 750.89,-30.2 826.62,-16.64"/>
<polygon fill="midnightblue" stroke="midnightblue" points="827.36,-20.06 836.61,-14.88 826.15,-13.17 827.36,-20.06"/>
</g>
<!-- Node15&#45;&gt;Node10 -->
<g id="edge18" class="edge">
<title>Node15&#45;&gt;Node10</title>
<path fill="none" stroke="midnightblue" d="M434.54,-302.48C396.57,-293.48 335.8,-279.07 288.52,-267.86"/>
<polygon fill="midnightblue" stroke="midnightblue" points="289.19,-264.42 278.66,-265.52 287.58,-271.24 289.19,-264.42"/>
</g>
<!-- Node15&#45;&gt;Node16 -->
<g id="edge15" class="edge">
<title>Node15&#45;&gt;Node16</title>
<path fill="none" stroke="midnightblue" d="M494.43,-302.48C523.2,-292.22 571.66,-274.96 604.1,-263.4"/>
<polygon fill="midnightblue" stroke="midnightblue" points="605.37,-266.66 613.62,-260.01 603.02,-260.07 605.37,-266.66"/>
</g>
<!-- Node17 -->
<g id="node17" class="node">
<title>Node17</title>
<g id="a_node17"><a xlink:title=" ">
<polygon fill="none" stroke="#bfbfbf" points="690.5,-241 690.5,-260 748.5,-260 748.5,-241 690.5,-241"/>
<text text-anchor="middle" x="719.5" y="-248" font-family="Helvetica,sans-Serif" font-size="10.00">memory</text>
</a>
</g>
</g>
<!-- Node15&#45;&gt;Node17 -->
<g id="edge16" class="edge">
<title>Node15&#45;&gt;Node17</title>
<path fill="none" stroke="midnightblue" d="M510.8,-304.16C553.39,-296.51 622.33,-282.95 680.5,-266 683.14,-265.23 685.86,-264.37 688.57,-263.46"/>
<polygon fill="midnightblue" stroke="midnightblue" points="689.97,-266.68 698.23,-260.04 687.64,-260.08 689.97,-266.68"/>
</g>
<!-- Node19 -->
<g id="node19" class="node">
<title>Node19</title>
<g id="a_node19"><a xlink:title=" ">
<polygon fill="none" stroke="#bfbfbf" points="567,-302.5 567,-321.5 636,-321.5 636,-302.5 567,-302.5"/>
<text text-anchor="middle" x="601.5" y="-309.5" font-family="Helvetica,sans-Serif" font-size="10.00">type_traits</text>
</a>
</g>
</g>
<!-- Node18&#45;&gt;Node19 -->
<g id="edge20" class="edge">
<title>Node18&#45;&gt;Node19</title>
<path fill="none" stroke="midnightblue" d="M548.62,-358.32C558.03,-350.26 572.24,-338.08 583.57,-328.37"/>
<polygon fill="midnightblue" stroke="midnightblue" points="585.88,-331 591.19,-321.83 581.32,-325.68 585.88,-331"/>
</g>
<!-- Node20 -->
<g id="node20" class="node">
<title>Node20</title>
<g id="a_node20"><a xlink:href="_primitive_8hpp.html" target="_top" xlink:title=" ">
<polygon fill="none" stroke="black" points="261,-302.5 261,-321.5 374,-321.5 374,-302.5 261,-302.5"/>
<text text-anchor="middle" x="317.5" y="-309.5" font-family="Helvetica,sans-Serif" font-size="10.00">wmtk/Primitive.hpp</text>
</a>
</g>
</g>
<!-- Node18&#45;&gt;Node20 -->
<g id="edge21" class="edge">
<title>Node18&#45;&gt;Node20</title>
<path fill="none" stroke="midnightblue" d="M503.48,-358.44C465.25,-349.1 403.93,-334.12 362.24,-323.93"/>
<polygon fill="midnightblue" stroke="midnightblue" points="362.9,-320.49 352.35,-321.52 361.24,-327.29 362.9,-320.49"/>
</g>
<!-- Node23 -->
<g id="node23" class="node">
<title>Node23</title>
<g id="a_node23"><a xlink:href="_mesh_attribute_handle_8hpp.html" target="_top" xlink:title=" ">
<polygon fill="none" stroke="black" points="807,-302.5 807,-321.5 948,-321.5 948,-302.5 807,-302.5"/>
<text text-anchor="middle" x="877.5" y="-309.5" font-family="Helvetica,sans-Serif" font-size="10.00">MeshAttributeHandle.hpp</text>
</a>
</g>
</g>
<!-- Node18&#45;&gt;Node23 -->
<g id="edge30" class="edge">
<title>Node18&#45;&gt;Node23</title>
<path fill="none" stroke="midnightblue" d="M592.22,-358.44C652.47,-348.85 750.11,-333.29 814.07,-323.1"/>
<polygon fill="midnightblue" stroke="midnightblue" points="814.71,-326.55 824.04,-321.52 813.61,-319.63 814.71,-326.55"/>
</g>
<!-- Node20&#45;&gt;Node3 -->
<g id="edge29" class="edge">
<title>Node20&#45;&gt;Node3</title>
<path fill="none" stroke="midnightblue" d="M349.75,-302.49C371.79,-295.45 400.66,-283.71 421.5,-266 448.46,-243.09 451.92,-232.07 464.5,-199 471.61,-180.31 474.51,-157.5 475.69,-141.77"/>
<polygon fill="midnightblue" stroke="midnightblue" points="479.19,-141.92 476.28,-131.73 472.2,-141.51 479.19,-141.92"/>
</g>
<!-- Node20&#45;&gt;Node4 -->
<g id="edge28" class="edge">
<title>Node20&#45;&gt;Node4</title>
<path fill="none" stroke="midnightblue" d="M371.48,-302.49C397.5,-296.1 427.71,-285.03 449.5,-266 499.65,-222.2 501.2,-196.8 516.5,-132 518.54,-123.35 519.14,-120.49 516.5,-112 513.27,-101.62 506.72,-91.52 500.48,-83.53"/>
<polygon fill="midnightblue" stroke="midnightblue" points="503.08,-81.19 493.98,-75.77 497.71,-85.68 503.08,-81.19"/>
</g>
<!-- Node21 -->
<g id="node21" class="node">
<title>Node21</title>
<g id="a_node21"><a xlink:href="_simplex_8hpp.html" target="_top" xlink:title=" ">
<polygon fill="none" stroke="black" points="282.5,-174 282.5,-193 432.5,-193 432.5,-174 282.5,-174"/>
<text text-anchor="middle" x="357.5" y="-181" font-family="Helvetica,sans-Serif" font-size="10.00">wmtk/simplex/Simplex.hpp</text>
</a>
</g>
</g>
<!-- Node20&#45;&gt;Node21 -->
<g id="edge22" class="edge">
<title>Node20&#45;&gt;Node21</title>
<path fill="none" stroke="midnightblue" d="M320.25,-302.31C326.7,-281.9 342.92,-230.6 351.68,-202.91"/>
<polygon fill="midnightblue" stroke="midnightblue" points="355.05,-203.85 354.73,-193.26 348.38,-201.74 355.05,-203.85"/>
</g>
<!-- Node22 -->
<g id="node22" class="node">
<title>Node22</title>
<g id="a_node22"><a xlink:href="_cell_8hpp.html" target="_top" xlink:title=" ">
<polygon fill="none" stroke="black" points="356.5,-241 356.5,-260 412.5,-260 412.5,-241 356.5,-241"/>
<text text-anchor="middle" x="384.5" y="-248" font-family="Helvetica,sans-Serif" font-size="10.00">Cell.hpp</text>
</a>
</g>
</g>
<!-- Node20&#45;&gt;Node22 -->
<g id="edge25" class="edge">
<title>Node20&#45;&gt;Node22</title>
<path fill="none" stroke="midnightblue" d="M327.1,-302.48C337.55,-293.2 354.47,-278.17 367.24,-266.83"/>
<polygon fill="midnightblue" stroke="midnightblue" points="369.77,-269.27 374.92,-260.01 365.12,-264.03 369.77,-269.27"/>
</g>
<!-- Node21&#45;&gt;Node3 -->
<g id="edge24" class="edge">
<title>Node21&#45;&gt;Node3</title>
<path fill="none" stroke="midnightblue" d="M374.55,-173.98C394.34,-164.08 427.22,-147.64 450.27,-136.12"/>
<polygon fill="midnightblue" stroke="midnightblue" points="452.1,-139.11 459.48,-131.51 448.97,-132.85 452.1,-139.11"/>
</g>
<!-- Node21&#45;&gt;Node4 -->
<g id="edge23" class="edge">
<title>Node21&#45;&gt;Node4</title>
<path fill="none" stroke="midnightblue" d="M367.1,-173.81C381.81,-160.5 410.83,-134.25 435.5,-112 446.37,-102.2 458.57,-91.21 468.21,-82.55"/>
<polygon fill="midnightblue" stroke="midnightblue" points="470.81,-84.91 475.91,-75.62 466.13,-79.71 470.81,-84.91"/>
</g>
<!-- Node22&#45;&gt;Node3 -->
<g id="edge27" class="edge">
<title>Node22&#45;&gt;Node3</title>
<path fill="none" stroke="midnightblue" d="M397.22,-240.69C409.78,-231.46 428.89,-215.98 441.5,-199 454.73,-181.18 464.63,-157.57 470.47,-141.42"/>
<polygon fill="midnightblue" stroke="midnightblue" points="473.9,-142.19 473.85,-131.6 467.29,-139.91 473.9,-142.19"/>
</g>
<!-- Node22&#45;&gt;Node21 -->
<g id="edge26" class="edge">
<title>Node22&#45;&gt;Node21</title>
<path fill="none" stroke="midnightblue" d="M380.86,-240.73C376.81,-230.99 370.16,-214.98 364.99,-202.53"/>
<polygon fill="midnightblue" stroke="midnightblue" points="368.15,-201.02 361.08,-193.13 361.69,-203.7 368.15,-201.02"/>
</g>
<!-- Node24 -->
<g id="node24" class="node">
<title>Node24</title>
<g id="a_node24"><a xlink:href="_typed_attribute_handle_8hpp.html" target="_top" xlink:title=" ">
<polygon fill="none" stroke="black" points="767,-241 767,-260 910,-260 910,-241 767,-241"/>
<text text-anchor="middle" x="838.5" y="-248" font-family="Helvetica,sans-Serif" font-size="10.00">TypedAttributeHandle.hpp</text>
</a>
</g>
</g>
<!-- Node23&#45;&gt;Node24 -->
<g id="edge31" class="edge">
<title>Node23&#45;&gt;Node24</title>
<path fill="none" stroke="midnightblue" d="M871.91,-302.48C866.12,-293.64 856.91,-279.59 849.63,-268.48"/>
<polygon fill="midnightblue" stroke="midnightblue" points="852.49,-266.45 844.08,-260.01 846.63,-270.29 852.49,-266.45"/>
</g>
<!-- Node25 -->
<g id="node25" class="node">
<title>Node25</title>
<g id="a_node25"><a xlink:title=" ">
<polygon fill="none" stroke="#bfbfbf" points="855,-174 855,-193 906,-193 906,-174 855,-174"/>
<text text-anchor="middle" x="880.5" y="-181" font-family="Helvetica,sans-Serif" font-size="10.00">variant</text>
</a>
</g>
</g>
<!-- Node23&#45;&gt;Node25 -->
<g id="edge34" class="edge">
<title>Node23&#45;&gt;Node25</title>
<path fill="none" stroke="midnightblue" d="M889.04,-302.49C898.98,-294.38 912.62,-281.18 918.5,-266 923.48,-253.15 922.87,-248.07 918.5,-235 914.19,-222.09 905.13,-209.84 896.94,-200.63"/>
<polygon fill="midnightblue" stroke="midnightblue" points="899.24,-197.97 889.83,-193.11 894.16,-202.78 899.24,-197.97"/>
</g>
<!-- Node24&#45;&gt;Node18 -->
<g id="edge33" class="edge">
<title>Node24&#45;&gt;Node18</title>
<path fill="none" stroke="midnightblue" d="M790.86,-260.04C710.73,-274.41 557.64,-301.88 557.5,-302 544.54,-313.65 540.22,-333.6 538.88,-348.33"/>
<polygon fill="midnightblue" stroke="midnightblue" points="535.38,-348.18 538.34,-358.36 542.37,-348.56 535.38,-348.18"/>
</g>
<!-- Node24&#45;&gt;Node25 -->
<g id="edge32" class="edge">
<title>Node24&#45;&gt;Node25</title>
<path fill="none" stroke="midnightblue" d="M844.16,-240.73C850.59,-230.79 861.22,-214.34 869.33,-201.79"/>
<polygon fill="midnightblue" stroke="midnightblue" points="872.44,-203.43 874.93,-193.13 866.56,-199.63 872.44,-203.43"/>
</g>
<!-- Node27 -->
<g id="node27" class="node">
<title>Node27</title>
<g id="a_node27"><a xlink:href="_accessor_8hpp.html" target="_top" xlink:title=" ">
<polygon fill="none" stroke="black" points="919,-638.5 919,-657.5 1030,-657.5 1030,-638.5 919,-638.5"/>
<text text-anchor="middle" x="974.5" y="-645.5" font-family="Helvetica,sans-Serif" font-size="10.00">wmtk/Accessor.hpp</text>
</a>
</g>
</g>
<!-- Node26&#45;&gt;Node27 -->
<g id="edge39" class="edge">
<title>Node26&#45;&gt;Node27</title>
<path fill="none" stroke="midnightblue" d="M788.02,-694.47C831.31,-683.92 889.8,-669.66 929.65,-659.94"/>
<polygon fill="midnightblue" stroke="midnightblue" points="930.73,-663.28 939.62,-657.51 929.07,-656.48 930.73,-663.28"/>
</g>
<!-- Node28 -->
<g id="node28" class="node">
<title>Node28</title>
<g id="a_node28"><a xlink:href="_const_accessor_8hpp.html" target="_top" xlink:title=" ">
<polygon fill="none" stroke="black" points="922,-526.5 922,-545.5 1075,-545.5 1075,-526.5 922,-526.5"/>
<text text-anchor="middle" x="998.5" y="-533.5" font-family="Helvetica,sans-Serif" font-size="10.00">attribute/ConstAccessor.hpp</text>
</a>
</g>
</g>
<!-- Node27&#45;&gt;Node28 -->
<g id="edge40" class="edge">
<title>Node27&#45;&gt;Node28</title>
<path fill="none" stroke="midnightblue" d="M963.39,-638.32C949.04,-626 927.08,-602.63 937.5,-582 944.31,-568.52 957.27,-558.08 969.5,-550.67"/>
<polygon fill="midnightblue" stroke="midnightblue" points="971.57,-553.52 978.59,-545.59 968.16,-547.41 971.57,-553.52"/>
</g>
<!-- Node34 -->
<g id="node34" class="node">
<title>Node34</title>
<g id="a_node34"><a xlink:title=" ">
<polygon fill="none" stroke="#bfbfbf" points="1005,-302.5 1005,-321.5 1082,-321.5 1082,-302.5 1005,-302.5"/>
<text text-anchor="middle" x="1043.5" y="-309.5" font-family="Helvetica,sans-Serif" font-size="10.00">Eigen/Dense</text>
</a>
</g>
</g>
<!-- Node27&#45;&gt;Node34 -->
<g id="edge56" class="edge">
<title>Node27&#45;&gt;Node34</title>
<path fill="none" stroke="midnightblue" d="M1030.16,-639.93C1088.42,-629.05 1171.5,-602.12 1171.5,-537 1171.5,-537 1171.5,-537 1171.5,-423 1171.5,-392.9 1172.61,-380.39 1152.5,-358 1136.79,-340.51 1113.25,-329.66 1092.06,-323.01"/>
<polygon fill="midnightblue" stroke="midnightblue" points="1092.79,-319.57 1082.21,-320.15 1090.84,-326.3 1092.79,-319.57"/>
</g>
<!-- Node36 -->
<g id="node36" class="node">
<title>Node36</title>
<g id="a_node36"><a xlink:href="_mutable_accessor_8hpp.html" target="_top" xlink:title=" ">
<polygon fill="none" stroke="black" points="947,-582.5 947,-601.5 1112,-601.5 1112,-582.5 947,-582.5"/>
<text text-anchor="middle" x="1029.5" y="-589.5" font-family="Helvetica,sans-Serif" font-size="10.00">attribute/MutableAccessor.hpp</text>
</a>
</g>
</g>
<!-- Node27&#45;&gt;Node36 -->
<g id="edge54" class="edge">
<title>Node27&#45;&gt;Node36</title>
<path fill="none" stroke="midnightblue" d="M983.58,-638.08C991.67,-630.14 1003.7,-618.34 1013.41,-608.8"/>
<polygon fill="midnightblue" stroke="midnightblue" points="1015.9,-611.25 1020.59,-601.75 1011,-606.26 1015.9,-611.25"/>
</g>
<!-- Node29 -->
<g id="node29" class="node">
<title>Node29</title>
<g id="a_node29"><a xlink:href="_tuple_accessor_8hpp.html" target="_top" xlink:title=" ">
<polygon fill="none" stroke="black" points="945.5,-470.5 945.5,-489.5 1051.5,-489.5 1051.5,-470.5 945.5,-470.5"/>
<text text-anchor="middle" x="998.5" y="-477.5" font-family="Helvetica,sans-Serif" font-size="10.00">TupleAccessor.hpp</text>
</a>
</g>
</g>
<!-- Node28&#45;&gt;Node29 -->
<g id="edge41" class="edge">
<title>Node28&#45;&gt;Node29</title>
<path fill="none" stroke="midnightblue" d="M998.5,-526.08C998.5,-519.01 998.5,-508.86 998.5,-499.99"/>
<polygon fill="midnightblue" stroke="midnightblue" points="1002,-499.75 998.5,-489.75 995,-499.75 1002,-499.75"/>
</g>
<!-- Node30 -->
<g id="node30" class="node">
<title>Node30</title>
<g id="a_node30"><a xlink:href="_caching_accessor_8hpp.html" target="_top" xlink:title=" ">
<polygon fill="none" stroke="black" points="939,-414.5 939,-433.5 1058,-433.5 1058,-414.5 939,-414.5"/>
<text text-anchor="middle" x="998.5" y="-421.5" font-family="Helvetica,sans-Serif" font-size="10.00">CachingAccessor.hpp</text>
</a>
</g>
</g>
<!-- Node29&#45;&gt;Node30 -->
<g id="edge42" class="edge">
<title>Node29&#45;&gt;Node30</title>
<path fill="none" stroke="midnightblue" d="M998.5,-470.08C998.5,-463.01 998.5,-452.86 998.5,-443.99"/>
<polygon fill="midnightblue" stroke="midnightblue" points="1002,-443.75 998.5,-433.75 995,-443.75 1002,-443.75"/>
</g>
<!-- Node31 -->
<g id="node31" class="node">
<title>Node31</title>
<g id="a_node31"><a xlink:title=" ">
<polygon fill="none" stroke="#bfbfbf" points="1087.5,-358.5 1087.5,-377.5 1143.5,-377.5 1143.5,-358.5 1087.5,-358.5"/>
<text text-anchor="middle" x="1115.5" y="-365.5" font-family="Helvetica,sans-Serif" font-size="10.00">optional</text>
</a>
</g>
</g>
<!-- Node30&#45;&gt;Node31 -->
<g id="edge43" class="edge">
<title>Node30&#45;&gt;Node31</title>
<path fill="none" stroke="midnightblue" d="M1017.04,-414.44C1036.12,-405.64 1066.07,-391.81 1087.94,-381.72"/>
<polygon fill="midnightblue" stroke="midnightblue" points="1089.43,-384.88 1097.05,-377.52 1086.5,-378.53 1089.43,-384.88"/>
</g>
<!-- Node32 -->
<g id="node32" class="node">
<title>Node32</title>
<g id="a_node32"><a xlink:href="_accessor_base_8hpp.html" target="_top" xlink:title=" ">
<polygon fill="none" stroke="black" points="734,-358.5 734,-377.5 839,-377.5 839,-358.5 734,-358.5"/>
<text text-anchor="middle" x="786.5" y="-365.5" font-family="Helvetica,sans-Serif" font-size="10.00">AccessorBase.hpp</text>
</a>
</g>
</g>
<!-- Node30&#45;&gt;Node32 -->
<g id="edge44" class="edge">
<title>Node30&#45;&gt;Node32</title>
<path fill="none" stroke="midnightblue" d="M964.91,-414.44C928.31,-405.12 869.66,-390.18 829.67,-380"/>
<polygon fill="midnightblue" stroke="midnightblue" points="830.49,-376.59 819.93,-377.52 828.76,-383.38 830.49,-376.59"/>
</g>
<!-- Node35 -->
<g id="node35" class="node">
<title>Node35</title>
<g id="a_node35"><a xlink:href="_attribute_access_mode_8hpp.html" target="_top" xlink:title=" ">
<polygon fill="none" stroke="black" points="928,-358.5 928,-377.5 1069,-377.5 1069,-358.5 928,-358.5"/>
<text text-anchor="middle" x="998.5" y="-365.5" font-family="Helvetica,sans-Serif" font-size="10.00">AttributeAccessMode.hpp</text>
</a>
</g>
</g>
<!-- Node30&#45;&gt;Node35 -->
<g id="edge53" class="edge">
<title>Node30&#45;&gt;Node35</title>
<path fill="none" stroke="midnightblue" d="M998.5,-414.08C998.5,-407.01 998.5,-396.86 998.5,-387.99"/>
<polygon fill="midnightblue" stroke="midnightblue" points="1002,-387.75 998.5,-377.75 995,-387.75 1002,-387.75"/>
</g>
<!-- Node32&#45;&gt;Node3 -->
<g id="edge49" class="edge">
<title>Node32&#45;&gt;Node3</title>
<path fill="none" stroke="midnightblue" d="M839.13,-360.13C883.55,-353.13 942.16,-340.63 956.5,-322 989.23,-279.48 1085.66,-307.75 914.5,-168 884.16,-143.23 621.64,-129.28 518.17,-124.7"/>
<polygon fill="midnightblue" stroke="midnightblue" points="518.23,-121.2 508.09,-124.26 517.93,-128.19 518.23,-121.2"/>
</g>
<!-- Node32&#45;&gt;Node15 -->
<g id="edge47" class="edge">
<title>Node32&#45;&gt;Node15</title>
<path fill="none" stroke="midnightblue" d="M736.43,-358.44C677.49,-348.37 580.17,-331.74 521.03,-321.64"/>
<polygon fill="midnightblue" stroke="midnightblue" points="521.26,-318.12 510.81,-319.89 520.08,-325.02 521.26,-318.12"/>
</g>
<!-- Node32&#45;&gt;Node17 -->
<g id="edge45" class="edge">
<title>Node32&#45;&gt;Node17</title>
<path fill="none" stroke="midnightblue" d="M783.72,-358.23C779.47,-345.39 770.65,-320.96 759.5,-302 752.38,-289.9 742.62,-277.52 734.52,-268.04"/>
<polygon fill="midnightblue" stroke="midnightblue" points="736.91,-265.46 727.68,-260.25 731.65,-270.08 736.91,-265.46"/>
</g>
<!-- Node32&#45;&gt;Node19 -->
<g id="edge46" class="edge">
<title>Node32&#45;&gt;Node19</title>
<path fill="none" stroke="midnightblue" d="M757.19,-358.44C725.66,-349.24 675.37,-334.56 640.51,-324.39"/>
<polygon fill="midnightblue" stroke="midnightblue" points="641.26,-320.96 630.68,-321.52 639.3,-327.68 641.26,-320.96"/>
</g>
<!-- Node32&#45;&gt;Node23 -->
<g id="edge48" class="edge">
<title>Node32&#45;&gt;Node23</title>
<path fill="none" stroke="midnightblue" d="M801.12,-358.32C815.45,-349.82 837.51,-336.73 854.25,-326.8"/>
<polygon fill="midnightblue" stroke="midnightblue" points="856.1,-329.77 862.92,-321.65 852.53,-323.75 856.1,-329.77"/>
</g>
<!-- Node33 -->
<g id="node33" class="node">
<title>Node33</title>
<g id="a_node33"><a xlink:href="_types_8hpp.html" target="_top" xlink:title=" ">
<polygon fill="none" stroke="black" points="654.5,-302.5 654.5,-321.5 750.5,-321.5 750.5,-302.5 654.5,-302.5"/>
<text text-anchor="middle" x="702.5" y="-309.5" font-family="Helvetica,sans-Serif" font-size="10.00">wmtk/Types.hpp</text>
</a>
</g>
</g>
<!-- Node32&#45;&gt;Node33 -->
<g id="edge50" class="edge">
<title>Node32&#45;&gt;Node33</title>
<path fill="none" stroke="midnightblue" d="M773,-358.32C759.9,-349.9 739.79,-336.97 724.39,-327.07"/>
<polygon fill="midnightblue" stroke="midnightblue" points="726.27,-324.12 715.96,-321.65 722.48,-330.01 726.27,-324.12"/>
</g>
<!-- Node32&#45;&gt;Node34 -->
<g id="edge52" class="edge">
<title>Node32&#45;&gt;Node34</title>
<path fill="none" stroke="midnightblue" d="M827.22,-358.44C872.68,-348.89 946.2,-333.44 994.7,-323.25"/>
<polygon fill="midnightblue" stroke="midnightblue" points="995.58,-326.64 1004.65,-321.16 994.14,-319.79 995.58,-326.64"/>
</g>
<!-- Node33&#45;&gt;Node16 -->
<g id="edge51" class="edge">
<title>Node33&#45;&gt;Node16</title>
<path fill="none" stroke="midnightblue" d="M693.19,-302.48C683.05,-293.2 666.64,-278.17 654.25,-266.83"/>
<polygon fill="midnightblue" stroke="midnightblue" points="656.54,-264.18 646.8,-260.01 651.81,-269.34 656.54,-264.18"/>
</g>
<!-- Node36&#45;&gt;Node28 -->
<g id="edge55" class="edge">
<title>Node36&#45;&gt;Node28</title>
<path fill="none" stroke="midnightblue" d="M1024.38,-582.08C1020.09,-574.61 1013.84,-563.72 1008.56,-554.52"/>
<polygon fill="midnightblue" stroke="midnightblue" points="1011.54,-552.68 1003.52,-545.75 1005.47,-556.17 1011.54,-552.68"/>
</g>
<!-- Node37&#45;&gt;Node3 -->
<g id="edge60" class="edge">
<title>Node37&#45;&gt;Node3</title>
<path fill="none" stroke="midnightblue" d="M1131.62,-174.9C966.54,-161.83 635.12,-135.57 518.37,-126.32"/>
<polygon fill="midnightblue" stroke="midnightblue" points="518.32,-122.8 508.07,-125.5 517.77,-129.78 518.32,-122.8"/>
</g>
<!-- Node37&#45;&gt;Node7 -->
<g id="edge59" class="edge">
<title>Node37&#45;&gt;Node7</title>
<path fill="none" stroke="midnightblue" d="M1219.68,-168.31C1204.09,-141.5 1166.41,-83.63 1117.5,-56 1079.83,-34.72 955.27,-20.14 894.48,-14.11"/>
<polygon fill="midnightblue" stroke="midnightblue" points="894.54,-10.6 884.25,-13.12 893.86,-17.57 894.54,-10.6"/>
</g>
<!-- Node38 -->
<g id="node38" class="node">
<title>Node38</title>
<g id="a_node38"><a xlink:title=" ">
<polygon fill="none" stroke="#bfbfbf" points="1206.5,-112.5 1206.5,-131.5 1248.5,-131.5 1248.5,-112.5 1206.5,-112.5"/>
<text text-anchor="middle" x="1227.5" y="-119.5" font-family="Helvetica,sans-Serif" font-size="10.00">array</text>
</a>
</g>
</g>
<!-- Node37&#45;&gt;Node38 -->
<g id="edge58" class="edge">
<title>Node37&#45;&gt;Node38</title>
<path fill="none" stroke="midnightblue" d="M1227.5,-168.4C1227.5,-160.47 1227.5,-150.46 1227.5,-141.86"/>
<polygon fill="midnightblue" stroke="midnightblue" points="1231,-141.66 1227.5,-131.66 1224,-141.66 1231,-141.66"/>
</g>
</g>
</svg>
