<?xml version="1.0" encoding="UTF-8" standalone="no"?>
<!DOCTYPE svg PUBLIC "-//W3C//DTD SVG 1.1//EN"
 "http://www.w3.org/Graphics/SVG/1.1/DTD/svg11.dtd">
<!-- Generated by graphviz version 2.43.0 (0)
 -->
<!-- Title: src/wmtk/attribute/PerThreadAttributeScopeStacks.cpp Pages: 1 -->
<svg width="620pt" height="543pt"
 viewBox="0.00 0.00 620.00 543.00" xmlns="http://www.w3.org/2000/svg" xmlns:xlink="http://www.w3.org/1999/xlink">
<g id="graph0" class="graph" transform="scale(1 1) rotate(0) translate(4 539)">
<title>src/wmtk/attribute/PerThreadAttributeScopeStacks.cpp</title>
<!-- Node1 -->
<g id="node1" class="node">
<title>Node1</title>
<g id="a_node1"><a xlink:title=" ">
<polygon fill="#bfbfbf" stroke="black" points="88.5,-504.5 88.5,-534.5 282.5,-534.5 282.5,-504.5 88.5,-504.5"/>
<text text-anchor="start" x="96.5" y="-522.5" font-family="Helvetica,sans-Serif" font-size="10.00">src/wmtk/attribute</text>
<text text-anchor="middle" x="185.5" y="-511.5" font-family="Helvetica,sans-Serif" font-size="10.00">/PerThreadAttributeScopeStacks.cpp</text>
</a>
</g>
</g>
<!-- Node2 -->
<g id="node2" class="node">
<title>Node2</title>
<g id="a_node2"><a xlink:href="_per_thread_attribute_scope_stacks_8hpp.html" target="_top" xlink:title=" ">
<polygon fill="none" stroke="black" points="0,-448.5 0,-467.5 191,-467.5 191,-448.5 0,-448.5"/>
<text text-anchor="middle" x="95.5" y="-455.5" font-family="Helvetica,sans-Serif" font-size="10.00">PerThreadAttributeScopeStacks.hpp</text>
</a>
</g>
</g>
<!-- Node1&#45;&gt;Node2 -->
<g id="edge1" class="edge">
<title>Node1&#45;&gt;Node2</title>
<path fill="none" stroke="midnightblue" d="M164.17,-504.4C150.01,-495.04 131.49,-482.79 117.25,-473.38"/>
<polygon fill="midnightblue" stroke="midnightblue" points="118.87,-470.25 108.6,-467.66 115.01,-476.09 118.87,-470.25"/>
</g>
<!-- Node18 -->
<g id="node18" class="node">
<title>Node18</title>
<g id="a_node18"><a xlink:href="_rational_8hpp.html" target="_top" xlink:title=" ">
<polygon fill="none" stroke="black" points="209,-448.5 209,-467.5 342,-467.5 342,-448.5 209,-448.5"/>
<text text-anchor="middle" x="275.5" y="-455.5" font-family="Helvetica,sans-Serif" font-size="10.00">wmtk/utils/Rational.hpp</text>
</a>
</g>
</g>
<!-- Node1&#45;&gt;Node18 -->
<g id="edge25" class="edge">
<title>Node1&#45;&gt;Node18</title>
<path fill="none" stroke="midnightblue" d="M206.83,-504.4C220.99,-495.04 239.51,-482.79 253.75,-473.38"/>
<polygon fill="midnightblue" stroke="midnightblue" points="255.99,-476.09 262.4,-467.66 252.13,-470.25 255.99,-476.09"/>
</g>
<!-- Node3 -->
<g id="node3" class="node">
<title>Node3</title>
<g id="a_node3"><a xlink:href="_attribute_scope_stack_8hpp.html" target="_top" xlink:title=" ">
<polygon fill="none" stroke="black" points="27,-392.5 27,-411.5 164,-411.5 164,-392.5 27,-392.5"/>
<text text-anchor="middle" x="95.5" y="-399.5" font-family="Helvetica,sans-Serif" font-size="10.00">AttributeScopeStack.hpp</text>
</a>
</g>
</g>
<!-- Node2&#45;&gt;Node3 -->
<g id="edge2" class="edge">
<title>Node2&#45;&gt;Node3</title>
<path fill="none" stroke="midnightblue" d="M95.5,-448.08C95.5,-441.01 95.5,-430.86 95.5,-421.99"/>
<polygon fill="midnightblue" stroke="midnightblue" points="99,-421.75 95.5,-411.75 92,-421.75 99,-421.75"/>
</g>
<!-- Node4 -->
<g id="node4" class="node">
<title>Node4</title>
<g id="a_node4"><a xlink:title=" ">
<polygon fill="none" stroke="#bfbfbf" points="9.5,-336.5 9.5,-355.5 67.5,-355.5 67.5,-336.5 9.5,-336.5"/>
<text text-anchor="middle" x="38.5" y="-343.5" font-family="Helvetica,sans-Serif" font-size="10.00">memory</text>
</a>
</g>
</g>
<!-- Node3&#45;&gt;Node4 -->
<g id="edge3" class="edge">
<title>Node3&#45;&gt;Node4</title>
<path fill="none" stroke="midnightblue" d="M86.34,-392.32C78,-384.42 65.47,-372.55 55.32,-362.94"/>
<polygon fill="midnightblue" stroke="midnightblue" points="57.49,-360.17 47.82,-355.83 52.68,-365.25 57.49,-360.17"/>
</g>
<!-- Node5 -->
<g id="node5" class="node">
<title>Node5</title>
<g id="a_node5"><a xlink:title=" ">
<polygon fill="none" stroke="#bfbfbf" points="81,-0.5 81,-19.5 128,-19.5 128,-0.5 81,-0.5"/>
<text text-anchor="middle" x="104.5" y="-7.5" font-family="Helvetica,sans-Serif" font-size="10.00">vector</text>
</a>
</g>
</g>
<!-- Node3&#45;&gt;Node5 -->
<g id="edge4" class="edge">
<title>Node3&#45;&gt;Node5</title>
<path fill="none" stroke="midnightblue" d="M95.5,-392.44C95.5,-373.94 95.5,-328.81 95.5,-291 95.5,-291 95.5,-291 95.5,-121 95.5,-88.84 99.37,-51.57 102.03,-29.71"/>
<polygon fill="midnightblue" stroke="midnightblue" points="105.54,-29.9 103.32,-19.54 98.59,-29.02 105.54,-29.9"/>
</g>
<!-- Node6 -->
<g id="node6" class="node">
<title>Node6</title>
<g id="a_node6"><a xlink:href="_attribute_handle_8hpp.html" target="_top" xlink:title=" ">
<polygon fill="none" stroke="black" points="358,-336.5 358,-355.5 473,-355.5 473,-336.5 358,-336.5"/>
<text text-anchor="middle" x="415.5" y="-343.5" font-family="Helvetica,sans-Serif" font-size="10.00">AttributeHandle.hpp</text>
</a>
</g>
</g>
<!-- Node3&#45;&gt;Node6 -->
<g id="edge5" class="edge">
<title>Node3&#45;&gt;Node6</title>
<path fill="none" stroke="midnightblue" d="M146.2,-392.44C202.85,-382.89 294.5,-367.42 354.88,-357.23"/>
<polygon fill="midnightblue" stroke="midnightblue" points="355.75,-360.63 365.03,-355.52 354.59,-353.73 355.75,-360.63"/>
</g>
<!-- Node7 -->
<g id="node7" class="node">
<title>Node7</title>
<g id="a_node7"><a xlink:title=" ">
<polygon fill="none" stroke="#bfbfbf" points="543,-280.5 543,-299.5 612,-299.5 612,-280.5 543,-280.5"/>
<text text-anchor="middle" x="577.5" y="-287.5" font-family="Helvetica,sans-Serif" font-size="10.00">type_traits</text>
</a>
</g>
</g>
<!-- Node6&#45;&gt;Node7 -->
<g id="edge6" class="edge">
<title>Node6&#45;&gt;Node7</title>
<path fill="none" stroke="midnightblue" d="M441.17,-336.44C468.42,-327.36 511.68,-312.94 542.15,-302.78"/>
<polygon fill="midnightblue" stroke="midnightblue" points="543.57,-306 551.95,-299.52 541.36,-299.36 543.57,-306"/>
</g>
<!-- Node8 -->
<g id="node8" class="node">
<title>Node8</title>
<g id="a_node8"><a xlink:href="_primitive_8hpp.html" target="_top" xlink:title=" ">
<polygon fill="none" stroke="black" points="214,-280.5 214,-299.5 327,-299.5 327,-280.5 214,-280.5"/>
<text text-anchor="middle" x="270.5" y="-287.5" font-family="Helvetica,sans-Serif" font-size="10.00">wmtk/Primitive.hpp</text>
</a>
</g>
</g>
<!-- Node6&#45;&gt;Node8 -->
<g id="edge7" class="edge">
<title>Node6&#45;&gt;Node8</title>
<path fill="none" stroke="midnightblue" d="M392.52,-336.44C368.34,-327.44 330.08,-313.19 302.85,-303.05"/>
<polygon fill="midnightblue" stroke="midnightblue" points="303.96,-299.73 293.37,-299.52 301.52,-306.29 303.96,-299.73"/>
</g>
<!-- Node15 -->
<g id="node15" class="node">
<title>Node15</title>
<g id="a_node15"><a xlink:href="_mesh_attribute_handle_8hpp.html" target="_top" xlink:title=" ">
<polygon fill="none" stroke="black" points="345,-280.5 345,-299.5 486,-299.5 486,-280.5 345,-280.5"/>
<text text-anchor="middle" x="415.5" y="-287.5" font-family="Helvetica,sans-Serif" font-size="10.00">MeshAttributeHandle.hpp</text>
</a>
</g>
</g>
<!-- Node6&#45;&gt;Node15 -->
<g id="edge20" class="edge">
<title>Node6&#45;&gt;Node15</title>
<path fill="none" stroke="midnightblue" d="M415.5,-336.08C415.5,-329.01 415.5,-318.86 415.5,-309.99"/>
<polygon fill="midnightblue" stroke="midnightblue" points="419,-309.75 415.5,-299.75 412,-309.75 419,-309.75"/>
</g>
<!-- Node9 -->
<g id="node9" class="node">
<title>Node9</title>
<g id="a_node9"><a xlink:href="_simplex_8hpp.html" target="_top" xlink:title=" ">
<polygon fill="none" stroke="black" points="161.5,-168.5 161.5,-187.5 311.5,-187.5 311.5,-168.5 161.5,-168.5"/>
<text text-anchor="middle" x="236.5" y="-175.5" font-family="Helvetica,sans-Serif" font-size="10.00">wmtk/simplex/Simplex.hpp</text>
</a>
</g>
</g>
<!-- Node8&#45;&gt;Node9 -->
<g id="edge8" class="edge">
<title>Node8&#45;&gt;Node9</title>
<path fill="none" stroke="midnightblue" d="M267.53,-280.4C264.43,-271.37 259.48,-256.73 255.5,-244 250.62,-228.4 245.44,-210.56 241.72,-197.53"/>
<polygon fill="midnightblue" stroke="midnightblue" points="245.07,-196.53 238.98,-187.86 238.34,-198.44 245.07,-196.53"/>
</g>
<!-- Node10 -->
<g id="node10" class="node">
<title>Node10</title>
<g id="a_node10"><a xlink:href="_primitive_type_8hpp.html" target="_top" xlink:title=" ">
<polygon fill="none" stroke="black" points="142,-56.5 142,-75.5 277,-75.5 277,-56.5 142,-56.5"/>
<text text-anchor="middle" x="209.5" y="-63.5" font-family="Helvetica,sans-Serif" font-size="10.00">wmtk/PrimitiveType.hpp</text>
</a>
</g>
</g>
<!-- Node8&#45;&gt;Node10 -->
<g id="edge18" class="edge">
<title>Node8&#45;&gt;Node10</title>
<path fill="none" stroke="midnightblue" d="M253.12,-280.46C225.69,-265.88 173.36,-233.32 152.5,-188 135.13,-150.26 169.88,-106.18 192.38,-83.04"/>
<polygon fill="midnightblue" stroke="midnightblue" points="195.07,-85.3 199.72,-75.78 190.15,-80.32 195.07,-85.3"/>
</g>
<!-- Node13 -->
<g id="node13" class="node">
<title>Node13</title>
<g id="a_node13"><a xlink:href="_tuple_8hpp.html" target="_top" xlink:title=" ">
<polygon fill="none" stroke="black" points="282.5,-112.5 282.5,-131.5 376.5,-131.5 376.5,-112.5 282.5,-112.5"/>
<text text-anchor="middle" x="329.5" y="-119.5" font-family="Helvetica,sans-Serif" font-size="10.00">wmtk/Tuple.hpp</text>
</a>
</g>
</g>
<!-- Node8&#45;&gt;Node13 -->
<g id="edge19" class="edge">
<title>Node8&#45;&gt;Node13</title>
<path fill="none" stroke="midnightblue" d="M288.35,-280.4C302.01,-272.82 320.06,-260.42 329.5,-244 347.93,-211.94 341.01,-166.76 334.89,-141.66"/>
<polygon fill="midnightblue" stroke="midnightblue" points="338.19,-140.42 332.23,-131.66 331.42,-142.22 338.19,-140.42"/>
</g>
<!-- Node14 -->
<g id="node14" class="node">
<title>Node14</title>
<g id="a_node14"><a xlink:href="_cell_8hpp.html" target="_top" xlink:title=" ">
<polygon fill="none" stroke="black" points="264.5,-224.5 264.5,-243.5 320.5,-243.5 320.5,-224.5 264.5,-224.5"/>
<text text-anchor="middle" x="292.5" y="-231.5" font-family="Helvetica,sans-Serif" font-size="10.00">Cell.hpp</text>
</a>
</g>
</g>
<!-- Node8&#45;&gt;Node14 -->
<g id="edge15" class="edge">
<title>Node8&#45;&gt;Node14</title>
<path fill="none" stroke="midnightblue" d="M274.13,-280.08C277.11,-272.77 281.43,-262.18 285.12,-253.1"/>
<polygon fill="midnightblue" stroke="midnightblue" points="288.4,-254.33 288.93,-243.75 281.92,-251.69 288.4,-254.33"/>
</g>
<!-- Node9&#45;&gt;Node10 -->
<g id="edge9" class="edge">
<title>Node9&#45;&gt;Node10</title>
<path fill="none" stroke="midnightblue" d="M234.38,-168.37C230.02,-150.62 219.97,-109.67 214.06,-85.6"/>
<polygon fill="midnightblue" stroke="midnightblue" points="217.39,-84.47 211.61,-75.59 210.59,-86.14 217.39,-84.47"/>
</g>
<!-- Node9&#45;&gt;Node13 -->
<g id="edge13" class="edge">
<title>Node9&#45;&gt;Node13</title>
<path fill="none" stroke="midnightblue" d="M251.44,-168.32C266.09,-159.82 288.63,-146.73 305.74,-136.8"/>
<polygon fill="midnightblue" stroke="midnightblue" points="307.7,-139.7 314.6,-131.65 304.19,-133.65 307.7,-139.7"/>
</g>
<!-- Node10&#45;&gt;Node5 -->
<g id="edge12" class="edge">
<title>Node10&#45;&gt;Node5</title>
<path fill="none" stroke="midnightblue" d="M192.63,-56.32C175.79,-47.66 149.69,-34.24 130.26,-24.25"/>
<polygon fill="midnightblue" stroke="midnightblue" points="131.82,-21.12 121.33,-19.65 128.62,-27.34 131.82,-21.12"/>
</g>
<!-- Node11 -->
<g id="node11" class="node">
<title>Node11</title>
<g id="a_node11"><a xlink:title=" ">
<polygon fill="none" stroke="#bfbfbf" points="250,-0.5 250,-19.5 315,-19.5 315,-0.5 250,-0.5"/>
<text text-anchor="middle" x="282.5" y="-7.5" font-family="Helvetica,sans-Serif" font-size="10.00">stdexcept</text>
</a>
</g>
</g>
<!-- Node10&#45;&gt;Node11 -->
<g id="edge10" class="edge">
<title>Node10&#45;&gt;Node11</title>
<path fill="none" stroke="midnightblue" d="M221.23,-56.32C232.34,-48.11 249.24,-35.6 262.48,-25.81"/>
<polygon fill="midnightblue" stroke="midnightblue" points="264.6,-28.59 270.56,-19.83 260.44,-22.97 264.6,-28.59"/>
</g>
<!-- Node12 -->
<g id="node12" class="node">
<title>Node12</title>
<g id="a_node12"><a xlink:title=" ">
<polygon fill="none" stroke="#bfbfbf" points="159,-0.5 159,-19.5 232,-19.5 232,-0.5 159,-0.5"/>
<text text-anchor="middle" x="195.5" y="-7.5" font-family="Helvetica,sans-Serif" font-size="10.00">string_view</text>
</a>
</g>
</g>
<!-- Node10&#45;&gt;Node12 -->
<g id="edge11" class="edge">
<title>Node10&#45;&gt;Node12</title>
<path fill="none" stroke="midnightblue" d="M207.19,-56.08C205.33,-48.93 202.66,-38.64 200.35,-29.69"/>
<polygon fill="midnightblue" stroke="midnightblue" points="203.67,-28.55 197.77,-19.75 196.89,-30.31 203.67,-28.55"/>
</g>
<!-- Node13&#45;&gt;Node10 -->
<g id="edge14" class="edge">
<title>Node13&#45;&gt;Node10</title>
<path fill="none" stroke="midnightblue" d="M310.49,-112.44C290.91,-103.64 260.19,-89.81 237.77,-79.72"/>
<polygon fill="midnightblue" stroke="midnightblue" points="238.98,-76.43 228.43,-75.52 236.11,-82.81 238.98,-76.43"/>
</g>
<!-- Node14&#45;&gt;Node9 -->
<g id="edge16" class="edge">
<title>Node14&#45;&gt;Node9</title>
<path fill="none" stroke="midnightblue" d="M283.5,-224.32C275.31,-216.42 262.99,-204.55 253.03,-194.94"/>
<polygon fill="midnightblue" stroke="midnightblue" points="255.29,-192.26 245.66,-187.83 250.43,-197.29 255.29,-192.26"/>
</g>
<!-- Node14&#45;&gt;Node13 -->
<g id="edge17" class="edge">
<title>Node14&#45;&gt;Node13</title>
<path fill="none" stroke="midnightblue" d="M299.49,-224.28C306.05,-215.61 315.55,-201.67 320.5,-188 325.9,-173.09 328.08,-155.17 328.96,-141.93"/>
<polygon fill="midnightblue" stroke="midnightblue" points="332.47,-141.84 329.44,-131.69 325.47,-141.51 332.47,-141.84"/>
</g>
<!-- Node16 -->
<g id="node16" class="node">
<title>Node16</title>
<g id="a_node16"><a xlink:href="_typed_attribute_handle_8hpp.html" target="_top" xlink:title=" ">
<polygon fill="none" stroke="black" points="444,-224.5 444,-243.5 587,-243.5 587,-224.5 444,-224.5"/>
<text text-anchor="middle" x="515.5" y="-231.5" font-family="Helvetica,sans-Serif" font-size="10.00">TypedAttributeHandle.hpp</text>
</a>
</g>
</g>
<!-- Node15&#45;&gt;Node16 -->
<g id="edge21" class="edge">
<title>Node15&#45;&gt;Node16</title>
<path fill="none" stroke="midnightblue" d="M431.57,-280.32C447.46,-271.74 472.01,-258.49 490.46,-248.52"/>
<polygon fill="midnightblue" stroke="midnightblue" points="492.34,-251.49 499.47,-243.65 489.01,-245.33 492.34,-251.49"/>
</g>
<!-- Node17 -->
<g id="node17" class="node">
<title>Node17</title>
<g id="a_node17"><a xlink:title=" ">
<polygon fill="none" stroke="#bfbfbf" points="448,-168.5 448,-187.5 499,-187.5 499,-168.5 448,-168.5"/>
<text text-anchor="middle" x="473.5" y="-175.5" font-family="Helvetica,sans-Serif" font-size="10.00">variant</text>
</a>
</g>
</g>
<!-- Node15&#45;&gt;Node17 -->
<g id="edge24" class="edge">
<title>Node15&#45;&gt;Node17</title>
<path fill="none" stroke="midnightblue" d="M417.05,-280.15C419.56,-267.21 425.31,-242.65 435.5,-224 441.31,-213.37 449.88,-202.93 457.42,-194.8"/>
<polygon fill="midnightblue" stroke="midnightblue" points="460.03,-197.13 464.46,-187.5 455,-192.26 460.03,-197.13"/>
</g>
<!-- Node16&#45;&gt;Node6 -->
<g id="edge23" class="edge">
<title>Node16&#45;&gt;Node6</title>
<path fill="none" stroke="midnightblue" d="M514.88,-243.52C513.5,-256.91 509.13,-283.09 495.5,-300 483.91,-314.38 466.4,-324.97 450.73,-332.25"/>
<polygon fill="midnightblue" stroke="midnightblue" points="449.05,-329.16 441.27,-336.35 451.83,-335.58 449.05,-329.16"/>
</g>
<!-- Node16&#45;&gt;Node17 -->
<g id="edge22" class="edge">
<title>Node16&#45;&gt;Node17</title>
<path fill="none" stroke="midnightblue" d="M508.56,-224.08C502.57,-216.38 493.75,-205.03 486.45,-195.65"/>
<polygon fill="midnightblue" stroke="midnightblue" points="489.21,-193.5 480.31,-187.75 483.68,-197.79 489.21,-193.5"/>
</g>
<!-- Node19 -->
<g id="node19" class="node">
<title>Node19</title>
<g id="a_node19"><a xlink:title=" ">
<polygon fill="none" stroke="#bfbfbf" points="292,-392.5 292,-411.5 339,-411.5 339,-392.5 292,-392.5"/>
<text text-anchor="middle" x="315.5" y="-399.5" font-family="Helvetica,sans-Serif" font-size="10.00">gmp.h</text>
</a>
</g>
</g>
<!-- Node18&#45;&gt;Node19 -->
<g id="edge26" class="edge">
<title>Node18&#45;&gt;Node19</title>
<path fill="none" stroke="midnightblue" d="M282.11,-448.08C287.76,-440.46 296.04,-429.26 302.95,-419.94"/>
<polygon fill="midnightblue" stroke="midnightblue" points="305.88,-421.87 309.02,-411.75 300.25,-417.7 305.88,-421.87"/>
</g>
<!-- Node20 -->
<g id="node20" class="node">
<title>Node20</title>
<g id="a_node20"><a xlink:title=" ">
<polygon fill="none" stroke="#bfbfbf" points="213.5,-392.5 213.5,-411.5 273.5,-411.5 273.5,-392.5 213.5,-392.5"/>
<text text-anchor="middle" x="243.5" y="-399.5" font-family="Helvetica,sans-Serif" font-size="10.00">iostream</text>
</a>
</g>
</g>
<!-- Node18&#45;&gt;Node20 -->
<g id="edge27" class="edge">
<title>Node18&#45;&gt;Node20</title>
<path fill="none" stroke="midnightblue" d="M270.22,-448.08C265.79,-440.61 259.34,-429.72 253.88,-420.52"/>
<polygon fill="midnightblue" stroke="midnightblue" points="256.79,-418.57 248.69,-411.75 250.77,-422.14 256.79,-418.57"/>
</g>
</g>
</svg>
