<?xml version="1.0" encoding="UTF-8" standalone="no"?>
<!DOCTYPE svg PUBLIC "-//W3C//DTD SVG 1.1//EN"
 "http://www.w3.org/Graphics/SVG/1.1/DTD/svg11.dtd">
<!-- Generated by graphviz version 2.43.0 (0)
 -->
<!-- Title: components/simplicial_embedding/wmtk/components/simplicial_embedding/internal/SimplicialEmbedding.hpp Pages: 1 -->
<svg width="374pt" height="150pt"
 viewBox="0.00 0.00 373.50 150.00" xmlns="http://www.w3.org/2000/svg" xmlns:xlink="http://www.w3.org/1999/xlink">
<g id="graph0" class="graph" transform="scale(1 1) rotate(0) translate(4 146)">
<title>components/simplicial_embedding/wmtk/components/simplicial_embedding/internal/SimplicialEmbedding.hpp</title>
<!-- Node1 -->
<g id="node1" class="node">
<title>Node1</title>
<g id="a_node1"><a xlink:title=" ">
<polygon fill="#bfbfbf" stroke="black" points="96,-89.5 96,-141.5 266,-141.5 266,-89.5 96,-89.5"/>
<text text-anchor="start" x="104" y="-129.5" font-family="Helvetica,sans-Serif" font-size="10.00">components/simplicial</text>
<text text-anchor="start" x="104" y="-118.5" font-family="Helvetica,sans-Serif" font-size="10.00">_embedding/wmtk/components</text>
<text text-anchor="start" x="104" y="-107.5" font-family="Helvetica,sans-Serif" font-size="10.00">/simplicial_embedding/internal</text>
<text text-anchor="middle" x="181" y="-96.5" font-family="Helvetica,sans-Serif" font-size="10.00">/SimplicialEmbedding.hpp</text>
</a>
</g>
</g>
<!-- Node2 -->
<g id="node2" class="node">
<title>Node2</title>
<g id="a_node2"><a xlink:href="_simplicial_embedding_8cpp.html" target="_top" xlink:title=" ">
<polygon fill="none" stroke="black" points="0,-0.5 0,-52.5 170,-52.5 170,-0.5 0,-0.5"/>
<text text-anchor="start" x="8" y="-40.5" font-family="Helvetica,sans-Serif" font-size="10.00">components/simplicial</text>
<text text-anchor="start" x="8" y="-29.5" font-family="Helvetica,sans-Serif" font-size="10.00">_embedding/wmtk/components</text>
<text text-anchor="start" x="8" y="-18.5" font-family="Helvetica,sans-Serif" font-size="10.00">/simplicial_embedding/internal</text>
<text text-anchor="middle" x="85" y="-7.5" font-family="Helvetica,sans-Serif" font-size="10.00">/SimplicialEmbedding.cpp</text>
</a>
</g>
</g>
<!-- Node1&#45;&gt;Node2 -->
<g id="edge1" class="edge">
<title>Node1&#45;&gt;Node2</title>
<path fill="none" stroke="midnightblue" d="M145.54,-82.36C134.7,-72.54 122.95,-61.89 112.7,-52.61"/>
<polygon fill="midnightblue" stroke="midnightblue" points="143.47,-85.21 153.23,-89.34 148.17,-80.03 143.47,-85.21"/>
</g>
<!-- Node3 -->
<g id="node3" class="node">
<title>Node3</title>
<g id="a_node3"><a xlink:href="simplicial__embedding_8cpp.html" target="_top" xlink:title=" ">
<polygon fill="none" stroke="black" points="188.5,-0.5 188.5,-52.5 365.5,-52.5 365.5,-0.5 188.5,-0.5"/>
<text text-anchor="start" x="196.5" y="-40.5" font-family="Helvetica,sans-Serif" font-size="10.00">components/simplicial</text>
<text text-anchor="start" x="196.5" y="-29.5" font-family="Helvetica,sans-Serif" font-size="10.00">_embedding/wmtk/components</text>
<text text-anchor="start" x="196.5" y="-18.5" font-family="Helvetica,sans-Serif" font-size="10.00">/simplicial_embedding/simplicial</text>
<text text-anchor="middle" x="277" y="-7.5" font-family="Helvetica,sans-Serif" font-size="10.00">_embedding.cpp</text>
</a>
</g>
</g>
<!-- Node1&#45;&gt;Node3 -->
<g id="edge2" class="edge">
<title>Node1&#45;&gt;Node3</title>
<path fill="none" stroke="midnightblue" d="M216.46,-82.36C227.3,-72.54 239.05,-61.89 249.3,-52.61"/>
<polygon fill="midnightblue" stroke="midnightblue" points="213.83,-80.03 208.77,-89.34 218.53,-85.21 213.83,-80.03"/>
</g>
</g>
</svg>
