<?xml version="1.0" encoding="UTF-8" standalone="no"?>
<!DOCTYPE svg PUBLIC "-//W3C//DTD SVG 1.1//EN"
 "http://www.w3.org/Graphics/SVG/1.1/DTD/svg11.dtd">
<!-- Generated by graphviz version 2.43.0 (0)
 -->
<!-- Title: src/wmtk/operations/attribute_new/SplitNewAttributeStrategy.hpp Pages: 1 -->
<svg width="1932pt" height="284pt"
 viewBox="0.00 0.00 1931.50 284.00" xmlns="http://www.w3.org/2000/svg" xmlns:xlink="http://www.w3.org/1999/xlink">
<g id="graph0" class="graph" transform="scale(1 1) rotate(0) translate(4 280)">
<title>src/wmtk/operations/attribute_new/SplitNewAttributeStrategy.hpp</title>
<!-- Node1 -->
<g id="node1" class="node">
<title>Node1</title>
<g id="a_node1"><a xlink:title=" ">
<polygon fill="#bfbfbf" stroke="black" points="1285,-234.5 1285,-275.5 1461,-275.5 1461,-234.5 1285,-234.5"/>
<text text-anchor="start" x="1293" y="-263.5" font-family="Helvetica,sans-Serif" font-size="10.00">src/wmtk/operations</text>
<text text-anchor="start" x="1293" y="-252.5" font-family="Helvetica,sans-Serif" font-size="10.00">/attribute_new/SplitNewAttribute</text>
<text text-anchor="middle" x="1373" y="-241.5" font-family="Helvetica,sans-Serif" font-size="10.00">Strategy.hpp</text>
</a>
</g>
</g>
<!-- Node2 -->
<g id="node2" class="node">
<title>Node2</title>
<g id="a_node2"><a xlink:href="_split_new_attribute_strategy_8cpp.html" target="_top" xlink:title=" ">
<polygon fill="none" stroke="black" points="0,-156.5 0,-197.5 176,-197.5 176,-156.5 0,-156.5"/>
<text text-anchor="start" x="8" y="-185.5" font-family="Helvetica,sans-Serif" font-size="10.00">src/wmtk/operations</text>
<text text-anchor="start" x="8" y="-174.5" font-family="Helvetica,sans-Serif" font-size="10.00">/attribute_new/SplitNewAttribute</text>
<text text-anchor="middle" x="88" y="-163.5" font-family="Helvetica,sans-Serif" font-size="10.00">Strategy.cpp</text>
</a>
</g>
</g>
<!-- Node1&#45;&gt;Node2 -->
<g id="edge1" class="edge">
<title>Node1&#45;&gt;Node2</title>
<path fill="none" stroke="midnightblue" d="M1274.64,-254.19C1071.31,-253.53 590.21,-246.44 190,-198 185.43,-197.45 180.76,-196.81 176.05,-196.1"/>
<polygon fill="midnightblue" stroke="midnightblue" points="1274.69,-257.69 1284.7,-254.22 1274.71,-250.69 1274.69,-257.69"/>
</g>
<!-- Node3 -->
<g id="node3" class="node">
<title>Node3</title>
<g id="a_node3"><a xlink:href="_edge_split_8cpp.html" target="_top" xlink:title=" ">
<polygon fill="none" stroke="black" points="1516,-84 1516,-114 1632,-114 1632,-84 1516,-84"/>
<text text-anchor="start" x="1524" y="-102" font-family="Helvetica,sans-Serif" font-size="10.00">src/wmtk/operations</text>
<text text-anchor="middle" x="1574" y="-91" font-family="Helvetica,sans-Serif" font-size="10.00">/EdgeSplit.cpp</text>
</a>
</g>
</g>
<!-- Node1&#45;&gt;Node3 -->
<g id="edge2" class="edge">
<title>Node1&#45;&gt;Node3</title>
<path fill="none" stroke="midnightblue" d="M1445.01,-230.63C1464.69,-222.22 1485.19,-211.41 1502,-198 1531.87,-174.17 1555.5,-135.05 1566.77,-114.17"/>
<polygon fill="midnightblue" stroke="midnightblue" points="1443.66,-227.4 1435.75,-234.45 1446.33,-233.87 1443.66,-227.4"/>
</g>
<!-- Node4 -->
<g id="node4" class="node">
<title>Node4</title>
<g id="a_node4"><a xlink:href="_edge_split_8hpp.html" target="_top" xlink:title=" ">
<polygon fill="none" stroke="black" points="916,-162 916,-192 1032,-192 1032,-162 916,-162"/>
<text text-anchor="start" x="924" y="-180" font-family="Helvetica,sans-Serif" font-size="10.00">src/wmtk/operations</text>
<text text-anchor="middle" x="974" y="-169" font-family="Helvetica,sans-Serif" font-size="10.00">/EdgeSplit.hpp</text>
</a>
</g>
</g>
<!-- Node1&#45;&gt;Node4 -->
<g id="edge3" class="edge">
<title>Node1&#45;&gt;Node4</title>
<path fill="none" stroke="midnightblue" d="M1274.86,-235.31C1198.74,-220.81 1095.82,-201.2 1032.23,-189.09"/>
<polygon fill="midnightblue" stroke="midnightblue" points="1274.47,-238.79 1284.94,-237.23 1275.78,-231.92 1274.47,-238.79"/>
</g>
<!-- Node9 -->
<g id="node9" class="node">
<title>Node9</title>
<g id="a_node9"><a xlink:href="wildmeshing_8cpp.html" target="_top" xlink:title=" ">
<polygon fill="none" stroke="black" points="1102.5,-6 1102.5,-36 1275.5,-36 1275.5,-6 1102.5,-6"/>
<text text-anchor="start" x="1110.5" y="-24" font-family="Helvetica,sans-Serif" font-size="10.00">components/wmtk_components</text>
<text text-anchor="middle" x="1189" y="-13" font-family="Helvetica,sans-Serif" font-size="10.00">/wildmeshing/wildmeshing.cpp</text>
</a>
</g>
</g>
<!-- Node1&#45;&gt;Node9 -->
<g id="edge32" class="edge">
<title>Node1&#45;&gt;Node9</title>
<path fill="none" stroke="midnightblue" d="M1405.91,-227.7C1447.22,-191.55 1508.18,-125.58 1469,-78 1442.52,-45.83 1325.84,-50.25 1285,-42 1275.57,-40.1 1265.63,-38.06 1255.86,-36.04"/>
<polygon fill="midnightblue" stroke="midnightblue" points="1403.52,-225.14 1398.2,-234.31 1408.07,-230.46 1403.52,-225.14"/>
</g>
<!-- Node14 -->
<g id="node14" class="node">
<title>Node14</title>
<g id="a_node14"><a xlink:href="_isotropic_remeshing_8cpp.html" target="_top" xlink:title=" ">
<polygon fill="none" stroke="black" points="396.5,-0.5 396.5,-41.5 569.5,-41.5 569.5,-0.5 396.5,-0.5"/>
<text text-anchor="start" x="404.5" y="-29.5" font-family="Helvetica,sans-Serif" font-size="10.00">components/wmtk_components</text>
<text text-anchor="start" x="404.5" y="-18.5" font-family="Helvetica,sans-Serif" font-size="10.00">/isotropic_remeshing/internal</text>
<text text-anchor="middle" x="483" y="-7.5" font-family="Helvetica,sans-Serif" font-size="10.00">/IsotropicRemeshing.cpp</text>
</a>
</g>
</g>
<!-- Node1&#45;&gt;Node14 -->
<g id="edge29" class="edge">
<title>Node1&#45;&gt;Node14</title>
<path fill="none" stroke="midnightblue" d="M1274.59,-252.74C1070.6,-247.99 611.67,-225.55 504,-120 483.12,-99.54 480.6,-63.73 481.34,-41.52"/>
<polygon fill="midnightblue" stroke="midnightblue" points="1274.63,-256.24 1284.7,-252.97 1274.78,-249.24 1274.63,-256.24"/>
</g>
<!-- Node17 -->
<g id="node17" class="node">
<title>Node17</title>
<g id="a_node17"><a xlink:href="_regular_space_8cpp.html" target="_top" xlink:title=" ">
<polygon fill="none" stroke="black" points="38.5,-0.5 38.5,-41.5 211.5,-41.5 211.5,-0.5 38.5,-0.5"/>
<text text-anchor="start" x="46.5" y="-29.5" font-family="Helvetica,sans-Serif" font-size="10.00">components/wmtk_components</text>
<text text-anchor="start" x="46.5" y="-18.5" font-family="Helvetica,sans-Serif" font-size="10.00">/regular_space/internal</text>
<text text-anchor="middle" x="125" y="-7.5" font-family="Helvetica,sans-Serif" font-size="10.00">/RegularSpace.cpp</text>
</a>
</g>
</g>
<!-- Node1&#45;&gt;Node17 -->
<g id="edge31" class="edge">
<title>Node1&#45;&gt;Node17</title>
<path fill="none" stroke="midnightblue" d="M1274.54,-252.18C1120.94,-248.23 815.33,-235.9 559,-198 405.2,-175.26 353.06,-197.01 218,-120 183.77,-100.48 154.41,-64.38 138.28,-41.86"/>
<polygon fill="midnightblue" stroke="midnightblue" points="1274.8,-255.69 1284.88,-252.44 1274.97,-248.69 1274.8,-255.69"/>
</g>
<!-- Node18 -->
<g id="node18" class="node">
<title>Node18</title>
<g id="a_node18"><a xlink:href="internal_2_marching_8cpp.html" target="_top" xlink:title=" ">
<polygon fill="none" stroke="black" points="1286,-84 1286,-114 1460,-114 1460,-84 1286,-84"/>
<text text-anchor="start" x="1294" y="-102" font-family="Helvetica,sans-Serif" font-size="10.00">components/wmtk_components</text>
<text text-anchor="middle" x="1373" y="-91" font-family="Helvetica,sans-Serif" font-size="10.00">/marching/internal/Marching.cpp</text>
</a>
</g>
</g>
<!-- Node1&#45;&gt;Node18 -->
<g id="edge30" class="edge">
<title>Node1&#45;&gt;Node18</title>
<path fill="none" stroke="midnightblue" d="M1373,-224.08C1373,-191.04 1373,-139.23 1373,-114.32"/>
<polygon fill="midnightblue" stroke="midnightblue" points="1369.5,-224.5 1373,-234.5 1376.5,-224.5 1369.5,-224.5"/>
</g>
<!-- Node19 -->
<g id="node19" class="node">
<title>Node19</title>
<g id="a_node19"><a xlink:href="multi__mesh__edge__split_8cpp.html" target="_top" xlink:title=" ">
<polygon fill="none" stroke="black" points="1792.5,-78.5 1792.5,-119.5 1923.5,-119.5 1923.5,-78.5 1792.5,-78.5"/>
<text text-anchor="start" x="1800.5" y="-107.5" font-family="Helvetica,sans-Serif" font-size="10.00">src/wmtk/operations</text>
<text text-anchor="start" x="1800.5" y="-96.5" font-family="Helvetica,sans-Serif" font-size="10.00">/utils/multi_mesh_edge</text>
<text text-anchor="middle" x="1858" y="-85.5" font-family="Helvetica,sans-Serif" font-size="10.00">_split.cpp</text>
</a>
</g>
</g>
<!-- Node1&#45;&gt;Node19 -->
<g id="edge24" class="edge">
<title>Node1&#45;&gt;Node19</title>
<path fill="none" stroke="midnightblue" d="M1471.08,-246.22C1566.72,-237.44 1704.62,-221.29 1753,-198 1791.2,-179.61 1824.97,-142.43 1843.34,-119.52"/>
<polygon fill="midnightblue" stroke="midnightblue" points="1470.73,-242.73 1461.09,-247.12 1471.36,-249.7 1470.73,-242.73"/>
</g>
<!-- Node20 -->
<g id="node20" class="node">
<title>Node20</title>
<g id="a_node20"><a xlink:href="multi__mesh__edge__split_8hpp.html" target="_top" xlink:title=" ">
<polygon fill="none" stroke="black" points="1612.5,-156.5 1612.5,-197.5 1743.5,-197.5 1743.5,-156.5 1612.5,-156.5"/>
<text text-anchor="start" x="1620.5" y="-185.5" font-family="Helvetica,sans-Serif" font-size="10.00">src/wmtk/operations</text>
<text text-anchor="start" x="1620.5" y="-174.5" font-family="Helvetica,sans-Serif" font-size="10.00">/utils/multi_mesh_edge</text>
<text text-anchor="middle" x="1678" y="-163.5" font-family="Helvetica,sans-Serif" font-size="10.00">_split.hpp</text>
</a>
</g>
</g>
<!-- Node1&#45;&gt;Node20 -->
<g id="edge25" class="edge">
<title>Node1&#45;&gt;Node20</title>
<path fill="none" stroke="midnightblue" d="M1461.35,-231.98C1509.56,-219.97 1568.23,-205.35 1612.35,-194.36"/>
<polygon fill="midnightblue" stroke="midnightblue" points="1460.4,-228.61 1451.55,-234.43 1462.09,-235.41 1460.4,-228.61"/>
</g>
<!-- Node4&#45;&gt;Node3 -->
<g id="edge19" class="edge">
<title>Node4&#45;&gt;Node3</title>
<path fill="none" stroke="midnightblue" d="M1042.22,-169.93C1137.88,-161.04 1317.19,-143.01 1469,-120 1484.23,-117.69 1500.62,-114.78 1515.82,-111.89"/>
<polygon fill="midnightblue" stroke="midnightblue" points="1041.74,-166.46 1032.1,-170.86 1042.38,-173.43 1041.74,-166.46"/>
</g>
<!-- Node5 -->
<g id="node5" class="node">
<title>Node5</title>
<g id="a_node5"><a xlink:href="_tet_cell_split_8hpp.html" target="_top" xlink:title=" ">
<polygon fill="none" stroke="black" points="728.5,-84 728.5,-114 877.5,-114 877.5,-84 728.5,-84"/>
<text text-anchor="start" x="736.5" y="-102" font-family="Helvetica,sans-Serif" font-size="10.00">src/wmtk/operations</text>
<text text-anchor="middle" x="803" y="-91" font-family="Helvetica,sans-Serif" font-size="10.00">/composite/TetCellSplit.hpp</text>
</a>
</g>
</g>
<!-- Node4&#45;&gt;Node5 -->
<g id="edge4" class="edge">
<title>Node4&#45;&gt;Node5</title>
<path fill="none" stroke="midnightblue" d="M932.82,-157.7C902.63,-144.28 862.26,-126.34 834.59,-114.04"/>
<polygon fill="midnightblue" stroke="midnightblue" points="931.68,-161.02 942.24,-161.88 934.52,-154.62 931.68,-161.02"/>
</g>
<!-- Node7 -->
<g id="node7" class="node">
<title>Node7</title>
<g id="a_node7"><a xlink:href="_tet_edge_swap_8hpp.html" target="_top" xlink:title=" ">
<polygon fill="none" stroke="black" points="1108.5,-84 1108.5,-114 1267.5,-114 1267.5,-84 1108.5,-84"/>
<text text-anchor="start" x="1116.5" y="-102" font-family="Helvetica,sans-Serif" font-size="10.00">src/wmtk/operations</text>
<text text-anchor="middle" x="1188" y="-91" font-family="Helvetica,sans-Serif" font-size="10.00">/composite/TetEdgeSwap.hpp</text>
</a>
</g>
</g>
<!-- Node4&#45;&gt;Node7 -->
<g id="edge6" class="edge">
<title>Node4&#45;&gt;Node7</title>
<path fill="none" stroke="midnightblue" d="M1023.33,-158.48C1061.29,-145 1113.07,-126.61 1148.37,-114.07"/>
<polygon fill="midnightblue" stroke="midnightblue" points="1021.75,-155.33 1013.5,-161.97 1024.1,-161.92 1021.75,-155.33"/>
</g>
<!-- Node4&#45;&gt;Node9 -->
<g id="edge23" class="edge">
<title>Node4&#45;&gt;Node9</title>
<path fill="none" stroke="midnightblue" d="M1008.45,-156.71C1025.05,-146.71 1044.82,-133.73 1061,-120 1080.19,-103.71 1079.68,-94.14 1099,-78 1118.63,-61.6 1143.48,-46.5 1162.09,-36.12"/>
<polygon fill="midnightblue" stroke="midnightblue" points="1006.42,-153.85 999.59,-161.95 1009.98,-159.87 1006.42,-153.85"/>
</g>
<!-- Node10 -->
<g id="node10" class="node">
<title>Node10</title>
<g id="a_node10"><a xlink:href="_tet_face_swap_8hpp.html" target="_top" xlink:title=" ">
<polygon fill="none" stroke="black" points="895.5,-84 895.5,-114 1052.5,-114 1052.5,-84 895.5,-84"/>
<text text-anchor="start" x="903.5" y="-102" font-family="Helvetica,sans-Serif" font-size="10.00">src/wmtk/operations</text>
<text text-anchor="middle" x="974" y="-91" font-family="Helvetica,sans-Serif" font-size="10.00">/composite/TetFaceSwap.hpp</text>
</a>
</g>
</g>
<!-- Node4&#45;&gt;Node10 -->
<g id="edge9" class="edge">
<title>Node4&#45;&gt;Node10</title>
<path fill="none" stroke="midnightblue" d="M974,-151.59C974,-139.26 974,-124.72 974,-114.23"/>
<polygon fill="midnightblue" stroke="midnightblue" points="970.5,-151.7 974,-161.7 977.5,-151.71 970.5,-151.7"/>
</g>
<!-- Node12 -->
<g id="node12" class="node">
<title>Node12</title>
<g id="a_node12"><a xlink:href="_tri_edge_swap_8hpp.html" target="_top" xlink:title=" ">
<polygon fill="none" stroke="black" points="554,-84 554,-114 710,-114 710,-84 554,-84"/>
<text text-anchor="start" x="562" y="-102" font-family="Helvetica,sans-Serif" font-size="10.00">src/wmtk/operations</text>
<text text-anchor="middle" x="632" y="-91" font-family="Helvetica,sans-Serif" font-size="10.00">/composite/TriEdgeSwap.hpp</text>
</a>
</g>
</g>
<!-- Node4&#45;&gt;Node12 -->
<g id="edge12" class="edge">
<title>Node4&#45;&gt;Node12</title>
<path fill="none" stroke="midnightblue" d="M905.99,-161.25C854.6,-150.07 782.33,-134.23 719,-120 710.53,-118.1 701.61,-116.07 692.83,-114.06"/>
<polygon fill="midnightblue" stroke="midnightblue" points="905.47,-164.72 915.98,-163.43 906.96,-157.88 905.47,-164.72"/>
</g>
<!-- Node4&#45;&gt;Node14 -->
<g id="edge20" class="edge">
<title>Node4&#45;&gt;Node14</title>
<path fill="none" stroke="midnightblue" d="M905.73,-174.05C800.15,-169.9 603.36,-157.26 545,-120 516.15,-101.58 498.28,-64.41 489.52,-41.51"/>
<polygon fill="midnightblue" stroke="midnightblue" points="905.84,-177.56 915.96,-174.44 906.1,-170.56 905.84,-177.56"/>
</g>
<!-- Node15 -->
<g id="node15" class="node">
<title>Node15</title>
<g id="a_node15"><a xlink:href="_tri_face_split_8hpp.html" target="_top" xlink:title=" ">
<polygon fill="none" stroke="black" points="269.5,-84 269.5,-114 418.5,-114 418.5,-84 269.5,-84"/>
<text text-anchor="start" x="277.5" y="-102" font-family="Helvetica,sans-Serif" font-size="10.00">src/wmtk/operations</text>
<text text-anchor="middle" x="344" y="-91" font-family="Helvetica,sans-Serif" font-size="10.00">/composite/TriFaceSplit.hpp</text>
</a>
</g>
</g>
<!-- Node4&#45;&gt;Node15 -->
<g id="edge16" class="edge">
<title>Node4&#45;&gt;Node15</title>
<path fill="none" stroke="midnightblue" d="M905.78,-167.77C786.73,-153.41 541.99,-123.88 418.61,-109"/>
<polygon fill="midnightblue" stroke="midnightblue" points="905.51,-171.26 915.86,-168.99 906.35,-164.31 905.51,-171.26"/>
</g>
<!-- Node4&#45;&gt;Node17 -->
<g id="edge22" class="edge">
<title>Node4&#45;&gt;Node17</title>
<path fill="none" stroke="midnightblue" d="M905.59,-176.6C749.86,-177.01 373.63,-172.37 260,-120 236.02,-108.95 238.79,-94.26 218,-78 200.63,-64.42 179.71,-51.55 162.12,-41.59"/>
<polygon fill="midnightblue" stroke="midnightblue" points="905.98,-180.1 915.97,-176.56 905.96,-173.1 905.98,-180.1"/>
</g>
<!-- Node4&#45;&gt;Node18 -->
<g id="edge21" class="edge">
<title>Node4&#45;&gt;Node18</title>
<path fill="none" stroke="midnightblue" d="M1042.18,-163.76C1103.43,-152.67 1195.82,-135.7 1276,-120 1285.62,-118.12 1295.76,-116.08 1305.72,-114.05"/>
<polygon fill="midnightblue" stroke="midnightblue" points="1041.46,-160.33 1032.24,-165.56 1042.71,-167.22 1041.46,-160.33"/>
</g>
<!-- Node6 -->
<g id="node6" class="node">
<title>Node6</title>
<g id="a_node6"><a xlink:href="_tet_cell_split_8cpp.html" target="_top" xlink:title=" ">
<polygon fill="none" stroke="black" points="760.5,-6 760.5,-36 909.5,-36 909.5,-6 760.5,-6"/>
<text text-anchor="start" x="768.5" y="-24" font-family="Helvetica,sans-Serif" font-size="10.00">src/wmtk/operations</text>
<text text-anchor="middle" x="835" y="-13" font-family="Helvetica,sans-Serif" font-size="10.00">/composite/TetCellSplit.cpp</text>
</a>
</g>
</g>
<!-- Node5&#45;&gt;Node6 -->
<g id="edge5" class="edge">
<title>Node5&#45;&gt;Node6</title>
<path fill="none" stroke="midnightblue" d="M812.96,-74.33C818.22,-61.85 824.5,-46.94 829.01,-36.23"/>
<polygon fill="midnightblue" stroke="midnightblue" points="809.67,-73.13 809.02,-83.7 816.13,-75.85 809.67,-73.13"/>
</g>
<!-- Node8 -->
<g id="node8" class="node">
<title>Node8</title>
<g id="a_node8"><a xlink:href="_tet_edge_swap_8cpp.html" target="_top" xlink:title=" ">
<polygon fill="none" stroke="black" points="1294,-6 1294,-36 1452,-36 1452,-6 1294,-6"/>
<text text-anchor="start" x="1302" y="-24" font-family="Helvetica,sans-Serif" font-size="10.00">src/wmtk/operations</text>
<text text-anchor="middle" x="1373" y="-13" font-family="Helvetica,sans-Serif" font-size="10.00">/composite/TetEdgeSwap.cpp</text>
</a>
</g>
</g>
<!-- Node7&#45;&gt;Node8 -->
<g id="edge7" class="edge">
<title>Node7&#45;&gt;Node8</title>
<path fill="none" stroke="midnightblue" d="M1231.7,-80.05C1264.45,-66.59 1308.63,-48.44 1338.82,-36.04"/>
<polygon fill="midnightblue" stroke="midnightblue" points="1230.28,-76.85 1222.36,-83.88 1232.94,-83.32 1230.28,-76.85"/>
</g>
<!-- Node7&#45;&gt;Node9 -->
<g id="edge8" class="edge">
<title>Node7&#45;&gt;Node9</title>
<path fill="none" stroke="midnightblue" d="M1188.32,-73.59C1188.48,-61.26 1188.67,-46.72 1188.81,-36.23"/>
<polygon fill="midnightblue" stroke="midnightblue" points="1184.82,-73.66 1188.19,-83.7 1191.82,-73.75 1184.82,-73.66"/>
</g>
<!-- Node10&#45;&gt;Node9 -->
<g id="edge11" class="edge">
<title>Node10&#45;&gt;Node9</title>
<path fill="none" stroke="midnightblue" d="M1023.56,-80.48C1061.7,-67 1113.72,-48.61 1149.18,-36.07"/>
<polygon fill="midnightblue" stroke="midnightblue" points="1021.95,-77.34 1013.68,-83.97 1024.28,-83.94 1021.95,-77.34"/>
</g>
<!-- Node11 -->
<g id="node11" class="node">
<title>Node11</title>
<g id="a_node11"><a xlink:href="_tet_face_swap_8cpp.html" target="_top" xlink:title=" ">
<polygon fill="none" stroke="black" points="928,-6 928,-36 1084,-36 1084,-6 928,-6"/>
<text text-anchor="start" x="936" y="-24" font-family="Helvetica,sans-Serif" font-size="10.00">src/wmtk/operations</text>
<text text-anchor="middle" x="1006" y="-13" font-family="Helvetica,sans-Serif" font-size="10.00">/composite/TetFaceSwap.cpp</text>
</a>
</g>
</g>
<!-- Node10&#45;&gt;Node11 -->
<g id="edge10" class="edge">
<title>Node10&#45;&gt;Node11</title>
<path fill="none" stroke="midnightblue" d="M983.96,-74.33C989.22,-61.85 995.5,-46.94 1000.01,-36.23"/>
<polygon fill="midnightblue" stroke="midnightblue" points="980.67,-73.13 980.02,-83.7 987.13,-75.85 980.67,-73.13"/>
</g>
<!-- Node12&#45;&gt;Node9 -->
<g id="edge15" class="edge">
<title>Node12&#45;&gt;Node9</title>
<path fill="none" stroke="midnightblue" d="M698.48,-81.79C705.39,-80.38 712.32,-79.08 719,-78 883.83,-51.24 927.9,-67.07 1093,-42 1103.94,-40.34 1115.51,-38.23 1126.69,-36.01"/>
<polygon fill="midnightblue" stroke="midnightblue" points="697.48,-78.42 688.42,-83.91 698.92,-85.27 697.48,-78.42"/>
</g>
<!-- Node13 -->
<g id="node13" class="node">
<title>Node13</title>
<g id="a_node13"><a xlink:href="_tri_edge_swap_8cpp.html" target="_top" xlink:title=" ">
<polygon fill="none" stroke="black" points="587.5,-6 587.5,-36 742.5,-36 742.5,-6 587.5,-6"/>
<text text-anchor="start" x="595.5" y="-24" font-family="Helvetica,sans-Serif" font-size="10.00">src/wmtk/operations</text>
<text text-anchor="middle" x="665" y="-13" font-family="Helvetica,sans-Serif" font-size="10.00">/composite/TriEdgeSwap.cpp</text>
</a>
</g>
</g>
<!-- Node12&#45;&gt;Node13 -->
<g id="edge13" class="edge">
<title>Node12&#45;&gt;Node13</title>
<path fill="none" stroke="midnightblue" d="M642.28,-74.33C647.7,-61.85 654.17,-46.94 658.82,-36.23"/>
<polygon fill="midnightblue" stroke="midnightblue" points="638.98,-73.14 638.21,-83.7 645.4,-75.93 638.98,-73.14"/>
</g>
<!-- Node12&#45;&gt;Node14 -->
<g id="edge14" class="edge">
<title>Node12&#45;&gt;Node14</title>
<path fill="none" stroke="midnightblue" d="M595.13,-79.2C572.73,-67.77 544.17,-53.2 521.48,-41.63"/>
<polygon fill="midnightblue" stroke="midnightblue" points="593.82,-82.46 604.32,-83.88 597.01,-76.22 593.82,-82.46"/>
</g>
<!-- Node16 -->
<g id="node16" class="node">
<title>Node16</title>
<g id="a_node16"><a xlink:href="_tri_face_split_8cpp.html" target="_top" xlink:title=" ">
<polygon fill="none" stroke="black" points="229.5,-6 229.5,-36 378.5,-36 378.5,-6 229.5,-6"/>
<text text-anchor="start" x="237.5" y="-24" font-family="Helvetica,sans-Serif" font-size="10.00">src/wmtk/operations</text>
<text text-anchor="middle" x="304" y="-13" font-family="Helvetica,sans-Serif" font-size="10.00">/composite/TriFaceSplit.cpp</text>
</a>
</g>
</g>
<!-- Node15&#45;&gt;Node16 -->
<g id="edge17" class="edge">
<title>Node15&#45;&gt;Node16</title>
<path fill="none" stroke="midnightblue" d="M331.74,-74.7C325.13,-62.14 317.18,-47.04 311.49,-36.23"/>
<polygon fill="midnightblue" stroke="midnightblue" points="328.72,-76.49 336.48,-83.7 334.92,-73.23 328.72,-76.49"/>
</g>
<!-- Node15&#45;&gt;Node17 -->
<g id="edge18" class="edge">
<title>Node15&#45;&gt;Node17</title>
<path fill="none" stroke="midnightblue" d="M293.96,-80.64C260.38,-68.98 216.09,-53.61 181.28,-41.53"/>
<polygon fill="midnightblue" stroke="midnightblue" points="292.98,-84 303.58,-83.97 295.28,-77.39 292.98,-84"/>
</g>
<!-- Node20&#45;&gt;Node3 -->
<g id="edge27" class="edge">
<title>Node20&#45;&gt;Node3</title>
<path fill="none" stroke="midnightblue" d="M1642.86,-150.32C1626.37,-138.27 1607.34,-124.36 1593.47,-114.23"/>
<polygon fill="midnightblue" stroke="midnightblue" points="1641.08,-153.35 1651.22,-156.43 1645.21,-147.7 1641.08,-153.35"/>
</g>
<!-- Node20&#45;&gt;Node19 -->
<g id="edge28" class="edge">
<title>Node20&#45;&gt;Node19</title>
<path fill="none" stroke="midnightblue" d="M1733.73,-152.47C1758.78,-141.89 1788,-129.56 1811.8,-119.51"/>
<polygon fill="midnightblue" stroke="midnightblue" points="1732.21,-149.31 1724.35,-156.43 1734.93,-155.76 1732.21,-149.31"/>
</g>
<!-- Node21 -->
<g id="node21" class="node">
<title>Node21</title>
<g id="a_node21"><a xlink:href="extract__operation__tuples_8cpp.html" target="_top" xlink:title=" ">
<polygon fill="none" stroke="black" points="1650,-78.5 1650,-119.5 1774,-119.5 1774,-78.5 1650,-78.5"/>
<text text-anchor="start" x="1658" y="-107.5" font-family="Helvetica,sans-Serif" font-size="10.00">src/wmtk/multimesh</text>
<text text-anchor="start" x="1658" y="-96.5" font-family="Helvetica,sans-Serif" font-size="10.00">/operations/extract</text>
<text text-anchor="middle" x="1712" y="-85.5" font-family="Helvetica,sans-Serif" font-size="10.00">_operation_tuples.cpp</text>
</a>
</g>
</g>
<!-- Node20&#45;&gt;Node21 -->
<g id="edge26" class="edge">
<title>Node20&#45;&gt;Node21</title>
<path fill="none" stroke="midnightblue" d="M1690.9,-147.17C1695.03,-137.93 1699.51,-127.92 1703.27,-119.51"/>
<polygon fill="midnightblue" stroke="midnightblue" points="1687.64,-145.87 1686.76,-156.43 1694.03,-148.73 1687.64,-145.87"/>
</g>
</g>
</svg>
