<?xml version="1.0" encoding="UTF-8" standalone="no"?>
<!DOCTYPE svg PUBLIC "-//W3C//DTD SVG 1.1//EN"
 "http://www.w3.org/Graphics/SVG/1.1/DTD/svg11.dtd">
<!-- Generated by graphviz version 2.43.0 (0)
 -->
<!-- Title: components/wmtk_components/tag_intersection/internal/TagIntersection.hpp Pages: 1 -->
<svg width="400pt" height="128pt"
 viewBox="0.00 0.00 399.50 128.00" xmlns="http://www.w3.org/2000/svg" xmlns:xlink="http://www.w3.org/1999/xlink">
<g id="graph0" class="graph" transform="scale(1 1) rotate(0) translate(4 124)">
<title>components/wmtk_components/tag_intersection/internal/TagIntersection.hpp</title>
<!-- Node1 -->
<g id="node1" class="node">
<title>Node1</title>
<g id="a_node1"><a xlink:title=" ">
<polygon fill="#bfbfbf" stroke="black" points="102,-78.5 102,-119.5 275,-119.5 275,-78.5 102,-78.5"/>
<text text-anchor="start" x="110" y="-107.5" font-family="Helvetica,sans-Serif" font-size="10.00">components/wmtk_components</text>
<text text-anchor="start" x="110" y="-96.5" font-family="Helvetica,sans-Serif" font-size="10.00">/tag_intersection/internal</text>
<text text-anchor="middle" x="188.5" y="-85.5" font-family="Helvetica,sans-Serif" font-size="10.00">/TagIntersection.hpp</text>
</a>
</g>
</g>
<!-- Node2 -->
<g id="node2" class="node">
<title>Node2</title>
<g id="a_node2"><a xlink:href="_tag_intersection_8cpp.html" target="_top" xlink:title=" ">
<polygon fill="none" stroke="black" points="0,-0.5 0,-41.5 173,-41.5 173,-0.5 0,-0.5"/>
<text text-anchor="start" x="8" y="-29.5" font-family="Helvetica,sans-Serif" font-size="10.00">components/wmtk_components</text>
<text text-anchor="start" x="8" y="-18.5" font-family="Helvetica,sans-Serif" font-size="10.00">/tag_intersection/internal</text>
<text text-anchor="middle" x="86.5" y="-7.5" font-family="Helvetica,sans-Serif" font-size="10.00">/TagIntersection.cpp</text>
</a>
</g>
</g>
<!-- Node1&#45;&gt;Node2 -->
<g id="edge1" class="edge">
<title>Node1&#45;&gt;Node2</title>
<path fill="none" stroke="midnightblue" d="M154.08,-72.35C140.55,-62.27 125.28,-50.89 112.68,-41.51"/>
<polygon fill="midnightblue" stroke="midnightblue" points="152.12,-75.26 162.23,-78.43 156.3,-69.65 152.12,-75.26"/>
</g>
<!-- Node3 -->
<g id="node3" class="node">
<title>Node3</title>
<g id="a_node3"><a xlink:href="tag__intersection_8cpp.html" target="_top" xlink:title=" ">
<polygon fill="none" stroke="black" points="191.5,-6 191.5,-36 391.5,-36 391.5,-6 191.5,-6"/>
<text text-anchor="start" x="199.5" y="-24" font-family="Helvetica,sans-Serif" font-size="10.00">components/wmtk_components</text>
<text text-anchor="middle" x="291.5" y="-13" font-family="Helvetica,sans-Serif" font-size="10.00">/tag_intersection/tag_intersection.cpp</text>
</a>
</g>
</g>
<!-- Node1&#45;&gt;Node3 -->
<g id="edge2" class="edge">
<title>Node1&#45;&gt;Node3</title>
<path fill="none" stroke="midnightblue" d="M223.3,-72.32C239.63,-60.27 258.48,-46.36 272.22,-36.23"/>
<polygon fill="midnightblue" stroke="midnightblue" points="220.99,-69.67 215.03,-78.43 225.15,-75.31 220.99,-69.67"/>
</g>
</g>
</svg>
