<?xml version="1.0" encoding="UTF-8" standalone="no"?>
<!DOCTYPE svg PUBLIC "-//W3C//DTD SVG 1.1//EN"
 "http://www.w3.org/Graphics/SVG/1.1/DTD/svg11.dtd">
<!-- Generated by graphviz version 2.43.0 (0)
 -->
<!-- Title: src/wmtk/attribute/TypedAttributeHandle.hpp Pages: 1 -->
<svg width="606pt" height="431pt"
 viewBox="0.00 0.00 606.35 431.00" xmlns="http://www.w3.org/2000/svg" xmlns:xlink="http://www.w3.org/1999/xlink">
<g id="graph0" class="graph" transform="scale(1 1) rotate(0) translate(4 427)">
<title>src/wmtk/attribute/TypedAttributeHandle.hpp</title>
<!-- Node1 -->
<g id="node1" class="node">
<title>Node1</title>
<g id="a_node1"><a xlink:title=" ">
<polygon fill="#bfbfbf" stroke="black" points="8.85,-392.5 8.85,-422.5 154.85,-422.5 154.85,-392.5 8.85,-392.5"/>
<text text-anchor="start" x="16.85" y="-410.5" font-family="Helvetica,sans-Serif" font-size="10.00">src/wmtk/attribute</text>
<text text-anchor="middle" x="81.85" y="-399.5" font-family="Helvetica,sans-Serif" font-size="10.00">/TypedAttributeHandle.hpp</text>
</a>
</g>
</g>
<!-- Node2 -->
<g id="node2" class="node">
<title>Node2</title>
<g id="a_node2"><a xlink:title=" ">
<polygon fill="none" stroke="#bfbfbf" points="7.35,-224.5 7.35,-243.5 58.35,-243.5 58.35,-224.5 7.35,-224.5"/>
<text text-anchor="middle" x="32.85" y="-231.5" font-family="Helvetica,sans-Serif" font-size="10.00">variant</text>
</a>
</g>
</g>
<!-- Node1&#45;&gt;Node2 -->
<g id="edge1" class="edge">
<title>Node1&#45;&gt;Node2</title>
<path fill="none" stroke="midnightblue" d="M66.4,-392.47C46.97,-373.65 14.59,-338.17 1.85,-300 -3.93,-282.68 6.97,-263.97 17.4,-251.1"/>
<polygon fill="midnightblue" stroke="midnightblue" points="20.05,-253.38 24.01,-243.55 14.79,-248.77 20.05,-253.38"/>
</g>
<!-- Node3 -->
<g id="node3" class="node">
<title>Node3</title>
<g id="a_node3"><a xlink:href="_attribute_handle_8hpp.html" target="_top" xlink:title=" ">
<polygon fill="none" stroke="black" points="128.35,-336.5 128.35,-355.5 243.35,-355.5 243.35,-336.5 128.35,-336.5"/>
<text text-anchor="middle" x="185.85" y="-343.5" font-family="Helvetica,sans-Serif" font-size="10.00">AttributeHandle.hpp</text>
</a>
</g>
</g>
<!-- Node1&#45;&gt;Node3 -->
<g id="edge2" class="edge">
<title>Node1&#45;&gt;Node3</title>
<path fill="none" stroke="midnightblue" d="M106.49,-392.4C123.16,-382.86 145.08,-370.32 161.65,-360.84"/>
<polygon fill="midnightblue" stroke="midnightblue" points="163.77,-363.66 170.71,-355.66 160.3,-357.59 163.77,-363.66"/>
</g>
<!-- Node4 -->
<g id="node4" class="node">
<title>Node4</title>
<g id="a_node4"><a xlink:title=" ">
<polygon fill="none" stroke="#bfbfbf" points="170.35,-280.5 170.35,-299.5 239.35,-299.5 239.35,-280.5 170.35,-280.5"/>
<text text-anchor="middle" x="204.85" y="-287.5" font-family="Helvetica,sans-Serif" font-size="10.00">type_traits</text>
</a>
</g>
</g>
<!-- Node3&#45;&gt;Node4 -->
<g id="edge3" class="edge">
<title>Node3&#45;&gt;Node4</title>
<path fill="none" stroke="midnightblue" d="M188.98,-336.08C191.53,-328.85 195.2,-318.41 198.37,-309.4"/>
<polygon fill="midnightblue" stroke="midnightblue" points="201.75,-310.35 201.77,-299.75 195.15,-308.02 201.75,-310.35"/>
</g>
<!-- Node5 -->
<g id="node5" class="node">
<title>Node5</title>
<g id="a_node5"><a xlink:href="_primitive_8hpp.html" target="_top" xlink:title=" ">
<polygon fill="none" stroke="black" points="257.35,-280.5 257.35,-299.5 370.35,-299.5 370.35,-280.5 257.35,-280.5"/>
<text text-anchor="middle" x="313.85" y="-287.5" font-family="Helvetica,sans-Serif" font-size="10.00">wmtk/Primitive.hpp</text>
</a>
</g>
</g>
<!-- Node3&#45;&gt;Node5 -->
<g id="edge4" class="edge">
<title>Node3&#45;&gt;Node5</title>
<path fill="none" stroke="midnightblue" d="M206.13,-336.44C227.19,-327.56 260.36,-313.56 284.33,-303.45"/>
<polygon fill="midnightblue" stroke="midnightblue" points="285.81,-306.63 293.66,-299.52 283.09,-300.18 285.81,-306.63"/>
</g>
<!-- Node19 -->
<g id="node19" class="node">
<title>Node19</title>
<g id="a_node19"><a xlink:href="_mesh_attribute_handle_8hpp.html" target="_top" xlink:title=" ">
<polygon fill="none" stroke="black" points="11.35,-280.5 11.35,-299.5 152.35,-299.5 152.35,-280.5 11.35,-280.5"/>
<text text-anchor="middle" x="81.85" y="-287.5" font-family="Helvetica,sans-Serif" font-size="10.00">MeshAttributeHandle.hpp</text>
</a>
</g>
</g>
<!-- Node3&#45;&gt;Node19 -->
<g id="edge24" class="edge">
<title>Node3&#45;&gt;Node19</title>
<path fill="none" stroke="midnightblue" d="M169.14,-336.32C152.54,-327.7 126.85,-314.36 107.63,-304.39"/>
<polygon fill="midnightblue" stroke="midnightblue" points="109,-301.16 98.52,-299.65 105.78,-307.37 109,-301.16"/>
</g>
<!-- Node6 -->
<g id="node6" class="node">
<title>Node6</title>
<g id="a_node6"><a xlink:href="_simplex_8hpp.html" target="_top" xlink:title=" ">
<polygon fill="none" stroke="black" points="210.85,-168.5 210.85,-187.5 360.85,-187.5 360.85,-168.5 210.85,-168.5"/>
<text text-anchor="middle" x="285.85" y="-175.5" font-family="Helvetica,sans-Serif" font-size="10.00">wmtk/simplex/Simplex.hpp</text>
</a>
</g>
</g>
<!-- Node5&#45;&gt;Node6 -->
<g id="edge5" class="edge">
<title>Node5&#45;&gt;Node6</title>
<path fill="none" stroke="midnightblue" d="M311.65,-280.37C307.13,-262.62 296.71,-221.67 290.58,-197.6"/>
<polygon fill="midnightblue" stroke="midnightblue" points="293.89,-196.42 288.03,-187.59 287.11,-198.15 293.89,-196.42"/>
</g>
<!-- Node7 -->
<g id="node7" class="node">
<title>Node7</title>
<g id="a_node7"><a xlink:href="_primitive_type_8hpp.html" target="_top" xlink:title=" ">
<polygon fill="none" stroke="black" points="131.35,-56.5 131.35,-75.5 266.35,-75.5 266.35,-56.5 131.35,-56.5"/>
<text text-anchor="middle" x="198.85" y="-63.5" font-family="Helvetica,sans-Serif" font-size="10.00">wmtk/PrimitiveType.hpp</text>
</a>
</g>
</g>
<!-- Node5&#45;&gt;Node7 -->
<g id="edge22" class="edge">
<title>Node5&#45;&gt;Node7</title>
<path fill="none" stroke="midnightblue" d="M297.87,-280.4C272.1,-265.52 222.19,-232.25 201.85,-188 186.47,-154.56 190.73,-110.23 194.96,-85.57"/>
<polygon fill="midnightblue" stroke="midnightblue" points="198.4,-86.21 196.82,-75.73 191.52,-84.9 198.4,-86.21"/>
</g>
<!-- Node11 -->
<g id="node11" class="node">
<title>Node11</title>
<g id="a_node11"><a xlink:href="_tuple_8hpp.html" target="_top" xlink:title=" ">
<polygon fill="none" stroke="black" points="341.85,-112.5 341.85,-131.5 435.85,-131.5 435.85,-112.5 341.85,-112.5"/>
<text text-anchor="middle" x="388.85" y="-119.5" font-family="Helvetica,sans-Serif" font-size="10.00">wmtk/Tuple.hpp</text>
</a>
</g>
</g>
<!-- Node5&#45;&gt;Node11 -->
<g id="edge23" class="edge">
<title>Node5&#45;&gt;Node11</title>
<path fill="none" stroke="midnightblue" d="M334.32,-280.35C349.19,-272.95 368.46,-260.81 378.85,-244 398.36,-212.44 395.76,-167.06 392.24,-141.8"/>
<polygon fill="midnightblue" stroke="midnightblue" points="395.66,-141.05 390.63,-131.73 388.75,-142.16 395.66,-141.05"/>
</g>
<!-- Node18 -->
<g id="node18" class="node">
<title>Node18</title>
<g id="a_node18"><a xlink:href="_cell_8hpp.html" target="_top" xlink:title=" ">
<polygon fill="none" stroke="black" points="313.85,-224.5 313.85,-243.5 369.85,-243.5 369.85,-224.5 313.85,-224.5"/>
<text text-anchor="middle" x="341.85" y="-231.5" font-family="Helvetica,sans-Serif" font-size="10.00">Cell.hpp</text>
</a>
</g>
</g>
<!-- Node5&#45;&gt;Node18 -->
<g id="edge19" class="edge">
<title>Node5&#45;&gt;Node18</title>
<path fill="none" stroke="midnightblue" d="M318.47,-280.08C322.3,-272.69 327.87,-261.95 332.61,-252.81"/>
<polygon fill="midnightblue" stroke="midnightblue" points="335.81,-254.24 337.31,-243.75 329.6,-251.02 335.81,-254.24"/>
</g>
<!-- Node6&#45;&gt;Node7 -->
<g id="edge6" class="edge">
<title>Node6&#45;&gt;Node7</title>
<path fill="none" stroke="midnightblue" d="M279.02,-168.37C264.6,-150.14 230.82,-107.43 212.04,-83.68"/>
<polygon fill="midnightblue" stroke="midnightblue" points="214.59,-81.26 205.64,-75.59 209.1,-85.61 214.59,-81.26"/>
</g>
<!-- Node6&#45;&gt;Node11 -->
<g id="edge10" class="edge">
<title>Node6&#45;&gt;Node11</title>
<path fill="none" stroke="midnightblue" d="M302.4,-168.32C318.84,-159.7 344.28,-146.36 363.32,-136.39"/>
<polygon fill="midnightblue" stroke="midnightblue" points="365.11,-139.4 372.34,-131.65 361.86,-133.2 365.11,-139.4"/>
</g>
<!-- Node8 -->
<g id="node8" class="node">
<title>Node8</title>
<g id="a_node8"><a xlink:title=" ">
<polygon fill="none" stroke="#bfbfbf" points="32.35,-0.5 32.35,-19.5 97.35,-19.5 97.35,-0.5 32.35,-0.5"/>
<text text-anchor="middle" x="64.85" y="-7.5" font-family="Helvetica,sans-Serif" font-size="10.00">stdexcept</text>
</a>
</g>
</g>
<!-- Node7&#45;&gt;Node8 -->
<g id="edge7" class="edge">
<title>Node7&#45;&gt;Node8</title>
<path fill="none" stroke="midnightblue" d="M177.61,-56.44C155.46,-47.52 120.53,-33.44 95.41,-23.32"/>
<polygon fill="midnightblue" stroke="midnightblue" points="96.56,-20.01 85.98,-19.52 93.95,-26.5 96.56,-20.01"/>
</g>
<!-- Node9 -->
<g id="node9" class="node">
<title>Node9</title>
<g id="a_node9"><a xlink:title=" ">
<polygon fill="none" stroke="#bfbfbf" points="115.35,-0.5 115.35,-19.5 188.35,-19.5 188.35,-0.5 115.35,-0.5"/>
<text text-anchor="middle" x="151.85" y="-7.5" font-family="Helvetica,sans-Serif" font-size="10.00">string_view</text>
</a>
</g>
</g>
<!-- Node7&#45;&gt;Node9 -->
<g id="edge8" class="edge">
<title>Node7&#45;&gt;Node9</title>
<path fill="none" stroke="midnightblue" d="M191.09,-56.08C184.31,-48.3 174.3,-36.8 166.09,-27.37"/>
<polygon fill="midnightblue" stroke="midnightblue" points="168.67,-25 159.46,-19.75 163.39,-29.59 168.67,-25"/>
</g>
<!-- Node10 -->
<g id="node10" class="node">
<title>Node10</title>
<g id="a_node10"><a xlink:title=" ">
<polygon fill="none" stroke="#bfbfbf" points="206.35,-0.5 206.35,-19.5 253.35,-19.5 253.35,-0.5 206.35,-0.5"/>
<text text-anchor="middle" x="229.85" y="-7.5" font-family="Helvetica,sans-Serif" font-size="10.00">vector</text>
</a>
</g>
</g>
<!-- Node7&#45;&gt;Node10 -->
<g id="edge9" class="edge">
<title>Node7&#45;&gt;Node10</title>
<path fill="none" stroke="midnightblue" d="M203.97,-56.08C208.25,-48.61 214.51,-37.72 219.79,-28.52"/>
<polygon fill="midnightblue" stroke="midnightblue" points="222.88,-30.17 224.82,-19.75 216.81,-26.68 222.88,-30.17"/>
</g>
<!-- Node11&#45;&gt;Node7 -->
<g id="edge11" class="edge">
<title>Node11&#45;&gt;Node7</title>
<path fill="none" stroke="midnightblue" d="M358.74,-112.44C326.22,-103.2 274.27,-88.44 238.46,-78.26"/>
<polygon fill="midnightblue" stroke="midnightblue" points="239.39,-74.88 228.81,-75.52 237.47,-81.62 239.39,-74.88"/>
</g>
<!-- Node12 -->
<g id="node12" class="node">
<title>Node12</title>
<g id="a_node12"><a xlink:href="_tuple_8hxx.html" target="_top" xlink:title=" ">
<polygon fill="none" stroke="black" points="357.35,-56.5 357.35,-75.5 420.35,-75.5 420.35,-56.5 357.35,-56.5"/>
<text text-anchor="middle" x="388.85" y="-63.5" font-family="Helvetica,sans-Serif" font-size="10.00">Tuple.hxx</text>
</a>
</g>
</g>
<!-- Node11&#45;&gt;Node12 -->
<g id="edge12" class="edge">
<title>Node11&#45;&gt;Node12</title>
<path fill="none" stroke="midnightblue" d="M383.68,-112.08C382.17,-104.93 381.74,-94.64 382.39,-85.69"/>
<polygon fill="midnightblue" stroke="midnightblue" points="385.86,-86.13 383.72,-75.75 378.92,-85.2 385.86,-86.13"/>
</g>
<!-- Node12&#45;&gt;Node11 -->
<g id="edge13" class="edge">
<title>Node12&#45;&gt;Node11</title>
<path fill="none" stroke="midnightblue" d="M393.98,-75.75C395.5,-82.86 395.95,-93.14 395.32,-102.1"/>
<polygon fill="midnightblue" stroke="midnightblue" points="391.84,-101.71 394.01,-112.08 398.78,-102.62 391.84,-101.71"/>
</g>
<!-- Node13 -->
<g id="node13" class="node">
<title>Node13</title>
<g id="a_node13"><a xlink:title=" ">
<polygon fill="none" stroke="#bfbfbf" points="271.35,-0.5 271.35,-19.5 324.35,-19.5 324.35,-0.5 271.35,-0.5"/>
<text text-anchor="middle" x="297.85" y="-7.5" font-family="Helvetica,sans-Serif" font-size="10.00">cstddef</text>
</a>
</g>
</g>
<!-- Node12&#45;&gt;Node13 -->
<g id="edge14" class="edge">
<title>Node12&#45;&gt;Node13</title>
<path fill="none" stroke="midnightblue" d="M374.23,-56.32C359.9,-47.82 337.83,-34.73 321.1,-24.8"/>
<polygon fill="midnightblue" stroke="midnightblue" points="322.82,-21.75 312.43,-19.65 319.25,-27.77 322.82,-21.75"/>
</g>
<!-- Node14 -->
<g id="node14" class="node">
<title>Node14</title>
<g id="a_node14"><a xlink:title=" ">
<polygon fill="none" stroke="#bfbfbf" points="342.85,-0.5 342.85,-19.5 402.85,-19.5 402.85,-0.5 342.85,-0.5"/>
<text text-anchor="middle" x="372.85" y="-7.5" font-family="Helvetica,sans-Serif" font-size="10.00">iostream</text>
</a>
</g>
</g>
<!-- Node12&#45;&gt;Node14 -->
<g id="edge15" class="edge">
<title>Node12&#45;&gt;Node14</title>
<path fill="none" stroke="midnightblue" d="M386.21,-56.08C384.06,-48.85 380.97,-38.41 378.3,-29.4"/>
<polygon fill="midnightblue" stroke="midnightblue" points="381.64,-28.34 375.44,-19.75 374.93,-30.33 381.64,-28.34"/>
</g>
<!-- Node15 -->
<g id="node15" class="node">
<title>Node15</title>
<g id="a_node15"><a xlink:title=" ">
<polygon fill="none" stroke="#bfbfbf" points="420.85,-0.5 420.85,-19.5 476.85,-19.5 476.85,-0.5 420.85,-0.5"/>
<text text-anchor="middle" x="448.85" y="-7.5" font-family="Helvetica,sans-Serif" font-size="10.00">optional</text>
</a>
</g>
</g>
<!-- Node12&#45;&gt;Node15 -->
<g id="edge16" class="edge">
<title>Node12&#45;&gt;Node15</title>
<path fill="none" stroke="midnightblue" d="M398.49,-56.32C407.36,-48.34 420.72,-36.31 431.46,-26.65"/>
<polygon fill="midnightblue" stroke="midnightblue" points="433.94,-29.13 439.03,-19.83 429.26,-23.92 433.94,-29.13"/>
</g>
<!-- Node16 -->
<g id="node16" class="node">
<title>Node16</title>
<g id="a_node16"><a xlink:title=" ">
<polygon fill="none" stroke="#bfbfbf" points="494.85,-0.5 494.85,-19.5 538.85,-19.5 538.85,-0.5 494.85,-0.5"/>
<text text-anchor="middle" x="516.85" y="-7.5" font-family="Helvetica,sans-Serif" font-size="10.00">string</text>
</a>
</g>
</g>
<!-- Node12&#45;&gt;Node16 -->
<g id="edge17" class="edge">
<title>Node12&#45;&gt;Node16</title>
<path fill="none" stroke="midnightblue" d="M409.13,-56.44C430.19,-47.56 463.36,-33.56 487.33,-23.45"/>
<polygon fill="midnightblue" stroke="midnightblue" points="488.81,-26.63 496.66,-19.52 486.09,-20.18 488.81,-26.63"/>
</g>
<!-- Node17 -->
<g id="node17" class="node">
<title>Node17</title>
<g id="a_node17"><a xlink:title=" ">
<polygon fill="none" stroke="#bfbfbf" points="557.35,-0.5 557.35,-19.5 598.35,-19.5 598.35,-0.5 557.35,-0.5"/>
<text text-anchor="middle" x="577.85" y="-7.5" font-family="Helvetica,sans-Serif" font-size="10.00">tuple</text>
</a>
</g>
</g>
<!-- Node12&#45;&gt;Node17 -->
<g id="edge18" class="edge">
<title>Node12&#45;&gt;Node17</title>
<path fill="none" stroke="midnightblue" d="M419.67,-56.43C449.79,-48.02 497.19,-34.7 547.45,-20.08"/>
<polygon fill="midnightblue" stroke="midnightblue" points="548.58,-23.4 557.2,-17.24 546.62,-16.68 548.58,-23.4"/>
</g>
<!-- Node18&#45;&gt;Node6 -->
<g id="edge20" class="edge">
<title>Node18&#45;&gt;Node6</title>
<path fill="none" stroke="midnightblue" d="M332.85,-224.32C324.65,-216.42 312.34,-204.55 302.38,-194.94"/>
<polygon fill="midnightblue" stroke="midnightblue" points="304.64,-192.26 295.01,-187.83 299.78,-197.29 304.64,-192.26"/>
</g>
<!-- Node18&#45;&gt;Node11 -->
<g id="edge21" class="edge">
<title>Node18&#45;&gt;Node11</title>
<path fill="none" stroke="midnightblue" d="M348.17,-224.43C354.4,-215.66 363.84,-201.44 369.85,-188 376.6,-172.91 381.66,-154.78 384.86,-141.51"/>
<polygon fill="midnightblue" stroke="midnightblue" points="388.29,-142.2 387.1,-131.68 381.47,-140.65 388.29,-142.2"/>
</g>
<!-- Node19&#45;&gt;Node1 -->
<g id="edge25" class="edge">
<title>Node19&#45;&gt;Node1</title>
<path fill="none" stroke="midnightblue" d="M81.85,-299.67C81.85,-316.99 81.85,-356.41 81.85,-382.21"/>
<polygon fill="midnightblue" stroke="midnightblue" points="78.35,-382.34 81.85,-392.34 85.35,-382.34 78.35,-382.34"/>
</g>
<!-- Node19&#45;&gt;Node2 -->
<g id="edge26" class="edge">
<title>Node19&#45;&gt;Node2</title>
<path fill="none" stroke="midnightblue" d="M73.76,-280.08C66.69,-272.3 56.26,-260.8 47.7,-251.37"/>
<polygon fill="midnightblue" stroke="midnightblue" points="50.1,-248.8 40.79,-243.75 44.92,-253.51 50.1,-248.8"/>
</g>
</g>
</svg>
