<?xml version="1.0" encoding="UTF-8" standalone="no"?>
<!DOCTYPE svg PUBLIC "-//W3C//DTD SVG 1.1//EN"
 "http://www.w3.org/Graphics/SVG/1.1/DTD/svg11.dtd">
<!-- Generated by graphviz version 2.43.0 (0)
 -->
<!-- Title: wmtk::multimesh::utils::MapValidator::check_parent_map_attribute_valid Pages: 1 -->
<svg width="770pt" height="341pt"
 viewBox="0.00 0.00 770.00 341.00" xmlns="http://www.w3.org/2000/svg" xmlns:xlink="http://www.w3.org/1999/xlink">
<g id="graph0" class="graph" transform="scale(1 1) rotate(0) translate(4 337)">
<title>wmtk::multimesh::utils::MapValidator::check_parent_map_attribute_valid</title>
<!-- Node1 -->
<g id="Node000001" class="node">
<title>Node1</title>
<g id="a_Node000001"><a xlink:title=" ">
<polygon fill="#999999" stroke="#666666" points="157,-174.5 0,-174.5 0,-133.5 157,-133.5 157,-174.5"/>
<text text-anchor="start" x="8" y="-162.5" font-family="Helvetica,sans-Serif" font-size="10.00">wmtk::multimesh::utils</text>
<text text-anchor="start" x="8" y="-151.5" font-family="Helvetica,sans-Serif" font-size="10.00">::MapValidator::check</text>
<text text-anchor="middle" x="78.5" y="-140.5" font-family="Helvetica,sans-Serif" font-size="10.00">_parent_map_attribute_valid</text>
</a>
</g>
</g>
<!-- Node2 -->
<g id="Node000002" class="node">
<title>Node2</title>
<g id="a_Node000002"><a xlink:href="classwmtk_1_1_mesh.html#a2102fdea06a0c543437e67d77aeb2013" target="_top" xlink:title="returns a unique identifier for this mesh within a single multimesh structure">
<polygon fill="white" stroke="#666666" points="340.5,-315 215.5,-315 215.5,-285 340.5,-285 340.5,-315"/>
<text text-anchor="start" x="223.5" y="-303" font-family="Helvetica,sans-Serif" font-size="10.00">wmtk::Mesh::absolute</text>
<text text-anchor="middle" x="278" y="-292" font-family="Helvetica,sans-Serif" font-size="10.00">_multi_mesh_id</text>
</a>
</g>
</g>
<!-- Node1&#45;&gt;Node2 -->
<g id="edge1_Node000001_Node000002" class="edge">
<title>Node1&#45;&gt;Node2</title>
<g id="a_edge1_Node000001_Node000002"><a xlink:title=" ">
<path fill="none" stroke="#63b8ff" d="M93.11,-174.5C112.22,-201.71 149.59,-249.39 193,-276 197.07,-278.49 201.41,-280.74 205.89,-282.75"/>
<polygon fill="#63b8ff" stroke="#63b8ff" points="204.66,-286.03 215.24,-286.58 207.31,-279.56 204.66,-286.03"/>
</a>
</g>
</g>
<!-- Node5 -->
<g id="Node000005" class="node">
<title>Node5</title>
<g id="a_Node000005"><a xlink:href="classwmtk_1_1_mesh.html#a4cd7e6ca59d8d58cc7057c13bd190d57" target="_top" xlink:title=" ">
<polygon fill="white" stroke="#666666" points="334.5,-267 221.5,-267 221.5,-237 334.5,-237 334.5,-267"/>
<text text-anchor="start" x="229.5" y="-255" font-family="Helvetica,sans-Serif" font-size="10.00">wmtk::Mesh::create</text>
<text text-anchor="middle" x="278" y="-244" font-family="Helvetica,sans-Serif" font-size="10.00">_const_accessor</text>
</a>
</g>
</g>
<!-- Node1&#45;&gt;Node5 -->
<g id="edge5_Node000001_Node000005" class="edge">
<title>Node1&#45;&gt;Node5</title>
<g id="a_edge5_Node000001_Node000005"><a xlink:title=" ">
<path fill="none" stroke="#63b8ff" d="M106.15,-174.68C128.34,-191.07 161.33,-213.55 193,-228 199.03,-230.75 205.44,-233.26 211.94,-235.53"/>
<polygon fill="#63b8ff" stroke="#63b8ff" points="210.88,-238.87 221.47,-238.69 213.08,-232.22 210.88,-238.87"/>
</a>
</g>
</g>
<!-- Node6 -->
<g id="Node000006" class="node">
<title>Node6</title>
<g id="a_Node000006"><a xlink:href="classwmtk_1_1_mesh.html#a6d2a546c8f661bf6386cf845a1693d2f" target="_top" xlink:title="Generate a vector of Tuples from global vertex/edge/triangle/tetrahedron index.">
<polygon fill="white" stroke="#666666" points="336,-200.5 220,-200.5 220,-181.5 336,-181.5 336,-200.5"/>
<text text-anchor="middle" x="278" y="-188.5" font-family="Helvetica,sans-Serif" font-size="10.00">wmtk::Mesh::get_all</text>
</a>
</g>
</g>
<!-- Node1&#45;&gt;Node6 -->
<g id="edge6_Node000001_Node000006" class="edge">
<title>Node1&#45;&gt;Node6</title>
<g id="a_edge6_Node000001_Node000006"><a xlink:title=" ">
<path fill="none" stroke="#63b8ff" d="M157.27,-168.57C176.76,-172.22 197.4,-176.09 215.95,-179.56"/>
<polygon fill="#63b8ff" stroke="#63b8ff" points="215.54,-183.05 226.01,-181.45 216.83,-176.17 215.54,-183.05"/>
</a>
</g>
</g>
<!-- Node7 -->
<g id="Node000007" class="node">
<title>Node7</title>
<g id="a_Node000007"><a xlink:href="namespacewmtk.html#a6a35f11c12436093d26fdd8be6fecc06" target="_top" xlink:title="Retrieves the current logger.">
<polygon fill="white" stroke="#666666" points="318.5,-163.5 237.5,-163.5 237.5,-144.5 318.5,-144.5 318.5,-163.5"/>
<text text-anchor="middle" x="278" y="-151.5" font-family="Helvetica,sans-Serif" font-size="10.00">wmtk::logger</text>
</a>
</g>
</g>
<!-- Node1&#45;&gt;Node7 -->
<g id="edge8_Node000001_Node000007" class="edge">
<title>Node1&#45;&gt;Node7</title>
<g id="a_edge8_Node000001_Node000007"><a xlink:title=" ">
<path fill="none" stroke="#63b8ff" d="M157.27,-154C180.84,-154 206.07,-154 227.27,-154"/>
<polygon fill="#63b8ff" stroke="#63b8ff" points="227.32,-157.5 237.32,-154 227.32,-150.5 227.32,-157.5"/>
</a>
</g>
</g>
<!-- Node9 -->
<g id="Node000009" class="node">
<title>Node9</title>
<g id="a_Node000009"><a xlink:href="namespacewmtk_1_1multimesh_1_1utils.html#a7d748ef4839b09a5460e8af97b9fa678" target="_top" xlink:title=" ">
<polygon fill="white" stroke="#666666" points="352.5,-126 203.5,-126 203.5,-96 352.5,-96 352.5,-126"/>
<text text-anchor="start" x="211.5" y="-114" font-family="Helvetica,sans-Serif" font-size="10.00">wmtk::multimesh::utils</text>
<text text-anchor="middle" x="278" y="-103" font-family="Helvetica,sans-Serif" font-size="10.00">::read_tuple_map_attribute</text>
</a>
</g>
</g>
<!-- Node1&#45;&gt;Node9 -->
<g id="edge10_Node000001_Node000009" class="edge">
<title>Node1&#45;&gt;Node9</title>
<g id="a_edge10_Node000001_Node000009"><a xlink:title=" ">
<path fill="none" stroke="#63b8ff" d="M157.27,-137.07C170.61,-134.16 184.47,-131.14 197.84,-128.23"/>
<polygon fill="#63b8ff" stroke="#63b8ff" points="198.93,-131.58 207.95,-126.03 197.44,-124.74 198.93,-131.58"/>
</a>
</g>
</g>
<!-- Node14 -->
<g id="Node000014" class="node">
<title>Node14</title>
<g id="a_Node000014"><a xlink:href="classwmtk_1_1_mesh.html#a933f681cf24a63b155c9462280385200" target="_top" xlink:title=" ">
<polygon fill="white" stroke="#666666" points="543,-30 422,-30 422,0 543,0 543,-30"/>
<text text-anchor="start" x="430" y="-18" font-family="Helvetica,sans-Serif" font-size="10.00">wmtk::Mesh::top_cell</text>
<text text-anchor="middle" x="482.5" y="-7" font-family="Helvetica,sans-Serif" font-size="10.00">_dimension</text>
</a>
</g>
</g>
<!-- Node1&#45;&gt;Node14 -->
<g id="edge15_Node000001_Node000014" class="edge">
<title>Node1&#45;&gt;Node14</title>
<g id="a_edge15_Node000001_Node000014"><a xlink:title=" ">
<path fill="none" stroke="#63b8ff" d="M109.09,-133.3C131.3,-118.59 162.93,-99.32 193,-87 232.23,-70.92 339.91,-45.83 412.04,-29.91"/>
<polygon fill="#63b8ff" stroke="#63b8ff" points="412.95,-33.3 421.97,-27.73 411.45,-26.46 412.95,-33.3"/>
</a>
</g>
</g>
<!-- Node15 -->
<g id="Node000015" class="node">
<title>Node15</title>
<g id="a_Node000015"><a xlink:href="classwmtk_1_1_mesh.html#abaf00438d0700358b160e310d69725c9" target="_top" xlink:title=" ">
<polygon fill="white" stroke="#666666" points="363,-28.5 193,-28.5 193,-9.5 363,-9.5 363,-28.5"/>
<text text-anchor="middle" x="278" y="-16.5" font-family="Helvetica,sans-Serif" font-size="10.00">wmtk::Mesh::top_simplex_type</text>
</a>
</g>
</g>
<!-- Node1&#45;&gt;Node15 -->
<g id="edge16_Node000001_Node000015" class="edge">
<title>Node1&#45;&gt;Node15</title>
<g id="a_edge16_Node000001_Node000015"><a xlink:title=" ">
<path fill="none" stroke="#63b8ff" d="M97.3,-133.46C118.2,-110.42 154.89,-73.24 193,-50 205.06,-42.65 219.13,-36.61 232.28,-31.88"/>
<polygon fill="#63b8ff" stroke="#63b8ff" points="233.77,-35.07 242.1,-28.52 231.51,-28.44 233.77,-35.07"/>
</a>
</g>
</g>
<!-- Node3 -->
<g id="Node000003" class="node">
<title>Node3</title>
<g id="a_Node000003"><a xlink:href="classwmtk_1_1multimesh_1_1_multi_mesh_manager.html#a812e0992812b2c48a889e10ae9e50758" target="_top" xlink:title=" ">
<polygon fill="white" stroke="#666666" points="562.5,-315 402.5,-315 402.5,-285 562.5,-285 562.5,-315"/>
<text text-anchor="start" x="410.5" y="-303" font-family="Helvetica,sans-Serif" font-size="10.00">wmtk::multimesh::MultiMesh</text>
<text text-anchor="middle" x="482.5" y="-292" font-family="Helvetica,sans-Serif" font-size="10.00">Manager::absolute_id</text>
</a>
</g>
</g>
<!-- Node2&#45;&gt;Node3 -->
<g id="edge2_Node000002_Node000003" class="edge">
<title>Node2&#45;&gt;Node3</title>
<g id="a_edge2_Node000002_Node000003"><a xlink:title=" ">
<path fill="none" stroke="#63b8ff" d="M340.58,-300C356.83,-300 374.69,-300 392.08,-300"/>
<polygon fill="#63b8ff" stroke="#63b8ff" points="392.25,-303.5 402.25,-300 392.25,-296.5 392.25,-303.5"/>
</a>
</g>
</g>
<!-- Node3&#45;&gt;Node3 -->
<g id="edge3_Node000003_Node000003" class="edge">
<title>Node3&#45;&gt;Node3</title>
<g id="a_edge3_Node000003_Node000003"><a xlink:title=" ">
<path fill="none" stroke="#63b8ff" d="M447.7,-315.28C439.96,-324.41 451.56,-333 482.5,-333 500.87,-333 512.42,-329.97 517.16,-325.6"/>
<polygon fill="#63b8ff" stroke="#63b8ff" points="520.66,-325.32 517.3,-315.28 513.66,-325.22 520.66,-325.32"/>
</a>
</g>
</g>
<!-- Node4 -->
<g id="Node000004" class="node">
<title>Node4</title>
<g id="a_Node000004"><a xlink:href="classwmtk_1_1multimesh_1_1_multi_mesh_manager.html#a7d39339adb56b1798fe817d81bfcc67c" target="_top" xlink:title="Specifies whether this structure is the root of a multi&#45;mesh tree.">
<polygon fill="white" stroke="#666666" points="762,-315 602,-315 602,-285 762,-285 762,-315"/>
<text text-anchor="start" x="610" y="-303" font-family="Helvetica,sans-Serif" font-size="10.00">wmtk::multimesh::MultiMesh</text>
<text text-anchor="middle" x="682" y="-292" font-family="Helvetica,sans-Serif" font-size="10.00">Manager::is_root</text>
</a>
</g>
</g>
<!-- Node3&#45;&gt;Node4 -->
<g id="edge4_Node000003_Node000004" class="edge">
<title>Node3&#45;&gt;Node4</title>
<g id="a_edge4_Node000003_Node000004"><a xlink:title=" ">
<path fill="none" stroke="#63b8ff" d="M562.69,-300C572.25,-300 582.06,-300 591.75,-300"/>
<polygon fill="#63b8ff" stroke="#63b8ff" points="591.79,-303.5 601.79,-300 591.79,-296.5 591.79,-303.5"/>
</a>
</g>
</g>
<!-- Node6&#45;&gt;Node6 -->
<g id="edge7_Node000006_Node000006" class="edge">
<title>Node6&#45;&gt;Node6</title>
<g id="a_edge7_Node000006_Node000006"><a xlink:title=" ">
<path fill="none" stroke="#63b8ff" d="M247.48,-200.58C232.64,-209.23 242.81,-218.5 278,-218.5 302.74,-218.5 315.12,-213.92 315.12,-208.19"/>
<polygon fill="#63b8ff" stroke="#63b8ff" points="317.72,-205.84 308.52,-200.58 312.43,-210.43 317.72,-205.84"/>
</a>
</g>
</g>
<!-- Node8 -->
<g id="Node000008" class="node">
<title>Node8</title>
<g id="a_Node000008"><a xlink:href="namespacewmtk.html#a3daa7951a5f8b78cf4600dc047fcc180" target="_top" xlink:title="Setup a logger object to be used by WildmeshToolkit.">
<polygon fill="white" stroke="#666666" points="533,-259.5 432,-259.5 432,-240.5 533,-240.5 533,-259.5"/>
<text text-anchor="middle" x="482.5" y="-247.5" font-family="Helvetica,sans-Serif" font-size="10.00">wmtk::set_logger</text>
</a>
</g>
</g>
<!-- Node7&#45;&gt;Node8 -->
<g id="edge9_Node000007_Node000008" class="edge">
<title>Node7&#45;&gt;Node8</title>
<g id="a_edge9_Node000007_Node000008"><a xlink:title=" ">
<path fill="none" stroke="#63b8ff" d="M318.85,-156.53C333.78,-159.06 350.21,-163.89 363,-173 387.71,-190.6 374.32,-213.35 399,-231 405.87,-235.92 413.82,-239.58 422.02,-242.31"/>
<polygon fill="#63b8ff" stroke="#63b8ff" points="421.12,-245.7 431.7,-245.11 423.06,-238.97 421.12,-245.7"/>
</a>
</g>
</g>
<!-- Node10 -->
<g id="Node000010" class="node">
<title>Node10</title>
<g id="a_Node000010"><a xlink:href="classwmtk_1_1attribute_1_1_accessor.html#abecebb154568864219abda80a1beb803" target="_top" xlink:title="Constant access function for a vector attribute.">
<polygon fill="white" stroke="#666666" points="553.5,-222 411.5,-222 411.5,-192 553.5,-192 553.5,-222"/>
<text text-anchor="start" x="419.5" y="-210" font-family="Helvetica,sans-Serif" font-size="10.00">wmtk::attribute::Accessor</text>
<text text-anchor="middle" x="482.5" y="-199" font-family="Helvetica,sans-Serif" font-size="10.00">::const_vector_attribute</text>
</a>
</g>
</g>
<!-- Node9&#45;&gt;Node10 -->
<g id="edge11_Node000009_Node000010" class="edge">
<title>Node9&#45;&gt;Node10</title>
<g id="a_edge11_Node000009_Node000010"><a xlink:title=" ">
<path fill="none" stroke="#63b8ff" d="M344.63,-126.04C351.11,-128.82 357.36,-132.12 363,-136 384.67,-150.93 377.29,-168.14 399,-183 401.29,-184.57 403.68,-186.03 406.14,-187.4"/>
<polygon fill="#63b8ff" stroke="#63b8ff" points="404.84,-190.66 415.35,-191.96 407.94,-184.38 404.84,-190.66"/>
</a>
</g>
</g>
<!-- Node11 -->
<g id="Node000011" class="node">
<title>Node11</title>
<g id="a_Node000011"><a xlink:href="classwmtk_1_1attribute_1_1_tuple_accessor.html#adf0b07ce3ed74d51723e2beed2d3f25e" target="_top" xlink:title=" ">
<polygon fill="white" stroke="#666666" points="566,-174 399,-174 399,-144 566,-144 566,-174"/>
<text text-anchor="start" x="407" y="-162" font-family="Helvetica,sans-Serif" font-size="10.00">wmtk::attribute::TupleAccessor</text>
<text text-anchor="middle" x="482.5" y="-151" font-family="Helvetica,sans-Serif" font-size="10.00">::const_vector_attribute</text>
</a>
</g>
</g>
<!-- Node9&#45;&gt;Node11 -->
<g id="edge12_Node000009_Node000011" class="edge">
<title>Node9&#45;&gt;Node11</title>
<g id="a_edge12_Node000009_Node000011"><a xlink:title=" ">
<path fill="none" stroke="#63b8ff" d="M342.52,-126.06C363.44,-131.01 386.87,-136.57 408.44,-141.68"/>
<polygon fill="#63b8ff" stroke="#63b8ff" points="407.67,-145.1 418.21,-144 409.29,-138.29 407.67,-145.1"/>
</a>
</g>
</g>
<!-- Node12 -->
<g id="Node000012" class="node">
<title>Node12</title>
<g id="a_Node000012"><a xlink:href="classwmtk_1_1attribute_1_1_tuple_accessor.html#a8d04c3529eb7adeead49e8faa7a119db" target="_top" xlink:title=" ">
<polygon fill="white" stroke="#666666" points="566,-126 399,-126 399,-96 566,-96 566,-126"/>
<text text-anchor="start" x="407" y="-114" font-family="Helvetica,sans-Serif" font-size="10.00">wmtk::attribute::TupleAccessor</text>
<text text-anchor="middle" x="482.5" y="-103" font-family="Helvetica,sans-Serif" font-size="10.00">::dimension</text>
</a>
</g>
</g>
<!-- Node9&#45;&gt;Node12 -->
<g id="edge13_Node000009_Node000012" class="edge">
<title>Node9&#45;&gt;Node12</title>
<g id="a_edge13_Node000009_Node000012"><a xlink:title=" ">
<path fill="none" stroke="#63b8ff" d="M352.68,-111C364.43,-111 376.72,-111 388.84,-111"/>
<polygon fill="#63b8ff" stroke="#63b8ff" points="388.97,-114.5 398.97,-111 388.97,-107.5 388.97,-114.5"/>
</a>
</g>
</g>
<!-- Node13 -->
<g id="Node000013" class="node">
<title>Node13</title>
<g id="a_Node000013"><a xlink:href="classwmtk_1_1attribute_1_1_accessor.html#ad1c53d7c161d4f046bedc27006a0256f" target="_top" xlink:title=" ">
<polygon fill="white" stroke="#666666" points="553.5,-78 411.5,-78 411.5,-48 553.5,-48 553.5,-78"/>
<text text-anchor="start" x="419.5" y="-66" font-family="Helvetica,sans-Serif" font-size="10.00">wmtk::attribute::Accessor</text>
<text text-anchor="middle" x="482.5" y="-55" font-family="Helvetica,sans-Serif" font-size="10.00">::dimension</text>
</a>
</g>
</g>
<!-- Node9&#45;&gt;Node13 -->
<g id="edge14_Node000009_Node000013" class="edge">
<title>Node9&#45;&gt;Node13</title>
<g id="a_edge14_Node000009_Node000013"><a xlink:title=" ">
<path fill="none" stroke="#63b8ff" d="M342.52,-95.94C363.44,-90.99 386.87,-85.43 408.44,-80.32"/>
<polygon fill="#63b8ff" stroke="#63b8ff" points="409.29,-83.71 418.21,-78 407.67,-76.9 409.29,-83.71"/>
</a>
</g>
</g>
<!-- Node15&#45;&gt;Node14 -->
<g id="edge17_Node000015_Node000014" class="edge">
<title>Node15&#45;&gt;Node14</title>
<g id="a_edge17_Node000015_Node000014"><a xlink:title=" ">
<path fill="none" stroke="#63b8ff" d="M363.12,-17.34C379.25,-17.02 395.99,-16.69 411.61,-16.38"/>
<polygon fill="#63b8ff" stroke="#63b8ff" points="411.77,-19.88 421.7,-16.18 411.64,-12.88 411.77,-19.88"/>
</a>
</g>
</g>
</g>
</svg>
