<?xml version="1.0" encoding="UTF-8" standalone="no"?>
<!DOCTYPE svg PUBLIC "-//W3C//DTD SVG 1.1//EN"
 "http://www.w3.org/Graphics/SVG/1.1/DTD/svg11.dtd">
<!-- Generated by graphviz version 2.43.0 (0)
 -->
<!-- Title: wmtk::attribute::CachingAccessor&lt; T, Dim &gt; Pages: 1 -->
<svg width="1022pt" height="523pt"
 viewBox="0.00 0.00 1022.00 522.50" xmlns="http://www.w3.org/2000/svg" xmlns:xlink="http://www.w3.org/1999/xlink">
<g id="graph0" class="graph" transform="scale(1 1) rotate(0) translate(4 518.5)">
<title>wmtk::attribute::CachingAccessor&lt; T, Dim &gt;</title>
<!-- Node1 -->
<g id="Node000001" class="node">
<title>Node1</title>
<g id="a_Node000001"><a xlink:title="An accessor for cached attribute values.">
<polygon fill="#999999" stroke="#666666" points="316,-241.5 179,-241.5 179,-211.5 316,-211.5 316,-241.5"/>
<text text-anchor="start" x="187" y="-229.5" font-family="Helvetica,sans-Serif" font-size="10.00">wmtk::attribute::Caching</text>
<text text-anchor="middle" x="247.5" y="-218.5" font-family="Helvetica,sans-Serif" font-size="10.00">Accessor&lt; T, Dim &gt;</text>
</a>
</g>
</g>
<!-- Node3 -->
<g id="Node000003" class="node">
<title>Node3</title>
<g id="a_Node000003"><a xlink:href="classwmtk_1_1attribute_1_1_accessor.html" target="_top" xlink:title=" ">
<polygon fill="white" stroke="#666666" points="1003.5,-373.5 861.5,-373.5 861.5,-343.5 1003.5,-343.5 1003.5,-373.5"/>
<text text-anchor="start" x="869.5" y="-361.5" font-family="Helvetica,sans-Serif" font-size="10.00">wmtk::attribute::Accessor</text>
<text text-anchor="middle" x="932.5" y="-350.5" font-family="Helvetica,sans-Serif" font-size="10.00">&lt; char, wmtk::Mesh, 1 &gt;</text>
</a>
</g>
</g>
<!-- Node1&#45;&gt;Node3 -->
<g id="edge2_Node000001_Node000003" class="edge">
<title>Node1&#45;&gt;Node3</title>
<g id="a_edge2_Node000001_Node000003"><a xlink:title=" ">
<path fill="none" stroke="darkgreen" d="M271.01,-248.46C287.33,-263.31 310.56,-282.35 334,-294.5 477.48,-368.85 523.03,-373.6 683,-396.5 748.99,-405.95 767.46,-408.7 833,-396.5 856.61,-392.1 881.84,-382.26 900.87,-373.69"/>
<polygon fill="darkgreen" stroke="darkgreen" points="273.29,-245.8 263.58,-241.55 268.52,-250.93 273.29,-245.8"/>
</a>
</g>
</g>
<!-- Node4 -->
<g id="Node000004" class="node">
<title>Node4</title>
<g id="a_Node000004"><a xlink:href="classwmtk_1_1attribute_1_1_accessor.html" target="_top" xlink:title=" ">
<polygon fill="white" stroke="#666666" points="1014,-451.5 851,-451.5 851,-421.5 1014,-421.5 1014,-451.5"/>
<text text-anchor="start" x="859" y="-439.5" font-family="Helvetica,sans-Serif" font-size="10.00">wmtk::attribute::Accessor</text>
<text text-anchor="middle" x="932.5" y="-428.5" font-family="Helvetica,sans-Serif" font-size="10.00">&lt; int64_t, wmtk::EdgeMesh &gt;</text>
</a>
</g>
</g>
<!-- Node1&#45;&gt;Node4 -->
<g id="edge3_Node000001_Node000004" class="edge">
<title>Node1&#45;&gt;Node4</title>
<g id="a_edge3_Node000001_Node000004"><a xlink:title=" ">
<path fill="none" stroke="darkgreen" d="M261.27,-250.84C275.73,-276.16 301.54,-315.27 334,-338.5 467.04,-433.7 521.54,-429.16 683,-455.5 748.8,-466.24 766.64,-461.84 833,-455.5 842.62,-454.58 852.7,-453.17 862.59,-451.52"/>
<polygon fill="darkgreen" stroke="darkgreen" points="264.21,-248.92 256.3,-241.88 258.09,-252.32 264.21,-248.92"/>
</a>
</g>
</g>
<!-- Node5 -->
<g id="Node000005" class="node">
<title>Node5</title>
<g id="a_Node000005"><a xlink:href="classwmtk_1_1attribute_1_1_accessor.html" target="_top" xlink:title=" ">
<polygon fill="white" stroke="#666666" points="1009,-514.5 856,-514.5 856,-484.5 1009,-484.5 1009,-514.5"/>
<text text-anchor="start" x="864" y="-502.5" font-family="Helvetica,sans-Serif" font-size="10.00">wmtk::attribute::Accessor</text>
<text text-anchor="middle" x="932.5" y="-491.5" font-family="Helvetica,sans-Serif" font-size="10.00">&lt; int64_t, wmtk::TetMesh &gt;</text>
</a>
</g>
</g>
<!-- Node1&#45;&gt;Node5 -->
<g id="edge4_Node000001_Node000005" class="edge">
<title>Node1&#45;&gt;Node5</title>
<g id="a_edge4_Node000001_Node000005"><a xlink:title=" ">
<path fill="none" stroke="darkgreen" d="M255.32,-251.57C266.22,-287.19 290.89,-352.34 334,-390.5 481.26,-520.83 731.07,-519.12 855.86,-508.58"/>
<polygon fill="darkgreen" stroke="darkgreen" points="258.66,-250.54 252.48,-241.94 251.95,-252.52 258.66,-250.54"/>
</a>
</g>
</g>
<!-- Node6 -->
<g id="Node000006" class="node">
<title>Node6</title>
<g id="a_Node000006"><a xlink:href="classwmtk_1_1attribute_1_1_accessor.html" target="_top" xlink:title=" ">
<polygon fill="white" stroke="#666666" points="1007.5,-320.5 857.5,-320.5 857.5,-290.5 1007.5,-290.5 1007.5,-320.5"/>
<text text-anchor="start" x="865.5" y="-308.5" font-family="Helvetica,sans-Serif" font-size="10.00">wmtk::attribute::Accessor</text>
<text text-anchor="middle" x="932.5" y="-297.5" font-family="Helvetica,sans-Serif" font-size="10.00">&lt; int64_t, wmtk::TriMesh &gt;</text>
</a>
</g>
</g>
<!-- Node1&#45;&gt;Node6 -->
<g id="edge5_Node000001_Node000006" class="edge">
<title>Node1&#45;&gt;Node6</title>
<g id="a_edge5_Node000001_Node000006"><a xlink:title=" ">
<path fill="none" stroke="darkgreen" d="M326.6,-222.78C439.94,-219.3 655.85,-220.01 833,-263.5 841.5,-265.59 842.97,-268.02 851,-271.5 865.48,-277.77 881.48,-284.56 895.37,-290.41"/>
<polygon fill="darkgreen" stroke="darkgreen" points="326.17,-219.29 316.28,-223.11 326.39,-226.28 326.17,-219.29"/>
</a>
</g>
</g>
<!-- Node7 -->
<g id="Node000007" class="node">
<title>Node7</title>
<g id="a_Node000007"><a xlink:href="classwmtk_1_1attribute_1_1_accessor.html" target="_top" xlink:title=" ">
<polygon fill="white" stroke="#666666" points="1003.5,-262.5 861.5,-262.5 861.5,-232.5 1003.5,-232.5 1003.5,-262.5"/>
<text text-anchor="start" x="869.5" y="-250.5" font-family="Helvetica,sans-Serif" font-size="10.00">wmtk::attribute::Accessor</text>
<text text-anchor="middle" x="932.5" y="-239.5" font-family="Helvetica,sans-Serif" font-size="10.00">&lt; int64_t, MeshType &gt;</text>
</a>
</g>
</g>
<!-- Node1&#45;&gt;Node7 -->
<g id="edge6_Node000001_Node000007" class="edge">
<title>Node1&#45;&gt;Node7</title>
<g id="a_edge6_Node000001_Node000007"><a xlink:title=" ">
<path fill="none" stroke="darkgreen" d="M325.94,-211.83C438.8,-193.08 654.49,-167.23 833,-204.5 858.57,-209.84 885.63,-222.2 904.91,-232.3"/>
<polygon fill="darkgreen" stroke="darkgreen" points="325.28,-208.39 316,-213.5 326.45,-215.29 325.28,-208.39"/>
</a>
</g>
</g>
<!-- Node8 -->
<g id="Node000008" class="node">
<title>Node8</title>
<g id="a_Node000008"><a xlink:href="classwmtk_1_1attribute_1_1_accessor.html" target="_top" xlink:title=" ">
<polygon fill="white" stroke="#666666" points="1003.5,-194.5 861.5,-194.5 861.5,-164.5 1003.5,-164.5 1003.5,-194.5"/>
<text text-anchor="start" x="869.5" y="-182.5" font-family="Helvetica,sans-Serif" font-size="10.00">wmtk::attribute::Accessor</text>
<text text-anchor="middle" x="932.5" y="-171.5" font-family="Helvetica,sans-Serif" font-size="10.00">&lt; int64_t &gt;</text>
</a>
</g>
</g>
<!-- Node1&#45;&gt;Node8 -->
<g id="edge7_Node000001_Node000008" class="edge">
<title>Node1&#45;&gt;Node8</title>
<g id="a_edge7_Node000001_Node000008"><a xlink:title=" ">
<path fill="none" stroke="darkgreen" d="M285.37,-207.04C300.09,-200.22 317.45,-193.31 334,-189.5 520.54,-146.6 748.55,-160.34 861.36,-171.36"/>
<polygon fill="darkgreen" stroke="darkgreen" points="283.62,-204 276.12,-211.48 286.65,-210.31 283.62,-204"/>
</a>
</g>
</g>
<!-- Node9 -->
<g id="Node000009" class="node">
<title>Node9</title>
<g id="a_Node000009"><a xlink:href="classwmtk_1_1attribute_1_1_accessor.html" target="_top" xlink:title="A CachingAccessor that uses tuples for accessing attributes instead of indices.">
<polygon fill="white" stroke="#666666" points="650.5,-331.5 508.5,-331.5 508.5,-301.5 650.5,-301.5 650.5,-331.5"/>
<text text-anchor="start" x="516.5" y="-319.5" font-family="Helvetica,sans-Serif" font-size="10.00">wmtk::attribute::Accessor</text>
<text text-anchor="middle" x="579.5" y="-308.5" font-family="Helvetica,sans-Serif" font-size="10.00">&lt; T, MeshType, Dim &gt;</text>
</a>
</g>
</g>
<!-- Node1&#45;&gt;Node9 -->
<g id="edge8_Node000001_Node000009" class="edge">
<title>Node1&#45;&gt;Node9</title>
<g id="a_edge8_Node000001_Node000009"><a xlink:title=" ">
<path fill="none" stroke="darkgreen" d="M288.62,-245.78C302.74,-252.05 318.86,-258.63 334,-263.5 391.58,-282 458.86,-296.06 508.25,-305.03"/>
<polygon fill="darkgreen" stroke="darkgreen" points="289.76,-242.46 279.21,-241.52 286.88,-248.83 289.76,-242.46"/>
</a>
</g>
</g>
<!-- Node10 -->
<g id="Node000010" class="node">
<title>Node10</title>
<g id="a_Node000010"><a xlink:href="classwmtk_1_1attribute_1_1_caching_accessor.html" target="_top" xlink:title=" ">
<polygon fill="white" stroke="#666666" points="665,-137.5 494,-137.5 494,-107.5 665,-107.5 665,-137.5"/>
<text text-anchor="start" x="502" y="-125.5" font-family="Helvetica,sans-Serif" font-size="10.00">wmtk::attribute::Caching</text>
<text text-anchor="middle" x="579.5" y="-114.5" font-family="Helvetica,sans-Serif" font-size="10.00">Accessor&lt; T, Eigen::Dynamic &gt;</text>
</a>
</g>
</g>
<!-- Node1&#45;&gt;Node10 -->
<g id="edge15_Node000001_Node000010" class="edge">
<title>Node1&#45;&gt;Node10</title>
<g id="a_edge15_Node000001_Node000010"><a xlink:title=" ">
<path fill="none" stroke="orange" stroke-dasharray="5,2" d="M264.12,-203.22C279.3,-182.74 304.37,-154.12 334,-140.5 383.69,-117.66 445.1,-113.21 493.95,-114.45"/>
<polygon fill="orange" stroke="orange" points="261.21,-201.27 258.23,-211.43 266.9,-205.34 261.21,-201.27"/>
</a>
</g>
<text text-anchor="middle" x="405" y="-143.5" font-family="Helvetica,sans-Serif" font-size="10.00" fill="grey"> &lt; T, Eigen::Dynamic &gt;</text>
</g>
<!-- Node11 -->
<g id="Node000011" class="node">
<title>Node11</title>
<g id="a_Node000011"><a xlink:href="classwmtk_1_1attribute_1_1_caching_accessor.html" target="_top" xlink:title=" ">
<polygon fill="white" stroke="#666666" points="648,-89.5 511,-89.5 511,-59.5 648,-59.5 648,-89.5"/>
<text text-anchor="start" x="519" y="-77.5" font-family="Helvetica,sans-Serif" font-size="10.00">wmtk::attribute::Caching</text>
<text text-anchor="middle" x="579.5" y="-66.5" font-family="Helvetica,sans-Serif" font-size="10.00">Accessor&lt; char, Dim &gt;</text>
</a>
</g>
</g>
<!-- Node1&#45;&gt;Node11 -->
<g id="edge16_Node000001_Node000011" class="edge">
<title>Node1&#45;&gt;Node11</title>
<g id="a_edge16_Node000001_Node000011"><a xlink:title=" ">
<path fill="none" stroke="orange" stroke-dasharray="5,2" d="M257.5,-201.84C269.79,-172.03 294.88,-122.95 334,-99.5 387.25,-67.58 458.95,-63.87 510.93,-66.61"/>
<polygon fill="orange" stroke="orange" points="254.24,-200.56 253.82,-211.14 260.75,-203.13 254.24,-200.56"/>
</a>
</g>
<text text-anchor="middle" x="405" y="-102.5" font-family="Helvetica,sans-Serif" font-size="10.00" fill="grey"> &lt; char, Dim &gt;</text>
</g>
<!-- Node12 -->
<g id="Node000012" class="node">
<title>Node12</title>
<g id="a_Node000012"><a xlink:href="classwmtk_1_1attribute_1_1_caching_accessor.html" target="_top" xlink:title=" ">
<polygon fill="white" stroke="#666666" points="648.5,-41 510.5,-41 510.5,0 648.5,0 648.5,-41"/>
<text text-anchor="start" x="518.5" y="-29" font-family="Helvetica,sans-Serif" font-size="10.00">wmtk::attribute::Caching</text>
<text text-anchor="start" x="518.5" y="-18" font-family="Helvetica,sans-Serif" font-size="10.00">Accessor&lt; int64_t, Eigen</text>
<text text-anchor="middle" x="579.5" y="-7" font-family="Helvetica,sans-Serif" font-size="10.00">::Dynamic &gt;</text>
</a>
</g>
</g>
<!-- Node1&#45;&gt;Node12 -->
<g id="edge17_Node000001_Node000012" class="edge">
<title>Node1&#45;&gt;Node12</title>
<g id="a_edge17_Node000001_Node000012"><a xlink:title=" ">
<path fill="none" stroke="orange" stroke-dasharray="5,2" d="M252.95,-201.47C261.33,-162.42 283.36,-87.75 334,-51.5 384.89,-15.08 457.43,-10.15 510.28,-12.63"/>
<polygon fill="orange" stroke="orange" points="249.48,-200.98 250.94,-211.47 256.34,-202.36 249.48,-200.98"/>
</a>
</g>
<text text-anchor="middle" x="405" y="-54.5" font-family="Helvetica,sans-Serif" font-size="10.00" fill="grey"> &lt; int64_t, Eigen::Dynamic &gt;</text>
</g>
<!-- Node2 -->
<g id="Node000002" class="node">
<title>Node2</title>
<g id="a_Node000002"><a xlink:href="classwmtk_1_1attribute_1_1_accessor_base.html" target="_top" xlink:title=" ">
<polygon fill="white" stroke="#666666" points="142,-241.5 0,-241.5 0,-211.5 142,-211.5 142,-241.5"/>
<text text-anchor="start" x="8" y="-229.5" font-family="Helvetica,sans-Serif" font-size="10.00">wmtk::attribute::Accessor</text>
<text text-anchor="middle" x="71" y="-218.5" font-family="Helvetica,sans-Serif" font-size="10.00">Base&lt; _T, Dim &gt;</text>
</a>
</g>
</g>
<!-- Node2&#45;&gt;Node1 -->
<g id="edge1_Node000001_Node000002" class="edge">
<title>Node2&#45;&gt;Node1</title>
<g id="a_edge1_Node000001_Node000002"><a xlink:title=" ">
<path fill="none" stroke="#63b8ff" d="M152.25,-226.5C161.18,-226.5 170.22,-226.5 178.97,-226.5"/>
<polygon fill="#63b8ff" stroke="#63b8ff" points="152.22,-223 142.22,-226.5 152.22,-230 152.22,-223"/>
</a>
</g>
</g>
<!-- Node9&#45;&gt;Node3 -->
<g id="edge9_Node000009_Node000003" class="edge">
<title>Node9&#45;&gt;Node3</title>
<g id="a_edge9_Node000009_Node000003"><a xlink:title=" ">
<path fill="none" stroke="orange" stroke-dasharray="5,2" d="M660.96,-326.13C721.49,-333.37 803.6,-343.2 861.44,-350.12"/>
<polygon fill="orange" stroke="orange" points="661.03,-322.61 650.69,-324.9 660.2,-329.56 661.03,-322.61"/>
</a>
</g>
<text text-anchor="middle" x="758" y="-348.5" font-family="Helvetica,sans-Serif" font-size="10.00" fill="grey"> &lt; char, wmtk::Mesh, 1 &gt;</text>
</g>
<!-- Node9&#45;&gt;Node4 -->
<g id="edge10_Node000009_Node000004" class="edge">
<title>Node9&#45;&gt;Node4</title>
<g id="a_edge10_Node000009_Node000004"><a xlink:title=" ">
<path fill="none" stroke="orange" stroke-dasharray="5,2" d="M622.62,-335.81C640.98,-343.9 662.87,-353.13 683,-360.5 748.45,-384.48 825.41,-407.19 876.15,-421.44"/>
<polygon fill="orange" stroke="orange" points="623.93,-332.56 613.37,-331.69 621.08,-338.95 623.93,-332.56"/>
</a>
</g>
<text text-anchor="middle" x="758" y="-410.5" font-family="Helvetica,sans-Serif" font-size="10.00" fill="grey"> &lt; int64_t, wmtk::EdgeMesh &gt;</text>
</g>
<!-- Node9&#45;&gt;Node5 -->
<g id="edge11_Node000009_Node000005" class="edge">
<title>Node9&#45;&gt;Node5</title>
<g id="a_edge11_Node000009_Node000005"><a xlink:title=" ">
<path fill="none" stroke="orange" stroke-dasharray="5,2" d="M597.55,-339.8C616.09,-363.55 647.81,-399.89 683,-421.5 736.27,-454.22 804.48,-474.35 855.95,-485.94"/>
<polygon fill="orange" stroke="orange" points="600.19,-337.48 591.34,-331.67 594.63,-341.74 600.19,-337.48"/>
</a>
</g>
<text text-anchor="middle" x="758" y="-482.5" font-family="Helvetica,sans-Serif" font-size="10.00" fill="grey"> &lt; int64_t, wmtk::TetMesh &gt;</text>
</g>
<!-- Node9&#45;&gt;Node6 -->
<g id="edge12_Node000009_Node000006" class="edge">
<title>Node9&#45;&gt;Node6</title>
<g id="a_edge12_Node000009_Node000006"><a xlink:title=" ">
<path fill="none" stroke="orange" stroke-dasharray="5,2" d="M660.72,-313.99C719.81,-312.13 799.56,-309.63 857.19,-307.83"/>
<polygon fill="orange" stroke="orange" points="660.57,-310.49 650.69,-314.3 660.79,-317.49 660.57,-310.49"/>
</a>
</g>
<text text-anchor="middle" x="758" y="-315.5" font-family="Helvetica,sans-Serif" font-size="10.00" fill="grey"> &lt; int64_t, wmtk::TriMesh &gt;</text>
</g>
<!-- Node9&#45;&gt;Node7 -->
<g id="edge13_Node000009_Node000007" class="edge">
<title>Node9&#45;&gt;Node7</title>
<g id="a_edge13_Node000009_Node000007"><a xlink:title=" ">
<path fill="none" stroke="orange" stroke-dasharray="5,2" d="M655.68,-299.29C664.87,-297.29 674.14,-295.31 683,-293.5 743.07,-281.21 811.61,-268.63 861.47,-259.74"/>
<polygon fill="orange" stroke="orange" points="654.78,-295.9 645.76,-301.47 656.28,-302.74 654.78,-295.9"/>
</a>
</g>
<text text-anchor="middle" x="758" y="-296.5" font-family="Helvetica,sans-Serif" font-size="10.00" fill="grey"> &lt; int64_t, MeshType &gt;</text>
</g>
<!-- Node9&#45;&gt;Node8 -->
<g id="edge14_Node000009_Node000008" class="edge">
<title>Node9&#45;&gt;Node8</title>
<g id="a_edge14_Node000009_Node000008"><a xlink:title=" ">
<path fill="none" stroke="orange" stroke-dasharray="5,2" d="M608.14,-295.09C628.04,-280.53 656.03,-261.76 683,-249.5 740.73,-223.25 810.57,-204.63 861.48,-193.23"/>
<polygon fill="orange" stroke="orange" points="605.81,-292.47 599.87,-301.24 609.98,-298.08 605.81,-292.47"/>
</a>
</g>
<text text-anchor="middle" x="758" y="-252.5" font-family="Helvetica,sans-Serif" font-size="10.00" fill="grey"> &lt; int64_t &gt;</text>
</g>
</g>
</svg>
