<?xml version="1.0" encoding="UTF-8" standalone="no"?>
<!DOCTYPE svg PUBLIC "-//W3C//DTD SVG 1.1//EN"
 "http://www.w3.org/Graphics/SVG/1.1/DTD/svg11.dtd">
<!-- Generated by graphviz version 2.43.0 (0)
 -->
<!-- Title: wmtk::EdgeMesh::vertex_tuple_from_id Pages: 1 -->
<!--zoomable 269 -->
<svg id="main" version="1.1" xmlns="http://www.w3.org/2000/svg" xmlns:xlink="http://www.w3.org/1999/xlink" xml:space="preserve" onload="init(evt)">
<style type="text/css"><![CDATA[
.edge:hover path { stroke: red; }
.edge:hover polygon { stroke: red; fill: red; }
]]></style>
<script type="text/javascript"><![CDATA[
var edges = document.getElementsByTagName('g');
if (edges && edges.length) {
  for (var i=0;i<edges.length;i++) {
    if (edges[i].id.substr(0,4)=='edge') {
      edges[i].setAttribute('class','edge');
    }
  }
}
]]></script>
        <defs>
                <circle id="rim" cx="0" cy="0" r="7"/>
                <circle id="rim2" cx="0" cy="0" r="3.5"/>
                <g id="zoomPlus">
                        <use xlink:href="#rim" fill="#404040">
                                <set attributeName="fill" to="#808080" begin="zoomplus.mouseover" end="zoomplus.mouseout"/>
                        </use>
                        <path d="M-4,0h8M0,-4v8" fill="none" stroke="white" stroke-width="1.5" pointer-events="none"/>
                </g>
                <g id="zoomMin">
                        <use xlink:href="#rim" fill="#404040">
                                <set attributeName="fill" to="#808080" begin="zoomminus.mouseover" end="zoomminus.mouseout"/>
                        </use>
                        <path d="M-4,0h8" fill="none" stroke="white" stroke-width="1.5" pointer-events="none"/>
                </g>
                <g id="dirArrow">
                        <path fill="none" stroke="white" stroke-width="1.5" d="M0,-3.0v7 M-2.5,-0.5L0,-3.0L2.5,-0.5"/>
                </g>
               <g id="resetDef">
                       <use xlink:href="#rim2" fill="#404040">
                               <set attributeName="fill" to="#808080" begin="reset.mouseover" end="reset.mouseout"/>
                       </use>
               </g>
        </defs>

<script type="text/javascript">
var viewWidth = 860;
var viewHeight = 269;
var sectionId = 'dynsection-30';
</script>
<script xlink:href="svgpan.js"/>
<svg id="graph" class="graph">
<g id="viewport">
<title>wmtk::EdgeMesh::vertex_tuple_from_id</title>
<!-- Node1 -->
<g id="node1" class="node">
<title>Node1</title>
<g id="a_node1"><a xlink:title=" ">
<polygon fill="#bfbfbf" stroke="black" points="0,-98.5 0,-128.5 138,-128.5 138,-98.5 0,-98.5"/>
<text text-anchor="start" x="8" y="-116.5" font-family="Helvetica,sans-Serif" font-size="10.00">wmtk::EdgeMesh::vertex</text>
<text text-anchor="middle" x="69" y="-105.5" font-family="Helvetica,sans-Serif" font-size="10.00">_tuple_from_id</text>
</a>
</g>
</g>
<!-- Node2 -->
<g id="node2" class="node">
<title>Node2</title>
<g id="a_node2"><a xlink:href="classwmtk_1_1attribute_1_1_caching_accessor.html#a196b6b32e2495b971113d552be7f45d9" target="_top" xlink:title=" ">
<polygon fill="none" stroke="black" points="534.5,-219 534.5,-260 671.5,-260 671.5,-219 534.5,-219"/>
<text text-anchor="start" x="542.5" y="-248" font-family="Helvetica,sans-Serif" font-size="10.00">wmtk::attribute::Caching</text>
<text text-anchor="start" x="542.5" y="-237" font-family="Helvetica,sans-Serif" font-size="10.00">Accessor::const_scalar</text>
<text text-anchor="middle" x="603" y="-226" font-family="Helvetica,sans-Serif" font-size="10.00">_attribute</text>
</a>
</g>
</g>
<!-- Node1&#45;&gt;Node2 -->
<g id="edge1" class="edge">
<title>Node1&#45;&gt;Node2</title>
<path fill="none" stroke="midnightblue" d="M88.33,-128.74C108.21,-144.51 141.48,-168.71 174,-182.5 289.01,-231.26 435.66,-240.69 524.02,-241.34"/>
<polygon fill="midnightblue" stroke="midnightblue" points="524.22,-244.84 534.23,-241.37 524.24,-237.84 524.22,-244.84"/>
</g>
<!-- Node3 -->
<g id="node3" class="node">
<title>Node3</title>
<g id="a_node3"><a xlink:href="classwmtk_1_1attribute_1_1_caching_accessor.html#ab7a79d239fdc3d22fbc0c3a83a5c50bc" target="_top" xlink:title=" ">
<polygon fill="none" stroke="black" points="174,-44 174,-85 311,-85 311,-44 174,-44"/>
<text text-anchor="start" x="182" y="-73" font-family="Helvetica,sans-Serif" font-size="10.00">wmtk::attribute::Caching</text>
<text text-anchor="start" x="182" y="-62" font-family="Helvetica,sans-Serif" font-size="10.00">Accessor::const_vector</text>
<text text-anchor="middle" x="242.5" y="-51" font-family="Helvetica,sans-Serif" font-size="10.00">_attribute</text>
</a>
</g>
</g>
<!-- Node1&#45;&gt;Node3 -->
<g id="edge2" class="edge">
<title>Node1&#45;&gt;Node3</title>
<path fill="none" stroke="midnightblue" d="M122.86,-98.4C135.97,-94.65 150.29,-90.56 164.31,-86.55"/>
<polygon fill="midnightblue" stroke="midnightblue" points="165.29,-89.91 173.95,-83.8 163.37,-83.18 165.29,-89.91"/>
</g>
<!-- Node4 -->
<g id="node4" class="node">
<title>Node4</title>
<g id="a_node4"><a xlink:href="classwmtk_1_1_mesh.html#a40a0509744659785607c0574d561bcc2" target="_top" xlink:title=" ">
<polygon fill="none" stroke="black" points="182,-142.5 182,-172.5 303,-172.5 303,-142.5 182,-142.5"/>
<text text-anchor="start" x="190" y="-160.5" font-family="Helvetica,sans-Serif" font-size="10.00">wmtk::Mesh::get_cell</text>
<text text-anchor="middle" x="242.5" y="-149.5" font-family="Helvetica,sans-Serif" font-size="10.00">_hash_slow</text>
</a>
</g>
</g>
<!-- Node1&#45;&gt;Node4 -->
<g id="edge3" class="edge">
<title>Node1&#45;&gt;Node4</title>
<path fill="none" stroke="midnightblue" d="M128.54,-128.52C142.81,-132.18 158.2,-136.13 172.89,-139.9"/>
<polygon fill="midnightblue" stroke="midnightblue" points="172.38,-143.38 182.93,-142.47 174.12,-136.6 172.38,-143.38"/>
</g>
<!-- Node6 -->
<g id="node6" class="node">
<title>Node6</title>
<g id="a_node6"><a xlink:href="classwmtk_1_1attribute_1_1_accessor.html#a41f40a73a13789707c117bda177dfc83" target="_top" xlink:title=" ">
<polygon fill="none" stroke="black" points="532,-109.5 532,-139.5 674,-139.5 674,-109.5 532,-109.5"/>
<text text-anchor="start" x="540" y="-127.5" font-family="Helvetica,sans-Serif" font-size="10.00">wmtk::attribute::Accessor</text>
<text text-anchor="middle" x="603" y="-116.5" font-family="Helvetica,sans-Serif" font-size="10.00">::index_access</text>
</a>
</g>
</g>
<!-- Node1&#45;&gt;Node6 -->
<g id="edge13" class="edge">
<title>Node1&#45;&gt;Node6</title>
<path fill="none" stroke="midnightblue" d="M138.19,-114.91C236.28,-116.94 416.87,-120.67 521.42,-122.83"/>
<polygon fill="midnightblue" stroke="midnightblue" points="521.54,-126.34 531.61,-123.04 521.68,-119.34 521.54,-126.34"/>
</g>
<!-- Node11 -->
<g id="node11" class="node">
<title>Node11</title>
<g id="a_node11"><a xlink:href="classwmtk_1_1_edge_mesh.html#a34530ca80c07ae67ffe601c2b8f22e3e" target="_top" xlink:title=" ">
<polygon fill="none" stroke="black" points="184.5,-6 184.5,-25 300.5,-25 300.5,-6 184.5,-6"/>
<text text-anchor="middle" x="242.5" y="-13" font-family="Helvetica,sans-Serif" font-size="10.00">wmtk::EdgeMesh::id</text>
</a>
</g>
</g>
<!-- Node1&#45;&gt;Node11 -->
<g id="edge11" class="edge">
<title>Node1&#45;&gt;Node11</title>
<path fill="none" stroke="midnightblue" d="M85.99,-98.25C105.36,-80.54 139.7,-51.58 174,-34.5 178.58,-32.22 183.48,-30.17 188.47,-28.35"/>
<polygon fill="midnightblue" stroke="midnightblue" points="189.74,-31.61 198.1,-25.11 187.51,-24.98 189.74,-31.61"/>
</g>
<!-- Node5 -->
<g id="node5" class="node">
<title>Node5</title>
<g id="a_node5"><a xlink:href="classwmtk_1_1_mesh.html#a4bcf7281ec7f3bdfd506ffc87fc092d3" target="_top" xlink:title=" ">
<polygon fill="none" stroke="black" points="347,-142 347,-161 496,-161 496,-142 347,-142"/>
<text text-anchor="middle" x="421.5" y="-149" font-family="Helvetica,sans-Serif" font-size="10.00">wmtk::Mesh::get_cell_hash</text>
</a>
</g>
</g>
<!-- Node4&#45;&gt;Node5 -->
<g id="edge4" class="edge">
<title>Node4&#45;&gt;Node5</title>
<path fill="none" stroke="midnightblue" d="M303.42,-155.47C314.1,-155.11 325.39,-154.72 336.59,-154.34"/>
<polygon fill="midnightblue" stroke="midnightblue" points="336.95,-157.83 346.82,-154 336.71,-150.84 336.95,-157.83"/>
</g>
<!-- Node8 -->
<g id="node8" class="node">
<title>Node8</title>
<g id="a_node8"><a xlink:href="classwmtk_1_1_mesh.html#a2435c4340422557f5e61dfbad2d0bee8" target="_top" xlink:title=" ">
<polygon fill="none" stroke="black" points="361,-180.5 361,-210.5 482,-210.5 482,-180.5 361,-180.5"/>
<text text-anchor="start" x="369" y="-198.5" font-family="Helvetica,sans-Serif" font-size="10.00">wmtk::Mesh::get_cell</text>
<text text-anchor="middle" x="421.5" y="-187.5" font-family="Helvetica,sans-Serif" font-size="10.00">_hash_accessor</text>
</a>
</g>
</g>
<!-- Node4&#45;&gt;Node8 -->
<g id="edge8" class="edge">
<title>Node4&#45;&gt;Node8</title>
<path fill="none" stroke="midnightblue" d="M303.42,-170.37C318.64,-173.63 335.13,-177.17 350.79,-180.53"/>
<polygon fill="midnightblue" stroke="midnightblue" points="350.43,-184.04 360.94,-182.71 351.9,-177.19 350.43,-184.04"/>
</g>
<!-- Node5&#45;&gt;Node2 -->
<g id="edge5" class="edge">
<title>Node5&#45;&gt;Node2</title>
<path fill="none" stroke="midnightblue" d="M472.26,-161.04C480.51,-163.73 488.74,-167.16 496,-171.5 515.97,-183.44 512.91,-196.2 532,-209.5 534.14,-210.99 536.36,-212.43 538.64,-213.81"/>
<polygon fill="midnightblue" stroke="midnightblue" points="537.24,-217.04 547.68,-218.89 540.67,-210.94 537.24,-217.04"/>
</g>
<!-- Node5&#45;&gt;Node6 -->
<g id="edge6" class="edge">
<title>Node5&#45;&gt;Node6</title>
<path fill="none" stroke="midnightblue" d="M485.78,-141.98C497.46,-140.23 509.78,-138.37 521.87,-136.55"/>
<polygon fill="midnightblue" stroke="midnightblue" points="522.59,-139.98 531.95,-135.04 521.54,-133.06 522.59,-139.98"/>
</g>
<!-- Node7 -->
<g id="node7" class="node">
<title>Node7</title>
<g id="a_node7"><a xlink:href="classwmtk_1_1attribute_1_1_accessor.html#a9c7d323f50911892c8ea738f97d041d4" target="_top" xlink:title=" ">
<polygon fill="none" stroke="black" points="710,-109.5 710,-139.5 852,-139.5 852,-109.5 710,-109.5"/>
<text text-anchor="start" x="718" y="-127.5" font-family="Helvetica,sans-Serif" font-size="10.00">wmtk::attribute::Accessor</text>
<text text-anchor="middle" x="781" y="-116.5" font-family="Helvetica,sans-Serif" font-size="10.00">::caching_base_type</text>
</a>
</g>
</g>
<!-- Node6&#45;&gt;Node7 -->
<g id="edge7" class="edge">
<title>Node6&#45;&gt;Node7</title>
<path fill="none" stroke="midnightblue" d="M674.07,-124.5C682.54,-124.5 691.25,-124.5 699.85,-124.5"/>
<polygon fill="midnightblue" stroke="midnightblue" points="699.89,-128 709.89,-124.5 699.89,-121 699.89,-128"/>
</g>
<!-- Node9 -->
<g id="node9" class="node">
<title>Node9</title>
<g id="a_node9"><a xlink:href="classwmtk_1_1_mesh.html#adf199d6a3ce6badd8bfa0e2ab3a1c1aa" target="_top" xlink:title=" ">
<polygon fill="none" stroke="black" points="538,-169.5 538,-199.5 668,-199.5 668,-169.5 538,-169.5"/>
<text text-anchor="start" x="546" y="-187.5" font-family="Helvetica,sans-Serif" font-size="10.00">wmtk::Mesh::get_const</text>
<text text-anchor="middle" x="603" y="-176.5" font-family="Helvetica,sans-Serif" font-size="10.00">_cell_hash_accessor</text>
</a>
</g>
</g>
<!-- Node8&#45;&gt;Node9 -->
<g id="edge9" class="edge">
<title>Node8&#45;&gt;Node9</title>
<path fill="none" stroke="midnightblue" d="M482.27,-191.84C496.77,-190.95 512.45,-189.99 527.54,-189.06"/>
<polygon fill="midnightblue" stroke="midnightblue" points="528.1,-192.54 537.87,-188.43 527.67,-185.55 528.1,-192.54"/>
</g>
<!-- Node10 -->
<g id="node10" class="node">
<title>Node10</title>
<g id="a_node10"><a xlink:href="classwmtk_1_1_mesh.html#a4a20dcdac339e7a4f6f8a6570114cbe6" target="_top" xlink:title=" ">
<polygon fill="none" stroke="black" points="724.5,-169.5 724.5,-199.5 837.5,-199.5 837.5,-169.5 724.5,-169.5"/>
<text text-anchor="start" x="732.5" y="-187.5" font-family="Helvetica,sans-Serif" font-size="10.00">wmtk::Mesh::create</text>
<text text-anchor="middle" x="781" y="-176.5" font-family="Helvetica,sans-Serif" font-size="10.00">_const_accessor</text>
</a>
</g>
</g>
<!-- Node9&#45;&gt;Node10 -->
<g id="edge10" class="edge">
<title>Node9&#45;&gt;Node10</title>
<path fill="none" stroke="midnightblue" d="M668.04,-184.5C683.05,-184.5 699.07,-184.5 714.16,-184.5"/>
<polygon fill="midnightblue" stroke="midnightblue" points="714.44,-188 724.44,-184.5 714.44,-181 714.44,-188"/>
</g>
<!-- Node12 -->
<g id="node12" class="node">
<title>Node12</title>
<g id="a_node12"><a xlink:href="classwmtk_1_1attribute_1_1_accessor.html#acbfbd5a98532cf295fdf6dd64066bb26" target="_top" xlink:title=" ">
<polygon fill="none" stroke="black" points="350.5,-0.5 350.5,-30.5 492.5,-30.5 492.5,-0.5 350.5,-0.5"/>
<text text-anchor="start" x="358.5" y="-18.5" font-family="Helvetica,sans-Serif" font-size="10.00">wmtk::attribute::Accessor</text>
<text text-anchor="middle" x="421.5" y="-7.5" font-family="Helvetica,sans-Serif" font-size="10.00">::const_vector_attribute</text>
</a>
</g>
</g>
<!-- Node11&#45;&gt;Node12 -->
<g id="edge12" class="edge">
<title>Node11&#45;&gt;Node12</title>
<path fill="none" stroke="midnightblue" d="M300.97,-15.5C313.52,-15.5 327.02,-15.5 340.27,-15.5"/>
<polygon fill="midnightblue" stroke="midnightblue" points="340.33,-19 350.33,-15.5 340.33,-12 340.33,-19"/>
</g>
</g>
</svg>
        <g id="navigator" transform="translate(0 0)" fill="#404254">
                <rect fill="#f2f5e9" fill-opacity="0.5" stroke="#606060" stroke-width=".5" x="0" y="0" width="60" height="60"/>
                <use id="zoomplus" xlink:href="#zoomPlus" x="17" y="9" onmousedown="handleZoom(evt,'in')"/>
                <use id="zoomminus" xlink:href="#zoomMin" x="42" y="9" onmousedown="handleZoom(evt,'out')"/>
                <use id="reset" xlink:href="#resetDef" x="30" y="36" onmousedown="handleReset()"/>
                <g id="arrowUp" xlink:href="#dirArrow" transform="translate(30 24)" onmousedown="handlePan(0,-1)">
                  <use xlink:href="#rim" fill="#404040">
                        <set attributeName="fill" to="#808080" begin="arrowUp.mouseover" end="arrowUp.mouseout"/>
                  </use>
                  <path fill="none" stroke="white" stroke-width="1.5" d="M0,-3.0v7 M-2.5,-0.5L0,-3.0L2.5,-0.5"/>
                </g>
                <g id="arrowRight" xlink:href="#dirArrow" transform="rotate(90) translate(36 -43)" onmousedown="handlePan(1,0)">
                  <use xlink:href="#rim" fill="#404040">
                        <set attributeName="fill" to="#808080" begin="arrowRight.mouseover" end="arrowRight.mouseout"/>
                  </use>
                  <path fill="none" stroke="white" stroke-width="1.5" d="M0,-3.0v7 M-2.5,-0.5L0,-3.0L2.5,-0.5"/>
                </g>
                <g id="arrowDown" xlink:href="#dirArrow" transform="rotate(180) translate(-30 -48)" onmousedown="handlePan(0,1)">
                  <use xlink:href="#rim" fill="#404040">
                        <set attributeName="fill" to="#808080" begin="arrowDown.mouseover" end="arrowDown.mouseout"/>
                  </use>
                  <path fill="none" stroke="white" stroke-width="1.5" d="M0,-3.0v7 M-2.5,-0.5L0,-3.0L2.5,-0.5"/>
                </g>
                <g id="arrowLeft" xlink:href="#dirArrow" transform="rotate(270) translate(-36 17)" onmousedown="handlePan(-1,0)">
                  <use xlink:href="#rim" fill="#404040">
                        <set attributeName="fill" to="#808080" begin="arrowLeft.mouseover" end="arrowLeft.mouseout"/>
                  </use>
                  <path fill="none" stroke="white" stroke-width="1.5" d="M0,-3.0v7 M-2.5,-0.5L0,-3.0L2.5,-0.5"/>
                </g>
        </g>
        <svg viewBox="0 0 15 15" width="100%" height="30px" preserveAspectRatio="xMaxYMin meet">
         <g id="arrow_out" transform="scale(0.3 0.3)">
          <a xlink:href="classwmtk_1_1_edge_mesh_a830d7c95df87c69a47132c9aa992f128_cgraph_org.svg" target="_base">
           <rect id="button" ry="5" rx="5" y="6" x="6" height="38" width="38"
                fill="#f2f5e9" fill-opacity="0.5" stroke="#606060" stroke-width="1.0"/>
           <path id="arrow"
             d="M 11.500037,31.436501 C 11.940474,20.09759 22.043105,11.32322 32.158766,21.979434 L 37.068811,17.246167 C 37.068811,17.246167 37.088388,32 37.088388,32 L 22.160133,31.978069 C 22.160133,31.978069 26.997745,27.140456 26.997745,27.140456 C 18.528582,18.264221 13.291696,25.230495 11.500037,31.436501 z"
             style="fill:#404040;"/>
          </a>
         </g>
        </svg>
</svg>
