<?xml version="1.0" encoding="UTF-8" standalone="no"?>
<!DOCTYPE svg PUBLIC "-//W3C//DTD SVG 1.1//EN"
 "http://www.w3.org/Graphics/SVG/1.1/DTD/svg11.dtd">
<!-- Generated by graphviz version 2.43.0 (0)
 -->
<!-- Title: wmtk::invariants::InvariantCollection::after Pages: 1 -->
<svg width="1918pt" height="509pt"
 viewBox="0.00 0.00 1918.00 509.00" xmlns="http://www.w3.org/2000/svg" xmlns:xlink="http://www.w3.org/1999/xlink">
<g id="graph0" class="graph" transform="scale(1 1) rotate(0) translate(4 505)">
<title>wmtk::invariants::InvariantCollection::after</title>
<!-- Node1 -->
<g id="node1" class="node">
<title>Node1</title>
<g id="a_node1"><a xlink:title=" ">
<polygon fill="#bfbfbf" stroke="black" points="0,-133.5 0,-163.5 149,-163.5 149,-133.5 0,-133.5"/>
<text text-anchor="start" x="8" y="-151.5" font-family="Helvetica,sans-Serif" font-size="10.00">wmtk::invariants::Invariant</text>
<text text-anchor="middle" x="74.5" y="-140.5" font-family="Helvetica,sans-Serif" font-size="10.00">Collection::after</text>
</a>
</g>
</g>
<!-- Node2 -->
<g id="node2" class="node">
<title>Node2</title>
<g id="a_node2"><a xlink:href="classwmtk_1_1_mesh.html#a82637d24776e0e06e2124ce914c4b40f" target="_top" xlink:title="maps a simplex from this mesh to any other mesh">
<polygon fill="none" stroke="black" points="189.5,-183 189.5,-202 329.5,-202 329.5,-183 189.5,-183"/>
<text text-anchor="middle" x="259.5" y="-190" font-family="Helvetica,sans-Serif" font-size="10.00">wmtk::Mesh::map_tuples</text>
</a>
</g>
</g>
<!-- Node1&#45;&gt;Node2 -->
<g id="edge1" class="edge">
<title>Node1&#45;&gt;Node2</title>
<path fill="none" stroke="midnightblue" d="M137.97,-163.52C161.22,-169.11 187.27,-175.37 209.18,-180.64"/>
<polygon fill="midnightblue" stroke="midnightblue" points="208.4,-184.05 218.94,-182.99 210.03,-177.25 208.4,-184.05"/>
</g>
<!-- Node34 -->
<g id="node34" class="node">
<title>Node34</title>
<g id="a_node34"><a xlink:href="classwmtk_1_1invariants_1_1_invariant.html#ac97548bf5f1167cd85081d1bde011139" target="_top" xlink:title=" ">
<polygon fill="none" stroke="black" points="185,-133.5 185,-163.5 334,-163.5 334,-133.5 185,-133.5"/>
<text text-anchor="start" x="193" y="-151.5" font-family="Helvetica,sans-Serif" font-size="10.00">wmtk::invariants::Invariant</text>
<text text-anchor="middle" x="259.5" y="-140.5" font-family="Helvetica,sans-Serif" font-size="10.00">::mesh</text>
</a>
</g>
</g>
<!-- Node1&#45;&gt;Node34 -->
<g id="edge41" class="edge">
<title>Node1&#45;&gt;Node34</title>
<path fill="none" stroke="midnightblue" d="M149.14,-148.5C157.47,-148.5 166.01,-148.5 174.46,-148.5"/>
<polygon fill="midnightblue" stroke="midnightblue" points="174.71,-152 184.71,-148.5 174.71,-145 174.71,-152"/>
</g>
<!-- Node35 -->
<g id="node35" class="node">
<title>Node35</title>
<g id="a_node35"><a xlink:href="classwmtk_1_1_mesh.html#ac5778c1f8afef3a2b1b1c33a140b3166" target="_top" xlink:title="Evaluate the passed in function inside the parent scope.">
<polygon fill="none" stroke="black" points="202.5,-84.5 202.5,-114.5 316.5,-114.5 316.5,-84.5 202.5,-84.5"/>
<text text-anchor="start" x="210.5" y="-102.5" font-family="Helvetica,sans-Serif" font-size="10.00">wmtk::Mesh::parent</text>
<text text-anchor="middle" x="259.5" y="-91.5" font-family="Helvetica,sans-Serif" font-size="10.00">_scope</text>
</a>
</g>
</g>
<!-- Node1&#45;&gt;Node35 -->
<g id="edge42" class="edge">
<title>Node1&#45;&gt;Node35</title>
<path fill="none" stroke="midnightblue" d="M131.9,-133.4C151.04,-128.27 172.59,-122.5 192.41,-117.2"/>
<polygon fill="midnightblue" stroke="midnightblue" points="193.53,-120.52 202.29,-114.55 191.72,-113.76 193.53,-120.52"/>
</g>
<!-- Node3 -->
<g id="node3" class="node">
<title>Node3</title>
<g id="a_node3"><a xlink:href="classwmtk_1_1_mesh.html#ad054c074d4776010002321117ec459e8" target="_top" xlink:title=" ">
<polygon fill="none" stroke="black" points="370,-213.5 370,-243.5 531,-243.5 531,-213.5 370,-213.5"/>
<text text-anchor="start" x="378" y="-231.5" font-family="Helvetica,sans-Serif" font-size="10.00">wmtk::Mesh::is_from</text>
<text text-anchor="middle" x="450.5" y="-220.5" font-family="Helvetica,sans-Serif" font-size="10.00">_same_multi_mesh_structure</text>
</a>
</g>
</g>
<!-- Node2&#45;&gt;Node3 -->
<g id="edge2" class="edge">
<title>Node2&#45;&gt;Node3</title>
<path fill="none" stroke="midnightblue" d="M310.65,-202.05C326.01,-204.98 343.39,-208.29 360.53,-211.55"/>
<polygon fill="midnightblue" stroke="midnightblue" points="360.09,-215.03 370.57,-213.47 361.4,-208.16 360.09,-215.03"/>
</g>
<!-- Node7 -->
<g id="node7" class="node">
<title>Node7</title>
<g id="a_node7"><a xlink:href="classwmtk_1_1multimesh_1_1_multi_mesh_manager.html#acaaab688faff0e1b2d9142d6cc128e46" target="_top" xlink:title="maps a simplex from this mesh to any other mesh">
<polygon fill="none" stroke="black" points="370.5,-142.5 370.5,-172.5 530.5,-172.5 530.5,-142.5 370.5,-142.5"/>
<text text-anchor="start" x="378.5" y="-160.5" font-family="Helvetica,sans-Serif" font-size="10.00">wmtk::multimesh::MultiMesh</text>
<text text-anchor="middle" x="450.5" y="-149.5" font-family="Helvetica,sans-Serif" font-size="10.00">Manager::map_tuples</text>
</a>
</g>
</g>
<!-- Node2&#45;&gt;Node7 -->
<g id="edge7" class="edge">
<title>Node2&#45;&gt;Node7</title>
<path fill="none" stroke="midnightblue" d="M312.15,-182.94C326.99,-180.19 343.62,-177.11 360.05,-174.06"/>
<polygon fill="midnightblue" stroke="midnightblue" points="361.04,-177.44 370.24,-172.18 359.77,-170.56 361.04,-177.44"/>
</g>
<!-- Node4 -->
<g id="node4" class="node">
<title>Node4</title>
<g id="a_node4"><a xlink:href="classwmtk_1_1_mesh.html#aac3ec1ebbe00982ddfe70cc710d8f54e" target="_top" xlink:title="returns a reference to the root of a multimesh tree">
<polygon fill="none" stroke="black" points="582.5,-244.5 582.5,-274.5 711.5,-274.5 711.5,-244.5 582.5,-244.5"/>
<text text-anchor="start" x="590.5" y="-262.5" font-family="Helvetica,sans-Serif" font-size="10.00">wmtk::Mesh::get_multi</text>
<text text-anchor="middle" x="647" y="-251.5" font-family="Helvetica,sans-Serif" font-size="10.00">_mesh_root</text>
</a>
</g>
</g>
<!-- Node3&#45;&gt;Node4 -->
<g id="edge3" class="edge">
<title>Node3&#45;&gt;Node4</title>
<path fill="none" stroke="midnightblue" d="M531.17,-241.2C544.71,-243.36 558.73,-245.59 572.11,-247.72"/>
<polygon fill="midnightblue" stroke="midnightblue" points="571.78,-251.22 582.21,-249.33 572.89,-244.3 571.78,-251.22"/>
</g>
<!-- Node5 -->
<g id="node5" class="node">
<title>Node5</title>
<g id="a_node5"><a xlink:href="classwmtk_1_1multimesh_1_1_multi_mesh_manager.html#a434e74f6b295055a45914d41a784124a" target="_top" xlink:title=" ">
<polygon fill="none" stroke="black" points="782.5,-253.5 782.5,-283.5 942.5,-283.5 942.5,-253.5 782.5,-253.5"/>
<text text-anchor="start" x="790.5" y="-271.5" font-family="Helvetica,sans-Serif" font-size="10.00">wmtk::multimesh::MultiMesh</text>
<text text-anchor="middle" x="862.5" y="-260.5" font-family="Helvetica,sans-Serif" font-size="10.00">Manager::get_root_mesh</text>
</a>
</g>
</g>
<!-- Node4&#45;&gt;Node5 -->
<g id="edge4" class="edge">
<title>Node4&#45;&gt;Node5</title>
<path fill="none" stroke="midnightblue" d="M711.77,-262.19C730.69,-262.99 751.77,-263.87 772.01,-264.73"/>
<polygon fill="midnightblue" stroke="midnightblue" points="772.03,-268.23 782.17,-265.16 772.33,-261.24 772.03,-268.23"/>
</g>
<!-- Node5&#45;&gt;Node5 -->
<g id="edge5" class="edge">
<title>Node5&#45;&gt;Node5</title>
<path fill="none" stroke="midnightblue" d="M825.21,-283.66C816.21,-293.06 828.64,-302 862.5,-302 883.13,-302 895.81,-298.68 900.53,-293.96"/>
<polygon fill="midnightblue" stroke="midnightblue" points="903.99,-293.39 899.79,-283.66 897.01,-293.88 903.99,-293.39"/>
</g>
<!-- Node6 -->
<g id="node6" class="node">
<title>Node6</title>
<g id="a_node6"><a xlink:href="classwmtk_1_1multimesh_1_1_multi_mesh_manager.html#a7d39339adb56b1798fe817d81bfcc67c" target="_top" xlink:title="Specifies whether this structure is the root of a multi&#45;mesh tree.">
<polygon fill="none" stroke="black" points="1022,-235.5 1022,-265.5 1182,-265.5 1182,-235.5 1022,-235.5"/>
<text text-anchor="start" x="1030" y="-253.5" font-family="Helvetica,sans-Serif" font-size="10.00">wmtk::multimesh::MultiMesh</text>
<text text-anchor="middle" x="1102" y="-242.5" font-family="Helvetica,sans-Serif" font-size="10.00">Manager::is_root</text>
</a>
</g>
</g>
<!-- Node5&#45;&gt;Node6 -->
<g id="edge6" class="edge">
<title>Node5&#45;&gt;Node6</title>
<path fill="none" stroke="midnightblue" d="M942.58,-262.51C964.8,-260.82 989.11,-258.98 1011.87,-257.26"/>
<polygon fill="midnightblue" stroke="midnightblue" points="1012.15,-260.74 1021.86,-256.5 1011.62,-253.76 1012.15,-260.74"/>
</g>
<!-- Node8 -->
<g id="node8" class="node">
<title>Node8</title>
<g id="a_node8"><a xlink:href="classwmtk_1_1multimesh_1_1_multi_mesh_manager.html#a812e0992812b2c48a889e10ae9e50758" target="_top" xlink:title=" ">
<polygon fill="none" stroke="black" points="782.5,-186.5 782.5,-216.5 942.5,-216.5 942.5,-186.5 782.5,-186.5"/>
<text text-anchor="start" x="790.5" y="-204.5" font-family="Helvetica,sans-Serif" font-size="10.00">wmtk::multimesh::MultiMesh</text>
<text text-anchor="middle" x="862.5" y="-193.5" font-family="Helvetica,sans-Serif" font-size="10.00">Manager::absolute_id</text>
</a>
</g>
</g>
<!-- Node7&#45;&gt;Node8 -->
<g id="edge8" class="edge">
<title>Node7&#45;&gt;Node8</title>
<path fill="none" stroke="midnightblue" d="M530.71,-160.55C585.89,-163.26 661.13,-168.13 727,-176.5 743.94,-178.65 761.97,-181.57 779.15,-184.64"/>
<polygon fill="midnightblue" stroke="midnightblue" points="778.68,-188.12 789.14,-186.47 779.94,-181.23 778.68,-188.12"/>
</g>
<!-- Node9 -->
<g id="node9" class="node">
<title>Node9</title>
<g id="a_node9"><a xlink:href="classwmtk_1_1_mesh.html#a2102fdea06a0c543437e67d77aeb2013" target="_top" xlink:title="returns a unique identifier for this mesh within a single multimesh structure">
<polygon fill="none" stroke="black" points="584.5,-186.5 584.5,-216.5 709.5,-216.5 709.5,-186.5 584.5,-186.5"/>
<text text-anchor="start" x="592.5" y="-204.5" font-family="Helvetica,sans-Serif" font-size="10.00">wmtk::Mesh::absolute</text>
<text text-anchor="middle" x="647" y="-193.5" font-family="Helvetica,sans-Serif" font-size="10.00">_multi_mesh_id</text>
</a>
</g>
</g>
<!-- Node7&#45;&gt;Node9 -->
<g id="edge11" class="edge">
<title>Node7&#45;&gt;Node9</title>
<path fill="none" stroke="midnightblue" d="M517.89,-172.52C536.18,-176.66 556.08,-181.16 574.63,-185.36"/>
<polygon fill="midnightblue" stroke="midnightblue" points="573.96,-188.79 584.49,-187.58 575.51,-181.96 573.96,-188.79"/>
</g>
<!-- Node10 -->
<g id="node10" class="node">
<title>Node10</title>
<g id="a_node10"><a xlink:href="classwmtk_1_1multimesh_1_1_multi_mesh_manager.html#aefe5179057c978e227c3349d13578c4a" target="_top" xlink:title=" ">
<polygon fill="none" stroke="black" points="567,-93.5 567,-123.5 727,-123.5 727,-93.5 567,-93.5"/>
<text text-anchor="start" x="575" y="-111.5" font-family="Helvetica,sans-Serif" font-size="10.00">wmtk::multimesh::MultiMesh</text>
<text text-anchor="middle" x="647" y="-100.5" font-family="Helvetica,sans-Serif" font-size="10.00">Manager::map_up_to_tuples</text>
</a>
</g>
</g>
<!-- Node7&#45;&gt;Node10 -->
<g id="edge13" class="edge">
<title>Node7&#45;&gt;Node10</title>
<path fill="none" stroke="midnightblue" d="M511.18,-142.47C531.81,-137.27 555.1,-131.4 576.45,-126.02"/>
<polygon fill="midnightblue" stroke="midnightblue" points="577.59,-129.34 586.43,-123.51 575.88,-122.56 577.59,-129.34"/>
</g>
<!-- Node28 -->
<g id="node28" class="node">
<title>Node28</title>
<g id="a_node28"><a xlink:href="classwmtk_1_1simplex_1_1_simplex.html#ad2cc0340a0772b7d6f03ba7a781d1163" target="_top" xlink:title=" ">
<polygon fill="none" stroke="black" points="1484.5,-0.5 1484.5,-30.5 1619.5,-30.5 1619.5,-0.5 1484.5,-0.5"/>
<text text-anchor="start" x="1492.5" y="-18.5" font-family="Helvetica,sans-Serif" font-size="10.00">wmtk::simplex::Simplex</text>
<text text-anchor="middle" x="1552" y="-7.5" font-family="Helvetica,sans-Serif" font-size="10.00">::primitive_type</text>
</a>
</g>
</g>
<!-- Node7&#45;&gt;Node28 -->
<g id="edge40" class="edge">
<title>Node7&#45;&gt;Node28</title>
<path fill="none" stroke="midnightblue" d="M470.36,-142.44C492.33,-125.64 530.29,-98.81 567,-83.5 690.8,-31.87 727.36,-17.5 861.5,-17.5 861.5,-17.5 861.5,-17.5 1103,-17.5 1233.31,-17.5 1384.94,-16.64 1474.17,-16.05"/>
<polygon fill="midnightblue" stroke="midnightblue" points="1474.23,-19.55 1484.21,-15.98 1474.18,-12.55 1474.23,-19.55"/>
</g>
<!-- Node8&#45;&gt;Node6 -->
<g id="edge10" class="edge">
<title>Node8&#45;&gt;Node6</title>
<path fill="none" stroke="midnightblue" d="M936.37,-216.53C962.25,-221.87 991.55,-227.92 1018.2,-233.42"/>
<polygon fill="midnightblue" stroke="midnightblue" points="1017.76,-236.9 1028.27,-235.49 1019.18,-230.05 1017.76,-236.9"/>
</g>
<!-- Node8&#45;&gt;Node8 -->
<g id="edge9" class="edge">
<title>Node8&#45;&gt;Node8</title>
<path fill="none" stroke="midnightblue" d="M825.21,-216.66C816.21,-226.06 828.64,-235 862.5,-235 883.13,-235 895.81,-231.68 900.53,-226.96"/>
<polygon fill="midnightblue" stroke="midnightblue" points="903.99,-226.39 899.79,-216.66 897.01,-226.88 903.99,-226.39"/>
</g>
<!-- Node9&#45;&gt;Node8 -->
<g id="edge12" class="edge">
<title>Node9&#45;&gt;Node8</title>
<path fill="none" stroke="midnightblue" d="M709.75,-201.5C729.23,-201.5 751.15,-201.5 772.14,-201.5"/>
<polygon fill="midnightblue" stroke="midnightblue" points="772.36,-205 782.36,-201.5 772.36,-198 772.36,-205"/>
</g>
<!-- Node11 -->
<g id="node11" class="node">
<title>Node11</title>
<g id="a_node11"><a xlink:href="classwmtk_1_1multimesh_1_1_multi_mesh_manager.html#af6fd8d8b5cc1e8b2c877718b99374f03" target="_top" xlink:title=" ">
<polygon fill="none" stroke="black" points="763,-137.5 763,-167.5 962,-167.5 962,-137.5 763,-137.5"/>
<text text-anchor="start" x="771" y="-155.5" font-family="Helvetica,sans-Serif" font-size="10.00">wmtk::multimesh::MultiMesh</text>
<text text-anchor="middle" x="862.5" y="-144.5" font-family="Helvetica,sans-Serif" font-size="10.00">Manager::map_tuple_to_parent_tuple</text>
</a>
</g>
</g>
<!-- Node10&#45;&gt;Node11 -->
<g id="edge14" class="edge">
<title>Node10&#45;&gt;Node11</title>
<path fill="none" stroke="midnightblue" d="M720.88,-123.52C739.5,-127.36 759.65,-131.51 778.73,-135.44"/>
<polygon fill="midnightblue" stroke="midnightblue" points="778.09,-138.88 788.59,-137.47 779.5,-132.03 778.09,-138.88"/>
</g>
<!-- Node10&#45;&gt;Node28 -->
<g id="edge38" class="edge">
<title>Node10&#45;&gt;Node28</title>
<path fill="none" stroke="midnightblue" d="M697.39,-93.5C717.55,-87.93 741.22,-82.1 763,-78.5 1048.33,-31.36 1124.06,-58.49 1412,-31.5 1432.17,-29.61 1453.96,-27.25 1474.16,-24.93"/>
<polygon fill="midnightblue" stroke="midnightblue" points="1474.72,-28.39 1484.25,-23.76 1473.91,-21.44 1474.72,-28.39"/>
</g>
<!-- Node33 -->
<g id="node33" class="node">
<title>Node33</title>
<g id="a_node33"><a xlink:href="classwmtk_1_1simplex_1_1_simplex.html#a3650fd31ff1864285502dba66db3c73c" target="_top" xlink:title=" ">
<polygon fill="none" stroke="black" points="795,-88.5 795,-118.5 930,-118.5 930,-88.5 795,-88.5"/>
<text text-anchor="start" x="803" y="-106.5" font-family="Helvetica,sans-Serif" font-size="10.00">wmtk::simplex::Simplex</text>
<text text-anchor="middle" x="862.5" y="-95.5" font-family="Helvetica,sans-Serif" font-size="10.00">::tuple</text>
</a>
</g>
</g>
<!-- Node10&#45;&gt;Node33 -->
<g id="edge39" class="edge">
<title>Node10&#45;&gt;Node33</title>
<path fill="none" stroke="midnightblue" d="M727.2,-106.65C745.92,-106.21 765.86,-105.74 784.48,-105.3"/>
<polygon fill="midnightblue" stroke="midnightblue" points="784.77,-108.8 794.68,-105.06 784.6,-101.8 784.77,-108.8"/>
</g>
<!-- Node11&#45;&gt;Node6 -->
<g id="edge16" class="edge">
<title>Node11&#45;&gt;Node6</title>
<path fill="none" stroke="midnightblue" d="M945.52,-167.64C951.31,-170.15 956.87,-173.08 962,-176.5 984.48,-191.49 975.51,-210.52 998,-225.5 1002.55,-228.53 1007.42,-231.19 1012.49,-233.53"/>
<polygon fill="midnightblue" stroke="midnightblue" points="1011.22,-236.79 1021.8,-237.41 1013.91,-230.33 1011.22,-236.79"/>
</g>
<!-- Node12 -->
<g id="node12" class="node">
<title>Node12</title>
<g id="a_node12"><a xlink:href="classwmtk_1_1_mesh.html#a4a20dcdac339e7a4f6f8a6570114cbe6" target="_top" xlink:title=" ">
<polygon fill="none" stroke="black" points="1045.5,-186.5 1045.5,-216.5 1158.5,-216.5 1158.5,-186.5 1045.5,-186.5"/>
<text text-anchor="start" x="1053.5" y="-204.5" font-family="Helvetica,sans-Serif" font-size="10.00">wmtk::Mesh::create</text>
<text text-anchor="middle" x="1102" y="-193.5" font-family="Helvetica,sans-Serif" font-size="10.00">_const_accessor</text>
</a>
</g>
</g>
<!-- Node11&#45;&gt;Node12 -->
<g id="edge15" class="edge">
<title>Node11&#45;&gt;Node12</title>
<path fill="none" stroke="midnightblue" d="M936.37,-167.53C967.86,-174.03 1004.42,-181.58 1035.09,-187.9"/>
<polygon fill="midnightblue" stroke="midnightblue" points="1034.74,-191.4 1045.25,-190 1036.16,-184.55 1034.74,-191.4"/>
</g>
<!-- Node13 -->
<g id="node13" class="node">
<title>Node13</title>
<g id="a_node13"><a xlink:href="classwmtk_1_1multimesh_1_1_multi_mesh_manager.html#a6f9186ced3e97aef2a0af71a3aa5c6a0" target="_top" xlink:title=" ">
<polygon fill="none" stroke="black" points="998,-137.5 998,-167.5 1206,-167.5 1206,-137.5 998,-137.5"/>
<text text-anchor="start" x="1006" y="-155.5" font-family="Helvetica,sans-Serif" font-size="10.00">wmtk::multimesh::MultiMesh</text>
<text text-anchor="middle" x="1102" y="-144.5" font-family="Helvetica,sans-Serif" font-size="10.00">Manager::map_tuple_between_meshes</text>
</a>
</g>
</g>
<!-- Node11&#45;&gt;Node13 -->
<g id="edge17" class="edge">
<title>Node11&#45;&gt;Node13</title>
<path fill="none" stroke="midnightblue" d="M962.16,-152.5C970.49,-152.5 978.97,-152.5 987.4,-152.5"/>
<polygon fill="midnightblue" stroke="midnightblue" points="987.67,-156 997.67,-152.5 987.67,-149 987.67,-156"/>
</g>
<!-- Node14 -->
<g id="node14" class="node">
<title>Node14</title>
<g id="a_node14"><a xlink:href="classwmtk_1_1_mesh.html#a8cc8686f0688613806f43720b6db49e7" target="_top" xlink:title="check validity of tuple including its hash">
<polygon fill="none" stroke="black" points="1267,-334 1267,-353 1387,-353 1387,-334 1267,-334"/>
<text text-anchor="middle" x="1327" y="-341" font-family="Helvetica,sans-Serif" font-size="10.00">wmtk::Mesh::is_valid</text>
</a>
</g>
</g>
<!-- Node13&#45;&gt;Node14 -->
<g id="edge18" class="edge">
<title>Node13&#45;&gt;Node14</title>
<path fill="none" stroke="midnightblue" d="M1189.32,-167.53C1195.18,-170.07 1200.81,-173.04 1206,-176.5 1207.89,-177.76 1282.62,-282.57 1313.18,-325.48"/>
<polygon fill="midnightblue" stroke="midnightblue" points="1310.34,-327.53 1318.99,-333.64 1316.04,-323.47 1310.34,-327.53"/>
</g>
<!-- Node17 -->
<g id="node17" class="node">
<title>Node17</title>
<g id="a_node17"><a xlink:href="namespacewmtk_1_1multimesh_1_1utils.html#a7d748ef4839b09a5460e8af97b9fa678" target="_top" xlink:title=" ">
<polygon fill="none" stroke="black" points="1252.5,-186.5 1252.5,-216.5 1401.5,-216.5 1401.5,-186.5 1252.5,-186.5"/>
<text text-anchor="start" x="1260.5" y="-204.5" font-family="Helvetica,sans-Serif" font-size="10.00">wmtk::multimesh::utils</text>
<text text-anchor="middle" x="1327" y="-193.5" font-family="Helvetica,sans-Serif" font-size="10.00">::read_tuple_map_attribute</text>
</a>
</g>
</g>
<!-- Node13&#45;&gt;Node17 -->
<g id="edge21" class="edge">
<title>Node13&#45;&gt;Node17</title>
<path fill="none" stroke="midnightblue" d="M1171.42,-167.53C1195.61,-172.85 1222.99,-178.87 1247.92,-184.34"/>
<polygon fill="midnightblue" stroke="midnightblue" points="1247.19,-187.77 1257.71,-186.49 1248.69,-180.93 1247.19,-187.77"/>
</g>
<!-- Node22 -->
<g id="node22" class="node">
<title>Node22</title>
<g id="a_node22"><a xlink:href="classwmtk_1_1_mesh.html#a965a8a24158c4aa8580c57ba09f885f7" target="_top" xlink:title="switch the orientation of the Tuple of the given dimension">
<polygon fill="none" stroke="black" points="1270,-137.5 1270,-167.5 1384,-167.5 1384,-137.5 1270,-137.5"/>
<text text-anchor="start" x="1278" y="-155.5" font-family="Helvetica,sans-Serif" font-size="10.00">wmtk::Mesh::switch</text>
<text text-anchor="middle" x="1327" y="-144.5" font-family="Helvetica,sans-Serif" font-size="10.00">_tuple</text>
</a>
</g>
</g>
<!-- Node13&#45;&gt;Node22 -->
<g id="edge26" class="edge">
<title>Node13&#45;&gt;Node22</title>
<path fill="none" stroke="midnightblue" d="M1206.01,-152.5C1224.25,-152.5 1242.8,-152.5 1259.68,-152.5"/>
<polygon fill="midnightblue" stroke="midnightblue" points="1259.96,-156 1269.96,-152.5 1259.96,-149 1259.96,-156"/>
</g>
<!-- Node23 -->
<g id="node23" class="node">
<title>Node23</title>
<g id="a_node23"><a xlink:href="namespacewmtk_1_1simplex.html#a0101f27eb2ad82814390b92ab1a4d1a0" target="_top" xlink:title=" ">
<polygon fill="none" stroke="black" points="1251.5,-88.5 1251.5,-118.5 1402.5,-118.5 1402.5,-88.5 1251.5,-88.5"/>
<text text-anchor="start" x="1259.5" y="-106.5" font-family="Helvetica,sans-Serif" font-size="10.00">wmtk::simplex::top</text>
<text text-anchor="middle" x="1327" y="-95.5" font-family="Helvetica,sans-Serif" font-size="10.00">_dimension_cofaces_tuples</text>
</a>
</g>
</g>
<!-- Node13&#45;&gt;Node23 -->
<g id="edge27" class="edge">
<title>Node13&#45;&gt;Node23</title>
<path fill="none" stroke="midnightblue" d="M1171.42,-137.47C1195.61,-132.15 1222.99,-126.13 1247.92,-120.66"/>
<polygon fill="midnightblue" stroke="midnightblue" points="1248.69,-124.07 1257.71,-118.51 1247.19,-117.23 1248.69,-124.07"/>
</g>
<!-- Node29 -->
<g id="node29" class="node">
<title>Node29</title>
<g id="a_node29"><a xlink:href="classwmtk_1_1_mesh.html#abaf00438d0700358b160e310d69725c9" target="_top" xlink:title=" ">
<polygon fill="none" stroke="black" points="1242,-470 1242,-489 1412,-489 1412,-470 1242,-470"/>
<text text-anchor="middle" x="1327" y="-477" font-family="Helvetica,sans-Serif" font-size="10.00">wmtk::Mesh::top_simplex_type</text>
</a>
</g>
</g>
<!-- Node13&#45;&gt;Node29 -->
<g id="edge33" class="edge">
<title>Node13&#45;&gt;Node29</title>
<path fill="none" stroke="midnightblue" d="M1195.72,-167.54C1199.46,-170.13 1202.92,-173.1 1206,-176.5 1289.58,-268.9 1161.25,-359.63 1242,-454.5 1245.49,-458.6 1249.61,-462.04 1254.13,-464.93"/>
<polygon fill="midnightblue" stroke="midnightblue" points="1252.78,-468.17 1263.25,-469.83 1256.1,-462.01 1252.78,-468.17"/>
</g>
<!-- Node31 -->
<g id="node31" class="node">
<title>Node31</title>
<g id="a_node31"><a xlink:href="namespacewmtk_1_1multimesh_1_1utils.html#aa0392bf28bb6c304127cf0eea634fee8" target="_top" xlink:title=" ">
<polygon fill="none" stroke="black" points="1262,-415.5 1262,-445.5 1392,-445.5 1392,-415.5 1262,-415.5"/>
<text text-anchor="start" x="1270" y="-433.5" font-family="Helvetica,sans-Serif" font-size="10.00">wmtk::multimesh::utils</text>
<text text-anchor="middle" x="1327" y="-422.5" font-family="Helvetica,sans-Serif" font-size="10.00">::transport_tuple</text>
</a>
</g>
</g>
<!-- Node13&#45;&gt;Node31 -->
<g id="edge35" class="edge">
<title>Node13&#45;&gt;Node31</title>
<path fill="none" stroke="midnightblue" d="M1195.47,-167.78C1199.27,-170.3 1202.82,-173.19 1206,-176.5 1264.4,-237.15 1198.66,-290.31 1242,-362.5 1253.6,-381.81 1272.79,-397.97 1289.91,-409.68"/>
<polygon fill="midnightblue" stroke="midnightblue" points="1288.34,-412.84 1298.62,-415.39 1292.18,-406.98 1288.34,-412.84"/>
</g>
<!-- Node15 -->
<g id="node15" class="node">
<title>Node15</title>
<g id="a_node15"><a xlink:href="classwmtk_1_1_tuple.html#a0023f575be92cd5ceeeaaaa3762ea06d" target="_top" xlink:title="Checks if a tuple is &quot;null&quot;. This merely implies the global index is &#45;1.">
<polygon fill="none" stroke="black" points="1495.5,-334 1495.5,-353 1608.5,-353 1608.5,-334 1495.5,-334"/>
<text text-anchor="middle" x="1552" y="-341" font-family="Helvetica,sans-Serif" font-size="10.00">wmtk::Tuple::is_null</text>
</a>
</g>
</g>
<!-- Node14&#45;&gt;Node15 -->
<g id="edge19" class="edge">
<title>Node14&#45;&gt;Node15</title>
<path fill="none" stroke="midnightblue" d="M1387.17,-343.5C1417.32,-343.5 1454.05,-343.5 1485.1,-343.5"/>
<polygon fill="midnightblue" stroke="midnightblue" points="1485.39,-347 1495.39,-343.5 1485.39,-340 1485.39,-347"/>
</g>
<!-- Node16 -->
<g id="node16" class="node">
<title>Node16</title>
<g id="a_node16"><a xlink:href="classwmtk_1_1_mesh.html#ade176d345902d97af8c5da04aa3a095b" target="_top" xlink:title=" ">
<polygon fill="none" stroke="black" points="1482,-372 1482,-391 1622,-391 1622,-372 1482,-372"/>
<text text-anchor="middle" x="1552" y="-379" font-family="Helvetica,sans-Serif" font-size="10.00">wmtk::Mesh::is_removed</text>
</a>
</g>
</g>
<!-- Node14&#45;&gt;Node16 -->
<g id="edge20" class="edge">
<title>Node14&#45;&gt;Node16</title>
<path fill="none" stroke="midnightblue" d="M1383.98,-353.04C1414.6,-358.26 1452.72,-364.75 1484.8,-370.22"/>
<polygon fill="midnightblue" stroke="midnightblue" points="1484.55,-373.73 1494.99,-371.96 1485.72,-366.83 1484.55,-373.73"/>
</g>
<!-- Node18 -->
<g id="node18" class="node">
<title>Node18</title>
<g id="a_node18"><a xlink:href="classwmtk_1_1attribute_1_1_accessor.html#acbfbd5a98532cf295fdf6dd64066bb26" target="_top" xlink:title=" ">
<polygon fill="none" stroke="black" points="1481,-235.5 1481,-265.5 1623,-265.5 1623,-235.5 1481,-235.5"/>
<text text-anchor="start" x="1489" y="-253.5" font-family="Helvetica,sans-Serif" font-size="10.00">wmtk::attribute::Accessor</text>
<text text-anchor="middle" x="1552" y="-242.5" font-family="Helvetica,sans-Serif" font-size="10.00">::const_vector_attribute</text>
</a>
</g>
</g>
<!-- Node17&#45;&gt;Node18 -->
<g id="edge22" class="edge">
<title>Node17&#45;&gt;Node18</title>
<path fill="none" stroke="midnightblue" d="M1396.42,-216.53C1420.61,-221.85 1447.99,-227.87 1472.92,-233.34"/>
<polygon fill="midnightblue" stroke="midnightblue" points="1472.19,-236.77 1482.71,-235.49 1473.69,-229.93 1472.19,-236.77"/>
</g>
<!-- Node19 -->
<g id="node19" class="node">
<title>Node19</title>
<g id="a_node19"><a xlink:href="classwmtk_1_1attribute_1_1_tuple_accessor.html#a02e28a9bbd718342f581c95bbe9710a7" target="_top" xlink:title=" ">
<polygon fill="none" stroke="black" points="1468.5,-186.5 1468.5,-216.5 1635.5,-216.5 1635.5,-186.5 1468.5,-186.5"/>
<text text-anchor="start" x="1476.5" y="-204.5" font-family="Helvetica,sans-Serif" font-size="10.00">wmtk::attribute::TupleAccessor</text>
<text text-anchor="middle" x="1552" y="-193.5" font-family="Helvetica,sans-Serif" font-size="10.00">::const_vector_attribute</text>
</a>
</g>
</g>
<!-- Node17&#45;&gt;Node19 -->
<g id="edge23" class="edge">
<title>Node17&#45;&gt;Node19</title>
<path fill="none" stroke="midnightblue" d="M1401.64,-201.5C1419.7,-201.5 1439.27,-201.5 1458.12,-201.5"/>
<polygon fill="midnightblue" stroke="midnightblue" points="1458.19,-205 1468.19,-201.5 1458.19,-198 1458.19,-205"/>
</g>
<!-- Node20 -->
<g id="node20" class="node">
<title>Node20</title>
<g id="a_node20"><a xlink:href="classwmtk_1_1attribute_1_1_accessor.html#abd60539d5779de287d2a0ec31b16c77a" target="_top" xlink:title=" ">
<polygon fill="none" stroke="black" points="1481,-137.5 1481,-167.5 1623,-167.5 1623,-137.5 1481,-137.5"/>
<text text-anchor="start" x="1489" y="-155.5" font-family="Helvetica,sans-Serif" font-size="10.00">wmtk::attribute::Accessor</text>
<text text-anchor="middle" x="1552" y="-144.5" font-family="Helvetica,sans-Serif" font-size="10.00">::dimension</text>
</a>
</g>
</g>
<!-- Node17&#45;&gt;Node20 -->
<g id="edge24" class="edge">
<title>Node17&#45;&gt;Node20</title>
<path fill="none" stroke="midnightblue" d="M1396.42,-186.47C1420.61,-181.15 1447.99,-175.13 1472.92,-169.66"/>
<polygon fill="midnightblue" stroke="midnightblue" points="1473.69,-173.07 1482.71,-167.51 1472.19,-166.23 1473.69,-173.07"/>
</g>
<!-- Node21 -->
<g id="node21" class="node">
<title>Node21</title>
<g id="a_node21"><a xlink:href="classwmtk_1_1attribute_1_1_tuple_accessor.html#a8d04c3529eb7adeead49e8faa7a119db" target="_top" xlink:title=" ">
<polygon fill="none" stroke="black" points="1468.5,-284.5 1468.5,-314.5 1635.5,-314.5 1635.5,-284.5 1468.5,-284.5"/>
<text text-anchor="start" x="1476.5" y="-302.5" font-family="Helvetica,sans-Serif" font-size="10.00">wmtk::attribute::TupleAccessor</text>
<text text-anchor="middle" x="1552" y="-291.5" font-family="Helvetica,sans-Serif" font-size="10.00">::dimension</text>
</a>
</g>
</g>
<!-- Node17&#45;&gt;Node21 -->
<g id="edge25" class="edge">
<title>Node17&#45;&gt;Node21</title>
<path fill="none" stroke="midnightblue" d="M1348.62,-216.78C1371.72,-233.24 1410.82,-259.12 1448,-274.5 1454.17,-277.05 1460.66,-279.38 1467.25,-281.5"/>
<polygon fill="midnightblue" stroke="midnightblue" points="1466.38,-284.9 1476.97,-284.46 1468.42,-278.2 1466.38,-284.9"/>
</g>
<!-- Node24 -->
<g id="node24" class="node">
<title>Node24</title>
<g id="a_node24"><a xlink:href="classwmtk_1_1simplex_1_1_simplex_collection.html#a1e7079b3b75f70dd28c524556cab76cf" target="_top" xlink:title="Add simplex to the collection.">
<polygon fill="none" stroke="black" points="1448,-50 1448,-69 1656,-69 1656,-50 1448,-50"/>
<text text-anchor="middle" x="1552" y="-57" font-family="Helvetica,sans-Serif" font-size="10.00">wmtk::simplex::SimplexCollection::add</text>
</a>
</g>
</g>
<!-- Node23&#45;&gt;Node24 -->
<g id="edge28" class="edge">
<title>Node23&#45;&gt;Node24</title>
<path fill="none" stroke="midnightblue" d="M1398.7,-88.49C1414.88,-85.13 1432.03,-81.64 1448,-78.5 1460.94,-75.96 1474.81,-73.33 1488.05,-70.87"/>
<polygon fill="midnightblue" stroke="midnightblue" points="1488.83,-74.29 1498.03,-69.03 1487.56,-67.41 1488.83,-74.29"/>
</g>
<!-- Node25 -->
<g id="node25" class="node">
<title>Node25</title>
<g id="a_node25"><a xlink:href="namespacewmtk.html#a441d6ad4f19569c7d4946e743da1a925" target="_top" xlink:title=" ">
<polygon fill="none" stroke="black" points="1491,-88.5 1491,-118.5 1613,-118.5 1613,-88.5 1491,-88.5"/>
<text text-anchor="start" x="1499" y="-106.5" font-family="Helvetica,sans-Serif" font-size="10.00">wmtk::log_and_throw</text>
<text text-anchor="middle" x="1552" y="-95.5" font-family="Helvetica,sans-Serif" font-size="10.00">_error</text>
</a>
</g>
</g>
<!-- Node23&#45;&gt;Node25 -->
<g id="edge29" class="edge">
<title>Node23&#45;&gt;Node25</title>
<path fill="none" stroke="midnightblue" d="M1402.57,-103.5C1427.83,-103.5 1455.94,-103.5 1480.85,-103.5"/>
<polygon fill="midnightblue" stroke="midnightblue" points="1480.94,-107 1490.94,-103.5 1480.94,-100 1480.94,-107"/>
</g>
<!-- Node23&#45;&gt;Node28 -->
<g id="edge32" class="edge">
<title>Node23&#45;&gt;Node28</title>
<path fill="none" stroke="midnightblue" d="M1378.28,-88.42C1389.74,-84.05 1401.6,-78.73 1412,-72.5 1430.36,-61.49 1429.04,-50.43 1448,-40.5 1456.35,-36.13 1465.48,-32.51 1474.74,-29.51"/>
<polygon fill="midnightblue" stroke="midnightblue" points="1475.85,-32.83 1484.42,-26.6 1473.84,-26.12 1475.85,-32.83"/>
</g>
<!-- Node26 -->
<g id="node26" class="node">
<title>Node26</title>
<g id="a_node26"><a xlink:href="namespacewmtk.html#a6a35f11c12436093d26fdd8be6fecc06" target="_top" xlink:title="Retrieves the current logger.">
<polygon fill="none" stroke="black" points="1692,-94 1692,-113 1773,-113 1773,-94 1692,-94"/>
<text text-anchor="middle" x="1732.5" y="-101" font-family="Helvetica,sans-Serif" font-size="10.00">wmtk::logger</text>
</a>
</g>
</g>
<!-- Node25&#45;&gt;Node26 -->
<g id="edge30" class="edge">
<title>Node25&#45;&gt;Node26</title>
<path fill="none" stroke="midnightblue" d="M1613.43,-103.5C1635.68,-103.5 1660.61,-103.5 1681.81,-103.5"/>
<polygon fill="midnightblue" stroke="midnightblue" points="1681.89,-107 1691.89,-103.5 1681.89,-100 1681.89,-107"/>
</g>
<!-- Node27 -->
<g id="node27" class="node">
<title>Node27</title>
<g id="a_node27"><a xlink:href="namespacewmtk.html#a3daa7951a5f8b78cf4600dc047fcc180" target="_top" xlink:title="Setup a logger object to be used by WildmeshToolkit.">
<polygon fill="none" stroke="black" points="1809,-94 1809,-113 1910,-113 1910,-94 1809,-94"/>
<text text-anchor="middle" x="1859.5" y="-101" font-family="Helvetica,sans-Serif" font-size="10.00">wmtk::set_logger</text>
</a>
</g>
</g>
<!-- Node26&#45;&gt;Node27 -->
<g id="edge31" class="edge">
<title>Node26&#45;&gt;Node27</title>
<path fill="none" stroke="midnightblue" d="M1773.05,-103.5C1781.17,-103.5 1789.9,-103.5 1798.55,-103.5"/>
<polygon fill="midnightblue" stroke="midnightblue" points="1798.65,-107 1808.65,-103.5 1798.65,-100 1798.65,-107"/>
</g>
<!-- Node30 -->
<g id="node30" class="node">
<title>Node30</title>
<g id="a_node30"><a xlink:href="classwmtk_1_1_mesh.html#a933f681cf24a63b155c9462280385200" target="_top" xlink:title=" ">
<polygon fill="none" stroke="black" points="1491.5,-470.5 1491.5,-500.5 1612.5,-500.5 1612.5,-470.5 1491.5,-470.5"/>
<text text-anchor="start" x="1499.5" y="-488.5" font-family="Helvetica,sans-Serif" font-size="10.00">wmtk::Mesh::top_cell</text>
<text text-anchor="middle" x="1552" y="-477.5" font-family="Helvetica,sans-Serif" font-size="10.00">_dimension</text>
</a>
</g>
</g>
<!-- Node29&#45;&gt;Node30 -->
<g id="edge34" class="edge">
<title>Node29&#45;&gt;Node30</title>
<path fill="none" stroke="midnightblue" d="M1412.31,-481.77C1434.99,-482.38 1459.26,-483.03 1481.07,-483.62"/>
<polygon fill="midnightblue" stroke="midnightblue" points="1481.13,-487.12 1491.22,-483.89 1481.32,-480.12 1481.13,-487.12"/>
</g>
<!-- Node32 -->
<g id="node32" class="node">
<title>Node32</title>
<g id="a_node32"><a xlink:href="namespacewmtk_1_1multimesh_1_1utils_1_1internal.html#a11885fe5aebd05551827804b0142945d" target="_top" xlink:title=" ">
<polygon fill="none" stroke="black" points="1487,-410 1487,-451 1617,-451 1617,-410 1487,-410"/>
<text text-anchor="start" x="1495" y="-439" font-family="Helvetica,sans-Serif" font-size="10.00">wmtk::multimesh::utils</text>
<text text-anchor="start" x="1495" y="-428" font-family="Helvetica,sans-Serif" font-size="10.00">::internal::transport</text>
<text text-anchor="middle" x="1552" y="-417" font-family="Helvetica,sans-Serif" font-size="10.00">_tuple_dart</text>
</a>
</g>
</g>
<!-- Node31&#45;&gt;Node32 -->
<g id="edge36" class="edge">
<title>Node31&#45;&gt;Node32</title>
<path fill="none" stroke="midnightblue" d="M1392.2,-424.32C1418.56,-423.65 1449.24,-423.57 1476.57,-424.09"/>
<polygon fill="midnightblue" stroke="midnightblue" points="1476.79,-427.6 1486.87,-424.32 1476.95,-420.6 1476.79,-427.6"/>
</g>
<!-- Node32&#45;&gt;Node31 -->
<g id="edge37" class="edge">
<title>Node32&#45;&gt;Node31</title>
<path fill="none" stroke="midnightblue" d="M1486.87,-436.68C1460.52,-437.35 1429.83,-437.43 1402.5,-436.91"/>
<polygon fill="midnightblue" stroke="midnightblue" points="1402.28,-433.4 1392.2,-436.68 1402.12,-440.4 1402.28,-433.4"/>
</g>
</g>
</svg>
