<?xml version="1.0" encoding="UTF-8" standalone="no"?>
<!DOCTYPE svg PUBLIC "-//W3C//DTD SVG 1.1//EN"
 "http://www.w3.org/Graphics/SVG/1.1/DTD/svg11.dtd">
<!-- Generated by graphviz version 2.43.0 (0)
 -->
<!-- Title: wmtk::multimesh::MultiMeshVisitorExecutor::run Pages: 1 -->
<!--zoomable 411 -->
<svg id="main" version="1.1" xmlns="http://www.w3.org/2000/svg" xmlns:xlink="http://www.w3.org/1999/xlink" xml:space="preserve" onload="init(evt)">
<style type="text/css"><![CDATA[
.edge:hover path { stroke: red; }
.edge:hover polygon { stroke: red; fill: red; }
]]></style>
<script type="text/javascript"><![CDATA[
var edges = document.getElementsByTagName('g');
if (edges && edges.length) {
  for (var i=0;i<edges.length;i++) {
    if (edges[i].id.substr(0,4)=='edge') {
      edges[i].setAttribute('class','edge');
    }
  }
}
]]></script>
        <defs>
                <circle id="rim" cx="0" cy="0" r="7"/>
                <circle id="rim2" cx="0" cy="0" r="3.5"/>
                <g id="zoomPlus">
                        <use xlink:href="#rim" fill="#404040">
                                <set attributeName="fill" to="#808080" begin="zoomplus.mouseover" end="zoomplus.mouseout"/>
                        </use>
                        <path d="M-4,0h8M0,-4v8" fill="none" stroke="white" stroke-width="1.5" pointer-events="none"/>
                </g>
                <g id="zoomMin">
                        <use xlink:href="#rim" fill="#404040">
                                <set attributeName="fill" to="#808080" begin="zoomminus.mouseover" end="zoomminus.mouseout"/>
                        </use>
                        <path d="M-4,0h8" fill="none" stroke="white" stroke-width="1.5" pointer-events="none"/>
                </g>
                <g id="dirArrow">
                        <path fill="none" stroke="white" stroke-width="1.5" d="M0,-3.0v7 M-2.5,-0.5L0,-3.0L2.5,-0.5"/>
                </g>
               <g id="resetDef">
                       <use xlink:href="#rim2" fill="#404040">
                               <set attributeName="fill" to="#808080" begin="reset.mouseover" end="reset.mouseout"/>
                       </use>
               </g>
        </defs>

<script type="text/javascript">
var viewWidth = 1698;
var viewHeight = 411;
var sectionId = 'dynsection-3';
</script>
<script xlink:href="svgpan.js"/>
<svg id="graph" class="graph">
<g id="viewport">
<title>wmtk::multimesh::MultiMeshVisitorExecutor::run</title>
<!-- Node1 -->
<g id="node1" class="node">
<title>Node1</title>
<g id="a_node1"><a xlink:title=" ">
<polygon fill="#bfbfbf" stroke="black" points="1530,-194 1530,-224 1690,-224 1690,-194 1530,-194"/>
<text text-anchor="start" x="1538" y="-212" font-family="Helvetica,sans-Serif" font-size="10.00">wmtk::multimesh::MultiMesh</text>
<text text-anchor="middle" x="1610" y="-201" font-family="Helvetica,sans-Serif" font-size="10.00">VisitorExecutor::run</text>
</a>
</g>
</g>
<!-- Node2 -->
<g id="node2" class="node">
<title>Node2</title>
<g id="a_node2"><a xlink:href="classwmtk_1_1multimesh_1_1_multi_mesh_visitor_executor.html#ad59739579a81676fc3ab172e80ce8550" target="_top" xlink:title=" ">
<polygon fill="none" stroke="black" points="1334,-194 1334,-224 1494,-224 1494,-194 1334,-194"/>
<text text-anchor="start" x="1342" y="-212" font-family="Helvetica,sans-Serif" font-size="10.00">wmtk::multimesh::MultiMesh</text>
<text text-anchor="middle" x="1414" y="-201" font-family="Helvetica,sans-Serif" font-size="10.00">VisitorExecutor::execute</text>
</a>
</g>
</g>
<!-- Node1&#45;&gt;Node2 -->
<g id="edge1" class="edge">
<title>Node1&#45;&gt;Node2</title>
<path fill="none" stroke="midnightblue" d="M1519.56,-209C1511.12,-209 1502.59,-209 1494.25,-209"/>
<polygon fill="midnightblue" stroke="midnightblue" points="1519.81,-212.5 1529.81,-209 1519.81,-205.5 1519.81,-212.5"/>
</g>
<!-- Node3 -->
<g id="node3" class="node">
<title>Node3</title>
<g id="a_node3"><a xlink:href="classwmtk_1_1multimesh_1_1_multi_mesh_visitor.html#ad96e498fcc27eeb8993f175015c864b4" target="_top" xlink:title=" ">
<polygon fill="none" stroke="black" points="1138,-194 1138,-224 1298,-224 1298,-194 1138,-194"/>
<text text-anchor="start" x="1146" y="-212" font-family="Helvetica,sans-Serif" font-size="10.00">wmtk::multimesh::MultiMesh</text>
<text text-anchor="middle" x="1218" y="-201" font-family="Helvetica,sans-Serif" font-size="10.00">Visitor::execute_mesh</text>
</a>
</g>
</g>
<!-- Node2&#45;&gt;Node3 -->
<g id="edge2" class="edge">
<title>Node2&#45;&gt;Node3</title>
<path fill="none" stroke="midnightblue" d="M1323.56,-209C1315.12,-209 1306.59,-209 1298.25,-209"/>
<polygon fill="midnightblue" stroke="midnightblue" points="1323.81,-212.5 1333.81,-209 1323.81,-205.5 1323.81,-212.5"/>
</g>
<!-- Node4 -->
<g id="node4" class="node">
<title>Node4</title>
<g id="a_node4"><a xlink:href="classwmtk_1_1multimesh_1_1_multi_mesh_visitor.html#a4ae1801ee1021dd57a0ede0444efc2d6" target="_top" xlink:title=" ">
<polygon fill="none" stroke="black" points="942,-194 942,-224 1102,-224 1102,-194 942,-194"/>
<text text-anchor="start" x="950" y="-212" font-family="Helvetica,sans-Serif" font-size="10.00">wmtk::multimesh::MultiMesh</text>
<text text-anchor="middle" x="1022" y="-201" font-family="Helvetica,sans-Serif" font-size="10.00">Visitor::execute_from_root</text>
</a>
</g>
</g>
<!-- Node3&#45;&gt;Node4 -->
<g id="edge3" class="edge">
<title>Node3&#45;&gt;Node4</title>
<path fill="none" stroke="midnightblue" d="M1127.56,-209C1119.12,-209 1110.59,-209 1102.25,-209"/>
<polygon fill="midnightblue" stroke="midnightblue" points="1127.81,-212.5 1137.81,-209 1127.81,-205.5 1127.81,-212.5"/>
</g>
<!-- Node5 -->
<g id="node5" class="node">
<title>Node5</title>
<g id="a_node5"><a xlink:href="namespacewmtk_1_1multimesh.html#a75477c4fe069fcdff90f57a76087afe0" target="_top" xlink:title=" ">
<polygon fill="none" stroke="black" points="520,-317.5 520,-336.5 685,-336.5 685,-317.5 520,-317.5"/>
<text text-anchor="middle" x="602.5" y="-324.5" font-family="Helvetica,sans-Serif" font-size="10.00">wmtk::multimesh::consolidate</text>
</a>
</g>
</g>
<!-- Node4&#45;&gt;Node5 -->
<g id="edge4" class="edge">
<title>Node4&#45;&gt;Node5</title>
<path fill="none" stroke="midnightblue" d="M1002.11,-232.12C981.32,-255.66 945.57,-290.93 906,-307 835.42,-335.67 747.94,-338.32 685.24,-335.2"/>
<polygon fill="midnightblue" stroke="midnightblue" points="1004.94,-234.19 1008.82,-224.33 999.64,-229.62 1004.94,-234.19"/>
</g>
<!-- Node6 -->
<g id="node6" class="node">
<title>Node6</title>
<g id="a_node6"><a xlink:href="namespacewmtk_1_1components_1_1internal.html#a49432d47b0fca2f5fe80f1e9c634fa14" target="_top" xlink:title=" ">
<polygon fill="none" stroke="black" points="317.5,-350 317.5,-380 471.5,-380 471.5,-350 317.5,-350"/>
<text text-anchor="start" x="325.5" y="-368" font-family="Helvetica,sans-Serif" font-size="10.00">wmtk::components::internal</text>
<text text-anchor="middle" x="394.5" y="-357" font-family="Helvetica,sans-Serif" font-size="10.00">::isotropic_remeshing</text>
</a>
</g>
</g>
<!-- Node4&#45;&gt;Node6 -->
<g id="edge13" class="edge">
<title>Node4&#45;&gt;Node6</title>
<path fill="none" stroke="midnightblue" d="M1007.53,-232.87C989.04,-263.03 952.7,-313.68 906,-336 764.63,-403.56 575.53,-391.75 471.72,-377.89"/>
<polygon fill="midnightblue" stroke="midnightblue" points="1010.58,-234.61 1012.69,-224.23 1004.56,-231.02 1010.58,-234.61"/>
</g>
<!-- Node11 -->
<g id="node11" class="node">
<title>Node11</title>
<g id="a_node11"><a xlink:href="classwmtk_1_1operations_1_1_edge_collapse.html#a64450fa42ff00ebaba65ddca6e94c605" target="_top" xlink:title=" ">
<polygon fill="none" stroke="black" points="726.5,-219 726.5,-249 900.5,-249 900.5,-219 726.5,-219"/>
<text text-anchor="start" x="734.5" y="-237" font-family="Helvetica,sans-Serif" font-size="10.00">wmtk::operations::EdgeCollapse</text>
<text text-anchor="middle" x="813.5" y="-226" font-family="Helvetica,sans-Serif" font-size="10.00">::EdgeCollapse</text>
</a>
</g>
</g>
<!-- Node4&#45;&gt;Node11 -->
<g id="edge10" class="edge">
<title>Node4&#45;&gt;Node11</title>
<path fill="none" stroke="midnightblue" d="M931.59,-219.82C921.36,-221.06 910.94,-222.32 900.75,-223.56"/>
<polygon fill="midnightblue" stroke="midnightblue" points="932.25,-223.27 941.75,-218.59 931.4,-216.32 932.25,-223.27"/>
</g>
<!-- Node12 -->
<g id="node12" class="node">
<title>Node12</title>
<g id="a_node12"><a xlink:href="classwmtk_1_1operations_1_1_edge_split.html#a81bb31c49a0200610f79af9a5253a11d" target="_top" xlink:title=" ">
<polygon fill="none" stroke="black" points="736.5,-170 736.5,-200 890.5,-200 890.5,-170 736.5,-170"/>
<text text-anchor="start" x="744.5" y="-188" font-family="Helvetica,sans-Serif" font-size="10.00">wmtk::operations::EdgeSplit</text>
<text text-anchor="middle" x="813.5" y="-177" font-family="Helvetica,sans-Serif" font-size="10.00">::EdgeSplit</text>
</a>
</g>
</g>
<!-- Node4&#45;&gt;Node12 -->
<g id="edge11" class="edge">
<title>Node4&#45;&gt;Node12</title>
<path fill="none" stroke="midnightblue" d="M931.47,-198.59C917.92,-197.02 904.05,-195.41 890.82,-193.87"/>
<polygon fill="midnightblue" stroke="midnightblue" points="931.42,-202.11 941.75,-199.79 932.22,-195.16 931.42,-202.11"/>
</g>
<!-- Node13 -->
<g id="node13" class="node">
<title>Node13</title>
<g id="a_node13"><a xlink:href="namespacewmtk_1_1components.html#acacc2b8923eea46d8d2c892cf3decfe8" target="_top" xlink:title=" ">
<polygon fill="none" stroke="black" points="747.5,-121 747.5,-151 879.5,-151 879.5,-121 747.5,-121"/>
<text text-anchor="start" x="755.5" y="-139" font-family="Helvetica,sans-Serif" font-size="10.00">wmtk::components::get</text>
<text text-anchor="middle" x="813.5" y="-128" font-family="Helvetica,sans-Serif" font-size="10.00">_all_meshes</text>
</a>
</g>
</g>
<!-- Node4&#45;&gt;Node13 -->
<g id="edge12" class="edge">
<title>Node4&#45;&gt;Node13</title>
<path fill="none" stroke="midnightblue" d="M980.03,-189.81C958.32,-180.09 931.04,-168.57 906,-160 896.68,-156.81 886.7,-153.8 876.88,-151.05"/>
<polygon fill="midnightblue" stroke="midnightblue" points="978.72,-193.06 989.27,-193.99 981.6,-186.68 978.72,-193.06"/>
</g>
<!-- Node14 -->
<g id="node14" class="node">
<title>Node14</title>
<g id="a_node14"><a xlink:href="classwmtk_1_1operations_1_1_operation.html#a882eca46d5f1bc42c25dde3baf0a8297" target="_top" xlink:title=" ">
<polygon fill="none" stroke="black" points="735.5,-268 735.5,-298 891.5,-298 891.5,-268 735.5,-268"/>
<text text-anchor="start" x="743.5" y="-286" font-family="Helvetica,sans-Serif" font-size="10.00">wmtk::operations::Operation</text>
<text text-anchor="middle" x="813.5" y="-275" font-family="Helvetica,sans-Serif" font-size="10.00">::reserve_enough_simplices</text>
</a>
</g>
</g>
<!-- Node4&#45;&gt;Node14 -->
<g id="edge14" class="edge">
<title>Node4&#45;&gt;Node14</title>
<path fill="none" stroke="midnightblue" d="M979.52,-228.29C957.89,-237.94 930.82,-249.37 906,-258 895.89,-261.52 885.02,-264.86 874.42,-267.89"/>
<polygon fill="midnightblue" stroke="midnightblue" points="981.06,-231.44 988.75,-224.14 978.19,-225.05 981.06,-231.44"/>
</g>
<!-- Node24 -->
<g id="node24" class="node">
<title>Node24</title>
<g id="a_node24"><a xlink:href="classwmtk_1_1multimesh_1_1attribute_1_1_use_parent_scope_r_a_i_i.html#ab6f91c3184ec10524c2da65171bafcbf" target="_top" xlink:title=" ">
<polygon fill="none" stroke="black" points="725.5,-60.5 725.5,-101.5 901.5,-101.5 901.5,-60.5 725.5,-60.5"/>
<text text-anchor="start" x="733.5" y="-89.5" font-family="Helvetica,sans-Serif" font-size="10.00">wmtk::multimesh::attribute</text>
<text text-anchor="start" x="733.5" y="-78.5" font-family="Helvetica,sans-Serif" font-size="10.00">::UseParentScopeRAII::UseParent</text>
<text text-anchor="middle" x="813.5" y="-67.5" font-family="Helvetica,sans-Serif" font-size="10.00">ScopeRAII</text>
</a>
</g>
</g>
<!-- Node4&#45;&gt;Node24 -->
<g id="edge26" class="edge">
<title>Node4&#45;&gt;Node24</title>
<path fill="none" stroke="midnightblue" d="M1000.1,-186.71C978.43,-164.73 942.63,-131.55 906,-111 899.88,-107.56 893.3,-104.45 886.58,-101.64"/>
<polygon fill="midnightblue" stroke="midnightblue" points="997.68,-189.24 1007.16,-193.97 1002.7,-184.36 997.68,-189.24"/>
</g>
<!-- Node25 -->
<g id="node25" class="node">
<title>Node25</title>
<g id="a_node25"><a xlink:href="classwmtk_1_1multimesh_1_1attribute_1_1_use_parent_scope_r_a_i_i.html#a6a2deaf9e4b3bc43db8ba58d396b08a3" target="_top" xlink:title=" ">
<polygon fill="none" stroke="black" points="721,-0.5 721,-41.5 906,-41.5 906,-0.5 721,-0.5"/>
<text text-anchor="start" x="729" y="-29.5" font-family="Helvetica,sans-Serif" font-size="10.00">wmtk::multimesh::attribute</text>
<text text-anchor="start" x="729" y="-18.5" font-family="Helvetica,sans-Serif" font-size="10.00">::UseParentScopeRAII::~UseParent</text>
<text text-anchor="middle" x="813.5" y="-7.5" font-family="Helvetica,sans-Serif" font-size="10.00">ScopeRAII</text>
</a>
</g>
</g>
<!-- Node4&#45;&gt;Node25 -->
<g id="edge27" class="edge">
<title>Node4&#45;&gt;Node25</title>
<path fill="none" stroke="midnightblue" d="M1009.46,-184.59C991.88,-149.96 955.18,-86.8 906,-51 901.13,-47.46 895.83,-44.32 890.3,-41.54"/>
<polygon fill="midnightblue" stroke="midnightblue" points="1006.53,-186.55 1014.1,-193.96 1012.8,-183.44 1006.53,-186.55"/>
</g>
<!-- Node5&#45;&gt;Node6 -->
<g id="edge5" class="edge">
<title>Node5&#45;&gt;Node6</title>
<path fill="none" stroke="midnightblue" d="M539.85,-338.37C518.46,-342.32 494.21,-346.79 471.78,-350.93"/>
<polygon fill="midnightblue" stroke="midnightblue" points="540.58,-341.8 549.78,-336.54 539.31,-334.91 540.58,-341.8"/>
</g>
<!-- Node10 -->
<g id="node10" class="node">
<title>Node10</title>
<g id="a_node10"><a xlink:href="namespacewmtk_1_1components.html#a503af91b8a2d86f4b9af9dbded55bec0" target="_top" xlink:title=" ">
<polygon fill="none" stroke="black" points="305,-311.5 305,-330.5 484,-330.5 484,-311.5 305,-311.5"/>
<text text-anchor="middle" x="394.5" y="-318.5" font-family="Helvetica,sans-Serif" font-size="10.00">wmtk::components::wildmeshing</text>
</a>
</g>
</g>
<!-- Node5&#45;&gt;Node10 -->
<g id="edge9" class="edge">
<title>Node5&#45;&gt;Node10</title>
<path fill="none" stroke="midnightblue" d="M509.58,-324.32C501.15,-324.08 492.63,-323.83 484.23,-323.58"/>
<polygon fill="midnightblue" stroke="midnightblue" points="509.69,-327.83 519.79,-324.62 509.89,-320.83 509.69,-327.83"/>
</g>
<!-- Node7 -->
<g id="node7" class="node">
<title>Node7</title>
<g id="a_node7"><a xlink:href="namespacewmtk_1_1components.html#a1a5ffb0788dc02e8b355a7a1ad447c7f" target="_top" xlink:title=" ">
<polygon fill="none" stroke="black" points="109,-372 109,-402 267,-402 267,-372 109,-372"/>
<text text-anchor="start" x="117" y="-390" font-family="Helvetica,sans-Serif" font-size="10.00">wmtk::components::isotropic</text>
<text text-anchor="middle" x="188" y="-379" font-family="Helvetica,sans-Serif" font-size="10.00">_remeshing</text>
</a>
</g>
</g>
<!-- Node6&#45;&gt;Node7 -->
<g id="edge6" class="edge">
<title>Node6&#45;&gt;Node7</title>
<path fill="none" stroke="midnightblue" d="M307.28,-374.28C294,-375.7 280.35,-377.17 267.26,-378.58"/>
<polygon fill="midnightblue" stroke="midnightblue" points="307.78,-377.74 317.35,-373.19 307.03,-370.78 307.78,-377.74"/>
</g>
<!-- Node9 -->
<g id="node9" class="node">
<title>Node9</title>
<g id="a_node9"><a xlink:href="test__component__isotropic__remeshing_8cpp.html#a51ae85bc413e9940267e8a366e0bcc9f" target="_top" xlink:title=" ">
<polygon fill="none" stroke="black" points="152.5,-333.5 152.5,-352.5 223.5,-352.5 223.5,-333.5 152.5,-333.5"/>
<text text-anchor="middle" x="188" y="-340.5" font-family="Helvetica,sans-Serif" font-size="10.00">TEST_CASE</text>
</a>
</g>
</g>
<!-- Node6&#45;&gt;Node9 -->
<g id="edge8" class="edge">
<title>Node6&#45;&gt;Node9</title>
<path fill="none" stroke="midnightblue" d="M307.04,-355.7C277.63,-352.53 246.43,-349.18 223.5,-346.71"/>
<polygon fill="midnightblue" stroke="midnightblue" points="307.03,-359.22 317.35,-356.81 307.78,-352.26 307.03,-359.22"/>
</g>
<!-- Node8 -->
<g id="node8" class="node">
<title>Node8</title>
<g id="a_node8"><a xlink:href="test__component__isotropic__remeshing_8cpp.html#a64dc4992576434e79fdb0838f9092ab8" target="_top" xlink:title=" ">
<polygon fill="none" stroke="black" points="0,-377.5 0,-396.5 71,-396.5 71,-377.5 0,-377.5"/>
<text text-anchor="middle" x="35.5" y="-384.5" font-family="Helvetica,sans-Serif" font-size="10.00">TEST_CASE</text>
</a>
</g>
</g>
<!-- Node7&#45;&gt;Node8 -->
<g id="edge7" class="edge">
<title>Node7&#45;&gt;Node8</title>
<path fill="none" stroke="midnightblue" d="M98.55,-387C88.93,-387 79.6,-387 71.22,-387"/>
<polygon fill="midnightblue" stroke="midnightblue" points="98.66,-390.5 108.66,-387 98.66,-383.5 98.66,-390.5"/>
</g>
<!-- Node15 -->
<g id="node15" class="node">
<title>Node15</title>
<g id="a_node15"><a xlink:href="classwmtk_1_1_scheduler.html#a246ccf6605333ebb7c020aa8fae1e959" target="_top" xlink:title=" ">
<polygon fill="none" stroke="black" points="542.5,-268 542.5,-298 662.5,-298 662.5,-268 542.5,-268"/>
<text text-anchor="start" x="550.5" y="-286" font-family="Helvetica,sans-Serif" font-size="10.00">wmtk::Scheduler::run</text>
<text text-anchor="middle" x="602.5" y="-275" font-family="Helvetica,sans-Serif" font-size="10.00">_operation_on_all</text>
</a>
</g>
</g>
<!-- Node14&#45;&gt;Node15 -->
<g id="edge15" class="edge">
<title>Node14&#45;&gt;Node15</title>
<path fill="none" stroke="midnightblue" d="M725.06,-283C704.07,-283 682.14,-283 662.77,-283"/>
<polygon fill="midnightblue" stroke="midnightblue" points="725.27,-286.5 735.27,-283 725.27,-279.5 725.27,-286.5"/>
</g>
<!-- Node15&#45;&gt;Node6 -->
<g id="edge16" class="edge">
<title>Node15&#45;&gt;Node6</title>
<path fill="none" stroke="midnightblue" d="M533.01,-301.58C528.52,-303.54 524.14,-305.67 520,-308 501.34,-318.49 502.78,-329.72 484,-340 477,-343.83 469.36,-347.12 461.59,-349.94"/>
<polygon fill="midnightblue" stroke="midnightblue" points="534.39,-304.8 542.36,-297.82 531.78,-298.31 534.39,-304.8"/>
</g>
<!-- Node15&#45;&gt;Node10 -->
<g id="edge25" class="edge">
<title>Node15&#45;&gt;Node10</title>
<path fill="none" stroke="midnightblue" d="M532.4,-295.75C504.55,-300.88 472.98,-306.71 447.18,-311.47"/>
<polygon fill="midnightblue" stroke="midnightblue" points="533.27,-299.15 542.47,-293.89 532,-292.26 533.27,-299.15"/>
</g>
<!-- Node16 -->
<g id="node16" class="node">
<title>Node16</title>
<g id="a_node16"><a xlink:href="classwmtk_1_1components_1_1internal_1_1_marching.html#a9e2d1de9a85f917baa06fd06feffe8f3" target="_top" xlink:title=" ">
<polygon fill="none" stroke="black" points="317.5,-175 317.5,-205 471.5,-205 471.5,-175 317.5,-175"/>
<text text-anchor="start" x="325.5" y="-193" font-family="Helvetica,sans-Serif" font-size="10.00">wmtk::components::internal</text>
<text text-anchor="middle" x="394.5" y="-182" font-family="Helvetica,sans-Serif" font-size="10.00">::Marching::process</text>
</a>
</g>
</g>
<!-- Node15&#45;&gt;Node16 -->
<g id="edge17" class="edge">
<title>Node15&#45;&gt;Node16</title>
<path fill="none" stroke="midnightblue" d="M571.27,-262.2C548.2,-247.11 515.19,-227.11 484,-214 476.08,-210.67 467.56,-207.68 459.05,-205.03"/>
<polygon fill="midnightblue" stroke="midnightblue" points="569.63,-265.32 579.9,-267.93 573.5,-259.48 569.63,-265.32"/>
</g>
<!-- Node19 -->
<g id="node19" class="node">
<title>Node19</title>
<g id="a_node19"><a xlink:href="classwmtk_1_1components_1_1internal_1_1_regular_space.html#af9adef544fff10ba9257d128fd13393c" target="_top" xlink:title=" ">
<polygon fill="none" stroke="black" points="309.5,-126 309.5,-156 479.5,-156 479.5,-126 309.5,-126"/>
<text text-anchor="start" x="317.5" y="-144" font-family="Helvetica,sans-Serif" font-size="10.00">wmtk::components::internal</text>
<text text-anchor="middle" x="394.5" y="-133" font-family="Helvetica,sans-Serif" font-size="10.00">::RegularSpace::regularize_tags</text>
</a>
</g>
</g>
<!-- Node15&#45;&gt;Node19 -->
<g id="edge20" class="edge">
<title>Node15&#45;&gt;Node19</title>
<path fill="none" stroke="midnightblue" d="M584.55,-259.76C563.81,-232.97 526.18,-189.5 484,-165 478.08,-161.56 471.65,-158.6 465.05,-156.06"/>
<polygon fill="midnightblue" stroke="midnightblue" points="581.85,-261.98 590.68,-267.82 587.42,-257.74 581.85,-261.98"/>
</g>
<!-- Node22 -->
<g id="node22" class="node">
<title>Node22</title>
<g id="a_node22"><a xlink:href="test__component__isotropic__remeshing_8cpp.html#adf1e479866f5fbf4faa9038ece31a877" target="_top" xlink:title=" ">
<polygon fill="none" stroke="black" points="359,-273.5 359,-292.5 430,-292.5 430,-273.5 359,-273.5"/>
<text text-anchor="middle" x="394.5" y="-280.5" font-family="Helvetica,sans-Serif" font-size="10.00">TEST_CASE</text>
</a>
</g>
</g>
<!-- Node15&#45;&gt;Node22 -->
<g id="edge23" class="edge">
<title>Node15&#45;&gt;Node22</title>
<path fill="none" stroke="midnightblue" d="M532.46,-283C498.05,-283 457.94,-283 430.06,-283"/>
<polygon fill="midnightblue" stroke="midnightblue" points="532.47,-286.5 542.47,-283 532.47,-279.5 532.47,-286.5"/>
</g>
<!-- Node23 -->
<g id="node23" class="node">
<title>Node23</title>
<g id="a_node23"><a xlink:href="namespacewmtk_1_1components.html#ad26e15d638e76cf767b43e34d5d68465" target="_top" xlink:title=" ">
<polygon fill="none" stroke="black" points="317.5,-224 317.5,-254 471.5,-254 471.5,-224 317.5,-224"/>
<text text-anchor="start" x="325.5" y="-242" font-family="Helvetica,sans-Serif" font-size="10.00">wmtk::components::triangle</text>
<text text-anchor="middle" x="394.5" y="-231" font-family="Helvetica,sans-Serif" font-size="10.00">_insertion</text>
</a>
</g>
</g>
<!-- Node15&#45;&gt;Node23 -->
<g id="edge24" class="edge">
<title>Node15&#45;&gt;Node23</title>
<path fill="none" stroke="midnightblue" d="M532.47,-268.25C511.03,-263.68 487.38,-258.62 465.85,-254.03"/>
<polygon fill="midnightblue" stroke="midnightblue" points="531.96,-271.73 542.47,-270.39 533.42,-264.88 531.96,-271.73"/>
</g>
<!-- Node17 -->
<g id="node17" class="node">
<title>Node17</title>
<g id="a_node17"><a xlink:href="namespacewmtk_1_1components.html#a2089f999b4072674bda24b29e86257e1" target="_top" xlink:title="Perform maching tetrahedra/triangles.">
<polygon fill="none" stroke="black" points="107,-217.5 107,-236.5 269,-236.5 269,-217.5 107,-217.5"/>
<text text-anchor="middle" x="188" y="-224.5" font-family="Helvetica,sans-Serif" font-size="10.00">wmtk::components::marching</text>
</a>
</g>
</g>
<!-- Node16&#45;&gt;Node17 -->
<g id="edge18" class="edge">
<title>Node16&#45;&gt;Node17</title>
<path fill="none" stroke="midnightblue" d="M307.5,-205.56C285.13,-209.61 261.69,-213.85 241.62,-217.48"/>
<polygon fill="midnightblue" stroke="midnightblue" points="308.13,-209 317.35,-203.78 306.89,-202.11 308.13,-209"/>
</g>
<!-- Node18 -->
<g id="node18" class="node">
<title>Node18</title>
<g id="a_node18"><a xlink:href="test__component__marching_8cpp.html#af20fbc246d1ad31be8d9ec0011ac52d6" target="_top" xlink:title=" ">
<polygon fill="none" stroke="black" points="152.5,-179.5 152.5,-198.5 223.5,-198.5 223.5,-179.5 152.5,-179.5"/>
<text text-anchor="middle" x="188" y="-186.5" font-family="Helvetica,sans-Serif" font-size="10.00">TEST_CASE</text>
</a>
</g>
</g>
<!-- Node16&#45;&gt;Node18 -->
<g id="edge19" class="edge">
<title>Node16&#45;&gt;Node18</title>
<path fill="none" stroke="midnightblue" d="M307.04,-189.58C277.63,-189.43 246.43,-189.28 223.5,-189.17"/>
<polygon fill="midnightblue" stroke="midnightblue" points="307.33,-193.08 317.35,-189.63 307.37,-186.08 307.33,-193.08"/>
</g>
<!-- Node20 -->
<g id="node20" class="node">
<title>Node20</title>
<g id="a_node20"><a xlink:href="namespacewmtk_1_1components.html#a899899fc78b0d9575cf5996f9d10d012" target="_top" xlink:title=" ">
<polygon fill="none" stroke="black" points="112.5,-128 112.5,-158 263.5,-158 263.5,-128 112.5,-128"/>
<text text-anchor="start" x="120.5" y="-146" font-family="Helvetica,sans-Serif" font-size="10.00">wmtk::components::regular</text>
<text text-anchor="middle" x="188" y="-135" font-family="Helvetica,sans-Serif" font-size="10.00">_space</text>
</a>
</g>
</g>
<!-- Node19&#45;&gt;Node20 -->
<g id="edge21" class="edge">
<title>Node19&#45;&gt;Node20</title>
<path fill="none" stroke="midnightblue" d="M299.4,-141.92C287.38,-142.04 275.22,-142.16 263.57,-142.27"/>
<polygon fill="midnightblue" stroke="midnightblue" points="299.47,-145.42 309.44,-141.82 299.4,-138.42 299.47,-145.42"/>
</g>
<!-- Node21 -->
<g id="node21" class="node">
<title>Node21</title>
<g id="a_node21"><a xlink:href="test__component__regular__space_8cpp.html#a5e69783b3ce0c074477e3081ab8cf658" target="_top" xlink:title=" ">
<polygon fill="none" stroke="black" points="152.5,-89.5 152.5,-108.5 223.5,-108.5 223.5,-89.5 152.5,-89.5"/>
<text text-anchor="middle" x="188" y="-96.5" font-family="Helvetica,sans-Serif" font-size="10.00">TEST_CASE</text>
</a>
</g>
</g>
<!-- Node19&#45;&gt;Node21 -->
<g id="edge22" class="edge">
<title>Node19&#45;&gt;Node21</title>
<path fill="none" stroke="midnightblue" d="M310.11,-123.87C279.9,-117.67 247.42,-111 223.71,-106.13"/>
<polygon fill="midnightblue" stroke="midnightblue" points="309.75,-127.37 320.25,-125.96 311.16,-120.52 309.75,-127.37"/>
</g>
</g>
</svg>
        <g id="navigator" transform="translate(0 0)" fill="#404254">
                <rect fill="#f2f5e9" fill-opacity="0.5" stroke="#606060" stroke-width=".5" x="0" y="0" width="60" height="60"/>
                <use id="zoomplus" xlink:href="#zoomPlus" x="17" y="9" onmousedown="handleZoom(evt,'in')"/>
                <use id="zoomminus" xlink:href="#zoomMin" x="42" y="9" onmousedown="handleZoom(evt,'out')"/>
                <use id="reset" xlink:href="#resetDef" x="30" y="36" onmousedown="handleReset()"/>
                <g id="arrowUp" xlink:href="#dirArrow" transform="translate(30 24)" onmousedown="handlePan(0,-1)">
                  <use xlink:href="#rim" fill="#404040">
                        <set attributeName="fill" to="#808080" begin="arrowUp.mouseover" end="arrowUp.mouseout"/>
                  </use>
                  <path fill="none" stroke="white" stroke-width="1.5" d="M0,-3.0v7 M-2.5,-0.5L0,-3.0L2.5,-0.5"/>
                </g>
                <g id="arrowRight" xlink:href="#dirArrow" transform="rotate(90) translate(36 -43)" onmousedown="handlePan(1,0)">
                  <use xlink:href="#rim" fill="#404040">
                        <set attributeName="fill" to="#808080" begin="arrowRight.mouseover" end="arrowRight.mouseout"/>
                  </use>
                  <path fill="none" stroke="white" stroke-width="1.5" d="M0,-3.0v7 M-2.5,-0.5L0,-3.0L2.5,-0.5"/>
                </g>
                <g id="arrowDown" xlink:href="#dirArrow" transform="rotate(180) translate(-30 -48)" onmousedown="handlePan(0,1)">
                  <use xlink:href="#rim" fill="#404040">
                        <set attributeName="fill" to="#808080" begin="arrowDown.mouseover" end="arrowDown.mouseout"/>
                  </use>
                  <path fill="none" stroke="white" stroke-width="1.5" d="M0,-3.0v7 M-2.5,-0.5L0,-3.0L2.5,-0.5"/>
                </g>
                <g id="arrowLeft" xlink:href="#dirArrow" transform="rotate(270) translate(-36 17)" onmousedown="handlePan(-1,0)">
                  <use xlink:href="#rim" fill="#404040">
                        <set attributeName="fill" to="#808080" begin="arrowLeft.mouseover" end="arrowLeft.mouseout"/>
                  </use>
                  <path fill="none" stroke="white" stroke-width="1.5" d="M0,-3.0v7 M-2.5,-0.5L0,-3.0L2.5,-0.5"/>
                </g>
        </g>
        <svg viewBox="0 0 15 15" width="100%" height="30px" preserveAspectRatio="xMaxYMin meet">
         <g id="arrow_out" transform="scale(0.3 0.3)">
          <a xlink:href="classwmtk_1_1multimesh_1_1_multi_mesh_visitor_executor_a6e0ef7ccec71b521a3bc5eb5df90bef0_icgraph_org.svg" target="_base">
           <rect id="button" ry="5" rx="5" y="6" x="6" height="38" width="38"
                fill="#f2f5e9" fill-opacity="0.5" stroke="#606060" stroke-width="1.0"/>
           <path id="arrow"
             d="M 11.500037,31.436501 C 11.940474,20.09759 22.043105,11.32322 32.158766,21.979434 L 37.068811,17.246167 C 37.068811,17.246167 37.088388,32 37.088388,32 L 22.160133,31.978069 C 22.160133,31.978069 26.997745,27.140456 26.997745,27.140456 C 18.528582,18.264221 13.291696,25.230495 11.500037,31.436501 z"
             style="fill:#404040;"/>
          </a>
         </g>
        </svg>
</svg>
