<?xml version="1.0" encoding="UTF-8" standalone="no"?>
<!DOCTYPE svg PUBLIC "-//W3C//DTD SVG 1.1//EN"
 "http://www.w3.org/Graphics/SVG/1.1/DTD/svg11.dtd">
<!-- Generated by graphviz version 2.43.0 (0)
 -->
<!-- Title: wmtk::EdgeMesh::is_valid Pages: 1 -->
<svg width="1140pt" height="385pt"
 viewBox="0.00 0.00 1140.00 384.50" xmlns="http://www.w3.org/2000/svg" xmlns:xlink="http://www.w3.org/1999/xlink">
<g id="graph0" class="graph" transform="scale(1 1) rotate(0) translate(4 380.5)">
<title>wmtk::EdgeMesh::is_valid</title>
<!-- Node1 -->
<g id="node1" class="node">
<title>Node1</title>
<g id="a_node1"><a xlink:title="check validity of tuple including its hash">
<polygon fill="#bfbfbf" stroke="black" points="1017,-209 1017,-239 1132,-239 1132,-209 1017,-209"/>
<text text-anchor="start" x="1025" y="-227" font-family="Helvetica,sans-Serif" font-size="10.00">wmtk::EdgeMesh::is</text>
<text text-anchor="middle" x="1074.5" y="-216" font-family="Helvetica,sans-Serif" font-size="10.00">_valid</text>
</a>
</g>
</g>
<!-- Node2 -->
<g id="node2" class="node">
<title>Node2</title>
<g id="a_node2"><a xlink:href="classwmtk_1_1_edge_mesh.html#a72273ee79b910155046cb3ef291fbc49" target="_top" xlink:title=" ">
<polygon fill="none" stroke="black" points="825,-294 825,-324 956,-324 956,-294 825,-294"/>
<text text-anchor="start" x="833" y="-312" font-family="Helvetica,sans-Serif" font-size="10.00">wmtk::EdgeMesh::edge</text>
<text text-anchor="middle" x="890.5" y="-301" font-family="Helvetica,sans-Serif" font-size="10.00">_tuple_from_id</text>
</a>
</g>
</g>
<!-- Node1&#45;&gt;Node2 -->
<g id="edge1" class="edge">
<title>Node1&#45;&gt;Node2</title>
<path fill="none" stroke="midnightblue" d="M1040.31,-244.35C1022.98,-254.54 1001.22,-266.66 981,-276 966.87,-282.53 951.05,-288.71 936.68,-293.92"/>
<polygon fill="midnightblue" stroke="midnightblue" points="1042.13,-247.34 1048.94,-239.23 1038.55,-241.33 1042.13,-247.34"/>
</g>
<!-- Node4 -->
<g id="node4" class="node">
<title>Node4</title>
<g id="a_node4"><a xlink:href="classwmtk_1_1_edge_mesh.html#a534952cf2729f1509a380e3e9afb65b7" target="_top" xlink:title=" ">
<polygon fill="none" stroke="black" points="637.5,-247 637.5,-277 752.5,-277 752.5,-247 637.5,-247"/>
<text text-anchor="start" x="645.5" y="-265" font-family="Helvetica,sans-Serif" font-size="10.00">wmtk::EdgeMesh::is</text>
<text text-anchor="middle" x="695" y="-254" font-family="Helvetica,sans-Serif" font-size="10.00">_boundary_vertex</text>
</a>
</g>
</g>
<!-- Node1&#45;&gt;Node4 -->
<g id="edge3" class="edge">
<title>Node1&#45;&gt;Node4</title>
<path fill="none" stroke="midnightblue" d="M1006.87,-238.81C998.2,-240.41 989.41,-241.86 981,-243 902.25,-253.66 810.42,-258.42 752.74,-260.49"/>
<polygon fill="midnightblue" stroke="midnightblue" points="1007.8,-242.2 1016.96,-236.88 1006.48,-235.32 1007.8,-242.2"/>
</g>
<!-- Node12 -->
<g id="node12" class="node">
<title>Node12</title>
<g id="a_node12"><a xlink:href="classwmtk_1_1_edge_mesh.html#a83db0c93833dacdfb169807d8ba4b6ca" target="_top" xlink:title="TODO this needs dimension?">
<polygon fill="none" stroke="black" points="821,-214.5 821,-233.5 960,-233.5 960,-214.5 821,-214.5"/>
<text text-anchor="middle" x="890.5" y="-221.5" font-family="Helvetica,sans-Serif" font-size="10.00">wmtk::EdgeMesh::is_ccw</text>
</a>
</g>
</g>
<!-- Node1&#45;&gt;Node12 -->
<g id="edge11" class="edge">
<title>Node1&#45;&gt;Node12</title>
<path fill="none" stroke="midnightblue" d="M1006.62,-224C991.49,-224 975.41,-224 960.22,-224"/>
<polygon fill="midnightblue" stroke="midnightblue" points="1006.91,-227.5 1016.91,-224 1006.91,-220.5 1006.91,-227.5"/>
</g>
<!-- Node13 -->
<g id="node13" class="node">
<title>Node13</title>
<g id="a_node13"><a xlink:href="classwmtk_1_1_edge_mesh.html#a46725851b572b51a356450adc30c14ed" target="_top" xlink:title="switch the orientation of the Tuple of the given dimension">
<polygon fill="none" stroke="black" points="626,-171 626,-201 764,-201 764,-171 626,-171"/>
<text text-anchor="start" x="634" y="-189" font-family="Helvetica,sans-Serif" font-size="10.00">wmtk::EdgeMesh::switch</text>
<text text-anchor="middle" x="695" y="-178" font-family="Helvetica,sans-Serif" font-size="10.00">_tuple</text>
</a>
</g>
</g>
<!-- Node1&#45;&gt;Node13 -->
<g id="edge23" class="edge">
<title>Node1&#45;&gt;Node13</title>
<path fill="none" stroke="midnightblue" d="M1006.87,-209.19C998.2,-207.59 989.41,-206.14 981,-205 907.29,-195.02 822.11,-190.21 764.21,-187.94"/>
<polygon fill="midnightblue" stroke="midnightblue" points="1006.48,-212.68 1016.96,-211.12 1007.8,-205.8 1006.48,-212.68"/>
</g>
<!-- Node21 -->
<g id="node21" class="node">
<title>Node21</title>
<g id="a_node21"><a xlink:href="classwmtk_1_1operations_1_1utils_1_1_update_edge_operation_multi_mesh_map_functor.html#aac119196791985369035cec5059809fd" target="_top" xlink:title=" ">
<polygon fill="none" stroke="black" points="800,-116.5 800,-157.5 981,-157.5 981,-116.5 800,-116.5"/>
<text text-anchor="start" x="808" y="-145.5" font-family="Helvetica,sans-Serif" font-size="10.00">wmtk::operations::utils</text>
<text text-anchor="start" x="808" y="-134.5" font-family="Helvetica,sans-Serif" font-size="10.00">::UpdateEdgeOperationMultiMesh</text>
<text text-anchor="middle" x="890.5" y="-123.5" font-family="Helvetica,sans-Serif" font-size="10.00">MapFunctor::operator()</text>
</a>
</g>
</g>
<!-- Node1&#45;&gt;Node21 -->
<g id="edge22" class="edge">
<title>Node1&#45;&gt;Node21</title>
<path fill="none" stroke="midnightblue" d="M1040.23,-203.81C1022.88,-193.67 1001.13,-181.54 981,-172 970.45,-167 958.97,-162.12 947.87,-157.66"/>
<polygon fill="midnightblue" stroke="midnightblue" points="1038.48,-206.84 1048.87,-208.91 1042.04,-200.81 1038.48,-206.84"/>
</g>
<!-- Node3 -->
<g id="node3" class="node">
<title>Node3</title>
<g id="a_node3"><a xlink:href="classwmtk_1_1_edge_mesh.html#a6e3be3f5a753ecbc208e791357efc7f2" target="_top" xlink:title="internal function that returns the tuple of requested type, and has the global index cid">
<polygon fill="none" stroke="black" points="629.5,-296 629.5,-326 760.5,-326 760.5,-296 629.5,-296"/>
<text text-anchor="start" x="637.5" y="-314" font-family="Helvetica,sans-Serif" font-size="10.00">wmtk::EdgeMesh::tuple</text>
<text text-anchor="middle" x="695" y="-303" font-family="Helvetica,sans-Serif" font-size="10.00">_from_id</text>
</a>
</g>
</g>
<!-- Node2&#45;&gt;Node3 -->
<g id="edge2" class="edge">
<title>Node2&#45;&gt;Node3</title>
<path fill="none" stroke="midnightblue" d="M814.47,-309.78C796.7,-309.96 777.9,-310.15 760.64,-310.33"/>
<polygon fill="midnightblue" stroke="midnightblue" points="814.84,-313.27 824.8,-309.67 814.76,-306.27 814.84,-313.27"/>
</g>
<!-- Node5 -->
<g id="node5" class="node">
<title>Node5</title>
<g id="a_node5"><a xlink:href="classwmtk_1_1_edge_mesh.html#a2f9c17ea9f4bf15e470e33d3e90ba4b7" target="_top" xlink:title="check if a simplex (encoded as a tuple/primitive pair) lies on a boundary or not">
<polygon fill="none" stroke="black" points="443,-346 443,-376 558,-376 558,-346 443,-346"/>
<text text-anchor="start" x="451" y="-364" font-family="Helvetica,sans-Serif" font-size="10.00">wmtk::EdgeMesh::is</text>
<text text-anchor="middle" x="500.5" y="-353" font-family="Helvetica,sans-Serif" font-size="10.00">_boundary</text>
</a>
</g>
</g>
<!-- Node4&#45;&gt;Node5 -->
<g id="edge4" class="edge">
<title>Node4&#45;&gt;Node5</title>
<path fill="none" stroke="midnightblue" d="M632.57,-281.78C630.3,-283.1 628.1,-284.51 626,-286 605.12,-300.83 610.97,-316.3 590,-331 580.44,-337.71 569.25,-343.01 558.11,-347.18"/>
<polygon fill="midnightblue" stroke="midnightblue" points="634.38,-284.78 641.63,-277.06 631.14,-278.58 634.38,-284.78"/>
</g>
<!-- Node6 -->
<g id="node6" class="node">
<title>Node6</title>
<g id="a_node6"><a xlink:href="namespacewmtk_1_1simplex.html#a0ca1602c328b51a103411fcac3d70ebe" target="_top" xlink:title="Check if the edge to collapse satisfying the link condition.">
<polygon fill="none" stroke="black" points="444,-220 444,-250 557,-250 557,-220 444,-220"/>
<text text-anchor="start" x="452" y="-238" font-family="Helvetica,sans-Serif" font-size="10.00">wmtk::simplex::link</text>
<text text-anchor="middle" x="500.5" y="-227" font-family="Helvetica,sans-Serif" font-size="10.00">_condition</text>
</a>
</g>
</g>
<!-- Node4&#45;&gt;Node6 -->
<g id="edge5" class="edge">
<title>Node4&#45;&gt;Node6</title>
<path fill="none" stroke="midnightblue" d="M627.31,-252.65C604.42,-249.44 579.06,-245.88 557.15,-242.8"/>
<polygon fill="midnightblue" stroke="midnightblue" points="626.9,-256.12 637.28,-254.05 627.87,-249.19 626.9,-256.12"/>
</g>
<!-- Node11 -->
<g id="node11" class="node">
<title>Node11</title>
<g id="a_node11"><a xlink:href="namespacewmtk_1_1simplex.html#ac133ab11355bb4cda7e8b1e3ed48226f" target="_top" xlink:title=" ">
<polygon fill="none" stroke="black" points="207.5,-308 207.5,-338 358.5,-338 358.5,-308 207.5,-308"/>
<text text-anchor="start" x="215.5" y="-326" font-family="Helvetica,sans-Serif" font-size="10.00">wmtk::simplex::top</text>
<text text-anchor="middle" x="283" y="-315" font-family="Helvetica,sans-Serif" font-size="10.00">_dimension_cofaces_tuples</text>
</a>
</g>
</g>
<!-- Node4&#45;&gt;Node11 -->
<g id="edge10" class="edge">
<title>Node4&#45;&gt;Node11</title>
<path fill="none" stroke="midnightblue" d="M641.63,-280.44C617.23,-288.98 592.89,-297.39 590,-298 512.15,-314.38 421.07,-320.16 358.64,-322.13"/>
<polygon fill="midnightblue" stroke="midnightblue" points="643.03,-283.66 651.31,-277.05 640.71,-277.06 643.03,-283.66"/>
</g>
<!-- Node7 -->
<g id="node7" class="node">
<title>Node7</title>
<g id="a_node7"><a xlink:href="namespacewmtk_1_1simplex.html#a3307260114e435efa2ea5848902fa5cb" target="_top" xlink:title=" ">
<polygon fill="none" stroke="black" points="226.5,-220 226.5,-250 339.5,-250 339.5,-220 226.5,-220"/>
<text text-anchor="start" x="234.5" y="-238" font-family="Helvetica,sans-Serif" font-size="10.00">wmtk::simplex::link</text>
<text text-anchor="middle" x="283" y="-227" font-family="Helvetica,sans-Serif" font-size="10.00">_condition</text>
</a>
</g>
</g>
<!-- Node6&#45;&gt;Node7 -->
<g id="edge6" class="edge">
<title>Node6&#45;&gt;Node7</title>
<path fill="none" stroke="midnightblue" d="M433.33,-235C403.3,-235 368.18,-235 339.54,-235"/>
<polygon fill="midnightblue" stroke="midnightblue" points="433.72,-238.5 443.72,-235 433.72,-231.5 433.72,-238.5"/>
</g>
<!-- Node8 -->
<g id="node8" class="node">
<title>Node8</title>
<g id="a_node8"><a xlink:href="namespacewmtk_1_1components_1_1internal.html#a8890d5e5bb5f11779d4e40e07882253a" target="_top" xlink:title=" ">
<polygon fill="none" stroke="black" points="206,-171 206,-201 360,-201 360,-171 206,-171"/>
<text text-anchor="start" x="214" y="-189" font-family="Helvetica,sans-Serif" font-size="10.00">wmtk::components::internal</text>
<text text-anchor="middle" x="283" y="-178" font-family="Helvetica,sans-Serif" font-size="10.00">::periodic_optimization</text>
</a>
</g>
</g>
<!-- Node6&#45;&gt;Node8 -->
<g id="edge7" class="edge">
<title>Node6&#45;&gt;Node8</title>
<path fill="none" stroke="midnightblue" d="M433.79,-220.06C407.31,-214.04 376.81,-207.1 350.27,-201.07"/>
<polygon fill="midnightblue" stroke="midnightblue" points="433.2,-223.51 443.72,-222.32 434.75,-216.69 433.2,-223.51"/>
</g>
<!-- Node10 -->
<g id="node10" class="node">
<title>Node10</title>
<g id="a_node10"><a xlink:href="namespacewmtk_1_1components.html#ac6ca52668bd22e164d4baf59ec533864" target="_top" xlink:title=" ">
<polygon fill="none" stroke="black" points="193.5,-269.5 193.5,-288.5 372.5,-288.5 372.5,-269.5 193.5,-269.5"/>
<text text-anchor="middle" x="283" y="-276.5" font-family="Helvetica,sans-Serif" font-size="10.00">wmtk::components::wildmeshing</text>
</a>
</g>
</g>
<!-- Node6&#45;&gt;Node10 -->
<g id="edge9" class="edge">
<title>Node6&#45;&gt;Node10</title>
<path fill="none" stroke="midnightblue" d="M433.63,-248.45C400.4,-255.23 360.88,-263.3 330.8,-269.44"/>
<polygon fill="midnightblue" stroke="midnightblue" points="434.63,-251.82 443.72,-246.39 433.23,-244.96 434.63,-251.82"/>
</g>
<!-- Node9 -->
<g id="node9" class="node">
<title>Node9</title>
<g id="a_node9"><a xlink:href="namespacewmtk_1_1components.html#a4166e4880553cfacbf79ac3515a637cd" target="_top" xlink:title=" ">
<polygon fill="none" stroke="black" points="0,-171 0,-201 155,-201 155,-171 0,-171"/>
<text text-anchor="start" x="8" y="-189" font-family="Helvetica,sans-Serif" font-size="10.00">wmtk::components::periodic</text>
<text text-anchor="middle" x="77.5" y="-178" font-family="Helvetica,sans-Serif" font-size="10.00">_optimization</text>
</a>
</g>
</g>
<!-- Node8&#45;&gt;Node9 -->
<g id="edge8" class="edge">
<title>Node8&#45;&gt;Node9</title>
<path fill="none" stroke="midnightblue" d="M195.72,-186C182.24,-186 168.39,-186 155.15,-186"/>
<polygon fill="midnightblue" stroke="midnightblue" points="195.93,-189.5 205.93,-186 195.93,-182.5 195.93,-189.5"/>
</g>
<!-- Node12&#45;&gt;Node13 -->
<g id="edge12" class="edge">
<title>Node12&#45;&gt;Node13</title>
<path fill="none" stroke="midnightblue" d="M830.63,-212.44C809.65,-208.32 785.86,-203.65 764.18,-199.39"/>
<polygon fill="midnightblue" stroke="midnightblue" points="830.18,-215.92 840.67,-214.41 831.53,-209.05 830.18,-215.92"/>
</g>
<!-- Node13&#45;&gt;Node6 -->
<g id="edge18" class="edge">
<title>Node13&#45;&gt;Node6</title>
<path fill="none" stroke="midnightblue" d="M625.19,-203.52C602.87,-209.2 578.4,-215.43 557.16,-220.83"/>
<polygon fill="midnightblue" stroke="midnightblue" points="626.11,-206.89 634.94,-201.03 624.38,-200.11 626.11,-206.89"/>
</g>
<!-- Node14 -->
<g id="node14" class="node">
<title>Node14</title>
<g id="a_node14"><a xlink:href="classwmtk_1_1_simplex_inversion_invariant.html#a1163728175bfbd4dc26f4861019ee591" target="_top" xlink:title="we assume with local vid order (v0,v1,v2,v3) has positive volume (orient3d(v0,v1,v2,...">
<polygon fill="none" stroke="black" points="411,-61 411,-91 590,-91 590,-61 411,-61"/>
<text text-anchor="start" x="419" y="-79" font-family="Helvetica,sans-Serif" font-size="10.00">wmtk::SimplexInversionInvariant</text>
<text text-anchor="middle" x="500.5" y="-68" font-family="Helvetica,sans-Serif" font-size="10.00">::after</text>
</a>
</g>
</g>
<!-- Node13&#45;&gt;Node14 -->
<g id="edge13" class="edge">
<title>Node13&#45;&gt;Node14</title>
<path fill="none" stroke="midnightblue" d="M672.3,-163.7C652.5,-144.53 621.59,-117.45 590,-101 582.64,-97.16 574.61,-93.86 566.5,-91.02"/>
<polygon fill="midnightblue" stroke="midnightblue" points="670,-166.34 679.57,-170.87 674.91,-161.35 670,-166.34"/>
</g>
<!-- Node15 -->
<g id="node15" class="node">
<title>Node15</title>
<g id="a_node15"><a xlink:href="classwmtk_1_1_edge_mesh_1_1_edge_mesh_operation_executor.html#ae365a598aaead39c4d9fa3a01d486fa6" target="_top" xlink:title="gather all simplices that are deleted in a collapse">
<polygon fill="none" stroke="black" points="418,-0.5 418,-41.5 583,-41.5 583,-0.5 418,-0.5"/>
<text text-anchor="start" x="426" y="-29.5" font-family="Helvetica,sans-Serif" font-size="10.00">wmtk::EdgeMesh::EdgeMesh</text>
<text text-anchor="start" x="426" y="-18.5" font-family="Helvetica,sans-Serif" font-size="10.00">OperationExecutor::get</text>
<text text-anchor="middle" x="500.5" y="-7.5" font-family="Helvetica,sans-Serif" font-size="10.00">_collapse_simplices_to_delete</text>
</a>
</g>
</g>
<!-- Node13&#45;&gt;Node15 -->
<g id="edge14" class="edge">
<title>Node13&#45;&gt;Node15</title>
<path fill="none" stroke="midnightblue" d="M681.23,-161.67C664.25,-131.57 631.48,-80.65 590,-51 585.12,-47.51 579.8,-44.4 574.27,-41.64"/>
<polygon fill="midnightblue" stroke="midnightblue" points="678.29,-163.59 686.18,-170.67 684.42,-160.22 678.29,-163.59"/>
</g>
<!-- Node16 -->
<g id="node16" class="node">
<title>Node16</title>
<g id="a_node16"><a xlink:href="classwmtk_1_1operations_1_1edge__mesh_1_1_edge_operation_data.html#a1953b7fc9b69dc5fb1adaac297a8b7d7" target="_top" xlink:title=" ">
<polygon fill="none" stroke="black" points="425.5,-110.5 425.5,-151.5 575.5,-151.5 575.5,-110.5 425.5,-110.5"/>
<text text-anchor="start" x="433.5" y="-139.5" font-family="Helvetica,sans-Serif" font-size="10.00">wmtk::operations::edge</text>
<text text-anchor="start" x="433.5" y="-128.5" font-family="Helvetica,sans-Serif" font-size="10.00">_mesh::EdgeOperationData</text>
<text text-anchor="middle" x="500.5" y="-117.5" font-family="Helvetica,sans-Serif" font-size="10.00">::input_endpoints</text>
</a>
</g>
</g>
<!-- Node13&#45;&gt;Node16 -->
<g id="edge15" class="edge">
<title>Node13&#45;&gt;Node16</title>
<path fill="none" stroke="midnightblue" d="M631.61,-168.17C613.07,-162.88 592.62,-157.03 573.52,-151.58"/>
<polygon fill="midnightblue" stroke="midnightblue" points="630.82,-171.59 641.4,-170.97 632.74,-164.86 630.82,-171.59"/>
</g>
<!-- Node19 -->
<g id="node19" class="node">
<title>Node19</title>
<g id="a_node19"><a xlink:href="classwmtk_1_1_edge_mesh.html#a04f6595fe85e52dc6bf1e02512120100" target="_top" xlink:title=" ">
<polygon fill="none" stroke="black" points="417,-269.5 417,-288.5 584,-288.5 584,-269.5 417,-269.5"/>
<text text-anchor="middle" x="500.5" y="-276.5" font-family="Helvetica,sans-Serif" font-size="10.00">wmtk::EdgeMesh::switch_edge</text>
</a>
</g>
</g>
<!-- Node13&#45;&gt;Node19 -->
<g id="edge19" class="edge">
<title>Node13&#45;&gt;Node19</title>
<path fill="none" stroke="midnightblue" d="M666.15,-207.4C641.06,-226.34 605.76,-252.01 590,-259 580.35,-263.28 569.69,-266.68 559.21,-269.38"/>
<polygon fill="midnightblue" stroke="midnightblue" points="668.37,-210.11 674.23,-201.28 664.14,-204.53 668.37,-210.11"/>
</g>
<!-- Node20 -->
<g id="node20" class="node">
<title>Node20</title>
<g id="a_node20"><a xlink:href="classwmtk_1_1_edge_mesh.html#a20b926a28b5f5e906085c2ac84e706f5" target="_top" xlink:title=" ">
<polygon fill="none" stroke="black" points="431.5,-171 431.5,-201 569.5,-201 569.5,-171 431.5,-171"/>
<text text-anchor="start" x="439.5" y="-189" font-family="Helvetica,sans-Serif" font-size="10.00">wmtk::EdgeMesh::switch</text>
<text text-anchor="middle" x="500.5" y="-178" font-family="Helvetica,sans-Serif" font-size="10.00">_vertex</text>
</a>
</g>
</g>
<!-- Node13&#45;&gt;Node20 -->
<g id="edge21" class="edge">
<title>Node13&#45;&gt;Node20</title>
<path fill="none" stroke="midnightblue" d="M615.44,-186C600.22,-186 584.39,-186 569.55,-186"/>
<polygon fill="midnightblue" stroke="midnightblue" points="615.86,-189.5 625.86,-186 615.86,-182.5 615.86,-189.5"/>
</g>
<!-- Node17 -->
<g id="node17" class="node">
<title>Node17</title>
<g id="a_node17"><a xlink:href="classwmtk_1_1operations_1_1edge__mesh_1_1_split_new_attribute_topo_info.html#a8e9e1fb7ca8656fb98295b118a54b909" target="_top" xlink:title=" ">
<polygon fill="none" stroke="black" points="201,-50.5 201,-91.5 365,-91.5 365,-50.5 201,-50.5"/>
<text text-anchor="start" x="209" y="-79.5" font-family="Helvetica,sans-Serif" font-size="10.00">wmtk::operations::edge</text>
<text text-anchor="start" x="209" y="-68.5" font-family="Helvetica,sans-Serif" font-size="10.00">_mesh::SplitNewAttributeTopo</text>
<text text-anchor="middle" x="283" y="-57.5" font-family="Helvetica,sans-Serif" font-size="10.00">Info::input_ear_simplices</text>
</a>
</g>
</g>
<!-- Node16&#45;&gt;Node17 -->
<g id="edge16" class="edge">
<title>Node16&#45;&gt;Node17</title>
<path fill="none" stroke="midnightblue" d="M415.75,-107.68C396.62,-102.36 376.44,-96.74 357.76,-91.54"/>
<polygon fill="midnightblue" stroke="midnightblue" points="415.07,-111.12 425.64,-110.44 416.94,-104.38 415.07,-111.12"/>
</g>
<!-- Node18 -->
<g id="node18" class="node">
<title>Node18</title>
<g id="a_node18"><a xlink:href="classwmtk_1_1operations_1_1edge__mesh_1_1_collapse_new_attribute_topo_info.html#a31c7178dc84390c7c693f4294a8f0f26" target="_top" xlink:title=" ">
<polygon fill="none" stroke="black" points="191,-110.5 191,-151.5 375,-151.5 375,-110.5 191,-110.5"/>
<text text-anchor="start" x="199" y="-139.5" font-family="Helvetica,sans-Serif" font-size="10.00">wmtk::operations::edge</text>
<text text-anchor="start" x="199" y="-128.5" font-family="Helvetica,sans-Serif" font-size="10.00">_mesh::CollapseNewAttributeTopo</text>
<text text-anchor="middle" x="283" y="-117.5" font-family="Helvetica,sans-Serif" font-size="10.00">Info::merged_simplices</text>
</a>
</g>
</g>
<!-- Node16&#45;&gt;Node18 -->
<g id="edge17" class="edge">
<title>Node16&#45;&gt;Node18</title>
<path fill="none" stroke="midnightblue" d="M414.96,-131C401.86,-131 388.29,-131 375.06,-131"/>
<polygon fill="midnightblue" stroke="midnightblue" points="415.34,-134.5 425.34,-131 415.34,-127.5 415.34,-134.5"/>
</g>
<!-- Node19&#45;&gt;Node11 -->
<g id="edge20" class="edge">
<title>Node19&#45;&gt;Node11</title>
<path fill="none" stroke="midnightblue" d="M442.68,-290.6C416.69,-295.91 385.56,-302.26 357.79,-307.93"/>
<polygon fill="midnightblue" stroke="midnightblue" points="443.64,-293.98 452.74,-288.55 442.24,-287.12 443.64,-293.98"/>
</g>
</g>
</svg>
