<?xml version="1.0" encoding="UTF-8" standalone="no"?>
<!DOCTYPE svg PUBLIC "-//W3C//DTD SVG 1.1//EN"
 "http://www.w3.org/Graphics/SVG/1.1/DTD/svg11.dtd">
<!-- Generated by graphviz version 2.43.0 (0)
 -->
<!-- Title: wmtk::EdgeMesh::EdgeMeshOperationExecutor Pages: 1 -->
<svg width="3067pt" height="293pt"
 viewBox="0.00 0.00 3067.00 293.08" xmlns="http://www.w3.org/2000/svg" xmlns:xlink="http://www.w3.org/1999/xlink">
<g id="graph0" class="graph" transform="scale(1 1) rotate(0) translate(4 289.08)">
<title>wmtk::EdgeMesh::EdgeMeshOperationExecutor</title>
<!-- Node1 -->
<g id="node1" class="node">
<title>Node1</title>
<g id="a_node1"><a xlink:title=" ">
<polygon fill="#bfbfbf" stroke="black" points="2902,-170 2902,-200 3059,-200 3059,-170 2902,-170"/>
<text text-anchor="start" x="2910" y="-188" font-family="Helvetica,sans-Serif" font-size="10.00">wmtk::EdgeMesh::EdgeMesh</text>
<text text-anchor="middle" x="2980.5" y="-177" font-family="Helvetica,sans-Serif" font-size="10.00">OperationExecutor</text>
</a>
</g>
</g>
<!-- Node2 -->
<g id="node2" class="node">
<title>Node2</title>
<g id="a_node2"><a xlink:href="classwmtk_1_1operations_1_1edge__mesh_1_1_edge_operation_data.html" target="_top" xlink:title=" ">
<polygon fill="none" stroke="black" points="2645.5,-227 2645.5,-257 2795.5,-257 2795.5,-227 2645.5,-227"/>
<text text-anchor="start" x="2653.5" y="-245" font-family="Helvetica,sans-Serif" font-size="10.00">wmtk::operations::edge</text>
<text text-anchor="middle" x="2720.5" y="-234" font-family="Helvetica,sans-Serif" font-size="10.00">_mesh::EdgeOperationData</text>
</a>
</g>
</g>
<!-- Node2&#45;&gt;Node1 -->
<g id="edge1" class="edge">
<title>Node2&#45;&gt;Node1</title>
<path fill="none" stroke="midnightblue" d="M2805.79,-235.63C2831.17,-232.64 2858.93,-228.3 2884,-222 2905.38,-216.63 2928.46,-207.78 2946.57,-200.08"/>
<polygon fill="midnightblue" stroke="midnightblue" points="2805.37,-232.15 2795.82,-236.75 2806.15,-239.11 2805.37,-232.15"/>
</g>
<!-- Node3 -->
<g id="node3" class="node">
<title>Node3</title>
<g id="a_node3"><a xlink:href="classwmtk_1_1operations_1_1_edge_operation_data.html" target="_top" xlink:title=" ">
<polygon fill="none" stroke="black" points="2250,-242.5 2250,-261.5 2453,-261.5 2453,-242.5 2250,-242.5"/>
<text text-anchor="middle" x="2351.5" y="-249.5" font-family="Helvetica,sans-Serif" font-size="10.00">wmtk::operations::EdgeOperationData</text>
</a>
</g>
</g>
<!-- Node3&#45;&gt;Node2 -->
<g id="edge2" class="edge">
<title>Node3&#45;&gt;Node2</title>
<path fill="none" stroke="midnightblue" d="M2463.38,-248.98C2522.33,-247.37 2593.21,-245.44 2645.44,-244.02"/>
<polygon fill="midnightblue" stroke="midnightblue" points="2463.17,-245.48 2453.27,-249.25 2463.36,-252.48 2463.17,-245.48"/>
</g>
<!-- Node4 -->
<g id="node4" class="node">
<title>Node4</title>
<g id="a_node4"><a xlink:href="classwmtk_1_1_tuple.html" target="_top" xlink:title=" ">
<polygon fill="none" stroke="black" points="1995.5,-242.5 1995.5,-261.5 2071.5,-261.5 2071.5,-242.5 1995.5,-242.5"/>
<text text-anchor="middle" x="2033.5" y="-249.5" font-family="Helvetica,sans-Serif" font-size="10.00">wmtk::Tuple</text>
</a>
</g>
</g>
<!-- Node4&#45;&gt;Node3 -->
<g id="edge3" class="edge">
<title>Node4&#45;&gt;Node3</title>
<path fill="none" stroke="#9a32cd" stroke-dasharray="5,2" d="M2081.86,-252C2126.14,-252 2193.7,-252 2249.99,-252"/>
<polygon fill="#9a32cd" stroke="#9a32cd" points="2081.68,-248.5 2071.68,-252 2081.68,-255.5 2081.68,-248.5"/>
<text text-anchor="middle" x="2184.5" y="-266" font-family="Helvetica,sans-Serif" font-size="10.00"> m_operating_tuple</text>
<text text-anchor="middle" x="2184.5" y="-255" font-family="Helvetica,sans-Serif" font-size="10.00">m_output_tuple</text>
</g>
<!-- Node5 -->
<g id="node5" class="node">
<title>Node5</title>
<g id="a_node5"><a xlink:href="classwmtk_1_1_edge_mesh.html" target="_top" xlink:title=" ">
<polygon fill="none" stroke="black" points="1678,-68.5 1678,-87.5 1779,-87.5 1779,-68.5 1678,-68.5"/>
<text text-anchor="middle" x="1728.5" y="-75.5" font-family="Helvetica,sans-Serif" font-size="10.00">wmtk::EdgeMesh</text>
</a>
</g>
</g>
<!-- Node5&#45;&gt;Node1 -->
<g id="edge4" class="edge">
<title>Node5&#45;&gt;Node1</title>
<path fill="none" stroke="#9a32cd" stroke-dasharray="5,2" d="M1789.22,-85.53C1850.25,-92.57 1947.82,-102 2032.5,-102 2032.5,-102 2032.5,-102 2721.5,-102 2809.25,-102 2906.08,-146.05 2952.18,-169.97"/>
<polygon fill="#9a32cd" stroke="#9a32cd" points="1789.34,-82.02 1779,-84.34 1788.53,-88.98 1789.34,-82.02"/>
<text text-anchor="middle" x="2351.5" y="-105" font-family="Helvetica,sans-Serif" font-size="10.00"> m_mesh</text>
</g>
<!-- Node6 -->
<g id="node6" class="node">
<title>Node6</title>
<g id="a_node6"><a xlink:href="classwmtk_1_1_mesh_c_r_t_p.html" target="_top" xlink:title=" ">
<polygon fill="none" stroke="black" points="1449,-68.5 1449,-87.5 1623,-87.5 1623,-68.5 1449,-68.5"/>
<text text-anchor="middle" x="1536" y="-75.5" font-family="Helvetica,sans-Serif" font-size="10.00">wmtk::MeshCRTP&lt; EdgeMesh &gt;</text>
</a>
</g>
</g>
<!-- Node6&#45;&gt;Node5 -->
<g id="edge5" class="edge">
<title>Node6&#45;&gt;Node5</title>
<path fill="none" stroke="midnightblue" d="M1633.18,-78C1648.61,-78 1664.01,-78 1677.76,-78"/>
<polygon fill="midnightblue" stroke="midnightblue" points="1633.05,-74.5 1623.05,-78 1633.05,-81.5 1633.05,-74.5"/>
</g>
<!-- Node7 -->
<g id="node7" class="node">
<title>Node7</title>
<g id="a_node7"><a xlink:href="classwmtk_1_1_mesh.html" target="_top" xlink:title=" ">
<polygon fill="none" stroke="black" points="879,-135.5 879,-154.5 956,-154.5 956,-135.5 879,-135.5"/>
<text text-anchor="middle" x="917.5" y="-142.5" font-family="Helvetica,sans-Serif" font-size="10.00">wmtk::Mesh</text>
</a>
</g>
</g>
<!-- Node7&#45;&gt;Node6 -->
<g id="edge6" class="edge">
<title>Node7&#45;&gt;Node6</title>
<path fill="none" stroke="midnightblue" d="M950.47,-131.7C963.51,-126.62 978.82,-121.07 993,-117 1148.96,-72.19 1340.01,-69.99 1448.6,-73.37"/>
<polygon fill="midnightblue" stroke="midnightblue" points="949.01,-128.52 941.01,-135.47 951.59,-135.02 949.01,-128.52"/>
</g>
<!-- Node15 -->
<g id="node15" class="node">
<title>Node15</title>
<g id="a_node15"><a xlink:href="classwmtk_1_1multimesh_1_1_multi_mesh_manager.html" target="_top" xlink:title="Implementation details for how the Mesh class implements multiple meshes.">
<polygon fill="none" stroke="black" points="1137,-140 1137,-170 1297,-170 1297,-140 1137,-140"/>
<text text-anchor="start" x="1145" y="-158" font-family="Helvetica,sans-Serif" font-size="10.00">wmtk::multimesh::MultiMesh</text>
<text text-anchor="middle" x="1217" y="-147" font-family="Helvetica,sans-Serif" font-size="10.00">Manager</text>
</a>
</g>
</g>
<!-- Node7&#45;&gt;Node15 -->
<g id="edge18" class="edge">
<title>Node7&#45;&gt;Node15</title>
<path fill="none" stroke="#9a32cd" stroke-dasharray="5,2" d="M966.25,-143.53C975.14,-143.31 984.35,-143.12 993,-143 1048.55,-142.25 1062.55,-139.62 1118,-143 1124.16,-143.38 1130.52,-143.88 1136.92,-144.48"/>
<polygon fill="#9a32cd" stroke="#9a32cd" points="965.92,-140.04 956.01,-143.8 966.1,-147.03 965.92,-140.04"/>
<text text-anchor="middle" x="1055.5" y="-146" font-family="Helvetica,sans-Serif" font-size="10.00"> m_parent</text>
</g>
<!-- Node16 -->
<g id="node16" class="node">
<title>Node16</title>
<g id="a_node16"><a xlink:href="classwmtk_1_1_mesh_c_r_t_p.html" target="_top" xlink:title="A Curiously Recurring Template Pattern shim to enable generic specialization of functions.">
<polygon fill="none" stroke="black" points="1136,-97.5 1136,-116.5 1298,-116.5 1298,-97.5 1136,-97.5"/>
<text text-anchor="middle" x="1217" y="-104.5" font-family="Helvetica,sans-Serif" font-size="10.00">wmtk::MeshCRTP&lt; Derived &gt;</text>
</a>
</g>
</g>
<!-- Node7&#45;&gt;Node16 -->
<g id="edge20" class="edge">
<title>Node7&#45;&gt;Node16</title>
<path fill="none" stroke="midnightblue" d="M966.15,-138.91C1013.45,-132.87 1086.64,-123.52 1141.6,-116.5"/>
<polygon fill="midnightblue" stroke="midnightblue" points="965.65,-135.45 956.18,-140.19 966.54,-142.39 965.65,-135.45"/>
</g>
<!-- Node20 -->
<g id="node20" class="node">
<title>Node20</title>
<g id="a_node20"><a xlink:href="classwmtk_1_1attribute_1_1_accessor_base.html" target="_top" xlink:title=" ">
<polygon fill="none" stroke="black" points="1146,-191 1146,-221 1288,-221 1288,-191 1146,-191"/>
<text text-anchor="start" x="1154" y="-209" font-family="Helvetica,sans-Serif" font-size="10.00">wmtk::attribute::Accessor</text>
<text text-anchor="middle" x="1217" y="-198" font-family="Helvetica,sans-Serif" font-size="10.00">Base&lt; _T, Dim &gt;</text>
</a>
</g>
</g>
<!-- Node7&#45;&gt;Node20 -->
<g id="edge26" class="edge">
<title>Node7&#45;&gt;Node20</title>
<path fill="none" stroke="#9a32cd" stroke-dasharray="5,2" d="M948.48,-158.48C961.87,-164.02 977.99,-170.06 993,-174 1043.31,-187.22 1101.54,-195.34 1145.87,-200.09"/>
<polygon fill="#9a32cd" stroke="#9a32cd" points="949.84,-155.25 939.27,-154.56 947.1,-161.7 949.84,-155.25"/>
<text text-anchor="middle" x="1055.5" y="-199" font-family="Helvetica,sans-Serif" font-size="10.00"> m_mesh</text>
</g>
<!-- Node8 -->
<g id="node8" class="node">
<title>Node8</title>
<g id="a_node8"><a xlink:title=" ">
<polygon fill="none" stroke="#bfbfbf" points="571.5,-115 571.5,-145 688.5,-145 688.5,-115 571.5,-115"/>
<text text-anchor="start" x="579.5" y="-133" font-family="Helvetica,sans-Serif" font-size="10.00">std::enable_shared</text>
<text text-anchor="middle" x="630" y="-122" font-family="Helvetica,sans-Serif" font-size="10.00">_from_this&lt; Mesh &gt;</text>
</a>
</g>
</g>
<!-- Node8&#45;&gt;Node7 -->
<g id="edge7" class="edge">
<title>Node8&#45;&gt;Node7</title>
<path fill="none" stroke="midnightblue" d="M699.02,-133.57C755.29,-136.53 833.15,-140.62 878.83,-143.02"/>
<polygon fill="midnightblue" stroke="midnightblue" points="698.95,-130.07 688.78,-133.04 698.58,-137.06 698.95,-130.07"/>
</g>
<!-- Node9 -->
<g id="node9" class="node">
<title>Node9</title>
<g id="a_node9"><a xlink:href="classwmtk_1_1utils_1_1_merkle_tree_interior_node.html" target="_top" xlink:title=" ">
<polygon fill="none" stroke="black" points="257,-208.5 257,-227.5 449,-227.5 449,-208.5 257,-208.5"/>
<text text-anchor="middle" x="353" y="-215.5" font-family="Helvetica,sans-Serif" font-size="10.00">wmtk::utils::MerkleTreeInteriorNode</text>
</a>
</g>
</g>
<!-- Node9&#45;&gt;Node7 -->
<g id="edge8" class="edge">
<title>Node9&#45;&gt;Node7</title>
<path fill="none" stroke="midnightblue" d="M437.45,-207.17C561.41,-191.08 789.18,-161.52 878.83,-149.89"/>
<polygon fill="midnightblue" stroke="midnightblue" points="436.71,-203.74 427.25,-208.49 437.62,-210.68 436.71,-203.74"/>
</g>
<!-- Node11 -->
<g id="node11" class="node">
<title>Node11</title>
<g id="a_node11"><a xlink:href="classwmtk_1_1attribute_1_1_attribute_manager.html" target="_top" xlink:title=" ">
<polygon fill="none" stroke="black" points="559.5,-203 559.5,-233 700.5,-233 700.5,-203 559.5,-203"/>
<text text-anchor="start" x="567.5" y="-221" font-family="Helvetica,sans-Serif" font-size="10.00">wmtk::attribute::Attribute</text>
<text text-anchor="middle" x="630" y="-210" font-family="Helvetica,sans-Serif" font-size="10.00">Manager</text>
</a>
</g>
</g>
<!-- Node9&#45;&gt;Node11 -->
<g id="edge11" class="edge">
<title>Node9&#45;&gt;Node11</title>
<path fill="none" stroke="midnightblue" d="M459.3,-218C492.73,-218 528.85,-218 559.14,-218"/>
<polygon fill="midnightblue" stroke="midnightblue" points="459.02,-214.5 449.02,-218 459.02,-221.5 459.02,-214.5"/>
</g>
<!-- Node9&#45;&gt;Node15 -->
<g id="edge16" class="edge">
<title>Node9&#45;&gt;Node15</title>
<path fill="none" stroke="midnightblue" d="M421.5,-229.01C457.96,-234.41 503.82,-240.32 545,-243 799.52,-259.59 900.19,-343.72 1118,-211 1130.95,-203.11 1124.11,-191.42 1136,-182 1141.97,-177.26 1148.82,-173.34 1155.94,-170.09"/>
<polygon fill="midnightblue" stroke="midnightblue" points="421.89,-225.53 411.48,-227.51 420.85,-232.45 421.89,-225.53"/>
</g>
<!-- Node10 -->
<g id="node10" class="node">
<title>Node10</title>
<g id="a_node10"><a xlink:href="classwmtk_1_1utils_1_1_hashable.html" target="_top" xlink:title=" ">
<polygon fill="none" stroke="black" points="9,-208.5 9,-227.5 132,-227.5 132,-208.5 9,-208.5"/>
<text text-anchor="middle" x="70.5" y="-215.5" font-family="Helvetica,sans-Serif" font-size="10.00">wmtk::utils::Hashable</text>
</a>
</g>
</g>
<!-- Node10&#45;&gt;Node9 -->
<g id="edge9" class="edge">
<title>Node10&#45;&gt;Node9</title>
<path fill="none" stroke="midnightblue" d="M142.08,-218C176.84,-218 219.25,-218 256.84,-218"/>
<polygon fill="midnightblue" stroke="midnightblue" points="142.02,-214.5 132.02,-218 142.02,-221.5 142.02,-214.5"/>
</g>
<!-- Node11&#45;&gt;Node7 -->
<g id="edge10" class="edge">
<title>Node11&#45;&gt;Node7</title>
<path fill="none" stroke="#9a32cd" stroke-dasharray="5,2" d="M710.54,-213.89C750.8,-210.02 799.92,-202.52 842,-188 865.15,-180.01 889.21,-164.61 903.52,-154.57"/>
<polygon fill="#9a32cd" stroke="#9a32cd" points="710.15,-210.41 700.5,-214.8 710.78,-217.38 710.15,-210.41"/>
<text text-anchor="middle" x="787.5" y="-214" font-family="Helvetica,sans-Serif" font-size="10.00"> m_attribute_manager</text>
</g>
<!-- Node12 -->
<g id="node12" class="node">
<title>Node12</title>
<g id="a_node12"><a xlink:href="classwmtk_1_1attribute_1_1_typed_attribute_handle.html" target="_top" xlink:title=" ">
<polygon fill="none" stroke="black" points="545,-66 545,-96 715,-96 715,-66 545,-66"/>
<text text-anchor="start" x="553" y="-84" font-family="Helvetica,sans-Serif" font-size="10.00">wmtk::attribute::TypedAttribute</text>
<text text-anchor="middle" x="630" y="-73" font-family="Helvetica,sans-Serif" font-size="10.00">Handle&lt; int64_t &gt;</text>
</a>
</g>
</g>
<!-- Node12&#45;&gt;Node5 -->
<g id="edge21" class="edge">
<title>Node12&#45;&gt;Node5</title>
<path fill="none" stroke="#9a32cd" stroke-dasharray="5,2" d="M671.59,-61.8C726.04,-37.85 826.34,0 916.5,0 916.5,0 916.5,0 1537,0 1608.48,0 1684.54,-47.61 1714.4,-68.44"/>
<polygon fill="#9a32cd" stroke="#9a32cd" points="669.99,-58.68 662.29,-65.95 672.84,-65.07 669.99,-58.68"/>
<text text-anchor="middle" x="1217" y="-25" font-family="Helvetica,sans-Serif" font-size="10.00"> m_ee_handle</text>
<text text-anchor="middle" x="1217" y="-14" font-family="Helvetica,sans-Serif" font-size="10.00">m_ev_handle</text>
<text text-anchor="middle" x="1217" y="-3" font-family="Helvetica,sans-Serif" font-size="10.00">m_ve_handle</text>
</g>
<!-- Node12&#45;&gt;Node7 -->
<g id="edge12" class="edge">
<title>Node12&#45;&gt;Node7</title>
<path fill="none" stroke="#9a32cd" stroke-dasharray="5,2" d="M725.39,-96.31C762.02,-102.92 804.19,-111.36 842,-121 857.93,-125.06 875.45,-130.64 889.49,-135.4"/>
<polygon fill="#9a32cd" stroke="#9a32cd" points="725.67,-92.8 715.21,-94.49 724.44,-99.69 725.67,-92.8"/>
<text text-anchor="middle" x="787.5" y="-124" font-family="Helvetica,sans-Serif" font-size="10.00"> m_cell_hash_handle</text>
</g>
<!-- Node12&#45;&gt;Node15 -->
<g id="edge17" class="edge">
<title>Node12&#45;&gt;Node15</title>
<path fill="none" stroke="#9a32cd" stroke-dasharray="5,2" d="M725.36,-89.04C761.82,-92.27 803.87,-96.13 842,-100 901.18,-106 916.06,-106.94 975,-115 1038.78,-123.72 1054.51,-127.39 1118,-138 1124.13,-139.02 1130.48,-140.1 1136.85,-141.18"/>
<polygon fill="#9a32cd" stroke="#9a32cd" points="725.5,-85.54 715.23,-88.15 724.89,-92.51 725.5,-85.54"/>
<text text-anchor="middle" x="917.5" y="-118" font-family="Helvetica,sans-Serif" font-size="10.00"> map_to_parent_handle</text>
</g>
<!-- Node13 -->
<g id="node13" class="node">
<title>Node13</title>
<g id="a_node13"><a xlink:href="classwmtk_1_1attribute_1_1_typed_attribute_handle.html" target="_top" xlink:title="Handle that represents attributes for some mesh.">
<polygon fill="none" stroke="black" points="268,-66 268,-96 438,-96 438,-66 268,-66"/>
<text text-anchor="start" x="276" y="-84" font-family="Helvetica,sans-Serif" font-size="10.00">wmtk::attribute::TypedAttribute</text>
<text text-anchor="middle" x="353" y="-73" font-family="Helvetica,sans-Serif" font-size="10.00">Handle&lt; T &gt;</text>
</a>
</g>
</g>
<!-- Node13&#45;&gt;Node12 -->
<g id="edge13" class="edge">
<title>Node13&#45;&gt;Node12</title>
<path fill="none" stroke="orange" stroke-dasharray="5,2" d="M448.04,-81C479.36,-81 514.02,-81 544.56,-81"/>
<polygon fill="orange" stroke="orange" points="448,-77.5 438,-81 448,-84.5 448,-77.5"/>
<text text-anchor="middle" x="497" y="-84" font-family="Helvetica,sans-Serif" font-size="10.00"> &lt; int64_t &gt;</text>
</g>
<!-- Node14 -->
<g id="node14" class="node">
<title>Node14</title>
<g id="a_node14"><a xlink:href="classwmtk_1_1attribute_1_1_attribute_handle.html" target="_top" xlink:title="Internal handle representation used by MeshAttributes.">
<polygon fill="none" stroke="black" points="0,-66 0,-96 141,-96 141,-66 0,-66"/>
<text text-anchor="start" x="8" y="-84" font-family="Helvetica,sans-Serif" font-size="10.00">wmtk::attribute::Attribute</text>
<text text-anchor="middle" x="70.5" y="-73" font-family="Helvetica,sans-Serif" font-size="10.00">Handle</text>
</a>
</g>
</g>
<!-- Node14&#45;&gt;Node13 -->
<g id="edge14" class="edge">
<title>Node14&#45;&gt;Node13</title>
<path fill="none" stroke="#9a32cd" stroke-dasharray="5,2" d="M151.29,-81C187.75,-81 230.95,-81 267.91,-81"/>
<polygon fill="#9a32cd" stroke="#9a32cd" points="151.2,-77.5 141.2,-81 151.2,-84.5 151.2,-77.5"/>
<text text-anchor="middle" x="199" y="-84" font-family="Helvetica,sans-Serif" font-size="10.00"> m_base_handle</text>
</g>
<!-- Node15&#45;&gt;Node7 -->
<g id="edge15" class="edge">
<title>Node15&#45;&gt;Node7</title>
<path fill="none" stroke="#9a32cd" stroke-dasharray="5,2" d="M1126.75,-158.57C1085.93,-159.39 1036.96,-159.23 993,-156 981,-155.12 968.01,-153.45 956.28,-151.67"/>
<polygon fill="#9a32cd" stroke="#9a32cd" points="1127.03,-162.06 1136.95,-158.34 1126.87,-155.06 1127.03,-162.06"/>
<text text-anchor="middle" x="1055.5" y="-162" font-family="Helvetica,sans-Serif" font-size="10.00"> m_multi_mesh_manager</text>
</g>
<!-- Node16&#45;&gt;Node6 -->
<g id="edge19" class="edge">
<title>Node16&#45;&gt;Node6</title>
<path fill="none" stroke="orange" stroke-dasharray="5,2" d="M1308.54,-98.72C1352.62,-94.68 1405.36,-89.86 1448.85,-85.88"/>
<polygon fill="orange" stroke="orange" points="1308.04,-95.25 1298.4,-99.64 1308.68,-102.22 1308.04,-95.25"/>
<text text-anchor="middle" x="1373.5" y="-101" font-family="Helvetica,sans-Serif" font-size="10.00"> &lt; EdgeMesh &gt;</text>
</g>
<!-- Node17 -->
<g id="node17" class="node">
<title>Node17</title>
<g id="a_node17"><a xlink:href="classwmtk_1_1attribute_1_1_accessor.html" target="_top" xlink:title=" ">
<polygon fill="none" stroke="black" points="2639,-170 2639,-200 2802,-200 2802,-170 2639,-170"/>
<text text-anchor="start" x="2647" y="-188" font-family="Helvetica,sans-Serif" font-size="10.00">wmtk::attribute::Accessor</text>
<text text-anchor="middle" x="2720.5" y="-177" font-family="Helvetica,sans-Serif" font-size="10.00">&lt; int64_t, wmtk::EdgeMesh &gt;</text>
</a>
</g>
</g>
<!-- Node17&#45;&gt;Node1 -->
<g id="edge22" class="edge">
<title>Node17&#45;&gt;Node1</title>
<path fill="none" stroke="#9a32cd" stroke-dasharray="5,2" d="M2812.27,-185C2841.48,-185 2873.56,-185 2901.75,-185"/>
<polygon fill="#9a32cd" stroke="#9a32cd" points="2812.07,-181.5 2802.07,-185 2812.07,-188.5 2812.07,-181.5"/>
<text text-anchor="middle" x="2852" y="-210" font-family="Helvetica,sans-Serif" font-size="10.00"> ee_accessor</text>
<text text-anchor="middle" x="2852" y="-199" font-family="Helvetica,sans-Serif" font-size="10.00">ev_accessor</text>
<text text-anchor="middle" x="2852" y="-188" font-family="Helvetica,sans-Serif" font-size="10.00">ve_accessor</text>
</g>
<!-- Node18 -->
<g id="node18" class="node">
<title>Node18</title>
<g id="a_node18"><a xlink:href="classwmtk_1_1attribute_1_1_caching_accessor.html" target="_top" xlink:title="An accessor for cached attribute values.">
<polygon fill="none" stroke="black" points="1660,-191 1660,-221 1797,-221 1797,-191 1660,-191"/>
<text text-anchor="start" x="1668" y="-209" font-family="Helvetica,sans-Serif" font-size="10.00">wmtk::attribute::Caching</text>
<text text-anchor="middle" x="1728.5" y="-198" font-family="Helvetica,sans-Serif" font-size="10.00">Accessor&lt; T, Dim &gt;</text>
</a>
</g>
</g>
<!-- Node18&#45;&gt;Node17 -->
<g id="edge23" class="edge">
<title>Node18&#45;&gt;Node17</title>
<path fill="none" stroke="darkgreen" d="M1807.6,-207.36C1962.76,-209.56 2320.76,-212.06 2621,-195 2626.83,-194.67 2632.86,-194.25 2638.91,-193.77"/>
<polygon fill="darkgreen" stroke="darkgreen" points="1807.28,-203.86 1797.23,-207.21 1807.18,-210.86 1807.28,-203.86"/>
</g>
<!-- Node22 -->
<g id="node22" class="node">
<title>Node22</title>
<g id="a_node22"><a xlink:href="classwmtk_1_1attribute_1_1_caching_accessor.html" target="_top" xlink:title=" ">
<polygon fill="none" stroke="black" points="1948,-155 1948,-185 2119,-185 2119,-155 1948,-155"/>
<text text-anchor="start" x="1956" y="-173" font-family="Helvetica,sans-Serif" font-size="10.00">wmtk::attribute::Caching</text>
<text text-anchor="middle" x="2033.5" y="-162" font-family="Helvetica,sans-Serif" font-size="10.00">Accessor&lt; T, Eigen::Dynamic &gt;</text>
</a>
</g>
</g>
<!-- Node18&#45;&gt;Node22 -->
<g id="edge30" class="edge">
<title>Node18&#45;&gt;Node22</title>
<path fill="none" stroke="orange" stroke-dasharray="5,2" d="M1806.95,-190.21C1809.66,-189.78 1812.35,-189.38 1815,-189 1858.62,-182.78 1907.48,-178.29 1947.82,-175.24"/>
<polygon fill="orange" stroke="orange" points="1806.35,-186.77 1797.06,-191.86 1807.5,-193.67 1806.35,-186.77"/>
<text text-anchor="middle" x="1872.5" y="-192" font-family="Helvetica,sans-Serif" font-size="10.00"> &lt; T, Eigen::Dynamic &gt;</text>
</g>
<!-- Node19 -->
<g id="node19" class="node">
<title>Node19</title>
<g id="a_node19"><a xlink:href="classwmtk_1_1attribute_1_1_accessor_base.html" target="_top" xlink:title=" ">
<polygon fill="none" stroke="black" points="1460,-191 1460,-221 1612,-221 1612,-191 1460,-191"/>
<text text-anchor="start" x="1468" y="-209" font-family="Helvetica,sans-Serif" font-size="10.00">wmtk::attribute::Accessor</text>
<text text-anchor="middle" x="1536" y="-198" font-family="Helvetica,sans-Serif" font-size="10.00">Base&lt; T, Eigen::Dynamic &gt;</text>
</a>
</g>
</g>
<!-- Node19&#45;&gt;Node18 -->
<g id="edge24" class="edge">
<title>Node19&#45;&gt;Node18</title>
<path fill="none" stroke="midnightblue" d="M1622.12,-206C1634.8,-206 1647.73,-206 1659.98,-206"/>
<polygon fill="midnightblue" stroke="midnightblue" points="1622.02,-202.5 1612.02,-206 1622.02,-209.5 1622.02,-202.5"/>
</g>
<!-- Node20&#45;&gt;Node19 -->
<g id="edge25" class="edge">
<title>Node20&#45;&gt;Node19</title>
<path fill="none" stroke="orange" stroke-dasharray="5,2" d="M1298.41,-206C1348.03,-206 1411.26,-206 1459.87,-206"/>
<polygon fill="orange" stroke="orange" points="1298.35,-202.5 1288.35,-206 1298.35,-209.5 1298.35,-202.5"/>
<text text-anchor="middle" x="1373.5" y="-209" font-family="Helvetica,sans-Serif" font-size="10.00"> &lt; T, Eigen::Dynamic &gt;</text>
</g>
<!-- Node20&#45;&gt;Node22 -->
<g id="edge29" class="edge">
<title>Node20&#45;&gt;Node22</title>
<path fill="none" stroke="midnightblue" d="M1298.29,-196.14C1342.65,-191.07 1398.8,-185.29 1449,-182 1611.38,-171.36 1652.3,-174.97 1815,-172 1858.8,-171.2 1907.56,-170.71 1947.8,-170.42"/>
<polygon fill="midnightblue" stroke="midnightblue" points="1297.67,-192.69 1288.14,-197.31 1298.48,-199.64 1297.67,-192.69"/>
</g>
<!-- Node21 -->
<g id="node21" class="node">
<title>Node21</title>
<g id="a_node21"><a xlink:href="classwmtk_1_1attribute_1_1_accessor.html" target="_top" xlink:title="A CachingAccessor that uses tuples for accessing attributes instead of indices.">
<polygon fill="none" stroke="black" points="2280.5,-155 2280.5,-185 2422.5,-185 2422.5,-155 2280.5,-155"/>
<text text-anchor="start" x="2288.5" y="-173" font-family="Helvetica,sans-Serif" font-size="10.00">wmtk::attribute::Accessor</text>
<text text-anchor="middle" x="2351.5" y="-162" font-family="Helvetica,sans-Serif" font-size="10.00">&lt; T, MeshType, Dim &gt;</text>
</a>
</g>
</g>
<!-- Node21&#45;&gt;Node17 -->
<g id="edge27" class="edge">
<title>Node21&#45;&gt;Node17</title>
<path fill="none" stroke="orange" stroke-dasharray="5,2" d="M2433.19,-173.3C2494.28,-175.79 2577.8,-179.21 2638.87,-181.7"/>
<polygon fill="orange" stroke="orange" points="2432.96,-169.79 2422.83,-172.87 2432.68,-176.78 2432.96,-169.79"/>
<text text-anchor="middle" x="2546" y="-183" font-family="Helvetica,sans-Serif" font-size="10.00"> &lt; int64_t, wmtk::EdgeMesh &gt;</text>
</g>
<!-- Node22&#45;&gt;Node21 -->
<g id="edge28" class="edge">
<title>Node22&#45;&gt;Node21</title>
<path fill="none" stroke="darkgreen" d="M2129.38,-170C2177.87,-170 2235.85,-170 2280.27,-170"/>
<polygon fill="darkgreen" stroke="darkgreen" points="2129.18,-166.5 2119.18,-170 2129.18,-173.5 2129.18,-166.5"/>
</g>
</g>
</svg>
