<?xml version="1.0" encoding="UTF-8" standalone="no"?>
<!DOCTYPE svg PUBLIC "-//W3C//DTD SVG 1.1//EN"
 "http://www.w3.org/Graphics/SVG/1.1/DTD/svg11.dtd">
<!-- Generated by graphviz version 2.43.0 (0)
 -->
<!-- Title: wmtk::attribute::MeshAttributeHandle::as Pages: 1 -->
<svg width="1693pt" height="970pt"
 viewBox="0.00 0.00 1693.00 969.67" xmlns="http://www.w3.org/2000/svg" xmlns:xlink="http://www.w3.org/1999/xlink">
<g id="graph0" class="graph" transform="scale(1 1) rotate(0) translate(4 965.67)">
<title>wmtk::attribute::MeshAttributeHandle::as</title>
<!-- Node1 -->
<g id="node1" class="node">
<title>Node1</title>
<g id="a_node1"><a xlink:title=" ">
<polygon fill="#bfbfbf" stroke="black" points="1518,-637.17 1518,-667.17 1685,-667.17 1685,-637.17 1518,-637.17"/>
<text text-anchor="start" x="1526" y="-655.17" font-family="Helvetica,sans-Serif" font-size="10.00">wmtk::attribute::MeshAttribute</text>
<text text-anchor="middle" x="1601.5" y="-644.17" font-family="Helvetica,sans-Serif" font-size="10.00">Handle::as</text>
</a>
</g>
</g>
<!-- Node2 -->
<g id="node2" class="node">
<title>Node2</title>
<g id="a_node2"><a xlink:href="classwmtk_1_1invariants_1_1_envelope_invariant.html#a4d834a753526ea4996f7a9aa5b078f45" target="_top" xlink:title=" ">
<polygon fill="none" stroke="black" points="1306,-931.17 1306,-961.17 1456,-961.17 1456,-931.17 1306,-931.17"/>
<text text-anchor="start" x="1314" y="-949.17" font-family="Helvetica,sans-Serif" font-size="10.00">wmtk::invariants::Envelope</text>
<text text-anchor="middle" x="1381" y="-938.17" font-family="Helvetica,sans-Serif" font-size="10.00">Invariant::after</text>
</a>
</g>
</g>
<!-- Node1&#45;&gt;Node2 -->
<g id="edge1" class="edge">
<title>Node1&#45;&gt;Node2</title>
<path fill="none" stroke="midnightblue" d="M1597.03,-677.18C1588.22,-730.77 1559.89,-857.04 1482,-922.17 1474.47,-928.47 1465.55,-933.17 1456.2,-936.67"/>
<polygon fill="midnightblue" stroke="midnightblue" points="1600.5,-677.61 1598.58,-667.19 1593.59,-676.53 1600.5,-677.61"/>
</g>
<!-- Node3 -->
<g id="node3" class="node">
<title>Node3</title>
<g id="a_node3"><a xlink:href="classwmtk_1_1_mesh_c_r_t_p.html#a597eb7115908f931ca2764e39339f572" target="_top" xlink:title="constructs a accessor that is aware of the derived mesh&#39;s type">
<polygon fill="none" stroke="black" points="1312,-882.17 1312,-912.17 1450,-912.17 1450,-882.17 1312,-882.17"/>
<text text-anchor="start" x="1320" y="-900.17" font-family="Helvetica,sans-Serif" font-size="10.00">wmtk::MeshCRTP::create</text>
<text text-anchor="middle" x="1381" y="-889.17" font-family="Helvetica,sans-Serif" font-size="10.00">_accessor</text>
</a>
</g>
</g>
<!-- Node1&#45;&gt;Node3 -->
<g id="edge2" class="edge">
<title>Node1&#45;&gt;Node3</title>
<path fill="none" stroke="midnightblue" d="M1594.4,-677.1C1581.76,-723.29 1548.2,-822.1 1482,-873.17 1472.67,-880.37 1461.5,-885.45 1450.07,-889.03"/>
<polygon fill="midnightblue" stroke="midnightblue" points="1597.82,-677.87 1596.98,-667.31 1591.05,-676.09 1597.82,-677.87"/>
</g>
<!-- Node4 -->
<g id="node4" class="node">
<title>Node4</title>
<g id="a_node4"><a xlink:href="classwmtk_1_1_mesh_c_r_t_p.html#ad9e6cab94f01564014cbc2e0af9f8b3c" target="_top" xlink:title="constructs a const accessor that is aware of the derived mesh&#39;s type">
<polygon fill="none" stroke="black" points="1312,-833.17 1312,-863.17 1450,-863.17 1450,-833.17 1312,-833.17"/>
<text text-anchor="start" x="1320" y="-851.17" font-family="Helvetica,sans-Serif" font-size="10.00">wmtk::MeshCRTP::create</text>
<text text-anchor="middle" x="1381" y="-840.17" font-family="Helvetica,sans-Serif" font-size="10.00">_const_accessor</text>
</a>
</g>
</g>
<!-- Node1&#45;&gt;Node4 -->
<g id="edge3" class="edge">
<title>Node1&#45;&gt;Node4</title>
<path fill="none" stroke="midnightblue" d="M1590.6,-676.62C1574,-714.39 1536.89,-786.49 1482,-824.17 1472.51,-830.69 1461.45,-835.44 1450.22,-838.91"/>
<polygon fill="midnightblue" stroke="midnightblue" points="1593.84,-677.94 1594.55,-667.37 1587.4,-675.19 1593.84,-677.94"/>
</g>
<!-- Node5 -->
<g id="node5" class="node">
<title>Node5</title>
<g id="a_node5"><a xlink:href="classwmtk_1_1invariants_1_1_envelope_invariant.html#a9922df313c474f3e9f896940aa1c1656" target="_top" xlink:title=" ">
<polygon fill="none" stroke="black" points="1303.5,-784.17 1303.5,-814.17 1458.5,-814.17 1458.5,-784.17 1303.5,-784.17"/>
<text text-anchor="start" x="1311.5" y="-802.17" font-family="Helvetica,sans-Serif" font-size="10.00">wmtk::invariants::Envelope</text>
<text text-anchor="middle" x="1381" y="-791.17" font-family="Helvetica,sans-Serif" font-size="10.00">Invariant::EnvelopeInvariant</text>
</a>
</g>
</g>
<!-- Node1&#45;&gt;Node5 -->
<g id="edge4" class="edge">
<title>Node1&#45;&gt;Node5</title>
<path fill="none" stroke="midnightblue" d="M1584.37,-675.74C1563.89,-703.81 1525.89,-750.05 1482,-775.17 1474.72,-779.34 1466.74,-782.78 1458.56,-785.63"/>
<polygon fill="midnightblue" stroke="midnightblue" points="1587.43,-677.49 1590.39,-667.31 1581.73,-673.42 1587.43,-677.49"/>
</g>
<!-- Node6 -->
<g id="node6" class="node">
<title>Node6</title>
<g id="a_node6"><a xlink:href="classwmtk_1_1operations_1_1_a_m_i_p_s_optimization_smoothing.html#a2c409cd3da46f4360119e142ef3c3682" target="_top" xlink:title="returns an empty vector in case of failure">
<polygon fill="none" stroke="black" points="1280,-735.17 1280,-765.17 1482,-765.17 1482,-735.17 1280,-735.17"/>
<text text-anchor="start" x="1288" y="-753.17" font-family="Helvetica,sans-Serif" font-size="10.00">wmtk::operations::AMIPSOptimization</text>
<text text-anchor="middle" x="1381" y="-742.17" font-family="Helvetica,sans-Serif" font-size="10.00">Smoothing::execute</text>
</a>
</g>
</g>
<!-- Node1&#45;&gt;Node6 -->
<g id="edge5" class="edge">
<title>Node1&#45;&gt;Node6</title>
<path fill="none" stroke="midnightblue" d="M1572.32,-673.43C1549.17,-689.97 1514.93,-712.37 1482,-726.17 1473.93,-729.55 1465.29,-732.52 1456.59,-735.1"/>
<polygon fill="midnightblue" stroke="midnightblue" points="1574.59,-676.11 1580.63,-667.41 1570.48,-670.44 1574.59,-676.11"/>
</g>
<!-- Node7 -->
<g id="node7" class="node">
<title>Node7</title>
<g id="a_node7"><a xlink:href="classwmtk_1_1operations_1_1_a_m_i_p_s_optimization_smoothing_periodic.html#a86df18fe3713cb41dca1687487dea61b" target="_top" xlink:title="returns an empty vector in case of failure">
<polygon fill="none" stroke="black" points="1280,-686.17 1280,-716.17 1482,-716.17 1482,-686.17 1280,-686.17"/>
<text text-anchor="start" x="1288" y="-704.17" font-family="Helvetica,sans-Serif" font-size="10.00">wmtk::operations::AMIPSOptimization</text>
<text text-anchor="middle" x="1381" y="-693.17" font-family="Helvetica,sans-Serif" font-size="10.00">SmoothingPeriodic::execute</text>
</a>
</g>
</g>
<!-- Node1&#45;&gt;Node7 -->
<g id="edge6" class="edge">
<title>Node1&#45;&gt;Node7</title>
<path fill="none" stroke="midnightblue" d="M1523.54,-669.43C1499.2,-674.89 1472.5,-680.87 1448.92,-686.16"/>
<polygon fill="midnightblue" stroke="midnightblue" points="1524.47,-672.81 1533.46,-667.2 1522.93,-665.98 1524.47,-672.81"/>
</g>
<!-- Node8 -->
<g id="node8" class="node">
<title>Node8</title>
<g id="a_node8"><a xlink:href="namespacewmtk_1_1components_1_1internal.html#a49432d47b0fca2f5fe80f1e9c634fa14" target="_top" xlink:title=" ">
<polygon fill="none" stroke="black" points="1304,-637.17 1304,-667.17 1458,-667.17 1458,-637.17 1304,-637.17"/>
<text text-anchor="start" x="1312" y="-655.17" font-family="Helvetica,sans-Serif" font-size="10.00">wmtk::components::internal</text>
<text text-anchor="middle" x="1381" y="-644.17" font-family="Helvetica,sans-Serif" font-size="10.00">::isotropic_remeshing</text>
</a>
</g>
</g>
<!-- Node1&#45;&gt;Node8 -->
<g id="edge7" class="edge">
<title>Node1&#45;&gt;Node8</title>
<path fill="none" stroke="midnightblue" d="M1507.71,-652.17C1491.21,-652.17 1474.21,-652.17 1458.24,-652.17"/>
<polygon fill="midnightblue" stroke="midnightblue" points="1507.89,-655.67 1517.89,-652.17 1507.89,-648.67 1507.89,-655.67"/>
</g>
<!-- Node12 -->
<g id="node12" class="node">
<title>Node12</title>
<g id="a_node12"><a xlink:href="namespacewmtk_1_1components.html#af230049f04ba8dc762b9e28a71062c81" target="_top" xlink:title="Write the mesh to file.">
<polygon fill="none" stroke="black" points="1307,-598.67 1307,-617.67 1455,-617.67 1455,-598.67 1307,-598.67"/>
<text text-anchor="middle" x="1381" y="-605.67" font-family="Helvetica,sans-Serif" font-size="10.00">wmtk::components::output</text>
</a>
</g>
</g>
<!-- Node1&#45;&gt;Node12 -->
<g id="edge11" class="edge">
<title>Node1&#45;&gt;Node12</title>
<path fill="none" stroke="midnightblue" d="M1516.44,-635.12C1504.87,-632.78 1493.14,-630.41 1482,-628.17 1464.99,-624.75 1446.35,-621.01 1429.82,-617.71"/>
<polygon fill="midnightblue" stroke="midnightblue" points="1516.05,-638.61 1526.55,-637.16 1517.44,-631.75 1516.05,-638.61"/>
</g>
<!-- Node13 -->
<g id="node13" class="node">
<title>Node13</title>
<g id="a_node13"><a xlink:href="classwmtk_1_1components_1_1_marching.html#a93c8d735afd009d73bfc4700b4f8e3f6" target="_top" xlink:title="Perform the actual marching.">
<polygon fill="none" stroke="black" points="1300.5,-549.17 1300.5,-579.17 1461.5,-579.17 1461.5,-549.17 1300.5,-549.17"/>
<text text-anchor="start" x="1308.5" y="-567.17" font-family="Helvetica,sans-Serif" font-size="10.00">wmtk::components::Marching</text>
<text text-anchor="middle" x="1381" y="-556.17" font-family="Helvetica,sans-Serif" font-size="10.00">::process</text>
</a>
</g>
</g>
<!-- Node1&#45;&gt;Node13 -->
<g id="edge12" class="edge">
<title>Node1&#45;&gt;Node13</title>
<path fill="none" stroke="midnightblue" d="M1567.61,-631.88C1544.38,-618.26 1512.15,-600.75 1482,-589.17 1472.31,-585.45 1461.88,-582.13 1451.54,-579.22"/>
<polygon fill="midnightblue" stroke="midnightblue" points="1565.98,-634.98 1576.36,-637.08 1569.55,-628.96 1565.98,-634.98"/>
</g>
<!-- Node16 -->
<g id="node16" class="node">
<title>Node16</title>
<g id="a_node16"><a xlink:href="classwmtk_1_1_h_d_f5_reader.html#a24253eae6c0cdca26556f7dee93d7a7c" target="_top" xlink:title=" ">
<polygon fill="none" stroke="black" points="1314.5,-500.17 1314.5,-530.17 1447.5,-530.17 1447.5,-500.17 1314.5,-500.17"/>
<text text-anchor="start" x="1322.5" y="-518.17" font-family="Helvetica,sans-Serif" font-size="10.00">wmtk::HDF5Reader::set</text>
<text text-anchor="middle" x="1381" y="-507.17" font-family="Helvetica,sans-Serif" font-size="10.00">_attribute</text>
</a>
</g>
</g>
<!-- Node1&#45;&gt;Node16 -->
<g id="edge15" class="edge">
<title>Node1&#45;&gt;Node16</title>
<path fill="none" stroke="midnightblue" d="M1582.22,-628.84C1560.9,-603.24 1523.27,-562.77 1482,-540.17 1471.41,-534.37 1459.45,-529.89 1447.58,-526.43"/>
<polygon fill="midnightblue" stroke="midnightblue" points="1579.77,-631.38 1588.81,-636.91 1585.2,-626.95 1579.77,-631.38"/>
</g>
<!-- Node17 -->
<g id="node17" class="node">
<title>Node17</title>
<g id="a_node17"><a xlink:href="namespacewmtk_1_1mesh__utils.html#ad92eb4095d516f6a20e25587f9effe80" target="_top" xlink:title=" ">
<polygon fill="none" stroke="black" points="1318.5,-413.17 1318.5,-443.17 1443.5,-443.17 1443.5,-413.17 1318.5,-413.17"/>
<text text-anchor="start" x="1326.5" y="-431.17" font-family="Helvetica,sans-Serif" font-size="10.00">wmtk::mesh_utils::set</text>
<text text-anchor="middle" x="1381" y="-420.17" font-family="Helvetica,sans-Serif" font-size="10.00">_matrix_attribute</text>
</a>
</g>
</g>
<!-- Node1&#45;&gt;Node17 -->
<g id="edge16" class="edge">
<title>Node1&#45;&gt;Node17</title>
<path fill="none" stroke="midnightblue" d="M1586.88,-628.29C1566.96,-594.81 1527.3,-533.3 1482,-491.17 1460.97,-471.6 1433.03,-454.6 1412.03,-443.2"/>
<polygon fill="midnightblue" stroke="midnightblue" points="1583.88,-630.1 1591.96,-636.95 1589.92,-626.56 1583.88,-630.1"/>
</g>
<!-- Node44 -->
<g id="node44" class="node">
<title>Node44</title>
<g id="a_node44"><a xlink:href="namespacewmtk_1_1components.html#ae3a4b32383fdc9c2eb8334cc8ef947a5" target="_top" xlink:title="Perform shortest&#45;edge collapse on a triangular surface mesh.">
<polygon fill="none" stroke="black" points="1291,-364.17 1291,-394.17 1471,-394.17 1471,-364.17 1291,-364.17"/>
<text text-anchor="start" x="1299" y="-382.17" font-family="Helvetica,sans-Serif" font-size="10.00">wmtk::components::shortestedge</text>
<text text-anchor="middle" x="1381" y="-371.17" font-family="Helvetica,sans-Serif" font-size="10.00">_collapse</text>
</a>
</g>
</g>
<!-- Node1&#45;&gt;Node44 -->
<g id="edge48" class="edge">
<title>Node1&#45;&gt;Node44</title>
<path fill="none" stroke="midnightblue" d="M1595.9,-627.16C1585.3,-576.87 1554.3,-463.24 1482,-404.17 1477.29,-400.32 1472.06,-397.05 1466.55,-394.28"/>
<polygon fill="midnightblue" stroke="midnightblue" points="1592.51,-628.05 1597.91,-637.17 1599.37,-626.67 1592.51,-628.05"/>
</g>
<!-- Node46 -->
<g id="node46" class="node">
<title>Node46</title>
<g id="a_node46"><a xlink:href="test__component__isotropic__remeshing_8cpp.html#afae984272ab99cf6b50b4d11f8941283" target="_top" xlink:title=" ">
<polygon fill="none" stroke="black" points="1345.5,-325.67 1345.5,-344.67 1416.5,-344.67 1416.5,-325.67 1345.5,-325.67"/>
<text text-anchor="middle" x="1381" y="-332.67" font-family="Helvetica,sans-Serif" font-size="10.00">TEST_CASE</text>
</a>
</g>
</g>
<!-- Node1&#45;&gt;Node46 -->
<g id="edge50" class="edge">
<title>Node1&#45;&gt;Node46</title>
<path fill="none" stroke="midnightblue" d="M1598.32,-626.86C1591.91,-569 1567.77,-426.58 1482,-355.17 1463.9,-340.1 1437.62,-335.29 1416.54,-334.15"/>
<polygon fill="midnightblue" stroke="midnightblue" points="1594.85,-627.36 1599.35,-636.95 1601.82,-626.64 1594.85,-627.36"/>
</g>
<!-- Node9 -->
<g id="node9" class="node">
<title>Node9</title>
<g id="a_node9"><a xlink:href="namespacewmtk_1_1components.html#ae6dfdbd73d7018f6f21bb2396872c796" target="_top" xlink:title=" ">
<polygon fill="none" stroke="black" points="1070.5,-700.17 1070.5,-730.17 1228.5,-730.17 1228.5,-700.17 1070.5,-700.17"/>
<text text-anchor="start" x="1078.5" y="-718.17" font-family="Helvetica,sans-Serif" font-size="10.00">wmtk::components::isotropic</text>
<text text-anchor="middle" x="1149.5" y="-707.17" font-family="Helvetica,sans-Serif" font-size="10.00">_remeshing</text>
</a>
</g>
</g>
<!-- Node8&#45;&gt;Node9 -->
<g id="edge8" class="edge">
<title>Node8&#45;&gt;Node9</title>
<path fill="none" stroke="midnightblue" d="M1305.87,-669.81C1297.11,-672.15 1288.33,-674.63 1280,-677.17 1263.73,-682.13 1260.23,-685.08 1244,-690.17 1233.1,-693.59 1221.39,-696.96 1210.07,-700.06"/>
<polygon fill="midnightblue" stroke="midnightblue" points="1306.94,-673.14 1315.72,-667.21 1305.16,-666.37 1306.94,-673.14"/>
</g>
<!-- Node11 -->
<g id="node11" class="node">
<title>Node11</title>
<g id="a_node11"><a xlink:href="test__component__isotropic__remeshing_8cpp.html#a51ae85bc413e9940267e8a366e0bcc9f" target="_top" xlink:title=" ">
<polygon fill="none" stroke="black" points="1114,-661.67 1114,-680.67 1185,-680.67 1185,-661.67 1114,-661.67"/>
<text text-anchor="middle" x="1149.5" y="-668.67" font-family="Helvetica,sans-Serif" font-size="10.00">TEST_CASE</text>
</a>
</g>
</g>
<!-- Node8&#45;&gt;Node11 -->
<g id="edge10" class="edge">
<title>Node8&#45;&gt;Node11</title>
<path fill="none" stroke="midnightblue" d="M1293.88,-659.3C1256.05,-662.43 1213.79,-665.93 1185.01,-668.31"/>
<polygon fill="midnightblue" stroke="midnightblue" points="1294.22,-662.78 1303.9,-658.47 1293.64,-655.81 1294.22,-662.78"/>
</g>
<!-- Node10 -->
<g id="node10" class="node">
<title>Node10</title>
<g id="a_node10"><a xlink:href="test__component__isotropic__remeshing_8cpp.html#a64dc4992576434e79fdb0838f9092ab8" target="_top" xlink:title=" ">
<polygon fill="none" stroke="black" points="899.5,-705.67 899.5,-724.67 970.5,-724.67 970.5,-705.67 899.5,-705.67"/>
<text text-anchor="middle" x="935" y="-712.67" font-family="Helvetica,sans-Serif" font-size="10.00">TEST_CASE</text>
</a>
</g>
</g>
<!-- Node9&#45;&gt;Node10 -->
<g id="edge9" class="edge">
<title>Node9&#45;&gt;Node10</title>
<path fill="none" stroke="midnightblue" d="M1060.15,-715.17C1028.69,-715.17 995.07,-715.17 970.77,-715.17"/>
<polygon fill="midnightblue" stroke="midnightblue" points="1060.28,-718.67 1070.28,-715.17 1060.28,-711.67 1060.28,-718.67"/>
</g>
<!-- Node14 -->
<g id="node14" class="node">
<title>Node14</title>
<g id="a_node14"><a xlink:href="namespacewmtk_1_1components.html#a6f27411696c9ba6e294768451f31351f" target="_top" xlink:title="Perform maching tetrahedra/triangles.">
<polygon fill="none" stroke="black" points="1068.5,-623.67 1068.5,-642.67 1230.5,-642.67 1230.5,-623.67 1068.5,-623.67"/>
<text text-anchor="middle" x="1149.5" y="-630.67" font-family="Helvetica,sans-Serif" font-size="10.00">wmtk::components::marching</text>
</a>
</g>
</g>
<!-- Node13&#45;&gt;Node14 -->
<g id="edge13" class="edge">
<title>Node13&#45;&gt;Node14</title>
<path fill="none" stroke="midnightblue" d="M1296.79,-582.48C1291.03,-584.5 1285.38,-586.73 1280,-589.17 1262.26,-597.22 1261.91,-606.52 1244,-614.17 1235.01,-618.01 1225.2,-621.09 1215.42,-623.55"/>
<polygon fill="midnightblue" stroke="midnightblue" points="1298.18,-585.71 1306.58,-579.25 1295.99,-579.06 1298.18,-585.71"/>
</g>
<!-- Node15 -->
<g id="node15" class="node">
<title>Node15</title>
<g id="a_node15"><a xlink:href="tests_2_marching_8cpp.html#af20fbc246d1ad31be8d9ec0011ac52d6" target="_top" xlink:title=" ">
<polygon fill="none" stroke="black" points="899.5,-623.67 899.5,-642.67 970.5,-642.67 970.5,-623.67 899.5,-623.67"/>
<text text-anchor="middle" x="935" y="-630.67" font-family="Helvetica,sans-Serif" font-size="10.00">TEST_CASE</text>
</a>
</g>
</g>
<!-- Node14&#45;&gt;Node15 -->
<g id="edge14" class="edge">
<title>Node14&#45;&gt;Node15</title>
<path fill="none" stroke="midnightblue" d="M1058.08,-633.17C1027.19,-633.17 994.48,-633.17 970.7,-633.17"/>
<polygon fill="midnightblue" stroke="midnightblue" points="1058.47,-636.67 1068.47,-633.17 1058.47,-629.67 1058.47,-636.67"/>
</g>
<!-- Node18 -->
<g id="node18" class="node">
<title>Node18</title>
<g id="a_node18"><a xlink:href="namespacewmtk_1_1components_1_1internal.html#aa5cef5f50f316f60f46180e6f84752f6" target="_top" xlink:title=" ">
<polygon fill="none" stroke="black" points="1072.5,-476.17 1072.5,-506.17 1226.5,-506.17 1226.5,-476.17 1072.5,-476.17"/>
<text text-anchor="start" x="1080.5" y="-494.17" font-family="Helvetica,sans-Serif" font-size="10.00">wmtk::components::internal</text>
<text text-anchor="middle" x="1149.5" y="-483.17" font-family="Helvetica,sans-Serif" font-size="10.00">::CDT_internal</text>
</a>
</g>
</g>
<!-- Node17&#45;&gt;Node18 -->
<g id="edge17" class="edge">
<title>Node17&#45;&gt;Node18</title>
<path fill="none" stroke="midnightblue" d="M1317.11,-445.9C1294.12,-452.34 1267.9,-459.64 1244,-466.17 1232.17,-469.4 1219.48,-472.83 1207.39,-476.07"/>
<polygon fill="midnightblue" stroke="midnightblue" points="1318.07,-449.27 1326.75,-443.2 1316.18,-442.53 1318.07,-449.27"/>
</g>
<!-- Node20 -->
<g id="node20" class="node">
<title>Node20</title>
<g id="a_node20"><a xlink:href="namespacewmtk_1_1components.html#ae83ffb7414718eb36eadf02c893b9daa" target="_top" xlink:title=" ">
<polygon fill="none" stroke="black" points="1055,-437.67 1055,-456.67 1244,-456.67 1244,-437.67 1055,-437.67"/>
<text text-anchor="middle" x="1149.5" y="-444.67" font-family="Helvetica,sans-Serif" font-size="10.00">wmtk::components::delaunay_exec</text>
</a>
</g>
</g>
<!-- Node17&#45;&gt;Node20 -->
<g id="edge19" class="edge">
<title>Node17&#45;&gt;Node20</title>
<path fill="none" stroke="midnightblue" d="M1308.38,-434.1C1288.04,-435.78 1265.59,-437.64 1244.15,-439.42"/>
<polygon fill="midnightblue" stroke="midnightblue" points="1308.82,-437.57 1318.5,-433.26 1308.24,-430.6 1308.82,-437.57"/>
</g>
<!-- Node21 -->
<g id="node21" class="node">
<title>Node21</title>
<g id="a_node21"><a xlink:href="namespacewmtk_1_1components.html#a5a89b6c23c8338b3a90a304b368fb3a8" target="_top" xlink:title=" ">
<polygon fill="none" stroke="black" points="1076.5,-361.67 1076.5,-380.67 1222.5,-380.67 1222.5,-361.67 1076.5,-361.67"/>
<text text-anchor="middle" x="1149.5" y="-368.67" font-family="Helvetica,sans-Serif" font-size="10.00">wmtk::components::fusion</text>
</a>
</g>
</g>
<!-- Node17&#45;&gt;Node21 -->
<g id="edge20" class="edge">
<title>Node17&#45;&gt;Node21</title>
<path fill="none" stroke="midnightblue" d="M1308.45,-411.13C1298.88,-408.81 1289.2,-406.45 1280,-404.17 1248.69,-396.42 1213.21,-387.36 1187.31,-380.69"/>
<polygon fill="midnightblue" stroke="midnightblue" points="1307.81,-414.57 1318.35,-413.52 1309.46,-407.77 1307.81,-414.57"/>
</g>
<!-- Node22 -->
<g id="node22" class="node">
<title>Node22</title>
<g id="a_node22"><a xlink:href="test__component__fusion_8cpp.html#ad717d3fcca492f6237e8e5f0e3455e4e" target="_top" xlink:title=" ">
<polygon fill="none" stroke="black" points="899.5,-399.67 899.5,-418.67 970.5,-418.67 970.5,-399.67 899.5,-399.67"/>
<text text-anchor="middle" x="935" y="-406.67" font-family="Helvetica,sans-Serif" font-size="10.00">TEST_CASE</text>
</a>
</g>
</g>
<!-- Node17&#45;&gt;Node22 -->
<g id="edge45" class="edge">
<title>Node17&#45;&gt;Node22</title>
<path fill="none" stroke="midnightblue" d="M1308.27,-425.1C1211.5,-420.96 1042.93,-413.75 970.59,-410.65"/>
<polygon fill="midnightblue" stroke="midnightblue" points="1308.12,-428.6 1318.26,-425.53 1308.42,-421.6 1308.12,-428.6"/>
</g>
<!-- Node23 -->
<g id="node23" class="node">
<title>Node23</title>
<g id="a_node23"><a xlink:href="namespacewmtk_1_1utils.html#a8d59b38c3560ad4f49865c212b854456" target="_top" xlink:title="input a triangle surface mesh, embed it into a regular grid and generate a tetmesh,...">
<polygon fill="none" stroke="black" points="1077.5,-301.67 1077.5,-342.67 1221.5,-342.67 1221.5,-301.67 1077.5,-301.67"/>
<text text-anchor="start" x="1085.5" y="-330.67" font-family="Helvetica,sans-Serif" font-size="10.00">wmtk::utils::generate</text>
<text text-anchor="start" x="1085.5" y="-319.67" font-family="Helvetica,sans-Serif" font-size="10.00">_raw_tetmesh_from_input</text>
<text text-anchor="middle" x="1149.5" y="-308.67" font-family="Helvetica,sans-Serif" font-size="10.00">_surface</text>
</a>
</g>
</g>
<!-- Node17&#45;&gt;Node23 -->
<g id="edge22" class="edge">
<title>Node17&#45;&gt;Node23</title>
<path fill="none" stroke="midnightblue" d="M1308.59,-417.87C1298.47,-414.51 1288.6,-410.06 1280,-404.17 1256.81,-388.29 1266.58,-368.91 1244,-352.17 1237.29,-347.2 1229.72,-343.03 1221.87,-339.54"/>
<polygon fill="midnightblue" stroke="midnightblue" points="1307.75,-421.27 1318.34,-420.77 1309.75,-414.56 1307.75,-421.27"/>
</g>
<!-- Node26 -->
<g id="node26" class="node">
<title>Node26</title>
<g id="a_node26"><a xlink:href="namespacewmtk_1_1components_1_1procedural.html#ab9c00d6ba2d614ba26750c3c80c6502c" target="_top" xlink:title=" ">
<polygon fill="none" stroke="black" points="1065.5,-252.17 1065.5,-282.17 1233.5,-282.17 1233.5,-252.17 1065.5,-252.17"/>
<text text-anchor="start" x="1073.5" y="-270.17" font-family="Helvetica,sans-Serif" font-size="10.00">wmtk::components::procedural</text>
<text text-anchor="middle" x="1149.5" y="-259.17" font-family="Helvetica,sans-Serif" font-size="10.00">::make_mesh</text>
</a>
</g>
</g>
<!-- Node17&#45;&gt;Node26 -->
<g id="edge25" class="edge">
<title>Node17&#45;&gt;Node26</title>
<path fill="none" stroke="midnightblue" d="M1308.55,-420.61C1298.05,-416.92 1288.07,-411.65 1280,-404.17 1241.66,-368.62 1281.88,-328.21 1244,-292.17 1239.98,-288.35 1235.45,-285.1 1230.59,-282.33"/>
<polygon fill="midnightblue" stroke="midnightblue" points="1307.72,-424.02 1318.3,-423.57 1309.75,-417.32 1307.72,-424.02"/>
</g>
<!-- Node28 -->
<g id="node28" class="node">
<title>Node28</title>
<g id="a_node28"><a xlink:href="namespacewmtk_1_1components_1_1internal.html#a7e292eba37fd37581ede0aa29943c3db" target="_top" xlink:title="Build a tagged triangle mesh from a greyscale image.">
<polygon fill="none" stroke="black" points="1069,-203.17 1069,-233.17 1230,-233.17 1230,-203.17 1069,-203.17"/>
<text text-anchor="start" x="1077" y="-221.17" font-family="Helvetica,sans-Serif" font-size="10.00">wmtk::components::internal</text>
<text text-anchor="middle" x="1149.5" y="-210.17" font-family="Helvetica,sans-Serif" font-size="10.00">::mesh_with_tag_from_image</text>
</a>
</g>
</g>
<!-- Node17&#45;&gt;Node28 -->
<g id="edge27" class="edge">
<title>Node17&#45;&gt;Node28</title>
<path fill="none" stroke="midnightblue" d="M1308.85,-421.57C1298.08,-417.79 1287.94,-412.24 1280,-404.17 1228.29,-351.58 1295.3,-295.17 1244,-242.17 1239.92,-237.95 1235.21,-234.44 1230.11,-231.52"/>
<polygon fill="midnightblue" stroke="midnightblue" points="1307.85,-424.92 1318.43,-424.45 1309.86,-418.22 1307.85,-424.92"/>
</g>
<!-- Node29 -->
<g id="node29" class="node">
<title>Node29</title>
<g id="a_node29"><a xlink:href="classwmtk_1_1_msh_reader.html#afd780afbbde030daa41a17137bc37085" target="_top" xlink:title=" ">
<polygon fill="none" stroke="black" points="1083,-164.67 1083,-183.67 1216,-183.67 1216,-164.67 1083,-164.67"/>
<text text-anchor="middle" x="1149.5" y="-171.67" font-family="Helvetica,sans-Serif" font-size="10.00">wmtk::MshReader::read</text>
</a>
</g>
</g>
<!-- Node17&#45;&gt;Node29 -->
<g id="edge28" class="edge">
<title>Node17&#45;&gt;Node29</title>
<path fill="none" stroke="midnightblue" d="M1308.7,-421.97C1297.9,-418.15 1287.78,-412.49 1280,-404.17 1215.01,-334.7 1310.2,-261.49 1244,-193.17 1236.51,-185.44 1226.79,-180.41 1216.47,-177.2"/>
<polygon fill="midnightblue" stroke="midnightblue" points="1307.75,-425.33 1318.33,-424.86 1309.76,-418.63 1307.75,-425.33"/>
</g>
<!-- Node42 -->
<g id="node42" class="node">
<title>Node42</title>
<g id="a_node42"><a xlink:href="namespacewmtk_1_1components.html#ab76577dc5b3ef0ad8ac307cff60d5807" target="_top" xlink:title="Perform the simplification from the original tetwild.">
<polygon fill="none" stroke="black" points="1074.5,-574.17 1074.5,-604.17 1224.5,-604.17 1224.5,-574.17 1074.5,-574.17"/>
<text text-anchor="start" x="1082.5" y="-592.17" font-family="Helvetica,sans-Serif" font-size="10.00">wmtk::components::tetwild</text>
<text text-anchor="middle" x="1149.5" y="-581.17" font-family="Helvetica,sans-Serif" font-size="10.00">_simplification</text>
</a>
</g>
</g>
<!-- Node17&#45;&gt;Node42 -->
<g id="edge46" class="edge">
<title>Node17&#45;&gt;Node42</title>
<path fill="none" stroke="midnightblue" d="M1337.51,-448.03C1318.11,-458.71 1295.96,-473.36 1280,-491.17 1255.59,-518.41 1272.33,-542.04 1244,-565.17 1238.29,-569.83 1231.78,-573.6 1224.91,-576.65"/>
<polygon fill="midnightblue" stroke="midnightblue" points="1339.3,-451.05 1346.49,-443.26 1336.01,-444.87 1339.3,-451.05"/>
</g>
<!-- Node43 -->
<g id="node43" class="node">
<title>Node43</title>
<g id="a_node43"><a xlink:href="namespacewmtk_1_1components.html#a1703c2264e52b16281828951556f8b11" target="_top" xlink:title=" ">
<polygon fill="none" stroke="black" points="1086.5,-525.17 1086.5,-555.17 1212.5,-555.17 1212.5,-525.17 1086.5,-525.17"/>
<text text-anchor="start" x="1094.5" y="-543.17" font-family="Helvetica,sans-Serif" font-size="10.00">wmtk::components::to</text>
<text text-anchor="middle" x="1149.5" y="-532.17" font-family="Helvetica,sans-Serif" font-size="10.00">_points</text>
</a>
</g>
</g>
<!-- Node17&#45;&gt;Node43 -->
<g id="edge47" class="edge">
<title>Node17&#45;&gt;Node43</title>
<path fill="none" stroke="midnightblue" d="M1346.58,-448.7C1327.04,-460.84 1301.96,-476.64 1280,-491.17 1263.76,-501.92 1261.71,-508.06 1244,-516.17 1234.25,-520.63 1223.53,-524.36 1212.93,-527.45"/>
<polygon fill="midnightblue" stroke="midnightblue" points="1348.49,-451.64 1355.15,-443.4 1344.8,-445.69 1348.49,-451.64"/>
</g>
<!-- Node19 -->
<g id="node19" class="node">
<title>Node19</title>
<g id="a_node19"><a xlink:href="namespacewmtk_1_1components.html#a7bf4c4516032a63182e16035aeacceb4" target="_top" xlink:title=" ">
<polygon fill="none" stroke="black" points="866.5,-481.67 866.5,-500.67 1003.5,-500.67 1003.5,-481.67 866.5,-481.67"/>
<text text-anchor="middle" x="935" y="-488.67" font-family="Helvetica,sans-Serif" font-size="10.00">wmtk::components::CDT</text>
</a>
</g>
</g>
<!-- Node18&#45;&gt;Node19 -->
<g id="edge18" class="edge">
<title>Node18&#45;&gt;Node19</title>
<path fill="none" stroke="midnightblue" d="M1062.3,-491.17C1042.82,-491.17 1022.42,-491.17 1003.83,-491.17"/>
<polygon fill="midnightblue" stroke="midnightblue" points="1062.38,-494.67 1072.38,-491.17 1062.38,-487.67 1062.38,-494.67"/>
</g>
<!-- Node21&#45;&gt;Node22 -->
<g id="edge21" class="edge">
<title>Node21&#45;&gt;Node22</title>
<path fill="none" stroke="midnightblue" d="M1084.84,-382.55C1047.42,-389.24 1001.56,-397.45 970.71,-402.96"/>
<polygon fill="midnightblue" stroke="midnightblue" points="1085.92,-385.92 1095.15,-380.71 1084.69,-379.02 1085.92,-385.92"/>
</g>
<!-- Node24 -->
<g id="node24" class="node">
<title>Node24</title>
<g id="a_node24"><a xlink:href="namespacewmtk_1_1utils.html#a4ea0d7c148b4066c6692a8e31c7b7b7a" target="_top" xlink:title=" ">
<polygon fill="none" stroke="black" points="858.5,-339.67 858.5,-380.67 1011.5,-380.67 1011.5,-339.67 858.5,-339.67"/>
<text text-anchor="start" x="866.5" y="-368.67" font-family="Helvetica,sans-Serif" font-size="10.00">wmtk::utils::generate</text>
<text text-anchor="start" x="866.5" y="-357.67" font-family="Helvetica,sans-Serif" font-size="10.00">_raw_tetmesh_with_surface</text>
<text text-anchor="middle" x="935" y="-346.67" font-family="Helvetica,sans-Serif" font-size="10.00">_from_input</text>
</a>
</g>
</g>
<!-- Node23&#45;&gt;Node24 -->
<g id="edge23" class="edge">
<title>Node23&#45;&gt;Node24</title>
<path fill="none" stroke="midnightblue" d="M1067.41,-336.67C1049.12,-339.94 1029.78,-343.4 1011.73,-346.63"/>
<polygon fill="midnightblue" stroke="midnightblue" points="1068.22,-340.08 1077.45,-334.88 1066.99,-333.19 1068.22,-340.08"/>
</g>
<!-- Node25 -->
<g id="node25" class="node">
<title>Node25</title>
<g id="a_node25"><a xlink:href="namespacewmtk_1_1components.html#a9d6d11e3b7ba03911492ecfc79622247" target="_top" xlink:title=" ">
<polygon fill="none" stroke="black" points="858,-290.17 858,-320.17 1012,-320.17 1012,-290.17 858,-290.17"/>
<text text-anchor="start" x="866" y="-308.17" font-family="Helvetica,sans-Serif" font-size="10.00">wmtk::components::triangle</text>
<text text-anchor="middle" x="935" y="-297.17" font-family="Helvetica,sans-Serif" font-size="10.00">_insertion</text>
</a>
</g>
</g>
<!-- Node23&#45;&gt;Node25 -->
<g id="edge24" class="edge">
<title>Node23&#45;&gt;Node25</title>
<path fill="none" stroke="midnightblue" d="M1067.47,-315.69C1049.29,-314.23 1030.06,-312.69 1012.09,-311.26"/>
<polygon fill="midnightblue" stroke="midnightblue" points="1067.2,-319.18 1077.45,-316.49 1067.76,-312.2 1067.2,-319.18"/>
</g>
<!-- Node27 -->
<g id="node27" class="node">
<title>Node27</title>
<g id="a_node27"><a xlink:href="namespacewmtk_1_1components_1_1procedural.html#ae65f7700d6eefc4c80f28595d3bbef66" target="_top" xlink:title=" ">
<polygon fill="none" stroke="black" points="851,-241.17 851,-271.17 1019,-271.17 1019,-241.17 851,-241.17"/>
<text text-anchor="start" x="859" y="-259.17" font-family="Helvetica,sans-Serif" font-size="10.00">wmtk::components::procedural</text>
<text text-anchor="middle" x="935" y="-248.17" font-family="Helvetica,sans-Serif" font-size="10.00">::make_mesh</text>
</a>
</g>
</g>
<!-- Node26&#45;&gt;Node27 -->
<g id="edge26" class="edge">
<title>Node26&#45;&gt;Node27</title>
<path fill="none" stroke="midnightblue" d="M1055.34,-262.35C1043.25,-261.72 1030.93,-261.08 1019.01,-260.47"/>
<polygon fill="midnightblue" stroke="midnightblue" points="1055.26,-265.85 1065.43,-262.87 1055.62,-258.86 1055.26,-265.85"/>
</g>
<!-- Node30 -->
<g id="node30" class="node">
<title>Node30</title>
<g id="a_node30"><a xlink:href="namespacewmtk.html#adb1edeb39c4e0ef98ecc5afeed46891c" target="_top" xlink:title=" ">
<polygon fill="none" stroke="black" points="883,-164.67 883,-183.67 987,-183.67 987,-164.67 883,-164.67"/>
<text text-anchor="middle" x="935" y="-171.67" font-family="Helvetica,sans-Serif" font-size="10.00">wmtk::read_mesh</text>
</a>
</g>
</g>
<!-- Node29&#45;&gt;Node30 -->
<g id="edge29" class="edge">
<title>Node29&#45;&gt;Node30</title>
<path fill="none" stroke="midnightblue" d="M1072.47,-174.17C1044.21,-174.17 1012.84,-174.17 987.32,-174.17"/>
<polygon fill="midnightblue" stroke="midnightblue" points="1072.72,-177.67 1082.72,-174.17 1072.72,-170.67 1072.72,-177.67"/>
</g>
<!-- Node31 -->
<g id="node31" class="node">
<title>Node31</title>
<g id="a_node31"><a xlink:href="classwmtk_1_1io_1_1_cache.html#a6d9002c95cb93e5e4e68eaa6b5083f8c" target="_top" xlink:title="Compare two caches for equality.">
<polygon fill="none" stroke="black" points="672,-270.67 672,-289.67 806,-289.67 806,-270.67 672,-270.67"/>
<text text-anchor="middle" x="739" y="-277.67" font-family="Helvetica,sans-Serif" font-size="10.00">wmtk::io::Cache::equals</text>
</a>
</g>
</g>
<!-- Node30&#45;&gt;Node31 -->
<g id="edge30" class="edge">
<title>Node30&#45;&gt;Node31</title>
<path fill="none" stroke="midnightblue" d="M907.48,-188.66C867.25,-210.64 791.85,-251.84 757.66,-270.52"/>
<polygon fill="midnightblue" stroke="midnightblue" points="909.34,-191.63 916.44,-183.76 905.99,-185.49 909.34,-191.63"/>
</g>
<!-- Node33 -->
<g id="node33" class="node">
<title>Node33</title>
<g id="a_node33"><a xlink:href="namespacewmtk_1_1components.html#a0385d7ace50dd77deab3d479b734435d" target="_top" xlink:title=" ">
<polygon fill="none" stroke="black" points="668.5,-164.67 668.5,-183.67 809.5,-183.67 809.5,-164.67 668.5,-164.67"/>
<text text-anchor="middle" x="739" y="-171.67" font-family="Helvetica,sans-Serif" font-size="10.00">wmtk::components::input</text>
</a>
</g>
</g>
<!-- Node30&#45;&gt;Node33 -->
<g id="edge32" class="edge">
<title>Node30&#45;&gt;Node33</title>
<path fill="none" stroke="midnightblue" d="M872.57,-174.17C852.61,-174.17 830.32,-174.17 809.79,-174.17"/>
<polygon fill="midnightblue" stroke="midnightblue" points="872.78,-177.67 882.78,-174.17 872.77,-170.67 872.78,-177.67"/>
</g>
<!-- Node41 -->
<g id="node41" class="node">
<title>Node41</title>
<g id="a_node41"><a xlink:href="classwmtk_1_1io_1_1_cached_multi_mesh.html#aa33ef463beccbfc46f941380e988765c" target="_top" xlink:title=" ">
<polygon fill="none" stroke="black" points="663,-115.17 663,-145.17 815,-145.17 815,-115.17 663,-115.17"/>
<text text-anchor="start" x="671" y="-133.17" font-family="Helvetica,sans-Serif" font-size="10.00">wmtk::io::CachedMultiMesh</text>
<text text-anchor="middle" x="739" y="-122.17" font-family="Helvetica,sans-Serif" font-size="10.00">::load</text>
</a>
</g>
</g>
<!-- Node30&#45;&gt;Node41 -->
<g id="edge44" class="edge">
<title>Node30&#45;&gt;Node41</title>
<path fill="none" stroke="midnightblue" d="M881.91,-162.36C858.71,-157.09 831.1,-150.83 806.42,-145.23"/>
<polygon fill="midnightblue" stroke="midnightblue" points="881.38,-165.82 891.9,-164.62 882.93,-159 881.38,-165.82"/>
</g>
<!-- Node32 -->
<g id="node32" class="node">
<title>Node32</title>
<g id="a_node32"><a xlink:href="test__component__import__cache_8cpp.html#a081b8f9743b3281709466fa4850cfb84" target="_top" xlink:title=" ">
<polygon fill="none" stroke="black" points="499,-319.67 499,-338.67 570,-338.67 570,-319.67 499,-319.67"/>
<text text-anchor="middle" x="534.5" y="-326.67" font-family="Helvetica,sans-Serif" font-size="10.00">TEST_CASE</text>
</a>
</g>
</g>
<!-- Node31&#45;&gt;Node32 -->
<g id="edge31" class="edge">
<title>Node31&#45;&gt;Node32</title>
<path fill="none" stroke="midnightblue" d="M688.48,-292.15C651.81,-301.02 602.76,-312.89 570.2,-320.77"/>
<polygon fill="midnightblue" stroke="midnightblue" points="689.58,-295.49 698.48,-289.73 687.93,-288.68 689.58,-295.49"/>
</g>
<!-- Node34 -->
<g id="node34" class="node">
<title>Node34</title>
<g id="a_node34"><a xlink:href="classwmtk_1_1utils_1_1metaprogramming_1_1detail_1_1_reference_wrapped_functor_return_cache.html#a5ffba4ecba9b713c61963ceb4fd5a2dd" target="_top" xlink:title=" ">
<polygon fill="none" stroke="black" points="221,-74.67 221,-115.67 406,-115.67 406,-74.67 221,-74.67"/>
<text text-anchor="start" x="229" y="-103.67" font-family="Helvetica,sans-Serif" font-size="10.00">wmtk::utils::metaprogramming</text>
<text text-anchor="start" x="229" y="-92.67" font-family="Helvetica,sans-Serif" font-size="10.00">::detail::ReferenceWrappedFunctor</text>
<text text-anchor="middle" x="313.5" y="-81.67" font-family="Helvetica,sans-Serif" font-size="10.00">ReturnCache::add</text>
</a>
</g>
</g>
<!-- Node33&#45;&gt;Node34 -->
<g id="edge33" class="edge">
<title>Node33&#45;&gt;Node34</title>
<path fill="none" stroke="midnightblue" d="M676.8,-162.75C605.85,-149.52 488.2,-127.57 406.29,-112.29"/>
<polygon fill="midnightblue" stroke="midnightblue" points="676.44,-166.25 686.92,-164.64 677.73,-159.37 676.44,-166.25"/>
</g>
<!-- Node35 -->
<g id="node35" class="node">
<title>Node35</title>
<g id="a_node35"><a xlink:href="classwmtk_1_1operations_1_1internal_1_1_split_alternate_facet_option_data.html#adccb5244ac7d5b2e0b31b4837918fa39" target="_top" xlink:title=" ">
<polygon fill="none" stroke="black" points="449.5,-221.67 449.5,-262.67 619.5,-262.67 619.5,-221.67 449.5,-221.67"/>
<text text-anchor="start" x="457.5" y="-250.67" font-family="Helvetica,sans-Serif" font-size="10.00">wmtk::operations::internal</text>
<text text-anchor="start" x="457.5" y="-239.67" font-family="Helvetica,sans-Serif" font-size="10.00">::SplitAlternateFacetOptionData</text>
<text text-anchor="middle" x="534.5" y="-228.67" font-family="Helvetica,sans-Serif" font-size="10.00">::boundary_indices</text>
</a>
</g>
</g>
<!-- Node33&#45;&gt;Node35 -->
<g id="edge34" class="edge">
<title>Node33&#45;&gt;Node35</title>
<path fill="none" stroke="midnightblue" d="M700.48,-187.15C679,-194.55 651.51,-203.96 627,-212.17 617.81,-215.25 608.08,-218.47 598.54,-221.62"/>
<polygon fill="midnightblue" stroke="midnightblue" points="701.89,-190.36 710.21,-183.8 699.61,-183.75 701.89,-190.36"/>
</g>
<!-- Node36 -->
<g id="node36" class="node">
<title>Node36</title>
<g id="a_node36"><a xlink:href="classwmtk_1_1utils_1_1metaprogramming_1_1detail_1_1_reference_wrapped_functor_return_cache.html#ae3b4aa1a8b7415de2714b434e8520953" target="_top" xlink:title=" ">
<polygon fill="none" stroke="black" points="0,-142.67 0,-183.67 185,-183.67 185,-142.67 0,-142.67"/>
<text text-anchor="start" x="8" y="-171.67" font-family="Helvetica,sans-Serif" font-size="10.00">wmtk::utils::metaprogramming</text>
<text text-anchor="start" x="8" y="-160.67" font-family="Helvetica,sans-Serif" font-size="10.00">::detail::ReferenceWrappedFunctor</text>
<text text-anchor="middle" x="92.5" y="-149.67" font-family="Helvetica,sans-Serif" font-size="10.00">ReturnCache::get</text>
</a>
</g>
</g>
<!-- Node33&#45;&gt;Node36 -->
<g id="edge35" class="edge">
<title>Node33&#45;&gt;Node36</title>
<path fill="none" stroke="midnightblue" d="M724.8,-192.03C706.1,-215.63 669.43,-256.12 627,-272.17 447.29,-340.15 216.65,-231.48 129.23,-183.81"/>
<polygon fill="midnightblue" stroke="midnightblue" points="727.73,-193.95 731.06,-183.89 722.19,-189.68 727.73,-193.95"/>
</g>
<!-- Node37 -->
<g id="node37" class="node">
<title>Node37</title>
<g id="a_node37"><a xlink:href="classwmtk_1_1utils_1_1metaprogramming_1_1detail_1_1_reference_wrapped_functor_return_cache.html#a31b56eba1f5bd731f738170979d38bfc" target="_top" xlink:title=" ">
<polygon fill="none" stroke="black" points="442,-47.67 442,-88.67 627,-88.67 627,-47.67 442,-47.67"/>
<text text-anchor="start" x="450" y="-76.67" font-family="Helvetica,sans-Serif" font-size="10.00">wmtk::utils::metaprogramming</text>
<text text-anchor="start" x="450" y="-65.67" font-family="Helvetica,sans-Serif" font-size="10.00">::detail::ReferenceWrappedFunctor</text>
<text text-anchor="middle" x="534.5" y="-54.67" font-family="Helvetica,sans-Serif" font-size="10.00">ReturnCache::get_id</text>
</a>
</g>
</g>
<!-- Node33&#45;&gt;Node37 -->
<g id="edge36" class="edge">
<title>Node33&#45;&gt;Node37</title>
<path fill="none" stroke="midnightblue" d="M674.37,-160.7C670.38,-158.8 666.55,-156.64 663,-154.17 640.23,-138.31 648.91,-120.2 627,-103.17 619.88,-97.64 611.79,-92.9 603.43,-88.85"/>
<polygon fill="midnightblue" stroke="midnightblue" points="673.35,-164.06 683.92,-164.66 676.03,-157.6 673.35,-164.06"/>
</g>
<!-- Node38 -->
<g id="node38" class="node">
<title>Node38</title>
<g id="a_node38"><a xlink:href="classwmtk_1_1utils_1_1metaprogramming_1_1detail_1_1_reference_wrapped_functor_return_cache.html#a2d4e8819e94c7d717f9cb27fb953c9e1" target="_top" xlink:title=" ">
<polygon fill="none" stroke="black" points="221,-14.67 221,-55.67 406,-55.67 406,-14.67 221,-14.67"/>
<text text-anchor="start" x="229" y="-43.67" font-family="Helvetica,sans-Serif" font-size="10.00">wmtk::utils::metaprogramming</text>
<text text-anchor="start" x="229" y="-32.67" font-family="Helvetica,sans-Serif" font-size="10.00">::detail::ReferenceWrappedFunctor</text>
<text text-anchor="middle" x="313.5" y="-21.67" font-family="Helvetica,sans-Serif" font-size="10.00">ReturnCache::get_variant</text>
</a>
</g>
</g>
<!-- Node33&#45;&gt;Node38 -->
<g id="edge41" class="edge">
<title>Node33&#45;&gt;Node38</title>
<path fill="none" stroke="midnightblue" d="M669.3,-159.31C667.07,-157.76 664.96,-156.05 663,-154.17 624.07,-116.78 670.31,-70.4 627,-38.17 556.81,14.06 451.06,1.68 382.39,-14.63"/>
<polygon fill="midnightblue" stroke="midnightblue" points="668,-162.6 678.42,-164.54 671.49,-156.53 668,-162.6"/>
</g>
<!-- Node39 -->
<g id="node39" class="node">
<title>Node39</title>
<g id="a_node39"><a xlink:href="classwmtk_1_1utils_1_1metaprogramming_1_1detail_1_1_reference_wrapped_functor_return_cache.html#a6e14286f2c0e0cfa16372756f768449a" target="_top" xlink:title=" ">
<polygon fill="none" stroke="black" points="221,-134.67 221,-175.67 406,-175.67 406,-134.67 221,-134.67"/>
<text text-anchor="start" x="229" y="-163.67" font-family="Helvetica,sans-Serif" font-size="10.00">wmtk::utils::metaprogramming</text>
<text text-anchor="start" x="229" y="-152.67" font-family="Helvetica,sans-Serif" font-size="10.00">::detail::ReferenceWrappedFunctor</text>
<text text-anchor="middle" x="313.5" y="-141.67" font-family="Helvetica,sans-Serif" font-size="10.00">ReturnCache::has_variant</text>
</a>
</g>
</g>
<!-- Node33&#45;&gt;Node39 -->
<g id="edge42" class="edge">
<title>Node33&#45;&gt;Node39</title>
<path fill="none" stroke="midnightblue" d="M657.73,-170.57C586.01,-167.35 480.97,-162.64 406.01,-159.28"/>
<polygon fill="midnightblue" stroke="midnightblue" points="657.92,-174.08 668.07,-171.03 658.23,-167.09 657.92,-174.08"/>
</g>
<!-- Node40 -->
<g id="node40" class="node">
<title>Node40</title>
<g id="a_node40"><a xlink:href="test__component__export__cache_8cpp.html#abcda20b0d7549011759e21e6f7401e27" target="_top" xlink:title=" ">
<polygon fill="none" stroke="black" points="499,-183.67 499,-202.67 570,-202.67 570,-183.67 499,-183.67"/>
<text text-anchor="middle" x="534.5" y="-190.67" font-family="Helvetica,sans-Serif" font-size="10.00">TEST_CASE</text>
</a>
</g>
</g>
<!-- Node33&#45;&gt;Node40 -->
<g id="edge43" class="edge">
<title>Node33&#45;&gt;Node40</title>
<path fill="none" stroke="midnightblue" d="M658.06,-181.67C627.49,-184.54 594.2,-187.66 570.04,-189.93"/>
<polygon fill="midnightblue" stroke="midnightblue" points="658.68,-185.13 668.31,-180.71 658.03,-178.16 658.68,-185.13"/>
</g>
<!-- Node37&#45;&gt;Node34 -->
<g id="edge37" class="edge">
<title>Node37&#45;&gt;Node34</title>
<path fill="none" stroke="midnightblue" d="M431.85,-80.7C423.26,-81.76 414.6,-82.83 406.09,-83.88"/>
<polygon fill="midnightblue" stroke="midnightblue" points="432.4,-84.16 441.89,-79.46 431.54,-77.21 432.4,-84.16"/>
</g>
<!-- Node37&#45;&gt;Node38 -->
<g id="edge38" class="edge">
<title>Node37&#45;&gt;Node38</title>
<path fill="none" stroke="midnightblue" d="M431.85,-52.85C423.26,-51.56 414.6,-50.25 406.09,-48.97"/>
<polygon fill="midnightblue" stroke="midnightblue" points="431.48,-56.34 441.89,-54.37 432.53,-49.41 431.48,-56.34"/>
</g>
<!-- Node37&#45;&gt;Node39 -->
<g id="edge40" class="edge">
<title>Node37&#45;&gt;Node39</title>
<path fill="none" stroke="midnightblue" d="M481.4,-92.93C458.5,-103.43 431.15,-115.46 406,-125.17 397.73,-128.36 388.97,-131.52 380.27,-134.52"/>
<polygon fill="midnightblue" stroke="midnightblue" points="482.98,-96.05 490.59,-88.69 480.05,-89.7 482.98,-96.05"/>
</g>
<!-- Node38&#45;&gt;Node36 -->
<g id="edge39" class="edge">
<title>Node38&#45;&gt;Node36</title>
<path fill="none" stroke="midnightblue" d="M232.03,-59.8C228.25,-61.5 224.56,-63.29 221,-65.17 180.52,-86.56 139.58,-120.76 115.38,-142.58"/>
<polygon fill="midnightblue" stroke="midnightblue" points="233.73,-62.88 241.56,-55.75 230.99,-56.44 233.73,-62.88"/>
</g>
<!-- Node45 -->
<g id="node45" class="node">
<title>Node45</title>
<g id="a_node45"><a xlink:href="namespacewmtk_1_1components.html#a3154cdbc6047eee67258b69cc7d5e7cf" target="_top" xlink:title="Perform shortest&#45;edge collapse on a triangular surface mesh.">
<polygon fill="none" stroke="black" points="1059.5,-115.17 1059.5,-145.17 1239.5,-145.17 1239.5,-115.17 1059.5,-115.17"/>
<text text-anchor="start" x="1067.5" y="-133.17" font-family="Helvetica,sans-Serif" font-size="10.00">wmtk::components::shortestedge</text>
<text text-anchor="middle" x="1149.5" y="-122.17" font-family="Helvetica,sans-Serif" font-size="10.00">_collapse</text>
</a>
</g>
</g>
<!-- Node44&#45;&gt;Node45 -->
<g id="edge49" class="edge">
<title>Node44&#45;&gt;Node45</title>
<path fill="none" stroke="midnightblue" d="M1283.82,-357.89C1282.49,-356.71 1281.22,-355.47 1280,-354.17 1218.58,-288.55 1304.89,-221.29 1244,-155.17 1240.47,-151.34 1236.43,-148.07 1232.04,-145.28"/>
<polygon fill="midnightblue" stroke="midnightblue" points="1281.83,-360.77 1291.92,-364 1286.05,-355.18 1281.83,-360.77"/>
</g>
</g>
</svg>
