<?xml version="1.0" encoding="UTF-8" standalone="no"?>
<!DOCTYPE svg PUBLIC "-//W3C//DTD SVG 1.1//EN"
 "http://www.w3.org/Graphics/SVG/1.1/DTD/svg11.dtd">
<!-- Generated by graphviz version 2.43.0 (0)
 -->
<!-- Title: wmtk::components::multimesh::utils::detail::attribute_missing_error Pages: 1 -->
<svg width="290pt" height="196pt"
 viewBox="0.00 0.00 289.50 196.00" xmlns="http://www.w3.org/2000/svg" xmlns:xlink="http://www.w3.org/1999/xlink">
<g id="graph0" class="graph" transform="scale(1 1) rotate(0) translate(4 192)">
<title>wmtk::components::multimesh::utils::detail::attribute_missing_error</title>
<!-- Node1 -->
<g id="node1" class="node">
<title>Node1</title>
<g id="a_node1"><a xlink:title=" ">
<polygon fill="#bfbfbf" stroke="black" points="37.5,-0.5 37.5,-41.5 206.5,-41.5 206.5,-0.5 37.5,-0.5"/>
<text text-anchor="start" x="45.5" y="-29.5" font-family="Helvetica,sans-Serif" font-size="10.00">wmtk::components::multimesh</text>
<text text-anchor="start" x="45.5" y="-18.5" font-family="Helvetica,sans-Serif" font-size="10.00">::utils::detail::attribute</text>
<text text-anchor="middle" x="122" y="-7.5" font-family="Helvetica,sans-Serif" font-size="10.00">_missing_error</text>
</a>
</g>
</g>
<!-- Node2 -->
<g id="node2" class="node">
<title>Node2</title>
<g id="a_node2"><a xlink:href="classwmtk_1_1components_1_1multimesh_1_1utils_1_1detail_1_1attribute__error.html" target="_top" xlink:title=" ">
<polygon fill="none" stroke="black" points="37.5,-79.5 37.5,-109.5 206.5,-109.5 206.5,-79.5 37.5,-79.5"/>
<text text-anchor="start" x="45.5" y="-97.5" font-family="Helvetica,sans-Serif" font-size="10.00">wmtk::components::multimesh</text>
<text text-anchor="middle" x="122" y="-86.5" font-family="Helvetica,sans-Serif" font-size="10.00">::utils::detail::attribute_error</text>
</a>
</g>
</g>
<!-- Node2&#45;&gt;Node1 -->
<g id="edge1" class="edge">
<title>Node2&#45;&gt;Node1</title>
<path fill="none" stroke="midnightblue" d="M122,-69.1C122,-60.1 122,-50.02 122,-41.51"/>
<polygon fill="midnightblue" stroke="midnightblue" points="118.5,-69.37 122,-79.37 125.5,-69.37 118.5,-69.37"/>
</g>
<!-- Node3 -->
<g id="node3" class="node">
<title>Node3</title>
<g id="a_node3"><a xlink:title=" ">
<polygon fill="none" stroke="#bfbfbf" points="0,-163 0,-182 94,-182 94,-163 0,-163"/>
<text text-anchor="middle" x="47" y="-170" font-family="Helvetica,sans-Serif" font-size="10.00">std::range_error</text>
</a>
</g>
</g>
<!-- Node3&#45;&gt;Node2 -->
<g id="edge2" class="edge">
<title>Node3&#45;&gt;Node2</title>
<path fill="none" stroke="midnightblue" d="M62.77,-155.52C76.2,-141.91 95.32,-122.54 108.16,-109.52"/>
<polygon fill="midnightblue" stroke="midnightblue" points="60.14,-153.21 55.6,-162.78 65.12,-158.12 60.14,-153.21"/>
</g>
<!-- Node4 -->
<g id="node4" class="node">
<title>Node4</title>
<g id="a_node4"><a xlink:href="structwmtk_1_1components_1_1multimesh_1_1utils_1_1_attribute_description.html" target="_top" xlink:title=" ">
<polygon fill="none" stroke="black" points="112.5,-157.5 112.5,-187.5 281.5,-187.5 281.5,-157.5 112.5,-157.5"/>
<text text-anchor="start" x="120.5" y="-175.5" font-family="Helvetica,sans-Serif" font-size="10.00">wmtk::components::multimesh</text>
<text text-anchor="middle" x="197" y="-164.5" font-family="Helvetica,sans-Serif" font-size="10.00">::utils::AttributeDescription</text>
</a>
</g>
</g>
<!-- Node4&#45;&gt;Node2 -->
<g id="edge3" class="edge">
<title>Node4&#45;&gt;Node2</title>
<path fill="none" stroke="#9a32cd" stroke-dasharray="5,2" d="M175.82,-150.03C163.08,-137.13 147.24,-121.07 136.04,-109.73"/>
<polygon fill="#9a32cd" stroke="#9a32cd" points="173.38,-152.55 182.89,-157.2 178.36,-147.63 173.38,-152.55"/>
<text text-anchor="middle" x="192" y="-131" font-family="Helvetica,sans-Serif" font-size="10.00"> description</text>
</g>
</g>
</svg>
