<?xml version="1.0" encoding="UTF-8" standalone="no"?>
<!DOCTYPE svg PUBLIC "-//W3C//DTD SVG 1.1//EN"
 "http://www.w3.org/Graphics/SVG/1.1/DTD/svg11.dtd">
<!-- Generated by graphviz version 2.43.0 (0)
 -->
<!-- Title: wmtk::components::internal::Marching::process Pages: 1 -->
<!--zoomable 925 -->
<svg id="main" version="1.1" xmlns="http://www.w3.org/2000/svg" xmlns:xlink="http://www.w3.org/1999/xlink" xml:space="preserve" onload="init(evt)">
<style type="text/css"><![CDATA[
.edge:hover path { stroke: red; }
.edge:hover polygon { stroke: red; fill: red; }
]]></style>
<script type="text/javascript"><![CDATA[
var edges = document.getElementsByTagName('g');
if (edges && edges.length) {
  for (var i=0;i<edges.length;i++) {
    if (edges[i].id.substr(0,4)=='edge') {
      edges[i].setAttribute('class','edge');
    }
  }
}
]]></script>
        <defs>
                <circle id="rim" cx="0" cy="0" r="7"/>
                <circle id="rim2" cx="0" cy="0" r="3.5"/>
                <g id="zoomPlus">
                        <use xlink:href="#rim" fill="#404040">
                                <set attributeName="fill" to="#808080" begin="zoomplus.mouseover" end="zoomplus.mouseout"/>
                        </use>
                        <path d="M-4,0h8M0,-4v8" fill="none" stroke="white" stroke-width="1.5" pointer-events="none"/>
                </g>
                <g id="zoomMin">
                        <use xlink:href="#rim" fill="#404040">
                                <set attributeName="fill" to="#808080" begin="zoomminus.mouseover" end="zoomminus.mouseout"/>
                        </use>
                        <path d="M-4,0h8" fill="none" stroke="white" stroke-width="1.5" pointer-events="none"/>
                </g>
                <g id="dirArrow">
                        <path fill="none" stroke="white" stroke-width="1.5" d="M0,-3.0v7 M-2.5,-0.5L0,-3.0L2.5,-0.5"/>
                </g>
               <g id="resetDef">
                       <use xlink:href="#rim2" fill="#404040">
                               <set attributeName="fill" to="#808080" begin="reset.mouseover" end="reset.mouseout"/>
                       </use>
               </g>
        </defs>

<script type="text/javascript">
var viewWidth = 1552;
var viewHeight = 925;
var sectionId = 'dynsection-1';
</script>
<script xlink:href="svgpan.js"/>
<svg id="graph" class="graph">
<g id="viewport">
<title>wmtk::components::internal::Marching::process</title>
<!-- Node1 -->
<g id="node1" class="node">
<title>Node1</title>
<g id="a_node1"><a xlink:title=" ">
<polygon fill="#bfbfbf" stroke="black" points="0,-597.5 0,-627.5 154,-627.5 154,-597.5 0,-597.5"/>
<text text-anchor="start" x="8" y="-615.5" font-family="Helvetica,sans-Serif" font-size="10.00">wmtk::components::internal</text>
<text text-anchor="middle" x="77" y="-604.5" font-family="Helvetica,sans-Serif" font-size="10.00">::Marching::process</text>
</a>
</g>
</g>
<!-- Node2 -->
<g id="node2" class="node">
<title>Node2</title>
<g id="a_node2"><a xlink:href="classwmtk_1_1operations_1_1_operation.html#a15a2b269f98ec16b4b8d1d88feb60b85" target="_top" xlink:title=" ">
<polygon fill="none" stroke="black" points="190,-861.5 190,-891.5 346,-891.5 346,-861.5 190,-861.5"/>
<text text-anchor="start" x="198" y="-879.5" font-family="Helvetica,sans-Serif" font-size="10.00">wmtk::operations::Operation</text>
<text text-anchor="middle" x="268" y="-868.5" font-family="Helvetica,sans-Serif" font-size="10.00">::add_invariant</text>
</a>
</g>
</g>
<!-- Node1&#45;&gt;Node2 -->
<g id="edge1" class="edge">
<title>Node1&#45;&gt;Node2</title>
<path fill="none" stroke="midnightblue" d="M84.99,-627.53C100.93,-661 142.31,-743.45 190,-803.5 204.93,-822.29 224.6,-840.87 240.33,-854.57"/>
<polygon fill="midnightblue" stroke="midnightblue" points="238.28,-857.43 248.15,-861.28 242.83,-852.11 238.28,-857.43"/>
</g>
<!-- Node4 -->
<g id="node4" class="node">
<title>Node4</title>
<g id="a_node4"><a xlink:href="classwmtk_1_1_mesh.html#a8a5ee2526671002bd91f2b7182b92af6" target="_top" xlink:title=" ">
<polygon fill="none" stroke="black" points="211.5,-763.5 211.5,-793.5 324.5,-793.5 324.5,-763.5 211.5,-763.5"/>
<text text-anchor="start" x="219.5" y="-781.5" font-family="Helvetica,sans-Serif" font-size="10.00">wmtk::Mesh::create</text>
<text text-anchor="middle" x="268" y="-770.5" font-family="Helvetica,sans-Serif" font-size="10.00">_accessor</text>
</a>
</g>
</g>
<!-- Node1&#45;&gt;Node4 -->
<g id="edge3" class="edge">
<title>Node1&#45;&gt;Node4</title>
<path fill="none" stroke="midnightblue" d="M95.11,-627.52C128.61,-656.96 203.03,-722.31 242.04,-756.57"/>
<polygon fill="midnightblue" stroke="midnightblue" points="239.97,-759.42 249.8,-763.39 244.59,-754.16 239.97,-759.42"/>
</g>
<!-- Node8 -->
<g id="node8" class="node">
<title>Node8</title>
<g id="a_node8"><a xlink:href="classwmtk_1_1_mesh.html#a6d2a546c8f661bf6386cf845a1693d2f" target="_top" xlink:title="Generate a vector of Tuples from global vertex/edge/triangle/tetrahedron index.">
<polygon fill="none" stroke="black" points="410.5,-603 410.5,-622 526.5,-622 526.5,-603 410.5,-603"/>
<text text-anchor="middle" x="468.5" y="-610" font-family="Helvetica,sans-Serif" font-size="10.00">wmtk::Mesh::get_all</text>
</a>
</g>
</g>
<!-- Node1&#45;&gt;Node8 -->
<g id="edge7" class="edge">
<title>Node1&#45;&gt;Node8</title>
<path fill="none" stroke="midnightblue" d="M154.02,-612.5C225.52,-612.5 331.53,-612.5 400.07,-612.5"/>
<polygon fill="midnightblue" stroke="midnightblue" points="400.32,-616 410.32,-612.5 400.32,-609 400.32,-616"/>
</g>
<!-- Node9 -->
<g id="node9" class="node">
<title>Node9</title>
<g id="a_node9"><a xlink:href="classwmtk_1_1_mesh.html#a3faf39088ce02c2a2f208c762d6f2b52" target="_top" xlink:title=" ">
<polygon fill="none" stroke="black" points="208,-641.5 208,-671.5 328,-671.5 328,-641.5 208,-641.5"/>
<text text-anchor="start" x="216" y="-659.5" font-family="Helvetica,sans-Serif" font-size="10.00">wmtk::Mesh::register</text>
<text text-anchor="middle" x="268" y="-648.5" font-family="Helvetica,sans-Serif" font-size="10.00">_attribute_typed</text>
</a>
</g>
</g>
<!-- Node1&#45;&gt;Node9 -->
<g id="edge8" class="edge">
<title>Node1&#45;&gt;Node9</title>
<path fill="none" stroke="midnightblue" d="M142.51,-627.52C160.38,-631.68 179.84,-636.21 197.95,-640.43"/>
<polygon fill="midnightblue" stroke="midnightblue" points="197.32,-643.87 207.86,-642.73 198.91,-637.06 197.32,-643.87"/>
</g>
<!-- Node13 -->
<g id="node13" class="node">
<title>Node13</title>
<g id="a_node13"><a xlink:href="classwmtk_1_1_scheduler.html#a246ccf6605333ebb7c020aa8fae1e959" target="_top" xlink:title=" ">
<polygon fill="none" stroke="black" points="208,-359.5 208,-389.5 328,-389.5 328,-359.5 208,-359.5"/>
<text text-anchor="start" x="216" y="-377.5" font-family="Helvetica,sans-Serif" font-size="10.00">wmtk::Scheduler::run</text>
<text text-anchor="middle" x="268" y="-366.5" font-family="Helvetica,sans-Serif" font-size="10.00">_operation_on_all</text>
</a>
</g>
</g>
<!-- Node1&#45;&gt;Node13 -->
<g id="edge12" class="edge">
<title>Node1&#45;&gt;Node13</title>
<path fill="none" stroke="midnightblue" d="M90.11,-597.25C122.31,-556.7 210.22,-446 248.63,-397.63"/>
<polygon fill="midnightblue" stroke="midnightblue" points="251.51,-399.63 254.99,-389.62 246.03,-395.28 251.51,-399.63"/>
</g>
<!-- Node34 -->
<g id="node34" class="node">
<title>Node34</title>
<g id="a_node34"><a xlink:href="classwmtk_1_1operations_1_1_edge_split.html#ae0a8318865da32ee77c8ce98158b48e8" target="_top" xlink:title=" ">
<polygon fill="none" stroke="black" points="190,-310.5 190,-340.5 346,-340.5 346,-310.5 190,-310.5"/>
<text text-anchor="start" x="198" y="-328.5" font-family="Helvetica,sans-Serif" font-size="10.00">wmtk::operations::EdgeSplit</text>
<text text-anchor="middle" x="268" y="-317.5" font-family="Helvetica,sans-Serif" font-size="10.00">::set_new_attribute_strategy</text>
</a>
</g>
</g>
<!-- Node1&#45;&gt;Node34 -->
<g id="edge37" class="edge">
<title>Node1&#45;&gt;Node34</title>
<path fill="none" stroke="midnightblue" d="M80.07,-597.27C86.95,-552.61 113.13,-420.74 190,-350.5 191.73,-348.92 193.56,-347.44 195.47,-346.06"/>
<polygon fill="midnightblue" stroke="midnightblue" points="197.66,-348.81 204.29,-340.56 193.96,-342.87 197.66,-348.81"/>
</g>
<!-- Node35 -->
<g id="node35" class="node">
<title>Node35</title>
<g id="a_node35"><a xlink:href="classwmtk_1_1_mesh.html#aed90cad0755b0052b0ca4502e401bcd3" target="_top" xlink:title=" ">
<polygon fill="none" stroke="black" points="211,-119.5 211,-149.5 325,-149.5 325,-119.5 211,-119.5"/>
<text text-anchor="start" x="219" y="-137.5" font-family="Helvetica,sans-Serif" font-size="10.00">wmtk::Mesh::switch</text>
<text text-anchor="middle" x="268" y="-126.5" font-family="Helvetica,sans-Serif" font-size="10.00">_vertex</text>
</a>
</g>
</g>
<!-- Node1&#45;&gt;Node35 -->
<g id="edge38" class="edge">
<title>Node1&#45;&gt;Node35</title>
<path fill="none" stroke="midnightblue" d="M82.91,-597.44C97.78,-552.17 144.09,-413.55 190,-301.5 211.17,-249.83 239.36,-190.81 255.09,-158.6"/>
<polygon fill="midnightblue" stroke="midnightblue" points="258.29,-160.02 259.55,-149.5 252,-156.94 258.29,-160.02"/>
</g>
<!-- Node3 -->
<g id="node3" class="node">
<title>Node3</title>
<g id="a_node3"><a xlink:href="classwmtk_1_1invariants_1_1_invariant_collection.html#a17c51789c88fea75126d3d35ac1421ab" target="_top" xlink:title=" ">
<polygon fill="none" stroke="black" points="394,-886.5 394,-916.5 543,-916.5 543,-886.5 394,-886.5"/>
<text text-anchor="start" x="402" y="-904.5" font-family="Helvetica,sans-Serif" font-size="10.00">wmtk::invariants::Invariant</text>
<text text-anchor="middle" x="468.5" y="-893.5" font-family="Helvetica,sans-Serif" font-size="10.00">Collection::add</text>
</a>
</g>
</g>
<!-- Node2&#45;&gt;Node3 -->
<g id="edge2" class="edge">
<title>Node2&#45;&gt;Node3</title>
<path fill="none" stroke="midnightblue" d="M346.03,-886.2C358.41,-887.76 371.28,-889.38 383.81,-890.96"/>
<polygon fill="midnightblue" stroke="midnightblue" points="383.41,-894.44 393.77,-892.21 384.29,-887.49 383.41,-894.44"/>
</g>
<!-- Node5 -->
<g id="node5" class="node">
<title>Node5</title>
<g id="a_node5"><a xlink:href="classwmtk_1_1attribute_1_1_mesh_attribute_handle.html#ac326961f01b9ba4fec395827f15a7ef2" target="_top" xlink:title=" ">
<polygon fill="none" stroke="black" points="385,-788.5 385,-818.5 552,-818.5 552,-788.5 385,-788.5"/>
<text text-anchor="start" x="393" y="-806.5" font-family="Helvetica,sans-Serif" font-size="10.00">wmtk::attribute::MeshAttribute</text>
<text text-anchor="middle" x="468.5" y="-795.5" font-family="Helvetica,sans-Serif" font-size="10.00">Handle::as</text>
</a>
</g>
</g>
<!-- Node4&#45;&gt;Node5 -->
<g id="edge4" class="edge">
<title>Node4&#45;&gt;Node5</title>
<path fill="none" stroke="midnightblue" d="M324.56,-785.5C340.19,-787.47 357.62,-789.66 374.79,-791.82"/>
<polygon fill="midnightblue" stroke="midnightblue" points="374.5,-795.31 384.85,-793.09 375.37,-788.37 374.5,-795.31"/>
</g>
<!-- Node6 -->
<g id="node6" class="node">
<title>Node6</title>
<g id="a_node6"><a xlink:href="classwmtk_1_1attribute_1_1_mesh_attribute_handle.html#a2b86caeb22b007b85b138ebc6b0ed837" target="_top" xlink:title=" ">
<polygon fill="none" stroke="black" points="385,-739.5 385,-769.5 552,-769.5 552,-739.5 385,-739.5"/>
<text text-anchor="start" x="393" y="-757.5" font-family="Helvetica,sans-Serif" font-size="10.00">wmtk::attribute::MeshAttribute</text>
<text text-anchor="middle" x="468.5" y="-746.5" font-family="Helvetica,sans-Serif" font-size="10.00">Handle::holds</text>
</a>
</g>
</g>
<!-- Node4&#45;&gt;Node6 -->
<g id="edge5" class="edge">
<title>Node4&#45;&gt;Node6</title>
<path fill="none" stroke="midnightblue" d="M324.56,-771.78C340.19,-769.89 357.62,-767.79 374.79,-765.71"/>
<polygon fill="midnightblue" stroke="midnightblue" points="375.35,-769.17 384.85,-764.49 374.51,-762.22 375.35,-769.17"/>
</g>
<!-- Node7 -->
<g id="node7" class="node">
<title>Node7</title>
<g id="a_node7"><a xlink:href="classwmtk_1_1attribute_1_1_mesh_attribute_handle.html#a620620d54776b2c5f4f9cebad465cfa7" target="_top" xlink:title=" ">
<polygon fill="none" stroke="black" points="385,-837.5 385,-867.5 552,-867.5 552,-837.5 385,-837.5"/>
<text text-anchor="start" x="393" y="-855.5" font-family="Helvetica,sans-Serif" font-size="10.00">wmtk::attribute::MeshAttribute</text>
<text text-anchor="middle" x="468.5" y="-844.5" font-family="Helvetica,sans-Serif" font-size="10.00">Handle::mesh</text>
</a>
</g>
</g>
<!-- Node4&#45;&gt;Node7 -->
<g id="edge6" class="edge">
<title>Node4&#45;&gt;Node7</title>
<path fill="none" stroke="midnightblue" d="M299.69,-793.51C322.15,-804.14 353.54,-818.27 382,-828.5 387.81,-830.59 393.89,-832.61 400.02,-834.54"/>
<polygon fill="midnightblue" stroke="midnightblue" points="399.07,-837.9 409.65,-837.48 401.11,-831.21 399.07,-837.9"/>
</g>
<!-- Node10 -->
<g id="node10" class="node">
<title>Node10</title>
<g id="a_node10"><a xlink:href="classwmtk_1_1attribute_1_1_attribute_manager.html#ad8c21b193224524ed0f792b0e2d70f83" target="_top" xlink:title=" ">
<polygon fill="none" stroke="black" points="393.5,-641.5 393.5,-671.5 543.5,-671.5 543.5,-641.5 393.5,-641.5"/>
<text text-anchor="start" x="401.5" y="-659.5" font-family="Helvetica,sans-Serif" font-size="10.00">wmtk::attribute::Attribute</text>
<text text-anchor="middle" x="468.5" y="-648.5" font-family="Helvetica,sans-Serif" font-size="10.00">Manager::register_attribute</text>
</a>
</g>
</g>
<!-- Node9&#45;&gt;Node10 -->
<g id="edge9" class="edge">
<title>Node9&#45;&gt;Node10</title>
<path fill="none" stroke="midnightblue" d="M328.02,-656.5C345.28,-656.5 364.49,-656.5 383.01,-656.5"/>
<polygon fill="midnightblue" stroke="midnightblue" points="383.2,-660 393.2,-656.5 383.2,-653 383.2,-660"/>
</g>
<!-- Node12 -->
<g id="node12" class="node">
<title>Node12</title>
<g id="a_node12"><a xlink:href="classwmtk_1_1_mesh.html#abf5c88264301a97108b4c4789944b880" target="_top" xlink:title=" ">
<polygon fill="none" stroke="black" points="412,-690.5 412,-720.5 525,-720.5 525,-690.5 412,-690.5"/>
<text text-anchor="start" x="420" y="-708.5" font-family="Helvetica,sans-Serif" font-size="10.00">wmtk::Mesh::reload</text>
<text text-anchor="middle" x="468.5" y="-697.5" font-family="Helvetica,sans-Serif" font-size="10.00">_accessors</text>
</a>
</g>
</g>
<!-- Node9&#45;&gt;Node12 -->
<g id="edge11" class="edge">
<title>Node9&#45;&gt;Node12</title>
<path fill="none" stroke="midnightblue" d="M328.02,-671.07C351.22,-676.8 377.95,-683.39 401.76,-689.27"/>
<polygon fill="midnightblue" stroke="midnightblue" points="401.22,-692.74 411.77,-691.74 402.9,-685.95 401.22,-692.74"/>
</g>
<!-- Node11 -->
<g id="node11" class="node">
<title>Node11</title>
<g id="a_node11"><a xlink:href="classwmtk_1_1attribute_1_1_attribute_manager.html#a87216c73c02b436c7f965faa52553f56" target="_top" xlink:title=" ">
<polygon fill="none" stroke="black" points="600.5,-641.5 600.5,-671.5 741.5,-671.5 741.5,-641.5 600.5,-641.5"/>
<text text-anchor="start" x="608.5" y="-659.5" font-family="Helvetica,sans-Serif" font-size="10.00">wmtk::attribute::Attribute</text>
<text text-anchor="middle" x="671" y="-648.5" font-family="Helvetica,sans-Serif" font-size="10.00">Manager::size</text>
</a>
</g>
</g>
<!-- Node10&#45;&gt;Node11 -->
<g id="edge10" class="edge">
<title>Node10&#45;&gt;Node11</title>
<path fill="none" stroke="midnightblue" d="M543.59,-656.5C558.63,-656.5 574.53,-656.5 589.77,-656.5"/>
<polygon fill="midnightblue" stroke="midnightblue" points="590.21,-660 600.21,-656.5 590.21,-653 590.21,-660"/>
</g>
<!-- Node13&#45;&gt;Node8 -->
<g id="edge14" class="edge">
<title>Node13&#45;&gt;Node8</title>
<path fill="none" stroke="midnightblue" d="M272.12,-389.56C281.26,-429.62 311.85,-539.44 382,-593.5 387.5,-597.74 393.76,-601.07 400.34,-603.69"/>
<polygon fill="midnightblue" stroke="midnightblue" points="399.55,-607.11 410.14,-607.02 401.8,-600.49 399.55,-607.11"/>
</g>
<!-- Node14 -->
<g id="node14" class="node">
<title>Node14</title>
<g id="a_node14"><a xlink:href="classwmtk_1_1_scheduler_stats.html#a4af2233b8bafa0ee528cbef4de10fa1d" target="_top" xlink:title=" ">
<polygon fill="none" stroke="black" points="407,-126.5 407,-156.5 530,-156.5 530,-126.5 407,-126.5"/>
<text text-anchor="start" x="415" y="-144.5" font-family="Helvetica,sans-Serif" font-size="10.00">wmtk::SchedulerStats</text>
<text text-anchor="middle" x="468.5" y="-133.5" font-family="Helvetica,sans-Serif" font-size="10.00">::fail</text>
</a>
</g>
</g>
<!-- Node13&#45;&gt;Node14 -->
<g id="edge13" class="edge">
<title>Node13&#45;&gt;Node14</title>
<path fill="none" stroke="midnightblue" d="M328.13,-363.59C334.85,-360.3 341.05,-356.03 346,-350.5 401.89,-288.1 325.23,-227.09 382,-165.5 386.39,-160.74 391.64,-156.89 397.35,-153.79"/>
<polygon fill="midnightblue" stroke="midnightblue" points="399.03,-156.87 406.64,-149.51 396.1,-150.52 399.03,-156.87"/>
</g>
<!-- Node15 -->
<g id="node15" class="node">
<title>Node15</title>
<g id="a_node15"><a xlink:href="namespacewmtk.html#a6a35f11c12436093d26fdd8be6fecc06" target="_top" xlink:title="Retrieves the current logger.">
<polygon fill="none" stroke="black" points="428,-50 428,-69 509,-69 509,-50 428,-50"/>
<text text-anchor="middle" x="468.5" y="-57" font-family="Helvetica,sans-Serif" font-size="10.00">wmtk::logger</text>
</a>
</g>
</g>
<!-- Node13&#45;&gt;Node15 -->
<g id="edge15" class="edge">
<title>Node13&#45;&gt;Node15</title>
<path fill="none" stroke="midnightblue" d="M328.05,-364.04C334.87,-360.68 341.12,-356.28 346,-350.5 423.26,-259.02 303.44,-173.87 382,-83.5 391.2,-72.92 404.65,-66.83 418.17,-63.37"/>
<polygon fill="midnightblue" stroke="midnightblue" points="418.91,-66.79 427.97,-61.29 417.46,-59.94 418.91,-66.79"/>
</g>
<!-- Node17 -->
<g id="node17" class="node">
<title>Node17</title>
<g id="a_node17"><a xlink:href="classwmtk_1_1operations_1_1_operation.html#a524a78a76bb262cffcaafdd36afa037b" target="_top" xlink:title=" ">
<polygon fill="none" stroke="black" points="593,-187.5 593,-217.5 749,-217.5 749,-187.5 593,-187.5"/>
<text text-anchor="start" x="601" y="-205.5" font-family="Helvetica,sans-Serif" font-size="10.00">wmtk::operations::Operation</text>
<text text-anchor="middle" x="671" y="-194.5" font-family="Helvetica,sans-Serif" font-size="10.00">::mesh</text>
</a>
</g>
</g>
<!-- Node13&#45;&gt;Node17 -->
<g id="edge17" class="edge">
<title>Node13&#45;&gt;Node17</title>
<path fill="none" stroke="midnightblue" d="M328.33,-363.77C335.02,-360.45 341.16,-356.12 346,-350.5 414.64,-270.75 302.14,-185.01 382,-116.5 440.36,-66.44 482.04,-92.24 555,-116.5 592.5,-128.97 627.66,-158.98 648.99,-180.02"/>
<polygon fill="midnightblue" stroke="midnightblue" points="646.69,-182.66 656.21,-187.31 651.66,-177.74 646.69,-182.66"/>
</g>
<!-- Node18 -->
<g id="node18" class="node">
<title>Node18</title>
<g id="a_node18"><a xlink:href="classwmtk_1_1_scheduler_stats.html#a621a52d1a1a294fa9915e12df4604dc8" target="_top" xlink:title="Returns the number of failed operations performed by the scheduler.">
<polygon fill="none" stroke="black" points="386,-553.5 386,-583.5 551,-583.5 551,-553.5 386,-553.5"/>
<text text-anchor="start" x="394" y="-571.5" font-family="Helvetica,sans-Serif" font-size="10.00">wmtk::SchedulerStats</text>
<text text-anchor="middle" x="468.5" y="-560.5" font-family="Helvetica,sans-Serif" font-size="10.00">::number_of_failed_operations</text>
</a>
</g>
</g>
<!-- Node13&#45;&gt;Node18 -->
<g id="edge18" class="edge">
<title>Node13&#45;&gt;Node18</title>
<path fill="none" stroke="midnightblue" d="M274.89,-389.72C288.5,-422.88 325.37,-501.95 382,-543.5 384.54,-545.36 387.21,-547.08 389.98,-548.68"/>
<polygon fill="midnightblue" stroke="midnightblue" points="388.63,-551.92 399.13,-553.35 391.82,-545.69 388.63,-551.92"/>
</g>
<!-- Node19 -->
<g id="node19" class="node">
<title>Node19</title>
<g id="a_node19"><a xlink:href="classwmtk_1_1_scheduler_stats.html#a6eb636bacf541d1f62a86bfffa3b4b0e" target="_top" xlink:title="Returns the number of performed operations performed by the scheduler.">
<polygon fill="none" stroke="black" points="403,-493 403,-534 534,-534 534,-493 403,-493"/>
<text text-anchor="start" x="411" y="-522" font-family="Helvetica,sans-Serif" font-size="10.00">wmtk::SchedulerStats</text>
<text text-anchor="start" x="411" y="-511" font-family="Helvetica,sans-Serif" font-size="10.00">::number_of_performed</text>
<text text-anchor="middle" x="468.5" y="-500" font-family="Helvetica,sans-Serif" font-size="10.00">_operations</text>
</a>
</g>
</g>
<!-- Node13&#45;&gt;Node19 -->
<g id="edge19" class="edge">
<title>Node13&#45;&gt;Node19</title>
<path fill="none" stroke="midnightblue" d="M280.97,-389.65C300.04,-412.87 339.54,-457.32 382,-483.5 385.62,-485.73 389.42,-487.82 393.33,-489.78"/>
<polygon fill="midnightblue" stroke="midnightblue" points="392.08,-493.06 402.62,-494.12 395.04,-486.72 392.08,-493.06"/>
</g>
<!-- Node20 -->
<g id="node20" class="node">
<title>Node20</title>
<g id="a_node20"><a xlink:href="classwmtk_1_1_scheduler_stats.html#ae6e50990c7c4705a810c633755e9c2c0" target="_top" xlink:title="Returns the number of successful operations performed by the scheduler.">
<polygon fill="none" stroke="black" points="403,-433 403,-474 534,-474 534,-433 403,-433"/>
<text text-anchor="start" x="411" y="-462" font-family="Helvetica,sans-Serif" font-size="10.00">wmtk::SchedulerStats</text>
<text text-anchor="start" x="411" y="-451" font-family="Helvetica,sans-Serif" font-size="10.00">::number_of_successful</text>
<text text-anchor="middle" x="468.5" y="-440" font-family="Helvetica,sans-Serif" font-size="10.00">_operations</text>
</a>
</g>
</g>
<!-- Node13&#45;&gt;Node20 -->
<g id="edge20" class="edge">
<title>Node13&#45;&gt;Node20</title>
<path fill="none" stroke="midnightblue" d="M302.36,-389.72C324.72,-399.73 354.92,-412.89 382,-423.5 387.04,-425.47 392.26,-427.46 397.53,-429.41"/>
<polygon fill="midnightblue" stroke="midnightblue" points="396.45,-432.74 407.04,-432.89 398.86,-426.17 396.45,-432.74"/>
</g>
<!-- Node21 -->
<g id="node21" class="node">
<title>Node21</title>
<g id="a_node21"><a xlink:href="classwmtk_1_1operations_1_1_operation.html#a55110365dd31bcf41716087c9df8c57d" target="_top" xlink:title=" ">
<polygon fill="none" stroke="black" points="390.5,-383.5 390.5,-413.5 546.5,-413.5 546.5,-383.5 390.5,-383.5"/>
<text text-anchor="start" x="398.5" y="-401.5" font-family="Helvetica,sans-Serif" font-size="10.00">wmtk::operations::Operation</text>
<text text-anchor="middle" x="468.5" y="-390.5" font-family="Helvetica,sans-Serif" font-size="10.00">::primitive_type</text>
</a>
</g>
</g>
<!-- Node13&#45;&gt;Node21 -->
<g id="edge21" class="edge">
<title>Node13&#45;&gt;Node21</title>
<path fill="none" stroke="midnightblue" d="M328.02,-381.64C344.36,-383.61 362.44,-385.8 380.03,-387.92"/>
<polygon fill="midnightblue" stroke="midnightblue" points="379.96,-391.44 390.31,-389.17 380.8,-384.49 379.96,-391.44"/>
</g>
<!-- Node22 -->
<g id="node22" class="node">
<title>Node22</title>
<g id="a_node22"><a xlink:href="classwmtk_1_1operations_1_1_operation.html#a882eca46d5f1bc42c25dde3baf0a8297" target="_top" xlink:title=" ">
<polygon fill="none" stroke="black" points="390.5,-334.5 390.5,-364.5 546.5,-364.5 546.5,-334.5 390.5,-334.5"/>
<text text-anchor="start" x="398.5" y="-352.5" font-family="Helvetica,sans-Serif" font-size="10.00">wmtk::operations::Operation</text>
<text text-anchor="middle" x="468.5" y="-341.5" font-family="Helvetica,sans-Serif" font-size="10.00">::reserve_enough_simplices</text>
</a>
</g>
</g>
<!-- Node13&#45;&gt;Node22 -->
<g id="edge22" class="edge">
<title>Node13&#45;&gt;Node22</title>
<path fill="none" stroke="midnightblue" d="M328.02,-367.07C344.36,-365.01 362.44,-362.73 380.03,-360.52"/>
<polygon fill="midnightblue" stroke="midnightblue" points="380.82,-363.94 390.31,-359.22 379.95,-357 380.82,-363.94"/>
</g>
<!-- Node31 -->
<g id="node31" class="node">
<title>Node31</title>
<g id="a_node31"><a xlink:href="classwmtk_1_1_scheduler_stats.html#a743d45b86c6ac7d696c26e2cad573ac9" target="_top" xlink:title=" ">
<polygon fill="none" stroke="black" points="407,-285.5 407,-315.5 530,-315.5 530,-285.5 407,-285.5"/>
<text text-anchor="start" x="415" y="-303.5" font-family="Helvetica,sans-Serif" font-size="10.00">wmtk::SchedulerStats</text>
<text text-anchor="middle" x="468.5" y="-292.5" font-family="Helvetica,sans-Serif" font-size="10.00">::succeed</text>
</a>
</g>
</g>
<!-- Node13&#45;&gt;Node31 -->
<g id="edge34" class="edge">
<title>Node13&#45;&gt;Node31</title>
<path fill="none" stroke="midnightblue" d="M324.48,-359.45C331.85,-356.81 339.21,-353.82 346,-350.5 363.5,-341.95 364.42,-333.9 382,-325.5 386.88,-323.17 392.03,-321 397.28,-319.01"/>
<polygon fill="midnightblue" stroke="midnightblue" points="398.56,-322.27 406.79,-315.6 396.2,-315.68 398.56,-322.27"/>
</g>
<!-- Node32 -->
<g id="node32" class="node">
<title>Node32</title>
<g id="a_node32"><a xlink:href="namespacewmtk_1_1simplex_1_1utils.html#abc97acf22bd5eb87df2b16ad3b372cfb" target="_top" xlink:title=" ">
<polygon fill="none" stroke="black" points="382,-225 382,-266 555,-266 555,-225 382,-225"/>
<text text-anchor="start" x="390" y="-254" font-family="Helvetica,sans-Serif" font-size="10.00">wmtk::simplex::utils</text>
<text text-anchor="start" x="390" y="-243" font-family="Helvetica,sans-Serif" font-size="10.00">::tuple_vector_to_homogeneous</text>
<text text-anchor="middle" x="468.5" y="-232" font-family="Helvetica,sans-Serif" font-size="10.00">_simplex_vector</text>
</a>
</g>
</g>
<!-- Node13&#45;&gt;Node32 -->
<g id="edge35" class="edge">
<title>Node13&#45;&gt;Node32</title>
<path fill="none" stroke="midnightblue" d="M328.02,-361.75C334.52,-358.76 340.69,-355.06 346,-350.5 373.73,-326.66 354.82,-300.97 382,-276.5 383.9,-274.79 385.9,-273.17 387.98,-271.64"/>
<polygon fill="midnightblue" stroke="midnightblue" points="389.91,-274.56 396.37,-266.16 386.09,-268.7 389.91,-274.56"/>
</g>
<!-- Node33 -->
<g id="node33" class="node">
<title>Node33</title>
<g id="a_node33"><a xlink:href="classwmtk_1_1operations_1_1_operation.html#aa0c646b0871dfa2c87540c7db2969544" target="_top" xlink:title=" ">
<polygon fill="none" stroke="black" points="390.5,-175.5 390.5,-205.5 546.5,-205.5 546.5,-175.5 390.5,-175.5"/>
<text text-anchor="start" x="398.5" y="-193.5" font-family="Helvetica,sans-Serif" font-size="10.00">wmtk::operations::Operation</text>
<text text-anchor="middle" x="468.5" y="-182.5" font-family="Helvetica,sans-Serif" font-size="10.00">::use_random_priority</text>
</a>
</g>
</g>
<!-- Node13&#45;&gt;Node33 -->
<g id="edge36" class="edge">
<title>Node13&#45;&gt;Node33</title>
<path fill="none" stroke="midnightblue" d="M328.16,-363.08C334.79,-359.86 340.96,-355.75 346,-350.5 388.99,-305.69 338.62,-259.93 382,-215.5 383.42,-214.05 384.92,-212.68 386.48,-211.39"/>
<polygon fill="midnightblue" stroke="midnightblue" points="388.62,-214.16 394.81,-205.57 384.61,-208.43 388.62,-214.16"/>
</g>
<!-- Node16 -->
<g id="node16" class="node">
<title>Node16</title>
<g id="a_node16"><a xlink:href="namespacewmtk.html#a3daa7951a5f8b78cf4600dc047fcc180" target="_top" xlink:title="Setup a logger object to be used by WildmeshToolkit.">
<polygon fill="none" stroke="black" points="620.5,-50 620.5,-69 721.5,-69 721.5,-50 620.5,-50"/>
<text text-anchor="middle" x="671" y="-57" font-family="Helvetica,sans-Serif" font-size="10.00">wmtk::set_logger</text>
</a>
</g>
</g>
<!-- Node15&#45;&gt;Node16 -->
<g id="edge16" class="edge">
<title>Node15&#45;&gt;Node16</title>
<path fill="none" stroke="midnightblue" d="M509.11,-59.5C537.84,-59.5 577.22,-59.5 609.82,-59.5"/>
<polygon fill="midnightblue" stroke="midnightblue" points="610.15,-63 620.15,-59.5 610.15,-56 610.15,-63"/>
</g>
<!-- Node22&#45;&gt;Node17 -->
<g id="edge33" class="edge">
<title>Node22&#45;&gt;Node17</title>
<path fill="none" stroke="midnightblue" d="M536.81,-334.46C543.16,-331.91 549.34,-328.94 555,-325.5 597.37,-299.73 634.09,-254.1 654.04,-226.25"/>
<polygon fill="midnightblue" stroke="midnightblue" points="657.03,-228.08 659.91,-217.88 651.3,-224.06 657.03,-228.08"/>
</g>
<!-- Node23 -->
<g id="node23" class="node">
<title>Node23</title>
<g id="a_node23"><a xlink:href="classwmtk_1_1multimesh_1_1_multi_mesh_visitor.html#a4ae1801ee1021dd57a0ede0444efc2d6" target="_top" xlink:title=" ">
<polygon fill="none" stroke="black" points="591,-334.5 591,-364.5 751,-364.5 751,-334.5 591,-334.5"/>
<text text-anchor="start" x="599" y="-352.5" font-family="Helvetica,sans-Serif" font-size="10.00">wmtk::multimesh::MultiMesh</text>
<text text-anchor="middle" x="671" y="-341.5" font-family="Helvetica,sans-Serif" font-size="10.00">Visitor::execute_from_root</text>
</a>
</g>
</g>
<!-- Node22&#45;&gt;Node23 -->
<g id="edge23" class="edge">
<title>Node22&#45;&gt;Node23</title>
<path fill="none" stroke="midnightblue" d="M546.73,-349.5C557.8,-349.5 569.26,-349.5 580.53,-349.5"/>
<polygon fill="midnightblue" stroke="midnightblue" points="580.82,-353 590.82,-349.5 580.82,-346 580.82,-353"/>
</g>
<!-- Node24 -->
<g id="node24" class="node">
<title>Node24</title>
<g id="a_node24"><a xlink:href="namespacewmtk_1_1utils_1_1metaprogramming.html#aa5a891c5f82fc2a28e4fbdfc325b46f0" target="_top" xlink:title=" ">
<polygon fill="none" stroke="black" points="1375,-356.5 1375,-386.5 1544,-386.5 1544,-356.5 1375,-356.5"/>
<text text-anchor="start" x="1383" y="-374.5" font-family="Helvetica,sans-Serif" font-size="10.00">wmtk::utils::metaprogramming</text>
<text text-anchor="middle" x="1459.5" y="-363.5" font-family="Helvetica,sans-Serif" font-size="10.00">::as_mesh_variant</text>
</a>
</g>
</g>
<!-- Node23&#45;&gt;Node24 -->
<g id="edge24" class="edge">
<title>Node23&#45;&gt;Node24</title>
<path fill="none" stroke="midnightblue" d="M751.01,-351.71C897,-355.79 1208.33,-364.5 1364.74,-368.88"/>
<polygon fill="midnightblue" stroke="midnightblue" points="1364.72,-372.38 1374.81,-369.16 1364.91,-365.38 1364.72,-372.38"/>
</g>
<!-- Node25 -->
<g id="node25" class="node">
<title>Node25</title>
<g id="a_node25"><a xlink:href="classwmtk_1_1multimesh_1_1_multi_mesh_visitor.html#ad96e498fcc27eeb8993f175015c864b4" target="_top" xlink:title=" ">
<polygon fill="none" stroke="black" points="787,-378.5 787,-408.5 947,-408.5 947,-378.5 787,-378.5"/>
<text text-anchor="start" x="795" y="-396.5" font-family="Helvetica,sans-Serif" font-size="10.00">wmtk::multimesh::MultiMesh</text>
<text text-anchor="middle" x="867" y="-385.5" font-family="Helvetica,sans-Serif" font-size="10.00">Visitor::execute_mesh</text>
</a>
</g>
</g>
<!-- Node23&#45;&gt;Node25 -->
<g id="edge25" class="edge">
<title>Node23&#45;&gt;Node25</title>
<path fill="none" stroke="midnightblue" d="M738.22,-364.52C754.83,-368.29 772.78,-372.36 789.83,-376.22"/>
<polygon fill="midnightblue" stroke="midnightblue" points="789.22,-379.68 799.75,-378.47 790.77,-372.85 789.22,-379.68"/>
</g>
<!-- Node28 -->
<g id="node28" class="node">
<title>Node28</title>
<g id="a_node28"><a xlink:href="classwmtk_1_1_mesh.html#aac3ec1ebbe00982ddfe70cc710d8f54e" target="_top" xlink:title="returns a reference to the root of a multimesh tree">
<polygon fill="none" stroke="black" points="802.5,-281.5 802.5,-311.5 931.5,-311.5 931.5,-281.5 802.5,-281.5"/>
<text text-anchor="start" x="810.5" y="-299.5" font-family="Helvetica,sans-Serif" font-size="10.00">wmtk::Mesh::get_multi</text>
<text text-anchor="middle" x="867" y="-288.5" font-family="Helvetica,sans-Serif" font-size="10.00">_mesh_root</text>
</a>
</g>
</g>
<!-- Node23&#45;&gt;Node28 -->
<g id="edge29" class="edge">
<title>Node23&#45;&gt;Node28</title>
<path fill="none" stroke="midnightblue" d="M727.07,-334.45C750.11,-328.16 777.06,-320.8 801.06,-314.24"/>
<polygon fill="midnightblue" stroke="midnightblue" points="802.06,-317.6 810.79,-311.58 800.22,-310.84 802.06,-317.6"/>
</g>
<!-- Node26 -->
<g id="node26" class="node">
<title>Node26</title>
<g id="a_node26"><a xlink:href="classwmtk_1_1multimesh_1_1_multi_mesh_visitor_executor.html#ad59739579a81676fc3ab172e80ce8550" target="_top" xlink:title=" ">
<polygon fill="none" stroke="black" points="983,-378.5 983,-408.5 1143,-408.5 1143,-378.5 983,-378.5"/>
<text text-anchor="start" x="991" y="-396.5" font-family="Helvetica,sans-Serif" font-size="10.00">wmtk::multimesh::MultiMesh</text>
<text text-anchor="middle" x="1063" y="-385.5" font-family="Helvetica,sans-Serif" font-size="10.00">VisitorExecutor::execute</text>
</a>
</g>
</g>
<!-- Node25&#45;&gt;Node26 -->
<g id="edge26" class="edge">
<title>Node25&#45;&gt;Node26</title>
<path fill="none" stroke="midnightblue" d="M947.19,-393.5C955.53,-393.5 964.05,-393.5 972.5,-393.5"/>
<polygon fill="midnightblue" stroke="midnightblue" points="972.75,-397 982.75,-393.5 972.75,-390 972.75,-397"/>
</g>
<!-- Node27 -->
<g id="node27" class="node">
<title>Node27</title>
<g id="a_node27"><a xlink:href="classwmtk_1_1multimesh_1_1_multi_mesh_visitor_executor.html#a6e0ef7ccec71b521a3bc5eb5df90bef0" target="_top" xlink:title=" ">
<polygon fill="none" stroke="black" points="1179,-378.5 1179,-408.5 1339,-408.5 1339,-378.5 1179,-378.5"/>
<text text-anchor="start" x="1187" y="-396.5" font-family="Helvetica,sans-Serif" font-size="10.00">wmtk::multimesh::MultiMesh</text>
<text text-anchor="middle" x="1259" y="-385.5" font-family="Helvetica,sans-Serif" font-size="10.00">VisitorExecutor::run</text>
</a>
</g>
</g>
<!-- Node26&#45;&gt;Node27 -->
<g id="edge27" class="edge">
<title>Node26&#45;&gt;Node27</title>
<path fill="none" stroke="midnightblue" d="M1143.19,-393.5C1151.53,-393.5 1160.05,-393.5 1168.5,-393.5"/>
<polygon fill="midnightblue" stroke="midnightblue" points="1168.75,-397 1178.75,-393.5 1168.75,-390 1168.75,-397"/>
</g>
<!-- Node27&#45;&gt;Node24 -->
<g id="edge28" class="edge">
<title>Node27&#45;&gt;Node24</title>
<path fill="none" stroke="midnightblue" d="M1339.02,-384.74C1347.49,-383.8 1356.17,-382.84 1364.79,-381.89"/>
<polygon fill="midnightblue" stroke="midnightblue" points="1365.31,-385.35 1374.87,-380.77 1364.54,-378.39 1365.31,-385.35"/>
</g>
<!-- Node29 -->
<g id="node29" class="node">
<title>Node29</title>
<g id="a_node29"><a xlink:href="classwmtk_1_1_multi_mesh_manager.html#a10b58d0d287321a1b422f9b945421eda" target="_top" xlink:title=" ">
<polygon fill="none" stroke="black" points="991,-272.5 991,-302.5 1135,-302.5 1135,-272.5 991,-272.5"/>
<text text-anchor="start" x="999" y="-290.5" font-family="Helvetica,sans-Serif" font-size="10.00">wmtk::MultiMeshManager</text>
<text text-anchor="middle" x="1063" y="-279.5" font-family="Helvetica,sans-Serif" font-size="10.00">::get_root_mesh</text>
</a>
</g>
</g>
<!-- Node28&#45;&gt;Node29 -->
<g id="edge30" class="edge">
<title>Node28&#45;&gt;Node29</title>
<path fill="none" stroke="midnightblue" d="M931.52,-293.55C947.26,-292.82 964.34,-292.03 980.8,-291.27"/>
<polygon fill="midnightblue" stroke="midnightblue" points="981.12,-294.76 990.95,-290.8 980.8,-287.76 981.12,-294.76"/>
</g>
<!-- Node29&#45;&gt;Node29 -->
<g id="edge31" class="edge">
<title>Node29&#45;&gt;Node29</title>
<path fill="none" stroke="midnightblue" d="M1028.84,-302.66C1020.61,-312.06 1031.99,-321 1063,-321 1081.9,-321 1093.5,-317.68 1097.83,-312.96"/>
<polygon fill="midnightblue" stroke="midnightblue" points="1101.3,-312.41 1097.16,-302.66 1094.31,-312.87 1101.3,-312.41"/>
</g>
<!-- Node30 -->
<g id="node30" class="node">
<title>Node30</title>
<g id="a_node30"><a xlink:href="classwmtk_1_1_multi_mesh_manager.html#a5a5a2de96e603563ab7054e8666395b7" target="_top" xlink:title="Specifies whether this structure is the root of a multi&#45;mesh tree.">
<polygon fill="none" stroke="black" points="1187,-272.5 1187,-302.5 1331,-302.5 1331,-272.5 1187,-272.5"/>
<text text-anchor="start" x="1195" y="-290.5" font-family="Helvetica,sans-Serif" font-size="10.00">wmtk::MultiMeshManager</text>
<text text-anchor="middle" x="1259" y="-279.5" font-family="Helvetica,sans-Serif" font-size="10.00">::is_root</text>
</a>
</g>
</g>
<!-- Node29&#45;&gt;Node30 -->
<g id="edge32" class="edge">
<title>Node29&#45;&gt;Node30</title>
<path fill="none" stroke="midnightblue" d="M1135.14,-287.5C1148.58,-287.5 1162.74,-287.5 1176.47,-287.5"/>
<polygon fill="midnightblue" stroke="midnightblue" points="1176.87,-291 1186.87,-287.5 1176.87,-284 1176.87,-291"/>
</g>
<!-- Node36 -->
<g id="node36" class="node">
<title>Node36</title>
<g id="a_node36"><a xlink:href="classwmtk_1_1_mesh.html#a965a8a24158c4aa8580c57ba09f885f7" target="_top" xlink:title="switch the orientation of the Tuple of the given dimension">
<polygon fill="none" stroke="black" points="411.5,-0.5 411.5,-30.5 525.5,-30.5 525.5,-0.5 411.5,-0.5"/>
<text text-anchor="start" x="419.5" y="-18.5" font-family="Helvetica,sans-Serif" font-size="10.00">wmtk::Mesh::switch</text>
<text text-anchor="middle" x="468.5" y="-7.5" font-family="Helvetica,sans-Serif" font-size="10.00">_tuple</text>
</a>
</g>
</g>
<!-- Node35&#45;&gt;Node36 -->
<g id="edge39" class="edge">
<title>Node35&#45;&gt;Node36</title>
<path fill="none" stroke="midnightblue" d="M283.25,-119.23C303.37,-98.54 342.13,-61.72 382,-40.5 388.29,-37.15 395.08,-34.2 401.99,-31.61"/>
<polygon fill="midnightblue" stroke="midnightblue" points="403.18,-34.9 411.46,-28.3 400.87,-28.3 403.18,-34.9"/>
</g>
</g>
</svg>
        <g id="navigator" transform="translate(0 0)" fill="#404254">
                <rect fill="#f2f5e9" fill-opacity="0.5" stroke="#606060" stroke-width=".5" x="0" y="0" width="60" height="60"/>
                <use id="zoomplus" xlink:href="#zoomPlus" x="17" y="9" onmousedown="handleZoom(evt,'in')"/>
                <use id="zoomminus" xlink:href="#zoomMin" x="42" y="9" onmousedown="handleZoom(evt,'out')"/>
                <use id="reset" xlink:href="#resetDef" x="30" y="36" onmousedown="handleReset()"/>
                <g id="arrowUp" xlink:href="#dirArrow" transform="translate(30 24)" onmousedown="handlePan(0,-1)">
                  <use xlink:href="#rim" fill="#404040">
                        <set attributeName="fill" to="#808080" begin="arrowUp.mouseover" end="arrowUp.mouseout"/>
                  </use>
                  <path fill="none" stroke="white" stroke-width="1.5" d="M0,-3.0v7 M-2.5,-0.5L0,-3.0L2.5,-0.5"/>
                </g>
                <g id="arrowRight" xlink:href="#dirArrow" transform="rotate(90) translate(36 -43)" onmousedown="handlePan(1,0)">
                  <use xlink:href="#rim" fill="#404040">
                        <set attributeName="fill" to="#808080" begin="arrowRight.mouseover" end="arrowRight.mouseout"/>
                  </use>
                  <path fill="none" stroke="white" stroke-width="1.5" d="M0,-3.0v7 M-2.5,-0.5L0,-3.0L2.5,-0.5"/>
                </g>
                <g id="arrowDown" xlink:href="#dirArrow" transform="rotate(180) translate(-30 -48)" onmousedown="handlePan(0,1)">
                  <use xlink:href="#rim" fill="#404040">
                        <set attributeName="fill" to="#808080" begin="arrowDown.mouseover" end="arrowDown.mouseout"/>
                  </use>
                  <path fill="none" stroke="white" stroke-width="1.5" d="M0,-3.0v7 M-2.5,-0.5L0,-3.0L2.5,-0.5"/>
                </g>
                <g id="arrowLeft" xlink:href="#dirArrow" transform="rotate(270) translate(-36 17)" onmousedown="handlePan(-1,0)">
                  <use xlink:href="#rim" fill="#404040">
                        <set attributeName="fill" to="#808080" begin="arrowLeft.mouseover" end="arrowLeft.mouseout"/>
                  </use>
                  <path fill="none" stroke="white" stroke-width="1.5" d="M0,-3.0v7 M-2.5,-0.5L0,-3.0L2.5,-0.5"/>
                </g>
        </g>
        <svg viewBox="0 0 15 15" width="100%" height="30px" preserveAspectRatio="xMaxYMin meet">
         <g id="arrow_out" transform="scale(0.3 0.3)">
          <a xlink:href="classwmtk_1_1components_1_1internal_1_1_marching_a9e2d1de9a85f917baa06fd06feffe8f3_cgraph_org.svg" target="_base">
           <rect id="button" ry="5" rx="5" y="6" x="6" height="38" width="38"
                fill="#f2f5e9" fill-opacity="0.5" stroke="#606060" stroke-width="1.0"/>
           <path id="arrow"
             d="M 11.500037,31.436501 C 11.940474,20.09759 22.043105,11.32322 32.158766,21.979434 L 37.068811,17.246167 C 37.068811,17.246167 37.088388,32 37.088388,32 L 22.160133,31.978069 C 22.160133,31.978069 26.997745,27.140456 26.997745,27.140456 C 18.528582,18.264221 13.291696,25.230495 11.500037,31.436501 z"
             style="fill:#404040;"/>
          </a>
         </g>
        </svg>
</svg>
