<?xml version="1.0" encoding="UTF-8" standalone="no"?>
<!DOCTYPE svg PUBLIC "-//W3C//DTD SVG 1.1//EN"
 "http://www.w3.org/Graphics/SVG/1.1/DTD/svg11.dtd">
<!-- Generated by graphviz version 2.43.0 (0)
 -->
<!-- Title: wmtk::function::LocalNeighborsSumFunction::get_gradient Pages: 1 -->
<svg width="1913pt" height="689pt"
 viewBox="0.00 0.00 1913.00 689.00" xmlns="http://www.w3.org/2000/svg" xmlns:xlink="http://www.w3.org/1999/xlink">
<g id="graph0" class="graph" transform="scale(1 1) rotate(0) translate(4 685)">
<title>wmtk::function::LocalNeighborsSumFunction::get_gradient</title>
<!-- Node1 -->
<g id="node1" class="node">
<title>Node1</title>
<g id="a_node1"><a xlink:title="get_gradient collects the local neigh and call the gradient of m_function on all simplicies">
<polygon fill="#bfbfbf" stroke="black" points="0,-185.5 0,-215.5 171,-215.5 171,-185.5 0,-185.5"/>
<text text-anchor="start" x="8" y="-203.5" font-family="Helvetica,sans-Serif" font-size="10.00">wmtk::function::LocalNeighbors</text>
<text text-anchor="middle" x="85.5" y="-192.5" font-family="Helvetica,sans-Serif" font-size="10.00">SumFunction::get_gradient</text>
</a>
</g>
</g>
<!-- Node2 -->
<g id="node2" class="node">
<title>Node2</title>
<g id="a_node2"><a xlink:href="classwmtk_1_1function_1_1_function.html#a603513868e7383ad9ae2cd52439ac3f6" target="_top" xlink:title=" ">
<polygon fill="none" stroke="black" points="224.5,-650.5 224.5,-680.5 361.5,-680.5 361.5,-650.5 224.5,-650.5"/>
<text text-anchor="start" x="232.5" y="-668.5" font-family="Helvetica,sans-Serif" font-size="10.00">wmtk::function::Function</text>
<text text-anchor="middle" x="293" y="-657.5" font-family="Helvetica,sans-Serif" font-size="10.00">::attribute_type</text>
</a>
</g>
</g>
<!-- Node1&#45;&gt;Node2 -->
<g id="edge1" class="edge">
<title>Node1&#45;&gt;Node2</title>
<path fill="none" stroke="midnightblue" d="M86.02,-215.57C84.89,-276.69 88.84,-508.88 207,-635.5 210.51,-639.26 214.53,-642.56 218.86,-645.44"/>
<polygon fill="midnightblue" stroke="midnightblue" points="217.12,-648.47 227.52,-650.48 220.64,-642.42 217.12,-648.47"/>
</g>
<!-- Node4 -->
<g id="node4" class="node">
<title>Node4</title>
<g id="a_node4"><a xlink:href="classwmtk_1_1function_1_1_local_neighbors_sum_function.html#a9a8a406910f491899eaaa0c8e5b400c2" target="_top" xlink:title=" ">
<polygon fill="none" stroke="black" points="207.5,-251.5 207.5,-281.5 378.5,-281.5 378.5,-251.5 207.5,-251.5"/>
<text text-anchor="start" x="215.5" y="-269.5" font-family="Helvetica,sans-Serif" font-size="10.00">wmtk::function::LocalNeighbors</text>
<text text-anchor="middle" x="293" y="-258.5" font-family="Helvetica,sans-Serif" font-size="10.00">SumFunction::domain</text>
</a>
</g>
</g>
<!-- Node1&#45;&gt;Node4 -->
<g id="edge3" class="edge">
<title>Node1&#45;&gt;Node4</title>
<path fill="none" stroke="midnightblue" d="M133.39,-215.56C163.66,-225.28 203.23,-237.99 235.27,-248.28"/>
<polygon fill="midnightblue" stroke="midnightblue" points="234.37,-251.67 244.96,-251.39 236.51,-245 234.37,-251.67"/>
</g>
<!-- Node10 -->
<g id="node10" class="node">
<title>Node10</title>
<g id="a_node10"><a xlink:href="classwmtk_1_1simplex_1_1_simplex.html#ad2cc0340a0772b7d6f03ba7a781d1163" target="_top" xlink:title=" ">
<polygon fill="none" stroke="black" points="1418,-553.5 1418,-583.5 1553,-583.5 1553,-553.5 1418,-553.5"/>
<text text-anchor="start" x="1426" y="-571.5" font-family="Helvetica,sans-Serif" font-size="10.00">wmtk::simplex::Simplex</text>
<text text-anchor="middle" x="1485.5" y="-560.5" font-family="Helvetica,sans-Serif" font-size="10.00">::primitive_type</text>
</a>
</g>
</g>
<!-- Node1&#45;&gt;Node10 -->
<g id="edge54" class="edge">
<title>Node1&#45;&gt;Node10</title>
<path fill="none" stroke="midnightblue" d="M92.4,-215.98C122.44,-291.94 266.14,-621.5 497.5,-621.5 497.5,-621.5 497.5,-621.5 1105.5,-621.5 1228.81,-621.5 1260.77,-621.04 1382,-598.5 1397.93,-595.54 1414.92,-591.1 1430.4,-586.55"/>
<polygon fill="midnightblue" stroke="midnightblue" points="1431.76,-589.79 1440.32,-583.55 1429.74,-583.09 1431.76,-589.79"/>
</g>
<!-- Node29 -->
<g id="node29" class="node">
<title>Node29</title>
<g id="a_node29"><a xlink:href="classwmtk_1_1function_1_1_function.html#a043b0fcb22e3bfb08ca9990b4775c664" target="_top" xlink:title=" ">
<polygon fill="none" stroke="black" points="430,-224.5 430,-254.5 567,-254.5 567,-224.5 430,-224.5"/>
<text text-anchor="start" x="438" y="-242.5" font-family="Helvetica,sans-Serif" font-size="10.00">wmtk::function::Function</text>
<text text-anchor="middle" x="498.5" y="-231.5" font-family="Helvetica,sans-Serif" font-size="10.00">::mesh</text>
</a>
</g>
</g>
<!-- Node1&#45;&gt;Node29 -->
<g id="edge52" class="edge">
<title>Node1&#45;&gt;Node29</title>
<path fill="none" stroke="midnightblue" d="M171.16,-208.53C244.18,-215.46 348.76,-225.39 419.7,-232.12"/>
<polygon fill="midnightblue" stroke="midnightblue" points="419.63,-235.63 429.92,-233.09 420.29,-228.66 419.63,-235.63"/>
</g>
<!-- Node30 -->
<g id="node30" class="node">
<title>Node30</title>
<g id="a_node30"><a xlink:href="classwmtk_1_1function_1_1_function.html#a0c62fa4a0fed84733c0c18b1806d1eca" target="_top" xlink:title=" ">
<polygon fill="none" stroke="black" points="224.5,-163.5 224.5,-193.5 361.5,-193.5 361.5,-163.5 224.5,-163.5"/>
<text text-anchor="start" x="232.5" y="-181.5" font-family="Helvetica,sans-Serif" font-size="10.00">wmtk::function::Function</text>
<text text-anchor="middle" x="293" y="-170.5" font-family="Helvetica,sans-Serif" font-size="10.00">::embedded_dimension</text>
</a>
</g>
</g>
<!-- Node1&#45;&gt;Node30 -->
<g id="edge36" class="edge">
<title>Node1&#45;&gt;Node30</title>
<path fill="none" stroke="midnightblue" d="M171.27,-191.42C185.51,-189.9 200.22,-188.33 214.26,-186.82"/>
<polygon fill="midnightblue" stroke="midnightblue" points="214.79,-190.29 224.36,-185.74 214.04,-183.33 214.79,-190.29"/>
</g>
<!-- Node37 -->
<g id="node37" class="node">
<title>Node37</title>
<g id="a_node37"><a xlink:href="classwmtk_1_1function_1_1_per_simplex_function.html#a102906d1b23aa53d451853ca779ca2c4" target="_top" xlink:title=" ">
<polygon fill="none" stroke="black" points="207,-98.5 207,-128.5 379,-128.5 379,-98.5 207,-98.5"/>
<text text-anchor="start" x="215" y="-116.5" font-family="Helvetica,sans-Serif" font-size="10.00">wmtk::function::PerSimplex</text>
<text text-anchor="middle" x="293" y="-105.5" font-family="Helvetica,sans-Serif" font-size="10.00">Function::embedded_dimension</text>
</a>
</g>
</g>
<!-- Node1&#45;&gt;Node37 -->
<g id="edge46" class="edge">
<title>Node1&#45;&gt;Node37</title>
<path fill="none" stroke="midnightblue" d="M122.3,-185.35C156.81,-170.73 209.19,-148.56 246.62,-132.71"/>
<polygon fill="midnightblue" stroke="midnightblue" points="248.43,-135.75 256.27,-128.63 245.7,-129.3 248.43,-135.75"/>
</g>
<!-- Node39 -->
<g id="node39" class="node">
<title>Node39</title>
<g id="a_node39"><a xlink:href="classwmtk_1_1function_1_1_per_simplex_function.html#a59a059a94c9997cb6dff0eb014a294d1" target="_top" xlink:title=" ">
<polygon fill="none" stroke="black" points="422.5,-0.5 422.5,-30.5 574.5,-30.5 574.5,-0.5 422.5,-0.5"/>
<text text-anchor="start" x="430.5" y="-18.5" font-family="Helvetica,sans-Serif" font-size="10.00">wmtk::function::PerSimplex</text>
<text text-anchor="middle" x="498.5" y="-7.5" font-family="Helvetica,sans-Serif" font-size="10.00">Function::mesh</text>
</a>
</g>
</g>
<!-- Node1&#45;&gt;Node39 -->
<g id="edge53" class="edge">
<title>Node1&#45;&gt;Node39</title>
<path fill="none" stroke="midnightblue" d="M98.38,-185.13C118.15,-160.68 160.28,-113.18 207,-88.5 276.31,-51.89 303.08,-68.98 379,-49.5 385.04,-47.95 410.17,-40.76 435.73,-33.38"/>
<polygon fill="midnightblue" stroke="midnightblue" points="436.88,-36.7 445.52,-30.56 434.94,-29.97 436.88,-36.7"/>
</g>
<!-- Node40 -->
<g id="node40" class="node">
<title>Node40</title>
<g id="a_node40"><a xlink:href="classwmtk_1_1function_1_1_per_simplex_function.html#a08c1a24068af2c8fd152d01a7e6e44c4" target="_top" xlink:title=" ">
<polygon fill="none" stroke="black" points="217,-10.5 217,-40.5 369,-40.5 369,-10.5 217,-10.5"/>
<text text-anchor="start" x="225" y="-28.5" font-family="Helvetica,sans-Serif" font-size="10.00">wmtk::function::PerSimplex</text>
<text text-anchor="middle" x="293" y="-17.5" font-family="Helvetica,sans-Serif" font-size="10.00">Function::get_gradient</text>
</a>
</g>
</g>
<!-- Node1&#45;&gt;Node40 -->
<g id="edge51" class="edge">
<title>Node1&#45;&gt;Node40</title>
<path fill="none" stroke="midnightblue" d="M95.11,-185.49C112.56,-156.35 154.89,-91.79 207,-55.5 212.92,-51.38 219.45,-47.77 226.2,-44.62"/>
<polygon fill="midnightblue" stroke="midnightblue" points="227.7,-47.79 235.49,-40.61 224.92,-41.36 227.7,-47.79"/>
</g>
<!-- Node3 -->
<g id="node3" class="node">
<title>Node3</title>
<g id="a_node3"><a xlink:href="classwmtk_1_1attribute_1_1_mesh_attribute_handle.html#aee17c525d1547806f9350ad95fa66f5f" target="_top" xlink:title=" ">
<polygon fill="none" stroke="black" points="415,-650.5 415,-680.5 582,-680.5 582,-650.5 415,-650.5"/>
<text text-anchor="start" x="423" y="-668.5" font-family="Helvetica,sans-Serif" font-size="10.00">wmtk::attribute::MeshAttribute</text>
<text text-anchor="middle" x="498.5" y="-657.5" font-family="Helvetica,sans-Serif" font-size="10.00">Handle::primitive_type</text>
</a>
</g>
</g>
<!-- Node2&#45;&gt;Node3 -->
<g id="edge2" class="edge">
<title>Node2&#45;&gt;Node3</title>
<path fill="none" stroke="midnightblue" d="M361.76,-665.5C375.44,-665.5 390.04,-665.5 404.41,-665.5"/>
<polygon fill="midnightblue" stroke="midnightblue" points="404.82,-669 414.82,-665.5 404.82,-662 404.82,-669"/>
</g>
<!-- Node5 -->
<g id="node5" class="node">
<title>Node5</title>
<g id="a_node5"><a xlink:href="namespacewmtk_1_1simplex.html#a996a48358d73e378978c6d5827cb3212" target="_top" xlink:title=" ">
<polygon fill="none" stroke="black" points="419,-273.5 419,-303.5 578,-303.5 578,-273.5 419,-273.5"/>
<text text-anchor="start" x="427" y="-291.5" font-family="Helvetica,sans-Serif" font-size="10.00">wmtk::simplex::cofaces</text>
<text text-anchor="middle" x="498.5" y="-280.5" font-family="Helvetica,sans-Serif" font-size="10.00">_single_dimension_simplices</text>
</a>
</g>
</g>
<!-- Node4&#45;&gt;Node5 -->
<g id="edge4" class="edge">
<title>Node4&#45;&gt;Node5</title>
<path fill="none" stroke="midnightblue" d="M378.53,-275.64C388.53,-276.72 398.75,-277.82 408.79,-278.91"/>
<polygon fill="midnightblue" stroke="midnightblue" points="408.45,-282.39 418.77,-279.99 409.2,-275.43 408.45,-282.39"/>
</g>
<!-- Node4&#45;&gt;Node29 -->
<g id="edge35" class="edge">
<title>Node4&#45;&gt;Node29</title>
<path fill="none" stroke="midnightblue" d="M378.53,-255.28C392.2,-253.47 406.29,-251.6 419.78,-249.81"/>
<polygon fill="midnightblue" stroke="midnightblue" points="420.51,-253.25 429.96,-248.46 419.59,-246.31 420.51,-253.25"/>
</g>
<!-- Node6 -->
<g id="node6" class="node">
<title>Node6</title>
<g id="a_node6"><a xlink:href="namespacewmtk_1_1simplex.html#abee08ace6632fab4e958282840e65e43" target="_top" xlink:title=" ">
<polygon fill="none" stroke="black" points="633,-322.5 633,-352.5 776,-352.5 776,-322.5 633,-322.5"/>
<text text-anchor="start" x="641" y="-340.5" font-family="Helvetica,sans-Serif" font-size="10.00">wmtk::simplex::cofaces</text>
<text text-anchor="middle" x="704.5" y="-329.5" font-family="Helvetica,sans-Serif" font-size="10.00">_single_dimension_tuples</text>
</a>
</g>
</g>
<!-- Node5&#45;&gt;Node6 -->
<g id="edge5" class="edge">
<title>Node5&#45;&gt;Node6</title>
<path fill="none" stroke="midnightblue" d="M562.09,-303.53C583.93,-308.78 608.61,-314.71 631.17,-320.13"/>
<polygon fill="midnightblue" stroke="midnightblue" points="630.48,-323.56 641.03,-322.49 632.12,-316.76 630.48,-323.56"/>
</g>
<!-- Node28 -->
<g id="node28" class="node">
<title>Node28</title>
<g id="a_node28"><a xlink:href="namespacewmtk_1_1simplex_1_1utils.html#abc97acf22bd5eb87df2b16ad3b372cfb" target="_top" xlink:title=" ">
<polygon fill="none" stroke="black" points="618,-262 618,-303 791,-303 791,-262 618,-262"/>
<text text-anchor="start" x="626" y="-291" font-family="Helvetica,sans-Serif" font-size="10.00">wmtk::simplex::utils</text>
<text text-anchor="start" x="626" y="-280" font-family="Helvetica,sans-Serif" font-size="10.00">::tuple_vector_to_homogeneous</text>
<text text-anchor="middle" x="704.5" y="-269" font-family="Helvetica,sans-Serif" font-size="10.00">_simplex_vector</text>
</a>
</g>
</g>
<!-- Node5&#45;&gt;Node28 -->
<g id="edge34" class="edge">
<title>Node5&#45;&gt;Node28</title>
<path fill="none" stroke="midnightblue" d="M578.08,-286.19C587.74,-285.9 597.7,-285.61 607.59,-285.32"/>
<polygon fill="midnightblue" stroke="midnightblue" points="607.95,-288.81 617.84,-285.02 607.74,-281.81 607.95,-288.81"/>
</g>
<!-- Node7 -->
<g id="node7" class="node">
<title>Node7</title>
<g id="a_node7"><a xlink:href="namespacewmtk_1_1simplex_1_1internal.html#af3c31556d0dcfb8f9c4419470784a150" target="_top" xlink:title="Returns the boundary of a simplex ignoring some sorts of switches.">
<polygon fill="none" stroke="black" points="837.5,-312 837.5,-353 986.5,-353 986.5,-312 837.5,-312"/>
<text text-anchor="start" x="845.5" y="-341" font-family="Helvetica,sans-Serif" font-size="10.00">wmtk::simplex::internal</text>
<text text-anchor="start" x="845.5" y="-330" font-family="Helvetica,sans-Serif" font-size="10.00">::boundary_with_preserved</text>
<text text-anchor="middle" x="912" y="-319" font-family="Helvetica,sans-Serif" font-size="10.00">_face_tuples</text>
</a>
</g>
</g>
<!-- Node6&#45;&gt;Node7 -->
<g id="edge6" class="edge">
<title>Node6&#45;&gt;Node7</title>
<path fill="none" stroke="midnightblue" d="M776.22,-335.78C792.57,-335.38 810.11,-334.95 826.96,-334.54"/>
<polygon fill="midnightblue" stroke="midnightblue" points="827.44,-338.03 837.35,-334.29 827.27,-331.04 827.44,-338.03"/>
</g>
<!-- Node6&#45;&gt;Node10 -->
<g id="edge18" class="edge">
<title>Node6&#45;&gt;Node10</title>
<path fill="none" stroke="midnightblue" d="M714.16,-352.58C731.72,-381.85 774.35,-446.61 827,-482.5 1005.93,-604.46 1276.89,-593.63 1408.03,-579.3"/>
<polygon fill="midnightblue" stroke="midnightblue" points="1408.45,-582.77 1418,-578.17 1407.67,-575.82 1408.45,-582.77"/>
</g>
<!-- Node11 -->
<g id="node11" class="node">
<title>Node11</title>
<g id="a_node11"><a xlink:href="classwmtk_1_1simplex_1_1_simplex.html#a3650fd31ff1864285502dba66db3c73c" target="_top" xlink:title=" ">
<polygon fill="none" stroke="black" points="1418,-400.5 1418,-430.5 1553,-430.5 1553,-400.5 1418,-400.5"/>
<text text-anchor="start" x="1426" y="-418.5" font-family="Helvetica,sans-Serif" font-size="10.00">wmtk::simplex::Simplex</text>
<text text-anchor="middle" x="1485.5" y="-407.5" font-family="Helvetica,sans-Serif" font-size="10.00">::tuple</text>
</a>
</g>
</g>
<!-- Node6&#45;&gt;Node11 -->
<g id="edge33" class="edge">
<title>Node6&#45;&gt;Node11</title>
<path fill="none" stroke="midnightblue" d="M771.79,-352.51C789.65,-356.18 809,-359.82 827,-362.5 1035.77,-393.64 1284.76,-407.42 1407.82,-412.69"/>
<polygon fill="midnightblue" stroke="midnightblue" points="1407.76,-416.19 1417.9,-413.11 1408.06,-409.19 1407.76,-416.19"/>
</g>
<!-- Node14 -->
<g id="node14" class="node">
<title>Node14</title>
<g id="a_node14"><a xlink:href="classwmtk_1_1_mesh.html#abaf00438d0700358b160e310d69725c9" target="_top" xlink:title=" ">
<polygon fill="none" stroke="black" points="1212,-244 1212,-263 1382,-263 1382,-244 1212,-244"/>
<text text-anchor="middle" x="1297" y="-251" font-family="Helvetica,sans-Serif" font-size="10.00">wmtk::Mesh::top_simplex_type</text>
</a>
</g>
</g>
<!-- Node6&#45;&gt;Node14 -->
<g id="edge32" class="edge">
<title>Node6&#45;&gt;Node14</title>
<path fill="none" stroke="midnightblue" d="M757.12,-322.41C788.52,-313.26 823.3,-303.22 827,-302.5 862.75,-295.54 1075.37,-274.58 1201.73,-262.45"/>
<polygon fill="midnightblue" stroke="midnightblue" points="1202.18,-265.92 1211.8,-261.48 1201.51,-258.95 1202.18,-265.92"/>
</g>
<!-- Node15 -->
<g id="node15" class="node">
<title>Node15</title>
<g id="a_node15"><a xlink:href="namespacewmtk_1_1utils.html#a8dab5bd8df4c7c658413914f37210244" target="_top" xlink:title=" ">
<polygon fill="none" stroke="black" points="851,-224.5 851,-254.5 973,-254.5 973,-224.5 851,-224.5"/>
<text text-anchor="start" x="859" y="-242.5" font-family="Helvetica,sans-Serif" font-size="10.00">wmtk::utils::primitive</text>
<text text-anchor="middle" x="912" y="-231.5" font-family="Helvetica,sans-Serif" font-size="10.00">_range</text>
</a>
</g>
</g>
<!-- Node6&#45;&gt;Node15 -->
<g id="edge15" class="edge">
<title>Node6&#45;&gt;Node15</title>
<path fill="none" stroke="midnightblue" d="M771.69,-322.49C778.47,-319.69 785.05,-316.39 791,-312.5 811.86,-298.86 806.55,-283.75 827,-269.5 832.94,-265.36 839.51,-261.74 846.29,-258.57"/>
<polygon fill="midnightblue" stroke="midnightblue" points="847.82,-261.72 855.61,-254.54 845.04,-255.3 847.82,-261.72"/>
</g>
<!-- Node18 -->
<g id="node18" class="node">
<title>Node18</title>
<g id="a_node18"><a xlink:href="namespacewmtk_1_1simplex.html#a479fe685989f6c075a5ce1c52b5c4df3" target="_top" xlink:title=" ">
<polygon fill="none" stroke="black" points="836.5,-442.5 836.5,-472.5 987.5,-472.5 987.5,-442.5 836.5,-442.5"/>
<text text-anchor="start" x="844.5" y="-460.5" font-family="Helvetica,sans-Serif" font-size="10.00">wmtk::simplex::top</text>
<text text-anchor="middle" x="912" y="-449.5" font-family="Helvetica,sans-Serif" font-size="10.00">_dimension_cofaces_tuples</text>
</a>
</g>
</g>
<!-- Node6&#45;&gt;Node18 -->
<g id="edge19" class="edge">
<title>Node6&#45;&gt;Node18</title>
<path fill="none" stroke="midnightblue" d="M731.53,-352.7C768.28,-374.16 835.45,-413.38 876.37,-437.28"/>
<polygon fill="midnightblue" stroke="midnightblue" points="874.78,-440.41 885.18,-442.43 878.31,-434.36 874.78,-440.41"/>
</g>
<!-- Node8 -->
<g id="node8" class="node">
<title>Node8</title>
<g id="a_node8"><a xlink:href="classwmtk_1_1_mesh.html#a7f8a7b7d592fdbf672f2c6c9653487ea" target="_top" xlink:title=" ">
<polygon fill="none" stroke="black" points="1047.5,-314.5 1047.5,-344.5 1161.5,-344.5 1161.5,-314.5 1047.5,-314.5"/>
<text text-anchor="start" x="1055.5" y="-332.5" font-family="Helvetica,sans-Serif" font-size="10.00">wmtk::Mesh::switch</text>
<text text-anchor="middle" x="1104.5" y="-321.5" font-family="Helvetica,sans-Serif" font-size="10.00">_tuples</text>
</a>
</g>
</g>
<!-- Node7&#45;&gt;Node8 -->
<g id="edge7" class="edge">
<title>Node7&#45;&gt;Node8</title>
<path fill="none" stroke="midnightblue" d="M986.65,-331.34C1003.39,-331.08 1021.06,-330.8 1037.45,-330.54"/>
<polygon fill="midnightblue" stroke="midnightblue" points="1037.53,-334.04 1047.48,-330.38 1037.42,-327.04 1037.53,-334.04"/>
</g>
<!-- Node9 -->
<g id="node9" class="node">
<title>Node9</title>
<g id="a_node9"><a xlink:href="classwmtk_1_1_mesh.html#a58bdbbfa0cd7bd9263241f6501db182a" target="_top" xlink:title="check if a simplex lies on a boundary or not">
<polygon fill="none" stroke="black" points="1226,-320 1226,-339 1368,-339 1368,-320 1226,-320"/>
<text text-anchor="middle" x="1297" y="-327" font-family="Helvetica,sans-Serif" font-size="10.00">wmtk::Mesh::is_boundary</text>
</a>
</g>
</g>
<!-- Node8&#45;&gt;Node9 -->
<g id="edge8" class="edge">
<title>Node8&#45;&gt;Node9</title>
<path fill="none" stroke="midnightblue" d="M1161.63,-329.5C1178.57,-329.5 1197.52,-329.5 1215.72,-329.5"/>
<polygon fill="midnightblue" stroke="midnightblue" points="1215.73,-333 1225.73,-329.5 1215.73,-326 1215.73,-333"/>
</g>
<!-- Node12 -->
<g id="node12" class="node">
<title>Node12</title>
<g id="a_node12"><a xlink:href="classwmtk_1_1_mesh.html#a965a8a24158c4aa8580c57ba09f885f7" target="_top" xlink:title="switch the orientation of the Tuple of the given dimension">
<polygon fill="none" stroke="black" points="1240,-358.5 1240,-388.5 1354,-388.5 1354,-358.5 1240,-358.5"/>
<text text-anchor="start" x="1248" y="-376.5" font-family="Helvetica,sans-Serif" font-size="10.00">wmtk::Mesh::switch</text>
<text text-anchor="middle" x="1297" y="-365.5" font-family="Helvetica,sans-Serif" font-size="10.00">_tuple</text>
</a>
</g>
</g>
<!-- Node8&#45;&gt;Node12 -->
<g id="edge11" class="edge">
<title>Node8&#45;&gt;Node12</title>
<path fill="none" stroke="midnightblue" d="M1161.63,-342.46C1183.04,-347.41 1207.65,-353.09 1229.91,-358.23"/>
<polygon fill="midnightblue" stroke="midnightblue" points="1229.42,-361.71 1239.95,-360.55 1230.99,-354.89 1229.42,-361.71"/>
</g>
<!-- Node13 -->
<g id="node13" class="node">
<title>Node13</title>
<g id="a_node13"><a xlink:href="classwmtk_1_1_mesh.html#ac1e12857f52985bd548a968a4c819659" target="_top" xlink:title=" ">
<polygon fill="none" stroke="black" points="1425,-257.5 1425,-287.5 1546,-287.5 1546,-257.5 1425,-257.5"/>
<text text-anchor="start" x="1433" y="-275.5" font-family="Helvetica,sans-Serif" font-size="10.00">wmtk::Mesh::top_cell</text>
<text text-anchor="middle" x="1485.5" y="-264.5" font-family="Helvetica,sans-Serif" font-size="10.00">_dimension</text>
</a>
</g>
</g>
<!-- Node8&#45;&gt;Node13 -->
<g id="edge12" class="edge">
<title>Node8&#45;&gt;Node13</title>
<path fill="none" stroke="midnightblue" d="M1161.53,-319.09C1177.79,-316.18 1195.58,-313.11 1212,-310.5 1280.84,-299.56 1359.73,-288.75 1414.86,-281.47"/>
<polygon fill="midnightblue" stroke="midnightblue" points="1415.41,-284.93 1424.87,-280.15 1414.49,-277.99 1415.41,-284.93"/>
</g>
<!-- Node8&#45;&gt;Node14 -->
<g id="edge13" class="edge">
<title>Node8&#45;&gt;Node14</title>
<path fill="none" stroke="midnightblue" d="M1140.19,-314.43C1151.68,-309.26 1164.48,-303.3 1176,-297.5 1192.35,-289.27 1195.09,-284.5 1212,-277.5 1222.73,-273.06 1234.56,-269.12 1245.86,-265.79"/>
<polygon fill="midnightblue" stroke="midnightblue" points="1246.96,-269.12 1255.62,-263.02 1245.05,-262.39 1246.96,-269.12"/>
</g>
<!-- Node9&#45;&gt;Node10 -->
<g id="edge9" class="edge">
<title>Node9&#45;&gt;Node10</title>
<path fill="none" stroke="midnightblue" d="M1367.99,-339.18C1373.17,-341.9 1377.94,-345.29 1382,-349.5 1438.36,-407.88 1371.26,-462.17 1418,-528.5 1423.41,-536.18 1430.82,-542.65 1438.72,-547.99"/>
<polygon fill="midnightblue" stroke="midnightblue" points="1437.07,-551.09 1447.42,-553.35 1440.74,-545.13 1437.07,-551.09"/>
</g>
<!-- Node9&#45;&gt;Node11 -->
<g id="edge10" class="edge">
<title>Node9&#45;&gt;Node11</title>
<path fill="none" stroke="midnightblue" d="M1350.42,-339.08C1361.08,-341.83 1372.07,-345.27 1382,-349.5 1409.31,-361.14 1437.46,-379.83 1457.33,-394.36"/>
<polygon fill="midnightblue" stroke="midnightblue" points="1455.47,-397.34 1465.58,-400.5 1459.65,-391.72 1455.47,-397.34"/>
</g>
<!-- Node14&#45;&gt;Node13 -->
<g id="edge14" class="edge">
<title>Node14&#45;&gt;Node13</title>
<path fill="none" stroke="midnightblue" d="M1382.25,-262.08C1393.15,-263.19 1404.21,-264.32 1414.84,-265.4"/>
<polygon fill="midnightblue" stroke="midnightblue" points="1414.57,-268.89 1424.88,-266.43 1415.28,-261.93 1414.57,-268.89"/>
</g>
<!-- Node16 -->
<g id="node16" class="node">
<title>Node16</title>
<g id="a_node16"><a xlink:href="namespacewmtk.html#af31f53a490a16a8d7b0384fa35d8a990" target="_top" xlink:title="Get the primitive type corresponding to its unique integer id.">
<polygon fill="none" stroke="black" points="1046.5,-224.5 1046.5,-254.5 1162.5,-254.5 1162.5,-224.5 1046.5,-224.5"/>
<text text-anchor="start" x="1054.5" y="-242.5" font-family="Helvetica,sans-Serif" font-size="10.00">wmtk::get_primitive</text>
<text text-anchor="middle" x="1104.5" y="-231.5" font-family="Helvetica,sans-Serif" font-size="10.00">_type_from_id</text>
</a>
</g>
</g>
<!-- Node15&#45;&gt;Node16 -->
<g id="edge16" class="edge">
<title>Node15&#45;&gt;Node16</title>
<path fill="none" stroke="midnightblue" d="M973.01,-239.5C993.07,-239.5 1015.56,-239.5 1036.14,-239.5"/>
<polygon fill="midnightblue" stroke="midnightblue" points="1036.39,-243 1046.39,-239.5 1036.39,-236 1036.39,-243"/>
</g>
<!-- Node17 -->
<g id="node17" class="node">
<title>Node17</title>
<g id="a_node17"><a xlink:href="namespacewmtk.html#a9e8fdc205b7ba54f122eec3761706a8e" target="_top" xlink:title="Get a unique integer id corresponding to each primitive type.">
<polygon fill="none" stroke="black" points="1046.5,-136.5 1046.5,-166.5 1162.5,-166.5 1162.5,-136.5 1046.5,-136.5"/>
<text text-anchor="start" x="1054.5" y="-154.5" font-family="Helvetica,sans-Serif" font-size="10.00">wmtk::get_primitive</text>
<text text-anchor="middle" x="1104.5" y="-143.5" font-family="Helvetica,sans-Serif" font-size="10.00">_type_id</text>
</a>
</g>
</g>
<!-- Node15&#45;&gt;Node17 -->
<g id="edge17" class="edge">
<title>Node15&#45;&gt;Node17</title>
<path fill="none" stroke="midnightblue" d="M945.75,-224.37C977.74,-209.59 1026.57,-187.04 1061.43,-170.94"/>
<polygon fill="midnightblue" stroke="midnightblue" points="1063.25,-173.95 1070.86,-166.58 1060.32,-167.59 1063.25,-173.95"/>
</g>
<!-- Node18&#45;&gt;Node10 -->
<g id="edge28" class="edge">
<title>Node18&#45;&gt;Node10</title>
<path fill="none" stroke="midnightblue" d="M932.97,-472.61C955.81,-489 994.98,-514.43 1033,-526.5 1100.76,-548 1297.64,-560.07 1407.73,-565.31"/>
<polygon fill="midnightblue" stroke="midnightblue" points="1407.62,-568.81 1417.77,-565.78 1407.95,-561.82 1407.62,-568.81"/>
</g>
<!-- Node18&#45;&gt;Node11 -->
<g id="edge31" class="edge">
<title>Node18&#45;&gt;Node11</title>
<path fill="none" stroke="midnightblue" d="M987.51,-455.66C1080.17,-452.84 1243.12,-446.15 1382,-431.5 1390.37,-430.62 1399.1,-429.52 1407.77,-428.33"/>
<polygon fill="midnightblue" stroke="midnightblue" points="1408.51,-431.76 1417.91,-426.88 1407.52,-424.83 1408.51,-431.76"/>
</g>
<!-- Node19 -->
<g id="node19" class="node">
<title>Node19</title>
<g id="a_node19"><a xlink:href="classwmtk_1_1_edge_mesh.html#a7423c40cccd7e240dfa9bd0b5c0e3185" target="_top" xlink:title=" ">
<polygon fill="none" stroke="black" points="1047,-486.5 1047,-516.5 1162,-516.5 1162,-486.5 1047,-486.5"/>
<text text-anchor="start" x="1055" y="-504.5" font-family="Helvetica,sans-Serif" font-size="10.00">wmtk::EdgeMesh::is</text>
<text text-anchor="middle" x="1104.5" y="-493.5" font-family="Helvetica,sans-Serif" font-size="10.00">_boundary_vertex</text>
</a>
</g>
</g>
<!-- Node18&#45;&gt;Node19 -->
<g id="edge20" class="edge">
<title>Node18&#45;&gt;Node19</title>
<path fill="none" stroke="midnightblue" d="M978.03,-472.52C997.03,-476.91 1017.82,-481.71 1036.91,-486.12"/>
<polygon fill="midnightblue" stroke="midnightblue" points="1036.19,-489.55 1046.72,-488.39 1037.77,-482.73 1036.19,-489.55"/>
</g>
<!-- Node27 -->
<g id="node27" class="node">
<title>Node27</title>
<g id="a_node27"><a xlink:href="classwmtk_1_1_mesh.html#a33805489402321155d4a1f7023faaf3a" target="_top" xlink:title=" ">
<polygon fill="none" stroke="black" points="1033,-410 1033,-429 1176,-429 1176,-410 1033,-410"/>
<text text-anchor="middle" x="1104.5" y="-417" font-family="Helvetica,sans-Serif" font-size="10.00">wmtk::Mesh::switch_edge</text>
</a>
</g>
</g>
<!-- Node18&#45;&gt;Node27 -->
<g id="edge29" class="edge">
<title>Node18&#45;&gt;Node27</title>
<path fill="none" stroke="midnightblue" d="M987.74,-442.59C1007.09,-438.73 1027.63,-434.63 1045.94,-430.98"/>
<polygon fill="midnightblue" stroke="midnightblue" points="1046.75,-434.39 1055.87,-429 1045.38,-427.52 1046.75,-434.39"/>
</g>
<!-- Node20 -->
<g id="node20" class="node">
<title>Node20</title>
<g id="a_node20"><a xlink:href="classwmtk_1_1_mesh.html#abbb1c54cfd6ec17f4730317ee5fab78d" target="_top" xlink:title=" ">
<polygon fill="none" stroke="black" points="1223,-492 1223,-511 1371,-511 1371,-492 1223,-492"/>
<text text-anchor="middle" x="1297" y="-499" font-family="Helvetica,sans-Serif" font-size="10.00">wmtk::Mesh::is_valid_slow</text>
</a>
</g>
</g>
<!-- Node19&#45;&gt;Node20 -->
<g id="edge21" class="edge">
<title>Node19&#45;&gt;Node20</title>
<path fill="none" stroke="midnightblue" d="M1162.14,-501.5C1178.09,-501.5 1195.79,-501.5 1212.94,-501.5"/>
<polygon fill="midnightblue" stroke="midnightblue" points="1212.96,-505 1222.96,-501.5 1212.96,-498 1212.96,-505"/>
</g>
<!-- Node21 -->
<g id="node21" class="node">
<title>Node21</title>
<g id="a_node21"><a xlink:href="classwmtk_1_1_mesh.html#a92666fa5c4c8b680e9b4a9b3755689f0" target="_top" xlink:title=" ">
<polygon fill="none" stroke="black" points="1420.5,-488.5 1420.5,-518.5 1550.5,-518.5 1550.5,-488.5 1420.5,-488.5"/>
<text text-anchor="start" x="1428.5" y="-506.5" font-family="Helvetica,sans-Serif" font-size="10.00">wmtk::Mesh::get_const</text>
<text text-anchor="middle" x="1485.5" y="-495.5" font-family="Helvetica,sans-Serif" font-size="10.00">_cell_hash_accessor</text>
</a>
</g>
</g>
<!-- Node20&#45;&gt;Node21 -->
<g id="edge22" class="edge">
<title>Node20&#45;&gt;Node21</title>
<path fill="none" stroke="midnightblue" d="M1371.17,-502.28C1383.98,-502.42 1397.31,-502.56 1410.15,-502.7"/>
<polygon fill="midnightblue" stroke="midnightblue" points="1410.28,-506.2 1420.31,-502.81 1410.35,-499.2 1410.28,-506.2"/>
</g>
<!-- Node26 -->
<g id="node26" class="node">
<title>Node26</title>
<g id="a_node26"><a xlink:href="classwmtk_1_1_mesh.html#a8c09a3ed591ffbb0e59c83948970d121" target="_top" xlink:title="check validity of tuple including its hash">
<polygon fill="none" stroke="black" points="1425.5,-450 1425.5,-469 1545.5,-469 1545.5,-450 1425.5,-450"/>
<text text-anchor="middle" x="1485.5" y="-457" font-family="Helvetica,sans-Serif" font-size="10.00">wmtk::Mesh::is_valid</text>
</a>
</g>
</g>
<!-- Node20&#45;&gt;Node26 -->
<g id="edge27" class="edge">
<title>Node20&#45;&gt;Node26</title>
<path fill="none" stroke="midnightblue" d="M1340.32,-491.97C1367.53,-485.84 1403.08,-477.84 1432.07,-471.31"/>
<polygon fill="midnightblue" stroke="midnightblue" points="1433.04,-474.68 1442.03,-469.07 1431.5,-467.85 1433.04,-474.68"/>
</g>
<!-- Node22 -->
<g id="node22" class="node">
<title>Node22</title>
<g id="a_node22"><a xlink:href="classwmtk_1_1_mesh.html#aec980d09bb50f645d6c1c5e604e091c6" target="_top" xlink:title=" ">
<polygon fill="none" stroke="black" points="1589,-445.5 1589,-475.5 1702,-475.5 1702,-445.5 1589,-445.5"/>
<text text-anchor="start" x="1597" y="-463.5" font-family="Helvetica,sans-Serif" font-size="10.00">wmtk::Mesh::create</text>
<text text-anchor="middle" x="1645.5" y="-452.5" font-family="Helvetica,sans-Serif" font-size="10.00">_const_accessor</text>
</a>
</g>
</g>
<!-- Node21&#45;&gt;Node22 -->
<g id="edge23" class="edge">
<title>Node21&#45;&gt;Node22</title>
<path fill="none" stroke="midnightblue" d="M1541.76,-488.46C1553.91,-485.15 1566.88,-481.62 1579.38,-478.22"/>
<polygon fill="midnightblue" stroke="midnightblue" points="1580.54,-481.53 1589.27,-475.53 1578.7,-474.78 1580.54,-481.53"/>
</g>
<!-- Node23 -->
<g id="node23" class="node">
<title>Node23</title>
<g id="a_node23"><a xlink:href="classwmtk_1_1attribute_1_1_mesh_attribute_handle.html#ac326961f01b9ba4fec395827f15a7ef2" target="_top" xlink:title=" ">
<polygon fill="none" stroke="black" points="1738,-308.5 1738,-338.5 1905,-338.5 1905,-308.5 1738,-308.5"/>
<text text-anchor="start" x="1746" y="-326.5" font-family="Helvetica,sans-Serif" font-size="10.00">wmtk::attribute::MeshAttribute</text>
<text text-anchor="middle" x="1821.5" y="-315.5" font-family="Helvetica,sans-Serif" font-size="10.00">Handle::as</text>
</a>
</g>
</g>
<!-- Node22&#45;&gt;Node23 -->
<g id="edge24" class="edge">
<title>Node22&#45;&gt;Node23</title>
<path fill="none" stroke="midnightblue" d="M1665.79,-445.32C1696.83,-420.87 1757.98,-372.72 1793.4,-344.84"/>
<polygon fill="midnightblue" stroke="midnightblue" points="1795.7,-347.48 1801.39,-338.54 1791.37,-341.98 1795.7,-347.48"/>
</g>
<!-- Node24 -->
<g id="node24" class="node">
<title>Node24</title>
<g id="a_node24"><a xlink:href="classwmtk_1_1attribute_1_1_mesh_attribute_handle.html#a2b86caeb22b007b85b138ebc6b0ed837" target="_top" xlink:title=" ">
<polygon fill="none" stroke="black" points="1738,-421.5 1738,-451.5 1905,-451.5 1905,-421.5 1738,-421.5"/>
<text text-anchor="start" x="1746" y="-439.5" font-family="Helvetica,sans-Serif" font-size="10.00">wmtk::attribute::MeshAttribute</text>
<text text-anchor="middle" x="1821.5" y="-428.5" font-family="Helvetica,sans-Serif" font-size="10.00">Handle::holds</text>
</a>
</g>
</g>
<!-- Node22&#45;&gt;Node24 -->
<g id="edge25" class="edge">
<title>Node22&#45;&gt;Node24</title>
<path fill="none" stroke="midnightblue" d="M1702.03,-452.84C1710.34,-451.69 1719.1,-450.49 1727.93,-449.27"/>
<polygon fill="midnightblue" stroke="midnightblue" points="1728.48,-452.73 1737.91,-447.89 1727.52,-445.79 1728.48,-452.73"/>
</g>
<!-- Node25 -->
<g id="node25" class="node">
<title>Node25</title>
<g id="a_node25"><a xlink:href="classwmtk_1_1attribute_1_1_mesh_attribute_handle.html#a620620d54776b2c5f4f9cebad465cfa7" target="_top" xlink:title=" ">
<polygon fill="none" stroke="black" points="1738,-470.5 1738,-500.5 1905,-500.5 1905,-470.5 1738,-470.5"/>
<text text-anchor="start" x="1746" y="-488.5" font-family="Helvetica,sans-Serif" font-size="10.00">wmtk::attribute::MeshAttribute</text>
<text text-anchor="middle" x="1821.5" y="-477.5" font-family="Helvetica,sans-Serif" font-size="10.00">Handle::mesh</text>
</a>
</g>
</g>
<!-- Node22&#45;&gt;Node25 -->
<g id="edge26" class="edge">
<title>Node22&#45;&gt;Node25</title>
<path fill="none" stroke="midnightblue" d="M1702.03,-468.48C1710.34,-469.67 1719.1,-470.93 1727.93,-472.2"/>
<polygon fill="midnightblue" stroke="midnightblue" points="1727.51,-475.68 1737.91,-473.63 1728.51,-468.75 1727.51,-475.68"/>
</g>
<!-- Node27&#45;&gt;Node12 -->
<g id="edge30" class="edge">
<title>Node27&#45;&gt;Node12</title>
<path fill="none" stroke="midnightblue" d="M1144.97,-409.97C1169.54,-404.04 1201.75,-396.26 1230.11,-389.41"/>
<polygon fill="midnightblue" stroke="midnightblue" points="1231.06,-392.78 1239.96,-387.03 1229.42,-385.98 1231.06,-392.78"/>
</g>
<!-- Node30&#45;&gt;Node23 -->
<g id="edge37" class="edge">
<title>Node30&#45;&gt;Node23</title>
<path fill="none" stroke="midnightblue" d="M361.71,-183.03C442.89,-188.07 583.07,-195.5 703.5,-195.5 703.5,-195.5 703.5,-195.5 1486.5,-195.5 1604.98,-195.5 1732.38,-266.6 1789.59,-302.82"/>
<polygon fill="midnightblue" stroke="midnightblue" points="1787.85,-305.86 1798.16,-308.31 1791.63,-299.97 1787.85,-305.86"/>
</g>
<!-- Node30&#45;&gt;Node29 -->
<g id="edge45" class="edge">
<title>Node30&#45;&gt;Node29</title>
<path fill="none" stroke="midnightblue" d="M344.04,-193.5C372.27,-201.96 407.74,-212.59 437.46,-221.5"/>
<polygon fill="midnightblue" stroke="midnightblue" points="436.71,-224.93 447.3,-224.45 438.72,-218.23 436.71,-224.93"/>
</g>
<!-- Node31 -->
<g id="node31" class="node">
<title>Node31</title>
<g id="a_node31"><a xlink:href="classwmtk_1_1_mesh.html#a4f546f0125de42db771686220d77ec78" target="_top" xlink:title=" ">
<polygon fill="none" stroke="black" points="425.5,-98.5 425.5,-128.5 571.5,-128.5 571.5,-98.5 425.5,-98.5"/>
<text text-anchor="start" x="433.5" y="-116.5" font-family="Helvetica,sans-Serif" font-size="10.00">wmtk::Mesh::get_attribute</text>
<text text-anchor="middle" x="498.5" y="-105.5" font-family="Helvetica,sans-Serif" font-size="10.00">_dimension</text>
</a>
</g>
</g>
<!-- Node30&#45;&gt;Node31 -->
<g id="edge38" class="edge">
<title>Node30&#45;&gt;Node31</title>
<path fill="none" stroke="midnightblue" d="M341.2,-163.42C370.76,-153.98 409.04,-141.76 440.32,-131.77"/>
<polygon fill="midnightblue" stroke="midnightblue" points="441.74,-134.98 450.21,-128.61 439.61,-128.32 441.74,-134.98"/>
</g>
<!-- Node36 -->
<g id="node36" class="node">
<title>Node36</title>
<g id="a_node36"><a xlink:href="classwmtk_1_1attribute_1_1_mesh_attribute_handle.html#ad577111f5b1fd05f60fae4b7f0ddb1f6" target="_top" xlink:title=" ">
<polygon fill="none" stroke="black" points="621,-49.5 621,-79.5 788,-79.5 788,-49.5 621,-49.5"/>
<text text-anchor="start" x="629" y="-67.5" font-family="Helvetica,sans-Serif" font-size="10.00">wmtk::attribute::MeshAttribute</text>
<text text-anchor="middle" x="704.5" y="-56.5" font-family="Helvetica,sans-Serif" font-size="10.00">Handle::is_valid</text>
</a>
</g>
</g>
<!-- Node30&#45;&gt;Node36 -->
<g id="edge44" class="edge">
<title>Node30&#45;&gt;Node36</title>
<path fill="none" stroke="midnightblue" d="M361.72,-174.82C434.87,-169.82 545.82,-158.91 582,-137.5 604.95,-123.92 596.08,-104.69 618,-89.5 620.88,-87.5 623.93,-85.66 627.08,-83.97"/>
<polygon fill="midnightblue" stroke="midnightblue" points="628.73,-87.06 636.22,-79.57 625.69,-80.75 628.73,-87.06"/>
</g>
<!-- Node32 -->
<g id="node32" class="node">
<title>Node32</title>
<g id="a_node32"><a xlink:href="classwmtk_1_1attribute_1_1_attribute_manager.html#a4ae249faad236f8d98287c3ec61e987e" target="_top" xlink:title=" ">
<polygon fill="none" stroke="black" points="634,-99 634,-140 775,-140 775,-99 634,-99"/>
<text text-anchor="start" x="642" y="-128" font-family="Helvetica,sans-Serif" font-size="10.00">wmtk::attribute::Attribute</text>
<text text-anchor="start" x="642" y="-117" font-family="Helvetica,sans-Serif" font-size="10.00">Manager::get_attribute</text>
<text text-anchor="middle" x="704.5" y="-106" font-family="Helvetica,sans-Serif" font-size="10.00">_dimension</text>
</a>
</g>
</g>
<!-- Node31&#45;&gt;Node32 -->
<g id="edge39" class="edge">
<title>Node31&#45;&gt;Node32</title>
<path fill="none" stroke="midnightblue" d="M571.71,-115.62C588.42,-116.12 606.29,-116.64 623.31,-117.14"/>
<polygon fill="midnightblue" stroke="midnightblue" points="623.69,-120.65 633.79,-117.45 623.89,-113.66 623.69,-120.65"/>
</g>
<!-- Node33 -->
<g id="node33" class="node">
<title>Node33</title>
<g id="a_node33"><a xlink:href="classwmtk_1_1attribute_1_1_attribute_manager.html#abfc9300968be9c101a09922863566c34" target="_top" xlink:title=" ">
<polygon fill="none" stroke="black" points="841.5,-136.5 841.5,-166.5 982.5,-166.5 982.5,-136.5 841.5,-136.5"/>
<text text-anchor="start" x="849.5" y="-154.5" font-family="Helvetica,sans-Serif" font-size="10.00">wmtk::attribute::Attribute</text>
<text text-anchor="middle" x="912" y="-143.5" font-family="Helvetica,sans-Serif" font-size="10.00">Manager::get</text>
</a>
</g>
</g>
<!-- Node32&#45;&gt;Node33 -->
<g id="edge40" class="edge">
<title>Node32&#45;&gt;Node33</title>
<path fill="none" stroke="midnightblue" d="M775.07,-130.33C793.23,-133.16 812.94,-136.23 831.57,-139.13"/>
<polygon fill="midnightblue" stroke="midnightblue" points="831.08,-142.6 841.5,-140.68 832.16,-135.68 831.08,-142.6"/>
</g>
<!-- Node34 -->
<g id="node34" class="node">
<title>Node34</title>
<g id="a_node34"><a xlink:href="classwmtk_1_1attribute_1_1_typed_attribute_handle.html#ad473b36dc43489bad4a345dceac443fa" target="_top" xlink:title=" ">
<polygon fill="none" stroke="black" points="827,-87.5 827,-117.5 997,-117.5 997,-87.5 827,-87.5"/>
<text text-anchor="start" x="835" y="-105.5" font-family="Helvetica,sans-Serif" font-size="10.00">wmtk::attribute::TypedAttribute</text>
<text text-anchor="middle" x="912" y="-94.5" font-family="Helvetica,sans-Serif" font-size="10.00">Handle::is_valid</text>
</a>
</g>
</g>
<!-- Node32&#45;&gt;Node34 -->
<g id="edge42" class="edge">
<title>Node32&#45;&gt;Node34</title>
<path fill="none" stroke="midnightblue" d="M775.07,-113.74C788.47,-112.64 802.71,-111.46 816.74,-110.3"/>
<polygon fill="midnightblue" stroke="midnightblue" points="817.23,-113.77 826.91,-109.46 816.65,-106.79 817.23,-113.77"/>
</g>
<!-- Node33&#45;&gt;Node17 -->
<g id="edge41" class="edge">
<title>Node33&#45;&gt;Node17</title>
<path fill="none" stroke="midnightblue" d="M982.58,-151.5C1000.09,-151.5 1018.84,-151.5 1036.23,-151.5"/>
<polygon fill="midnightblue" stroke="midnightblue" points="1036.29,-155 1046.29,-151.5 1036.29,-148 1036.29,-155"/>
</g>
<!-- Node35 -->
<g id="node35" class="node">
<title>Node35</title>
<g id="a_node35"><a xlink:href="classwmtk_1_1attribute_1_1_attribute_handle.html#ac48d337c6cc95e43c1ecceaacf3dd31d" target="_top" xlink:title=" ">
<polygon fill="none" stroke="black" points="1034,-87.5 1034,-117.5 1175,-117.5 1175,-87.5 1034,-87.5"/>
<text text-anchor="start" x="1042" y="-105.5" font-family="Helvetica,sans-Serif" font-size="10.00">wmtk::attribute::Attribute</text>
<text text-anchor="middle" x="1104.5" y="-94.5" font-family="Helvetica,sans-Serif" font-size="10.00">Handle::is_valid</text>
</a>
</g>
</g>
<!-- Node34&#45;&gt;Node35 -->
<g id="edge43" class="edge">
<title>Node34&#45;&gt;Node35</title>
<path fill="none" stroke="midnightblue" d="M997.11,-102.5C1005.92,-102.5 1014.86,-102.5 1023.63,-102.5"/>
<polygon fill="midnightblue" stroke="midnightblue" points="1023.81,-106 1033.81,-102.5 1023.81,-99 1023.81,-106"/>
</g>
<!-- Node37&#45;&gt;Node31 -->
<g id="edge49" class="edge">
<title>Node37&#45;&gt;Node31</title>
<path fill="none" stroke="midnightblue" d="M379.12,-113.5C391,-113.5 403.19,-113.5 415.02,-113.5"/>
<polygon fill="midnightblue" stroke="midnightblue" points="415.3,-117 425.3,-113.5 415.3,-110 415.3,-117"/>
</g>
<!-- Node38 -->
<g id="node38" class="node">
<title>Node38</title>
<g id="a_node38"><a xlink:href="classwmtk_1_1function_1_1_per_simplex_function.html#a0df382a56885d99b8f1c480f016387e1" target="_top" xlink:title=" ">
<polygon fill="none" stroke="black" points="422.5,-49.5 422.5,-79.5 574.5,-79.5 574.5,-49.5 422.5,-49.5"/>
<text text-anchor="start" x="430.5" y="-67.5" font-family="Helvetica,sans-Serif" font-size="10.00">wmtk::function::PerSimplex</text>
<text text-anchor="middle" x="498.5" y="-56.5" font-family="Helvetica,sans-Serif" font-size="10.00">Function::attribute_handle</text>
</a>
</g>
</g>
<!-- Node37&#45;&gt;Node38 -->
<g id="edge47" class="edge">
<title>Node37&#45;&gt;Node38</title>
<path fill="none" stroke="midnightblue" d="M356.44,-98.47C378.22,-93.22 402.84,-87.29 425.34,-81.87"/>
<polygon fill="midnightblue" stroke="midnightblue" points="426.28,-85.25 435.18,-79.51 424.64,-78.44 426.28,-85.25"/>
</g>
<!-- Node37&#45;&gt;Node39 -->
<g id="edge50" class="edge">
<title>Node37&#45;&gt;Node39</title>
<path fill="none" stroke="midnightblue" d="M350.55,-98.44C360.51,-94.45 370.42,-89.53 379,-83.5 399.68,-68.98 393.92,-53.43 415,-39.5 417.45,-37.88 420.01,-36.37 422.65,-34.96"/>
<polygon fill="midnightblue" stroke="midnightblue" points="424.38,-38.01 431.89,-30.53 421.36,-31.69 424.38,-38.01"/>
</g>
<!-- Node38&#45;&gt;Node36 -->
<g id="edge48" class="edge">
<title>Node38&#45;&gt;Node36</title>
<path fill="none" stroke="midnightblue" d="M574.59,-64.5C586.31,-64.5 598.53,-64.5 610.59,-64.5"/>
<polygon fill="midnightblue" stroke="midnightblue" points="610.66,-68 620.66,-64.5 610.66,-61 610.66,-68"/>
</g>
</g>
</svg>
