<?xml version="1.0" encoding="UTF-8" standalone="no"?>
<!DOCTYPE svg PUBLIC "-//W3C//DTD SVG 1.1//EN"
 "http://www.w3.org/Graphics/SVG/1.1/DTD/svg11.dtd">
<!-- Generated by graphviz version 2.43.0 (0)
 -->
<!-- Title: wmtk::simplex::IdSimplexCollection::sort_and_clean Pages: 1 -->
<!--zoomable 215 -->
<svg id="main" version="1.1" xmlns="http://www.w3.org/2000/svg" xmlns:xlink="http://www.w3.org/1999/xlink" xml:space="preserve" onload="init(evt)">
<style type="text/css"><![CDATA[
.edge:hover path { stroke: red; }
.edge:hover polygon { stroke: red; fill: red; }
]]></style>
<script type="text/javascript"><![CDATA[
var edges = document.getElementsByTagName('g');
if (edges && edges.length) {
  for (var i=0;i<edges.length;i++) {
    if (edges[i].id.substr(0,4)=='edge') {
      edges[i].setAttribute('class','edge');
    }
  }
}
]]></script>
        <defs>
                <circle id="rim" cx="0" cy="0" r="7"/>
                <circle id="rim2" cx="0" cy="0" r="3.5"/>
                <g id="zoomPlus">
                        <use xlink:href="#rim" fill="#404040">
                                <set attributeName="fill" to="#808080" begin="zoomplus.mouseover" end="zoomplus.mouseout"/>
                        </use>
                        <path d="M-4,0h8M0,-4v8" fill="none" stroke="white" stroke-width="1.5" pointer-events="none"/>
                </g>
                <g id="zoomMin">
                        <use xlink:href="#rim" fill="#404040">
                                <set attributeName="fill" to="#808080" begin="zoomminus.mouseover" end="zoomminus.mouseout"/>
                        </use>
                        <path d="M-4,0h8" fill="none" stroke="white" stroke-width="1.5" pointer-events="none"/>
                </g>
                <g id="dirArrow">
                        <path fill="none" stroke="white" stroke-width="1.5" d="M0,-3.0v7 M-2.5,-0.5L0,-3.0L2.5,-0.5"/>
                </g>
               <g id="resetDef">
                       <use xlink:href="#rim2" fill="#404040">
                               <set attributeName="fill" to="#808080" begin="reset.mouseover" end="reset.mouseout"/>
                       </use>
               </g>
        </defs>

<script type="text/javascript">
var viewWidth = 537;
var viewHeight = 215;
var sectionId = 'dynsection-14';
</script>
<script xlink:href="svgpan.js"/>
<svg id="graph" class="graph">
<g id="viewport">
<title>wmtk::simplex::IdSimplexCollection::sort_and_clean</title>
<!-- Node1 -->
<g id="node1" class="node">
<title>Node1</title>
<g id="a_node1"><a xlink:title="Sort simplex vector and remove duplicates.">
<polygon fill="#bfbfbf" stroke="black" points="384,-71.5 384,-101.5 529,-101.5 529,-71.5 384,-71.5"/>
<text text-anchor="start" x="392" y="-89.5" font-family="Helvetica,sans-Serif" font-size="10.00">wmtk::simplex::IdSimplex</text>
<text text-anchor="middle" x="456.5" y="-78.5" font-family="Helvetica,sans-Serif" font-size="10.00">Collection::sort_and_clean</text>
</a>
</g>
</g>
<!-- Node2 -->
<g id="node2" class="node">
<title>Node2</title>
<g id="a_node2"><a xlink:href="classwmtk_1_1operations_1_1_operation.html#af181d255eb0ef5297646e0dc9dc817a7" target="_top" xlink:title=" ">
<polygon fill="none" stroke="black" points="192,-137.5 192,-167.5 348,-167.5 348,-137.5 192,-137.5"/>
<text text-anchor="start" x="200" y="-155.5" font-family="Helvetica,sans-Serif" font-size="10.00">wmtk::operations::Operation</text>
<text text-anchor="middle" x="270" y="-144.5" font-family="Helvetica,sans-Serif" font-size="10.00">::apply_attribute_transfer</text>
</a>
</g>
</g>
<!-- Node1&#45;&gt;Node2 -->
<g id="edge1" class="edge">
<title>Node1&#45;&gt;Node2</title>
<path fill="none" stroke="midnightblue" d="M403.74,-105.02C375.13,-115.25 340.05,-127.8 313.13,-137.43"/>
<polygon fill="midnightblue" stroke="midnightblue" points="404.94,-108.31 413.17,-101.64 402.58,-101.71 404.94,-108.31"/>
</g>
<!-- Node5 -->
<g id="node5" class="node">
<title>Node5</title>
<g id="a_node5"><a xlink:href="namespacewmtk_1_1simplex.html#aead7bf4f261c58bdb33bd0bf7fcd541d" target="_top" xlink:title=" ">
<polygon fill="none" stroke="black" points="21.5,-68.5 21.5,-98.5 134.5,-98.5 134.5,-68.5 21.5,-68.5"/>
<text text-anchor="start" x="29.5" y="-86.5" font-family="Helvetica,sans-Serif" font-size="10.00">wmtk::simplex::link</text>
<text text-anchor="middle" x="78" y="-75.5" font-family="Helvetica,sans-Serif" font-size="10.00">_condition</text>
</a>
</g>
</g>
<!-- Node1&#45;&gt;Node5 -->
<g id="edge4" class="edge">
<title>Node1&#45;&gt;Node5</title>
<path fill="none" stroke="midnightblue" d="M373.66,-89.02C365,-89.22 356.32,-89.38 348,-89.5 278.67,-90.47 261.31,-91.34 192,-89.5 173.34,-89.01 152.97,-88.05 134.73,-87.05"/>
<polygon fill="midnightblue" stroke="midnightblue" points="373.89,-92.52 383.8,-88.78 373.72,-85.52 373.89,-92.52"/>
</g>
<!-- Node6 -->
<g id="node6" class="node">
<title>Node6</title>
<g id="a_node6"><a xlink:href="namespacewmtk_1_1simplex.html#a428755c0a4c93af10690b6828a3c79f5" target="_top" xlink:title=" ">
<polygon fill="none" stroke="black" points="195.5,-49.5 195.5,-79.5 344.5,-79.5 344.5,-49.5 195.5,-49.5"/>
<text text-anchor="start" x="203.5" y="-67.5" font-family="Helvetica,sans-Serif" font-size="10.00">wmtk::simplex::link</text>
<text text-anchor="middle" x="270" y="-56.5" font-family="Helvetica,sans-Serif" font-size="10.00">_condition_closed_tetmesh</text>
</a>
</g>
</g>
<!-- Node1&#45;&gt;Node6 -->
<g id="edge5" class="edge">
<title>Node1&#45;&gt;Node6</title>
<path fill="none" stroke="midnightblue" d="M373.86,-76.77C364.15,-75.61 354.28,-74.43 344.69,-73.29"/>
<polygon fill="midnightblue" stroke="midnightblue" points="373.56,-80.25 383.9,-77.96 374.39,-73.3 373.56,-80.25"/>
</g>
<!-- Node7 -->
<g id="node7" class="node">
<title>Node7</title>
<g id="a_node7"><a xlink:href="namespacewmtk_1_1simplex.html#a3b3266f811539b7df8d85a51552bc1f7" target="_top" xlink:title=" ">
<polygon fill="none" stroke="black" points="197,-0.5 197,-30.5 343,-30.5 343,-0.5 197,-0.5"/>
<text text-anchor="start" x="205" y="-18.5" font-family="Helvetica,sans-Serif" font-size="10.00">wmtk::simplex::link</text>
<text text-anchor="middle" x="270" y="-7.5" font-family="Helvetica,sans-Serif" font-size="10.00">_condition_closed_trimesh</text>
</a>
</g>
</g>
<!-- Node1&#45;&gt;Node7 -->
<g id="edge7" class="edge">
<title>Node1&#45;&gt;Node7</title>
<path fill="none" stroke="midnightblue" d="M414.08,-67.12C394.29,-58.19 370.14,-47.76 348,-39.5 339.74,-36.42 330.87,-33.4 322.21,-30.6"/>
<polygon fill="midnightblue" stroke="midnightblue" points="412.87,-70.41 423.42,-71.37 415.77,-64.04 412.87,-70.41"/>
</g>
<!-- Node3 -->
<g id="node3" class="node">
<title>Node3</title>
<g id="a_node3"><a xlink:href="classwmtk_1_1operations_1_1_operation.html#a9c6426d34b54642aacb28e7cf93e328f" target="_top" xlink:title=" ">
<polygon fill="none" stroke="black" points="0,-176.5 0,-206.5 156,-206.5 156,-176.5 0,-176.5"/>
<text text-anchor="start" x="8" y="-194.5" font-family="Helvetica,sans-Serif" font-size="10.00">wmtk::operations::Operation</text>
<text text-anchor="middle" x="78" y="-183.5" font-family="Helvetica,sans-Serif" font-size="10.00">::operator()</text>
</a>
</g>
</g>
<!-- Node2&#45;&gt;Node3 -->
<g id="edge2" class="edge">
<title>Node2&#45;&gt;Node3</title>
<path fill="none" stroke="midnightblue" d="M185.99,-169.54C174.72,-171.85 163.23,-174.21 152.15,-176.49"/>
<polygon fill="midnightblue" stroke="midnightblue" points="186.72,-172.96 195.81,-167.52 185.31,-166.1 186.72,-172.96"/>
</g>
<!-- Node4 -->
<g id="node4" class="node">
<title>Node4</title>
<g id="a_node4"><a xlink:href="classwmtk_1_1operations_1_1_operation_sequence.html#a547ec2a6ed8a354eff76e733b2e7fb2c" target="_top" xlink:title=" ">
<polygon fill="none" stroke="black" points="0,-127.5 0,-157.5 156,-157.5 156,-127.5 0,-127.5"/>
<text text-anchor="start" x="8" y="-145.5" font-family="Helvetica,sans-Serif" font-size="10.00">wmtk::operations::Operation</text>
<text text-anchor="middle" x="78" y="-134.5" font-family="Helvetica,sans-Serif" font-size="10.00">Sequence::operator()</text>
</a>
</g>
</g>
<!-- Node2&#45;&gt;Node4 -->
<g id="edge3" class="edge">
<title>Node2&#45;&gt;Node4</title>
<path fill="none" stroke="midnightblue" d="M181.94,-147.92C173.32,-147.46 164.62,-147.01 156.12,-146.56"/>
<polygon fill="midnightblue" stroke="midnightblue" points="181.82,-151.42 191.99,-148.45 182.19,-144.43 181.82,-151.42"/>
</g>
<!-- Node6&#45;&gt;Node5 -->
<g id="edge6" class="edge">
<title>Node6&#45;&gt;Node5</title>
<path fill="none" stroke="midnightblue" d="M185.27,-72.87C168.16,-74.58 150.55,-76.34 134.72,-77.93"/>
<polygon fill="midnightblue" stroke="midnightblue" points="185.67,-76.35 195.27,-71.87 184.97,-69.39 185.67,-76.35"/>
</g>
<!-- Node8 -->
<g id="node8" class="node">
<title>Node8</title>
<g id="a_node8"><a xlink:href="namespacewmtk_1_1simplex.html#aad86388bdc8c1685d7d55fad016f0ca2" target="_top" xlink:title=" ">
<polygon fill="none" stroke="black" points="21.5,-0.5 21.5,-30.5 134.5,-30.5 134.5,-0.5 21.5,-0.5"/>
<text text-anchor="start" x="29.5" y="-18.5" font-family="Helvetica,sans-Serif" font-size="10.00">wmtk::simplex::link</text>
<text text-anchor="middle" x="78" y="-7.5" font-family="Helvetica,sans-Serif" font-size="10.00">_condition</text>
</a>
</g>
</g>
<!-- Node7&#45;&gt;Node8 -->
<g id="edge8" class="edge">
<title>Node7&#45;&gt;Node8</title>
<path fill="none" stroke="midnightblue" d="M186.67,-15.5C169.14,-15.5 151.03,-15.5 134.78,-15.5"/>
<polygon fill="midnightblue" stroke="midnightblue" points="186.9,-19 196.9,-15.5 186.9,-12 186.9,-19"/>
</g>
</g>
</svg>
        <g id="navigator" transform="translate(0 0)" fill="#404254">
                <rect fill="#f2f5e9" fill-opacity="0.5" stroke="#606060" stroke-width=".5" x="0" y="0" width="60" height="60"/>
                <use id="zoomplus" xlink:href="#zoomPlus" x="17" y="9" onmousedown="handleZoom(evt,'in')"/>
                <use id="zoomminus" xlink:href="#zoomMin" x="42" y="9" onmousedown="handleZoom(evt,'out')"/>
                <use id="reset" xlink:href="#resetDef" x="30" y="36" onmousedown="handleReset()"/>
                <g id="arrowUp" xlink:href="#dirArrow" transform="translate(30 24)" onmousedown="handlePan(0,-1)">
                  <use xlink:href="#rim" fill="#404040">
                        <set attributeName="fill" to="#808080" begin="arrowUp.mouseover" end="arrowUp.mouseout"/>
                  </use>
                  <path fill="none" stroke="white" stroke-width="1.5" d="M0,-3.0v7 M-2.5,-0.5L0,-3.0L2.5,-0.5"/>
                </g>
                <g id="arrowRight" xlink:href="#dirArrow" transform="rotate(90) translate(36 -43)" onmousedown="handlePan(1,0)">
                  <use xlink:href="#rim" fill="#404040">
                        <set attributeName="fill" to="#808080" begin="arrowRight.mouseover" end="arrowRight.mouseout"/>
                  </use>
                  <path fill="none" stroke="white" stroke-width="1.5" d="M0,-3.0v7 M-2.5,-0.5L0,-3.0L2.5,-0.5"/>
                </g>
                <g id="arrowDown" xlink:href="#dirArrow" transform="rotate(180) translate(-30 -48)" onmousedown="handlePan(0,1)">
                  <use xlink:href="#rim" fill="#404040">
                        <set attributeName="fill" to="#808080" begin="arrowDown.mouseover" end="arrowDown.mouseout"/>
                  </use>
                  <path fill="none" stroke="white" stroke-width="1.5" d="M0,-3.0v7 M-2.5,-0.5L0,-3.0L2.5,-0.5"/>
                </g>
                <g id="arrowLeft" xlink:href="#dirArrow" transform="rotate(270) translate(-36 17)" onmousedown="handlePan(-1,0)">
                  <use xlink:href="#rim" fill="#404040">
                        <set attributeName="fill" to="#808080" begin="arrowLeft.mouseover" end="arrowLeft.mouseout"/>
                  </use>
                  <path fill="none" stroke="white" stroke-width="1.5" d="M0,-3.0v7 M-2.5,-0.5L0,-3.0L2.5,-0.5"/>
                </g>
        </g>
        <svg viewBox="0 0 15 15" width="100%" height="30px" preserveAspectRatio="xMaxYMin meet">
         <g id="arrow_out" transform="scale(0.3 0.3)">
          <a xlink:href="classwmtk_1_1simplex_1_1_id_simplex_collection_a12fc27cc333e356aee9c1694de5dde1c_icgraph_org.svg" target="_base">
           <rect id="button" ry="5" rx="5" y="6" x="6" height="38" width="38"
                fill="#f2f5e9" fill-opacity="0.5" stroke="#606060" stroke-width="1.0"/>
           <path id="arrow"
             d="M 11.500037,31.436501 C 11.940474,20.09759 22.043105,11.32322 32.158766,21.979434 L 37.068811,17.246167 C 37.068811,17.246167 37.088388,32 37.088388,32 L 22.160133,31.978069 C 22.160133,31.978069 26.997745,27.140456 26.997745,27.140456 C 18.528582,18.264221 13.291696,25.230495 11.500037,31.436501 z"
             style="fill:#404040;"/>
          </a>
         </g>
        </svg>
</svg>
