<?xml version="1.0" encoding="UTF-8" standalone="no"?>
<!DOCTYPE svg PUBLIC "-//W3C//DTD SVG 1.1//EN"
 "http://www.w3.org/Graphics/SVG/1.1/DTD/svg11.dtd">
<!-- Generated by graphviz version 2.43.0 (0)
 -->
<!-- Title: wmtk::invariants::MultiMeshLinkConditionInvariant::before Pages: 1 -->
<svg width="2421pt" height="676pt"
 viewBox="0.00 0.00 2421.00 676.00" xmlns="http://www.w3.org/2000/svg" xmlns:xlink="http://www.w3.org/1999/xlink">
<g id="graph0" class="graph" transform="scale(1 1) rotate(0) translate(4 672)">
<title>wmtk::invariants::MultiMeshLinkConditionInvariant::before</title>
<!-- Node1 -->
<g id="Node000001" class="node">
<title>Node1</title>
<g id="a_Node000001"><a xlink:title=" ">
<polygon fill="#999999" stroke="#666666" points="164,-73 0,-73 0,-43 164,-43 164,-73"/>
<text text-anchor="start" x="8" y="-61" font-family="Helvetica,sans-Serif" font-size="10.00">wmtk::invariants::MultiMesh</text>
<text text-anchor="middle" x="82" y="-50" font-family="Helvetica,sans-Serif" font-size="10.00">LinkConditionInvariant::before</text>
</a>
</g>
</g>
<!-- Node2 -->
<g id="Node000002" class="node">
<title>Node2</title>
<g id="a_Node000002"><a xlink:href="classwmtk_1_1multimesh_1_1_multi_mesh_simplex_visitor.html#a4084e9097656664e6138a26c4082957e" target="_top" xlink:title=" ">
<polygon fill="white" stroke="#666666" points="360,-525.5 200,-525.5 200,-484.5 360,-484.5 360,-525.5"/>
<text text-anchor="start" x="208" y="-513.5" font-family="Helvetica,sans-Serif" font-size="10.00">wmtk::multimesh::MultiMesh</text>
<text text-anchor="start" x="208" y="-502.5" font-family="Helvetica,sans-Serif" font-size="10.00">SimplexVisitor::execute</text>
<text text-anchor="middle" x="280" y="-491.5" font-family="Helvetica,sans-Serif" font-size="10.00">_from_root</text>
</a>
</g>
</g>
<!-- Node1&#45;&gt;Node2 -->
<g id="edge1_Node000001_Node000002" class="edge">
<title>Node1&#45;&gt;Node2</title>
<g id="a_edge1_Node000001_Node000002"><a xlink:title=" ">
<path fill="none" stroke="#63b8ff" d="M89.63,-73.13C117.8,-137.37 227.81,-388.26 265.92,-475.17"/>
<polygon fill="#63b8ff" stroke="#63b8ff" points="262.78,-476.71 270,-484.47 269.19,-473.9 262.78,-476.71"/>
</a>
</g>
</g>
<!-- Node34 -->
<g id="Node000034" class="node">
<title>Node34</title>
<g id="a_Node000034"><a xlink:href="classwmtk_1_1simplex_1_1_simplex.html#ad2cc0340a0772b7d6f03ba7a781d1163" target="_top" xlink:title=" ">
<polygon fill="white" stroke="#666666" points="2072.5,-72 1937.5,-72 1937.5,-42 2072.5,-42 2072.5,-72"/>
<text text-anchor="start" x="1945.5" y="-60" font-family="Helvetica,sans-Serif" font-size="10.00">wmtk::simplex::Simplex</text>
<text text-anchor="middle" x="2005" y="-49" font-family="Helvetica,sans-Serif" font-size="10.00">::primitive_type</text>
</a>
</g>
</g>
<!-- Node1&#45;&gt;Node34 -->
<g id="edge54_Node000001_Node000034" class="edge">
<title>Node1&#45;&gt;Node34</title>
<g id="a_edge54_Node000001_Node000034"><a xlink:title=" ">
<path fill="none" stroke="#63b8ff" d="M164.25,-58C244.4,-58 370.39,-58 479.5,-58 479.5,-58 479.5,-58 1556,-58 1686.31,-58 1837.94,-57.57 1927.17,-57.28"/>
<polygon fill="#63b8ff" stroke="#63b8ff" points="1927.22,-60.78 1937.21,-57.24 1927.2,-53.78 1927.22,-60.78"/>
</a>
</g>
</g>
<!-- Node40 -->
<g id="Node000040" class="node">
<title>Node40</title>
<g id="a_Node000040"><a xlink:href="classwmtk_1_1invariants_1_1_invariant.html#ac97548bf5f1167cd85081d1bde011139" target="_top" xlink:title=" ">
<polygon fill="white" stroke="#666666" points="354.5,-30 205.5,-30 205.5,0 354.5,0 354.5,-30"/>
<text text-anchor="start" x="213.5" y="-18" font-family="Helvetica,sans-Serif" font-size="10.00">wmtk::invariants::Invariant</text>
<text text-anchor="middle" x="280" y="-7" font-family="Helvetica,sans-Serif" font-size="10.00">::mesh</text>
</a>
</g>
</g>
<!-- Node1&#45;&gt;Node40 -->
<g id="edge53_Node000001_Node000040" class="edge">
<title>Node1&#45;&gt;Node40</title>
<g id="a_edge53_Node000001_Node000040"><a xlink:title=" ">
<path fill="none" stroke="#63b8ff" d="M151.55,-42.96C167.37,-39.49 184.31,-35.77 200.51,-32.22"/>
<polygon fill="#63b8ff" stroke="#63b8ff" points="201.47,-35.59 210.49,-30.03 199.97,-28.76 201.47,-35.59"/>
</a>
</g>
</g>
<!-- Node3 -->
<g id="Node000003" class="node">
<title>Node3</title>
<g id="a_Node000003"><a xlink:href="namespacewmtk_1_1utils_1_1metaprogramming.html#aa5a891c5f82fc2a28e4fbdfc325b46f0" target="_top" xlink:title=" ">
<polygon fill="white" stroke="#666666" points="565,-620 396,-620 396,-590 565,-590 565,-620"/>
<text text-anchor="start" x="404" y="-608" font-family="Helvetica,sans-Serif" font-size="10.00">wmtk::utils::metaprogramming</text>
<text text-anchor="middle" x="480.5" y="-597" font-family="Helvetica,sans-Serif" font-size="10.00">::as_mesh_variant</text>
</a>
</g>
</g>
<!-- Node2&#45;&gt;Node3 -->
<g id="edge2_Node000002_Node000003" class="edge">
<title>Node2&#45;&gt;Node3</title>
<g id="a_edge2_Node000002_Node000003"><a xlink:title=" ">
<path fill="none" stroke="#63b8ff" d="M310.25,-525.55C332.91,-540.84 365.48,-561.5 396,-576 403.85,-579.73 412.32,-583.23 420.75,-586.42"/>
<polygon fill="#63b8ff" stroke="#63b8ff" points="419.62,-589.74 430.21,-589.89 422.02,-583.16 419.62,-589.74"/>
</a>
</g>
</g>
<!-- Node4 -->
<g id="Node000004" class="node">
<title>Node4</title>
<g id="a_Node000004"><a xlink:href="classwmtk_1_1multimesh_1_1_multi_mesh_simplex_visitor.html#a7fe63897b1f72c65f0b7144be9536c22" target="_top" xlink:title=" ">
<polygon fill="white" stroke="#666666" points="562.5,-668 398.5,-668 398.5,-638 562.5,-638 562.5,-668"/>
<text text-anchor="start" x="406.5" y="-656" font-family="Helvetica,sans-Serif" font-size="10.00">wmtk::multimesh::MultiMesh</text>
<text text-anchor="middle" x="480.5" y="-645" font-family="Helvetica,sans-Serif" font-size="10.00">SimplexVisitor::execute_mesh</text>
</a>
</g>
</g>
<!-- Node2&#45;&gt;Node4 -->
<g id="edge3_Node000002_Node000004" class="edge">
<title>Node2&#45;&gt;Node4</title>
<g id="a_edge3_Node000002_Node000004"><a xlink:title=" ">
<path fill="none" stroke="#63b8ff" d="M294.78,-525.83C314.14,-553.47 351.99,-601.93 396,-629 398.76,-630.7 401.65,-632.28 404.62,-633.76"/>
<polygon fill="#63b8ff" stroke="#63b8ff" points="403.19,-636.95 413.75,-637.86 406.06,-630.57 403.19,-636.95"/>
</a>
</g>
</g>
<!-- Node7 -->
<g id="Node000007" class="node">
<title>Node7</title>
<g id="a_Node000007"><a xlink:href="classwmtk_1_1simplex_1_1_navigatable_simplex.html#a95fd6a210d3e5342860e4209f00053a0" target="_top" xlink:title=" ">
<polygon fill="white" stroke="#666666" points="1164,-608 1009,-608 1009,-578 1164,-578 1164,-608"/>
<text text-anchor="start" x="1017" y="-596" font-family="Helvetica,sans-Serif" font-size="10.00">wmtk::simplex::Navigatable</text>
<text text-anchor="middle" x="1086.5" y="-585" font-family="Helvetica,sans-Serif" font-size="10.00">Simplex::tuple</text>
</a>
</g>
</g>
<!-- Node2&#45;&gt;Node7 -->
<g id="edge51_Node000002_Node000007" class="edge">
<title>Node2&#45;&gt;Node7</title>
<g id="a_edge51_Node000002_Node000007"><a xlink:title=" ">
<path fill="none" stroke="#63b8ff" d="M344.03,-525.54C360.77,-530.32 378.93,-534.9 396,-538 610.48,-576.92 867.46,-588.3 998.84,-591.63"/>
<polygon fill="#63b8ff" stroke="#63b8ff" points="998.76,-595.13 1008.85,-591.87 998.93,-588.13 998.76,-595.13"/>
</a>
</g>
</g>
<!-- Node8 -->
<g id="Node000008" class="node">
<title>Node8</title>
<g id="a_Node000008"><a xlink:href="classwmtk_1_1_mesh.html#aac3ec1ebbe00982ddfe70cc710d8f54e" target="_top" xlink:title="returns a reference to the root of a multimesh tree">
<polygon fill="white" stroke="#666666" points="745.5,-458 616.5,-458 616.5,-428 745.5,-428 745.5,-458"/>
<text text-anchor="start" x="624.5" y="-446" font-family="Helvetica,sans-Serif" font-size="10.00">wmtk::Mesh::get_multi</text>
<text text-anchor="middle" x="681" y="-435" font-family="Helvetica,sans-Serif" font-size="10.00">_mesh_root</text>
</a>
</g>
</g>
<!-- Node2&#45;&gt;Node8 -->
<g id="edge7_Node000002_Node000008" class="edge">
<title>Node2&#45;&gt;Node8</title>
<g id="a_edge7_Node000002_Node000008"><a xlink:title=" ">
<path fill="none" stroke="#63b8ff" d="M344.98,-484.46C361.47,-479.77 379.28,-475.23 396,-472 466.7,-458.36 548.62,-450.86 606.25,-446.93"/>
<polygon fill="#63b8ff" stroke="#63b8ff" points="606.62,-450.41 616.36,-446.26 606.15,-443.43 606.62,-450.41"/>
</a>
</g>
</g>
<!-- Node11 -->
<g id="Node000011" class="node">
<title>Node11</title>
<g id="a_Node000011"><a xlink:href="classwmtk_1_1_mesh.html#a8cc8686f0688613806f43720b6db49e7" target="_top" xlink:title="check validity of tuple including its hash">
<polygon fill="white" stroke="#666666" points="1840,-533.5 1720,-533.5 1720,-514.5 1840,-514.5 1840,-533.5"/>
<text text-anchor="middle" x="1780" y="-521.5" font-family="Helvetica,sans-Serif" font-size="10.00">wmtk::Mesh::is_valid</text>
</a>
</g>
</g>
<!-- Node2&#45;&gt;Node11 -->
<g id="edge11_Node000002_Node000011" class="edge">
<title>Node2&#45;&gt;Node11</title>
<g id="a_edge11_Node000002_Node000011"><a xlink:title=" ">
<path fill="none" stroke="#63b8ff" d="M360.06,-510.99C440.52,-516.55 568.87,-524 680,-524 680,-524 680,-524 1316.5,-524 1456.05,-524 1619.3,-524 1709.74,-524"/>
<polygon fill="#63b8ff" stroke="#63b8ff" points="1709.86,-527.5 1719.86,-524 1709.86,-520.5 1709.86,-527.5"/>
</a>
</g>
</g>
<!-- Node17 -->
<g id="Node000017" class="node">
<title>Node17</title>
<g id="a_Node000017"><a xlink:href="classwmtk_1_1_mesh.html#aa23d8c5ea9c2a2d635eb7c67221206e8" target="_top" xlink:title="maps a simplex from this mesh to the root mesh">
<polygon fill="white" stroke="#666666" points="552.5,-411.5 408.5,-411.5 408.5,-392.5 552.5,-392.5 552.5,-411.5"/>
<text text-anchor="middle" x="480.5" y="-399.5" font-family="Helvetica,sans-Serif" font-size="10.00">wmtk::Mesh::map_to_root</text>
</a>
</g>
</g>
<!-- Node2&#45;&gt;Node17 -->
<g id="edge18_Node000002_Node000017" class="edge">
<title>Node2&#45;&gt;Node17</title>
<g id="a_edge18_Node000002_Node000017"><a xlink:title=" ">
<path fill="none" stroke="#63b8ff" d="M308.72,-484.49C331.36,-468.41 364.62,-446.28 396,-431 408.75,-424.79 423.18,-419.29 436.42,-414.78"/>
<polygon fill="#63b8ff" stroke="#63b8ff" points="437.85,-418 446.26,-411.54 435.66,-411.35 437.85,-418"/>
</a>
</g>
</g>
<!-- Node39 -->
<g id="Node000039" class="node">
<title>Node39</title>
<g id="a_Node000039"><a xlink:href="classwmtk_1_1simplex_1_1_simplex.html#aca78b1fb0a3c28c0036cf7919bfb0789" target="_top" xlink:title=" ">
<polygon fill="white" stroke="#666666" points="1154,-496 1019,-496 1019,-466 1154,-466 1154,-496"/>
<text text-anchor="start" x="1027" y="-484" font-family="Helvetica,sans-Serif" font-size="10.00">wmtk::simplex::Simplex</text>
<text text-anchor="middle" x="1086.5" y="-473" font-family="Helvetica,sans-Serif" font-size="10.00">::tuple</text>
</a>
</g>
</g>
<!-- Node2&#45;&gt;Node39 -->
<g id="edge52_Node000002_Node000039" class="edge">
<title>Node2&#45;&gt;Node39</title>
<g id="a_edge52_Node000002_Node000039"><a xlink:title=" ">
<path fill="none" stroke="#63b8ff" d="M360.34,-502.63C515.15,-498.01 855.68,-487.86 1008.56,-483.3"/>
<polygon fill="#63b8ff" stroke="#63b8ff" points="1008.9,-486.79 1018.79,-482.99 1008.69,-479.79 1008.9,-486.79"/>
</a>
</g>
</g>
<!-- Node5 -->
<g id="Node000005" class="node">
<title>Node5</title>
<g id="a_Node000005"><a xlink:href="classwmtk_1_1multimesh_1_1_multi_mesh_simplex_visitor_executor.html#a7933f8d74e247125e4f5d0eb5ee319c9" target="_top" xlink:title=" ">
<polygon fill="white" stroke="#666666" points="761,-652.5 601,-652.5 601,-611.5 761,-611.5 761,-652.5"/>
<text text-anchor="start" x="609" y="-640.5" font-family="Helvetica,sans-Serif" font-size="10.00">wmtk::multimesh::MultiMesh</text>
<text text-anchor="start" x="609" y="-629.5" font-family="Helvetica,sans-Serif" font-size="10.00">SimplexVisitorExecutor</text>
<text text-anchor="middle" x="681" y="-618.5" font-family="Helvetica,sans-Serif" font-size="10.00">::execute</text>
</a>
</g>
</g>
<!-- Node4&#45;&gt;Node5 -->
<g id="edge4_Node000004_Node000005" class="edge">
<title>Node4&#45;&gt;Node5</title>
<g id="a_edge4_Node000004_Node000005"><a xlink:title=" ">
<path fill="none" stroke="#63b8ff" d="M562.52,-644.43C571.81,-643.45 581.32,-642.44 590.71,-641.45"/>
<polygon fill="#63b8ff" stroke="#63b8ff" points="591.26,-644.91 600.84,-640.37 590.53,-637.95 591.26,-644.91"/>
</a>
</g>
</g>
<!-- Node6 -->
<g id="Node000006" class="node">
<title>Node6</title>
<g id="a_Node000006"><a xlink:href="classwmtk_1_1multimesh_1_1_multi_mesh_simplex_visitor_executor.html#a72f23b9620585b126dd9a607ce84341c" target="_top" xlink:title=" ">
<polygon fill="white" stroke="#666666" points="957,-634 797,-634 797,-604 957,-604 957,-634"/>
<text text-anchor="start" x="805" y="-622" font-family="Helvetica,sans-Serif" font-size="10.00">wmtk::multimesh::MultiMesh</text>
<text text-anchor="middle" x="877" y="-611" font-family="Helvetica,sans-Serif" font-size="10.00">SimplexVisitorExecutor::run</text>
</a>
</g>
</g>
<!-- Node5&#45;&gt;Node6 -->
<g id="edge5_Node000005_Node000006" class="edge">
<title>Node5&#45;&gt;Node6</title>
<g id="a_edge5_Node000005_Node000006"><a xlink:title=" ">
<path fill="none" stroke="#63b8ff" d="M761.19,-626.69C769.53,-626.13 778.05,-625.56 786.5,-625"/>
<polygon fill="#63b8ff" stroke="#63b8ff" points="787.01,-628.47 796.75,-624.31 786.54,-621.49 787.01,-628.47"/>
</a>
</g>
</g>
<!-- Node6&#45;&gt;Node7 -->
<g id="edge6_Node000006_Node000007" class="edge">
<title>Node6&#45;&gt;Node7</title>
<g id="a_edge6_Node000006_Node000007"><a xlink:title=" ">
<path fill="none" stroke="#63b8ff" d="M957.04,-609.1C970.68,-607.39 984.92,-605.6 998.75,-603.87"/>
<polygon fill="#63b8ff" stroke="#63b8ff" points="999.25,-607.33 1008.74,-602.62 998.38,-600.39 999.25,-607.33"/>
</a>
</g>
</g>
<!-- Node9 -->
<g id="Node000009" class="node">
<title>Node9</title>
<g id="a_Node000009"><a xlink:href="classwmtk_1_1multimesh_1_1_multi_mesh_manager.html#a434e74f6b295055a45914d41a784124a" target="_top" xlink:title=" ">
<polygon fill="white" stroke="#666666" points="1166.5,-430 1006.5,-430 1006.5,-400 1166.5,-400 1166.5,-430"/>
<text text-anchor="start" x="1014.5" y="-418" font-family="Helvetica,sans-Serif" font-size="10.00">wmtk::multimesh::MultiMesh</text>
<text text-anchor="middle" x="1086.5" y="-407" font-family="Helvetica,sans-Serif" font-size="10.00">Manager::get_root_mesh</text>
</a>
</g>
</g>
<!-- Node8&#45;&gt;Node9 -->
<g id="edge8_Node000008_Node000009" class="edge">
<title>Node8&#45;&gt;Node9</title>
<g id="a_edge8_Node000008_Node000009"><a xlink:title=" ">
<path fill="none" stroke="#63b8ff" d="M745.94,-438.56C813.46,-433.88 920.43,-426.45 996.25,-421.19"/>
<polygon fill="#63b8ff" stroke="#63b8ff" points="996.53,-424.68 1006.27,-420.5 996.05,-417.7 996.53,-424.68"/>
</a>
</g>
</g>
<!-- Node9&#45;&gt;Node9 -->
<g id="edge9_Node000009_Node000009" class="edge">
<title>Node9&#45;&gt;Node9</title>
<g id="a_edge9_Node000009_Node000009"><a xlink:title=" ">
<path fill="none" stroke="#63b8ff" d="M1049.94,-430.28C1041.81,-439.41 1054,-448 1086.5,-448 1105.8,-448 1117.93,-444.97 1122.91,-440.6"/>
<polygon fill="#63b8ff" stroke="#63b8ff" points="1126.41,-440.33 1123.06,-430.28 1119.41,-440.22 1126.41,-440.33"/>
</a>
</g>
</g>
<!-- Node10 -->
<g id="Node000010" class="node">
<title>Node10</title>
<g id="a_Node000010"><a xlink:href="classwmtk_1_1multimesh_1_1_multi_mesh_manager.html#a7d39339adb56b1798fe817d81bfcc67c" target="_top" xlink:title="Specifies whether this structure is the root of a multi&#45;mesh tree.">
<polygon fill="white" stroke="#666666" points="1635,-382 1475,-382 1475,-352 1635,-352 1635,-382"/>
<text text-anchor="start" x="1483" y="-370" font-family="Helvetica,sans-Serif" font-size="10.00">wmtk::multimesh::MultiMesh</text>
<text text-anchor="middle" x="1555" y="-359" font-family="Helvetica,sans-Serif" font-size="10.00">Manager::is_root</text>
</a>
</g>
</g>
<!-- Node9&#45;&gt;Node10 -->
<g id="edge10_Node000009_Node000010" class="edge">
<title>Node9&#45;&gt;Node10</title>
<g id="a_edge10_Node000009_Node000010"><a xlink:title=" ">
<path fill="none" stroke="#63b8ff" d="M1166.64,-406.86C1249.28,-398.35 1378.64,-385.04 1464.84,-376.17"/>
<polygon fill="#63b8ff" stroke="#63b8ff" points="1465.28,-379.65 1474.87,-375.14 1464.56,-372.68 1465.28,-379.65"/>
</a>
</g>
</g>
<!-- Node12 -->
<g id="Node000012" class="node">
<title>Node12</title>
<g id="a_Node000012"><a xlink:href="classwmtk_1_1_tuple.html#a0023f575be92cd5ceeeaaaa3762ea06d" target="_top" xlink:title="Checks if a tuple is &quot;null&quot;. This merely implies the global index is &#45;1.">
<polygon fill="white" stroke="#666666" points="2061.5,-626.5 1948.5,-626.5 1948.5,-607.5 2061.5,-607.5 2061.5,-626.5"/>
<text text-anchor="middle" x="2005" y="-614.5" font-family="Helvetica,sans-Serif" font-size="10.00">wmtk::Tuple::is_null</text>
</a>
</g>
</g>
<!-- Node11&#45;&gt;Node12 -->
<g id="edge12_Node000011_Node000012" class="edge">
<title>Node11&#45;&gt;Node12</title>
<g id="a_edge12_Node000011_Node000012"><a xlink:title=" ">
<path fill="none" stroke="#63b8ff" d="M1792.77,-533.57C1813.37,-549.78 1857.87,-582.48 1901,-599 1912.77,-603.51 1925.73,-606.9 1938.38,-609.44"/>
<polygon fill="#63b8ff" stroke="#63b8ff" points="1937.95,-612.92 1948.42,-611.3 1939.22,-606.04 1937.95,-612.92"/>
</a>
</g>
</g>
<!-- Node13 -->
<g id="Node000013" class="node">
<title>Node13</title>
<g id="a_Node000013"><a xlink:href="classwmtk_1_1_mesh.html#ade176d345902d97af8c5da04aa3a095b" target="_top" xlink:title=" ">
<polygon fill="white" stroke="#666666" points="2075,-571.5 1935,-571.5 1935,-552.5 2075,-552.5 2075,-571.5"/>
<text text-anchor="middle" x="2005" y="-559.5" font-family="Helvetica,sans-Serif" font-size="10.00">wmtk::Mesh::is_removed</text>
</a>
</g>
</g>
<!-- Node11&#45;&gt;Node13 -->
<g id="edge13_Node000011_Node000013" class="edge">
<title>Node11&#45;&gt;Node13</title>
<g id="a_edge13_Node000011_Node000013"><a xlink:title=" ">
<path fill="none" stroke="#63b8ff" d="M1836.98,-533.54C1867.6,-538.76 1905.72,-545.25 1937.8,-550.72"/>
<polygon fill="#63b8ff" stroke="#63b8ff" points="1937.55,-554.23 1947.99,-552.46 1938.72,-547.33 1937.55,-554.23"/>
</a>
</g>
</g>
<!-- Node15 -->
<g id="Node000015" class="node">
<title>Node15</title>
<g id="a_Node000015"><a xlink:href="namespacewmtk.html#a6a35f11c12436093d26fdd8be6fecc06" target="_top" xlink:title="Retrieves the current logger.">
<polygon fill="white" stroke="#666666" points="2251,-343.5 2170,-343.5 2170,-324.5 2251,-324.5 2251,-343.5"/>
<text text-anchor="middle" x="2210.5" y="-331.5" font-family="Helvetica,sans-Serif" font-size="10.00">wmtk::logger</text>
</a>
</g>
</g>
<!-- Node11&#45;&gt;Node15 -->
<g id="edge16_Node000011_Node000015" class="edge">
<title>Node11&#45;&gt;Node15</title>
<g id="a_edge16_Node000011_Node000015"><a xlink:title=" ">
<path fill="none" stroke="#63b8ff" d="M1840.01,-526.35C1909.38,-526.42 2025.62,-517.88 2109,-467 2154.52,-439.22 2186.58,-382.52 2200.97,-352.93"/>
<polygon fill="#63b8ff" stroke="#63b8ff" points="2204.23,-354.22 2205.32,-343.68 2197.9,-351.25 2204.23,-354.22"/>
</a>
</g>
</g>
<!-- Node13&#45;&gt;Node13 -->
<g id="edge15_Node000013_Node000013" class="edge">
<title>Node13&#45;&gt;Node13</title>
<g id="a_edge15_Node000013_Node000013"><a xlink:title=" ">
<path fill="none" stroke="#63b8ff" d="M1973.56,-571.58C1958.26,-580.23 1968.74,-589.5 2005,-589.5 2030.49,-589.5 2043.24,-584.92 2043.25,-579.19"/>
<polygon fill="#63b8ff" stroke="#63b8ff" points="2045.72,-576.7 2036.44,-571.58 2040.5,-581.37 2045.72,-576.7"/>
</a>
</g>
</g>
<!-- Node14 -->
<g id="Node000014" class="node">
<title>Node14</title>
<g id="a_Node000014"><a xlink:href="classwmtk_1_1_tuple.html#aef64a43ff5f5617dbc99d865356bbc25" target="_top" xlink:title=" ">
<polygon fill="white" stroke="#666666" points="2276,-533.5 2145,-533.5 2145,-514.5 2276,-514.5 2276,-533.5"/>
<text text-anchor="middle" x="2210.5" y="-521.5" font-family="Helvetica,sans-Serif" font-size="10.00">wmtk::Tuple::global_cid</text>
</a>
</g>
</g>
<!-- Node13&#45;&gt;Node14 -->
<g id="edge14_Node000013_Node000014" class="edge">
<title>Node13&#45;&gt;Node14</title>
<g id="a_edge14_Node000013_Node000014"><a xlink:title=" ">
<path fill="none" stroke="#63b8ff" d="M2057.09,-552.46C2084.79,-547.29 2119.21,-540.86 2148.33,-535.42"/>
<polygon fill="#63b8ff" stroke="#63b8ff" points="2149.2,-538.82 2158.39,-533.54 2147.92,-531.94 2149.2,-538.82"/>
</a>
</g>
</g>
<!-- Node16 -->
<g id="Node000016" class="node">
<title>Node16</title>
<g id="a_Node000016"><a xlink:href="namespacewmtk.html#a3daa7951a5f8b78cf4600dc047fcc180" target="_top" xlink:title="Setup a logger object to be used by WildmeshToolkit.">
<polygon fill="white" stroke="#666666" points="2413,-343.5 2312,-343.5 2312,-324.5 2413,-324.5 2413,-343.5"/>
<text text-anchor="middle" x="2362.5" y="-331.5" font-family="Helvetica,sans-Serif" font-size="10.00">wmtk::set_logger</text>
</a>
</g>
</g>
<!-- Node15&#45;&gt;Node16 -->
<g id="edge17_Node000015_Node000016" class="edge">
<title>Node15&#45;&gt;Node16</title>
<g id="a_edge17_Node000015_Node000016"><a xlink:title=" ">
<path fill="none" stroke="#63b8ff" d="M2251.3,-334C2266.68,-334 2284.62,-334 2301.5,-334"/>
<polygon fill="#63b8ff" stroke="#63b8ff" points="2301.84,-337.5 2311.84,-334 2301.84,-330.5 2301.84,-337.5"/>
</a>
</g>
</g>
<!-- Node18 -->
<g id="Node000018" class="node">
<title>Node18</title>
<g id="a_Node000018"><a xlink:href="classwmtk_1_1multimesh_1_1_multi_mesh_manager.html#ac385f8fb3dd7d7ac3c0ce66f35fa46bf" target="_top" xlink:title="maps a simplex from this mesh to the root mesh">
<polygon fill="white" stroke="#666666" points="761,-410 601,-410 601,-380 761,-380 761,-410"/>
<text text-anchor="start" x="609" y="-398" font-family="Helvetica,sans-Serif" font-size="10.00">wmtk::multimesh::MultiMesh</text>
<text text-anchor="middle" x="681" y="-387" font-family="Helvetica,sans-Serif" font-size="10.00">Manager::map_to_root</text>
</a>
</g>
</g>
<!-- Node17&#45;&gt;Node18 -->
<g id="edge19_Node000017_Node000018" class="edge">
<title>Node17&#45;&gt;Node18</title>
<g id="a_edge19_Node000017_Node000018"><a xlink:title=" ">
<path fill="none" stroke="#63b8ff" d="M552.6,-399.49C564.98,-399.06 577.99,-398.6 590.78,-398.15"/>
<polygon fill="#63b8ff" stroke="#63b8ff" points="591.1,-401.64 600.97,-397.79 590.86,-394.64 591.1,-401.64"/>
</a>
</g>
</g>
<!-- Node19 -->
<g id="Node000019" class="node">
<title>Node19</title>
<g id="a_Node000019"><a xlink:href="classwmtk_1_1multimesh_1_1_multi_mesh_manager.html#a04ea5ec1326046461d38b0dd74ded250" target="_top" xlink:title="maps a simplex from this mesh to the root mesh">
<polygon fill="white" stroke="#666666" points="957,-412 797,-412 797,-382 957,-382 957,-412"/>
<text text-anchor="start" x="805" y="-400" font-family="Helvetica,sans-Serif" font-size="10.00">wmtk::multimesh::MultiMesh</text>
<text text-anchor="middle" x="877" y="-389" font-family="Helvetica,sans-Serif" font-size="10.00">Manager::map_to_root_tuple</text>
</a>
</g>
</g>
<!-- Node18&#45;&gt;Node19 -->
<g id="edge20_Node000018_Node000019" class="edge">
<title>Node18&#45;&gt;Node19</title>
<g id="a_edge20_Node000018_Node000019"><a xlink:title=" ">
<path fill="none" stroke="#63b8ff" d="M761.19,-395.82C769.53,-395.9 778.05,-395.99 786.5,-396.08"/>
<polygon fill="#63b8ff" stroke="#63b8ff" points="786.72,-399.58 796.75,-396.18 786.79,-392.58 786.72,-399.58"/>
</a>
</g>
</g>
<!-- Node18&#45;&gt;Node34 -->
<g id="edge50_Node000018_Node000034" class="edge">
<title>Node18&#45;&gt;Node34</title>
<g id="a_edge50_Node000018_Node000034"><a xlink:title=" ">
<path fill="none" stroke="#63b8ff" d="M691.77,-379.81C732.16,-319.09 893.04,-97 1085.5,-97 1085.5,-97 1085.5,-97 1556,-97 1686.83,-97 1838.3,-79.87 1927.36,-68.03"/>
<polygon fill="#63b8ff" stroke="#63b8ff" points="1927.93,-71.48 1937.37,-66.68 1927,-64.54 1927.93,-71.48"/>
</a>
</g>
</g>
<!-- Node19&#45;&gt;Node9 -->
<g id="edge21_Node000019_Node000009" class="edge">
<title>Node19&#45;&gt;Node9</title>
<g id="a_edge21_Node000019_Node000009"><a xlink:title=" ">
<path fill="none" stroke="#63b8ff" d="M957.04,-403.86C969.78,-404.96 983.05,-406.11 996.02,-407.24"/>
<polygon fill="#63b8ff" stroke="#63b8ff" points="996.07,-410.76 1006.34,-408.13 996.68,-403.78 996.07,-410.76"/>
</a>
</g>
</g>
<!-- Node20 -->
<g id="Node000020" class="node">
<title>Node20</title>
<g id="a_Node000020"><a xlink:href="classwmtk_1_1multimesh_1_1_multi_mesh_manager.html#abbd5b4aab00a9ebb113bc6fe5bb635bd" target="_top" xlink:title=" ">
<polygon fill="white" stroke="#666666" points="1180,-364 993,-364 993,-334 1180,-334 1180,-364"/>
<text text-anchor="start" x="1001" y="-352" font-family="Helvetica,sans-Serif" font-size="10.00">wmtk::multimesh::MultiMesh</text>
<text text-anchor="middle" x="1086.5" y="-341" font-family="Helvetica,sans-Serif" font-size="10.00">Manager::map_tuple_to_root_tuple</text>
</a>
</g>
</g>
<!-- Node19&#45;&gt;Node20 -->
<g id="edge22_Node000019_Node000020" class="edge">
<title>Node19&#45;&gt;Node20</title>
<g id="a_edge22_Node000019_Node000020"><a xlink:title=" ">
<path fill="none" stroke="#63b8ff" d="M943.08,-381.94C964.52,-376.99 988.53,-371.43 1010.64,-366.32"/>
<polygon fill="#63b8ff" stroke="#63b8ff" points="1011.69,-369.67 1020.65,-364 1010.11,-362.85 1011.69,-369.67"/>
</a>
</g>
</g>
<!-- Node19&#45;&gt;Node39 -->
<g id="edge49_Node000019_Node000039" class="edge">
<title>Node19&#45;&gt;Node39</title>
<g id="a_edge49_Node000019_Node000039"><a xlink:title=" ">
<path fill="none" stroke="#63b8ff" d="M902.81,-412.05C925.59,-425.36 960.63,-444.54 993,-457 998.46,-459.1 1004.16,-461.08 1009.95,-462.92"/>
<polygon fill="#63b8ff" stroke="#63b8ff" points="1009.14,-466.34 1019.72,-465.91 1011.18,-459.64 1009.14,-466.34"/>
</a>
</g>
</g>
<!-- Node20&#45;&gt;Node10 -->
<g id="edge23_Node000020_Node000010" class="edge">
<title>Node20&#45;&gt;Node10</title>
<g id="a_edge23_Node000020_Node000010"><a xlink:title=" ">
<path fill="none" stroke="#63b8ff" d="M1180.22,-352.58C1262.78,-355.76 1382.79,-360.39 1464.39,-363.54"/>
<polygon fill="#63b8ff" stroke="#63b8ff" points="1464.52,-367.05 1474.65,-363.94 1464.79,-360.06 1464.52,-367.05"/>
</a>
</g>
</g>
<!-- Node20&#45;&gt;Node11 -->
<g id="edge24_Node000020_Node000011" class="edge">
<title>Node20&#45;&gt;Node11</title>
<g id="a_edge24_Node000020_Node000011"><a xlink:title=" ">
<path fill="none" stroke="#63b8ff" d="M1147.06,-364.07C1282,-398.22 1608.85,-480.94 1731.47,-511.97"/>
<polygon fill="#63b8ff" stroke="#63b8ff" points="1730.77,-515.4 1741.32,-514.46 1732.48,-508.62 1730.77,-515.4"/>
</a>
</g>
</g>
<!-- Node20&#45;&gt;Node20 -->
<g id="edge48_Node000020_Node000020" class="edge">
<title>Node20&#45;&gt;Node20</title>
<g id="a_edge48_Node000020_Node000020"><a xlink:title=" ">
<path fill="none" stroke="#63b8ff" d="M1049.94,-364.28C1041.81,-373.41 1054,-382 1086.5,-382 1105.8,-382 1117.93,-378.97 1122.91,-374.6"/>
<polygon fill="#63b8ff" stroke="#63b8ff" points="1126.41,-374.33 1123.06,-364.28 1119.41,-374.22 1126.41,-374.33"/>
</a>
</g>
</g>
<!-- Node21 -->
<g id="Node000021" class="node">
<title>Node21</title>
<g id="a_Node000021"><a xlink:href="classwmtk_1_1multimesh_1_1_multi_mesh_manager.html#af6fd8d8b5cc1e8b2c877718b99374f03" target="_top" xlink:title=" ">
<polygon fill="white" stroke="#666666" points="1415,-335 1216,-335 1216,-305 1415,-305 1415,-335"/>
<text text-anchor="start" x="1224" y="-323" font-family="Helvetica,sans-Serif" font-size="10.00">wmtk::multimesh::MultiMesh</text>
<text text-anchor="middle" x="1315.5" y="-312" font-family="Helvetica,sans-Serif" font-size="10.00">Manager::map_tuple_to_parent_tuple</text>
</a>
</g>
</g>
<!-- Node20&#45;&gt;Node21 -->
<g id="edge25_Node000020_Node000021" class="edge">
<title>Node20&#45;&gt;Node21</title>
<g id="a_edge25_Node000020_Node000021"><a xlink:title=" ">
<path fill="none" stroke="#63b8ff" d="M1180.16,-337.16C1188.62,-336.08 1197.23,-334.98 1205.82,-333.88"/>
<polygon fill="#63b8ff" stroke="#63b8ff" points="1206.39,-337.34 1215.86,-332.6 1205.5,-330.4 1206.39,-337.34"/>
</a>
</g>
</g>
<!-- Node21&#45;&gt;Node10 -->
<g id="edge27_Node000021_Node000010" class="edge">
<title>Node21&#45;&gt;Node10</title>
<g id="a_edge27_Node000021_Node000010"><a xlink:title=" ">
<path fill="none" stroke="#63b8ff" d="M1392.3,-335C1416.4,-339.77 1443.23,-345.08 1468,-349.98"/>
<polygon fill="#63b8ff" stroke="#63b8ff" points="1467.62,-353.47 1478.11,-351.98 1468.98,-346.61 1467.62,-353.47"/>
</a>
</g>
</g>
<!-- Node22 -->
<g id="Node000022" class="node">
<title>Node22</title>
<g id="a_Node000022"><a xlink:href="classwmtk_1_1_mesh.html#a4cd7e6ca59d8d58cc7057c13bd190d57" target="_top" xlink:title=" ">
<polygon fill="white" stroke="#666666" points="1611.5,-286 1498.5,-286 1498.5,-256 1611.5,-256 1611.5,-286"/>
<text text-anchor="start" x="1506.5" y="-274" font-family="Helvetica,sans-Serif" font-size="10.00">wmtk::Mesh::create</text>
<text text-anchor="middle" x="1555" y="-263" font-family="Helvetica,sans-Serif" font-size="10.00">_const_accessor</text>
</a>
</g>
</g>
<!-- Node21&#45;&gt;Node22 -->
<g id="edge26_Node000021_Node000022" class="edge">
<title>Node21&#45;&gt;Node22</title>
<g id="a_edge26_Node000021_Node000022"><a xlink:title=" ">
<path fill="none" stroke="#63b8ff" d="M1389.37,-304.97C1420.86,-298.47 1457.42,-290.92 1488.09,-284.6"/>
<polygon fill="#63b8ff" stroke="#63b8ff" points="1489.16,-287.95 1498.25,-282.5 1487.74,-281.1 1489.16,-287.95"/>
</a>
</g>
</g>
<!-- Node23 -->
<g id="Node000023" class="node">
<title>Node23</title>
<g id="a_Node000023"><a xlink:href="classwmtk_1_1multimesh_1_1_multi_mesh_manager.html#a6f9186ced3e97aef2a0af71a3aa5c6a0" target="_top" xlink:title=" ">
<polygon fill="white" stroke="#666666" points="1659,-334 1451,-334 1451,-304 1659,-304 1659,-334"/>
<text text-anchor="start" x="1459" y="-322" font-family="Helvetica,sans-Serif" font-size="10.00">wmtk::multimesh::MultiMesh</text>
<text text-anchor="middle" x="1555" y="-311" font-family="Helvetica,sans-Serif" font-size="10.00">Manager::map_tuple_between_meshes</text>
</a>
</g>
</g>
<!-- Node21&#45;&gt;Node23 -->
<g id="edge28_Node000021_Node000023" class="edge">
<title>Node21&#45;&gt;Node23</title>
<g id="a_edge28_Node000021_Node000023"><a xlink:title=" ">
<path fill="none" stroke="#63b8ff" d="M1415.16,-319.58C1423.49,-319.55 1431.97,-319.51 1440.4,-319.48"/>
<polygon fill="#63b8ff" stroke="#63b8ff" points="1440.68,-322.98 1450.67,-319.44 1440.65,-315.98 1440.68,-322.98"/>
</a>
</g>
</g>
<!-- Node23&#45;&gt;Node11 -->
<g id="edge30_Node000023_Node000011" class="edge">
<title>Node23&#45;&gt;Node11</title>
<g id="a_edge30_Node000023_Node000011"><a xlink:title=" ">
<path fill="none" stroke="#63b8ff" d="M1647.87,-334.12C1651.88,-336.68 1655.63,-339.62 1659,-343 1709.53,-393.71 1645.74,-448.06 1695,-500 1699.45,-504.69 1704.75,-508.49 1710.5,-511.56"/>
<polygon fill="#63b8ff" stroke="#63b8ff" points="1709.27,-514.85 1719.83,-515.8 1712.17,-508.47 1709.27,-514.85"/>
</a>
</g>
</g>
<!-- Node23&#45;&gt;Node14 -->
<g id="edge29_Node000023_Node000014" class="edge">
<title>Node23&#45;&gt;Node14</title>
<g id="a_edge29_Node000023_Node000014"><a xlink:title=" ">
<path fill="none" stroke="#63b8ff" d="M1647.06,-334.18C1651.34,-336.72 1655.36,-339.64 1659,-343 1697.72,-378.76 1654.58,-422.17 1695,-456 1728.08,-483.69 1999.6,-508 2134.3,-518.5"/>
<polygon fill="#63b8ff" stroke="#63b8ff" points="2134.3,-522.01 2144.54,-519.29 2134.84,-515.03 2134.3,-522.01"/>
</a>
</g>
</g>
<!-- Node24 -->
<g id="Node000024" class="node">
<title>Node24</title>
<g id="a_Node000024"><a xlink:href="classwmtk_1_1_tuple.html#ab5fa210c660a9d678768c15d7c4f78f0" target="_top" xlink:title=" ">
<polygon fill="white" stroke="#666666" points="1841,-285.5 1719,-285.5 1719,-266.5 1841,-266.5 1841,-285.5"/>
<text text-anchor="middle" x="1780" y="-273.5" font-family="Helvetica,sans-Serif" font-size="10.00">wmtk::Tuple::local_fid</text>
</a>
</g>
</g>
<!-- Node23&#45;&gt;Node24 -->
<g id="edge31_Node000023_Node000024" class="edge">
<title>Node23&#45;&gt;Node24</title>
<g id="a_edge31_Node000023_Node000024"><a xlink:title=" ">
<path fill="none" stroke="#63b8ff" d="M1633.99,-303.96C1662.05,-298.55 1693.22,-292.54 1719.45,-287.48"/>
<polygon fill="#63b8ff" stroke="#63b8ff" points="1720.46,-290.85 1729.62,-285.52 1719.14,-283.98 1720.46,-290.85"/>
</a>
</g>
</g>
<!-- Node25 -->
<g id="Node000025" class="node">
<title>Node25</title>
<g id="a_Node000025"><a xlink:href="namespacewmtk_1_1multimesh_1_1utils.html#a7d748ef4839b09a5460e8af97b9fa678" target="_top" xlink:title=" ">
<polygon fill="white" stroke="#666666" points="1854.5,-334 1705.5,-334 1705.5,-304 1854.5,-304 1854.5,-334"/>
<text text-anchor="start" x="1713.5" y="-322" font-family="Helvetica,sans-Serif" font-size="10.00">wmtk::multimesh::utils</text>
<text text-anchor="middle" x="1780" y="-311" font-family="Helvetica,sans-Serif" font-size="10.00">::read_tuple_map_attribute</text>
</a>
</g>
</g>
<!-- Node23&#45;&gt;Node25 -->
<g id="edge32_Node000023_Node000025" class="edge">
<title>Node23&#45;&gt;Node25</title>
<g id="a_edge32_Node000023_Node000025"><a xlink:title=" ">
<path fill="none" stroke="#63b8ff" d="M1659.01,-319C1671.11,-319 1683.33,-319 1695.12,-319"/>
<polygon fill="#63b8ff" stroke="#63b8ff" points="1695.35,-322.5 1705.35,-319 1695.35,-315.5 1695.35,-322.5"/>
</a>
</g>
</g>
<!-- Node30 -->
<g id="Node000030" class="node">
<title>Node30</title>
<g id="a_Node000030"><a xlink:href="classwmtk_1_1_mesh.html#a965a8a24158c4aa8580c57ba09f885f7" target="_top" xlink:title="switch the orientation of the Tuple of the given dimension">
<polygon fill="white" stroke="#666666" points="1837,-248 1723,-248 1723,-218 1837,-218 1837,-248"/>
<text text-anchor="start" x="1731" y="-236" font-family="Helvetica,sans-Serif" font-size="10.00">wmtk::Mesh::switch</text>
<text text-anchor="middle" x="1780" y="-225" font-family="Helvetica,sans-Serif" font-size="10.00">_tuple</text>
</a>
</g>
</g>
<!-- Node23&#45;&gt;Node30 -->
<g id="edge37_Node000023_Node000030" class="edge">
<title>Node23&#45;&gt;Node30</title>
<g id="a_edge37_Node000023_Node000030"><a xlink:title=" ">
<path fill="none" stroke="#63b8ff" d="M1639.7,-303.98C1646.42,-301.44 1652.95,-298.47 1659,-295 1679.18,-283.43 1675.11,-269.07 1695,-257 1700.53,-253.64 1706.55,-250.74 1712.74,-248.23"/>
<polygon fill="#63b8ff" stroke="#63b8ff" points="1714.4,-251.35 1722.57,-244.6 1711.98,-244.78 1714.4,-251.35"/>
</a>
</g>
</g>
<!-- Node31 -->
<g id="Node000031" class="node">
<title>Node31</title>
<g id="a_Node000031"><a xlink:href="namespacewmtk_1_1simplex.html#a0101f27eb2ad82814390b92ab1a4d1a0" target="_top" xlink:title=" ">
<polygon fill="white" stroke="#666666" points="1855.5,-156 1704.5,-156 1704.5,-126 1855.5,-126 1855.5,-156"/>
<text text-anchor="start" x="1712.5" y="-144" font-family="Helvetica,sans-Serif" font-size="10.00">wmtk::simplex::top</text>
<text text-anchor="middle" x="1780" y="-133" font-family="Helvetica,sans-Serif" font-size="10.00">_dimension_cofaces_tuples</text>
</a>
</g>
</g>
<!-- Node23&#45;&gt;Node31 -->
<g id="edge38_Node000023_Node000031" class="edge">
<title>Node23&#45;&gt;Node31</title>
<g id="a_edge38_Node000023_Node000031"><a xlink:title=" ">
<path fill="none" stroke="#63b8ff" d="M1645.74,-303.96C1650.47,-301.4 1654.93,-298.44 1659,-295 1690.65,-268.25 1670.14,-242.15 1695,-209 1708.8,-190.59 1728.66,-174.22 1745.6,-162.15"/>
<polygon fill="#63b8ff" stroke="#63b8ff" points="1747.9,-164.81 1754.14,-156.25 1743.92,-159.05 1747.9,-164.81"/>
</a>
</g>
</g>
<!-- Node35 -->
<g id="Node000035" class="node">
<title>Node35</title>
<g id="a_Node000035"><a xlink:href="classwmtk_1_1_mesh.html#abaf00438d0700358b160e310d69725c9" target="_top" xlink:title=" ">
<polygon fill="white" stroke="#666666" points="1865,-447.5 1695,-447.5 1695,-428.5 1865,-428.5 1865,-447.5"/>
<text text-anchor="middle" x="1780" y="-435.5" font-family="Helvetica,sans-Serif" font-size="10.00">wmtk::Mesh::top_simplex_type</text>
</a>
</g>
</g>
<!-- Node23&#45;&gt;Node35 -->
<g id="edge43_Node000023_Node000035" class="edge">
<title>Node23&#45;&gt;Node35</title>
<g id="a_edge43_Node000023_Node000035"><a xlink:title=" ">
<path fill="none" stroke="#63b8ff" d="M1644.93,-334.17C1649.92,-336.69 1654.66,-339.61 1659,-343 1686.59,-364.51 1668.07,-390.66 1695,-413 1700.64,-417.68 1707.12,-421.48 1713.94,-424.57"/>
<polygon fill="#63b8ff" stroke="#63b8ff" points="1712.8,-427.88 1723.39,-428.36 1715.41,-421.39 1712.8,-427.88"/>
</a>
</g>
</g>
<!-- Node37 -->
<g id="Node000037" class="node">
<title>Node37</title>
<g id="a_Node000037"><a xlink:href="namespacewmtk_1_1multimesh_1_1utils.html#aa0392bf28bb6c304127cf0eea634fee8" target="_top" xlink:title=" ">
<polygon fill="white" stroke="#666666" points="1845,-404 1715,-404 1715,-374 1845,-374 1845,-404"/>
<text text-anchor="start" x="1723" y="-392" font-family="Helvetica,sans-Serif" font-size="10.00">wmtk::multimesh::utils</text>
<text text-anchor="middle" x="1780" y="-381" font-family="Helvetica,sans-Serif" font-size="10.00">::transport_tuple</text>
</a>
</g>
</g>
<!-- Node23&#45;&gt;Node37 -->
<g id="edge45_Node000023_Node000037" class="edge">
<title>Node23&#45;&gt;Node37</title>
<g id="a_edge45_Node000023_Node000037"><a xlink:title=" ">
<path fill="none" stroke="#63b8ff" d="M1626.43,-334.05C1637.4,-336.79 1648.56,-339.8 1659,-343 1684.18,-350.72 1711.65,-361.1 1733.95,-370.05"/>
<polygon fill="#63b8ff" stroke="#63b8ff" points="1732.9,-373.4 1743.48,-373.91 1735.53,-366.91 1732.9,-373.4"/>
</a>
</g>
</g>
<!-- Node26 -->
<g id="Node000026" class="node">
<title>Node26</title>
<g id="a_Node000026"><a xlink:href="classwmtk_1_1attribute_1_1_accessor.html#abecebb154568864219abda80a1beb803" target="_top" xlink:title="Constant access function for a vector attribute.">
<polygon fill="white" stroke="#666666" points="2076,-206 1934,-206 1934,-176 2076,-176 2076,-206"/>
<text text-anchor="start" x="1942" y="-194" font-family="Helvetica,sans-Serif" font-size="10.00">wmtk::attribute::Accessor</text>
<text text-anchor="middle" x="2005" y="-183" font-family="Helvetica,sans-Serif" font-size="10.00">::const_vector_attribute</text>
</a>
</g>
</g>
<!-- Node25&#45;&gt;Node26 -->
<g id="edge33_Node000025_Node000026" class="edge">
<title>Node25&#45;&gt;Node26</title>
<g id="a_edge33_Node000025_Node000026"><a xlink:title=" ">
<path fill="none" stroke="#63b8ff" d="M1850.1,-303.96C1855.46,-301.19 1860.52,-297.9 1865,-294 1894.1,-268.67 1871.15,-239.44 1901,-215 1907.86,-209.38 1915.81,-205.03 1924.17,-201.66"/>
<polygon fill="#63b8ff" stroke="#63b8ff" points="1925.51,-204.9 1933.77,-198.27 1923.18,-198.3 1925.51,-204.9"/>
</a>
</g>
</g>
<!-- Node27 -->
<g id="Node000027" class="node">
<title>Node27</title>
<g id="a_Node000027"><a xlink:href="classwmtk_1_1attribute_1_1_tuple_accessor.html#adf0b07ce3ed74d51723e2beed2d3f25e" target="_top" xlink:title=" ">
<polygon fill="white" stroke="#666666" points="2088.5,-350 1921.5,-350 1921.5,-320 2088.5,-320 2088.5,-350"/>
<text text-anchor="start" x="1929.5" y="-338" font-family="Helvetica,sans-Serif" font-size="10.00">wmtk::attribute::TupleAccessor</text>
<text text-anchor="middle" x="2005" y="-327" font-family="Helvetica,sans-Serif" font-size="10.00">::const_vector_attribute</text>
</a>
</g>
</g>
<!-- Node25&#45;&gt;Node27 -->
<g id="edge34_Node000025_Node000027" class="edge">
<title>Node25&#45;&gt;Node27</title>
<g id="a_edge34_Node000025_Node000027"><a xlink:title=" ">
<path fill="none" stroke="#63b8ff" d="M1854.64,-324.28C1872.7,-325.58 1892.27,-326.98 1911.12,-328.34"/>
<polygon fill="#63b8ff" stroke="#63b8ff" points="1910.97,-331.83 1921.19,-329.06 1911.47,-324.85 1910.97,-331.83"/>
</a>
</g>
</g>
<!-- Node28 -->
<g id="Node000028" class="node">
<title>Node28</title>
<g id="a_Node000028"><a xlink:href="classwmtk_1_1attribute_1_1_tuple_accessor.html#a8d04c3529eb7adeead49e8faa7a119db" target="_top" xlink:title=" ">
<polygon fill="white" stroke="#666666" points="2088.5,-302 1921.5,-302 1921.5,-272 2088.5,-272 2088.5,-302"/>
<text text-anchor="start" x="1929.5" y="-290" font-family="Helvetica,sans-Serif" font-size="10.00">wmtk::attribute::TupleAccessor</text>
<text text-anchor="middle" x="2005" y="-279" font-family="Helvetica,sans-Serif" font-size="10.00">::dimension</text>
</a>
</g>
</g>
<!-- Node25&#45;&gt;Node28 -->
<g id="edge35_Node000025_Node000028" class="edge">
<title>Node25&#45;&gt;Node28</title>
<g id="a_edge35_Node000025_Node000028"><a xlink:title=" ">
<path fill="none" stroke="#63b8ff" d="M1854.64,-308.43C1872.7,-305.84 1892.27,-303.03 1911.12,-300.33"/>
<polygon fill="#63b8ff" stroke="#63b8ff" points="1911.79,-303.77 1921.19,-298.88 1910.8,-296.84 1911.79,-303.77"/>
</a>
</g>
</g>
<!-- Node29 -->
<g id="Node000029" class="node">
<title>Node29</title>
<g id="a_Node000029"><a xlink:href="classwmtk_1_1attribute_1_1_accessor.html#ad1c53d7c161d4f046bedc27006a0256f" target="_top" xlink:title=" ">
<polygon fill="white" stroke="#666666" points="2076,-254 1934,-254 1934,-224 2076,-224 2076,-254"/>
<text text-anchor="start" x="1942" y="-242" font-family="Helvetica,sans-Serif" font-size="10.00">wmtk::attribute::Accessor</text>
<text text-anchor="middle" x="2005" y="-231" font-family="Helvetica,sans-Serif" font-size="10.00">::dimension</text>
</a>
</g>
</g>
<!-- Node25&#45;&gt;Node29 -->
<g id="edge36_Node000025_Node000029" class="edge">
<title>Node25&#45;&gt;Node29</title>
<g id="a_edge36_Node000025_Node000029"><a xlink:title=" ">
<path fill="none" stroke="#63b8ff" d="M1842.78,-303.9C1850.47,-301.08 1858.06,-297.79 1865,-294 1883.53,-283.88 1882.17,-272.56 1901,-263 1908.27,-259.31 1916.13,-256.17 1924.14,-253.51"/>
<polygon fill="#63b8ff" stroke="#63b8ff" points="1925.42,-256.78 1933.96,-250.5 1923.37,-250.09 1925.42,-256.78"/>
</a>
</g>
</g>
<!-- Node32 -->
<g id="Node000032" class="node">
<title>Node32</title>
<g id="a_Node000032"><a xlink:href="classwmtk_1_1simplex_1_1_simplex_collection.html#a1e7079b3b75f70dd28c524556cab76cf" target="_top" xlink:title="Add simplex to the collection.">
<polygon fill="white" stroke="#666666" points="2109,-109.5 1901,-109.5 1901,-90.5 2109,-90.5 2109,-109.5"/>
<text text-anchor="middle" x="2005" y="-97.5" font-family="Helvetica,sans-Serif" font-size="10.00">wmtk::simplex::SimplexCollection::add</text>
</a>
</g>
</g>
<!-- Node31&#45;&gt;Node32 -->
<g id="edge39_Node000031_Node000032" class="edge">
<title>Node31&#45;&gt;Node32</title>
<g id="a_edge39_Node000031_Node000032"><a xlink:title=" ">
<path fill="none" stroke="#63b8ff" d="M1855.57,-127.29C1883.63,-122.13 1915.22,-116.32 1942.02,-111.4"/>
<polygon fill="#63b8ff" stroke="#63b8ff" points="1942.84,-114.8 1952.04,-109.55 1941.57,-107.92 1942.84,-114.8"/>
</a>
</g>
</g>
<!-- Node33 -->
<g id="Node000033" class="node">
<title>Node33</title>
<g id="a_Node000033"><a xlink:href="namespacewmtk.html#a441d6ad4f19569c7d4946e743da1a925" target="_top" xlink:title=" ">
<polygon fill="white" stroke="#666666" points="2066,-158 1944,-158 1944,-128 2066,-128 2066,-158"/>
<text text-anchor="start" x="1952" y="-146" font-family="Helvetica,sans-Serif" font-size="10.00">wmtk::log_and_throw</text>
<text text-anchor="middle" x="2005" y="-135" font-family="Helvetica,sans-Serif" font-size="10.00">_error</text>
</a>
</g>
</g>
<!-- Node31&#45;&gt;Node33 -->
<g id="edge40_Node000031_Node000033" class="edge">
<title>Node31&#45;&gt;Node33</title>
<g id="a_edge40_Node000031_Node000033"><a xlink:title=" ">
<path fill="none" stroke="#63b8ff" d="M1855.57,-141.67C1880.83,-141.9 1908.94,-142.15 1933.85,-142.37"/>
<polygon fill="#63b8ff" stroke="#63b8ff" points="1933.91,-145.87 1943.94,-142.46 1933.97,-138.87 1933.91,-145.87"/>
</a>
</g>
</g>
<!-- Node31&#45;&gt;Node34 -->
<g id="edge42_Node000031_Node000034" class="edge">
<title>Node31&#45;&gt;Node34</title>
<g id="a_edge42_Node000031_Node000034"><a xlink:title=" ">
<path fill="none" stroke="#63b8ff" d="M1832.47,-125.85C1843.53,-121.72 1854.91,-116.76 1865,-111 1883.09,-100.67 1882.35,-90.28 1901,-81 1909.36,-76.84 1918.46,-73.39 1927.67,-70.52"/>
<polygon fill="#63b8ff" stroke="#63b8ff" points="1928.66,-73.88 1937.3,-67.75 1926.72,-67.16 1928.66,-73.88"/>
</a>
</g>
</g>
<!-- Node33&#45;&gt;Node15 -->
<g id="edge41_Node000033_Node000015" class="edge">
<title>Node33&#45;&gt;Node15</title>
<g id="a_edge41_Node000033_Node000015"><a xlink:title=" ">
<path fill="none" stroke="#63b8ff" d="M2066.12,-148.66C2081.15,-152.22 2096.53,-157.93 2109,-167 2161.32,-205.07 2191.55,-279.44 2203.5,-314.64"/>
<polygon fill="#63b8ff" stroke="#63b8ff" points="2200.2,-315.81 2206.63,-324.23 2206.85,-313.64 2200.2,-315.81"/>
</a>
</g>
</g>
<!-- Node36 -->
<g id="Node000036" class="node">
<title>Node36</title>
<g id="a_Node000036"><a xlink:href="classwmtk_1_1_mesh.html#a933f681cf24a63b155c9462280385200" target="_top" xlink:title=" ">
<polygon fill="white" stroke="#666666" points="2065.5,-458 1944.5,-458 1944.5,-428 2065.5,-428 2065.5,-458"/>
<text text-anchor="start" x="1952.5" y="-446" font-family="Helvetica,sans-Serif" font-size="10.00">wmtk::Mesh::top_cell</text>
<text text-anchor="middle" x="2005" y="-435" font-family="Helvetica,sans-Serif" font-size="10.00">_dimension</text>
</a>
</g>
</g>
<!-- Node35&#45;&gt;Node36 -->
<g id="edge44_Node000035_Node000036" class="edge">
<title>Node35&#45;&gt;Node36</title>
<g id="a_edge44_Node000035_Node000036"><a xlink:title=" ">
<path fill="none" stroke="#63b8ff" d="M1865.31,-439.89C1887.99,-440.4 1912.26,-440.94 1934.07,-441.43"/>
<polygon fill="#63b8ff" stroke="#63b8ff" points="1934.15,-444.93 1944.22,-441.66 1934.31,-437.94 1934.15,-444.93"/>
</a>
</g>
</g>
<!-- Node38 -->
<g id="Node000038" class="node">
<title>Node38</title>
<g id="a_Node000038"><a xlink:href="namespacewmtk_1_1multimesh_1_1utils_1_1internal.html#a11885fe5aebd05551827804b0142945d" target="_top" xlink:title=" ">
<polygon fill="white" stroke="#666666" points="2070,-409.5 1940,-409.5 1940,-368.5 2070,-368.5 2070,-409.5"/>
<text text-anchor="start" x="1948" y="-397.5" font-family="Helvetica,sans-Serif" font-size="10.00">wmtk::multimesh::utils</text>
<text text-anchor="start" x="1948" y="-386.5" font-family="Helvetica,sans-Serif" font-size="10.00">::internal::transport</text>
<text text-anchor="middle" x="2005" y="-375.5" font-family="Helvetica,sans-Serif" font-size="10.00">_tuple_dart</text>
</a>
</g>
</g>
<!-- Node37&#45;&gt;Node38 -->
<g id="edge46_Node000037_Node000038" class="edge">
<title>Node37&#45;&gt;Node38</title>
<g id="a_edge46_Node000037_Node000038"><a xlink:title=" ">
<path fill="none" stroke="#63b8ff" d="M1845.2,-382.82C1871.56,-382.15 1902.24,-382.07 1929.57,-382.59"/>
<polygon fill="#63b8ff" stroke="#63b8ff" points="1929.79,-386.1 1939.87,-382.82 1929.95,-379.1 1929.79,-386.1"/>
</a>
</g>
</g>
<!-- Node38&#45;&gt;Node37 -->
<g id="edge47_Node000038_Node000037" class="edge">
<title>Node38&#45;&gt;Node37</title>
<g id="a_edge47_Node000038_Node000037"><a xlink:title=" ">
<path fill="none" stroke="#63b8ff" d="M1939.87,-395.18C1913.52,-395.85 1882.83,-395.93 1855.5,-395.41"/>
<polygon fill="#63b8ff" stroke="#63b8ff" points="1855.28,-391.9 1845.2,-395.18 1855.12,-398.9 1855.28,-391.9"/>
</a>
</g>
</g>
</g>
</svg>
