<?xml version="1.0" encoding="UTF-8" standalone="no"?>
<!DOCTYPE svg PUBLIC "-//W3C//DTD SVG 1.1//EN"
 "http://www.w3.org/Graphics/SVG/1.1/DTD/svg11.dtd">
<!-- Generated by graphviz version 2.43.0 (0)
 -->
<!-- Title: wmtk::operations::composite::ProjectOperation::execute Pages: 1 -->
<!--zoomable 668 -->
<svg id="main" version="1.1" xmlns="http://www.w3.org/2000/svg" xmlns:xlink="http://www.w3.org/1999/xlink" xml:space="preserve" onload="init(evt)">
<style type="text/css"><![CDATA[
.edge:hover path { stroke: red; }
.edge:hover polygon { stroke: red; fill: red; }
]]></style>
<script type="text/javascript"><![CDATA[
var edges = document.getElementsByTagName('g');
if (edges && edges.length) {
  for (var i=0;i<edges.length;i++) {
    if (edges[i].id.substr(0,4)=='edge') {
      edges[i].setAttribute('class','edge');
    }
  }
}
]]></script>
        <defs>
                <circle id="rim" cx="0" cy="0" r="7"/>
                <circle id="rim2" cx="0" cy="0" r="3.5"/>
                <g id="zoomPlus">
                        <use xlink:href="#rim" fill="#404040">
                                <set attributeName="fill" to="#808080" begin="zoomplus.mouseover" end="zoomplus.mouseout"/>
                        </use>
                        <path d="M-4,0h8M0,-4v8" fill="none" stroke="white" stroke-width="1.5" pointer-events="none"/>
                </g>
                <g id="zoomMin">
                        <use xlink:href="#rim" fill="#404040">
                                <set attributeName="fill" to="#808080" begin="zoomminus.mouseover" end="zoomminus.mouseout"/>
                        </use>
                        <path d="M-4,0h8" fill="none" stroke="white" stroke-width="1.5" pointer-events="none"/>
                </g>
                <g id="dirArrow">
                        <path fill="none" stroke="white" stroke-width="1.5" d="M0,-3.0v7 M-2.5,-0.5L0,-3.0L2.5,-0.5"/>
                </g>
               <g id="resetDef">
                       <use xlink:href="#rim2" fill="#404040">
                               <set attributeName="fill" to="#808080" begin="reset.mouseover" end="reset.mouseout"/>
                       </use>
               </g>
        </defs>

<script type="text/javascript">
var viewWidth = 2257;
var viewHeight = 668;
var sectionId = 'dynsection-3';
</script>
<script xlink:href="svgpan.js"/>
<svg id="graph" class="graph">
<g id="viewport">
<title>wmtk::operations::composite::ProjectOperation::execute</title>
<!-- Node1 -->
<g id="node1" class="node">
<title>Node1</title>
<g id="a_node1"><a xlink:title="returns an empty vector in case of failure">
<polygon fill="#bfbfbf" stroke="black" points="0,-106.5 0,-136.5 159,-136.5 159,-106.5 0,-106.5"/>
<text text-anchor="start" x="8" y="-124.5" font-family="Helvetica,sans-Serif" font-size="10.00">wmtk::operations::composite</text>
<text text-anchor="middle" x="79.5" y="-113.5" font-family="Helvetica,sans-Serif" font-size="10.00">::ProjectOperation::execute</text>
</a>
</g>
</g>
<!-- Node2 -->
<g id="node2" class="node">
<title>Node2</title>
<g id="a_node2"><a xlink:href="classwmtk_1_1_mesh.html#a8a5ee2526671002bd91f2b7182b92af6" target="_top" xlink:title=" ">
<polygon fill="none" stroke="black" points="1933,-606.5 1933,-636.5 2046,-636.5 2046,-606.5 1933,-606.5"/>
<text text-anchor="start" x="1941" y="-624.5" font-family="Helvetica,sans-Serif" font-size="10.00">wmtk::Mesh::create</text>
<text text-anchor="middle" x="1989.5" y="-613.5" font-family="Helvetica,sans-Serif" font-size="10.00">_accessor</text>
</a>
</g>
</g>
<!-- Node1&#45;&gt;Node2 -->
<g id="edge1" class="edge">
<title>Node1&#45;&gt;Node2</title>
<path fill="none" stroke="midnightblue" d="M83.94,-136.73C104.72,-224.29 221.62,-659.5 492.5,-659.5 492.5,-659.5 492.5,-659.5 1658,-659.5 1750.43,-659.5 1856.46,-644.65 1922.96,-633.52"/>
<polygon fill="midnightblue" stroke="midnightblue" points="1923.6,-636.96 1932.88,-631.83 1922.43,-630.05 1923.6,-636.96"/>
</g>
<!-- Node6 -->
<g id="node6" class="node">
<title>Node6</title>
<g id="a_node6"><a xlink:href="classwmtk_1_1_mesh.html#a82637d24776e0e06e2124ce914c4b40f" target="_top" xlink:title="maps a simplex from this mesh to any other mesh">
<polygon fill="none" stroke="black" points="216,-134 216,-153 356,-153 356,-134 216,-134"/>
<text text-anchor="middle" x="286" y="-141" font-family="Helvetica,sans-Serif" font-size="10.00">wmtk::Mesh::map_tuples</text>
</a>
</g>
</g>
<!-- Node1&#45;&gt;Node6 -->
<g id="edge5" class="edge">
<title>Node1&#45;&gt;Node6</title>
<path fill="none" stroke="midnightblue" d="M159.27,-129.97C174.59,-131.62 190.66,-133.35 205.99,-135"/>
<polygon fill="midnightblue" stroke="midnightblue" points="205.62,-138.48 215.94,-136.07 206.37,-131.52 205.62,-138.48"/>
</g>
<!-- Node38 -->
<g id="node38" class="node">
<title>Node38</title>
<g id="a_node38"><a xlink:href="classwmtk_1_1operations_1_1_operation.html#a524a78a76bb262cffcaafdd36afa037b" target="_top" xlink:title=" ">
<polygon fill="none" stroke="black" points="208,-84.5 208,-114.5 364,-114.5 364,-84.5 208,-84.5"/>
<text text-anchor="start" x="216" y="-102.5" font-family="Helvetica,sans-Serif" font-size="10.00">wmtk::operations::Operation</text>
<text text-anchor="middle" x="286" y="-91.5" font-family="Helvetica,sans-Serif" font-size="10.00">::mesh</text>
</a>
</g>
</g>
<!-- Node1&#45;&gt;Node38 -->
<g id="edge52" class="edge">
<title>Node1&#45;&gt;Node38</title>
<path fill="none" stroke="midnightblue" d="M159.27,-113.03C171.88,-111.67 184.99,-110.26 197.78,-108.88"/>
<polygon fill="midnightblue" stroke="midnightblue" points="198.38,-112.34 207.95,-107.79 197.64,-105.38 198.38,-112.34"/>
</g>
<!-- Node39 -->
<g id="node39" class="node">
<title>Node39</title>
<g id="a_node39"><a xlink:href="classwmtk_1_1operations_1_1composite_1_1_project_operation.html#a8bd9a6589ef905f64a5a42f26a94fca7" target="_top" xlink:title=" ">
<polygon fill="none" stroke="black" points="195,-35.5 195,-65.5 377,-65.5 377,-35.5 195,-35.5"/>
<text text-anchor="start" x="203" y="-53.5" font-family="Helvetica,sans-Serif" font-size="10.00">wmtk::operations::composite</text>
<text text-anchor="middle" x="286" y="-42.5" font-family="Helvetica,sans-Serif" font-size="10.00">::ProjectOperation::primitive_type</text>
</a>
</g>
</g>
<!-- Node1&#45;&gt;Node39 -->
<g id="edge53" class="edge">
<title>Node1&#45;&gt;Node39</title>
<path fill="none" stroke="midnightblue" d="M114.13,-106.35C136.72,-96.51 167.31,-83.83 195,-74.5 201.28,-72.38 207.86,-70.33 214.47,-68.37"/>
<polygon fill="midnightblue" stroke="midnightblue" points="215.53,-71.71 224.17,-65.58 213.59,-64.98 215.53,-71.71"/>
</g>
<!-- Node3 -->
<g id="node3" class="node">
<title>Node3</title>
<g id="a_node3"><a xlink:href="classwmtk_1_1attribute_1_1_mesh_attribute_handle.html#ac326961f01b9ba4fec395827f15a7ef2" target="_top" xlink:title=" ">
<polygon fill="none" stroke="black" points="2082,-520.5 2082,-550.5 2249,-550.5 2249,-520.5 2082,-520.5"/>
<text text-anchor="start" x="2090" y="-538.5" font-family="Helvetica,sans-Serif" font-size="10.00">wmtk::attribute::MeshAttribute</text>
<text text-anchor="middle" x="2165.5" y="-527.5" font-family="Helvetica,sans-Serif" font-size="10.00">Handle::as</text>
</a>
</g>
</g>
<!-- Node2&#45;&gt;Node3 -->
<g id="edge2" class="edge">
<title>Node2&#45;&gt;Node3</title>
<path fill="none" stroke="midnightblue" d="M2013.08,-606.44C2040.14,-588.39 2081.88,-560.56 2082,-560.5 2086.91,-558.18 2092.08,-556.02 2097.34,-554.02"/>
<polygon fill="midnightblue" stroke="midnightblue" points="2098.65,-557.27 2106.87,-550.58 2096.28,-550.68 2098.65,-557.27"/>
</g>
<!-- Node4 -->
<g id="node4" class="node">
<title>Node4</title>
<g id="a_node4"><a xlink:href="classwmtk_1_1attribute_1_1_mesh_attribute_handle.html#a2b86caeb22b007b85b138ebc6b0ed837" target="_top" xlink:title=" ">
<polygon fill="none" stroke="black" points="2082,-618.5 2082,-648.5 2249,-648.5 2249,-618.5 2082,-618.5"/>
<text text-anchor="start" x="2090" y="-636.5" font-family="Helvetica,sans-Serif" font-size="10.00">wmtk::attribute::MeshAttribute</text>
<text text-anchor="middle" x="2165.5" y="-625.5" font-family="Helvetica,sans-Serif" font-size="10.00">Handle::holds</text>
</a>
</g>
</g>
<!-- Node2&#45;&gt;Node4 -->
<g id="edge3" class="edge">
<title>Node2&#45;&gt;Node4</title>
<path fill="none" stroke="midnightblue" d="M2046.03,-625.33C2054.34,-625.9 2063.1,-626.51 2071.93,-627.12"/>
<polygon fill="midnightblue" stroke="midnightblue" points="2071.69,-630.61 2081.91,-627.8 2072.17,-623.62 2071.69,-630.61"/>
</g>
<!-- Node5 -->
<g id="node5" class="node">
<title>Node5</title>
<g id="a_node5"><a xlink:href="classwmtk_1_1attribute_1_1_mesh_attribute_handle.html#a620620d54776b2c5f4f9cebad465cfa7" target="_top" xlink:title=" ">
<polygon fill="none" stroke="black" points="2082,-569.5 2082,-599.5 2249,-599.5 2249,-569.5 2082,-569.5"/>
<text text-anchor="start" x="2090" y="-587.5" font-family="Helvetica,sans-Serif" font-size="10.00">wmtk::attribute::MeshAttribute</text>
<text text-anchor="middle" x="2165.5" y="-576.5" font-family="Helvetica,sans-Serif" font-size="10.00">Handle::mesh</text>
</a>
</g>
</g>
<!-- Node2&#45;&gt;Node5 -->
<g id="edge4" class="edge">
<title>Node2&#45;&gt;Node5</title>
<path fill="none" stroke="midnightblue" d="M2046.03,-609.69C2058.16,-607.11 2071.23,-604.33 2084.1,-601.6"/>
<polygon fill="midnightblue" stroke="midnightblue" points="2084.84,-605.02 2093.89,-599.51 2083.38,-598.17 2084.84,-605.02"/>
</g>
<!-- Node7 -->
<g id="node7" class="node">
<title>Node7</title>
<g id="a_node7"><a xlink:href="classwmtk_1_1_mesh.html#ad054c074d4776010002321117ec459e8" target="_top" xlink:title=" ">
<polygon fill="none" stroke="black" points="413,-33.5 413,-63.5 574,-63.5 574,-33.5 413,-33.5"/>
<text text-anchor="start" x="421" y="-51.5" font-family="Helvetica,sans-Serif" font-size="10.00">wmtk::Mesh::is_from</text>
<text text-anchor="middle" x="493.5" y="-40.5" font-family="Helvetica,sans-Serif" font-size="10.00">_same_multi_mesh_structure</text>
</a>
</g>
</g>
<!-- Node6&#45;&gt;Node7 -->
<g id="edge6" class="edge">
<title>Node6&#45;&gt;Node7</title>
<path fill="none" stroke="midnightblue" d="M344.61,-133.92C355.58,-131.2 366.82,-127.77 377,-123.5 409.65,-109.8 443.17,-86.86 465.63,-69.94"/>
<polygon fill="midnightblue" stroke="midnightblue" points="467.86,-72.65 473.68,-63.79 463.61,-67.09 467.86,-72.65"/>
</g>
<!-- Node11 -->
<g id="node11" class="node">
<title>Node11</title>
<g id="a_node11"><a xlink:href="classwmtk_1_1_multi_mesh_manager.html#a5e6576353e81057bca18a1d49ac9cadf" target="_top" xlink:title="maps a simplex from this mesh to any other mesh">
<polygon fill="none" stroke="black" points="421.5,-128.5 421.5,-158.5 565.5,-158.5 565.5,-128.5 421.5,-128.5"/>
<text text-anchor="start" x="429.5" y="-146.5" font-family="Helvetica,sans-Serif" font-size="10.00">wmtk::MultiMeshManager</text>
<text text-anchor="middle" x="493.5" y="-135.5" font-family="Helvetica,sans-Serif" font-size="10.00">::map_tuples</text>
</a>
</g>
</g>
<!-- Node6&#45;&gt;Node11 -->
<g id="edge11" class="edge">
<title>Node6&#45;&gt;Node11</title>
<path fill="none" stroke="midnightblue" d="M356,-143.5C373.71,-143.5 392.92,-143.5 411.19,-143.5"/>
<polygon fill="midnightblue" stroke="midnightblue" points="411.23,-147 421.23,-143.5 411.23,-140 411.23,-147"/>
</g>
<!-- Node8 -->
<g id="node8" class="node">
<title>Node8</title>
<g id="a_node8"><a xlink:href="classwmtk_1_1_mesh.html#aac3ec1ebbe00982ddfe70cc710d8f54e" target="_top" xlink:title="returns a reference to the root of a multimesh tree">
<polygon fill="none" stroke="black" points="617.5,-9.5 617.5,-39.5 746.5,-39.5 746.5,-9.5 617.5,-9.5"/>
<text text-anchor="start" x="625.5" y="-27.5" font-family="Helvetica,sans-Serif" font-size="10.00">wmtk::Mesh::get_multi</text>
<text text-anchor="middle" x="682" y="-16.5" font-family="Helvetica,sans-Serif" font-size="10.00">_mesh_root</text>
</a>
</g>
</g>
<!-- Node7&#45;&gt;Node8 -->
<g id="edge7" class="edge">
<title>Node7&#45;&gt;Node8</title>
<path fill="none" stroke="midnightblue" d="M574.13,-38.25C585.2,-36.83 596.53,-35.37 607.48,-33.96"/>
<polygon fill="midnightblue" stroke="midnightblue" points="607.93,-37.43 617.41,-32.68 607.04,-30.49 607.93,-37.43"/>
</g>
<!-- Node9 -->
<g id="node9" class="node">
<title>Node9</title>
<g id="a_node9"><a xlink:href="classwmtk_1_1_multi_mesh_manager.html#a10b58d0d287321a1b422f9b945421eda" target="_top" xlink:title=" ">
<polygon fill="none" stroke="black" points="796,-0.5 796,-30.5 940,-30.5 940,-0.5 796,-0.5"/>
<text text-anchor="start" x="804" y="-18.5" font-family="Helvetica,sans-Serif" font-size="10.00">wmtk::MultiMeshManager</text>
<text text-anchor="middle" x="868" y="-7.5" font-family="Helvetica,sans-Serif" font-size="10.00">::get_root_mesh</text>
</a>
</g>
</g>
<!-- Node8&#45;&gt;Node9 -->
<g id="edge8" class="edge">
<title>Node8&#45;&gt;Node9</title>
<path fill="none" stroke="midnightblue" d="M746.58,-21.39C759.12,-20.78 772.44,-20.13 785.48,-19.49"/>
<polygon fill="midnightblue" stroke="midnightblue" points="786.04,-22.96 795.85,-18.98 785.7,-15.97 786.04,-22.96"/>
</g>
<!-- Node9&#45;&gt;Node9 -->
<g id="edge9" class="edge">
<title>Node9&#45;&gt;Node9</title>
<path fill="none" stroke="midnightblue" d="M835.59,-30.66C827.77,-40.06 838.57,-49 868,-49 885.93,-49 896.95,-45.68 901.05,-40.96"/>
<polygon fill="midnightblue" stroke="midnightblue" points="904.52,-40.42 900.41,-30.66 897.54,-40.86 904.52,-40.42"/>
</g>
<!-- Node10 -->
<g id="node10" class="node">
<title>Node10</title>
<g id="a_node10"><a xlink:href="classwmtk_1_1_multi_mesh_manager.html#a5a5a2de96e603563ab7054e8666395b7" target="_top" xlink:title="Specifies whether this structure is the root of a multi&#45;mesh tree.">
<polygon fill="none" stroke="black" points="992.5,-134.5 992.5,-164.5 1136.5,-164.5 1136.5,-134.5 992.5,-134.5"/>
<text text-anchor="start" x="1000.5" y="-152.5" font-family="Helvetica,sans-Serif" font-size="10.00">wmtk::MultiMeshManager</text>
<text text-anchor="middle" x="1064.5" y="-141.5" font-family="Helvetica,sans-Serif" font-size="10.00">::is_root</text>
</a>
</g>
</g>
<!-- Node9&#45;&gt;Node10 -->
<g id="edge10" class="edge">
<title>Node9&#45;&gt;Node10</title>
<path fill="none" stroke="midnightblue" d="M890.93,-30.61C925.75,-54.6 993.77,-101.46 1033.21,-128.63"/>
<polygon fill="midnightblue" stroke="midnightblue" points="1031.43,-131.65 1041.65,-134.44 1035.4,-125.89 1031.43,-131.65"/>
</g>
<!-- Node12 -->
<g id="node12" class="node">
<title>Node12</title>
<g id="a_node12"><a xlink:href="classwmtk_1_1_multi_mesh_manager.html#a4858de0134bb52c525db4a99d341fa86" target="_top" xlink:title=" ">
<polygon fill="none" stroke="black" points="796,-106.5 796,-136.5 940,-136.5 940,-106.5 796,-106.5"/>
<text text-anchor="start" x="804" y="-124.5" font-family="Helvetica,sans-Serif" font-size="10.00">wmtk::MultiMeshManager</text>
<text text-anchor="middle" x="868" y="-113.5" font-family="Helvetica,sans-Serif" font-size="10.00">::absolute_id</text>
</a>
</g>
</g>
<!-- Node11&#45;&gt;Node12 -->
<g id="edge12" class="edge">
<title>Node11&#45;&gt;Node12</title>
<path fill="none" stroke="midnightblue" d="M565.75,-148.34C618,-150.85 690.6,-152.16 754,-145.5 768.26,-144 783.37,-141.47 797.74,-138.6"/>
<polygon fill="midnightblue" stroke="midnightblue" points="798.47,-142.02 807.56,-136.56 797.05,-135.16 798.47,-142.02"/>
</g>
<!-- Node13 -->
<g id="node13" class="node">
<title>Node13</title>
<g id="a_node13"><a xlink:href="classwmtk_1_1_mesh.html#a2102fdea06a0c543437e67d77aeb2013" target="_top" xlink:title="returns a unique identifier for this mesh within a single multimesh structure">
<polygon fill="none" stroke="black" points="619.5,-106.5 619.5,-136.5 744.5,-136.5 744.5,-106.5 619.5,-106.5"/>
<text text-anchor="start" x="627.5" y="-124.5" font-family="Helvetica,sans-Serif" font-size="10.00">wmtk::Mesh::absolute</text>
<text text-anchor="middle" x="682" y="-113.5" font-family="Helvetica,sans-Serif" font-size="10.00">_multi_mesh_id</text>
</a>
</g>
</g>
<!-- Node11&#45;&gt;Node13 -->
<g id="edge15" class="edge">
<title>Node11&#45;&gt;Node13</title>
<path fill="none" stroke="midnightblue" d="M565.54,-135.12C579.79,-133.44 594.77,-131.67 609.05,-129.99"/>
<polygon fill="midnightblue" stroke="midnightblue" points="609.78,-133.43 619.3,-128.78 608.96,-126.47 609.78,-133.43"/>
</g>
<!-- Node14 -->
<g id="node14" class="node">
<title>Node14</title>
<g id="a_node14"><a xlink:href="classwmtk_1_1_multi_mesh_manager.html#a3b5aceb8f1b3a1d0328489811ac489d7" target="_top" xlink:title=" ">
<polygon fill="none" stroke="black" points="610,-206.5 610,-236.5 754,-236.5 754,-206.5 610,-206.5"/>
<text text-anchor="start" x="618" y="-224.5" font-family="Helvetica,sans-Serif" font-size="10.00">wmtk::MultiMeshManager</text>
<text text-anchor="middle" x="682" y="-213.5" font-family="Helvetica,sans-Serif" font-size="10.00">::map_up_to_tuples</text>
</a>
</g>
</g>
<!-- Node11&#45;&gt;Node14 -->
<g id="edge17" class="edge">
<title>Node11&#45;&gt;Node14</title>
<path fill="none" stroke="midnightblue" d="M530.46,-158.54C560.42,-171.07 603.27,-188.99 635.59,-202.51"/>
<polygon fill="midnightblue" stroke="midnightblue" points="634.26,-205.74 644.83,-206.37 636.96,-199.29 634.26,-205.74"/>
</g>
<!-- Node30 -->
<g id="node30" class="node">
<title>Node30</title>
<g id="a_node30"><a xlink:href="classwmtk_1_1simplex_1_1_simplex.html#ad2cc0340a0772b7d6f03ba7a781d1163" target="_top" xlink:title=" ">
<polygon fill="none" stroke="black" points="1400.5,-152.5 1400.5,-182.5 1535.5,-182.5 1535.5,-152.5 1400.5,-152.5"/>
<text text-anchor="start" x="1408.5" y="-170.5" font-family="Helvetica,sans-Serif" font-size="10.00">wmtk::simplex::Simplex</text>
<text text-anchor="middle" x="1468" y="-159.5" font-family="Helvetica,sans-Serif" font-size="10.00">::primitive_type</text>
</a>
</g>
</g>
<!-- Node11&#45;&gt;Node30 -->
<g id="edge51" class="edge">
<title>Node11&#45;&gt;Node30</title>
<path fill="none" stroke="midnightblue" d="M524.05,-128.47C546.9,-117.59 579.65,-103.61 610,-96.5 721.51,-70.37 752.47,-77.5 867,-77.5 867,-77.5 867,-77.5 1065.5,-77.5 1195.05,-77.5 1342.55,-122.67 1417.55,-149.01"/>
<polygon fill="midnightblue" stroke="midnightblue" points="1416.61,-152.39 1427.2,-152.44 1418.95,-145.79 1416.61,-152.39"/>
</g>
<!-- Node12&#45;&gt;Node10 -->
<g id="edge14" class="edge">
<title>Node12&#45;&gt;Node10</title>
<path fill="none" stroke="midnightblue" d="M940.04,-131.73C953.75,-133.7 968.22,-135.78 982.22,-137.8"/>
<polygon fill="midnightblue" stroke="midnightblue" points="981.93,-141.29 992.32,-139.25 982.92,-134.36 981.93,-141.29"/>
</g>
<!-- Node12&#45;&gt;Node12 -->
<g id="edge13" class="edge">
<title>Node12&#45;&gt;Node12</title>
<path fill="none" stroke="midnightblue" d="M835.59,-136.66C827.77,-146.06 838.57,-155 868,-155 885.93,-155 896.95,-151.68 901.05,-146.96"/>
<polygon fill="midnightblue" stroke="midnightblue" points="904.52,-146.42 900.41,-136.66 897.54,-146.86 904.52,-146.42"/>
</g>
<!-- Node13&#45;&gt;Node12 -->
<g id="edge16" class="edge">
<title>Node13&#45;&gt;Node12</title>
<path fill="none" stroke="midnightblue" d="M744.53,-121.5C757.81,-121.5 772.05,-121.5 785.95,-121.5"/>
<polygon fill="midnightblue" stroke="midnightblue" points="785.99,-125 795.99,-121.5 785.99,-118 785.99,-125"/>
</g>
<!-- Node14&#45;&gt;Node10 -->
<g id="edge18" class="edge">
<title>Node14&#45;&gt;Node10</title>
<path fill="none" stroke="midnightblue" d="M754.12,-208.04C818.88,-195.79 914.44,-177.71 982.2,-164.88"/>
<polygon fill="midnightblue" stroke="midnightblue" points="983.23,-168.25 992.4,-162.95 981.93,-161.37 983.23,-168.25"/>
</g>
<!-- Node15 -->
<g id="node15" class="node">
<title>Node15</title>
<g id="a_node15"><a xlink:href="classwmtk_1_1_multi_mesh_manager.html#a53c699292af8c1357213e8057ad83c69" target="_top" xlink:title=" ">
<polygon fill="none" stroke="black" points="790,-345.5 790,-375.5 946,-375.5 946,-345.5 790,-345.5"/>
<text text-anchor="start" x="798" y="-363.5" font-family="Helvetica,sans-Serif" font-size="10.00">wmtk::MultiMeshManager</text>
<text text-anchor="middle" x="868" y="-352.5" font-family="Helvetica,sans-Serif" font-size="10.00">::map_tuple_to_parent_tuple</text>
</a>
</g>
</g>
<!-- Node14&#45;&gt;Node15 -->
<g id="edge19" class="edge">
<title>Node14&#45;&gt;Node15</title>
<path fill="none" stroke="midnightblue" d="M703.04,-236.64C735.95,-261.5 801.5,-311.02 838.99,-339.34"/>
<polygon fill="midnightblue" stroke="midnightblue" points="836.89,-342.14 846.98,-345.38 841.11,-336.56 836.89,-342.14"/>
</g>
<!-- Node14&#45;&gt;Node30 -->
<g id="edge49" class="edge">
<title>Node14&#45;&gt;Node30</title>
<path fill="none" stroke="midnightblue" d="M754.3,-216.59C901.62,-206.44 1238.47,-183.24 1390.29,-172.78"/>
<polygon fill="midnightblue" stroke="midnightblue" points="1390.73,-176.26 1400.46,-172.08 1390.24,-169.28 1390.73,-176.26"/>
</g>
<!-- Node32 -->
<g id="node32" class="node">
<title>Node32</title>
<g id="a_node32"><a xlink:href="classwmtk_1_1simplex_1_1_simplex.html#a3650fd31ff1864285502dba66db3c73c" target="_top" xlink:title=" ">
<polygon fill="none" stroke="black" points="1400.5,-201.5 1400.5,-231.5 1535.5,-231.5 1535.5,-201.5 1400.5,-201.5"/>
<text text-anchor="start" x="1408.5" y="-219.5" font-family="Helvetica,sans-Serif" font-size="10.00">wmtk::simplex::Simplex</text>
<text text-anchor="middle" x="1468" y="-208.5" font-family="Helvetica,sans-Serif" font-size="10.00">::tuple</text>
</a>
</g>
</g>
<!-- Node14&#45;&gt;Node32 -->
<g id="edge50" class="edge">
<title>Node14&#45;&gt;Node32</title>
<path fill="none" stroke="midnightblue" d="M754.24,-232.13C766.16,-233.53 778.41,-234.74 790,-235.5 1039.69,-251.77 1103.63,-256.14 1353,-235.5 1365.15,-234.49 1377.95,-232.9 1390.42,-231.04"/>
<polygon fill="midnightblue" stroke="midnightblue" points="1390.97,-234.5 1400.32,-229.51 1389.9,-227.58 1390.97,-234.5"/>
</g>
<!-- Node15&#45;&gt;Node2 -->
<g id="edge20" class="edge">
<title>Node15&#45;&gt;Node2</title>
<path fill="none" stroke="midnightblue" d="M880.5,-375.66C924.17,-431.36 1086.45,-621.5 1267,-621.5 1267,-621.5 1267,-621.5 1658,-621.5 1749.77,-621.5 1855.88,-621.5 1922.59,-621.5"/>
<polygon fill="midnightblue" stroke="midnightblue" points="1922.95,-625 1932.95,-621.5 1922.95,-618 1922.95,-625"/>
</g>
<!-- Node15&#45;&gt;Node10 -->
<g id="edge21" class="edge">
<title>Node15&#45;&gt;Node10</title>
<path fill="none" stroke="midnightblue" d="M882.99,-345.33C916.77,-308.68 1002.96,-215.18 1042.77,-171.99"/>
<polygon fill="midnightblue" stroke="midnightblue" points="1045.43,-174.26 1049.64,-164.54 1040.29,-169.52 1045.43,-174.26"/>
</g>
<!-- Node16 -->
<g id="node16" class="node">
<title>Node16</title>
<g id="a_node16"><a xlink:href="classwmtk_1_1_multi_mesh_manager.html#a65f099e4a57a0f5e5dd4304ee2eb7cb1" target="_top" xlink:title=" ">
<polygon fill="none" stroke="black" points="982,-401.5 982,-431.5 1147,-431.5 1147,-401.5 982,-401.5"/>
<text text-anchor="start" x="990" y="-419.5" font-family="Helvetica,sans-Serif" font-size="10.00">wmtk::MultiMeshManager</text>
<text text-anchor="middle" x="1064.5" y="-408.5" font-family="Helvetica,sans-Serif" font-size="10.00">::map_tuple_between_meshes</text>
</a>
</g>
</g>
<!-- Node15&#45;&gt;Node16 -->
<g id="edge22" class="edge">
<title>Node15&#45;&gt;Node16</title>
<path fill="none" stroke="midnightblue" d="M921.12,-375.51C945.87,-382.63 975.62,-391.2 1001.52,-398.65"/>
<polygon fill="midnightblue" stroke="midnightblue" points="1000.66,-402.05 1011.23,-401.45 1002.59,-395.32 1000.66,-402.05"/>
</g>
<!-- Node17 -->
<g id="node17" class="node">
<title>Node17</title>
<g id="a_node17"><a xlink:href="classwmtk_1_1_mesh.html#abbb1c54cfd6ec17f4730317ee5fab78d" target="_top" xlink:title=" ">
<polygon fill="none" stroke="black" points="1583,-338 1583,-357 1731,-357 1731,-338 1583,-338"/>
<text text-anchor="middle" x="1657" y="-345" font-family="Helvetica,sans-Serif" font-size="10.00">wmtk::Mesh::is_valid_slow</text>
</a>
</g>
</g>
<!-- Node16&#45;&gt;Node17 -->
<g id="edge23" class="edge">
<title>Node16&#45;&gt;Node17</title>
<path fill="none" stroke="midnightblue" d="M1134.61,-401.47C1150.47,-398.28 1167.28,-395.09 1183,-392.5 1318.46,-370.15 1477.71,-357.84 1572.56,-351.96"/>
<polygon fill="midnightblue" stroke="midnightblue" points="1572.9,-355.45 1582.67,-351.35 1572.48,-348.46 1572.9,-355.45"/>
</g>
<!-- Node21 -->
<g id="node21" class="node">
<title>Node21</title>
<g id="a_node21"><a xlink:href="namespacewmtk_1_1multimesh_1_1utils.html#a8f0a6c05e27c92d2d4ac453971f52749" target="_top" xlink:title=" ">
<polygon fill="none" stroke="black" points="1193.5,-557.5 1193.5,-587.5 1342.5,-587.5 1342.5,-557.5 1193.5,-557.5"/>
<text text-anchor="start" x="1201.5" y="-575.5" font-family="Helvetica,sans-Serif" font-size="10.00">wmtk::multimesh::utils</text>
<text text-anchor="middle" x="1268" y="-564.5" font-family="Helvetica,sans-Serif" font-size="10.00">::read_tuple_map_attribute</text>
</a>
</g>
</g>
<!-- Node16&#45;&gt;Node21 -->
<g id="edge30" class="edge">
<title>Node16&#45;&gt;Node21</title>
<path fill="none" stroke="midnightblue" d="M1076.02,-431.91C1094.67,-458.13 1136.02,-511.61 1183,-542.5 1189.23,-546.59 1196.08,-550.21 1203.11,-553.38"/>
<polygon fill="midnightblue" stroke="midnightblue" points="1202.18,-556.79 1212.75,-557.43 1204.89,-550.33 1202.18,-556.79"/>
</g>
<!-- Node26 -->
<g id="node26" class="node">
<title>Node26</title>
<g id="a_node26"><a xlink:href="classwmtk_1_1_mesh.html#a6ca480b3f16ac2aadc9887c42748e239" target="_top" xlink:title=" ">
<polygon fill="none" stroke="black" points="1198,-514 1198,-533 1338,-533 1338,-514 1198,-514"/>
<text text-anchor="middle" x="1268" y="-521" font-family="Helvetica,sans-Serif" font-size="10.00">wmtk::Mesh::switch_face</text>
</a>
</g>
</g>
<!-- Node16&#45;&gt;Node26 -->
<g id="edge35" class="edge">
<title>Node16&#45;&gt;Node26</title>
<path fill="none" stroke="midnightblue" d="M1084.94,-431.66C1107.51,-448.7 1146.35,-476.38 1183,-494.5 1195.67,-500.77 1210.04,-506.26 1223.26,-510.74"/>
<polygon fill="midnightblue" stroke="midnightblue" points="1222.5,-514.17 1233.1,-513.96 1224.68,-507.52 1222.5,-514.17"/>
</g>
<!-- Node28 -->
<g id="node28" class="node">
<title>Node28</title>
<g id="a_node28"><a xlink:href="namespacewmtk_1_1simplex.html#a479fe685989f6c075a5ce1c52b5c4df3" target="_top" xlink:title=" ">
<polygon fill="none" stroke="black" points="1192.5,-288.5 1192.5,-318.5 1343.5,-318.5 1343.5,-288.5 1192.5,-288.5"/>
<text text-anchor="start" x="1200.5" y="-306.5" font-family="Helvetica,sans-Serif" font-size="10.00">wmtk::simplex::top</text>
<text text-anchor="middle" x="1268" y="-295.5" font-family="Helvetica,sans-Serif" font-size="10.00">_dimension_cofaces_tuples</text>
</a>
</g>
</g>
<!-- Node16&#45;&gt;Node28 -->
<g id="edge37" class="edge">
<title>Node16&#45;&gt;Node28</title>
<path fill="none" stroke="midnightblue" d="M1083.61,-401.32C1105.87,-383.25 1145.32,-353.07 1183,-333.5 1190.89,-329.4 1199.46,-325.64 1208.02,-322.26"/>
<polygon fill="midnightblue" stroke="midnightblue" points="1209.52,-325.43 1217.63,-318.61 1207.04,-318.88 1209.52,-325.43"/>
</g>
<!-- Node33 -->
<g id="node33" class="node">
<title>Node33</title>
<g id="a_node33"><a xlink:href="classwmtk_1_1_mesh.html#abaf00438d0700358b160e310d69725c9" target="_top" xlink:title=" ">
<polygon fill="none" stroke="black" points="1183,-466 1183,-485 1353,-485 1353,-466 1183,-466"/>
<text text-anchor="middle" x="1268" y="-473" font-family="Helvetica,sans-Serif" font-size="10.00">wmtk::Mesh::top_simplex_type</text>
</a>
</g>
</g>
<!-- Node16&#45;&gt;Node33 -->
<g id="edge44" class="edge">
<title>Node16&#45;&gt;Node33</title>
<path fill="none" stroke="midnightblue" d="M1116.87,-431.54C1150.22,-441.31 1193.17,-453.88 1224.58,-463.08"/>
<polygon fill="midnightblue" stroke="midnightblue" points="1223.76,-466.49 1234.34,-465.94 1225.73,-459.77 1223.76,-466.49"/>
</g>
<!-- Node35 -->
<g id="node35" class="node">
<title>Node35</title>
<g id="a_node35"><a xlink:href="namespacewmtk_1_1multimesh_1_1utils.html#aa0392bf28bb6c304127cf0eea634fee8" target="_top" xlink:title=" ">
<polygon fill="none" stroke="black" points="1203,-401.5 1203,-431.5 1333,-431.5 1333,-401.5 1203,-401.5"/>
<text text-anchor="start" x="1211" y="-419.5" font-family="Helvetica,sans-Serif" font-size="10.00">wmtk::multimesh::utils</text>
<text text-anchor="middle" x="1268" y="-408.5" font-family="Helvetica,sans-Serif" font-size="10.00">::transport_tuple</text>
</a>
</g>
</g>
<!-- Node16&#45;&gt;Node35 -->
<g id="edge46" class="edge">
<title>Node16&#45;&gt;Node35</title>
<path fill="none" stroke="midnightblue" d="M1147.17,-416.5C1162.24,-416.5 1177.9,-416.5 1192.73,-416.5"/>
<polygon fill="midnightblue" stroke="midnightblue" points="1192.85,-420 1202.85,-416.5 1192.85,-413 1192.85,-420"/>
</g>
<!-- Node18 -->
<g id="node18" class="node">
<title>Node18</title>
<g id="a_node18"><a xlink:href="classwmtk_1_1_mesh.html#a92666fa5c4c8b680e9b4a9b3755689f0" target="_top" xlink:title=" ">
<polygon fill="none" stroke="black" points="1767,-332.5 1767,-362.5 1897,-362.5 1897,-332.5 1767,-332.5"/>
<text text-anchor="start" x="1775" y="-350.5" font-family="Helvetica,sans-Serif" font-size="10.00">wmtk::Mesh::get_const</text>
<text text-anchor="middle" x="1832" y="-339.5" font-family="Helvetica,sans-Serif" font-size="10.00">_cell_hash_accessor</text>
</a>
</g>
</g>
<!-- Node17&#45;&gt;Node18 -->
<g id="edge24" class="edge">
<title>Node17&#45;&gt;Node18</title>
<path fill="none" stroke="midnightblue" d="M1731.12,-347.5C1739.57,-347.5 1748.21,-347.5 1756.68,-347.5"/>
<polygon fill="midnightblue" stroke="midnightblue" points="1756.91,-351 1766.91,-347.5 1756.91,-344 1756.91,-351"/>
</g>
<!-- Node20 -->
<g id="node20" class="node">
<title>Node20</title>
<g id="a_node20"><a xlink:href="classwmtk_1_1_mesh.html#a8c09a3ed591ffbb0e59c83948970d121" target="_top" xlink:title="check validity of tuple including its hash">
<polygon fill="none" stroke="black" points="1772,-382 1772,-401 1892,-401 1892,-382 1772,-382"/>
<text text-anchor="middle" x="1832" y="-389" font-family="Helvetica,sans-Serif" font-size="10.00">wmtk::Mesh::is_valid</text>
</a>
</g>
</g>
<!-- Node17&#45;&gt;Node20 -->
<g id="edge29" class="edge">
<title>Node17&#45;&gt;Node20</title>
<path fill="none" stroke="midnightblue" d="M1695.54,-357.05C1721.38,-363.62 1755.92,-372.4 1783.65,-379.46"/>
<polygon fill="midnightblue" stroke="midnightblue" points="1782.98,-382.9 1793.53,-381.97 1784.71,-376.11 1782.98,-382.9"/>
</g>
<!-- Node19 -->
<g id="node19" class="node">
<title>Node19</title>
<g id="a_node19"><a xlink:href="classwmtk_1_1_mesh.html#aec980d09bb50f645d6c1c5e604e091c6" target="_top" xlink:title=" ">
<polygon fill="none" stroke="black" points="1933,-544.5 1933,-574.5 2046,-574.5 2046,-544.5 1933,-544.5"/>
<text text-anchor="start" x="1941" y="-562.5" font-family="Helvetica,sans-Serif" font-size="10.00">wmtk::Mesh::create</text>
<text text-anchor="middle" x="1989.5" y="-551.5" font-family="Helvetica,sans-Serif" font-size="10.00">_const_accessor</text>
</a>
</g>
</g>
<!-- Node18&#45;&gt;Node19 -->
<g id="edge25" class="edge">
<title>Node18&#45;&gt;Node19</title>
<path fill="none" stroke="midnightblue" d="M1882.75,-362.51C1887.9,-365.32 1892.79,-368.62 1897,-372.5 1946.08,-417.68 1971.95,-494.92 1982.57,-534.51"/>
<polygon fill="midnightblue" stroke="midnightblue" points="1979.23,-535.58 1985.11,-544.39 1986.01,-533.83 1979.23,-535.58"/>
</g>
<!-- Node19&#45;&gt;Node3 -->
<g id="edge26" class="edge">
<title>Node19&#45;&gt;Node3</title>
<path fill="none" stroke="midnightblue" d="M2046.03,-551.84C2054.34,-550.69 2063.1,-549.49 2071.93,-548.27"/>
<polygon fill="midnightblue" stroke="midnightblue" points="2072.48,-551.73 2081.91,-546.89 2071.52,-544.79 2072.48,-551.73"/>
</g>
<!-- Node19&#45;&gt;Node4 -->
<g id="edge27" class="edge">
<title>Node19&#45;&gt;Node4</title>
<path fill="none" stroke="midnightblue" d="M2014.64,-574.58C2032.69,-585.38 2058.24,-599.69 2082,-609.5 2086.79,-611.48 2091.8,-613.36 2096.88,-615.14"/>
<polygon fill="midnightblue" stroke="midnightblue" points="2096.1,-618.57 2106.7,-618.42 2098.32,-611.93 2096.1,-618.57"/>
</g>
<!-- Node19&#45;&gt;Node5 -->
<g id="edge28" class="edge">
<title>Node19&#45;&gt;Node5</title>
<path fill="none" stroke="midnightblue" d="M2046.03,-567.48C2054.34,-568.67 2063.1,-569.93 2071.93,-571.2"/>
<polygon fill="midnightblue" stroke="midnightblue" points="2071.51,-574.68 2081.91,-572.63 2072.51,-567.75 2071.51,-574.68"/>
</g>
<!-- Node22 -->
<g id="node22" class="node">
<title>Node22</title>
<g id="a_node22"><a xlink:href="namespacewmtk_1_1multimesh_1_1utils.html#a7382ca1de4356752b14e745f23b6892d" target="_top" xlink:title=" ">
<polygon fill="none" stroke="black" points="1403,-562.5 1403,-592.5 1533,-592.5 1533,-562.5 1403,-562.5"/>
<text text-anchor="start" x="1411" y="-580.5" font-family="Helvetica,sans-Serif" font-size="10.00">wmtk::multimesh::utils</text>
<text text-anchor="middle" x="1468" y="-569.5" font-family="Helvetica,sans-Serif" font-size="10.00">::vectors_to_tuples</text>
</a>
</g>
</g>
<!-- Node21&#45;&gt;Node22 -->
<g id="edge31" class="edge">
<title>Node21&#45;&gt;Node22</title>
<path fill="none" stroke="midnightblue" d="M1342.73,-574.36C1359.12,-574.78 1376.5,-575.21 1392.9,-575.63"/>
<polygon fill="midnightblue" stroke="midnightblue" points="1392.89,-579.13 1402.97,-575.88 1393.06,-572.13 1392.89,-579.13"/>
</g>
<!-- Node23 -->
<g id="node23" class="node">
<title>Node23</title>
<g id="a_node23"><a xlink:href="namespacewmtk_1_1multimesh_1_1utils.html#afcaf5933957666eacc341add3d727960" target="_top" xlink:title=" ">
<polygon fill="none" stroke="black" points="1592,-562.5 1592,-592.5 1722,-592.5 1722,-562.5 1592,-562.5"/>
<text text-anchor="start" x="1600" y="-580.5" font-family="Helvetica,sans-Serif" font-size="10.00">wmtk::multimesh::utils</text>
<text text-anchor="middle" x="1657" y="-569.5" font-family="Helvetica,sans-Serif" font-size="10.00">::vector_to_tuple</text>
</a>
</g>
</g>
<!-- Node22&#45;&gt;Node23 -->
<g id="edge32" class="edge">
<title>Node22&#45;&gt;Node23</title>
<path fill="none" stroke="midnightblue" d="M1533.09,-577.5C1548.7,-577.5 1565.53,-577.5 1581.58,-577.5"/>
<polygon fill="midnightblue" stroke="midnightblue" points="1581.99,-581 1591.99,-577.5 1581.99,-574 1581.99,-581"/>
</g>
<!-- Node24 -->
<g id="node24" class="node">
<title>Node24</title>
<g id="a_node24"><a xlink:href="namespacewmtk_1_1multimesh_1_1utils.html#a335acc709f47df9fe96f4c2ed2e10585" target="_top" xlink:title=" ">
<polygon fill="none" stroke="black" points="1767,-562.5 1767,-592.5 1897,-592.5 1897,-562.5 1767,-562.5"/>
<text text-anchor="start" x="1775" y="-580.5" font-family="Helvetica,sans-Serif" font-size="10.00">wmtk::multimesh::utils</text>
<text text-anchor="middle" x="1832" y="-569.5" font-family="Helvetica,sans-Serif" font-size="10.00">::vector2_to_tuple</text>
</a>
</g>
</g>
<!-- Node23&#45;&gt;Node24 -->
<g id="edge33" class="edge">
<title>Node23&#45;&gt;Node24</title>
<path fill="none" stroke="midnightblue" d="M1722.42,-577.5C1733.53,-577.5 1745.15,-577.5 1756.5,-577.5"/>
<polygon fill="midnightblue" stroke="midnightblue" points="1756.82,-581 1766.82,-577.5 1756.82,-574 1756.82,-581"/>
</g>
<!-- Node25 -->
<g id="node25" class="node">
<title>Node25</title>
<g id="a_node25"><a xlink:href="namespacewmtk_1_1multimesh_1_1utils.html#a2645b98b3068060a73df0c8cc16b6a3d" target="_top" xlink:title=" ">
<polygon fill="none" stroke="black" points="1767,-513.5 1767,-543.5 1897,-543.5 1897,-513.5 1767,-513.5"/>
<text text-anchor="start" x="1775" y="-531.5" font-family="Helvetica,sans-Serif" font-size="10.00">wmtk::multimesh::utils</text>
<text text-anchor="middle" x="1832" y="-520.5" font-family="Helvetica,sans-Serif" font-size="10.00">::vector5_to_tuple</text>
</a>
</g>
</g>
<!-- Node23&#45;&gt;Node25 -->
<g id="edge34" class="edge">
<title>Node23&#45;&gt;Node25</title>
<path fill="none" stroke="midnightblue" d="M1711.32,-562.4C1729.24,-557.32 1749.41,-551.61 1768.01,-546.34"/>
<polygon fill="midnightblue" stroke="midnightblue" points="1769.19,-549.64 1777.86,-543.55 1767.28,-542.91 1769.19,-549.64"/>
</g>
<!-- Node27 -->
<g id="node27" class="node">
<title>Node27</title>
<g id="a_node27"><a xlink:href="classwmtk_1_1_mesh.html#a965a8a24158c4aa8580c57ba09f885f7" target="_top" xlink:title="switch the orientation of the Tuple of the given dimension">
<polygon fill="none" stroke="black" points="1600,-444.5 1600,-474.5 1714,-474.5 1714,-444.5 1600,-444.5"/>
<text text-anchor="start" x="1608" y="-462.5" font-family="Helvetica,sans-Serif" font-size="10.00">wmtk::Mesh::switch</text>
<text text-anchor="middle" x="1657" y="-451.5" font-family="Helvetica,sans-Serif" font-size="10.00">_tuple</text>
</a>
</g>
</g>
<!-- Node26&#45;&gt;Node27 -->
<g id="edge36" class="edge">
<title>Node26&#45;&gt;Node27</title>
<path fill="none" stroke="midnightblue" d="M1338.14,-529.45C1395.1,-532.42 1477.52,-532.23 1547,-514.5 1574.73,-507.42 1603.53,-492.51 1624.56,-480"/>
<polygon fill="midnightblue" stroke="midnightblue" points="1626.64,-482.83 1633.35,-474.63 1622.99,-476.85 1626.64,-482.83"/>
</g>
<!-- Node29 -->
<g id="node29" class="node">
<title>Node29</title>
<g id="a_node29"><a xlink:href="classwmtk_1_1_edge_mesh.html#a534952cf2729f1509a380e3e9afb65b7" target="_top" xlink:title=" ">
<polygon fill="none" stroke="black" points="1410.5,-250.5 1410.5,-280.5 1525.5,-280.5 1525.5,-250.5 1410.5,-250.5"/>
<text text-anchor="start" x="1418.5" y="-268.5" font-family="Helvetica,sans-Serif" font-size="10.00">wmtk::EdgeMesh::is</text>
<text text-anchor="middle" x="1468" y="-257.5" font-family="Helvetica,sans-Serif" font-size="10.00">_boundary_vertex</text>
</a>
</g>
</g>
<!-- Node28&#45;&gt;Node29 -->
<g id="edge38" class="edge">
<title>Node28&#45;&gt;Node29</title>
<path fill="none" stroke="midnightblue" d="M1343.57,-289.19C1362.26,-285.6 1382.18,-281.78 1400.44,-278.27"/>
<polygon fill="midnightblue" stroke="midnightblue" points="1401.24,-281.68 1410.4,-276.36 1399.92,-274.81 1401.24,-281.68"/>
</g>
<!-- Node28&#45;&gt;Node30 -->
<g id="edge40" class="edge">
<title>Node28&#45;&gt;Node30</title>
<path fill="none" stroke="midnightblue" d="M1290.02,-288.39C1307.64,-275.28 1333.05,-255.35 1353,-235.5 1370.91,-217.68 1368.03,-205.59 1389,-191.5 1391.29,-189.96 1393.69,-188.52 1396.15,-187.16"/>
<polygon fill="midnightblue" stroke="midnightblue" points="1397.93,-190.19 1405.36,-182.64 1394.84,-183.9 1397.93,-190.19"/>
</g>
<!-- Node31 -->
<g id="node31" class="node">
<title>Node31</title>
<g id="a_node31"><a xlink:href="classwmtk_1_1_mesh.html#a33805489402321155d4a1f7023faaf3a" target="_top" xlink:title=" ">
<polygon fill="none" stroke="black" points="1396.5,-300 1396.5,-319 1539.5,-319 1539.5,-300 1396.5,-300"/>
<text text-anchor="middle" x="1468" y="-307" font-family="Helvetica,sans-Serif" font-size="10.00">wmtk::Mesh::switch_edge</text>
</a>
</g>
</g>
<!-- Node28&#45;&gt;Node31 -->
<g id="edge41" class="edge">
<title>Node28&#45;&gt;Node31</title>
<path fill="none" stroke="midnightblue" d="M1343.57,-305.76C1357.51,-306.18 1372.14,-306.63 1386.25,-307.05"/>
<polygon fill="midnightblue" stroke="midnightblue" points="1386.32,-310.56 1396.42,-307.36 1386.53,-303.56 1386.32,-310.56"/>
</g>
<!-- Node28&#45;&gt;Node32 -->
<g id="edge43" class="edge">
<title>Node28&#45;&gt;Node32</title>
<path fill="none" stroke="midnightblue" d="M1321.56,-288.37C1332.33,-284.28 1343.32,-279.34 1353,-273.5 1371.59,-262.29 1370.17,-251.29 1389,-240.5 1392.04,-238.76 1395.23,-237.13 1398.49,-235.6"/>
<polygon fill="midnightblue" stroke="midnightblue" points="1400.07,-238.74 1407.89,-231.59 1397.31,-232.3 1400.07,-238.74"/>
</g>
<!-- Node29&#45;&gt;Node17 -->
<g id="edge39" class="edge">
<title>Node29&#45;&gt;Node17</title>
<path fill="none" stroke="midnightblue" d="M1520.23,-280.53C1529.25,-283.57 1538.47,-286.93 1547,-290.5 1576.69,-302.91 1609.2,-320.46 1630.92,-332.8"/>
<polygon fill="midnightblue" stroke="midnightblue" points="1629.39,-335.96 1639.8,-337.9 1632.87,-329.89 1629.39,-335.96"/>
</g>
<!-- Node31&#45;&gt;Node27 -->
<g id="edge42" class="edge">
<title>Node31&#45;&gt;Node27</title>
<path fill="none" stroke="midnightblue" d="M1482.76,-319.08C1498.53,-330.17 1525.02,-349.13 1547,-366.5 1576.72,-389.99 1609.66,-418.44 1631.46,-437.64"/>
<polygon fill="midnightblue" stroke="midnightblue" points="1629.16,-440.27 1638.97,-444.27 1633.79,-435.03 1629.16,-440.27"/>
</g>
<!-- Node34 -->
<g id="node34" class="node">
<title>Node34</title>
<g id="a_node34"><a xlink:href="classwmtk_1_1_mesh.html#ac1e12857f52985bd548a968a4c819659" target="_top" xlink:title=" ">
<polygon fill="none" stroke="black" points="1407.5,-474.5 1407.5,-504.5 1528.5,-504.5 1528.5,-474.5 1407.5,-474.5"/>
<text text-anchor="start" x="1415.5" y="-492.5" font-family="Helvetica,sans-Serif" font-size="10.00">wmtk::Mesh::top_cell</text>
<text text-anchor="middle" x="1468" y="-481.5" font-family="Helvetica,sans-Serif" font-size="10.00">_dimension</text>
</a>
</g>
</g>
<!-- Node33&#45;&gt;Node34 -->
<g id="edge45" class="edge">
<title>Node33&#45;&gt;Node34</title>
<path fill="none" stroke="midnightblue" d="M1353.26,-481.46C1367.91,-482.49 1383,-483.56 1397.21,-484.57"/>
<polygon fill="midnightblue" stroke="midnightblue" points="1397.17,-488.07 1407.39,-485.28 1397.66,-481.09 1397.17,-488.07"/>
</g>
<!-- Node36 -->
<g id="node36" class="node">
<title>Node36</title>
<g id="a_node36"><a xlink:href="namespacewmtk_1_1multimesh_1_1utils.html#a99cdf56ec6abe68409d30e0b67f4ce82" target="_top" xlink:title=" ">
<polygon fill="none" stroke="black" points="1389,-425.5 1389,-455.5 1547,-455.5 1547,-425.5 1389,-425.5"/>
<text text-anchor="start" x="1397" y="-443.5" font-family="Helvetica,sans-Serif" font-size="10.00">wmtk::multimesh::utils</text>
<text text-anchor="middle" x="1468" y="-432.5" font-family="Helvetica,sans-Serif" font-size="10.00">::find_local_switch_sequence</text>
</a>
</g>
</g>
<!-- Node35&#45;&gt;Node36 -->
<g id="edge47" class="edge">
<title>Node35&#45;&gt;Node36</title>
<path fill="none" stroke="midnightblue" d="M1333.01,-424.26C1347.56,-426.02 1363.27,-427.93 1378.63,-429.79"/>
<polygon fill="midnightblue" stroke="midnightblue" points="1378.32,-433.28 1388.66,-431 1379.16,-426.33 1378.32,-433.28"/>
</g>
<!-- Node37 -->
<g id="node37" class="node">
<title>Node37</title>
<g id="a_node37"><a xlink:href="namespacewmtk_1_1multimesh_1_1utils.html#af71d6d20a76616d671ae5f53350107b4" target="_top" xlink:title=" ">
<polygon fill="none" stroke="black" points="1403,-376.5 1403,-406.5 1533,-406.5 1533,-376.5 1403,-376.5"/>
<text text-anchor="start" x="1411" y="-394.5" font-family="Helvetica,sans-Serif" font-size="10.00">wmtk::multimesh::utils</text>
<text text-anchor="middle" x="1468" y="-383.5" font-family="Helvetica,sans-Serif" font-size="10.00">::local_switch_tuples</text>
</a>
</g>
</g>
<!-- Node35&#45;&gt;Node37 -->
<g id="edge48" class="edge">
<title>Node35&#45;&gt;Node37</title>
<path fill="none" stroke="midnightblue" d="M1333.01,-408.42C1352.06,-406.01 1373.1,-403.36 1392.74,-400.88"/>
<polygon fill="midnightblue" stroke="midnightblue" points="1393.39,-404.32 1402.87,-399.6 1392.51,-397.38 1393.39,-404.32"/>
</g>
</g>
</svg>
        <g id="navigator" transform="translate(0 0)" fill="#404254">
                <rect fill="#f2f5e9" fill-opacity="0.5" stroke="#606060" stroke-width=".5" x="0" y="0" width="60" height="60"/>
                <use id="zoomplus" xlink:href="#zoomPlus" x="17" y="9" onmousedown="handleZoom(evt,'in')"/>
                <use id="zoomminus" xlink:href="#zoomMin" x="42" y="9" onmousedown="handleZoom(evt,'out')"/>
                <use id="reset" xlink:href="#resetDef" x="30" y="36" onmousedown="handleReset()"/>
                <g id="arrowUp" xlink:href="#dirArrow" transform="translate(30 24)" onmousedown="handlePan(0,-1)">
                  <use xlink:href="#rim" fill="#404040">
                        <set attributeName="fill" to="#808080" begin="arrowUp.mouseover" end="arrowUp.mouseout"/>
                  </use>
                  <path fill="none" stroke="white" stroke-width="1.5" d="M0,-3.0v7 M-2.5,-0.5L0,-3.0L2.5,-0.5"/>
                </g>
                <g id="arrowRight" xlink:href="#dirArrow" transform="rotate(90) translate(36 -43)" onmousedown="handlePan(1,0)">
                  <use xlink:href="#rim" fill="#404040">
                        <set attributeName="fill" to="#808080" begin="arrowRight.mouseover" end="arrowRight.mouseout"/>
                  </use>
                  <path fill="none" stroke="white" stroke-width="1.5" d="M0,-3.0v7 M-2.5,-0.5L0,-3.0L2.5,-0.5"/>
                </g>
                <g id="arrowDown" xlink:href="#dirArrow" transform="rotate(180) translate(-30 -48)" onmousedown="handlePan(0,1)">
                  <use xlink:href="#rim" fill="#404040">
                        <set attributeName="fill" to="#808080" begin="arrowDown.mouseover" end="arrowDown.mouseout"/>
                  </use>
                  <path fill="none" stroke="white" stroke-width="1.5" d="M0,-3.0v7 M-2.5,-0.5L0,-3.0L2.5,-0.5"/>
                </g>
                <g id="arrowLeft" xlink:href="#dirArrow" transform="rotate(270) translate(-36 17)" onmousedown="handlePan(-1,0)">
                  <use xlink:href="#rim" fill="#404040">
                        <set attributeName="fill" to="#808080" begin="arrowLeft.mouseover" end="arrowLeft.mouseout"/>
                  </use>
                  <path fill="none" stroke="white" stroke-width="1.5" d="M0,-3.0v7 M-2.5,-0.5L0,-3.0L2.5,-0.5"/>
                </g>
        </g>
        <svg viewBox="0 0 15 15" width="100%" height="30px" preserveAspectRatio="xMaxYMin meet">
         <g id="arrow_out" transform="scale(0.3 0.3)">
          <a xlink:href="classwmtk_1_1operations_1_1composite_1_1_project_operation_ac0aa2bc6e51b9d8f94fd5943627545dd_cgraph_org.svg" target="_base">
           <rect id="button" ry="5" rx="5" y="6" x="6" height="38" width="38"
                fill="#f2f5e9" fill-opacity="0.5" stroke="#606060" stroke-width="1.0"/>
           <path id="arrow"
             d="M 11.500037,31.436501 C 11.940474,20.09759 22.043105,11.32322 32.158766,21.979434 L 37.068811,17.246167 C 37.068811,17.246167 37.088388,32 37.088388,32 L 22.160133,31.978069 C 22.160133,31.978069 26.997745,27.140456 26.997745,27.140456 C 18.528582,18.264221 13.291696,25.230495 11.500037,31.436501 z"
             style="fill:#404040;"/>
          </a>
         </g>
        </svg>
</svg>
