<?xml version="1.0" encoding="UTF-8" standalone="no"?>
<!DOCTYPE svg PUBLIC "-//W3C//DTD SVG 1.1//EN"
 "http://www.w3.org/Graphics/SVG/1.1/DTD/svg11.dtd">
<!-- Generated by graphviz version 2.43.0 (0)
 -->
<!-- Title: wmtk::MultiMeshManager::map_to_parent_tuple Pages: 1 -->
<!--zoomable 499 -->
<svg id="main" version="1.1" xmlns="http://www.w3.org/2000/svg" xmlns:xlink="http://www.w3.org/1999/xlink" xml:space="preserve" onload="init(evt)">
<style type="text/css"><![CDATA[
.edge:hover path { stroke: red; }
.edge:hover polygon { stroke: red; fill: red; }
]]></style>
<script type="text/javascript"><![CDATA[
var edges = document.getElementsByTagName('g');
if (edges && edges.length) {
  for (var i=0;i<edges.length;i++) {
    if (edges[i].id.substr(0,4)=='edge') {
      edges[i].setAttribute('class','edge');
    }
  }
}
]]></script>
        <defs>
                <circle id="rim" cx="0" cy="0" r="7"/>
                <circle id="rim2" cx="0" cy="0" r="3.5"/>
                <g id="zoomPlus">
                        <use xlink:href="#rim" fill="#404040">
                                <set attributeName="fill" to="#808080" begin="zoomplus.mouseover" end="zoomplus.mouseout"/>
                        </use>
                        <path d="M-4,0h8M0,-4v8" fill="none" stroke="white" stroke-width="1.5" pointer-events="none"/>
                </g>
                <g id="zoomMin">
                        <use xlink:href="#rim" fill="#404040">
                                <set attributeName="fill" to="#808080" begin="zoomminus.mouseover" end="zoomminus.mouseout"/>
                        </use>
                        <path d="M-4,0h8" fill="none" stroke="white" stroke-width="1.5" pointer-events="none"/>
                </g>
                <g id="dirArrow">
                        <path fill="none" stroke="white" stroke-width="1.5" d="M0,-3.0v7 M-2.5,-0.5L0,-3.0L2.5,-0.5"/>
                </g>
               <g id="resetDef">
                       <use xlink:href="#rim2" fill="#404040">
                               <set attributeName="fill" to="#808080" begin="reset.mouseover" end="reset.mouseout"/>
                       </use>
               </g>
        </defs>

<script type="text/javascript">
var viewWidth = 1647;
var viewHeight = 499;
var sectionId = 'dynsection-59';
</script>
<script xlink:href="svgpan.js"/>
<svg id="graph" class="graph">
<g id="viewport">
<title>wmtk::MultiMeshManager::map_to_parent_tuple</title>
<!-- Node1 -->
<g id="node1" class="node">
<title>Node1</title>
<g id="a_node1"><a xlink:title="optimized map from a simplex from this mesh to its direct parent">
<polygon fill="#bfbfbf" stroke="black" points="0,-261.5 0,-291.5 144,-291.5 144,-261.5 0,-261.5"/>
<text text-anchor="start" x="8" y="-279.5" font-family="Helvetica,sans-Serif" font-size="10.00">wmtk::MultiMeshManager</text>
<text text-anchor="middle" x="72" y="-268.5" font-family="Helvetica,sans-Serif" font-size="10.00">::map_to_parent_tuple</text>
</a>
</g>
</g>
<!-- Node2 -->
<g id="node2" class="node">
<title>Node2</title>
<g id="a_node2"><a xlink:href="classwmtk_1_1_multi_mesh_manager.html#a53c699292af8c1357213e8057ad83c69" target="_top" xlink:title=" ">
<polygon fill="none" stroke="black" points="180,-110.5 180,-140.5 336,-140.5 336,-110.5 180,-110.5"/>
<text text-anchor="start" x="188" y="-128.5" font-family="Helvetica,sans-Serif" font-size="10.00">wmtk::MultiMeshManager</text>
<text text-anchor="middle" x="258" y="-117.5" font-family="Helvetica,sans-Serif" font-size="10.00">::map_tuple_to_parent_tuple</text>
</a>
</g>
</g>
<!-- Node1&#45;&gt;Node2 -->
<g id="edge1" class="edge">
<title>Node1&#45;&gt;Node2</title>
<path fill="none" stroke="midnightblue" d="M91.32,-261.47C124.02,-234.63 192.58,-178.37 230.45,-147.29"/>
<polygon fill="midnightblue" stroke="midnightblue" points="232.98,-149.74 238.49,-140.69 228.54,-144.33 232.98,-149.74"/>
</g>
<!-- Node24 -->
<g id="node24" class="node">
<title>Node24</title>
<g id="a_node24"><a xlink:href="classwmtk_1_1simplex_1_1_simplex.html#a3650fd31ff1864285502dba66db3c73c" target="_top" xlink:title=" ">
<polygon fill="none" stroke="black" points="790.5,-460.5 790.5,-490.5 925.5,-490.5 925.5,-460.5 790.5,-460.5"/>
<text text-anchor="start" x="798.5" y="-478.5" font-family="Helvetica,sans-Serif" font-size="10.00">wmtk::simplex::Simplex</text>
<text text-anchor="middle" x="858" y="-467.5" font-family="Helvetica,sans-Serif" font-size="10.00">::tuple</text>
</a>
</g>
</g>
<!-- Node1&#45;&gt;Node24 -->
<g id="edge33" class="edge">
<title>Node1&#45;&gt;Node24</title>
<path fill="none" stroke="midnightblue" d="M129.54,-291.51C222.11,-316.03 411.86,-365.98 573,-406.5 644.49,-424.48 726.3,-444.27 783.69,-458.03"/>
<polygon fill="midnightblue" stroke="midnightblue" points="783.22,-461.52 793.76,-460.44 784.85,-454.71 783.22,-461.52"/>
</g>
<!-- Node3 -->
<g id="node3" class="node">
<title>Node3</title>
<g id="a_node3"><a xlink:href="classwmtk_1_1_mesh.html#a8a5ee2526671002bd91f2b7182b92af6" target="_top" xlink:title=" ">
<polygon fill="none" stroke="black" points="1323,-110.5 1323,-140.5 1436,-140.5 1436,-110.5 1323,-110.5"/>
<text text-anchor="start" x="1331" y="-128.5" font-family="Helvetica,sans-Serif" font-size="10.00">wmtk::Mesh::create</text>
<text text-anchor="middle" x="1379.5" y="-117.5" font-family="Helvetica,sans-Serif" font-size="10.00">_accessor</text>
</a>
</g>
</g>
<!-- Node2&#45;&gt;Node3 -->
<g id="edge2" class="edge">
<title>Node2&#45;&gt;Node3</title>
<path fill="none" stroke="midnightblue" d="M314.22,-110.44C390.63,-90.96 533.2,-59.5 657,-59.5 657,-59.5 657,-59.5 1048,-59.5 1154.56,-59.5 1184.5,-49.37 1287,-78.5 1307.87,-84.43 1329.54,-95.32 1346.55,-105.12"/>
<polygon fill="midnightblue" stroke="midnightblue" points="1345.1,-108.33 1355.49,-110.42 1348.67,-102.31 1345.1,-108.33"/>
</g>
<!-- Node7 -->
<g id="node7" class="node">
<title>Node7</title>
<g id="a_node7"><a xlink:href="classwmtk_1_1_multi_mesh_manager.html#a5a5a2de96e603563ab7054e8666395b7" target="_top" xlink:title="Specifies whether this structure is the root of a multi&#45;mesh tree.">
<polygon fill="none" stroke="black" points="382.5,-0.5 382.5,-30.5 526.5,-30.5 526.5,-0.5 382.5,-0.5"/>
<text text-anchor="start" x="390.5" y="-18.5" font-family="Helvetica,sans-Serif" font-size="10.00">wmtk::MultiMeshManager</text>
<text text-anchor="middle" x="454.5" y="-7.5" font-family="Helvetica,sans-Serif" font-size="10.00">::is_root</text>
</a>
</g>
</g>
<!-- Node2&#45;&gt;Node7 -->
<g id="edge6" class="edge">
<title>Node2&#45;&gt;Node7</title>
<path fill="none" stroke="midnightblue" d="M277.21,-110.31C298.77,-92.88 336.26,-64.3 372,-45.5 379.76,-41.42 388.19,-37.64 396.6,-34.25"/>
<polygon fill="midnightblue" stroke="midnightblue" points="397.99,-37.46 406.04,-30.58 395.45,-30.94 397.99,-37.46"/>
</g>
<!-- Node8 -->
<g id="node8" class="node">
<title>Node8</title>
<g id="a_node8"><a xlink:href="classwmtk_1_1_multi_mesh_manager.html#a65f099e4a57a0f5e5dd4304ee2eb7cb1" target="_top" xlink:title=" ">
<polygon fill="none" stroke="black" points="372,-154.5 372,-184.5 537,-184.5 537,-154.5 372,-154.5"/>
<text text-anchor="start" x="380" y="-172.5" font-family="Helvetica,sans-Serif" font-size="10.00">wmtk::MultiMeshManager</text>
<text text-anchor="middle" x="454.5" y="-161.5" font-family="Helvetica,sans-Serif" font-size="10.00">::map_tuple_between_meshes</text>
</a>
</g>
</g>
<!-- Node2&#45;&gt;Node8 -->
<g id="edge7" class="edge">
<title>Node2&#45;&gt;Node8</title>
<path fill="none" stroke="midnightblue" d="M325.39,-140.52C342.04,-144.29 360.04,-148.36 377.13,-152.22"/>
<polygon fill="midnightblue" stroke="midnightblue" points="376.55,-155.68 387.08,-154.47 378.1,-148.85 376.55,-155.68"/>
</g>
<!-- Node4 -->
<g id="node4" class="node">
<title>Node4</title>
<g id="a_node4"><a xlink:href="classwmtk_1_1attribute_1_1_mesh_attribute_handle.html#ac326961f01b9ba4fec395827f15a7ef2" target="_top" xlink:title=" ">
<polygon fill="none" stroke="black" points="1472,-135.5 1472,-165.5 1639,-165.5 1639,-135.5 1472,-135.5"/>
<text text-anchor="start" x="1480" y="-153.5" font-family="Helvetica,sans-Serif" font-size="10.00">wmtk::attribute::MeshAttribute</text>
<text text-anchor="middle" x="1555.5" y="-142.5" font-family="Helvetica,sans-Serif" font-size="10.00">Handle::as</text>
</a>
</g>
</g>
<!-- Node3&#45;&gt;Node4 -->
<g id="edge3" class="edge">
<title>Node3&#45;&gt;Node4</title>
<path fill="none" stroke="midnightblue" d="M1436.03,-133.48C1444.34,-134.67 1453.1,-135.93 1461.93,-137.2"/>
<polygon fill="midnightblue" stroke="midnightblue" points="1461.51,-140.68 1471.91,-138.63 1462.51,-133.75 1461.51,-140.68"/>
</g>
<!-- Node5 -->
<g id="node5" class="node">
<title>Node5</title>
<g id="a_node5"><a xlink:href="classwmtk_1_1attribute_1_1_mesh_attribute_handle.html#a2b86caeb22b007b85b138ebc6b0ed837" target="_top" xlink:title=" ">
<polygon fill="none" stroke="black" points="1472,-86.5 1472,-116.5 1639,-116.5 1639,-86.5 1472,-86.5"/>
<text text-anchor="start" x="1480" y="-104.5" font-family="Helvetica,sans-Serif" font-size="10.00">wmtk::attribute::MeshAttribute</text>
<text text-anchor="middle" x="1555.5" y="-93.5" font-family="Helvetica,sans-Serif" font-size="10.00">Handle::holds</text>
</a>
</g>
</g>
<!-- Node3&#45;&gt;Node5 -->
<g id="edge4" class="edge">
<title>Node3&#45;&gt;Node5</title>
<path fill="none" stroke="midnightblue" d="M1436.03,-117.84C1444.34,-116.69 1453.1,-115.49 1461.93,-114.27"/>
<polygon fill="midnightblue" stroke="midnightblue" points="1462.48,-117.73 1471.91,-112.89 1461.52,-110.79 1462.48,-117.73"/>
</g>
<!-- Node6 -->
<g id="node6" class="node">
<title>Node6</title>
<g id="a_node6"><a xlink:href="classwmtk_1_1attribute_1_1_mesh_attribute_handle.html#a620620d54776b2c5f4f9cebad465cfa7" target="_top" xlink:title=" ">
<polygon fill="none" stroke="black" points="1472,-184.5 1472,-214.5 1639,-214.5 1639,-184.5 1472,-184.5"/>
<text text-anchor="start" x="1480" y="-202.5" font-family="Helvetica,sans-Serif" font-size="10.00">wmtk::attribute::MeshAttribute</text>
<text text-anchor="middle" x="1555.5" y="-191.5" font-family="Helvetica,sans-Serif" font-size="10.00">Handle::mesh</text>
</a>
</g>
</g>
<!-- Node3&#45;&gt;Node6 -->
<g id="edge5" class="edge">
<title>Node3&#45;&gt;Node6</title>
<path fill="none" stroke="midnightblue" d="M1418.01,-140.51C1424.12,-143.3 1430.31,-146.34 1436,-149.5 1453.02,-158.97 1454.46,-166.02 1472,-174.5 1476.68,-176.76 1481.61,-178.87 1486.63,-180.83"/>
<polygon fill="midnightblue" stroke="midnightblue" points="1485.78,-184.24 1496.37,-184.4 1488.19,-177.67 1485.78,-184.24"/>
</g>
<!-- Node9 -->
<g id="node9" class="node">
<title>Node9</title>
<g id="a_node9"><a xlink:href="namespacewmtk_1_1multimesh_1_1utils.html#a8f0a6c05e27c92d2d4ac453971f52749" target="_top" xlink:title=" ">
<polygon fill="none" stroke="black" points="583.5,-88.5 583.5,-118.5 732.5,-118.5 732.5,-88.5 583.5,-88.5"/>
<text text-anchor="start" x="591.5" y="-106.5" font-family="Helvetica,sans-Serif" font-size="10.00">wmtk::multimesh::utils</text>
<text text-anchor="middle" x="658" y="-95.5" font-family="Helvetica,sans-Serif" font-size="10.00">::read_tuple_map_attribute</text>
</a>
</g>
</g>
<!-- Node8&#45;&gt;Node9 -->
<g id="edge8" class="edge">
<title>Node8&#45;&gt;Node9</title>
<path fill="none" stroke="midnightblue" d="M497.21,-154.42C519.6,-146.45 547.71,-136.67 573,-128.5 580.15,-126.19 587.66,-123.84 595.14,-121.56"/>
<polygon fill="midnightblue" stroke="midnightblue" points="596.35,-124.85 604.91,-118.59 594.32,-118.15 596.35,-124.85"/>
</g>
<!-- Node14 -->
<g id="node14" class="node">
<title>Node14</title>
<g id="a_node14"><a xlink:href="classwmtk_1_1_mesh.html#a6ca480b3f16ac2aadc9887c42748e239" target="_top" xlink:title=" ">
<polygon fill="none" stroke="black" points="588,-138 588,-157 728,-157 728,-138 588,-138"/>
<text text-anchor="middle" x="658" y="-145" font-family="Helvetica,sans-Serif" font-size="10.00">wmtk::Mesh::switch_face</text>
</a>
</g>
</g>
<!-- Node8&#45;&gt;Node14 -->
<g id="edge13" class="edge">
<title>Node8&#45;&gt;Node14</title>
<path fill="none" stroke="midnightblue" d="M537.17,-160.58C550.55,-159.12 564.41,-157.61 577.74,-156.15"/>
<polygon fill="midnightblue" stroke="midnightblue" points="578.25,-159.62 587.81,-155.05 577.49,-152.66 578.25,-159.62"/>
</g>
<!-- Node16 -->
<g id="node16" class="node">
<title>Node16</title>
<g id="a_node16"><a xlink:href="namespacewmtk_1_1simplex.html#a479fe685989f6c075a5ce1c52b5c4df3" target="_top" xlink:title=" ">
<polygon fill="none" stroke="black" points="582.5,-367.5 582.5,-397.5 733.5,-397.5 733.5,-367.5 582.5,-367.5"/>
<text text-anchor="start" x="590.5" y="-385.5" font-family="Helvetica,sans-Serif" font-size="10.00">wmtk::simplex::top</text>
<text text-anchor="middle" x="658" y="-374.5" font-family="Helvetica,sans-Serif" font-size="10.00">_dimension_cofaces_tuples</text>
</a>
</g>
</g>
<!-- Node8&#45;&gt;Node16 -->
<g id="edge15" class="edge">
<title>Node8&#45;&gt;Node16</title>
<path fill="none" stroke="midnightblue" d="M469.99,-184.82C504.99,-221.82 594.28,-316.2 635.52,-359.8"/>
<polygon fill="midnightblue" stroke="midnightblue" points="633.23,-362.46 642.64,-367.32 638.31,-357.65 633.23,-362.46"/>
</g>
<!-- Node25 -->
<g id="node25" class="node">
<title>Node25</title>
<g id="a_node25"><a xlink:href="classwmtk_1_1_mesh.html#abaf00438d0700358b160e310d69725c9" target="_top" xlink:title=" ">
<polygon fill="none" stroke="black" points="573,-253 573,-272 743,-272 743,-253 573,-253"/>
<text text-anchor="middle" x="658" y="-260" font-family="Helvetica,sans-Serif" font-size="10.00">wmtk::Mesh::top_simplex_type</text>
</a>
</g>
</g>
<!-- Node8&#45;&gt;Node25 -->
<g id="edge28" class="edge">
<title>Node8&#45;&gt;Node25</title>
<path fill="none" stroke="midnightblue" d="M488.32,-184.65C526.71,-202.37 589.73,-231.45 626.9,-248.61"/>
<polygon fill="midnightblue" stroke="midnightblue" points="625.67,-251.89 636.21,-252.91 628.6,-245.54 625.67,-251.89"/>
</g>
<!-- Node27 -->
<g id="node27" class="node">
<title>Node27</title>
<g id="a_node27"><a xlink:href="namespacewmtk_1_1multimesh_1_1utils.html#aa0392bf28bb6c304127cf0eea634fee8" target="_top" xlink:title=" ">
<polygon fill="none" stroke="black" points="593,-176.5 593,-206.5 723,-206.5 723,-176.5 593,-176.5"/>
<text text-anchor="start" x="601" y="-194.5" font-family="Helvetica,sans-Serif" font-size="10.00">wmtk::multimesh::utils</text>
<text text-anchor="middle" x="658" y="-183.5" font-family="Helvetica,sans-Serif" font-size="10.00">::transport_tuple</text>
</a>
</g>
</g>
<!-- Node8&#45;&gt;Node27 -->
<g id="edge30" class="edge">
<title>Node8&#45;&gt;Node27</title>
<path fill="none" stroke="midnightblue" d="M537.17,-178.42C552.24,-180.06 567.9,-181.77 582.73,-183.39"/>
<polygon fill="midnightblue" stroke="midnightblue" points="582.53,-186.89 592.85,-184.5 583.29,-179.93 582.53,-186.89"/>
</g>
<!-- Node10 -->
<g id="node10" class="node">
<title>Node10</title>
<g id="a_node10"><a xlink:href="namespacewmtk_1_1multimesh_1_1utils.html#a7382ca1de4356752b14e745f23b6892d" target="_top" xlink:title=" ">
<polygon fill="none" stroke="black" points="793,-88.5 793,-118.5 923,-118.5 923,-88.5 793,-88.5"/>
<text text-anchor="start" x="801" y="-106.5" font-family="Helvetica,sans-Serif" font-size="10.00">wmtk::multimesh::utils</text>
<text text-anchor="middle" x="858" y="-95.5" font-family="Helvetica,sans-Serif" font-size="10.00">::vectors_to_tuples</text>
</a>
</g>
</g>
<!-- Node9&#45;&gt;Node10 -->
<g id="edge9" class="edge">
<title>Node9&#45;&gt;Node10</title>
<path fill="none" stroke="midnightblue" d="M732.73,-103.5C749.12,-103.5 766.5,-103.5 782.9,-103.5"/>
<polygon fill="midnightblue" stroke="midnightblue" points="782.97,-107 792.97,-103.5 782.97,-100 782.97,-107"/>
</g>
<!-- Node11 -->
<g id="node11" class="node">
<title>Node11</title>
<g id="a_node11"><a xlink:href="namespacewmtk_1_1multimesh_1_1utils.html#afcaf5933957666eacc341add3d727960" target="_top" xlink:title=" ">
<polygon fill="none" stroke="black" points="982,-88.5 982,-118.5 1112,-118.5 1112,-88.5 982,-88.5"/>
<text text-anchor="start" x="990" y="-106.5" font-family="Helvetica,sans-Serif" font-size="10.00">wmtk::multimesh::utils</text>
<text text-anchor="middle" x="1047" y="-95.5" font-family="Helvetica,sans-Serif" font-size="10.00">::vector_to_tuple</text>
</a>
</g>
</g>
<!-- Node10&#45;&gt;Node11 -->
<g id="edge10" class="edge">
<title>Node10&#45;&gt;Node11</title>
<path fill="none" stroke="midnightblue" d="M923.09,-103.5C938.7,-103.5 955.53,-103.5 971.58,-103.5"/>
<polygon fill="midnightblue" stroke="midnightblue" points="971.99,-107 981.99,-103.5 971.99,-100 971.99,-107"/>
</g>
<!-- Node12 -->
<g id="node12" class="node">
<title>Node12</title>
<g id="a_node12"><a xlink:href="namespacewmtk_1_1multimesh_1_1utils.html#a335acc709f47df9fe96f4c2ed2e10585" target="_top" xlink:title=" ">
<polygon fill="none" stroke="black" points="1157,-137.5 1157,-167.5 1287,-167.5 1287,-137.5 1157,-137.5"/>
<text text-anchor="start" x="1165" y="-155.5" font-family="Helvetica,sans-Serif" font-size="10.00">wmtk::multimesh::utils</text>
<text text-anchor="middle" x="1222" y="-144.5" font-family="Helvetica,sans-Serif" font-size="10.00">::vector2_to_tuple</text>
</a>
</g>
</g>
<!-- Node11&#45;&gt;Node12 -->
<g id="edge11" class="edge">
<title>Node11&#45;&gt;Node12</title>
<path fill="none" stroke="midnightblue" d="M1101.32,-118.6C1119.24,-123.68 1139.41,-129.39 1158.01,-134.66"/>
<polygon fill="midnightblue" stroke="midnightblue" points="1157.28,-138.09 1167.86,-137.45 1159.19,-131.36 1157.28,-138.09"/>
</g>
<!-- Node13 -->
<g id="node13" class="node">
<title>Node13</title>
<g id="a_node13"><a xlink:href="namespacewmtk_1_1multimesh_1_1utils.html#a2645b98b3068060a73df0c8cc16b6a3d" target="_top" xlink:title=" ">
<polygon fill="none" stroke="black" points="1157,-88.5 1157,-118.5 1287,-118.5 1287,-88.5 1157,-88.5"/>
<text text-anchor="start" x="1165" y="-106.5" font-family="Helvetica,sans-Serif" font-size="10.00">wmtk::multimesh::utils</text>
<text text-anchor="middle" x="1222" y="-95.5" font-family="Helvetica,sans-Serif" font-size="10.00">::vector5_to_tuple</text>
</a>
</g>
</g>
<!-- Node11&#45;&gt;Node13 -->
<g id="edge12" class="edge">
<title>Node11&#45;&gt;Node13</title>
<path fill="none" stroke="midnightblue" d="M1112.42,-103.5C1123.53,-103.5 1135.15,-103.5 1146.5,-103.5"/>
<polygon fill="midnightblue" stroke="midnightblue" points="1146.82,-107 1156.82,-103.5 1146.82,-100 1146.82,-107"/>
</g>
<!-- Node15 -->
<g id="node15" class="node">
<title>Node15</title>
<g id="a_node15"><a xlink:href="classwmtk_1_1_mesh.html#a965a8a24158c4aa8580c57ba09f885f7" target="_top" xlink:title="switch the orientation of the Tuple of the given dimension">
<polygon fill="none" stroke="black" points="990,-252.5 990,-282.5 1104,-282.5 1104,-252.5 990,-252.5"/>
<text text-anchor="start" x="998" y="-270.5" font-family="Helvetica,sans-Serif" font-size="10.00">wmtk::Mesh::switch</text>
<text text-anchor="middle" x="1047" y="-259.5" font-family="Helvetica,sans-Serif" font-size="10.00">_tuple</text>
</a>
</g>
</g>
<!-- Node14&#45;&gt;Node15 -->
<g id="edge14" class="edge">
<title>Node14&#45;&gt;Node15</title>
<path fill="none" stroke="midnightblue" d="M728.25,-139.77C786.39,-136.15 870.39,-137.72 937,-166.5 975.98,-183.34 1009.89,-220.28 1029.14,-244.51"/>
<polygon fill="midnightblue" stroke="midnightblue" points="1026.44,-246.73 1035.32,-252.49 1031.97,-242.44 1026.44,-246.73"/>
</g>
<!-- Node17 -->
<g id="node17" class="node">
<title>Node17</title>
<g id="a_node17"><a xlink:href="classwmtk_1_1_edge_mesh.html#a534952cf2729f1509a380e3e9afb65b7" target="_top" xlink:title=" ">
<polygon fill="none" stroke="black" points="800.5,-411.5 800.5,-441.5 915.5,-441.5 915.5,-411.5 800.5,-411.5"/>
<text text-anchor="start" x="808.5" y="-429.5" font-family="Helvetica,sans-Serif" font-size="10.00">wmtk::EdgeMesh::is</text>
<text text-anchor="middle" x="858" y="-418.5" font-family="Helvetica,sans-Serif" font-size="10.00">_boundary_vertex</text>
</a>
</g>
</g>
<!-- Node16&#45;&gt;Node17 -->
<g id="edge16" class="edge">
<title>Node16&#45;&gt;Node17</title>
<path fill="none" stroke="midnightblue" d="M726.59,-397.52C747.19,-402.1 769.82,-407.13 790.36,-411.69"/>
<polygon fill="midnightblue" stroke="midnightblue" points="789.73,-415.14 800.25,-413.89 791.25,-408.3 789.73,-415.14"/>
</g>
<!-- Node22 -->
<g id="node22" class="node">
<title>Node22</title>
<g id="a_node22"><a xlink:href="classwmtk_1_1simplex_1_1_simplex.html#ad2cc0340a0772b7d6f03ba7a781d1163" target="_top" xlink:title=" ">
<polygon fill="none" stroke="black" points="790.5,-323.5 790.5,-353.5 925.5,-353.5 925.5,-323.5 790.5,-323.5"/>
<text text-anchor="start" x="798.5" y="-341.5" font-family="Helvetica,sans-Serif" font-size="10.00">wmtk::simplex::Simplex</text>
<text text-anchor="middle" x="858" y="-330.5" font-family="Helvetica,sans-Serif" font-size="10.00">::primitive_type</text>
</a>
</g>
</g>
<!-- Node16&#45;&gt;Node22 -->
<g id="edge24" class="edge">
<title>Node16&#45;&gt;Node22</title>
<path fill="none" stroke="midnightblue" d="M726.59,-367.48C743.98,-363.62 762.81,-359.43 780.62,-355.47"/>
<polygon fill="midnightblue" stroke="midnightblue" points="781.39,-358.89 790.39,-353.3 779.87,-352.06 781.39,-358.89"/>
</g>
<!-- Node23 -->
<g id="node23" class="node">
<title>Node23</title>
<g id="a_node23"><a xlink:href="classwmtk_1_1_mesh.html#a33805489402321155d4a1f7023faaf3a" target="_top" xlink:title=" ">
<polygon fill="none" stroke="black" points="786.5,-373 786.5,-392 929.5,-392 929.5,-373 786.5,-373"/>
<text text-anchor="middle" x="858" y="-380" font-family="Helvetica,sans-Serif" font-size="10.00">wmtk::Mesh::switch_edge</text>
</a>
</g>
</g>
<!-- Node16&#45;&gt;Node23 -->
<g id="edge25" class="edge">
<title>Node16&#45;&gt;Node23</title>
<path fill="none" stroke="midnightblue" d="M733.57,-382.5C747.51,-382.5 762.14,-382.5 776.25,-382.5"/>
<polygon fill="midnightblue" stroke="midnightblue" points="776.42,-386 786.42,-382.5 776.42,-379 776.42,-386"/>
</g>
<!-- Node16&#45;&gt;Node24 -->
<g id="edge27" class="edge">
<title>Node16&#45;&gt;Node24</title>
<path fill="none" stroke="midnightblue" d="M682.16,-397.53C705.8,-412.41 743.91,-435.13 779,-450.5 784.26,-452.8 789.8,-455 795.39,-457.07"/>
<polygon fill="midnightblue" stroke="midnightblue" points="794.24,-460.38 804.84,-460.43 796.59,-453.78 794.24,-460.38"/>
</g>
<!-- Node18 -->
<g id="node18" class="node">
<title>Node18</title>
<g id="a_node18"><a xlink:href="classwmtk_1_1_mesh.html#abbb1c54cfd6ec17f4730317ee5fab78d" target="_top" xlink:title=" ">
<polygon fill="none" stroke="black" points="973,-324 973,-343 1121,-343 1121,-324 973,-324"/>
<text text-anchor="middle" x="1047" y="-331" font-family="Helvetica,sans-Serif" font-size="10.00">wmtk::Mesh::is_valid_slow</text>
</a>
</g>
</g>
<!-- Node17&#45;&gt;Node18 -->
<g id="edge17" class="edge">
<title>Node17&#45;&gt;Node18</title>
<path fill="none" stroke="midnightblue" d="M912.13,-411.43C920.58,-408.48 929.13,-405.15 937,-401.5 969.05,-386.65 1003.16,-364.15 1024.52,-349.14"/>
<polygon fill="midnightblue" stroke="midnightblue" points="1026.73,-351.87 1032.85,-343.22 1022.67,-346.16 1026.73,-351.87"/>
</g>
<!-- Node19 -->
<g id="node19" class="node">
<title>Node19</title>
<g id="a_node19"><a xlink:href="classwmtk_1_1_mesh.html#a92666fa5c4c8b680e9b4a9b3755689f0" target="_top" xlink:title=" ">
<polygon fill="none" stroke="black" points="1157,-318.5 1157,-348.5 1287,-348.5 1287,-318.5 1157,-318.5"/>
<text text-anchor="start" x="1165" y="-336.5" font-family="Helvetica,sans-Serif" font-size="10.00">wmtk::Mesh::get_const</text>
<text text-anchor="middle" x="1222" y="-325.5" font-family="Helvetica,sans-Serif" font-size="10.00">_cell_hash_accessor</text>
</a>
</g>
</g>
<!-- Node18&#45;&gt;Node19 -->
<g id="edge18" class="edge">
<title>Node18&#45;&gt;Node19</title>
<path fill="none" stroke="midnightblue" d="M1121.12,-333.5C1129.57,-333.5 1138.21,-333.5 1146.68,-333.5"/>
<polygon fill="midnightblue" stroke="midnightblue" points="1146.91,-337 1156.91,-333.5 1146.91,-330 1146.91,-337"/>
</g>
<!-- Node21 -->
<g id="node21" class="node">
<title>Node21</title>
<g id="a_node21"><a xlink:href="classwmtk_1_1_mesh.html#a8c09a3ed591ffbb0e59c83948970d121" target="_top" xlink:title="check validity of tuple including its hash">
<polygon fill="none" stroke="black" points="1162,-280 1162,-299 1282,-299 1282,-280 1162,-280"/>
<text text-anchor="middle" x="1222" y="-287" font-family="Helvetica,sans-Serif" font-size="10.00">wmtk::Mesh::is_valid</text>
</a>
</g>
</g>
<!-- Node18&#45;&gt;Node21 -->
<g id="edge23" class="edge">
<title>Node18&#45;&gt;Node21</title>
<path fill="none" stroke="midnightblue" d="M1085.54,-323.95C1111.38,-317.38 1145.92,-308.6 1173.65,-301.54"/>
<polygon fill="midnightblue" stroke="midnightblue" points="1174.71,-304.89 1183.53,-299.03 1172.98,-298.1 1174.71,-304.89"/>
</g>
<!-- Node20 -->
<g id="node20" class="node">
<title>Node20</title>
<g id="a_node20"><a xlink:href="classwmtk_1_1_mesh.html#aec980d09bb50f645d6c1c5e604e091c6" target="_top" xlink:title=" ">
<polygon fill="none" stroke="black" points="1323,-159.5 1323,-189.5 1436,-189.5 1436,-159.5 1323,-159.5"/>
<text text-anchor="start" x="1331" y="-177.5" font-family="Helvetica,sans-Serif" font-size="10.00">wmtk::Mesh::create</text>
<text text-anchor="middle" x="1379.5" y="-166.5" font-family="Helvetica,sans-Serif" font-size="10.00">_const_accessor</text>
</a>
</g>
</g>
<!-- Node19&#45;&gt;Node20 -->
<g id="edge19" class="edge">
<title>Node19&#45;&gt;Node20</title>
<path fill="none" stroke="midnightblue" d="M1271.23,-318.37C1276.84,-315.56 1282.24,-312.29 1287,-308.5 1324.83,-278.4 1353.06,-228.45 1367.56,-198.78"/>
<polygon fill="midnightblue" stroke="midnightblue" points="1370.81,-200.08 1371.94,-189.55 1364.49,-197.08 1370.81,-200.08"/>
</g>
<!-- Node20&#45;&gt;Node4 -->
<g id="edge20" class="edge">
<title>Node20&#45;&gt;Node4</title>
<path fill="none" stroke="midnightblue" d="M1436.03,-166.84C1444.34,-165.69 1453.1,-164.49 1461.93,-163.27"/>
<polygon fill="midnightblue" stroke="midnightblue" points="1462.48,-166.73 1471.91,-161.89 1461.52,-159.79 1462.48,-166.73"/>
</g>
<!-- Node20&#45;&gt;Node5 -->
<g id="edge21" class="edge">
<title>Node20&#45;&gt;Node5</title>
<path fill="none" stroke="midnightblue" d="M1416.16,-159.49C1422.85,-156.38 1429.71,-152.98 1436,-149.5 1452.82,-140.19 1454.57,-133.61 1472,-125.5 1476.26,-123.52 1480.71,-121.66 1485.25,-119.93"/>
<polygon fill="midnightblue" stroke="midnightblue" points="1486.44,-123.22 1494.67,-116.55 1484.07,-116.64 1486.44,-123.22"/>
</g>
<!-- Node20&#45;&gt;Node6 -->
<g id="edge22" class="edge">
<title>Node20&#45;&gt;Node6</title>
<path fill="none" stroke="midnightblue" d="M1436.03,-182.48C1444.34,-183.67 1453.1,-184.93 1461.93,-186.2"/>
<polygon fill="midnightblue" stroke="midnightblue" points="1461.51,-189.68 1471.91,-187.63 1462.51,-182.75 1461.51,-189.68"/>
</g>
<!-- Node23&#45;&gt;Node15 -->
<g id="edge26" class="edge">
<title>Node23&#45;&gt;Node15</title>
<path fill="none" stroke="midnightblue" d="M915.52,-372.92C923.1,-370.25 930.49,-366.85 937,-362.5 959.17,-347.68 953.48,-332.67 973,-314.5 983.74,-304.5 996.87,-295.31 1009.02,-287.76"/>
<polygon fill="midnightblue" stroke="midnightblue" points="1010.89,-290.72 1017.65,-282.56 1007.27,-284.72 1010.89,-290.72"/>
</g>
<!-- Node26 -->
<g id="node26" class="node">
<title>Node26</title>
<g id="a_node26"><a xlink:href="classwmtk_1_1_mesh.html#ac1e12857f52985bd548a968a4c819659" target="_top" xlink:title=" ">
<polygon fill="none" stroke="black" points="797.5,-274.5 797.5,-304.5 918.5,-304.5 918.5,-274.5 797.5,-274.5"/>
<text text-anchor="start" x="805.5" y="-292.5" font-family="Helvetica,sans-Serif" font-size="10.00">wmtk::Mesh::top_cell</text>
<text text-anchor="middle" x="858" y="-281.5" font-family="Helvetica,sans-Serif" font-size="10.00">_dimension</text>
</a>
</g>
</g>
<!-- Node25&#45;&gt;Node26 -->
<g id="edge29" class="edge">
<title>Node25&#45;&gt;Node26</title>
<path fill="none" stroke="midnightblue" d="M728.81,-272.02C747.78,-274.61 768.32,-277.41 787.28,-279.99"/>
<polygon fill="midnightblue" stroke="midnightblue" points="786.96,-283.48 797.34,-281.36 787.9,-276.54 786.96,-283.48"/>
</g>
<!-- Node28 -->
<g id="node28" class="node">
<title>Node28</title>
<g id="a_node28"><a xlink:href="namespacewmtk_1_1multimesh_1_1utils.html#a99cdf56ec6abe68409d30e0b67f4ce82" target="_top" xlink:title=" ">
<polygon fill="none" stroke="black" points="779,-225.5 779,-255.5 937,-255.5 937,-225.5 779,-225.5"/>
<text text-anchor="start" x="787" y="-243.5" font-family="Helvetica,sans-Serif" font-size="10.00">wmtk::multimesh::utils</text>
<text text-anchor="middle" x="858" y="-232.5" font-family="Helvetica,sans-Serif" font-size="10.00">::find_local_switch_sequence</text>
</a>
</g>
</g>
<!-- Node27&#45;&gt;Node28 -->
<g id="edge31" class="edge">
<title>Node27&#45;&gt;Node28</title>
<path fill="none" stroke="midnightblue" d="M719.75,-206.53C740.85,-211.76 764.68,-217.65 786.5,-223.05"/>
<polygon fill="midnightblue" stroke="midnightblue" points="785.81,-226.49 796.36,-225.49 787.5,-219.69 785.81,-226.49"/>
</g>
<!-- Node29 -->
<g id="node29" class="node">
<title>Node29</title>
<g id="a_node29"><a xlink:href="namespacewmtk_1_1multimesh_1_1utils.html#af71d6d20a76616d671ae5f53350107b4" target="_top" xlink:title=" ">
<polygon fill="none" stroke="black" points="793,-176.5 793,-206.5 923,-206.5 923,-176.5 793,-176.5"/>
<text text-anchor="start" x="801" y="-194.5" font-family="Helvetica,sans-Serif" font-size="10.00">wmtk::multimesh::utils</text>
<text text-anchor="middle" x="858" y="-183.5" font-family="Helvetica,sans-Serif" font-size="10.00">::local_switch_tuples</text>
</a>
</g>
</g>
<!-- Node27&#45;&gt;Node29 -->
<g id="edge32" class="edge">
<title>Node27&#45;&gt;Node29</title>
<path fill="none" stroke="midnightblue" d="M723.01,-191.5C742.06,-191.5 763.1,-191.5 782.74,-191.5"/>
<polygon fill="midnightblue" stroke="midnightblue" points="782.87,-195 792.87,-191.5 782.87,-188 782.87,-195"/>
</g>
</g>
</svg>
        <g id="navigator" transform="translate(0 0)" fill="#404254">
                <rect fill="#f2f5e9" fill-opacity="0.5" stroke="#606060" stroke-width=".5" x="0" y="0" width="60" height="60"/>
                <use id="zoomplus" xlink:href="#zoomPlus" x="17" y="9" onmousedown="handleZoom(evt,'in')"/>
                <use id="zoomminus" xlink:href="#zoomMin" x="42" y="9" onmousedown="handleZoom(evt,'out')"/>
                <use id="reset" xlink:href="#resetDef" x="30" y="36" onmousedown="handleReset()"/>
                <g id="arrowUp" xlink:href="#dirArrow" transform="translate(30 24)" onmousedown="handlePan(0,-1)">
                  <use xlink:href="#rim" fill="#404040">
                        <set attributeName="fill" to="#808080" begin="arrowUp.mouseover" end="arrowUp.mouseout"/>
                  </use>
                  <path fill="none" stroke="white" stroke-width="1.5" d="M0,-3.0v7 M-2.5,-0.5L0,-3.0L2.5,-0.5"/>
                </g>
                <g id="arrowRight" xlink:href="#dirArrow" transform="rotate(90) translate(36 -43)" onmousedown="handlePan(1,0)">
                  <use xlink:href="#rim" fill="#404040">
                        <set attributeName="fill" to="#808080" begin="arrowRight.mouseover" end="arrowRight.mouseout"/>
                  </use>
                  <path fill="none" stroke="white" stroke-width="1.5" d="M0,-3.0v7 M-2.5,-0.5L0,-3.0L2.5,-0.5"/>
                </g>
                <g id="arrowDown" xlink:href="#dirArrow" transform="rotate(180) translate(-30 -48)" onmousedown="handlePan(0,1)">
                  <use xlink:href="#rim" fill="#404040">
                        <set attributeName="fill" to="#808080" begin="arrowDown.mouseover" end="arrowDown.mouseout"/>
                  </use>
                  <path fill="none" stroke="white" stroke-width="1.5" d="M0,-3.0v7 M-2.5,-0.5L0,-3.0L2.5,-0.5"/>
                </g>
                <g id="arrowLeft" xlink:href="#dirArrow" transform="rotate(270) translate(-36 17)" onmousedown="handlePan(-1,0)">
                  <use xlink:href="#rim" fill="#404040">
                        <set attributeName="fill" to="#808080" begin="arrowLeft.mouseover" end="arrowLeft.mouseout"/>
                  </use>
                  <path fill="none" stroke="white" stroke-width="1.5" d="M0,-3.0v7 M-2.5,-0.5L0,-3.0L2.5,-0.5"/>
                </g>
        </g>
        <svg viewBox="0 0 15 15" width="100%" height="30px" preserveAspectRatio="xMaxYMin meet">
         <g id="arrow_out" transform="scale(0.3 0.3)">
          <a xlink:href="classwmtk_1_1_multi_mesh_manager_ad29781419f888eb531d347dd7c84092e_cgraph_org.svg" target="_base">
           <rect id="button" ry="5" rx="5" y="6" x="6" height="38" width="38"
                fill="#f2f5e9" fill-opacity="0.5" stroke="#606060" stroke-width="1.0"/>
           <path id="arrow"
             d="M 11.500037,31.436501 C 11.940474,20.09759 22.043105,11.32322 32.158766,21.979434 L 37.068811,17.246167 C 37.068811,17.246167 37.088388,32 37.088388,32 L 22.160133,31.978069 C 22.160133,31.978069 26.997745,27.140456 26.997745,27.140456 C 18.528582,18.264221 13.291696,25.230495 11.500037,31.436501 z"
             style="fill:#404040;"/>
          </a>
         </g>
        </svg>
</svg>
