<?xml version="1.0" encoding="UTF-8" standalone="no"?>
<!DOCTYPE svg PUBLIC "-//W3C//DTD SVG 1.1//EN"
 "http://www.w3.org/Graphics/SVG/1.1/DTD/svg11.dtd">
<!-- Generated by graphviz version 2.43.0 (0)
 -->
<!-- Title: wmtk::operations::utils::UpdateEdgeOperationMultiMeshMapFunctor::operator() Pages: 1 -->
<!--zoomable 516 -->
<svg id="main" version="1.1" xmlns="http://www.w3.org/2000/svg" xmlns:xlink="http://www.w3.org/1999/xlink" xml:space="preserve" onload="init(evt)">
<style type="text/css"><![CDATA[
.edge:hover path { stroke: red; }
.edge:hover polygon { stroke: red; fill: red; }
]]></style>
<script type="text/javascript"><![CDATA[
var edges = document.getElementsByTagName('g');
if (edges && edges.length) {
  for (var i=0;i<edges.length;i++) {
    if (edges[i].id.substr(0,4)=='edge') {
      edges[i].setAttribute('class','edge');
    }
  }
}
]]></script>
        <defs>
                <circle id="rim" cx="0" cy="0" r="7"/>
                <circle id="rim2" cx="0" cy="0" r="3.5"/>
                <g id="zoomPlus">
                        <use xlink:href="#rim" fill="#404040">
                                <set attributeName="fill" to="#808080" begin="zoomplus.mouseover" end="zoomplus.mouseout"/>
                        </use>
                        <path d="M-4,0h8M0,-4v8" fill="none" stroke="white" stroke-width="1.5" pointer-events="none"/>
                </g>
                <g id="zoomMin">
                        <use xlink:href="#rim" fill="#404040">
                                <set attributeName="fill" to="#808080" begin="zoomminus.mouseover" end="zoomminus.mouseout"/>
                        </use>
                        <path d="M-4,0h8" fill="none" stroke="white" stroke-width="1.5" pointer-events="none"/>
                </g>
                <g id="dirArrow">
                        <path fill="none" stroke="white" stroke-width="1.5" d="M0,-3.0v7 M-2.5,-0.5L0,-3.0L2.5,-0.5"/>
                </g>
               <g id="resetDef">
                       <use xlink:href="#rim2" fill="#404040">
                               <set attributeName="fill" to="#808080" begin="reset.mouseover" end="reset.mouseout"/>
                       </use>
               </g>
        </defs>

<script type="text/javascript">
var viewWidth = 1381;
var viewHeight = 516;
var sectionId = 'dynsection-8';
</script>
<script xlink:href="svgpan.js"/>
<svg id="graph" class="graph">
<g id="viewport">
<title>wmtk::operations::utils::UpdateEdgeOperationMultiMeshMapFunctor::operator()</title>
<!-- Node1 -->
<g id="node1" class="node">
<title>Node1</title>
<g id="a_node1"><a xlink:title=" ">
<polygon fill="#bfbfbf" stroke="black" points="0,-275 0,-316 181,-316 181,-275 0,-275"/>
<text text-anchor="start" x="8" y="-304" font-family="Helvetica,sans-Serif" font-size="10.00">wmtk::operations::utils</text>
<text text-anchor="start" x="8" y="-293" font-family="Helvetica,sans-Serif" font-size="10.00">::UpdateEdgeOperationMultiMesh</text>
<text text-anchor="middle" x="90.5" y="-282" font-family="Helvetica,sans-Serif" font-size="10.00">MapFunctor::operator()</text>
</a>
</g>
</g>
<!-- Node2 -->
<g id="node2" class="node">
<title>Node2</title>
<g id="a_node2"><a xlink:href="classwmtk_1_1_mesh.html#aa46034e33f1e4f5e91e721df5685fb11" target="_top" xlink:title=" ">
<polygon fill="none" stroke="black" points="1039.5,-452.5 1039.5,-482.5 1152.5,-482.5 1152.5,-452.5 1039.5,-452.5"/>
<text text-anchor="start" x="1047.5" y="-470.5" font-family="Helvetica,sans-Serif" font-size="10.00">wmtk::Mesh::create</text>
<text text-anchor="middle" x="1096" y="-459.5" font-family="Helvetica,sans-Serif" font-size="10.00">_accessor</text>
</a>
</g>
</g>
<!-- Node1&#45;&gt;Node2 -->
<g id="edge1" class="edge">
<title>Node1&#45;&gt;Node2</title>
<path fill="none" stroke="midnightblue" d="M107.21,-316.38C128.79,-343.43 170.28,-389.91 217,-413.5 336.38,-473.77 379.27,-467.5 513,-467.5 513,-467.5 513,-467.5 711,-467.5 822.58,-467.5 952.41,-467.5 1028.92,-467.5"/>
<polygon fill="midnightblue" stroke="midnightblue" points="1029.36,-471 1039.36,-467.5 1029.36,-464 1029.36,-471"/>
</g>
<!-- Node6 -->
<g id="node6" class="node">
<title>Node6</title>
<g id="a_node6"><a xlink:href="classwmtk_1_1operations_1_1tri__mesh_1_1_edge_operation_data.html#abbc7494d3fd150b1d4f23d43645c0ac8" target="_top" xlink:title=" ">
<polygon fill="none" stroke="black" points="232.5,-215 232.5,-256 382.5,-256 382.5,-215 232.5,-215"/>
<text text-anchor="start" x="240.5" y="-244" font-family="Helvetica,sans-Serif" font-size="10.00">wmtk::operations::tri</text>
<text text-anchor="start" x="240.5" y="-233" font-family="Helvetica,sans-Serif" font-size="10.00">_mesh::EdgeOperationData</text>
<text text-anchor="middle" x="307.5" y="-222" font-family="Helvetica,sans-Serif" font-size="10.00">::incident_face_datas</text>
</a>
</g>
</g>
<!-- Node1&#45;&gt;Node6 -->
<g id="edge5" class="edge">
<title>Node1&#45;&gt;Node6</title>
<path fill="none" stroke="midnightblue" d="M165.19,-274.94C183.82,-269.74 203.96,-264.11 223.04,-258.79"/>
<polygon fill="midnightblue" stroke="midnightblue" points="224.22,-262.1 232.91,-256.04 222.33,-255.35 224.22,-262.1"/>
</g>
<!-- Node7 -->
<g id="node7" class="node">
<title>Node7</title>
<g id="a_node7"><a xlink:href="classwmtk_1_1operations_1_1tri__mesh_1_1_edge_operation_data.html#a54ae6b0403d9d62306f3e187fb59a561" target="_top" xlink:title=" ">
<polygon fill="none" stroke="black" points="232.5,-155 232.5,-196 382.5,-196 382.5,-155 232.5,-155"/>
<text text-anchor="start" x="240.5" y="-184" font-family="Helvetica,sans-Serif" font-size="10.00">wmtk::operations::tri</text>
<text text-anchor="start" x="240.5" y="-173" font-family="Helvetica,sans-Serif" font-size="10.00">_mesh::EdgeOperationData</text>
<text text-anchor="middle" x="307.5" y="-162" font-family="Helvetica,sans-Serif" font-size="10.00">::incident_vids</text>
</a>
</g>
</g>
<!-- Node1&#45;&gt;Node7 -->
<g id="edge6" class="edge">
<title>Node1&#45;&gt;Node7</title>
<path fill="none" stroke="midnightblue" d="M115.55,-274.89C139.83,-254.93 179.05,-224.91 217,-205.5 220.78,-203.57 224.7,-201.72 228.71,-199.96"/>
<polygon fill="midnightblue" stroke="midnightblue" points="230.3,-203.09 238.18,-196.01 227.6,-196.63 230.3,-203.09"/>
</g>
<!-- Node8 -->
<g id="node8" class="node">
<title>Node8</title>
<g id="a_node8"><a xlink:href="classwmtk_1_1_mesh.html#abbb1c54cfd6ec17f4730317ee5fab78d" target="_top" xlink:title=" ">
<polygon fill="none" stroke="black" points="233.5,-385 233.5,-404 381.5,-404 381.5,-385 233.5,-385"/>
<text text-anchor="middle" x="307.5" y="-392" font-family="Helvetica,sans-Serif" font-size="10.00">wmtk::Mesh::is_valid_slow</text>
</a>
</g>
</g>
<!-- Node1&#45;&gt;Node8 -->
<g id="edge7" class="edge">
<title>Node1&#45;&gt;Node8</title>
<path fill="none" stroke="midnightblue" d="M117.85,-316.3C142.24,-334.54 180.17,-360.43 217,-375.5 223.32,-378.09 230.04,-380.34 236.86,-382.3"/>
<polygon fill="midnightblue" stroke="midnightblue" points="236.3,-385.77 246.86,-384.96 238.1,-379.01 236.3,-385.77"/>
</g>
<!-- Node12 -->
<g id="node12" class="node">
<title>Node12</title>
<g id="a_node12"><a xlink:href="classwmtk_1_1operations_1_1utils_1_1_update_edge_operation_multi_mesh_map_functor.html#a2297ac950a7bf7e54b63c3c860cb2e5b" target="_top" xlink:title=" ">
<polygon fill="none" stroke="black" points="217,-275 217,-316 398,-316 398,-275 217,-275"/>
<text text-anchor="start" x="225" y="-304" font-family="Helvetica,sans-Serif" font-size="10.00">wmtk::operations::utils</text>
<text text-anchor="start" x="225" y="-293" font-family="Helvetica,sans-Serif" font-size="10.00">::UpdateEdgeOperationMultiMesh</text>
<text text-anchor="middle" x="307.5" y="-282" font-family="Helvetica,sans-Serif" font-size="10.00">MapFunctor::parent_global_cid</text>
</a>
</g>
</g>
<!-- Node1&#45;&gt;Node12 -->
<g id="edge14" class="edge">
<title>Node1&#45;&gt;Node12</title>
<path fill="none" stroke="midnightblue" d="M181.12,-295.5C189.48,-295.5 197.98,-295.5 206.42,-295.5"/>
<polygon fill="midnightblue" stroke="midnightblue" points="206.68,-299 216.68,-295.5 206.68,-292 206.68,-299"/>
</g>
<!-- Node17 -->
<g id="node17" class="node">
<title>Node17</title>
<g id="a_node17"><a xlink:href="namespacewmtk_1_1multimesh_1_1utils.html#a3e738c974c80637ea0e2e9a6f5abc46f" target="_top" xlink:title=" ">
<polygon fill="none" stroke="black" points="240,-95 240,-136 375,-136 375,-95 240,-95"/>
<text text-anchor="start" x="248" y="-124" font-family="Helvetica,sans-Serif" font-size="10.00">wmtk::multimesh::utils</text>
<text text-anchor="start" x="248" y="-113" font-family="Helvetica,sans-Serif" font-size="10.00">::symmetric_write_tuple</text>
<text text-anchor="middle" x="307.5" y="-102" font-family="Helvetica,sans-Serif" font-size="10.00">_map_attributes</text>
</a>
</g>
</g>
<!-- Node1&#45;&gt;Node17 -->
<g id="edge19" class="edge">
<title>Node1&#45;&gt;Node17</title>
<path fill="none" stroke="midnightblue" d="M103.45,-274.93C123.14,-242.8 165.39,-180.71 217,-145.5 221.29,-142.57 225.89,-139.91 230.65,-137.49"/>
<polygon fill="midnightblue" stroke="midnightblue" points="232.41,-140.54 239.99,-133.14 229.45,-134.2 232.41,-140.54"/>
</g>
<!-- Node36 -->
<g id="node36" class="node">
<title>Node36</title>
<g id="a_node36"><a xlink:href="classwmtk_1_1_tri_mesh.html#a67a70482852aa4ac6583cf4c36d91767" target="_top" xlink:title=" ">
<polygon fill="none" stroke="black" points="248,-335.5 248,-365.5 367,-365.5 367,-335.5 248,-335.5"/>
<text text-anchor="start" x="256" y="-353.5" font-family="Helvetica,sans-Serif" font-size="10.00">wmtk::TriMesh::tuple</text>
<text text-anchor="middle" x="307.5" y="-342.5" font-family="Helvetica,sans-Serif" font-size="10.00">_from_global_ids</text>
</a>
</g>
</g>
<!-- Node1&#45;&gt;Node36 -->
<g id="edge49" class="edge">
<title>Node1&#45;&gt;Node36</title>
<path fill="none" stroke="midnightblue" d="M171.86,-316.06C193.59,-321.62 216.9,-327.58 237.91,-332.95"/>
<polygon fill="midnightblue" stroke="midnightblue" points="237.15,-336.37 247.71,-335.46 238.89,-329.59 237.15,-336.37"/>
</g>
<!-- Node3 -->
<g id="node3" class="node">
<title>Node3</title>
<g id="a_node3"><a xlink:href="classwmtk_1_1attribute_1_1_mesh_attribute_handle.html#ac326961f01b9ba4fec395827f15a7ef2" target="_top" xlink:title=" ">
<polygon fill="none" stroke="black" points="1206,-477.5 1206,-507.5 1373,-507.5 1373,-477.5 1206,-477.5"/>
<text text-anchor="start" x="1214" y="-495.5" font-family="Helvetica,sans-Serif" font-size="10.00">wmtk::attribute::MeshAttribute</text>
<text text-anchor="middle" x="1289.5" y="-484.5" font-family="Helvetica,sans-Serif" font-size="10.00">Handle::as</text>
</a>
</g>
</g>
<!-- Node2&#45;&gt;Node3 -->
<g id="edge2" class="edge">
<title>Node2&#45;&gt;Node3</title>
<path fill="none" stroke="midnightblue" d="M1152.65,-474.76C1166.2,-476.53 1181.05,-478.47 1195.81,-480.4"/>
<polygon fill="midnightblue" stroke="midnightblue" points="1195.63,-483.91 1206,-481.73 1196.53,-476.96 1195.63,-483.91"/>
</g>
<!-- Node4 -->
<g id="node4" class="node">
<title>Node4</title>
<g id="a_node4"><a xlink:href="classwmtk_1_1attribute_1_1_mesh_attribute_handle.html#a2b86caeb22b007b85b138ebc6b0ed837" target="_top" xlink:title=" ">
<polygon fill="none" stroke="black" points="1206,-428.5 1206,-458.5 1373,-458.5 1373,-428.5 1206,-428.5"/>
<text text-anchor="start" x="1214" y="-446.5" font-family="Helvetica,sans-Serif" font-size="10.00">wmtk::attribute::MeshAttribute</text>
<text text-anchor="middle" x="1289.5" y="-435.5" font-family="Helvetica,sans-Serif" font-size="10.00">Handle::holds</text>
</a>
</g>
</g>
<!-- Node2&#45;&gt;Node4 -->
<g id="edge3" class="edge">
<title>Node2&#45;&gt;Node4</title>
<path fill="none" stroke="midnightblue" d="M1152.65,-460.53C1166.2,-458.83 1181.05,-456.97 1195.81,-455.12"/>
<polygon fill="midnightblue" stroke="midnightblue" points="1196.51,-458.56 1206,-453.84 1195.64,-451.61 1196.51,-458.56"/>
</g>
<!-- Node5 -->
<g id="node5" class="node">
<title>Node5</title>
<g id="a_node5"><a xlink:href="classwmtk_1_1attribute_1_1_mesh_attribute_handle.html#a620620d54776b2c5f4f9cebad465cfa7" target="_top" xlink:title=" ">
<polygon fill="none" stroke="black" points="1206,-379.5 1206,-409.5 1373,-409.5 1373,-379.5 1206,-379.5"/>
<text text-anchor="start" x="1214" y="-397.5" font-family="Helvetica,sans-Serif" font-size="10.00">wmtk::attribute::MeshAttribute</text>
<text text-anchor="middle" x="1289.5" y="-386.5" font-family="Helvetica,sans-Serif" font-size="10.00">Handle::mesh</text>
</a>
</g>
</g>
<!-- Node2&#45;&gt;Node5 -->
<g id="edge4" class="edge">
<title>Node2&#45;&gt;Node5</title>
<path fill="none" stroke="midnightblue" d="M1148.75,-452.43C1156.01,-449.76 1163.28,-446.77 1170,-443.5 1187.29,-435.09 1188.61,-427.71 1206,-419.5 1210.91,-417.18 1216.08,-415.02 1221.34,-413.02"/>
<polygon fill="midnightblue" stroke="midnightblue" points="1222.65,-416.27 1230.87,-409.58 1220.28,-409.68 1222.65,-416.27"/>
</g>
<!-- Node9 -->
<g id="node9" class="node">
<title>Node9</title>
<g id="a_node9"><a xlink:href="classwmtk_1_1_mesh.html#adf199d6a3ce6badd8bfa0e2ab3a1c1aa" target="_top" xlink:title=" ">
<polygon fill="none" stroke="black" points="841,-403.5 841,-433.5 971,-433.5 971,-403.5 841,-403.5"/>
<text text-anchor="start" x="849" y="-421.5" font-family="Helvetica,sans-Serif" font-size="10.00">wmtk::Mesh::get_const</text>
<text text-anchor="middle" x="906" y="-410.5" font-family="Helvetica,sans-Serif" font-size="10.00">_cell_hash_accessor</text>
</a>
</g>
</g>
<!-- Node8&#45;&gt;Node9 -->
<g id="edge8" class="edge">
<title>Node8&#45;&gt;Node9</title>
<path fill="none" stroke="midnightblue" d="M372.53,-404.04C392.21,-406.6 413.95,-409.06 434,-410.5 573.95,-420.58 737.87,-420.74 830.76,-419.75"/>
<polygon fill="midnightblue" stroke="midnightblue" points="830.95,-423.25 840.91,-419.64 830.87,-416.25 830.95,-423.25"/>
</g>
<!-- Node11 -->
<g id="node11" class="node">
<title>Node11</title>
<g id="a_node11"><a xlink:href="classwmtk_1_1_mesh.html#a918c509096fc08691924c05c6143b9c3" target="_top" xlink:title="check validity of tuple including its hash">
<polygon fill="none" stroke="black" points="454,-382 454,-401 574,-401 574,-382 454,-382"/>
<text text-anchor="middle" x="514" y="-389" font-family="Helvetica,sans-Serif" font-size="10.00">wmtk::Mesh::is_valid</text>
</a>
</g>
</g>
<!-- Node8&#45;&gt;Node11 -->
<g id="edge13" class="edge">
<title>Node8&#45;&gt;Node11</title>
<path fill="none" stroke="midnightblue" d="M381.75,-393.43C401.86,-393.13 423.59,-392.81 443.48,-392.52"/>
<polygon fill="midnightblue" stroke="midnightblue" points="443.75,-396.02 453.69,-392.37 443.64,-389.02 443.75,-396.02"/>
</g>
<!-- Node10 -->
<g id="node10" class="node">
<title>Node10</title>
<g id="a_node10"><a xlink:href="classwmtk_1_1_mesh.html#a956cb71441391c99d736ec69c7467b61" target="_top" xlink:title=" ">
<polygon fill="none" stroke="black" points="1039.5,-403.5 1039.5,-433.5 1152.5,-433.5 1152.5,-403.5 1039.5,-403.5"/>
<text text-anchor="start" x="1047.5" y="-421.5" font-family="Helvetica,sans-Serif" font-size="10.00">wmtk::Mesh::create</text>
<text text-anchor="middle" x="1096" y="-410.5" font-family="Helvetica,sans-Serif" font-size="10.00">_const_accessor</text>
</a>
</g>
</g>
<!-- Node9&#45;&gt;Node10 -->
<g id="edge9" class="edge">
<title>Node9&#45;&gt;Node10</title>
<path fill="none" stroke="midnightblue" d="M971.17,-418.5C989.84,-418.5 1010.26,-418.5 1029.04,-418.5"/>
<polygon fill="midnightblue" stroke="midnightblue" points="1029.28,-422 1039.28,-418.5 1029.28,-415 1029.28,-422"/>
</g>
<!-- Node10&#45;&gt;Node3 -->
<g id="edge10" class="edge">
<title>Node10&#45;&gt;Node3</title>
<path fill="none" stroke="midnightblue" d="M1147.24,-433.64C1155.01,-436.57 1162.83,-439.87 1170,-443.5 1187.38,-452.3 1188.42,-460.11 1206,-468.5 1210.05,-470.43 1214.28,-472.24 1218.6,-473.93"/>
<polygon fill="midnightblue" stroke="midnightblue" points="1217.57,-477.28 1228.17,-477.43 1219.98,-470.7 1217.57,-477.28"/>
</g>
<!-- Node10&#45;&gt;Node4 -->
<g id="edge11" class="edge">
<title>Node10&#45;&gt;Node4</title>
<path fill="none" stroke="midnightblue" d="M1152.65,-425.76C1166.2,-427.53 1181.05,-429.47 1195.81,-431.4"/>
<polygon fill="midnightblue" stroke="midnightblue" points="1195.63,-434.91 1206,-432.73 1196.53,-427.96 1195.63,-434.91"/>
</g>
<!-- Node10&#45;&gt;Node5 -->
<g id="edge12" class="edge">
<title>Node10&#45;&gt;Node5</title>
<path fill="none" stroke="midnightblue" d="M1152.65,-411.53C1166.2,-409.83 1181.05,-407.97 1195.81,-406.12"/>
<polygon fill="midnightblue" stroke="midnightblue" points="1196.51,-409.56 1206,-404.84 1195.64,-402.61 1196.51,-409.56"/>
</g>
<!-- Node13 -->
<g id="node13" class="node">
<title>Node13</title>
<g id="a_node13"><a xlink:href="classwmtk_1_1multimesh_1_1_multi_mesh_manager.html#a6a1229bbd409f510c18bacc733079a74" target="_top" xlink:title=" ">
<polygon fill="none" stroke="black" points="434,-280.5 434,-310.5 594,-310.5 594,-280.5 434,-280.5"/>
<text text-anchor="start" x="442" y="-298.5" font-family="Helvetica,sans-Serif" font-size="10.00">wmtk::multimesh::MultiMesh</text>
<text text-anchor="middle" x="514" y="-287.5" font-family="Helvetica,sans-Serif" font-size="10.00">Manager::parent_global_cid</text>
</a>
</g>
</g>
<!-- Node12&#45;&gt;Node13 -->
<g id="edge15" class="edge">
<title>Node12&#45;&gt;Node13</title>
<path fill="none" stroke="midnightblue" d="M398.2,-295.5C406.67,-295.5 415.25,-295.5 423.72,-295.5"/>
<polygon fill="midnightblue" stroke="midnightblue" points="423.97,-299 433.97,-295.5 423.97,-292 423.97,-299"/>
</g>
<!-- Node14 -->
<g id="node14" class="node">
<title>Node14</title>
<g id="a_node14"><a xlink:href="classwmtk_1_1_mesh.html#a965a0d885c5a38af7c72253d1416118b" target="_top" xlink:title=" ">
<polygon fill="none" stroke="black" points="644.5,-280.5 644.5,-310.5 775.5,-310.5 775.5,-280.5 644.5,-280.5"/>
<text text-anchor="start" x="652.5" y="-298.5" font-family="Helvetica,sans-Serif" font-size="10.00">wmtk::Mesh::get_index</text>
<text text-anchor="middle" x="710" y="-287.5" font-family="Helvetica,sans-Serif" font-size="10.00">_access</text>
</a>
</g>
</g>
<!-- Node13&#45;&gt;Node14 -->
<g id="edge16" class="edge">
<title>Node13&#45;&gt;Node14</title>
<path fill="none" stroke="midnightblue" d="M594.19,-295.5C607.33,-295.5 620.93,-295.5 633.97,-295.5"/>
<polygon fill="midnightblue" stroke="midnightblue" points="634.28,-299 644.28,-295.5 634.28,-292 634.28,-299"/>
</g>
<!-- Node15 -->
<g id="node15" class="node">
<title>Node15</title>
<g id="a_node15"><a xlink:href="classwmtk_1_1attribute_1_1_accessor.html#a5e55c4e369b2dfeba31e579ee8fa06bf" target="_top" xlink:title=" ">
<polygon fill="none" stroke="black" points="835,-280.5 835,-310.5 977,-310.5 977,-280.5 835,-280.5"/>
<text text-anchor="start" x="843" y="-298.5" font-family="Helvetica,sans-Serif" font-size="10.00">wmtk::attribute::Accessor</text>
<text text-anchor="middle" x="906" y="-287.5" font-family="Helvetica,sans-Serif" font-size="10.00">::index_access</text>
</a>
</g>
</g>
<!-- Node14&#45;&gt;Node15 -->
<g id="edge17" class="edge">
<title>Node14&#45;&gt;Node15</title>
<path fill="none" stroke="midnightblue" d="M775.6,-295.5C791.3,-295.5 808.28,-295.5 824.61,-295.5"/>
<polygon fill="midnightblue" stroke="midnightblue" points="824.68,-299 834.68,-295.5 824.68,-292 824.68,-299"/>
</g>
<!-- Node16 -->
<g id="node16" class="node">
<title>Node16</title>
<g id="a_node16"><a xlink:href="classwmtk_1_1attribute_1_1_accessor.html#a9d0f9b5a16b8c3f40956fb9b4007f63a" target="_top" xlink:title=" ">
<polygon fill="none" stroke="black" points="1025,-280.5 1025,-310.5 1167,-310.5 1167,-280.5 1025,-280.5"/>
<text text-anchor="start" x="1033" y="-298.5" font-family="Helvetica,sans-Serif" font-size="10.00">wmtk::attribute::Accessor</text>
<text text-anchor="middle" x="1096" y="-287.5" font-family="Helvetica,sans-Serif" font-size="10.00">::caching_base_type</text>
</a>
</g>
</g>
<!-- Node15&#45;&gt;Node16 -->
<g id="edge18" class="edge">
<title>Node15&#45;&gt;Node16</title>
<path fill="none" stroke="midnightblue" d="M977,-295.5C989.36,-295.5 1002.31,-295.5 1014.92,-295.5"/>
<polygon fill="midnightblue" stroke="midnightblue" points="1014.94,-299 1024.94,-295.5 1014.94,-292 1014.94,-299"/>
</g>
<!-- Node18 -->
<g id="node18" class="node">
<title>Node18</title>
<g id="a_node18"><a xlink:href="classwmtk_1_1_mesh.html#a2102fdea06a0c543437e67d77aeb2013" target="_top" xlink:title="returns a unique identifier for this mesh within a single multimesh structure">
<polygon fill="none" stroke="black" points="451.5,-188.5 451.5,-218.5 576.5,-218.5 576.5,-188.5 451.5,-188.5"/>
<text text-anchor="start" x="459.5" y="-206.5" font-family="Helvetica,sans-Serif" font-size="10.00">wmtk::Mesh::absolute</text>
<text text-anchor="middle" x="514" y="-195.5" font-family="Helvetica,sans-Serif" font-size="10.00">_multi_mesh_id</text>
</a>
</g>
</g>
<!-- Node17&#45;&gt;Node18 -->
<g id="edge20" class="edge">
<title>Node17&#45;&gt;Node18</title>
<path fill="none" stroke="midnightblue" d="M375.06,-134.99C382.96,-138.12 390.78,-141.63 398,-145.5 415.86,-155.08 416.33,-163.57 434,-173.5 441.26,-177.58 449.19,-181.33 457.13,-184.69"/>
<polygon fill="midnightblue" stroke="midnightblue" points="455.83,-187.94 466.42,-188.45 458.46,-181.45 455.83,-187.94"/>
</g>
<!-- Node21 -->
<g id="node21" class="node">
<title>Node21</title>
<g id="a_node21"><a xlink:href="classwmtk_1_1utils_1_1_tuple_inspector.html#a7637fe37249cbe7262a4a5c931c40f75" target="_top" xlink:title=" ">
<polygon fill="none" stroke="black" points="1022,-147.5 1022,-177.5 1170,-177.5 1170,-147.5 1022,-147.5"/>
<text text-anchor="start" x="1030" y="-165.5" font-family="Helvetica,sans-Serif" font-size="10.00">wmtk::utils::TupleInspector</text>
<text text-anchor="middle" x="1096" y="-154.5" font-family="Helvetica,sans-Serif" font-size="10.00">::as_string</text>
</a>
</g>
</g>
<!-- Node17&#45;&gt;Node21 -->
<g id="edge24" class="edge">
<title>Node17&#45;&gt;Node21</title>
<path fill="none" stroke="midnightblue" d="M375.27,-130.9C394.15,-134.69 414.8,-138.28 434,-140.5 640.63,-164.36 885.82,-165.47 1011.53,-164.08"/>
<polygon fill="midnightblue" stroke="midnightblue" points="1011.89,-167.57 1021.84,-163.95 1011.8,-160.57 1011.89,-167.57"/>
</g>
<!-- Node27 -->
<g id="node27" class="node">
<title>Node27</title>
<g id="a_node27"><a xlink:href="namespacewmtk.html#a6a35f11c12436093d26fdd8be6fecc06" target="_top" xlink:title="Retrieves the current logger.">
<polygon fill="none" stroke="black" points="473.5,-62 473.5,-81 554.5,-81 554.5,-62 473.5,-62"/>
<text text-anchor="middle" x="514" y="-69" font-family="Helvetica,sans-Serif" font-size="10.00">wmtk::logger</text>
</a>
</g>
</g>
<!-- Node17&#45;&gt;Node27 -->
<g id="edge30" class="edge">
<title>Node17&#45;&gt;Node27</title>
<path fill="none" stroke="midnightblue" d="M375.18,-101.15C403.91,-94.97 436.92,-87.87 463.43,-82.16"/>
<polygon fill="midnightblue" stroke="midnightblue" points="464.21,-85.58 473.25,-80.05 462.74,-78.73 464.21,-85.58"/>
</g>
<!-- Node29 -->
<g id="node29" class="node">
<title>Node29</title>
<g id="a_node29"><a xlink:href="classwmtk_1_1attribute_1_1_accessor_base.html#ac6c48d82818148360fa7e9efd10e3112" target="_top" xlink:title=" ">
<polygon fill="none" stroke="black" points="443,-12.5 443,-42.5 585,-42.5 585,-12.5 443,-12.5"/>
<text text-anchor="start" x="451" y="-30.5" font-family="Helvetica,sans-Serif" font-size="10.00">wmtk::attribute::Accessor</text>
<text text-anchor="middle" x="514" y="-19.5" font-family="Helvetica,sans-Serif" font-size="10.00">Base::mesh</text>
</a>
</g>
</g>
<!-- Node17&#45;&gt;Node29 -->
<g id="edge32" class="edge">
<title>Node17&#45;&gt;Node29</title>
<path fill="none" stroke="midnightblue" d="M345.67,-94.88C370.27,-81.73 403.51,-64.89 434,-52.5 439.69,-50.19 445.67,-47.96 451.69,-45.84"/>
<polygon fill="midnightblue" stroke="midnightblue" points="452.83,-49.15 461.16,-42.61 450.57,-42.52 452.83,-49.15"/>
</g>
<!-- Node30 -->
<g id="node30" class="node">
<title>Node30</title>
<g id="a_node30"><a xlink:href="namespacewmtk_1_1multimesh_1_1utils.html#aa6fb761beb691e021e87753de8c15b8f" target="_top" xlink:title=" ">
<polygon fill="none" stroke="black" points="438,-100.5 438,-130.5 590,-130.5 590,-100.5 438,-100.5"/>
<text text-anchor="start" x="446" y="-118.5" font-family="Helvetica,sans-Serif" font-size="10.00">wmtk::multimesh::utils</text>
<text text-anchor="middle" x="514" y="-107.5" font-family="Helvetica,sans-Serif" font-size="10.00">::write_tuple_map_attribute</text>
</a>
</g>
</g>
<!-- Node17&#45;&gt;Node30 -->
<g id="edge33" class="edge">
<title>Node17&#45;&gt;Node30</title>
<path fill="none" stroke="midnightblue" d="M375.18,-115.5C391.94,-115.5 410.15,-115.5 427.68,-115.5"/>
<polygon fill="midnightblue" stroke="midnightblue" points="427.91,-119 437.91,-115.5 427.91,-112 427.91,-119"/>
</g>
<!-- Node19 -->
<g id="node19" class="node">
<title>Node19</title>
<g id="a_node19"><a xlink:href="classwmtk_1_1multimesh_1_1_multi_mesh_manager.html#a812e0992812b2c48a889e10ae9e50758" target="_top" xlink:title=" ">
<polygon fill="none" stroke="black" points="630,-188.5 630,-218.5 790,-218.5 790,-188.5 630,-188.5"/>
<text text-anchor="start" x="638" y="-206.5" font-family="Helvetica,sans-Serif" font-size="10.00">wmtk::multimesh::MultiMesh</text>
<text text-anchor="middle" x="710" y="-195.5" font-family="Helvetica,sans-Serif" font-size="10.00">Manager::absolute_id</text>
</a>
</g>
</g>
<!-- Node18&#45;&gt;Node19 -->
<g id="edge21" class="edge">
<title>Node18&#45;&gt;Node19</title>
<path fill="none" stroke="midnightblue" d="M576.65,-203.5C590.35,-203.5 605.14,-203.5 619.7,-203.5"/>
<polygon fill="midnightblue" stroke="midnightblue" points="619.73,-207 629.73,-203.5 619.73,-200 619.73,-207"/>
</g>
<!-- Node19&#45;&gt;Node19 -->
<g id="edge22" class="edge">
<title>Node19&#45;&gt;Node19</title>
<path fill="none" stroke="midnightblue" d="M675.84,-218.66C667.61,-228.06 678.99,-237 710,-237 728.9,-237 740.5,-233.68 744.83,-228.96"/>
<polygon fill="midnightblue" stroke="midnightblue" points="748.3,-228.41 744.16,-218.66 741.31,-228.87 748.3,-228.41"/>
</g>
<!-- Node20 -->
<g id="node20" class="node">
<title>Node20</title>
<g id="a_node20"><a xlink:href="classwmtk_1_1multimesh_1_1_multi_mesh_manager.html#a7d39339adb56b1798fe817d81bfcc67c" target="_top" xlink:title="Specifies whether this structure is the root of a multi&#45;mesh tree.">
<polygon fill="none" stroke="black" points="826,-188.5 826,-218.5 986,-218.5 986,-188.5 826,-188.5"/>
<text text-anchor="start" x="834" y="-206.5" font-family="Helvetica,sans-Serif" font-size="10.00">wmtk::multimesh::MultiMesh</text>
<text text-anchor="middle" x="906" y="-195.5" font-family="Helvetica,sans-Serif" font-size="10.00">Manager::is_root</text>
</a>
</g>
</g>
<!-- Node19&#45;&gt;Node20 -->
<g id="edge23" class="edge">
<title>Node19&#45;&gt;Node20</title>
<path fill="none" stroke="midnightblue" d="M790.19,-203.5C798.53,-203.5 807.05,-203.5 815.5,-203.5"/>
<polygon fill="midnightblue" stroke="midnightblue" points="815.75,-207 825.75,-203.5 815.75,-200 815.75,-207"/>
</g>
<!-- Node22 -->
<g id="node22" class="node">
<title>Node22</title>
<g id="a_node22"><a xlink:href="classwmtk_1_1utils_1_1_tuple_inspector.html#a5a92c6323c9678ae3785e395bc84d4a9" target="_top" xlink:title=" ">
<polygon fill="none" stroke="black" points="1215.5,-196.5 1215.5,-226.5 1363.5,-226.5 1363.5,-196.5 1215.5,-196.5"/>
<text text-anchor="start" x="1223.5" y="-214.5" font-family="Helvetica,sans-Serif" font-size="10.00">wmtk::utils::TupleInspector</text>
<text text-anchor="middle" x="1289.5" y="-203.5" font-family="Helvetica,sans-Serif" font-size="10.00">::global_cid</text>
</a>
</g>
</g>
<!-- Node21&#45;&gt;Node22 -->
<g id="edge25" class="edge">
<title>Node21&#45;&gt;Node22</title>
<path fill="none" stroke="midnightblue" d="M1155.76,-177.53C1176.07,-182.73 1199.01,-188.6 1220.03,-193.98"/>
<polygon fill="midnightblue" stroke="midnightblue" points="1219.3,-197.41 1229.85,-196.49 1221.03,-190.62 1219.3,-197.41"/>
</g>
<!-- Node23 -->
<g id="node23" class="node">
<title>Node23</title>
<g id="a_node23"><a xlink:href="classwmtk_1_1utils_1_1_tuple_inspector.html#ae396c2b7e1c4c56d911d0dd848ff7ba7" target="_top" xlink:title=" ">
<polygon fill="none" stroke="black" points="1215.5,-147.5 1215.5,-177.5 1363.5,-177.5 1363.5,-147.5 1215.5,-147.5"/>
<text text-anchor="start" x="1223.5" y="-165.5" font-family="Helvetica,sans-Serif" font-size="10.00">wmtk::utils::TupleInspector</text>
<text text-anchor="middle" x="1289.5" y="-154.5" font-family="Helvetica,sans-Serif" font-size="10.00">::hash</text>
</a>
</g>
</g>
<!-- Node21&#45;&gt;Node23 -->
<g id="edge26" class="edge">
<title>Node21&#45;&gt;Node23</title>
<path fill="none" stroke="midnightblue" d="M1170.22,-162.5C1181.65,-162.5 1193.54,-162.5 1205.18,-162.5"/>
<polygon fill="midnightblue" stroke="midnightblue" points="1205.32,-166 1215.32,-162.5 1205.32,-159 1205.32,-166"/>
</g>
<!-- Node24 -->
<g id="node24" class="node">
<title>Node24</title>
<g id="a_node24"><a xlink:href="classwmtk_1_1utils_1_1_tuple_inspector.html#a3ae49ee45025897b049dbd6291d38d3e" target="_top" xlink:title=" ">
<polygon fill="none" stroke="black" points="1215.5,-98.5 1215.5,-128.5 1363.5,-128.5 1363.5,-98.5 1215.5,-98.5"/>
<text text-anchor="start" x="1223.5" y="-116.5" font-family="Helvetica,sans-Serif" font-size="10.00">wmtk::utils::TupleInspector</text>
<text text-anchor="middle" x="1289.5" y="-105.5" font-family="Helvetica,sans-Serif" font-size="10.00">::local_eid</text>
</a>
</g>
</g>
<!-- Node21&#45;&gt;Node24 -->
<g id="edge27" class="edge">
<title>Node21&#45;&gt;Node24</title>
<path fill="none" stroke="midnightblue" d="M1155.76,-147.47C1176.07,-142.27 1199.01,-136.4 1220.03,-131.02"/>
<polygon fill="midnightblue" stroke="midnightblue" points="1221.03,-134.38 1229.85,-128.51 1219.3,-127.59 1221.03,-134.38"/>
</g>
<!-- Node25 -->
<g id="node25" class="node">
<title>Node25</title>
<g id="a_node25"><a xlink:href="classwmtk_1_1utils_1_1_tuple_inspector.html#ad53c9feea9da16f5b31b9708a699e466" target="_top" xlink:title=" ">
<polygon fill="none" stroke="black" points="1215.5,-49.5 1215.5,-79.5 1363.5,-79.5 1363.5,-49.5 1215.5,-49.5"/>
<text text-anchor="start" x="1223.5" y="-67.5" font-family="Helvetica,sans-Serif" font-size="10.00">wmtk::utils::TupleInspector</text>
<text text-anchor="middle" x="1289.5" y="-56.5" font-family="Helvetica,sans-Serif" font-size="10.00">::local_fid</text>
</a>
</g>
</g>
<!-- Node21&#45;&gt;Node25 -->
<g id="edge28" class="edge">
<title>Node21&#45;&gt;Node25</title>
<path fill="none" stroke="midnightblue" d="M1154.49,-147.47C1159.97,-144.92 1165.25,-141.95 1170,-138.5 1191.88,-122.64 1183.94,-105.11 1206,-89.5 1208.83,-87.49 1211.83,-85.65 1214.94,-83.95"/>
<polygon fill="midnightblue" stroke="midnightblue" points="1216.52,-87.07 1223.96,-79.53 1213.44,-80.79 1216.52,-87.07"/>
</g>
<!-- Node26 -->
<g id="node26" class="node">
<title>Node26</title>
<g id="a_node26"><a xlink:href="classwmtk_1_1utils_1_1_tuple_inspector.html#a164882d2ccc6019e0067e8ad5e7e3bdb" target="_top" xlink:title=" ">
<polygon fill="none" stroke="black" points="1215.5,-0.5 1215.5,-30.5 1363.5,-30.5 1363.5,-0.5 1215.5,-0.5"/>
<text text-anchor="start" x="1223.5" y="-18.5" font-family="Helvetica,sans-Serif" font-size="10.00">wmtk::utils::TupleInspector</text>
<text text-anchor="middle" x="1289.5" y="-7.5" font-family="Helvetica,sans-Serif" font-size="10.00">::local_vid</text>
</a>
</g>
</g>
<!-- Node21&#45;&gt;Node26 -->
<g id="edge29" class="edge">
<title>Node21&#45;&gt;Node26</title>
<path fill="none" stroke="midnightblue" d="M1158.08,-147.4C1162.41,-144.88 1166.46,-141.94 1170,-138.5 1203.62,-105.91 1171.83,-71.5 1206,-39.5 1207.27,-38.31 1208.6,-37.18 1209.98,-36.1"/>
<polygon fill="midnightblue" stroke="midnightblue" points="1211.96,-38.99 1218.33,-30.52 1208.07,-33.16 1211.96,-38.99"/>
</g>
<!-- Node28 -->
<g id="node28" class="node">
<title>Node28</title>
<g id="a_node28"><a xlink:href="namespacewmtk.html#a3daa7951a5f8b78cf4600dc047fcc180" target="_top" xlink:title="Setup a logger object to be used by WildmeshToolkit.">
<polygon fill="none" stroke="black" points="659.5,-13 659.5,-32 760.5,-32 760.5,-13 659.5,-13"/>
<text text-anchor="middle" x="710" y="-20" font-family="Helvetica,sans-Serif" font-size="10.00">wmtk::set_logger</text>
</a>
</g>
</g>
<!-- Node27&#45;&gt;Node28 -->
<g id="edge31" class="edge">
<title>Node27&#45;&gt;Node28</title>
<path fill="none" stroke="midnightblue" d="M553.62,-61.91C566.48,-58.67 580.87,-54.98 594,-51.5 610.05,-47.24 613.92,-45.66 630,-41.5 639.03,-39.16 648.66,-36.76 657.98,-34.49"/>
<polygon fill="midnightblue" stroke="midnightblue" points="659.03,-37.84 667.93,-32.09 657.39,-31.04 659.03,-37.84"/>
</g>
<!-- Node31 -->
<g id="node31" class="node">
<title>Node31</title>
<g id="a_node31"><a xlink:href="namespacewmtk_1_1multimesh_1_1utils.html#aa35461d0dfd6b7202351061ab67b5bc3" target="_top" xlink:title=" ">
<polygon fill="none" stroke="black" points="645,-100.5 645,-130.5 775,-130.5 775,-100.5 645,-100.5"/>
<text text-anchor="start" x="653" y="-118.5" font-family="Helvetica,sans-Serif" font-size="10.00">wmtk::multimesh::utils</text>
<text text-anchor="middle" x="710" y="-107.5" font-family="Helvetica,sans-Serif" font-size="10.00">::tuples_to_vectors</text>
</a>
</g>
</g>
<!-- Node30&#45;&gt;Node31 -->
<g id="edge34" class="edge">
<title>Node30&#45;&gt;Node31</title>
<path fill="none" stroke="midnightblue" d="M590.01,-115.5C604.73,-115.5 620.17,-115.5 634.87,-115.5"/>
<polygon fill="midnightblue" stroke="midnightblue" points="634.91,-119 644.91,-115.5 634.91,-112 634.91,-119"/>
</g>
<!-- Node35 -->
<g id="node35" class="node">
<title>Node35</title>
<g id="a_node35"><a xlink:href="classwmtk_1_1attribute_1_1_accessor.html#adec09b82253cebfebf4d7bfc43039ea7" target="_top" xlink:title=" ">
<polygon fill="none" stroke="black" points="639,-51.5 639,-81.5 781,-81.5 781,-51.5 639,-51.5"/>
<text text-anchor="start" x="647" y="-69.5" font-family="Helvetica,sans-Serif" font-size="10.00">wmtk::attribute::Accessor</text>
<text text-anchor="middle" x="710" y="-58.5" font-family="Helvetica,sans-Serif" font-size="10.00">::vector_attribute</text>
</a>
</g>
</g>
<!-- Node30&#45;&gt;Node35 -->
<g id="edge48" class="edge">
<title>Node30&#45;&gt;Node35</title>
<path fill="none" stroke="midnightblue" d="M574.52,-100.47C595.1,-95.27 618.34,-89.4 639.63,-84.02"/>
<polygon fill="midnightblue" stroke="midnightblue" points="640.75,-87.35 649.59,-81.51 639.04,-80.56 640.75,-87.35"/>
</g>
<!-- Node32 -->
<g id="node32" class="node">
<title>Node32</title>
<g id="a_node32"><a xlink:href="namespacewmtk_1_1multimesh_1_1utils.html#a1e2e083555fd22678fcf96094992aaae" target="_top" xlink:title=" ">
<polygon fill="none" stroke="black" points="841,-98.5 841,-128.5 971,-128.5 971,-98.5 841,-98.5"/>
<text text-anchor="start" x="849" y="-116.5" font-family="Helvetica,sans-Serif" font-size="10.00">wmtk::multimesh::utils</text>
<text text-anchor="middle" x="906" y="-105.5" font-family="Helvetica,sans-Serif" font-size="10.00">::tuple_to_vector</text>
</a>
</g>
</g>
<!-- Node31&#45;&gt;Node32 -->
<g id="edge35" class="edge">
<title>Node31&#45;&gt;Node32</title>
<path fill="none" stroke="midnightblue" d="M775.06,-114.84C792.85,-114.66 812.31,-114.46 830.63,-114.27"/>
<polygon fill="midnightblue" stroke="midnightblue" points="830.71,-117.77 840.68,-114.16 830.64,-110.77 830.71,-117.77"/>
</g>
<!-- Node33 -->
<g id="node33" class="node">
<title>Node33</title>
<g id="a_node33"><a xlink:href="namespacewmtk_1_1multimesh_1_1utils.html#a594fa9c261e673d21832b4d8f932e637" target="_top" xlink:title=" ">
<polygon fill="none" stroke="black" points="1031,-98.5 1031,-128.5 1161,-128.5 1161,-98.5 1031,-98.5"/>
<text text-anchor="start" x="1039" y="-116.5" font-family="Helvetica,sans-Serif" font-size="10.00">wmtk::multimesh::utils</text>
<text text-anchor="middle" x="1096" y="-105.5" font-family="Helvetica,sans-Serif" font-size="10.00">::tuple_to_vector2</text>
</a>
</g>
</g>
<!-- Node32&#45;&gt;Node33 -->
<g id="edge36" class="edge">
<title>Node32&#45;&gt;Node33</title>
<path fill="none" stroke="midnightblue" d="M971.17,-113.5C987.12,-113.5 1004.34,-113.5 1020.72,-113.5"/>
<polygon fill="midnightblue" stroke="midnightblue" points="1020.8,-117 1030.8,-113.5 1020.8,-110 1020.8,-117"/>
</g>
<!-- Node34 -->
<g id="node34" class="node">
<title>Node34</title>
<g id="a_node34"><a xlink:href="namespacewmtk_1_1multimesh_1_1utils.html#ab150c77419d0083e882dcc657e3ef5b5" target="_top" xlink:title=" ">
<polygon fill="none" stroke="black" points="1031,-49.5 1031,-79.5 1161,-79.5 1161,-49.5 1031,-49.5"/>
<text text-anchor="start" x="1039" y="-67.5" font-family="Helvetica,sans-Serif" font-size="10.00">wmtk::multimesh::utils</text>
<text text-anchor="middle" x="1096" y="-56.5" font-family="Helvetica,sans-Serif" font-size="10.00">::tuple_to_vector5</text>
</a>
</g>
</g>
<!-- Node32&#45;&gt;Node34 -->
<g id="edge42" class="edge">
<title>Node32&#45;&gt;Node34</title>
<path fill="none" stroke="midnightblue" d="M964.68,-98.47C984.53,-93.29 1006.94,-87.45 1027.5,-82.09"/>
<polygon fill="midnightblue" stroke="midnightblue" points="1028.63,-85.42 1037.43,-79.51 1026.87,-78.64 1028.63,-85.42"/>
</g>
<!-- Node33&#45;&gt;Node22 -->
<g id="edge37" class="edge">
<title>Node33&#45;&gt;Node22</title>
<path fill="none" stroke="midnightblue" d="M1153,-128.65C1159.01,-131.44 1164.82,-134.69 1170,-138.5 1191.78,-154.5 1183.85,-172.02 1206,-187.5 1208.14,-189 1210.37,-190.4 1212.67,-191.72"/>
<polygon fill="midnightblue" stroke="midnightblue" points="1211.36,-194.97 1221.86,-196.38 1214.52,-188.73 1211.36,-194.97"/>
</g>
<!-- Node33&#45;&gt;Node23 -->
<g id="edge38" class="edge">
<title>Node33&#45;&gt;Node23</title>
<path fill="none" stroke="midnightblue" d="M1155.76,-128.53C1176.07,-133.73 1199.01,-139.6 1220.03,-144.98"/>
<polygon fill="midnightblue" stroke="midnightblue" points="1219.3,-148.41 1229.85,-147.49 1221.03,-141.62 1219.3,-148.41"/>
</g>
<!-- Node33&#45;&gt;Node24 -->
<g id="edge39" class="edge">
<title>Node33&#45;&gt;Node24</title>
<path fill="none" stroke="midnightblue" d="M1161.03,-113.5C1175.17,-113.5 1190.34,-113.5 1205.12,-113.5"/>
<polygon fill="midnightblue" stroke="midnightblue" points="1205.27,-117 1215.27,-113.5 1205.27,-110 1205.27,-117"/>
</g>
<!-- Node33&#45;&gt;Node25 -->
<g id="edge40" class="edge">
<title>Node33&#45;&gt;Node25</title>
<path fill="none" stroke="midnightblue" d="M1155.76,-98.47C1176.07,-93.27 1199.01,-87.4 1220.03,-82.02"/>
<polygon fill="midnightblue" stroke="midnightblue" points="1221.03,-85.38 1229.85,-79.51 1219.3,-78.59 1221.03,-85.38"/>
</g>
<!-- Node33&#45;&gt;Node26 -->
<g id="edge41" class="edge">
<title>Node33&#45;&gt;Node26</title>
<path fill="none" stroke="midnightblue" d="M1154.9,-98.34C1160.24,-95.82 1165.37,-92.89 1170,-89.5 1192.09,-73.32 1183.63,-55.3 1206,-39.5 1208.13,-37.99 1210.36,-36.58 1212.66,-35.26"/>
<polygon fill="midnightblue" stroke="midnightblue" points="1214.51,-38.24 1221.82,-30.57 1211.32,-32.01 1214.51,-38.24"/>
</g>
<!-- Node34&#45;&gt;Node22 -->
<g id="edge43" class="edge">
<title>Node34&#45;&gt;Node22</title>
<path fill="none" stroke="midnightblue" d="M1156.67,-79.65C1161.53,-82.41 1166.07,-85.66 1170,-89.5 1203.17,-121.95 1172.08,-155.84 1206,-187.5 1207.27,-188.69 1208.6,-189.82 1209.98,-190.9"/>
<polygon fill="midnightblue" stroke="midnightblue" points="1208.08,-193.83 1218.34,-196.46 1211.96,-188.01 1208.08,-193.83"/>
</g>
<!-- Node34&#45;&gt;Node23 -->
<g id="edge44" class="edge">
<title>Node34&#45;&gt;Node23</title>
<path fill="none" stroke="midnightblue" d="M1153,-79.65C1159.01,-82.44 1164.82,-85.69 1170,-89.5 1191.78,-105.5 1183.85,-123.02 1206,-138.5 1208.14,-140 1210.37,-141.4 1212.67,-142.72"/>
<polygon fill="midnightblue" stroke="midnightblue" points="1211.36,-145.97 1221.86,-147.38 1214.52,-139.73 1211.36,-145.97"/>
</g>
<!-- Node34&#45;&gt;Node24 -->
<g id="edge45" class="edge">
<title>Node34&#45;&gt;Node24</title>
<path fill="none" stroke="midnightblue" d="M1155.76,-79.53C1176.07,-84.73 1199.01,-90.6 1220.03,-95.98"/>
<polygon fill="midnightblue" stroke="midnightblue" points="1219.3,-99.41 1229.85,-98.49 1221.03,-92.62 1219.3,-99.41"/>
</g>
<!-- Node34&#45;&gt;Node25 -->
<g id="edge46" class="edge">
<title>Node34&#45;&gt;Node25</title>
<path fill="none" stroke="midnightblue" d="M1161.03,-64.5C1175.17,-64.5 1190.34,-64.5 1205.12,-64.5"/>
<polygon fill="midnightblue" stroke="midnightblue" points="1205.27,-68 1215.27,-64.5 1205.27,-61 1205.27,-68"/>
</g>
<!-- Node34&#45;&gt;Node26 -->
<g id="edge47" class="edge">
<title>Node34&#45;&gt;Node26</title>
<path fill="none" stroke="midnightblue" d="M1155.76,-49.47C1176.07,-44.27 1199.01,-38.4 1220.03,-33.02"/>
<polygon fill="midnightblue" stroke="midnightblue" points="1221.03,-36.38 1229.85,-30.51 1219.3,-29.59 1221.03,-36.38"/>
</g>
<!-- Node37 -->
<g id="node37" class="node">
<title>Node37</title>
<g id="a_node37"><a xlink:href="classwmtk_1_1_mesh.html#a40a0509744659785607c0574d561bcc2" target="_top" xlink:title=" ">
<polygon fill="none" stroke="black" points="453.5,-332.5 453.5,-362.5 574.5,-362.5 574.5,-332.5 453.5,-332.5"/>
<text text-anchor="start" x="461.5" y="-350.5" font-family="Helvetica,sans-Serif" font-size="10.00">wmtk::Mesh::get_cell</text>
<text text-anchor="middle" x="514" y="-339.5" font-family="Helvetica,sans-Serif" font-size="10.00">_hash_slow</text>
</a>
</g>
</g>
<!-- Node36&#45;&gt;Node37 -->
<g id="edge50" class="edge">
<title>Node36&#45;&gt;Node37</title>
<path fill="none" stroke="midnightblue" d="M367.1,-349.64C390.86,-349.29 418.48,-348.89 443.26,-348.52"/>
<polygon fill="midnightblue" stroke="midnightblue" points="443.38,-352.02 453.33,-348.38 443.27,-345.02 443.38,-352.02"/>
</g>
<!-- Node38 -->
<g id="node38" class="node">
<title>Node38</title>
<g id="a_node38"><a xlink:href="classwmtk_1_1_mesh.html#a4bcf7281ec7f3bdfd506ffc87fc092d3" target="_top" xlink:title=" ">
<polygon fill="none" stroke="black" points="635.5,-332 635.5,-351 784.5,-351 784.5,-332 635.5,-332"/>
<text text-anchor="middle" x="710" y="-339" font-family="Helvetica,sans-Serif" font-size="10.00">wmtk::Mesh::get_cell_hash</text>
</a>
</g>
</g>
<!-- Node37&#45;&gt;Node38 -->
<g id="edge51" class="edge">
<title>Node37&#45;&gt;Node38</title>
<path fill="none" stroke="midnightblue" d="M574.52,-345.66C590.39,-345.17 607.83,-344.63 624.75,-344.11"/>
<polygon fill="midnightblue" stroke="midnightblue" points="625.31,-347.59 635.2,-343.78 625.1,-340.59 625.31,-347.59"/>
</g>
<!-- Node40 -->
<g id="node40" class="node">
<title>Node40</title>
<g id="a_node40"><a xlink:href="classwmtk_1_1_mesh.html#a2435c4340422557f5e61dfbad2d0bee8" target="_top" xlink:title=" ">
<polygon fill="none" stroke="black" points="649.5,-370.5 649.5,-400.5 770.5,-400.5 770.5,-370.5 649.5,-370.5"/>
<text text-anchor="start" x="657.5" y="-388.5" font-family="Helvetica,sans-Serif" font-size="10.00">wmtk::Mesh::get_cell</text>
<text text-anchor="middle" x="710" y="-377.5" font-family="Helvetica,sans-Serif" font-size="10.00">_hash_accessor</text>
</a>
</g>
</g>
<!-- Node37&#45;&gt;Node40 -->
<g id="edge54" class="edge">
<title>Node37&#45;&gt;Node40</title>
<path fill="none" stroke="midnightblue" d="M574.52,-359.16C595.01,-363.17 618.12,-367.7 639.33,-371.85"/>
<polygon fill="midnightblue" stroke="midnightblue" points="638.77,-375.31 649.25,-373.8 640.11,-368.44 638.77,-375.31"/>
</g>
<!-- Node38&#45;&gt;Node15 -->
<g id="edge53" class="edge">
<title>Node38&#45;&gt;Node15</title>
<path fill="none" stroke="midnightblue" d="M751.2,-331.97C774.43,-326.46 804.36,-319.36 831.65,-312.89"/>
<polygon fill="midnightblue" stroke="midnightblue" points="832.64,-316.26 841.56,-310.54 831.02,-309.44 832.64,-316.26"/>
</g>
<!-- Node39 -->
<g id="node39" class="node">
<title>Node39</title>
<g id="a_node39"><a xlink:href="classwmtk_1_1attribute_1_1_caching_accessor.html#a46aa3c2780f6789c42c537ee4ecb5b86" target="_top" xlink:title=" ">
<polygon fill="none" stroke="black" points="837.5,-330 837.5,-371 974.5,-371 974.5,-330 837.5,-330"/>
<text text-anchor="start" x="845.5" y="-359" font-family="Helvetica,sans-Serif" font-size="10.00">wmtk::attribute::Caching</text>
<text text-anchor="start" x="845.5" y="-348" font-family="Helvetica,sans-Serif" font-size="10.00">Accessor::const_scalar</text>
<text text-anchor="middle" x="906" y="-337" font-family="Helvetica,sans-Serif" font-size="10.00">_attribute</text>
</a>
</g>
</g>
<!-- Node38&#45;&gt;Node39 -->
<g id="edge52" class="edge">
<title>Node38&#45;&gt;Node39</title>
<path fill="none" stroke="midnightblue" d="M784.62,-344.92C798.59,-345.56 813.25,-346.24 827.35,-346.9"/>
<polygon fill="midnightblue" stroke="midnightblue" points="827.34,-350.4 837.49,-347.37 827.66,-343.41 827.34,-350.4"/>
</g>
<!-- Node40&#45;&gt;Node9 -->
<g id="edge55" class="edge">
<title>Node40&#45;&gt;Node9</title>
<path fill="none" stroke="midnightblue" d="M770.52,-395.63C789.58,-398.87 810.92,-402.5 830.88,-405.89"/>
<polygon fill="midnightblue" stroke="midnightblue" points="830.42,-409.36 840.87,-407.59 831.6,-402.46 830.42,-409.36"/>
</g>
</g>
</svg>
        <g id="navigator" transform="translate(0 0)" fill="#404254">
                <rect fill="#f2f5e9" fill-opacity="0.5" stroke="#606060" stroke-width=".5" x="0" y="0" width="60" height="60"/>
                <use id="zoomplus" xlink:href="#zoomPlus" x="17" y="9" onmousedown="handleZoom(evt,'in')"/>
                <use id="zoomminus" xlink:href="#zoomMin" x="42" y="9" onmousedown="handleZoom(evt,'out')"/>
                <use id="reset" xlink:href="#resetDef" x="30" y="36" onmousedown="handleReset()"/>
                <g id="arrowUp" xlink:href="#dirArrow" transform="translate(30 24)" onmousedown="handlePan(0,-1)">
                  <use xlink:href="#rim" fill="#404040">
                        <set attributeName="fill" to="#808080" begin="arrowUp.mouseover" end="arrowUp.mouseout"/>
                  </use>
                  <path fill="none" stroke="white" stroke-width="1.5" d="M0,-3.0v7 M-2.5,-0.5L0,-3.0L2.5,-0.5"/>
                </g>
                <g id="arrowRight" xlink:href="#dirArrow" transform="rotate(90) translate(36 -43)" onmousedown="handlePan(1,0)">
                  <use xlink:href="#rim" fill="#404040">
                        <set attributeName="fill" to="#808080" begin="arrowRight.mouseover" end="arrowRight.mouseout"/>
                  </use>
                  <path fill="none" stroke="white" stroke-width="1.5" d="M0,-3.0v7 M-2.5,-0.5L0,-3.0L2.5,-0.5"/>
                </g>
                <g id="arrowDown" xlink:href="#dirArrow" transform="rotate(180) translate(-30 -48)" onmousedown="handlePan(0,1)">
                  <use xlink:href="#rim" fill="#404040">
                        <set attributeName="fill" to="#808080" begin="arrowDown.mouseover" end="arrowDown.mouseout"/>
                  </use>
                  <path fill="none" stroke="white" stroke-width="1.5" d="M0,-3.0v7 M-2.5,-0.5L0,-3.0L2.5,-0.5"/>
                </g>
                <g id="arrowLeft" xlink:href="#dirArrow" transform="rotate(270) translate(-36 17)" onmousedown="handlePan(-1,0)">
                  <use xlink:href="#rim" fill="#404040">
                        <set attributeName="fill" to="#808080" begin="arrowLeft.mouseover" end="arrowLeft.mouseout"/>
                  </use>
                  <path fill="none" stroke="white" stroke-width="1.5" d="M0,-3.0v7 M-2.5,-0.5L0,-3.0L2.5,-0.5"/>
                </g>
        </g>
        <svg viewBox="0 0 15 15" width="100%" height="30px" preserveAspectRatio="xMaxYMin meet">
         <g id="arrow_out" transform="scale(0.3 0.3)">
          <a xlink:href="classwmtk_1_1operations_1_1utils_1_1_update_edge_operation_multi_mesh_map_functor_a6f288597493f5914cf6d75e7a8674e70_cgraph_org.svg" target="_base">
           <rect id="button" ry="5" rx="5" y="6" x="6" height="38" width="38"
                fill="#f2f5e9" fill-opacity="0.5" stroke="#606060" stroke-width="1.0"/>
           <path id="arrow"
             d="M 11.500037,31.436501 C 11.940474,20.09759 22.043105,11.32322 32.158766,21.979434 L 37.068811,17.246167 C 37.068811,17.246167 37.088388,32 37.088388,32 L 22.160133,31.978069 C 22.160133,31.978069 26.997745,27.140456 26.997745,27.140456 C 18.528582,18.264221 13.291696,25.230495 11.500037,31.436501 z"
             style="fill:#404040;"/>
          </a>
         </g>
        </svg>
</svg>
