<?xml version="1.0" encoding="UTF-8" standalone="no"?>
<!DOCTYPE svg PUBLIC "-//W3C//DTD SVG 1.1//EN"
 "http://www.w3.org/Graphics/SVG/1.1/DTD/svg11.dtd">
<!-- Generated by graphviz version 2.43.0 (0)
 -->
<!-- Title: wmtk::simplex::IdSimplexCollection::size Pages: 1 -->
<svg width="666pt" height="159pt"
 viewBox="0.00 0.00 666.00 159.00" xmlns="http://www.w3.org/2000/svg" xmlns:xlink="http://www.w3.org/1999/xlink">
<g id="graph0" class="graph" transform="scale(1 1) rotate(0) translate(4 155)">
<title>wmtk::simplex::IdSimplexCollection::size</title>
<!-- Node1 -->
<g id="node1" class="node">
<title>Node1</title>
<g id="a_node1"><a xlink:title=" ">
<polygon fill="#bfbfbf" stroke="black" points="514,-73.5 514,-103.5 658,-103.5 658,-73.5 514,-73.5"/>
<text text-anchor="start" x="522" y="-91.5" font-family="Helvetica,sans-Serif" font-size="10.00">wmtk::simplex::IdSimplex</text>
<text text-anchor="middle" x="586" y="-80.5" font-family="Helvetica,sans-Serif" font-size="10.00">Collection::size</text>
</a>
</g>
</g>
<!-- Node2 -->
<g id="node2" class="node">
<title>Node2</title>
<g id="a_node2"><a xlink:href="classwmtk_1_1simplex_1_1_id_simplex_collection.html#ae9a7c56b1940b0e2faef5a6a132a2a58" target="_top" xlink:title="Check if the two simplex collections are equal.">
<polygon fill="none" stroke="black" points="334,-68 334,-109 478,-109 478,-68 334,-68"/>
<text text-anchor="start" x="342" y="-97" font-family="Helvetica,sans-Serif" font-size="10.00">wmtk::simplex::IdSimplex</text>
<text text-anchor="start" x="342" y="-86" font-family="Helvetica,sans-Serif" font-size="10.00">Collection::are_simplex</text>
<text text-anchor="middle" x="406" y="-75" font-family="Helvetica,sans-Serif" font-size="10.00">_collections_equal</text>
</a>
</g>
</g>
<!-- Node1&#45;&gt;Node2 -->
<g id="edge1" class="edge">
<title>Node1&#45;&gt;Node2</title>
<path fill="none" stroke="midnightblue" d="M503.83,-88.5C495.21,-88.5 486.49,-88.5 478,-88.5"/>
<polygon fill="midnightblue" stroke="midnightblue" points="503.88,-92 513.88,-88.5 503.88,-85 503.88,-92"/>
</g>
<!-- Node3 -->
<g id="node3" class="node">
<title>Node3</title>
<g id="a_node3"><a xlink:href="namespacewmtk_1_1simplex.html#aead7bf4f261c58bdb33bd0bf7fcd541d" target="_top" xlink:title=" ">
<polygon fill="none" stroke="black" points="0,-120.5 0,-150.5 113,-150.5 113,-120.5 0,-120.5"/>
<text text-anchor="start" x="8" y="-138.5" font-family="Helvetica,sans-Serif" font-size="10.00">wmtk::simplex::link</text>
<text text-anchor="middle" x="56.5" y="-127.5" font-family="Helvetica,sans-Serif" font-size="10.00">_condition</text>
</a>
</g>
</g>
<!-- Node2&#45;&gt;Node3 -->
<g id="edge2" class="edge">
<title>Node2&#45;&gt;Node3</title>
<path fill="none" stroke="midnightblue" d="M361.77,-113.97C342.87,-123.69 320.02,-133.61 298,-138.5 235.84,-152.31 162.39,-148.6 113.16,-143.35"/>
<polygon fill="midnightblue" stroke="midnightblue" points="363.52,-117 370.72,-109.23 360.24,-110.82 363.52,-117"/>
</g>
<!-- Node4 -->
<g id="node4" class="node">
<title>Node4</title>
<g id="a_node4"><a xlink:href="namespacewmtk_1_1simplex.html#a428755c0a4c93af10690b6828a3c79f5" target="_top" xlink:title=" ">
<polygon fill="none" stroke="black" points="149,-98.5 149,-128.5 298,-128.5 298,-98.5 149,-98.5"/>
<text text-anchor="start" x="157" y="-116.5" font-family="Helvetica,sans-Serif" font-size="10.00">wmtk::simplex::link</text>
<text text-anchor="middle" x="223.5" y="-105.5" font-family="Helvetica,sans-Serif" font-size="10.00">_condition_closed_tetmesh</text>
</a>
</g>
</g>
<!-- Node2&#45;&gt;Node4 -->
<g id="edge3" class="edge">
<title>Node2&#45;&gt;Node4</title>
<path fill="none" stroke="midnightblue" d="M323.93,-99.73C315.35,-100.92 306.67,-102.12 298.19,-103.29"/>
<polygon fill="midnightblue" stroke="midnightblue" points="324.5,-103.18 333.92,-98.34 323.54,-96.25 324.5,-103.18"/>
</g>
<!-- Node5 -->
<g id="node5" class="node">
<title>Node5</title>
<g id="a_node5"><a xlink:href="namespacewmtk_1_1simplex.html#a3b3266f811539b7df8d85a51552bc1f7" target="_top" xlink:title=" ">
<polygon fill="none" stroke="black" points="150.5,-49.5 150.5,-79.5 296.5,-79.5 296.5,-49.5 150.5,-49.5"/>
<text text-anchor="start" x="158.5" y="-67.5" font-family="Helvetica,sans-Serif" font-size="10.00">wmtk::simplex::link</text>
<text text-anchor="middle" x="223.5" y="-56.5" font-family="Helvetica,sans-Serif" font-size="10.00">_condition_closed_trimesh</text>
</a>
</g>
</g>
<!-- Node2&#45;&gt;Node5 -->
<g id="edge5" class="edge">
<title>Node2&#45;&gt;Node5</title>
<path fill="none" stroke="midnightblue" d="M323.79,-77.7C314.76,-76.5 305.61,-75.28 296.7,-74.1"/>
<polygon fill="midnightblue" stroke="midnightblue" points="323.55,-81.2 333.92,-79.05 324.47,-74.26 323.55,-81.2"/>
</g>
<!-- Node7 -->
<g id="node7" class="node">
<title>Node7</title>
<g id="a_node7"><a xlink:href="classwmtk_1_1simplex_1_1_id_simplex_collection.html#a5fb732859f18dee6b0f1cbc89c8346f6" target="_top" xlink:title=" ">
<polygon fill="none" stroke="black" points="151.5,-0.5 151.5,-30.5 295.5,-30.5 295.5,-0.5 151.5,-0.5"/>
<text text-anchor="start" x="159.5" y="-18.5" font-family="Helvetica,sans-Serif" font-size="10.00">wmtk::simplex::IdSimplex</text>
<text text-anchor="middle" x="223.5" y="-7.5" font-family="Helvetica,sans-Serif" font-size="10.00">Collection::operator==</text>
</a>
</g>
</g>
<!-- Node2&#45;&gt;Node7 -->
<g id="edge7" class="edge">
<title>Node2&#45;&gt;Node7</title>
<path fill="none" stroke="midnightblue" d="M353.6,-63.52C336.13,-55.42 316.38,-46.68 298,-39.5 290.12,-36.42 281.67,-33.41 273.41,-30.61"/>
<polygon fill="midnightblue" stroke="midnightblue" points="352.5,-66.87 363.04,-67.94 355.46,-60.53 352.5,-66.87"/>
</g>
<!-- Node4&#45;&gt;Node3 -->
<g id="edge4" class="edge">
<title>Node4&#45;&gt;Node3</title>
<path fill="none" stroke="midnightblue" d="M138.66,-124.68C130.11,-125.82 121.58,-126.96 113.43,-128.04"/>
<polygon fill="midnightblue" stroke="midnightblue" points="139.24,-128.13 148.69,-123.34 138.31,-121.19 139.24,-128.13"/>
</g>
<!-- Node6 -->
<g id="node6" class="node">
<title>Node6</title>
<g id="a_node6"><a xlink:href="namespacewmtk_1_1simplex.html#aad86388bdc8c1685d7d55fad016f0ca2" target="_top" xlink:title=" ">
<polygon fill="none" stroke="black" points="0,-49.5 0,-79.5 113,-79.5 113,-49.5 0,-49.5"/>
<text text-anchor="start" x="8" y="-67.5" font-family="Helvetica,sans-Serif" font-size="10.00">wmtk::simplex::link</text>
<text text-anchor="middle" x="56.5" y="-56.5" font-family="Helvetica,sans-Serif" font-size="10.00">_condition</text>
</a>
</g>
</g>
<!-- Node5&#45;&gt;Node6 -->
<g id="edge6" class="edge">
<title>Node5&#45;&gt;Node6</title>
<path fill="none" stroke="midnightblue" d="M140,-64.5C131,-64.5 122.01,-64.5 113.44,-64.5"/>
<polygon fill="midnightblue" stroke="midnightblue" points="140.13,-68 150.13,-64.5 140.13,-61 140.13,-68"/>
</g>
</g>
</svg>
