<?xml version="1.0" encoding="UTF-8" standalone="no"?>
<!DOCTYPE svg PUBLIC "-//W3C//DTD SVG 1.1//EN"
 "http://www.w3.org/Graphics/SVG/1.1/DTD/svg11.dtd">
<!-- Generated by graphviz version 2.43.0 (0)
 -->
<!-- Title: wmtk::simplex::Simplex::face Pages: 1 -->
<svg width="568pt" height="330pt"
 viewBox="0.00 0.00 568.00 329.50" xmlns="http://www.w3.org/2000/svg" xmlns:xlink="http://www.w3.org/1999/xlink">
<g id="graph0" class="graph" transform="scale(1 1) rotate(0) translate(4 325.5)">
<title>wmtk::simplex::Simplex::face</title>
<!-- Node1 -->
<g id="node1" class="node">
<title>Node1</title>
<g id="a_node1"><a xlink:title=" ">
<polygon fill="#bfbfbf" stroke="black" points="425,-138 425,-168 560,-168 560,-138 425,-138"/>
<text text-anchor="start" x="433" y="-156" font-family="Helvetica,sans-Serif" font-size="10.00">wmtk::simplex::Simplex</text>
<text text-anchor="middle" x="492.5" y="-145" font-family="Helvetica,sans-Serif" font-size="10.00">::face</text>
</a>
</g>
</g>
<!-- Node2 -->
<g id="node2" class="node">
<title>Node2</title>
<g id="a_node2"><a xlink:href="classwmtk_1_1invariants_1_1_valence_improvement_invariant.html#ac2f6805f4a5bfc3aba4f0c2169e03a99" target="_top" xlink:title=" ">
<polygon fill="none" stroke="black" points="211.5,-291 211.5,-321 375.5,-321 375.5,-291 211.5,-291"/>
<text text-anchor="start" x="219.5" y="-309" font-family="Helvetica,sans-Serif" font-size="10.00">wmtk::invariants::Valence</text>
<text text-anchor="middle" x="293.5" y="-298" font-family="Helvetica,sans-Serif" font-size="10.00">ImprovementInvariant::before</text>
</a>
</g>
</g>
<!-- Node1&#45;&gt;Node2 -->
<g id="edge1" class="edge">
<title>Node1&#45;&gt;Node2</title>
<path fill="none" stroke="midnightblue" d="M478.82,-177.21C462.18,-206.55 430.18,-255.37 389,-282 383.74,-285.4 378.03,-288.32 372.1,-290.83"/>
<polygon fill="midnightblue" stroke="midnightblue" points="481.9,-178.86 483.67,-168.42 475.78,-175.48 481.9,-178.86"/>
</g>
<!-- Node3 -->
<g id="node3" class="node">
<title>Node3</title>
<g id="a_node3"><a xlink:href="classwmtk_1_1components_1_1_tag_intersection.html#aa089317765f51a727fdde846aad4c276" target="_top" xlink:title=" ">
<polygon fill="none" stroke="black" points="198,-242 198,-272 389,-272 389,-242 198,-242"/>
<text text-anchor="start" x="206" y="-260" font-family="Helvetica,sans-Serif" font-size="10.00">wmtk::components::TagIntersection</text>
<text text-anchor="middle" x="293.5" y="-249" font-family="Helvetica,sans-Serif" font-size="10.00">::compute_intersection</text>
</a>
</g>
</g>
<!-- Node1&#45;&gt;Node3 -->
<g id="edge2" class="edge">
<title>Node1&#45;&gt;Node3</title>
<path fill="none" stroke="midnightblue" d="M468.65,-174.97C448.99,-192.74 419.11,-217.17 389,-232 381.24,-235.82 372.81,-239.12 364.31,-241.94"/>
<polygon fill="midnightblue" stroke="midnightblue" points="471.19,-177.39 476.17,-168.04 466.44,-172.24 471.19,-177.39"/>
</g>
<!-- Node4 -->
<g id="node4" class="node">
<title>Node4</title>
<g id="a_node4"><a xlink:href="classwmtk_1_1invariants_1_1_min_incident_valence_invariant.html#a03c779db7485cb3e628da2c6162af6b1" target="_top" xlink:title=" ">
<polygon fill="none" stroke="black" points="212.5,-181.5 212.5,-222.5 374.5,-222.5 374.5,-181.5 212.5,-181.5"/>
<text text-anchor="start" x="220.5" y="-210.5" font-family="Helvetica,sans-Serif" font-size="10.00">wmtk::invariants::MinIncident</text>
<text text-anchor="start" x="220.5" y="-199.5" font-family="Helvetica,sans-Serif" font-size="10.00">ValenceInvariant::is_greater</text>
<text text-anchor="middle" x="293.5" y="-188.5" font-family="Helvetica,sans-Serif" font-size="10.00">_min_valence</text>
</a>
</g>
</g>
<!-- Node1&#45;&gt;Node4 -->
<g id="edge3" class="edge">
<title>Node1&#45;&gt;Node4</title>
<path fill="none" stroke="midnightblue" d="M421.31,-170.46C406.24,-174.21 390.21,-178.19 374.8,-182.03"/>
<polygon fill="midnightblue" stroke="midnightblue" points="422.2,-173.84 431.05,-168.03 420.51,-167.05 422.2,-173.84"/>
</g>
<!-- Node7 -->
<g id="node7" class="node">
<title>Node7</title>
<g id="a_node7"><a xlink:href="namespacewmtk_1_1simplex.html#a18647fe3e4b68cc5a6186aa5063fcd53" target="_top" xlink:title=" ">
<polygon fill="none" stroke="black" points="237,-143.5 237,-162.5 350,-162.5 350,-143.5 237,-143.5"/>
<text text-anchor="middle" x="293.5" y="-150.5" font-family="Helvetica,sans-Serif" font-size="10.00">wmtk::simplex::link</text>
</a>
</g>
</g>
<!-- Node1&#45;&gt;Node7 -->
<g id="edge6" class="edge">
<title>Node1&#45;&gt;Node7</title>
<path fill="none" stroke="midnightblue" d="M414.73,-153C393.25,-153 370.32,-153 350.3,-153"/>
<polygon fill="midnightblue" stroke="midnightblue" points="414.8,-156.5 424.8,-153 414.8,-149.5 414.8,-156.5"/>
</g>
<!-- Node8 -->
<g id="node8" class="node">
<title>Node8</title>
<g id="a_node8"><a xlink:href="namespacewmtk_1_1simplex.html#a9c219fd0b4f590bc836d41011761968b" target="_top" xlink:title=" ">
<polygon fill="none" stroke="black" points="237,-94 237,-124 350,-124 350,-94 237,-94"/>
<text text-anchor="start" x="245" y="-112" font-family="Helvetica,sans-Serif" font-size="10.00">wmtk::simplex::link</text>
<text text-anchor="middle" x="293.5" y="-101" font-family="Helvetica,sans-Serif" font-size="10.00">_single_dimension</text>
</a>
</g>
</g>
<!-- Node1&#45;&gt;Node8 -->
<g id="edge7" class="edge">
<title>Node1&#45;&gt;Node8</title>
<path fill="none" stroke="midnightblue" d="M415.02,-135.92C393.45,-131.1 370.41,-125.95 350.3,-121.46"/>
<polygon fill="midnightblue" stroke="midnightblue" points="414.28,-139.34 424.8,-138.1 415.81,-132.51 414.28,-139.34"/>
</g>
<!-- Node9 -->
<g id="node9" class="node">
<title>Node9</title>
<g id="a_node9"><a xlink:href="namespacewmtk_1_1simplex.html#a57782c66cdc76e978dfac308de1edd1b" target="_top" xlink:title=" ">
<polygon fill="none" stroke="black" points="222,-55.5 222,-74.5 365,-74.5 365,-55.5 222,-55.5"/>
<text text-anchor="middle" x="293.5" y="-62.5" font-family="Helvetica,sans-Serif" font-size="10.00">wmtk::simplex::open_star</text>
</a>
</g>
</g>
<!-- Node1&#45;&gt;Node9 -->
<g id="edge8" class="edge">
<title>Node1&#45;&gt;Node9</title>
<path fill="none" stroke="midnightblue" d="M465.52,-131.73C445.69,-116.54 417.09,-96.78 389,-85 378.64,-80.65 367.23,-77.21 356.03,-74.5"/>
<polygon fill="midnightblue" stroke="midnightblue" points="463.42,-134.53 473.46,-137.93 467.73,-129.02 463.42,-134.53"/>
</g>
<!-- Node10 -->
<g id="node10" class="node">
<title>Node10</title>
<g id="a_node10"><a xlink:href="classwmtk_1_1_tet_mesh_1_1_tet_mesh_operation_executor.html#afdafef0c67dc0d9b6f2aef827d638eb6" target="_top" xlink:title="split edge v1&#45;v2">
<polygon fill="none" stroke="black" points="201,-6 201,-36 386,-36 386,-6 201,-6"/>
<text text-anchor="start" x="209" y="-24" font-family="Helvetica,sans-Serif" font-size="10.00">wmtk::TetMesh::TetMeshOperation</text>
<text text-anchor="middle" x="293.5" y="-13" font-family="Helvetica,sans-Serif" font-size="10.00">Executor::split_edge</text>
</a>
</g>
</g>
<!-- Node1&#45;&gt;Node10 -->
<g id="edge9" class="edge">
<title>Node1&#45;&gt;Node10</title>
<path fill="none" stroke="midnightblue" d="M475.04,-129.32C456.79,-104.85 425.12,-67.29 389,-46 382.42,-42.12 375.24,-38.83 367.86,-36.05"/>
<polygon fill="midnightblue" stroke="midnightblue" points="472.42,-131.67 481.14,-137.69 478.08,-127.55 472.42,-131.67"/>
</g>
<!-- Node5 -->
<g id="node5" class="node">
<title>Node5</title>
<g id="a_node5"><a xlink:href="classwmtk_1_1invariants_1_1_min_incident_valence_invariant.html#a86763a63b94889f8e22cd9c705c84110" target="_top" xlink:title=" ">
<polygon fill="none" stroke="black" points="0,-211 0,-241 162,-241 162,-211 0,-211"/>
<text text-anchor="start" x="8" y="-229" font-family="Helvetica,sans-Serif" font-size="10.00">wmtk::invariants::MinIncident</text>
<text text-anchor="middle" x="81" y="-218" font-family="Helvetica,sans-Serif" font-size="10.00">ValenceInvariant::after</text>
</a>
</g>
</g>
<!-- Node4&#45;&gt;Node5 -->
<g id="edge4" class="edge">
<title>Node4&#45;&gt;Node5</title>
<path fill="none" stroke="midnightblue" d="M202.24,-212.29C188.97,-213.8 175.37,-215.36 162.31,-216.84"/>
<polygon fill="midnightblue" stroke="midnightblue" points="202.78,-215.75 212.32,-211.14 201.99,-208.8 202.78,-215.75"/>
</g>
<!-- Node6 -->
<g id="node6" class="node">
<title>Node6</title>
<g id="a_node6"><a xlink:href="classwmtk_1_1invariants_1_1_min_incident_valence_invariant.html#a75aa725e6ae913b914734b6b4d084a7b" target="_top" xlink:title=" ">
<polygon fill="none" stroke="black" points="0,-162 0,-192 162,-192 162,-162 0,-162"/>
<text text-anchor="start" x="8" y="-180" font-family="Helvetica,sans-Serif" font-size="10.00">wmtk::invariants::MinIncident</text>
<text text-anchor="middle" x="81" y="-169" font-family="Helvetica,sans-Serif" font-size="10.00">ValenceInvariant::before</text>
</a>
</g>
</g>
<!-- Node4&#45;&gt;Node6 -->
<g id="edge5" class="edge">
<title>Node4&#45;&gt;Node6</title>
<path fill="none" stroke="midnightblue" d="M202.24,-191.28C188.97,-189.7 175.37,-188.09 162.31,-186.54"/>
<polygon fill="midnightblue" stroke="midnightblue" points="201.98,-194.77 212.32,-192.48 202.8,-187.82 201.98,-194.77"/>
</g>
<!-- Node11 -->
<g id="node11" class="node">
<title>Node11</title>
<g id="a_node11"><a xlink:href="classwmtk_1_1operations_1_1utils_1_1_multi_mesh_edge_split_functor.html#af010a058e1bd67dbd1019342c0ac8c7d" target="_top" xlink:title=" ">
<polygon fill="none" stroke="black" points="3.5,-0.5 3.5,-41.5 158.5,-41.5 158.5,-0.5 3.5,-0.5"/>
<text text-anchor="start" x="11.5" y="-29.5" font-family="Helvetica,sans-Serif" font-size="10.00">wmtk::operations::utils</text>
<text text-anchor="start" x="11.5" y="-18.5" font-family="Helvetica,sans-Serif" font-size="10.00">::MultiMeshEdgeSplitFunctor</text>
<text text-anchor="middle" x="81" y="-7.5" font-family="Helvetica,sans-Serif" font-size="10.00">::operator()</text>
</a>
</g>
</g>
<!-- Node10&#45;&gt;Node11 -->
<g id="edge10" class="edge">
<title>Node10&#45;&gt;Node11</title>
<path fill="none" stroke="midnightblue" d="M190.52,-21C179.78,-21 169,-21 158.62,-21"/>
<polygon fill="midnightblue" stroke="midnightblue" points="190.78,-24.5 200.78,-21 190.78,-17.5 190.78,-24.5"/>
</g>
</g>
</svg>
