<?xml version="1.0" encoding="UTF-8" standalone="no"?>
<!DOCTYPE svg PUBLIC "-//W3C//DTD SVG 1.1//EN"
 "http://www.w3.org/Graphics/SVG/1.1/DTD/svg11.dtd">
<!-- Generated by graphviz version 2.43.0 (0)
 -->
<!-- Title: wmtk::operations::EdgeSplit::EdgeSplit Pages: 1 -->
<!--zoomable 286 -->

<svg id="main" version="1.1" xmlns="http://www.w3.org/2000/svg" xmlns:xlink="http://www.w3.org/1999/xlink" xml:space="preserve" onload="init(evt)">
<style type="text/css"><![CDATA[
.node, .edge {opacity: 0.7;}
.node.selected, .edge.selected {opacity: 1;}
.edge:hover path { stroke: red; }
.edge:hover polygon { stroke: red; fill: red; }
]]></style>

<defs>
  <circle id="rim" cx="0" cy="0" r="7"/>
  <circle id="rim2" cx="0" cy="0" r="3.5"/>
  <g id="zoomPlus">
    <use xlink:href="#rim" fill="#404040"><set attributeName="fill" to="#808080" begin="zoomplus.mouseover" end="zoomplus.mouseout"/></use>
    <path d="M-4,0h8M0,-4v8" fill="none" stroke="white" stroke-width="1.5" pointer-events="none"/>
  </g>
  <g id="zoomMin">
    <use xlink:href="#rim" fill="#404040"><set attributeName="fill" to="#808080" begin="zoomminus.mouseover" end="zoomminus.mouseout"/></use>
    <path d="M-4,0h8" fill="none" stroke="white" stroke-width="1.5" pointer-events="none"/>
  </g>
  <g id="arrowUp" transform="translate(30 24)">
    <use xlink:href="#rim"/>
    <path pointer-events="none" fill="none" stroke="white" stroke-width="1.5" d="M0,-3.0v7 M-2.5,-0.5L0,-3.0L2.5,-0.5"/>
  </g>
  <g id="arrowRight" transform="rotate(90) translate(36 -43)">
    <use xlink:href="#rim"/>
    <path pointer-events="none" fill="none" stroke="white" stroke-width="1.5" d="M0,-3.0v7 M-2.5,-0.5L0,-3.0L2.5,-0.5"/>
  </g>
  <g id="arrowDown" transform="rotate(180) translate(-30 -48)">
    <use xlink:href="#rim"/>
    <path pointer-events="none" fill="none" stroke="white" stroke-width="1.5" d="M0,-3.0v7 M-2.5,-0.5L0,-3.0L2.5,-0.5"/>
  </g>
  <g id="arrowLeft" transform="rotate(270) translate(-36 17)">
    <use xlink:href="#rim"/>
    <path pointer-events="none" fill="none" stroke="white" stroke-width="1.5" d="M0,-3.0v7 M-2.5,-0.5L0,-3.0L2.5,-0.5"/>
  </g>
  <g id="resetDef">
    <use xlink:href="#rim2" fill="#404040"><set attributeName="fill" to="#808080" begin="reset.mouseover" end="reset.mouseout"/></use>
  </g>
</defs>
<script type="application/ecmascript">
var viewWidth = 1161;
var viewHeight = 286;
var sectionId = 'dynsection-2';
</script>
<script type="application/ecmascript" xlink:href="svg.min.js"/>
<svg id="graph" class="graph">
<g id="viewport">
<title>wmtk::operations::EdgeSplit::EdgeSplit</title>
<!-- Node1 -->
<g id="Node000001" class="node">
<title>Node1</title>
<g id="a_Node000001"><a xlink:title=" ">
<polygon fill="#999999" stroke="#666666" points="154,-115 0,-115 0,-85 154,-85 154,-115"/>
<text text-anchor="start" x="8" y="-103" font-family="Helvetica,sans-Serif" font-size="10.00">wmtk::operations::EdgeSplit</text>
<text text-anchor="middle" x="77" y="-92" font-family="Helvetica,sans-Serif" font-size="10.00">::EdgeSplit</text>
</a>
</g>
</g>
<!-- Node2 -->
<g id="Node000002" class="node">
<title>Node2</title>
<g id="a_Node000002"><a xlink:href="classwmtk_1_1_mesh.html#a1d3ffa74e65ca7932d7ed32c3959e2a1" target="_top" xlink:title=" ">
<polygon fill="white" stroke="#666666" points="329.5,-182 210.5,-182 210.5,-152 329.5,-152 329.5,-182"/>
<text text-anchor="start" x="218.5" y="-170" font-family="Helvetica,sans-Serif" font-size="10.00">wmtk::Mesh::custom</text>
<text text-anchor="middle" x="270" y="-159" font-family="Helvetica,sans-Serif" font-size="10.00">_attributes</text>
</a>
</g>
</g>
<!-- Node1&#45;&gt;Node2 -->
<g id="edge1_Node000001_Node000002" class="edge">
<title>Node1&#45;&gt;Node2</title>
<g id="a_edge1_Node000001_Node000002"><a xlink:title=" ">
<path fill="none" stroke="#63b8ff" d="M120.86,-115.04C149.15,-124.96 186.39,-138.02 216.46,-148.57"/>
<polygon fill="#63b8ff" stroke="#63b8ff" points="215.35,-151.89 225.95,-151.9 217.67,-145.29 215.35,-151.89"/>
</a>
</g>
</g>
<!-- Node10 -->
<g id="Node000010" class="node">
<title>Node10</title>
<g id="a_Node000010"><a xlink:href="classwmtk_1_1multimesh_1_1_multi_mesh_visitor.html#a4ae1801ee1021dd57a0ede0444efc2d6" target="_top" xlink:title=" ">
<polygon fill="white" stroke="#666666" points="350,-115 190,-115 190,-85 350,-85 350,-115"/>
<text text-anchor="start" x="198" y="-103" font-family="Helvetica,sans-Serif" font-size="10.00">wmtk::multimesh::MultiMesh</text>
<text text-anchor="middle" x="270" y="-92" font-family="Helvetica,sans-Serif" font-size="10.00">Visitor::execute_from_root</text>
</a>
</g>
</g>
<!-- Node1&#45;&gt;Node10 -->
<g id="edge9_Node000001_Node000010" class="edge">
<title>Node1&#45;&gt;Node10</title>
<g id="a_edge9_Node000001_Node000010"><a xlink:title=" ">
<path fill="none" stroke="#63b8ff" d="M154.04,-100C162.49,-100 171.15,-100 179.74,-100"/>
<polygon fill="#63b8ff" stroke="#63b8ff" points="179.78,-103.5 189.78,-100 179.78,-96.5 179.78,-103.5"/>
</a>
</g>
</g>
<!-- Node18 -->
<g id="Node000018" class="node">
<title>Node18</title>
<g id="a_Node000018"><a xlink:href="classwmtk_1_1operations_1_1_operation.html#a741f1c2a8065cf4542ae47f3b6e19c17" target="_top" xlink:title=" ">
<polygon fill="white" stroke="#666666" points="348,-67 192,-67 192,-37 348,-37 348,-67"/>
<text text-anchor="start" x="200" y="-55" font-family="Helvetica,sans-Serif" font-size="10.00">wmtk::operations::Operation</text>
<text text-anchor="middle" x="270" y="-44" font-family="Helvetica,sans-Serif" font-size="10.00">::mesh</text>
</a>
</g>
</g>
<!-- Node1&#45;&gt;Node18 -->
<g id="edge20_Node000001_Node000018" class="edge">
<title>Node1&#45;&gt;Node18</title>
<g id="a_edge20_Node000001_Node000018"><a xlink:title=" ">
<path fill="none" stroke="#63b8ff" d="M137.91,-84.94C157.47,-80.03 179.34,-74.53 199.54,-69.46"/>
<polygon fill="#63b8ff" stroke="#63b8ff" points="200.46,-72.83 209.3,-67 198.75,-66.05 200.46,-72.83"/>
</a>
</g>
</g>
<!-- Node3 -->
<g id="Node000003" class="node">
<title>Node3</title>
<g id="a_Node000003"><a xlink:href="classwmtk_1_1_mesh.html#a1c0d9a42a56f5532b6f278f93560ca5a" target="_top" xlink:title=" ">
<polygon fill="white" stroke="#666666" points="522.5,-230 409.5,-230 409.5,-200 522.5,-200 522.5,-230"/>
<text text-anchor="start" x="417.5" y="-218" font-family="Helvetica,sans-Serif" font-size="10.00">wmtk::Mesh::builtin</text>
<text text-anchor="middle" x="466" y="-207" font-family="Helvetica,sans-Serif" font-size="10.00">_attributes</text>
</a>
</g>
</g>
<!-- Node2&#45;&gt;Node3 -->
<g id="edge2_Node000002_Node000003" class="edge">
<title>Node2&#45;&gt;Node3</title>
<g id="a_edge2_Node000002_Node000003"><a xlink:title=" ">
<path fill="none" stroke="#63b8ff" d="M329.73,-181.53C351.79,-186.99 376.98,-193.22 399.6,-198.82"/>
<polygon fill="#63b8ff" stroke="#63b8ff" points="398.91,-202.25 409.46,-201.26 400.59,-195.46 398.91,-202.25"/>
</a>
</g>
</g>
<!-- Node8 -->
<g id="Node000008" class="node">
<title>Node8</title>
<g id="a_Node000008"><a xlink:href="classwmtk_1_1attribute_1_1_attribute_manager.html#aa87669e6919f7825ca475a3c9e85d76c" target="_top" xlink:title=" ">
<polygon fill="white" stroke="#666666" points="541.5,-182 390.5,-182 390.5,-152 541.5,-152 541.5,-182"/>
<text text-anchor="start" x="398.5" y="-170" font-family="Helvetica,sans-Serif" font-size="10.00">wmtk::attribute::Attribute</text>
<text text-anchor="middle" x="466" y="-159" font-family="Helvetica,sans-Serif" font-size="10.00">Manager::get_all_attributes</text>
</a>
</g>
</g>
<!-- Node2&#45;&gt;Node8 -->
<g id="edge7_Node000002_Node000008" class="edge">
<title>Node2&#45;&gt;Node8</title>
<g id="a_edge7_Node000002_Node000008"><a xlink:title=" ">
<path fill="none" stroke="#63b8ff" d="M329.73,-167C345.53,-167 362.93,-167 379.85,-167"/>
<polygon fill="#63b8ff" stroke="#63b8ff" points="380.3,-170.5 390.3,-167 380.3,-163.5 380.3,-170.5"/>
</a>
</g>
</g>
<!-- Node4 -->
<g id="Node000004" class="node">
<title>Node4</title>
<g id="a_Node000004"><a xlink:href="classwmtk_1_1_mesh.html#aa38529f8d30f4b8a4808c1bce8255623" target="_top" xlink:title="Returns a vector of vectors of attribute handles.">
<polygon fill="white" stroke="#666666" points="733.5,-278 590.5,-278 590.5,-248 733.5,-248 733.5,-278"/>
<text text-anchor="start" x="598.5" y="-266" font-family="Helvetica,sans-Serif" font-size="10.00">wmtk::Mesh::connectivity</text>
<text text-anchor="middle" x="662" y="-255" font-family="Helvetica,sans-Serif" font-size="10.00">_attributes</text>
</a>
</g>
</g>
<!-- Node3&#45;&gt;Node4 -->
<g id="edge3_Node000003_Node000004" class="edge">
<title>Node3&#45;&gt;Node4</title>
<g id="a_edge3_Node000003_Node000004"><a xlink:title=" ">
<path fill="none" stroke="#63b8ff" d="M522.59,-228.75C543.76,-233.99 568.16,-240.03 590.52,-245.56"/>
<polygon fill="#63b8ff" stroke="#63b8ff" points="589.75,-248.98 600.3,-247.98 591.44,-242.18 589.75,-248.98"/>
</a>
</g>
</g>
<!-- Node5 -->
<g id="Node000005" class="node">
<title>Node5</title>
<g id="a_Node000005"><a xlink:href="classwmtk_1_1multimesh_1_1_multi_mesh_manager.html#ab3962ab9a7904e12b10f73f227296072" target="_top" xlink:title=" ">
<polygon fill="white" stroke="#666666" points="742,-230 582,-230 582,-200 742,-200 742,-230"/>
<text text-anchor="start" x="590" y="-218" font-family="Helvetica,sans-Serif" font-size="10.00">wmtk::multimesh::MultiMesh</text>
<text text-anchor="middle" x="662" y="-207" font-family="Helvetica,sans-Serif" font-size="10.00">Manager::map_handles</text>
</a>
</g>
</g>
<!-- Node3&#45;&gt;Node5 -->
<g id="edge4_Node000003_Node000005" class="edge">
<title>Node3&#45;&gt;Node5</title>
<g id="a_edge4_Node000003_Node000005"><a xlink:title=" ">
<path fill="none" stroke="#63b8ff" d="M522.59,-215C537.89,-215 554.88,-215 571.57,-215"/>
<polygon fill="#63b8ff" stroke="#63b8ff" points="571.91,-218.5 581.91,-215 571.91,-211.5 571.91,-218.5"/>
</a>
</g>
</g>
<!-- Node6 -->
<g id="Node000006" class="node">
<title>Node6</title>
<g id="a_Node000006"><a xlink:href="classwmtk_1_1attribute_1_1_typed_attribute_handle.html#ad473b36dc43489bad4a345dceac443fa" target="_top" xlink:title=" ">
<polygon fill="white" stroke="#666666" points="948,-230 778,-230 778,-200 948,-200 948,-230"/>
<text text-anchor="start" x="786" y="-218" font-family="Helvetica,sans-Serif" font-size="10.00">wmtk::attribute::TypedAttribute</text>
<text text-anchor="middle" x="863" y="-207" font-family="Helvetica,sans-Serif" font-size="10.00">Handle::is_valid</text>
</a>
</g>
</g>
<!-- Node5&#45;&gt;Node6 -->
<g id="edge5_Node000005_Node000006" class="edge">
<title>Node5&#45;&gt;Node6</title>
<g id="a_edge5_Node000005_Node000006"><a xlink:title=" ">
<path fill="none" stroke="#63b8ff" d="M742.22,-215C750.64,-215 759.25,-215 767.81,-215"/>
<polygon fill="#63b8ff" stroke="#63b8ff" points="767.83,-218.5 777.83,-215 767.83,-211.5 767.83,-218.5"/>
</a>
</g>
</g>
<!-- Node7 -->
<g id="Node000007" class="node">
<title>Node7</title>
<g id="a_Node000007"><a xlink:href="classwmtk_1_1attribute_1_1_attribute_handle.html#afbe0d658f352336562850deaca347fe6" target="_top" xlink:title=" ">
<polygon fill="white" stroke="#666666" points="1139,-230 998,-230 998,-200 1139,-200 1139,-230"/>
<text text-anchor="start" x="1006" y="-218" font-family="Helvetica,sans-Serif" font-size="10.00">wmtk::attribute::Attribute</text>
<text text-anchor="middle" x="1068.5" y="-207" font-family="Helvetica,sans-Serif" font-size="10.00">Handle::is_valid</text>
</a>
</g>
</g>
<!-- Node6&#45;&gt;Node7 -->
<g id="edge6_Node000006_Node000007" class="edge">
<title>Node6&#45;&gt;Node7</title>
<g id="a_edge6_Node000006_Node000007"><a xlink:title=" ">
<path fill="none" stroke="#63b8ff" d="M948.24,-215C961.27,-215 974.69,-215 987.62,-215"/>
<polygon fill="#63b8ff" stroke="#63b8ff" points="987.87,-218.5 997.87,-215 987.87,-211.5 987.87,-218.5"/>
</a>
</g>
</g>
<!-- Node9 -->
<g id="Node000009" class="node">
<title>Node9</title>
<g id="a_Node000009"><a xlink:href="namespacewmtk.html#a3b08a5d7fb42f02c54bae85758b39f59" target="_top" xlink:title="Get the primitive type corresponding to its unique integer id.">
<polygon fill="white" stroke="#666666" points="720,-182 604,-182 604,-152 720,-152 720,-182"/>
<text text-anchor="start" x="612" y="-170" font-family="Helvetica,sans-Serif" font-size="10.00">wmtk::get_primitive</text>
<text text-anchor="middle" x="662" y="-159" font-family="Helvetica,sans-Serif" font-size="10.00">_type_from_id</text>
</a>
</g>
</g>
<!-- Node8&#45;&gt;Node9 -->
<g id="edge8_Node000008_Node000009" class="edge">
<title>Node8&#45;&gt;Node9</title>
<g id="a_edge8_Node000008_Node000009"><a xlink:title=" ">
<path fill="none" stroke="#63b8ff" d="M541.73,-167C558.79,-167 576.82,-167 593.55,-167"/>
<polygon fill="#63b8ff" stroke="#63b8ff" points="593.79,-170.5 603.79,-167 593.79,-163.5 593.79,-170.5"/>
</a>
</g>
</g>
<!-- Node11 -->
<g id="Node000011" class="node">
<title>Node11</title>
<g id="a_Node000011"><a xlink:href="namespacewmtk_1_1utils_1_1metaprogramming.html#aa5a891c5f82fc2a28e4fbdfc325b46f0" target="_top" xlink:title=" ">
<polygon fill="white" stroke="#666666" points="1153,-109 984,-109 984,-79 1153,-79 1153,-109"/>
<text text-anchor="start" x="992" y="-97" font-family="Helvetica,sans-Serif" font-size="10.00">wmtk::utils::metaprogramming</text>
<text text-anchor="middle" x="1068.5" y="-86" font-family="Helvetica,sans-Serif" font-size="10.00">::as_mesh_variant</text>
</a>
</g>
</g>
<!-- Node10&#45;&gt;Node11 -->
<g id="edge10_Node000010_Node000011" class="edge">
<title>Node10&#45;&gt;Node11</title>
<g id="a_edge10_Node000010_Node000011"><a xlink:title=" ">
<path fill="none" stroke="#63b8ff" d="M350.17,-103.89C362.17,-104.35 374.41,-104.75 386,-105 635.72,-110.43 698.49,-116.46 948,-105 956.38,-104.62 965.07,-104.08 973.78,-103.45"/>
<polygon fill="#63b8ff" stroke="#63b8ff" points="974.29,-106.92 983.99,-102.67 973.76,-99.94 974.29,-106.92"/>
</a>
</g>
</g>
<!-- Node12 -->
<g id="Node000012" class="node">
<title>Node12</title>
<g id="a_Node000012"><a xlink:href="classwmtk_1_1multimesh_1_1_multi_mesh_visitor.html#ad96e498fcc27eeb8993f175015c864b4" target="_top" xlink:title=" ">
<polygon fill="white" stroke="#666666" points="546,-96 386,-96 386,-66 546,-66 546,-96"/>
<text text-anchor="start" x="394" y="-84" font-family="Helvetica,sans-Serif" font-size="10.00">wmtk::multimesh::MultiMesh</text>
<text text-anchor="middle" x="466" y="-73" font-family="Helvetica,sans-Serif" font-size="10.00">Visitor::execute_mesh</text>
</a>
</g>
</g>
<!-- Node10&#45;&gt;Node12 -->
<g id="edge11_Node000010_Node000012" class="edge">
<title>Node10&#45;&gt;Node12</title>
<g id="a_edge11_Node000010_Node000012"><a xlink:title=" ">
<path fill="none" stroke="#63b8ff" d="M350.19,-92.24C358.62,-91.42 367.24,-90.57 375.78,-89.74"/>
<polygon fill="#63b8ff" stroke="#63b8ff" points="376.14,-93.22 385.75,-88.76 375.46,-86.25 376.14,-93.22"/>
</a>
</g>
</g>
<!-- Node15 -->
<g id="Node000015" class="node">
<title>Node15</title>
<g id="a_Node000015"><a xlink:href="classwmtk_1_1_mesh.html#aac3ec1ebbe00982ddfe70cc710d8f54e" target="_top" xlink:title="returns a reference to the root of a multimesh tree">
<polygon fill="white" stroke="#666666" points="530.5,-39 401.5,-39 401.5,-9 530.5,-9 530.5,-39"/>
<text text-anchor="start" x="409.5" y="-27" font-family="Helvetica,sans-Serif" font-size="10.00">wmtk::Mesh::get_multi</text>
<text text-anchor="middle" x="466" y="-16" font-family="Helvetica,sans-Serif" font-size="10.00">_mesh_root</text>
</a>
</g>
</g>
<!-- Node10&#45;&gt;Node15 -->
<g id="edge16_Node000010_Node000015" class="edge">
<title>Node10&#45;&gt;Node15</title>
<g id="a_edge16_Node000010_Node000015"><a xlink:title=" ">
<path fill="none" stroke="#63b8ff" d="M325.45,-84.95C333.77,-82.23 342.18,-79.22 350,-76 366.73,-69.12 369.64,-64.72 386,-57 396.09,-52.24 407.05,-47.44 417.5,-43.03"/>
<polygon fill="#63b8ff" stroke="#63b8ff" points="419.04,-46.18 426.92,-39.09 416.35,-39.72 419.04,-46.18"/>
</a>
</g>
</g>
<!-- Node13 -->
<g id="Node000013" class="node">
<title>Node13</title>
<g id="a_Node000013"><a xlink:href="classwmtk_1_1multimesh_1_1_multi_mesh_visitor_executor.html#ad59739579a81676fc3ab172e80ce8550" target="_top" xlink:title=" ">
<polygon fill="white" stroke="#666666" points="742,-96 582,-96 582,-66 742,-66 742,-96"/>
<text text-anchor="start" x="590" y="-84" font-family="Helvetica,sans-Serif" font-size="10.00">wmtk::multimesh::MultiMesh</text>
<text text-anchor="middle" x="662" y="-73" font-family="Helvetica,sans-Serif" font-size="10.00">VisitorExecutor::execute</text>
</a>
</g>
</g>
<!-- Node12&#45;&gt;Node13 -->
<g id="edge12_Node000012_Node000013" class="edge">
<title>Node12&#45;&gt;Node13</title>
<g id="a_edge12_Node000012_Node000013"><a xlink:title=" ">
<path fill="none" stroke="#63b8ff" d="M546.19,-81C554.53,-81 563.05,-81 571.5,-81"/>
<polygon fill="#63b8ff" stroke="#63b8ff" points="571.75,-84.5 581.75,-81 571.75,-77.5 571.75,-84.5"/>
</a>
</g>
</g>
<!-- Node14 -->
<g id="Node000014" class="node">
<title>Node14</title>
<g id="a_Node000014"><a xlink:href="classwmtk_1_1multimesh_1_1_multi_mesh_visitor_executor.html#a6e0ef7ccec71b521a3bc5eb5df90bef0" target="_top" xlink:title=" ">
<polygon fill="white" stroke="#666666" points="943,-78 783,-78 783,-48 943,-48 943,-78"/>
<text text-anchor="start" x="791" y="-66" font-family="Helvetica,sans-Serif" font-size="10.00">wmtk::multimesh::MultiMesh</text>
<text text-anchor="middle" x="863" y="-55" font-family="Helvetica,sans-Serif" font-size="10.00">VisitorExecutor::run</text>
</a>
</g>
</g>
<!-- Node13&#45;&gt;Node14 -->
<g id="edge13_Node000013_Node000014" class="edge">
<title>Node13&#45;&gt;Node14</title>
<g id="a_edge13_Node000013_Node000014"><a xlink:title=" ">
<path fill="none" stroke="#63b8ff" d="M742.22,-73.83C752.22,-72.93 762.5,-72 772.65,-71.08"/>
<polygon fill="#63b8ff" stroke="#63b8ff" points="773.08,-74.56 782.73,-70.17 772.45,-67.59 773.08,-74.56"/>
</a>
</g>
</g>
<!-- Node14&#45;&gt;Node11 -->
<g id="edge14_Node000014_Node000011" class="edge">
<title>Node14&#45;&gt;Node11</title>
<g id="a_edge14_Node000014_Node000011"><a xlink:title=" ">
<path fill="none" stroke="#63b8ff" d="M943.26,-75.07C953.22,-76.59 963.48,-78.15 973.64,-79.7"/>
<polygon fill="#63b8ff" stroke="#63b8ff" points="973.34,-83.2 983.75,-81.24 974.39,-76.28 973.34,-83.2"/>
</a>
</g>
</g>
<!-- Node14&#45;&gt;Node14 -->
<g id="edge15_Node000014_Node000014" class="edge">
<title>Node14&#45;&gt;Node14</title>
<g id="a_edge15_Node000014_Node000014"><a xlink:title=" ">
<path fill="none" stroke="#63b8ff" d="M827.84,-78.28C820.03,-87.41 831.75,-96 863,-96 881.55,-96 893.22,-92.97 898.01,-88.6"/>
<polygon fill="#63b8ff" stroke="#63b8ff" points="901.51,-88.32 898.16,-78.28 894.51,-88.22 901.51,-88.32"/>
</a>
</g>
</g>
<!-- Node16 -->
<g id="Node000016" class="node">
<title>Node16</title>
<g id="a_Node000016"><a xlink:href="classwmtk_1_1multimesh_1_1_multi_mesh_manager.html#a434e74f6b295055a45914d41a784124a" target="_top" xlink:title=" ">
<polygon fill="white" stroke="#666666" points="742,-30 582,-30 582,0 742,0 742,-30"/>
<text text-anchor="start" x="590" y="-18" font-family="Helvetica,sans-Serif" font-size="10.00">wmtk::multimesh::MultiMesh</text>
<text text-anchor="middle" x="662" y="-7" font-family="Helvetica,sans-Serif" font-size="10.00">Manager::get_root_mesh</text>
</a>
</g>
</g>
<!-- Node15&#45;&gt;Node16 -->
<g id="edge17_Node000015_Node000016" class="edge">
<title>Node15&#45;&gt;Node16</title>
<g id="a_edge17_Node000015_Node000016"><a xlink:title=" ">
<path fill="none" stroke="#63b8ff" d="M530.52,-21.05C543.68,-20.44 557.78,-19.79 571.67,-19.14"/>
<polygon fill="#63b8ff" stroke="#63b8ff" points="571.9,-22.64 581.73,-18.68 571.57,-15.64 571.9,-22.64"/>
</a>
</g>
</g>
<!-- Node16&#45;&gt;Node16 -->
<g id="edge18_Node000016_Node000016" class="edge">
<title>Node16&#45;&gt;Node16</title>
<g id="a_edge18_Node000016_Node000016"><a xlink:title=" ">
<path fill="none" stroke="#63b8ff" d="M627.55,-30.28C619.89,-39.41 631.38,-48 662,-48 680.18,-48 691.62,-44.97 696.31,-40.6"/>
<polygon fill="#63b8ff" stroke="#63b8ff" points="699.81,-40.32 696.45,-30.28 692.81,-40.22 699.81,-40.32"/>
</a>
</g>
</g>
<!-- Node17 -->
<g id="Node000017" class="node">
<title>Node17</title>
<g id="a_Node000017"><a xlink:href="classwmtk_1_1multimesh_1_1_multi_mesh_manager.html#a7d39339adb56b1798fe817d81bfcc67c" target="_top" xlink:title="Specifies whether this structure is the root of a multi&#45;mesh tree.">
<polygon fill="white" stroke="#666666" points="943,-30 783,-30 783,0 943,0 943,-30"/>
<text text-anchor="start" x="791" y="-18" font-family="Helvetica,sans-Serif" font-size="10.00">wmtk::multimesh::MultiMesh</text>
<text text-anchor="middle" x="863" y="-7" font-family="Helvetica,sans-Serif" font-size="10.00">Manager::is_root</text>
</a>
</g>
</g>
<!-- Node16&#45;&gt;Node17 -->
<g id="edge19_Node000016_Node000017" class="edge">
<title>Node16&#45;&gt;Node17</title>
<g id="a_edge19_Node000016_Node000017"><a xlink:title=" ">
<path fill="none" stroke="#63b8ff" d="M742.22,-15C752.22,-15 762.5,-15 772.65,-15"/>
<polygon fill="#63b8ff" stroke="#63b8ff" points="772.73,-18.5 782.73,-15 772.73,-11.5 772.73,-18.5"/>
</a>
</g>
</g>
</g>
</svg>

<g id="navigator" transform="translate(0 0)" fill="#404254">
  <rect fill="#f2f5e9" fill-opacity="0.5" stroke="#606060" stroke-width=".5" x="0" y="0" width="60" height="60"/>
  <use id="zoomplus" xlink:href="#zoomPlus" x="17" y="9" onmousedown="handleZoom(evt,'in')"/>
  <use id="zoomminus" xlink:href="#zoomMin" x="42" y="9" onmousedown="handleZoom(evt,'out')"/>
  <use id="reset" xlink:href="#resetDef" x="30" y="36" onmousedown="handleReset()"/>
   <use id="arrowup" xlink:href="#arrowUp" x="0" y="0" onmousedown="handlePan(0,-1)"/>
  <use id="arrowright" xlink:href="#arrowRight" x="0" y="0" onmousedown="handlePan(1,0)"/>
  <use id="arrowdown" xlink:href="#arrowDown" x="0" y="0" onmousedown="handlePan(0,1)"/>
  <use id="arrowleft" xlink:href="#arrowLeft" x="0" y="0" onmousedown="handlePan(-1,0)"/>
</g>
<svg viewBox="0 0 15 15" width="100%" height="30px" preserveAspectRatio="xMaxYMin meet">
 <g id="arrow_out" transform="scale(0.3 0.3)">
  <a xlink:href="classwmtk_1_1operations_1_1_edge_split_a81bb31c49a0200610f79af9a5253a11d_cgraph_org.svg" target="_base">
   <rect id="button" ry="5" rx="5" y="6" x="6" height="38" width="38"
        fill="#f2f5e9" fill-opacity="0.5" stroke="#606060" stroke-width="1.0"/>
   <path id="arrow"
     d="M 11.500037,31.436501 C 11.940474,20.09759 22.043105,11.32322 32.158766,21.979434 L 37.068811,17.246167 C 37.068811,17.246167 37.088388,32 37.088388,32 L 22.160133,31.978069 C 22.160133,31.978069 26.997745,27.140456 26.997745,27.140456 C 18.528582,18.264221 13.291696,25.230495 11.500037,31.436501 z"
     style="fill:#404040;"/>
  </a>
 </g>
</svg>

<style type='text/css'>
<![CDATA[
[data-mouse-over-selected='false'] { opacity: 0.7; }
[data-mouse-over-selected='true']  { opacity: 1.0; }
]]>
</style>
<script type="application/ecmascript"><![CDATA[
document.addEventListener('DOMContentLoaded', (event) => {
  highlightEdges();
  highlightAdjacentNodes();
});
]]></script>
</svg>
