<?xml version="1.0" encoding="UTF-8" standalone="no"?>
<!DOCTYPE svg PUBLIC "-//W3C//DTD SVG 1.1//EN"
 "http://www.w3.org/Graphics/SVG/1.1/DTD/svg11.dtd">
<!-- Generated by graphviz version 2.43.0 (0)
 -->
<!-- Title: wmtk::utils::metaprogramming::detail::ReferenceWrappedFunctorReturnCache::has_variant Pages: 1 -->
<svg width="591pt" height="75pt"
 viewBox="0.00 0.00 591.00 75.00" xmlns="http://www.w3.org/2000/svg" xmlns:xlink="http://www.w3.org/1999/xlink">
<g id="graph0" class="graph" transform="scale(1 1) rotate(0) translate(4 71)">
<title>wmtk::utils::metaprogramming::detail::ReferenceWrappedFunctorReturnCache::has_variant</title>
<!-- Node1 -->
<g id="node1" class="node">
<title>Node1</title>
<g id="a_node1"><a xlink:title=" ">
<polygon fill="#bfbfbf" stroke="black" points="0,-0.5 0,-41.5 185,-41.5 185,-0.5 0,-0.5"/>
<text text-anchor="start" x="8" y="-29.5" font-family="Helvetica,sans-Serif" font-size="10.00">wmtk::utils::metaprogramming</text>
<text text-anchor="start" x="8" y="-18.5" font-family="Helvetica,sans-Serif" font-size="10.00">::detail::ReferenceWrappedFunctor</text>
<text text-anchor="middle" x="92.5" y="-7.5" font-family="Helvetica,sans-Serif" font-size="10.00">ReturnCache::has_variant</text>
</a>
</g>
</g>
<!-- Node2 -->
<g id="node2" class="node">
<title>Node2</title>
<g id="a_node2"><a xlink:href="classwmtk_1_1utils_1_1metaprogramming_1_1detail_1_1_reference_wrapped_functor_return_cache.html#a31b56eba1f5bd731f738170979d38bfc" target="_top" xlink:title=" ">
<polygon fill="none" stroke="black" points="221,-25.5 221,-66.5 406,-66.5 406,-25.5 221,-25.5"/>
<text text-anchor="start" x="229" y="-54.5" font-family="Helvetica,sans-Serif" font-size="10.00">wmtk::utils::metaprogramming</text>
<text text-anchor="start" x="229" y="-43.5" font-family="Helvetica,sans-Serif" font-size="10.00">::detail::ReferenceWrappedFunctor</text>
<text text-anchor="middle" x="313.5" y="-32.5" font-family="Helvetica,sans-Serif" font-size="10.00">ReturnCache::get_id</text>
</a>
</g>
</g>
<!-- Node1&#45;&gt;Node2 -->
<g id="edge1" class="edge">
<title>Node1&#45;&gt;Node2</title>
<path fill="none" stroke="midnightblue" d="M185.11,-31.46C193.62,-32.43 202.27,-33.42 210.86,-34.4"/>
<polygon fill="midnightblue" stroke="midnightblue" points="210.58,-37.89 220.91,-35.54 211.37,-30.93 210.58,-37.89"/>
</g>
<!-- Node3 -->
<g id="node3" class="node">
<title>Node3</title>
<g id="a_node3"><a xlink:href="namespacewmtk_1_1components_1_1input.html#a324e10679ed262426e707cacb92aaf01" target="_top" xlink:title=" ">
<polygon fill="none" stroke="black" points="442,-6 442,-36 583,-36 583,-6 442,-6"/>
<text text-anchor="start" x="450" y="-24" font-family="Helvetica,sans-Serif" font-size="10.00">wmtk::components::input</text>
<text text-anchor="middle" x="512.5" y="-13" font-family="Helvetica,sans-Serif" font-size="10.00">::input</text>
</a>
</g>
</g>
<!-- Node1&#45;&gt;Node3 -->
<g id="edge3" class="edge">
<title>Node1&#45;&gt;Node3</title>
<path fill="none" stroke="midnightblue" d="M185.07,-16.98C197.15,-16.57 209.37,-16.23 221,-16 303.21,-14.39 323.8,-14.05 406,-16 414.37,-16.2 423.1,-16.48 431.81,-16.82"/>
<polygon fill="midnightblue" stroke="midnightblue" points="431.86,-20.33 442,-17.24 432.15,-13.33 431.86,-20.33"/>
</g>
<!-- Node2&#45;&gt;Node3 -->
<g id="edge2" class="edge">
<title>Node2&#45;&gt;Node3</title>
<path fill="none" stroke="midnightblue" d="M406.08,-34.38C414.65,-33.29 423.29,-32.19 431.74,-31.12"/>
<polygon fill="midnightblue" stroke="midnightblue" points="432.46,-34.56 441.94,-29.83 431.58,-27.61 432.46,-34.56"/>
</g>
</g>
</svg>
