<?xml version="1.0" encoding="UTF-8" standalone="no"?>
<!DOCTYPE svg PUBLIC "-//W3C//DTD SVG 1.1//EN"
 "http://www.w3.org/Graphics/SVG/1.1/DTD/svg11.dtd">
<!-- Generated by graphviz version 2.43.0 (0)
 -->
<!-- Title: wmtk::io::Cache::create_unique_file Pages: 1 -->
<svg width="1391pt" height="638pt"
 viewBox="0.00 0.00 1391.00 638.00" xmlns="http://www.w3.org/2000/svg" xmlns:xlink="http://www.w3.org/1999/xlink">
<g id="graph0" class="graph" transform="scale(1 1) rotate(0) translate(4 634)">
<title>wmtk::io::Cache::create_unique_file</title>
<!-- Node1 -->
<g id="node1" class="node">
<title>Node1</title>
<g id="a_node1"><a xlink:title="Create a file with the given name in the cache without overwriting any file with the same name.">
<polygon fill="#bfbfbf" stroke="black" points="1251,-286 1251,-316 1383,-316 1383,-286 1251,-286"/>
<text text-anchor="start" x="1259" y="-304" font-family="Helvetica,sans-Serif" font-size="10.00">wmtk::io::Cache::create</text>
<text text-anchor="middle" x="1317" y="-293" font-family="Helvetica,sans-Serif" font-size="10.00">_unique_file</text>
</a>
</g>
</g>
<!-- Node2 -->
<g id="node2" class="node">
<title>Node2</title>
<g id="a_node2"><a xlink:href="classwmtk_1_1io_1_1_cache.html#ae264d81e36515e42718a72469acb3a2a" target="_top" xlink:title="Export the cache to the given location.">
<polygon fill="none" stroke="black" points="1082,-330 1082,-360 1215,-360 1215,-330 1082,-330"/>
<text text-anchor="start" x="1090" y="-348" font-family="Helvetica,sans-Serif" font-size="10.00">wmtk::io::Cache::export</text>
<text text-anchor="middle" x="1148.5" y="-337" font-family="Helvetica,sans-Serif" font-size="10.00">_cache</text>
</a>
</g>
</g>
<!-- Node1&#45;&gt;Node2 -->
<g id="edge1" class="edge">
<title>Node1&#45;&gt;Node2</title>
<path fill="none" stroke="midnightblue" d="M1249.42,-318.59C1235.16,-322.36 1220.22,-326.31 1206.36,-329.97"/>
<polygon fill="midnightblue" stroke="midnightblue" points="1250.39,-321.96 1259.17,-316.02 1248.6,-315.19 1250.39,-321.96"/>
</g>
<!-- Node3 -->
<g id="node3" class="node">
<title>Node3</title>
<g id="a_node3"><a xlink:href="classwmtk_1_1io_1_1_cache.html#a4de81893405bfe6c61b847c5638a6baa" target="_top" xlink:title="Get the path where the file with the given name is stored.">
<polygon fill="none" stroke="black" points="1090,-220 1090,-250 1207,-250 1207,-220 1090,-220"/>
<text text-anchor="start" x="1098" y="-238" font-family="Helvetica,sans-Serif" font-size="10.00">wmtk::io::Cache::get</text>
<text text-anchor="middle" x="1148.5" y="-227" font-family="Helvetica,sans-Serif" font-size="10.00">_file_path</text>
</a>
</g>
</g>
<!-- Node1&#45;&gt;Node3 -->
<g id="edge2" class="edge">
<title>Node1&#45;&gt;Node3</title>
<path fill="none" stroke="midnightblue" d="M1268.28,-282.08C1242.65,-271.92 1211.49,-259.57 1187.52,-250.07"/>
<polygon fill="midnightblue" stroke="midnightblue" points="1267.22,-285.43 1277.8,-285.86 1269.8,-278.92 1267.22,-285.43"/>
</g>
<!-- Node20 -->
<g id="node20" class="node">
<title>Node20</title>
<g id="a_node20"><a xlink:href="classwmtk_1_1io_1_1_cache.html#a512b2d7adaeb163afee61b194eb802fd" target="_top" xlink:title="Write a mesh to cache.">
<polygon fill="none" stroke="black" points="888,-308.5 888,-327.5 1046,-327.5 1046,-308.5 888,-308.5"/>
<text text-anchor="middle" x="967" y="-315.5" font-family="Helvetica,sans-Serif" font-size="10.00">wmtk::io::Cache::write_mesh</text>
</a>
</g>
</g>
<!-- Node1&#45;&gt;Node20 -->
<g id="edge20" class="edge">
<title>Node1&#45;&gt;Node20</title>
<path fill="none" stroke="midnightblue" d="M1240.84,-304.67C1183.35,-307.48 1104.33,-311.34 1046.12,-314.18"/>
<polygon fill="midnightblue" stroke="midnightblue" points="1241.13,-308.16 1250.95,-304.18 1240.79,-301.17 1241.13,-308.16"/>
</g>
<!-- Node4 -->
<g id="node4" class="node">
<title>Node4</title>
<g id="a_node4"><a xlink:href="classwmtk_1_1io_1_1_cache.html#ae8e0a75e2e3df0e8a1680ab62bbc814e" target="_top" xlink:title="Load a mesh from cache.">
<polygon fill="none" stroke="black" points="889.5,-207.5 889.5,-226.5 1044.5,-226.5 1044.5,-207.5 889.5,-207.5"/>
<text text-anchor="middle" x="967" y="-214.5" font-family="Helvetica,sans-Serif" font-size="10.00">wmtk::io::Cache::read_mesh</text>
</a>
</g>
</g>
<!-- Node3&#45;&gt;Node4 -->
<g id="edge3" class="edge">
<title>Node3&#45;&gt;Node4</title>
<path fill="none" stroke="midnightblue" d="M1079.44,-228.18C1068.08,-227.04 1056.23,-225.85 1044.67,-224.69"/>
<polygon fill="midnightblue" stroke="midnightblue" points="1079.42,-231.69 1089.72,-229.21 1080.12,-224.73 1079.42,-231.69"/>
</g>
<!-- Node5 -->
<g id="node5" class="node">
<title>Node5</title>
<g id="a_node5"><a xlink:href="namespacewmtk_1_1components.html#a21e25d3a6f734e991354c2294bf49bbe" target="_top" xlink:title=" ">
<polygon fill="none" stroke="black" points="663,-152.5 663,-171.5 852,-171.5 852,-152.5 663,-152.5"/>
<text text-anchor="middle" x="757.5" y="-159.5" font-family="Helvetica,sans-Serif" font-size="10.00">wmtk::components::delaunay_exec</text>
</a>
</g>
</g>
<!-- Node4&#45;&gt;Node5 -->
<g id="edge4" class="edge">
<title>Node4&#45;&gt;Node5</title>
<path fill="none" stroke="midnightblue" d="M928.91,-204.2C906.76,-196.82 877.96,-187.72 852,-181 838.69,-177.56 824.18,-174.35 810.65,-171.59"/>
<polygon fill="midnightblue" stroke="midnightblue" points="928,-207.58 938.59,-207.45 930.23,-200.95 928,-207.58"/>
</g>
<!-- Node6 -->
<g id="node6" class="node">
<title>Node6</title>
<g id="a_node6"><a xlink:href="namespacewmtk_1_1components.html#acacc2b8923eea46d8d2c892cf3decfe8" target="_top" xlink:title=" ">
<polygon fill="none" stroke="black" points="691.5,-416 691.5,-446 823.5,-446 823.5,-416 691.5,-416"/>
<text text-anchor="start" x="699.5" y="-434" font-family="Helvetica,sans-Serif" font-size="10.00">wmtk::components::get</text>
<text text-anchor="middle" x="757.5" y="-423" font-family="Helvetica,sans-Serif" font-size="10.00">_all_meshes</text>
</a>
</g>
</g>
<!-- Node4&#45;&gt;Node6 -->
<g id="edge5" class="edge">
<title>Node4&#45;&gt;Node6</title>
<path fill="none" stroke="midnightblue" d="M946.1,-233.39C928.62,-248.73 903.6,-273.12 888,-299 862.1,-341.97 888.58,-371.66 852,-406 844.04,-413.47 834.09,-418.77 823.68,-422.5"/>
<polygon fill="midnightblue" stroke="midnightblue" points="948.69,-235.78 954,-226.62 944.13,-230.47 948.69,-235.78"/>
</g>
<!-- Node7 -->
<g id="node7" class="node">
<title>Node7</title>
<g id="a_node7"><a xlink:href="namespacewmtk_1_1components.html#a1a5ffb0788dc02e8b355a7a1ad447c7f" target="_top" xlink:title=" ">
<polygon fill="none" stroke="black" points="678.5,-279 678.5,-309 836.5,-309 836.5,-279 678.5,-279"/>
<text text-anchor="start" x="686.5" y="-297" font-family="Helvetica,sans-Serif" font-size="10.00">wmtk::components::isotropic</text>
<text text-anchor="middle" x="757.5" y="-286" font-family="Helvetica,sans-Serif" font-size="10.00">_remeshing</text>
</a>
</g>
</g>
<!-- Node4&#45;&gt;Node7 -->
<g id="edge6" class="edge">
<title>Node4&#45;&gt;Node7</title>
<path fill="none" stroke="midnightblue" d="M938.37,-231.18C915.61,-242.47 882.28,-258.13 852,-269 841.96,-272.6 831.14,-275.96 820.56,-278.97"/>
<polygon fill="midnightblue" stroke="midnightblue" points="940.07,-234.24 947.44,-226.63 936.93,-227.98 940.07,-234.24"/>
</g>
<!-- Node9 -->
<g id="node9" class="node">
<title>Node9</title>
<g id="a_node9"><a xlink:href="namespacewmtk_1_1components.html#a2089f999b4072674bda24b29e86257e1" target="_top" xlink:title="Perform maching tetrahedra/triangles.">
<polygon fill="none" stroke="black" points="676.5,-240.5 676.5,-259.5 838.5,-259.5 838.5,-240.5 676.5,-240.5"/>
<text text-anchor="middle" x="757.5" y="-247.5" font-family="Helvetica,sans-Serif" font-size="10.00">wmtk::components::marching</text>
</a>
</g>
</g>
<!-- Node4&#45;&gt;Node9 -->
<g id="edge8" class="edge">
<title>Node4&#45;&gt;Node9</title>
<path fill="none" stroke="midnightblue" d="M896.05,-228.12C870.9,-232.12 842.77,-236.6 818.54,-240.45"/>
<polygon fill="midnightblue" stroke="midnightblue" points="896.93,-231.53 906.26,-226.5 895.84,-224.61 896.93,-231.53"/>
</g>
<!-- Node10 -->
<g id="node10" class="node">
<title>Node10</title>
<g id="a_node10"><a xlink:href="namespacewmtk_1_1components.html#ae2940d2f56c63d17f0f4d53eee921a8b" target="_top" xlink:title=" ">
<polygon fill="none" stroke="black" points="674,-38.5 674,-57.5 841,-57.5 841,-38.5 674,-38.5"/>
<text text-anchor="middle" x="757.5" y="-45.5" font-family="Helvetica,sans-Serif" font-size="10.00">wmtk::components::mesh_info</text>
</a>
</g>
</g>
<!-- Node4&#45;&gt;Node10 -->
<g id="edge9" class="edge">
<title>Node4&#45;&gt;Node10</title>
<path fill="none" stroke="midnightblue" d="M957.32,-198.1C941.38,-165.68 904.24,-99.8 852,-67 845.83,-63.12 839.01,-60.02 831.96,-57.54"/>
<polygon fill="midnightblue" stroke="midnightblue" points="954.27,-199.85 961.74,-207.36 960.59,-196.83 954.27,-199.85"/>
</g>
<!-- Node12 -->
<g id="node12" class="node">
<title>Node12</title>
<g id="a_node12"><a xlink:href="namespacewmtk_1_1components.html#aac69455341d52516952b0655d254ec51" target="_top" xlink:title=" ">
<polygon fill="none" stroke="black" points="673,-377.5 673,-396.5 842,-396.5 842,-377.5 673,-377.5"/>
<text text-anchor="middle" x="757.5" y="-384.5" font-family="Helvetica,sans-Serif" font-size="10.00">wmtk::components::multimesh</text>
</a>
</g>
</g>
<!-- Node4&#45;&gt;Node12 -->
<g id="edge11" class="edge">
<title>Node4&#45;&gt;Node12</title>
<path fill="none" stroke="midnightblue" d="M947.61,-233.48C930.74,-249.22 905.77,-274.14 888,-299 867.88,-327.14 879.64,-347.2 852,-368 846.97,-371.79 841.37,-374.87 835.49,-377.37"/>
<polygon fill="midnightblue" stroke="midnightblue" points="950.17,-235.88 955.16,-226.54 945.43,-230.73 950.17,-235.88"/>
</g>
<!-- Node14 -->
<g id="node14" class="node">
<title>Node14</title>
<g id="a_node14"><a xlink:href="namespacewmtk_1_1components.html#afb654c569d4536f122b7cdfb9156c7d7" target="_top" xlink:title=" ">
<polygon fill="none" stroke="black" points="683.5,-114.5 683.5,-133.5 831.5,-133.5 831.5,-114.5 683.5,-114.5"/>
<text text-anchor="middle" x="757.5" y="-121.5" font-family="Helvetica,sans-Serif" font-size="10.00">wmtk::components::output</text>
</a>
</g>
</g>
<!-- Node4&#45;&gt;Node14 -->
<g id="edge13" class="edge">
<title>Node4&#45;&gt;Node14</title>
<path fill="none" stroke="midnightblue" d="M946.43,-200.98C924.69,-184.01 887.9,-157.68 852,-143 842.49,-139.11 832.11,-135.99 821.83,-133.5"/>
<polygon fill="midnightblue" stroke="midnightblue" points="944.51,-203.93 954.52,-207.41 948.87,-198.45 944.51,-203.93"/>
</g>
<!-- Node15 -->
<g id="node15" class="node">
<title>Node15</title>
<g id="a_node15"><a xlink:href="namespacewmtk_1_1components.html#a899899fc78b0d9575cf5996f9d10d012" target="_top" xlink:title=" ">
<polygon fill="none" stroke="black" points="682,-191 682,-221 833,-221 833,-191 682,-191"/>
<text text-anchor="start" x="690" y="-209" font-family="Helvetica,sans-Serif" font-size="10.00">wmtk::components::regular</text>
<text text-anchor="middle" x="757.5" y="-198" font-family="Helvetica,sans-Serif" font-size="10.00">_space</text>
</a>
</g>
</g>
<!-- Node4&#45;&gt;Node15 -->
<g id="edge15" class="edge">
<title>Node4&#45;&gt;Node15</title>
<path fill="none" stroke="midnightblue" d="M879.33,-212.41C863.98,-211.59 848.11,-210.75 833.13,-209.96"/>
<polygon fill="midnightblue" stroke="midnightblue" points="879.15,-215.9 889.32,-212.94 879.52,-208.91 879.15,-215.9"/>
</g>
<!-- Node16 -->
<g id="node16" class="node">
<title>Node16</title>
<g id="a_node16"><a xlink:href="namespacewmtk_1_1components.html#a070dcd55e46a4a33650a704d6fd1a643" target="_top" xlink:title=" ">
<polygon fill="none" stroke="black" points="691.5,-328 691.5,-358 823.5,-358 823.5,-328 691.5,-328"/>
<text text-anchor="start" x="699.5" y="-346" font-family="Helvetica,sans-Serif" font-size="10.00">wmtk::components::tag</text>
<text text-anchor="middle" x="757.5" y="-335" font-family="Helvetica,sans-Serif" font-size="10.00">_intersection</text>
</a>
</g>
</g>
<!-- Node4&#45;&gt;Node16 -->
<g id="edge16" class="edge">
<title>Node4&#45;&gt;Node16</title>
<path fill="none" stroke="midnightblue" d="M951.49,-234.37C931.46,-257.22 893.13,-297.03 852,-319 843.28,-323.66 833.61,-327.44 823.9,-330.51"/>
<polygon fill="midnightblue" stroke="midnightblue" points="954.38,-236.39 958.24,-226.52 949.07,-231.82 954.38,-236.39"/>
</g>
<!-- Node18 -->
<g id="node18" class="node">
<title>Node18</title>
<g id="a_node18"><a xlink:href="test__component__isotropic__remeshing_8cpp.html#adf1e479866f5fbf4faa9038ece31a877" target="_top" xlink:title=" ">
<polygon fill="none" stroke="black" points="722,-0.5 722,-19.5 793,-19.5 793,-0.5 722,-0.5"/>
<text text-anchor="middle" x="757.5" y="-7.5" font-family="Helvetica,sans-Serif" font-size="10.00">TEST_CASE</text>
</a>
</g>
</g>
<!-- Node4&#45;&gt;Node18 -->
<g id="edge18" class="edge">
<title>Node4&#45;&gt;Node18</title>
<path fill="none" stroke="midnightblue" d="M960.16,-197.72C947.37,-159.03 913.07,-71.96 852,-29 834.93,-16.99 812.01,-12.2 793.14,-10.43"/>
<polygon fill="midnightblue" stroke="midnightblue" points="956.83,-198.81 963.2,-207.27 963.5,-196.68 956.83,-198.81"/>
</g>
<!-- Node19 -->
<g id="node19" class="node">
<title>Node19</title>
<g id="a_node19"><a xlink:href="namespacewmtk_1_1components.html#a503af91b8a2d86f4b9af9dbded55bec0" target="_top" xlink:title=" ">
<polygon fill="none" stroke="black" points="668,-76.5 668,-95.5 847,-95.5 847,-76.5 668,-76.5"/>
<text text-anchor="middle" x="757.5" y="-83.5" font-family="Helvetica,sans-Serif" font-size="10.00">wmtk::components::wildmeshing</text>
</a>
</g>
</g>
<!-- Node4&#45;&gt;Node19 -->
<g id="edge19" class="edge">
<title>Node4&#45;&gt;Node19</title>
<path fill="none" stroke="midnightblue" d="M953.17,-199.03C934.12,-173.79 895.86,-128.31 852,-105 844.69,-101.11 836.66,-98.02 828.49,-95.56"/>
<polygon fill="midnightblue" stroke="midnightblue" points="950.54,-201.36 959.29,-207.34 956.18,-197.21 950.54,-201.36"/>
</g>
<!-- Node8 -->
<g id="node8" class="node">
<title>Node8</title>
<g id="a_node8"><a xlink:href="test__component__isotropic__remeshing_8cpp.html#a64dc4992576434e79fdb0838f9092ab8" target="_top" xlink:title=" ">
<polygon fill="none" stroke="black" points="499,-194.5 499,-213.5 570,-213.5 570,-194.5 499,-194.5"/>
<text text-anchor="middle" x="534.5" y="-201.5" font-family="Helvetica,sans-Serif" font-size="10.00">TEST_CASE</text>
</a>
</g>
</g>
<!-- Node7&#45;&gt;Node8 -->
<g id="edge7" class="edge">
<title>Node7&#45;&gt;Node8</title>
<path fill="none" stroke="midnightblue" d="M683.03,-275.94C676.2,-273.78 669.43,-271.47 663,-269 621.25,-252.98 575.17,-227.35 551.5,-213.55"/>
<polygon fill="midnightblue" stroke="midnightblue" points="682.47,-279.42 693.05,-278.97 684.5,-272.73 682.47,-279.42"/>
</g>
<!-- Node11 -->
<g id="node11" class="node">
<title>Node11</title>
<g id="a_node11"><a xlink:href="test__component__mesh__info_8cpp.html#ae25bd2a8d9e0eab8fb1941fed8422302" target="_top" xlink:title=" ">
<polygon fill="none" stroke="black" points="499,-38.5 499,-57.5 570,-57.5 570,-38.5 499,-38.5"/>
<text text-anchor="middle" x="534.5" y="-45.5" font-family="Helvetica,sans-Serif" font-size="10.00">TEST_CASE</text>
</a>
</g>
</g>
<!-- Node10&#45;&gt;Node11 -->
<g id="edge10" class="edge">
<title>Node10&#45;&gt;Node11</title>
<path fill="none" stroke="midnightblue" d="M663.69,-48C630.56,-48 595.24,-48 570.08,-48"/>
<polygon fill="midnightblue" stroke="midnightblue" points="663.89,-51.5 673.89,-48 663.89,-44.5 663.89,-51.5"/>
</g>
<!-- Node13 -->
<g id="node13" class="node">
<title>Node13</title>
<g id="a_node13"><a xlink:href="test__component__multimesh_8cpp.html#adcff0ee9e850d29cff036dae09747fe6" target="_top" xlink:title=" ">
<polygon fill="none" stroke="black" points="499,-360.5 499,-379.5 570,-379.5 570,-360.5 499,-360.5"/>
<text text-anchor="middle" x="534.5" y="-367.5" font-family="Helvetica,sans-Serif" font-size="10.00">TEST_CASE</text>
</a>
</g>
</g>
<!-- Node12&#45;&gt;Node13 -->
<g id="edge12" class="edge">
<title>Node12&#45;&gt;Node13</title>
<path fill="none" stroke="midnightblue" d="M662.82,-379.79C629.92,-377.26 594.99,-374.58 570.05,-372.66"/>
<polygon fill="midnightblue" stroke="midnightblue" points="662.71,-383.3 672.95,-380.57 663.25,-376.32 662.71,-383.3"/>
</g>
<!-- Node14&#45;&gt;Node8 -->
<g id="edge14" class="edge">
<title>Node14&#45;&gt;Node8</title>
<path fill="none" stroke="midnightblue" d="M688.08,-135.87C679.55,-137.94 671.01,-140.31 663,-143 621.59,-156.88 576.12,-180.95 552.26,-194.33"/>
<polygon fill="midnightblue" stroke="midnightblue" points="689.1,-139.23 698.06,-133.57 687.53,-132.41 689.1,-139.23"/>
</g>
<!-- Node17 -->
<g id="node17" class="node">
<title>Node17</title>
<g id="a_node17"><a xlink:href="test__component__tag__intersection_8cpp.html#ab45075e8d350017b73b4910211afe71a" target="_top" xlink:title=" ">
<polygon fill="none" stroke="black" points="499,-322.5 499,-341.5 570,-341.5 570,-322.5 499,-322.5"/>
<text text-anchor="middle" x="534.5" y="-329.5" font-family="Helvetica,sans-Serif" font-size="10.00">TEST_CASE</text>
</a>
</g>
</g>
<!-- Node16&#45;&gt;Node17 -->
<g id="edge17" class="edge">
<title>Node16&#45;&gt;Node17</title>
<path fill="none" stroke="midnightblue" d="M680.95,-339.24C643.33,-337.37 599.68,-335.19 570.09,-333.72"/>
<polygon fill="midnightblue" stroke="midnightblue" points="681.23,-342.76 691.39,-339.76 681.57,-335.77 681.23,-342.76"/>
</g>
<!-- Node20&#45;&gt;Node5 -->
<g id="edge21" class="edge">
<title>Node20&#45;&gt;Node5</title>
<path fill="none" stroke="midnightblue" d="M948.43,-301.36C931.96,-285.35 907.08,-260.09 888,-236 869.86,-213.1 876.18,-197.4 852,-181 846.38,-177.19 840.16,-174.11 833.68,-171.63"/>
<polygon fill="midnightblue" stroke="midnightblue" points="946.15,-304.02 955.78,-308.43 951,-298.98 946.15,-304.02"/>
</g>
<!-- Node20&#45;&gt;Node6 -->
<g id="edge22" class="edge">
<title>Node20&#45;&gt;Node6</title>
<path fill="none" stroke="midnightblue" d="M948.76,-334.92C927.65,-354.72 889.99,-387.21 852,-406 843.11,-410.4 833.36,-414.09 823.6,-417.18"/>
<polygon fill="midnightblue" stroke="midnightblue" points="951.44,-337.2 956.26,-327.76 946.61,-332.13 951.44,-337.2"/>
</g>
<!-- Node20&#45;&gt;Node7 -->
<g id="edge32" class="edge">
<title>Node20&#45;&gt;Node7</title>
<path fill="none" stroke="midnightblue" d="M877.53,-307.77C863.91,-306.19 849.94,-304.58 836.58,-303.03"/>
<polygon fill="midnightblue" stroke="midnightblue" points="877.51,-311.29 887.85,-308.96 878.32,-304.33 877.51,-311.29"/>
</g>
<!-- Node20&#45;&gt;Node9 -->
<g id="edge33" class="edge">
<title>Node20&#45;&gt;Node9</title>
<path fill="none" stroke="midnightblue" d="M938.04,-304.06C915.33,-293.21 882.22,-278.46 852,-269 840.14,-265.29 827.21,-262.12 814.85,-259.5"/>
<polygon fill="midnightblue" stroke="midnightblue" points="936.57,-307.24 947.09,-308.44 939.62,-300.93 936.57,-307.24"/>
</g>
<!-- Node20&#45;&gt;Node12 -->
<g id="edge34" class="edge">
<title>Node20&#45;&gt;Node12</title>
<path fill="none" stroke="midnightblue" d="M938.47,-332.06C915.77,-343.16 882.46,-358.35 852,-368 840.32,-371.7 827.57,-374.85 815.36,-377.46"/>
<polygon fill="midnightblue" stroke="midnightblue" points="940.11,-335.15 947.51,-327.58 937,-328.88 940.11,-335.15"/>
</g>
<!-- Node20&#45;&gt;Node15 -->
<g id="edge37" class="edge">
<title>Node20&#45;&gt;Node15</title>
<path fill="none" stroke="midnightblue" d="M948.72,-301.29C927.57,-281.71 889.88,-249.6 852,-231 844.31,-227.22 835.97,-223.96 827.55,-221.15"/>
<polygon fill="midnightblue" stroke="midnightblue" points="946.55,-304.05 956.23,-308.36 951.35,-298.95 946.55,-304.05"/>
</g>
<!-- Node20&#45;&gt;Node16 -->
<g id="edge38" class="edge">
<title>Node20&#45;&gt;Node16</title>
<path fill="none" stroke="midnightblue" d="M877.84,-328.62C859.69,-330.81 840.88,-333.07 823.71,-335.14"/>
<polygon fill="midnightblue" stroke="midnightblue" points="878.34,-332.09 887.85,-327.42 877.5,-325.14 878.34,-332.09"/>
</g>
<!-- Node21 -->
<g id="node21" class="node">
<title>Node21</title>
<g id="a_node21"><a xlink:href="namespacewmtk_1_1components.html#a7de2c2a52403b035714a612f42804af3" target="_top" xlink:title=" ">
<polygon fill="none" stroke="black" points="687,-486.5 687,-505.5 828,-505.5 828,-486.5 687,-486.5"/>
<text text-anchor="middle" x="757.5" y="-493.5" font-family="Helvetica,sans-Serif" font-size="10.00">wmtk::components::input</text>
</a>
</g>
</g>
<!-- Node20&#45;&gt;Node21 -->
<g id="edge23" class="edge">
<title>Node20&#45;&gt;Node21</title>
<path fill="none" stroke="midnightblue" d="M954.94,-336.39C936.72,-365.33 897.83,-421.71 852,-456 833.62,-469.75 809.8,-479.85 790.8,-486.46"/>
<polygon fill="midnightblue" stroke="midnightblue" points="958.03,-338.05 960.3,-327.7 952.07,-334.38 958.03,-338.05"/>
</g>
<!-- Node27 -->
<g id="node27" class="node">
<title>Node27</title>
<g id="a_node27"><a xlink:href="namespacewmtk_1_1components.html#a59bbaed7b26fb80218677ddfc1a94960" target="_top" xlink:title=" ">
<polygon fill="none" stroke="black" points="673.5,-567.5 673.5,-586.5 841.5,-586.5 841.5,-567.5 673.5,-567.5"/>
<text text-anchor="middle" x="757.5" y="-574.5" font-family="Helvetica,sans-Serif" font-size="10.00">wmtk::components::procedural</text>
</a>
</g>
</g>
<!-- Node20&#45;&gt;Node27 -->
<g id="edge35" class="edge">
<title>Node20&#45;&gt;Node27</title>
<path fill="none" stroke="midnightblue" d="M958.39,-337.32C942.86,-374.94 904.49,-459.21 852,-515 830.38,-537.98 798.68,-556.7 778.32,-567.36"/>
<polygon fill="midnightblue" stroke="midnightblue" points="961.81,-338.2 962.31,-327.62 955.32,-335.58 961.81,-338.2"/>
</g>
<!-- Node22 -->
<g id="node22" class="node">
<title>Node22</title>
<g id="a_node22"><a xlink:href="classwmtk_1_1utils_1_1metaprogramming_1_1detail_1_1_reference_wrapped_functor_return_cache.html#a79a5f07c106ce8b9c97ad9afc2bcbdcd" target="_top" xlink:title=" ">
<polygon fill="none" stroke="black" points="221,-504.5 221,-545.5 406,-545.5 406,-504.5 221,-504.5"/>
<text text-anchor="start" x="229" y="-533.5" font-family="Helvetica,sans-Serif" font-size="10.00">wmtk::utils::metaprogramming</text>
<text text-anchor="start" x="229" y="-522.5" font-family="Helvetica,sans-Serif" font-size="10.00">::detail::ReferenceWrappedFunctor</text>
<text text-anchor="middle" x="313.5" y="-511.5" font-family="Helvetica,sans-Serif" font-size="10.00">ReturnCache::add</text>
</a>
</g>
</g>
<!-- Node21&#45;&gt;Node22 -->
<g id="edge24" class="edge">
<title>Node21&#45;&gt;Node22</title>
<path fill="none" stroke="midnightblue" d="M713.41,-508.15C688.4,-514.57 656.18,-521.77 627,-525 552.99,-533.19 468.51,-532.59 406.07,-530.28"/>
<polygon fill="midnightblue" stroke="midnightblue" points="714.52,-511.48 723.3,-505.56 712.74,-504.71 714.52,-511.48"/>
</g>
<!-- Node23 -->
<g id="node23" class="node">
<title>Node23</title>
<g id="a_node23"><a xlink:href="classwmtk_1_1utils_1_1metaprogramming_1_1detail_1_1_reference_wrapped_functor_return_cache.html#a3fe48c2dfe4e46ed2f18e0a87d51bd22" target="_top" xlink:title=" ">
<polygon fill="none" stroke="black" points="0,-498.5 0,-539.5 185,-539.5 185,-498.5 0,-498.5"/>
<text text-anchor="start" x="8" y="-527.5" font-family="Helvetica,sans-Serif" font-size="10.00">wmtk::utils::metaprogramming</text>
<text text-anchor="start" x="8" y="-516.5" font-family="Helvetica,sans-Serif" font-size="10.00">::detail::ReferenceWrappedFunctor</text>
<text text-anchor="middle" x="92.5" y="-505.5" font-family="Helvetica,sans-Serif" font-size="10.00">ReturnCache::get</text>
</a>
</g>
</g>
<!-- Node21&#45;&gt;Node23 -->
<g id="edge25" class="edge">
<title>Node21&#45;&gt;Node23</title>
<path fill="none" stroke="midnightblue" d="M726.24,-509.5C700.43,-520.35 662.04,-534.9 627,-542 450.06,-577.87 399.83,-579.76 221,-555 198.56,-551.89 174.51,-545.85 153.41,-539.58"/>
<polygon fill="midnightblue" stroke="midnightblue" points="727.67,-512.7 735.49,-505.55 724.92,-506.26 727.67,-512.7"/>
</g>
<!-- Node24 -->
<g id="node24" class="node">
<title>Node24</title>
<g id="a_node24"><a xlink:href="classwmtk_1_1utils_1_1metaprogramming_1_1detail_1_1_reference_wrapped_functor_return_cache.html#ae0f094cd19574b98771ed8eb7fac95b8" target="_top" xlink:title=" ">
<polygon fill="none" stroke="black" points="442,-436.5 442,-477.5 627,-477.5 627,-436.5 442,-436.5"/>
<text text-anchor="start" x="450" y="-465.5" font-family="Helvetica,sans-Serif" font-size="10.00">wmtk::utils::metaprogramming</text>
<text text-anchor="start" x="450" y="-454.5" font-family="Helvetica,sans-Serif" font-size="10.00">::detail::ReferenceWrappedFunctor</text>
<text text-anchor="middle" x="534.5" y="-443.5" font-family="Helvetica,sans-Serif" font-size="10.00">ReturnCache::get_id</text>
</a>
</g>
</g>
<!-- Node21&#45;&gt;Node24 -->
<g id="edge26" class="edge">
<title>Node21&#45;&gt;Node24</title>
<path fill="none" stroke="midnightblue" d="M692.38,-484.68C672.06,-481.1 649.19,-477.06 627.33,-473.21"/>
<polygon fill="midnightblue" stroke="midnightblue" points="691.98,-488.17 702.44,-486.46 693.2,-481.27 691.98,-488.17"/>
</g>
<!-- Node25 -->
<g id="node25" class="node">
<title>Node25</title>
<g id="a_node25"><a xlink:href="classwmtk_1_1utils_1_1metaprogramming_1_1detail_1_1_reference_wrapped_functor_return_cache.html#a5290906e9b9c635dc1bd82246eb39b42" target="_top" xlink:title=" ">
<polygon fill="none" stroke="black" points="221,-436.5 221,-477.5 406,-477.5 406,-436.5 221,-436.5"/>
<text text-anchor="start" x="229" y="-465.5" font-family="Helvetica,sans-Serif" font-size="10.00">wmtk::utils::metaprogramming</text>
<text text-anchor="start" x="229" y="-454.5" font-family="Helvetica,sans-Serif" font-size="10.00">::detail::ReferenceWrappedFunctor</text>
<text text-anchor="middle" x="313.5" y="-443.5" font-family="Helvetica,sans-Serif" font-size="10.00">ReturnCache::get_variant</text>
</a>
</g>
</g>
<!-- Node21&#45;&gt;Node25 -->
<g id="edge30" class="edge">
<title>Node21&#45;&gt;Node25</title>
<path fill="none" stroke="midnightblue" d="M719.52,-482.89C701.86,-475.96 680.75,-466.67 663,-456 645.39,-445.42 646.38,-433.83 627,-427 542.96,-397.36 438.8,-417.82 374.5,-436.47"/>
<polygon fill="midnightblue" stroke="midnightblue" points="718.35,-486.19 728.94,-486.49 720.85,-479.65 718.35,-486.19"/>
</g>
<!-- Node26 -->
<g id="node26" class="node">
<title>Node26</title>
<g id="a_node26"><a xlink:href="test__component__input_8cpp.html#a16c891bca32fed14c4bf443bedbae763" target="_top" xlink:title=" ">
<polygon fill="none" stroke="black" points="499,-496.5 499,-515.5 570,-515.5 570,-496.5 499,-496.5"/>
<text text-anchor="middle" x="534.5" y="-503.5" font-family="Helvetica,sans-Serif" font-size="10.00">TEST_CASE</text>
</a>
</g>
</g>
<!-- Node21&#45;&gt;Node26 -->
<g id="edge31" class="edge">
<title>Node21&#45;&gt;Node26</title>
<path fill="none" stroke="midnightblue" d="M676.7,-499.61C640.13,-501.27 598.67,-503.14 570.19,-504.43"/>
<polygon fill="midnightblue" stroke="midnightblue" points="677.05,-503.1 686.88,-499.15 676.73,-496.11 677.05,-503.1"/>
</g>
<!-- Node24&#45;&gt;Node22 -->
<g id="edge27" class="edge">
<title>Node24&#45;&gt;Node22</title>
<path fill="none" stroke="midnightblue" d="M457.39,-480.63C432.37,-488.4 404.78,-496.97 380.58,-504.48"/>
<polygon fill="midnightblue" stroke="midnightblue" points="458.69,-483.89 467.2,-477.59 456.61,-477.21 458.69,-483.89"/>
</g>
<!-- Node24&#45;&gt;Node25 -->
<g id="edge28" class="edge">
<title>Node24&#45;&gt;Node25</title>
<path fill="none" stroke="midnightblue" d="M431.85,-457C423.26,-457 414.6,-457 406.09,-457"/>
<polygon fill="midnightblue" stroke="midnightblue" points="431.89,-460.5 441.89,-457 431.89,-453.5 431.89,-460.5"/>
</g>
<!-- Node25&#45;&gt;Node23 -->
<g id="edge29" class="edge">
<title>Node25&#45;&gt;Node23</title>
<path fill="none" stroke="midnightblue" d="M229.99,-480.36C208.93,-486.32 186.44,-492.69 165.92,-498.5"/>
<polygon fill="midnightblue" stroke="midnightblue" points="231.21,-483.65 239.88,-477.56 229.31,-476.92 231.21,-483.65"/>
</g>
<!-- Node28 -->
<g id="node28" class="node">
<title>Node28</title>
<g id="a_node28"><a xlink:href="test__component__procedural_8cpp.html#a45741821c2febf4c7e15273819d1a25a" target="_top" xlink:title=" ">
<polygon fill="none" stroke="black" points="499,-610.5 499,-629.5 570,-629.5 570,-610.5 499,-610.5"/>
<text text-anchor="middle" x="534.5" y="-617.5" font-family="Helvetica,sans-Serif" font-size="10.00">TEST_CASE</text>
</a>
</g>
</g>
<!-- Node27&#45;&gt;Node28 -->
<g id="edge36" class="edge">
<title>Node27&#45;&gt;Node28</title>
<path fill="none" stroke="midnightblue" d="M697.38,-588.5C656.68,-596.42 604.02,-606.67 570,-613.29"/>
<polygon fill="midnightblue" stroke="midnightblue" points="698.31,-591.89 707.45,-586.54 696.97,-585.02 698.31,-591.89"/>
</g>
</g>
</svg>
