<?xml version="1.0" encoding="UTF-8" standalone="no"?>
<!DOCTYPE svg PUBLIC "-//W3C//DTD SVG 1.1//EN"
 "http://www.w3.org/Graphics/SVG/1.1/DTD/svg11.dtd">
<!-- Generated by graphviz version 2.43.0 (0)
 -->
<!-- Title: wmtk::multimesh::MultiMeshManager::map_tuple_to_root_tuple Pages: 1 -->
<!--zoomable 903 -->
<svg id="main" version="1.1" xmlns="http://www.w3.org/2000/svg" xmlns:xlink="http://www.w3.org/1999/xlink" xml:space="preserve" onload="init(evt)">
<style type="text/css"><![CDATA[
.edge:hover path { stroke: red; }
.edge:hover polygon { stroke: red; fill: red; }
]]></style>
<script type="text/javascript"><![CDATA[
var edges = document.getElementsByTagName('g');
if (edges && edges.length) {
  for (var i=0;i<edges.length;i++) {
    if (edges[i].id.substr(0,4)=='edge') {
      edges[i].setAttribute('class','edge');
    }
  }
}
]]></script>
        <defs>
                <circle id="rim" cx="0" cy="0" r="7"/>
                <circle id="rim2" cx="0" cy="0" r="3.5"/>
                <g id="zoomPlus">
                        <use xlink:href="#rim" fill="#404040">
                                <set attributeName="fill" to="#808080" begin="zoomplus.mouseover" end="zoomplus.mouseout"/>
                        </use>
                        <path d="M-4,0h8M0,-4v8" fill="none" stroke="white" stroke-width="1.5" pointer-events="none"/>
                </g>
                <g id="zoomMin">
                        <use xlink:href="#rim" fill="#404040">
                                <set attributeName="fill" to="#808080" begin="zoomminus.mouseover" end="zoomminus.mouseout"/>
                        </use>
                        <path d="M-4,0h8" fill="none" stroke="white" stroke-width="1.5" pointer-events="none"/>
                </g>
                <g id="dirArrow">
                        <path fill="none" stroke="white" stroke-width="1.5" d="M0,-3.0v7 M-2.5,-0.5L0,-3.0L2.5,-0.5"/>
                </g>
               <g id="resetDef">
                       <use xlink:href="#rim2" fill="#404040">
                               <set attributeName="fill" to="#808080" begin="reset.mouseover" end="reset.mouseout"/>
                       </use>
               </g>
        </defs>

<script type="text/javascript">
var viewWidth = 2223;
var viewHeight = 903;
var sectionId = 'dynsection-70';
</script>
<script xlink:href="svgpan.js"/>
<svg id="graph" class="graph">
<g id="viewport">
<title>wmtk::multimesh::MultiMeshManager::map_tuple_to_root_tuple</title>
<!-- Node1 -->
<g id="node1" class="node">
<title>Node1</title>
<g id="a_node1"><a xlink:title=" ">
<polygon fill="#bfbfbf" stroke="black" points="0,-842.57 0,-872.57 187,-872.57 187,-842.57 0,-842.57"/>
<text text-anchor="start" x="8" y="-860.57" font-family="Helvetica,sans-Serif" font-size="10.00">wmtk::multimesh::MultiMesh</text>
<text text-anchor="middle" x="93.5" y="-849.57" font-family="Helvetica,sans-Serif" font-size="10.00">Manager::map_tuple_to_root_tuple</text>
</a>
</g>
</g>
<!-- Node2 -->
<g id="node2" class="node">
<title>Node2</title>
<g id="a_node2"><a xlink:href="classwmtk_1_1multimesh_1_1_multi_mesh_manager.html#a7d39339adb56b1798fe817d81bfcc67c" target="_top" xlink:title="Specifies whether this structure is the root of a multi&#45;mesh tree.">
<polygon fill="none" stroke="black" points="482,-864.57 482,-894.57 642,-894.57 642,-864.57 482,-864.57"/>
<text text-anchor="start" x="490" y="-882.57" font-family="Helvetica,sans-Serif" font-size="10.00">wmtk::multimesh::MultiMesh</text>
<text text-anchor="middle" x="562" y="-871.57" font-family="Helvetica,sans-Serif" font-size="10.00">Manager::is_root</text>
</a>
</g>
</g>
<!-- Node1&#45;&gt;Node2 -->
<g id="edge1" class="edge">
<title>Node1&#45;&gt;Node2</title>
<path fill="none" stroke="midnightblue" d="M187.22,-861.94C269.78,-865.84 389.79,-871.5 471.39,-875.35"/>
<polygon fill="midnightblue" stroke="midnightblue" points="471.49,-878.85 481.65,-875.83 471.82,-871.86 471.49,-878.85"/>
</g>
<!-- Node3 -->
<g id="node3" class="node">
<title>Node3</title>
<g id="a_node3"><a xlink:href="classwmtk_1_1multimesh_1_1_multi_mesh_manager.html#af6fd8d8b5cc1e8b2c877718b99374f03" target="_top" xlink:title=" ">
<polygon fill="none" stroke="black" points="223,-820.57 223,-850.57 422,-850.57 422,-820.57 223,-820.57"/>
<text text-anchor="start" x="231" y="-838.57" font-family="Helvetica,sans-Serif" font-size="10.00">wmtk::multimesh::MultiMesh</text>
<text text-anchor="middle" x="322.5" y="-827.57" font-family="Helvetica,sans-Serif" font-size="10.00">Manager::map_tuple_to_parent_tuple</text>
</a>
</g>
</g>
<!-- Node1&#45;&gt;Node3 -->
<g id="edge2" class="edge">
<title>Node1&#45;&gt;Node3</title>
<path fill="none" stroke="midnightblue" d="M187.16,-848.59C195.62,-847.77 204.23,-846.94 212.82,-846.1"/>
<polygon fill="midnightblue" stroke="midnightblue" points="213.25,-849.58 222.86,-845.13 212.57,-842.61 213.25,-849.58"/>
</g>
<!-- Node3&#45;&gt;Node2 -->
<g id="edge7" class="edge">
<title>Node3&#45;&gt;Node2</title>
<path fill="none" stroke="midnightblue" d="M404.57,-850.59C426.24,-854.61 449.79,-858.97 471.87,-863.06"/>
<polygon fill="midnightblue" stroke="midnightblue" points="471.43,-866.54 481.9,-864.92 472.71,-859.65 471.43,-866.54"/>
</g>
<!-- Node4 -->
<g id="node4" class="node">
<title>Node4</title>
<g id="a_node4"><a xlink:href="classwmtk_1_1_mesh.html#a956cb71441391c99d736ec69c7467b61" target="_top" xlink:title=" ">
<polygon fill="none" stroke="black" points="1884.5,-658.57 1884.5,-688.57 1997.5,-688.57 1997.5,-658.57 1884.5,-658.57"/>
<text text-anchor="start" x="1892.5" y="-676.57" font-family="Helvetica,sans-Serif" font-size="10.00">wmtk::Mesh::create</text>
<text text-anchor="middle" x="1941" y="-665.57" font-family="Helvetica,sans-Serif" font-size="10.00">_const_accessor</text>
</a>
</g>
</g>
<!-- Node3&#45;&gt;Node4 -->
<g id="edge3" class="edge">
<title>Node3&#45;&gt;Node4</title>
<path fill="none" stroke="midnightblue" d="M422.29,-835.57C515.93,-835.57 660.54,-835.57 786,-835.57 786,-835.57 786,-835.57 1576,-835.57 1712.52,-835.57 1854.89,-739.28 1912.95,-695.17"/>
<polygon fill="midnightblue" stroke="midnightblue" points="1915.42,-697.68 1921.21,-688.81 1911.15,-692.14 1915.42,-697.68"/>
</g>
<!-- Node8 -->
<g id="node8" class="node">
<title>Node8</title>
<g id="a_node8"><a xlink:href="classwmtk_1_1multimesh_1_1_multi_mesh_manager.html#a6f9186ced3e97aef2a0af71a3aa5c6a0" target="_top" xlink:title=" ">
<polygon fill="none" stroke="black" points="458,-634.57 458,-664.57 666,-664.57 666,-634.57 458,-634.57"/>
<text text-anchor="start" x="466" y="-652.57" font-family="Helvetica,sans-Serif" font-size="10.00">wmtk::multimesh::MultiMesh</text>
<text text-anchor="middle" x="562" y="-641.57" font-family="Helvetica,sans-Serif" font-size="10.00">Manager::map_tuple_between_meshes</text>
</a>
</g>
</g>
<!-- Node3&#45;&gt;Node8 -->
<g id="edge8" class="edge">
<title>Node3&#45;&gt;Node8</title>
<path fill="none" stroke="midnightblue" d="M342.94,-820.35C385.14,-787.3 485.27,-708.88 533.75,-670.91"/>
<polygon fill="midnightblue" stroke="midnightblue" points="535.91,-673.66 541.63,-664.74 531.6,-668.15 535.91,-673.66"/>
</g>
<!-- Node5 -->
<g id="node5" class="node">
<title>Node5</title>
<g id="a_node5"><a xlink:href="classwmtk_1_1attribute_1_1_mesh_attribute_handle.html#ac326961f01b9ba4fec395827f15a7ef2" target="_top" xlink:title=" ">
<polygon fill="none" stroke="black" points="2048,-707.57 2048,-737.57 2215,-737.57 2215,-707.57 2048,-707.57"/>
<text text-anchor="start" x="2056" y="-725.57" font-family="Helvetica,sans-Serif" font-size="10.00">wmtk::attribute::MeshAttribute</text>
<text text-anchor="middle" x="2131.5" y="-714.57" font-family="Helvetica,sans-Serif" font-size="10.00">Handle::as</text>
</a>
</g>
</g>
<!-- Node4&#45;&gt;Node5 -->
<g id="edge4" class="edge">
<title>Node4&#45;&gt;Node5</title>
<path fill="none" stroke="midnightblue" d="M1997.54,-688.01C2018.07,-693.34 2041.56,-699.45 2063.04,-705.03"/>
<polygon fill="midnightblue" stroke="midnightblue" points="2062.18,-708.43 2072.74,-707.56 2063.95,-701.65 2062.18,-708.43"/>
</g>
<!-- Node6 -->
<g id="node6" class="node">
<title>Node6</title>
<g id="a_node6"><a xlink:href="classwmtk_1_1attribute_1_1_mesh_attribute_handle.html#a2b86caeb22b007b85b138ebc6b0ed837" target="_top" xlink:title=" ">
<polygon fill="none" stroke="black" points="2048,-658.57 2048,-688.57 2215,-688.57 2215,-658.57 2048,-658.57"/>
<text text-anchor="start" x="2056" y="-676.57" font-family="Helvetica,sans-Serif" font-size="10.00">wmtk::attribute::MeshAttribute</text>
<text text-anchor="middle" x="2131.5" y="-665.57" font-family="Helvetica,sans-Serif" font-size="10.00">Handle::holds</text>
</a>
</g>
</g>
<!-- Node4&#45;&gt;Node6 -->
<g id="edge5" class="edge">
<title>Node4&#45;&gt;Node6</title>
<path fill="none" stroke="midnightblue" d="M1997.54,-673.57C2010.08,-673.57 2023.74,-673.57 2037.37,-673.57"/>
<polygon fill="midnightblue" stroke="midnightblue" points="2037.76,-677.07 2047.76,-673.57 2037.76,-670.07 2037.76,-677.07"/>
</g>
<!-- Node7 -->
<g id="node7" class="node">
<title>Node7</title>
<g id="a_node7"><a xlink:href="classwmtk_1_1attribute_1_1_mesh_attribute_handle.html#a620620d54776b2c5f4f9cebad465cfa7" target="_top" xlink:title=" ">
<polygon fill="none" stroke="black" points="2048,-609.57 2048,-639.57 2215,-639.57 2215,-609.57 2048,-609.57"/>
<text text-anchor="start" x="2056" y="-627.57" font-family="Helvetica,sans-Serif" font-size="10.00">wmtk::attribute::MeshAttribute</text>
<text text-anchor="middle" x="2131.5" y="-616.57" font-family="Helvetica,sans-Serif" font-size="10.00">Handle::mesh</text>
</a>
</g>
</g>
<!-- Node4&#45;&gt;Node7 -->
<g id="edge6" class="edge">
<title>Node4&#45;&gt;Node7</title>
<path fill="none" stroke="midnightblue" d="M1997.54,-659.13C2018.07,-653.8 2041.56,-647.69 2063.04,-642.11"/>
<polygon fill="midnightblue" stroke="midnightblue" points="2063.95,-645.49 2072.74,-639.58 2062.18,-638.71 2063.95,-645.49"/>
</g>
<!-- Node9 -->
<g id="node9" class="node">
<title>Node9</title>
<g id="a_node9"><a xlink:href="classwmtk_1_1_mesh.html#abbb1c54cfd6ec17f4730317ee5fab78d" target="_top" xlink:title=" ">
<polygon fill="none" stroke="black" points="1501,-462.07 1501,-481.07 1649,-481.07 1649,-462.07 1501,-462.07"/>
<text text-anchor="middle" x="1575" y="-469.07" font-family="Helvetica,sans-Serif" font-size="10.00">wmtk::Mesh::is_valid_slow</text>
</a>
</g>
</g>
<!-- Node8&#45;&gt;Node9 -->
<g id="edge9" class="edge">
<title>Node8&#45;&gt;Node9</title>
<path fill="none" stroke="midnightblue" d="M666.2,-649.57C757.01,-649.57 892.78,-649.57 1011,-649.57 1011,-649.57 1011,-649.57 1222,-649.57 1330.37,-649.57 1371.2,-683.84 1465,-629.57 1520.16,-597.66 1553.73,-525.27 1567.19,-490.67"/>
<polygon fill="midnightblue" stroke="midnightblue" points="1570.49,-491.83 1570.72,-481.24 1563.94,-489.37 1570.49,-491.83"/>
</g>
<!-- Node12 -->
<g id="node12" class="node">
<title>Node12</title>
<g id="a_node12"><a xlink:href="namespacewmtk_1_1multimesh_1_1utils.html#a7d748ef4839b09a5460e8af97b9fa678" target="_top" xlink:title=" ">
<polygon fill="none" stroke="black" points="712.5,-541.57 712.5,-571.57 861.5,-571.57 861.5,-541.57 712.5,-541.57"/>
<text text-anchor="start" x="720.5" y="-559.57" font-family="Helvetica,sans-Serif" font-size="10.00">wmtk::multimesh::utils</text>
<text text-anchor="middle" x="787" y="-548.57" font-family="Helvetica,sans-Serif" font-size="10.00">::read_tuple_map_attribute</text>
</a>
</g>
</g>
<!-- Node8&#45;&gt;Node12 -->
<g id="edge13" class="edge">
<title>Node8&#45;&gt;Node12</title>
<path fill="none" stroke="midnightblue" d="M589.76,-634.45C617.28,-619.35 661.68,-596.19 702,-580.57 707.35,-578.5 712.94,-576.52 718.6,-574.64"/>
<polygon fill="midnightblue" stroke="midnightblue" points="719.69,-577.97 728.15,-571.59 717.56,-571.3 719.69,-577.97"/>
</g>
<!-- Node18 -->
<g id="node18" class="node">
<title>Node18</title>
<g id="a_node18"><a xlink:href="classwmtk_1_1_mesh.html#a965a8a24158c4aa8580c57ba09f885f7" target="_top" xlink:title="switch the orientation of the Tuple of the given dimension">
<polygon fill="none" stroke="black" points="730,-590.57 730,-620.57 844,-620.57 844,-590.57 730,-590.57"/>
<text text-anchor="start" x="738" y="-608.57" font-family="Helvetica,sans-Serif" font-size="10.00">wmtk::Mesh::switch</text>
<text text-anchor="middle" x="787" y="-597.57" font-family="Helvetica,sans-Serif" font-size="10.00">_tuple</text>
</a>
</g>
</g>
<!-- Node8&#45;&gt;Node18 -->
<g id="edge19" class="edge">
<title>Node8&#45;&gt;Node18</title>
<path fill="none" stroke="midnightblue" d="M639.12,-634.55C665.41,-629.36 694.62,-623.6 720.03,-618.59"/>
<polygon fill="midnightblue" stroke="midnightblue" points="720.8,-622 729.93,-616.63 719.44,-615.14 720.8,-622"/>
</g>
<!-- Node19 -->
<g id="node19" class="node">
<title>Node19</title>
<g id="a_node19"><a xlink:href="namespacewmtk_1_1simplex.html#ac133ab11355bb4cda7e8b1e3ed48226f" target="_top" xlink:title=" ">
<polygon fill="none" stroke="black" points="711.5,-320.57 711.5,-350.57 862.5,-350.57 862.5,-320.57 711.5,-320.57"/>
<text text-anchor="start" x="719.5" y="-338.57" font-family="Helvetica,sans-Serif" font-size="10.00">wmtk::simplex::top</text>
<text text-anchor="middle" x="787" y="-327.57" font-family="Helvetica,sans-Serif" font-size="10.00">_dimension_cofaces_tuples</text>
</a>
</g>
</g>
<!-- Node8&#45;&gt;Node19 -->
<g id="edge20" class="edge">
<title>Node8&#45;&gt;Node19</title>
<path fill="none" stroke="midnightblue" d="M573.76,-634.43C609.66,-583.87 725.59,-420.64 769.2,-359.23"/>
<polygon fill="midnightblue" stroke="midnightblue" points="772.15,-361.11 775.09,-350.93 766.45,-357.06 772.15,-361.11"/>
</g>
<!-- Node39 -->
<g id="node39" class="node">
<title>Node39</title>
<g id="a_node39"><a xlink:href="classwmtk_1_1_mesh.html#abaf00438d0700358b160e310d69725c9" target="_top" xlink:title=" ">
<polygon fill="none" stroke="black" points="702,-755.07 702,-774.07 872,-774.07 872,-755.07 702,-755.07"/>
<text text-anchor="middle" x="787" y="-762.07" font-family="Helvetica,sans-Serif" font-size="10.00">wmtk::Mesh::top_simplex_type</text>
</a>
</g>
</g>
<!-- Node8&#45;&gt;Node39 -->
<g id="edge50" class="edge">
<title>Node8&#45;&gt;Node39</title>
<path fill="none" stroke="midnightblue" d="M592.15,-664.61C635.51,-686.96 716.39,-728.67 758.67,-750.48"/>
<polygon fill="midnightblue" stroke="midnightblue" points="757.07,-753.59 767.56,-755.06 760.28,-747.37 757.07,-753.59"/>
</g>
<!-- Node41 -->
<g id="node41" class="node">
<title>Node41</title>
<g id="a_node41"><a xlink:href="namespacewmtk_1_1multimesh_1_1utils.html#aa0392bf28bb6c304127cf0eea634fee8" target="_top" xlink:title=" ">
<polygon fill="none" stroke="black" points="722,-678.57 722,-708.57 852,-708.57 852,-678.57 722,-678.57"/>
<text text-anchor="start" x="730" y="-696.57" font-family="Helvetica,sans-Serif" font-size="10.00">wmtk::multimesh::utils</text>
<text text-anchor="middle" x="787" y="-685.57" font-family="Helvetica,sans-Serif" font-size="10.00">::transport_tuple</text>
</a>
</g>
</g>
<!-- Node8&#45;&gt;Node41 -->
<g id="edge52" class="edge">
<title>Node8&#45;&gt;Node41</title>
<path fill="none" stroke="midnightblue" d="M639.12,-664.59C662.64,-669.23 688.49,-674.33 711.87,-678.95"/>
<polygon fill="midnightblue" stroke="midnightblue" points="711.24,-682.39 721.73,-680.89 712.59,-675.52 711.24,-682.39"/>
</g>
<!-- Node10 -->
<g id="node10" class="node">
<title>Node10</title>
<g id="a_node10"><a xlink:href="classwmtk_1_1_mesh.html#adf199d6a3ce6badd8bfa0e2ab3a1c1aa" target="_top" xlink:title=" ">
<polygon fill="none" stroke="black" points="1694.5,-434.57 1694.5,-464.57 1824.5,-464.57 1824.5,-434.57 1694.5,-434.57"/>
<text text-anchor="start" x="1702.5" y="-452.57" font-family="Helvetica,sans-Serif" font-size="10.00">wmtk::Mesh::get_const</text>
<text text-anchor="middle" x="1759.5" y="-441.57" font-family="Helvetica,sans-Serif" font-size="10.00">_cell_hash_accessor</text>
</a>
</g>
</g>
<!-- Node9&#45;&gt;Node10 -->
<g id="edge10" class="edge">
<title>Node9&#45;&gt;Node10</title>
<path fill="none" stroke="midnightblue" d="M1649.18,-462.75C1660.76,-461.35 1672.75,-459.91 1684.35,-458.51"/>
<polygon fill="midnightblue" stroke="midnightblue" points="1684.92,-461.97 1694.43,-457.29 1684.08,-455.02 1684.92,-461.97"/>
</g>
<!-- Node11 -->
<g id="node11" class="node">
<title>Node11</title>
<g id="a_node11"><a xlink:href="classwmtk_1_1_mesh.html#a918c509096fc08691924c05c6143b9c3" target="_top" xlink:title="check validity of tuple including its hash">
<polygon fill="none" stroke="black" points="1699.5,-484.07 1699.5,-503.07 1819.5,-503.07 1819.5,-484.07 1699.5,-484.07"/>
<text text-anchor="middle" x="1759.5" y="-491.07" font-family="Helvetica,sans-Serif" font-size="10.00">wmtk::Mesh::is_valid</text>
</a>
</g>
</g>
<!-- Node9&#45;&gt;Node11 -->
<g id="edge12" class="edge">
<title>Node9&#45;&gt;Node11</title>
<path fill="none" stroke="midnightblue" d="M1649.18,-480.39C1662.32,-481.98 1675.99,-483.62 1689.03,-485.2"/>
<polygon fill="midnightblue" stroke="midnightblue" points="1688.98,-488.72 1699.33,-486.44 1689.82,-481.77 1688.98,-488.72"/>
</g>
<!-- Node10&#45;&gt;Node4 -->
<g id="edge11" class="edge">
<title>Node10&#45;&gt;Node4</title>
<path fill="none" stroke="midnightblue" d="M1818.94,-464.71C1824.35,-467.47 1829.48,-470.73 1834,-474.57 1889.95,-522.14 1920.82,-606.86 1933.32,-648.73"/>
<polygon fill="midnightblue" stroke="midnightblue" points="1929.98,-649.77 1936.11,-658.41 1936.71,-647.83 1929.98,-649.77"/>
</g>
<!-- Node13 -->
<g id="node13" class="node">
<title>Node13</title>
<g id="a_node13"><a xlink:href="classwmtk_1_1attribute_1_1_accessor.html#a02b9afd258380cfdafdac411b30d48af" target="_top" xlink:title=" ">
<polygon fill="none" stroke="black" points="1504,-363.57 1504,-393.57 1646,-393.57 1646,-363.57 1504,-363.57"/>
<text text-anchor="start" x="1512" y="-381.57" font-family="Helvetica,sans-Serif" font-size="10.00">wmtk::attribute::Accessor</text>
<text text-anchor="middle" x="1575" y="-370.57" font-family="Helvetica,sans-Serif" font-size="10.00">::const_vector_attribute</text>
</a>
</g>
</g>
<!-- Node12&#45;&gt;Node13 -->
<g id="edge14" class="edge">
<title>Node12&#45;&gt;Node13</title>
<path fill="none" stroke="midnightblue" d="M856.07,-541.55C872.99,-538.05 891.12,-534.49 908,-531.57 1031.12,-510.26 1348.64,-500.12 1465,-454.57 1497.24,-441.95 1529.14,-418.01 1550.02,-400.36"/>
<polygon fill="midnightblue" stroke="midnightblue" points="1552.45,-402.88 1557.73,-393.7 1547.87,-397.59 1552.45,-402.88"/>
</g>
<!-- Node14 -->
<g id="node14" class="node">
<title>Node14</title>
<g id="a_node14"><a xlink:href="namespacewmtk_1_1multimesh_1_1utils.html#a7382ca1de4356752b14e745f23b6892d" target="_top" xlink:title=" ">
<polygon fill="none" stroke="black" points="947,-541.57 947,-571.57 1077,-571.57 1077,-541.57 947,-541.57"/>
<text text-anchor="start" x="955" y="-559.57" font-family="Helvetica,sans-Serif" font-size="10.00">wmtk::multimesh::utils</text>
<text text-anchor="middle" x="1012" y="-548.57" font-family="Helvetica,sans-Serif" font-size="10.00">::vectors_to_tuples</text>
</a>
</g>
</g>
<!-- Node12&#45;&gt;Node14 -->
<g id="edge15" class="edge">
<title>Node12&#45;&gt;Node14</title>
<path fill="none" stroke="midnightblue" d="M861.64,-556.57C885.73,-556.57 912.49,-556.57 936.63,-556.57"/>
<polygon fill="midnightblue" stroke="midnightblue" points="936.8,-560.07 946.8,-556.57 936.8,-553.07 936.8,-560.07"/>
</g>
<!-- Node15 -->
<g id="node15" class="node">
<title>Node15</title>
<g id="a_node15"><a xlink:href="namespacewmtk_1_1multimesh_1_1utils.html#afcaf5933957666eacc341add3d727960" target="_top" xlink:title=" ">
<polygon fill="none" stroke="black" points="1156,-541.57 1156,-571.57 1286,-571.57 1286,-541.57 1156,-541.57"/>
<text text-anchor="start" x="1164" y="-559.57" font-family="Helvetica,sans-Serif" font-size="10.00">wmtk::multimesh::utils</text>
<text text-anchor="middle" x="1221" y="-548.57" font-family="Helvetica,sans-Serif" font-size="10.00">::vector_to_tuple</text>
</a>
</g>
</g>
<!-- Node14&#45;&gt;Node15 -->
<g id="edge16" class="edge">
<title>Node14&#45;&gt;Node15</title>
<path fill="none" stroke="midnightblue" d="M1077.08,-556.57C1098.8,-556.57 1123.26,-556.57 1145.71,-556.57"/>
<polygon fill="midnightblue" stroke="midnightblue" points="1145.87,-560.07 1155.87,-556.57 1145.87,-553.07 1145.87,-560.07"/>
</g>
<!-- Node16 -->
<g id="node16" class="node">
<title>Node16</title>
<g id="a_node16"><a xlink:href="namespacewmtk_1_1multimesh_1_1utils.html#a335acc709f47df9fe96f4c2ed2e10585" target="_top" xlink:title=" ">
<polygon fill="none" stroke="black" points="1330.5,-590.57 1330.5,-620.57 1460.5,-620.57 1460.5,-590.57 1330.5,-590.57"/>
<text text-anchor="start" x="1338.5" y="-608.57" font-family="Helvetica,sans-Serif" font-size="10.00">wmtk::multimesh::utils</text>
<text text-anchor="middle" x="1395.5" y="-597.57" font-family="Helvetica,sans-Serif" font-size="10.00">::vector2_to_tuple</text>
</a>
</g>
</g>
<!-- Node15&#45;&gt;Node16 -->
<g id="edge17" class="edge">
<title>Node15&#45;&gt;Node16</title>
<path fill="none" stroke="midnightblue" d="M1275.16,-571.67C1293.04,-576.75 1313.14,-582.46 1331.69,-587.73"/>
<polygon fill="midnightblue" stroke="midnightblue" points="1330.94,-591.15 1341.51,-590.52 1332.85,-584.42 1330.94,-591.15"/>
</g>
<!-- Node17 -->
<g id="node17" class="node">
<title>Node17</title>
<g id="a_node17"><a xlink:href="namespacewmtk_1_1multimesh_1_1utils.html#a2645b98b3068060a73df0c8cc16b6a3d" target="_top" xlink:title=" ">
<polygon fill="none" stroke="black" points="1330.5,-541.57 1330.5,-571.57 1460.5,-571.57 1460.5,-541.57 1330.5,-541.57"/>
<text text-anchor="start" x="1338.5" y="-559.57" font-family="Helvetica,sans-Serif" font-size="10.00">wmtk::multimesh::utils</text>
<text text-anchor="middle" x="1395.5" y="-548.57" font-family="Helvetica,sans-Serif" font-size="10.00">::vector5_to_tuple</text>
</a>
</g>
</g>
<!-- Node15&#45;&gt;Node17 -->
<g id="edge18" class="edge">
<title>Node15&#45;&gt;Node17</title>
<path fill="none" stroke="midnightblue" d="M1286.23,-556.57C1297.23,-556.57 1308.75,-556.57 1319.99,-556.57"/>
<polygon fill="midnightblue" stroke="midnightblue" points="1320.21,-560.07 1330.21,-556.57 1320.21,-553.07 1320.21,-560.07"/>
</g>
<!-- Node20 -->
<g id="node20" class="node">
<title>Node20</title>
<g id="a_node20"><a xlink:href="classwmtk_1_1simplex_1_1_simplex_collection.html#a1e7079b3b75f70dd28c524556cab76cf" target="_top" xlink:title="Add simplex to the collection.">
<polygon fill="none" stroke="black" points="908,-282.07 908,-301.07 1116,-301.07 1116,-282.07 908,-282.07"/>
<text text-anchor="middle" x="1012" y="-289.07" font-family="Helvetica,sans-Serif" font-size="10.00">wmtk::simplex::SimplexCollection::add</text>
</a>
</g>
</g>
<!-- Node19&#45;&gt;Node20 -->
<g id="edge21" class="edge">
<title>Node19&#45;&gt;Node20</title>
<path fill="none" stroke="midnightblue" d="M858.7,-320.56C874.88,-317.2 892.03,-313.71 908,-310.57 920.94,-308.03 934.81,-305.4 948.05,-302.95"/>
<polygon fill="midnightblue" stroke="midnightblue" points="948.83,-306.36 958.03,-301.1 947.56,-299.48 948.83,-306.36"/>
</g>
<!-- Node21 -->
<g id="node21" class="node">
<title>Node21</title>
<g id="a_node21"><a xlink:href="classwmtk_1_1_edge_mesh.html#a534952cf2729f1509a380e3e9afb65b7" target="_top" xlink:title=" ">
<polygon fill="none" stroke="black" points="1338,-415.57 1338,-445.57 1453,-445.57 1453,-415.57 1338,-415.57"/>
<text text-anchor="start" x="1346" y="-433.57" font-family="Helvetica,sans-Serif" font-size="10.00">wmtk::EdgeMesh::is</text>
<text text-anchor="middle" x="1395.5" y="-422.57" font-family="Helvetica,sans-Serif" font-size="10.00">_boundary_vertex</text>
</a>
</g>
</g>
<!-- Node19&#45;&gt;Node21 -->
<g id="edge22" class="edge">
<title>Node19&#45;&gt;Node21</title>
<path fill="none" stroke="midnightblue" d="M806.1,-350.66C828.44,-368.26 868.35,-396.48 908,-408.57 1052.55,-452.63 1232.41,-445.89 1327.81,-437.81"/>
<polygon fill="midnightblue" stroke="midnightblue" points="1328.24,-441.28 1337.89,-436.92 1327.63,-434.31 1328.24,-441.28"/>
</g>
<!-- Node22 -->
<g id="node22" class="node">
<title>Node22</title>
<g id="a_node22"><a xlink:href="namespacewmtk.html#a441d6ad4f19569c7d4946e743da1a925" target="_top" xlink:title=" ">
<polygon fill="none" stroke="black" points="1160,-104.57 1160,-134.57 1282,-134.57 1282,-104.57 1160,-104.57"/>
<text text-anchor="start" x="1168" y="-122.57" font-family="Helvetica,sans-Serif" font-size="10.00">wmtk::log_and_throw</text>
<text text-anchor="middle" x="1221" y="-111.57" font-family="Helvetica,sans-Serif" font-size="10.00">_error</text>
</a>
</g>
</g>
<!-- Node19&#45;&gt;Node22 -->
<g id="edge25" class="edge">
<title>Node19&#45;&gt;Node22</title>
<path fill="none" stroke="midnightblue" d="M802.16,-320.31C823.33,-298.29 865.32,-257.49 908,-232.57 985.73,-187.2 1084.79,-155.12 1150.19,-137.01"/>
<polygon fill="midnightblue" stroke="midnightblue" points="1151.26,-140.34 1159.99,-134.33 1149.42,-133.59 1151.26,-140.34"/>
</g>
<!-- Node25 -->
<g id="node25" class="node">
<title>Node25</title>
<g id="a_node25"><a xlink:href="classwmtk_1_1simplex_1_1_simplex.html#ad2cc0340a0772b7d6f03ba7a781d1163" target="_top" xlink:title=" ">
<polygon fill="none" stroke="black" points="944.5,-369.57 944.5,-399.57 1079.5,-399.57 1079.5,-369.57 944.5,-369.57"/>
<text text-anchor="start" x="952.5" y="-387.57" font-family="Helvetica,sans-Serif" font-size="10.00">wmtk::simplex::Simplex</text>
<text text-anchor="middle" x="1012" y="-376.57" font-family="Helvetica,sans-Serif" font-size="10.00">::primitive_type</text>
</a>
</g>
</g>
<!-- Node19&#45;&gt;Node25 -->
<g id="edge28" class="edge">
<title>Node19&#45;&gt;Node25</title>
<path fill="none" stroke="midnightblue" d="M856.42,-350.61C881.06,-356.02 909.02,-362.16 934.32,-367.72"/>
<polygon fill="midnightblue" stroke="midnightblue" points="933.72,-371.17 944.24,-369.9 935.22,-364.34 933.72,-371.17"/>
</g>
<!-- Node26 -->
<g id="node26" class="node">
<title>Node26</title>
<g id="a_node26"><a xlink:href="classwmtk_1_1_edge_mesh.html#a04f6595fe85e52dc6bf1e02512120100" target="_top" xlink:title=" ">
<polygon fill="none" stroke="black" points="928.5,-242.07 928.5,-261.07 1095.5,-261.07 1095.5,-242.07 928.5,-242.07"/>
<text text-anchor="middle" x="1012" y="-249.07" font-family="Helvetica,sans-Serif" font-size="10.00">wmtk::EdgeMesh::switch_edge</text>
</a>
</g>
</g>
<!-- Node19&#45;&gt;Node26 -->
<g id="edge29" class="edge">
<title>Node19&#45;&gt;Node26</title>
<path fill="none" stroke="midnightblue" d="M811.9,-320.43C835.48,-306.12 872.98,-285.05 908,-272.57 918.13,-268.96 929.06,-265.9 939.88,-263.32"/>
<polygon fill="midnightblue" stroke="midnightblue" points="940.78,-266.71 949.76,-261.1 939.24,-259.88 940.78,-266.71"/>
</g>
<!-- Node38 -->
<g id="node38" class="node">
<title>Node38</title>
<g id="a_node38"><a xlink:href="classwmtk_1_1simplex_1_1_simplex.html#a3650fd31ff1864285502dba66db3c73c" target="_top" xlink:title=" ">
<polygon fill="none" stroke="black" points="944.5,-320.57 944.5,-350.57 1079.5,-350.57 1079.5,-320.57 944.5,-320.57"/>
<text text-anchor="start" x="952.5" y="-338.57" font-family="Helvetica,sans-Serif" font-size="10.00">wmtk::simplex::Simplex</text>
<text text-anchor="middle" x="1012" y="-327.57" font-family="Helvetica,sans-Serif" font-size="10.00">::tuple</text>
</a>
</g>
</g>
<!-- Node19&#45;&gt;Node38 -->
<g id="edge49" class="edge">
<title>Node19&#45;&gt;Node38</title>
<path fill="none" stroke="midnightblue" d="M862.57,-335.57C885.62,-335.57 911.04,-335.57 934.24,-335.57"/>
<polygon fill="midnightblue" stroke="midnightblue" points="934.38,-339.07 944.38,-335.57 934.38,-332.07 934.38,-339.07"/>
</g>
<!-- Node21&#45;&gt;Node9 -->
<g id="edge24" class="edge">
<title>Node21&#45;&gt;Node9</title>
<path fill="none" stroke="midnightblue" d="M1453.15,-443.66C1475.59,-448.84 1501.18,-454.75 1523.03,-459.8"/>
<polygon fill="midnightblue" stroke="midnightblue" points="1522.25,-463.21 1532.78,-462.05 1523.82,-456.39 1522.25,-463.21"/>
</g>
<!-- Node21&#45;&gt;Node13 -->
<g id="edge23" class="edge">
<title>Node21&#45;&gt;Node13</title>
<path fill="none" stroke="midnightblue" d="M1447.84,-415.53C1468.17,-409.57 1491.7,-402.68 1512.9,-396.47"/>
<polygon fill="midnightblue" stroke="midnightblue" points="1514.16,-399.75 1522.78,-393.58 1512.19,-393.03 1514.16,-399.75"/>
</g>
<!-- Node23 -->
<g id="node23" class="node">
<title>Node23</title>
<g id="a_node23"><a xlink:href="namespacewmtk.html#a6a35f11c12436093d26fdd8be6fecc06" target="_top" xlink:title="Retrieves the current logger.">
<polygon fill="none" stroke="black" points="1719,-27.07 1719,-46.07 1800,-46.07 1800,-27.07 1719,-27.07"/>
<text text-anchor="middle" x="1759.5" y="-34.07" font-family="Helvetica,sans-Serif" font-size="10.00">wmtk::logger</text>
</a>
</g>
</g>
<!-- Node22&#45;&gt;Node23 -->
<g id="edge26" class="edge">
<title>Node22&#45;&gt;Node23</title>
<path fill="none" stroke="midnightblue" d="M1276.32,-104.53C1332.21,-89.66 1422.01,-67.48 1501,-55.57 1572.53,-44.79 1656.21,-40.05 1708.29,-38.02"/>
<polygon fill="midnightblue" stroke="midnightblue" points="1708.73,-41.51 1718.59,-37.64 1708.47,-34.51 1708.73,-41.51"/>
</g>
<!-- Node24 -->
<g id="node24" class="node">
<title>Node24</title>
<g id="a_node24"><a xlink:href="namespacewmtk.html#a3daa7951a5f8b78cf4600dc047fcc180" target="_top" xlink:title="Setup a logger object to be used by WildmeshToolkit.">
<polygon fill="none" stroke="black" points="1890.5,-11.07 1890.5,-30.07 1991.5,-30.07 1991.5,-11.07 1890.5,-11.07"/>
<text text-anchor="middle" x="1941" y="-18.07" font-family="Helvetica,sans-Serif" font-size="10.00">wmtk::set_logger</text>
</a>
</g>
</g>
<!-- Node23&#45;&gt;Node24 -->
<g id="edge27" class="edge">
<title>Node23&#45;&gt;Node24</title>
<path fill="none" stroke="midnightblue" d="M1800.34,-33.02C1823.77,-30.93 1853.86,-28.25 1880.11,-25.91"/>
<polygon fill="midnightblue" stroke="midnightblue" points="1880.68,-29.37 1890.33,-25 1880.06,-22.4 1880.68,-29.37"/>
</g>
<!-- Node27 -->
<g id="node27" class="node">
<title>Node27</title>
<g id="a_node27"><a xlink:href="classwmtk_1_1_edge_mesh.html#a46725851b572b51a356450adc30c14ed" target="_top" xlink:title="switch the orientation of the Tuple of the given dimension">
<polygon fill="none" stroke="black" points="1152,-235.57 1152,-265.57 1290,-265.57 1290,-235.57 1152,-235.57"/>
<text text-anchor="start" x="1160" y="-253.57" font-family="Helvetica,sans-Serif" font-size="10.00">wmtk::EdgeMesh::switch</text>
<text text-anchor="middle" x="1221" y="-242.57" font-family="Helvetica,sans-Serif" font-size="10.00">_tuple</text>
</a>
</g>
</g>
<!-- Node26&#45;&gt;Node27 -->
<g id="edge30" class="edge">
<title>Node26&#45;&gt;Node27</title>
<path fill="none" stroke="midnightblue" d="M1095.7,-251.17C1110.8,-251.1 1126.51,-251.02 1141.49,-250.95"/>
<polygon fill="midnightblue" stroke="midnightblue" points="1141.73,-254.45 1151.71,-250.9 1141.7,-247.45 1141.73,-254.45"/>
</g>
<!-- Node27&#45;&gt;Node9 -->
<g id="edge48" class="edge">
<title>Node27&#45;&gt;Node9</title>
<path fill="none" stroke="midnightblue" d="M1231.18,-265.65C1247.23,-290.69 1282.82,-340.77 1326,-367.57 1380.41,-401.35 1406.15,-380.3 1465,-405.57 1497.19,-419.4 1531.27,-441.38 1552.58,-456.13"/>
<polygon fill="midnightblue" stroke="midnightblue" points="1550.69,-459.08 1560.89,-461.96 1554.72,-453.35 1550.69,-459.08"/>
</g>
<!-- Node27&#45;&gt;Node10 -->
<g id="edge37" class="edge">
<title>Node27&#45;&gt;Node10</title>
<path fill="none" stroke="midnightblue" d="M1290.12,-236.08C1339.59,-228.28 1407.63,-223.24 1465,-239.57 1584.06,-273.46 1694.16,-380.12 1738.22,-427.04"/>
<polygon fill="midnightblue" stroke="midnightblue" points="1735.82,-429.61 1745.19,-434.56 1740.96,-424.85 1735.82,-429.61"/>
</g>
<!-- Node27&#45;&gt;Node13 -->
<g id="edge32" class="edge">
<title>Node27&#45;&gt;Node13</title>
<path fill="none" stroke="midnightblue" d="M1290.12,-243.61C1340.66,-241.29 1410.04,-244.25 1465,-269.57 1505.62,-288.28 1539.65,-329.01 1558.39,-355.04"/>
<polygon fill="midnightblue" stroke="midnightblue" points="1555.54,-357.07 1564.15,-363.25 1561.27,-353.05 1555.54,-357.07"/>
</g>
<!-- Node28 -->
<g id="node28" class="node">
<title>Node28</title>
<g id="a_node28"><a xlink:href="classwmtk_1_1attribute_1_1_caching_accessor.html#a20efecc1867c1883dd246f1736e515cf" target="_top" xlink:title=" ">
<polygon fill="none" stroke="black" points="1327,-317.07 1327,-358.07 1464,-358.07 1464,-317.07 1327,-317.07"/>
<text text-anchor="start" x="1335" y="-346.07" font-family="Helvetica,sans-Serif" font-size="10.00">wmtk::attribute::Caching</text>
<text text-anchor="start" x="1335" y="-335.07" font-family="Helvetica,sans-Serif" font-size="10.00">Accessor::const_vector</text>
<text text-anchor="middle" x="1395.5" y="-324.07" font-family="Helvetica,sans-Serif" font-size="10.00">_attribute</text>
</a>
</g>
</g>
<!-- Node27&#45;&gt;Node28 -->
<g id="edge31" class="edge">
<title>Node27&#45;&gt;Node28</title>
<path fill="none" stroke="midnightblue" d="M1248.16,-265.75C1268.99,-277.63 1299.03,-294.3 1326,-307.57 1329.5,-309.29 1333.13,-311.03 1336.8,-312.74"/>
<polygon fill="midnightblue" stroke="midnightblue" points="1335.43,-315.96 1345.98,-316.96 1338.35,-309.6 1335.43,-315.96"/>
</g>
<!-- Node29 -->
<g id="node29" class="node">
<title>Node29</title>
<g id="a_node29"><a xlink:href="classwmtk_1_1_mesh.html#a4bcf7281ec7f3bdfd506ffc87fc092d3" target="_top" xlink:title=" ">
<polygon fill="none" stroke="black" points="1685,-93.07 1685,-112.07 1834,-112.07 1834,-93.07 1685,-93.07"/>
<text text-anchor="middle" x="1759.5" y="-100.07" font-family="Helvetica,sans-Serif" font-size="10.00">wmtk::Mesh::get_cell_hash</text>
</a>
</g>
</g>
<!-- Node27&#45;&gt;Node29 -->
<g id="edge33" class="edge">
<title>Node27&#45;&gt;Node29</title>
<path fill="none" stroke="midnightblue" d="M1231.59,-235.23C1247.72,-210.94 1282.79,-164.29 1326,-143.57 1356.61,-128.9 1558,-114.59 1674.88,-107.39"/>
<polygon fill="midnightblue" stroke="midnightblue" points="1675.11,-110.88 1684.87,-106.77 1674.68,-103.89 1675.11,-110.88"/>
</g>
<!-- Node31 -->
<g id="node31" class="node">
<title>Node31</title>
<g id="a_node31"><a xlink:href="classwmtk_1_1attribute_1_1_accessor.html#addb86a1ffae67417347ebdf3b086d640" target="_top" xlink:title=" ">
<polygon fill="none" stroke="black" points="1870,-49.57 1870,-79.57 2012,-79.57 2012,-49.57 1870,-49.57"/>
<text text-anchor="start" x="1878" y="-67.57" font-family="Helvetica,sans-Serif" font-size="10.00">wmtk::attribute::Accessor</text>
<text text-anchor="middle" x="1941" y="-56.57" font-family="Helvetica,sans-Serif" font-size="10.00">::index_access</text>
</a>
</g>
</g>
<!-- Node27&#45;&gt;Node31 -->
<g id="edge40" class="edge">
<title>Node27&#45;&gt;Node31</title>
<path fill="none" stroke="midnightblue" d="M1230.25,-235.38C1245.64,-208.38 1281.26,-151.86 1326,-119.57 1393.15,-71.1 1421.34,-78.23 1501,-55.57 1644.28,-14.82 1690.61,22.77 1834,-17.57 1852.05,-22.65 1853.08,-31.49 1870,-39.57 1874.54,-41.74 1879.32,-43.83 1884.17,-45.81"/>
<polygon fill="midnightblue" stroke="midnightblue" points="1882.93,-49.08 1893.51,-49.49 1885.49,-42.57 1882.93,-49.08"/>
</g>
<!-- Node33 -->
<g id="node33" class="node">
<title>Node33</title>
<g id="a_node33"><a xlink:href="classwmtk_1_1_edge_mesh.html#a34530ca80c07ae67ffe601c2b8f22e3e" target="_top" xlink:title=" ">
<polygon fill="none" stroke="black" points="1337.5,-279.07 1337.5,-298.07 1453.5,-298.07 1453.5,-279.07 1337.5,-279.07"/>
<text text-anchor="middle" x="1395.5" y="-286.07" font-family="Helvetica,sans-Serif" font-size="10.00">wmtk::EdgeMesh::id</text>
</a>
</g>
</g>
<!-- Node27&#45;&gt;Node33 -->
<g id="edge38" class="edge">
<title>Node27&#45;&gt;Node33</title>
<path fill="none" stroke="midnightblue" d="M1290.18,-265.59C1307.26,-269.35 1325.32,-273.33 1341.54,-276.9"/>
<polygon fill="midnightblue" stroke="midnightblue" points="1340.85,-280.34 1351.37,-279.07 1342.36,-273.5 1340.85,-280.34"/>
</g>
<!-- Node34 -->
<g id="node34" class="node">
<title>Node34</title>
<g id="a_node34"><a xlink:href="classwmtk_1_1_edge_mesh.html#a83db0c93833dacdfb169807d8ba4b6ca" target="_top" xlink:title="TODO this needs dimension?">
<polygon fill="none" stroke="black" points="1326,-503.07 1326,-522.07 1465,-522.07 1465,-503.07 1326,-503.07"/>
<text text-anchor="middle" x="1395.5" y="-510.07" font-family="Helvetica,sans-Serif" font-size="10.00">wmtk::EdgeMesh::is_ccw</text>
</a>
</g>
</g>
<!-- Node27&#45;&gt;Node34 -->
<g id="edge41" class="edge">
<title>Node27&#45;&gt;Node34</title>
<path fill="none" stroke="midnightblue" d="M1227.37,-265.83C1240.39,-301.45 1276.27,-391.78 1326,-454.57 1339.06,-471.06 1357.39,-486.29 1371.81,-497"/>
<polygon fill="midnightblue" stroke="midnightblue" points="1370.04,-500.04 1380.19,-503.05 1374.13,-494.36 1370.04,-500.04"/>
</g>
<!-- Node35 -->
<g id="node35" class="node">
<title>Node35</title>
<g id="a_node35"><a xlink:href="classwmtk_1_1_edge_mesh.html#a566cd5b0f3adad310bd9818f14c99127" target="_top" xlink:title="check validity of tuple including its hash">
<polygon fill="none" stroke="black" points="1338,-153.57 1338,-183.57 1453,-183.57 1453,-153.57 1338,-153.57"/>
<text text-anchor="start" x="1346" y="-171.57" font-family="Helvetica,sans-Serif" font-size="10.00">wmtk::EdgeMesh::is</text>
<text text-anchor="middle" x="1395.5" y="-160.57" font-family="Helvetica,sans-Serif" font-size="10.00">_valid</text>
</a>
</g>
</g>
<!-- Node27&#45;&gt;Node35 -->
<g id="edge43" class="edge">
<title>Node27&#45;&gt;Node35</title>
<path fill="none" stroke="midnightblue" d="M1251.39,-235.38C1272.11,-224.78 1300.59,-210.48 1326,-198.57 1333.69,-194.97 1341.92,-191.25 1349.92,-187.7"/>
<polygon fill="midnightblue" stroke="midnightblue" points="1351.4,-190.88 1359.15,-183.65 1348.58,-184.47 1351.4,-190.88"/>
</g>
<!-- Node30 -->
<g id="node30" class="node">
<title>Node30</title>
<g id="a_node30"><a xlink:href="classwmtk_1_1attribute_1_1_caching_accessor.html#a46aa3c2780f6789c42c537ee4ecb5b86" target="_top" xlink:title=" ">
<polygon fill="none" stroke="black" points="1872.5,-99.07 1872.5,-140.07 2009.5,-140.07 2009.5,-99.07 1872.5,-99.07"/>
<text text-anchor="start" x="1880.5" y="-128.07" font-family="Helvetica,sans-Serif" font-size="10.00">wmtk::attribute::Caching</text>
<text text-anchor="start" x="1880.5" y="-117.07" font-family="Helvetica,sans-Serif" font-size="10.00">Accessor::const_scalar</text>
<text text-anchor="middle" x="1941" y="-106.07" font-family="Helvetica,sans-Serif" font-size="10.00">_attribute</text>
</a>
</g>
</g>
<!-- Node29&#45;&gt;Node30 -->
<g id="edge34" class="edge">
<title>Node29&#45;&gt;Node30</title>
<path fill="none" stroke="midnightblue" d="M1834.03,-109.53C1843.34,-110.42 1852.9,-111.32 1862.27,-112.21"/>
<polygon fill="midnightblue" stroke="midnightblue" points="1862.07,-115.71 1872.36,-113.16 1862.73,-108.74 1862.07,-115.71"/>
</g>
<!-- Node29&#45;&gt;Node31 -->
<g id="edge35" class="edge">
<title>Node29&#45;&gt;Node31</title>
<path fill="none" stroke="midnightblue" d="M1805.8,-92.98C1822.26,-89.5 1841.39,-85.45 1859.96,-81.51"/>
<polygon fill="midnightblue" stroke="midnightblue" points="1860.84,-84.91 1869.9,-79.41 1859.39,-78.06 1860.84,-84.91"/>
</g>
<!-- Node32 -->
<g id="node32" class="node">
<title>Node32</title>
<g id="a_node32"><a xlink:href="classwmtk_1_1attribute_1_1_accessor.html#ad1a1ac34aff7d11b36b19968ba3fc625" target="_top" xlink:title=" ">
<polygon fill="none" stroke="black" points="2060.5,-49.57 2060.5,-79.57 2202.5,-79.57 2202.5,-49.57 2060.5,-49.57"/>
<text text-anchor="start" x="2068.5" y="-67.57" font-family="Helvetica,sans-Serif" font-size="10.00">wmtk::attribute::Accessor</text>
<text text-anchor="middle" x="2131.5" y="-56.57" font-family="Helvetica,sans-Serif" font-size="10.00">::caching_base_type</text>
</a>
</g>
</g>
<!-- Node31&#45;&gt;Node32 -->
<g id="edge36" class="edge">
<title>Node31&#45;&gt;Node32</title>
<path fill="none" stroke="midnightblue" d="M2012.19,-64.57C2024.58,-64.57 2037.56,-64.57 2050.2,-64.57"/>
<polygon fill="midnightblue" stroke="midnightblue" points="2050.25,-68.07 2060.25,-64.57 2050.25,-61.07 2050.25,-68.07"/>
</g>
<!-- Node33&#45;&gt;Node13 -->
<g id="edge39" class="edge">
<title>Node33&#45;&gt;Node13</title>
<path fill="none" stroke="midnightblue" d="M1438.88,-298.14C1447.69,-300.73 1456.79,-303.86 1465,-307.57 1494.67,-320.96 1525.49,-341.78 1546.75,-357.42"/>
<polygon fill="midnightblue" stroke="midnightblue" points="1544.86,-360.38 1554.97,-363.56 1549.05,-354.77 1544.86,-360.38"/>
</g>
<!-- Node34&#45;&gt;Node9 -->
<g id="edge42" class="edge">
<title>Node34&#45;&gt;Node9</title>
<path fill="none" stroke="midnightblue" d="M1437.67,-503.06C1463,-497.21 1495.69,-489.66 1522.7,-483.42"/>
<polygon fill="midnightblue" stroke="midnightblue" points="1523.79,-486.76 1532.75,-481.1 1522.22,-479.94 1523.79,-486.76"/>
</g>
<!-- Node36 -->
<g id="node36" class="node">
<title>Node36</title>
<g id="a_node36"><a xlink:href="classwmtk_1_1_mesh.html#aad291410ffabfd61e42d0a813a610805" target="_top" xlink:title=" ">
<polygon fill="none" stroke="black" points="1515.5,-65.57 1515.5,-95.57 1634.5,-95.57 1634.5,-65.57 1515.5,-65.57"/>
<text text-anchor="start" x="1523.5" y="-83.57" font-family="Helvetica,sans-Serif" font-size="10.00">wmtk::Mesh::is_hash</text>
<text text-anchor="middle" x="1575" y="-72.57" font-family="Helvetica,sans-Serif" font-size="10.00">_valid</text>
</a>
</g>
</g>
<!-- Node35&#45;&gt;Node36 -->
<g id="edge44" class="edge">
<title>Node35&#45;&gt;Node36</title>
<path fill="none" stroke="midnightblue" d="M1427.01,-153.44C1456.69,-138.73 1501.93,-116.3 1534.38,-100.21"/>
<polygon fill="midnightblue" stroke="midnightblue" points="1536.18,-103.23 1543.59,-95.65 1533.07,-96.95 1536.18,-103.23"/>
</g>
<!-- Node37 -->
<g id="node37" class="node">
<title>Node37</title>
<g id="a_node37"><a xlink:href="classwmtk_1_1_tuple.html#a0023f575be92cd5ceeeaaaa3762ea06d" target="_top" xlink:title=" ">
<polygon fill="none" stroke="black" points="1518.5,-159.07 1518.5,-178.07 1631.5,-178.07 1631.5,-159.07 1518.5,-159.07"/>
<text text-anchor="middle" x="1575" y="-166.07" font-family="Helvetica,sans-Serif" font-size="10.00">wmtk::Tuple::is_null</text>
</a>
</g>
</g>
<!-- Node35&#45;&gt;Node37 -->
<g id="edge47" class="edge">
<title>Node35&#45;&gt;Node37</title>
<path fill="none" stroke="midnightblue" d="M1453.15,-168.57C1470.7,-168.57 1490.19,-168.57 1508.31,-168.57"/>
<polygon fill="midnightblue" stroke="midnightblue" points="1508.49,-172.07 1518.49,-168.57 1508.49,-165.07 1508.49,-172.07"/>
</g>
<!-- Node36&#45;&gt;Node23 -->
<g id="edge46" class="edge">
<title>Node36&#45;&gt;Node23</title>
<path fill="none" stroke="midnightblue" d="M1634.75,-66.41C1658.71,-60.63 1686.11,-54.02 1709.03,-48.5"/>
<polygon fill="midnightblue" stroke="midnightblue" points="1709.99,-51.87 1718.89,-46.12 1708.34,-45.06 1709.99,-51.87"/>
</g>
<!-- Node36&#45;&gt;Node29 -->
<g id="edge45" class="edge">
<title>Node36&#45;&gt;Node29</title>
<path fill="none" stroke="midnightblue" d="M1634.75,-87.65C1647.45,-89.18 1661.12,-90.83 1674.58,-92.45"/>
<polygon fill="midnightblue" stroke="midnightblue" points="1674.46,-95.97 1684.81,-93.69 1675.3,-89.02 1674.46,-95.97"/>
</g>
<!-- Node40 -->
<g id="node40" class="node">
<title>Node40</title>
<g id="a_node40"><a xlink:href="classwmtk_1_1_mesh.html#a933f681cf24a63b155c9462280385200" target="_top" xlink:title=" ">
<polygon fill="none" stroke="black" points="951.5,-776.57 951.5,-806.57 1072.5,-806.57 1072.5,-776.57 951.5,-776.57"/>
<text text-anchor="start" x="959.5" y="-794.57" font-family="Helvetica,sans-Serif" font-size="10.00">wmtk::Mesh::top_cell</text>
<text text-anchor="middle" x="1012" y="-783.57" font-family="Helvetica,sans-Serif" font-size="10.00">_dimension</text>
</a>
</g>
</g>
<!-- Node39&#45;&gt;Node40 -->
<g id="edge51" class="edge">
<title>Node39&#45;&gt;Node40</title>
<path fill="none" stroke="midnightblue" d="M866.62,-774.09C890.98,-777.04 917.64,-780.27 941.34,-783.14"/>
<polygon fill="midnightblue" stroke="midnightblue" points="940.96,-786.62 951.31,-784.34 941.8,-779.67 940.96,-786.62"/>
</g>
<!-- Node42 -->
<g id="node42" class="node">
<title>Node42</title>
<g id="a_node42"><a xlink:href="namespacewmtk_1_1multimesh_1_1utils.html#a99cdf56ec6abe68409d30e0b67f4ce82" target="_top" xlink:title=" ">
<polygon fill="none" stroke="black" points="933,-678.57 933,-708.57 1091,-708.57 1091,-678.57 933,-678.57"/>
<text text-anchor="start" x="941" y="-696.57" font-family="Helvetica,sans-Serif" font-size="10.00">wmtk::multimesh::utils</text>
<text text-anchor="middle" x="1012" y="-685.57" font-family="Helvetica,sans-Serif" font-size="10.00">::find_local_switch_sequence</text>
</a>
</g>
</g>
<!-- Node41&#45;&gt;Node42 -->
<g id="edge53" class="edge">
<title>Node41&#45;&gt;Node42</title>
<path fill="none" stroke="midnightblue" d="M852.2,-693.57C874.06,-693.57 898.89,-693.57 922.32,-693.57"/>
<polygon fill="midnightblue" stroke="midnightblue" points="922.61,-697.07 932.61,-693.57 922.61,-690.07 922.61,-697.07"/>
</g>
<!-- Node43 -->
<g id="node43" class="node">
<title>Node43</title>
<g id="a_node43"><a xlink:href="namespacewmtk_1_1multimesh_1_1utils.html#af71d6d20a76616d671ae5f53350107b4" target="_top" xlink:title=" ">
<polygon fill="none" stroke="black" points="947,-727.57 947,-757.57 1077,-757.57 1077,-727.57 947,-727.57"/>
<text text-anchor="start" x="955" y="-745.57" font-family="Helvetica,sans-Serif" font-size="10.00">wmtk::multimesh::utils</text>
<text text-anchor="middle" x="1012" y="-734.57" font-family="Helvetica,sans-Serif" font-size="10.00">::local_switch_tuples</text>
</a>
</g>
</g>
<!-- Node41&#45;&gt;Node43 -->
<g id="edge54" class="edge">
<title>Node41&#45;&gt;Node43</title>
<path fill="none" stroke="midnightblue" d="M852.2,-707.68C878.67,-713.49 909.51,-720.27 936.93,-726.3"/>
<polygon fill="midnightblue" stroke="midnightblue" points="936.35,-729.75 946.87,-728.48 937.85,-722.91 936.35,-729.75"/>
</g>
</g>
</svg>
        <g id="navigator" transform="translate(0 0)" fill="#404254">
                <rect fill="#f2f5e9" fill-opacity="0.5" stroke="#606060" stroke-width=".5" x="0" y="0" width="60" height="60"/>
                <use id="zoomplus" xlink:href="#zoomPlus" x="17" y="9" onmousedown="handleZoom(evt,'in')"/>
                <use id="zoomminus" xlink:href="#zoomMin" x="42" y="9" onmousedown="handleZoom(evt,'out')"/>
                <use id="reset" xlink:href="#resetDef" x="30" y="36" onmousedown="handleReset()"/>
                <g id="arrowUp" xlink:href="#dirArrow" transform="translate(30 24)" onmousedown="handlePan(0,-1)">
                  <use xlink:href="#rim" fill="#404040">
                        <set attributeName="fill" to="#808080" begin="arrowUp.mouseover" end="arrowUp.mouseout"/>
                  </use>
                  <path fill="none" stroke="white" stroke-width="1.5" d="M0,-3.0v7 M-2.5,-0.5L0,-3.0L2.5,-0.5"/>
                </g>
                <g id="arrowRight" xlink:href="#dirArrow" transform="rotate(90) translate(36 -43)" onmousedown="handlePan(1,0)">
                  <use xlink:href="#rim" fill="#404040">
                        <set attributeName="fill" to="#808080" begin="arrowRight.mouseover" end="arrowRight.mouseout"/>
                  </use>
                  <path fill="none" stroke="white" stroke-width="1.5" d="M0,-3.0v7 M-2.5,-0.5L0,-3.0L2.5,-0.5"/>
                </g>
                <g id="arrowDown" xlink:href="#dirArrow" transform="rotate(180) translate(-30 -48)" onmousedown="handlePan(0,1)">
                  <use xlink:href="#rim" fill="#404040">
                        <set attributeName="fill" to="#808080" begin="arrowDown.mouseover" end="arrowDown.mouseout"/>
                  </use>
                  <path fill="none" stroke="white" stroke-width="1.5" d="M0,-3.0v7 M-2.5,-0.5L0,-3.0L2.5,-0.5"/>
                </g>
                <g id="arrowLeft" xlink:href="#dirArrow" transform="rotate(270) translate(-36 17)" onmousedown="handlePan(-1,0)">
                  <use xlink:href="#rim" fill="#404040">
                        <set attributeName="fill" to="#808080" begin="arrowLeft.mouseover" end="arrowLeft.mouseout"/>
                  </use>
                  <path fill="none" stroke="white" stroke-width="1.5" d="M0,-3.0v7 M-2.5,-0.5L0,-3.0L2.5,-0.5"/>
                </g>
        </g>
        <svg viewBox="0 0 15 15" width="100%" height="30px" preserveAspectRatio="xMaxYMin meet">
         <g id="arrow_out" transform="scale(0.3 0.3)">
          <a xlink:href="classwmtk_1_1multimesh_1_1_multi_mesh_manager_abbd5b4aab00a9ebb113bc6fe5bb635bd_cgraph_org.svg" target="_base">
           <rect id="button" ry="5" rx="5" y="6" x="6" height="38" width="38"
                fill="#f2f5e9" fill-opacity="0.5" stroke="#606060" stroke-width="1.0"/>
           <path id="arrow"
             d="M 11.500037,31.436501 C 11.940474,20.09759 22.043105,11.32322 32.158766,21.979434 L 37.068811,17.246167 C 37.068811,17.246167 37.088388,32 37.088388,32 L 22.160133,31.978069 C 22.160133,31.978069 26.997745,27.140456 26.997745,27.140456 C 18.528582,18.264221 13.291696,25.230495 11.500037,31.436501 z"
             style="fill:#404040;"/>
          </a>
         </g>
        </svg>
</svg>
