<?xml version="1.0" encoding="UTF-8" standalone="no"?>
<!DOCTYPE svg PUBLIC "-//W3C//DTD SVG 1.1//EN"
 "http://www.w3.org/Graphics/SVG/1.1/DTD/svg11.dtd">
<!-- Generated by graphviz version 2.43.0 (0)
 -->
<!-- Title: wmtk::invariants::Invariant::before Pages: 1 -->
<svg width="360pt" height="88pt"
 viewBox="0.00 0.00 360.00 88.00" xmlns="http://www.w3.org/2000/svg" xmlns:xlink="http://www.w3.org/1999/xlink">
<g id="graph0" class="graph" transform="scale(1 1) rotate(0) translate(4 84)">
<title>wmtk::invariants::Invariant::before</title>
<!-- Node1 -->
<g id="node1" class="node">
<title>Node1</title>
<g id="a_node1"><a xlink:title=" ">
<polygon fill="#bfbfbf" stroke="black" points="203,-24.5 203,-54.5 352,-54.5 352,-24.5 203,-24.5"/>
<text text-anchor="start" x="211" y="-42.5" font-family="Helvetica,sans-Serif" font-size="10.00">wmtk::invariants::Invariant</text>
<text text-anchor="middle" x="277.5" y="-31.5" font-family="Helvetica,sans-Serif" font-size="10.00">::before</text>
</a>
</g>
</g>
<!-- Node2 -->
<g id="node2" class="node">
<title>Node2</title>
<g id="a_node2"><a xlink:href="classwmtk_1_1invariants_1_1_function_invariant.html#a7f10adfd6785666e6531cc7909b2a274" target="_top" xlink:title=" ">
<polygon fill="none" stroke="black" points="10.5,-49.5 10.5,-79.5 156.5,-79.5 156.5,-49.5 10.5,-49.5"/>
<text text-anchor="start" x="18.5" y="-67.5" font-family="Helvetica,sans-Serif" font-size="10.00">wmtk::invariants::Function</text>
<text text-anchor="middle" x="83.5" y="-56.5" font-family="Helvetica,sans-Serif" font-size="10.00">Invariant::after</text>
</a>
</g>
</g>
<!-- Node1&#45;&gt;Node2 -->
<g id="edge1" class="edge">
<title>Node1&#45;&gt;Node2</title>
<path fill="none" stroke="midnightblue" d="M192.8,-50.4C180.78,-51.96 168.49,-53.56 156.72,-55.1"/>
<polygon fill="midnightblue" stroke="midnightblue" points="193.35,-53.86 202.82,-49.09 192.45,-46.91 193.35,-53.86"/>
</g>
<!-- Node3 -->
<g id="node3" class="node">
<title>Node3</title>
<g id="a_node3"><a xlink:href="classwmtk_1_1invariants_1_1_max_function_invariant.html#a1b7bbbbc2040253d110ed100054c9cb4" target="_top" xlink:title=" ">
<polygon fill="none" stroke="black" points="0,-0.5 0,-30.5 167,-30.5 167,-0.5 0,-0.5"/>
<text text-anchor="start" x="8" y="-18.5" font-family="Helvetica,sans-Serif" font-size="10.00">wmtk::invariants::MaxFunction</text>
<text text-anchor="middle" x="83.5" y="-7.5" font-family="Helvetica,sans-Serif" font-size="10.00">Invariant::after</text>
</a>
</g>
</g>
<!-- Node1&#45;&gt;Node3 -->
<g id="edge2" class="edge">
<title>Node1&#45;&gt;Node3</title>
<path fill="none" stroke="midnightblue" d="M192.63,-29.02C184.21,-27.96 175.67,-26.9 167.27,-25.85"/>
<polygon fill="midnightblue" stroke="midnightblue" points="192.46,-32.52 202.82,-30.29 193.33,-25.58 192.46,-32.52"/>
</g>
</g>
</svg>
