<?xml version="1.0" encoding="UTF-8" standalone="no"?>
<!DOCTYPE svg PUBLIC "-//W3C//DTD SVG 1.1//EN"
 "http://www.w3.org/Graphics/SVG/1.1/DTD/svg11.dtd">
<!-- Generated by graphviz version 2.43.0 (0)
 -->
<!-- Title: wmtk::attribute::MeshAttributeHandle::handle Pages: 1 -->
<svg width="815pt" height="564pt"
 viewBox="0.00 0.00 815.00 563.50" xmlns="http://www.w3.org/2000/svg" xmlns:xlink="http://www.w3.org/1999/xlink">
<g id="graph0" class="graph" transform="scale(1 1) rotate(0) translate(4 559.5)">
<title>wmtk::attribute::MeshAttributeHandle::handle</title>
<!-- Node1 -->
<g id="node1" class="node">
<title>Node1</title>
<g id="a_node1"><a xlink:title=" ">
<polygon fill="#bfbfbf" stroke="black" points="640,-251.5 640,-281.5 807,-281.5 807,-251.5 640,-251.5"/>
<text text-anchor="start" x="648" y="-269.5" font-family="Helvetica,sans-Serif" font-size="10.00">wmtk::attribute::MeshAttribute</text>
<text text-anchor="middle" x="723.5" y="-258.5" font-family="Helvetica,sans-Serif" font-size="10.00">Handle::handle</text>
</a>
</g>
</g>
<!-- Node2 -->
<g id="node2" class="node">
<title>Node2</title>
<g id="a_node2"><a xlink:href="classwmtk_1_1operations_1_1_attribute_transfer_configuration.html#afd616b30055af632ba78c33fdf820d84" target="_top" xlink:title=" ">
<polygon fill="none" stroke="black" points="441.5,-514 441.5,-555 592.5,-555 592.5,-514 441.5,-514"/>
<text text-anchor="start" x="449.5" y="-543" font-family="Helvetica,sans-Serif" font-size="10.00">wmtk::operations::Attribute</text>
<text text-anchor="start" x="449.5" y="-532" font-family="Helvetica,sans-Serif" font-size="10.00">TransferConfiguration::add</text>
<text text-anchor="middle" x="517" y="-521" font-family="Helvetica,sans-Serif" font-size="10.00">_collapse_new</text>
</a>
</g>
</g>
<!-- Node1&#45;&gt;Node2 -->
<g id="edge1" class="edge">
<title>Node1&#45;&gt;Node2</title>
<path fill="none" stroke="midnightblue" d="M716.72,-291.67C704.38,-339.83 670.97,-445.5 604,-504.5 599.97,-508.05 595.49,-511.19 590.75,-513.97"/>
<polygon fill="midnightblue" stroke="midnightblue" points="720.16,-292.32 719.16,-281.77 713.37,-290.64 720.16,-292.32"/>
</g>
<!-- Node3 -->
<g id="node3" class="node">
<title>Node3</title>
<g id="a_node3"><a xlink:href="classwmtk_1_1operations_1_1_attribute_transfer_configuration.html#a303c59b65a6776a7935163f3ff6cc7c0" target="_top" xlink:title=" ">
<polygon fill="none" stroke="black" points="441.5,-454 441.5,-495 592.5,-495 592.5,-454 441.5,-454"/>
<text text-anchor="start" x="449.5" y="-483" font-family="Helvetica,sans-Serif" font-size="10.00">wmtk::operations::Attribute</text>
<text text-anchor="start" x="449.5" y="-472" font-family="Helvetica,sans-Serif" font-size="10.00">TransferConfiguration::add</text>
<text text-anchor="middle" x="517" y="-461" font-family="Helvetica,sans-Serif" font-size="10.00">_split_new</text>
</a>
</g>
</g>
<!-- Node1&#45;&gt;Node3 -->
<g id="edge2" class="edge">
<title>Node1&#45;&gt;Node3</title>
<path fill="none" stroke="midnightblue" d="M712.48,-290.85C695.6,-328.96 658,-402.63 604,-444.5 599.5,-447.99 594.57,-451.09 589.41,-453.84"/>
<polygon fill="midnightblue" stroke="midnightblue" points="715.75,-292.11 716.5,-281.54 709.32,-289.33 715.75,-292.11"/>
</g>
<!-- Node4 -->
<g id="node4" class="node">
<title>Node4</title>
<g id="a_node4"><a xlink:href="namespacewmtk_1_1utils.html#a63f193e192f0629608e3d43f8143b6a9" target="_top" xlink:title=" ">
<polygon fill="none" stroke="black" points="444.5,-416 444.5,-435 589.5,-435 589.5,-416 444.5,-416"/>
<text text-anchor="middle" x="517" y="-423" font-family="Helvetica,sans-Serif" font-size="10.00">wmtk::utils::cast_attribute</text>
</a>
</g>
</g>
<!-- Node1&#45;&gt;Node4 -->
<g id="edge3" class="edge">
<title>Node1&#45;&gt;Node4</title>
<path fill="none" stroke="midnightblue" d="M709.26,-290.18C690.25,-321.87 652.14,-377.45 604,-406.5 597.58,-410.37 590.47,-413.46 583.17,-415.91"/>
<polygon fill="midnightblue" stroke="midnightblue" points="712.29,-291.94 714.32,-281.54 706.25,-288.4 712.29,-291.94"/>
</g>
<!-- Node5 -->
<g id="node5" class="node">
<title>Node5</title>
<g id="a_node5"><a xlink:href="classwmtk_1_1_mesh.html#ab4e40406cd9d1f20b1f493f0529ea309" target="_top" xlink:title=" ">
<polygon fill="none" stroke="black" points="460.5,-366.5 460.5,-396.5 573.5,-396.5 573.5,-366.5 460.5,-366.5"/>
<text text-anchor="start" x="468.5" y="-384.5" font-family="Helvetica,sans-Serif" font-size="10.00">wmtk::Mesh::delete</text>
<text text-anchor="middle" x="517" y="-373.5" font-family="Helvetica,sans-Serif" font-size="10.00">_attribute</text>
</a>
</g>
</g>
<!-- Node1&#45;&gt;Node5 -->
<g id="edge4" class="edge">
<title>Node1&#45;&gt;Node5</title>
<path fill="none" stroke="midnightblue" d="M699.1,-288.47C676.38,-308.72 640.12,-338.32 604,-356.5 594.56,-361.25 584.06,-365.24 573.74,-368.54"/>
<polygon fill="midnightblue" stroke="midnightblue" points="701.48,-291.03 706.55,-281.73 696.78,-285.84 701.48,-291.03"/>
</g>
<!-- Node6 -->
<g id="node6" class="node">
<title>Node6</title>
<g id="a_node6"><a xlink:href="namespacewmtk_1_1multimesh_1_1utils.html#a7abce025022d68cda1ab1de2663865df" target="_top" xlink:title="extract a child mesh based on the tag handle and the tag value, and register it to the input (parent)...">
<polygon fill="none" stroke="black" points="452,-306 452,-347 582,-347 582,-306 452,-306"/>
<text text-anchor="start" x="460" y="-335" font-family="Helvetica,sans-Serif" font-size="10.00">wmtk::multimesh::utils</text>
<text text-anchor="start" x="460" y="-324" font-family="Helvetica,sans-Serif" font-size="10.00">::extract_and_register</text>
<text text-anchor="middle" x="517" y="-313" font-family="Helvetica,sans-Serif" font-size="10.00">_child_mesh_from_tag</text>
</a>
</g>
</g>
<!-- Node1&#45;&gt;Node6 -->
<g id="edge5" class="edge">
<title>Node1&#45;&gt;Node6</title>
<path fill="none" stroke="midnightblue" d="M661.43,-284.42C636.44,-291.75 607.5,-300.24 582.19,-307.67"/>
<polygon fill="midnightblue" stroke="midnightblue" points="662.55,-287.74 671.16,-281.56 660.58,-281.02 662.55,-287.74"/>
</g>
<!-- Node7 -->
<g id="node7" class="node">
<title>Node7</title>
<g id="a_node7"><a xlink:href="namespacewmtk_1_1operations_1_1attribute__update.html#acfc9277b9947c423a9b729daa789f6b6" target="_top" xlink:title=" ">
<polygon fill="none" stroke="black" points="436.5,-246 436.5,-287 597.5,-287 597.5,-246 436.5,-246"/>
<text text-anchor="start" x="444.5" y="-275" font-family="Helvetica,sans-Serif" font-size="10.00">wmtk::operations::attribute</text>
<text text-anchor="start" x="444.5" y="-264" font-family="Helvetica,sans-Serif" font-size="10.00">_update::make_cast_attribute</text>
<text text-anchor="middle" x="517" y="-253" font-family="Helvetica,sans-Serif" font-size="10.00">_transfer_strategy</text>
</a>
</g>
</g>
<!-- Node1&#45;&gt;Node7 -->
<g id="edge6" class="edge">
<title>Node1&#45;&gt;Node7</title>
<path fill="none" stroke="midnightblue" d="M629.69,-266.5C618.97,-266.5 608.1,-266.5 597.58,-266.5"/>
<polygon fill="midnightblue" stroke="midnightblue" points="629.91,-270 639.91,-266.5 629.91,-263 629.91,-270"/>
</g>
<!-- Node12 -->
<g id="node12" class="node">
<title>Node12</title>
<g id="a_node12"><a xlink:href="classwmtk_1_1operations_1_1_vertex_laplacian_smooth.html#a22b68bed2c372520db2e828fcb226797" target="_top" xlink:title=" ">
<polygon fill="none" stroke="black" points="439.5,-196.5 439.5,-226.5 594.5,-226.5 594.5,-196.5 439.5,-196.5"/>
<text text-anchor="start" x="447.5" y="-214.5" font-family="Helvetica,sans-Serif" font-size="10.00">wmtk::operations::Vertex</text>
<text text-anchor="middle" x="517" y="-203.5" font-family="Helvetica,sans-Serif" font-size="10.00">LaplacianSmooth::operator()</text>
</a>
</g>
</g>
<!-- Node1&#45;&gt;Node12 -->
<g id="edge12" class="edge">
<title>Node1&#45;&gt;Node12</title>
<path fill="none" stroke="midnightblue" d="M656.94,-248.87C630.16,-241.67 599.5,-233.42 573.81,-226.51"/>
<polygon fill="midnightblue" stroke="midnightblue" points="656.05,-252.25 666.62,-251.47 657.87,-245.49 656.05,-252.25"/>
</g>
<!-- Node13 -->
<g id="node13" class="node">
<title>Node13</title>
<g id="a_node13"><a xlink:href="classwmtk_1_1components_1_1internal_1_1_regular_space.html#af9adef544fff10ba9257d128fd13393c" target="_top" xlink:title=" ">
<polygon fill="none" stroke="black" points="432,-147.5 432,-177.5 602,-177.5 602,-147.5 432,-147.5"/>
<text text-anchor="start" x="440" y="-165.5" font-family="Helvetica,sans-Serif" font-size="10.00">wmtk::components::internal</text>
<text text-anchor="middle" x="517" y="-154.5" font-family="Helvetica,sans-Serif" font-size="10.00">::RegularSpace::regularize_tags</text>
</a>
</g>
</g>
<!-- Node1&#45;&gt;Node13 -->
<g id="edge13" class="edge">
<title>Node1&#45;&gt;Node13</title>
<path fill="none" stroke="midnightblue" d="M695.91,-245.31C672.77,-227.75 637.74,-203.2 604,-187.5 595.96,-183.76 587.24,-180.45 578.54,-177.56"/>
<polygon fill="midnightblue" stroke="midnightblue" points="693.81,-248.11 703.87,-251.44 698.08,-242.56 693.81,-248.11"/>
</g>
<!-- Node16 -->
<g id="node16" class="node">
<title>Node16</title>
<g id="a_node16"><a xlink:href="classwmtk_1_1operations_1_1_edge_collapse.html#a31e2fd32feacd5705864bda83c55c188" target="_top" xlink:title=" ">
<polygon fill="none" stroke="black" points="430,-98.5 430,-128.5 604,-128.5 604,-98.5 430,-98.5"/>
<text text-anchor="start" x="438" y="-116.5" font-family="Helvetica,sans-Serif" font-size="10.00">wmtk::operations::EdgeCollapse</text>
<text text-anchor="middle" x="517" y="-105.5" font-family="Helvetica,sans-Serif" font-size="10.00">::set_new_attribute_strategy</text>
</a>
</g>
</g>
<!-- Node1&#45;&gt;Node16 -->
<g id="edge16" class="edge">
<title>Node1&#45;&gt;Node16</title>
<path fill="none" stroke="midnightblue" d="M707.07,-242.87C686.84,-213.78 648.64,-164.87 604,-137.5 598.45,-134.1 592.41,-131.17 586.18,-128.64"/>
<polygon fill="midnightblue" stroke="midnightblue" points="704.23,-244.93 712.75,-251.22 710.02,-240.99 704.23,-244.93"/>
</g>
<!-- Node17 -->
<g id="node17" class="node">
<title>Node17</title>
<g id="a_node17"><a xlink:href="classwmtk_1_1operations_1_1_edge_split.html#a9ad8025fa6682135fc5bbbb5fc6cefcf" target="_top" xlink:title=" ">
<polygon fill="none" stroke="black" points="439,-49.5 439,-79.5 595,-79.5 595,-49.5 439,-49.5"/>
<text text-anchor="start" x="447" y="-67.5" font-family="Helvetica,sans-Serif" font-size="10.00">wmtk::operations::EdgeSplit</text>
<text text-anchor="middle" x="517" y="-56.5" font-family="Helvetica,sans-Serif" font-size="10.00">::set_new_attribute_strategy</text>
</a>
</g>
</g>
<!-- Node1&#45;&gt;Node17 -->
<g id="edge17" class="edge">
<title>Node1&#45;&gt;Node17</title>
<path fill="none" stroke="midnightblue" d="M712.91,-242.02C696.52,-203.44 659.44,-128.73 604,-88.5 599.23,-85.04 593.99,-82.08 588.51,-79.54"/>
<polygon fill="midnightblue" stroke="midnightblue" points="709.75,-243.55 716.8,-251.45 716.22,-240.87 709.75,-243.55"/>
</g>
<!-- Node18 -->
<g id="node18" class="node">
<title>Node18</title>
<g id="a_node18"><a xlink:href="namespacewmtk_1_1multimesh_1_1utils.html#a84bc450f40ee45624726d8f1ad6e8001" target="_top" xlink:title=" ">
<polygon fill="none" stroke="black" points="452,-0.5 452,-30.5 582,-30.5 582,-0.5 452,-0.5"/>
<text text-anchor="start" x="460" y="-18.5" font-family="Helvetica,sans-Serif" font-size="10.00">wmtk::multimesh::utils</text>
<text text-anchor="middle" x="517" y="-7.5" font-family="Helvetica,sans-Serif" font-size="10.00">::transfer_attribute</text>
</a>
</g>
</g>
<!-- Node1&#45;&gt;Node18 -->
<g id="edge18" class="edge">
<title>Node1&#45;&gt;Node18</title>
<path fill="none" stroke="midnightblue" d="M716.52,-241.48C703.99,-194.58 670.5,-93.37 604,-39.5 597.62,-34.33 590.19,-30.27 582.43,-27.08"/>
<polygon fill="midnightblue" stroke="midnightblue" points="713.19,-242.58 719.07,-251.4 719.97,-240.84 713.19,-242.58"/>
</g>
<!-- Node8 -->
<g id="node8" class="node">
<title>Node8</title>
<g id="a_node8"><a xlink:href="namespacewmtk_1_1components.html#ac6ca52668bd22e164d4baf59ec533864" target="_top" xlink:title=" ">
<polygon fill="none" stroke="black" points="215,-301 215,-320 394,-320 394,-301 215,-301"/>
<text text-anchor="middle" x="304.5" y="-308" font-family="Helvetica,sans-Serif" font-size="10.00">wmtk::components::wildmeshing</text>
</a>
</g>
</g>
<!-- Node7&#45;&gt;Node8 -->
<g id="edge7" class="edge">
<title>Node7&#45;&gt;Node8</title>
<path fill="none" stroke="midnightblue" d="M426.51,-285.2C400.47,-290.65 373.1,-296.37 351,-300.99"/>
<polygon fill="midnightblue" stroke="midnightblue" points="427.35,-288.61 436.42,-283.13 425.91,-281.75 427.35,-288.61"/>
</g>
<!-- Node9 -->
<g id="node9" class="node">
<title>Node9</title>
<g id="a_node9"><a xlink:href="namespacewmtk_1_1components_1_1internal.html#a28a63b9ae929bfe3ccb0fa3a266a272c" target="_top" xlink:title=" ">
<polygon fill="none" stroke="black" points="227.5,-251.5 227.5,-281.5 381.5,-281.5 381.5,-251.5 227.5,-251.5"/>
<text text-anchor="start" x="235.5" y="-269.5" font-family="Helvetica,sans-Serif" font-size="10.00">wmtk::components::internal</text>
<text text-anchor="middle" x="304.5" y="-258.5" font-family="Helvetica,sans-Serif" font-size="10.00">::wildmeshing2d</text>
</a>
</g>
</g>
<!-- Node7&#45;&gt;Node9 -->
<g id="edge8" class="edge">
<title>Node7&#45;&gt;Node9</title>
<path fill="none" stroke="midnightblue" d="M426.24,-266.5C411.41,-266.5 396.17,-266.5 381.71,-266.5"/>
<polygon fill="midnightblue" stroke="midnightblue" points="426.42,-270 436.42,-266.5 426.42,-263 426.42,-270"/>
</g>
<!-- Node11 -->
<g id="node11" class="node">
<title>Node11</title>
<g id="a_node11"><a xlink:href="namespacewmtk_1_1components_1_1internal.html#a798951bc2a6b1069a5ae8c946ddfdecd" target="_top" xlink:title=" ">
<polygon fill="none" stroke="black" points="227.5,-202.5 227.5,-232.5 381.5,-232.5 381.5,-202.5 227.5,-202.5"/>
<text text-anchor="start" x="235.5" y="-220.5" font-family="Helvetica,sans-Serif" font-size="10.00">wmtk::components::internal</text>
<text text-anchor="middle" x="304.5" y="-209.5" font-family="Helvetica,sans-Serif" font-size="10.00">::wildmeshing3d</text>
</a>
</g>
</g>
<!-- Node7&#45;&gt;Node11 -->
<g id="edge10" class="edge">
<title>Node7&#45;&gt;Node11</title>
<path fill="none" stroke="midnightblue" d="M426.58,-245.69C407.62,-241.27 387.96,-236.69 370.13,-232.55"/>
<polygon fill="midnightblue" stroke="midnightblue" points="425.89,-249.12 436.42,-247.98 427.47,-242.3 425.89,-249.12"/>
</g>
<!-- Node10 -->
<g id="node10" class="node">
<title>Node10</title>
<g id="a_node10"><a xlink:href="namespacewmtk_1_1components.html#a7c75b44e67ee059f20849f2ea5e04e49" target="_top" xlink:title=" ">
<polygon fill="none" stroke="black" points="0,-232 0,-251 179,-251 179,-232 0,-232"/>
<text text-anchor="middle" x="89.5" y="-239" font-family="Helvetica,sans-Serif" font-size="10.00">wmtk::components::wildmeshing</text>
</a>
</g>
</g>
<!-- Node9&#45;&gt;Node10 -->
<g id="edge9" class="edge">
<title>Node9&#45;&gt;Node10</title>
<path fill="none" stroke="midnightblue" d="M216.95,-256.34C201.98,-254.59 186.48,-252.76 171.66,-251.03"/>
<polygon fill="midnightblue" stroke="midnightblue" points="216.86,-259.86 227.2,-257.55 217.68,-252.9 216.86,-259.86"/>
</g>
<!-- Node11&#45;&gt;Node10 -->
<g id="edge11" class="edge">
<title>Node11&#45;&gt;Node10</title>
<path fill="none" stroke="midnightblue" d="M217.16,-227.23C203.23,-228.8 188.82,-230.42 174.93,-231.99"/>
<polygon fill="midnightblue" stroke="midnightblue" points="217.66,-230.69 227.2,-226.1 216.87,-223.74 217.66,-230.69"/>
</g>
<!-- Node14 -->
<g id="node14" class="node">
<title>Node14</title>
<g id="a_node14"><a xlink:href="namespacewmtk_1_1components.html#a7cec0c38121ddd036af26c760311d0e8" target="_top" xlink:title=" ">
<polygon fill="none" stroke="black" points="229,-150.5 229,-180.5 380,-180.5 380,-150.5 229,-150.5"/>
<text text-anchor="start" x="237" y="-168.5" font-family="Helvetica,sans-Serif" font-size="10.00">wmtk::components::regular</text>
<text text-anchor="middle" x="304.5" y="-157.5" font-family="Helvetica,sans-Serif" font-size="10.00">_space</text>
</a>
</g>
</g>
<!-- Node13&#45;&gt;Node14 -->
<g id="edge14" class="edge">
<title>Node13&#45;&gt;Node14</title>
<path fill="none" stroke="midnightblue" d="M421.83,-163.84C407.91,-164.04 393.73,-164.24 380.28,-164.43"/>
<polygon fill="midnightblue" stroke="midnightblue" points="421.95,-167.34 431.9,-163.7 421.85,-160.34 421.95,-167.34"/>
</g>
<!-- Node15 -->
<g id="node15" class="node">
<title>Node15</title>
<g id="a_node15"><a xlink:href="test__component__regular__space_8cpp.html#a5e69783b3ce0c074477e3081ab8cf658" target="_top" xlink:title=" ">
<polygon fill="none" stroke="black" points="269,-112 269,-131 340,-131 340,-112 269,-112"/>
<text text-anchor="middle" x="304.5" y="-119" font-family="Helvetica,sans-Serif" font-size="10.00">TEST_CASE</text>
</a>
</g>
</g>
<!-- Node13&#45;&gt;Node15 -->
<g id="edge15" class="edge">
<title>Node13&#45;&gt;Node15</title>
<path fill="none" stroke="midnightblue" d="M428.77,-145.51C397.57,-139.43 364.19,-132.93 340.04,-128.23"/>
<polygon fill="midnightblue" stroke="midnightblue" points="428.33,-148.99 438.81,-147.47 429.67,-142.12 428.33,-148.99"/>
</g>
</g>
</svg>
