<?xml version="1.0" encoding="UTF-8" standalone="no"?>
<!DOCTYPE svg PUBLIC "-//W3C//DTD SVG 1.1//EN"
 "http://www.w3.org/Graphics/SVG/1.1/DTD/svg11.dtd">
<!-- Generated by graphviz version 2.43.0 (0)
 -->
<!-- Title: wmtk::multimesh::MultiMeshManager::map_to_parent Pages: 1 -->
<svg width="1799pt" height="582pt"
 viewBox="0.00 0.00 1799.00 582.00" xmlns="http://www.w3.org/2000/svg" xmlns:xlink="http://www.w3.org/1999/xlink">
<g id="graph0" class="graph" transform="scale(1 1) rotate(0) translate(4 578)">
<title>wmtk::multimesh::MultiMeshManager::map_to_parent</title>
<!-- Node1 -->
<g id="node1" class="node">
<title>Node1</title>
<g id="a_node1"><a xlink:title="optimized map from a simplex from this mesh to its direct parent">
<polygon fill="#bfbfbf" stroke="black" points="0,-49.5 0,-79.5 160,-79.5 160,-49.5 0,-49.5"/>
<text text-anchor="start" x="8" y="-67.5" font-family="Helvetica,sans-Serif" font-size="10.00">wmtk::multimesh::MultiMesh</text>
<text text-anchor="middle" x="80" y="-56.5" font-family="Helvetica,sans-Serif" font-size="10.00">Manager::map_to_parent</text>
</a>
</g>
</g>
<!-- Node2 -->
<g id="node2" class="node">
<title>Node2</title>
<g id="a_node2"><a xlink:href="classwmtk_1_1multimesh_1_1_multi_mesh_manager.html#af6fd8d8b5cc1e8b2c877718b99374f03" target="_top" xlink:title=" ">
<polygon fill="none" stroke="black" points="196,-308.5 196,-338.5 395,-338.5 395,-308.5 196,-308.5"/>
<text text-anchor="start" x="204" y="-326.5" font-family="Helvetica,sans-Serif" font-size="10.00">wmtk::multimesh::MultiMesh</text>
<text text-anchor="middle" x="295.5" y="-315.5" font-family="Helvetica,sans-Serif" font-size="10.00">Manager::map_tuple_to_parent_tuple</text>
</a>
</g>
</g>
<!-- Node1&#45;&gt;Node2 -->
<g id="edge1" class="edge">
<title>Node1&#45;&gt;Node2</title>
<path fill="none" stroke="midnightblue" d="M93.4,-79.54C129.15,-122.91 232.56,-248.36 275.48,-300.43"/>
<polygon fill="midnightblue" stroke="midnightblue" points="273,-302.92 282.06,-308.41 278.4,-298.47 273,-302.92"/>
</g>
<!-- Node25 -->
<g id="node25" class="node">
<title>Node25</title>
<g id="a_node25"><a xlink:href="classwmtk_1_1simplex_1_1_simplex.html#ad2cc0340a0772b7d6f03ba7a781d1163" target="_top" xlink:title=" ">
<polygon fill="none" stroke="black" points="917.5,-49.5 917.5,-79.5 1052.5,-79.5 1052.5,-49.5 917.5,-49.5"/>
<text text-anchor="start" x="925.5" y="-67.5" font-family="Helvetica,sans-Serif" font-size="10.00">wmtk::simplex::Simplex</text>
<text text-anchor="middle" x="985" y="-56.5" font-family="Helvetica,sans-Serif" font-size="10.00">::primitive_type</text>
</a>
</g>
</g>
<!-- Node1&#45;&gt;Node25 -->
<g id="edge35" class="edge">
<title>Node1&#45;&gt;Node25</title>
<path fill="none" stroke="midnightblue" d="M160.34,-64.5C332.31,-64.5 737.54,-64.5 907.19,-64.5"/>
<polygon fill="midnightblue" stroke="midnightblue" points="907.29,-68 917.29,-64.5 907.29,-61 907.29,-68"/>
</g>
<!-- Node27 -->
<g id="node27" class="node">
<title>Node27</title>
<g id="a_node27"><a xlink:href="classwmtk_1_1simplex_1_1_simplex.html#a3650fd31ff1864285502dba66db3c73c" target="_top" xlink:title=" ">
<polygon fill="none" stroke="black" points="917.5,-0.5 917.5,-30.5 1052.5,-30.5 1052.5,-0.5 917.5,-0.5"/>
<text text-anchor="start" x="925.5" y="-18.5" font-family="Helvetica,sans-Serif" font-size="10.00">wmtk::simplex::Simplex</text>
<text text-anchor="middle" x="985" y="-7.5" font-family="Helvetica,sans-Serif" font-size="10.00">::tuple</text>
</a>
</g>
</g>
<!-- Node1&#45;&gt;Node27 -->
<g id="edge36" class="edge">
<title>Node1&#45;&gt;Node27</title>
<path fill="none" stroke="midnightblue" d="M160.34,-60.19C332.31,-50.86 737.54,-28.87 907.19,-19.67"/>
<polygon fill="midnightblue" stroke="midnightblue" points="907.49,-23.16 917.29,-19.12 907.11,-16.17 907.49,-23.16"/>
</g>
<!-- Node3 -->
<g id="node3" class="node">
<title>Node3</title>
<g id="a_node3"><a xlink:href="classwmtk_1_1_mesh.html#a956cb71441391c99d736ec69c7467b61" target="_top" xlink:title=" ">
<polygon fill="none" stroke="black" points="1475,-494.5 1475,-524.5 1588,-524.5 1588,-494.5 1475,-494.5"/>
<text text-anchor="start" x="1483" y="-512.5" font-family="Helvetica,sans-Serif" font-size="10.00">wmtk::Mesh::create</text>
<text text-anchor="middle" x="1531.5" y="-501.5" font-family="Helvetica,sans-Serif" font-size="10.00">_const_accessor</text>
</a>
</g>
</g>
<!-- Node2&#45;&gt;Node3 -->
<g id="edge2" class="edge">
<title>Node2&#45;&gt;Node3</title>
<path fill="none" stroke="midnightblue" d="M312.62,-338.79C369.05,-390.62 564.8,-556.5 759,-556.5 759,-556.5 759,-556.5 1200,-556.5 1292.75,-556.5 1398.69,-538.13 1465.09,-524.36"/>
<polygon fill="midnightblue" stroke="midnightblue" points="1465.93,-527.76 1475,-522.28 1464.49,-520.91 1465.93,-527.76"/>
</g>
<!-- Node7 -->
<g id="node7" class="node">
<title>Node7</title>
<g id="a_node7"><a xlink:href="classwmtk_1_1multimesh_1_1_multi_mesh_manager.html#a7d39339adb56b1798fe817d81bfcc67c" target="_top" xlink:title="Specifies whether this structure is the root of a multi&#45;mesh tree.">
<polygon fill="none" stroke="black" points="455,-284.5 455,-314.5 615,-314.5 615,-284.5 455,-284.5"/>
<text text-anchor="start" x="463" y="-302.5" font-family="Helvetica,sans-Serif" font-size="10.00">wmtk::multimesh::MultiMesh</text>
<text text-anchor="middle" x="535" y="-291.5" font-family="Helvetica,sans-Serif" font-size="10.00">Manager::is_root</text>
</a>
</g>
</g>
<!-- Node2&#45;&gt;Node7 -->
<g id="edge6" class="edge">
<title>Node2&#45;&gt;Node7</title>
<path fill="none" stroke="midnightblue" d="M395.16,-313.53C411.62,-311.87 428.62,-310.15 444.83,-308.51"/>
<polygon fill="midnightblue" stroke="midnightblue" points="445.21,-311.99 454.81,-307.5 444.51,-305.03 445.21,-311.99"/>
</g>
<!-- Node8 -->
<g id="node8" class="node">
<title>Node8</title>
<g id="a_node8"><a xlink:href="classwmtk_1_1multimesh_1_1_multi_mesh_manager.html#a6f9186ced3e97aef2a0af71a3aa5c6a0" target="_top" xlink:title=" ">
<polygon fill="none" stroke="black" points="431,-333.5 431,-363.5 639,-363.5 639,-333.5 431,-333.5"/>
<text text-anchor="start" x="439" y="-351.5" font-family="Helvetica,sans-Serif" font-size="10.00">wmtk::multimesh::MultiMesh</text>
<text text-anchor="middle" x="535" y="-340.5" font-family="Helvetica,sans-Serif" font-size="10.00">Manager::map_tuple_between_meshes</text>
</a>
</g>
</g>
<!-- Node2&#45;&gt;Node8 -->
<g id="edge7" class="edge">
<title>Node2&#45;&gt;Node8</title>
<path fill="none" stroke="midnightblue" d="M395.16,-333.89C403.59,-334.77 412.15,-335.67 420.68,-336.57"/>
<polygon fill="midnightblue" stroke="midnightblue" points="420.35,-340.06 430.67,-337.62 421.09,-333.09 420.35,-340.06"/>
</g>
<!-- Node4 -->
<g id="node4" class="node">
<title>Node4</title>
<g id="a_node4"><a xlink:href="classwmtk_1_1attribute_1_1_mesh_attribute_handle.html#ac326961f01b9ba4fec395827f15a7ef2" target="_top" xlink:title=" ">
<polygon fill="none" stroke="black" points="1624,-543.5 1624,-573.5 1791,-573.5 1791,-543.5 1624,-543.5"/>
<text text-anchor="start" x="1632" y="-561.5" font-family="Helvetica,sans-Serif" font-size="10.00">wmtk::attribute::MeshAttribute</text>
<text text-anchor="middle" x="1707.5" y="-550.5" font-family="Helvetica,sans-Serif" font-size="10.00">Handle::as</text>
</a>
</g>
</g>
<!-- Node3&#45;&gt;Node4 -->
<g id="edge3" class="edge">
<title>Node3&#45;&gt;Node4</title>
<path fill="none" stroke="midnightblue" d="M1586.13,-524.6C1604.24,-529.7 1624.62,-535.44 1643.4,-540.73"/>
<polygon fill="midnightblue" stroke="midnightblue" points="1642.48,-544.11 1653.05,-543.45 1644.37,-537.37 1642.48,-544.11"/>
</g>
<!-- Node5 -->
<g id="node5" class="node">
<title>Node5</title>
<g id="a_node5"><a xlink:href="classwmtk_1_1attribute_1_1_mesh_attribute_handle.html#a2b86caeb22b007b85b138ebc6b0ed837" target="_top" xlink:title=" ">
<polygon fill="none" stroke="black" points="1624,-494.5 1624,-524.5 1791,-524.5 1791,-494.5 1624,-494.5"/>
<text text-anchor="start" x="1632" y="-512.5" font-family="Helvetica,sans-Serif" font-size="10.00">wmtk::attribute::MeshAttribute</text>
<text text-anchor="middle" x="1707.5" y="-501.5" font-family="Helvetica,sans-Serif" font-size="10.00">Handle::holds</text>
</a>
</g>
</g>
<!-- Node3&#45;&gt;Node5 -->
<g id="edge4" class="edge">
<title>Node3&#45;&gt;Node5</title>
<path fill="none" stroke="midnightblue" d="M1588.03,-509.5C1596.25,-509.5 1604.91,-509.5 1613.64,-509.5"/>
<polygon fill="midnightblue" stroke="midnightblue" points="1613.91,-513 1623.91,-509.5 1613.91,-506 1613.91,-513"/>
</g>
<!-- Node6 -->
<g id="node6" class="node">
<title>Node6</title>
<g id="a_node6"><a xlink:href="classwmtk_1_1attribute_1_1_mesh_attribute_handle.html#a620620d54776b2c5f4f9cebad465cfa7" target="_top" xlink:title=" ">
<polygon fill="none" stroke="black" points="1624,-445.5 1624,-475.5 1791,-475.5 1791,-445.5 1624,-445.5"/>
<text text-anchor="start" x="1632" y="-463.5" font-family="Helvetica,sans-Serif" font-size="10.00">wmtk::attribute::MeshAttribute</text>
<text text-anchor="middle" x="1707.5" y="-452.5" font-family="Helvetica,sans-Serif" font-size="10.00">Handle::mesh</text>
</a>
</g>
</g>
<!-- Node3&#45;&gt;Node6 -->
<g id="edge5" class="edge">
<title>Node3&#45;&gt;Node6</title>
<path fill="none" stroke="midnightblue" d="M1586.13,-494.4C1604.24,-489.3 1624.62,-483.56 1643.4,-478.27"/>
<polygon fill="midnightblue" stroke="midnightblue" points="1644.37,-481.63 1653.05,-475.55 1642.48,-474.89 1644.37,-481.63"/>
</g>
<!-- Node9 -->
<g id="node9" class="node">
<title>Node9</title>
<g id="a_node9"><a xlink:href="classwmtk_1_1_mesh.html#abbb1c54cfd6ec17f4730317ee5fab78d" target="_top" xlink:title=" ">
<polygon fill="none" stroke="black" points="1125,-361 1125,-380 1273,-380 1273,-361 1125,-361"/>
<text text-anchor="middle" x="1199" y="-368" font-family="Helvetica,sans-Serif" font-size="10.00">wmtk::Mesh::is_valid_slow</text>
</a>
</g>
</g>
<!-- Node8&#45;&gt;Node9 -->
<g id="edge8" class="edge">
<title>Node8&#45;&gt;Node9</title>
<path fill="none" stroke="midnightblue" d="M639.07,-351.93C770.08,-356.28 993.69,-363.71 1114.55,-367.73"/>
<polygon fill="midnightblue" stroke="midnightblue" points="1114.74,-371.24 1124.86,-368.07 1114.98,-364.24 1114.74,-371.24"/>
</g>
<!-- Node12 -->
<g id="node12" class="node">
<title>Node12</title>
<g id="a_node12"><a xlink:href="namespacewmtk_1_1multimesh_1_1utils.html#a7d748ef4839b09a5460e8af97b9fa678" target="_top" xlink:title=" ">
<polygon fill="none" stroke="black" points="685.5,-311.5 685.5,-341.5 834.5,-341.5 834.5,-311.5 685.5,-311.5"/>
<text text-anchor="start" x="693.5" y="-329.5" font-family="Helvetica,sans-Serif" font-size="10.00">wmtk::multimesh::utils</text>
<text text-anchor="middle" x="760" y="-318.5" font-family="Helvetica,sans-Serif" font-size="10.00">::read_tuple_map_attribute</text>
</a>
</g>
</g>
<!-- Node8&#45;&gt;Node12 -->
<g id="edge12" class="edge">
<title>Node8&#45;&gt;Node12</title>
<path fill="none" stroke="midnightblue" d="M639.01,-338.34C651.11,-337.14 663.33,-335.94 675.12,-334.78"/>
<polygon fill="midnightblue" stroke="midnightblue" points="675.74,-338.23 685.35,-333.77 675.05,-331.26 675.74,-338.23"/>
</g>
<!-- Node18 -->
<g id="node18" class="node">
<title>Node18</title>
<g id="a_node18"><a xlink:href="classwmtk_1_1_mesh.html#a965a8a24158c4aa8580c57ba09f885f7" target="_top" xlink:title="switch the orientation of the Tuple of the given dimension">
<polygon fill="none" stroke="black" points="703,-112.5 703,-142.5 817,-142.5 817,-112.5 703,-112.5"/>
<text text-anchor="start" x="711" y="-130.5" font-family="Helvetica,sans-Serif" font-size="10.00">wmtk::Mesh::switch</text>
<text text-anchor="middle" x="760" y="-119.5" font-family="Helvetica,sans-Serif" font-size="10.00">_tuple</text>
</a>
</g>
</g>
<!-- Node8&#45;&gt;Node18 -->
<g id="edge18" class="edge">
<title>Node8&#45;&gt;Node18</title>
<path fill="none" stroke="midnightblue" d="M626.58,-333.43C631.09,-330.62 635.29,-327.33 639,-323.5 693.34,-267.4 621.8,-208.68 675,-151.5 680.11,-146 686.39,-141.74 693.19,-138.43"/>
<polygon fill="midnightblue" stroke="midnightblue" points="694.82,-141.54 702.72,-134.48 692.15,-135.07 694.82,-141.54"/>
</g>
<!-- Node19 -->
<g id="node19" class="node">
<title>Node19</title>
<g id="a_node19"><a xlink:href="namespacewmtk_1_1simplex.html#ac133ab11355bb4cda7e8b1e3ed48226f" target="_top" xlink:title=" ">
<polygon fill="none" stroke="black" points="684.5,-161.5 684.5,-191.5 835.5,-191.5 835.5,-161.5 684.5,-161.5"/>
<text text-anchor="start" x="692.5" y="-179.5" font-family="Helvetica,sans-Serif" font-size="10.00">wmtk::simplex::top</text>
<text text-anchor="middle" x="760" y="-168.5" font-family="Helvetica,sans-Serif" font-size="10.00">_dimension_cofaces_tuples</text>
</a>
</g>
</g>
<!-- Node8&#45;&gt;Node19 -->
<g id="edge19" class="edge">
<title>Node8&#45;&gt;Node19</title>
<path fill="none" stroke="midnightblue" d="M619.2,-333.41C626.15,-330.65 632.85,-327.37 639,-323.5 688.47,-292.34 727.02,-233.73 746.02,-200.71"/>
<polygon fill="midnightblue" stroke="midnightblue" points="749.22,-202.16 751.07,-191.73 743.12,-198.73 749.22,-202.16"/>
</g>
<!-- Node28 -->
<g id="node28" class="node">
<title>Node28</title>
<g id="a_node28"><a xlink:href="classwmtk_1_1_mesh.html#abaf00438d0700358b160e310d69725c9" target="_top" xlink:title=" ">
<polygon fill="none" stroke="black" points="675,-476 675,-495 845,-495 845,-476 675,-476"/>
<text text-anchor="middle" x="760" y="-483" font-family="Helvetica,sans-Serif" font-size="10.00">wmtk::Mesh::top_simplex_type</text>
</a>
</g>
</g>
<!-- Node8&#45;&gt;Node28 -->
<g id="edge30" class="edge">
<title>Node8&#45;&gt;Node28</title>
<path fill="none" stroke="midnightblue" d="M557.81,-363.54C584.89,-382.05 632.7,-414.13 675,-439.5 693.47,-450.58 714.77,-462.23 731.29,-471.03"/>
<polygon fill="midnightblue" stroke="midnightblue" points="729.94,-474.28 740.41,-475.86 733.21,-468.09 729.94,-474.28"/>
</g>
<!-- Node30 -->
<g id="node30" class="node">
<title>Node30</title>
<g id="a_node30"><a xlink:href="namespacewmtk_1_1multimesh_1_1utils.html#aa0392bf28bb6c304127cf0eea634fee8" target="_top" xlink:title=" ">
<polygon fill="none" stroke="black" points="695,-399.5 695,-429.5 825,-429.5 825,-399.5 695,-399.5"/>
<text text-anchor="start" x="703" y="-417.5" font-family="Helvetica,sans-Serif" font-size="10.00">wmtk::multimesh::utils</text>
<text text-anchor="middle" x="760" y="-406.5" font-family="Helvetica,sans-Serif" font-size="10.00">::transport_tuple</text>
</a>
</g>
</g>
<!-- Node8&#45;&gt;Node30 -->
<g id="edge32" class="edge">
<title>Node8&#45;&gt;Node30</title>
<path fill="none" stroke="midnightblue" d="M586.88,-363.56C620.02,-373.37 663.41,-386.21 698.34,-396.55"/>
<polygon fill="midnightblue" stroke="midnightblue" points="697.37,-399.91 707.95,-399.39 699.36,-393.2 697.37,-399.91"/>
</g>
<!-- Node10 -->
<g id="node10" class="node">
<title>Node10</title>
<g id="a_node10"><a xlink:href="classwmtk_1_1_mesh.html#adf199d6a3ce6badd8bfa0e2ab3a1c1aa" target="_top" xlink:title=" ">
<polygon fill="none" stroke="black" points="1309,-448.5 1309,-478.5 1439,-478.5 1439,-448.5 1309,-448.5"/>
<text text-anchor="start" x="1317" y="-466.5" font-family="Helvetica,sans-Serif" font-size="10.00">wmtk::Mesh::get_const</text>
<text text-anchor="middle" x="1374" y="-455.5" font-family="Helvetica,sans-Serif" font-size="10.00">_cell_hash_accessor</text>
</a>
</g>
</g>
<!-- Node9&#45;&gt;Node10 -->
<g id="edge9" class="edge">
<title>Node9&#45;&gt;Node10</title>
<path fill="none" stroke="midnightblue" d="M1217.86,-380.1C1245.64,-395.03 1299.77,-424.13 1336.16,-443.69"/>
<polygon fill="midnightblue" stroke="midnightblue" points="1334.54,-446.8 1345,-448.45 1337.85,-440.63 1334.54,-446.8"/>
</g>
<!-- Node11 -->
<g id="node11" class="node">
<title>Node11</title>
<g id="a_node11"><a xlink:href="classwmtk_1_1_mesh.html#a918c509096fc08691924c05c6143b9c3" target="_top" xlink:title="check validity of tuple including its hash">
<polygon fill="none" stroke="black" points="1314,-361 1314,-380 1434,-380 1434,-361 1314,-361"/>
<text text-anchor="middle" x="1374" y="-368" font-family="Helvetica,sans-Serif" font-size="10.00">wmtk::Mesh::is_valid</text>
</a>
</g>
</g>
<!-- Node9&#45;&gt;Node11 -->
<g id="edge11" class="edge">
<title>Node9&#45;&gt;Node11</title>
<path fill="none" stroke="midnightblue" d="M1273.12,-370.5C1283.18,-370.5 1293.49,-370.5 1303.48,-370.5"/>
<polygon fill="midnightblue" stroke="midnightblue" points="1303.76,-374 1313.76,-370.5 1303.76,-367 1303.76,-374"/>
</g>
<!-- Node10&#45;&gt;Node3 -->
<g id="edge10" class="edge">
<title>Node10&#45;&gt;Node3</title>
<path fill="none" stroke="midnightblue" d="M1425.92,-478.56C1439.95,-482.71 1455.31,-487.26 1469.84,-491.56"/>
<polygon fill="midnightblue" stroke="midnightblue" points="1469.15,-495 1479.73,-494.48 1471.14,-488.29 1469.15,-495"/>
</g>
<!-- Node13 -->
<g id="node13" class="node">
<title>Node13</title>
<g id="a_node13"><a xlink:href="classwmtk_1_1attribute_1_1_accessor.html#a02b9afd258380cfdafdac411b30d48af" target="_top" xlink:title=" ">
<polygon fill="none" stroke="black" points="1128,-292.5 1128,-322.5 1270,-322.5 1270,-292.5 1128,-292.5"/>
<text text-anchor="start" x="1136" y="-310.5" font-family="Helvetica,sans-Serif" font-size="10.00">wmtk::attribute::Accessor</text>
<text text-anchor="middle" x="1199" y="-299.5" font-family="Helvetica,sans-Serif" font-size="10.00">::const_vector_attribute</text>
</a>
</g>
</g>
<!-- Node12&#45;&gt;Node13 -->
<g id="edge13" class="edge">
<title>Node12&#45;&gt;Node13</title>
<path fill="none" stroke="midnightblue" d="M834.6,-323.43C901.08,-320.63 1001.6,-316.37 1089,-312.5 1098.34,-312.09 1108.13,-311.65 1117.85,-311.21"/>
<polygon fill="midnightblue" stroke="midnightblue" points="1118.1,-314.7 1127.93,-310.75 1117.78,-307.71 1118.1,-314.7"/>
</g>
<!-- Node14 -->
<g id="node14" class="node">
<title>Node14</title>
<g id="a_node14"><a xlink:href="namespacewmtk_1_1multimesh_1_1utils.html#a7382ca1de4356752b14e745f23b6892d" target="_top" xlink:title=" ">
<polygon fill="none" stroke="black" points="920,-224.5 920,-254.5 1050,-254.5 1050,-224.5 920,-224.5"/>
<text text-anchor="start" x="928" y="-242.5" font-family="Helvetica,sans-Serif" font-size="10.00">wmtk::multimesh::utils</text>
<text text-anchor="middle" x="985" y="-231.5" font-family="Helvetica,sans-Serif" font-size="10.00">::vectors_to_tuples</text>
</a>
</g>
</g>
<!-- Node12&#45;&gt;Node14 -->
<g id="edge14" class="edge">
<title>Node12&#45;&gt;Node14</title>
<path fill="none" stroke="midnightblue" d="M785.42,-311.3C809.09,-297.16 846.38,-276.38 881,-263.5 890.23,-260.07 900.11,-257.02 909.97,-254.35"/>
<polygon fill="midnightblue" stroke="midnightblue" points="910.99,-257.7 919.79,-251.8 909.23,-250.92 910.99,-257.7"/>
</g>
<!-- Node15 -->
<g id="node15" class="node">
<title>Node15</title>
<g id="a_node15"><a xlink:href="namespacewmtk_1_1multimesh_1_1utils.html#afcaf5933957666eacc341add3d727960" target="_top" xlink:title=" ">
<polygon fill="none" stroke="black" points="1134,-129.5 1134,-159.5 1264,-159.5 1264,-129.5 1134,-129.5"/>
<text text-anchor="start" x="1142" y="-147.5" font-family="Helvetica,sans-Serif" font-size="10.00">wmtk::multimesh::utils</text>
<text text-anchor="middle" x="1199" y="-136.5" font-family="Helvetica,sans-Serif" font-size="10.00">::vector_to_tuple</text>
</a>
</g>
</g>
<!-- Node14&#45;&gt;Node15 -->
<g id="edge15" class="edge">
<title>Node14&#45;&gt;Node15</title>
<path fill="none" stroke="midnightblue" d="M1050.2,-230.8C1063.7,-227.13 1077.36,-221.91 1089,-214.5 1110.6,-200.74 1104.05,-184.24 1125,-169.5 1127.82,-167.51 1130.82,-165.67 1133.93,-163.97"/>
<polygon fill="midnightblue" stroke="midnightblue" points="1135.5,-167.1 1142.91,-159.53 1132.39,-160.82 1135.5,-167.1"/>
</g>
<!-- Node16 -->
<g id="node16" class="node">
<title>Node16</title>
<g id="a_node16"><a xlink:href="namespacewmtk_1_1multimesh_1_1utils.html#a335acc709f47df9fe96f4c2ed2e10585" target="_top" xlink:title=" ">
<polygon fill="none" stroke="black" points="1309,-80.5 1309,-110.5 1439,-110.5 1439,-80.5 1309,-80.5"/>
<text text-anchor="start" x="1317" y="-98.5" font-family="Helvetica,sans-Serif" font-size="10.00">wmtk::multimesh::utils</text>
<text text-anchor="middle" x="1374" y="-87.5" font-family="Helvetica,sans-Serif" font-size="10.00">::vector2_to_tuple</text>
</a>
</g>
</g>
<!-- Node15&#45;&gt;Node16 -->
<g id="edge16" class="edge">
<title>Node15&#45;&gt;Node16</title>
<path fill="none" stroke="midnightblue" d="M1253.32,-129.4C1271.24,-124.32 1291.41,-118.61 1310.01,-113.34"/>
<polygon fill="midnightblue" stroke="midnightblue" points="1311.19,-116.64 1319.86,-110.55 1309.28,-109.91 1311.19,-116.64"/>
</g>
<!-- Node17 -->
<g id="node17" class="node">
<title>Node17</title>
<g id="a_node17"><a xlink:href="namespacewmtk_1_1multimesh_1_1utils.html#a2645b98b3068060a73df0c8cc16b6a3d" target="_top" xlink:title=" ">
<polygon fill="none" stroke="black" points="1309,-129.5 1309,-159.5 1439,-159.5 1439,-129.5 1309,-129.5"/>
<text text-anchor="start" x="1317" y="-147.5" font-family="Helvetica,sans-Serif" font-size="10.00">wmtk::multimesh::utils</text>
<text text-anchor="middle" x="1374" y="-136.5" font-family="Helvetica,sans-Serif" font-size="10.00">::vector5_to_tuple</text>
</a>
</g>
</g>
<!-- Node15&#45;&gt;Node17 -->
<g id="edge17" class="edge">
<title>Node15&#45;&gt;Node17</title>
<path fill="none" stroke="midnightblue" d="M1264.42,-144.5C1275.53,-144.5 1287.15,-144.5 1298.5,-144.5"/>
<polygon fill="midnightblue" stroke="midnightblue" points="1298.82,-148 1308.82,-144.5 1298.82,-141 1298.82,-148"/>
</g>
<!-- Node20 -->
<g id="node20" class="node">
<title>Node20</title>
<g id="a_node20"><a xlink:href="classwmtk_1_1simplex_1_1_simplex_collection.html#a1e7079b3b75f70dd28c524556cab76cf" target="_top" xlink:title="Add simplex to the collection.">
<polygon fill="none" stroke="black" points="881,-148 881,-167 1089,-167 1089,-148 881,-148"/>
<text text-anchor="middle" x="985" y="-155" font-family="Helvetica,sans-Serif" font-size="10.00">wmtk::simplex::SimplexCollection::add</text>
</a>
</g>
</g>
<!-- Node19&#45;&gt;Node20 -->
<g id="edge20" class="edge">
<title>Node19&#45;&gt;Node20</title>
<path fill="none" stroke="midnightblue" d="M835.57,-170.15C846.94,-169.18 858.9,-168.16 870.87,-167.14"/>
<polygon fill="midnightblue" stroke="midnightblue" points="871.26,-170.62 880.93,-166.28 870.67,-163.64 871.26,-170.62"/>
</g>
<!-- Node21 -->
<g id="node21" class="node">
<title>Node21</title>
<g id="a_node21"><a xlink:href="classwmtk_1_1_edge_mesh.html#a534952cf2729f1509a380e3e9afb65b7" target="_top" xlink:title=" ">
<polygon fill="none" stroke="black" points="927.5,-273.5 927.5,-303.5 1042.5,-303.5 1042.5,-273.5 927.5,-273.5"/>
<text text-anchor="start" x="935.5" y="-291.5" font-family="Helvetica,sans-Serif" font-size="10.00">wmtk::EdgeMesh::is</text>
<text text-anchor="middle" x="985" y="-280.5" font-family="Helvetica,sans-Serif" font-size="10.00">_boundary_vertex</text>
</a>
</g>
</g>
<!-- Node19&#45;&gt;Node21 -->
<g id="edge21" class="edge">
<title>Node19&#45;&gt;Node21</title>
<path fill="none" stroke="midnightblue" d="M777.54,-191.78C799.52,-211.28 840.35,-244.72 881,-263.5 892.4,-268.77 905.05,-273 917.46,-276.38"/>
<polygon fill="midnightblue" stroke="midnightblue" points="916.78,-279.82 927.34,-278.91 918.52,-273.04 916.78,-279.82"/>
</g>
<!-- Node22 -->
<g id="node22" class="node">
<title>Node22</title>
<g id="a_node22"><a xlink:href="namespacewmtk.html#a441d6ad4f19569c7d4946e743da1a925" target="_top" xlink:title=" ">
<polygon fill="none" stroke="black" points="924,-98.5 924,-128.5 1046,-128.5 1046,-98.5 924,-98.5"/>
<text text-anchor="start" x="932" y="-116.5" font-family="Helvetica,sans-Serif" font-size="10.00">wmtk::log_and_throw</text>
<text text-anchor="middle" x="985" y="-105.5" font-family="Helvetica,sans-Serif" font-size="10.00">_error</text>
</a>
</g>
</g>
<!-- Node19&#45;&gt;Node22 -->
<g id="edge24" class="edge">
<title>Node19&#45;&gt;Node22</title>
<path fill="none" stroke="midnightblue" d="M813.12,-161.49C823.71,-158.3 834.74,-154.88 845,-151.5 861.16,-146.18 864.71,-143.4 881,-138.5 891.52,-135.33 902.74,-132.28 913.76,-129.47"/>
<polygon fill="midnightblue" stroke="midnightblue" points="914.94,-132.78 923.79,-126.95 913.24,-125.99 914.94,-132.78"/>
</g>
<!-- Node19&#45;&gt;Node25 -->
<g id="edge27" class="edge">
<title>Node19&#45;&gt;Node25</title>
<path fill="none" stroke="midnightblue" d="M828.88,-161.42C834.64,-158.65 840.11,-155.38 845,-151.5 870.27,-131.46 855.14,-107.77 881,-88.5 888.95,-82.58 898.13,-78.08 907.67,-74.68"/>
<polygon fill="midnightblue" stroke="midnightblue" points="908.81,-77.99 917.29,-71.63 906.7,-71.32 908.81,-77.99"/>
</g>
<!-- Node26 -->
<g id="node26" class="node">
<title>Node26</title>
<g id="a_node26"><a xlink:href="classwmtk_1_1_edge_mesh.html#a04f6595fe85e52dc6bf1e02512120100" target="_top" xlink:title=" ">
<polygon fill="none" stroke="black" points="901.5,-186 901.5,-205 1068.5,-205 1068.5,-186 901.5,-186"/>
<text text-anchor="middle" x="985" y="-193" font-family="Helvetica,sans-Serif" font-size="10.00">wmtk::EdgeMesh::switch_edge</text>
</a>
</g>
</g>
<!-- Node19&#45;&gt;Node26 -->
<g id="edge28" class="edge">
<title>Node19&#45;&gt;Node26</title>
<path fill="none" stroke="midnightblue" d="M835.57,-182.85C853.41,-184.37 872.67,-186.01 891.22,-187.6"/>
<polygon fill="midnightblue" stroke="midnightblue" points="891.18,-191.1 901.44,-188.47 891.77,-184.13 891.18,-191.1"/>
</g>
<!-- Node19&#45;&gt;Node27 -->
<g id="edge29" class="edge">
<title>Node19&#45;&gt;Node27</title>
<path fill="none" stroke="midnightblue" d="M831.81,-161.33C836.61,-158.58 841.08,-155.33 845,-151.5 882.37,-114.93 842.54,-74.92 881,-39.5 888.62,-32.48 897.9,-27.38 907.72,-23.71"/>
<polygon fill="midnightblue" stroke="midnightblue" points="908.83,-27.03 917.26,-20.61 906.67,-20.37 908.83,-27.03"/>
</g>
<!-- Node21&#45;&gt;Node9 -->
<g id="edge23" class="edge">
<title>Node21&#45;&gt;Node9</title>
<path fill="none" stroke="midnightblue" d="M1024.88,-303.54C1064.61,-318.9 1125.69,-342.53 1163.67,-357.22"/>
<polygon fill="midnightblue" stroke="midnightblue" points="1162.68,-360.59 1173.27,-360.94 1165.21,-354.06 1162.68,-360.59"/>
</g>
<!-- Node21&#45;&gt;Node13 -->
<g id="edge22" class="edge">
<title>Node21&#45;&gt;Node13</title>
<path fill="none" stroke="midnightblue" d="M1042.53,-293.57C1065.6,-295.63 1092.7,-298.06 1117.76,-300.31"/>
<polygon fill="midnightblue" stroke="midnightblue" points="1117.71,-303.82 1127.99,-301.23 1118.34,-296.85 1117.71,-303.82"/>
</g>
<!-- Node23 -->
<g id="node23" class="node">
<title>Node23</title>
<g id="a_node23"><a xlink:href="namespacewmtk.html#a6a35f11c12436093d26fdd8be6fecc06" target="_top" xlink:title="Retrieves the current logger.">
<polygon fill="none" stroke="black" points="1158.5,-179 1158.5,-198 1239.5,-198 1239.5,-179 1158.5,-179"/>
<text text-anchor="middle" x="1199" y="-186" font-family="Helvetica,sans-Serif" font-size="10.00">wmtk::logger</text>
</a>
</g>
</g>
<!-- Node22&#45;&gt;Node23 -->
<g id="edge25" class="edge">
<title>Node22&#45;&gt;Node23</title>
<path fill="none" stroke="midnightblue" d="M1046.2,-123.25C1060.67,-126.89 1075.77,-131.84 1089,-138.5 1107.6,-147.87 1106.54,-158.86 1125,-168.5 1132.29,-172.3 1140.37,-175.44 1148.43,-178.02"/>
<polygon fill="midnightblue" stroke="midnightblue" points="1147.61,-181.42 1158.19,-180.88 1149.58,-174.71 1147.61,-181.42"/>
</g>
<!-- Node24 -->
<g id="node24" class="node">
<title>Node24</title>
<g id="a_node24"><a xlink:href="namespacewmtk.html#a3daa7951a5f8b78cf4600dc047fcc180" target="_top" xlink:title="Setup a logger object to be used by WildmeshToolkit.">
<polygon fill="none" stroke="black" points="1323.5,-179 1323.5,-198 1424.5,-198 1424.5,-179 1323.5,-179"/>
<text text-anchor="middle" x="1374" y="-186" font-family="Helvetica,sans-Serif" font-size="10.00">wmtk::set_logger</text>
</a>
</g>
</g>
<!-- Node23&#45;&gt;Node24 -->
<g id="edge26" class="edge">
<title>Node23&#45;&gt;Node24</title>
<path fill="none" stroke="midnightblue" d="M1239.69,-188.5C1261.42,-188.5 1288.8,-188.5 1313.08,-188.5"/>
<polygon fill="midnightblue" stroke="midnightblue" points="1313.27,-192 1323.27,-188.5 1313.27,-185 1313.27,-192"/>
</g>
<!-- Node29 -->
<g id="node29" class="node">
<title>Node29</title>
<g id="a_node29"><a xlink:href="classwmtk_1_1_mesh.html#a933f681cf24a63b155c9462280385200" target="_top" xlink:title=" ">
<polygon fill="none" stroke="black" points="924.5,-497.5 924.5,-527.5 1045.5,-527.5 1045.5,-497.5 924.5,-497.5"/>
<text text-anchor="start" x="932.5" y="-515.5" font-family="Helvetica,sans-Serif" font-size="10.00">wmtk::Mesh::top_cell</text>
<text text-anchor="middle" x="985" y="-504.5" font-family="Helvetica,sans-Serif" font-size="10.00">_dimension</text>
</a>
</g>
</g>
<!-- Node28&#45;&gt;Node29 -->
<g id="edge31" class="edge">
<title>Node28&#45;&gt;Node29</title>
<path fill="none" stroke="midnightblue" d="M839.62,-495.02C863.98,-497.97 890.64,-501.2 914.34,-504.07"/>
<polygon fill="midnightblue" stroke="midnightblue" points="913.96,-507.55 924.31,-505.27 914.8,-500.6 913.96,-507.55"/>
</g>
<!-- Node31 -->
<g id="node31" class="node">
<title>Node31</title>
<g id="a_node31"><a xlink:href="namespacewmtk_1_1multimesh_1_1utils.html#a99cdf56ec6abe68409d30e0b67f4ce82" target="_top" xlink:title=" ">
<polygon fill="none" stroke="black" points="906,-448.5 906,-478.5 1064,-478.5 1064,-448.5 906,-448.5"/>
<text text-anchor="start" x="914" y="-466.5" font-family="Helvetica,sans-Serif" font-size="10.00">wmtk::multimesh::utils</text>
<text text-anchor="middle" x="985" y="-455.5" font-family="Helvetica,sans-Serif" font-size="10.00">::find_local_switch_sequence</text>
</a>
</g>
</g>
<!-- Node30&#45;&gt;Node31 -->
<g id="edge33" class="edge">
<title>Node30&#45;&gt;Node31</title>
<path fill="none" stroke="midnightblue" d="M825.2,-428.61C850.3,-434.12 879.33,-440.5 905.64,-446.28"/>
<polygon fill="midnightblue" stroke="midnightblue" points="905.07,-449.74 915.58,-448.47 906.57,-442.9 905.07,-449.74"/>
</g>
<!-- Node32 -->
<g id="node32" class="node">
<title>Node32</title>
<g id="a_node32"><a xlink:href="namespacewmtk_1_1multimesh_1_1utils.html#af71d6d20a76616d671ae5f53350107b4" target="_top" xlink:title=" ">
<polygon fill="none" stroke="black" points="920,-399.5 920,-429.5 1050,-429.5 1050,-399.5 920,-399.5"/>
<text text-anchor="start" x="928" y="-417.5" font-family="Helvetica,sans-Serif" font-size="10.00">wmtk::multimesh::utils</text>
<text text-anchor="middle" x="985" y="-406.5" font-family="Helvetica,sans-Serif" font-size="10.00">::local_switch_tuples</text>
</a>
</g>
</g>
<!-- Node30&#45;&gt;Node32 -->
<g id="edge34" class="edge">
<title>Node30&#45;&gt;Node32</title>
<path fill="none" stroke="midnightblue" d="M825.2,-414.5C851.56,-414.5 882.24,-414.5 909.57,-414.5"/>
<polygon fill="midnightblue" stroke="midnightblue" points="909.87,-418 919.87,-414.5 909.87,-411 909.87,-418"/>
</g>
</g>
</svg>
