<?xml version="1.0" encoding="UTF-8" standalone="no"?>
<!DOCTYPE svg PUBLIC "-//W3C//DTD SVG 1.1//EN"
 "http://www.w3.org/Graphics/SVG/1.1/DTD/svg11.dtd">
<!-- Generated by graphviz version 2.43.0 (0)
 -->
<!-- Title: wmtk::multimesh::MultiMeshManager::map_tuple_to_parent_tuple Pages: 1 -->
<svg width="1642pt" height="810pt"
 viewBox="0.00 0.00 1642.00 810.00" xmlns="http://www.w3.org/2000/svg" xmlns:xlink="http://www.w3.org/1999/xlink">
<g id="graph0" class="graph" transform="scale(1 1) rotate(0) translate(4 806)">
<title>wmtk::multimesh::MultiMeshManager::map_tuple_to_parent_tuple</title>
<!-- Node1 -->
<g id="node1" class="node">
<title>Node1</title>
<g id="a_node1"><a xlink:title=" ">
<polygon fill="#bfbfbf" stroke="black" points="1435,-520 1435,-550 1634,-550 1634,-520 1435,-520"/>
<text text-anchor="start" x="1443" y="-538" font-family="Helvetica,sans-Serif" font-size="10.00">wmtk::multimesh::MultiMesh</text>
<text text-anchor="middle" x="1534.5" y="-527" font-family="Helvetica,sans-Serif" font-size="10.00">Manager::map_tuple_to_parent_tuple</text>
</a>
</g>
</g>
<!-- Node2 -->
<g id="node2" class="node">
<title>Node2</title>
<g id="a_node2"><a xlink:href="classwmtk_1_1multimesh_1_1_multi_mesh_manager.html#ac94a293fd16e73ca52793906e308b885" target="_top" xlink:title="optimized map from a simplex from this mesh to its direct parent">
<polygon fill="none" stroke="black" points="1225.5,-616 1225.5,-646 1385.5,-646 1385.5,-616 1225.5,-616"/>
<text text-anchor="start" x="1233.5" y="-634" font-family="Helvetica,sans-Serif" font-size="10.00">wmtk::multimesh::MultiMesh</text>
<text text-anchor="middle" x="1305.5" y="-623" font-family="Helvetica,sans-Serif" font-size="10.00">Manager::map_to_parent</text>
</a>
</g>
</g>
<!-- Node1&#45;&gt;Node2 -->
<g id="edge1" class="edge">
<title>Node1&#45;&gt;Node2</title>
<path fill="none" stroke="midnightblue" d="M1488.4,-554.07C1445.4,-572.26 1381.51,-599.28 1342.01,-615.98"/>
<polygon fill="midnightblue" stroke="midnightblue" points="1489.93,-557.22 1497.78,-550.11 1487.21,-550.78 1489.93,-557.22"/>
</g>
<!-- Node12 -->
<g id="node11" class="node">
<title>Node12</title>
<g id="a_node11"><a xlink:href="classwmtk_1_1multimesh_1_1_multi_mesh_manager.html#aceafdf106da35c6b5ba26539a8d47aac" target="_top" xlink:title="optimized map from a simplex from this mesh to its direct parent">
<polygon fill="none" stroke="black" points="1221,-545 1221,-575 1390,-575 1390,-545 1221,-545"/>
<text text-anchor="start" x="1229" y="-563" font-family="Helvetica,sans-Serif" font-size="10.00">wmtk::multimesh::MultiMesh</text>
<text text-anchor="middle" x="1305.5" y="-552" font-family="Helvetica,sans-Serif" font-size="10.00">Manager::map_to_parent_tuple</text>
</a>
</g>
</g>
<!-- Node1&#45;&gt;Node12 -->
<g id="edge11" class="edge">
<title>Node1&#45;&gt;Node12</title>
<path fill="none" stroke="midnightblue" d="M1424.72,-546.98C1413.07,-548.26 1401.35,-549.55 1390.06,-550.8"/>
<polygon fill="midnightblue" stroke="midnightblue" points="1425.37,-550.43 1434.92,-545.86 1424.6,-543.47 1425.37,-550.43"/>
</g>
<!-- Node14 -->
<g id="node13" class="node">
<title>Node14</title>
<g id="a_node13"><a xlink:href="classwmtk_1_1multimesh_1_1_multi_mesh_manager.html#abbd5b4aab00a9ebb113bc6fe5bb635bd" target="_top" xlink:title=" ">
<polygon fill="none" stroke="black" points="1212,-496 1212,-526 1399,-526 1399,-496 1212,-496"/>
<text text-anchor="start" x="1220" y="-514" font-family="Helvetica,sans-Serif" font-size="10.00">wmtk::multimesh::MultiMesh</text>
<text text-anchor="middle" x="1305.5" y="-503" font-family="Helvetica,sans-Serif" font-size="10.00">Manager::map_tuple_to_root_tuple</text>
</a>
</g>
</g>
<!-- Node1&#45;&gt;Node14 -->
<g id="edge13" class="edge">
<title>Node1&#45;&gt;Node14</title>
<path fill="none" stroke="midnightblue" d="M1424.89,-523.52C1416.32,-522.61 1407.71,-521.7 1399.25,-520.81"/>
<polygon fill="midnightblue" stroke="midnightblue" points="1424.61,-527.01 1434.92,-524.58 1425.35,-520.05 1424.61,-527.01"/>
</g>
<!-- Node33 -->
<g id="node24" class="node">
<title>Node33</title>
<g id="a_node24"><a xlink:href="classwmtk_1_1multimesh_1_1_multi_mesh_manager.html#aefe5179057c978e227c3349d13578c4a" target="_top" xlink:title=" ">
<polygon fill="none" stroke="black" points="1225.5,-393 1225.5,-423 1385.5,-423 1385.5,-393 1225.5,-393"/>
<text text-anchor="start" x="1233.5" y="-411" font-family="Helvetica,sans-Serif" font-size="10.00">wmtk::multimesh::MultiMesh</text>
<text text-anchor="middle" x="1305.5" y="-400" font-family="Helvetica,sans-Serif" font-size="10.00">Manager::map_up_to_tuples</text>
</a>
</g>
</g>
<!-- Node1&#45;&gt;Node33 -->
<g id="edge24" class="edge">
<title>Node1&#45;&gt;Node33</title>
<path fill="none" stroke="midnightblue" d="M1497.62,-514.93C1451.99,-489.4 1374.25,-445.9 1333.4,-423.05"/>
<polygon fill="midnightblue" stroke="midnightblue" points="1496.13,-518.1 1506.57,-519.93 1499.55,-512 1496.13,-518.1"/>
</g>
<!-- Node3 -->
<g id="node3" class="node">
<title>Node3</title>
<g id="a_node3"><a xlink:href="classwmtk_1_1_mesh.html#abce79ed965e5c4631713fe534f1699a7" target="_top" xlink:title="optimized map from a simplex from this mesh to its direct parent">
<polygon fill="none" stroke="black" points="840.5,-675 840.5,-705 959.5,-705 959.5,-675 840.5,-675"/>
<text text-anchor="start" x="848.5" y="-693" font-family="Helvetica,sans-Serif" font-size="10.00">wmtk::Mesh::map_to</text>
<text text-anchor="middle" x="900" y="-682" font-family="Helvetica,sans-Serif" font-size="10.00">_parent</text>
</a>
</g>
</g>
<!-- Node2&#45;&gt;Node3 -->
<g id="edge2" class="edge">
<title>Node2&#45;&gt;Node3</title>
<path fill="none" stroke="midnightblue" d="M1214.99,-644.09C1137.23,-655.46 1026.83,-671.6 959.78,-681.41"/>
<polygon fill="midnightblue" stroke="midnightblue" points="1215.87,-647.5 1225.26,-642.59 1214.86,-640.57 1215.87,-647.5"/>
</g>
<!-- Node4 -->
<g id="node4" class="node">
<title>Node4</title>
<g id="a_node4"><a xlink:href="classwmtk_1_1invariants_1_1_fusion_edge_invariant.html#abb8894b188e06d51bad0c0df062b37fe" target="_top" xlink:title=" ">
<polygon fill="none" stroke="black" points="636,-711 636,-741 773,-741 773,-711 636,-711"/>
<text text-anchor="start" x="644" y="-729" font-family="Helvetica,sans-Serif" font-size="10.00">wmtk::invariants::Fusion</text>
<text text-anchor="middle" x="704.5" y="-718" font-family="Helvetica,sans-Serif" font-size="10.00">EdgeInvariant::before</text>
</a>
</g>
</g>
<!-- Node3&#45;&gt;Node4 -->
<g id="edge3" class="edge">
<title>Node3&#45;&gt;Node4</title>
<path fill="none" stroke="midnightblue" d="M830.52,-702.74C811.86,-706.21 791.66,-709.97 773.05,-713.43"/>
<polygon fill="midnightblue" stroke="midnightblue" points="831.23,-706.17 840.42,-700.9 829.95,-699.29 831.23,-706.17"/>
</g>
<!-- Node5 -->
<g id="node5" class="node">
<title>Node5</title>
<g id="a_node5"><a xlink:href="classwmtk_1_1components_1_1internal_1_1_multi_mesh_from_tag.html#a00b7df05e0cd44c1a2d4e6ee39dbaacf" target="_top" xlink:title="Create the adjacency (stored as attribute) of the substructure.">
<polygon fill="none" stroke="black" points="627.5,-650.5 627.5,-691.5 781.5,-691.5 781.5,-650.5 627.5,-650.5"/>
<text text-anchor="start" x="635.5" y="-679.5" font-family="Helvetica,sans-Serif" font-size="10.00">wmtk::components::internal</text>
<text text-anchor="start" x="635.5" y="-668.5" font-family="Helvetica,sans-Serif" font-size="10.00">::MultiMeshFromTag::build</text>
<text text-anchor="middle" x="704.5" y="-657.5" font-family="Helvetica,sans-Serif" font-size="10.00">_adjacency_matrix</text>
</a>
</g>
</g>
<!-- Node3&#45;&gt;Node5 -->
<g id="edge4" class="edge">
<title>Node3&#45;&gt;Node5</title>
<path fill="none" stroke="midnightblue" d="M830.27,-683.25C814.56,-681.71 797.77,-680.06 781.77,-678.49"/>
<polygon fill="midnightblue" stroke="midnightblue" points="830.12,-686.75 840.42,-684.25 830.81,-679.79 830.12,-686.75"/>
</g>
<!-- Node10 -->
<g id="node9" class="node">
<title>Node10</title>
<g id="a_node9"><a xlink:href="classwmtk_1_1components_1_1internal_1_1_multi_mesh_from_tag.html#a5c6d50173da15e964b0f1dc6367858e6" target="_top" xlink:title="Get tuples with different global_cid that all represent simplex(t_in, ptype) and are in the same tag&#45;...">
<polygon fill="none" stroke="black" points="627.5,-760.5 627.5,-801.5 781.5,-801.5 781.5,-760.5 627.5,-760.5"/>
<text text-anchor="start" x="635.5" y="-789.5" font-family="Helvetica,sans-Serif" font-size="10.00">wmtk::components::internal</text>
<text text-anchor="start" x="635.5" y="-778.5" font-family="Helvetica,sans-Serif" font-size="10.00">::MultiMeshFromTag::get</text>
<text text-anchor="middle" x="704.5" y="-767.5" font-family="Helvetica,sans-Serif" font-size="10.00">_connected_region</text>
</a>
</g>
</g>
<!-- Node3&#45;&gt;Node10 -->
<g id="edge8" class="edge">
<title>Node3&#45;&gt;Node10</title>
<path fill="none" stroke="midnightblue" d="M863.68,-710.19C841.21,-722.66 811.31,-738.6 784,-751 776.96,-754.2 769.47,-757.36 762.02,-760.36"/>
<polygon fill="midnightblue" stroke="midnightblue" points="865.49,-713.18 872.51,-705.24 862.08,-707.07 865.49,-713.18"/>
</g>
<!-- Node6 -->
<g id="node6" class="node">
<title>Node6</title>
<g id="a_node6"><a xlink:href="classwmtk_1_1components_1_1internal_1_1_multi_mesh_from_tag.html#a96647e9413f2b7e13dd17f02cf29b12d" target="_top" xlink:title="Create a manifold mesh from the substructure.">
<polygon fill="none" stroke="black" points="205,-662.5 205,-703.5 369,-703.5 369,-662.5 205,-662.5"/>
<text text-anchor="start" x="213" y="-691.5" font-family="Helvetica,sans-Serif" font-size="10.00">wmtk::components::internal</text>
<text text-anchor="start" x="213" y="-680.5" font-family="Helvetica,sans-Serif" font-size="10.00">::MultiMeshFromTag::compute</text>
<text text-anchor="middle" x="287" y="-669.5" font-family="Helvetica,sans-Serif" font-size="10.00">_substructure_mesh</text>
</a>
</g>
</g>
<!-- Node5&#45;&gt;Node6 -->
<g id="edge5" class="edge">
<title>Node5&#45;&gt;Node6</title>
<path fill="none" stroke="midnightblue" d="M640.63,-695.11C617.17,-703.91 594.8,-711.97 589,-713 508.48,-727.3 486.13,-723.24 405,-713 388.98,-710.98 372.01,-707.46 356.12,-703.53"/>
<polygon fill="midnightblue" stroke="midnightblue" points="641.86,-698.39 649.99,-691.59 639.4,-691.84 641.86,-698.39"/>
</g>
<!-- Node7 -->
<g id="node7" class="node">
<title>Node7</title>
<g id="a_node7"><a xlink:href="namespacewmtk_1_1components.html#a43e4bf82099343e153b21c9be07cd2d1" target="_top" xlink:title="Generate a multi&#45;mesh from a mesh with a tag that represents the substructure.">
<polygon fill="none" stroke="red" points="0,-690 0,-720 169,-720 169,-690 0,-690"/>
<text text-anchor="start" x="8" y="-708" font-family="Helvetica,sans-Serif" font-size="10.00">wmtk::components::multimesh</text>
<text text-anchor="middle" x="84.5" y="-697" font-family="Helvetica,sans-Serif" font-size="10.00">_from_tag</text>
</a>
</g>
</g>
<!-- Node6&#45;&gt;Node7 -->
<g id="edge6" class="edge">
<title>Node6&#45;&gt;Node7</title>
<path fill="none" stroke="midnightblue" d="M194.78,-693.01C186.24,-693.95 177.62,-694.89 169.16,-695.82"/>
<polygon fill="midnightblue" stroke="midnightblue" points="195.18,-696.49 204.74,-691.92 194.42,-689.53 195.18,-696.49"/>
</g>
<!-- Node9 -->
<g id="node8" class="node">
<title>Node9</title>
<g id="a_node8"><a xlink:href="test__component__multimesh__from__tag_8cpp.html#a18cd3d411cfadc472201c20662d62869" target="_top" xlink:title=" ">
<polygon fill="none" stroke="black" points="49,-651.5 49,-670.5 120,-670.5 120,-651.5 49,-651.5"/>
<text text-anchor="middle" x="84.5" y="-658.5" font-family="Helvetica,sans-Serif" font-size="10.00">TEST_CASE</text>
</a>
</g>
</g>
<!-- Node6&#45;&gt;Node9 -->
<g id="edge7" class="edge">
<title>Node6&#45;&gt;Node9</title>
<path fill="none" stroke="midnightblue" d="M194.63,-672.97C168.11,-670.06 140.76,-667.06 120.07,-664.79"/>
<polygon fill="midnightblue" stroke="midnightblue" points="194.42,-676.47 204.74,-674.08 195.18,-669.51 194.42,-676.47"/>
</g>
<!-- Node11 -->
<g id="node10" class="node">
<title>Node11</title>
<g id="a_node10"><a xlink:href="classwmtk_1_1components_1_1internal_1_1_multi_mesh_from_tag.html#afb744eb2b5ec264a9a682ccfd3f8dfcb" target="_top" xlink:title="Compute the ids of the manifold substructure.">
<polygon fill="none" stroke="black" points="415,-760.5 415,-801.5 579,-801.5 579,-760.5 415,-760.5"/>
<text text-anchor="start" x="423" y="-789.5" font-family="Helvetica,sans-Serif" font-size="10.00">wmtk::components::internal</text>
<text text-anchor="start" x="423" y="-778.5" font-family="Helvetica,sans-Serif" font-size="10.00">::MultiMeshFromTag::compute</text>
<text text-anchor="middle" x="497" y="-767.5" font-family="Helvetica,sans-Serif" font-size="10.00">_substructure_ids</text>
</a>
</g>
</g>
<!-- Node10&#45;&gt;Node11 -->
<g id="edge9" class="edge">
<title>Node10&#45;&gt;Node11</title>
<path fill="none" stroke="midnightblue" d="M617.27,-781C604.68,-781 591.76,-781 579.27,-781"/>
<polygon fill="midnightblue" stroke="midnightblue" points="617.27,-784.5 627.27,-781 617.27,-777.5 617.27,-784.5"/>
</g>
<!-- Node11&#45;&gt;Node6 -->
<g id="edge10" class="edge">
<title>Node11&#45;&gt;Node6</title>
<path fill="none" stroke="midnightblue" d="M429.77,-756.66C421.37,-753.24 412.93,-749.64 405,-746 377.01,-733.15 346.4,-716.57 323.51,-703.64"/>
<polygon fill="midnightblue" stroke="midnightblue" points="428.64,-759.98 439.23,-760.44 431.24,-753.48 428.64,-759.98"/>
</g>
<!-- Node13 -->
<g id="node12" class="node">
<title>Node13</title>
<g id="a_node12"><a xlink:href="classwmtk_1_1_mesh.html#a9a1a8863d4694baab3679edfb5c0dccb" target="_top" xlink:title="optimized map from a simplex from this mesh to its direct parent">
<polygon fill="none" stroke="black" points="1036.5,-545 1036.5,-575 1155.5,-575 1155.5,-545 1036.5,-545"/>
<text text-anchor="start" x="1044.5" y="-563" font-family="Helvetica,sans-Serif" font-size="10.00">wmtk::Mesh::map_to</text>
<text text-anchor="middle" x="1096" y="-552" font-family="Helvetica,sans-Serif" font-size="10.00">_parent_tuple</text>
</a>
</g>
</g>
<!-- Node12&#45;&gt;Node13 -->
<g id="edge12" class="edge">
<title>Node12&#45;&gt;Node13</title>
<path fill="none" stroke="midnightblue" d="M1210.94,-560C1192.18,-560 1172.97,-560 1155.8,-560"/>
<polygon fill="midnightblue" stroke="midnightblue" points="1211,-563.5 1221,-560 1211,-556.5 1211,-563.5"/>
</g>
<!-- Node15 -->
<g id="node14" class="node">
<title>Node15</title>
<g id="a_node14"><a xlink:href="classwmtk_1_1multimesh_1_1_multi_mesh_manager.html#a04ea5ec1326046461d38b0dd74ded250" target="_top" xlink:title="maps a simplex from this mesh to the root mesh">
<polygon fill="none" stroke="black" points="1016,-496 1016,-526 1176,-526 1176,-496 1016,-496"/>
<text text-anchor="start" x="1024" y="-514" font-family="Helvetica,sans-Serif" font-size="10.00">wmtk::multimesh::MultiMesh</text>
<text text-anchor="middle" x="1096" y="-503" font-family="Helvetica,sans-Serif" font-size="10.00">Manager::map_to_root_tuple</text>
</a>
</g>
</g>
<!-- Node14&#45;&gt;Node15 -->
<g id="edge14" class="edge">
<title>Node14&#45;&gt;Node15</title>
<path fill="none" stroke="midnightblue" d="M1201.82,-511C1193.15,-511 1184.48,-511 1176.03,-511"/>
<polygon fill="midnightblue" stroke="midnightblue" points="1201.98,-514.5 1211.98,-511 1201.98,-507.5 1201.98,-514.5"/>
</g>
<!-- Node16 -->
<g id="node15" class="node">
<title>Node16</title>
<g id="a_node15"><a xlink:href="classwmtk_1_1multimesh_1_1_multi_mesh_manager.html#adbdd51ce90b08ce81fec54bfaa85b533" target="_top" xlink:title=" ">
<polygon fill="none" stroke="black" points="820,-368 820,-398 980,-398 980,-368 820,-368"/>
<text text-anchor="start" x="828" y="-386" font-family="Helvetica,sans-Serif" font-size="10.00">wmtk::multimesh::MultiMesh</text>
<text text-anchor="middle" x="900" y="-375" font-family="Helvetica,sans-Serif" font-size="10.00">Manager::can_map</text>
</a>
</g>
</g>
<!-- Node15&#45;&gt;Node16 -->
<g id="edge15" class="edge">
<title>Node15&#45;&gt;Node16</title>
<path fill="none" stroke="midnightblue" d="M1063.6,-490.28C1024.51,-464.49 958.68,-421.06 923.99,-398.17"/>
<polygon fill="midnightblue" stroke="midnightblue" points="1061.71,-493.23 1071.98,-495.81 1065.56,-487.39 1061.71,-493.23"/>
</g>
<!-- Node21 -->
<g id="node20" class="node">
<title>Node21</title>
<g id="a_node20"><a xlink:href="classwmtk_1_1multimesh_1_1_multi_mesh_manager.html#ac385f8fb3dd7d7ac3c0ce66f35fa46bf" target="_top" xlink:title="maps a simplex from this mesh to the root mesh">
<polygon fill="none" stroke="black" points="820,-588 820,-618 980,-618 980,-588 820,-588"/>
<text text-anchor="start" x="828" y="-606" font-family="Helvetica,sans-Serif" font-size="10.00">wmtk::multimesh::MultiMesh</text>
<text text-anchor="middle" x="900" y="-595" font-family="Helvetica,sans-Serif" font-size="10.00">Manager::map_to_root</text>
</a>
</g>
</g>
<!-- Node15&#45;&gt;Node21 -->
<g id="edge20" class="edge">
<title>Node15&#45;&gt;Node21</title>
<path fill="none" stroke="midnightblue" d="M1029.56,-529.53C1024.92,-531.26 1020.36,-533.08 1016,-535 982.03,-549.94 945.6,-572.77 923.06,-587.79"/>
<polygon fill="midnightblue" stroke="midnightblue" points="1030.88,-532.78 1039.14,-526.14 1028.55,-526.18 1030.88,-532.78"/>
</g>
<!-- Node32 -->
<g id="node23" class="node">
<title>Node32</title>
<g id="a_node23"><a xlink:href="classwmtk_1_1_mesh.html#a4fd4fede1199b98a60af2645b06ecf87" target="_top" xlink:title="maps a simplex from this mesh to the root mesh">
<polygon fill="none" stroke="black" points="840.5,-496 840.5,-526 959.5,-526 959.5,-496 840.5,-496"/>
<text text-anchor="start" x="848.5" y="-514" font-family="Helvetica,sans-Serif" font-size="10.00">wmtk::Mesh::map_to</text>
<text text-anchor="middle" x="900" y="-503" font-family="Helvetica,sans-Serif" font-size="10.00">_root_tuple</text>
</a>
</g>
</g>
<!-- Node15&#45;&gt;Node32 -->
<g id="edge23" class="edge">
<title>Node15&#45;&gt;Node32</title>
<path fill="none" stroke="midnightblue" d="M1005.63,-511C990.05,-511 974.21,-511 959.73,-511"/>
<polygon fill="midnightblue" stroke="midnightblue" points="1005.81,-514.5 1015.81,-511 1005.81,-507.5 1005.81,-514.5"/>
</g>
<!-- Node17 -->
<g id="node16" class="node">
<title>Node17</title>
<g id="a_node16"><a xlink:href="classwmtk_1_1_mesh.html#ac57c4894358e3857c09dfb00eb934c1f" target="_top" xlink:title=" ">
<polygon fill="none" stroke="black" points="641,-349.5 641,-368.5 768,-368.5 768,-349.5 641,-349.5"/>
<text text-anchor="middle" x="704.5" y="-356.5" font-family="Helvetica,sans-Serif" font-size="10.00">wmtk::Mesh::can_map</text>
</a>
</g>
</g>
<!-- Node16&#45;&gt;Node17 -->
<g id="edge16" class="edge">
<title>Node16&#45;&gt;Node17</title>
<path fill="none" stroke="midnightblue" d="M809.58,-371.91C795.55,-370.17 781.31,-368.4 768.06,-366.76"/>
<polygon fill="midnightblue" stroke="midnightblue" points="809.38,-375.41 819.74,-373.17 810.24,-368.46 809.38,-375.41"/>
</g>
<!-- Node18 -->
<g id="node17" class="node">
<title>Node18</title>
<g id="a_node17"><a xlink:href="classwmtk_1_1multimesh_1_1_boundary_checker.html#ac3757a6c4ff01617e4c0ac4b968407b5" target="_top" xlink:title=" ">
<polygon fill="none" stroke="black" points="419.5,-345 419.5,-375 574.5,-375 574.5,-345 419.5,-345"/>
<text text-anchor="start" x="427.5" y="-363" font-family="Helvetica,sans-Serif" font-size="10.00">wmtk::multimesh::Boundary</text>
<text text-anchor="middle" x="497" y="-352" font-family="Helvetica,sans-Serif" font-size="10.00">Checker::is_boundary</text>
</a>
</g>
</g>
<!-- Node17&#45;&gt;Node18 -->
<g id="edge17" class="edge">
<title>Node17&#45;&gt;Node18</title>
<path fill="none" stroke="midnightblue" d="M630.51,-359.36C612.35,-359.44 592.84,-359.54 574.52,-359.63"/>
<polygon fill="midnightblue" stroke="midnightblue" points="630.74,-362.85 640.73,-359.31 630.71,-355.85 630.74,-362.85"/>
</g>
<!-- Node19 -->
<g id="node18" class="node">
<title>Node19</title>
<g id="a_node18"><a xlink:href="classwmtk_1_1invariants_1_1_interior_simplex_invariant.html#ab6862bc219a21874c537f89f8ba93c7a" target="_top" xlink:title=" ">
<polygon fill="none" stroke="black" points="217,-369 217,-399 357,-399 357,-369 217,-369"/>
<text text-anchor="start" x="225" y="-387" font-family="Helvetica,sans-Serif" font-size="10.00">wmtk::invariants::Interior</text>
<text text-anchor="middle" x="287" y="-376" font-family="Helvetica,sans-Serif" font-size="10.00">SimplexInvariant::before</text>
</a>
</g>
</g>
<!-- Node18&#45;&gt;Node19 -->
<g id="edge18" class="edge">
<title>Node18&#45;&gt;Node19</title>
<path fill="none" stroke="midnightblue" d="M409.29,-370C391.91,-372.01 373.87,-374.09 357.18,-376.02"/>
<polygon fill="midnightblue" stroke="midnightblue" points="409.9,-373.46 419.43,-368.83 409.1,-366.5 409.9,-373.46"/>
</g>
<!-- Node20 -->
<g id="node19" class="node">
<title>Node20</title>
<g id="a_node19"><a xlink:href="classwmtk_1_1multimesh_1_1_boundary_checker.html#a3ed1904d61f664b9905f95924e8d6b64" target="_top" xlink:title=" ">
<polygon fill="none" stroke="black" points="209.5,-320 209.5,-350 364.5,-350 364.5,-320 209.5,-320"/>
<text text-anchor="start" x="217.5" y="-338" font-family="Helvetica,sans-Serif" font-size="10.00">wmtk::multimesh::Boundary</text>
<text text-anchor="middle" x="287" y="-327" font-family="Helvetica,sans-Serif" font-size="10.00">Checker::is_boundary</text>
</a>
</g>
</g>
<!-- Node18&#45;&gt;Node20 -->
<g id="edge19" class="edge">
<title>Node18&#45;&gt;Node20</title>
<path fill="none" stroke="midnightblue" d="M409.29,-349.58C394.51,-347.8 379.25,-345.97 364.75,-344.22"/>
<polygon fill="midnightblue" stroke="midnightblue" points="409.09,-353.08 419.43,-350.8 409.92,-346.13 409.09,-353.08"/>
</g>
<!-- Node22 -->
<g id="node21" class="node">
<title>Node22</title>
<g id="a_node21"><a xlink:href="classwmtk_1_1_mesh.html#aa23d8c5ea9c2a2d635eb7c67221206e8" target="_top" xlink:title="maps a simplex from this mesh to the root mesh">
<polygon fill="none" stroke="black" points="632.5,-612.5 632.5,-631.5 776.5,-631.5 776.5,-612.5 632.5,-612.5"/>
<text text-anchor="middle" x="704.5" y="-619.5" font-family="Helvetica,sans-Serif" font-size="10.00">wmtk::Mesh::map_to_root</text>
</a>
</g>
</g>
<!-- Node21&#45;&gt;Node22 -->
<g id="edge21" class="edge">
<title>Node21&#45;&gt;Node22</title>
<path fill="none" stroke="midnightblue" d="M809.61,-611.78C798.53,-612.87 787.32,-613.97 776.57,-615.02"/>
<polygon fill="midnightblue" stroke="midnightblue" points="810.13,-615.24 819.74,-610.78 809.44,-608.28 810.13,-615.24"/>
</g>
<!-- Node23 -->
<g id="node22" class="node">
<title>Node23</title>
<g id="a_node22"><a xlink:href="classwmtk_1_1multimesh_1_1_multi_mesh_simplex_visitor.html#ad4359b5c36f328c241da00f5fc6d93a7" target="_top" xlink:title=" ">
<polygon fill="none" stroke="red" points="417,-662.5 417,-703.5 577,-703.5 577,-662.5 417,-662.5"/>
<text text-anchor="start" x="425" y="-691.5" font-family="Helvetica,sans-Serif" font-size="10.00">wmtk::multimesh::MultiMesh</text>
<text text-anchor="start" x="425" y="-680.5" font-family="Helvetica,sans-Serif" font-size="10.00">SimplexVisitor::execute</text>
<text text-anchor="middle" x="497" y="-669.5" font-family="Helvetica,sans-Serif" font-size="10.00">_from_root</text>
</a>
</g>
</g>
<!-- Node22&#45;&gt;Node23 -->
<g id="edge22" class="edge">
<title>Node22&#45;&gt;Node23</title>
<path fill="none" stroke="midnightblue" d="M651.49,-633.95C642.62,-636.17 633.52,-638.56 625,-641 602.56,-647.41 578.17,-655.27 556.81,-662.44"/>
<polygon fill="midnightblue" stroke="midnightblue" points="652.5,-637.31 661.37,-631.52 650.83,-630.51 652.5,-637.31"/>
</g>
<!-- Node34 -->
<g id="node25" class="node">
<title>Node34</title>
<g id="a_node25"><a xlink:href="classwmtk_1_1multimesh_1_1_multi_mesh_manager.html#a3ded46d7d107bd43d3c40b43727c8ebf" target="_top" xlink:title=" ">
<polygon fill="none" stroke="black" points="1016,-368 1016,-398 1176,-398 1176,-368 1016,-368"/>
<text text-anchor="start" x="1024" y="-386" font-family="Helvetica,sans-Serif" font-size="10.00">wmtk::multimesh::MultiMesh</text>
<text text-anchor="middle" x="1096" y="-375" font-family="Helvetica,sans-Serif" font-size="10.00">Manager::can_map_child</text>
</a>
</g>
</g>
<!-- Node33&#45;&gt;Node34 -->
<g id="edge25" class="edge">
<title>Node33&#45;&gt;Node34</title>
<path fill="none" stroke="midnightblue" d="M1215.53,-397.28C1202.44,-395.7 1189.03,-394.09 1176.16,-392.54"/>
<polygon fill="midnightblue" stroke="midnightblue" points="1215.11,-400.76 1225.46,-398.48 1215.95,-393.81 1215.11,-400.76"/>
</g>
<!-- Node35 -->
<g id="node26" class="node">
<title>Node35</title>
<g id="a_node26"><a xlink:href="classwmtk_1_1multimesh_1_1_multi_mesh_manager.html#ab5c1f3b38daa298b1ef25867a2dcd349" target="_top" xlink:title="maps a simplex from this mesh to any other mesh using the LUB as the root">
<polygon fill="none" stroke="black" points="1016,-115 1016,-145 1176,-145 1176,-115 1016,-115"/>
<text text-anchor="start" x="1024" y="-133" font-family="Helvetica,sans-Serif" font-size="10.00">wmtk::multimesh::MultiMesh</text>
<text text-anchor="middle" x="1096" y="-122" font-family="Helvetica,sans-Serif" font-size="10.00">Manager::lub_map_tuples</text>
</a>
</g>
</g>
<!-- Node33&#45;&gt;Node35 -->
<g id="edge27" class="edge">
<title>Node33&#45;&gt;Node35</title>
<path fill="none" stroke="midnightblue" d="M1286.95,-384.49C1245.58,-329.06 1142.81,-191.37 1108.42,-145.3"/>
<polygon fill="midnightblue" stroke="midnightblue" points="1284.26,-386.74 1293.05,-392.66 1289.87,-382.55 1284.26,-386.74"/>
</g>
<!-- Node44 -->
<g id="node35" class="node">
<title>Node44</title>
<g id="a_node35"><a xlink:href="classwmtk_1_1multimesh_1_1_multi_mesh_manager.html#acaaab688faff0e1b2d9142d6cc128e46" target="_top" xlink:title="maps a simplex from this mesh to any other mesh">
<polygon fill="none" stroke="black" points="1016,-417 1016,-447 1176,-447 1176,-417 1016,-417"/>
<text text-anchor="start" x="1024" y="-435" font-family="Helvetica,sans-Serif" font-size="10.00">wmtk::multimesh::MultiMesh</text>
<text text-anchor="middle" x="1096" y="-424" font-family="Helvetica,sans-Serif" font-size="10.00">Manager::map_tuples</text>
</a>
</g>
</g>
<!-- Node33&#45;&gt;Node44 -->
<g id="edge36" class="edge">
<title>Node33&#45;&gt;Node44</title>
<path fill="none" stroke="midnightblue" d="M1215.14,-418.34C1202.18,-419.83 1188.91,-421.37 1176.16,-422.84"/>
<polygon fill="midnightblue" stroke="midnightblue" points="1215.93,-421.77 1225.46,-417.14 1215.13,-414.81 1215.93,-421.77"/>
</g>
<!-- Node34&#45;&gt;Node16 -->
<g id="edge26" class="edge">
<title>Node34&#45;&gt;Node16</title>
<path fill="none" stroke="midnightblue" d="M1005.56,-383C997.12,-383 988.59,-383 980.25,-383"/>
<polygon fill="midnightblue" stroke="midnightblue" points="1005.81,-386.5 1015.81,-383 1005.81,-379.5 1005.81,-386.5"/>
</g>
<!-- Node36 -->
<g id="node27" class="node">
<title>Node36</title>
<g id="a_node27"><a xlink:href="classwmtk_1_1multimesh_1_1_multi_mesh_manager.html#afda2cea3f093e5fd59ad9ed58f1c0f33" target="_top" xlink:title="maps a simplex from this mesh to any other mesh using the LUB as the root">
<polygon fill="none" stroke="black" points="820,-115 820,-145 980,-145 980,-115 820,-115"/>
<text text-anchor="start" x="828" y="-133" font-family="Helvetica,sans-Serif" font-size="10.00">wmtk::multimesh::MultiMesh</text>
<text text-anchor="middle" x="900" y="-122" font-family="Helvetica,sans-Serif" font-size="10.00">Manager::lub_map</text>
</a>
</g>
</g>
<!-- Node35&#45;&gt;Node36 -->
<g id="edge28" class="edge">
<title>Node35&#45;&gt;Node36</title>
<path fill="none" stroke="midnightblue" d="M1005.56,-130C997.12,-130 988.59,-130 980.25,-130"/>
<polygon fill="midnightblue" stroke="midnightblue" points="1005.81,-133.5 1015.81,-130 1005.81,-126.5 1005.81,-133.5"/>
</g>
<!-- Node39 -->
<g id="node30" class="node">
<title>Node39</title>
<g id="a_node30"><a xlink:href="classwmtk_1_1_mesh.html#afca213673a7f569665d73353eae95ccc" target="_top" xlink:title="maps a simplex from this mesh to any other mesh using LUB mesh as root">
<polygon fill="none" stroke="black" points="837.5,-66 837.5,-96 962.5,-96 962.5,-66 837.5,-66"/>
<text text-anchor="start" x="845.5" y="-84" font-family="Helvetica,sans-Serif" font-size="10.00">wmtk::Mesh::lub_map</text>
<text text-anchor="middle" x="900" y="-73" font-family="Helvetica,sans-Serif" font-size="10.00">_tuples</text>
</a>
</g>
</g>
<!-- Node35&#45;&gt;Node39 -->
<g id="edge31" class="edge">
<title>Node35&#45;&gt;Node39</title>
<path fill="none" stroke="midnightblue" d="M1025.52,-112.45C1004.21,-107.07 980.98,-101.2 960.41,-96.01"/>
<polygon fill="midnightblue" stroke="midnightblue" points="1024.92,-115.91 1035.48,-114.97 1026.64,-109.12 1024.92,-115.91"/>
</g>
<!-- Node37 -->
<g id="node28" class="node">
<title>Node37</title>
<g id="a_node28"><a xlink:href="classwmtk_1_1_mesh.html#a41b770767cdea17fe0adc0c991202091" target="_top" xlink:title="maps a simplex from this mesh to any other mesh using LUB mesh as root">
<polygon fill="none" stroke="black" points="642,-120.5 642,-139.5 767,-139.5 767,-120.5 642,-120.5"/>
<text text-anchor="middle" x="704.5" y="-127.5" font-family="Helvetica,sans-Serif" font-size="10.00">wmtk::Mesh::lub_map</text>
</a>
</g>
</g>
<!-- Node36&#45;&gt;Node37 -->
<g id="edge29" class="edge">
<title>Node36&#45;&gt;Node37</title>
<path fill="none" stroke="midnightblue" d="M809.39,-130C795.11,-130 780.61,-130 767.17,-130"/>
<polygon fill="midnightblue" stroke="midnightblue" points="809.74,-133.5 819.74,-130 809.74,-126.5 809.74,-133.5"/>
</g>
<!-- Node38 -->
<g id="node29" class="node">
<title>Node38</title>
<g id="a_node29"><a xlink:href="classwmtk_1_1_mesh.html#a490bc8412756782456cdf3a5bb4582f3" target="_top" xlink:title=" ">
<polygon fill="none" stroke="black" points="434.5,-120.5 434.5,-139.5 559.5,-139.5 559.5,-120.5 434.5,-120.5"/>
<text text-anchor="middle" x="497" y="-127.5" font-family="Helvetica,sans-Serif" font-size="10.00">wmtk::Mesh::lub_map</text>
</a>
</g>
</g>
<!-- Node37&#45;&gt;Node38 -->
<g id="edge30" class="edge">
<title>Node37&#45;&gt;Node38</title>
<path fill="none" stroke="midnightblue" d="M631.59,-130C608.11,-130 582.27,-130 559.61,-130"/>
<polygon fill="midnightblue" stroke="midnightblue" points="631.84,-133.5 641.84,-130 631.84,-126.5 631.84,-133.5"/>
</g>
<!-- Node40 -->
<g id="node31" class="node">
<title>Node40</title>
<g id="a_node31"><a xlink:href="classwmtk_1_1operations_1_1_attribute_transfer_strategy_base.html#a6883c6416f61c4ee06588a86c3b8d731" target="_top" xlink:title=" ">
<polygon fill="none" stroke="black" points="629,-60.5 629,-101.5 780,-101.5 780,-60.5 629,-60.5"/>
<text text-anchor="start" x="637" y="-89.5" font-family="Helvetica,sans-Serif" font-size="10.00">wmtk::operations::Attribute</text>
<text text-anchor="start" x="637" y="-78.5" font-family="Helvetica,sans-Serif" font-size="10.00">TransferStrategyBase::get</text>
<text text-anchor="middle" x="704.5" y="-67.5" font-family="Helvetica,sans-Serif" font-size="10.00">_parent_simplices</text>
</a>
</g>
</g>
<!-- Node39&#45;&gt;Node40 -->
<g id="edge32" class="edge">
<title>Node39&#45;&gt;Node40</title>
<path fill="none" stroke="midnightblue" d="M826.86,-81C811.63,-81 795.53,-81 780.21,-81"/>
<polygon fill="midnightblue" stroke="midnightblue" points="827.24,-84.5 837.24,-81 827.24,-77.5 827.24,-84.5"/>
</g>
<!-- Node43 -->
<g id="node34" class="node">
<title>Node43</title>
<g id="a_node34"><a xlink:href="classwmtk_1_1_mesh.html#a200e9023103df15f15802116aa19ec03" target="_top" xlink:title=" ">
<polygon fill="none" stroke="black" points="642,-11 642,-41 767,-41 767,-11 642,-11"/>
<text text-anchor="start" x="650" y="-29" font-family="Helvetica,sans-Serif" font-size="10.00">wmtk::Mesh::lub_map</text>
<text text-anchor="middle" x="704.5" y="-18" font-family="Helvetica,sans-Serif" font-size="10.00">_tuples</text>
</a>
</g>
</g>
<!-- Node39&#45;&gt;Node43 -->
<g id="edge35" class="edge">
<title>Node39&#45;&gt;Node43</title>
<path fill="none" stroke="midnightblue" d="M836.3,-63.18C811.12,-56.02 782.41,-47.86 758.31,-41.01"/>
<polygon fill="midnightblue" stroke="midnightblue" points="835.55,-66.6 846.13,-65.97 837.46,-59.87 835.55,-66.6"/>
</g>
<!-- Node41 -->
<g id="node32" class="node">
<title>Node41</title>
<g id="a_node32"><a xlink:href="classwmtk_1_1operations_1_1_attribute_transfer_strategy_base.html#aa5e03221c4b6b49e1892ed464d84c0cd" target="_top" xlink:title=" ">
<polygon fill="none" stroke="black" points="421.5,-0.5 421.5,-41.5 572.5,-41.5 572.5,-0.5 421.5,-0.5"/>
<text text-anchor="start" x="429.5" y="-29.5" font-family="Helvetica,sans-Serif" font-size="10.00">wmtk::operations::Attribute</text>
<text text-anchor="start" x="429.5" y="-18.5" font-family="Helvetica,sans-Serif" font-size="10.00">TransferStrategyBase::get</text>
<text text-anchor="middle" x="497" y="-7.5" font-family="Helvetica,sans-Serif" font-size="10.00">_parent_simplices</text>
</a>
</g>
</g>
<!-- Node40&#45;&gt;Node41 -->
<g id="edge33" class="edge">
<title>Node40&#45;&gt;Node41</title>
<path fill="none" stroke="midnightblue" d="M623.38,-57.61C605.22,-52.31 586.06,-46.71 568.34,-41.54"/>
<polygon fill="midnightblue" stroke="midnightblue" points="622.49,-60.99 633.07,-60.44 624.45,-54.27 622.49,-60.99"/>
</g>
<!-- Node42 -->
<g id="node33" class="node">
<title>Node42</title>
<g id="a_node33"><a xlink:href="classwmtk_1_1operations_1_1_single_attribute_transfer_strategy.html#aa5bf8a5fdf8527d9843f3f578c646b41" target="_top" xlink:title=" ">
<polygon fill="none" stroke="black" points="427,-60.5 427,-101.5 567,-101.5 567,-60.5 427,-60.5"/>
<text text-anchor="start" x="435" y="-89.5" font-family="Helvetica,sans-Serif" font-size="10.00">wmtk::operations::Single</text>
<text text-anchor="start" x="435" y="-78.5" font-family="Helvetica,sans-Serif" font-size="10.00">AttributeTransferStrategy</text>
<text text-anchor="middle" x="497" y="-67.5" font-family="Helvetica,sans-Serif" font-size="10.00">::read_parent_values</text>
</a>
</g>
</g>
<!-- Node40&#45;&gt;Node42 -->
<g id="edge34" class="edge">
<title>Node40&#45;&gt;Node42</title>
<path fill="none" stroke="midnightblue" d="M618.25,-81C601.27,-81 583.62,-81 567.25,-81"/>
<polygon fill="midnightblue" stroke="midnightblue" points="618.73,-84.5 628.73,-81 618.73,-77.5 618.73,-84.5"/>
</g>
<!-- Node45 -->
<g id="node36" class="node">
<title>Node45</title>
<g id="a_node36"><a xlink:href="classwmtk_1_1multimesh_1_1_multi_mesh_manager.html#a99b3819552ae63c825dd77bebbd65040" target="_top" xlink:title="maps a simplex from this mesh to any other mesh">
<polygon fill="none" stroke="black" points="820,-298 820,-328 980,-328 980,-298 820,-298"/>
<text text-anchor="start" x="828" y="-316" font-family="Helvetica,sans-Serif" font-size="10.00">wmtk::multimesh::MultiMesh</text>
<text text-anchor="middle" x="900" y="-305" font-family="Helvetica,sans-Serif" font-size="10.00">Manager::map</text>
</a>
</g>
</g>
<!-- Node44&#45;&gt;Node45 -->
<g id="edge37" class="edge">
<title>Node44&#45;&gt;Node45</title>
<path fill="none" stroke="midnightblue" d="M1024.48,-412.36C1021.53,-410.71 1018.69,-408.93 1016,-407 994.03,-391.26 1000.18,-375.97 980,-358 966.56,-346.03 949.43,-335.8 934.55,-328.13"/>
<polygon fill="midnightblue" stroke="midnightblue" points="1023.08,-415.57 1033.59,-416.91 1026.21,-409.31 1023.08,-415.57"/>
</g>
<!-- Node53 -->
<g id="node42" class="node">
<title>Node53</title>
<g id="a_node42"><a xlink:href="classwmtk_1_1_mesh.html#a82637d24776e0e06e2124ce914c4b40f" target="_top" xlink:title="maps a simplex from this mesh to any other mesh">
<polygon fill="none" stroke="black" points="830,-446.5 830,-465.5 970,-465.5 970,-446.5 830,-446.5"/>
<text text-anchor="middle" x="900" y="-453.5" font-family="Helvetica,sans-Serif" font-size="10.00">wmtk::Mesh::map_tuples</text>
</a>
</g>
</g>
<!-- Node44&#45;&gt;Node53 -->
<g id="edge43" class="edge">
<title>Node44&#45;&gt;Node53</title>
<path fill="none" stroke="midnightblue" d="M1005.84,-443.03C993.91,-444.51 981.82,-446 970.29,-447.43"/>
<polygon fill="midnightblue" stroke="midnightblue" points="1006.32,-446.5 1015.81,-441.8 1005.46,-439.55 1006.32,-446.5"/>
</g>
<!-- Node46 -->
<g id="node37" class="node">
<title>Node46</title>
<g id="a_node37"><a xlink:href="classwmtk_1_1_mesh.html#abe23d31a7ad54af38da1bf7b6e232cab" target="_top" xlink:title="maps a simplex from this mesh to any other mesh">
<polygon fill="none" stroke="black" points="652.5,-257.5 652.5,-276.5 756.5,-276.5 756.5,-257.5 652.5,-257.5"/>
<text text-anchor="middle" x="704.5" y="-264.5" font-family="Helvetica,sans-Serif" font-size="10.00">wmtk::Mesh::map</text>
</a>
</g>
</g>
<!-- Node45&#45;&gt;Node46 -->
<g id="edge38" class="edge">
<title>Node45&#45;&gt;Node46</title>
<path fill="none" stroke="midnightblue" d="M825.76,-295.59C798.56,-289.12 768.73,-282.03 745.58,-276.53"/>
<polygon fill="midnightblue" stroke="midnightblue" points="825.1,-299.03 835.64,-297.94 826.72,-292.22 825.1,-299.03"/>
</g>
<!-- Node47 -->
<g id="node38" class="node">
<title>Node47</title>
<g id="a_node38"><a xlink:href="classwmtk_1_1operations_1_1_operation.html#af181d255eb0ef5297646e0dc9dc817a7" target="_top" xlink:title=" ">
<polygon fill="none" stroke="red" points="419,-208 419,-238 575,-238 575,-208 419,-208"/>
<text text-anchor="start" x="427" y="-226" font-family="Helvetica,sans-Serif" font-size="10.00">wmtk::operations::Operation</text>
<text text-anchor="middle" x="497" y="-215" font-family="Helvetica,sans-Serif" font-size="10.00">::apply_attribute_transfer</text>
</a>
</g>
</g>
<!-- Node46&#45;&gt;Node47 -->
<g id="edge39" class="edge">
<title>Node46&#45;&gt;Node47</title>
<path fill="none" stroke="midnightblue" d="M648.99,-255.33C624.27,-250.04 594.73,-243.71 568.36,-238.07"/>
<polygon fill="midnightblue" stroke="midnightblue" points="648.4,-258.78 658.91,-257.45 649.86,-251.94 648.4,-258.78"/>
</g>
<!-- Node49 -->
<g id="node39" class="node">
<title>Node49</title>
<g id="a_node39"><a xlink:href="classwmtk_1_1operations_1_1_operation.html#ae802270b57ba3fe8ed2345b5777f46af" target="_top" xlink:title=" ">
<polygon fill="none" stroke="red" points="419,-159 419,-189 575,-189 575,-159 419,-159"/>
<text text-anchor="start" x="427" y="-177" font-family="Helvetica,sans-Serif" font-size="10.00">wmtk::operations::Operation</text>
<text text-anchor="middle" x="497" y="-166" font-family="Helvetica,sans-Serif" font-size="10.00">::before</text>
</a>
</g>
</g>
<!-- Node46&#45;&gt;Node49 -->
<g id="edge40" class="edge">
<title>Node46&#45;&gt;Node49</title>
<path fill="none" stroke="midnightblue" d="M682.05,-251.51C659.76,-236.05 623.38,-212.54 589,-198 581.17,-194.69 572.77,-191.74 564.35,-189.13"/>
<polygon fill="midnightblue" stroke="midnightblue" points="680.23,-254.51 690.42,-257.4 684.26,-248.79 680.23,-254.51"/>
</g>
<!-- Node50 -->
<g id="node40" class="node">
<title>Node50</title>
<g id="a_node40"><a xlink:href="classwmtk_1_1invariants_1_1_invariant_collection.html#a120325711274b7754c4b6ae6b12151c9" target="_top" xlink:title=" ">
<polygon fill="none" stroke="red" points="405,-296 405,-326 589,-326 589,-296 405,-296"/>
<text text-anchor="start" x="413" y="-314" font-family="Helvetica,sans-Serif" font-size="10.00">wmtk::invariants::Invariant</text>
<text text-anchor="middle" x="497" y="-303" font-family="Helvetica,sans-Serif" font-size="10.00">Collection::directly_modified_after</text>
</a>
</g>
</g>
<!-- Node46&#45;&gt;Node50 -->
<g id="edge41" class="edge">
<title>Node46&#45;&gt;Node50</title>
<path fill="none" stroke="midnightblue" d="M648.99,-278.67C624.27,-283.96 594.73,-290.29 568.36,-295.93"/>
<polygon fill="midnightblue" stroke="midnightblue" points="649.86,-282.06 658.91,-276.55 648.4,-275.22 649.86,-282.06"/>
</g>
<!-- Node52 -->
<g id="node41" class="node">
<title>Node52</title>
<g id="a_node41"><a xlink:href="classwmtk_1_1_mesh.html#a8b63c6ed94b08ec217f7d2aa0b73d28a" target="_top" xlink:title=" ">
<polygon fill="none" stroke="black" points="445,-257.5 445,-276.5 549,-276.5 549,-257.5 445,-257.5"/>
<text text-anchor="middle" x="497" y="-264.5" font-family="Helvetica,sans-Serif" font-size="10.00">wmtk::Mesh::map</text>
</a>
</g>
</g>
<!-- Node46&#45;&gt;Node52 -->
<g id="edge42" class="edge">
<title>Node46&#45;&gt;Node52</title>
<path fill="none" stroke="midnightblue" d="M642.2,-267C612.54,-267 577.35,-267 549.16,-267"/>
<polygon fill="midnightblue" stroke="midnightblue" points="642.44,-270.5 652.44,-267 642.44,-263.5 642.44,-270.5"/>
</g>
<!-- Node53&#45;&gt;Node18 -->
<g id="edge47" class="edge">
<title>Node53&#45;&gt;Node18</title>
<path fill="none" stroke="midnightblue" d="M865.12,-442.8C842.42,-434.31 811.73,-423.5 784,-416 713.91,-397.05 632.53,-381.75 574.55,-371.96"/>
<polygon fill="midnightblue" stroke="midnightblue" points="864.05,-446.13 874.64,-446.4 866.52,-439.59 864.05,-446.13"/>
</g>
<!-- Node54 -->
<g id="node43" class="node">
<title>Node54</title>
<g id="a_node43"><a xlink:href="classwmtk_1_1invariants_1_1_invariant_collection.html#a8ca33e950e39423425248ba8d25b3dca" target="_top" xlink:title=" ">
<polygon fill="none" stroke="black" points="630,-426 630,-456 779,-456 779,-426 630,-426"/>
<text text-anchor="start" x="638" y="-444" font-family="Helvetica,sans-Serif" font-size="10.00">wmtk::invariants::Invariant</text>
<text text-anchor="middle" x="704.5" y="-433" font-family="Helvetica,sans-Serif" font-size="10.00">Collection::after</text>
</a>
</g>
</g>
<!-- Node53&#45;&gt;Node54 -->
<g id="edge44" class="edge">
<title>Node53&#45;&gt;Node54</title>
<path fill="none" stroke="midnightblue" d="M819.78,-449.86C806.33,-448.82 792.4,-447.74 779.1,-446.71"/>
<polygon fill="midnightblue" stroke="midnightblue" points="819.72,-453.36 829.96,-450.65 820.26,-446.39 819.72,-453.36"/>
</g>
<!-- Node56 -->
<g id="node45" class="node">
<title>Node56</title>
<g id="a_node45"><a xlink:href="classwmtk_1_1operations_1_1composite_1_1_project_operation.html#ac0aa2bc6e51b9d8f94fd5943627545dd" target="_top" xlink:title="returns an empty vector in case of failure">
<polygon fill="none" stroke="black" points="625,-563 625,-593 784,-593 784,-563 625,-563"/>
<text text-anchor="start" x="633" y="-581" font-family="Helvetica,sans-Serif" font-size="10.00">wmtk::operations::composite</text>
<text text-anchor="middle" x="704.5" y="-570" font-family="Helvetica,sans-Serif" font-size="10.00">::ProjectOperation::execute</text>
</a>
</g>
</g>
<!-- Node53&#45;&gt;Node56 -->
<g id="edge46" class="edge">
<title>Node53&#45;&gt;Node56</title>
<path fill="none" stroke="midnightblue" d="M847.84,-469.29C837.86,-473.5 828.02,-478.96 820,-486 794.59,-508.3 810.01,-531.4 784,-553 779.38,-556.84 774.16,-560.09 768.67,-562.84"/>
<polygon fill="midnightblue" stroke="midnightblue" points="849.32,-472.47 857.4,-465.62 846.81,-465.93 849.32,-472.47"/>
</g>
<!-- Node57 -->
<g id="node46" class="node">
<title>Node57</title>
<g id="a_node46"><a xlink:href="classwmtk_1_1_mesh.html#a2d38639fa705c42719431cdffe7885fb" target="_top" xlink:title=" ">
<polygon fill="none" stroke="black" points="634.5,-524.5 634.5,-543.5 774.5,-543.5 774.5,-524.5 634.5,-524.5"/>
<text text-anchor="middle" x="704.5" y="-531.5" font-family="Helvetica,sans-Serif" font-size="10.00">wmtk::Mesh::map_tuples</text>
</a>
</g>
</g>
<!-- Node53&#45;&gt;Node57 -->
<g id="edge48" class="edge">
<title>Node53&#45;&gt;Node57</title>
<path fill="none" stroke="midnightblue" d="M857.57,-469.09C845.14,-473.71 831.71,-479.42 820,-486 802.33,-495.93 802.21,-505.09 784,-514 775.28,-518.27 765.56,-521.69 756.01,-524.41"/>
<polygon fill="midnightblue" stroke="midnightblue" points="859.03,-472.28 867.27,-465.62 856.68,-465.69 859.03,-472.28"/>
</g>
<!-- Node58 -->
<g id="node47" class="node">
<title>Node58</title>
<g id="a_node47"><a xlink:href="classwmtk_1_1_mesh.html#abde493ad70eef5e38834fdf647a56c0b" target="_top" xlink:title="register a mesh as the child of this mesh">
<polygon fill="none" stroke="black" points="644.5,-475 644.5,-505 764.5,-505 764.5,-475 644.5,-475"/>
<text text-anchor="start" x="652.5" y="-493" font-family="Helvetica,sans-Serif" font-size="10.00">wmtk::Mesh::register</text>
<text text-anchor="middle" x="704.5" y="-482" font-family="Helvetica,sans-Serif" font-size="10.00">_child_mesh</text>
</a>
</g>
</g>
<!-- Node53&#45;&gt;Node58 -->
<g id="edge49" class="edge">
<title>Node53&#45;&gt;Node58</title>
<path fill="none" stroke="midnightblue" d="M834.98,-467.25C812.33,-471.23 786.97,-475.68 764.74,-479.59"/>
<polygon fill="midnightblue" stroke="midnightblue" points="835.6,-470.69 844.84,-465.52 834.39,-463.8 835.6,-470.69"/>
</g>
<!-- Node55 -->
<g id="node44" class="node">
<title>Node55</title>
<g id="a_node44"><a xlink:href="classwmtk_1_1operations_1_1_optimization_smoothing_1_1_w_m_t_k_problem.html#a656eb77b00a2c1bf2e2fd918b275078b" target="_top" xlink:title=" ">
<polygon fill="none" stroke="black" points="411.5,-394.5 411.5,-435.5 582.5,-435.5 582.5,-394.5 411.5,-394.5"/>
<text text-anchor="start" x="419.5" y="-423.5" font-family="Helvetica,sans-Serif" font-size="10.00">wmtk::operations::Optimization</text>
<text text-anchor="start" x="419.5" y="-412.5" font-family="Helvetica,sans-Serif" font-size="10.00">Smoothing::WMTKProblem::is</text>
<text text-anchor="middle" x="497" y="-401.5" font-family="Helvetica,sans-Serif" font-size="10.00">_step_valid</text>
</a>
</g>
</g>
<!-- Node54&#45;&gt;Node55 -->
<g id="edge45" class="edge">
<title>Node54&#45;&gt;Node55</title>
<path fill="none" stroke="midnightblue" d="M619.72,-430.4C607.49,-428.85 594.88,-427.26 582.64,-425.71"/>
<polygon fill="midnightblue" stroke="midnightblue" points="619.53,-433.9 629.89,-431.69 620.41,-426.96 619.53,-433.9"/>
</g>
<!-- Node58&#45;&gt;Node6 -->
<g id="edge50" class="edge">
<title>Node58&#45;&gt;Node6</title>
<path fill="none" stroke="midnightblue" d="M635.36,-507.02C631.63,-509.34 628.13,-511.99 625,-515 591.23,-547.43 624.34,-583.29 589,-614 525.9,-668.83 486.39,-633.95 405,-653 392.44,-655.94 379.17,-659.2 366.24,-662.45"/>
<polygon fill="midnightblue" stroke="midnightblue" points="637.26,-509.96 644.41,-502.14 633.95,-503.8 637.26,-509.96"/>
</g>
<!-- Node59 -->
<g id="node48" class="node">
<title>Node59</title>
<g id="a_node48"><a xlink:href="classwmtk_1_1components_1_1internal_1_1_multi_mesh_from_tag.html#ad18667b876fc81c8cfb79a408d632b25" target="_top" xlink:title="Create a multimesh where the child&#45;mesh is just a soup (no connectivity) of m_mesh.">
<polygon fill="none" stroke="black" points="420,-454.5 420,-495.5 574,-495.5 574,-454.5 420,-454.5"/>
<text text-anchor="start" x="428" y="-483.5" font-family="Helvetica,sans-Serif" font-size="10.00">wmtk::components::internal</text>
<text text-anchor="start" x="428" y="-472.5" font-family="Helvetica,sans-Serif" font-size="10.00">::MultiMeshFromTag::create</text>
<text text-anchor="middle" x="497" y="-461.5" font-family="Helvetica,sans-Serif" font-size="10.00">_substructure_soup</text>
</a>
</g>
</g>
<!-- Node58&#45;&gt;Node59 -->
<g id="edge51" class="edge">
<title>Node58&#45;&gt;Node59</title>
<path fill="none" stroke="midnightblue" d="M634.16,-484.94C614.94,-483.54 593.96,-482 574.36,-480.57"/>
<polygon fill="midnightblue" stroke="midnightblue" points="634.11,-488.44 644.34,-485.68 634.62,-481.46 634.11,-488.44"/>
</g>
<!-- Node60 -->
<g id="node49" class="node">
<title>Node60</title>
<g id="a_node49"><a xlink:href="classwmtk_1_1multimesh_1_1utils_1_1internal_1_1_tuple_tag.html#a89f54c784fb3d50bba75eb8d5db6ed8a" target="_top" xlink:title=" ">
<polygon fill="none" stroke="red" points="424,-553 424,-605 570,-605 570,-553 424,-553"/>
<text text-anchor="start" x="432" y="-593" font-family="Helvetica,sans-Serif" font-size="10.00">wmtk::multimesh::utils</text>
<text text-anchor="start" x="432" y="-582" font-family="Helvetica,sans-Serif" font-size="10.00">::internal::TupleTag::</text>
<text text-anchor="start" x="432" y="-571" font-family="Helvetica,sans-Serif" font-size="10.00">extract_and_register_child</text>
<text text-anchor="middle" x="497" y="-560" font-family="Helvetica,sans-Serif" font-size="10.00">_mesh_from_tag_handle</text>
</a>
</g>
</g>
<!-- Node58&#45;&gt;Node60 -->
<g id="edge53" class="edge">
<title>Node58&#45;&gt;Node60</title>
<path fill="none" stroke="midnightblue" d="M638.19,-508.81C633.65,-510.72 629.21,-512.78 625,-515 607.06,-524.44 606.6,-532.95 589,-543 582.95,-546.45 576.51,-549.73 569.95,-552.78"/>
<polygon fill="midnightblue" stroke="midnightblue" points="639.58,-512.02 647.6,-505.1 637.02,-505.51 639.58,-512.02"/>
</g>
<!-- Node69 -->
<g id="node50" class="node">
<title>Node69</title>
<g id="a_node50"><a xlink:href="namespacewmtk_1_1components.html#a2aa35ea56a54c5b65349ced551dd1429" target="_top" xlink:title=" ">
<polygon fill="none" stroke="red" points="424,-514.5 424,-533.5 570,-533.5 570,-514.5 424,-514.5"/>
<text text-anchor="middle" x="497" y="-521.5" font-family="Helvetica,sans-Serif" font-size="10.00">wmtk::components::fusion</text>
</a>
</g>
</g>
<!-- Node58&#45;&gt;Node69 -->
<g id="edge54" class="edge">
<title>Node58&#45;&gt;Node69</title>
<path fill="none" stroke="midnightblue" d="M634.34,-501.44C608.79,-505.67 580.12,-510.41 555.68,-514.46"/>
<polygon fill="midnightblue" stroke="midnightblue" points="635.04,-504.87 644.34,-499.79 633.9,-497.97 635.04,-504.87"/>
</g>
<!-- Node59&#45;&gt;Node6 -->
<g id="edge52" class="edge">
<title>Node59&#45;&gt;Node6</title>
<path fill="none" stroke="midnightblue" d="M411.3,-500.58C409.13,-501.98 407.02,-503.45 405,-505 349.08,-547.85 311.6,-625.49 296.08,-662.42"/>
<polygon fill="midnightblue" stroke="midnightblue" points="413.08,-503.6 419.97,-495.55 409.56,-497.54 413.08,-503.6"/>
</g>
</g>
</svg>
