<?xml version="1.0" encoding="UTF-8" standalone="no"?>
<!DOCTYPE svg PUBLIC "-//W3C//DTD SVG 1.1//EN"
 "http://www.w3.org/Graphics/SVG/1.1/DTD/svg11.dtd">
<!-- Generated by graphviz version 2.43.0 (0)
 -->
<!-- Title: wmtk::SimplicialComplex::k_ring Pages: 1 -->
<!--zoomable 659 -->
<svg id="main" version="1.1" xmlns="http://www.w3.org/2000/svg" xmlns:xlink="http://www.w3.org/1999/xlink" xml:space="preserve" onload="init(evt)">
<style type="text/css"><![CDATA[
.edge:hover path { stroke: red; }
.edge:hover polygon { stroke: red; fill: red; }
]]></style>
<script type="text/javascript"><![CDATA[
var edges = document.getElementsByTagName('g');
if (edges && edges.length) {
  for (var i=0;i<edges.length;i++) {
    if (edges[i].id.substr(0,4)=='edge') {
      edges[i].setAttribute('class','edge');
    }
  }
}
]]></script>
        <defs>
                <circle id="rim" cx="0" cy="0" r="7"/>
                <circle id="rim2" cx="0" cy="0" r="3.5"/>
                <g id="zoomPlus">
                        <use xlink:href="#rim" fill="#404040">
                                <set attributeName="fill" to="#808080" begin="zoomplus.mouseover" end="zoomplus.mouseout"/>
                        </use>
                        <path d="M-4,0h8M0,-4v8" fill="none" stroke="white" stroke-width="1.5" pointer-events="none"/>
                </g>
                <g id="zoomMin">
                        <use xlink:href="#rim" fill="#404040">
                                <set attributeName="fill" to="#808080" begin="zoomminus.mouseover" end="zoomminus.mouseout"/>
                        </use>
                        <path d="M-4,0h8" fill="none" stroke="white" stroke-width="1.5" pointer-events="none"/>
                </g>
                <g id="dirArrow">
                        <path fill="none" stroke="white" stroke-width="1.5" d="M0,-3.0v7 M-2.5,-0.5L0,-3.0L2.5,-0.5"/>
                </g>
               <g id="resetDef">
                       <use xlink:href="#rim2" fill="#404040">
                               <set attributeName="fill" to="#808080" begin="reset.mouseover" end="reset.mouseout"/>
                       </use>
               </g>
        </defs>

<script type="text/javascript">
var viewWidth = 2294;
var viewHeight = 659;
var sectionId = 'dynsection-21';
</script>
<script xlink:href="svgpan.js"/>
<svg id="graph" class="graph">
<g id="viewport">
<title>wmtk::SimplicialComplex::k_ring</title>
<!-- Node1 -->
<g id="node1" class="node">
<title>Node1</title>
<g id="a_node1"><a xlink:title=" ">
<polygon fill="#bfbfbf" stroke="black" points="0,-345.5 0,-375.5 142,-375.5 142,-345.5 0,-345.5"/>
<text text-anchor="start" x="8" y="-363.5" font-family="Helvetica,sans-Serif" font-size="10.00">wmtk::SimplicialComplex</text>
<text text-anchor="middle" x="71" y="-352.5" font-family="Helvetica,sans-Serif" font-size="10.00">::k_ring</text>
</a>
</g>
</g>
<!-- Node2 -->
<g id="node2" class="node">
<title>Node2</title>
<g id="a_node2"><a xlink:href="classwmtk_1_1_simplicial_complex.html#ac485f1d8c9d1ff676ce146af18768ad2" target="_top" xlink:title=" ">
<polygon fill="none" stroke="black" points="356,-393.5 356,-423.5 498,-423.5 498,-393.5 356,-393.5"/>
<text text-anchor="start" x="364" y="-411.5" font-family="Helvetica,sans-Serif" font-size="10.00">wmtk::SimplicialComplex</text>
<text text-anchor="middle" x="427" y="-400.5" font-family="Helvetica,sans-Serif" font-size="10.00">::get_simplices</text>
</a>
</g>
</g>
<!-- Node1&#45;&gt;Node2 -->
<g id="edge1" class="edge">
<title>Node1&#45;&gt;Node2</title>
<path fill="none" stroke="midnightblue" d="M129.2,-375.53C144.92,-379.24 162.05,-382.89 178,-385.5 233.68,-394.6 297.02,-400.4 345.75,-403.9"/>
<polygon fill="midnightblue" stroke="midnightblue" points="345.7,-407.4 355.92,-404.61 346.19,-400.42 345.7,-407.4"/>
</g>
<!-- Node3 -->
<g id="node3" class="node">
<title>Node3</title>
<g id="a_node3"><a xlink:href="classwmtk_1_1_simplicial_complex.html#acccf0a8d66efb7d537fd092cff86e8be" target="_top" xlink:title=" ">
<polygon fill="none" stroke="black" points="178,-345.5 178,-375.5 320,-375.5 320,-345.5 178,-345.5"/>
<text text-anchor="start" x="186" y="-363.5" font-family="Helvetica,sans-Serif" font-size="10.00">wmtk::SimplicialComplex</text>
<text text-anchor="middle" x="249" y="-352.5" font-family="Helvetica,sans-Serif" font-size="10.00">::unify_with_complex</text>
</a>
</g>
</g>
<!-- Node1&#45;&gt;Node3 -->
<g id="edge2" class="edge">
<title>Node1&#45;&gt;Node3</title>
<path fill="none" stroke="midnightblue" d="M142.07,-360.5C150.54,-360.5 159.25,-360.5 167.85,-360.5"/>
<polygon fill="midnightblue" stroke="midnightblue" points="167.89,-364 177.89,-360.5 167.89,-357 167.89,-364"/>
</g>
<!-- Node5 -->
<g id="node5" class="node">
<title>Node5</title>
<g id="a_node5"><a xlink:href="classwmtk_1_1_simplicial_complex.html#ad6f2299dab1019288f2ba92222432df3" target="_top" xlink:title="DEPRECATED get one ring vertex neighbors of vertex in t">
<polygon fill="none" stroke="black" points="178,-274.5 178,-304.5 320,-304.5 320,-274.5 178,-274.5"/>
<text text-anchor="start" x="186" y="-292.5" font-family="Helvetica,sans-Serif" font-size="10.00">wmtk::SimplicialComplex</text>
<text text-anchor="middle" x="249" y="-281.5" font-family="Helvetica,sans-Serif" font-size="10.00">::vertex_one_ring</text>
</a>
</g>
</g>
<!-- Node1&#45;&gt;Node5 -->
<g id="edge5" class="edge">
<title>Node1&#45;&gt;Node5</title>
<path fill="none" stroke="midnightblue" d="M109.33,-345.44C136.16,-334.62 172.53,-319.95 201.29,-308.34"/>
<polygon fill="midnightblue" stroke="midnightblue" points="202.76,-311.52 210.73,-304.54 200.15,-305.03 202.76,-311.52"/>
</g>
<!-- Node3&#45;&gt;Node2 -->
<g id="edge4" class="edge">
<title>Node3&#45;&gt;Node2</title>
<path fill="none" stroke="midnightblue" d="M305.2,-375.56C322.98,-380.4 342.84,-385.82 361.23,-390.84"/>
<polygon fill="midnightblue" stroke="midnightblue" points="360.42,-394.24 370.99,-393.5 362.26,-387.49 360.42,-394.24"/>
</g>
<!-- Node4 -->
<g id="node4" class="node">
<title>Node4</title>
<g id="a_node4"><a xlink:href="classwmtk_1_1_simplicial_complex.html#a014f63b75529b0ab5a59ad226ecf5ca9" target="_top" xlink:title="Add simplex to the complex if it is not already in it.">
<polygon fill="none" stroke="black" points="356,-344.5 356,-374.5 498,-374.5 498,-344.5 356,-344.5"/>
<text text-anchor="start" x="364" y="-362.5" font-family="Helvetica,sans-Serif" font-size="10.00">wmtk::SimplicialComplex</text>
<text text-anchor="middle" x="427" y="-351.5" font-family="Helvetica,sans-Serif" font-size="10.00">::add_simplex</text>
</a>
</g>
</g>
<!-- Node3&#45;&gt;Node4 -->
<g id="edge3" class="edge">
<title>Node3&#45;&gt;Node4</title>
<path fill="none" stroke="midnightblue" d="M320.07,-360.1C328.54,-360.05 337.25,-360 345.85,-359.96"/>
<polygon fill="midnightblue" stroke="midnightblue" points="345.91,-363.46 355.89,-359.9 345.87,-356.46 345.91,-363.46"/>
</g>
<!-- Node6 -->
<g id="node6" class="node">
<title>Node6</title>
<g id="a_node6"><a xlink:href="namespacewmtk_1_1simplex.html#a813ad1ddbf4ce22a7f0733d6bb2c1d99" target="_top" xlink:title=" ">
<polygon fill="none" stroke="black" points="370.5,-257 370.5,-276 483.5,-276 483.5,-257 370.5,-257"/>
<text text-anchor="middle" x="427" y="-264" font-family="Helvetica,sans-Serif" font-size="10.00">wmtk::simplex::link</text>
</a>
</g>
</g>
<!-- Node5&#45;&gt;Node6 -->
<g id="edge6" class="edge">
<title>Node5&#45;&gt;Node6</title>
<path fill="none" stroke="midnightblue" d="M320.07,-280.34C333.23,-278.62 346.95,-276.83 359.98,-275.13"/>
<polygon fill="midnightblue" stroke="midnightblue" points="360.8,-278.55 370.26,-273.78 359.89,-271.61 360.8,-278.55"/>
</g>
<!-- Node31 -->
<g id="node31" class="node">
<title>Node31</title>
<g id="a_node31"><a xlink:href="classwmtk_1_1simplex_1_1_simplex_collection.html#a50c54839e34c7b0df73b509fb1199128" target="_top" xlink:title="Return const reference to the simplex vector.">
<polygon fill="none" stroke="black" points="754,-0.5 754,-30.5 938,-30.5 938,-0.5 754,-0.5"/>
<text text-anchor="start" x="762" y="-18.5" font-family="Helvetica,sans-Serif" font-size="10.00">wmtk::simplex::SimplexCollection</text>
<text text-anchor="middle" x="846" y="-7.5" font-family="Helvetica,sans-Serif" font-size="10.00">::simplex_vector</text>
</a>
</g>
</g>
<!-- Node5&#45;&gt;Node31 -->
<g id="edge61" class="edge">
<title>Node5&#45;&gt;Node31</title>
<path fill="none" stroke="midnightblue" d="M277.07,-274.42C327.17,-246.71 438.03,-186.32 534,-140.5 630.11,-94.62 654.44,-83.32 754,-45.5 764.58,-41.48 775.97,-37.48 786.99,-33.76"/>
<polygon fill="midnightblue" stroke="midnightblue" points="788.16,-37.06 796.55,-30.59 785.95,-30.42 788.16,-37.06"/>
</g>
<!-- Node37 -->
<g id="node37" class="node">
<title>Node37</title>
<g id="a_node37"><a xlink:href="classwmtk_1_1simplex_1_1_simplex.html#a6e86adc6461e88a02fdcd969944b369a" target="_top" xlink:title=" ">
<polygon fill="none" stroke="black" points="359.5,-295.5 359.5,-325.5 494.5,-325.5 494.5,-295.5 359.5,-295.5"/>
<text text-anchor="start" x="367.5" y="-313.5" font-family="Helvetica,sans-Serif" font-size="10.00">wmtk::simplex::Simplex</text>
<text text-anchor="middle" x="427" y="-302.5" font-family="Helvetica,sans-Serif" font-size="10.00">::vertex</text>
</a>
</g>
</g>
<!-- Node5&#45;&gt;Node37 -->
<g id="edge62" class="edge">
<title>Node5&#45;&gt;Node37</title>
<path fill="none" stroke="midnightblue" d="M320.07,-297.86C329.67,-299.01 339.57,-300.19 349.29,-301.35"/>
<polygon fill="midnightblue" stroke="midnightblue" points="348.98,-304.84 359.33,-302.54 349.81,-297.88 348.98,-304.84"/>
</g>
<!-- Node7 -->
<g id="node7" class="node">
<title>Node7</title>
<g id="a_node7"><a xlink:href="classwmtk_1_1simplex_1_1_simplex_collection.html#a1e7079b3b75f70dd28c524556cab76cf" target="_top" xlink:title="Add simplex to the collection.">
<polygon fill="none" stroke="black" points="1194,-525 1194,-544 1402,-544 1402,-525 1194,-525"/>
<text text-anchor="middle" x="1298" y="-532" font-family="Helvetica,sans-Serif" font-size="10.00">wmtk::simplex::SimplexCollection::add</text>
</a>
</g>
</g>
<!-- Node6&#45;&gt;Node7 -->
<g id="edge7" class="edge">
<title>Node6&#45;&gt;Node7</title>
<path fill="none" stroke="midnightblue" d="M475.57,-276.01C483.41,-278.7 491.19,-282.13 498,-286.5 518.7,-299.77 515.27,-312.57 534,-328.5 700.87,-470.38 758.92,-509.08 974,-550.5 1065.19,-568.06 1173.38,-556.25 1238.53,-545.69"/>
<polygon fill="midnightblue" stroke="midnightblue" points="1239.32,-549.11 1248.61,-544.01 1238.17,-542.2 1239.32,-549.11"/>
</g>
<!-- Node8 -->
<g id="node8" class="node">
<title>Node8</title>
<g id="a_node8"><a xlink:href="namespacewmtk_1_1simplex.html#a702b75f60dd18122ad424205d175a7e7" target="_top" xlink:title=" ">
<polygon fill="none" stroke="black" points="550.5,-238 550.5,-257 701.5,-257 701.5,-238 550.5,-238"/>
<text text-anchor="middle" x="626" y="-245" font-family="Helvetica,sans-Serif" font-size="10.00">wmtk::simplex::closed_star</text>
</a>
</g>
</g>
<!-- Node6&#45;&gt;Node8 -->
<g id="edge8" class="edge">
<title>Node6&#45;&gt;Node8</title>
<path fill="none" stroke="midnightblue" d="M483.66,-261.13C501.3,-259.43 521.21,-257.51 540.4,-255.66"/>
<polygon fill="midnightblue" stroke="midnightblue" points="540.73,-259.14 550.35,-254.7 540.06,-252.18 540.73,-259.14"/>
</g>
<!-- Node9 -->
<g id="node9" class="node">
<title>Node9</title>
<g id="a_node9"><a xlink:href="namespacewmtk_1_1simplex.html#aee89641a0de7b5ddf8d15bf376f9d33b" target="_top" xlink:title="Returns all faces of a simplex.">
<polygon fill="none" stroke="black" points="785,-331 785,-350 907,-350 907,-331 785,-331"/>
<text text-anchor="middle" x="846" y="-338" font-family="Helvetica,sans-Serif" font-size="10.00">wmtk::simplex::faces</text>
</a>
</g>
</g>
<!-- Node6&#45;&gt;Node9 -->
<g id="edge57" class="edge">
<title>Node6&#45;&gt;Node9</title>
<path fill="none" stroke="midnightblue" d="M463.04,-276C474.25,-279.18 486.69,-282.85 498,-286.5 514.19,-291.73 517.47,-295.48 534,-299.5 615.33,-319.3 711.1,-330.1 774.66,-335.58"/>
<polygon fill="midnightblue" stroke="midnightblue" points="774.71,-339.09 784.96,-336.44 775.29,-332.12 774.71,-339.09"/>
</g>
<!-- Node26 -->
<g id="node26" class="node">
<title>Node26</title>
<g id="a_node26"><a xlink:href="classwmtk_1_1simplex_1_1_simplex_collection.html#ab318c99d54327383ff1b985bed043f3a" target="_top" xlink:title="Sort simplex vector and remove duplicates.">
<polygon fill="none" stroke="black" points="974,-243.5 974,-273.5 1158,-273.5 1158,-243.5 974,-243.5"/>
<text text-anchor="start" x="982" y="-261.5" font-family="Helvetica,sans-Serif" font-size="10.00">wmtk::simplex::SimplexCollection</text>
<text text-anchor="middle" x="1066" y="-250.5" font-family="Helvetica,sans-Serif" font-size="10.00">::sort_and_clean</text>
</a>
</g>
</g>
<!-- Node6&#45;&gt;Node26 -->
<g id="edge60" class="edge">
<title>Node6&#45;&gt;Node26</title>
<path fill="none" stroke="midnightblue" d="M483.86,-267.65C577.71,-269.32 772.95,-271.69 938,-266.5 946.33,-266.24 954.97,-265.88 963.64,-265.46"/>
<polygon fill="midnightblue" stroke="midnightblue" points="964,-268.94 973.81,-264.94 963.64,-261.95 964,-268.94"/>
</g>
<!-- Node6&#45;&gt;Node31 -->
<g id="edge59" class="edge">
<title>Node6&#45;&gt;Node31</title>
<path fill="none" stroke="midnightblue" d="M451.7,-256.96C472.98,-248.64 505.23,-236.67 534,-228.5 614.42,-205.68 657.83,-247.53 718,-189.5 765.48,-143.7 709.1,-93.83 754,-45.5 757.36,-41.88 761.17,-38.7 765.27,-35.9"/>
<polygon fill="midnightblue" stroke="midnightblue" points="767.25,-38.8 774.06,-30.68 763.67,-32.78 767.25,-38.8"/>
</g>
<!-- Node36 -->
<g id="node36" class="node">
<title>Node36</title>
<g id="a_node36"><a xlink:href="classwmtk_1_1simplex_1_1_simplex_collection.html#a592a38f5119ed654001d88d032bcea9c" target="_top" xlink:title="Get intersection of two simplex collections.">
<polygon fill="none" stroke="black" points="534,-150.5 534,-180.5 718,-180.5 718,-150.5 534,-150.5"/>
<text text-anchor="start" x="542" y="-168.5" font-family="Helvetica,sans-Serif" font-size="10.00">wmtk::simplex::SimplexCollection</text>
<text text-anchor="middle" x="626" y="-157.5" font-family="Helvetica,sans-Serif" font-size="10.00">::get_intersection</text>
</a>
</g>
</g>
<!-- Node6&#45;&gt;Node36 -->
<g id="edge58" class="edge">
<title>Node6&#45;&gt;Node36</title>
<path fill="none" stroke="midnightblue" d="M440.06,-256.81C459.06,-241.93 497.58,-213.29 534,-195.5 542.65,-191.27 552.05,-187.42 561.4,-184"/>
<polygon fill="midnightblue" stroke="midnightblue" points="562.84,-187.2 571.11,-180.58 560.51,-180.6 562.84,-187.2"/>
</g>
<!-- Node8&#45;&gt;Node7 -->
<g id="edge9" class="edge">
<title>Node8&#45;&gt;Node7</title>
<path fill="none" stroke="midnightblue" d="M634.49,-257.04C668.17,-299.12 811.19,-468.43 974,-525.5 1055.2,-553.96 1155.04,-551.55 1222.04,-545.04"/>
<polygon fill="midnightblue" stroke="midnightblue" points="1222.5,-548.51 1232.09,-544.01 1221.79,-541.55 1222.5,-548.51"/>
</g>
<!-- Node8&#45;&gt;Node9 -->
<g id="edge10" class="edge">
<title>Node8&#45;&gt;Node9</title>
<path fill="none" stroke="midnightblue" d="M649.51,-257.1C688.53,-273.75 768.82,-308 813.41,-327.02"/>
<polygon fill="midnightblue" stroke="midnightblue" points="812.04,-330.25 822.61,-330.95 814.79,-323.81 812.04,-330.25"/>
</g>
<!-- Node18 -->
<g id="node18" class="node">
<title>Node18</title>
<g id="a_node18"><a xlink:href="classwmtk_1_1simplex_1_1_simplex.html#a3650fd31ff1864285502dba66db3c73c" target="_top" xlink:title=" ">
<polygon fill="none" stroke="black" points="1648,-161.5 1648,-191.5 1783,-191.5 1783,-161.5 1648,-161.5"/>
<text text-anchor="start" x="1656" y="-179.5" font-family="Helvetica,sans-Serif" font-size="10.00">wmtk::simplex::Simplex</text>
<text text-anchor="middle" x="1715.5" y="-168.5" font-family="Helvetica,sans-Serif" font-size="10.00">::tuple</text>
</a>
</g>
</g>
<!-- Node8&#45;&gt;Node18 -->
<g id="edge56" class="edge">
<title>Node8&#45;&gt;Node18</title>
<path fill="none" stroke="midnightblue" d="M685.65,-237.93C696.95,-234.49 708.28,-229.83 718,-223.5 739.47,-209.53 732.12,-191.81 754,-178.5 874.42,-105.26 924.06,-116.5 1065,-116.5 1065,-116.5 1065,-116.5 1299,-116.5 1437.21,-116.5 1471.82,-127.89 1608,-151.5 1620.4,-153.65 1633.52,-156.36 1646.16,-159.2"/>
<polygon fill="midnightblue" stroke="midnightblue" points="1645.63,-162.67 1656.16,-161.5 1647.2,-155.85 1645.63,-162.67"/>
</g>
<!-- Node8&#45;&gt;Node26 -->
<g id="edge46" class="edge">
<title>Node8&#45;&gt;Node26</title>
<path fill="none" stroke="midnightblue" d="M701.8,-249.38C773.96,-251.19 883.74,-253.95 963.72,-255.96"/>
<polygon fill="midnightblue" stroke="midnightblue" points="963.72,-259.46 973.81,-256.21 963.9,-252.46 963.72,-259.46"/>
</g>
<!-- Node27 -->
<g id="node27" class="node">
<title>Node27</title>
<g id="a_node27"><a xlink:href="classwmtk_1_1_mesh.html#abbb1c54cfd6ec17f4730317ee5fab78d" target="_top" xlink:title=" ">
<polygon fill="none" stroke="black" points="1823,-72 1823,-91 1971,-91 1971,-72 1823,-72"/>
<text text-anchor="middle" x="1897" y="-79" font-family="Helvetica,sans-Serif" font-size="10.00">wmtk::Mesh::is_valid_slow</text>
</a>
</g>
</g>
<!-- Node8&#45;&gt;Node27 -->
<g id="edge41" class="edge">
<title>Node8&#45;&gt;Node27</title>
<path fill="none" stroke="midnightblue" d="M694.65,-237.94C703.25,-234.46 711.34,-229.78 718,-223.5 755.42,-188.2 713.57,-145.31 754,-113.5 909.79,9.07 1445.79,-56.39 1644,-53.5 1707.55,-52.57 1723.95,-45.53 1787,-53.5 1810.82,-56.51 1836.89,-63.08 1857.56,-69.1"/>
<polygon fill="midnightblue" stroke="midnightblue" points="1856.65,-72.49 1867.24,-72 1858.66,-65.78 1856.65,-72.49"/>
</g>
<!-- Node8&#45;&gt;Node31 -->
<g id="edge45" class="edge">
<title>Node8&#45;&gt;Node31</title>
<path fill="none" stroke="midnightblue" d="M697.16,-237.84C704.95,-234.34 712.17,-229.68 718,-223.5 773.38,-164.79 700.42,-105.86 754,-45.5 757.13,-41.98 760.68,-38.86 764.52,-36.12"/>
<polygon fill="midnightblue" stroke="midnightblue" points="766.67,-38.9 773.34,-30.67 762.99,-32.95 766.67,-38.9"/>
</g>
<!-- Node32 -->
<g id="node32" class="node">
<title>Node32</title>
<g id="a_node32"><a xlink:href="namespacewmtk_1_1simplex.html#a2c3de957dfd3781b47145fa5a3291a27" target="_top" xlink:title=" ">
<polygon fill="none" stroke="black" points="788,-188.5 788,-218.5 904,-218.5 904,-188.5 788,-188.5"/>
<text text-anchor="start" x="796" y="-206.5" font-family="Helvetica,sans-Serif" font-size="10.00">wmtk::simplex::top</text>
<text text-anchor="middle" x="846" y="-195.5" font-family="Helvetica,sans-Serif" font-size="10.00">_dimension_cofaces</text>
</a>
</g>
</g>
<!-- Node8&#45;&gt;Node32 -->
<g id="edge47" class="edge">
<title>Node8&#45;&gt;Node32</title>
<path fill="none" stroke="midnightblue" d="M674.3,-237.95C704.49,-231.86 744.09,-223.87 777.55,-217.11"/>
<polygon fill="midnightblue" stroke="midnightblue" points="778.61,-220.47 787.72,-215.06 777.22,-213.61 778.61,-220.47"/>
</g>
<!-- Node9&#45;&gt;Node7 -->
<g id="edge11" class="edge">
<title>Node9&#45;&gt;Node7</title>
<path fill="none" stroke="midnightblue" d="M851.6,-350.38C865.44,-378.84 909.72,-461.19 974,-496.5 1009.23,-515.85 1105.16,-525.43 1183.38,-530.12"/>
<polygon fill="midnightblue" stroke="midnightblue" points="1183.62,-533.64 1193.81,-530.73 1184.03,-526.65 1183.62,-533.64"/>
</g>
<!-- Node10 -->
<g id="node10" class="node">
<title>Node10</title>
<g id="a_node10"><a xlink:href="namespacewmtk_1_1simplex.html#a9dec91b832501228f5b8b05646d0b89d" target="_top" xlink:title="Returns a vector with all faces in the boundary of a simplex of the given dimension.">
<polygon fill="none" stroke="black" points="1005,-456.5 1005,-486.5 1127,-486.5 1127,-456.5 1005,-456.5"/>
<text text-anchor="start" x="1013" y="-474.5" font-family="Helvetica,sans-Serif" font-size="10.00">wmtk::simplex::faces</text>
<text text-anchor="middle" x="1066" y="-463.5" font-family="Helvetica,sans-Serif" font-size="10.00">_single_dimension</text>
</a>
</g>
</g>
<!-- Node9&#45;&gt;Node10 -->
<g id="edge12" class="edge">
<title>Node9&#45;&gt;Node10</title>
<path fill="none" stroke="midnightblue" d="M855.51,-350.12C874.58,-371.07 923.08,-421.06 974,-447.5 980.58,-450.92 987.69,-453.88 994.92,-456.43"/>
<polygon fill="midnightblue" stroke="midnightblue" points="994.25,-459.9 1004.84,-459.68 996.42,-453.24 994.25,-459.9"/>
</g>
<!-- Node13 -->
<g id="node13" class="node">
<title>Node13</title>
<g id="a_node13"><a xlink:href="classwmtk_1_1simplex_1_1_simplex.html#ad2cc0340a0772b7d6f03ba7a781d1163" target="_top" xlink:title=" ">
<polygon fill="none" stroke="black" points="1648,-336.5 1648,-366.5 1783,-366.5 1783,-336.5 1648,-336.5"/>
<text text-anchor="start" x="1656" y="-354.5" font-family="Helvetica,sans-Serif" font-size="10.00">wmtk::simplex::Simplex</text>
<text text-anchor="middle" x="1715.5" y="-343.5" font-family="Helvetica,sans-Serif" font-size="10.00">::primitive_type</text>
</a>
</g>
</g>
<!-- Node9&#45;&gt;Node13 -->
<g id="edge39" class="edge">
<title>Node9&#45;&gt;Node13</title>
<path fill="none" stroke="midnightblue" d="M907.31,-341.26C1061.04,-343.21 1467.38,-348.37 1637.68,-350.53"/>
<polygon fill="midnightblue" stroke="midnightblue" points="1637.78,-354.03 1647.82,-350.65 1637.87,-347.03 1637.78,-354.03"/>
</g>
<!-- Node22 -->
<g id="node22" class="node">
<title>Node22</title>
<g id="a_node22"><a xlink:href="namespacewmtk_1_1utils.html#ad4153e2c24f98b817e39406defdc9f7e" target="_top" xlink:title=" ">
<polygon fill="none" stroke="black" points="1005,-407.5 1005,-437.5 1127,-437.5 1127,-407.5 1005,-407.5"/>
<text text-anchor="start" x="1013" y="-425.5" font-family="Helvetica,sans-Serif" font-size="10.00">wmtk::utils::primitive</text>
<text text-anchor="middle" x="1066" y="-414.5" font-family="Helvetica,sans-Serif" font-size="10.00">_below</text>
</a>
</g>
</g>
<!-- Node9&#45;&gt;Node22 -->
<g id="edge34" class="edge">
<title>Node9&#45;&gt;Node22</title>
<path fill="none" stroke="midnightblue" d="M869.3,-350.18C894.51,-361.01 936.9,-378.81 974,-392.5 984.74,-396.46 996.29,-400.47 1007.43,-404.2"/>
<polygon fill="midnightblue" stroke="midnightblue" points="1006.49,-407.57 1017.08,-407.4 1008.69,-400.93 1006.49,-407.57"/>
</g>
<!-- Node23 -->
<g id="node23" class="node">
<title>Node23</title>
<g id="a_node23"><a xlink:href="namespacewmtk_1_1utils.html#a8dab5bd8df4c7c658413914f37210244" target="_top" xlink:title=" ">
<polygon fill="none" stroke="black" points="1237,-388.5 1237,-418.5 1359,-418.5 1359,-388.5 1237,-388.5"/>
<text text-anchor="start" x="1245" y="-406.5" font-family="Helvetica,sans-Serif" font-size="10.00">wmtk::utils::primitive</text>
<text text-anchor="middle" x="1298" y="-395.5" font-family="Helvetica,sans-Serif" font-size="10.00">_range</text>
</a>
</g>
</g>
<!-- Node9&#45;&gt;Node23 -->
<g id="edge38" class="edge">
<title>Node9&#45;&gt;Node23</title>
<path fill="none" stroke="midnightblue" d="M907.22,-348.93C990.04,-360.53 1138.79,-381.35 1226.64,-393.65"/>
<polygon fill="midnightblue" stroke="midnightblue" points="1226.39,-397.15 1236.78,-395.07 1227.36,-390.22 1226.39,-397.15"/>
</g>
<!-- Node9&#45;&gt;Node26 -->
<g id="edge40" class="edge">
<title>Node9&#45;&gt;Node26</title>
<path fill="none" stroke="midnightblue" d="M869.3,-330.82C894.51,-319.99 936.9,-302.19 974,-288.5 984.74,-284.54 996.29,-280.53 1007.43,-276.8"/>
<polygon fill="midnightblue" stroke="midnightblue" points="1008.69,-280.07 1017.08,-273.6 1006.49,-273.43 1008.69,-280.07"/>
</g>
<!-- Node10&#45;&gt;Node7 -->
<g id="edge13" class="edge">
<title>Node10&#45;&gt;Node7</title>
<path fill="none" stroke="midnightblue" d="M1121.8,-486.51C1161.63,-497.42 1214.89,-512.01 1252.19,-522.23"/>
<polygon fill="midnightblue" stroke="midnightblue" points="1251.7,-525.72 1262.27,-524.99 1253.55,-518.97 1251.7,-525.72"/>
</g>
<!-- Node11 -->
<g id="node11" class="node">
<title>Node11</title>
<g id="a_node11"><a xlink:href="namespacewmtk_1_1simplex.html#aedab544fbb3e4c417608c0b5371e94d9" target="_top" xlink:title=" ">
<polygon fill="none" stroke="black" points="1226.5,-265.5 1226.5,-295.5 1369.5,-295.5 1369.5,-265.5 1226.5,-265.5"/>
<text text-anchor="start" x="1234.5" y="-283.5" font-family="Helvetica,sans-Serif" font-size="10.00">wmtk::simplex::faces</text>
<text text-anchor="middle" x="1298" y="-272.5" font-family="Helvetica,sans-Serif" font-size="10.00">_single_dimension_tuples</text>
</a>
</g>
</g>
<!-- Node10&#45;&gt;Node11 -->
<g id="edge14" class="edge">
<title>Node10&#45;&gt;Node11</title>
<path fill="none" stroke="midnightblue" d="M1127.12,-463.16C1138.18,-459.63 1149.04,-454.61 1158,-447.5 1184.79,-426.24 1173.41,-406.8 1194,-379.5 1216.34,-349.87 1247.75,-321.05 1270,-302.23"/>
<polygon fill="midnightblue" stroke="midnightblue" points="1272.31,-304.85 1277.75,-295.76 1267.83,-299.48 1272.31,-304.85"/>
</g>
<!-- Node11&#45;&gt;Node9 -->
<g id="edge24" class="edge">
<title>Node11&#45;&gt;Node9</title>
<path fill="none" stroke="midnightblue" d="M1226.4,-289.91C1141.96,-301.17 1001.48,-319.9 917.21,-331.14"/>
<polygon fill="midnightblue" stroke="midnightblue" points="916.67,-327.68 907.22,-332.47 917.6,-334.62 916.67,-327.68"/>
</g>
<!-- Node12 -->
<g id="node12" class="node">
<title>Node12</title>
<g id="a_node12"><a xlink:href="namespacewmtk_1_1simplex.html#a71a3f68cd8c07a8b71f16701238253f1" target="_top" xlink:title=" ">
<polygon fill="none" stroke="black" points="1460.5,-255 1460.5,-274 1585.5,-274 1585.5,-255 1460.5,-255"/>
<text text-anchor="middle" x="1523" y="-262" font-family="Helvetica,sans-Serif" font-size="10.00">wmtk::simplex::edges</text>
</a>
</g>
</g>
<!-- Node11&#45;&gt;Node12 -->
<g id="edge15" class="edge">
<title>Node11&#45;&gt;Node12</title>
<path fill="none" stroke="midnightblue" d="M1369.56,-275.44C1395.24,-273.59 1424.29,-271.51 1450.09,-269.66"/>
<polygon fill="midnightblue" stroke="midnightblue" points="1450.45,-273.14 1460.18,-268.94 1449.95,-266.16 1450.45,-273.14"/>
</g>
<!-- Node11&#45;&gt;Node13 -->
<g id="edge25" class="edge">
<title>Node11&#45;&gt;Node13</title>
<path fill="none" stroke="midnightblue" d="M1369.54,-289.31C1432.35,-297.56 1526.63,-310.92 1608,-326.5 1619.8,-328.76 1632.28,-331.43 1644.37,-334.17"/>
<polygon fill="midnightblue" stroke="midnightblue" points="1643.89,-337.65 1654.42,-336.48 1645.46,-330.83 1643.89,-337.65"/>
</g>
<!-- Node19 -->
<g id="node19" class="node">
<title>Node19</title>
<g id="a_node19"><a xlink:href="classwmtk_1_1_mesh.html#abaf00438d0700358b160e310d69725c9" target="_top" xlink:title=" ">
<polygon fill="none" stroke="black" points="1438,-69 1438,-88 1608,-88 1608,-69 1438,-69"/>
<text text-anchor="middle" x="1523" y="-76" font-family="Helvetica,sans-Serif" font-size="10.00">wmtk::Mesh::top_simplex_type</text>
</a>
</g>
</g>
<!-- Node11&#45;&gt;Node19 -->
<g id="edge26" class="edge">
<title>Node11&#45;&gt;Node19</title>
<path fill="none" stroke="midnightblue" d="M1315.11,-265.23C1340.84,-240.91 1392.93,-191.98 1438,-151.5 1460.11,-131.64 1485.98,-109.29 1503.11,-94.61"/>
<polygon fill="midnightblue" stroke="midnightblue" points="1505.43,-97.23 1510.76,-88.07 1500.88,-91.91 1505.43,-97.23"/>
</g>
<!-- Node21 -->
<g id="node21" class="node">
<title>Node21</title>
<g id="a_node21"><a xlink:href="namespacewmtk_1_1simplex.html#a1942aba1c5db8f987a1b1535b64b3455" target="_top" xlink:title=" ">
<polygon fill="none" stroke="black" points="1456,-217 1456,-236 1590,-236 1590,-217 1456,-217"/>
<text text-anchor="middle" x="1523" y="-224" font-family="Helvetica,sans-Serif" font-size="10.00">wmtk::simplex::vertices</text>
</a>
</g>
</g>
<!-- Node11&#45;&gt;Node21 -->
<g id="edge28" class="edge">
<title>Node11&#45;&gt;Node21</title>
<path fill="none" stroke="midnightblue" d="M1357.42,-265.45C1382.24,-259.15 1411.5,-251.83 1438,-245.5 1447.93,-243.13 1458.53,-240.67 1468.74,-238.34"/>
<polygon fill="midnightblue" stroke="midnightblue" points="1469.81,-241.69 1478.79,-236.06 1468.26,-234.86 1469.81,-241.69"/>
</g>
<!-- Node12&#45;&gt;Node13 -->
<g id="edge16" class="edge">
<title>Node12&#45;&gt;Node13</title>
<path fill="none" stroke="midnightblue" d="M1574.31,-274.05C1585.89,-277.53 1597.8,-282.22 1608,-288.5 1628.09,-300.87 1624.23,-314.64 1644,-327.5 1646.44,-329.09 1648.99,-330.58 1651.62,-331.98"/>
<polygon fill="midnightblue" stroke="midnightblue" points="1650.28,-335.22 1660.81,-336.42 1653.33,-328.92 1650.28,-335.22"/>
</g>
<!-- Node14 -->
<g id="node14" class="node">
<title>Node14</title>
<g id="a_node14"><a xlink:href="classwmtk_1_1_mesh.html#a33805489402321155d4a1f7023faaf3a" target="_top" xlink:title=" ">
<polygon fill="none" stroke="black" points="1644,-211 1644,-230 1787,-230 1787,-211 1644,-211"/>
<text text-anchor="middle" x="1715.5" y="-218" font-family="Helvetica,sans-Serif" font-size="10.00">wmtk::Mesh::switch_edge</text>
</a>
</g>
</g>
<!-- Node12&#45;&gt;Node14 -->
<g id="edge17" class="edge">
<title>Node12&#45;&gt;Node14</title>
<path fill="none" stroke="midnightblue" d="M1566.32,-255C1579.66,-251.98 1594.45,-248.62 1608,-245.5 1626.33,-241.27 1646.42,-236.58 1664.17,-232.4"/>
<polygon fill="midnightblue" stroke="midnightblue" points="1665.38,-235.71 1674.31,-230.01 1663.78,-228.9 1665.38,-235.71"/>
</g>
<!-- Node16 -->
<g id="node16" class="node">
<title>Node16</title>
<g id="a_node16"><a xlink:href="classwmtk_1_1_mesh.html#a6ca480b3f16ac2aadc9887c42748e239" target="_top" xlink:title=" ">
<polygon fill="none" stroke="black" points="1645.5,-249 1645.5,-268 1785.5,-268 1785.5,-249 1645.5,-249"/>
<text text-anchor="middle" x="1715.5" y="-256" font-family="Helvetica,sans-Serif" font-size="10.00">wmtk::Mesh::switch_face</text>
</a>
</g>
</g>
<!-- Node12&#45;&gt;Node16 -->
<g id="edge19" class="edge">
<title>Node12&#45;&gt;Node16</title>
<path fill="none" stroke="midnightblue" d="M1585.59,-262.56C1601.34,-262.06 1618.5,-261.52 1635.02,-261"/>
<polygon fill="midnightblue" stroke="midnightblue" points="1635.31,-264.5 1645.2,-260.68 1635.09,-257.5 1635.31,-264.5"/>
</g>
<!-- Node17 -->
<g id="node17" class="node">
<title>Node17</title>
<g id="a_node17"><a xlink:href="classwmtk_1_1_mesh.html#aed90cad0755b0052b0ca4502e401bcd3" target="_top" xlink:title=" ">
<polygon fill="none" stroke="black" points="1658.5,-287.5 1658.5,-317.5 1772.5,-317.5 1772.5,-287.5 1658.5,-287.5"/>
<text text-anchor="start" x="1666.5" y="-305.5" font-family="Helvetica,sans-Serif" font-size="10.00">wmtk::Mesh::switch</text>
<text text-anchor="middle" x="1715.5" y="-294.5" font-family="Helvetica,sans-Serif" font-size="10.00">_vertex</text>
</a>
</g>
</g>
<!-- Node12&#45;&gt;Node17 -->
<g id="edge21" class="edge">
<title>Node12&#45;&gt;Node17</title>
<path fill="none" stroke="midnightblue" d="M1572.07,-274.09C1595.23,-278.71 1623.37,-284.32 1648.5,-289.33"/>
<polygon fill="midnightblue" stroke="midnightblue" points="1647.83,-292.77 1658.33,-291.29 1649.2,-285.91 1647.83,-292.77"/>
</g>
<!-- Node12&#45;&gt;Node18 -->
<g id="edge23" class="edge">
<title>Node12&#45;&gt;Node18</title>
<path fill="none" stroke="midnightblue" d="M1585.54,-255.61C1593.42,-253.05 1601.13,-249.75 1608,-245.5 1629.49,-232.21 1623.33,-216.04 1644,-201.5 1646.71,-199.6 1649.58,-197.82 1652.55,-196.17"/>
<polygon fill="midnightblue" stroke="midnightblue" points="1654.33,-199.2 1661.7,-191.59 1651.19,-192.94 1654.33,-199.2"/>
</g>
<!-- Node15 -->
<g id="node15" class="node">
<title>Node15</title>
<g id="a_node15"><a xlink:href="classwmtk_1_1_mesh.html#a965a8a24158c4aa8580c57ba09f885f7" target="_top" xlink:title="switch the orientation of the Tuple of the given dimension">
<polygon fill="none" stroke="black" points="1840,-243.5 1840,-273.5 1954,-273.5 1954,-243.5 1840,-243.5"/>
<text text-anchor="start" x="1848" y="-261.5" font-family="Helvetica,sans-Serif" font-size="10.00">wmtk::Mesh::switch</text>
<text text-anchor="middle" x="1897" y="-250.5" font-family="Helvetica,sans-Serif" font-size="10.00">_tuple</text>
</a>
</g>
</g>
<!-- Node14&#45;&gt;Node15 -->
<g id="edge18" class="edge">
<title>Node14&#45;&gt;Node15</title>
<path fill="none" stroke="midnightblue" d="M1761.8,-230.09C1782.42,-234.46 1807.24,-239.71 1829.9,-244.51"/>
<polygon fill="midnightblue" stroke="midnightblue" points="1829.28,-247.95 1839.79,-246.6 1830.73,-241.11 1829.28,-247.95"/>
</g>
<!-- Node16&#45;&gt;Node15 -->
<g id="edge20" class="edge">
<title>Node16&#45;&gt;Node15</title>
<path fill="none" stroke="midnightblue" d="M1785.64,-258.5C1800.11,-258.5 1815.33,-258.5 1829.68,-258.5"/>
<polygon fill="midnightblue" stroke="midnightblue" points="1829.96,-262 1839.96,-258.5 1829.96,-255 1829.96,-262"/>
</g>
<!-- Node17&#45;&gt;Node15 -->
<g id="edge22" class="edge">
<title>Node17&#45;&gt;Node15</title>
<path fill="none" stroke="midnightblue" d="M1772.8,-288.7C1790.93,-284.26 1811.18,-279.29 1829.95,-274.69"/>
<polygon fill="midnightblue" stroke="midnightblue" points="1831.02,-278.03 1839.9,-272.25 1829.35,-271.23 1831.02,-278.03"/>
</g>
<!-- Node20 -->
<g id="node20" class="node">
<title>Node20</title>
<g id="a_node20"><a xlink:href="classwmtk_1_1_mesh.html#afb47df0f355dc986263814c671fbe77e" target="_top" xlink:title=" ">
<polygon fill="none" stroke="black" points="1655,-63.5 1655,-93.5 1776,-93.5 1776,-63.5 1655,-63.5"/>
<text text-anchor="start" x="1663" y="-81.5" font-family="Helvetica,sans-Serif" font-size="10.00">wmtk::Mesh::top_cell</text>
<text text-anchor="middle" x="1715.5" y="-70.5" font-family="Helvetica,sans-Serif" font-size="10.00">_dimension</text>
</a>
</g>
</g>
<!-- Node19&#45;&gt;Node20 -->
<g id="edge27" class="edge">
<title>Node19&#45;&gt;Node20</title>
<path fill="none" stroke="midnightblue" d="M1608.11,-78.5C1620.29,-78.5 1632.72,-78.5 1644.58,-78.5"/>
<polygon fill="midnightblue" stroke="midnightblue" points="1644.84,-82 1654.84,-78.5 1644.84,-75 1644.84,-82"/>
</g>
<!-- Node21&#45;&gt;Node13 -->
<g id="edge29" class="edge">
<title>Node21&#45;&gt;Node13</title>
<path fill="none" stroke="midnightblue" d="M1590.13,-235.04C1596.58,-237.71 1602.69,-241.12 1608,-245.5 1638.7,-270.83 1614.68,-300.59 1644,-327.5 1645.28,-328.67 1646.61,-329.79 1648,-330.85"/>
<polygon fill="midnightblue" stroke="midnightblue" points="1646.13,-333.81 1656.42,-336.35 1649.96,-327.95 1646.13,-333.81"/>
</g>
<!-- Node21&#45;&gt;Node14 -->
<g id="edge30" class="edge">
<title>Node21&#45;&gt;Node14</title>
<path fill="none" stroke="midnightblue" d="M1590.09,-224.42C1604.24,-223.97 1619.33,-223.5 1633.95,-223.04"/>
<polygon fill="midnightblue" stroke="midnightblue" points="1634.1,-226.53 1643.98,-222.72 1633.88,-219.54 1634.1,-226.53"/>
</g>
<!-- Node21&#45;&gt;Node16 -->
<g id="edge31" class="edge">
<title>Node21&#45;&gt;Node16</title>
<path fill="none" stroke="midnightblue" d="M1580.64,-236.01C1601.75,-239.56 1625.92,-243.62 1647.85,-247.3"/>
<polygon fill="midnightblue" stroke="midnightblue" points="1647.31,-250.76 1657.75,-248.97 1648.47,-243.86 1647.31,-250.76"/>
</g>
<!-- Node21&#45;&gt;Node17 -->
<g id="edge32" class="edge">
<title>Node21&#45;&gt;Node17</title>
<path fill="none" stroke="midnightblue" d="M1583.62,-236.03C1592.05,-238.5 1600.42,-241.61 1608,-245.5 1627.04,-255.28 1625.57,-266.61 1644,-277.5 1647.58,-279.62 1651.38,-281.6 1655.27,-283.44"/>
<polygon fill="midnightblue" stroke="midnightblue" points="1653.92,-286.67 1664.48,-287.49 1656.74,-280.26 1653.92,-286.67"/>
</g>
<!-- Node21&#45;&gt;Node18 -->
<g id="edge33" class="edge">
<title>Node21&#45;&gt;Node18</title>
<path fill="none" stroke="midnightblue" d="M1560.28,-216.98C1584.82,-210.54 1617.96,-201.84 1647.24,-194.15"/>
<polygon fill="midnightblue" stroke="midnightblue" points="1648.22,-197.52 1657,-191.59 1646.44,-190.74 1648.22,-197.52"/>
</g>
<!-- Node22&#45;&gt;Node23 -->
<g id="edge35" class="edge">
<title>Node22&#45;&gt;Node23</title>
<path fill="none" stroke="midnightblue" d="M1127.13,-417.53C1157.64,-415.01 1194.87,-411.94 1226.69,-409.31"/>
<polygon fill="midnightblue" stroke="midnightblue" points="1227.14,-412.78 1236.82,-408.47 1226.57,-405.81 1227.14,-412.78"/>
</g>
<!-- Node24 -->
<g id="node24" class="node">
<title>Node24</title>
<g id="a_node24"><a xlink:href="namespacewmtk.html#ae1347939ca47e5c292201e0eedd2b4cb" target="_top" xlink:title="Get the primitive type corresponding to its unique integer id.">
<polygon fill="none" stroke="black" points="1465,-428.5 1465,-458.5 1581,-458.5 1581,-428.5 1465,-428.5"/>
<text text-anchor="start" x="1473" y="-446.5" font-family="Helvetica,sans-Serif" font-size="10.00">wmtk::get_primitive</text>
<text text-anchor="middle" x="1523" y="-435.5" font-family="Helvetica,sans-Serif" font-size="10.00">_type_from_id</text>
</a>
</g>
</g>
<!-- Node23&#45;&gt;Node24 -->
<g id="edge36" class="edge">
<title>Node23&#45;&gt;Node24</title>
<path fill="none" stroke="midnightblue" d="M1359.05,-414.27C1388.61,-419.57 1424.34,-425.98 1454.8,-431.45"/>
<polygon fill="midnightblue" stroke="midnightblue" points="1454.45,-434.94 1464.91,-433.26 1455.69,-428.05 1454.45,-434.94"/>
</g>
<!-- Node25 -->
<g id="node25" class="node">
<title>Node25</title>
<g id="a_node25"><a xlink:href="namespacewmtk.html#a086fd9be68bdeec5f8eda4fc73982e57" target="_top" xlink:title="Get a unique integer id corresponding to each primitive type.">
<polygon fill="none" stroke="black" points="1465,-379.5 1465,-409.5 1581,-409.5 1581,-379.5 1465,-379.5"/>
<text text-anchor="start" x="1473" y="-397.5" font-family="Helvetica,sans-Serif" font-size="10.00">wmtk::get_primitive</text>
<text text-anchor="middle" x="1523" y="-386.5" font-family="Helvetica,sans-Serif" font-size="10.00">_type_id</text>
</a>
</g>
</g>
<!-- Node23&#45;&gt;Node25 -->
<g id="edge37" class="edge">
<title>Node23&#45;&gt;Node25</title>
<path fill="none" stroke="midnightblue" d="M1359.05,-401.08C1388.61,-399.88 1424.34,-398.44 1454.8,-397.21"/>
<polygon fill="midnightblue" stroke="midnightblue" points="1455.06,-400.7 1464.91,-396.8 1454.78,-393.71 1455.06,-400.7"/>
</g>
<!-- Node28 -->
<g id="node28" class="node">
<title>Node28</title>
<g id="a_node28"><a xlink:href="classwmtk_1_1_mesh.html#ae6123da2ad5494edab108643c6cd549c" target="_top" xlink:title=" ">
<polygon fill="none" stroke="black" points="2007,-88.5 2007,-118.5 2137,-118.5 2137,-88.5 2007,-88.5"/>
<text text-anchor="start" x="2015" y="-106.5" font-family="Helvetica,sans-Serif" font-size="10.00">wmtk::Mesh::get_const</text>
<text text-anchor="middle" x="2072" y="-95.5" font-family="Helvetica,sans-Serif" font-size="10.00">_cell_hash_accessor</text>
</a>
</g>
</g>
<!-- Node27&#45;&gt;Node28 -->
<g id="edge42" class="edge">
<title>Node27&#45;&gt;Node28</title>
<path fill="none" stroke="midnightblue" d="M1971.12,-90.8C1979.67,-91.89 1988.4,-93 1996.96,-94.08"/>
<polygon fill="midnightblue" stroke="midnightblue" points="1996.55,-97.56 2006.91,-95.35 1997.44,-90.62 1996.55,-97.56"/>
</g>
<!-- Node30 -->
<g id="node30" class="node">
<title>Node30</title>
<g id="a_node30"><a xlink:href="classwmtk_1_1_mesh.html#ac776c6e8e9eb2811348bd124caf02622" target="_top" xlink:title="check validity of tuple including its hash">
<polygon fill="none" stroke="black" points="2012,-50 2012,-69 2132,-69 2132,-50 2012,-50"/>
<text text-anchor="middle" x="2072" y="-57" font-family="Helvetica,sans-Serif" font-size="10.00">wmtk::Mesh::is_valid</text>
</a>
</g>
</g>
<!-- Node27&#45;&gt;Node30 -->
<g id="edge44" class="edge">
<title>Node27&#45;&gt;Node30</title>
<path fill="none" stroke="midnightblue" d="M1971.12,-72.2C1981.28,-70.91 1991.7,-69.58 2001.8,-68.3"/>
<polygon fill="midnightblue" stroke="midnightblue" points="2002.28,-71.77 2011.76,-67.03 2001.4,-64.82 2002.28,-71.77"/>
</g>
<!-- Node29 -->
<g id="node29" class="node">
<title>Node29</title>
<g id="a_node29"><a xlink:href="classwmtk_1_1_mesh.html#a0a33a7e7fbfd7c9d5588f0a392783047" target="_top" xlink:title=" ">
<polygon fill="none" stroke="black" points="2173,-88.5 2173,-118.5 2286,-118.5 2286,-88.5 2173,-88.5"/>
<text text-anchor="start" x="2181" y="-106.5" font-family="Helvetica,sans-Serif" font-size="10.00">wmtk::Mesh::create</text>
<text text-anchor="middle" x="2229.5" y="-95.5" font-family="Helvetica,sans-Serif" font-size="10.00">_const_accessor</text>
</a>
</g>
</g>
<!-- Node28&#45;&gt;Node29 -->
<g id="edge43" class="edge">
<title>Node28&#45;&gt;Node29</title>
<path fill="none" stroke="midnightblue" d="M2137.15,-103.5C2145.59,-103.5 2154.26,-103.5 2162.73,-103.5"/>
<polygon fill="midnightblue" stroke="midnightblue" points="2162.94,-107 2172.94,-103.5 2162.94,-100 2162.94,-107"/>
</g>
<!-- Node32&#45;&gt;Node26 -->
<g id="edge48" class="edge">
<title>Node32&#45;&gt;Node26</title>
<path fill="none" stroke="midnightblue" d="M904.28,-217.95C932.27,-225.01 966.19,-233.57 995.64,-241"/>
<polygon fill="midnightblue" stroke="midnightblue" points="994.89,-244.42 1005.44,-243.47 996.6,-237.63 994.89,-244.42"/>
</g>
<!-- Node33 -->
<g id="node33" class="node">
<title>Node33</title>
<g id="a_node33"><a xlink:href="namespacewmtk_1_1simplex.html#a479fe685989f6c075a5ce1c52b5c4df3" target="_top" xlink:title=" ">
<polygon fill="none" stroke="black" points="1447.5,-161.5 1447.5,-191.5 1598.5,-191.5 1598.5,-161.5 1447.5,-161.5"/>
<text text-anchor="start" x="1455.5" y="-179.5" font-family="Helvetica,sans-Serif" font-size="10.00">wmtk::simplex::top</text>
<text text-anchor="middle" x="1523" y="-168.5" font-family="Helvetica,sans-Serif" font-size="10.00">_dimension_cofaces_tuples</text>
</a>
</g>
</g>
<!-- Node32&#45;&gt;Node33 -->
<g id="edge49" class="edge">
<title>Node32&#45;&gt;Node33</title>
<path fill="none" stroke="midnightblue" d="M898.42,-188.49C921.34,-182.55 948.8,-176.44 974,-173.5 1136.96,-154.51 1329.02,-162.47 1437.04,-169.68"/>
<polygon fill="midnightblue" stroke="midnightblue" points="1437.01,-173.19 1447.23,-170.38 1437.49,-166.2 1437.01,-173.19"/>
</g>
<!-- Node35 -->
<g id="node35" class="node">
<title>Node35</title>
<g id="a_node35"><a xlink:href="namespacewmtk_1_1simplex_1_1utils.html#abc97acf22bd5eb87df2b16ad3b372cfb" target="_top" xlink:title=" ">
<polygon fill="none" stroke="black" points="979.5,-183 979.5,-224 1152.5,-224 1152.5,-183 979.5,-183"/>
<text text-anchor="start" x="987.5" y="-212" font-family="Helvetica,sans-Serif" font-size="10.00">wmtk::simplex::utils</text>
<text text-anchor="start" x="987.5" y="-201" font-family="Helvetica,sans-Serif" font-size="10.00">::tuple_vector_to_homogeneous</text>
<text text-anchor="middle" x="1066" y="-190" font-family="Helvetica,sans-Serif" font-size="10.00">_simplex_vector</text>
</a>
</g>
</g>
<!-- Node32&#45;&gt;Node35 -->
<g id="edge55" class="edge">
<title>Node32&#45;&gt;Node35</title>
<path fill="none" stroke="midnightblue" d="M904.28,-203.5C924.19,-203.5 947.09,-203.5 969.26,-203.5"/>
<polygon fill="midnightblue" stroke="midnightblue" points="969.38,-207 979.38,-203.5 969.38,-200 969.38,-207"/>
</g>
<!-- Node33&#45;&gt;Node13 -->
<g id="edge52" class="edge">
<title>Node33&#45;&gt;Node13</title>
<path fill="none" stroke="midnightblue" d="M1585.94,-191.66C1594.14,-195.75 1601.83,-200.93 1608,-207.5 1646.13,-248.08 1605.36,-287.41 1644,-327.5 1644.93,-328.47 1645.91,-329.4 1646.92,-330.29"/>
<polygon fill="midnightblue" stroke="midnightblue" points="1645.15,-333.33 1655.28,-336.42 1649.29,-327.69 1645.15,-333.33"/>
</g>
<!-- Node33&#45;&gt;Node14 -->
<g id="edge53" class="edge">
<title>Node33&#45;&gt;Node14</title>
<path fill="none" stroke="midnightblue" d="M1589.03,-191.52C1613.34,-197.14 1640.59,-203.43 1663.47,-208.71"/>
<polygon fill="midnightblue" stroke="midnightblue" points="1662.78,-212.15 1673.32,-210.99 1664.36,-205.33 1662.78,-212.15"/>
</g>
<!-- Node33&#45;&gt;Node18 -->
<g id="edge54" class="edge">
<title>Node33&#45;&gt;Node18</title>
<path fill="none" stroke="midnightblue" d="M1598.74,-176.5C1611.49,-176.5 1624.76,-176.5 1637.56,-176.5"/>
<polygon fill="midnightblue" stroke="midnightblue" points="1637.71,-180 1647.71,-176.5 1637.71,-173 1637.71,-180"/>
</g>
<!-- Node34 -->
<g id="node34" class="node">
<title>Node34</title>
<g id="a_node34"><a xlink:href="classwmtk_1_1_edge_mesh.html#a7423c40cccd7e240dfa9bd0b5c0e3185" target="_top" xlink:title=" ">
<polygon fill="none" stroke="black" points="1658,-112.5 1658,-142.5 1773,-142.5 1773,-112.5 1658,-112.5"/>
<text text-anchor="start" x="1666" y="-130.5" font-family="Helvetica,sans-Serif" font-size="10.00">wmtk::EdgeMesh::is</text>
<text text-anchor="middle" x="1715.5" y="-119.5" font-family="Helvetica,sans-Serif" font-size="10.00">_boundary_vertex</text>
</a>
</g>
</g>
<!-- Node33&#45;&gt;Node34 -->
<g id="edge50" class="edge">
<title>Node33&#45;&gt;Node34</title>
<path fill="none" stroke="midnightblue" d="M1582.45,-161.47C1603.13,-156.15 1626.54,-150.12 1647.85,-144.64"/>
<polygon fill="midnightblue" stroke="midnightblue" points="1648.98,-147.97 1657.79,-142.09 1647.24,-141.19 1648.98,-147.97"/>
</g>
<!-- Node34&#45;&gt;Node27 -->
<g id="edge51" class="edge">
<title>Node34&#45;&gt;Node27</title>
<path fill="none" stroke="midnightblue" d="M1773.29,-112.95C1797.63,-106.71 1825.72,-99.51 1848.88,-93.58"/>
<polygon fill="midnightblue" stroke="midnightblue" points="1849.99,-96.9 1858.81,-91.03 1848.25,-90.12 1849.99,-96.9"/>
</g>
<!-- Node38 -->
<g id="node38" class="node">
<title>Node38</title>
<g id="a_node38"><a xlink:href="classwmtk_1_1simplex_1_1_simplex.html#a70b28172ba5ef1d6fc1e4727a0e2211f" target="_top" xlink:title=" ">
<polygon fill="none" stroke="black" points="558.5,-620.5 558.5,-650.5 693.5,-650.5 693.5,-620.5 558.5,-620.5"/>
<text text-anchor="start" x="566.5" y="-638.5" font-family="Helvetica,sans-Serif" font-size="10.00">wmtk::simplex::Simplex</text>
<text text-anchor="middle" x="626" y="-627.5" font-family="Helvetica,sans-Serif" font-size="10.00">::Simplex</text>
</a>
</g>
</g>
<!-- Node37&#45;&gt;Node38 -->
<g id="edge63" class="edge">
<title>Node37&#45;&gt;Node38</title>
<path fill="none" stroke="midnightblue" d="M486.8,-325.5C491.01,-328.29 494.83,-331.59 498,-335.5 574.14,-429.62 456.71,-512.32 534,-605.5 538.35,-610.75 543.64,-615.08 549.46,-618.67"/>
<polygon fill="midnightblue" stroke="midnightblue" points="547.84,-621.77 558.31,-623.39 551.14,-615.6 547.84,-621.77"/>
</g>
</g>
</svg>
        <g id="navigator" transform="translate(0 0)" fill="#404254">
                <rect fill="#f2f5e9" fill-opacity="0.5" stroke="#606060" stroke-width=".5" x="0" y="0" width="60" height="60"/>
                <use id="zoomplus" xlink:href="#zoomPlus" x="17" y="9" onmousedown="handleZoom(evt,'in')"/>
                <use id="zoomminus" xlink:href="#zoomMin" x="42" y="9" onmousedown="handleZoom(evt,'out')"/>
                <use id="reset" xlink:href="#resetDef" x="30" y="36" onmousedown="handleReset()"/>
                <g id="arrowUp" xlink:href="#dirArrow" transform="translate(30 24)" onmousedown="handlePan(0,-1)">
                  <use xlink:href="#rim" fill="#404040">
                        <set attributeName="fill" to="#808080" begin="arrowUp.mouseover" end="arrowUp.mouseout"/>
                  </use>
                  <path fill="none" stroke="white" stroke-width="1.5" d="M0,-3.0v7 M-2.5,-0.5L0,-3.0L2.5,-0.5"/>
                </g>
                <g id="arrowRight" xlink:href="#dirArrow" transform="rotate(90) translate(36 -43)" onmousedown="handlePan(1,0)">
                  <use xlink:href="#rim" fill="#404040">
                        <set attributeName="fill" to="#808080" begin="arrowRight.mouseover" end="arrowRight.mouseout"/>
                  </use>
                  <path fill="none" stroke="white" stroke-width="1.5" d="M0,-3.0v7 M-2.5,-0.5L0,-3.0L2.5,-0.5"/>
                </g>
                <g id="arrowDown" xlink:href="#dirArrow" transform="rotate(180) translate(-30 -48)" onmousedown="handlePan(0,1)">
                  <use xlink:href="#rim" fill="#404040">
                        <set attributeName="fill" to="#808080" begin="arrowDown.mouseover" end="arrowDown.mouseout"/>
                  </use>
                  <path fill="none" stroke="white" stroke-width="1.5" d="M0,-3.0v7 M-2.5,-0.5L0,-3.0L2.5,-0.5"/>
                </g>
                <g id="arrowLeft" xlink:href="#dirArrow" transform="rotate(270) translate(-36 17)" onmousedown="handlePan(-1,0)">
                  <use xlink:href="#rim" fill="#404040">
                        <set attributeName="fill" to="#808080" begin="arrowLeft.mouseover" end="arrowLeft.mouseout"/>
                  </use>
                  <path fill="none" stroke="white" stroke-width="1.5" d="M0,-3.0v7 M-2.5,-0.5L0,-3.0L2.5,-0.5"/>
                </g>
        </g>
        <svg viewBox="0 0 15 15" width="100%" height="30px" preserveAspectRatio="xMaxYMin meet">
         <g id="arrow_out" transform="scale(0.3 0.3)">
          <a xlink:href="classwmtk_1_1_simplicial_complex_a2ab031f40e0079898ff3314404b2c3ca_cgraph_org.svg" target="_base">
           <rect id="button" ry="5" rx="5" y="6" x="6" height="38" width="38"
                fill="#f2f5e9" fill-opacity="0.5" stroke="#606060" stroke-width="1.0"/>
           <path id="arrow"
             d="M 11.500037,31.436501 C 11.940474,20.09759 22.043105,11.32322 32.158766,21.979434 L 37.068811,17.246167 C 37.068811,17.246167 37.088388,32 37.088388,32 L 22.160133,31.978069 C 22.160133,31.978069 26.997745,27.140456 26.997745,27.140456 C 18.528582,18.264221 13.291696,25.230495 11.500037,31.436501 z"
             style="fill:#404040;"/>
          </a>
         </g>
        </svg>
</svg>
