<?xml version="1.0" encoding="UTF-8" standalone="no"?>
<!DOCTYPE svg PUBLIC "-//W3C//DTD SVG 1.1//EN"
 "http://www.w3.org/Graphics/SVG/1.1/DTD/svg11.dtd">
<!-- Generated by graphviz version 2.43.0 (0)
 -->
<!-- Title: wmtk::invariants::Invariant::directly_modified_after Pages: 1 -->
<!--zoomable 660 -->
<svg id="main" version="1.1" xmlns="http://www.w3.org/2000/svg" xmlns:xlink="http://www.w3.org/1999/xlink" xml:space="preserve" onload="init(evt)">
<style type="text/css"><![CDATA[
.edge:hover path { stroke: red; }
.edge:hover polygon { stroke: red; fill: red; }
]]></style>
<script type="text/javascript"><![CDATA[
var edges = document.getElementsByTagName('g');
if (edges && edges.length) {
  for (var i=0;i<edges.length;i++) {
    if (edges[i].id.substr(0,4)=='edge') {
      edges[i].setAttribute('class','edge');
    }
  }
}
]]></script>
        <defs>
                <circle id="rim" cx="0" cy="0" r="7"/>
                <circle id="rim2" cx="0" cy="0" r="3.5"/>
                <g id="zoomPlus">
                        <use xlink:href="#rim" fill="#404040">
                                <set attributeName="fill" to="#808080" begin="zoomplus.mouseover" end="zoomplus.mouseout"/>
                        </use>
                        <path d="M-4,0h8M0,-4v8" fill="none" stroke="white" stroke-width="1.5" pointer-events="none"/>
                </g>
                <g id="zoomMin">
                        <use xlink:href="#rim" fill="#404040">
                                <set attributeName="fill" to="#808080" begin="zoomminus.mouseover" end="zoomminus.mouseout"/>
                        </use>
                        <path d="M-4,0h8" fill="none" stroke="white" stroke-width="1.5" pointer-events="none"/>
                </g>
                <g id="dirArrow">
                        <path fill="none" stroke="white" stroke-width="1.5" d="M0,-3.0v7 M-2.5,-0.5L0,-3.0L2.5,-0.5"/>
                </g>
               <g id="resetDef">
                       <use xlink:href="#rim2" fill="#404040">
                               <set attributeName="fill" to="#808080" begin="reset.mouseover" end="reset.mouseout"/>
                       </use>
               </g>
        </defs>

<script type="text/javascript">
var viewWidth = 2130;
var viewHeight = 660;
var sectionId = 'dynsection-4';
</script>
<script xlink:href="svgpan.js"/>
<svg id="graph" class="graph">
<g id="viewport">
<title>wmtk::invariants::Invariant::directly_modified_after</title>
<!-- Node1 -->
<g id="node1" class="node">
<title>Node1</title>
<g id="a_node1"><a xlink:title=" ">
<polygon fill="#bfbfbf" stroke="black" points="0,-338 0,-368 149,-368 149,-338 0,-338"/>
<text text-anchor="start" x="8" y="-356" font-family="Helvetica,sans-Serif" font-size="10.00">wmtk::invariants::Invariant</text>
<text text-anchor="middle" x="74.5" y="-345" font-family="Helvetica,sans-Serif" font-size="10.00">::directly_modified_after</text>
</a>
</g>
</g>
<!-- Node2 -->
<g id="node2" class="node">
<title>Node2</title>
<g id="a_node2"><a xlink:href="classwmtk_1_1invariants_1_1_invariant.html#aeb4f932816cd79ab4591db6808f6446a" target="_top" xlink:title=" ">
<polygon fill="none" stroke="black" points="189.5,-459 189.5,-489 338.5,-489 338.5,-459 189.5,-459"/>
<text text-anchor="start" x="197.5" y="-477" font-family="Helvetica,sans-Serif" font-size="10.00">wmtk::invariants::Invariant</text>
<text text-anchor="middle" x="264" y="-466" font-family="Helvetica,sans-Serif" font-size="10.00">::after</text>
</a>
</g>
</g>
<!-- Node1&#45;&gt;Node2 -->
<g id="edge1" class="edge">
<title>Node1&#45;&gt;Node2</title>
<path fill="none" stroke="midnightblue" d="M88.5,-368.01C107.62,-389.18 145.36,-427.74 185,-450 188.22,-451.81 191.58,-453.49 195.04,-455.07"/>
<polygon fill="midnightblue" stroke="midnightblue" points="193.78,-458.33 204.35,-458.97 196.48,-451.88 193.78,-458.33"/>
</g>
<!-- Node3 -->
<g id="node3" class="node">
<title>Node3</title>
<g id="a_node3"><a xlink:href="classwmtk_1_1invariants_1_1_invariant.html#a73041de6196a1d4b139741180a05c91d" target="_top" xlink:title=" ">
<polygon fill="none" stroke="black" points="185,-410 185,-440 343,-440 343,-410 185,-410"/>
<text text-anchor="start" x="193" y="-428" font-family="Helvetica,sans-Serif" font-size="10.00">wmtk::invariants::Invariant</text>
<text text-anchor="middle" x="264" y="-417" font-family="Helvetica,sans-Serif" font-size="10.00">::get_top_dimension_cofaces</text>
</a>
</g>
</g>
<!-- Node1&#45;&gt;Node3 -->
<g id="edge2" class="edge">
<title>Node1&#45;&gt;Node3</title>
<path fill="none" stroke="midnightblue" d="M108.23,-368.02C129.82,-377.68 158.84,-390.22 185,-400 191.03,-402.26 197.37,-404.49 203.72,-406.65"/>
<polygon fill="midnightblue" stroke="midnightblue" points="203.06,-410.12 213.66,-409.97 205.28,-403.48 203.06,-410.12"/>
</g>
<!-- Node39 -->
<g id="node39" class="node">
<title>Node39</title>
<g id="a_node39"><a xlink:href="classwmtk_1_1_mesh.html#ac5778c1f8afef3a2b1b1c33a140b3166" target="_top" xlink:title="Evaluate the passed in function inside the parent scope.">
<polygon fill="none" stroke="black" points="207,-360 207,-390 321,-390 321,-360 207,-360"/>
<text text-anchor="start" x="215" y="-378" font-family="Helvetica,sans-Serif" font-size="10.00">wmtk::Mesh::parent</text>
<text text-anchor="middle" x="264" y="-367" font-family="Helvetica,sans-Serif" font-size="10.00">_scope</text>
</a>
</g>
</g>
<!-- Node1&#45;&gt;Node39 -->
<g id="edge50" class="edge">
<title>Node1&#45;&gt;Node39</title>
<path fill="none" stroke="midnightblue" d="M149.07,-361.63C164.8,-363.48 181.34,-365.42 196.78,-367.23"/>
<polygon fill="midnightblue" stroke="midnightblue" points="196.41,-370.71 206.75,-368.4 197.23,-363.76 196.41,-370.71"/>
</g>
<!-- Node40 -->
<g id="node40" class="node">
<title>Node40</title>
<g id="a_node40"><a xlink:href="classwmtk_1_1invariants_1_1_invariant.html#a87f3f3aee0bb8eb24470df18aab5fe50" target="_top" xlink:title=" ">
<polygon fill="none" stroke="black" points="189.5,-272 189.5,-302 338.5,-302 338.5,-272 189.5,-272"/>
<text text-anchor="start" x="197.5" y="-290" font-family="Helvetica,sans-Serif" font-size="10.00">wmtk::invariants::Invariant</text>
<text text-anchor="middle" x="264" y="-279" font-family="Helvetica,sans-Serif" font-size="10.00">::use_after</text>
</a>
</g>
</g>
<!-- Node1&#45;&gt;Node40 -->
<g id="edge51" class="edge">
<title>Node1&#45;&gt;Node40</title>
<path fill="none" stroke="midnightblue" d="M118.52,-337.86C145.91,-328.22 181.57,-315.66 210.61,-305.44"/>
<polygon fill="midnightblue" stroke="midnightblue" points="211.91,-308.69 220.18,-302.07 209.59,-302.09 211.91,-308.69"/>
</g>
<!-- Node41 -->
<g id="node41" class="node">
<title>Node41</title>
<g id="a_node41"><a xlink:href="classwmtk_1_1invariants_1_1_invariant.html#a497379c6c71970345a2d3e28ec90c8db" target="_top" xlink:title=" ">
<polygon fill="none" stroke="black" points="396.5,-273 396.5,-303 545.5,-303 545.5,-273 396.5,-273"/>
<text text-anchor="start" x="404.5" y="-291" font-family="Helvetica,sans-Serif" font-size="10.00">wmtk::invariants::Invariant</text>
<text text-anchor="middle" x="471" y="-280" font-family="Helvetica,sans-Serif" font-size="10.00">::use_new_state_in_after</text>
</a>
</g>
</g>
<!-- Node1&#45;&gt;Node41 -->
<g id="edge54" class="edge">
<title>Node1&#45;&gt;Node41</title>
<path fill="none" stroke="midnightblue" d="M149.13,-342.42C202.92,-334.51 277.59,-323.19 343,-312 357.02,-309.6 371.88,-306.92 386.3,-304.24"/>
<polygon fill="midnightblue" stroke="midnightblue" points="387.02,-307.67 396.21,-302.39 385.73,-300.79 387.02,-307.67"/>
</g>
<!-- Node42 -->
<g id="node42" class="node">
<title>Node42</title>
<g id="a_node42"><a xlink:href="classwmtk_1_1invariants_1_1_invariant.html#a364df47f8d70f0e89149d56db8963461" target="_top" xlink:title=" ">
<polygon fill="none" stroke="black" points="396.5,-224 396.5,-254 545.5,-254 545.5,-224 396.5,-224"/>
<text text-anchor="start" x="404.5" y="-242" font-family="Helvetica,sans-Serif" font-size="10.00">wmtk::invariants::Invariant</text>
<text text-anchor="middle" x="471" y="-231" font-family="Helvetica,sans-Serif" font-size="10.00">::use_old_state_in_after</text>
</a>
</g>
</g>
<!-- Node1&#45;&gt;Node42 -->
<g id="edge55" class="edge">
<title>Node1&#45;&gt;Node42</title>
<path fill="none" stroke="midnightblue" d="M88.14,-337.79C106.82,-316.53 144.03,-278.7 185,-262 248.96,-235.93 327.59,-231.41 386.05,-232.71"/>
<polygon fill="midnightblue" stroke="midnightblue" points="386.26,-236.22 396.35,-233 386.46,-229.22 386.26,-236.22"/>
</g>
<!-- Node4 -->
<g id="node4" class="node">
<title>Node4</title>
<g id="a_node4"><a xlink:href="classwmtk_1_1simplex_1_1_simplex_collection.html#a1e7079b3b75f70dd28c524556cab76cf" target="_top" xlink:title="Add simplex to the collection.">
<polygon fill="none" stroke="black" points="819,-237.5 819,-256.5 1027,-256.5 1027,-237.5 819,-237.5"/>
<text text-anchor="middle" x="923" y="-244.5" font-family="Helvetica,sans-Serif" font-size="10.00">wmtk::simplex::SimplexCollection::add</text>
</a>
</g>
</g>
<!-- Node3&#45;&gt;Node4 -->
<g id="edge3" class="edge">
<title>Node3&#45;&gt;Node4</title>
<path fill="none" stroke="midnightblue" d="M317.62,-409.87C326.22,-406.9 334.95,-403.59 343,-400 359.92,-392.46 361.87,-386.04 379,-379 538.31,-313.56 737.79,-275.41 845.12,-258.16"/>
<polygon fill="midnightblue" stroke="midnightblue" points="845.88,-261.58 855.21,-256.56 844.79,-254.67 845.88,-261.58"/>
</g>
<!-- Node5 -->
<g id="node5" class="node">
<title>Node5</title>
<g id="a_node5"><a xlink:href="classwmtk_1_1invariants_1_1_invariant.html#ac97548bf5f1167cd85081d1bde011139" target="_top" xlink:title=" ">
<polygon fill="none" stroke="black" points="396.5,-621 396.5,-651 545.5,-651 545.5,-621 396.5,-621"/>
<text text-anchor="start" x="404.5" y="-639" font-family="Helvetica,sans-Serif" font-size="10.00">wmtk::invariants::Invariant</text>
<text text-anchor="middle" x="471" y="-628" font-family="Helvetica,sans-Serif" font-size="10.00">::mesh</text>
</a>
</g>
</g>
<!-- Node3&#45;&gt;Node5 -->
<g id="edge4" class="edge">
<title>Node3&#45;&gt;Node5</title>
<path fill="none" stroke="midnightblue" d="M330.8,-440.05C335.3,-442.83 339.45,-446.11 343,-450 392.71,-504.48 327.88,-558.83 379,-612 381.65,-614.75 384.57,-617.2 387.69,-619.38"/>
<polygon fill="midnightblue" stroke="midnightblue" points="386.01,-622.45 396.39,-624.54 389.58,-616.43 386.01,-622.45"/>
</g>
<!-- Node6 -->
<g id="node6" class="node">
<title>Node6</title>
<g id="a_node6"><a xlink:href="classwmtk_1_1simplex_1_1_simplex_collection.html#a50c54839e34c7b0df73b509fb1199128" target="_top" xlink:title="Return const reference to the simplex vector.">
<polygon fill="none" stroke="black" points="379,-572 379,-602 563,-602 563,-572 379,-572"/>
<text text-anchor="start" x="387" y="-590" font-family="Helvetica,sans-Serif" font-size="10.00">wmtk::simplex::SimplexCollection</text>
<text text-anchor="middle" x="471" y="-579" font-family="Helvetica,sans-Serif" font-size="10.00">::simplex_vector</text>
</a>
</g>
</g>
<!-- Node3&#45;&gt;Node6 -->
<g id="edge5" class="edge">
<title>Node3&#45;&gt;Node6</title>
<path fill="none" stroke="midnightblue" d="M330.05,-440.19C334.78,-442.94 339.18,-446.18 343,-450 380.24,-487.3 340.8,-526.68 379,-563 380.11,-564.06 381.26,-565.07 382.45,-566.03"/>
<polygon fill="midnightblue" stroke="midnightblue" points="380.55,-568.98 390.76,-571.81 384.55,-563.23 380.55,-568.98"/>
</g>
<!-- Node7 -->
<g id="node7" class="node">
<title>Node7</title>
<g id="a_node7"><a xlink:href="classwmtk_1_1simplex_1_1_simplex_collection.html#ad76f1f147d2ef6b62c6aff05070464bd" target="_top" xlink:title="Return vector of all simplices of the requested type, as tuples.">
<polygon fill="none" stroke="black" points="379,-523 379,-553 563,-553 563,-523 379,-523"/>
<text text-anchor="start" x="387" y="-541" font-family="Helvetica,sans-Serif" font-size="10.00">wmtk::simplex::SimplexCollection</text>
<text text-anchor="middle" x="471" y="-530" font-family="Helvetica,sans-Serif" font-size="10.00">::simplex_vector_tuples</text>
</a>
</g>
</g>
<!-- Node3&#45;&gt;Node7 -->
<g id="edge6" class="edge">
<title>Node3&#45;&gt;Node7</title>
<path fill="none" stroke="midnightblue" d="M326.73,-440.12C332.53,-442.89 338.07,-446.15 343,-450 366.92,-468.67 355.16,-489.23 379,-508 384.06,-511.98 389.67,-515.45 395.55,-518.46"/>
<polygon fill="midnightblue" stroke="midnightblue" points="394.43,-521.8 404.97,-522.83 397.37,-515.45 394.43,-521.8"/>
</g>
<!-- Node8 -->
<g id="node8" class="node">
<title>Node8</title>
<g id="a_node8"><a xlink:href="classwmtk_1_1simplex_1_1_simplex_collection.html#ab318c99d54327383ff1b985bed043f3a" target="_top" xlink:title="Sort simplex vector and remove duplicates.">
<polygon fill="none" stroke="black" points="599,-361 599,-391 783,-391 783,-361 599,-361"/>
<text text-anchor="start" x="607" y="-379" font-family="Helvetica,sans-Serif" font-size="10.00">wmtk::simplex::SimplexCollection</text>
<text text-anchor="middle" x="691" y="-368" font-family="Helvetica,sans-Serif" font-size="10.00">::sort_and_clean</text>
</a>
</g>
</g>
<!-- Node3&#45;&gt;Node8 -->
<g id="edge7" class="edge">
<title>Node3&#45;&gt;Node8</title>
<path fill="none" stroke="midnightblue" d="M329.25,-409.98C345.42,-406.61 362.79,-403.35 379,-401 448.7,-390.9 527.81,-384.61 588.81,-380.87"/>
<polygon fill="midnightblue" stroke="midnightblue" points="589.05,-384.36 598.82,-380.27 588.63,-377.37 589.05,-384.36"/>
</g>
<!-- Node9 -->
<g id="node9" class="node">
<title>Node9</title>
<g id="a_node9"><a xlink:href="namespacewmtk_1_1simplex.html#a87de7137d8d21f1643dd604d73e8f765" target="_top" xlink:title="Get all top dimension cofaces of the given simplex.">
<polygon fill="none" stroke="black" points="413,-410 413,-440 529,-440 529,-410 413,-410"/>
<text text-anchor="start" x="421" y="-428" font-family="Helvetica,sans-Serif" font-size="10.00">wmtk::simplex::top</text>
<text text-anchor="middle" x="471" y="-417" font-family="Helvetica,sans-Serif" font-size="10.00">_dimension_cofaces</text>
</a>
</g>
</g>
<!-- Node3&#45;&gt;Node9 -->
<g id="edge8" class="edge">
<title>Node3&#45;&gt;Node9</title>
<path fill="none" stroke="midnightblue" d="M343.09,-425C362.75,-425 383.68,-425 402.76,-425"/>
<polygon fill="midnightblue" stroke="midnightblue" points="402.85,-428.5 412.85,-425 402.85,-421.5 402.85,-428.5"/>
</g>
<!-- Node20 -->
<g id="node20" class="node">
<title>Node20</title>
<g id="a_node20"><a xlink:href="classwmtk_1_1_mesh.html#abaf00438d0700358b160e310d69725c9" target="_top" xlink:title=" ">
<polygon fill="none" stroke="black" points="1596,-415.5 1596,-434.5 1766,-434.5 1766,-415.5 1596,-415.5"/>
<text text-anchor="middle" x="1681" y="-422.5" font-family="Helvetica,sans-Serif" font-size="10.00">wmtk::Mesh::top_simplex_type</text>
</a>
</g>
</g>
<!-- Node3&#45;&gt;Node20 -->
<g id="edge49" class="edge">
<title>Node3&#45;&gt;Node20</title>
<path fill="none" stroke="midnightblue" d="M320.06,-440.03C385.87,-457.34 499.59,-485.15 599,-499 741.43,-518.84 778.2,-518 922,-518 922,-518 922,-518 1307.5,-518 1437.2,-518 1584.95,-464.27 1648.37,-438.49"/>
<polygon fill="midnightblue" stroke="midnightblue" points="1649.89,-441.65 1657.81,-434.6 1647.23,-435.17 1649.89,-441.65"/>
</g>
<!-- Node9&#45;&gt;Node8 -->
<g id="edge10" class="edge">
<title>Node9&#45;&gt;Node8</title>
<path fill="none" stroke="midnightblue" d="M529.28,-412.13C554.89,-406.37 585.47,-399.49 613.05,-393.3"/>
<polygon fill="midnightblue" stroke="midnightblue" points="614.07,-396.66 623.06,-391.05 612.53,-389.83 614.07,-396.66"/>
</g>
<!-- Node10 -->
<g id="node10" class="node">
<title>Node10</title>
<g id="a_node10"><a xlink:href="classwmtk_1_1simplex_1_1_simplex_collection.html#a0d0c1765c4ed8ffd0f163661111bfb08" target="_top" xlink:title=" ">
<polygon fill="none" stroke="black" points="599,-459 599,-489 783,-489 783,-459 599,-459"/>
<text text-anchor="start" x="607" y="-477" font-family="Helvetica,sans-Serif" font-size="10.00">wmtk::simplex::SimplexCollection</text>
<text text-anchor="middle" x="691" y="-466" font-family="Helvetica,sans-Serif" font-size="10.00">::mesh</text>
</a>
</g>
</g>
<!-- Node9&#45;&gt;Node10 -->
<g id="edge9" class="edge">
<title>Node9&#45;&gt;Node10</title>
<path fill="none" stroke="midnightblue" d="M529.28,-437.87C554.89,-443.63 585.47,-450.51 613.05,-456.7"/>
<polygon fill="midnightblue" stroke="midnightblue" points="612.53,-460.17 623.06,-458.95 614.07,-453.34 612.53,-460.17"/>
</g>
<!-- Node11 -->
<g id="node11" class="node">
<title>Node11</title>
<g id="a_node11"><a xlink:href="namespacewmtk_1_1simplex.html#ac133ab11355bb4cda7e8b1e3ed48226f" target="_top" xlink:title=" ">
<polygon fill="none" stroke="black" points="615.5,-410 615.5,-440 766.5,-440 766.5,-410 615.5,-410"/>
<text text-anchor="start" x="623.5" y="-428" font-family="Helvetica,sans-Serif" font-size="10.00">wmtk::simplex::top</text>
<text text-anchor="middle" x="691" y="-417" font-family="Helvetica,sans-Serif" font-size="10.00">_dimension_cofaces_tuples</text>
</a>
</g>
</g>
<!-- Node9&#45;&gt;Node11 -->
<g id="edge11" class="edge">
<title>Node9&#45;&gt;Node11</title>
<path fill="none" stroke="midnightblue" d="M529.28,-425C552.55,-425 579.93,-425 605.42,-425"/>
<polygon fill="midnightblue" stroke="midnightblue" points="605.46,-428.5 615.46,-425 605.46,-421.5 605.46,-428.5"/>
</g>
<!-- Node11&#45;&gt;Node4 -->
<g id="edge12" class="edge">
<title>Node11&#45;&gt;Node4</title>
<path fill="none" stroke="midnightblue" d="M766.71,-412.66C772.7,-409.56 778.26,-405.73 783,-401 826.97,-357.15 773.41,-308.16 819,-266 820.5,-264.61 822.07,-263.31 823.7,-262.08"/>
<polygon fill="midnightblue" stroke="midnightblue" points="825.72,-264.94 832.28,-256.62 821.96,-259.04 825.72,-264.94"/>
</g>
<!-- Node12 -->
<g id="node12" class="node">
<title>Node12</title>
<g id="a_node12"><a xlink:href="classwmtk_1_1_edge_mesh.html#a534952cf2729f1509a380e3e9afb65b7" target="_top" xlink:title=" ">
<polygon fill="none" stroke="black" points="1249,-421 1249,-451 1364,-451 1364,-421 1249,-421"/>
<text text-anchor="start" x="1257" y="-439" font-family="Helvetica,sans-Serif" font-size="10.00">wmtk::EdgeMesh::is</text>
<text text-anchor="middle" x="1306.5" y="-428" font-family="Helvetica,sans-Serif" font-size="10.00">_boundary_vertex</text>
</a>
</g>
</g>
<!-- Node11&#45;&gt;Node12 -->
<g id="edge13" class="edge">
<title>Node11&#45;&gt;Node12</title>
<path fill="none" stroke="midnightblue" d="M750.07,-440.02C771.57,-444.87 796.25,-449.61 819,-452 968.26,-467.69 1144.56,-453.91 1238.55,-444"/>
<polygon fill="midnightblue" stroke="midnightblue" points="1239.2,-447.45 1248.77,-442.9 1238.45,-440.49 1239.2,-447.45"/>
</g>
<!-- Node22 -->
<g id="node22" class="node">
<title>Node22</title>
<g id="a_node22"><a xlink:href="namespacewmtk.html#a441d6ad4f19569c7d4946e743da1a925" target="_top" xlink:title=" ">
<polygon fill="none" stroke="black" points="862,-325 862,-355 984,-355 984,-325 862,-325"/>
<text text-anchor="start" x="870" y="-343" font-family="Helvetica,sans-Serif" font-size="10.00">wmtk::log_and_throw</text>
<text text-anchor="middle" x="923" y="-332" font-family="Helvetica,sans-Serif" font-size="10.00">_error</text>
</a>
</g>
</g>
<!-- Node11&#45;&gt;Node22 -->
<g id="edge24" class="edge">
<title>Node11&#45;&gt;Node22</title>
<path fill="none" stroke="midnightblue" d="M763.98,-409.89C770.6,-407.36 777.05,-404.42 783,-401 802.62,-389.72 799.27,-376.08 819,-365 829.22,-359.26 840.72,-354.83 852.24,-351.41"/>
<polygon fill="midnightblue" stroke="midnightblue" points="853.17,-354.79 861.9,-348.77 851.33,-348.04 853.17,-354.79"/>
</g>
<!-- Node25 -->
<g id="node25" class="node">
<title>Node25</title>
<g id="a_node25"><a xlink:href="classwmtk_1_1simplex_1_1_simplex.html#ad2cc0340a0772b7d6f03ba7a781d1163" target="_top" xlink:title=" ">
<polygon fill="none" stroke="black" points="855.5,-374 855.5,-404 990.5,-404 990.5,-374 855.5,-374"/>
<text text-anchor="start" x="863.5" y="-392" font-family="Helvetica,sans-Serif" font-size="10.00">wmtk::simplex::Simplex</text>
<text text-anchor="middle" x="923" y="-381" font-family="Helvetica,sans-Serif" font-size="10.00">::primitive_type</text>
</a>
</g>
</g>
<!-- Node11&#45;&gt;Node25 -->
<g id="edge27" class="edge">
<title>Node11&#45;&gt;Node25</title>
<path fill="none" stroke="midnightblue" d="M766.67,-413.31C791.92,-409.36 820.13,-404.94 845.51,-400.97"/>
<polygon fill="midnightblue" stroke="midnightblue" points="846.12,-404.42 855.46,-399.42 845.04,-397.5 846.12,-404.42"/>
</g>
<!-- Node26 -->
<g id="node26" class="node">
<title>Node26</title>
<g id="a_node26"><a xlink:href="classwmtk_1_1_edge_mesh.html#a04f6595fe85e52dc6bf1e02512120100" target="_top" xlink:title=" ">
<polygon fill="none" stroke="black" points="839.5,-423.5 839.5,-442.5 1006.5,-442.5 1006.5,-423.5 839.5,-423.5"/>
<text text-anchor="middle" x="923" y="-430.5" font-family="Helvetica,sans-Serif" font-size="10.00">wmtk::EdgeMesh::switch_edge</text>
</a>
</g>
</g>
<!-- Node11&#45;&gt;Node26 -->
<g id="edge28" class="edge">
<title>Node11&#45;&gt;Node26</title>
<path fill="none" stroke="midnightblue" d="M766.67,-427.6C786.63,-428.29 808.43,-429.05 829.23,-429.77"/>
<polygon fill="midnightblue" stroke="midnightblue" points="829.23,-433.28 839.35,-430.13 829.47,-426.28 829.23,-433.28"/>
</g>
<!-- Node38 -->
<g id="node38" class="node">
<title>Node38</title>
<g id="a_node38"><a xlink:href="classwmtk_1_1simplex_1_1_simplex.html#a3650fd31ff1864285502dba66db3c73c" target="_top" xlink:title=" ">
<polygon fill="none" stroke="black" points="855.5,-276 855.5,-306 990.5,-306 990.5,-276 855.5,-276"/>
<text text-anchor="start" x="863.5" y="-294" font-family="Helvetica,sans-Serif" font-size="10.00">wmtk::simplex::Simplex</text>
<text text-anchor="middle" x="923" y="-283" font-family="Helvetica,sans-Serif" font-size="10.00">::tuple</text>
</a>
</g>
</g>
<!-- Node11&#45;&gt;Node38 -->
<g id="edge48" class="edge">
<title>Node11&#45;&gt;Node38</title>
<path fill="none" stroke="midnightblue" d="M766.93,-411.5C772.72,-408.63 778.18,-405.17 783,-401 814.01,-374.13 787.73,-342.56 819,-316 826.73,-309.43 835.91,-304.54 845.55,-300.89"/>
<polygon fill="midnightblue" stroke="midnightblue" points="846.92,-304.12 855.31,-297.65 844.72,-297.48 846.92,-304.12"/>
</g>
<!-- Node13 -->
<g id="node13" class="node">
<title>Node13</title>
<g id="a_node13"><a xlink:href="classwmtk_1_1attribute_1_1_accessor.html#acbfbd5a98532cf295fdf6dd64066bb26" target="_top" xlink:title=" ">
<polygon fill="none" stroke="black" points="1415,-421 1415,-451 1557,-451 1557,-421 1415,-421"/>
<text text-anchor="start" x="1423" y="-439" font-family="Helvetica,sans-Serif" font-size="10.00">wmtk::attribute::Accessor</text>
<text text-anchor="middle" x="1486" y="-428" font-family="Helvetica,sans-Serif" font-size="10.00">::const_vector_attribute</text>
</a>
</g>
</g>
<!-- Node12&#45;&gt;Node13 -->
<g id="edge14" class="edge">
<title>Node12&#45;&gt;Node13</title>
<path fill="none" stroke="midnightblue" d="M1364.15,-436C1377.01,-436 1390.9,-436 1404.53,-436"/>
<polygon fill="midnightblue" stroke="midnightblue" points="1404.88,-439.5 1414.88,-436 1404.88,-432.5 1404.88,-439.5"/>
</g>
<!-- Node14 -->
<g id="node14" class="node">
<title>Node14</title>
<g id="a_node14"><a xlink:href="classwmtk_1_1_mesh.html#abbb1c54cfd6ec17f4730317ee5fab78d" target="_top" xlink:title=" ">
<polygon fill="none" stroke="black" points="1412,-284.5 1412,-303.5 1560,-303.5 1560,-284.5 1412,-284.5"/>
<text text-anchor="middle" x="1486" y="-291.5" font-family="Helvetica,sans-Serif" font-size="10.00">wmtk::Mesh::is_valid_slow</text>
</a>
</g>
</g>
<!-- Node12&#45;&gt;Node14 -->
<g id="edge15" class="edge">
<title>Node12&#45;&gt;Node14</title>
<path fill="none" stroke="midnightblue" d="M1326.5,-420.8C1360.3,-393.76 1430.57,-337.54 1465.05,-309.96"/>
<polygon fill="midnightblue" stroke="midnightblue" points="1467.38,-312.58 1473,-303.6 1463,-307.11 1467.38,-312.58"/>
</g>
<!-- Node15 -->
<g id="node15" class="node">
<title>Node15</title>
<g id="a_node15"><a xlink:href="classwmtk_1_1_mesh.html#adf199d6a3ce6badd8bfa0e2ab3a1c1aa" target="_top" xlink:title=" ">
<polygon fill="none" stroke="black" points="1616,-235 1616,-265 1746,-265 1746,-235 1616,-235"/>
<text text-anchor="start" x="1624" y="-253" font-family="Helvetica,sans-Serif" font-size="10.00">wmtk::Mesh::get_const</text>
<text text-anchor="middle" x="1681" y="-242" font-family="Helvetica,sans-Serif" font-size="10.00">_cell_hash_accessor</text>
</a>
</g>
</g>
<!-- Node14&#45;&gt;Node15 -->
<g id="edge16" class="edge">
<title>Node14&#45;&gt;Node15</title>
<path fill="none" stroke="midnightblue" d="M1528.88,-284.45C1551.39,-279.32 1579.82,-272.84 1605.92,-266.89"/>
<polygon fill="midnightblue" stroke="midnightblue" points="1606.83,-270.27 1615.8,-264.64 1605.27,-263.45 1606.83,-270.27"/>
</g>
<!-- Node17 -->
<g id="node17" class="node">
<title>Node17</title>
<g id="a_node17"><a xlink:href="classwmtk_1_1_mesh.html#a6dbab927a2ee85f77a87f075fd5c1d94" target="_top" xlink:title=" ">
<polygon fill="none" stroke="black" points="1616,-186 1616,-216 1746,-216 1746,-186 1616,-186"/>
<text text-anchor="start" x="1624" y="-204" font-family="Helvetica,sans-Serif" font-size="10.00">wmtk::Mesh::get_const</text>
<text text-anchor="middle" x="1681" y="-193" font-family="Helvetica,sans-Serif" font-size="10.00">_flag_accessor</text>
</a>
</g>
</g>
<!-- Node14&#45;&gt;Node17 -->
<g id="edge18" class="edge">
<title>Node14&#45;&gt;Node17</title>
<path fill="none" stroke="midnightblue" d="M1499.41,-284.46C1518.97,-269.82 1558.6,-241.76 1596,-225 1600.36,-223.05 1604.91,-221.21 1609.55,-219.5"/>
<polygon fill="midnightblue" stroke="midnightblue" points="1610.86,-222.74 1619.15,-216.14 1608.55,-216.14 1610.86,-222.74"/>
</g>
<!-- Node19 -->
<g id="node19" class="node">
<title>Node19</title>
<g id="a_node19"><a xlink:href="classwmtk_1_1_mesh.html#a918c509096fc08691924c05c6143b9c3" target="_top" xlink:title="check validity of tuple including its hash">
<polygon fill="none" stroke="black" points="1621,-284.5 1621,-303.5 1741,-303.5 1741,-284.5 1621,-284.5"/>
<text text-anchor="middle" x="1681" y="-291.5" font-family="Helvetica,sans-Serif" font-size="10.00">wmtk::Mesh::is_valid</text>
</a>
</g>
</g>
<!-- Node14&#45;&gt;Node19 -->
<g id="edge21" class="edge">
<title>Node14&#45;&gt;Node19</title>
<path fill="none" stroke="midnightblue" d="M1560.24,-294C1576.84,-294 1594.42,-294 1610.85,-294"/>
<polygon fill="midnightblue" stroke="midnightblue" points="1610.91,-297.5 1620.91,-294 1610.91,-290.5 1610.91,-297.5"/>
</g>
<!-- Node14&#45;&gt;Node20 -->
<g id="edge22" class="edge">
<title>Node14&#45;&gt;Node20</title>
<path fill="none" stroke="midnightblue" d="M1501.19,-303.63C1534.37,-326.16 1617.25,-382.41 1657.44,-409.69"/>
<polygon fill="midnightblue" stroke="midnightblue" points="1655.55,-412.63 1665.79,-415.35 1659.48,-406.84 1655.55,-412.63"/>
</g>
<!-- Node16 -->
<g id="node16" class="node">
<title>Node16</title>
<g id="a_node16"><a xlink:href="classwmtk_1_1_mesh.html#a4a20dcdac339e7a4f6f8a6570114cbe6" target="_top" xlink:title=" ">
<polygon fill="none" stroke="black" points="1816.5,-235 1816.5,-265 1929.5,-265 1929.5,-235 1816.5,-235"/>
<text text-anchor="start" x="1824.5" y="-253" font-family="Helvetica,sans-Serif" font-size="10.00">wmtk::Mesh::create</text>
<text text-anchor="middle" x="1873" y="-242" font-family="Helvetica,sans-Serif" font-size="10.00">_const_accessor</text>
</a>
</g>
</g>
<!-- Node15&#45;&gt;Node16 -->
<g id="edge17" class="edge">
<title>Node15&#45;&gt;Node16</title>
<path fill="none" stroke="midnightblue" d="M1746.06,-250C1765.51,-250 1786.9,-250 1806.45,-250"/>
<polygon fill="midnightblue" stroke="midnightblue" points="1806.48,-253.5 1816.48,-250 1806.48,-246.5 1806.48,-253.5"/>
</g>
<!-- Node17&#45;&gt;Node16 -->
<g id="edge19" class="edge">
<title>Node17&#45;&gt;Node16</title>
<path fill="none" stroke="midnightblue" d="M1740.3,-216.03C1761.3,-221.45 1785.13,-227.6 1806.69,-233.16"/>
<polygon fill="midnightblue" stroke="midnightblue" points="1805.86,-236.56 1816.41,-235.66 1807.61,-229.78 1805.86,-236.56"/>
</g>
<!-- Node18 -->
<g id="node18" class="node">
<title>Node18</title>
<g id="a_node18"><a xlink:href="namespacewmtk.html#a5cf45c152e856196bb734c6f48919a24" target="_top" xlink:title="Get a unique integer id corresponding to each primitive type.">
<polygon fill="none" stroke="black" points="1815,-186 1815,-216 1931,-216 1931,-186 1815,-186"/>
<text text-anchor="start" x="1823" y="-204" font-family="Helvetica,sans-Serif" font-size="10.00">wmtk::get_primitive</text>
<text text-anchor="middle" x="1873" y="-193" font-family="Helvetica,sans-Serif" font-size="10.00">_type_id</text>
</a>
</g>
</g>
<!-- Node17&#45;&gt;Node18 -->
<g id="edge20" class="edge">
<title>Node17&#45;&gt;Node18</title>
<path fill="none" stroke="midnightblue" d="M1746.06,-201C1764.96,-201 1785.7,-201 1804.8,-201"/>
<polygon fill="midnightblue" stroke="midnightblue" points="1804.91,-204.5 1814.91,-201 1804.91,-197.5 1804.91,-204.5"/>
</g>
<!-- Node21 -->
<g id="node21" class="node">
<title>Node21</title>
<g id="a_node21"><a xlink:href="classwmtk_1_1_mesh.html#a933f681cf24a63b155c9462280385200" target="_top" xlink:title=" ">
<polygon fill="none" stroke="black" points="1812.5,-410 1812.5,-440 1933.5,-440 1933.5,-410 1812.5,-410"/>
<text text-anchor="start" x="1820.5" y="-428" font-family="Helvetica,sans-Serif" font-size="10.00">wmtk::Mesh::top_cell</text>
<text text-anchor="middle" x="1873" y="-417" font-family="Helvetica,sans-Serif" font-size="10.00">_dimension</text>
</a>
</g>
</g>
<!-- Node20&#45;&gt;Node21 -->
<g id="edge23" class="edge">
<title>Node20&#45;&gt;Node21</title>
<path fill="none" stroke="midnightblue" d="M1766.17,-425C1778.22,-425 1790.51,-425 1802.24,-425"/>
<polygon fill="midnightblue" stroke="midnightblue" points="1802.39,-428.5 1812.39,-425 1802.39,-421.5 1802.39,-428.5"/>
</g>
<!-- Node23 -->
<g id="node23" class="node">
<title>Node23</title>
<g id="a_node23"><a xlink:href="namespacewmtk.html#a6a35f11c12436093d26fdd8be6fecc06" target="_top" xlink:title="Retrieves the current logger.">
<polygon fill="none" stroke="black" points="1091.5,-101.5 1091.5,-120.5 1172.5,-120.5 1172.5,-101.5 1091.5,-101.5"/>
<text text-anchor="middle" x="1132" y="-108.5" font-family="Helvetica,sans-Serif" font-size="10.00">wmtk::logger</text>
</a>
</g>
</g>
<!-- Node22&#45;&gt;Node23 -->
<g id="edge25" class="edge">
<title>Node22&#45;&gt;Node23</title>
<path fill="none" stroke="midnightblue" d="M984.04,-335.07C999.24,-331.51 1014.72,-325.63 1027,-316 1031.08,-312.8 1096.99,-179.86 1121.72,-129.8"/>
<polygon fill="midnightblue" stroke="midnightblue" points="1124.93,-131.22 1126.21,-120.71 1118.65,-128.12 1124.93,-131.22"/>
</g>
<!-- Node24 -->
<g id="node24" class="node">
<title>Node24</title>
<g id="a_node24"><a xlink:href="namespacewmtk.html#a3daa7951a5f8b78cf4600dc047fcc180" target="_top" xlink:title="Setup a logger object to be used by WildmeshToolkit.">
<polygon fill="none" stroke="black" points="1256,-0.5 1256,-19.5 1357,-19.5 1357,-0.5 1256,-0.5"/>
<text text-anchor="middle" x="1306.5" y="-7.5" font-family="Helvetica,sans-Serif" font-size="10.00">wmtk::set_logger</text>
</a>
</g>
</g>
<!-- Node23&#45;&gt;Node24 -->
<g id="edge26" class="edge">
<title>Node23&#45;&gt;Node24</title>
<path fill="none" stroke="midnightblue" d="M1143.79,-101.26C1161.91,-85.35 1200.07,-53.56 1237,-34 1244.93,-29.8 1253.75,-26.08 1262.34,-22.9"/>
<polygon fill="midnightblue" stroke="midnightblue" points="1263.63,-26.16 1271.9,-19.54 1261.31,-19.55 1263.63,-26.16"/>
</g>
<!-- Node27 -->
<g id="node27" class="node">
<title>Node27</title>
<g id="a_node27"><a xlink:href="classwmtk_1_1_edge_mesh.html#a46725851b572b51a356450adc30c14ed" target="_top" xlink:title="switch the orientation of the Tuple of the given dimension">
<polygon fill="none" stroke="black" points="1063,-260 1063,-290 1201,-290 1201,-260 1063,-260"/>
<text text-anchor="start" x="1071" y="-278" font-family="Helvetica,sans-Serif" font-size="10.00">wmtk::EdgeMesh::switch</text>
<text text-anchor="middle" x="1132" y="-267" font-family="Helvetica,sans-Serif" font-size="10.00">_tuple</text>
</a>
</g>
</g>
<!-- Node26&#45;&gt;Node27 -->
<g id="edge29" class="edge">
<title>Node26&#45;&gt;Node27</title>
<path fill="none" stroke="midnightblue" d="M1006.52,-423.62C1013.72,-421.09 1020.67,-417.93 1027,-414 1072.02,-386.06 1104.26,-330.94 1120.03,-299.15"/>
<polygon fill="midnightblue" stroke="midnightblue" points="1123.21,-300.61 1124.4,-290.08 1116.9,-297.58 1123.21,-300.61"/>
</g>
<!-- Node27&#45;&gt;Node13 -->
<g id="edge31" class="edge">
<title>Node27&#45;&gt;Node13</title>
<path fill="none" stroke="midnightblue" d="M1144.71,-290.1C1162.34,-311.79 1197.86,-351.5 1237,-373 1252.23,-381.37 1341.49,-403.04 1408.59,-418.63"/>
<polygon fill="midnightblue" stroke="midnightblue" points="1408.21,-422.13 1418.74,-420.98 1409.79,-415.31 1408.21,-422.13"/>
</g>
<!-- Node27&#45;&gt;Node14 -->
<g id="edge47" class="edge">
<title>Node27&#45;&gt;Node14</title>
<path fill="none" stroke="midnightblue" d="M1201.22,-271.86C1250,-270.39 1317.16,-269.91 1376,-275 1393.92,-276.55 1413.31,-279.51 1430.7,-282.64"/>
<polygon fill="midnightblue" stroke="midnightblue" points="1430.21,-286.1 1440.68,-284.49 1431.49,-279.22 1430.21,-286.1"/>
</g>
<!-- Node27&#45;&gt;Node15 -->
<g id="edge36" class="edge">
<title>Node27&#45;&gt;Node15</title>
<path fill="none" stroke="midnightblue" d="M1201.22,-269.38C1213.14,-268.5 1225.43,-267.67 1237,-267 1366.53,-259.54 1517.56,-254.53 1605.61,-251.98"/>
<polygon fill="midnightblue" stroke="midnightblue" points="1605.87,-255.48 1615.77,-251.69 1605.67,-248.48 1605.87,-255.48"/>
</g>
<!-- Node28 -->
<g id="node28" class="node">
<title>Node28</title>
<g id="a_node28"><a xlink:href="classwmtk_1_1attribute_1_1_caching_accessor.html#ab7a79d239fdc3d22fbc0c3a83a5c50bc" target="_top" xlink:title=" ">
<polygon fill="none" stroke="black" points="1238,-322.5 1238,-363.5 1375,-363.5 1375,-322.5 1238,-322.5"/>
<text text-anchor="start" x="1246" y="-351.5" font-family="Helvetica,sans-Serif" font-size="10.00">wmtk::attribute::Caching</text>
<text text-anchor="start" x="1246" y="-340.5" font-family="Helvetica,sans-Serif" font-size="10.00">Accessor::const_vector</text>
<text text-anchor="middle" x="1306.5" y="-329.5" font-family="Helvetica,sans-Serif" font-size="10.00">_attribute</text>
</a>
</g>
</g>
<!-- Node27&#45;&gt;Node28 -->
<g id="edge30" class="edge">
<title>Node27&#45;&gt;Node28</title>
<path fill="none" stroke="midnightblue" d="M1171.28,-290.09C1192.58,-298.49 1219.59,-309.13 1243.79,-318.67"/>
<polygon fill="midnightblue" stroke="midnightblue" points="1242.67,-321.99 1253.26,-322.41 1245.24,-315.48 1242.67,-321.99"/>
</g>
<!-- Node29 -->
<g id="node29" class="node">
<title>Node29</title>
<g id="a_node29"><a xlink:href="classwmtk_1_1_mesh.html#a4bcf7281ec7f3bdfd506ffc87fc092d3" target="_top" xlink:title=" ">
<polygon fill="none" stroke="black" points="1606.5,-85.5 1606.5,-104.5 1755.5,-104.5 1755.5,-85.5 1606.5,-85.5"/>
<text text-anchor="middle" x="1681" y="-92.5" font-family="Helvetica,sans-Serif" font-size="10.00">wmtk::Mesh::get_cell_hash</text>
</a>
</g>
</g>
<!-- Node27&#45;&gt;Node29 -->
<g id="edge32" class="edge">
<title>Node27&#45;&gt;Node29</title>
<path fill="none" stroke="midnightblue" d="M1141.09,-259.93C1156.22,-233.25 1191.44,-177.79 1237,-149 1346.33,-79.92 1501.42,-77.96 1596.12,-84.97"/>
<polygon fill="midnightblue" stroke="midnightblue" points="1595.98,-88.47 1606.23,-85.77 1596.53,-81.49 1595.98,-88.47"/>
</g>
<!-- Node31 -->
<g id="node31" class="node">
<title>Node31</title>
<g id="a_node31"><a xlink:href="classwmtk_1_1attribute_1_1_accessor.html#a41f40a73a13789707c117bda177dfc83" target="_top" xlink:title=" ">
<polygon fill="none" stroke="black" points="1802,-33 1802,-63 1944,-63 1944,-33 1802,-33"/>
<text text-anchor="start" x="1810" y="-51" font-family="Helvetica,sans-Serif" font-size="10.00">wmtk::attribute::Accessor</text>
<text text-anchor="middle" x="1873" y="-40" font-family="Helvetica,sans-Serif" font-size="10.00">::index_access</text>
</a>
</g>
</g>
<!-- Node27&#45;&gt;Node31 -->
<g id="edge39" class="edge">
<title>Node27&#45;&gt;Node31</title>
<path fill="none" stroke="midnightblue" d="M1139.48,-259.77C1156.83,-219.73 1205.2,-113.19 1237,-93 1409.6,16.59 1664.33,-8.7 1792.37,-31.17"/>
<polygon fill="midnightblue" stroke="midnightblue" points="1792.03,-34.66 1802.49,-32.99 1793.27,-27.77 1792.03,-34.66"/>
</g>
<!-- Node33 -->
<g id="node33" class="node">
<title>Node33</title>
<g id="a_node33"><a xlink:href="classwmtk_1_1_edge_mesh.html#a34530ca80c07ae67ffe601c2b8f22e3e" target="_top" xlink:title=" ">
<polygon fill="none" stroke="black" points="1248.5,-470.5 1248.5,-489.5 1364.5,-489.5 1364.5,-470.5 1248.5,-470.5"/>
<text text-anchor="middle" x="1306.5" y="-477.5" font-family="Helvetica,sans-Serif" font-size="10.00">wmtk::EdgeMesh::id</text>
</a>
</g>
</g>
<!-- Node27&#45;&gt;Node33 -->
<g id="edge37" class="edge">
<title>Node27&#45;&gt;Node33</title>
<path fill="none" stroke="midnightblue" d="M1137.08,-290.17C1147.45,-325.72 1178.23,-414.84 1237,-461 1239.32,-462.82 1241.8,-464.47 1244.4,-465.96"/>
<polygon fill="midnightblue" stroke="midnightblue" points="1243.07,-469.21 1253.6,-470.44 1246.14,-462.91 1243.07,-469.21"/>
</g>
<!-- Node34 -->
<g id="node34" class="node">
<title>Node34</title>
<g id="a_node34"><a xlink:href="classwmtk_1_1_edge_mesh.html#a83db0c93833dacdfb169807d8ba4b6ca" target="_top" xlink:title="TODO this needs dimension?">
<polygon fill="none" stroke="black" points="1237,-284.5 1237,-303.5 1376,-303.5 1376,-284.5 1237,-284.5"/>
<text text-anchor="middle" x="1306.5" y="-291.5" font-family="Helvetica,sans-Serif" font-size="10.00">wmtk::EdgeMesh::is_ccw</text>
</a>
</g>
</g>
<!-- Node27&#45;&gt;Node34 -->
<g id="edge40" class="edge">
<title>Node27&#45;&gt;Node34</title>
<path fill="none" stroke="midnightblue" d="M1201.18,-282.51C1209.64,-283.44 1218.34,-284.4 1226.94,-285.35"/>
<polygon fill="midnightblue" stroke="midnightblue" points="1226.65,-288.84 1236.97,-286.45 1227.41,-281.88 1226.65,-288.84"/>
</g>
<!-- Node35 -->
<g id="node35" class="node">
<title>Node35</title>
<g id="a_node35"><a xlink:href="classwmtk_1_1_edge_mesh.html#a566cd5b0f3adad310bd9818f14c99127" target="_top" xlink:title="check validity of tuple including its hash">
<polygon fill="none" stroke="black" points="1249,-159 1249,-189 1364,-189 1364,-159 1249,-159"/>
<text text-anchor="start" x="1257" y="-177" font-family="Helvetica,sans-Serif" font-size="10.00">wmtk::EdgeMesh::is</text>
<text text-anchor="middle" x="1306.5" y="-166" font-family="Helvetica,sans-Serif" font-size="10.00">_valid</text>
</a>
</g>
</g>
<!-- Node27&#45;&gt;Node35 -->
<g id="edge42" class="edge">
<title>Node27&#45;&gt;Node35</title>
<path fill="none" stroke="midnightblue" d="M1152.62,-259.97C1173.01,-244.74 1206.21,-221.06 1237,-204 1243.79,-200.24 1251.14,-196.6 1258.42,-193.23"/>
<polygon fill="midnightblue" stroke="midnightblue" points="1259.88,-196.41 1267.56,-189.12 1257.01,-190.03 1259.88,-196.41"/>
</g>
<!-- Node30 -->
<g id="node30" class="node">
<title>Node30</title>
<g id="a_node30"><a xlink:href="classwmtk_1_1attribute_1_1_caching_accessor.html#a196b6b32e2495b971113d552be7f45d9" target="_top" xlink:title=" ">
<polygon fill="none" stroke="black" points="1804.5,-82.5 1804.5,-123.5 1941.5,-123.5 1941.5,-82.5 1804.5,-82.5"/>
<text text-anchor="start" x="1812.5" y="-111.5" font-family="Helvetica,sans-Serif" font-size="10.00">wmtk::attribute::Caching</text>
<text text-anchor="start" x="1812.5" y="-100.5" font-family="Helvetica,sans-Serif" font-size="10.00">Accessor::const_scalar</text>
<text text-anchor="middle" x="1873" y="-89.5" font-family="Helvetica,sans-Serif" font-size="10.00">_attribute</text>
</a>
</g>
</g>
<!-- Node29&#45;&gt;Node30 -->
<g id="edge33" class="edge">
<title>Node29&#45;&gt;Node30</title>
<path fill="none" stroke="midnightblue" d="M1755.73,-98.1C1768.32,-98.63 1781.44,-99.19 1794.14,-99.72"/>
<polygon fill="midnightblue" stroke="midnightblue" points="1794.07,-103.22 1804.21,-100.15 1794.37,-96.23 1794.07,-103.22"/>
</g>
<!-- Node29&#45;&gt;Node31 -->
<g id="edge34" class="edge">
<title>Node29&#45;&gt;Node31</title>
<path fill="none" stroke="midnightblue" d="M1720.45,-85.49C1743.63,-79.76 1773.87,-72.28 1801.23,-65.51"/>
<polygon fill="midnightblue" stroke="midnightblue" points="1802.3,-68.85 1811.16,-63.05 1800.62,-62.05 1802.3,-68.85"/>
</g>
<!-- Node32 -->
<g id="node32" class="node">
<title>Node32</title>
<g id="a_node32"><a xlink:href="classwmtk_1_1attribute_1_1_accessor.html#a9c7d323f50911892c8ea738f97d041d4" target="_top" xlink:title=" ">
<polygon fill="none" stroke="black" points="1980,-33 1980,-63 2122,-63 2122,-33 1980,-33"/>
<text text-anchor="start" x="1988" y="-51" font-family="Helvetica,sans-Serif" font-size="10.00">wmtk::attribute::Accessor</text>
<text text-anchor="middle" x="2051" y="-40" font-family="Helvetica,sans-Serif" font-size="10.00">::caching_base_type</text>
</a>
</g>
</g>
<!-- Node31&#45;&gt;Node32 -->
<g id="edge35" class="edge">
<title>Node31&#45;&gt;Node32</title>
<path fill="none" stroke="midnightblue" d="M1944.07,-48C1952.54,-48 1961.25,-48 1969.85,-48"/>
<polygon fill="midnightblue" stroke="midnightblue" points="1969.89,-51.5 1979.89,-48 1969.89,-44.5 1969.89,-51.5"/>
</g>
<!-- Node33&#45;&gt;Node13 -->
<g id="edge38" class="edge">
<title>Node33&#45;&gt;Node13</title>
<path fill="none" stroke="midnightblue" d="M1346.01,-470.45C1366,-465.5 1391.05,-459.29 1414.36,-453.51"/>
<polygon fill="midnightblue" stroke="midnightblue" points="1415.36,-456.87 1424.22,-451.07 1413.68,-450.07 1415.36,-456.87"/>
</g>
<!-- Node34&#45;&gt;Node14 -->
<g id="edge41" class="edge">
<title>Node34&#45;&gt;Node14</title>
<path fill="none" stroke="midnightblue" d="M1376.13,-294C1384.54,-294 1393.21,-294 1401.81,-294"/>
<polygon fill="midnightblue" stroke="midnightblue" points="1401.85,-297.5 1411.85,-294 1401.85,-290.5 1401.85,-297.5"/>
</g>
<!-- Node35&#45;&gt;Node17 -->
<g id="edge43" class="edge">
<title>Node35&#45;&gt;Node17</title>
<path fill="none" stroke="midnightblue" d="M1364.07,-178.1C1428.58,-182.78 1534.27,-190.44 1605.45,-195.6"/>
<polygon fill="midnightblue" stroke="midnightblue" points="1605.46,-199.11 1615.69,-196.34 1605.97,-192.12 1605.46,-199.11"/>
</g>
<!-- Node36 -->
<g id="node36" class="node">
<title>Node36</title>
<g id="a_node36"><a xlink:href="classwmtk_1_1_mesh.html#aad291410ffabfd61e42d0a813a610805" target="_top" xlink:title=" ">
<polygon fill="none" stroke="black" points="1426.5,-115 1426.5,-145 1545.5,-145 1545.5,-115 1426.5,-115"/>
<text text-anchor="start" x="1434.5" y="-133" font-family="Helvetica,sans-Serif" font-size="10.00">wmtk::Mesh::is_hash</text>
<text text-anchor="middle" x="1486" y="-122" font-family="Helvetica,sans-Serif" font-size="10.00">_valid</text>
</a>
</g>
</g>
<!-- Node35&#45;&gt;Node36 -->
<g id="edge44" class="edge">
<title>Node35&#45;&gt;Node36</title>
<path fill="none" stroke="midnightblue" d="M1364.15,-159.96C1380.77,-155.84 1399.13,-151.29 1416.42,-147"/>
<polygon fill="midnightblue" stroke="midnightblue" points="1417.58,-150.32 1426.45,-144.51 1415.9,-143.52 1417.58,-150.32"/>
</g>
<!-- Node37 -->
<g id="node37" class="node">
<title>Node37</title>
<g id="a_node37"><a xlink:href="classwmtk_1_1_tuple.html#a0023f575be92cd5ceeeaaaa3762ea06d" target="_top" xlink:title="Checks if a tuple is &quot;null&quot;. This merely implies the global index is &#45;1.">
<polygon fill="none" stroke="black" points="1429.5,-202.5 1429.5,-221.5 1542.5,-221.5 1542.5,-202.5 1429.5,-202.5"/>
<text text-anchor="middle" x="1486" y="-209.5" font-family="Helvetica,sans-Serif" font-size="10.00">wmtk::Tuple::is_null</text>
</a>
</g>
</g>
<!-- Node35&#45;&gt;Node37 -->
<g id="edge46" class="edge">
<title>Node35&#45;&gt;Node37</title>
<path fill="none" stroke="midnightblue" d="M1364.15,-186.13C1385.34,-190.66 1409.35,-195.8 1430.35,-200.3"/>
<polygon fill="midnightblue" stroke="midnightblue" points="1429.88,-203.78 1440.39,-202.45 1431.35,-196.93 1429.88,-203.78"/>
</g>
<!-- Node36&#45;&gt;Node29 -->
<g id="edge45" class="edge">
<title>Node36&#45;&gt;Node29</title>
<path fill="none" stroke="midnightblue" d="M1545.69,-119.36C1568.39,-115.24 1594.41,-110.52 1617.47,-106.34"/>
<polygon fill="midnightblue" stroke="midnightblue" points="1618.27,-109.75 1627.49,-104.52 1617.02,-102.86 1618.27,-109.75"/>
</g>
<!-- Node40&#45;&gt;Node41 -->
<g id="edge52" class="edge">
<title>Node40&#45;&gt;Node41</title>
<path fill="none" stroke="midnightblue" d="M338.72,-287.36C354.07,-287.43 370.35,-287.51 386.04,-287.59"/>
<polygon fill="midnightblue" stroke="midnightblue" points="386.23,-291.09 396.25,-287.64 386.26,-284.09 386.23,-291.09"/>
</g>
<!-- Node40&#45;&gt;Node42 -->
<g id="edge53" class="edge">
<title>Node40&#45;&gt;Node42</title>
<path fill="none" stroke="midnightblue" d="M329.3,-271.94C350.48,-266.99 374.2,-261.43 396.04,-256.32"/>
<polygon fill="midnightblue" stroke="midnightblue" points="396.99,-259.69 405.93,-254 395.39,-252.87 396.99,-259.69"/>
</g>
</g>
</svg>
        <g id="navigator" transform="translate(0 0)" fill="#404254">
                <rect fill="#f2f5e9" fill-opacity="0.5" stroke="#606060" stroke-width=".5" x="0" y="0" width="60" height="60"/>
                <use id="zoomplus" xlink:href="#zoomPlus" x="17" y="9" onmousedown="handleZoom(evt,'in')"/>
                <use id="zoomminus" xlink:href="#zoomMin" x="42" y="9" onmousedown="handleZoom(evt,'out')"/>
                <use id="reset" xlink:href="#resetDef" x="30" y="36" onmousedown="handleReset()"/>
                <g id="arrowUp" xlink:href="#dirArrow" transform="translate(30 24)" onmousedown="handlePan(0,-1)">
                  <use xlink:href="#rim" fill="#404040">
                        <set attributeName="fill" to="#808080" begin="arrowUp.mouseover" end="arrowUp.mouseout"/>
                  </use>
                  <path fill="none" stroke="white" stroke-width="1.5" d="M0,-3.0v7 M-2.5,-0.5L0,-3.0L2.5,-0.5"/>
                </g>
                <g id="arrowRight" xlink:href="#dirArrow" transform="rotate(90) translate(36 -43)" onmousedown="handlePan(1,0)">
                  <use xlink:href="#rim" fill="#404040">
                        <set attributeName="fill" to="#808080" begin="arrowRight.mouseover" end="arrowRight.mouseout"/>
                  </use>
                  <path fill="none" stroke="white" stroke-width="1.5" d="M0,-3.0v7 M-2.5,-0.5L0,-3.0L2.5,-0.5"/>
                </g>
                <g id="arrowDown" xlink:href="#dirArrow" transform="rotate(180) translate(-30 -48)" onmousedown="handlePan(0,1)">
                  <use xlink:href="#rim" fill="#404040">
                        <set attributeName="fill" to="#808080" begin="arrowDown.mouseover" end="arrowDown.mouseout"/>
                  </use>
                  <path fill="none" stroke="white" stroke-width="1.5" d="M0,-3.0v7 M-2.5,-0.5L0,-3.0L2.5,-0.5"/>
                </g>
                <g id="arrowLeft" xlink:href="#dirArrow" transform="rotate(270) translate(-36 17)" onmousedown="handlePan(-1,0)">
                  <use xlink:href="#rim" fill="#404040">
                        <set attributeName="fill" to="#808080" begin="arrowLeft.mouseover" end="arrowLeft.mouseout"/>
                  </use>
                  <path fill="none" stroke="white" stroke-width="1.5" d="M0,-3.0v7 M-2.5,-0.5L0,-3.0L2.5,-0.5"/>
                </g>
        </g>
        <svg viewBox="0 0 15 15" width="100%" height="30px" preserveAspectRatio="xMaxYMin meet">
         <g id="arrow_out" transform="scale(0.3 0.3)">
          <a xlink:href="classwmtk_1_1invariants_1_1_invariant_a09dcf6e3fa8f371321c5393960972a43_cgraph_org.svg" target="_base">
           <rect id="button" ry="5" rx="5" y="6" x="6" height="38" width="38"
                fill="#f2f5e9" fill-opacity="0.5" stroke="#606060" stroke-width="1.0"/>
           <path id="arrow"
             d="M 11.500037,31.436501 C 11.940474,20.09759 22.043105,11.32322 32.158766,21.979434 L 37.068811,17.246167 C 37.068811,17.246167 37.088388,32 37.088388,32 L 22.160133,31.978069 C 22.160133,31.978069 26.997745,27.140456 26.997745,27.140456 C 18.528582,18.264221 13.291696,25.230495 11.500037,31.436501 z"
             style="fill:#404040;"/>
          </a>
         </g>
        </svg>
</svg>
