<?xml version="1.0" encoding="UTF-8" standalone="no"?>
<!DOCTYPE svg PUBLIC "-//W3C//DTD SVG 1.1//EN"
 "http://www.w3.org/Graphics/SVG/1.1/DTD/svg11.dtd">
<!-- Generated by graphviz version 2.43.0 (0)
 -->
<!-- Title: wmtk::MultiMeshManager::child_to_parent_map_attribute_name Pages: 1 -->
<svg width="1373pt" height="151pt"
 viewBox="0.00 0.00 1373.00 150.50" xmlns="http://www.w3.org/2000/svg" xmlns:xlink="http://www.w3.org/1999/xlink">
<g id="graph0" class="graph" transform="scale(1 1) rotate(0) translate(4 146.5)">
<title>wmtk::MultiMeshManager::child_to_parent_map_attribute_name</title>
<!-- Node1 -->
<g id="node1" class="node">
<title>Node1</title>
<g id="a_node1"><a xlink:title=" ">
<polygon fill="#bfbfbf" stroke="black" points="1221,-81.5 1221,-122.5 1365,-122.5 1365,-81.5 1221,-81.5"/>
<text text-anchor="start" x="1229" y="-110.5" font-family="Helvetica,sans-Serif" font-size="10.00">wmtk::MultiMeshManager</text>
<text text-anchor="start" x="1229" y="-99.5" font-family="Helvetica,sans-Serif" font-size="10.00">::child_to_parent_map</text>
<text text-anchor="middle" x="1293" y="-88.5" font-family="Helvetica,sans-Serif" font-size="10.00">_attribute_name</text>
</a>
</g>
</g>
<!-- Node2 -->
<g id="node2" class="node">
<title>Node2</title>
<g id="a_node2"><a xlink:href="classwmtk_1_1_multi_mesh_manager.html#a8b976bb8988f1222287c54e10e4366de" target="_top" xlink:title=" ">
<polygon fill="none" stroke="black" points="1041,-112 1041,-142 1185,-142 1185,-112 1041,-112"/>
<text text-anchor="start" x="1049" y="-130" font-family="Helvetica,sans-Serif" font-size="10.00">wmtk::MultiMeshManager</text>
<text text-anchor="middle" x="1113" y="-119" font-family="Helvetica,sans-Serif" font-size="10.00">::check_child_map_valid</text>
</a>
</g>
</g>
<!-- Node1&#45;&gt;Node2 -->
<g id="edge1" class="edge">
<title>Node1&#45;&gt;Node2</title>
<path fill="none" stroke="midnightblue" d="M1210.83,-113.4C1202.21,-114.61 1193.49,-115.84 1185,-117.03"/>
<polygon fill="midnightblue" stroke="midnightblue" points="1211.47,-116.85 1220.88,-111.99 1210.49,-109.91 1211.47,-116.85"/>
</g>
<!-- Node4 -->
<g id="node4" class="node">
<title>Node4</title>
<g id="a_node4"><a xlink:href="classwmtk_1_1_multi_mesh_manager.html#ad6ad95e6f65b0e38ce1de249158db6f3" target="_top" xlink:title="register a another mesh as a child of this mesh.">
<polygon fill="none" stroke="black" points="1041,-63 1041,-93 1185,-93 1185,-63 1041,-63"/>
<text text-anchor="start" x="1049" y="-81" font-family="Helvetica,sans-Serif" font-size="10.00">wmtk::MultiMeshManager</text>
<text text-anchor="middle" x="1113" y="-70" font-family="Helvetica,sans-Serif" font-size="10.00">::register_child_mesh</text>
</a>
</g>
</g>
<!-- Node1&#45;&gt;Node4 -->
<g id="edge3" class="edge">
<title>Node1&#45;&gt;Node4</title>
<path fill="none" stroke="midnightblue" d="M1210.83,-91.06C1202.21,-89.89 1193.49,-88.72 1185,-87.57"/>
<polygon fill="midnightblue" stroke="midnightblue" points="1210.5,-94.54 1220.88,-92.41 1211.44,-87.61 1210.5,-94.54"/>
</g>
<!-- Node3 -->
<g id="node3" class="node">
<title>Node3</title>
<g id="a_node3"><a xlink:href="classwmtk_1_1_multi_mesh_manager.html#a6a85ae5901f9c5b6a383bc072f182a57" target="_top" xlink:title=" ">
<polygon fill="none" stroke="black" points="861,-112 861,-142 1005,-142 1005,-112 861,-112"/>
<text text-anchor="start" x="869" y="-130" font-family="Helvetica,sans-Serif" font-size="10.00">wmtk::MultiMeshManager</text>
<text text-anchor="middle" x="933" y="-119" font-family="Helvetica,sans-Serif" font-size="10.00">::check_map_valid</text>
</a>
</g>
</g>
<!-- Node2&#45;&gt;Node3 -->
<g id="edge2" class="edge">
<title>Node2&#45;&gt;Node3</title>
<path fill="none" stroke="midnightblue" d="M1030.83,-127C1022.21,-127 1013.49,-127 1005,-127"/>
<polygon fill="midnightblue" stroke="midnightblue" points="1030.88,-130.5 1040.88,-127 1030.88,-123.5 1030.88,-130.5"/>
</g>
<!-- Node5 -->
<g id="node5" class="node">
<title>Node5</title>
<g id="a_node5"><a xlink:href="classwmtk_1_1_mesh.html#a333e19ee5ddb037313fa7dbdb0e41771" target="_top" xlink:title="register a mesh as the child of this mesh">
<polygon fill="none" stroke="black" points="873,-63 873,-93 993,-93 993,-63 873,-63"/>
<text text-anchor="start" x="881" y="-81" font-family="Helvetica,sans-Serif" font-size="10.00">wmtk::Mesh::register</text>
<text text-anchor="middle" x="933" y="-70" font-family="Helvetica,sans-Serif" font-size="10.00">_child_mesh</text>
</a>
</g>
</g>
<!-- Node4&#45;&gt;Node5 -->
<g id="edge4" class="edge">
<title>Node4&#45;&gt;Node5</title>
<path fill="none" stroke="midnightblue" d="M1030.81,-78C1018.17,-78 1005.31,-78 993.28,-78"/>
<polygon fill="midnightblue" stroke="midnightblue" points="1030.88,-81.5 1040.88,-78 1030.88,-74.5 1030.88,-81.5"/>
</g>
<!-- Node6 -->
<g id="node6" class="node">
<title>Node6</title>
<g id="a_node6"><a xlink:href="classwmtk_1_1multimesh_1_1utils_1_1internal_1_1_tuple_tag.html#a89f54c784fb3d50bba75eb8d5db6ed8a" target="_top" xlink:title=" ">
<polygon fill="none" stroke="black" points="679,-52 679,-104 825,-104 825,-52 679,-52"/>
<text text-anchor="start" x="687" y="-92" font-family="Helvetica,sans-Serif" font-size="10.00">wmtk::multimesh::utils</text>
<text text-anchor="start" x="687" y="-81" font-family="Helvetica,sans-Serif" font-size="10.00">::internal::TupleTag::</text>
<text text-anchor="start" x="687" y="-70" font-family="Helvetica,sans-Serif" font-size="10.00">extract_and_register_child</text>
<text text-anchor="middle" x="752" y="-59" font-family="Helvetica,sans-Serif" font-size="10.00">_mesh_from_tag_handle</text>
</a>
</g>
</g>
<!-- Node5&#45;&gt;Node6 -->
<g id="edge5" class="edge">
<title>Node5&#45;&gt;Node6</title>
<path fill="none" stroke="midnightblue" d="M862.7,-78C850.38,-78 837.53,-78 825.14,-78"/>
<polygon fill="midnightblue" stroke="midnightblue" points="862.89,-81.5 872.89,-78 862.89,-74.5 862.89,-81.5"/>
</g>
<!-- Node7 -->
<g id="node7" class="node">
<title>Node7</title>
<g id="a_node7"><a xlink:href="namespacewmtk_1_1multimesh_1_1utils.html#a197be9245149c7042613aeacf231ec1d" target="_top" xlink:title="extract a child mesh based on the tag handle and the tag value, and register it to the input (parent)...">
<polygon fill="none" stroke="black" points="495.5,-87.5 495.5,-128.5 625.5,-128.5 625.5,-87.5 495.5,-87.5"/>
<text text-anchor="start" x="503.5" y="-116.5" font-family="Helvetica,sans-Serif" font-size="10.00">wmtk::multimesh::utils</text>
<text text-anchor="start" x="503.5" y="-105.5" font-family="Helvetica,sans-Serif" font-size="10.00">::extract_and_register</text>
<text text-anchor="middle" x="560.5" y="-94.5" font-family="Helvetica,sans-Serif" font-size="10.00">_child_mesh_from_tag</text>
</a>
</g>
</g>
<!-- Node6&#45;&gt;Node7 -->
<g id="edge6" class="edge">
<title>Node6&#45;&gt;Node7</title>
<path fill="none" stroke="midnightblue" d="M668.89,-91C654.44,-93.29 639.6,-95.64 625.72,-97.83"/>
<polygon fill="midnightblue" stroke="midnightblue" points="669.49,-94.45 678.82,-89.43 668.39,-87.53 669.49,-94.45"/>
</g>
<!-- Node8 -->
<g id="node8" class="node">
<title>Node8</title>
<g id="a_node8"><a xlink:href="namespacewmtk_1_1multimesh_1_1utils.html#a3ba02c50321ce0e6095c107cbb5edc13" target="_top" xlink:title="extract a child mesh based on the tag handle and the tag value, and register it to the input (parent)...">
<polygon fill="none" stroke="black" points="478,-27.5 478,-68.5 643,-68.5 643,-27.5 478,-27.5"/>
<text text-anchor="start" x="486" y="-56.5" font-family="Helvetica,sans-Serif" font-size="10.00">wmtk::multimesh::utils</text>
<text text-anchor="start" x="486" y="-45.5" font-family="Helvetica,sans-Serif" font-size="10.00">::extract_and_register</text>
<text text-anchor="middle" x="560.5" y="-34.5" font-family="Helvetica,sans-Serif" font-size="10.00">_child_mesh_from_tag_handle</text>
</a>
</g>
</g>
<!-- Node6&#45;&gt;Node8 -->
<g id="edge7" class="edge">
<title>Node6&#45;&gt;Node8</title>
<path fill="none" stroke="midnightblue" d="M668.92,-65.01C660.43,-63.66 651.79,-62.29 643.3,-60.95"/>
<polygon fill="midnightblue" stroke="midnightblue" points="668.39,-68.47 678.82,-66.57 669.49,-61.55 668.39,-68.47"/>
</g>
<!-- Node9 -->
<g id="node9" class="node">
<title>Node9</title>
<g id="a_node9"><a xlink:href="namespacewmtk_1_1multimesh_1_1utils.html#a9349b24597b61459c9d98753ae5234f1" target="_top" xlink:title="extract a child mesh based on the given tag and tag value, and register it to the input (parent) mesh">
<polygon fill="none" stroke="black" points="312,-27.5 312,-68.5 442,-68.5 442,-27.5 312,-27.5"/>
<text text-anchor="start" x="320" y="-56.5" font-family="Helvetica,sans-Serif" font-size="10.00">wmtk::multimesh::utils</text>
<text text-anchor="start" x="320" y="-45.5" font-family="Helvetica,sans-Serif" font-size="10.00">::extract_and_register</text>
<text text-anchor="middle" x="377" y="-34.5" font-family="Helvetica,sans-Serif" font-size="10.00">_child_mesh_from_tag</text>
</a>
</g>
</g>
<!-- Node8&#45;&gt;Node9 -->
<g id="edge8" class="edge">
<title>Node8&#45;&gt;Node9</title>
<path fill="none" stroke="midnightblue" d="M467.66,-48C459.04,-48 450.42,-48 442.13,-48"/>
<polygon fill="midnightblue" stroke="midnightblue" points="467.78,-51.5 477.78,-48 467.78,-44.5 467.78,-51.5"/>
</g>
<!-- Node10 -->
<g id="node10" class="node">
<title>Node10</title>
<g id="a_node10"><a xlink:href="namespacewmtk_1_1utils.html#af5ade8ca9598ff7d68dd37bcf395b9aa" target="_top" xlink:title=" ">
<polygon fill="none" stroke="black" points="115,-76.5 115,-117.5 268,-117.5 268,-76.5 115,-76.5"/>
<text text-anchor="start" x="123" y="-105.5" font-family="Helvetica,sans-Serif" font-size="10.00">wmtk::utils::generate</text>
<text text-anchor="start" x="123" y="-94.5" font-family="Helvetica,sans-Serif" font-size="10.00">_raw_tetmesh_with_surface</text>
<text text-anchor="middle" x="191.5" y="-83.5" font-family="Helvetica,sans-Serif" font-size="10.00">_from_input</text>
</a>
</g>
</g>
<!-- Node9&#45;&gt;Node10 -->
<g id="edge9" class="edge">
<title>Node9&#45;&gt;Node10</title>
<path fill="none" stroke="midnightblue" d="M302.14,-67.72C290.99,-70.7 279.48,-73.77 268.3,-76.76"/>
<polygon fill="midnightblue" stroke="midnightblue" points="303.06,-71.1 311.82,-65.14 301.26,-64.34 303.06,-71.1"/>
</g>
<!-- Node11 -->
<g id="node11" class="node">
<title>Node11</title>
<g id="a_node11"><a xlink:href="namespacewmtk_1_1components.html#aac69455341d52516952b0655d254ec51" target="_top" xlink:title=" ">
<polygon fill="none" stroke="black" points="107,-38.5 107,-57.5 276,-57.5 276,-38.5 107,-38.5"/>
<text text-anchor="middle" x="191.5" y="-45.5" font-family="Helvetica,sans-Serif" font-size="10.00">wmtk::components::multimesh</text>
</a>
</g>
</g>
<!-- Node9&#45;&gt;Node11 -->
<g id="edge10" class="edge">
<title>Node9&#45;&gt;Node11</title>
<path fill="none" stroke="midnightblue" d="M301.73,-48C293.36,-48 284.8,-48 276.32,-48"/>
<polygon fill="midnightblue" stroke="midnightblue" points="301.82,-51.5 311.82,-48 301.82,-44.5 301.82,-51.5"/>
</g>
<!-- Node13 -->
<g id="node13" class="node">
<title>Node13</title>
<g id="a_node13"><a xlink:href="test__component__isotropic__remeshing_8cpp.html#aae475685ae29b731655dd43137a950d6" target="_top" xlink:title=" ">
<polygon fill="none" stroke="black" points="156,-0.5 156,-19.5 227,-19.5 227,-0.5 156,-0.5"/>
<text text-anchor="middle" x="191.5" y="-7.5" font-family="Helvetica,sans-Serif" font-size="10.00">TEST_CASE</text>
</a>
</g>
</g>
<!-- Node9&#45;&gt;Node13 -->
<g id="edge12" class="edge">
<title>Node9&#45;&gt;Node13</title>
<path fill="none" stroke="midnightblue" d="M301.99,-32.67C276.06,-27.3 248.15,-21.52 227,-17.14"/>
<polygon fill="midnightblue" stroke="midnightblue" points="301.32,-36.11 311.82,-34.71 302.74,-29.25 301.32,-36.11"/>
</g>
<!-- Node12 -->
<g id="node12" class="node">
<title>Node12</title>
<g id="a_node12"><a xlink:href="test__component__multimesh_8cpp.html#adcff0ee9e850d29cff036dae09747fe6" target="_top" xlink:title=" ">
<polygon fill="none" stroke="black" points="0,-38.5 0,-57.5 71,-57.5 71,-38.5 0,-38.5"/>
<text text-anchor="middle" x="35.5" y="-45.5" font-family="Helvetica,sans-Serif" font-size="10.00">TEST_CASE</text>
</a>
</g>
</g>
<!-- Node11&#45;&gt;Node12 -->
<g id="edge11" class="edge">
<title>Node11&#45;&gt;Node12</title>
<path fill="none" stroke="midnightblue" d="M96.52,-48C87.57,-48 78.93,-48 71.14,-48"/>
<polygon fill="midnightblue" stroke="midnightblue" points="96.74,-51.5 106.74,-48 96.74,-44.5 96.74,-51.5"/>
</g>
</g>
</svg>
