<?xml version="1.0" encoding="UTF-8" standalone="no"?>
<!DOCTYPE svg PUBLIC "-//W3C//DTD SVG 1.1//EN"
 "http://www.w3.org/Graphics/SVG/1.1/DTD/svg11.dtd">
<!-- Generated by graphviz version 2.43.0 (0)
 -->
<!-- Title: wmtk::simplex::OpenStarIterable Pages: 1 -->
<!--zoomable 362 -->
<svg id="main" version="1.1" xmlns="http://www.w3.org/2000/svg" xmlns:xlink="http://www.w3.org/1999/xlink" xml:space="preserve" onload="init(evt)">
<style type="text/css"><![CDATA[
.edge:hover path { stroke: red; }
.edge:hover polygon { stroke: red; fill: red; }
]]></style>
<script type="text/javascript"><![CDATA[
var edges = document.getElementsByTagName('g');
if (edges && edges.length) {
  for (var i=0;i<edges.length;i++) {
    if (edges[i].id.substr(0,4)=='edge') {
      edges[i].setAttribute('class','edge');
    }
  }
}
]]></script>
        <defs>
                <circle id="rim" cx="0" cy="0" r="7"/>
                <circle id="rim2" cx="0" cy="0" r="3.5"/>
                <g id="zoomPlus">
                        <use xlink:href="#rim" fill="#404040">
                                <set attributeName="fill" to="#808080" begin="zoomplus.mouseover" end="zoomplus.mouseout"/>
                        </use>
                        <path d="M-4,0h8M0,-4v8" fill="none" stroke="white" stroke-width="1.5" pointer-events="none"/>
                </g>
                <g id="zoomMin">
                        <use xlink:href="#rim" fill="#404040">
                                <set attributeName="fill" to="#808080" begin="zoomminus.mouseover" end="zoomminus.mouseout"/>
                        </use>
                        <path d="M-4,0h8" fill="none" stroke="white" stroke-width="1.5" pointer-events="none"/>
                </g>
                <g id="dirArrow">
                        <path fill="none" stroke="white" stroke-width="1.5" d="M0,-3.0v7 M-2.5,-0.5L0,-3.0L2.5,-0.5"/>
                </g>
               <g id="resetDef">
                       <use xlink:href="#rim2" fill="#404040">
                               <set attributeName="fill" to="#808080" begin="reset.mouseover" end="reset.mouseout"/>
                       </use>
               </g>
        </defs>

<script type="text/javascript">
var viewWidth = 1957;
var viewHeight = 362;
var sectionId = 'dynsection-0';
</script>
<script xlink:href="svgpan.js"/>
<svg id="graph" class="graph">
<g id="viewport">
<title>wmtk::simplex::OpenStarIterable</title>
<!-- Node1 -->
<g id="node1" class="node">
<title>Node1</title>
<g id="a_node1"><a xlink:title="This iterator internally uses TopDimensionCofacesIterable.">
<polygon fill="#bfbfbf" stroke="black" points="1771,-91 1771,-110 1949,-110 1949,-91 1771,-91"/>
<text text-anchor="middle" x="1860" y="-98" font-family="Helvetica,sans-Serif" font-size="10.00">wmtk::simplex::OpenStarIterable</text>
</a>
</g>
</g>
<!-- Node2 -->
<g id="node2" class="node">
<title>Node2</title>
<g id="a_node2"><a xlink:href="classwmtk_1_1simplex_1_1_top_dimension_cofaces_iterable.html" target="_top" xlink:title="Iterating through the d&#45;simplices of a mesh can be done in different ways, depending on the simplex d...">
<polygon fill="none" stroke="black" points="1258,-43.5 1258,-73.5 1422,-73.5 1422,-43.5 1258,-43.5"/>
<text text-anchor="start" x="1266" y="-61.5" font-family="Helvetica,sans-Serif" font-size="10.00">wmtk::simplex::TopDimension</text>
<text text-anchor="middle" x="1340" y="-50.5" font-family="Helvetica,sans-Serif" font-size="10.00">CofacesIterable</text>
</a>
</g>
</g>
<!-- Node2&#45;&gt;Node1 -->
<g id="edge1" class="edge">
<title>Node2&#45;&gt;Node1</title>
<path fill="none" stroke="#9a32cd" stroke-dasharray="5,2" d="M1418.79,-41.59C1489.14,-28.96 1595.27,-16.55 1686,-33.5 1745.2,-44.56 1810.23,-75.21 1840.97,-90.93"/>
<polygon fill="#9a32cd" stroke="#9a32cd" points="1417.88,-38.2 1408.68,-43.45 1419.15,-45.08 1417.88,-38.2"/>
<text text-anchor="middle" x="1604" y="-36.5" font-family="Helvetica,sans-Serif" font-size="10.00"> m_tdc_itrbl</text>
</g>
<!-- Node19 -->
<g id="node19" class="node">
<title>Node19</title>
<g id="a_node19"><a xlink:href="classwmtk_1_1simplex_1_1_top_dimension_cofaces_iterable_1_1_iterator.html" target="_top" xlink:title=" ">
<polygon fill="none" stroke="black" points="1522,-54.5 1522,-84.5 1686,-84.5 1686,-54.5 1522,-54.5"/>
<text text-anchor="start" x="1530" y="-72.5" font-family="Helvetica,sans-Serif" font-size="10.00">wmtk::simplex::TopDimension</text>
<text text-anchor="middle" x="1604" y="-61.5" font-family="Helvetica,sans-Serif" font-size="10.00">CofacesIterable::Iterator</text>
</a>
</g>
</g>
<!-- Node2&#45;&gt;Node19 -->
<g id="edge25" class="edge">
<title>Node2&#45;&gt;Node19</title>
<path fill="none" stroke="#9a32cd" stroke-dasharray="5,2" d="M1432.28,-62.33C1461.42,-63.56 1493.46,-64.9 1521.83,-66.09"/>
<polygon fill="#9a32cd" stroke="#9a32cd" points="1432.24,-58.83 1422.1,-61.91 1431.95,-65.82 1432.24,-58.83"/>
<text text-anchor="middle" x="1472" y="-68.5" font-family="Helvetica,sans-Serif" font-size="10.00"> m_container</text>
</g>
<!-- Node3 -->
<g id="node3" class="node">
<title>Node3</title>
<g id="a_node3"><a xlink:href="classwmtk_1_1simplex_1_1internal_1_1_visited_array.html" target="_top" xlink:title=" ">
<polygon fill="none" stroke="black" points="958,-44.5 958,-74.5 1097,-74.5 1097,-44.5 958,-44.5"/>
<text text-anchor="start" x="966" y="-62.5" font-family="Helvetica,sans-Serif" font-size="10.00">wmtk::simplex::internal</text>
<text text-anchor="middle" x="1027.5" y="-51.5" font-family="Helvetica,sans-Serif" font-size="10.00">::VisitedArray&lt; int64_t &gt;</text>
</a>
</g>
</g>
<!-- Node3&#45;&gt;Node2 -->
<g id="edge2" class="edge">
<title>Node3&#45;&gt;Node2</title>
<path fill="none" stroke="#9a32cd" stroke-dasharray="5,2" d="M1107.67,-54.74C1110.14,-54.65 1112.59,-54.57 1115,-54.5 1170.53,-52.9 1184.46,-53.38 1240,-54.5 1245.85,-54.62 1251.89,-54.78 1257.97,-54.96"/>
<polygon fill="#9a32cd" stroke="#9a32cd" points="1107.27,-51.25 1097.42,-55.16 1107.55,-58.25 1107.27,-51.25"/>
<text text-anchor="middle" x="1177.5" y="-57.5" font-family="Helvetica,sans-Serif" font-size="10.00"> m_visited</text>
</g>
<!-- Node4 -->
<g id="node4" class="node">
<title>Node4</title>
<g id="a_node4"><a xlink:href="classwmtk_1_1simplex_1_1internal_1_1_visited_array.html" target="_top" xlink:title=" ">
<polygon fill="none" stroke="black" points="646,-44.5 646,-74.5 810,-74.5 810,-44.5 646,-44.5"/>
<text text-anchor="start" x="654" y="-62.5" font-family="Helvetica,sans-Serif" font-size="10.00">wmtk::simplex::internal</text>
<text text-anchor="middle" x="728" y="-51.5" font-family="Helvetica,sans-Serif" font-size="10.00">::VisitedArray&lt; T, ArraySize &gt;</text>
</a>
</g>
</g>
<!-- Node4&#45;&gt;Node3 -->
<g id="edge3" class="edge">
<title>Node4&#45;&gt;Node3</title>
<path fill="none" stroke="orange" stroke-dasharray="5,2" d="M820.49,-59.5C864.79,-59.5 917.08,-59.5 957.9,-59.5"/>
<polygon fill="orange" stroke="orange" points="820.29,-56 810.29,-59.5 820.29,-63 820.29,-56"/>
<text text-anchor="middle" x="885.5" y="-62.5" font-family="Helvetica,sans-Serif" font-size="10.00"> &lt; int64_t &gt;</text>
</g>
<!-- Node5 -->
<g id="node5" class="node">
<title>Node5</title>
<g id="a_node5"><a xlink:href="classwmtk_1_1utils_1_1_dynamic_array.html" target="_top" xlink:title=" ">
<polygon fill="none" stroke="black" points="290.5,-44.5 290.5,-74.5 437.5,-74.5 437.5,-44.5 290.5,-44.5"/>
<text text-anchor="start" x="298.5" y="-62.5" font-family="Helvetica,sans-Serif" font-size="10.00">wmtk::utils::DynamicArray</text>
<text text-anchor="middle" x="364" y="-51.5" font-family="Helvetica,sans-Serif" font-size="10.00">&lt; T, 50 &gt;</text>
</a>
</g>
</g>
<!-- Node5&#45;&gt;Node4 -->
<g id="edge4" class="edge">
<title>Node5&#45;&gt;Node4</title>
<path fill="none" stroke="#9a32cd" stroke-dasharray="5,2" d="M447.91,-59.5C507.28,-59.5 586.81,-59.5 645.78,-59.5"/>
<polygon fill="#9a32cd" stroke="#9a32cd" points="447.82,-56 437.82,-59.5 447.82,-63 447.82,-56"/>
<text text-anchor="middle" x="551.5" y="-62.5" font-family="Helvetica,sans-Serif" font-size="10.00"> m_visited</text>
</g>
<!-- Node6 -->
<g id="node6" class="node">
<title>Node6</title>
<g id="a_node6"><a xlink:href="classwmtk_1_1utils_1_1_dynamic_array.html" target="_top" xlink:title=" ">
<polygon fill="none" stroke="black" points="0,-20.5 0,-50.5 147,-50.5 147,-20.5 0,-20.5"/>
<text text-anchor="start" x="8" y="-38.5" font-family="Helvetica,sans-Serif" font-size="10.00">wmtk::utils::DynamicArray</text>
<text text-anchor="middle" x="73.5" y="-27.5" font-family="Helvetica,sans-Serif" font-size="10.00">&lt; T, ArraySize &gt;</text>
</a>
</g>
</g>
<!-- Node6&#45;&gt;Node5 -->
<g id="edge5" class="edge">
<title>Node6&#45;&gt;Node5</title>
<path fill="none" stroke="orange" stroke-dasharray="5,2" d="M157.51,-42.41C199.52,-45.9 250.04,-50.1 290.47,-53.47"/>
<polygon fill="orange" stroke="orange" points="157.56,-38.9 147.3,-41.56 156.98,-45.87 157.56,-38.9"/>
<text text-anchor="middle" x="207.5" y="-53.5" font-family="Helvetica,sans-Serif" font-size="10.00"> &lt; T, 50 &gt;</text>
</g>
<!-- Node7 -->
<g id="node7" class="node">
<title>Node7</title>
<g id="a_node7"><a xlink:href="classwmtk_1_1utils_1_1_dynamic_array.html" target="_top" xlink:title=" ">
<polygon fill="none" stroke="black" points="478,-0.5 478,-30.5 625,-30.5 625,-0.5 478,-0.5"/>
<text text-anchor="start" x="486" y="-18.5" font-family="Helvetica,sans-Serif" font-size="10.00">wmtk::utils::DynamicArray</text>
<text text-anchor="middle" x="551.5" y="-7.5" font-family="Helvetica,sans-Serif" font-size="10.00">&lt; wmtk::Tuple &gt;</text>
</a>
</g>
</g>
<!-- Node6&#45;&gt;Node7 -->
<g id="edge7" class="edge">
<title>Node6&#45;&gt;Node7</title>
<path fill="none" stroke="orange" stroke-dasharray="5,2" d="M157.25,-28.95C159.87,-28.79 162.45,-28.64 165,-28.5 273.99,-22.45 400.47,-18.83 477.99,-17.01"/>
<polygon fill="orange" stroke="orange" points="156.85,-25.47 147.09,-29.61 157.3,-32.46 156.85,-25.47"/>
<text text-anchor="middle" x="207.5" y="-31.5" font-family="Helvetica,sans-Serif" font-size="10.00"> &lt; wmtk::Tuple &gt;</text>
</g>
<!-- Node7&#45;&gt;Node2 -->
<g id="edge6" class="edge">
<title>Node7&#45;&gt;Node2</title>
<path fill="none" stroke="#9a32cd" stroke-dasharray="5,2" d="M635.3,-16.74C742.1,-18.72 933.57,-23.56 1097,-34.5 1150.71,-38.1 1210.95,-44.06 1257.89,-49.15"/>
<polygon fill="#9a32cd" stroke="#9a32cd" points="635.3,-13.24 625.24,-16.56 635.17,-20.24 635.3,-13.24"/>
<text text-anchor="middle" x="885.5" y="-29.5" font-family="Helvetica,sans-Serif" font-size="10.00"> m_q</text>
</g>
<!-- Node8 -->
<g id="node8" class="node">
<title>Node8</title>
<g id="a_node8"><a xlink:href="classwmtk_1_1_mesh.html" target="_top" xlink:title=" ">
<polygon fill="none" stroke="black" points="989,-280 989,-299 1066,-299 1066,-280 989,-280"/>
<text text-anchor="middle" x="1027.5" y="-287" font-family="Helvetica,sans-Serif" font-size="10.00">wmtk::Mesh</text>
</a>
</g>
</g>
<!-- Node8&#45;&gt;Node1 -->
<g id="edge23" class="edge">
<title>Node8&#45;&gt;Node1</title>
<path fill="none" stroke="#9a32cd" stroke-dasharray="5,2" d="M1076.22,-278.99C1119.1,-269.53 1183.78,-255.19 1240,-242.5 1457.79,-193.32 1718.34,-133.09 1817.73,-110.07"/>
<polygon fill="#9a32cd" stroke="#9a32cd" points="1075.35,-275.6 1066.34,-281.17 1076.86,-282.44 1075.35,-275.6"/>
<text text-anchor="middle" x="1472" y="-199.5" font-family="Helvetica,sans-Serif" font-size="10.00"> m_mesh</text>
</g>
<!-- Node8&#45;&gt;Node2 -->
<g id="edge8" class="edge">
<title>Node8&#45;&gt;Node2</title>
<path fill="none" stroke="#9a32cd" stroke-dasharray="5,2" d="M1049.94,-274.15C1067.19,-262.04 1092.22,-245 1115,-231.5 1168.87,-199.57 1190.31,-204.6 1240,-166.5 1276.53,-138.48 1310.9,-96.1 1327.89,-73.66"/>
<polygon fill="#9a32cd" stroke="#9a32cd" points="1047.83,-271.36 1041.69,-279.99 1051.87,-277.07 1047.83,-271.36"/>
<text text-anchor="middle" x="1177.5" y="-234.5" font-family="Helvetica,sans-Serif" font-size="10.00"> m_mesh</text>
</g>
<!-- Node16 -->
<g id="node16" class="node">
<title>Node16</title>
<g id="a_node16"><a xlink:href="classwmtk_1_1multimesh_1_1_multi_mesh_manager.html" target="_top" xlink:title="Implementation details for how the Mesh class implements multiple meshes.">
<polygon fill="none" stroke="black" points="1260,-296.5 1260,-326.5 1420,-326.5 1420,-296.5 1260,-296.5"/>
<text text-anchor="start" x="1268" y="-314.5" font-family="Helvetica,sans-Serif" font-size="10.00">wmtk::multimesh::MultiMesh</text>
<text text-anchor="middle" x="1340" y="-303.5" font-family="Helvetica,sans-Serif" font-size="10.00">Manager</text>
</a>
</g>
</g>
<!-- Node8&#45;&gt;Node16 -->
<g id="edge20" class="edge">
<title>Node8&#45;&gt;Node16</title>
<path fill="none" stroke="#9a32cd" stroke-dasharray="5,2" d="M1076.53,-296.97C1089.03,-298.7 1102.5,-300.36 1115,-301.5 1162.97,-305.89 1216.91,-308.37 1259.83,-309.76"/>
<polygon fill="#9a32cd" stroke="#9a32cd" points="1076.7,-293.46 1066.31,-295.52 1075.72,-300.39 1076.7,-293.46"/>
<text text-anchor="middle" x="1177.5" y="-311.5" font-family="Helvetica,sans-Serif" font-size="10.00"> m_parent</text>
</g>
<!-- Node9 -->
<g id="node9" class="node">
<title>Node9</title>
<g id="a_node9"><a xlink:title=" ">
<polygon fill="none" stroke="#bfbfbf" points="669.5,-231.5 669.5,-261.5 786.5,-261.5 786.5,-231.5 669.5,-231.5"/>
<text text-anchor="start" x="677.5" y="-249.5" font-family="Helvetica,sans-Serif" font-size="10.00">std::enable_shared</text>
<text text-anchor="middle" x="728" y="-238.5" font-family="Helvetica,sans-Serif" font-size="10.00">_from_this&lt; Mesh &gt;</text>
</a>
</g>
</g>
<!-- Node9&#45;&gt;Node8 -->
<g id="edge9" class="edge">
<title>Node9&#45;&gt;Node8</title>
<path fill="none" stroke="midnightblue" d="M796.77,-256.3C856.24,-264.89 940.53,-277.07 988.75,-284.04"/>
<polygon fill="midnightblue" stroke="midnightblue" points="797.11,-252.81 786.71,-254.84 796.11,-259.74 797.11,-252.81"/>
</g>
<!-- Node10 -->
<g id="node10" class="node">
<title>Node10</title>
<g id="a_node10"><a xlink:href="classwmtk_1_1utils_1_1_merkle_tree_interior_node.html" target="_top" xlink:title=" ">
<polygon fill="none" stroke="black" points="268,-330 268,-349 460,-349 460,-330 268,-330"/>
<text text-anchor="middle" x="364" y="-337" font-family="Helvetica,sans-Serif" font-size="10.00">wmtk::utils::MerkleTreeInteriorNode</text>
</a>
</g>
</g>
<!-- Node10&#45;&gt;Node8 -->
<g id="edge10" class="edge">
<title>Node10&#45;&gt;Node8</title>
<path fill="none" stroke="midnightblue" d="M470.5,-339.8C586.31,-338.7 777.43,-332.67 940,-307.5 956.07,-305.01 973.66,-301.5 988.76,-298.24"/>
<polygon fill="midnightblue" stroke="midnightblue" points="470.19,-336.3 460.22,-339.89 470.25,-343.3 470.19,-336.3"/>
</g>
<!-- Node12 -->
<g id="node12" class="node">
<title>Node12</title>
<g id="a_node12"><a xlink:href="classwmtk_1_1attribute_1_1_attribute_manager.html" target="_top" xlink:title=" ">
<polygon fill="none" stroke="black" points="657.5,-280.5 657.5,-310.5 798.5,-310.5 798.5,-280.5 657.5,-280.5"/>
<text text-anchor="start" x="665.5" y="-298.5" font-family="Helvetica,sans-Serif" font-size="10.00">wmtk::attribute::Attribute</text>
<text text-anchor="middle" x="728" y="-287.5" font-family="Helvetica,sans-Serif" font-size="10.00">Manager</text>
</a>
</g>
</g>
<!-- Node10&#45;&gt;Node12 -->
<g id="edge13" class="edge">
<title>Node10&#45;&gt;Node12</title>
<path fill="none" stroke="midnightblue" d="M451.62,-328.74C460.53,-327.64 469.45,-326.55 478,-325.5 538.62,-318.09 607.55,-309.8 657.5,-303.81"/>
<polygon fill="midnightblue" stroke="midnightblue" points="451.08,-325.28 441.58,-329.98 451.94,-332.23 451.08,-325.28"/>
</g>
<!-- Node10&#45;&gt;Node16 -->
<g id="edge18" class="edge">
<title>Node10&#45;&gt;Node16</title>
<path fill="none" stroke="midnightblue" d="M454.57,-349.89C462.49,-350.54 470.38,-351.1 478,-351.5 543.24,-354.95 559.68,-352.99 625,-351.5 898.55,-345.28 967.33,-346.2 1240,-323.5 1246.47,-322.96 1253.17,-322.32 1259.89,-321.63"/>
<polygon fill="midnightblue" stroke="midnightblue" points="454.82,-346.4 444.55,-349.02 454.21,-353.37 454.82,-346.4"/>
</g>
<!-- Node11 -->
<g id="node11" class="node">
<title>Node11</title>
<g id="a_node11"><a xlink:href="classwmtk_1_1utils_1_1_hashable.html" target="_top" xlink:title=" ">
<polygon fill="none" stroke="black" points="12,-330 12,-349 135,-349 135,-330 12,-330"/>
<text text-anchor="middle" x="73.5" y="-337" font-family="Helvetica,sans-Serif" font-size="10.00">wmtk::utils::Hashable</text>
</a>
</g>
</g>
<!-- Node11&#45;&gt;Node10 -->
<g id="edge11" class="edge">
<title>Node11&#45;&gt;Node10</title>
<path fill="none" stroke="midnightblue" d="M145.5,-339.5C182.39,-339.5 227.99,-339.5 267.9,-339.5"/>
<polygon fill="midnightblue" stroke="midnightblue" points="145.33,-336 135.33,-339.5 145.33,-343 145.33,-336"/>
</g>
<!-- Node12&#45;&gt;Node8 -->
<g id="edge12" class="edge">
<title>Node12&#45;&gt;Node8</title>
<path fill="none" stroke="#9a32cd" stroke-dasharray="5,2" d="M809.07,-293.89C867.48,-292.71 943.99,-291.16 988.94,-290.26"/>
<polygon fill="#9a32cd" stroke="#9a32cd" points="808.68,-290.39 798.75,-294.09 808.82,-297.39 808.68,-290.39"/>
<text text-anchor="middle" x="885.5" y="-295.5" font-family="Helvetica,sans-Serif" font-size="10.00"> m_attribute_manager</text>
</g>
<!-- Node13 -->
<g id="node13" class="node">
<title>Node13</title>
<g id="a_node13"><a xlink:href="classwmtk_1_1attribute_1_1_typed_attribute_handle.html" target="_top" xlink:title=" ">
<polygon fill="none" stroke="black" points="643,-182.5 643,-212.5 813,-212.5 813,-182.5 643,-182.5"/>
<text text-anchor="start" x="651" y="-200.5" font-family="Helvetica,sans-Serif" font-size="10.00">wmtk::attribute::TypedAttribute</text>
<text text-anchor="middle" x="728" y="-189.5" font-family="Helvetica,sans-Serif" font-size="10.00">Handle&lt; int64_t &gt;</text>
</a>
</g>
</g>
<!-- Node13&#45;&gt;Node8 -->
<g id="edge14" class="edge">
<title>Node13&#45;&gt;Node8</title>
<path fill="none" stroke="#9a32cd" stroke-dasharray="5,2" d="M823.48,-214.53C860.38,-222.44 902.71,-233.11 940,-246.5 965.41,-255.63 993.07,-270.28 1010.1,-279.9"/>
<polygon fill="#9a32cd" stroke="#9a32cd" points="823.73,-211 813.22,-212.36 822.28,-217.85 823.73,-211"/>
<text text-anchor="middle" x="885.5" y="-249.5" font-family="Helvetica,sans-Serif" font-size="10.00"> m_cell_hash_handle</text>
</g>
<!-- Node13&#45;&gt;Node16 -->
<g id="edge19" class="edge">
<title>Node13&#45;&gt;Node16</title>
<path fill="none" stroke="#9a32cd" stroke-dasharray="5,2" d="M815.91,-180.94C921.1,-165.06 1101.36,-151.42 1240,-211.5 1281.25,-229.37 1314.34,-273.21 1329.7,-296.46"/>
<polygon fill="#9a32cd" stroke="#9a32cd" points="815.32,-177.49 805.97,-182.48 816.39,-184.41 815.32,-177.49"/>
<text text-anchor="middle" x="1027.5" y="-176.5" font-family="Helvetica,sans-Serif" font-size="10.00"> map_to_parent_handle</text>
</g>
<!-- Node14 -->
<g id="node14" class="node">
<title>Node14</title>
<g id="a_node14"><a xlink:href="classwmtk_1_1attribute_1_1_typed_attribute_handle.html" target="_top" xlink:title="Handle that represents attributes for some mesh.">
<polygon fill="none" stroke="black" points="279,-182.5 279,-212.5 449,-212.5 449,-182.5 279,-182.5"/>
<text text-anchor="start" x="287" y="-200.5" font-family="Helvetica,sans-Serif" font-size="10.00">wmtk::attribute::TypedAttribute</text>
<text text-anchor="middle" x="364" y="-189.5" font-family="Helvetica,sans-Serif" font-size="10.00">Handle&lt; T &gt;</text>
</a>
</g>
</g>
<!-- Node14&#45;&gt;Node13 -->
<g id="edge15" class="edge">
<title>Node14&#45;&gt;Node13</title>
<path fill="none" stroke="orange" stroke-dasharray="5,2" d="M459.48,-197.5C516.26,-197.5 587.91,-197.5 642.76,-197.5"/>
<polygon fill="orange" stroke="orange" points="459.42,-194 449.42,-197.5 459.42,-201 459.42,-194"/>
<text text-anchor="middle" x="551.5" y="-200.5" font-family="Helvetica,sans-Serif" font-size="10.00"> &lt; int64_t &gt;</text>
</g>
<!-- Node15 -->
<g id="node15" class="node">
<title>Node15</title>
<g id="a_node15"><a xlink:href="classwmtk_1_1attribute_1_1_attribute_handle.html" target="_top" xlink:title="Internal handle representation used by MeshAttributes.">
<polygon fill="none" stroke="black" points="3,-182.5 3,-212.5 144,-212.5 144,-182.5 3,-182.5"/>
<text text-anchor="start" x="11" y="-200.5" font-family="Helvetica,sans-Serif" font-size="10.00">wmtk::attribute::Attribute</text>
<text text-anchor="middle" x="73.5" y="-189.5" font-family="Helvetica,sans-Serif" font-size="10.00">Handle</text>
</a>
</g>
</g>
<!-- Node15&#45;&gt;Node14 -->
<g id="edge16" class="edge">
<title>Node15&#45;&gt;Node14</title>
<path fill="none" stroke="#9a32cd" stroke-dasharray="5,2" d="M154.52,-197.5C193.22,-197.5 239.68,-197.5 278.91,-197.5"/>
<polygon fill="#9a32cd" stroke="#9a32cd" points="154.34,-194 144.34,-197.5 154.34,-201 154.34,-194"/>
<text text-anchor="middle" x="207.5" y="-200.5" font-family="Helvetica,sans-Serif" font-size="10.00"> m_base_handle</text>
</g>
<!-- Node16&#45;&gt;Node8 -->
<g id="edge17" class="edge">
<title>Node16&#45;&gt;Node8</title>
<path fill="none" stroke="#9a32cd" stroke-dasharray="5,2" d="M1267.78,-294.58C1258.48,-292.91 1249.04,-291.47 1240,-290.5 1179.39,-284 1108.46,-285.51 1066.07,-287.37"/>
<polygon fill="#9a32cd" stroke="#9a32cd" points="1267.31,-298.06 1277.79,-296.48 1268.62,-291.18 1267.31,-298.06"/>
<text text-anchor="middle" x="1177.5" y="-293.5" font-family="Helvetica,sans-Serif" font-size="10.00"> m_multi_mesh_manager</text>
</g>
<!-- Node17 -->
<g id="node17" class="node">
<title>Node17</title>
<g id="a_node17"><a xlink:href="classwmtk_1_1simplex_1_1_simplex.html" target="_top" xlink:title=" ">
<polygon fill="none" stroke="black" points="960,-104 960,-123 1095,-123 1095,-104 960,-104"/>
<text text-anchor="middle" x="1027.5" y="-111" font-family="Helvetica,sans-Serif" font-size="10.00">wmtk::simplex::Simplex</text>
</a>
</g>
</g>
<!-- Node17&#45;&gt;Node1 -->
<g id="edge27" class="edge">
<title>Node17&#45;&gt;Node1</title>
<path fill="none" stroke="#9a32cd" stroke-dasharray="5,2" d="M1105.41,-112.3C1259.99,-109.88 1607.54,-104.44 1770.94,-101.88"/>
<polygon fill="#9a32cd" stroke="#9a32cd" points="1105,-108.8 1095.06,-112.46 1105.11,-115.8 1105,-108.8"/>
<text text-anchor="middle" x="1472" y="-110.5" font-family="Helvetica,sans-Serif" font-size="10.00"> m_simplex</text>
</g>
<!-- Node17&#45;&gt;Node2 -->
<g id="edge21" class="edge">
<title>Node17&#45;&gt;Node2</title>
<path fill="none" stroke="#9a32cd" stroke-dasharray="5,2" d="M1067.29,-100.96C1082.1,-96.52 1099.21,-91.82 1115,-88.5 1161.94,-78.63 1215.13,-71.35 1257.9,-66.43"/>
<polygon fill="#9a32cd" stroke="#9a32cd" points="1066,-97.7 1057.46,-103.97 1068.04,-104.39 1066,-97.7"/>
<text text-anchor="middle" x="1177.5" y="-91.5" font-family="Helvetica,sans-Serif" font-size="10.00"> m_simplex</text>
</g>
<!-- Node18 -->
<g id="node18" class="node">
<title>Node18</title>
<g id="a_node18"><a xlink:href="classwmtk_1_1_tuple.html" target="_top" xlink:title=" ">
<polygon fill="none" stroke="black" points="690,-126 690,-145 766,-145 766,-126 690,-126"/>
<text text-anchor="middle" x="728" y="-133" font-family="Helvetica,sans-Serif" font-size="10.00">wmtk::Tuple</text>
</a>
</g>
</g>
<!-- Node18&#45;&gt;Node17 -->
<g id="edge22" class="edge">
<title>Node18&#45;&gt;Node17</title>
<path fill="none" stroke="#9a32cd" stroke-dasharray="5,2" d="M776.62,-131.08C793.76,-129.55 813.24,-127.87 831,-126.5 873.9,-123.18 922.14,-119.97 959.97,-117.57"/>
<polygon fill="#9a32cd" stroke="#9a32cd" points="775.93,-127.63 766.29,-132.02 776.56,-134.6 775.93,-127.63"/>
<text text-anchor="middle" x="885.5" y="-129.5" font-family="Helvetica,sans-Serif" font-size="10.00"> m_tuple</text>
</g>
<!-- Node18&#45;&gt;Node19 -->
<g id="edge26" class="edge">
<title>Node18&#45;&gt;Node19</title>
<path fill="none" stroke="#9a32cd" stroke-dasharray="5,2" d="M776.63,-136.63C793.77,-136.98 813.25,-137.33 831,-137.5 879.44,-137.97 891.56,-138.14 940,-137.5 1190.73,-134.17 1261.61,-186.74 1504,-122.5 1532.83,-114.86 1562.56,-97.42 1581.82,-84.62"/>
<polygon fill="#9a32cd" stroke="#9a32cd" points="776.37,-133.12 766.3,-136.41 776.22,-140.12 776.37,-133.12"/>
<text text-anchor="middle" x="1177.5" y="-157.5" font-family="Helvetica,sans-Serif" font-size="10.00"> m_t</text>
</g>
<!-- Node19&#45;&gt;Node1 -->
<g id="edge24" class="edge">
<title>Node19&#45;&gt;Node1</title>
<path fill="none" stroke="#9a32cd" stroke-dasharray="5,2" d="M1696.16,-80.63C1723.88,-84.01 1754.09,-87.7 1780.87,-90.96"/>
<polygon fill="#9a32cd" stroke="#9a32cd" points="1696.42,-77.13 1686.07,-79.39 1695.57,-84.08 1696.42,-77.13"/>
<text text-anchor="middle" x="1728.5" y="-90.5" font-family="Helvetica,sans-Serif" font-size="10.00"> m_it_end</text>
</g>
</g>
</svg>
        <g id="navigator" transform="translate(0 0)" fill="#404254">
                <rect fill="#f2f5e9" fill-opacity="0.5" stroke="#606060" stroke-width=".5" x="0" y="0" width="60" height="60"/>
                <use id="zoomplus" xlink:href="#zoomPlus" x="17" y="9" onmousedown="handleZoom(evt,'in')"/>
                <use id="zoomminus" xlink:href="#zoomMin" x="42" y="9" onmousedown="handleZoom(evt,'out')"/>
                <use id="reset" xlink:href="#resetDef" x="30" y="36" onmousedown="handleReset()"/>
                <g id="arrowUp" xlink:href="#dirArrow" transform="translate(30 24)" onmousedown="handlePan(0,-1)">
                  <use xlink:href="#rim" fill="#404040">
                        <set attributeName="fill" to="#808080" begin="arrowUp.mouseover" end="arrowUp.mouseout"/>
                  </use>
                  <path fill="none" stroke="white" stroke-width="1.5" d="M0,-3.0v7 M-2.5,-0.5L0,-3.0L2.5,-0.5"/>
                </g>
                <g id="arrowRight" xlink:href="#dirArrow" transform="rotate(90) translate(36 -43)" onmousedown="handlePan(1,0)">
                  <use xlink:href="#rim" fill="#404040">
                        <set attributeName="fill" to="#808080" begin="arrowRight.mouseover" end="arrowRight.mouseout"/>
                  </use>
                  <path fill="none" stroke="white" stroke-width="1.5" d="M0,-3.0v7 M-2.5,-0.5L0,-3.0L2.5,-0.5"/>
                </g>
                <g id="arrowDown" xlink:href="#dirArrow" transform="rotate(180) translate(-30 -48)" onmousedown="handlePan(0,1)">
                  <use xlink:href="#rim" fill="#404040">
                        <set attributeName="fill" to="#808080" begin="arrowDown.mouseover" end="arrowDown.mouseout"/>
                  </use>
                  <path fill="none" stroke="white" stroke-width="1.5" d="M0,-3.0v7 M-2.5,-0.5L0,-3.0L2.5,-0.5"/>
                </g>
                <g id="arrowLeft" xlink:href="#dirArrow" transform="rotate(270) translate(-36 17)" onmousedown="handlePan(-1,0)">
                  <use xlink:href="#rim" fill="#404040">
                        <set attributeName="fill" to="#808080" begin="arrowLeft.mouseover" end="arrowLeft.mouseout"/>
                  </use>
                  <path fill="none" stroke="white" stroke-width="1.5" d="M0,-3.0v7 M-2.5,-0.5L0,-3.0L2.5,-0.5"/>
                </g>
        </g>
        <svg viewBox="0 0 15 15" width="100%" height="30px" preserveAspectRatio="xMaxYMin meet">
         <g id="arrow_out" transform="scale(0.3 0.3)">
          <a xlink:href="classwmtk_1_1simplex_1_1_open_star_iterable__coll__graph_org.svg" target="_base">
           <rect id="button" ry="5" rx="5" y="6" x="6" height="38" width="38"
                fill="#f2f5e9" fill-opacity="0.5" stroke="#606060" stroke-width="1.0"/>
           <path id="arrow"
             d="M 11.500037,31.436501 C 11.940474,20.09759 22.043105,11.32322 32.158766,21.979434 L 37.068811,17.246167 C 37.068811,17.246167 37.088388,32 37.088388,32 L 22.160133,31.978069 C 22.160133,31.978069 26.997745,27.140456 26.997745,27.140456 C 18.528582,18.264221 13.291696,25.230495 11.500037,31.436501 z"
             style="fill:#404040;"/>
          </a>
         </g>
        </svg>
</svg>
