<?xml version="1.0" encoding="UTF-8" standalone="no"?>
<!DOCTYPE svg PUBLIC "-//W3C//DTD SVG 1.1//EN"
 "http://www.w3.org/Graphics/SVG/1.1/DTD/svg11.dtd">
<!-- Generated by graphviz version 2.43.0 (0)
 -->
<!-- Title: wmtk::multimesh::MultiMeshManager::map Pages: 1 -->
<!--zoomable 187 -->
<svg id="main" version="1.1" xmlns="http://www.w3.org/2000/svg" xmlns:xlink="http://www.w3.org/1999/xlink" xml:space="preserve" onload="init(evt)">
<style type="text/css"><![CDATA[
.edge:hover path { stroke: red; }
.edge:hover polygon { stroke: red; fill: red; }
]]></style>
<script type="text/javascript"><![CDATA[
var edges = document.getElementsByTagName('g');
if (edges && edges.length) {
  for (var i=0;i<edges.length;i++) {
    if (edges[i].id.substr(0,4)=='edge') {
      edges[i].setAttribute('class','edge');
    }
  }
}
]]></script>
        <defs>
                <circle id="rim" cx="0" cy="0" r="7"/>
                <circle id="rim2" cx="0" cy="0" r="3.5"/>
                <g id="zoomPlus">
                        <use xlink:href="#rim" fill="#404040">
                                <set attributeName="fill" to="#808080" begin="zoomplus.mouseover" end="zoomplus.mouseout"/>
                        </use>
                        <path d="M-4,0h8M0,-4v8" fill="none" stroke="white" stroke-width="1.5" pointer-events="none"/>
                </g>
                <g id="zoomMin">
                        <use xlink:href="#rim" fill="#404040">
                                <set attributeName="fill" to="#808080" begin="zoomminus.mouseover" end="zoomminus.mouseout"/>
                        </use>
                        <path d="M-4,0h8" fill="none" stroke="white" stroke-width="1.5" pointer-events="none"/>
                </g>
                <g id="dirArrow">
                        <path fill="none" stroke="white" stroke-width="1.5" d="M0,-3.0v7 M-2.5,-0.5L0,-3.0L2.5,-0.5"/>
                </g>
               <g id="resetDef">
                       <use xlink:href="#rim2" fill="#404040">
                               <set attributeName="fill" to="#808080" begin="reset.mouseover" end="reset.mouseout"/>
                       </use>
               </g>
        </defs>

<script type="text/javascript">
var viewWidth = 930;
var viewHeight = 187;
var sectionId = 'dynsection-51';
</script>
<script xlink:href="svgpan.js"/>
<svg id="graph" class="graph">
<g id="viewport">
<title>wmtk::multimesh::MultiMeshManager::map</title>
<!-- Node1 -->
<g id="node1" class="node">
<title>Node1</title>
<g id="a_node1"><a xlink:title="maps a simplex from this mesh to any other mesh">
<polygon fill="#bfbfbf" stroke="black" points="762,-63 762,-93 922,-93 922,-63 762,-63"/>
<text text-anchor="start" x="770" y="-81" font-family="Helvetica,sans-Serif" font-size="10.00">wmtk::multimesh::MultiMesh</text>
<text text-anchor="middle" x="842" y="-70" font-family="Helvetica,sans-Serif" font-size="10.00">Manager::map</text>
</a>
</g>
</g>
<!-- Node2 -->
<g id="node2" class="node">
<title>Node2</title>
<g id="a_node2"><a xlink:href="classwmtk_1_1_mesh.html#abe23d31a7ad54af38da1bf7b6e232cab" target="_top" xlink:title="maps a simplex from this mesh to any other mesh">
<polygon fill="none" stroke="black" points="622,-68.5 622,-87.5 726,-87.5 726,-68.5 622,-68.5"/>
<text text-anchor="middle" x="674" y="-75.5" font-family="Helvetica,sans-Serif" font-size="10.00">wmtk::Mesh::map</text>
</a>
</g>
</g>
<!-- Node1&#45;&gt;Node2 -->
<g id="edge1" class="edge">
<title>Node1&#45;&gt;Node2</title>
<path fill="none" stroke="midnightblue" d="M751.88,-78C743.04,-78 734.29,-78 726.03,-78"/>
<polygon fill="midnightblue" stroke="midnightblue" points="751.89,-81.5 761.89,-78 751.89,-74.5 751.89,-81.5"/>
</g>
<!-- Node3 -->
<g id="node3" class="node">
<title>Node3</title>
<g id="a_node3"><a xlink:href="classwmtk_1_1operations_1_1_operation.html#af181d255eb0ef5297646e0dc9dc817a7" target="_top" xlink:title=" ">
<polygon fill="none" stroke="black" points="416,-137 416,-167 572,-167 572,-137 416,-137"/>
<text text-anchor="start" x="424" y="-155" font-family="Helvetica,sans-Serif" font-size="10.00">wmtk::operations::Operation</text>
<text text-anchor="middle" x="494" y="-144" font-family="Helvetica,sans-Serif" font-size="10.00">::apply_attribute_transfer</text>
</a>
</g>
</g>
<!-- Node2&#45;&gt;Node3 -->
<g id="edge2" class="edge">
<title>Node2&#45;&gt;Node3</title>
<path fill="none" stroke="midnightblue" d="M650.44,-93.19C633.35,-104.12 608.98,-118.56 586,-128 577.99,-131.29 569.4,-134.25 560.8,-136.87"/>
<polygon fill="midnightblue" stroke="midnightblue" points="652.66,-95.92 659.12,-87.52 648.83,-90.05 652.66,-95.92"/>
</g>
<!-- Node6 -->
<g id="node6" class="node">
<title>Node6</title>
<g id="a_node6"><a xlink:href="classwmtk_1_1operations_1_1_operation.html#ae802270b57ba3fe8ed2345b5777f46af" target="_top" xlink:title=" ">
<polygon fill="none" stroke="black" points="416,-88 416,-118 572,-118 572,-88 416,-88"/>
<text text-anchor="start" x="424" y="-106" font-family="Helvetica,sans-Serif" font-size="10.00">wmtk::operations::Operation</text>
<text text-anchor="middle" x="494" y="-95" font-family="Helvetica,sans-Serif" font-size="10.00">::before</text>
</a>
</g>
</g>
<!-- Node2&#45;&gt;Node6 -->
<g id="edge5" class="edge">
<title>Node2&#45;&gt;Node6</title>
<path fill="none" stroke="midnightblue" d="M611.95,-86.58C599.16,-88.37 585.52,-90.29 572.24,-92.15"/>
<polygon fill="midnightblue" stroke="midnightblue" points="612.58,-90.02 621.99,-85.16 611.6,-83.09 612.58,-90.02"/>
</g>
<!-- Node7 -->
<g id="node7" class="node">
<title>Node7</title>
<g id="a_node7"><a xlink:href="classwmtk_1_1invariants_1_1_invariant_collection.html#a120325711274b7754c4b6ae6b12151c9" target="_top" xlink:title=" ">
<polygon fill="none" stroke="black" points="402,-39 402,-69 586,-69 586,-39 402,-39"/>
<text text-anchor="start" x="410" y="-57" font-family="Helvetica,sans-Serif" font-size="10.00">wmtk::invariants::Invariant</text>
<text text-anchor="middle" x="494" y="-46" font-family="Helvetica,sans-Serif" font-size="10.00">Collection::directly_modified_after</text>
</a>
</g>
</g>
<!-- Node2&#45;&gt;Node7 -->
<g id="edge8" class="edge">
<title>Node2&#45;&gt;Node7</title>
<path fill="none" stroke="midnightblue" d="M611.96,-69.77C603.57,-68.64 594.81,-67.46 586.03,-66.27"/>
<polygon fill="midnightblue" stroke="midnightblue" points="611.61,-73.25 621.99,-71.12 612.55,-66.32 611.61,-73.25"/>
</g>
<!-- Node10 -->
<g id="node10" class="node">
<title>Node10</title>
<g id="a_node10"><a xlink:href="classwmtk_1_1_mesh.html#a8b63c6ed94b08ec217f7d2aa0b73d28a" target="_top" xlink:title=" ">
<polygon fill="none" stroke="black" points="442,-0.5 442,-19.5 546,-19.5 546,-0.5 442,-0.5"/>
<text text-anchor="middle" x="494" y="-7.5" font-family="Helvetica,sans-Serif" font-size="10.00">wmtk::Mesh::map</text>
</a>
</g>
</g>
<!-- Node2&#45;&gt;Node10 -->
<g id="edge12" class="edge">
<title>Node2&#45;&gt;Node10</title>
<path fill="none" stroke="midnightblue" d="M650.53,-62.79C633.49,-51.9 609.14,-37.69 586,-29 573.46,-24.29 559.49,-20.64 546.33,-17.85"/>
<polygon fill="midnightblue" stroke="midnightblue" points="648.9,-65.91 659.19,-68.44 652.73,-60.04 648.9,-65.91"/>
</g>
<!-- Node4 -->
<g id="node4" class="node">
<title>Node4</title>
<g id="a_node4"><a xlink:href="classwmtk_1_1operations_1_1_operation.html#a9c6426d34b54642aacb28e7cf93e328f" target="_top" xlink:title=" ">
<polygon fill="none" stroke="black" points="9,-86 9,-116 165,-116 165,-86 9,-86"/>
<text text-anchor="start" x="17" y="-104" font-family="Helvetica,sans-Serif" font-size="10.00">wmtk::operations::Operation</text>
<text text-anchor="middle" x="87" y="-93" font-family="Helvetica,sans-Serif" font-size="10.00">::operator()</text>
</a>
</g>
</g>
<!-- Node3&#45;&gt;Node4 -->
<g id="edge3" class="edge">
<title>Node3&#45;&gt;Node4</title>
<path fill="none" stroke="midnightblue" d="M416.29,-168.79C358.65,-178.43 278.24,-185.5 210,-168 170.91,-157.97 130.9,-132.52 107.81,-116.03"/>
<polygon fill="midnightblue" stroke="midnightblue" points="417.16,-172.19 426.42,-167.03 415.97,-165.29 417.16,-172.19"/>
</g>
<!-- Node5 -->
<g id="node5" class="node">
<title>Node5</title>
<g id="a_node5"><a xlink:href="classwmtk_1_1operations_1_1_operation_sequence.html#a547ec2a6ed8a354eff76e733b2e7fb2c" target="_top" xlink:title=" ">
<polygon fill="none" stroke="black" points="210,-128 210,-158 366,-158 366,-128 210,-128"/>
<text text-anchor="start" x="218" y="-146" font-family="Helvetica,sans-Serif" font-size="10.00">wmtk::operations::Operation</text>
<text text-anchor="middle" x="288" y="-135" font-family="Helvetica,sans-Serif" font-size="10.00">Sequence::operator()</text>
</a>
</g>
</g>
<!-- Node3&#45;&gt;Node5 -->
<g id="edge4" class="edge">
<title>Node3&#45;&gt;Node5</title>
<path fill="none" stroke="midnightblue" d="M405.88,-148.16C392.7,-147.58 379.18,-146.98 366.23,-146.41"/>
<polygon fill="midnightblue" stroke="midnightblue" points="405.73,-151.65 415.88,-148.6 406.04,-144.66 405.73,-151.65"/>
</g>
<!-- Node6&#45;&gt;Node4 -->
<g id="edge6" class="edge">
<title>Node6&#45;&gt;Node4</title>
<path fill="none" stroke="midnightblue" d="M405.53,-102.57C333.99,-102.21 233.78,-101.72 165.19,-101.38"/>
<polygon fill="midnightblue" stroke="midnightblue" points="405.85,-106.07 415.87,-102.62 405.89,-99.07 405.85,-106.07"/>
</g>
<!-- Node6&#45;&gt;Node5 -->
<g id="edge7" class="edge">
<title>Node6&#45;&gt;Node5</title>
<path fill="none" stroke="midnightblue" d="M406.62,-119.94C393.01,-122.61 379.01,-125.35 365.63,-127.97"/>
<polygon fill="midnightblue" stroke="midnightblue" points="407.32,-123.37 416.46,-118.01 405.97,-116.5 407.32,-123.37"/>
</g>
<!-- Node8 -->
<g id="node8" class="node">
<title>Node8</title>
<g id="a_node8"><a xlink:href="classwmtk_1_1operations_1_1_operation.html#a3cf4616909230345e0039b33c28d9214" target="_top" xlink:title=" ">
<polygon fill="none" stroke="black" points="210,-39 210,-69 366,-69 366,-39 210,-39"/>
<text text-anchor="start" x="218" y="-57" font-family="Helvetica,sans-Serif" font-size="10.00">wmtk::operations::Operation</text>
<text text-anchor="middle" x="288" y="-46" font-family="Helvetica,sans-Serif" font-size="10.00">::after</text>
</a>
</g>
</g>
<!-- Node7&#45;&gt;Node8 -->
<g id="edge9" class="edge">
<title>Node7&#45;&gt;Node8</title>
<path fill="none" stroke="midnightblue" d="M391.68,-54C383.1,-54 374.51,-54 366.16,-54"/>
<polygon fill="midnightblue" stroke="midnightblue" points="391.74,-57.5 401.74,-54 391.74,-50.5 391.74,-57.5"/>
</g>
<!-- Node8&#45;&gt;Node4 -->
<g id="edge11" class="edge">
<title>Node8&#45;&gt;Node4</title>
<path fill="none" stroke="midnightblue" d="M213.64,-71.33C193.27,-76.14 171.34,-81.32 151.59,-85.98"/>
<polygon fill="midnightblue" stroke="midnightblue" points="214.56,-74.71 223.49,-69 212.95,-67.89 214.56,-74.71"/>
</g>
<!-- Node9 -->
<g id="node9" class="node">
<title>Node9</title>
<g id="a_node9"><a xlink:href="classwmtk_1_1operations_1_1_edge_collapse.html#ac075c26432623a8592f66d7c4966353c" target="_top" xlink:title=" ">
<polygon fill="none" stroke="black" points="0,-37 0,-67 174,-67 174,-37 0,-37"/>
<text text-anchor="start" x="8" y="-55" font-family="Helvetica,sans-Serif" font-size="10.00">wmtk::operations::EdgeCollapse</text>
<text text-anchor="middle" x="87" y="-44" font-family="Helvetica,sans-Serif" font-size="10.00">::after</text>
</a>
</g>
</g>
<!-- Node8&#45;&gt;Node9 -->
<g id="edge10" class="edge">
<title>Node8&#45;&gt;Node9</title>
<path fill="none" stroke="midnightblue" d="M199.55,-53.12C191.1,-53.04 182.53,-52.95 174.1,-52.87"/>
<polygon fill="midnightblue" stroke="midnightblue" points="199.74,-56.62 209.78,-53.22 199.81,-49.62 199.74,-56.62"/>
</g>
</g>
</svg>
        <g id="navigator" transform="translate(0 0)" fill="#404254">
                <rect fill="#f2f5e9" fill-opacity="0.5" stroke="#606060" stroke-width=".5" x="0" y="0" width="60" height="60"/>
                <use id="zoomplus" xlink:href="#zoomPlus" x="17" y="9" onmousedown="handleZoom(evt,'in')"/>
                <use id="zoomminus" xlink:href="#zoomMin" x="42" y="9" onmousedown="handleZoom(evt,'out')"/>
                <use id="reset" xlink:href="#resetDef" x="30" y="36" onmousedown="handleReset()"/>
                <g id="arrowUp" xlink:href="#dirArrow" transform="translate(30 24)" onmousedown="handlePan(0,-1)">
                  <use xlink:href="#rim" fill="#404040">
                        <set attributeName="fill" to="#808080" begin="arrowUp.mouseover" end="arrowUp.mouseout"/>
                  </use>
                  <path fill="none" stroke="white" stroke-width="1.5" d="M0,-3.0v7 M-2.5,-0.5L0,-3.0L2.5,-0.5"/>
                </g>
                <g id="arrowRight" xlink:href="#dirArrow" transform="rotate(90) translate(36 -43)" onmousedown="handlePan(1,0)">
                  <use xlink:href="#rim" fill="#404040">
                        <set attributeName="fill" to="#808080" begin="arrowRight.mouseover" end="arrowRight.mouseout"/>
                  </use>
                  <path fill="none" stroke="white" stroke-width="1.5" d="M0,-3.0v7 M-2.5,-0.5L0,-3.0L2.5,-0.5"/>
                </g>
                <g id="arrowDown" xlink:href="#dirArrow" transform="rotate(180) translate(-30 -48)" onmousedown="handlePan(0,1)">
                  <use xlink:href="#rim" fill="#404040">
                        <set attributeName="fill" to="#808080" begin="arrowDown.mouseover" end="arrowDown.mouseout"/>
                  </use>
                  <path fill="none" stroke="white" stroke-width="1.5" d="M0,-3.0v7 M-2.5,-0.5L0,-3.0L2.5,-0.5"/>
                </g>
                <g id="arrowLeft" xlink:href="#dirArrow" transform="rotate(270) translate(-36 17)" onmousedown="handlePan(-1,0)">
                  <use xlink:href="#rim" fill="#404040">
                        <set attributeName="fill" to="#808080" begin="arrowLeft.mouseover" end="arrowLeft.mouseout"/>
                  </use>
                  <path fill="none" stroke="white" stroke-width="1.5" d="M0,-3.0v7 M-2.5,-0.5L0,-3.0L2.5,-0.5"/>
                </g>
        </g>
        <svg viewBox="0 0 15 15" width="100%" height="30px" preserveAspectRatio="xMaxYMin meet">
         <g id="arrow_out" transform="scale(0.3 0.3)">
          <a xlink:href="classwmtk_1_1multimesh_1_1_multi_mesh_manager_a99b3819552ae63c825dd77bebbd65040_icgraph_org.svg" target="_base">
           <rect id="button" ry="5" rx="5" y="6" x="6" height="38" width="38"
                fill="#f2f5e9" fill-opacity="0.5" stroke="#606060" stroke-width="1.0"/>
           <path id="arrow"
             d="M 11.500037,31.436501 C 11.940474,20.09759 22.043105,11.32322 32.158766,21.979434 L 37.068811,17.246167 C 37.068811,17.246167 37.088388,32 37.088388,32 L 22.160133,31.978069 C 22.160133,31.978069 26.997745,27.140456 26.997745,27.140456 C 18.528582,18.264221 13.291696,25.230495 11.500037,31.436501 z"
             style="fill:#404040;"/>
          </a>
         </g>
        </svg>
</svg>
