<?xml version="1.0" encoding="UTF-8" standalone="no"?>
<!DOCTYPE svg PUBLIC "-//W3C//DTD SVG 1.1//EN"
 "http://www.w3.org/Graphics/SVG/1.1/DTD/svg11.dtd">
<!-- Generated by graphviz version 2.43.0 (0)
 -->
<!-- Title: wmtk::operations::tet_mesh::CollapseNewAttributeStrategy::new_simplices Pages: 1 -->
<!--zoomable 258 -->
<svg id="main" version="1.1" xmlns="http://www.w3.org/2000/svg" xmlns:xlink="http://www.w3.org/1999/xlink" xml:space="preserve" onload="init(evt)">
<style type="text/css"><![CDATA[
.edge:hover path { stroke: red; }
.edge:hover polygon { stroke: red; fill: red; }
]]></style>
<script type="text/javascript"><![CDATA[
var edges = document.getElementsByTagName('g');
if (edges && edges.length) {
  for (var i=0;i<edges.length;i++) {
    if (edges[i].id.substr(0,4)=='edge') {
      edges[i].setAttribute('class','edge');
    }
  }
}
]]></script>
        <defs>
                <circle id="rim" cx="0" cy="0" r="7"/>
                <circle id="rim2" cx="0" cy="0" r="3.5"/>
                <g id="zoomPlus">
                        <use xlink:href="#rim" fill="#404040">
                                <set attributeName="fill" to="#808080" begin="zoomplus.mouseover" end="zoomplus.mouseout"/>
                        </use>
                        <path d="M-4,0h8M0,-4v8" fill="none" stroke="white" stroke-width="1.5" pointer-events="none"/>
                </g>
                <g id="zoomMin">
                        <use xlink:href="#rim" fill="#404040">
                                <set attributeName="fill" to="#808080" begin="zoomminus.mouseover" end="zoomminus.mouseout"/>
                        </use>
                        <path d="M-4,0h8" fill="none" stroke="white" stroke-width="1.5" pointer-events="none"/>
                </g>
                <g id="dirArrow">
                        <path fill="none" stroke="white" stroke-width="1.5" d="M0,-3.0v7 M-2.5,-0.5L0,-3.0L2.5,-0.5"/>
                </g>
               <g id="resetDef">
                       <use xlink:href="#rim2" fill="#404040">
                               <set attributeName="fill" to="#808080" begin="reset.mouseover" end="reset.mouseout"/>
                       </use>
               </g>
        </defs>

<script type="text/javascript">
var viewWidth = 575;
var viewHeight = 258;
var sectionId = 'dynsection-3';
</script>
<script xlink:href="svgpan.js"/>
<svg id="graph" class="graph">
<g id="viewport">
<title>wmtk::operations::tet_mesh::CollapseNewAttributeStrategy::new_simplices</title>
<!-- Node1 -->
<g id="node1" class="node">
<title>Node1</title>
<g id="a_node1"><a xlink:title=" ">
<polygon fill="#bfbfbf" stroke="black" points="0,-93.5 0,-134.5 161,-134.5 161,-93.5 0,-93.5"/>
<text text-anchor="start" x="8" y="-122.5" font-family="Helvetica,sans-Serif" font-size="10.00">wmtk::operations::tet</text>
<text text-anchor="start" x="8" y="-111.5" font-family="Helvetica,sans-Serif" font-size="10.00">_mesh::CollapseNewAttribute</text>
<text text-anchor="middle" x="80.5" y="-100.5" font-family="Helvetica,sans-Serif" font-size="10.00">Strategy::new_simplices</text>
</a>
</g>
</g>
<!-- Node2 -->
<g id="node2" class="node">
<title>Node2</title>
<g id="a_node2"><a xlink:href="classwmtk_1_1operations_1_1tet__mesh_1_1_edge_operation_data.html#aedf36dd3996f2114ae28f593160d12d8" target="_top" xlink:title=" ">
<polygon fill="none" stroke="black" points="197,-208.5 197,-249.5 358,-249.5 358,-208.5 197,-208.5"/>
<text text-anchor="start" x="205" y="-237.5" font-family="Helvetica,sans-Serif" font-size="10.00">wmtk::operations::tet</text>
<text text-anchor="start" x="205" y="-226.5" font-family="Helvetica,sans-Serif" font-size="10.00">_mesh::EdgeOperationData</text>
<text text-anchor="middle" x="277.5" y="-215.5" font-family="Helvetica,sans-Serif" font-size="10.00">::collapse_merged_ear_edges</text>
</a>
</g>
</g>
<!-- Node1&#45;&gt;Node2 -->
<g id="edge1" class="edge">
<title>Node1&#45;&gt;Node2</title>
<path fill="none" stroke="midnightblue" d="M105.41,-134.65C127.9,-153.3 163.09,-180.58 197,-199 200.31,-200.8 203.74,-202.53 207.25,-204.2"/>
<polygon fill="midnightblue" stroke="midnightblue" points="206.11,-207.53 216.66,-208.46 208.99,-201.15 206.11,-207.53"/>
</g>
<!-- Node3 -->
<g id="node3" class="node">
<title>Node3</title>
<g id="a_node3"><a xlink:href="classwmtk_1_1operations_1_1tet__mesh_1_1_edge_operation_data.html#a5edabe4b7b2adc1891fd37577e34d546" target="_top" xlink:title=" ">
<polygon fill="none" stroke="black" points="198.5,-148.5 198.5,-189.5 356.5,-189.5 356.5,-148.5 198.5,-148.5"/>
<text text-anchor="start" x="206.5" y="-177.5" font-family="Helvetica,sans-Serif" font-size="10.00">wmtk::operations::tet</text>
<text text-anchor="start" x="206.5" y="-166.5" font-family="Helvetica,sans-Serif" font-size="10.00">_mesh::EdgeOperationData</text>
<text text-anchor="middle" x="277.5" y="-155.5" font-family="Helvetica,sans-Serif" font-size="10.00">::collapse_merged_ear_faces</text>
</a>
</g>
</g>
<!-- Node1&#45;&gt;Node3 -->
<g id="edge2" class="edge">
<title>Node1&#45;&gt;Node3</title>
<path fill="none" stroke="midnightblue" d="M154.39,-134.56C167.23,-138.18 180.69,-141.98 193.78,-145.67"/>
<polygon fill="midnightblue" stroke="midnightblue" points="193.13,-149.12 203.7,-148.47 195.03,-142.38 193.13,-149.12"/>
</g>
<!-- Node4 -->
<g id="node4" class="node">
<title>Node4</title>
<g id="a_node4"><a xlink:href="namespacewmtk.html#a086fd9be68bdeec5f8eda4fc73982e57" target="_top" xlink:title="Get a unique integer id corresponding to each primitive type.">
<polygon fill="none" stroke="black" points="219.5,-99 219.5,-129 335.5,-129 335.5,-99 219.5,-99"/>
<text text-anchor="start" x="227.5" y="-117" font-family="Helvetica,sans-Serif" font-size="10.00">wmtk::get_primitive</text>
<text text-anchor="middle" x="277.5" y="-106" font-family="Helvetica,sans-Serif" font-size="10.00">_type_id</text>
</a>
</g>
</g>
<!-- Node1&#45;&gt;Node4 -->
<g id="edge3" class="edge">
<title>Node1&#45;&gt;Node4</title>
<path fill="none" stroke="midnightblue" d="M161.1,-114C177.08,-114 193.72,-114 209.24,-114"/>
<polygon fill="midnightblue" stroke="midnightblue" points="209.25,-117.5 219.25,-114 209.25,-110.5 209.25,-117.5"/>
</g>
<!-- Node5 -->
<g id="node5" class="node">
<title>Node5</title>
<g id="a_node5"><a xlink:href="classwmtk_1_1operations_1_1_new_attribute_strategy.html#a300e2227384eb243a10cbe928f738f8a" target="_top" xlink:title=" ">
<polygon fill="none" stroke="black" points="394,-30 394,-60 567,-60 567,-30 394,-30"/>
<text text-anchor="start" x="402" y="-48" font-family="Helvetica,sans-Serif" font-size="10.00">wmtk::operations::NewAttribute</text>
<text text-anchor="middle" x="480.5" y="-37" font-family="Helvetica,sans-Serif" font-size="10.00">Strategy::mesh</text>
</a>
</g>
</g>
<!-- Node1&#45;&gt;Node5 -->
<g id="edge4" class="edge">
<title>Node1&#45;&gt;Node5</title>
<path fill="none" stroke="midnightblue" d="M161.24,-96.92C173.21,-94.51 185.42,-92.12 197,-90 258.97,-78.63 328.89,-67.48 383.66,-59.12"/>
<polygon fill="midnightblue" stroke="midnightblue" points="384.35,-62.56 393.71,-57.6 383.3,-55.64 384.35,-62.56"/>
</g>
<!-- Node6 -->
<g id="node6" class="node">
<title>Node6</title>
<g id="a_node6"><a xlink:href="classwmtk_1_1operations_1_1tet__mesh_1_1_collapse_new_attribute_strategy.html#a14f9acf7e762abc54d683f116d2e6315" target="_top" xlink:title=" ">
<polygon fill="none" stroke="black" points="197,-0.5 197,-41.5 358,-41.5 358,-0.5 197,-0.5"/>
<text text-anchor="start" x="205" y="-29.5" font-family="Helvetica,sans-Serif" font-size="10.00">wmtk::operations::tet</text>
<text text-anchor="start" x="205" y="-18.5" font-family="Helvetica,sans-Serif" font-size="10.00">_mesh::CollapseNewAttribute</text>
<text text-anchor="middle" x="277.5" y="-7.5" font-family="Helvetica,sans-Serif" font-size="10.00">Strategy::tet_mesh</text>
</a>
</g>
</g>
<!-- Node1&#45;&gt;Node6 -->
<g id="edge5" class="edge">
<title>Node1&#45;&gt;Node6</title>
<path fill="none" stroke="midnightblue" d="M121.35,-93.37C143.49,-82.06 171.62,-67.95 197,-56 204.27,-52.57 211.97,-49.06 219.59,-45.64"/>
<polygon fill="midnightblue" stroke="midnightblue" points="221.11,-48.79 228.82,-41.52 218.26,-42.4 221.11,-48.79"/>
</g>
<!-- Node6&#45;&gt;Node5 -->
<g id="edge6" class="edge">
<title>Node6&#45;&gt;Node5</title>
<path fill="none" stroke="midnightblue" d="M358.23,-30.52C366.66,-31.53 375.29,-32.56 383.88,-33.58"/>
<polygon fill="midnightblue" stroke="midnightblue" points="383.57,-37.07 393.92,-34.78 384.4,-30.12 383.57,-37.07"/>
</g>
</g>
</svg>
        <g id="navigator" transform="translate(0 0)" fill="#404254">
                <rect fill="#f2f5e9" fill-opacity="0.5" stroke="#606060" stroke-width=".5" x="0" y="0" width="60" height="60"/>
                <use id="zoomplus" xlink:href="#zoomPlus" x="17" y="9" onmousedown="handleZoom(evt,'in')"/>
                <use id="zoomminus" xlink:href="#zoomMin" x="42" y="9" onmousedown="handleZoom(evt,'out')"/>
                <use id="reset" xlink:href="#resetDef" x="30" y="36" onmousedown="handleReset()"/>
                <g id="arrowUp" xlink:href="#dirArrow" transform="translate(30 24)" onmousedown="handlePan(0,-1)">
                  <use xlink:href="#rim" fill="#404040">
                        <set attributeName="fill" to="#808080" begin="arrowUp.mouseover" end="arrowUp.mouseout"/>
                  </use>
                  <path fill="none" stroke="white" stroke-width="1.5" d="M0,-3.0v7 M-2.5,-0.5L0,-3.0L2.5,-0.5"/>
                </g>
                <g id="arrowRight" xlink:href="#dirArrow" transform="rotate(90) translate(36 -43)" onmousedown="handlePan(1,0)">
                  <use xlink:href="#rim" fill="#404040">
                        <set attributeName="fill" to="#808080" begin="arrowRight.mouseover" end="arrowRight.mouseout"/>
                  </use>
                  <path fill="none" stroke="white" stroke-width="1.5" d="M0,-3.0v7 M-2.5,-0.5L0,-3.0L2.5,-0.5"/>
                </g>
                <g id="arrowDown" xlink:href="#dirArrow" transform="rotate(180) translate(-30 -48)" onmousedown="handlePan(0,1)">
                  <use xlink:href="#rim" fill="#404040">
                        <set attributeName="fill" to="#808080" begin="arrowDown.mouseover" end="arrowDown.mouseout"/>
                  </use>
                  <path fill="none" stroke="white" stroke-width="1.5" d="M0,-3.0v7 M-2.5,-0.5L0,-3.0L2.5,-0.5"/>
                </g>
                <g id="arrowLeft" xlink:href="#dirArrow" transform="rotate(270) translate(-36 17)" onmousedown="handlePan(-1,0)">
                  <use xlink:href="#rim" fill="#404040">
                        <set attributeName="fill" to="#808080" begin="arrowLeft.mouseover" end="arrowLeft.mouseout"/>
                  </use>
                  <path fill="none" stroke="white" stroke-width="1.5" d="M0,-3.0v7 M-2.5,-0.5L0,-3.0L2.5,-0.5"/>
                </g>
        </g>
        <svg viewBox="0 0 15 15" width="100%" height="30px" preserveAspectRatio="xMaxYMin meet">
         <g id="arrow_out" transform="scale(0.3 0.3)">
          <a xlink:href="classwmtk_1_1operations_1_1tet__mesh_1_1_collapse_new_attribute_strategy_addfb7e124df157620413a801e483d3ca_cgraph_org.svg" target="_base">
           <rect id="button" ry="5" rx="5" y="6" x="6" height="38" width="38"
                fill="#f2f5e9" fill-opacity="0.5" stroke="#606060" stroke-width="1.0"/>
           <path id="arrow"
             d="M 11.500037,31.436501 C 11.940474,20.09759 22.043105,11.32322 32.158766,21.979434 L 37.068811,17.246167 C 37.068811,17.246167 37.088388,32 37.088388,32 L 22.160133,31.978069 C 22.160133,31.978069 26.997745,27.140456 26.997745,27.140456 C 18.528582,18.264221 13.291696,25.230495 11.500037,31.436501 z"
             style="fill:#404040;"/>
          </a>
         </g>
        </svg>
</svg>
