<?xml version="1.0" encoding="UTF-8" standalone="no"?>
<!DOCTYPE svg PUBLIC "-//W3C//DTD SVG 1.1//EN"
 "http://www.w3.org/Graphics/SVG/1.1/DTD/svg11.dtd">
<!-- Generated by graphviz version 2.43.0 (0)
 -->
<!-- Title: wmtk::MinEdgeLengthInvariant Pages: 1 -->
<svg width="1875pt" height="298pt"
 viewBox="0.00 0.00 1875.00 297.50" xmlns="http://www.w3.org/2000/svg" xmlns:xlink="http://www.w3.org/1999/xlink">
<g id="graph0" class="graph" transform="scale(1 1) rotate(0) translate(4 293.5)">
<title>wmtk::MinEdgeLengthInvariant</title>
<!-- Node1 -->
<g id="node1" class="node">
<title>Node1</title>
<g id="a_node1"><a xlink:title=" ">
<polygon fill="#bfbfbf" stroke="black" points="1698,-126.5 1698,-145.5 1867,-145.5 1867,-126.5 1698,-126.5"/>
<text text-anchor="middle" x="1782.5" y="-133.5" font-family="Helvetica,sans-Serif" font-size="10.00">wmtk::MinEdgeLengthInvariant</text>
</a>
</g>
</g>
<!-- Node2 -->
<g id="node2" class="node">
<title>Node2</title>
<g id="a_node2"><a xlink:href="classwmtk_1_1invariants_1_1_invariant.html" target="_top" xlink:title=" ">
<polygon fill="none" stroke="black" points="1308,-242.5 1308,-261.5 1368,-261.5 1368,-242.5 1308,-242.5"/>
<text text-anchor="middle" x="1338" y="-249.5" font-family="Helvetica,sans-Serif" font-size="10.00">Invariant</text>
</a>
</g>
</g>
<!-- Node2&#45;&gt;Node1 -->
<g id="edge1" class="edge">
<title>Node2&#45;&gt;Node1</title>
<path fill="none" stroke="midnightblue" d="M1377.76,-241.84C1462.38,-219.66 1662.64,-167.16 1745.08,-145.55"/>
<polygon fill="midnightblue" stroke="midnightblue" points="1376.82,-238.47 1368.03,-244.39 1378.59,-245.24 1376.82,-238.47"/>
</g>
<!-- Node3 -->
<g id="node3" class="node">
<title>Node3</title>
<g id="a_node3"><a xlink:href="classwmtk_1_1_mesh.html" target="_top" xlink:title=" ">
<polygon fill="none" stroke="black" points="866,-209.5 866,-228.5 943,-228.5 943,-209.5 866,-209.5"/>
<text text-anchor="middle" x="904.5" y="-216.5" font-family="Helvetica,sans-Serif" font-size="10.00">wmtk::Mesh</text>
</a>
</g>
</g>
<!-- Node3&#45;&gt;Node2 -->
<g id="edge2" class="edge">
<title>Node3&#45;&gt;Node2</title>
<path fill="none" stroke="#9a32cd" stroke-dasharray="5,2" d="M937.59,-232.13C950.54,-236.8 965.76,-241.51 980,-244 1100,-264.98 1246.12,-258.47 1307.56,-254.3"/>
<polygon fill="#9a32cd" stroke="#9a32cd" points="938.78,-228.84 928.19,-228.6 936.33,-235.39 938.78,-228.84"/>
<text text-anchor="middle" x="1042.5" y="-259" font-family="Helvetica,sans-Serif" font-size="10.00"> m_mesh</text>
</g>
<!-- Node8 -->
<g id="node8" class="node">
<title>Node8</title>
<g id="a_node8"><a xlink:href="classwmtk_1_1_multi_mesh_manager.html" target="_top" xlink:title="Implementation details for how the Mesh class implements multiple meshes.">
<polygon fill="none" stroke="black" points="1134.5,-166.5 1134.5,-185.5 1278.5,-185.5 1278.5,-166.5 1134.5,-166.5"/>
<text text-anchor="middle" x="1206.5" y="-173.5" font-family="Helvetica,sans-Serif" font-size="10.00">wmtk::MultiMeshManager</text>
</a>
</g>
</g>
<!-- Node3&#45;&gt;Node8 -->
<g id="edge10" class="edge">
<title>Node3&#45;&gt;Node8</title>
<path fill="none" stroke="#9a32cd" stroke-dasharray="5,2" d="M953.32,-225.3C994.11,-229.29 1054.05,-231.89 1105,-221 1136.78,-214.21 1170.67,-196.59 1189.85,-185.52"/>
<polygon fill="#9a32cd" stroke="#9a32cd" points="953.43,-221.79 943.12,-224.23 952.71,-228.75 953.43,-221.79"/>
<text text-anchor="middle" x="1042.5" y="-232" font-family="Helvetica,sans-Serif" font-size="10.00"> m_parent</text>
</g>
<!-- Node13 -->
<g id="node13" class="node">
<title>Node13</title>
<g id="a_node13"><a xlink:href="classwmtk_1_1attribute_1_1_mesh_attribute_handle.html" target="_top" xlink:title=" ">
<polygon fill="none" stroke="black" points="1123,-52 1123,-82 1290,-82 1290,-52 1123,-52"/>
<text text-anchor="start" x="1131" y="-70" font-family="Helvetica,sans-Serif" font-size="10.00">wmtk::attribute::MeshAttribute</text>
<text text-anchor="middle" x="1206.5" y="-59" font-family="Helvetica,sans-Serif" font-size="10.00">Handle&lt; T &gt;</text>
</a>
</g>
</g>
<!-- Node3&#45;&gt;Node13 -->
<g id="edge19" class="edge">
<title>Node3&#45;&gt;Node13</title>
<path fill="none" stroke="#9a32cd" stroke-dasharray="5,2" d="M930.7,-204.3C945.04,-196.06 963.39,-185.72 980,-177 1047.87,-141.35 1129,-102.73 1173.08,-82.07"/>
<polygon fill="#9a32cd" stroke="#9a32cd" points="928.82,-201.34 921.92,-209.37 932.33,-207.4 928.82,-201.34"/>
<text text-anchor="middle" x="1042.5" y="-180" font-family="Helvetica,sans-Serif" font-size="10.00"> m_mesh</text>
</g>
<!-- Node4 -->
<g id="node4" class="node">
<title>Node4</title>
<g id="a_node4"><a xlink:title=" ">
<polygon fill="none" stroke="#bfbfbf" points="558.5,-259 558.5,-289 675.5,-289 675.5,-259 558.5,-259"/>
<text text-anchor="start" x="566.5" y="-277" font-family="Helvetica,sans-Serif" font-size="10.00">std::enable_shared</text>
<text text-anchor="middle" x="617" y="-266" font-family="Helvetica,sans-Serif" font-size="10.00">_from_this&lt; Mesh &gt;</text>
</a>
</g>
</g>
<!-- Node4&#45;&gt;Node3 -->
<g id="edge3" class="edge">
<title>Node4&#45;&gt;Node3</title>
<path fill="none" stroke="midnightblue" d="M685.88,-267.54C727.54,-262.78 781.77,-255.18 829,-244 845.86,-240.01 864.33,-233.82 878.66,-228.61"/>
<polygon fill="midnightblue" stroke="midnightblue" points="685.4,-264.07 675.84,-268.65 686.17,-271.02 685.4,-264.07"/>
</g>
<!-- Node5 -->
<g id="node5" class="node">
<title>Node5</title>
<g id="a_node5"><a xlink:href="classwmtk_1_1utils_1_1_merkle_tree_interior_node.html" target="_top" xlink:title=" ">
<polygon fill="none" stroke="black" points="257,-176.5 257,-195.5 449,-195.5 449,-176.5 257,-176.5"/>
<text text-anchor="middle" x="353" y="-183.5" font-family="Helvetica,sans-Serif" font-size="10.00">wmtk::utils::MerkleTreeInteriorNode</text>
</a>
</g>
</g>
<!-- Node5&#45;&gt;Node3 -->
<g id="edge4" class="edge">
<title>Node5&#45;&gt;Node3</title>
<path fill="none" stroke="midnightblue" d="M423.14,-196.99C456.03,-201.79 495.95,-207 532,-210 653.84,-220.13 798.86,-220.2 865.98,-219.54"/>
<polygon fill="midnightblue" stroke="midnightblue" points="423.57,-193.52 413.17,-195.52 422.55,-200.44 423.57,-193.52"/>
</g>
<!-- Node7 -->
<g id="node7" class="node">
<title>Node7</title>
<g id="a_node7"><a xlink:href="classwmtk_1_1attribute_1_1_attribute_manager.html" target="_top" xlink:title=" ">
<polygon fill="none" stroke="black" points="546.5,-171 546.5,-201 687.5,-201 687.5,-171 546.5,-171"/>
<text text-anchor="start" x="554.5" y="-189" font-family="Helvetica,sans-Serif" font-size="10.00">wmtk::attribute::Attribute</text>
<text text-anchor="middle" x="617" y="-178" font-family="Helvetica,sans-Serif" font-size="10.00">Manager</text>
</a>
</g>
</g>
<!-- Node5&#45;&gt;Node7 -->
<g id="edge7" class="edge">
<title>Node5&#45;&gt;Node7</title>
<path fill="none" stroke="midnightblue" d="M459.56,-186C488.72,-186 519.63,-186 546.2,-186"/>
<polygon fill="midnightblue" stroke="midnightblue" points="459.33,-182.5 449.33,-186 459.33,-189.5 459.33,-182.5"/>
</g>
<!-- Node5&#45;&gt;Node8 -->
<g id="edge9" class="edge">
<title>Node5&#45;&gt;Node8</title>
<path fill="none" stroke="midnightblue" d="M418.89,-174.84C452.53,-169.58 494.35,-163.84 532,-161 730.56,-146.01 780.88,-157.11 980,-156 1035.55,-155.69 1049.71,-150.55 1105,-156 1125.54,-158.02 1148.1,-162.32 1166.63,-166.41"/>
<polygon fill="midnightblue" stroke="midnightblue" points="418.06,-171.43 408.73,-176.46 419.16,-178.35 418.06,-171.43"/>
</g>
<!-- Node6 -->
<g id="node6" class="node">
<title>Node6</title>
<g id="a_node6"><a xlink:href="classwmtk_1_1utils_1_1_hashable.html" target="_top" xlink:title=" ">
<polygon fill="none" stroke="black" points="9,-176.5 9,-195.5 132,-195.5 132,-176.5 9,-176.5"/>
<text text-anchor="middle" x="70.5" y="-183.5" font-family="Helvetica,sans-Serif" font-size="10.00">wmtk::utils::Hashable</text>
</a>
</g>
</g>
<!-- Node6&#45;&gt;Node5 -->
<g id="edge5" class="edge">
<title>Node6&#45;&gt;Node5</title>
<path fill="none" stroke="midnightblue" d="M142.08,-186C176.84,-186 219.25,-186 256.84,-186"/>
<polygon fill="midnightblue" stroke="midnightblue" points="142.02,-182.5 132.02,-186 142.02,-189.5 142.02,-182.5"/>
</g>
<!-- Node7&#45;&gt;Node3 -->
<g id="edge6" class="edge">
<title>Node7&#45;&gt;Node3</title>
<path fill="none" stroke="#9a32cd" stroke-dasharray="5,2" d="M697.69,-191.36C737.28,-194.49 785.77,-199.01 829,-205 840.99,-206.66 853.99,-208.94 865.72,-211.17"/>
<polygon fill="#9a32cd" stroke="#9a32cd" points="697.81,-187.86 687.56,-190.58 697.26,-194.84 697.81,-187.86"/>
<text text-anchor="middle" x="774.5" y="-208" font-family="Helvetica,sans-Serif" font-size="10.00"> m_attribute_manager</text>
</g>
<!-- Node8&#45;&gt;Node3 -->
<g id="edge8" class="edge">
<title>Node8&#45;&gt;Node3</title>
<path fill="none" stroke="#9a32cd" stroke-dasharray="5,2" d="M1129.06,-186.96C1069.59,-195.48 989.61,-206.94 943.19,-213.6"/>
<polygon fill="#9a32cd" stroke="#9a32cd" points="1129.77,-190.39 1139.17,-185.51 1128.77,-183.46 1129.77,-190.39"/>
<text text-anchor="middle" x="1042.5" y="-211" font-family="Helvetica,sans-Serif" font-size="10.00"> m_multi_mesh_manager</text>
</g>
<!-- Node9 -->
<g id="node9" class="node">
<title>Node9</title>
<g id="a_node9"><a xlink:href="classwmtk_1_1attribute_1_1_typed_attribute_handle.html" target="_top" xlink:title=" ">
<polygon fill="none" stroke="black" points="532,-68 532,-98 702,-98 702,-68 532,-68"/>
<text text-anchor="start" x="540" y="-86" font-family="Helvetica,sans-Serif" font-size="10.00">wmtk::attribute::TypedAttribute</text>
<text text-anchor="middle" x="617" y="-75" font-family="Helvetica,sans-Serif" font-size="10.00">Handle&lt; long &gt;</text>
</a>
</g>
</g>
<!-- Node9&#45;&gt;Node3 -->
<g id="edge14" class="edge">
<title>Node9&#45;&gt;Node3</title>
<path fill="none" stroke="#9a32cd" stroke-dasharray="5,2" d="M662.38,-102.18C705.35,-120.98 772.17,-150.85 829,-179 849,-188.9 871.51,-201.15 886.5,-209.46"/>
<polygon fill="#9a32cd" stroke="#9a32cd" points="663.62,-98.9 653.05,-98.1 660.82,-105.31 663.62,-98.9"/>
<text text-anchor="middle" x="774.5" y="-182" font-family="Helvetica,sans-Serif" font-size="10.00"> m_cell_hash_handle</text>
</g>
<!-- Node9&#45;&gt;Node8 -->
<g id="edge11" class="edge">
<title>Node9&#45;&gt;Node8</title>
<path fill="none" stroke="#9a32cd" stroke-dasharray="5,2" d="M712.35,-81.96C811.76,-83.1 972.04,-91.37 1105,-128 1136.69,-136.73 1170.61,-155.03 1189.82,-166.34"/>
<polygon fill="#9a32cd" stroke="#9a32cd" points="712.36,-78.46 702.32,-81.86 712.29,-85.46 712.36,-78.46"/>
<text text-anchor="middle" x="904.5" y="-103" font-family="Helvetica,sans-Serif" font-size="10.00"> map_to_parent_handle</text>
</g>
<!-- Node10 -->
<g id="node10" class="node">
<title>Node10</title>
<g id="a_node10"><a xlink:href="classwmtk_1_1attribute_1_1_typed_attribute_handle.html" target="_top" xlink:title=" ">
<polygon fill="none" stroke="black" points="268,-23 268,-53 438,-53 438,-23 268,-23"/>
<text text-anchor="start" x="276" y="-41" font-family="Helvetica,sans-Serif" font-size="10.00">wmtk::attribute::TypedAttribute</text>
<text text-anchor="middle" x="353" y="-30" font-family="Helvetica,sans-Serif" font-size="10.00">Handle&lt; T &gt;</text>
</a>
</g>
</g>
<!-- Node10&#45;&gt;Node9 -->
<g id="edge12" class="edge">
<title>Node10&#45;&gt;Node9</title>
<path fill="none" stroke="orange" stroke-dasharray="5,2" d="M448.28,-54.19C475.58,-58.88 505.18,-63.97 531.82,-68.54"/>
<polygon fill="orange" stroke="orange" points="448.79,-50.73 438.34,-52.49 447.6,-57.63 448.79,-50.73"/>
<text text-anchor="middle" x="490.5" y="-68" font-family="Helvetica,sans-Serif" font-size="10.00"> &lt; long &gt;</text>
</g>
<!-- Node12 -->
<g id="node12" class="node">
<title>Node12</title>
<g id="a_node12"><a xlink:href="classwmtk_1_1attribute_1_1_mesh_attribute_handle.html" target="_top" xlink:title=" ">
<polygon fill="none" stroke="black" points="1386,-52 1386,-82 1553,-82 1553,-52 1386,-52"/>
<text text-anchor="start" x="1394" y="-70" font-family="Helvetica,sans-Serif" font-size="10.00">wmtk::attribute::MeshAttribute</text>
<text text-anchor="middle" x="1469.5" y="-59" font-family="Helvetica,sans-Serif" font-size="10.00">Handle&lt; double &gt;</text>
</a>
</g>
</g>
<!-- Node10&#45;&gt;Node12 -->
<g id="edge16" class="edge">
<title>Node10&#45;&gt;Node12</title>
<path fill="none" stroke="midnightblue" d="M430.21,-21.04C482.26,-10.91 552.96,0 616,0 616,0 616,0 1207.5,0 1290.54,0 1383.9,-32.21 1433.35,-51.96"/>
<polygon fill="midnightblue" stroke="midnightblue" points="429.51,-17.61 420.38,-22.98 430.87,-24.47 429.51,-17.61"/>
</g>
<!-- Node10&#45;&gt;Node13 -->
<g id="edge18" class="edge">
<title>Node10&#45;&gt;Node13</title>
<path fill="none" stroke="midnightblue" d="M448.43,-41.22C616.28,-46.93 963.88,-58.77 1122.87,-64.19"/>
<polygon fill="midnightblue" stroke="midnightblue" points="448.48,-37.72 438.37,-40.87 448.24,-44.71 448.48,-37.72"/>
</g>
<!-- Node11 -->
<g id="node11" class="node">
<title>Node11</title>
<g id="a_node11"><a xlink:href="classwmtk_1_1attribute_1_1_attribute_handle.html" target="_top" xlink:title=" ">
<polygon fill="none" stroke="black" points="0,-23 0,-53 141,-53 141,-23 0,-23"/>
<text text-anchor="start" x="8" y="-41" font-family="Helvetica,sans-Serif" font-size="10.00">wmtk::attribute::Attribute</text>
<text text-anchor="middle" x="70.5" y="-30" font-family="Helvetica,sans-Serif" font-size="10.00">Handle</text>
</a>
</g>
</g>
<!-- Node11&#45;&gt;Node10 -->
<g id="edge13" class="edge">
<title>Node11&#45;&gt;Node10</title>
<path fill="none" stroke="#9a32cd" stroke-dasharray="5,2" d="M151.29,-38C187.75,-38 230.95,-38 267.91,-38"/>
<polygon fill="#9a32cd" stroke="#9a32cd" points="151.2,-34.5 141.2,-38 151.2,-41.5 151.2,-34.5"/>
<text text-anchor="middle" x="199" y="-41" font-family="Helvetica,sans-Serif" font-size="10.00"> m_base_handle</text>
</g>
<!-- Node12&#45;&gt;Node1 -->
<g id="edge15" class="edge">
<title>Node12&#45;&gt;Node1</title>
<path fill="none" stroke="#9a32cd" stroke-dasharray="5,2" d="M1548.22,-84.24C1608.45,-97.61 1689.65,-115.62 1738.65,-126.49"/>
<polygon fill="#9a32cd" stroke="#9a32cd" points="1548.89,-80.81 1538.37,-82.06 1547.37,-87.64 1548.89,-80.81"/>
<text text-anchor="middle" x="1625.5" y="-115" font-family="Helvetica,sans-Serif" font-size="10.00"> m_coordinate_handle</text>
</g>
<!-- Node13&#45;&gt;Node12 -->
<g id="edge17" class="edge">
<title>Node13&#45;&gt;Node12</title>
<path fill="none" stroke="orange" stroke-dasharray="5,2" d="M1300.21,-67C1328.05,-67 1358.4,-67 1385.56,-67"/>
<polygon fill="orange" stroke="orange" points="1300.08,-63.5 1290.08,-67 1300.08,-70.5 1300.08,-63.5"/>
<text text-anchor="middle" x="1338" y="-70" font-family="Helvetica,sans-Serif" font-size="10.00"> &lt; double &gt;</text>
</g>
</g>
</svg>
