<?xml version="1.0" encoding="UTF-8" standalone="no"?>
<!DOCTYPE svg PUBLIC "-//W3C//DTD SVG 1.1//EN"
 "http://www.w3.org/Graphics/SVG/1.1/DTD/svg11.dtd">
<!-- Generated by graphviz version 2.43.0 (0)
 -->
<!-- Title: wmtk::function::Function::mesh Pages: 1 -->
<svg width="612pt" height="201pt"
 viewBox="0.00 0.00 612.00 201.00" xmlns="http://www.w3.org/2000/svg" xmlns:xlink="http://www.w3.org/1999/xlink">
<g id="graph0" class="graph" transform="scale(1 1) rotate(0) translate(4 197)">
<title>wmtk::function::Function::mesh</title>
<!-- Node1 -->
<g id="Node000001" class="node">
<title>Node1</title>
<g id="a_Node000001"><a xlink:title=" ">
<polygon fill="#999999" stroke="#666666" points="604,-116 467,-116 467,-86 604,-86 604,-116"/>
<text text-anchor="start" x="475" y="-104" font-family="Helvetica,sans-Serif" font-size="10.00">wmtk::function::Function</text>
<text text-anchor="middle" x="535.5" y="-93" font-family="Helvetica,sans-Serif" font-size="10.00">::mesh</text>
</a>
</g>
</g>
<!-- Node2 -->
<g id="Node000002" class="node">
<title>Node2</title>
<g id="a_Node000002"><a xlink:href="classwmtk_1_1function_1_1_local_neighbors_sum_function.html#a9a8a406910f491899eaaa0c8e5b400c2" target="_top" xlink:title=" ">
<polygon fill="white" stroke="#666666" points="404.5,-116 233.5,-116 233.5,-86 404.5,-86 404.5,-116"/>
<text text-anchor="start" x="241.5" y="-104" font-family="Helvetica,sans-Serif" font-size="10.00">wmtk::function::LocalNeighbors</text>
<text text-anchor="middle" x="319" y="-93" font-family="Helvetica,sans-Serif" font-size="10.00">SumFunction::domain</text>
</a>
</g>
</g>
<!-- Node1&#45;&gt;Node2 -->
<g id="edge1_Node000001_Node000002" class="edge">
<title>Node1&#45;&gt;Node2</title>
<g id="a_edge1_Node000001_Node000002"><a xlink:title=" ">
<path fill="none" stroke="#63b8ff" d="M456.56,-101C439.67,-101 421.73,-101 404.6,-101"/>
<polygon fill="#63b8ff" stroke="#63b8ff" points="456.93,-104.5 466.93,-101 456.93,-97.5 456.93,-104.5"/>
</a>
</g>
</g>
<!-- Node3 -->
<g id="Node000003" class="node">
<title>Node3</title>
<g id="a_Node000003"><a xlink:href="classwmtk_1_1function_1_1_local_neighbors_sum_function.html#a8f4a1942d320c2d613d1af447738f1ea" target="_top" xlink:title="get_gradient collects the local neigh and call the gradient of m_function on all simplicies">
<polygon fill="white" stroke="#666666" points="171,-193 0,-193 0,-163 171,-163 171,-193"/>
<text text-anchor="start" x="8" y="-181" font-family="Helvetica,sans-Serif" font-size="10.00">wmtk::function::LocalNeighbors</text>
<text text-anchor="middle" x="85.5" y="-170" font-family="Helvetica,sans-Serif" font-size="10.00">SumFunction::get_gradient</text>
</a>
</g>
</g>
<!-- Node1&#45;&gt;Node3 -->
<g id="edge5_Node000001_Node000003" class="edge">
<title>Node1&#45;&gt;Node3</title>
<g id="a_edge5_Node000001_Node000003"><a xlink:title=" ">
<path fill="none" stroke="#63b8ff" d="M494.83,-120.19C475.92,-128.53 452.74,-137.6 431,-143 344.07,-164.59 241.63,-172.9 171.18,-176.08"/>
<polygon fill="#63b8ff" stroke="#63b8ff" points="496.34,-123.35 504.02,-116.05 493.46,-116.97 496.34,-123.35"/>
</a>
</g>
</g>
<!-- Node4 -->
<g id="Node000004" class="node">
<title>Node4</title>
<g id="a_Node000004"><a xlink:href="classwmtk_1_1function_1_1_local_neighbors_sum_function.html#a45bfd84c9f092364f449605199731442" target="_top" xlink:title="get_hessian evaluates the hessian of the function f(x) defined wrt the variable x.">
<polygon fill="white" stroke="#666666" points="171,-142 0,-142 0,-112 171,-112 171,-142"/>
<text text-anchor="start" x="8" y="-130" font-family="Helvetica,sans-Serif" font-size="10.00">wmtk::function::LocalNeighbors</text>
<text text-anchor="middle" x="85.5" y="-119" font-family="Helvetica,sans-Serif" font-size="10.00">SumFunction::get_hessian</text>
</a>
</g>
</g>
<!-- Node1&#45;&gt;Node4 -->
<g id="edge6_Node000001_Node000004" class="edge">
<title>Node1&#45;&gt;Node4</title>
<g id="a_edge6_Node000001_Node000004"><a xlink:title=" ">
<path fill="none" stroke="#63b8ff" d="M469.76,-118.33C457,-121.09 443.65,-123.52 431,-125 342.79,-135.35 240.99,-134.37 171.06,-131.72"/>
<polygon fill="#63b8ff" stroke="#63b8ff" points="470.86,-121.67 479.84,-116.06 469.32,-114.84 470.86,-121.67"/>
</a>
</g>
</g>
<!-- Node5 -->
<g id="Node000005" class="node">
<title>Node5</title>
<g id="a_Node000005"><a xlink:href="classwmtk_1_1function_1_1_local_neighbors_sum_function.html#a0b81383595fa81fb270266bb6cee71da" target="_top" xlink:title="collects the local neigh and call the same m_function on all simplicies">
<polygon fill="white" stroke="#666666" points="171,-87 0,-87 0,-57 171,-57 171,-87"/>
<text text-anchor="start" x="8" y="-75" font-family="Helvetica,sans-Serif" font-size="10.00">wmtk::function::LocalNeighbors</text>
<text text-anchor="middle" x="85.5" y="-64" font-family="Helvetica,sans-Serif" font-size="10.00">SumFunction::get_value</text>
</a>
</g>
</g>
<!-- Node1&#45;&gt;Node5 -->
<g id="edge7_Node000001_Node000005" class="edge">
<title>Node1&#45;&gt;Node5</title>
<g id="a_edge7_Node000001_Node000005"><a xlink:title=" ">
<path fill="none" stroke="#63b8ff" d="M469.53,-83.71C456.84,-80.97 443.57,-78.53 431,-77 342.83,-66.26 241.03,-66.3 171.08,-68.22"/>
<polygon fill="#63b8ff" stroke="#63b8ff" points="469.04,-87.19 479.56,-85.97 470.58,-80.36 469.04,-87.19"/>
</a>
</g>
</g>
<!-- Node6 -->
<g id="Node000006" class="node">
<title>Node6</title>
<g id="a_Node000006"><a xlink:href="classwmtk_1_1function_1_1_local_neighbors_sum_function.html#af1d0db196aa7c4aea9c37a4acd3bef19" target="_top" xlink:title=" ">
<polygon fill="white" stroke="#666666" points="431,-30 207,-30 207,0 431,0 431,-30"/>
<text text-anchor="start" x="215" y="-18" font-family="Helvetica,sans-Serif" font-size="10.00">wmtk::function::LocalNeighbors</text>
<text text-anchor="middle" x="319" y="-7" font-family="Helvetica,sans-Serif" font-size="10.00">SumFunction::LocalNeighborsSumFunction</text>
</a>
</g>
</g>
<!-- Node1&#45;&gt;Node6 -->
<g id="edge8_Node000001_Node000006" class="edge">
<title>Node1&#45;&gt;Node6</title>
<g id="a_edge8_Node000001_Node000006"><a xlink:title=" ">
<path fill="none" stroke="#63b8ff" d="M502.4,-80.61C482.46,-68.63 455.95,-53.95 431,-44 417.49,-38.61 402.67,-33.94 388.37,-30.01"/>
<polygon fill="#63b8ff" stroke="#63b8ff" points="500.71,-83.68 511.07,-85.89 504.35,-77.7 500.71,-83.68"/>
</a>
</g>
</g>
<!-- Node2&#45;&gt;Node3 -->
<g id="edge2_Node000002_Node000003" class="edge">
<title>Node2&#45;&gt;Node3</title>
<g id="a_edge2_Node000002_Node000003"><a xlink:title=" ">
<path fill="none" stroke="#63b8ff" d="M264.77,-119.37C236.89,-128.93 202.14,-140.73 171,-151 159.15,-154.91 146.34,-159.04 134.37,-162.88"/>
<polygon fill="#63b8ff" stroke="#63b8ff" points="266.01,-122.65 274.33,-116.09 263.74,-116.03 266.01,-122.65"/>
</a>
</g>
</g>
<!-- Node2&#45;&gt;Node4 -->
<g id="edge3_Node000002_Node000004" class="edge">
<title>Node2&#45;&gt;Node4</title>
<g id="a_edge3_Node000002_Node000004"><a xlink:title=" ">
<path fill="none" stroke="#63b8ff" d="M223.36,-111.63C206.09,-113.57 188.18,-115.58 171.22,-117.49"/>
<polygon fill="#63b8ff" stroke="#63b8ff" points="223.89,-115.09 233.44,-110.5 223.11,-108.14 223.89,-115.09"/>
</a>
</g>
</g>
<!-- Node2&#45;&gt;Node5 -->
<g id="edge4_Node000002_Node000005" class="edge">
<title>Node2&#45;&gt;Node5</title>
<g id="a_edge4_Node000002_Node000005"><a xlink:title=" ">
<path fill="none" stroke="#63b8ff" d="M223.36,-89.14C206.09,-86.98 188.18,-84.74 171.22,-82.61"/>
<polygon fill="#63b8ff" stroke="#63b8ff" points="223.08,-92.64 233.44,-90.41 223.95,-85.69 223.08,-92.64"/>
</a>
</g>
</g>
</g>
</svg>
