<?xml version="1.0" encoding="UTF-8" standalone="no"?>
<!DOCTYPE svg PUBLIC "-//W3C//DTD SVG 1.1//EN"
 "http://www.w3.org/Graphics/SVG/1.1/DTD/svg11.dtd">
<!-- Generated by graphviz version 2.43.0 (0)
 -->
<!-- Title: wmtk::SchedulerStats::number_of_performed_operations Pages: 1 -->
<svg width="678pt" height="237pt"
 viewBox="0.00 0.00 678.00 236.50" xmlns="http://www.w3.org/2000/svg" xmlns:xlink="http://www.w3.org/1999/xlink">
<g id="graph0" class="graph" transform="scale(1 1) rotate(0) translate(4 232.5)">
<title>wmtk::SchedulerStats::number_of_performed_operations</title>
<!-- Node1 -->
<g id="node1" class="node">
<title>Node1</title>
<g id="a_node1"><a xlink:title="Returns the number of performed operations performed by the scheduler.">
<polygon fill="#bfbfbf" stroke="black" points="539,-82.5 539,-123.5 670,-123.5 670,-82.5 539,-82.5"/>
<text text-anchor="start" x="547" y="-111.5" font-family="Helvetica,sans-Serif" font-size="10.00">wmtk::SchedulerStats</text>
<text text-anchor="start" x="547" y="-100.5" font-family="Helvetica,sans-Serif" font-size="10.00">::number_of_performed</text>
<text text-anchor="middle" x="604.5" y="-89.5" font-family="Helvetica,sans-Serif" font-size="10.00">_operations</text>
</a>
</g>
</g>
<!-- Node2 -->
<g id="node2" class="node">
<title>Node2</title>
<g id="a_node2"><a xlink:href="namespacewmtk_1_1components_1_1internal.html#a49432d47b0fca2f5fe80f1e9c634fa14" target="_top" xlink:title=" ">
<polygon fill="none" stroke="black" points="336,-176 336,-206 490,-206 490,-176 336,-176"/>
<text text-anchor="start" x="344" y="-194" font-family="Helvetica,sans-Serif" font-size="10.00">wmtk::components::internal</text>
<text text-anchor="middle" x="413" y="-183" font-family="Helvetica,sans-Serif" font-size="10.00">::isotropic_remeshing</text>
</a>
</g>
</g>
<!-- Node1&#45;&gt;Node2 -->
<g id="edge1" class="edge">
<title>Node1&#45;&gt;Node2</title>
<path fill="none" stroke="midnightblue" d="M566.87,-129.52C548.41,-141.94 525.27,-156.14 503,-166 494.64,-169.7 485.58,-173 476.56,-175.88"/>
<polygon fill="midnightblue" stroke="midnightblue" points="568.99,-132.31 575.26,-123.78 565.03,-126.54 568.99,-132.31"/>
</g>
<!-- Node6 -->
<g id="node6" class="node">
<title>Node6</title>
<g id="a_node6"><a xlink:href="classwmtk_1_1_scheduler.html#a24dd5896647675d49ceac9e3eb8f8b07" target="_top" xlink:title=" ">
<polygon fill="none" stroke="black" points="353.5,-137.5 353.5,-156.5 472.5,-156.5 472.5,-137.5 353.5,-137.5"/>
<text text-anchor="middle" x="413" y="-144.5" font-family="Helvetica,sans-Serif" font-size="10.00">wmtk::Scheduler::log</text>
</a>
</g>
</g>
<!-- Node1&#45;&gt;Node6 -->
<g id="edge5" class="edge">
<title>Node1&#45;&gt;Node6</title>
<path fill="none" stroke="midnightblue" d="M529.1,-121.8C520.31,-123.94 511.46,-126.04 503,-128 489.15,-131.2 474.03,-134.5 460.26,-137.43"/>
<polygon fill="midnightblue" stroke="midnightblue" points="530.09,-125.16 538.97,-119.39 528.43,-118.37 530.09,-125.16"/>
</g>
<!-- Node7 -->
<g id="node7" class="node">
<title>Node7</title>
<g id="a_node7"><a xlink:href="namespacewmtk_1_1components_1_1internal.html#a8890d5e5bb5f11779d4e40e07882253a" target="_top" xlink:title=" ">
<polygon fill="none" stroke="black" points="336,-88 336,-118 490,-118 490,-88 336,-88"/>
<text text-anchor="start" x="344" y="-106" font-family="Helvetica,sans-Serif" font-size="10.00">wmtk::components::internal</text>
<text text-anchor="middle" x="413" y="-95" font-family="Helvetica,sans-Serif" font-size="10.00">::periodic_optimization</text>
</a>
</g>
</g>
<!-- Node1&#45;&gt;Node7 -->
<g id="edge6" class="edge">
<title>Node1&#45;&gt;Node7</title>
<path fill="none" stroke="midnightblue" d="M528.76,-103C516.07,-103 502.88,-103 490.16,-103"/>
<polygon fill="midnightblue" stroke="midnightblue" points="528.81,-106.5 538.81,-103 528.81,-99.5 528.81,-106.5"/>
</g>
<!-- Node9 -->
<g id="node9" class="node">
<title>Node9</title>
<g id="a_node9"><a xlink:href="namespacewmtk_1_1components.html#ae3a4b32383fdc9c2eb8334cc8ef947a5" target="_top" xlink:title="Perform shortest&#45;edge collapse on a triangular surface mesh.">
<polygon fill="none" stroke="black" points="323,-39 323,-69 503,-69 503,-39 323,-39"/>
<text text-anchor="start" x="331" y="-57" font-family="Helvetica,sans-Serif" font-size="10.00">wmtk::components::shortestedge</text>
<text text-anchor="middle" x="413" y="-46" font-family="Helvetica,sans-Serif" font-size="10.00">_collapse</text>
</a>
</g>
</g>
<!-- Node1&#45;&gt;Node9 -->
<g id="edge8" class="edge">
<title>Node1&#45;&gt;Node9</title>
<path fill="none" stroke="midnightblue" d="M529.03,-83.74C510.1,-78.85 490.02,-73.66 472.04,-69.01"/>
<polygon fill="midnightblue" stroke="midnightblue" points="528.26,-87.16 538.81,-86.27 530.01,-80.38 528.26,-87.16"/>
</g>
<!-- Node11 -->
<g id="node11" class="node">
<title>Node11</title>
<g id="a_node11"><a xlink:href="namespacewmtk_1_1components.html#ac6ca52668bd22e164d4baf59ec533864" target="_top" xlink:title=" ">
<polygon fill="none" stroke="black" points="323.5,-0.5 323.5,-19.5 502.5,-19.5 502.5,-0.5 323.5,-0.5"/>
<text text-anchor="middle" x="413" y="-7.5" font-family="Helvetica,sans-Serif" font-size="10.00">wmtk::components::wildmeshing</text>
</a>
</g>
</g>
<!-- Node1&#45;&gt;Node11 -->
<g id="edge10" class="edge">
<title>Node1&#45;&gt;Node11</title>
<path fill="none" stroke="midnightblue" d="M573.64,-75.72C554.7,-59.82 528.94,-40.66 503,-29 494.35,-25.11 484.87,-22 475.42,-19.52"/>
<polygon fill="midnightblue" stroke="midnightblue" points="571.45,-78.45 581.32,-82.3 576.01,-73.14 571.45,-78.45"/>
</g>
<!-- Node3 -->
<g id="node3" class="node">
<title>Node3</title>
<g id="a_node3"><a xlink:href="namespacewmtk_1_1components.html#ae6dfdbd73d7018f6f21bb2396872c796" target="_top" xlink:title=" ">
<polygon fill="none" stroke="black" points="118,-198 118,-228 276,-228 276,-198 118,-198"/>
<text text-anchor="start" x="126" y="-216" font-family="Helvetica,sans-Serif" font-size="10.00">wmtk::components::isotropic</text>
<text text-anchor="middle" x="197" y="-205" font-family="Helvetica,sans-Serif" font-size="10.00">_remeshing</text>
</a>
</g>
</g>
<!-- Node2&#45;&gt;Node3 -->
<g id="edge2" class="edge">
<title>Node2&#45;&gt;Node3</title>
<path fill="none" stroke="midnightblue" d="M325.86,-199.86C309.49,-201.54 292.45,-203.29 276.34,-204.95"/>
<polygon fill="midnightblue" stroke="midnightblue" points="326.36,-203.32 335.95,-198.82 325.64,-196.36 326.36,-203.32"/>
</g>
<!-- Node5 -->
<g id="node5" class="node">
<title>Node5</title>
<g id="a_node5"><a xlink:href="test__component__isotropic__remeshing_8cpp.html#a51ae85bc413e9940267e8a366e0bcc9f" target="_top" xlink:title=" ">
<polygon fill="none" stroke="black" points="161.5,-159.5 161.5,-178.5 232.5,-178.5 232.5,-159.5 161.5,-159.5"/>
<text text-anchor="middle" x="197" y="-166.5" font-family="Helvetica,sans-Serif" font-size="10.00">TEST_CASE</text>
</a>
</g>
</g>
<!-- Node2&#45;&gt;Node5 -->
<g id="edge4" class="edge">
<title>Node2&#45;&gt;Node5</title>
<path fill="none" stroke="midnightblue" d="M325.9,-182.15C293.19,-178.79 257.77,-175.14 232.52,-172.55"/>
<polygon fill="midnightblue" stroke="midnightblue" points="325.64,-185.64 335.95,-183.18 326.36,-178.68 325.64,-185.64"/>
</g>
<!-- Node4 -->
<g id="node4" class="node">
<title>Node4</title>
<g id="a_node4"><a xlink:href="test__component__isotropic__remeshing_8cpp.html#a64dc4992576434e79fdb0838f9092ab8" target="_top" xlink:title=" ">
<polygon fill="none" stroke="black" points="0,-203.5 0,-222.5 71,-222.5 71,-203.5 0,-203.5"/>
<text text-anchor="middle" x="35.5" y="-210.5" font-family="Helvetica,sans-Serif" font-size="10.00">TEST_CASE</text>
</a>
</g>
</g>
<!-- Node3&#45;&gt;Node4 -->
<g id="edge3" class="edge">
<title>Node3&#45;&gt;Node4</title>
<path fill="none" stroke="midnightblue" d="M107.3,-213C94.44,-213 81.89,-213 71.02,-213"/>
<polygon fill="midnightblue" stroke="midnightblue" points="107.65,-216.5 117.65,-213 107.65,-209.5 107.65,-216.5"/>
</g>
<!-- Node8 -->
<g id="node8" class="node">
<title>Node8</title>
<g id="a_node8"><a xlink:href="namespacewmtk_1_1components.html#a4166e4880553cfacbf79ac3515a637cd" target="_top" xlink:title=" ">
<polygon fill="none" stroke="black" points="119.5,-88 119.5,-118 274.5,-118 274.5,-88 119.5,-88"/>
<text text-anchor="start" x="127.5" y="-106" font-family="Helvetica,sans-Serif" font-size="10.00">wmtk::components::periodic</text>
<text text-anchor="middle" x="197" y="-95" font-family="Helvetica,sans-Serif" font-size="10.00">_optimization</text>
</a>
</g>
</g>
<!-- Node7&#45;&gt;Node8 -->
<g id="edge7" class="edge">
<title>Node7&#45;&gt;Node8</title>
<path fill="none" stroke="midnightblue" d="M325.54,-103C308.66,-103 291.06,-103 274.53,-103"/>
<polygon fill="midnightblue" stroke="midnightblue" points="325.95,-106.5 335.95,-103 325.95,-99.5 325.95,-106.5"/>
</g>
<!-- Node10 -->
<g id="node10" class="node">
<title>Node10</title>
<g id="a_node10"><a xlink:href="namespacewmtk_1_1components.html#a3154cdbc6047eee67258b69cc7d5e7cf" target="_top" xlink:title="Perform shortest&#45;edge collapse on a triangular surface mesh.">
<polygon fill="none" stroke="black" points="107,-39 107,-69 287,-69 287,-39 107,-39"/>
<text text-anchor="start" x="115" y="-57" font-family="Helvetica,sans-Serif" font-size="10.00">wmtk::components::shortestedge</text>
<text text-anchor="middle" x="197" y="-46" font-family="Helvetica,sans-Serif" font-size="10.00">_collapse</text>
</a>
</g>
</g>
<!-- Node9&#45;&gt;Node10 -->
<g id="edge9" class="edge">
<title>Node9&#45;&gt;Node10</title>
<path fill="none" stroke="midnightblue" d="M312.77,-54C304.19,-54 295.55,-54 287.06,-54"/>
<polygon fill="midnightblue" stroke="midnightblue" points="312.79,-57.5 322.79,-54 312.79,-50.5 312.79,-57.5"/>
</g>
</g>
</svg>
