<?xml version="1.0" encoding="UTF-8" standalone="no"?>
<!DOCTYPE svg PUBLIC "-//W3C//DTD SVG 1.1//EN"
 "http://www.w3.org/Graphics/SVG/1.1/DTD/svg11.dtd">
<!-- Generated by graphviz version 2.43.0 (0)
 -->
<!-- Title: wmtk::operations::tri_mesh::CollapseNewAttributeTopoInfo::merged_simplices Pages: 1 -->
<!--zoomable 637 -->
<svg id="main" version="1.1" xmlns="http://www.w3.org/2000/svg" xmlns:xlink="http://www.w3.org/1999/xlink" xml:space="preserve" onload="init(evt)">
<style type="text/css"><![CDATA[
.edge:hover path { stroke: red; }
.edge:hover polygon { stroke: red; fill: red; }
]]></style>
<script type="text/javascript"><![CDATA[
var edges = document.getElementsByTagName('g');
if (edges && edges.length) {
  for (var i=0;i<edges.length;i++) {
    if (edges[i].id.substr(0,4)=='edge') {
      edges[i].setAttribute('class','edge');
    }
  }
}
]]></script>
        <defs>
                <circle id="rim" cx="0" cy="0" r="7"/>
                <circle id="rim2" cx="0" cy="0" r="3.5"/>
                <g id="zoomPlus">
                        <use xlink:href="#rim" fill="#404040">
                                <set attributeName="fill" to="#808080" begin="zoomplus.mouseover" end="zoomplus.mouseout"/>
                        </use>
                        <path d="M-4,0h8M0,-4v8" fill="none" stroke="white" stroke-width="1.5" pointer-events="none"/>
                </g>
                <g id="zoomMin">
                        <use xlink:href="#rim" fill="#404040">
                                <set attributeName="fill" to="#808080" begin="zoomminus.mouseover" end="zoomminus.mouseout"/>
                        </use>
                        <path d="M-4,0h8" fill="none" stroke="white" stroke-width="1.5" pointer-events="none"/>
                </g>
                <g id="dirArrow">
                        <path fill="none" stroke="white" stroke-width="1.5" d="M0,-3.0v7 M-2.5,-0.5L0,-3.0L2.5,-0.5"/>
                </g>
               <g id="resetDef">
                       <use xlink:href="#rim2" fill="#404040">
                               <set attributeName="fill" to="#808080" begin="reset.mouseover" end="reset.mouseout"/>
                       </use>
               </g>
        </defs>

<script type="text/javascript">
var viewWidth = 1666;
var viewHeight = 637;
var sectionId = 'dynsection-2';
</script>
<script xlink:href="svgpan.js"/>
<svg id="graph" class="graph">
<g id="viewport">
<title>wmtk::operations::tri_mesh::CollapseNewAttributeTopoInfo::merged_simplices</title>
<!-- Node1 -->
<g id="node1" class="node">
<title>Node1</title>
<g id="a_node1"><a xlink:title=" ">
<polygon fill="#bfbfbf" stroke="black" points="0,-461 0,-502 161,-502 161,-461 0,-461"/>
<text text-anchor="start" x="8" y="-490" font-family="Helvetica,sans-Serif" font-size="10.00">wmtk::operations::tri</text>
<text text-anchor="start" x="8" y="-479" font-family="Helvetica,sans-Serif" font-size="10.00">_mesh::CollapseNewAttribute</text>
<text text-anchor="middle" x="80.5" y="-468" font-family="Helvetica,sans-Serif" font-size="10.00">TopoInfo::merged_simplices</text>
</a>
</g>
</g>
<!-- Node2 -->
<g id="node2" class="node">
<title>Node2</title>
<g id="a_node2"><a xlink:href="classwmtk_1_1operations_1_1tri__mesh_1_1_edge_operation_data.html#a8855b298c81dc9576891f77fa10c4b64" target="_top" xlink:title=" ">
<polygon fill="none" stroke="black" points="197,-535 197,-576 347,-576 347,-535 197,-535"/>
<text text-anchor="start" x="205" y="-564" font-family="Helvetica,sans-Serif" font-size="10.00">wmtk::operations::tri</text>
<text text-anchor="start" x="205" y="-553" font-family="Helvetica,sans-Serif" font-size="10.00">_mesh::EdgeOperationData</text>
<text text-anchor="middle" x="272" y="-542" font-family="Helvetica,sans-Serif" font-size="10.00">::ear_edges</text>
</a>
</g>
</g>
<!-- Node1&#45;&gt;Node2 -->
<g id="edge1" class="edge">
<title>Node1&#45;&gt;Node2</title>
<path fill="none" stroke="midnightblue" d="M134.03,-502.01C157.24,-511.08 184.7,-521.8 208.91,-531.25"/>
<polygon fill="midnightblue" stroke="midnightblue" points="207.78,-534.57 218.36,-534.95 210.32,-528.05 207.78,-534.57"/>
</g>
<!-- Node5 -->
<g id="node5" class="node">
<title>Node5</title>
<g id="a_node5"><a xlink:href="namespacewmtk.html#a5cf45c152e856196bb734c6f48919a24" target="_top" xlink:title="Get a unique integer id corresponding to each primitive type.">
<polygon fill="none" stroke="black" points="1542,-453.5 1542,-483.5 1658,-483.5 1658,-453.5 1542,-453.5"/>
<text text-anchor="start" x="1550" y="-471.5" font-family="Helvetica,sans-Serif" font-size="10.00">wmtk::get_primitive</text>
<text text-anchor="middle" x="1600" y="-460.5" font-family="Helvetica,sans-Serif" font-size="10.00">_type_id</text>
</a>
</g>
</g>
<!-- Node1&#45;&gt;Node5 -->
<g id="edge4" class="edge">
<title>Node1&#45;&gt;Node5</title>
<path fill="none" stroke="midnightblue" d="M161.06,-489.58C239.9,-496.89 364.15,-506.5 472,-506.5 472,-506.5 472,-506.5 1246.5,-506.5 1362.14,-506.5 1391.45,-503.33 1506,-487.5 1514.33,-486.35 1523.04,-484.9 1531.63,-483.32"/>
<polygon fill="midnightblue" stroke="midnightblue" points="1532.48,-486.72 1541.65,-481.42 1531.17,-479.85 1532.48,-486.72"/>
</g>
<!-- Node6 -->
<g id="node6" class="node">
<title>Node6</title>
<g id="a_node6"><a xlink:href="classwmtk_1_1operations_1_1tri__mesh_1_1_edge_operation_data.html#abde449107fdbb8d53b331d0071109a33" target="_top" xlink:title=" ">
<polygon fill="none" stroke="black" points="197,-437 197,-478 347,-478 347,-437 197,-437"/>
<text text-anchor="start" x="205" y="-466" font-family="Helvetica,sans-Serif" font-size="10.00">wmtk::operations::tri</text>
<text text-anchor="start" x="205" y="-455" font-family="Helvetica,sans-Serif" font-size="10.00">_mesh::EdgeOperationData</text>
<text text-anchor="middle" x="272" y="-444" font-family="Helvetica,sans-Serif" font-size="10.00">::input_endpoints</text>
</a>
</g>
</g>
<!-- Node1&#45;&gt;Node6 -->
<g id="edge5" class="edge">
<title>Node1&#45;&gt;Node6</title>
<path fill="none" stroke="midnightblue" d="M161.04,-471.43C169.56,-470.35 178.24,-469.25 186.81,-468.16"/>
<polygon fill="midnightblue" stroke="midnightblue" points="187.32,-471.63 196.8,-466.9 186.44,-464.68 187.32,-471.63"/>
</g>
<!-- Node32 -->
<g id="node32" class="node">
<title>Node32</title>
<g id="a_node32"><a xlink:href="classwmtk_1_1_mesh.html#ac5778c1f8afef3a2b1b1c33a140b3166" target="_top" xlink:title="Evaluate the passed in function inside the parent scope.">
<polygon fill="none" stroke="black" points="215,-387.5 215,-417.5 329,-417.5 329,-387.5 215,-387.5"/>
<text text-anchor="start" x="223" y="-405.5" font-family="Helvetica,sans-Serif" font-size="10.00">wmtk::Mesh::parent</text>
<text text-anchor="middle" x="272" y="-394.5" font-family="Helvetica,sans-Serif" font-size="10.00">_scope</text>
</a>
</g>
</g>
<!-- Node1&#45;&gt;Node32 -->
<g id="edge39" class="edge">
<title>Node1&#45;&gt;Node32</title>
<path fill="none" stroke="midnightblue" d="M122.44,-461C144.31,-450.4 171.83,-437.6 197,-427.5 202.48,-425.3 208.24,-423.13 214.03,-421.03"/>
<polygon fill="midnightblue" stroke="midnightblue" points="215.48,-424.23 223.74,-417.59 213.14,-417.63 215.48,-424.23"/>
</g>
<!-- Node3 -->
<g id="node3" class="node">
<title>Node3</title>
<g id="a_node3"><a xlink:href="classwmtk_1_1operations_1_1tri__mesh_1_1_edge_operation_data.html#abbc7494d3fd150b1d4f23d43645c0ac8" target="_top" xlink:title=" ">
<polygon fill="none" stroke="black" points="398,-587 398,-628 548,-628 548,-587 398,-587"/>
<text text-anchor="start" x="406" y="-616" font-family="Helvetica,sans-Serif" font-size="10.00">wmtk::operations::tri</text>
<text text-anchor="start" x="406" y="-605" font-family="Helvetica,sans-Serif" font-size="10.00">_mesh::EdgeOperationData</text>
<text text-anchor="middle" x="473" y="-594" font-family="Helvetica,sans-Serif" font-size="10.00">::incident_face_datas</text>
</a>
</g>
</g>
<!-- Node2&#45;&gt;Node3 -->
<g id="edge2" class="edge">
<title>Node2&#45;&gt;Node3</title>
<path fill="none" stroke="midnightblue" d="M347.1,-574.86C360.44,-578.35 374.43,-582 388.02,-585.56"/>
<polygon fill="midnightblue" stroke="midnightblue" points="387.28,-588.98 397.84,-588.12 389.05,-582.21 387.28,-588.98"/>
</g>
<!-- Node4 -->
<g id="node4" class="node">
<title>Node4</title>
<g id="a_node4"><a xlink:href="classwmtk_1_1operations_1_1_edge_operation_data.html#a37bc93fecbc4e30649298de051eee7ed" target="_top" xlink:title=" ">
<polygon fill="none" stroke="black" points="383,-537.5 383,-567.5 563,-567.5 563,-537.5 383,-537.5"/>
<text text-anchor="start" x="391" y="-555.5" font-family="Helvetica,sans-Serif" font-size="10.00">wmtk::operations::EdgeOperation</text>
<text text-anchor="middle" x="473" y="-544.5" font-family="Helvetica,sans-Serif" font-size="10.00">Data::tuple_from_id</text>
</a>
</g>
</g>
<!-- Node2&#45;&gt;Node4 -->
<g id="edge3" class="edge">
<title>Node2&#45;&gt;Node4</title>
<path fill="none" stroke="midnightblue" d="M347.1,-554.38C355.44,-554.26 364.03,-554.13 372.63,-554"/>
<polygon fill="midnightblue" stroke="midnightblue" points="372.75,-557.5 382.7,-553.85 372.65,-550.5 372.75,-557.5"/>
</g>
<!-- Node7 -->
<g id="node7" class="node">
<title>Node7</title>
<g id="a_node7"><a xlink:href="classwmtk_1_1_tri_mesh.html#a17b808a46d1a31efc12d555e6721bd02" target="_top" xlink:title="switch the orientation of the Tuple of the given dimension">
<polygon fill="none" stroke="black" points="410.5,-122.5 410.5,-152.5 535.5,-152.5 535.5,-122.5 410.5,-122.5"/>
<text text-anchor="start" x="418.5" y="-140.5" font-family="Helvetica,sans-Serif" font-size="10.00">wmtk::TriMesh::switch</text>
<text text-anchor="middle" x="473" y="-129.5" font-family="Helvetica,sans-Serif" font-size="10.00">_tuple</text>
</a>
</g>
</g>
<!-- Node6&#45;&gt;Node7 -->
<g id="edge6" class="edge">
<title>Node6&#45;&gt;Node7</title>
<path fill="none" stroke="midnightblue" d="M335.12,-436.85C339.41,-434.09 343.43,-430.99 347,-427.5 425.07,-351.12 457.33,-217.99 467.8,-162.7"/>
<polygon fill="midnightblue" stroke="midnightblue" points="471.27,-163.18 469.61,-152.72 464.38,-161.93 471.27,-163.18"/>
</g>
<!-- Node8 -->
<g id="node8" class="node">
<title>Node8</title>
<g id="a_node8"><a xlink:href="classwmtk_1_1_mesh_c_r_t_p.html#a58243712dc3e0d258ad645e7b08870db" target="_top" xlink:title="return the global id of the Tuple of the given dimension">
<polygon fill="none" stroke="black" points="599,-166.5 599,-196.5 749,-196.5 749,-166.5 599,-166.5"/>
<text text-anchor="start" x="607" y="-184.5" font-family="Helvetica,sans-Serif" font-size="10.00">wmtk::MeshCRTP&lt; TriMesh</text>
<text text-anchor="middle" x="674" y="-173.5" font-family="Helvetica,sans-Serif" font-size="10.00"> &gt;::id</text>
</a>
</g>
</g>
<!-- Node7&#45;&gt;Node8 -->
<g id="edge7" class="edge">
<title>Node7&#45;&gt;Node8</title>
<path fill="none" stroke="midnightblue" d="M535.6,-151.12C554.45,-155.29 575.43,-159.93 595.2,-164.3"/>
<polygon fill="midnightblue" stroke="midnightblue" points="594.59,-167.75 605.11,-166.49 596.1,-160.91 594.59,-167.75"/>
</g>
<!-- Node9 -->
<g id="node9" class="node">
<title>Node9</title>
<g id="a_node9"><a xlink:href="classwmtk_1_1_tri_mesh.html#accbde91fccacdfdfd997e20d9ee9eb22" target="_top" xlink:title="TODO this needs dimension?">
<polygon fill="none" stroke="black" points="611,-90 611,-109 737,-109 737,-90 611,-90"/>
<text text-anchor="middle" x="674" y="-97" font-family="Helvetica,sans-Serif" font-size="10.00">wmtk::TriMesh::is_ccw</text>
</a>
</g>
</g>
<!-- Node7&#45;&gt;Node9 -->
<g id="edge8" class="edge">
<title>Node7&#45;&gt;Node9</title>
<path fill="none" stroke="midnightblue" d="M535.6,-125.74C560.28,-121.02 588.62,-115.61 613.12,-110.93"/>
<polygon fill="midnightblue" stroke="midnightblue" points="613.85,-114.36 623.02,-109.04 612.54,-107.48 613.85,-114.36"/>
</g>
<!-- Node16 -->
<g id="node16" class="node">
<title>Node16</title>
<g id="a_node16"><a xlink:href="classwmtk_1_1_tri_mesh.html#a611704f60f24669e957325c7cb79f200" target="_top" xlink:title="check validity of tuple including its hash">
<polygon fill="none" stroke="black" points="792,-128 792,-147 923,-147 923,-128 792,-128"/>
<text text-anchor="middle" x="857.5" y="-135" font-family="Helvetica,sans-Serif" font-size="10.00">wmtk::TriMesh::is_valid</text>
</a>
</g>
</g>
<!-- Node7&#45;&gt;Node16 -->
<g id="edge36" class="edge">
<title>Node7&#45;&gt;Node16</title>
<path fill="none" stroke="midnightblue" d="M535.88,-137.5C602.89,-137.5 709.78,-137.5 781.51,-137.5"/>
<polygon fill="midnightblue" stroke="midnightblue" points="781.83,-141 791.83,-137.5 781.83,-134 781.83,-141"/>
</g>
<!-- Node31 -->
<g id="node31" class="node">
<title>Node31</title>
<g id="a_node31"><a xlink:href="namespacewmtk_1_1autogen_1_1tri__mesh.html#a91e6b348f528d93ad6d9031bae1480da" target="_top" xlink:title=" ">
<polygon fill="none" stroke="black" points="785,-5.5 785,-35.5 930,-35.5 930,-5.5 785,-5.5"/>
<text text-anchor="start" x="793" y="-23.5" font-family="Helvetica,sans-Serif" font-size="10.00">wmtk::autogen::tri</text>
<text text-anchor="middle" x="857.5" y="-12.5" font-family="Helvetica,sans-Serif" font-size="10.00">_mesh::local_switch_tuple</text>
</a>
</g>
</g>
<!-- Node7&#45;&gt;Node31 -->
<g id="edge37" class="edge">
<title>Node7&#45;&gt;Node31</title>
<path fill="none" stroke="midnightblue" d="M502.63,-122.46C527.55,-109.86 564.91,-92.12 599,-80.5 656.64,-60.86 723.69,-45.46 774.91,-35.19"/>
<polygon fill="midnightblue" stroke="midnightblue" points="775.81,-38.58 784.94,-33.2 774.45,-31.71 775.81,-38.58"/>
</g>
<!-- Node10 -->
<g id="node10" class="node">
<title>Node10</title>
<g id="a_node10"><a xlink:href="namespacewmtk_1_1autogen_1_1tri__mesh.html#aaab85f5120a223c29bae0881cd7f2c87" target="_top" xlink:title=" ">
<polygon fill="none" stroke="black" points="804,-73.5 804,-103.5 911,-103.5 911,-73.5 804,-73.5"/>
<text text-anchor="start" x="812" y="-91.5" font-family="Helvetica,sans-Serif" font-size="10.00">wmtk::autogen::tri</text>
<text text-anchor="middle" x="857.5" y="-80.5" font-family="Helvetica,sans-Serif" font-size="10.00">_mesh::is_ccw</text>
</a>
</g>
</g>
<!-- Node9&#45;&gt;Node10 -->
<g id="edge9" class="edge">
<title>Node9&#45;&gt;Node10</title>
<path fill="none" stroke="midnightblue" d="M737.21,-95.73C755.39,-94.63 775.28,-93.42 793.51,-92.32"/>
<polygon fill="midnightblue" stroke="midnightblue" points="793.97,-95.8 803.74,-91.7 793.55,-88.81 793.97,-95.8"/>
</g>
<!-- Node9&#45;&gt;Node16 -->
<g id="edge16" class="edge">
<title>Node9&#45;&gt;Node16</title>
<path fill="none" stroke="midnightblue" d="M720.8,-109.09C745.18,-114.19 775.36,-120.51 801.06,-125.89"/>
<polygon fill="midnightblue" stroke="midnightblue" points="800.52,-129.36 811.03,-127.98 801.96,-122.5 800.52,-129.36"/>
</g>
<!-- Node11 -->
<g id="node11" class="node">
<title>Node11</title>
<g id="a_node11"><a xlink:href="namespacewmtk_1_1autogen_1_1tri__mesh.html#a1c9b651c47ee993e160a8dca570cf35c" target="_top" xlink:title=" ">
<polygon fill="none" stroke="black" points="1184.5,-19 1184.5,-60 1306.5,-60 1306.5,-19 1184.5,-19"/>
<text text-anchor="start" x="1192.5" y="-48" font-family="Helvetica,sans-Serif" font-size="10.00">wmtk::autogen::tri</text>
<text text-anchor="start" x="1192.5" y="-37" font-family="Helvetica,sans-Serif" font-size="10.00">_mesh::local_id_table</text>
<text text-anchor="middle" x="1245.5" y="-26" font-family="Helvetica,sans-Serif" font-size="10.00">_offset</text>
</a>
</g>
</g>
<!-- Node10&#45;&gt;Node11 -->
<g id="edge10" class="edge">
<title>Node10&#45;&gt;Node11</title>
<path fill="none" stroke="midnightblue" d="M904.33,-73.49C923.23,-67.88 945.47,-62.03 966,-58.5 1036.15,-46.45 1117.46,-41.97 1174.05,-40.34"/>
<polygon fill="midnightblue" stroke="midnightblue" points="1174.42,-43.84 1184.32,-40.07 1174.23,-36.84 1174.42,-43.84"/>
</g>
<!-- Node14 -->
<g id="node14" class="node">
<title>Node14</title>
<g id="a_node14"><a xlink:href="namespacewmtk_1_1autogen_1_1tri__mesh.html#a786155d6d2270c482ffd6a96d3211867" target="_top" xlink:title=" ">
<polygon fill="none" stroke="black" points="988.5,-68 988.5,-109 1110.5,-109 1110.5,-68 988.5,-68"/>
<text text-anchor="start" x="996.5" y="-97" font-family="Helvetica,sans-Serif" font-size="10.00">wmtk::autogen::tri</text>
<text text-anchor="start" x="996.5" y="-86" font-family="Helvetica,sans-Serif" font-size="10.00">_mesh::tuple_is_valid</text>
<text text-anchor="middle" x="1049.5" y="-75" font-family="Helvetica,sans-Serif" font-size="10.00">_for_ccw</text>
</a>
</g>
</g>
<!-- Node10&#45;&gt;Node14 -->
<g id="edge13" class="edge">
<title>Node10&#45;&gt;Node14</title>
<path fill="none" stroke="midnightblue" d="M911.17,-88.5C931.94,-88.5 956.09,-88.5 978.3,-88.5"/>
<polygon fill="midnightblue" stroke="midnightblue" points="978.34,-92 988.34,-88.5 978.34,-85 978.34,-92"/>
</g>
<!-- Node12 -->
<g id="node12" class="node">
<title>Node12</title>
<g id="a_node12"><a xlink:href="classwmtk_1_1utils_1_1_tuple_inspector.html#a3a04acf16e0eff80ade8e0fb8753ac1b" target="_top" xlink:title=" ">
<polygon fill="none" stroke="black" points="1358,-0.5 1358,-30.5 1506,-30.5 1506,-0.5 1358,-0.5"/>
<text text-anchor="start" x="1366" y="-18.5" font-family="Helvetica,sans-Serif" font-size="10.00">wmtk::utils::TupleInspector</text>
<text text-anchor="middle" x="1432" y="-7.5" font-family="Helvetica,sans-Serif" font-size="10.00">::local_eid</text>
</a>
</g>
</g>
<!-- Node11&#45;&gt;Node12 -->
<g id="edge11" class="edge">
<title>Node11&#45;&gt;Node12</title>
<path fill="none" stroke="midnightblue" d="M1306.66,-31.67C1319.77,-29.97 1333.88,-28.13 1347.71,-26.33"/>
<polygon fill="midnightblue" stroke="midnightblue" points="1348.25,-29.79 1357.72,-25.03 1347.35,-22.85 1348.25,-29.79"/>
</g>
<!-- Node13 -->
<g id="node13" class="node">
<title>Node13</title>
<g id="a_node13"><a xlink:href="classwmtk_1_1utils_1_1_tuple_inspector.html#a92f5faa08a7f78424f5cd1ec79dcedbb" target="_top" xlink:title=" ">
<polygon fill="none" stroke="black" points="1358,-49.5 1358,-79.5 1506,-79.5 1506,-49.5 1358,-49.5"/>
<text text-anchor="start" x="1366" y="-67.5" font-family="Helvetica,sans-Serif" font-size="10.00">wmtk::utils::TupleInspector</text>
<text text-anchor="middle" x="1432" y="-56.5" font-family="Helvetica,sans-Serif" font-size="10.00">::local_vid</text>
</a>
</g>
</g>
<!-- Node11&#45;&gt;Node13 -->
<g id="edge12" class="edge">
<title>Node11&#45;&gt;Node13</title>
<path fill="none" stroke="midnightblue" d="M1306.66,-47.65C1319.77,-49.43 1333.88,-51.34 1347.71,-53.21"/>
<polygon fill="midnightblue" stroke="midnightblue" points="1347.34,-56.7 1357.72,-54.57 1348.28,-49.76 1347.34,-56.7"/>
</g>
<!-- Node14&#45;&gt;Node11 -->
<g id="edge15" class="edge">
<title>Node14&#45;&gt;Node11</title>
<path fill="none" stroke="midnightblue" d="M1110.55,-73.33C1130.82,-68.21 1153.63,-62.45 1174.59,-57.16"/>
<polygon fill="midnightblue" stroke="midnightblue" points="1175.56,-60.52 1184.4,-54.68 1173.84,-53.74 1175.56,-60.52"/>
</g>
<!-- Node15 -->
<g id="node15" class="node">
<title>Node15</title>
<g id="a_node15"><a xlink:href="classwmtk_1_1_tuple.html#a0023f575be92cd5ceeeaaaa3762ea06d" target="_top" xlink:title="Checks if a tuple is &quot;null&quot;. This merely implies the global index is &#45;1.">
<polygon fill="none" stroke="black" points="1189,-82 1189,-101 1302,-101 1302,-82 1189,-82"/>
<text text-anchor="middle" x="1245.5" y="-89" font-family="Helvetica,sans-Serif" font-size="10.00">wmtk::Tuple::is_null</text>
</a>
</g>
</g>
<!-- Node14&#45;&gt;Node15 -->
<g id="edge14" class="edge">
<title>Node14&#45;&gt;Node15</title>
<path fill="none" stroke="midnightblue" d="M1110.55,-89.43C1132.07,-89.76 1156.44,-90.14 1178.44,-90.48"/>
<polygon fill="midnightblue" stroke="midnightblue" points="1178.64,-93.98 1188.7,-90.64 1178.75,-86.98 1178.64,-93.98"/>
</g>
<!-- Node16&#45;&gt;Node14 -->
<g id="edge35" class="edge">
<title>Node16&#45;&gt;Node14</title>
<path fill="none" stroke="midnightblue" d="M895.58,-127.94C919.16,-121.86 950.42,-113.79 978.53,-106.54"/>
<polygon fill="midnightblue" stroke="midnightblue" points="979.52,-109.9 988.33,-104.02 977.77,-103.13 979.52,-109.9"/>
</g>
<!-- Node17 -->
<g id="node17" class="node">
<title>Node17</title>
<g id="a_node17"><a xlink:href="classwmtk_1_1_tri_mesh.html#a6375662ccb85d7c8868b3c76d708bae5" target="_top" xlink:title=" ">
<polygon fill="none" stroke="black" points="966,-267.5 966,-297.5 1133,-297.5 1133,-267.5 966,-267.5"/>
<text text-anchor="start" x="974" y="-285.5" font-family="Helvetica,sans-Serif" font-size="10.00">wmtk::TriMesh::is_connectivity</text>
<text text-anchor="middle" x="1049.5" y="-274.5" font-family="Helvetica,sans-Serif" font-size="10.00">_valid</text>
</a>
</g>
</g>
<!-- Node16&#45;&gt;Node17 -->
<g id="edge17" class="edge">
<title>Node16&#45;&gt;Node17</title>
<path fill="none" stroke="midnightblue" d="M870.97,-147.01C901.09,-170 978.44,-229.03 1020.4,-261.06"/>
<polygon fill="midnightblue" stroke="midnightblue" points="1018.48,-263.99 1028.55,-267.27 1022.72,-258.42 1018.48,-263.99"/>
</g>
<!-- Node27 -->
<g id="node27" class="node">
<title>Node27</title>
<g id="a_node27"><a xlink:href="namespacewmtk.html#a6a35f11c12436093d26fdd8be6fecc06" target="_top" xlink:title="Retrieves the current logger.">
<polygon fill="none" stroke="black" points="1205,-163 1205,-182 1286,-182 1286,-163 1205,-163"/>
<text text-anchor="middle" x="1245.5" y="-170" font-family="Helvetica,sans-Serif" font-size="10.00">wmtk::logger</text>
</a>
</g>
</g>
<!-- Node16&#45;&gt;Node27 -->
<g id="edge34" class="edge">
<title>Node16&#45;&gt;Node27</title>
<path fill="none" stroke="midnightblue" d="M905.42,-147.03C924.19,-150.51 946.05,-154.17 966,-156.5 1045.54,-165.78 1138.51,-169.75 1194.38,-171.39"/>
<polygon fill="midnightblue" stroke="midnightblue" points="1194.62,-174.9 1204.71,-171.68 1194.81,-167.9 1194.62,-174.9"/>
</g>
<!-- Node29 -->
<g id="node29" class="node">
<title>Node29</title>
<g id="a_node29"><a xlink:href="classwmtk_1_1_mesh.html#a8cc8686f0688613806f43720b6db49e7" target="_top" xlink:title="check validity of tuple including its hash">
<polygon fill="none" stroke="black" points="989.5,-128 989.5,-147 1109.5,-147 1109.5,-128 989.5,-128"/>
<text text-anchor="middle" x="1049.5" y="-135" font-family="Helvetica,sans-Serif" font-size="10.00">wmtk::Mesh::is_valid</text>
</a>
</g>
</g>
<!-- Node16&#45;&gt;Node29 -->
<g id="edge31" class="edge">
<title>Node16&#45;&gt;Node29</title>
<path fill="none" stroke="midnightblue" d="M923.09,-137.5C941.15,-137.5 960.86,-137.5 979.18,-137.5"/>
<polygon fill="midnightblue" stroke="midnightblue" points="979.2,-141 989.2,-137.5 979.2,-134 979.2,-141"/>
</g>
<!-- Node18 -->
<g id="node18" class="node">
<title>Node18</title>
<g id="a_node18"><a xlink:href="classwmtk_1_1_mesh.html#a3e8ff83c4a5526a40d18bb9883c6c6c9" target="_top" xlink:title="read in the m_capacities return the upper bound for the number of entities of the given dimension">
<polygon fill="none" stroke="black" points="1370,-459 1370,-478 1494,-478 1494,-459 1370,-459"/>
<text text-anchor="middle" x="1432" y="-466" font-family="Helvetica,sans-Serif" font-size="10.00">wmtk::Mesh::capacity</text>
</a>
</g>
</g>
<!-- Node17&#45;&gt;Node18 -->
<g id="edge18" class="edge">
<title>Node17&#45;&gt;Node18</title>
<path fill="none" stroke="midnightblue" d="M1056.04,-297.71C1069.38,-331.89 1106.9,-414.51 1169,-449.5 1227.45,-482.43 1305.23,-483.79 1360.83,-478.99"/>
<polygon fill="midnightblue" stroke="midnightblue" points="1361.32,-482.46 1370.94,-478.02 1360.66,-475.49 1361.32,-482.46"/>
</g>
<!-- Node19 -->
<g id="node19" class="node">
<title>Node19</title>
<g id="a_node19"><a xlink:href="classwmtk_1_1attribute_1_1_caching_accessor.html#a196b6b32e2495b971113d552be7f45d9" target="_top" xlink:title=" ">
<polygon fill="none" stroke="black" points="1177,-399 1177,-440 1314,-440 1314,-399 1177,-399"/>
<text text-anchor="start" x="1185" y="-428" font-family="Helvetica,sans-Serif" font-size="10.00">wmtk::attribute::Caching</text>
<text text-anchor="start" x="1185" y="-417" font-family="Helvetica,sans-Serif" font-size="10.00">Accessor::const_scalar</text>
<text text-anchor="middle" x="1245.5" y="-406" font-family="Helvetica,sans-Serif" font-size="10.00">_attribute</text>
</a>
</g>
</g>
<!-- Node17&#45;&gt;Node19 -->
<g id="edge20" class="edge">
<title>Node17&#45;&gt;Node19</title>
<path fill="none" stroke="midnightblue" d="M1064.08,-297.85C1084.8,-320.49 1126.4,-363.01 1169,-389.5 1171.75,-391.21 1174.62,-392.86 1177.56,-394.44"/>
<polygon fill="midnightblue" stroke="midnightblue" points="1176.05,-397.6 1186.56,-398.97 1179.21,-391.35 1176.05,-397.6"/>
</g>
<!-- Node20 -->
<g id="node20" class="node">
<title>Node20</title>
<g id="a_node20"><a xlink:href="classwmtk_1_1attribute_1_1_caching_accessor.html#ab7a79d239fdc3d22fbc0c3a83a5c50bc" target="_top" xlink:title=" ">
<polygon fill="none" stroke="black" points="1177,-339 1177,-380 1314,-380 1314,-339 1177,-339"/>
<text text-anchor="start" x="1185" y="-368" font-family="Helvetica,sans-Serif" font-size="10.00">wmtk::attribute::Caching</text>
<text text-anchor="start" x="1185" y="-357" font-family="Helvetica,sans-Serif" font-size="10.00">Accessor::const_vector</text>
<text text-anchor="middle" x="1245.5" y="-346" font-family="Helvetica,sans-Serif" font-size="10.00">_attribute</text>
</a>
</g>
</g>
<!-- Node17&#45;&gt;Node20 -->
<g id="edge21" class="edge">
<title>Node17&#45;&gt;Node20</title>
<path fill="none" stroke="midnightblue" d="M1088.37,-297.53C1115.35,-308.24 1152.2,-322.87 1183.33,-335.22"/>
<polygon fill="midnightblue" stroke="midnightblue" points="1182.2,-338.54 1192.78,-338.97 1184.78,-332.03 1182.2,-338.54"/>
</g>
<!-- Node21 -->
<g id="node21" class="node">
<title>Node21</title>
<g id="a_node21"><a xlink:href="classwmtk_1_1_mesh.html#ae0e8f71e9e17a90be9423117efcc4c81" target="_top" xlink:title=" ">
<polygon fill="none" stroke="black" points="1184.5,-201.5 1184.5,-231.5 1306.5,-231.5 1306.5,-201.5 1184.5,-201.5"/>
<text text-anchor="start" x="1192.5" y="-219.5" font-family="Helvetica,sans-Serif" font-size="10.00">wmtk::Mesh::get_flag</text>
<text text-anchor="middle" x="1245.5" y="-208.5" font-family="Helvetica,sans-Serif" font-size="10.00">_accessor</text>
</a>
</g>
</g>
<!-- Node17&#45;&gt;Node21 -->
<g id="edge22" class="edge">
<title>Node17&#45;&gt;Node21</title>
<path fill="none" stroke="midnightblue" d="M1093.51,-267.46C1115.98,-259.65 1143.95,-249.98 1169,-241.5 1175.41,-239.33 1182.14,-237.07 1188.83,-234.84"/>
<polygon fill="midnightblue" stroke="midnightblue" points="1190.17,-238.08 1198.55,-231.61 1187.96,-231.44 1190.17,-238.08"/>
</g>
<!-- Node24 -->
<g id="node24" class="node">
<title>Node24</title>
<g id="a_node24"><a xlink:href="classwmtk_1_1attribute_1_1_accessor.html#a41f40a73a13789707c117bda177dfc83" target="_top" xlink:title=" ">
<polygon fill="none" stroke="black" points="1174.5,-289.5 1174.5,-319.5 1316.5,-319.5 1316.5,-289.5 1174.5,-289.5"/>
<text text-anchor="start" x="1182.5" y="-307.5" font-family="Helvetica,sans-Serif" font-size="10.00">wmtk::attribute::Accessor</text>
<text text-anchor="middle" x="1245.5" y="-296.5" font-family="Helvetica,sans-Serif" font-size="10.00">::index_access</text>
</a>
</g>
</g>
<!-- Node17&#45;&gt;Node24 -->
<g id="edge26" class="edge">
<title>Node17&#45;&gt;Node24</title>
<path fill="none" stroke="midnightblue" d="M1133.05,-291.86C1143.34,-293.03 1153.85,-294.22 1164.1,-295.38"/>
<polygon fill="midnightblue" stroke="midnightblue" points="1163.92,-298.88 1174.26,-296.53 1164.71,-291.93 1163.92,-298.88"/>
</g>
<!-- Node26 -->
<g id="node26" class="node">
<title>Node26</title>
<g id="a_node26"><a xlink:href="classwmtk_1_1_tri_mesh.html#a58bdbbfa0cd7bd9263241f6501db182a" target="_top" xlink:title="check if a simplex lies on a boundary or not">
<polygon fill="none" stroke="black" points="1169,-251 1169,-270 1322,-270 1322,-251 1169,-251"/>
<text text-anchor="middle" x="1245.5" y="-258" font-family="Helvetica,sans-Serif" font-size="10.00">wmtk::TriMesh::is_boundary</text>
</a>
</g>
</g>
<!-- Node17&#45;&gt;Node26 -->
<g id="edge28" class="edge">
<title>Node17&#45;&gt;Node26</title>
<path fill="none" stroke="midnightblue" d="M1133.05,-273.14C1141.58,-272.17 1150.26,-271.19 1158.81,-270.22"/>
<polygon fill="midnightblue" stroke="midnightblue" points="1159.25,-273.69 1168.79,-269.09 1158.46,-266.74 1159.25,-273.69"/>
</g>
<!-- Node17&#45;&gt;Node27 -->
<g id="edge29" class="edge">
<title>Node17&#45;&gt;Node27</title>
<path fill="none" stroke="midnightblue" d="M1066.01,-267.47C1087.45,-247.51 1128.14,-212.45 1169,-192.5 1177.06,-188.57 1185.99,-185.33 1194.8,-182.69"/>
<polygon fill="midnightblue" stroke="midnightblue" points="1195.95,-186.01 1204.66,-179.97 1194.09,-179.26 1195.95,-186.01"/>
</g>
<!-- Node18&#45;&gt;Node5 -->
<g id="edge19" class="edge">
<title>Node18&#45;&gt;Node5</title>
<path fill="none" stroke="midnightblue" d="M1494.34,-468.5C1506.46,-468.5 1519.25,-468.5 1531.56,-468.5"/>
<polygon fill="midnightblue" stroke="midnightblue" points="1531.76,-472 1541.76,-468.5 1531.76,-465 1531.76,-472"/>
</g>
<!-- Node22 -->
<g id="node22" class="node">
<title>Node22</title>
<g id="a_node22"><a xlink:href="classwmtk_1_1_mesh.html#a6dbab927a2ee85f77a87f075fd5c1d94" target="_top" xlink:title=" ">
<polygon fill="none" stroke="black" points="1367,-221.5 1367,-251.5 1497,-251.5 1497,-221.5 1367,-221.5"/>
<text text-anchor="start" x="1375" y="-239.5" font-family="Helvetica,sans-Serif" font-size="10.00">wmtk::Mesh::get_const</text>
<text text-anchor="middle" x="1432" y="-228.5" font-family="Helvetica,sans-Serif" font-size="10.00">_flag_accessor</text>
</a>
</g>
</g>
<!-- Node21&#45;&gt;Node22 -->
<g id="edge23" class="edge">
<title>Node21&#45;&gt;Node22</title>
<path fill="none" stroke="midnightblue" d="M1306.66,-223.02C1322.59,-224.75 1339.99,-226.63 1356.58,-228.43"/>
<polygon fill="midnightblue" stroke="midnightblue" points="1356.48,-231.94 1366.79,-229.54 1357.23,-224.98 1356.48,-231.94"/>
</g>
<!-- Node22&#45;&gt;Node5 -->
<g id="edge25" class="edge">
<title>Node22&#45;&gt;Node5</title>
<path fill="none" stroke="midnightblue" d="M1466.76,-251.62C1480.22,-258.89 1495.08,-268.63 1506,-280.5 1551.19,-329.61 1579.34,-404.75 1591.69,-443.49"/>
<polygon fill="midnightblue" stroke="midnightblue" points="1588.45,-444.88 1594.75,-453.4 1595.14,-442.81 1588.45,-444.88"/>
</g>
<!-- Node23 -->
<g id="node23" class="node">
<title>Node23</title>
<g id="a_node23"><a xlink:href="classwmtk_1_1_mesh.html#a4a20dcdac339e7a4f6f8a6570114cbe6" target="_top" xlink:title=" ">
<polygon fill="none" stroke="black" points="1543.5,-221.5 1543.5,-251.5 1656.5,-251.5 1656.5,-221.5 1543.5,-221.5"/>
<text text-anchor="start" x="1551.5" y="-239.5" font-family="Helvetica,sans-Serif" font-size="10.00">wmtk::Mesh::create</text>
<text text-anchor="middle" x="1600" y="-228.5" font-family="Helvetica,sans-Serif" font-size="10.00">_const_accessor</text>
</a>
</g>
</g>
<!-- Node22&#45;&gt;Node23 -->
<g id="edge24" class="edge">
<title>Node22&#45;&gt;Node23</title>
<path fill="none" stroke="midnightblue" d="M1497.18,-236.5C1508.96,-236.5 1521.28,-236.5 1533.12,-236.5"/>
<polygon fill="midnightblue" stroke="midnightblue" points="1533.36,-240 1543.36,-236.5 1533.36,-233 1533.36,-240"/>
</g>
<!-- Node25 -->
<g id="node25" class="node">
<title>Node25</title>
<g id="a_node25"><a xlink:href="classwmtk_1_1attribute_1_1_accessor.html#a9c7d323f50911892c8ea738f97d041d4" target="_top" xlink:title=" ">
<polygon fill="none" stroke="black" points="1361,-289.5 1361,-319.5 1503,-319.5 1503,-289.5 1361,-289.5"/>
<text text-anchor="start" x="1369" y="-307.5" font-family="Helvetica,sans-Serif" font-size="10.00">wmtk::attribute::Accessor</text>
<text text-anchor="middle" x="1432" y="-296.5" font-family="Helvetica,sans-Serif" font-size="10.00">::caching_base_type</text>
</a>
</g>
</g>
<!-- Node24&#45;&gt;Node25 -->
<g id="edge27" class="edge">
<title>Node24&#45;&gt;Node25</title>
<path fill="none" stroke="midnightblue" d="M1316.51,-304.5C1327.6,-304.5 1339.14,-304.5 1350.44,-304.5"/>
<polygon fill="midnightblue" stroke="midnightblue" points="1350.73,-308 1360.73,-304.5 1350.73,-301 1350.73,-308"/>
</g>
<!-- Node28 -->
<g id="node28" class="node">
<title>Node28</title>
<g id="a_node28"><a xlink:href="namespacewmtk.html#a3daa7951a5f8b78cf4600dc047fcc180" target="_top" xlink:title="Setup a logger object to be used by WildmeshToolkit.">
<polygon fill="none" stroke="black" points="1381.5,-163 1381.5,-182 1482.5,-182 1482.5,-163 1381.5,-163"/>
<text text-anchor="middle" x="1432" y="-170" font-family="Helvetica,sans-Serif" font-size="10.00">wmtk::set_logger</text>
</a>
</g>
</g>
<!-- Node27&#45;&gt;Node28 -->
<g id="edge30" class="edge">
<title>Node27&#45;&gt;Node28</title>
<path fill="none" stroke="midnightblue" d="M1286.08,-172.5C1310.88,-172.5 1343.32,-172.5 1371.22,-172.5"/>
<polygon fill="midnightblue" stroke="midnightblue" points="1371.27,-176 1381.27,-172.5 1371.27,-169 1371.27,-176"/>
</g>
<!-- Node29&#45;&gt;Node15 -->
<g id="edge32" class="edge">
<title>Node29&#45;&gt;Node15</title>
<path fill="none" stroke="midnightblue" d="M1092.49,-127.93C1105.48,-124.94 1119.84,-121.61 1133,-118.5 1153.55,-113.65 1176.2,-108.18 1195.69,-103.44"/>
<polygon fill="midnightblue" stroke="midnightblue" points="1196.68,-106.81 1205.57,-101.04 1195.02,-100.01 1196.68,-106.81"/>
</g>
<!-- Node30 -->
<g id="node30" class="node">
<title>Node30</title>
<g id="a_node30"><a xlink:href="classwmtk_1_1_mesh.html#ade176d345902d97af8c5da04aa3a095b" target="_top" xlink:title=" ">
<polygon fill="none" stroke="black" points="1175.5,-125 1175.5,-144 1315.5,-144 1315.5,-125 1175.5,-125"/>
<text text-anchor="middle" x="1245.5" y="-132" font-family="Helvetica,sans-Serif" font-size="10.00">wmtk::Mesh::is_removed</text>
</a>
</g>
</g>
<!-- Node29&#45;&gt;Node30 -->
<g id="edge33" class="edge">
<title>Node29&#45;&gt;Node30</title>
<path fill="none" stroke="midnightblue" d="M1109.76,-136.58C1127.25,-136.31 1146.67,-136.01 1165.21,-135.73"/>
<polygon fill="midnightblue" stroke="midnightblue" points="1165.45,-139.22 1175.39,-135.57 1165.34,-132.22 1165.45,-139.22"/>
</g>
<!-- Node31&#45;&gt;Node11 -->
<g id="edge38" class="edge">
<title>Node31&#45;&gt;Node11</title>
<path fill="none" stroke="midnightblue" d="M930.26,-19.72C985.7,-19.62 1064.3,-20.58 1133,-25.5 1146.34,-26.46 1160.52,-27.9 1174.15,-29.51"/>
<polygon fill="midnightblue" stroke="midnightblue" points="1174.08,-33.03 1184.44,-30.77 1174.93,-26.08 1174.08,-33.03"/>
</g>
</g>
</svg>
        <g id="navigator" transform="translate(0 0)" fill="#404254">
                <rect fill="#f2f5e9" fill-opacity="0.5" stroke="#606060" stroke-width=".5" x="0" y="0" width="60" height="60"/>
                <use id="zoomplus" xlink:href="#zoomPlus" x="17" y="9" onmousedown="handleZoom(evt,'in')"/>
                <use id="zoomminus" xlink:href="#zoomMin" x="42" y="9" onmousedown="handleZoom(evt,'out')"/>
                <use id="reset" xlink:href="#resetDef" x="30" y="36" onmousedown="handleReset()"/>
                <g id="arrowUp" xlink:href="#dirArrow" transform="translate(30 24)" onmousedown="handlePan(0,-1)">
                  <use xlink:href="#rim" fill="#404040">
                        <set attributeName="fill" to="#808080" begin="arrowUp.mouseover" end="arrowUp.mouseout"/>
                  </use>
                  <path fill="none" stroke="white" stroke-width="1.5" d="M0,-3.0v7 M-2.5,-0.5L0,-3.0L2.5,-0.5"/>
                </g>
                <g id="arrowRight" xlink:href="#dirArrow" transform="rotate(90) translate(36 -43)" onmousedown="handlePan(1,0)">
                  <use xlink:href="#rim" fill="#404040">
                        <set attributeName="fill" to="#808080" begin="arrowRight.mouseover" end="arrowRight.mouseout"/>
                  </use>
                  <path fill="none" stroke="white" stroke-width="1.5" d="M0,-3.0v7 M-2.5,-0.5L0,-3.0L2.5,-0.5"/>
                </g>
                <g id="arrowDown" xlink:href="#dirArrow" transform="rotate(180) translate(-30 -48)" onmousedown="handlePan(0,1)">
                  <use xlink:href="#rim" fill="#404040">
                        <set attributeName="fill" to="#808080" begin="arrowDown.mouseover" end="arrowDown.mouseout"/>
                  </use>
                  <path fill="none" stroke="white" stroke-width="1.5" d="M0,-3.0v7 M-2.5,-0.5L0,-3.0L2.5,-0.5"/>
                </g>
                <g id="arrowLeft" xlink:href="#dirArrow" transform="rotate(270) translate(-36 17)" onmousedown="handlePan(-1,0)">
                  <use xlink:href="#rim" fill="#404040">
                        <set attributeName="fill" to="#808080" begin="arrowLeft.mouseover" end="arrowLeft.mouseout"/>
                  </use>
                  <path fill="none" stroke="white" stroke-width="1.5" d="M0,-3.0v7 M-2.5,-0.5L0,-3.0L2.5,-0.5"/>
                </g>
        </g>
        <svg viewBox="0 0 15 15" width="100%" height="30px" preserveAspectRatio="xMaxYMin meet">
         <g id="arrow_out" transform="scale(0.3 0.3)">
          <a xlink:href="classwmtk_1_1operations_1_1tri__mesh_1_1_collapse_new_attribute_topo_info_ad62f4f6e69a6bb038ae1cfd3021e8f4a_cgraph_org.svg" target="_base">
           <rect id="button" ry="5" rx="5" y="6" x="6" height="38" width="38"
                fill="#f2f5e9" fill-opacity="0.5" stroke="#606060" stroke-width="1.0"/>
           <path id="arrow"
             d="M 11.500037,31.436501 C 11.940474,20.09759 22.043105,11.32322 32.158766,21.979434 L 37.068811,17.246167 C 37.068811,17.246167 37.088388,32 37.088388,32 L 22.160133,31.978069 C 22.160133,31.978069 26.997745,27.140456 26.997745,27.140456 C 18.528582,18.264221 13.291696,25.230495 11.500037,31.436501 z"
             style="fill:#404040;"/>
          </a>
         </g>
        </svg>
</svg>
