<?xml version="1.0" encoding="UTF-8" standalone="no"?>
<!DOCTYPE svg PUBLIC "-//W3C//DTD SVG 1.1//EN"
 "http://www.w3.org/Graphics/SVG/1.1/DTD/svg11.dtd">
<!-- Generated by graphviz version 2.43.0 (0)
 -->
<!-- Title: wmtk::TriMesh::is_boundary Pages: 1 -->
<svg width="1805pt" height="501pt"
 viewBox="0.00 0.00 1805.00 501.00" xmlns="http://www.w3.org/2000/svg" xmlns:xlink="http://www.w3.org/1999/xlink">
<g id="graph0" class="graph" transform="scale(1 1) rotate(0) translate(4 497)">
<title>wmtk::TriMesh::is_boundary</title>
<!-- Node1 -->
<g id="node1" class="node">
<title>Node1</title>
<g id="a_node1"><a xlink:title="check if a simplex (encoded as a tuple/primitive pair) lies on a boundary or not">
<polygon fill="#bfbfbf" stroke="black" points="0,-147 0,-166 153,-166 153,-147 0,-147"/>
<text text-anchor="middle" x="76.5" y="-154" font-family="Helvetica,sans-Serif" font-size="10.00">wmtk::TriMesh::is_boundary</text>
</a>
</g>
</g>
<!-- Node2 -->
<g id="node2" class="node">
<title>Node2</title>
<g id="a_node2"><a xlink:href="classwmtk_1_1_tri_mesh.html#ac603f7969b10c674eb00e007a507a530" target="_top" xlink:title=" ">
<polygon fill="none" stroke="black" points="378,-168 378,-187 560,-187 560,-168 378,-168"/>
<text text-anchor="middle" x="469" y="-175" font-family="Helvetica,sans-Serif" font-size="10.00">wmtk::TriMesh::is_boundary_edge</text>
</a>
</g>
</g>
<!-- Node1&#45;&gt;Node2 -->
<g id="edge1" class="edge">
<title>Node1&#45;&gt;Node2</title>
<path fill="none" stroke="midnightblue" d="M153.26,-160.57C214.33,-163.86 300.75,-168.51 367.59,-172.1"/>
<polygon fill="midnightblue" stroke="midnightblue" points="367.55,-175.6 377.72,-172.65 367.92,-168.61 367.55,-175.6"/>
</g>
<!-- Node24 -->
<g id="node24" class="node">
<title>Node24</title>
<g id="a_node24"><a xlink:href="classwmtk_1_1_tri_mesh.html#a1d5d124897281d6a649098213173fdb5" target="_top" xlink:title=" ">
<polygon fill="none" stroke="black" points="189,-119.5 189,-149.5 342,-149.5 342,-119.5 189,-119.5"/>
<text text-anchor="start" x="197" y="-137.5" font-family="Helvetica,sans-Serif" font-size="10.00">wmtk::TriMesh::is_boundary</text>
<text text-anchor="middle" x="265.5" y="-126.5" font-family="Helvetica,sans-Serif" font-size="10.00">_vertex</text>
</a>
</g>
</g>
<!-- Node1&#45;&gt;Node24 -->
<g id="edge26" class="edge">
<title>Node1&#45;&gt;Node24</title>
<path fill="none" stroke="midnightblue" d="M153.02,-147.62C161.47,-146.62 170.13,-145.6 178.7,-144.59"/>
<polygon fill="midnightblue" stroke="midnightblue" points="179.17,-148.06 188.7,-143.42 178.36,-141.11 179.17,-148.06"/>
</g>
<!-- Node3 -->
<g id="node3" class="node">
<title>Node3</title>
<g id="a_node3"><a xlink:href="classwmtk_1_1_tri_mesh.html#a611704f60f24669e957325c7cb79f200" target="_top" xlink:title="check validity of tuple including its hash">
<polygon fill="none" stroke="black" points="938,-150 938,-169 1069,-169 1069,-150 938,-150"/>
<text text-anchor="middle" x="1003.5" y="-157" font-family="Helvetica,sans-Serif" font-size="10.00">wmtk::TriMesh::is_valid</text>
</a>
</g>
</g>
<!-- Node2&#45;&gt;Node3 -->
<g id="edge2" class="edge">
<title>Node2&#45;&gt;Node3</title>
<path fill="none" stroke="midnightblue" d="M560.03,-174.46C663.33,-170.97 830.85,-165.3 927.41,-162.04"/>
<polygon fill="midnightblue" stroke="midnightblue" points="927.8,-165.53 937.68,-161.69 927.57,-158.53 927.8,-165.53"/>
</g>
<!-- Node4 -->
<g id="node4" class="node">
<title>Node4</title>
<g id="a_node4"><a xlink:href="classwmtk_1_1_tri_mesh.html#a6375662ccb85d7c8868b3c76d708bae5" target="_top" xlink:title=" ">
<polygon fill="none" stroke="black" points="1105,-275.5 1105,-305.5 1272,-305.5 1272,-275.5 1105,-275.5"/>
<text text-anchor="start" x="1113" y="-293.5" font-family="Helvetica,sans-Serif" font-size="10.00">wmtk::TriMesh::is_connectivity</text>
<text text-anchor="middle" x="1188.5" y="-282.5" font-family="Helvetica,sans-Serif" font-size="10.00">_valid</text>
</a>
</g>
</g>
<!-- Node3&#45;&gt;Node4 -->
<g id="edge3" class="edge">
<title>Node3&#45;&gt;Node4</title>
<path fill="none" stroke="midnightblue" d="M1017.96,-169.13C1047.33,-190.16 1117.79,-240.6 1158.02,-269.4"/>
<polygon fill="midnightblue" stroke="midnightblue" points="1156.19,-272.39 1166.36,-275.37 1160.26,-266.7 1156.19,-272.39"/>
</g>
<!-- Node15 -->
<g id="node15" class="node">
<title>Node15</title>
<g id="a_node15"><a xlink:href="namespacewmtk.html#a6a35f11c12436093d26fdd8be6fecc06" target="_top" xlink:title="Retrieves the current logger.">
<polygon fill="none" stroke="black" points="1344,-172 1344,-191 1425,-191 1425,-172 1344,-172"/>
<text text-anchor="middle" x="1384.5" y="-179" font-family="Helvetica,sans-Serif" font-size="10.00">wmtk::logger</text>
</a>
</g>
</g>
<!-- Node3&#45;&gt;Node15 -->
<g id="edge20" class="edge">
<title>Node3&#45;&gt;Node15</title>
<path fill="none" stroke="midnightblue" d="M1069.22,-163.26C1144.13,-167.61 1265.87,-174.67 1333.75,-178.61"/>
<polygon fill="midnightblue" stroke="midnightblue" points="1333.57,-182.11 1343.76,-179.19 1333.98,-175.12 1333.57,-182.11"/>
</g>
<!-- Node17 -->
<g id="node17" class="node">
<title>Node17</title>
<g id="a_node17"><a xlink:href="classwmtk_1_1_mesh.html#a8cc8686f0688613806f43720b6db49e7" target="_top" xlink:title="check validity of tuple including its hash">
<polygon fill="none" stroke="black" points="1128.5,-134 1128.5,-153 1248.5,-153 1248.5,-134 1128.5,-134"/>
<text text-anchor="middle" x="1188.5" y="-141" font-family="Helvetica,sans-Serif" font-size="10.00">wmtk::Mesh::is_valid</text>
</a>
</g>
</g>
<!-- Node3&#45;&gt;Node17 -->
<g id="edge17" class="edge">
<title>Node3&#45;&gt;Node17</title>
<path fill="none" stroke="midnightblue" d="M1069.02,-153.86C1084.89,-152.47 1101.95,-150.98 1118.04,-149.57"/>
<polygon fill="midnightblue" stroke="midnightblue" points="1118.8,-153.02 1128.45,-148.66 1118.19,-146.05 1118.8,-153.02"/>
</g>
<!-- Node20 -->
<g id="node20" class="node">
<title>Node20</title>
<g id="a_node20"><a xlink:href="namespacewmtk_1_1autogen_1_1tri__mesh.html#a786155d6d2270c482ffd6a96d3211867" target="_top" xlink:title=" ">
<polygon fill="none" stroke="black" points="1127.5,-74 1127.5,-115 1249.5,-115 1249.5,-74 1127.5,-74"/>
<text text-anchor="start" x="1135.5" y="-103" font-family="Helvetica,sans-Serif" font-size="10.00">wmtk::autogen::tri</text>
<text text-anchor="start" x="1135.5" y="-92" font-family="Helvetica,sans-Serif" font-size="10.00">_mesh::tuple_is_valid</text>
<text text-anchor="middle" x="1188.5" y="-81" font-family="Helvetica,sans-Serif" font-size="10.00">_for_ccw</text>
</a>
</g>
</g>
<!-- Node3&#45;&gt;Node20 -->
<g id="edge21" class="edge">
<title>Node3&#45;&gt;Node20</title>
<path fill="none" stroke="midnightblue" d="M1039.92,-149.98C1049.45,-147.17 1059.69,-143.92 1069,-140.5 1085.43,-134.46 1088.76,-131.05 1105,-124.5 1109.74,-122.59 1114.65,-120.66 1119.61,-118.76"/>
<polygon fill="midnightblue" stroke="midnightblue" points="1121.05,-121.96 1129.16,-115.14 1118.57,-115.41 1121.05,-121.96"/>
</g>
<!-- Node5 -->
<g id="node5" class="node">
<title>Node5</title>
<g id="a_node5"><a xlink:href="classwmtk_1_1_mesh.html#a3e8ff83c4a5526a40d18bb9883c6c6c9" target="_top" xlink:title="read in the m_capacities return the upper bound for the number of entities of the given dimension">
<polygon fill="none" stroke="black" points="1509,-468 1509,-487 1633,-487 1633,-468 1509,-468"/>
<text text-anchor="middle" x="1571" y="-475" font-family="Helvetica,sans-Serif" font-size="10.00">wmtk::Mesh::capacity</text>
</a>
</g>
</g>
<!-- Node4&#45;&gt;Node5 -->
<g id="edge4" class="edge">
<title>Node4&#45;&gt;Node5</title>
<path fill="none" stroke="midnightblue" d="M1194.91,-305.54C1208.11,-339.76 1245.54,-423.2 1308,-458.5 1366.59,-491.61 1444.69,-492.87 1500.34,-487.98"/>
<polygon fill="midnightblue" stroke="midnightblue" points="1500.84,-491.45 1510.46,-487.01 1500.17,-484.48 1500.84,-491.45"/>
</g>
<!-- Node7 -->
<g id="node7" class="node">
<title>Node7</title>
<g id="a_node7"><a xlink:href="classwmtk_1_1attribute_1_1_caching_accessor.html#a196b6b32e2495b971113d552be7f45d9" target="_top" xlink:title=" ">
<polygon fill="none" stroke="black" points="1316,-358 1316,-399 1453,-399 1453,-358 1316,-358"/>
<text text-anchor="start" x="1324" y="-387" font-family="Helvetica,sans-Serif" font-size="10.00">wmtk::attribute::Caching</text>
<text text-anchor="start" x="1324" y="-376" font-family="Helvetica,sans-Serif" font-size="10.00">Accessor::const_scalar</text>
<text text-anchor="middle" x="1384.5" y="-365" font-family="Helvetica,sans-Serif" font-size="10.00">_attribute</text>
</a>
</g>
</g>
<!-- Node4&#45;&gt;Node7 -->
<g id="edge6" class="edge">
<title>Node4&#45;&gt;Node7</title>
<path fill="none" stroke="midnightblue" d="M1218.91,-305.68C1242.71,-317.77 1277.21,-334.87 1308,-348.5 1312.1,-350.32 1316.35,-352.14 1320.64,-353.95"/>
<polygon fill="midnightblue" stroke="midnightblue" points="1319.5,-357.27 1330.08,-357.87 1322.18,-350.8 1319.5,-357.27"/>
</g>
<!-- Node8 -->
<g id="node8" class="node">
<title>Node8</title>
<g id="a_node8"><a xlink:href="classwmtk_1_1attribute_1_1_caching_accessor.html#ab7a79d239fdc3d22fbc0c3a83a5c50bc" target="_top" xlink:title=" ">
<polygon fill="none" stroke="black" points="1316,-298 1316,-339 1453,-339 1453,-298 1316,-298"/>
<text text-anchor="start" x="1324" y="-327" font-family="Helvetica,sans-Serif" font-size="10.00">wmtk::attribute::Caching</text>
<text text-anchor="start" x="1324" y="-316" font-family="Helvetica,sans-Serif" font-size="10.00">Accessor::const_vector</text>
<text text-anchor="middle" x="1384.5" y="-305" font-family="Helvetica,sans-Serif" font-size="10.00">_attribute</text>
</a>
</g>
</g>
<!-- Node4&#45;&gt;Node8 -->
<g id="edge7" class="edge">
<title>Node4&#45;&gt;Node8</title>
<path fill="none" stroke="midnightblue" d="M1272.05,-302.42C1283.27,-304.03 1294.74,-305.69 1305.86,-307.29"/>
<polygon fill="midnightblue" stroke="midnightblue" points="1305.56,-310.79 1315.96,-308.75 1306.56,-303.86 1305.56,-310.79"/>
</g>
<!-- Node9 -->
<g id="node9" class="node">
<title>Node9</title>
<g id="a_node9"><a xlink:href="classwmtk_1_1_mesh.html#ae0e8f71e9e17a90be9423117efcc4c81" target="_top" xlink:title=" ">
<polygon fill="none" stroke="black" points="1323.5,-418.5 1323.5,-448.5 1445.5,-448.5 1445.5,-418.5 1323.5,-418.5"/>
<text text-anchor="start" x="1331.5" y="-436.5" font-family="Helvetica,sans-Serif" font-size="10.00">wmtk::Mesh::get_flag</text>
<text text-anchor="middle" x="1384.5" y="-425.5" font-family="Helvetica,sans-Serif" font-size="10.00">_accessor</text>
</a>
</g>
</g>
<!-- Node4&#45;&gt;Node9 -->
<g id="edge8" class="edge">
<title>Node4&#45;&gt;Node9</title>
<path fill="none" stroke="midnightblue" d="M1200.92,-305.8C1220.29,-330.73 1262.01,-380.2 1308,-408.5 1311.34,-410.56 1314.88,-412.47 1318.52,-414.23"/>
<polygon fill="midnightblue" stroke="midnightblue" points="1317.17,-417.47 1327.73,-418.34 1320.02,-411.07 1317.17,-417.47"/>
</g>
<!-- Node12 -->
<g id="node12" class="node">
<title>Node12</title>
<g id="a_node12"><a xlink:href="classwmtk_1_1attribute_1_1_accessor.html#a41f40a73a13789707c117bda177dfc83" target="_top" xlink:title=" ">
<polygon fill="none" stroke="black" points="1313.5,-248.5 1313.5,-278.5 1455.5,-278.5 1455.5,-248.5 1313.5,-248.5"/>
<text text-anchor="start" x="1321.5" y="-266.5" font-family="Helvetica,sans-Serif" font-size="10.00">wmtk::attribute::Accessor</text>
<text text-anchor="middle" x="1384.5" y="-255.5" font-family="Helvetica,sans-Serif" font-size="10.00">::index_access</text>
</a>
</g>
</g>
<!-- Node4&#45;&gt;Node12 -->
<g id="edge12" class="edge">
<title>Node4&#45;&gt;Node12</title>
<path fill="none" stroke="midnightblue" d="M1272.05,-279.01C1282.34,-277.58 1292.85,-276.12 1303.1,-274.69"/>
<polygon fill="midnightblue" stroke="midnightblue" points="1303.83,-278.12 1313.26,-273.28 1302.87,-271.19 1303.83,-278.12"/>
</g>
<!-- Node14 -->
<g id="node14" class="node">
<title>Node14</title>
<g id="a_node14"><a xlink:href="classwmtk_1_1_tri_mesh.html#a58bdbbfa0cd7bd9263241f6501db182a" target="_top" xlink:title="check if a simplex lies on a boundary or not">
<polygon fill="none" stroke="black" points="1308,-210 1308,-229 1461,-229 1461,-210 1308,-210"/>
<text text-anchor="middle" x="1384.5" y="-217" font-family="Helvetica,sans-Serif" font-size="10.00">wmtk::TriMesh::is_boundary</text>
</a>
</g>
</g>
<!-- Node4&#45;&gt;Node14 -->
<g id="edge14" class="edge">
<title>Node4&#45;&gt;Node14</title>
<path fill="none" stroke="midnightblue" d="M1221.18,-275.35C1244.77,-264.44 1277.94,-249.89 1308,-239.5 1316.11,-236.7 1324.82,-234.06 1333.34,-231.68"/>
<polygon fill="midnightblue" stroke="midnightblue" points="1334.47,-235 1343.2,-229 1332.63,-228.24 1334.47,-235"/>
</g>
<!-- Node4&#45;&gt;Node15 -->
<g id="edge15" class="edge">
<title>Node4&#45;&gt;Node15</title>
<path fill="none" stroke="midnightblue" d="M1204.98,-275.4C1226.38,-255.35 1267.02,-220.2 1308,-200.5 1316.05,-196.63 1324.98,-193.49 1333.8,-190.96"/>
<polygon fill="midnightblue" stroke="midnightblue" points="1334.88,-194.3 1343.65,-188.36 1333.09,-187.53 1334.88,-194.3"/>
</g>
<!-- Node6 -->
<g id="node6" class="node">
<title>Node6</title>
<g id="a_node6"><a xlink:href="namespacewmtk.html#a5cf45c152e856196bb734c6f48919a24" target="_top" xlink:title="Get a unique integer id corresponding to each primitive type.">
<polygon fill="none" stroke="black" points="1681,-462.5 1681,-492.5 1797,-492.5 1797,-462.5 1681,-462.5"/>
<text text-anchor="start" x="1689" y="-480.5" font-family="Helvetica,sans-Serif" font-size="10.00">wmtk::get_primitive</text>
<text text-anchor="middle" x="1739" y="-469.5" font-family="Helvetica,sans-Serif" font-size="10.00">_type_id</text>
</a>
</g>
</g>
<!-- Node5&#45;&gt;Node6 -->
<g id="edge5" class="edge">
<title>Node5&#45;&gt;Node6</title>
<path fill="none" stroke="midnightblue" d="M1633.34,-477.5C1645.46,-477.5 1658.25,-477.5 1670.56,-477.5"/>
<polygon fill="midnightblue" stroke="midnightblue" points="1670.76,-481 1680.76,-477.5 1670.76,-474 1670.76,-481"/>
</g>
<!-- Node10 -->
<g id="node10" class="node">
<title>Node10</title>
<g id="a_node10"><a xlink:href="classwmtk_1_1_mesh.html#a6dbab927a2ee85f77a87f075fd5c1d94" target="_top" xlink:title=" ">
<polygon fill="none" stroke="black" points="1506,-418.5 1506,-448.5 1636,-448.5 1636,-418.5 1506,-418.5"/>
<text text-anchor="start" x="1514" y="-436.5" font-family="Helvetica,sans-Serif" font-size="10.00">wmtk::Mesh::get_const</text>
<text text-anchor="middle" x="1571" y="-425.5" font-family="Helvetica,sans-Serif" font-size="10.00">_flag_accessor</text>
</a>
</g>
</g>
<!-- Node9&#45;&gt;Node10 -->
<g id="edge9" class="edge">
<title>Node9&#45;&gt;Node10</title>
<path fill="none" stroke="midnightblue" d="M1445.66,-433.5C1461.59,-433.5 1478.99,-433.5 1495.58,-433.5"/>
<polygon fill="midnightblue" stroke="midnightblue" points="1495.79,-437 1505.79,-433.5 1495.79,-430 1495.79,-437"/>
</g>
<!-- Node10&#45;&gt;Node6 -->
<g id="edge11" class="edge">
<title>Node10&#45;&gt;Node6</title>
<path fill="none" stroke="midnightblue" d="M1628.66,-448.52C1642.48,-452.18 1657.37,-456.13 1671.6,-459.9"/>
<polygon fill="midnightblue" stroke="midnightblue" points="1670.75,-463.29 1681.31,-462.47 1672.54,-456.53 1670.75,-463.29"/>
</g>
<!-- Node11 -->
<g id="node11" class="node">
<title>Node11</title>
<g id="a_node11"><a xlink:href="classwmtk_1_1_mesh.html#a4a20dcdac339e7a4f6f8a6570114cbe6" target="_top" xlink:title=" ">
<polygon fill="none" stroke="black" points="1682.5,-413.5 1682.5,-443.5 1795.5,-443.5 1795.5,-413.5 1682.5,-413.5"/>
<text text-anchor="start" x="1690.5" y="-431.5" font-family="Helvetica,sans-Serif" font-size="10.00">wmtk::Mesh::create</text>
<text text-anchor="middle" x="1739" y="-420.5" font-family="Helvetica,sans-Serif" font-size="10.00">_const_accessor</text>
</a>
</g>
</g>
<!-- Node10&#45;&gt;Node11 -->
<g id="edge10" class="edge">
<title>Node10&#45;&gt;Node11</title>
<path fill="none" stroke="midnightblue" d="M1636.18,-431.57C1647.96,-431.21 1660.28,-430.84 1672.12,-430.48"/>
<polygon fill="midnightblue" stroke="midnightblue" points="1672.47,-433.98 1682.36,-430.18 1672.26,-426.98 1672.47,-433.98"/>
</g>
<!-- Node13 -->
<g id="node13" class="node">
<title>Node13</title>
<g id="a_node13"><a xlink:href="classwmtk_1_1attribute_1_1_accessor.html#a9c7d323f50911892c8ea738f97d041d4" target="_top" xlink:title=" ">
<polygon fill="none" stroke="black" points="1500,-248.5 1500,-278.5 1642,-278.5 1642,-248.5 1500,-248.5"/>
<text text-anchor="start" x="1508" y="-266.5" font-family="Helvetica,sans-Serif" font-size="10.00">wmtk::attribute::Accessor</text>
<text text-anchor="middle" x="1571" y="-255.5" font-family="Helvetica,sans-Serif" font-size="10.00">::caching_base_type</text>
</a>
</g>
</g>
<!-- Node12&#45;&gt;Node13 -->
<g id="edge13" class="edge">
<title>Node12&#45;&gt;Node13</title>
<path fill="none" stroke="midnightblue" d="M1455.51,-263.5C1466.6,-263.5 1478.14,-263.5 1489.44,-263.5"/>
<polygon fill="midnightblue" stroke="midnightblue" points="1489.73,-267 1499.73,-263.5 1489.73,-260 1489.73,-267"/>
</g>
<!-- Node16 -->
<g id="node16" class="node">
<title>Node16</title>
<g id="a_node16"><a xlink:href="namespacewmtk.html#a3daa7951a5f8b78cf4600dc047fcc180" target="_top" xlink:title="Setup a logger object to be used by WildmeshToolkit.">
<polygon fill="none" stroke="black" points="1520.5,-172 1520.5,-191 1621.5,-191 1621.5,-172 1520.5,-172"/>
<text text-anchor="middle" x="1571" y="-179" font-family="Helvetica,sans-Serif" font-size="10.00">wmtk::set_logger</text>
</a>
</g>
</g>
<!-- Node15&#45;&gt;Node16 -->
<g id="edge16" class="edge">
<title>Node15&#45;&gt;Node16</title>
<path fill="none" stroke="midnightblue" d="M1425.08,-181.5C1449.88,-181.5 1482.32,-181.5 1510.22,-181.5"/>
<polygon fill="midnightblue" stroke="midnightblue" points="1510.27,-185 1520.27,-181.5 1510.27,-178 1510.27,-185"/>
</g>
<!-- Node18 -->
<g id="node18" class="node">
<title>Node18</title>
<g id="a_node18"><a xlink:href="classwmtk_1_1_tuple.html#a0023f575be92cd5ceeeaaaa3762ea06d" target="_top" xlink:title="Checks if a tuple is &quot;null&quot;. This merely implies the global index is &#45;1.">
<polygon fill="none" stroke="black" points="1328,-90 1328,-109 1441,-109 1441,-90 1328,-90"/>
<text text-anchor="middle" x="1384.5" y="-97" font-family="Helvetica,sans-Serif" font-size="10.00">wmtk::Tuple::is_null</text>
</a>
</g>
</g>
<!-- Node17&#45;&gt;Node18 -->
<g id="edge18" class="edge">
<title>Node17&#45;&gt;Node18</title>
<path fill="none" stroke="midnightblue" d="M1231.6,-133.95C1260.96,-127.29 1300.33,-118.36 1331.63,-111.26"/>
<polygon fill="midnightblue" stroke="midnightblue" points="1332.51,-114.65 1341.49,-109.03 1330.96,-107.83 1332.51,-114.65"/>
</g>
<!-- Node19 -->
<g id="node19" class="node">
<title>Node19</title>
<g id="a_node19"><a xlink:href="classwmtk_1_1_mesh.html#ade176d345902d97af8c5da04aa3a095b" target="_top" xlink:title=" ">
<polygon fill="none" stroke="black" points="1314.5,-134 1314.5,-153 1454.5,-153 1454.5,-134 1314.5,-134"/>
<text text-anchor="middle" x="1384.5" y="-141" font-family="Helvetica,sans-Serif" font-size="10.00">wmtk::Mesh::is_removed</text>
</a>
</g>
</g>
<!-- Node17&#45;&gt;Node19 -->
<g id="edge19" class="edge">
<title>Node17&#45;&gt;Node19</title>
<path fill="none" stroke="midnightblue" d="M1248.76,-143.5C1266.25,-143.5 1285.67,-143.5 1304.21,-143.5"/>
<polygon fill="midnightblue" stroke="midnightblue" points="1304.39,-147 1314.39,-143.5 1304.39,-140 1304.39,-147"/>
</g>
<!-- Node20&#45;&gt;Node18 -->
<g id="edge22" class="edge">
<title>Node20&#45;&gt;Node18</title>
<path fill="none" stroke="midnightblue" d="M1249.55,-96.05C1271.07,-96.6 1295.44,-97.23 1317.44,-97.8"/>
<polygon fill="midnightblue" stroke="midnightblue" points="1317.61,-101.3 1327.7,-98.06 1317.79,-94.31 1317.61,-101.3"/>
</g>
<!-- Node21 -->
<g id="node21" class="node">
<title>Node21</title>
<g id="a_node21"><a xlink:href="namespacewmtk_1_1autogen_1_1tri__mesh.html#a1c9b651c47ee993e160a8dca570cf35c" target="_top" xlink:title=" ">
<polygon fill="none" stroke="black" points="1323.5,-25 1323.5,-66 1445.5,-66 1445.5,-25 1323.5,-25"/>
<text text-anchor="start" x="1331.5" y="-54" font-family="Helvetica,sans-Serif" font-size="10.00">wmtk::autogen::tri</text>
<text text-anchor="start" x="1331.5" y="-43" font-family="Helvetica,sans-Serif" font-size="10.00">_mesh::local_id_table</text>
<text text-anchor="middle" x="1384.5" y="-32" font-family="Helvetica,sans-Serif" font-size="10.00">_offset</text>
</a>
</g>
</g>
<!-- Node20&#45;&gt;Node21 -->
<g id="edge23" class="edge">
<title>Node20&#45;&gt;Node21</title>
<path fill="none" stroke="midnightblue" d="M1249.55,-79.33C1269.82,-74.21 1292.63,-68.45 1313.59,-63.16"/>
<polygon fill="midnightblue" stroke="midnightblue" points="1314.56,-66.52 1323.4,-60.68 1312.84,-59.74 1314.56,-66.52"/>
</g>
<!-- Node22 -->
<g id="node22" class="node">
<title>Node22</title>
<g id="a_node22"><a xlink:href="classwmtk_1_1utils_1_1_tuple_inspector.html#a3a04acf16e0eff80ade8e0fb8753ac1b" target="_top" xlink:title=" ">
<polygon fill="none" stroke="black" points="1497,-55.5 1497,-85.5 1645,-85.5 1645,-55.5 1497,-55.5"/>
<text text-anchor="start" x="1505" y="-73.5" font-family="Helvetica,sans-Serif" font-size="10.00">wmtk::utils::TupleInspector</text>
<text text-anchor="middle" x="1571" y="-62.5" font-family="Helvetica,sans-Serif" font-size="10.00">::local_eid</text>
</a>
</g>
</g>
<!-- Node21&#45;&gt;Node22 -->
<g id="edge24" class="edge">
<title>Node21&#45;&gt;Node22</title>
<path fill="none" stroke="midnightblue" d="M1445.66,-53.65C1458.77,-55.43 1472.88,-57.34 1486.71,-59.21"/>
<polygon fill="midnightblue" stroke="midnightblue" points="1486.34,-62.7 1496.72,-60.57 1487.28,-55.76 1486.34,-62.7"/>
</g>
<!-- Node23 -->
<g id="node23" class="node">
<title>Node23</title>
<g id="a_node23"><a xlink:href="classwmtk_1_1utils_1_1_tuple_inspector.html#a92f5faa08a7f78424f5cd1ec79dcedbb" target="_top" xlink:title=" ">
<polygon fill="none" stroke="black" points="1497,-6.5 1497,-36.5 1645,-36.5 1645,-6.5 1497,-6.5"/>
<text text-anchor="start" x="1505" y="-24.5" font-family="Helvetica,sans-Serif" font-size="10.00">wmtk::utils::TupleInspector</text>
<text text-anchor="middle" x="1571" y="-13.5" font-family="Helvetica,sans-Serif" font-size="10.00">::local_vid</text>
</a>
</g>
</g>
<!-- Node21&#45;&gt;Node23 -->
<g id="edge25" class="edge">
<title>Node21&#45;&gt;Node23</title>
<path fill="none" stroke="midnightblue" d="M1445.66,-37.67C1458.77,-35.97 1472.88,-34.13 1486.71,-32.33"/>
<polygon fill="midnightblue" stroke="midnightblue" points="1487.25,-35.79 1496.72,-31.03 1486.35,-28.85 1487.25,-35.79"/>
</g>
<!-- Node24&#45;&gt;Node2 -->
<g id="edge27" class="edge">
<title>Node24&#45;&gt;Node2</title>
<path fill="none" stroke="midnightblue" d="M336.97,-149.54C362.1,-154.9 389.99,-160.85 413.56,-165.88"/>
<polygon fill="midnightblue" stroke="midnightblue" points="412.87,-169.31 423.38,-167.98 414.33,-162.47 412.87,-169.31"/>
</g>
<!-- Node25 -->
<g id="node25" class="node">
<title>Node25</title>
<g id="a_node25"><a xlink:href="classwmtk_1_1_tri_mesh.html#a79010f8baac63245558c846aafea10d0" target="_top" xlink:title=" ">
<polygon fill="none" stroke="black" points="391.5,-126 391.5,-145 546.5,-145 546.5,-126 391.5,-126"/>
<text text-anchor="middle" x="469" y="-133" font-family="Helvetica,sans-Serif" font-size="10.00">wmtk::TriMesh::switch_edge</text>
</a>
</g>
</g>
<!-- Node24&#45;&gt;Node25 -->
<g id="edge28" class="edge">
<title>Node24&#45;&gt;Node25</title>
<path fill="none" stroke="midnightblue" d="M342.1,-134.88C354.79,-134.94 368.05,-135 381,-135.07"/>
<polygon fill="midnightblue" stroke="midnightblue" points="381.28,-138.57 391.3,-135.12 381.32,-131.57 381.28,-138.57"/>
</g>
<!-- Node31 -->
<g id="node31" class="node">
<title>Node31</title>
<g id="a_node31"><a xlink:href="classwmtk_1_1_tri_mesh.html#a0ecb0fd199e840ff9f3d206abc10a64b" target="_top" xlink:title=" ">
<polygon fill="none" stroke="black" points="393,-88 393,-107 545,-107 545,-88 393,-88"/>
<text text-anchor="middle" x="469" y="-95" font-family="Helvetica,sans-Serif" font-size="10.00">wmtk::TriMesh::switch_face</text>
</a>
</g>
</g>
<!-- Node24&#45;&gt;Node31 -->
<g id="edge40" class="edge">
<title>Node24&#45;&gt;Node31</title>
<path fill="none" stroke="midnightblue" d="M342.1,-120.62C363.22,-116.74 385.9,-112.57 406.12,-108.86"/>
<polygon fill="midnightblue" stroke="midnightblue" points="406.94,-112.27 416.14,-107.02 405.67,-105.39 406.94,-112.27"/>
</g>
<!-- Node26 -->
<g id="node26" class="node">
<title>Node26</title>
<g id="a_node26"><a xlink:href="classwmtk_1_1_tri_mesh.html#a17b808a46d1a31efc12d555e6721bd02" target="_top" xlink:title="switch the orientation of the Tuple of the given dimension">
<polygon fill="none" stroke="black" points="596,-85.5 596,-115.5 721,-115.5 721,-85.5 596,-85.5"/>
<text text-anchor="start" x="604" y="-103.5" font-family="Helvetica,sans-Serif" font-size="10.00">wmtk::TriMesh::switch</text>
<text text-anchor="middle" x="658.5" y="-92.5" font-family="Helvetica,sans-Serif" font-size="10.00">_tuple</text>
</a>
</g>
</g>
<!-- Node25&#45;&gt;Node26 -->
<g id="edge29" class="edge">
<title>Node25&#45;&gt;Node26</title>
<path fill="none" stroke="midnightblue" d="M521.24,-125.94C541.17,-122.21 564.37,-117.89 585.9,-113.86"/>
<polygon fill="midnightblue" stroke="midnightblue" points="586.8,-117.26 595.99,-111.98 585.52,-110.38 586.8,-117.26"/>
</g>
<!-- Node26&#45;&gt;Node3 -->
<g id="edge37" class="edge">
<title>Node26&#45;&gt;Node3</title>
<path fill="none" stroke="midnightblue" d="M721.05,-113.56C732.96,-115.97 745.35,-118.38 757,-120.5 814.08,-130.88 878.91,-141.12 927.62,-148.49"/>
<polygon fill="midnightblue" stroke="midnightblue" points="927.34,-151.99 937.75,-150.02 928.39,-145.07 927.34,-151.99"/>
</g>
<!-- Node27 -->
<g id="node27" class="node">
<title>Node27</title>
<g id="a_node27"><a xlink:href="classwmtk_1_1_tri_mesh.html#a9975c25ed665c9c9a7f1ae92818a1b7c" target="_top" xlink:title=" ">
<polygon fill="none" stroke="black" points="952,-112 952,-131 1055,-131 1055,-112 952,-112"/>
<text text-anchor="middle" x="1003.5" y="-119" font-family="Helvetica,sans-Serif" font-size="10.00">wmtk::TriMesh::id</text>
</a>
</g>
</g>
<!-- Node26&#45;&gt;Node27 -->
<g id="edge30" class="edge">
<title>Node26&#45;&gt;Node27</title>
<path fill="none" stroke="midnightblue" d="M720.68,-85.47C770.26,-75.78 841.56,-67.53 902,-82.5 919.56,-86.85 921.29,-94.57 938,-101.5 944.33,-104.13 951.13,-106.59 957.86,-108.84"/>
<polygon fill="midnightblue" stroke="midnightblue" points="957.01,-112.25 967.6,-111.97 959.15,-105.58 957.01,-112.25"/>
</g>
<!-- Node28 -->
<g id="node28" class="node">
<title>Node28</title>
<g id="a_node28"><a xlink:href="classwmtk_1_1_tri_mesh.html#accbde91fccacdfdfd997e20d9ee9eb22" target="_top" xlink:title="TODO this needs dimension?">
<polygon fill="none" stroke="black" points="766.5,-92 766.5,-111 892.5,-111 892.5,-92 766.5,-92"/>
<text text-anchor="middle" x="829.5" y="-99" font-family="Helvetica,sans-Serif" font-size="10.00">wmtk::TriMesh::is_ccw</text>
</a>
</g>
</g>
<!-- Node26&#45;&gt;Node28 -->
<g id="edge32" class="edge">
<title>Node26&#45;&gt;Node28</title>
<path fill="none" stroke="midnightblue" d="M721.47,-100.87C732.76,-100.93 744.64,-101 756.2,-101.07"/>
<polygon fill="midnightblue" stroke="midnightblue" points="756.23,-104.57 766.26,-101.13 756.28,-97.57 756.23,-104.57"/>
</g>
<!-- Node30 -->
<g id="node30" class="node">
<title>Node30</title>
<g id="a_node30"><a xlink:href="namespacewmtk_1_1autogen_1_1tri__mesh.html#a91e6b348f528d93ad6d9031bae1480da" target="_top" xlink:title=" ">
<polygon fill="none" stroke="black" points="757,-0.5 757,-30.5 902,-30.5 902,-0.5 757,-0.5"/>
<text text-anchor="start" x="765" y="-18.5" font-family="Helvetica,sans-Serif" font-size="10.00">wmtk::autogen::tri</text>
<text text-anchor="middle" x="829.5" y="-7.5" font-family="Helvetica,sans-Serif" font-size="10.00">_mesh::local_switch_tuple</text>
</a>
</g>
</g>
<!-- Node26&#45;&gt;Node30 -->
<g id="edge38" class="edge">
<title>Node26&#45;&gt;Node30</title>
<path fill="none" stroke="midnightblue" d="M687.51,-85.49C706.92,-75.17 733.41,-61.27 757,-49.5 766.6,-44.71 776.99,-39.68 786.8,-35"/>
<polygon fill="midnightblue" stroke="midnightblue" points="788.45,-38.09 795.98,-30.64 785.45,-31.77 788.45,-38.09"/>
</g>
<!-- Node27&#45;&gt;Node17 -->
<g id="edge31" class="edge">
<title>Node27&#45;&gt;Node17</title>
<path fill="none" stroke="midnightblue" d="M1055.48,-127.63C1074.93,-129.97 1097.44,-132.67 1118.3,-135.18"/>
<polygon fill="midnightblue" stroke="midnightblue" points="1118.04,-138.68 1128.39,-136.39 1118.88,-131.73 1118.04,-138.68"/>
</g>
<!-- Node28&#45;&gt;Node3 -->
<g id="edge36" class="edge">
<title>Node28&#45;&gt;Node3</title>
<path fill="none" stroke="midnightblue" d="M860.58,-111.07C873.42,-115.29 888.52,-120.44 902,-125.5 918.23,-131.6 921.66,-134.71 938,-140.5 944.36,-142.75 951.13,-144.96 957.81,-147.02"/>
<polygon fill="midnightblue" stroke="midnightblue" points="956.88,-150.4 967.46,-149.93 958.9,-143.69 956.88,-150.4"/>
</g>
<!-- Node29 -->
<g id="node29" class="node">
<title>Node29</title>
<g id="a_node29"><a xlink:href="namespacewmtk_1_1autogen_1_1tri__mesh.html#aaab85f5120a223c29bae0881cd7f2c87" target="_top" xlink:title=" ">
<polygon fill="none" stroke="black" points="950,-62.5 950,-92.5 1057,-92.5 1057,-62.5 950,-62.5"/>
<text text-anchor="start" x="958" y="-80.5" font-family="Helvetica,sans-Serif" font-size="10.00">wmtk::autogen::tri</text>
<text text-anchor="middle" x="1003.5" y="-69.5" font-family="Helvetica,sans-Serif" font-size="10.00">_mesh::is_ccw</text>
</a>
</g>
</g>
<!-- Node28&#45;&gt;Node29 -->
<g id="edge33" class="edge">
<title>Node28&#45;&gt;Node29</title>
<path fill="none" stroke="midnightblue" d="M892.6,-92.84C907.99,-90.69 924.49,-88.39 939.91,-86.23"/>
<polygon fill="midnightblue" stroke="midnightblue" points="940.44,-89.69 949.86,-84.85 939.47,-82.76 940.44,-89.69"/>
</g>
<!-- Node29&#45;&gt;Node20 -->
<g id="edge35" class="edge">
<title>Node29&#45;&gt;Node20</title>
<path fill="none" stroke="midnightblue" d="M1057.43,-82.42C1076.04,-84.15 1097.25,-86.12 1117.07,-87.96"/>
<polygon fill="midnightblue" stroke="midnightblue" points="1117,-91.47 1127.28,-88.91 1117.65,-84.5 1117,-91.47"/>
</g>
<!-- Node29&#45;&gt;Node21 -->
<g id="edge34" class="edge">
<title>Node29&#45;&gt;Node21</title>
<path fill="none" stroke="midnightblue" d="M1057.11,-70.08C1072.52,-68.08 1089.42,-66.04 1105,-64.5 1175.71,-57.52 1256.79,-52.3 1313.15,-49.12"/>
<polygon fill="midnightblue" stroke="midnightblue" points="1313.59,-52.6 1323.38,-48.55 1313.2,-45.61 1313.59,-52.6"/>
</g>
<!-- Node30&#45;&gt;Node21 -->
<g id="edge39" class="edge">
<title>Node30&#45;&gt;Node21</title>
<path fill="none" stroke="midnightblue" d="M902.23,-19.39C1008.71,-25.17 1207.38,-35.95 1313.09,-41.68"/>
<polygon fill="midnightblue" stroke="midnightblue" points="1313.16,-45.19 1323.34,-42.24 1313.54,-38.2 1313.16,-45.19"/>
</g>
<!-- Node31&#45;&gt;Node26 -->
<g id="edge41" class="edge">
<title>Node31&#45;&gt;Node26</title>
<path fill="none" stroke="midnightblue" d="M545.18,-98.7C558.58,-98.92 572.5,-99.14 585.8,-99.35"/>
<polygon fill="midnightblue" stroke="midnightblue" points="585.77,-102.85 595.82,-99.51 585.88,-95.85 585.77,-102.85"/>
</g>
</g>
</svg>
