<?xml version="1.0" encoding="UTF-8" standalone="no"?>
<!DOCTYPE svg PUBLIC "-//W3C//DTD SVG 1.1//EN"
 "http://www.w3.org/Graphics/SVG/1.1/DTD/svg11.dtd">
<!-- Generated by graphviz version 2.43.0 (0)
 -->
<!-- Title: wmtk::Mesh::switch_tuples Pages: 1 -->
<svg width="1139pt" height="596pt"
 viewBox="0.00 0.00 1139.00 596.00" xmlns="http://www.w3.org/2000/svg" xmlns:xlink="http://www.w3.org/1999/xlink">
<g id="graph0" class="graph" transform="scale(1 1) rotate(0) translate(4 592)">
<title>wmtk::Mesh::switch_tuples</title>
<!-- Node1 -->
<g id="node1" class="node">
<title>Node1</title>
<g id="a_node1"><a xlink:title=" ">
<polygon fill="#bfbfbf" stroke="black" points="1017,-132 1017,-162 1131,-162 1131,-132 1017,-132"/>
<text text-anchor="start" x="1025" y="-150" font-family="Helvetica,sans-Serif" font-size="10.00">wmtk::Mesh::switch</text>
<text text-anchor="middle" x="1074" y="-139" font-family="Helvetica,sans-Serif" font-size="10.00">_tuples</text>
</a>
</g>
</g>
<!-- Node2 -->
<g id="node2" class="node">
<title>Node2</title>
<g id="a_node2"><a xlink:href="namespacewmtk_1_1simplex.html#a0a7bcc4e583f5b70e55c1b30c9579db0" target="_top" xlink:title=" ">
<polygon fill="none" stroke="black" points="831,-311 831,-341 972,-341 972,-311 831,-311"/>
<text text-anchor="start" x="839" y="-329" font-family="Helvetica,sans-Serif" font-size="10.00">wmtk::simplex::boundary</text>
<text text-anchor="middle" x="901.5" y="-318" font-family="Helvetica,sans-Serif" font-size="10.00">_tuples</text>
</a>
</g>
</g>
<!-- Node1&#45;&gt;Node2 -->
<g id="edge1" class="edge">
<title>Node1&#45;&gt;Node2</title>
<path fill="none" stroke="midnightblue" d="M1059.54,-171.33C1043.42,-198.97 1014.38,-244.33 981,-276 966.47,-289.79 947.59,-301.95 932,-310.83"/>
<polygon fill="midnightblue" stroke="midnightblue" points="1062.75,-172.76 1064.68,-162.35 1056.68,-169.28 1062.75,-172.76"/>
</g>
<!-- Node5 -->
<g id="node5" class="node">
<title>Node5</title>
<g id="a_node5"><a xlink:href="namespacewmtk_1_1simplex_1_1internal.html#af3c31556d0dcfb8f9c4419470784a150" target="_top" xlink:title="Returns the boundary of a simplex ignoring some sorts of switches.">
<polygon fill="none" stroke="black" points="827,-225.5 827,-266.5 976,-266.5 976,-225.5 827,-225.5"/>
<text text-anchor="start" x="835" y="-254.5" font-family="Helvetica,sans-Serif" font-size="10.00">wmtk::simplex::internal</text>
<text text-anchor="start" x="835" y="-243.5" font-family="Helvetica,sans-Serif" font-size="10.00">::boundary_with_preserved</text>
<text text-anchor="middle" x="901.5" y="-232.5" font-family="Helvetica,sans-Serif" font-size="10.00">_face_tuples</text>
</a>
</g>
</g>
<!-- Node1&#45;&gt;Node5 -->
<g id="edge4" class="edge">
<title>Node1&#45;&gt;Node5</title>
<path fill="none" stroke="midnightblue" d="M1047.46,-168.71C1029.65,-183.12 1004.88,-201.76 981,-215 974.34,-218.7 967.14,-222.17 959.91,-225.36"/>
<polygon fill="midnightblue" stroke="midnightblue" points="1050.11,-171.07 1055.62,-162.01 1045.67,-165.66 1050.11,-171.07"/>
</g>
<!-- Node27 -->
<g id="node27" class="node">
<title>Node27</title>
<g id="a_node27"><a xlink:href="classwmtk_1_1operations_1_1composite_1_1_tet_face_swap.html#a31cbdc65275c3680519e077a22f0f47e" target="_top" xlink:title="returns an empty vector in case of failure">
<polygon fill="none" stroke="black" points="822,-176 822,-206 981,-206 981,-176 822,-176"/>
<text text-anchor="start" x="830" y="-194" font-family="Helvetica,sans-Serif" font-size="10.00">wmtk::operations::composite</text>
<text text-anchor="middle" x="901.5" y="-183" font-family="Helvetica,sans-Serif" font-size="10.00">::TetFaceSwap::execute</text>
</a>
</g>
</g>
<!-- Node1&#45;&gt;Node27 -->
<g id="edge28" class="edge">
<title>Node1&#45;&gt;Node27</title>
<path fill="none" stroke="midnightblue" d="M1006.86,-164.07C991.67,-167.99 975.62,-172.13 960.79,-175.96"/>
<polygon fill="midnightblue" stroke="midnightblue" points="1007.89,-167.42 1016.7,-161.53 1006.14,-160.64 1007.89,-167.42"/>
</g>
<!-- Node28 -->
<g id="node28" class="node">
<title>Node28</title>
<g id="a_node28"><a xlink:href="namespacewmtk_1_1simplex.html#a7787f1abe16a9b57db117d6fd53b59d9" target="_top" xlink:title=" ">
<polygon fill="none" stroke="black" points="845,-137.5 845,-156.5 958,-156.5 958,-137.5 845,-137.5"/>
<text text-anchor="middle" x="901.5" y="-144.5" font-family="Helvetica,sans-Serif" font-size="10.00">wmtk::simplex::link</text>
</a>
</g>
</g>
<!-- Node1&#45;&gt;Node28 -->
<g id="edge29" class="edge">
<title>Node1&#45;&gt;Node28</title>
<path fill="none" stroke="midnightblue" d="M1006.37,-147C990.42,-147 973.56,-147 958.16,-147"/>
<polygon fill="midnightblue" stroke="midnightblue" points="1006.7,-150.5 1016.7,-147 1006.7,-143.5 1006.7,-150.5"/>
</g>
<!-- Node29 -->
<g id="node29" class="node">
<title>Node29</title>
<g id="a_node29"><a xlink:href="namespacewmtk_1_1simplex.html#acbee6808a498fd9280738a12e051c2c0" target="_top" xlink:title=" ">
<polygon fill="none" stroke="black" points="845,-88 845,-118 958,-118 958,-88 845,-88"/>
<text text-anchor="start" x="853" y="-106" font-family="Helvetica,sans-Serif" font-size="10.00">wmtk::simplex::link</text>
<text text-anchor="middle" x="901.5" y="-95" font-family="Helvetica,sans-Serif" font-size="10.00">_single_dimension</text>
</a>
</g>
</g>
<!-- Node1&#45;&gt;Node29 -->
<g id="edge30" class="edge">
<title>Node1&#45;&gt;Node29</title>
<path fill="none" stroke="midnightblue" d="M1006.83,-129.92C990.74,-125.77 973.7,-121.37 958.16,-117.36"/>
<polygon fill="midnightblue" stroke="midnightblue" points="1006.14,-133.36 1016.7,-132.47 1007.89,-126.58 1006.14,-133.36"/>
</g>
<!-- Node30 -->
<g id="node30" class="node">
<title>Node30</title>
<g id="a_node30"><a xlink:href="classwmtk_1_1operations_1_1_edge_split.html#ac8ebd02932d6f6d211ba9771d0524c4a" target="_top" xlink:title=" ">
<polygon fill="none" stroke="black" points="824.5,-39 824.5,-69 978.5,-69 978.5,-39 824.5,-39"/>
<text text-anchor="start" x="832.5" y="-57" font-family="Helvetica,sans-Serif" font-size="10.00">wmtk::operations::EdgeSplit</text>
<text text-anchor="middle" x="901.5" y="-46" font-family="Helvetica,sans-Serif" font-size="10.00">::new_spine_edges</text>
</a>
</g>
</g>
<!-- Node1&#45;&gt;Node30 -->
<g id="edge31" class="edge">
<title>Node1&#45;&gt;Node30</title>
<path fill="none" stroke="midnightblue" d="M1048.98,-125.29C1031.27,-110.25 1006.01,-90.71 981,-78 974.39,-74.64 967.23,-71.66 960.01,-69.04"/>
<polygon fill="midnightblue" stroke="midnightblue" points="1046.71,-127.95 1056.56,-131.85 1051.29,-122.66 1046.71,-127.95"/>
</g>
<!-- Node31 -->
<g id="node31" class="node">
<title>Node31</title>
<g id="a_node31"><a xlink:href="namespacewmtk_1_1simplex.html#ae52e68a7ebacf23d85b0b15c1565dd5a" target="_top" xlink:title=" ">
<polygon fill="none" stroke="black" points="830,-0.5 830,-19.5 973,-19.5 973,-0.5 830,-0.5"/>
<text text-anchor="middle" x="901.5" y="-7.5" font-family="Helvetica,sans-Serif" font-size="10.00">wmtk::simplex::open_star</text>
</a>
</g>
</g>
<!-- Node1&#45;&gt;Node31 -->
<g id="edge32" class="edge">
<title>Node1&#45;&gt;Node31</title>
<path fill="none" stroke="midnightblue" d="M1060.67,-122.79C1045.59,-95.71 1017.51,-52.56 981,-29 974.99,-25.12 968.26,-22.04 961.34,-19.58"/>
<polygon fill="midnightblue" stroke="midnightblue" points="1057.61,-124.51 1065.45,-131.64 1063.77,-121.18 1057.61,-124.51"/>
</g>
<!-- Node3 -->
<g id="node3" class="node">
<title>Node3</title>
<g id="a_node3"><a xlink:href="namespacewmtk_1_1simplex.html#a11ece8e530ba53cc9aced240dc41530d" target="_top" xlink:title="Returns all boundary simplices of a simplex.">
<polygon fill="none" stroke="black" points="641,-316.5 641,-335.5 782,-335.5 782,-316.5 641,-316.5"/>
<text text-anchor="middle" x="711.5" y="-323.5" font-family="Helvetica,sans-Serif" font-size="10.00">wmtk::simplex::boundary</text>
</a>
</g>
</g>
<!-- Node2&#45;&gt;Node3 -->
<g id="edge2" class="edge">
<title>Node2&#45;&gt;Node3</title>
<path fill="none" stroke="midnightblue" d="M820.6,-326C807.8,-326 794.65,-326 782.12,-326"/>
<polygon fill="midnightblue" stroke="midnightblue" points="820.76,-329.5 830.76,-326 820.76,-322.5 820.76,-329.5"/>
</g>
<!-- Node4 -->
<g id="node4" class="node">
<title>Node4</title>
<g id="a_node4"><a xlink:href="namespacewmtk_1_1simplex.html#ad081afa47b9c9bf5428eb5c4333f76f3" target="_top" xlink:title=" ">
<polygon fill="none" stroke="black" points="641,-355 641,-385 782,-385 782,-355 641,-355"/>
<text text-anchor="start" x="649" y="-373" font-family="Helvetica,sans-Serif" font-size="10.00">wmtk::simplex::boundary</text>
<text text-anchor="middle" x="711.5" y="-362" font-family="Helvetica,sans-Serif" font-size="10.00">_tuples</text>
</a>
</g>
</g>
<!-- Node2&#45;&gt;Node4 -->
<g id="edge3" class="edge">
<title>Node2&#45;&gt;Node4</title>
<path fill="none" stroke="midnightblue" d="M826.25,-343.38C809.87,-347.21 792.65,-351.24 776.7,-354.97"/>
<polygon fill="midnightblue" stroke="midnightblue" points="827.39,-346.71 836.33,-341.02 825.79,-339.89 827.39,-346.71"/>
</g>
<!-- Node6 -->
<g id="node6" class="node">
<title>Node6</title>
<g id="a_node6"><a xlink:href="namespacewmtk_1_1simplex_1_1internal.html#a5f48742895cafb76dffc5d5a456f561c" target="_top" xlink:title="Returns the boundary of a simplex ignoring some sorts of switches.">
<polygon fill="none" stroke="black" points="637,-124.5 637,-165.5 786,-165.5 786,-124.5 637,-124.5"/>
<text text-anchor="start" x="645" y="-153.5" font-family="Helvetica,sans-Serif" font-size="10.00">wmtk::simplex::internal</text>
<text text-anchor="start" x="645" y="-142.5" font-family="Helvetica,sans-Serif" font-size="10.00">::boundary_with_preserved</text>
<text text-anchor="middle" x="711.5" y="-131.5" font-family="Helvetica,sans-Serif" font-size="10.00">_face_simplices</text>
</a>
</g>
</g>
<!-- Node5&#45;&gt;Node6 -->
<g id="edge5" class="edge">
<title>Node5&#45;&gt;Node6</title>
<path fill="none" stroke="midnightblue" d="M835.24,-221.36C830.71,-219.3 826.26,-217.18 822,-215 793.47,-200.42 762.9,-180.48 741.33,-165.61"/>
<polygon fill="midnightblue" stroke="midnightblue" points="834.02,-224.65 844.58,-225.46 836.83,-218.24 834.02,-224.65"/>
</g>
<!-- Node8 -->
<g id="node8" class="node">
<title>Node8</title>
<g id="a_node8"><a xlink:href="namespacewmtk_1_1simplex_1_1internal.html#ab92b89cf565b6671fb1e18378c2c45ca" target="_top" xlink:title="Given a simplex and one of its faces, returns.">
<polygon fill="none" stroke="black" points="637,-256.5 637,-297.5 786,-297.5 786,-256.5 637,-256.5"/>
<text text-anchor="start" x="645" y="-285.5" font-family="Helvetica,sans-Serif" font-size="10.00">wmtk::simplex::internal</text>
<text text-anchor="start" x="645" y="-274.5" font-family="Helvetica,sans-Serif" font-size="10.00">::boundary_with_preserved</text>
<text text-anchor="middle" x="711.5" y="-263.5" font-family="Helvetica,sans-Serif" font-size="10.00">_face_tuples</text>
</a>
</g>
</g>
<!-- Node5&#45;&gt;Node8 -->
<g id="edge7" class="edge">
<title>Node5&#45;&gt;Node8</title>
<path fill="none" stroke="midnightblue" d="M816.62,-259.83C806.43,-261.51 796.08,-263.22 786.05,-264.87"/>
<polygon fill="midnightblue" stroke="midnightblue" points="817.44,-263.24 826.74,-258.16 816.3,-256.34 817.44,-263.24"/>
</g>
<!-- Node9 -->
<g id="node9" class="node">
<title>Node9</title>
<g id="a_node9"><a xlink:href="namespacewmtk_1_1simplex.html#abee08ace6632fab4e958282840e65e43" target="_top" xlink:title=" ">
<polygon fill="none" stroke="black" points="640,-207 640,-237 783,-237 783,-207 640,-207"/>
<text text-anchor="start" x="648" y="-225" font-family="Helvetica,sans-Serif" font-size="10.00">wmtk::simplex::cofaces</text>
<text text-anchor="middle" x="711.5" y="-214" font-family="Helvetica,sans-Serif" font-size="10.00">_single_dimension_tuples</text>
</a>
</g>
</g>
<!-- Node5&#45;&gt;Node9 -->
<g id="edge8" class="edge">
<title>Node5&#45;&gt;Node9</title>
<path fill="none" stroke="midnightblue" d="M816.59,-235.29C805.47,-233.87 794.16,-232.42 783.28,-231.04"/>
<polygon fill="midnightblue" stroke="midnightblue" points="816.37,-238.79 826.74,-236.58 817.26,-231.85 816.37,-238.79"/>
</g>
<!-- Node7 -->
<g id="node7" class="node">
<title>Node7</title>
<g id="a_node7"><a xlink:href="namespacewmtk_1_1simplex_1_1internal.html#a79e56c4a28bee846e3eadeb8031c3091" target="_top" xlink:title="Given a simplex and one of its faces, returns.">
<polygon fill="none" stroke="black" points="434,-102.5 434,-143.5 583,-143.5 583,-102.5 434,-102.5"/>
<text text-anchor="start" x="442" y="-131.5" font-family="Helvetica,sans-Serif" font-size="10.00">wmtk::simplex::internal</text>
<text text-anchor="start" x="442" y="-120.5" font-family="Helvetica,sans-Serif" font-size="10.00">::boundary_with_preserved</text>
<text text-anchor="middle" x="508.5" y="-109.5" font-family="Helvetica,sans-Serif" font-size="10.00">_face_simplices</text>
</a>
</g>
</g>
<!-- Node6&#45;&gt;Node7 -->
<g id="edge6" class="edge">
<title>Node6&#45;&gt;Node7</title>
<path fill="none" stroke="midnightblue" d="M626.44,-135.8C612.08,-134.23 597.26,-132.61 583.19,-131.07"/>
<polygon fill="midnightblue" stroke="midnightblue" points="626.47,-139.32 636.8,-136.93 627.24,-132.37 626.47,-139.32"/>
</g>
<!-- Node10 -->
<g id="node10" class="node">
<title>Node10</title>
<g id="a_node10"><a xlink:href="namespacewmtk_1_1simplex.html#a996a48358d73e378978c6d5827cb3212" target="_top" xlink:title=" ">
<polygon fill="none" stroke="black" points="429,-284 429,-314 588,-314 588,-284 429,-284"/>
<text text-anchor="start" x="437" y="-302" font-family="Helvetica,sans-Serif" font-size="10.00">wmtk::simplex::cofaces</text>
<text text-anchor="middle" x="508.5" y="-291" font-family="Helvetica,sans-Serif" font-size="10.00">_single_dimension_simplices</text>
</a>
</g>
</g>
<!-- Node9&#45;&gt;Node10 -->
<g id="edge9" class="edge">
<title>Node9&#45;&gt;Node10</title>
<path fill="none" stroke="midnightblue" d="M655.23,-240.4C649.06,-242.58 642.88,-244.8 637,-247 605.54,-258.76 570.2,-273.27 544.73,-283.97"/>
<polygon fill="midnightblue" stroke="midnightblue" points="656.57,-243.64 664.87,-237.05 654.27,-237.03 656.57,-243.64"/>
</g>
<!-- Node19 -->
<g id="node19" class="node">
<title>Node19</title>
<g id="a_node19"><a xlink:href="classwmtk_1_1_tet_mesh.html#a5eb060aa0a69f3ce5108fe199decc578" target="_top" xlink:title=" ">
<polygon fill="none" stroke="black" points="416,-212.5 416,-231.5 601,-231.5 601,-212.5 416,-212.5"/>
<text text-anchor="middle" x="508.5" y="-219.5" font-family="Helvetica,sans-Serif" font-size="10.00">wmtk::TetMesh::is_boundary_edge</text>
</a>
</g>
</g>
<!-- Node9&#45;&gt;Node19 -->
<g id="edge18" class="edge">
<title>Node9&#45;&gt;Node19</title>
<path fill="none" stroke="midnightblue" d="M629.78,-222C620.34,-222 610.66,-222 601.08,-222"/>
<polygon fill="midnightblue" stroke="midnightblue" points="629.92,-225.5 639.92,-222 629.92,-218.5 629.92,-225.5"/>
</g>
<!-- Node21 -->
<g id="node21" class="node">
<title>Node21</title>
<g id="a_node21"><a xlink:href="classwmtk_1_1_multi_mesh_manager.html#a59c27b04f1cd6dcceebb9095b73e7eb5" target="_top" xlink:title=" ">
<polygon fill="none" stroke="black" points="436.5,-163 436.5,-193 580.5,-193 580.5,-163 436.5,-163"/>
<text text-anchor="start" x="444.5" y="-181" font-family="Helvetica,sans-Serif" font-size="10.00">wmtk::MultiMeshManager</text>
<text text-anchor="middle" x="508.5" y="-170" font-family="Helvetica,sans-Serif" font-size="10.00">::map_to_child_tuples</text>
</a>
</g>
</g>
<!-- Node9&#45;&gt;Node21 -->
<g id="edge22" class="edge">
<title>Node9&#45;&gt;Node21</title>
<path fill="none" stroke="midnightblue" d="M632.11,-204.84C614.3,-200.94 595.51,-196.83 578.14,-193.03"/>
<polygon fill="midnightblue" stroke="midnightblue" points="631.37,-208.26 641.89,-206.98 632.87,-201.42 631.37,-208.26"/>
</g>
<!-- Node22 -->
<g id="node22" class="node">
<title>Node22</title>
<g id="a_node22"><a xlink:href="namespacewmtk_1_1simplex.html#a15e2b37cbcf34fa9fcd27d3449866254" target="_top" xlink:title=" ">
<polygon fill="none" stroke="black" points="437,-437 437,-467 580,-467 580,-437 437,-437"/>
<text text-anchor="start" x="445" y="-455" font-family="Helvetica,sans-Serif" font-size="10.00">wmtk::simplex::neighbors</text>
<text text-anchor="middle" x="508.5" y="-444" font-family="Helvetica,sans-Serif" font-size="10.00">_single_dimension_tuples</text>
</a>
</g>
</g>
<!-- Node9&#45;&gt;Node22 -->
<g id="edge23" class="edge">
<title>Node9&#45;&gt;Node22</title>
<path fill="none" stroke="midnightblue" d="M642.56,-242.59C640.62,-243.96 638.76,-245.43 637,-247 609.1,-271.87 619.88,-290.75 601,-323 575.75,-366.13 540.16,-413.13 521.69,-436.71"/>
<polygon fill="midnightblue" stroke="midnightblue" points="644.8,-245.31 651.51,-237.11 641.15,-239.34 644.8,-245.31"/>
</g>
<!-- Node11 -->
<g id="node11" class="node">
<title>Node11</title>
<g id="a_node11"><a xlink:href="classwmtk_1_1invariants_1_1_tet_mesh_substructure_topology_preserving_invariant.html#a30e554417dfffcaedce3a167b351173b" target="_top" xlink:title=" ">
<polygon fill="none" stroke="black" points="207,-278.5 207,-319.5 380,-319.5 380,-278.5 207,-278.5"/>
<text text-anchor="start" x="215" y="-307.5" font-family="Helvetica,sans-Serif" font-size="10.00">wmtk::invariants::TetMesh</text>
<text text-anchor="start" x="215" y="-296.5" font-family="Helvetica,sans-Serif" font-size="10.00">SubstructureTopologyPreserving</text>
<text text-anchor="middle" x="293.5" y="-285.5" font-family="Helvetica,sans-Serif" font-size="10.00">Invariant::before</text>
</a>
</g>
</g>
<!-- Node10&#45;&gt;Node11 -->
<g id="edge10" class="edge">
<title>Node10&#45;&gt;Node11</title>
<path fill="none" stroke="midnightblue" d="M418.64,-299C405.87,-299 392.75,-299 380.04,-299"/>
<polygon fill="midnightblue" stroke="midnightblue" points="418.79,-302.5 428.79,-299 418.79,-295.5 418.79,-302.5"/>
</g>
<!-- Node12 -->
<g id="node12" class="node">
<title>Node12</title>
<g id="a_node12"><a xlink:href="classwmtk_1_1invariants_1_1_tri_mesh_substructure_topology_preserving_invariant.html#a7bafc4a52c4d8cbfadee5edd24cbe01f" target="_top" xlink:title=" ">
<polygon fill="none" stroke="black" points="207,-218.5 207,-259.5 380,-259.5 380,-218.5 207,-218.5"/>
<text text-anchor="start" x="215" y="-247.5" font-family="Helvetica,sans-Serif" font-size="10.00">wmtk::invariants::TriMesh</text>
<text text-anchor="start" x="215" y="-236.5" font-family="Helvetica,sans-Serif" font-size="10.00">SubstructureTopologyPreserving</text>
<text text-anchor="middle" x="293.5" y="-225.5" font-family="Helvetica,sans-Serif" font-size="10.00">Invariant::before</text>
</a>
</g>
</g>
<!-- Node10&#45;&gt;Node12 -->
<g id="edge11" class="edge">
<title>Node10&#45;&gt;Node12</title>
<path fill="none" stroke="midnightblue" d="M444.25,-281.18C420.08,-274.37 392.32,-266.55 367.32,-259.51"/>
<polygon fill="midnightblue" stroke="midnightblue" points="443.45,-284.59 454.03,-283.94 445.35,-277.86 443.45,-284.59"/>
</g>
<!-- Node13 -->
<g id="node13" class="node">
<title>Node13</title>
<g id="a_node13"><a xlink:href="namespacewmtk_1_1simplex.html#add076bc746a4cfd29d4766bc1571f31d" target="_top" xlink:title=" ">
<polygon fill="none" stroke="black" points="227,-339 227,-369 360,-369 360,-339 227,-339"/>
<text text-anchor="start" x="235" y="-357" font-family="Helvetica,sans-Serif" font-size="10.00">wmtk::simplex::cofaces</text>
<text text-anchor="middle" x="293.5" y="-346" font-family="Helvetica,sans-Serif" font-size="10.00">_single_dimension</text>
</a>
</g>
</g>
<!-- Node10&#45;&gt;Node13 -->
<g id="edge12" class="edge">
<title>Node10&#45;&gt;Node13</title>
<path fill="none" stroke="midnightblue" d="M439.59,-316.54C411.6,-323.76 379.51,-332.05 352.63,-338.99"/>
<polygon fill="midnightblue" stroke="midnightblue" points="440.49,-319.92 449.3,-314.03 438.74,-313.14 440.49,-319.92"/>
</g>
<!-- Node15 -->
<g id="node15" class="node">
<title>Node15</title>
<g id="a_node15"><a xlink:href="classwmtk_1_1function_1_1_local_neighbors_sum_function.html#a9a8a406910f491899eaaa0c8e5b400c2" target="_top" xlink:title=" ">
<polygon fill="none" stroke="black" points="208,-388 208,-418 379,-418 379,-388 208,-388"/>
<text text-anchor="start" x="216" y="-406" font-family="Helvetica,sans-Serif" font-size="10.00">wmtk::function::LocalNeighbors</text>
<text text-anchor="middle" x="293.5" y="-395" font-family="Helvetica,sans-Serif" font-size="10.00">SumFunction::domain</text>
</a>
</g>
</g>
<!-- Node10&#45;&gt;Node15 -->
<g id="edge14" class="edge">
<title>Node10&#45;&gt;Node15</title>
<path fill="none" stroke="midnightblue" d="M478.51,-320.13C453.46,-337.61 415.74,-362.06 380,-378 371.67,-381.72 362.63,-385.05 353.67,-387.98"/>
<polygon fill="midnightblue" stroke="midnightblue" points="480.67,-322.89 486.82,-314.27 476.63,-317.18 480.67,-322.89"/>
</g>
<!-- Node14 -->
<g id="node14" class="node">
<title>Node14</title>
<g id="a_node14"><a xlink:href="namespacewmtk_1_1simplex.html#aead7bf4f261c58bdb33bd0bf7fcd541d" target="_top" xlink:title=" ">
<polygon fill="none" stroke="black" points="29,-175 29,-205 142,-205 142,-175 29,-175"/>
<text text-anchor="start" x="37" y="-193" font-family="Helvetica,sans-Serif" font-size="10.00">wmtk::simplex::link</text>
<text text-anchor="middle" x="85.5" y="-182" font-family="Helvetica,sans-Serif" font-size="10.00">_condition</text>
</a>
</g>
</g>
<!-- Node13&#45;&gt;Node14 -->
<g id="edge13" class="edge">
<title>Node13&#45;&gt;Node14</title>
<path fill="none" stroke="midnightblue" d="M217.53,-334.92C213.88,-333.11 210.35,-331.15 207,-329 155.12,-295.71 112.98,-233.61 95.38,-205.06"/>
<polygon fill="midnightblue" stroke="midnightblue" points="216.26,-338.18 226.82,-339.07 219.12,-331.79 216.26,-338.18"/>
</g>
<!-- Node16 -->
<g id="node16" class="node">
<title>Node16</title>
<g id="a_node16"><a xlink:href="classwmtk_1_1function_1_1_local_neighbors_sum_function.html#a8f4a1942d320c2d613d1af447738f1ea" target="_top" xlink:title="get_gradient collects the local neigh and call the gradient of m_function on all simplicies">
<polygon fill="none" stroke="black" points="0,-388 0,-418 171,-418 171,-388 0,-388"/>
<text text-anchor="start" x="8" y="-406" font-family="Helvetica,sans-Serif" font-size="10.00">wmtk::function::LocalNeighbors</text>
<text text-anchor="middle" x="85.5" y="-395" font-family="Helvetica,sans-Serif" font-size="10.00">SumFunction::get_gradient</text>
</a>
</g>
</g>
<!-- Node15&#45;&gt;Node16 -->
<g id="edge15" class="edge">
<title>Node15&#45;&gt;Node16</title>
<path fill="none" stroke="midnightblue" d="M197.55,-403C188.75,-403 179.88,-403 171.18,-403"/>
<polygon fill="midnightblue" stroke="midnightblue" points="197.82,-406.5 207.82,-403 197.82,-399.5 197.82,-406.5"/>
</g>
<!-- Node17 -->
<g id="node17" class="node">
<title>Node17</title>
<g id="a_node17"><a xlink:href="classwmtk_1_1function_1_1_local_neighbors_sum_function.html#a45bfd84c9f092364f449605199731442" target="_top" xlink:title="get_hessian evaluates the hessian of the function f(x) defined wrt the variable x.">
<polygon fill="none" stroke="black" points="0,-339 0,-369 171,-369 171,-339 0,-339"/>
<text text-anchor="start" x="8" y="-357" font-family="Helvetica,sans-Serif" font-size="10.00">wmtk::function::LocalNeighbors</text>
<text text-anchor="middle" x="85.5" y="-346" font-family="Helvetica,sans-Serif" font-size="10.00">SumFunction::get_hessian</text>
</a>
</g>
</g>
<!-- Node15&#45;&gt;Node17 -->
<g id="edge16" class="edge">
<title>Node15&#45;&gt;Node17</title>
<path fill="none" stroke="midnightblue" d="M219.33,-385.6C196.54,-380.18 171.62,-374.25 149.59,-369.01"/>
<polygon fill="midnightblue" stroke="midnightblue" points="218.75,-389.06 229.29,-387.97 220.37,-382.25 218.75,-389.06"/>
</g>
<!-- Node18 -->
<g id="node18" class="node">
<title>Node18</title>
<g id="a_node18"><a xlink:href="classwmtk_1_1function_1_1_local_neighbors_sum_function.html#a0b81383595fa81fb270266bb6cee71da" target="_top" xlink:title="collects the local neigh and call the same m_function on all simplicies">
<polygon fill="none" stroke="black" points="0,-437 0,-467 171,-467 171,-437 0,-437"/>
<text text-anchor="start" x="8" y="-455" font-family="Helvetica,sans-Serif" font-size="10.00">wmtk::function::LocalNeighbors</text>
<text text-anchor="middle" x="85.5" y="-444" font-family="Helvetica,sans-Serif" font-size="10.00">SumFunction::get_value</text>
</a>
</g>
</g>
<!-- Node15&#45;&gt;Node18 -->
<g id="edge17" class="edge">
<title>Node15&#45;&gt;Node18</title>
<path fill="none" stroke="midnightblue" d="M219.33,-420.4C196.54,-425.82 171.62,-431.75 149.59,-436.99"/>
<polygon fill="midnightblue" stroke="midnightblue" points="220.37,-423.75 229.29,-418.03 218.75,-416.94 220.37,-423.75"/>
</g>
<!-- Node19&#45;&gt;Node14 -->
<g id="edge21" class="edge">
<title>Node19&#45;&gt;Node14</title>
<path fill="none" stroke="midnightblue" d="M434.13,-209.42C427.86,-207.31 421.73,-204.86 416,-202 397.11,-192.57 399.79,-178.35 380,-171 298.26,-140.66 194.99,-159.24 135.27,-174.99"/>
<polygon fill="midnightblue" stroke="midnightblue" points="433.49,-212.88 444.07,-212.44 435.53,-206.18 433.49,-212.88"/>
</g>
<!-- Node20 -->
<g id="node20" class="node">
<title>Node20</title>
<g id="a_node20"><a xlink:href="classwmtk_1_1_tet_mesh.html#a4d9f4016fdd79930e161da787889bdf7" target="_top" xlink:title="check if a simplex (encoded as a tuple/primitive pair) lies on a boundary or not">
<polygon fill="none" stroke="black" points="215.5,-180.5 215.5,-199.5 371.5,-199.5 371.5,-180.5 215.5,-180.5"/>
<text text-anchor="middle" x="293.5" y="-187.5" font-family="Helvetica,sans-Serif" font-size="10.00">wmtk::TetMesh::is_boundary</text>
</a>
</g>
</g>
<!-- Node19&#45;&gt;Node20 -->
<g id="edge19" class="edge">
<title>Node19&#45;&gt;Node20</title>
<path fill="none" stroke="midnightblue" d="M434.1,-210.97C409.32,-207.25 381.89,-203.13 357.95,-199.53"/>
<polygon fill="midnightblue" stroke="midnightblue" points="433.76,-214.46 444.17,-212.49 434.8,-207.54 433.76,-214.46"/>
</g>
<!-- Node20&#45;&gt;Node14 -->
<g id="edge20" class="edge">
<title>Node20&#45;&gt;Node14</title>
<path fill="none" stroke="midnightblue" d="M205.13,-190C183.75,-190 161.45,-190 142.04,-190"/>
<polygon fill="midnightblue" stroke="midnightblue" points="205.21,-193.5 215.21,-190 205.21,-186.5 205.21,-193.5"/>
</g>
<!-- Node23 -->
<g id="node23" class="node">
<title>Node23</title>
<g id="a_node23"><a xlink:href="classwmtk_1_1operations_1_1_attribute_transfer_strategy_base.html#a6883c6416f61c4ee06588a86c3b8d731" target="_top" xlink:title=" ">
<polygon fill="none" stroke="black" points="218,-486.5 218,-527.5 369,-527.5 369,-486.5 218,-486.5"/>
<text text-anchor="start" x="226" y="-515.5" font-family="Helvetica,sans-Serif" font-size="10.00">wmtk::operations::Attribute</text>
<text text-anchor="start" x="226" y="-504.5" font-family="Helvetica,sans-Serif" font-size="10.00">TransferStrategyBase::get</text>
<text text-anchor="middle" x="293.5" y="-493.5" font-family="Helvetica,sans-Serif" font-size="10.00">_parent_simplices</text>
</a>
</g>
</g>
<!-- Node22&#45;&gt;Node23 -->
<g id="edge24" class="edge">
<title>Node22&#45;&gt;Node23</title>
<path fill="none" stroke="midnightblue" d="M439.52,-469.55C417.06,-475.35 391.97,-481.83 369.05,-487.75"/>
<polygon fill="midnightblue" stroke="midnightblue" points="440.49,-472.92 449.3,-467.03 438.74,-466.14 440.49,-472.92"/>
</g>
<!-- Node26 -->
<g id="node26" class="node">
<title>Node26</title>
<g id="a_node26"><a xlink:href="namespacewmtk_1_1simplex.html#a9cd714440f235fdd4df798e86dc2d597" target="_top" xlink:title=" ">
<polygon fill="none" stroke="black" points="222,-437 222,-467 365,-467 365,-437 222,-437"/>
<text text-anchor="start" x="230" y="-455" font-family="Helvetica,sans-Serif" font-size="10.00">wmtk::simplex::neighbors</text>
<text text-anchor="middle" x="293.5" y="-444" font-family="Helvetica,sans-Serif" font-size="10.00">_single_dimension</text>
</a>
</g>
</g>
<!-- Node22&#45;&gt;Node26 -->
<g id="edge27" class="edge">
<title>Node22&#45;&gt;Node26</title>
<path fill="none" stroke="midnightblue" d="M426.75,-452C406.53,-452 385,-452 365.3,-452"/>
<polygon fill="midnightblue" stroke="midnightblue" points="426.87,-455.5 436.87,-452 426.87,-448.5 426.87,-455.5"/>
</g>
<!-- Node24 -->
<g id="node24" class="node">
<title>Node24</title>
<g id="a_node24"><a xlink:href="classwmtk_1_1operations_1_1_attribute_transfer_strategy_base.html#aa5e03221c4b6b49e1892ed464d84c0cd" target="_top" xlink:title=" ">
<polygon fill="none" stroke="black" points="10,-546.5 10,-587.5 161,-587.5 161,-546.5 10,-546.5"/>
<text text-anchor="start" x="18" y="-575.5" font-family="Helvetica,sans-Serif" font-size="10.00">wmtk::operations::Attribute</text>
<text text-anchor="start" x="18" y="-564.5" font-family="Helvetica,sans-Serif" font-size="10.00">TransferStrategyBase::get</text>
<text text-anchor="middle" x="85.5" y="-553.5" font-family="Helvetica,sans-Serif" font-size="10.00">_parent_simplices</text>
</a>
</g>
</g>
<!-- Node23&#45;&gt;Node24 -->
<g id="edge25" class="edge">
<title>Node23&#45;&gt;Node24</title>
<path fill="none" stroke="midnightblue" d="M212.19,-530.39C193.98,-535.69 174.78,-541.29 157.01,-546.46"/>
<polygon fill="midnightblue" stroke="midnightblue" points="213.27,-533.72 221.89,-527.56 211.31,-527 213.27,-533.72"/>
</g>
<!-- Node25 -->
<g id="node25" class="node">
<title>Node25</title>
<g id="a_node25"><a xlink:href="classwmtk_1_1operations_1_1_single_attribute_transfer_strategy.html#aa5bf8a5fdf8527d9843f3f578c646b41" target="_top" xlink:title=" ">
<polygon fill="none" stroke="black" points="15.5,-486.5 15.5,-527.5 155.5,-527.5 155.5,-486.5 15.5,-486.5"/>
<text text-anchor="start" x="23.5" y="-515.5" font-family="Helvetica,sans-Serif" font-size="10.00">wmtk::operations::Single</text>
<text text-anchor="start" x="23.5" y="-504.5" font-family="Helvetica,sans-Serif" font-size="10.00">AttributeTransferStrategy</text>
<text text-anchor="middle" x="85.5" y="-493.5" font-family="Helvetica,sans-Serif" font-size="10.00">::read_parent_values</text>
</a>
</g>
</g>
<!-- Node23&#45;&gt;Node25 -->
<g id="edge26" class="edge">
<title>Node23&#45;&gt;Node25</title>
<path fill="none" stroke="midnightblue" d="M207.75,-507C190.45,-507 172.45,-507 155.77,-507"/>
<polygon fill="midnightblue" stroke="midnightblue" points="207.84,-510.5 217.84,-507 207.84,-503.5 207.84,-510.5"/>
</g>
</g>
</svg>
