<?xml version="1.0" encoding="UTF-8" standalone="no"?>
<!DOCTYPE svg PUBLIC "-//W3C//DTD SVG 1.1//EN"
 "http://www.w3.org/Graphics/SVG/1.1/DTD/svg11.dtd">
<!-- Generated by graphviz version 2.43.0 (0)
 -->
<!-- Title: wmtk::operations::AMIPSOptimizationSmoothingPeriodic::WMTKAMIPSProblem::gradient Pages: 1 -->
<svg width="522pt" height="201pt"
 viewBox="0.00 0.00 522.00 201.44" xmlns="http://www.w3.org/2000/svg" xmlns:xlink="http://www.w3.org/1999/xlink">
<g id="graph0" class="graph" transform="scale(1 1) rotate(0) translate(4 197.44)">
<title>wmtk::operations::AMIPSOptimizationSmoothingPeriodic::WMTKAMIPSProblem::gradient</title>
<!-- Node1 -->
<g id="node1" class="node">
<title>Node1</title>
<g id="a_node1"><a xlink:title=" ">
<polygon fill="#bfbfbf" stroke="black" points="0,-93 0,-134 217,-134 217,-93 0,-93"/>
<text text-anchor="start" x="8" y="-122" font-family="Helvetica,sans-Serif" font-size="10.00">wmtk::operations::AMIPSOptimization</text>
<text text-anchor="start" x="8" y="-111" font-family="Helvetica,sans-Serif" font-size="10.00">SmoothingPeriodic::WMTKAMIPSProblem</text>
<text text-anchor="middle" x="108.5" y="-100" font-family="Helvetica,sans-Serif" font-size="10.00">::gradient</text>
</a>
</g>
</g>
<!-- Node2 -->
<g id="node2" class="node">
<title>Node2</title>
<g id="a_node2"><a xlink:href="namespacewmtk.html#ad12ad5f8ec07682b8da79699a2628b6a" target="_top" xlink:title=" ">
<polygon fill="none" stroke="black" points="421,-153 421,-172 492,-172 492,-153 421,-153"/>
<text text-anchor="middle" x="456.5" y="-160" font-family="Helvetica,sans-Serif" font-size="10.00">wmtk::pow</text>
</a>
</g>
</g>
<!-- Node1&#45;&gt;Node2 -->
<g id="edge1" class="edge">
<title>Node1&#45;&gt;Node2</title>
<path fill="none" stroke="midnightblue" d="M138.9,-134.01C166.8,-152.13 210.64,-177.22 253,-187.5 309.65,-201.25 377.14,-186.99 418.13,-175.05"/>
<polygon fill="midnightblue" stroke="midnightblue" points="419.39,-178.33 427.96,-172.09 417.37,-171.63 419.39,-178.33"/>
</g>
<!-- Node3 -->
<g id="node3" class="node">
<title>Node3</title>
<g id="a_node3"><a xlink:href="namespacewmtk_1_1function.html#a9e3b11628e6438129ff662e14c320619" target="_top" xlink:title=" ">
<polygon fill="none" stroke="black" points="253,-98.5 253,-128.5 363,-128.5 363,-98.5 253,-98.5"/>
<text text-anchor="start" x="261" y="-116.5" font-family="Helvetica,sans-Serif" font-size="10.00">wmtk::function::Tet</text>
<text text-anchor="middle" x="308" y="-105.5" font-family="Helvetica,sans-Serif" font-size="10.00">_AMIPS_energy</text>
</a>
</g>
</g>
<!-- Node1&#45;&gt;Node3 -->
<g id="edge2" class="edge">
<title>Node1&#45;&gt;Node3</title>
<path fill="none" stroke="midnightblue" d="M217.21,-113.5C225.84,-113.5 234.38,-113.5 242.56,-113.5"/>
<polygon fill="midnightblue" stroke="midnightblue" points="242.71,-117 252.71,-113.5 242.71,-110 242.71,-117"/>
</g>
<!-- Node5 -->
<g id="node5" class="node">
<title>Node5</title>
<g id="a_node5"><a xlink:href="namespacewmtk_1_1function.html#a198aa9739019d6fdb0c869dcefe468b7" target="_top" xlink:title=" ">
<polygon fill="none" stroke="black" points="253,-147.5 253,-177.5 363,-177.5 363,-147.5 253,-147.5"/>
<text text-anchor="start" x="261" y="-165.5" font-family="Helvetica,sans-Serif" font-size="10.00">wmtk::function::Tet</text>
<text text-anchor="middle" x="308" y="-154.5" font-family="Helvetica,sans-Serif" font-size="10.00">_AMIPS_jacobian</text>
</a>
</g>
</g>
<!-- Node1&#45;&gt;Node5 -->
<g id="edge5" class="edge">
<title>Node1&#45;&gt;Node5</title>
<path fill="none" stroke="midnightblue" d="M192.4,-134.07C209.36,-138.28 226.96,-142.64 243.13,-146.65"/>
<polygon fill="midnightblue" stroke="midnightblue" points="242.44,-150.09 252.99,-149.1 244.13,-143.3 242.44,-150.09"/>
</g>
<!-- Node6 -->
<g id="node6" class="node">
<title>Node6</title>
<g id="a_node6"><a xlink:href="namespacewmtk_1_1function.html#acd1fbbd6c163ab50ae7d2f684690f439" target="_top" xlink:title=" ">
<polygon fill="none" stroke="black" points="254.5,-49.5 254.5,-79.5 361.5,-79.5 361.5,-49.5 254.5,-49.5"/>
<text text-anchor="start" x="262.5" y="-67.5" font-family="Helvetica,sans-Serif" font-size="10.00">wmtk::function::Tri</text>
<text text-anchor="middle" x="308" y="-56.5" font-family="Helvetica,sans-Serif" font-size="10.00">_AMIPS_energy</text>
</a>
</g>
</g>
<!-- Node1&#45;&gt;Node6 -->
<g id="edge7" class="edge">
<title>Node1&#45;&gt;Node6</title>
<path fill="none" stroke="midnightblue" d="M192.4,-92.93C209.8,-88.62 227.87,-84.13 244.37,-80.04"/>
<polygon fill="midnightblue" stroke="midnightblue" points="245.57,-83.35 254.43,-77.54 243.88,-76.55 245.57,-83.35"/>
</g>
<!-- Node8 -->
<g id="node8" class="node">
<title>Node8</title>
<g id="a_node8"><a xlink:href="namespacewmtk_1_1function.html#a9567d869f1e3e762ec382755de6da7df" target="_top" xlink:title=" ">
<polygon fill="none" stroke="black" points="254.5,-0.5 254.5,-30.5 361.5,-30.5 361.5,-0.5 254.5,-0.5"/>
<text text-anchor="start" x="262.5" y="-18.5" font-family="Helvetica,sans-Serif" font-size="10.00">wmtk::function::Tri</text>
<text text-anchor="middle" x="308" y="-7.5" font-family="Helvetica,sans-Serif" font-size="10.00">_AMIPS_jacobian</text>
</a>
</g>
</g>
<!-- Node1&#45;&gt;Node8 -->
<g id="edge9" class="edge">
<title>Node1&#45;&gt;Node8</title>
<path fill="none" stroke="midnightblue" d="M147.87,-92.95C176.6,-77.74 216.98,-56.77 253,-39.5 256.29,-37.92 259.71,-36.32 263.16,-34.73"/>
<polygon fill="midnightblue" stroke="midnightblue" points="264.64,-37.9 272.29,-30.57 261.74,-31.53 264.64,-37.9"/>
</g>
<!-- Node3&#45;&gt;Node2 -->
<g id="edge3" class="edge">
<title>Node3&#45;&gt;Node2</title>
<path fill="none" stroke="midnightblue" d="M354.15,-128.6C374.34,-135.35 397.89,-143.23 417.2,-149.69"/>
<polygon fill="midnightblue" stroke="midnightblue" points="416.28,-153.07 426.87,-152.92 418.5,-146.43 416.28,-153.07"/>
</g>
<!-- Node4 -->
<g id="node4" class="node">
<title>Node4</title>
<g id="a_node4"><a xlink:href="namespacewmtk_1_1function.html#a1b329f7277ad003d215e82a05b95339b" target="_top" xlink:title=" ">
<polygon fill="none" stroke="black" points="399,-98.5 399,-128.5 514,-128.5 514,-98.5 399,-98.5"/>
<text text-anchor="start" x="407" y="-116.5" font-family="Helvetica,sans-Serif" font-size="10.00">wmtk::function::Tet</text>
<text text-anchor="middle" x="456.5" y="-105.5" font-family="Helvetica,sans-Serif" font-size="10.00">_AMIPS_energy_aux</text>
</a>
</g>
</g>
<!-- Node3&#45;&gt;Node4 -->
<g id="edge4" class="edge">
<title>Node3&#45;&gt;Node4</title>
<path fill="none" stroke="midnightblue" d="M363.13,-113.5C371.36,-113.5 379.94,-113.5 388.4,-113.5"/>
<polygon fill="midnightblue" stroke="midnightblue" points="388.64,-117 398.64,-113.5 388.64,-110 388.64,-117"/>
</g>
<!-- Node5&#45;&gt;Node2 -->
<g id="edge6" class="edge">
<title>Node5&#45;&gt;Node2</title>
<path fill="none" stroke="midnightblue" d="M363.13,-162.5C378.76,-162.5 395.64,-162.5 410.64,-162.5"/>
<polygon fill="midnightblue" stroke="midnightblue" points="410.69,-166 420.69,-162.5 410.69,-159 410.69,-166"/>
</g>
<!-- Node7 -->
<g id="node7" class="node">
<title>Node7</title>
<g id="a_node7"><a xlink:href="namespacewmtk.html#a415d7a83177f8770f317416478c57cae" target="_top" xlink:title=" ">
<polygon fill="none" stroke="black" points="422.5,-55 422.5,-74 490.5,-74 490.5,-55 422.5,-55"/>
<text text-anchor="middle" x="456.5" y="-62" font-family="Helvetica,sans-Serif" font-size="10.00">wmtk::abs</text>
</a>
</g>
</g>
<!-- Node6&#45;&gt;Node7 -->
<g id="edge8" class="edge">
<title>Node6&#45;&gt;Node7</title>
<path fill="none" stroke="midnightblue" d="M361.89,-64.5C378.43,-64.5 396.47,-64.5 412.27,-64.5"/>
<polygon fill="midnightblue" stroke="midnightblue" points="412.28,-68 422.28,-64.5 412.28,-61 412.28,-68"/>
</g>
</g>
</svg>
