<?xml version="1.0" encoding="UTF-8" standalone="no"?>
<!DOCTYPE svg PUBLIC "-//W3C//DTD SVG 1.1//EN"
 "http://www.w3.org/Graphics/SVG/1.1/DTD/svg11.dtd">
<!-- Generated by graphviz version 2.43.0 (0)
 -->
<!-- Title: wmtk::operations::composite::ProjectOperation::execute Pages: 1 -->
<svg width="2011pt" height="650pt"
 viewBox="0.00 0.00 2011.00 649.50" xmlns="http://www.w3.org/2000/svg" xmlns:xlink="http://www.w3.org/1999/xlink">
<g id="graph0" class="graph" transform="scale(1 1) rotate(0) translate(4 645.5)">
<title>wmtk::operations::composite::ProjectOperation::execute</title>
<!-- Node1 -->
<g id="Node000001" class="node">
<title>Node1</title>
<g id="a_Node000001"><a xlink:title="returns an empty vector in case of failure">
<polygon fill="#999999" stroke="#666666" points="159,-126 0,-126 0,-96 159,-96 159,-126"/>
<text text-anchor="start" x="8" y="-114" font-family="Helvetica,sans-Serif" font-size="10.00">wmtk::operations::composite</text>
<text text-anchor="middle" x="79.5" y="-103" font-family="Helvetica,sans-Serif" font-size="10.00">::ProjectOperation::execute</text>
</a>
</g>
</g>
<!-- Node2 -->
<g id="Node000002" class="node">
<title>Node2</title>
<g id="a_Node000002"><a xlink:href="classwmtk_1_1_mesh.html#a82637d24776e0e06e2124ce914c4b40f" target="_top" xlink:title="maps a simplex from this mesh to any other mesh">
<polygon fill="white" stroke="#666666" points="356,-213.5 216,-213.5 216,-194.5 356,-194.5 356,-213.5"/>
<text text-anchor="middle" x="286" y="-201.5" font-family="Helvetica,sans-Serif" font-size="10.00">wmtk::Mesh::map_tuples</text>
</a>
</g>
</g>
<!-- Node1&#45;&gt;Node2 -->
<g id="edge1_Node000001_Node000002" class="edge">
<title>Node1&#45;&gt;Node2</title>
<g id="a_edge1_Node000001_Node000002"><a xlink:title=" ">
<path fill="none" stroke="#63b8ff" d="M100.06,-126.17C122.01,-142.48 159.24,-168.08 195,-183 203.18,-186.41 212.01,-189.33 220.84,-191.81"/>
<polygon fill="#63b8ff" stroke="#63b8ff" points="220.22,-195.26 230.78,-194.42 222,-188.49 220.22,-195.26"/>
</a>
</g>
</g>
<!-- Node36 -->
<g id="Node000036" class="node">
<title>Node36</title>
<g id="a_Node000036"><a xlink:href="classwmtk_1_1attribute_1_1_accessor.html#aa2b3306708fc6d499b771a75d38229e0" target="_top" xlink:title=" ">
<polygon fill="white" stroke="#666666" points="357,-174 215,-174 215,-144 357,-144 357,-174"/>
<text text-anchor="start" x="223" y="-162" font-family="Helvetica,sans-Serif" font-size="10.00">wmtk::attribute::Accessor</text>
<text text-anchor="middle" x="286" y="-151" font-family="Helvetica,sans-Serif" font-size="10.00">::mesh</text>
</a>
</g>
</g>
<!-- Node1&#45;&gt;Node36 -->
<g id="edge45_Node000001_Node000036" class="edge">
<title>Node1&#45;&gt;Node36</title>
<g id="a_edge45_Node000001_Node000036"><a xlink:title=" ">
<path fill="none" stroke="#63b8ff" d="M144.64,-126.06C165.77,-131.01 189.43,-136.57 211.22,-141.68"/>
<polygon fill="#63b8ff" stroke="#63b8ff" points="210.55,-145.12 221.08,-144 212.15,-138.31 210.55,-145.12"/>
</a>
</g>
</g>
<!-- Node38 -->
<g id="Node000038" class="node">
<title>Node38</title>
<g id="a_Node000038"><a xlink:href="classwmtk_1_1operations_1_1_operation.html#a741f1c2a8065cf4542ae47f3b6e19c17" target="_top" xlink:title=" ">
<polygon fill="white" stroke="#666666" points="364,-126 208,-126 208,-96 364,-96 364,-126"/>
<text text-anchor="start" x="216" y="-114" font-family="Helvetica,sans-Serif" font-size="10.00">wmtk::operations::Operation</text>
<text text-anchor="middle" x="286" y="-103" font-family="Helvetica,sans-Serif" font-size="10.00">::mesh</text>
</a>
</g>
</g>
<!-- Node1&#45;&gt;Node38 -->
<g id="edge47_Node000001_Node000038" class="edge">
<title>Node1&#45;&gt;Node38</title>
<g id="a_edge47_Node000001_Node000038"><a xlink:title=" ">
<path fill="none" stroke="#63b8ff" d="M159.27,-111C171.88,-111 184.99,-111 197.78,-111"/>
<polygon fill="#63b8ff" stroke="#63b8ff" points="197.95,-114.5 207.95,-111 197.95,-107.5 197.95,-114.5"/>
</a>
</g>
</g>
<!-- Node39 -->
<g id="Node000039" class="node">
<title>Node39</title>
<g id="a_Node000039"><a xlink:href="classwmtk_1_1operations_1_1composite_1_1_project_operation.html#a8bd9a6589ef905f64a5a42f26a94fca7" target="_top" xlink:title=" ">
<polygon fill="white" stroke="#666666" points="377,-78 195,-78 195,-48 377,-48 377,-78"/>
<text text-anchor="start" x="203" y="-66" font-family="Helvetica,sans-Serif" font-size="10.00">wmtk::operations::composite</text>
<text text-anchor="middle" x="286" y="-55" font-family="Helvetica,sans-Serif" font-size="10.00">::ProjectOperation::primitive_type</text>
</a>
</g>
</g>
<!-- Node1&#45;&gt;Node39 -->
<g id="edge48_Node000001_Node000039" class="edge">
<title>Node1&#45;&gt;Node39</title>
<g id="a_edge48_Node000001_Node000039"><a xlink:title=" ">
<path fill="none" stroke="#63b8ff" d="M144.64,-95.94C165.77,-90.99 189.43,-85.43 211.22,-80.32"/>
<polygon fill="#63b8ff" stroke="#63b8ff" points="212.15,-83.69 221.08,-78 210.55,-76.88 212.15,-83.69"/>
</a>
</g>
</g>
<!-- Node40 -->
<g id="Node000040" class="node">
<title>Node40</title>
<g id="a_Node000040"><a xlink:href="classwmtk_1_1attribute_1_1_accessor.html#ad406308ccd5820ba7478dcf1f4790230" target="_top" xlink:title=" ">
<polygon fill="white" stroke="#666666" points="357,-30 215,-30 215,0 357,0 357,-30"/>
<text text-anchor="start" x="223" y="-18" font-family="Helvetica,sans-Serif" font-size="10.00">wmtk::attribute::Accessor</text>
<text text-anchor="middle" x="286" y="-7" font-family="Helvetica,sans-Serif" font-size="10.00">::vector_attribute</text>
</a>
</g>
</g>
<!-- Node1&#45;&gt;Node40 -->
<g id="edge49_Node000001_Node000040" class="edge">
<title>Node1&#45;&gt;Node40</title>
<g id="a_edge49_Node000001_Node000040"><a xlink:title=" ">
<path fill="none" stroke="#63b8ff" d="M100.56,-95.75C122.63,-79.61 159.7,-54.38 195,-39 199.7,-36.95 204.61,-35.04 209.62,-33.27"/>
<polygon fill="#63b8ff" stroke="#63b8ff" points="210.94,-36.52 219.32,-30.03 208.72,-29.88 210.94,-36.52"/>
</a>
</g>
</g>
<!-- Node3 -->
<g id="Node000003" class="node">
<title>Node3</title>
<g id="a_Node000003"><a xlink:href="classwmtk_1_1_mesh.html#ad054c074d4776010002321117ec459e8" target="_top" xlink:title=" ">
<polygon fill="white" stroke="#666666" points="574,-288 413,-288 413,-258 574,-258 574,-288"/>
<text text-anchor="start" x="421" y="-276" font-family="Helvetica,sans-Serif" font-size="10.00">wmtk::Mesh::is_from</text>
<text text-anchor="middle" x="493.5" y="-265" font-family="Helvetica,sans-Serif" font-size="10.00">_same_multi_mesh_structure</text>
</a>
</g>
</g>
<!-- Node2&#45;&gt;Node3 -->
<g id="edge2_Node000002_Node000003" class="edge">
<title>Node2&#45;&gt;Node3</title>
<g id="a_edge2_Node000002_Node000003"><a xlink:title=" ">
<path fill="none" stroke="#63b8ff" d="M315.57,-213.59C347.09,-224.18 398.55,-241.45 437.86,-254.65"/>
<polygon fill="#63b8ff" stroke="#63b8ff" points="436.98,-258.05 447.58,-257.92 439.21,-251.42 436.98,-258.05"/>
</a>
</g>
</g>
<!-- Node7 -->
<g id="Node000007" class="node">
<title>Node7</title>
<g id="a_Node000007"><a xlink:href="classwmtk_1_1multimesh_1_1_multi_mesh_manager.html#acaaab688faff0e1b2d9142d6cc128e46" target="_top" xlink:title="maps a simplex from this mesh to any other mesh">
<polygon fill="white" stroke="#666666" points="573.5,-219 413.5,-219 413.5,-189 573.5,-189 573.5,-219"/>
<text text-anchor="start" x="421.5" y="-207" font-family="Helvetica,sans-Serif" font-size="10.00">wmtk::multimesh::MultiMesh</text>
<text text-anchor="middle" x="493.5" y="-196" font-family="Helvetica,sans-Serif" font-size="10.00">Manager::map_tuples</text>
</a>
</g>
</g>
<!-- Node2&#45;&gt;Node7 -->
<g id="edge7_Node000002_Node000007" class="edge">
<title>Node2&#45;&gt;Node7</title>
<g id="a_edge7_Node000002_Node000007"><a xlink:title=" ">
<path fill="none" stroke="#63b8ff" d="M356,-204C371.11,-204 387.32,-204 403.1,-204"/>
<polygon fill="#63b8ff" stroke="#63b8ff" points="403.4,-207.5 413.4,-204 403.4,-200.5 403.4,-207.5"/>
</a>
</g>
</g>
<!-- Node4 -->
<g id="Node000004" class="node">
<title>Node4</title>
<g id="a_Node000004"><a xlink:href="classwmtk_1_1_mesh.html#aac3ec1ebbe00982ddfe70cc710d8f54e" target="_top" xlink:title="returns a reference to the root of a multimesh tree">
<polygon fill="white" stroke="#666666" points="754.5,-319 625.5,-319 625.5,-289 754.5,-289 754.5,-319"/>
<text text-anchor="start" x="633.5" y="-307" font-family="Helvetica,sans-Serif" font-size="10.00">wmtk::Mesh::get_multi</text>
<text text-anchor="middle" x="690" y="-296" font-family="Helvetica,sans-Serif" font-size="10.00">_mesh_root</text>
</a>
</g>
</g>
<!-- Node3&#45;&gt;Node4 -->
<g id="edge3_Node000003_Node000004" class="edge">
<title>Node3&#45;&gt;Node4</title>
<g id="a_edge3_Node000003_Node000004"><a xlink:title=" ">
<path fill="none" stroke="#63b8ff" d="M574.17,-285.7C587.71,-287.86 601.73,-290.09 615.11,-292.22"/>
<polygon fill="#63b8ff" stroke="#63b8ff" points="614.78,-295.72 625.21,-293.83 615.89,-288.8 614.78,-295.72"/>
</a>
</g>
</g>
<!-- Node5 -->
<g id="Node000005" class="node">
<title>Node5</title>
<g id="a_Node000005"><a xlink:href="classwmtk_1_1multimesh_1_1_multi_mesh_manager.html#a434e74f6b295055a45914d41a784124a" target="_top" xlink:title=" ">
<polygon fill="white" stroke="#666666" points="985.5,-328 825.5,-328 825.5,-298 985.5,-298 985.5,-328"/>
<text text-anchor="start" x="833.5" y="-316" font-family="Helvetica,sans-Serif" font-size="10.00">wmtk::multimesh::MultiMesh</text>
<text text-anchor="middle" x="905.5" y="-305" font-family="Helvetica,sans-Serif" font-size="10.00">Manager::get_root_mesh</text>
</a>
</g>
</g>
<!-- Node4&#45;&gt;Node5 -->
<g id="edge4_Node000004_Node000005" class="edge">
<title>Node4&#45;&gt;Node5</title>
<g id="a_edge4_Node000004_Node000005"><a xlink:title=" ">
<path fill="none" stroke="#63b8ff" d="M754.77,-306.69C773.69,-307.49 794.77,-308.37 815.01,-309.23"/>
<polygon fill="#63b8ff" stroke="#63b8ff" points="815.03,-312.73 825.17,-309.66 815.33,-305.74 815.03,-312.73"/>
</a>
</g>
</g>
<!-- Node5&#45;&gt;Node5 -->
<g id="edge5_Node000005_Node000005" class="edge">
<title>Node5&#45;&gt;Node5</title>
<g id="a_edge5_Node000005_Node000005"><a xlink:title=" ">
<path fill="none" stroke="#63b8ff" d="M867.88,-328.28C859.52,-337.41 872.06,-346 905.5,-346 925.35,-346 937.84,-342.97 942.96,-338.6"/>
<polygon fill="#63b8ff" stroke="#63b8ff" points="946.46,-338.33 943.12,-328.28 939.46,-338.22 946.46,-338.33"/>
</a>
</g>
</g>
<!-- Node6 -->
<g id="Node000006" class="node">
<title>Node6</title>
<g id="a_Node000006"><a xlink:href="classwmtk_1_1multimesh_1_1_multi_mesh_manager.html#a7d39339adb56b1798fe817d81bfcc67c" target="_top" xlink:title="Specifies whether this structure is the root of a multi&#45;mesh tree.">
<polygon fill="white" stroke="#666666" points="1225,-305 1065,-305 1065,-275 1225,-275 1225,-305"/>
<text text-anchor="start" x="1073" y="-293" font-family="Helvetica,sans-Serif" font-size="10.00">wmtk::multimesh::MultiMesh</text>
<text text-anchor="middle" x="1145" y="-282" font-family="Helvetica,sans-Serif" font-size="10.00">Manager::is_root</text>
</a>
</g>
</g>
<!-- Node5&#45;&gt;Node6 -->
<g id="edge6_Node000005_Node000006" class="edge">
<title>Node5&#45;&gt;Node6</title>
<g id="a_edge6_Node000005_Node000006"><a xlink:title=" ">
<path fill="none" stroke="#63b8ff" d="M985.58,-305.34C1007.8,-303.19 1032.11,-300.84 1054.87,-298.63"/>
<polygon fill="#63b8ff" stroke="#63b8ff" points="1055.24,-302.11 1064.86,-297.66 1054.57,-295.14 1055.24,-302.11"/>
</a>
</g>
</g>
<!-- Node8 -->
<g id="Node000008" class="node">
<title>Node8</title>
<g id="a_Node000008"><a xlink:href="classwmtk_1_1multimesh_1_1_multi_mesh_manager.html#a812e0992812b2c48a889e10ae9e50758" target="_top" xlink:title=" ">
<polygon fill="white" stroke="#666666" points="985.5,-262 825.5,-262 825.5,-232 985.5,-232 985.5,-262"/>
<text text-anchor="start" x="833.5" y="-250" font-family="Helvetica,sans-Serif" font-size="10.00">wmtk::multimesh::MultiMesh</text>
<text text-anchor="middle" x="905.5" y="-239" font-family="Helvetica,sans-Serif" font-size="10.00">Manager::absolute_id</text>
</a>
</g>
</g>
<!-- Node7&#45;&gt;Node8 -->
<g id="edge8_Node000007_Node000008" class="edge">
<title>Node7&#45;&gt;Node8</title>
<g id="a_edge8_Node000007_Node000008"><a xlink:title=" ">
<path fill="none" stroke="#63b8ff" d="M573.69,-207.2C628.87,-209.98 704.1,-214.87 770,-223 785.79,-224.95 802.54,-227.52 818.66,-230.26"/>
<polygon fill="#63b8ff" stroke="#63b8ff" points="818.16,-233.73 828.61,-231.98 819.35,-226.83 818.16,-233.73"/>
</a>
</g>
</g>
<!-- Node9 -->
<g id="Node000009" class="node">
<title>Node9</title>
<g id="a_Node000009"><a xlink:href="classwmtk_1_1_mesh.html#a2102fdea06a0c543437e67d77aeb2013" target="_top" xlink:title="returns a unique identifier for this mesh within a single multimesh structure">
<polygon fill="white" stroke="#666666" points="752.5,-262 627.5,-262 627.5,-232 752.5,-232 752.5,-262"/>
<text text-anchor="start" x="635.5" y="-250" font-family="Helvetica,sans-Serif" font-size="10.00">wmtk::Mesh::absolute</text>
<text text-anchor="middle" x="690" y="-239" font-family="Helvetica,sans-Serif" font-size="10.00">_multi_mesh_id</text>
</a>
</g>
</g>
<!-- Node7&#45;&gt;Node9 -->
<g id="edge11_Node000007_Node000009" class="edge">
<title>Node7&#45;&gt;Node9</title>
<g id="a_edge11_Node000007_Node000009"><a xlink:title=" ">
<path fill="none" stroke="#63b8ff" d="M562.53,-219.04C580.27,-222.96 599.45,-227.2 617.38,-231.17"/>
<polygon fill="#63b8ff" stroke="#63b8ff" points="616.67,-234.59 627.19,-233.34 618.18,-227.76 616.67,-234.59"/>
</a>
</g>
</g>
<!-- Node10 -->
<g id="Node000010" class="node">
<title>Node10</title>
<g id="a_Node000010"><a xlink:href="classwmtk_1_1multimesh_1_1_multi_mesh_manager.html#aefe5179057c978e227c3349d13578c4a" target="_top" xlink:title=" ">
<polygon fill="white" stroke="#666666" points="770,-171 610,-171 610,-141 770,-141 770,-171"/>
<text text-anchor="start" x="618" y="-159" font-family="Helvetica,sans-Serif" font-size="10.00">wmtk::multimesh::MultiMesh</text>
<text text-anchor="middle" x="690" y="-148" font-family="Helvetica,sans-Serif" font-size="10.00">Manager::map_up_to_tuples</text>
</a>
</g>
</g>
<!-- Node7&#45;&gt;Node10 -->
<g id="edge13_Node000007_Node000010" class="edge">
<title>Node7&#45;&gt;Node10</title>
<g id="a_edge13_Node000007_Node000010"><a xlink:title=" ">
<path fill="none" stroke="#63b8ff" d="M555.51,-188.94C575.42,-184.03 597.7,-178.53 618.27,-173.46"/>
<polygon fill="#63b8ff" stroke="#63b8ff" points="619.34,-176.8 628.21,-171 617.66,-170 619.34,-176.8"/>
</a>
</g>
</g>
<!-- Node30 -->
<g id="Node000030" class="node">
<title>Node30</title>
<g id="a_Node000030"><a xlink:href="classwmtk_1_1simplex_1_1_simplex.html#ad2cc0340a0772b7d6f03ba7a781d1163" target="_top" xlink:title=" ">
<polygon fill="white" stroke="#666666" points="1662.5,-102 1527.5,-102 1527.5,-72 1662.5,-72 1662.5,-102"/>
<text text-anchor="start" x="1535.5" y="-90" font-family="Helvetica,sans-Serif" font-size="10.00">wmtk::simplex::Simplex</text>
<text text-anchor="middle" x="1595" y="-79" font-family="Helvetica,sans-Serif" font-size="10.00">::primitive_type</text>
</a>
</g>
</g>
<!-- Node7&#45;&gt;Node30 -->
<g id="edge44_Node000007_Node000030" class="edge">
<title>Node7&#45;&gt;Node30</title>
<g id="a_edge44_Node000007_Node000030"><a xlink:title=" ">
<path fill="none" stroke="#63b8ff" d="M558.29,-188.82C563.82,-186.31 569.16,-183.39 574,-180 595.85,-164.72 588.01,-147.08 610,-132 722.16,-55.1 768.51,-49 904.5,-49 904.5,-49 904.5,-49 1146,-49 1276.78,-49 1428.27,-65.28 1517.34,-76.52"/>
<polygon fill="#63b8ff" stroke="#63b8ff" points="1516.99,-80.01 1527.36,-77.8 1517.88,-73.06 1516.99,-80.01"/>
</a>
</g>
</g>
<!-- Node8&#45;&gt;Node6 -->
<g id="edge10_Node000008_Node000006" class="edge">
<title>Node8&#45;&gt;Node6</title>
<g id="a_edge10_Node000008_Node000006"><a xlink:title=" ">
<path fill="none" stroke="#63b8ff" d="M985.58,-261.32C1007.8,-265.34 1032.11,-269.74 1054.87,-273.86"/>
<polygon fill="#63b8ff" stroke="#63b8ff" points="1054.39,-277.33 1064.86,-275.67 1055.64,-270.45 1054.39,-277.33"/>
</a>
</g>
</g>
<!-- Node8&#45;&gt;Node8 -->
<g id="edge9_Node000008_Node000008" class="edge">
<title>Node8&#45;&gt;Node8</title>
<g id="a_edge9_Node000008_Node000008"><a xlink:title=" ">
<path fill="none" stroke="#63b8ff" d="M867.88,-262.28C859.52,-271.41 872.06,-280 905.5,-280 925.35,-280 937.84,-276.97 942.96,-272.6"/>
<polygon fill="#63b8ff" stroke="#63b8ff" points="946.46,-272.33 943.12,-262.28 939.46,-272.22 946.46,-272.33"/>
</a>
</g>
</g>
<!-- Node9&#45;&gt;Node8 -->
<g id="edge12_Node000009_Node000008" class="edge">
<title>Node9&#45;&gt;Node8</title>
<g id="a_edge12_Node000009_Node000008"><a xlink:title=" ">
<path fill="none" stroke="#63b8ff" d="M752.75,-247C772.23,-247 794.15,-247 815.14,-247"/>
<polygon fill="#63b8ff" stroke="#63b8ff" points="815.36,-250.5 825.36,-247 815.36,-243.5 815.36,-250.5"/>
</a>
</g>
</g>
<!-- Node11 -->
<g id="Node000011" class="node">
<title>Node11</title>
<g id="a_Node000011"><a xlink:href="classwmtk_1_1multimesh_1_1_multi_mesh_manager.html#af6fd8d8b5cc1e8b2c877718b99374f03" target="_top" xlink:title=" ">
<polygon fill="white" stroke="#666666" points="1005,-166 806,-166 806,-136 1005,-136 1005,-166"/>
<text text-anchor="start" x="814" y="-154" font-family="Helvetica,sans-Serif" font-size="10.00">wmtk::multimesh::MultiMesh</text>
<text text-anchor="middle" x="905.5" y="-143" font-family="Helvetica,sans-Serif" font-size="10.00">Manager::map_tuple_to_parent_tuple</text>
</a>
</g>
</g>
<!-- Node10&#45;&gt;Node11 -->
<g id="edge14_Node000010_Node000011" class="edge">
<title>Node10&#45;&gt;Node11</title>
<g id="a_edge14_Node000010_Node000011"><a xlink:title=" ">
<path fill="none" stroke="#63b8ff" d="M770.2,-154.15C778.56,-153.95 787.16,-153.75 795.77,-153.55"/>
<polygon fill="#63b8ff" stroke="#63b8ff" points="795.97,-157.04 805.89,-153.31 795.81,-150.04 795.97,-157.04"/>
</a>
</g>
</g>
<!-- Node10&#45;&gt;Node30 -->
<g id="edge42_Node000010_Node000030" class="edge">
<title>Node10&#45;&gt;Node30</title>
<g id="a_edge42_Node000010_Node000030"><a xlink:title=" ">
<path fill="none" stroke="#63b8ff" d="M741.52,-140.98C761.43,-135.66 784.62,-130.21 806,-127 1064.54,-88.22 1375.54,-85.03 1517.1,-85.92"/>
<polygon fill="#63b8ff" stroke="#63b8ff" points="1517.38,-89.42 1527.41,-85.99 1517.43,-82.42 1517.38,-89.42"/>
</a>
</g>
</g>
<!-- Node35 -->
<g id="Node000035" class="node">
<title>Node35</title>
<g id="a_Node000035"><a xlink:href="classwmtk_1_1simplex_1_1_simplex.html#aca78b1fb0a3c28c0036cf7919bfb0789" target="_top" xlink:title=" ">
<polygon fill="white" stroke="#666666" points="973,-214 838,-214 838,-184 973,-184 973,-214"/>
<text text-anchor="start" x="846" y="-202" font-family="Helvetica,sans-Serif" font-size="10.00">wmtk::simplex::Simplex</text>
<text text-anchor="middle" x="905.5" y="-191" font-family="Helvetica,sans-Serif" font-size="10.00">::tuple</text>
</a>
</g>
</g>
<!-- Node10&#45;&gt;Node35 -->
<g id="edge43_Node000010_Node000035" class="edge">
<title>Node10&#45;&gt;Node35</title>
<g id="a_edge43_Node000010_Node000035"><a xlink:title=" ">
<path fill="none" stroke="#63b8ff" d="M765.67,-171.04C785.73,-175.08 807.46,-179.45 827.63,-183.52"/>
<polygon fill="#63b8ff" stroke="#63b8ff" points="827.22,-187.01 837.71,-185.55 828.6,-180.14 827.22,-187.01"/>
</a>
</g>
</g>
<!-- Node11&#45;&gt;Node6 -->
<g id="edge16_Node000011_Node000006" class="edge">
<title>Node11&#45;&gt;Node6</title>
<g id="a_edge16_Node000011_Node000006"><a xlink:title=" ">
<path fill="none" stroke="#63b8ff" d="M992.42,-166.24C996.91,-168.75 1001.15,-171.65 1005,-175 1037.8,-203.57 1008.06,-237.6 1041,-266 1045.45,-269.84 1050.41,-273.1 1055.66,-275.85"/>
<polygon fill="#63b8ff" stroke="#63b8ff" points="1054.21,-279.04 1064.76,-280.03 1057.14,-272.68 1054.21,-279.04"/>
</a>
</g>
</g>
<!-- Node12 -->
<g id="Node000012" class="node">
<title>Node12</title>
<g id="a_Node000012"><a xlink:href="classwmtk_1_1_mesh.html#a357182137d99f1e4a7ff536eadfc0e56" target="_top" xlink:title=" ">
<polygon fill="white" stroke="#666666" points="1201.5,-166 1088.5,-166 1088.5,-136 1201.5,-136 1201.5,-166"/>
<text text-anchor="start" x="1096.5" y="-154" font-family="Helvetica,sans-Serif" font-size="10.00">wmtk::Mesh::create</text>
<text text-anchor="middle" x="1145" y="-143" font-family="Helvetica,sans-Serif" font-size="10.00">_const_accessor</text>
</a>
</g>
</g>
<!-- Node11&#45;&gt;Node12 -->
<g id="edge15_Node000011_Node000012" class="edge">
<title>Node11&#45;&gt;Node12</title>
<g id="a_edge15_Node000011_Node000012"><a xlink:title=" ">
<path fill="none" stroke="#63b8ff" d="M1005.16,-151C1029.8,-151 1055.64,-151 1078.25,-151"/>
<polygon fill="#63b8ff" stroke="#63b8ff" points="1078.4,-154.5 1088.4,-151 1078.4,-147.5 1078.4,-154.5"/>
</a>
</g>
</g>
<!-- Node13 -->
<g id="Node000013" class="node">
<title>Node13</title>
<g id="a_Node000013"><a xlink:href="classwmtk_1_1multimesh_1_1_multi_mesh_manager.html#a6f9186ced3e97aef2a0af71a3aa5c6a0" target="_top" xlink:title=" ">
<polygon fill="white" stroke="#666666" points="1249,-257 1041,-257 1041,-227 1249,-227 1249,-257"/>
<text text-anchor="start" x="1049" y="-245" font-family="Helvetica,sans-Serif" font-size="10.00">wmtk::multimesh::MultiMesh</text>
<text text-anchor="middle" x="1145" y="-234" font-family="Helvetica,sans-Serif" font-size="10.00">Manager::map_tuple_between_meshes</text>
</a>
</g>
</g>
<!-- Node11&#45;&gt;Node13 -->
<g id="edge17_Node000011_Node000013" class="edge">
<title>Node11&#45;&gt;Node13</title>
<g id="a_edge17_Node000011_Node000013"><a xlink:title=" ">
<path fill="none" stroke="#63b8ff" d="M976.2,-166.04C985.97,-168.71 995.8,-171.7 1005,-175 1041.25,-187.99 1080.62,-207.52 1108.17,-222.14"/>
<polygon fill="#63b8ff" stroke="#63b8ff" points="1106.58,-225.26 1117.04,-226.9 1109.88,-219.09 1106.58,-225.26"/>
</a>
</g>
</g>
<!-- Node14 -->
<g id="Node000014" class="node">
<title>Node14</title>
<g id="a_Node000014"><a xlink:href="classwmtk_1_1_tuple.html#aef64a43ff5f5617dbc99d865356bbc25" target="_top" xlink:title=" ">
<polygon fill="white" stroke="#666666" points="1866,-471.5 1735,-471.5 1735,-452.5 1866,-452.5 1866,-471.5"/>
<text text-anchor="middle" x="1800.5" y="-459.5" font-family="Helvetica,sans-Serif" font-size="10.00">wmtk::Tuple::global_cid</text>
</a>
</g>
</g>
<!-- Node13&#45;&gt;Node14 -->
<g id="edge18_Node000013_Node000014" class="edge">
<title>Node13&#45;&gt;Node14</title>
<g id="a_edge18_Node000013_Node000014"><a xlink:title=" ">
<path fill="none" stroke="#63b8ff" d="M1233.64,-257.06C1239.06,-259.6 1244.24,-262.56 1249,-266 1273.89,-284 1258.99,-308.66 1285,-325 1441.58,-423.35 1530.98,-288.82 1699,-366 1737.13,-383.52 1769.84,-421.54 1786.89,-444.12"/>
<polygon fill="#63b8ff" stroke="#63b8ff" points="1784.09,-446.22 1792.83,-452.21 1789.73,-442.08 1784.09,-446.22"/>
</a>
</g>
</g>
<!-- Node15 -->
<g id="Node000015" class="node">
<title>Node15</title>
<g id="a_Node000015"><a xlink:href="classwmtk_1_1_mesh.html#a8cc8686f0688613806f43720b6db49e7" target="_top" xlink:title="check validity of tuple including its hash">
<polygon fill="white" stroke="#666666" points="1430,-586.5 1310,-586.5 1310,-567.5 1430,-567.5 1430,-586.5"/>
<text text-anchor="middle" x="1370" y="-574.5" font-family="Helvetica,sans-Serif" font-size="10.00">wmtk::Mesh::is_valid</text>
</a>
</g>
</g>
<!-- Node13&#45;&gt;Node15 -->
<g id="edge19_Node000013_Node000015" class="edge">
<title>Node13&#45;&gt;Node15</title>
<g id="a_edge19_Node000013_Node000015"><a xlink:title=" ">
<path fill="none" stroke="#63b8ff" d="M1238.51,-257.24C1242.3,-259.78 1245.83,-262.68 1249,-266 1310.13,-330.09 1250,-380.64 1285,-462 1301.65,-500.7 1333.34,-538.83 1352.68,-560"/>
<polygon fill="#63b8ff" stroke="#63b8ff" points="1350.29,-562.57 1359.67,-567.5 1355.41,-557.8 1350.29,-562.57"/>
</a>
</g>
</g>
<!-- Node18 -->
<g id="Node000018" class="node">
<title>Node18</title>
<g id="a_Node000018"><a xlink:href="classwmtk_1_1_tuple.html#ab5fa210c660a9d678768c15d7c4f78f0" target="_top" xlink:title=" ">
<polygon fill="white" stroke="#666666" points="1431,-230.5 1309,-230.5 1309,-211.5 1431,-211.5 1431,-230.5"/>
<text text-anchor="middle" x="1370" y="-218.5" font-family="Helvetica,sans-Serif" font-size="10.00">wmtk::Tuple::local_fid</text>
</a>
</g>
</g>
<!-- Node13&#45;&gt;Node18 -->
<g id="edge24_Node000013_Node000018" class="edge">
<title>Node13&#45;&gt;Node18</title>
<g id="a_edge24_Node000013_Node000018"><a xlink:title=" ">
<path fill="none" stroke="#63b8ff" d="M1249.01,-232.3C1265.86,-230.71 1282.98,-229.1 1298.79,-227.61"/>
<polygon fill="#63b8ff" stroke="#63b8ff" points="1299.36,-231.07 1308.99,-226.65 1298.7,-224.1 1299.36,-231.07"/>
</a>
</g>
</g>
<!-- Node19 -->
<g id="Node000019" class="node">
<title>Node19</title>
<g id="a_Node000019"><a xlink:href="namespacewmtk_1_1multimesh_1_1utils.html#a7d748ef4839b09a5460e8af97b9fa678" target="_top" xlink:title=" ">
<polygon fill="white" stroke="#666666" points="1444.5,-453 1295.5,-453 1295.5,-423 1444.5,-423 1444.5,-453"/>
<text text-anchor="start" x="1303.5" y="-441" font-family="Helvetica,sans-Serif" font-size="10.00">wmtk::multimesh::utils</text>
<text text-anchor="middle" x="1370" y="-430" font-family="Helvetica,sans-Serif" font-size="10.00">::read_tuple_map_attribute</text>
</a>
</g>
</g>
<!-- Node13&#45;&gt;Node19 -->
<g id="edge25_Node000013_Node000019" class="edge">
<title>Node13&#45;&gt;Node19</title>
<g id="a_edge25_Node000013_Node000019"><a xlink:title=" ">
<path fill="none" stroke="#63b8ff" d="M1236.37,-257.15C1240.88,-259.68 1245.13,-262.61 1249,-266 1282.98,-295.73 1259.67,-323.62 1285,-361 1299.59,-382.53 1321.35,-402.26 1339.07,-416.35"/>
<polygon fill="#63b8ff" stroke="#63b8ff" points="1337.35,-419.45 1347.39,-422.8 1341.63,-413.91 1337.35,-419.45"/>
</a>
</g>
</g>
<!-- Node24 -->
<g id="Node000024" class="node">
<title>Node24</title>
<g id="a_Node000024"><a xlink:href="classwmtk_1_1_mesh.html#a965a8a24158c4aa8580c57ba09f885f7" target="_top" xlink:title="switch the orientation of the Tuple of the given dimension">
<polygon fill="white" stroke="#666666" points="1427,-145 1313,-145 1313,-115 1427,-115 1427,-145"/>
<text text-anchor="start" x="1321" y="-133" font-family="Helvetica,sans-Serif" font-size="10.00">wmtk::Mesh::switch</text>
<text text-anchor="middle" x="1370" y="-122" font-family="Helvetica,sans-Serif" font-size="10.00">_tuple</text>
</a>
</g>
</g>
<!-- Node13&#45;&gt;Node24 -->
<g id="edge30_Node000013_Node000024" class="edge">
<title>Node13&#45;&gt;Node24</title>
<g id="a_edge30_Node000013_Node000024"><a xlink:title=" ">
<path fill="none" stroke="#63b8ff" d="M1169.07,-226.89C1205.36,-203.19 1272.91,-159.42 1285,-154 1290.72,-151.44 1296.79,-149.07 1302.93,-146.91"/>
<polygon fill="#63b8ff" stroke="#63b8ff" points="1304.24,-150.17 1312.63,-143.69 1302.03,-143.53 1304.24,-150.17"/>
</a>
</g>
</g>
<!-- Node25 -->
<g id="Node000025" class="node">
<title>Node25</title>
<g id="a_Node000025"><a xlink:href="namespacewmtk_1_1simplex.html#a0101f27eb2ad82814390b92ab1a4d1a0" target="_top" xlink:title=" ">
<polygon fill="white" stroke="#666666" points="1445.5,-193 1294.5,-193 1294.5,-163 1445.5,-163 1445.5,-193"/>
<text text-anchor="start" x="1302.5" y="-181" font-family="Helvetica,sans-Serif" font-size="10.00">wmtk::simplex::top</text>
<text text-anchor="middle" x="1370" y="-170" font-family="Helvetica,sans-Serif" font-size="10.00">_dimension_cofaces_tuples</text>
</a>
</g>
</g>
<!-- Node13&#45;&gt;Node25 -->
<g id="edge31_Node000013_Node000025" class="edge">
<title>Node13&#45;&gt;Node25</title>
<g id="a_edge31_Node000013_Node000025"><a xlink:title=" ">
<path fill="none" stroke="#63b8ff" d="M1198.14,-226.97C1224.22,-219.46 1256.28,-210.24 1285,-202 1291.92,-200.02 1299.15,-197.94 1306.36,-195.88"/>
<polygon fill="#63b8ff" stroke="#63b8ff" points="1307.47,-199.21 1316.12,-193.09 1305.54,-192.48 1307.47,-199.21"/>
</a>
</g>
</g>
<!-- Node31 -->
<g id="Node000031" class="node">
<title>Node31</title>
<g id="a_Node000031"><a xlink:href="classwmtk_1_1_mesh.html#abaf00438d0700358b160e310d69725c9" target="_top" xlink:title=" ">
<polygon fill="white" stroke="#666666" points="1455,-316.5 1285,-316.5 1285,-297.5 1455,-297.5 1455,-316.5"/>
<text text-anchor="middle" x="1370" y="-304.5" font-family="Helvetica,sans-Serif" font-size="10.00">wmtk::Mesh::top_simplex_type</text>
</a>
</g>
</g>
<!-- Node13&#45;&gt;Node31 -->
<g id="edge37_Node000013_Node000031" class="edge">
<title>Node13&#45;&gt;Node31</title>
<g id="a_edge37_Node000013_Node000031"><a xlink:title=" ">
<path fill="none" stroke="#63b8ff" d="M1222.79,-257.01C1231.76,-259.61 1240.67,-262.59 1249,-266 1266.35,-273.11 1267.62,-280.95 1285,-288 1291.33,-290.57 1298.08,-292.83 1304.89,-294.8"/>
<polygon fill="#63b8ff" stroke="#63b8ff" points="1304.31,-298.27 1314.87,-297.49 1306.13,-291.51 1304.31,-298.27"/>
</a>
</g>
</g>
<!-- Node33 -->
<g id="Node000033" class="node">
<title>Node33</title>
<g id="a_Node000033"><a xlink:href="namespacewmtk_1_1multimesh_1_1utils.html#aa0392bf28bb6c304127cf0eea634fee8" target="_top" xlink:title=" ">
<polygon fill="white" stroke="#666666" points="1435,-279 1305,-279 1305,-249 1435,-249 1435,-279"/>
<text text-anchor="start" x="1313" y="-267" font-family="Helvetica,sans-Serif" font-size="10.00">wmtk::multimesh::utils</text>
<text text-anchor="middle" x="1370" y="-256" font-family="Helvetica,sans-Serif" font-size="10.00">::transport_tuple</text>
</a>
</g>
</g>
<!-- Node13&#45;&gt;Node33 -->
<g id="edge39_Node000013_Node000033" class="edge">
<title>Node13&#45;&gt;Node33</title>
<g id="a_edge39_Node000013_Node000033"><a xlink:title=" ">
<path fill="none" stroke="#63b8ff" d="M1249.01,-252.16C1264.5,-253.69 1280.2,-255.24 1294.92,-256.69"/>
<polygon fill="#63b8ff" stroke="#63b8ff" points="1294.65,-260.18 1304.94,-257.68 1295.33,-253.22 1294.65,-260.18"/>
</a>
</g>
</g>
<!-- Node16 -->
<g id="Node000016" class="node">
<title>Node16</title>
<g id="a_Node000016"><a xlink:href="classwmtk_1_1_tuple.html#a0023f575be92cd5ceeeaaaa3762ea06d" target="_top" xlink:title="Checks if a tuple is &quot;null&quot;. This merely implies the global index is &#45;1.">
<polygon fill="white" stroke="#666666" points="1651.5,-641.5 1538.5,-641.5 1538.5,-622.5 1651.5,-622.5 1651.5,-641.5"/>
<text text-anchor="middle" x="1595" y="-629.5" font-family="Helvetica,sans-Serif" font-size="10.00">wmtk::Tuple::is_null</text>
</a>
</g>
</g>
<!-- Node15&#45;&gt;Node16 -->
<g id="edge20_Node000015_Node000016" class="edge">
<title>Node15&#45;&gt;Node16</title>
<g id="a_edge20_Node000015_Node000016"><a xlink:title=" ">
<path fill="none" stroke="#63b8ff" d="M1398.37,-586.52C1422.52,-594.66 1458.78,-606.25 1491,-614 1503.05,-616.9 1515.99,-619.53 1528.5,-621.83"/>
<polygon fill="#63b8ff" stroke="#63b8ff" points="1527.95,-625.29 1538.41,-623.61 1529.18,-618.4 1527.95,-625.29"/>
</a>
</g>
</g>
<!-- Node17 -->
<g id="Node000017" class="node">
<title>Node17</title>
<g id="a_Node000017"><a xlink:href="classwmtk_1_1_mesh.html#ade176d345902d97af8c5da04aa3a095b" target="_top" xlink:title=" ">
<polygon fill="white" stroke="#666666" points="1665,-586.5 1525,-586.5 1525,-567.5 1665,-567.5 1665,-586.5"/>
<text text-anchor="middle" x="1595" y="-574.5" font-family="Helvetica,sans-Serif" font-size="10.00">wmtk::Mesh::is_removed</text>
</a>
</g>
</g>
<!-- Node15&#45;&gt;Node17 -->
<g id="edge21_Node000015_Node000017" class="edge">
<title>Node15&#45;&gt;Node17</title>
<g id="a_edge21_Node000015_Node000017"><a xlink:title=" ">
<path fill="none" stroke="#63b8ff" d="M1430.17,-577C1456.03,-577 1486.74,-577 1514.55,-577"/>
<polygon fill="#63b8ff" stroke="#63b8ff" points="1514.65,-580.5 1524.65,-577 1514.65,-573.5 1514.65,-580.5"/>
</a>
</g>
</g>
<!-- Node17&#45;&gt;Node14 -->
<g id="edge22_Node000017_Node000014" class="edge">
<title>Node17&#45;&gt;Node14</title>
<g id="a_edge22_Node000017_Node000014"><a xlink:title=" ">
<path fill="none" stroke="#63b8ff" d="M1665.15,-569.97C1676.84,-567.19 1688.56,-563.34 1699,-558 1736.2,-538.99 1769.05,-501.78 1786.42,-479.68"/>
<polygon fill="#63b8ff" stroke="#63b8ff" points="1789.39,-481.57 1792.69,-471.5 1783.83,-477.31 1789.39,-481.57"/>
</a>
</g>
</g>
<!-- Node17&#45;&gt;Node17 -->
<g id="edge23_Node000017_Node000017" class="edge">
<title>Node17&#45;&gt;Node17</title>
<g id="a_edge23_Node000017_Node000017"><a xlink:title=" ">
<path fill="none" stroke="#63b8ff" d="M1563.56,-586.58C1548.26,-595.23 1558.74,-604.5 1595,-604.5 1620.49,-604.5 1633.24,-599.92 1633.25,-594.19"/>
<polygon fill="#63b8ff" stroke="#63b8ff" points="1635.72,-591.7 1626.44,-586.58 1630.5,-596.37 1635.72,-591.7"/>
</a>
</g>
</g>
<!-- Node20 -->
<g id="Node000020" class="node">
<title>Node20</title>
<g id="a_Node000020"><a xlink:href="classwmtk_1_1attribute_1_1_accessor.html#ad6fb9ed9ff56571fe257bf0f4b542368" target="_top" xlink:title=" ">
<polygon fill="white" stroke="#666666" points="1666,-405 1524,-405 1524,-375 1666,-375 1666,-405"/>
<text text-anchor="start" x="1532" y="-393" font-family="Helvetica,sans-Serif" font-size="10.00">wmtk::attribute::Accessor</text>
<text text-anchor="middle" x="1595" y="-382" font-family="Helvetica,sans-Serif" font-size="10.00">::const_vector_attribute</text>
</a>
</g>
</g>
<!-- Node19&#45;&gt;Node20 -->
<g id="edge26_Node000019_Node000020" class="edge">
<title>Node19&#45;&gt;Node20</title>
<g id="a_edge26_Node000019_Node000020"><a xlink:title=" ">
<path fill="none" stroke="#63b8ff" d="M1440.95,-422.94C1464.3,-417.92 1490.49,-412.28 1514.51,-407.11"/>
<polygon fill="#63b8ff" stroke="#63b8ff" points="1515.26,-410.53 1524.3,-405 1513.79,-403.69 1515.26,-410.53"/>
</a>
</g>
</g>
<!-- Node21 -->
<g id="Node000021" class="node">
<title>Node21</title>
<g id="a_Node000021"><a xlink:href="classwmtk_1_1attribute_1_1_tuple_accessor.html#adf0b07ce3ed74d51723e2beed2d3f25e" target="_top" xlink:title=" ">
<polygon fill="white" stroke="#666666" points="1678.5,-549 1511.5,-549 1511.5,-519 1678.5,-519 1678.5,-549"/>
<text text-anchor="start" x="1519.5" y="-537" font-family="Helvetica,sans-Serif" font-size="10.00">wmtk::attribute::TupleAccessor</text>
<text text-anchor="middle" x="1595" y="-526" font-family="Helvetica,sans-Serif" font-size="10.00">::const_vector_attribute</text>
</a>
</g>
</g>
<!-- Node19&#45;&gt;Node21 -->
<g id="edge27_Node000019_Node000021" class="edge">
<title>Node19&#45;&gt;Node21</title>
<g id="a_edge27_Node000019_Node000021"><a xlink:title=" ">
<path fill="none" stroke="#63b8ff" d="M1391.62,-453.12C1414.73,-469.39 1453.84,-494.96 1491,-510 1496.34,-512.16 1501.92,-514.16 1507.6,-515.99"/>
<polygon fill="#63b8ff" stroke="#63b8ff" points="1506.65,-519.36 1517.23,-518.92 1508.69,-512.66 1506.65,-519.36"/>
</a>
</g>
</g>
<!-- Node22 -->
<g id="Node000022" class="node">
<title>Node22</title>
<g id="a_Node000022"><a xlink:href="classwmtk_1_1attribute_1_1_accessor_base.html#abd60539d5779de287d2a0ec31b16c77a" target="_top" xlink:title=" ">
<polygon fill="white" stroke="#666666" points="1666,-501 1524,-501 1524,-471 1666,-471 1666,-501"/>
<text text-anchor="start" x="1532" y="-489" font-family="Helvetica,sans-Serif" font-size="10.00">wmtk::attribute::Accessor</text>
<text text-anchor="middle" x="1595" y="-478" font-family="Helvetica,sans-Serif" font-size="10.00">Base::dimension</text>
</a>
</g>
</g>
<!-- Node19&#45;&gt;Node22 -->
<g id="edge28_Node000019_Node000022" class="edge">
<title>Node19&#45;&gt;Node22</title>
<g id="a_edge28_Node000019_Node000022"><a xlink:title=" ">
<path fill="none" stroke="#63b8ff" d="M1440.95,-453.06C1464.3,-458.08 1490.49,-463.72 1514.51,-468.89"/>
<polygon fill="#63b8ff" stroke="#63b8ff" points="1513.79,-472.31 1524.3,-471 1515.26,-465.47 1513.79,-472.31"/>
</a>
</g>
</g>
<!-- Node23 -->
<g id="Node000023" class="node">
<title>Node23</title>
<g id="a_Node000023"><a xlink:href="classwmtk_1_1attribute_1_1_tuple_accessor.html#a8d04c3529eb7adeead49e8faa7a119db" target="_top" xlink:title=" ">
<polygon fill="white" stroke="#666666" points="1678.5,-453 1511.5,-453 1511.5,-423 1678.5,-423 1678.5,-453"/>
<text text-anchor="start" x="1519.5" y="-441" font-family="Helvetica,sans-Serif" font-size="10.00">wmtk::attribute::TupleAccessor</text>
<text text-anchor="middle" x="1595" y="-430" font-family="Helvetica,sans-Serif" font-size="10.00">::dimension</text>
</a>
</g>
</g>
<!-- Node19&#45;&gt;Node23 -->
<g id="edge29_Node000019_Node000023" class="edge">
<title>Node19&#45;&gt;Node23</title>
<g id="a_edge29_Node000019_Node000023"><a xlink:title=" ">
<path fill="none" stroke="#63b8ff" d="M1444.64,-438C1462.7,-438 1482.27,-438 1501.12,-438"/>
<polygon fill="#63b8ff" stroke="#63b8ff" points="1501.19,-441.5 1511.19,-438 1501.19,-434.5 1501.19,-441.5"/>
</a>
</g>
</g>
<!-- Node26 -->
<g id="Node000026" class="node">
<title>Node26</title>
<g id="a_Node000026"><a xlink:href="classwmtk_1_1simplex_1_1_simplex_collection.html#a1e7079b3b75f70dd28c524556cab76cf" target="_top" xlink:title="Add simplex to the collection.">
<polygon fill="white" stroke="#666666" points="1699,-199.5 1491,-199.5 1491,-180.5 1699,-180.5 1699,-199.5"/>
<text text-anchor="middle" x="1595" y="-187.5" font-family="Helvetica,sans-Serif" font-size="10.00">wmtk::simplex::SimplexCollection::add</text>
</a>
</g>
</g>
<!-- Node25&#45;&gt;Node26 -->
<g id="edge32_Node000025_Node000026" class="edge">
<title>Node25&#45;&gt;Node26</title>
<g id="a_edge32_Node000025_Node000026"><a xlink:title=" ">
<path fill="none" stroke="#63b8ff" d="M1445.57,-182.01C1456.94,-182.62 1468.9,-183.27 1480.87,-183.91"/>
<polygon fill="#63b8ff" stroke="#63b8ff" points="1480.76,-187.41 1490.93,-184.45 1481.13,-180.42 1480.76,-187.41"/>
</a>
</g>
</g>
<!-- Node27 -->
<g id="Node000027" class="node">
<title>Node27</title>
<g id="a_Node000027"><a xlink:href="namespacewmtk.html#a441d6ad4f19569c7d4946e743da1a925" target="_top" xlink:title=" ">
<polygon fill="white" stroke="#666666" points="1656,-162 1534,-162 1534,-132 1656,-132 1656,-162"/>
<text text-anchor="start" x="1542" y="-150" font-family="Helvetica,sans-Serif" font-size="10.00">wmtk::log_and_throw</text>
<text text-anchor="middle" x="1595" y="-139" font-family="Helvetica,sans-Serif" font-size="10.00">_error</text>
</a>
</g>
</g>
<!-- Node25&#45;&gt;Node27 -->
<g id="edge33_Node000025_Node000027" class="edge">
<title>Node25&#45;&gt;Node27</title>
<g id="a_edge33_Node000025_Node000027"><a xlink:title=" ">
<path fill="none" stroke="#63b8ff" d="M1445.57,-167.63C1470.83,-164.12 1498.94,-160.21 1523.85,-156.75"/>
<polygon fill="#63b8ff" stroke="#63b8ff" points="1524.52,-160.19 1533.94,-155.35 1523.56,-153.26 1524.52,-160.19"/>
</a>
</g>
</g>
<!-- Node25&#45;&gt;Node30 -->
<g id="edge36_Node000025_Node000030" class="edge">
<title>Node25&#45;&gt;Node30</title>
<g id="a_edge36_Node000025_Node000030"><a xlink:title=" ">
<path fill="none" stroke="#63b8ff" d="M1435,-162.9C1441.92,-160.33 1448.73,-157.38 1455,-154 1473.58,-143.98 1472.71,-133.56 1491,-123 1502.88,-116.14 1516.28,-110.28 1529.39,-105.41"/>
<polygon fill="#63b8ff" stroke="#63b8ff" points="1530.62,-108.68 1538.86,-102.03 1528.27,-102.09 1530.62,-108.68"/>
</a>
</g>
</g>
<!-- Node28 -->
<g id="Node000028" class="node">
<title>Node28</title>
<g id="a_Node000028"><a xlink:href="namespacewmtk.html#a6a35f11c12436093d26fdd8be6fecc06" target="_top" xlink:title="Retrieves the current logger.">
<polygon fill="white" stroke="#666666" points="1841,-156.5 1760,-156.5 1760,-137.5 1841,-137.5 1841,-156.5"/>
<text text-anchor="middle" x="1800.5" y="-144.5" font-family="Helvetica,sans-Serif" font-size="10.00">wmtk::logger</text>
</a>
</g>
</g>
<!-- Node27&#45;&gt;Node28 -->
<g id="edge34_Node000027_Node000028" class="edge">
<title>Node27&#45;&gt;Node28</title>
<g id="a_edge34_Node000027_Node000028"><a xlink:title=" ">
<path fill="none" stroke="#63b8ff" d="M1656.23,-147C1686.08,-147 1721.69,-147 1749.94,-147"/>
<polygon fill="#63b8ff" stroke="#63b8ff" points="1749.99,-150.5 1759.99,-147 1749.99,-143.5 1749.99,-150.5"/>
</a>
</g>
</g>
<!-- Node29 -->
<g id="Node000029" class="node">
<title>Node29</title>
<g id="a_Node000029"><a xlink:href="namespacewmtk.html#a3daa7951a5f8b78cf4600dc047fcc180" target="_top" xlink:title="Setup a logger object to be used by WildmeshToolkit.">
<polygon fill="white" stroke="#666666" points="2003,-156.5 1902,-156.5 1902,-137.5 2003,-137.5 2003,-156.5"/>
<text text-anchor="middle" x="1952.5" y="-144.5" font-family="Helvetica,sans-Serif" font-size="10.00">wmtk::set_logger</text>
</a>
</g>
</g>
<!-- Node28&#45;&gt;Node29 -->
<g id="edge35_Node000028_Node000029" class="edge">
<title>Node28&#45;&gt;Node29</title>
<g id="a_edge35_Node000028_Node000029"><a xlink:title=" ">
<path fill="none" stroke="#63b8ff" d="M1841.3,-147C1856.68,-147 1874.62,-147 1891.5,-147"/>
<polygon fill="#63b8ff" stroke="#63b8ff" points="1891.84,-150.5 1901.84,-147 1891.84,-143.5 1891.84,-150.5"/>
</a>
</g>
</g>
<!-- Node32 -->
<g id="Node000032" class="node">
<title>Node32</title>
<g id="a_Node000032"><a xlink:href="classwmtk_1_1_mesh.html#a933f681cf24a63b155c9462280385200" target="_top" xlink:title=" ">
<polygon fill="white" stroke="#666666" points="1655.5,-319 1534.5,-319 1534.5,-289 1655.5,-289 1655.5,-319"/>
<text text-anchor="start" x="1542.5" y="-307" font-family="Helvetica,sans-Serif" font-size="10.00">wmtk::Mesh::top_cell</text>
<text text-anchor="middle" x="1595" y="-296" font-family="Helvetica,sans-Serif" font-size="10.00">_dimension</text>
</a>
</g>
</g>
<!-- Node31&#45;&gt;Node32 -->
<g id="edge38_Node000031_Node000032" class="edge">
<title>Node31&#45;&gt;Node32</title>
<g id="a_edge38_Node000031_Node000032"><a xlink:title=" ">
<path fill="none" stroke="#63b8ff" d="M1455.31,-305.87C1477.99,-305.56 1502.26,-305.23 1524.07,-304.94"/>
<polygon fill="#63b8ff" stroke="#63b8ff" points="1524.27,-308.44 1534.22,-304.8 1524.18,-301.44 1524.27,-308.44"/>
</a>
</g>
</g>
<!-- Node34 -->
<g id="Node000034" class="node">
<title>Node34</title>
<g id="a_Node000034"><a xlink:href="namespacewmtk_1_1multimesh_1_1utils_1_1internal.html#a11885fe5aebd05551827804b0142945d" target="_top" xlink:title=" ">
<polygon fill="white" stroke="#666666" points="1660,-270.5 1530,-270.5 1530,-229.5 1660,-229.5 1660,-270.5"/>
<text text-anchor="start" x="1538" y="-258.5" font-family="Helvetica,sans-Serif" font-size="10.00">wmtk::multimesh::utils</text>
<text text-anchor="start" x="1538" y="-247.5" font-family="Helvetica,sans-Serif" font-size="10.00">::internal::transport</text>
<text text-anchor="middle" x="1595" y="-236.5" font-family="Helvetica,sans-Serif" font-size="10.00">_tuple_dart</text>
</a>
</g>
</g>
<!-- Node33&#45;&gt;Node34 -->
<g id="edge40_Node000033_Node000034" class="edge">
<title>Node33&#45;&gt;Node34</title>
<g id="a_edge40_Node000033_Node000034"><a xlink:title=" ">
<path fill="none" stroke="#63b8ff" d="M1435.2,-253.79C1461.56,-251.46 1492.24,-249.46 1519.57,-248.27"/>
<polygon fill="#63b8ff" stroke="#63b8ff" points="1520.02,-251.75 1529.87,-247.85 1519.73,-244.76 1520.02,-251.75"/>
</a>
</g>
</g>
<!-- Node34&#45;&gt;Node33 -->
<g id="edge41_Node000034_Node000033" class="edge">
<title>Node34&#45;&gt;Node33</title>
<g id="a_edge41_Node000034_Node000033"><a xlink:title=" ">
<path fill="none" stroke="#63b8ff" d="M1529.87,-260.2C1503.52,-262.53 1472.83,-264.54 1445.5,-265.73"/>
<polygon fill="#63b8ff" stroke="#63b8ff" points="1445.05,-262.25 1435.2,-266.15 1445.34,-269.24 1445.05,-262.25"/>
</a>
</g>
</g>
<!-- Node37 -->
<g id="Node000037" class="node">
<title>Node37</title>
<g id="a_Node000037"><a xlink:href="classwmtk_1_1attribute_1_1_accessor_base.html#a0bc77b4451d01d7372d49a11f9903e67" target="_top" xlink:title=" ">
<polygon fill="white" stroke="#666666" points="564.5,-171 422.5,-171 422.5,-141 564.5,-141 564.5,-171"/>
<text text-anchor="start" x="430.5" y="-159" font-family="Helvetica,sans-Serif" font-size="10.00">wmtk::attribute::Accessor</text>
<text text-anchor="middle" x="493.5" y="-148" font-family="Helvetica,sans-Serif" font-size="10.00">Base&lt; T, Dim &gt;::mesh</text>
</a>
</g>
</g>
<!-- Node36&#45;&gt;Node37 -->
<g id="edge46_Node000036_Node000037" class="edge">
<title>Node36&#45;&gt;Node37</title>
<g id="a_edge46_Node000036_Node000037"><a xlink:title=" ">
<path fill="none" stroke="#63b8ff" d="M357.15,-157.98C374.9,-157.72 394.11,-157.44 412.32,-157.17"/>
<polygon fill="#63b8ff" stroke="#63b8ff" points="412.37,-160.67 422.32,-157.02 412.27,-153.67 412.37,-160.67"/>
</a>
</g>
</g>
</g>
</svg>
