<?xml version="1.0" encoding="UTF-8" standalone="no"?>
<!DOCTYPE svg PUBLIC "-//W3C//DTD SVG 1.1//EN"
 "http://www.w3.org/Graphics/SVG/1.1/DTD/svg11.dtd">
<!-- Generated by graphviz version 2.43.0 (0)
 -->
<!-- Title: wmtk::invariants::EdgeValenceInvariant::before Pages: 1 -->
<svg width="1468pt" height="340pt"
 viewBox="0.00 0.00 1468.00 340.00" xmlns="http://www.w3.org/2000/svg" xmlns:xlink="http://www.w3.org/1999/xlink">
<g id="graph0" class="graph" transform="scale(1 1) rotate(0) translate(4 336)">
<title>wmtk::invariants::EdgeValenceInvariant::before</title>
<!-- Node1 -->
<g id="node1" class="node">
<title>Node1</title>
<g id="a_node1"><a xlink:title=" ">
<polygon fill="#bfbfbf" stroke="black" points="0,-178 0,-208 167,-208 167,-178 0,-178"/>
<text text-anchor="start" x="8" y="-196" font-family="Helvetica,sans-Serif" font-size="10.00">wmtk::invariants::EdgeValence</text>
<text text-anchor="middle" x="83.5" y="-185" font-family="Helvetica,sans-Serif" font-size="10.00">Invariant::before</text>
</a>
</g>
</g>
<!-- Node2 -->
<g id="node2" class="node">
<title>Node2</title>
<g id="a_node2"><a xlink:href="classwmtk_1_1invariants_1_1_invariant.html#ac97548bf5f1167cd85081d1bde011139" target="_top" xlink:title=" ">
<polygon fill="none" stroke="black" points="204,-244 204,-274 353,-274 353,-244 204,-244"/>
<text text-anchor="start" x="212" y="-262" font-family="Helvetica,sans-Serif" font-size="10.00">wmtk::invariants::Invariant</text>
<text text-anchor="middle" x="278.5" y="-251" font-family="Helvetica,sans-Serif" font-size="10.00">::mesh</text>
</a>
</g>
</g>
<!-- Node1&#45;&gt;Node2 -->
<g id="edge1" class="edge">
<title>Node1&#45;&gt;Node2</title>
<path fill="none" stroke="midnightblue" d="M128.78,-208.14C157.1,-217.83 194,-230.45 223.96,-240.69"/>
<polygon fill="midnightblue" stroke="midnightblue" points="222.83,-244 233.43,-243.93 225.1,-237.38 222.83,-244"/>
</g>
<!-- Node3 -->
<g id="node3" class="node">
<title>Node3</title>
<g id="a_node3"><a xlink:href="classwmtk_1_1simplex_1_1_simplex.html#ad2cc0340a0772b7d6f03ba7a781d1163" target="_top" xlink:title=" ">
<polygon fill="none" stroke="black" points="426.5,-266 426.5,-296 561.5,-296 561.5,-266 426.5,-266"/>
<text text-anchor="start" x="434.5" y="-284" font-family="Helvetica,sans-Serif" font-size="10.00">wmtk::simplex::Simplex</text>
<text text-anchor="middle" x="494" y="-273" font-family="Helvetica,sans-Serif" font-size="10.00">::primitive_type</text>
</a>
</g>
</g>
<!-- Node1&#45;&gt;Node3 -->
<g id="edge2" class="edge">
<title>Node1&#45;&gt;Node3</title>
<path fill="none" stroke="midnightblue" d="M167.23,-197.88C221.58,-203.01 293.54,-213.52 354,-235 371.45,-241.2 372.82,-249.08 390,-256 398.46,-259.41 407.51,-262.44 416.59,-265.1"/>
<polygon fill="midnightblue" stroke="midnightblue" points="415.87,-268.53 426.44,-267.85 417.75,-261.79 415.87,-268.53"/>
</g>
<!-- Node4 -->
<g id="node4" class="node">
<title>Node4</title>
<g id="a_node4"><a xlink:href="namespacewmtk_1_1simplex.html#ac133ab11355bb4cda7e8b1e3ed48226f" target="_top" xlink:title=" ">
<polygon fill="none" stroke="black" points="203,-156 203,-186 354,-186 354,-156 203,-156"/>
<text text-anchor="start" x="211" y="-174" font-family="Helvetica,sans-Serif" font-size="10.00">wmtk::simplex::top</text>
<text text-anchor="middle" x="278.5" y="-163" font-family="Helvetica,sans-Serif" font-size="10.00">_dimension_cofaces_tuples</text>
</a>
</g>
</g>
<!-- Node1&#45;&gt;Node4 -->
<g id="edge3" class="edge">
<title>Node1&#45;&gt;Node4</title>
<path fill="none" stroke="midnightblue" d="M167.19,-183.57C175.72,-182.6 184.4,-181.61 192.95,-180.64"/>
<polygon fill="midnightblue" stroke="midnightblue" points="193.37,-184.11 202.91,-179.5 192.58,-177.16 193.37,-184.11"/>
</g>
<!-- Node22 -->
<g id="node22" class="node">
<title>Node22</title>
<g id="a_node22"><a xlink:href="classwmtk_1_1simplex_1_1_simplex.html#a3650fd31ff1864285502dba66db3c73c" target="_top" xlink:title=" ">
<polygon fill="none" stroke="black" points="426.5,-52 426.5,-82 561.5,-82 561.5,-52 426.5,-52"/>
<text text-anchor="start" x="434.5" y="-70" font-family="Helvetica,sans-Serif" font-size="10.00">wmtk::simplex::Simplex</text>
<text text-anchor="middle" x="494" y="-59" font-family="Helvetica,sans-Serif" font-size="10.00">::tuple</text>
</a>
</g>
</g>
<!-- Node1&#45;&gt;Node22 -->
<g id="edge27" class="edge">
<title>Node1&#45;&gt;Node22</title>
<path fill="none" stroke="midnightblue" d="M119.38,-177.98C142.79,-168.19 174.45,-155.52 203,-146 275.89,-121.7 360.86,-99.22 419.91,-84.51"/>
<polygon fill="midnightblue" stroke="midnightblue" points="421.02,-87.84 429.89,-82.03 419.34,-81.04 421.02,-87.84"/>
</g>
<!-- Node4&#45;&gt;Node3 -->
<g id="edge14" class="edge">
<title>Node4&#45;&gt;Node3</title>
<path fill="none" stroke="midnightblue" d="M329.16,-186.05C337.98,-190.05 346.67,-194.99 354,-201 376.59,-219.53 366.13,-239.15 390,-256 398.06,-261.69 407.27,-266.09 416.78,-269.5"/>
<polygon fill="midnightblue" stroke="midnightblue" points="415.77,-272.85 426.36,-272.58 417.92,-266.19 415.77,-272.85"/>
</g>
<!-- Node5 -->
<g id="node5" class="node">
<title>Node5</title>
<g id="a_node5"><a xlink:href="classwmtk_1_1simplex_1_1_simplex_collection.html#a1e7079b3b75f70dd28c524556cab76cf" target="_top" xlink:title="Add simplex to the collection.">
<polygon fill="none" stroke="black" points="390,-227.5 390,-246.5 598,-246.5 598,-227.5 390,-227.5"/>
<text text-anchor="middle" x="494" y="-234.5" font-family="Helvetica,sans-Serif" font-size="10.00">wmtk::simplex::SimplexCollection::add</text>
</a>
</g>
</g>
<!-- Node4&#45;&gt;Node5 -->
<g id="edge4" class="edge">
<title>Node4&#45;&gt;Node5</title>
<path fill="none" stroke="midnightblue" d="M318.35,-186.14C329.88,-190.78 342.5,-195.97 354,-201 370.21,-208.09 373.16,-212.57 390,-218 398.64,-220.79 407.83,-223.21 417.03,-225.3"/>
<polygon fill="midnightblue" stroke="midnightblue" points="416.47,-228.76 426.98,-227.45 417.94,-221.92 416.47,-228.76"/>
</g>
<!-- Node6 -->
<g id="node6" class="node">
<title>Node6</title>
<g id="a_node6"><a xlink:href="classwmtk_1_1_edge_mesh.html#a534952cf2729f1509a380e3e9afb65b7" target="_top" xlink:title=" ">
<polygon fill="none" stroke="black" points="821.5,-39 821.5,-69 936.5,-69 936.5,-39 821.5,-39"/>
<text text-anchor="start" x="829.5" y="-57" font-family="Helvetica,sans-Serif" font-size="10.00">wmtk::EdgeMesh::is</text>
<text text-anchor="middle" x="879" y="-46" font-family="Helvetica,sans-Serif" font-size="10.00">_boundary_vertex</text>
</a>
</g>
</g>
<!-- Node4&#45;&gt;Node6 -->
<g id="edge5" class="edge">
<title>Node4&#45;&gt;Node6</title>
<path fill="none" stroke="midnightblue" d="M314.75,-155.85C336.17,-147.18 364.26,-136.71 390,-130 468.43,-109.56 697.14,-77.87 811.41,-62.68"/>
<polygon fill="midnightblue" stroke="midnightblue" points="811.98,-66.14 821.44,-61.35 811.06,-59.2 811.98,-66.14"/>
</g>
<!-- Node12 -->
<g id="node12" class="node">
<title>Node12</title>
<g id="a_node12"><a xlink:href="namespacewmtk.html#a441d6ad4f19569c7d4946e743da1a925" target="_top" xlink:title=" ">
<polygon fill="none" stroke="black" points="433,-178 433,-208 555,-208 555,-178 433,-178"/>
<text text-anchor="start" x="441" y="-196" font-family="Helvetica,sans-Serif" font-size="10.00">wmtk::log_and_throw</text>
<text text-anchor="middle" x="494" y="-185" font-family="Helvetica,sans-Serif" font-size="10.00">_error</text>
</a>
</g>
</g>
<!-- Node4&#45;&gt;Node12 -->
<g id="edge11" class="edge">
<title>Node4&#45;&gt;Node12</title>
<path fill="none" stroke="midnightblue" d="M354.17,-178.69C376.39,-180.98 400.65,-183.48 422.58,-185.74"/>
<polygon fill="midnightblue" stroke="midnightblue" points="422.5,-189.25 432.81,-186.8 423.22,-182.29 422.5,-189.25"/>
</g>
<!-- Node15 -->
<g id="node15" class="node">
<title>Node15</title>
<g id="a_node15"><a xlink:href="classwmtk_1_1_edge_mesh.html#a04f6595fe85e52dc6bf1e02512120100" target="_top" xlink:title=" ">
<polygon fill="none" stroke="black" points="410.5,-139.5 410.5,-158.5 577.5,-158.5 577.5,-139.5 410.5,-139.5"/>
<text text-anchor="middle" x="494" y="-146.5" font-family="Helvetica,sans-Serif" font-size="10.00">wmtk::EdgeMesh::switch_edge</text>
</a>
</g>
</g>
<!-- Node4&#45;&gt;Node15 -->
<g id="edge15" class="edge">
<title>Node4&#45;&gt;Node15</title>
<path fill="none" stroke="midnightblue" d="M354.17,-163.31C369.07,-161.77 384.88,-160.14 400.3,-158.55"/>
<polygon fill="midnightblue" stroke="midnightblue" points="400.77,-162.02 410.36,-157.52 400.05,-155.06 400.77,-162.02"/>
</g>
<!-- Node4&#45;&gt;Node22 -->
<g id="edge26" class="edge">
<title>Node4&#45;&gt;Node22</title>
<path fill="none" stroke="midnightblue" d="M302.75,-155.92C317.5,-146.31 336.94,-133.53 354,-122 370.14,-111.09 372.42,-105.39 390,-97 399.36,-92.53 409.53,-88.59 419.7,-85.15"/>
<polygon fill="midnightblue" stroke="midnightblue" points="420.99,-88.41 429.43,-82.01 418.84,-81.75 420.99,-88.41"/>
</g>
<!-- Node7 -->
<g id="node7" class="node">
<title>Node7</title>
<g id="a_node7"><a xlink:href="classwmtk_1_1attribute_1_1_accessor.html#acbfbd5a98532cf295fdf6dd64066bb26" target="_top" xlink:title=" ">
<polygon fill="none" stroke="black" points="986,-121 986,-151 1128,-151 1128,-121 986,-121"/>
<text text-anchor="start" x="994" y="-139" font-family="Helvetica,sans-Serif" font-size="10.00">wmtk::attribute::Accessor</text>
<text text-anchor="middle" x="1057" y="-128" font-family="Helvetica,sans-Serif" font-size="10.00">::const_vector_attribute</text>
</a>
</g>
</g>
<!-- Node6&#45;&gt;Node7 -->
<g id="edge6" class="edge">
<title>Node6&#45;&gt;Node7</title>
<path fill="none" stroke="midnightblue" d="M912.28,-69.04C940.97,-82.41 983.08,-102.03 1014.31,-116.58"/>
<polygon fill="midnightblue" stroke="midnightblue" points="1013.08,-119.87 1023.63,-120.92 1016.04,-113.52 1013.08,-119.87"/>
</g>
<!-- Node8 -->
<g id="node8" class="node">
<title>Node8</title>
<g id="a_node8"><a xlink:href="classwmtk_1_1_edge_mesh.html#acd802c89cf0cba9c312a8e7ecfa11c80" target="_top" xlink:title="check validity of tuple including its hash">
<polygon fill="none" stroke="black" points="999.5,-39 999.5,-69 1114.5,-69 1114.5,-39 999.5,-39"/>
<text text-anchor="start" x="1007.5" y="-57" font-family="Helvetica,sans-Serif" font-size="10.00">wmtk::EdgeMesh::is</text>
<text text-anchor="middle" x="1057" y="-46" font-family="Helvetica,sans-Serif" font-size="10.00">_valid</text>
</a>
</g>
</g>
<!-- Node6&#45;&gt;Node8 -->
<g id="edge7" class="edge">
<title>Node6&#45;&gt;Node8</title>
<path fill="none" stroke="midnightblue" d="M936.66,-54C953.46,-54 972.01,-54 989.38,-54"/>
<polygon fill="midnightblue" stroke="midnightblue" points="989.45,-57.5 999.45,-54 989.45,-50.5 989.45,-57.5"/>
</g>
<!-- Node9 -->
<g id="node9" class="node">
<title>Node9</title>
<g id="a_node9"><a xlink:href="classwmtk_1_1_mesh.html#a8cc8686f0688613806f43720b6db49e7" target="_top" xlink:title="check validity of tuple including its hash">
<polygon fill="none" stroke="black" points="1164,-44.5 1164,-63.5 1284,-63.5 1284,-44.5 1164,-44.5"/>
<text text-anchor="middle" x="1224" y="-51.5" font-family="Helvetica,sans-Serif" font-size="10.00">wmtk::Mesh::is_valid</text>
</a>
</g>
</g>
<!-- Node8&#45;&gt;Node9 -->
<g id="edge8" class="edge">
<title>Node8&#45;&gt;Node9</title>
<path fill="none" stroke="midnightblue" d="M1114.78,-54C1127.29,-54 1140.67,-54 1153.61,-54"/>
<polygon fill="midnightblue" stroke="midnightblue" points="1153.86,-57.5 1163.86,-54 1153.86,-50.5 1153.86,-57.5"/>
</g>
<!-- Node10 -->
<g id="node10" class="node">
<title>Node10</title>
<g id="a_node10"><a xlink:href="classwmtk_1_1_tuple.html#a0023f575be92cd5ceeeaaaa3762ea06d" target="_top" xlink:title="Checks if a tuple is &quot;null&quot;. This merely implies the global index is &#45;1.">
<polygon fill="none" stroke="black" points="1333.5,-63.5 1333.5,-82.5 1446.5,-82.5 1446.5,-63.5 1333.5,-63.5"/>
<text text-anchor="middle" x="1390" y="-70.5" font-family="Helvetica,sans-Serif" font-size="10.00">wmtk::Tuple::is_null</text>
</a>
</g>
</g>
<!-- Node9&#45;&gt;Node10 -->
<g id="edge9" class="edge">
<title>Node9&#45;&gt;Node10</title>
<path fill="none" stroke="midnightblue" d="M1284.21,-60.86C1296.88,-62.33 1310.33,-63.89 1323.23,-65.38"/>
<polygon fill="midnightblue" stroke="midnightblue" points="1323.1,-68.89 1333.43,-66.56 1323.9,-61.93 1323.1,-68.89"/>
</g>
<!-- Node11 -->
<g id="node11" class="node">
<title>Node11</title>
<g id="a_node11"><a xlink:href="classwmtk_1_1_mesh.html#ade176d345902d97af8c5da04aa3a095b" target="_top" xlink:title=" ">
<polygon fill="none" stroke="black" points="1320,-25.5 1320,-44.5 1460,-44.5 1460,-25.5 1320,-25.5"/>
<text text-anchor="middle" x="1390" y="-32.5" font-family="Helvetica,sans-Serif" font-size="10.00">wmtk::Mesh::is_removed</text>
</a>
</g>
</g>
<!-- Node9&#45;&gt;Node11 -->
<g id="edge10" class="edge">
<title>Node9&#45;&gt;Node11</title>
<path fill="none" stroke="midnightblue" d="M1284.21,-47.14C1292.52,-46.18 1301.17,-45.18 1309.77,-44.18"/>
<polygon fill="midnightblue" stroke="midnightblue" points="1310.3,-47.64 1319.84,-43.01 1309.5,-40.69 1310.3,-47.64"/>
</g>
<!-- Node13 -->
<g id="node13" class="node">
<title>Node13</title>
<g id="a_node13"><a xlink:href="namespacewmtk.html#a6a35f11c12436093d26fdd8be6fecc06" target="_top" xlink:title="Retrieves the current logger.">
<polygon fill="none" stroke="black" points="662.5,-260.5 662.5,-279.5 743.5,-279.5 743.5,-260.5 662.5,-260.5"/>
<text text-anchor="middle" x="703" y="-267.5" font-family="Helvetica,sans-Serif" font-size="10.00">wmtk::logger</text>
</a>
</g>
</g>
<!-- Node12&#45;&gt;Node13 -->
<g id="edge12" class="edge">
<title>Node12&#45;&gt;Node13</title>
<path fill="none" stroke="midnightblue" d="M555.05,-205.16C569.31,-208.71 584.35,-213 598,-218 625.95,-228.23 656.19,-243.92 676.83,-255.39"/>
<polygon fill="midnightblue" stroke="midnightblue" points="675.16,-258.47 685.59,-260.33 678.59,-252.37 675.16,-258.47"/>
</g>
<!-- Node14 -->
<g id="node14" class="node">
<title>Node14</title>
<g id="a_node14"><a xlink:href="namespacewmtk.html#a3daa7951a5f8b78cf4600dc047fcc180" target="_top" xlink:title="Setup a logger object to be used by WildmeshToolkit.">
<polygon fill="none" stroke="black" points="828.5,-312.5 828.5,-331.5 929.5,-331.5 929.5,-312.5 828.5,-312.5"/>
<text text-anchor="middle" x="879" y="-319.5" font-family="Helvetica,sans-Serif" font-size="10.00">wmtk::set_logger</text>
</a>
</g>
</g>
<!-- Node13&#45;&gt;Node14 -->
<g id="edge13" class="edge">
<title>Node13&#45;&gt;Node14</title>
<path fill="none" stroke="midnightblue" d="M733.04,-279.58C753.84,-286.35 782.56,-295.51 808,-303 815.64,-305.25 823.79,-307.55 831.71,-309.73"/>
<polygon fill="midnightblue" stroke="midnightblue" points="831.02,-313.17 841.59,-312.43 832.86,-306.42 831.02,-313.17"/>
</g>
<!-- Node16 -->
<g id="node16" class="node">
<title>Node16</title>
<g id="a_node16"><a xlink:href="classwmtk_1_1_edge_mesh.html#a46725851b572b51a356450adc30c14ed" target="_top" xlink:title="switch the orientation of the Tuple of the given dimension">
<polygon fill="none" stroke="black" points="634,-140 634,-170 772,-170 772,-140 634,-140"/>
<text text-anchor="start" x="642" y="-158" font-family="Helvetica,sans-Serif" font-size="10.00">wmtk::EdgeMesh::switch</text>
<text text-anchor="middle" x="703" y="-147" font-family="Helvetica,sans-Serif" font-size="10.00">_tuple</text>
</a>
</g>
</g>
<!-- Node15&#45;&gt;Node16 -->
<g id="edge16" class="edge">
<title>Node15&#45;&gt;Node16</title>
<path fill="none" stroke="midnightblue" d="M577.7,-151.4C592.8,-151.83 608.51,-152.29 623.49,-152.72"/>
<polygon fill="midnightblue" stroke="midnightblue" points="623.62,-156.23 633.71,-153.02 623.82,-149.23 623.62,-156.23"/>
</g>
<!-- Node16&#45;&gt;Node7 -->
<g id="edge18" class="edge">
<title>Node16&#45;&gt;Node7</title>
<path fill="none" stroke="midnightblue" d="M772.01,-158.23C821.48,-159.79 890.02,-160.33 950,-155 958.37,-154.26 967.06,-153.19 975.71,-151.93"/>
<polygon fill="midnightblue" stroke="midnightblue" points="976.46,-155.36 985.82,-150.38 975.4,-148.44 976.46,-155.36"/>
</g>
<!-- Node16&#45;&gt;Node8 -->
<g id="edge25" class="edge">
<title>Node16&#45;&gt;Node8</title>
<path fill="none" stroke="midnightblue" d="M742.21,-139.98C761.73,-132.58 785.96,-123.81 808,-117 868.88,-98.2 939.4,-80.69 989.64,-68.92"/>
<polygon fill="midnightblue" stroke="midnightblue" points="990.46,-72.33 999.4,-66.65 988.87,-65.51 990.46,-72.33"/>
</g>
<!-- Node17 -->
<g id="node17" class="node">
<title>Node17</title>
<g id="a_node17"><a xlink:href="classwmtk_1_1attribute_1_1_caching_accessor.html#ab7a79d239fdc3d22fbc0c3a83a5c50bc" target="_top" xlink:title=" ">
<polygon fill="none" stroke="black" points="810.5,-202.5 810.5,-243.5 947.5,-243.5 947.5,-202.5 810.5,-202.5"/>
<text text-anchor="start" x="818.5" y="-231.5" font-family="Helvetica,sans-Serif" font-size="10.00">wmtk::attribute::Caching</text>
<text text-anchor="start" x="818.5" y="-220.5" font-family="Helvetica,sans-Serif" font-size="10.00">Accessor::const_vector</text>
<text text-anchor="middle" x="879" y="-209.5" font-family="Helvetica,sans-Serif" font-size="10.00">_attribute</text>
</a>
</g>
</g>
<!-- Node16&#45;&gt;Node17 -->
<g id="edge17" class="edge">
<title>Node16&#45;&gt;Node17</title>
<path fill="none" stroke="midnightblue" d="M742.62,-170.09C764.09,-178.49 791.34,-189.13 815.75,-198.67"/>
<polygon fill="midnightblue" stroke="midnightblue" points="814.72,-202.03 825.3,-202.41 817.26,-195.51 814.72,-202.03"/>
</g>
<!-- Node18 -->
<g id="node18" class="node">
<title>Node18</title>
<g id="a_node18"><a xlink:href="classwmtk_1_1_edge_mesh.html#a34530ca80c07ae67ffe601c2b8f22e3e" target="_top" xlink:title=" ">
<polygon fill="none" stroke="black" points="821,-126.5 821,-145.5 937,-145.5 937,-126.5 821,-126.5"/>
<text text-anchor="middle" x="879" y="-133.5" font-family="Helvetica,sans-Serif" font-size="10.00">wmtk::EdgeMesh::id</text>
</a>
</g>
</g>
<!-- Node16&#45;&gt;Node18 -->
<g id="edge19" class="edge">
<title>Node16&#45;&gt;Node18</title>
<path fill="none" stroke="midnightblue" d="M772.27,-147.55C784.97,-146.16 798.22,-144.71 810.88,-143.33"/>
<polygon fill="midnightblue" stroke="midnightblue" points="811.33,-146.8 820.89,-142.24 810.57,-139.84 811.33,-146.8"/>
</g>
<!-- Node19 -->
<g id="node19" class="node">
<title>Node19</title>
<g id="a_node19"><a xlink:href="classwmtk_1_1attribute_1_1_accessor.html#a41f40a73a13789707c117bda177dfc83" target="_top" xlink:title=" ">
<polygon fill="none" stroke="black" points="808,-263 808,-293 950,-293 950,-263 808,-263"/>
<text text-anchor="start" x="816" y="-281" font-family="Helvetica,sans-Serif" font-size="10.00">wmtk::attribute::Accessor</text>
<text text-anchor="middle" x="879" y="-270" font-family="Helvetica,sans-Serif" font-size="10.00">::index_access</text>
</a>
</g>
</g>
<!-- Node16&#45;&gt;Node19 -->
<g id="edge21" class="edge">
<title>Node16&#45;&gt;Node19</title>
<path fill="none" stroke="midnightblue" d="M716.59,-170.33C734.77,-191.57 770.34,-229.94 808,-253 811.37,-255.06 814.94,-256.99 818.6,-258.79"/>
<polygon fill="midnightblue" stroke="midnightblue" points="817.31,-262.04 827.87,-262.97 820.2,-255.67 817.31,-262.04"/>
</g>
<!-- Node21 -->
<g id="node21" class="node">
<title>Node21</title>
<g id="a_node21"><a xlink:href="classwmtk_1_1_edge_mesh.html#a83db0c93833dacdfb169807d8ba4b6ca" target="_top" xlink:title="TODO this needs dimension?">
<polygon fill="none" stroke="black" points="809.5,-0.5 809.5,-19.5 948.5,-19.5 948.5,-0.5 809.5,-0.5"/>
<text text-anchor="middle" x="879" y="-7.5" font-family="Helvetica,sans-Serif" font-size="10.00">wmtk::EdgeMesh::is_ccw</text>
</a>
</g>
</g>
<!-- Node16&#45;&gt;Node21 -->
<g id="edge23" class="edge">
<title>Node16&#45;&gt;Node21</title>
<path fill="none" stroke="midnightblue" d="M712.39,-139.6C727.73,-112.89 762.95,-58.06 808,-29 811.3,-26.87 814.83,-24.98 818.49,-23.3"/>
<polygon fill="midnightblue" stroke="midnightblue" points="819.84,-26.53 827.8,-19.54 817.22,-20.04 819.84,-26.53"/>
</g>
<!-- Node18&#45;&gt;Node7 -->
<g id="edge20" class="edge">
<title>Node18&#45;&gt;Node7</title>
<path fill="none" stroke="midnightblue" d="M937.14,-136C949.42,-136 962.61,-136 975.58,-136"/>
<polygon fill="midnightblue" stroke="midnightblue" points="975.92,-139.5 985.92,-136 975.92,-132.5 975.92,-139.5"/>
</g>
<!-- Node20 -->
<g id="node20" class="node">
<title>Node20</title>
<g id="a_node20"><a xlink:href="classwmtk_1_1attribute_1_1_accessor.html#a9c7d323f50911892c8ea738f97d041d4" target="_top" xlink:title=" ">
<polygon fill="none" stroke="black" points="986,-263 986,-293 1128,-293 1128,-263 986,-263"/>
<text text-anchor="start" x="994" y="-281" font-family="Helvetica,sans-Serif" font-size="10.00">wmtk::attribute::Accessor</text>
<text text-anchor="middle" x="1057" y="-270" font-family="Helvetica,sans-Serif" font-size="10.00">::caching_base_type</text>
</a>
</g>
</g>
<!-- Node19&#45;&gt;Node20 -->
<g id="edge22" class="edge">
<title>Node19&#45;&gt;Node20</title>
<path fill="none" stroke="midnightblue" d="M950.07,-278C958.54,-278 967.25,-278 975.85,-278"/>
<polygon fill="midnightblue" stroke="midnightblue" points="975.89,-281.5 985.89,-278 975.89,-274.5 975.89,-281.5"/>
</g>
<!-- Node21&#45;&gt;Node8 -->
<g id="edge24" class="edge">
<title>Node21&#45;&gt;Node8</title>
<path fill="none" stroke="midnightblue" d="M918.19,-19.55C939.07,-24.77 965.53,-31.38 989.67,-37.42"/>
<polygon fill="midnightblue" stroke="midnightblue" points="988.95,-40.84 999.5,-39.87 990.64,-34.05 988.95,-40.84"/>
</g>
</g>
</svg>
