<?xml version="1.0" encoding="UTF-8" standalone="no"?>
<!DOCTYPE svg PUBLIC "-//W3C//DTD SVG 1.1//EN"
 "http://www.w3.org/Graphics/SVG/1.1/DTD/svg11.dtd">
<!-- Generated by graphviz version 2.43.0 (0)
 -->
<!-- Title: wmtk::TriMesh::tuple_from_id Pages: 1 -->
<!--zoomable 574 -->
<svg id="main" version="1.1" xmlns="http://www.w3.org/2000/svg" xmlns:xlink="http://www.w3.org/1999/xlink" xml:space="preserve" onload="init(evt)">
<style type="text/css"><![CDATA[
.edge:hover path { stroke: red; }
.edge:hover polygon { stroke: red; fill: red; }
]]></style>
<script type="text/javascript"><![CDATA[
var edges = document.getElementsByTagName('g');
if (edges && edges.length) {
  for (var i=0;i<edges.length;i++) {
    if (edges[i].id.substr(0,4)=='edge') {
      edges[i].setAttribute('class','edge');
    }
  }
}
]]></script>
        <defs>
                <circle id="rim" cx="0" cy="0" r="7"/>
                <circle id="rim2" cx="0" cy="0" r="3.5"/>
                <g id="zoomPlus">
                        <use xlink:href="#rim" fill="#404040">
                                <set attributeName="fill" to="#808080" begin="zoomplus.mouseover" end="zoomplus.mouseout"/>
                        </use>
                        <path d="M-4,0h8M0,-4v8" fill="none" stroke="white" stroke-width="1.5" pointer-events="none"/>
                </g>
                <g id="zoomMin">
                        <use xlink:href="#rim" fill="#404040">
                                <set attributeName="fill" to="#808080" begin="zoomminus.mouseover" end="zoomminus.mouseout"/>
                        </use>
                        <path d="M-4,0h8" fill="none" stroke="white" stroke-width="1.5" pointer-events="none"/>
                </g>
                <g id="dirArrow">
                        <path fill="none" stroke="white" stroke-width="1.5" d="M0,-3.0v7 M-2.5,-0.5L0,-3.0L2.5,-0.5"/>
                </g>
               <g id="resetDef">
                       <use xlink:href="#rim2" fill="#404040">
                               <set attributeName="fill" to="#808080" begin="reset.mouseover" end="reset.mouseout"/>
                       </use>
               </g>
        </defs>

<script type="text/javascript">
var viewWidth = 1406;
var viewHeight = 574;
var sectionId = 'dynsection-42';
</script>
<script xlink:href="svgpan.js"/>
<svg id="graph" class="graph">
<g id="viewport">
<title>wmtk::TriMesh::tuple_from_id</title>
<!-- Node1 -->
<g id="node1" class="node">
<title>Node1</title>
<g id="a_node1"><a xlink:title="internal function that returns the tuple of requested type, and has the global index cid">
<polygon fill="#bfbfbf" stroke="black" points="0,-88 0,-118 119,-118 119,-88 0,-88"/>
<text text-anchor="start" x="8" y="-106" font-family="Helvetica,sans-Serif" font-size="10.00">wmtk::TriMesh::tuple</text>
<text text-anchor="middle" x="59.5" y="-95" font-family="Helvetica,sans-Serif" font-size="10.00">_from_id</text>
</a>
</g>
</g>
<!-- Node2 -->
<g id="node2" class="node">
<title>Node2</title>
<g id="a_node2"><a xlink:href="classwmtk_1_1_tri_mesh.html#ae68edb47957a4207ffb2e40f2f3686a8" target="_top" xlink:title=" ">
<polygon fill="none" stroke="black" points="158.5,-148 158.5,-178 276.5,-178 276.5,-148 158.5,-148"/>
<text text-anchor="start" x="166.5" y="-166" font-family="Helvetica,sans-Serif" font-size="10.00">wmtk::TriMesh::edge</text>
<text text-anchor="middle" x="217.5" y="-155" font-family="Helvetica,sans-Serif" font-size="10.00">_tuple_from_id</text>
</a>
</g>
</g>
<!-- Node1&#45;&gt;Node2 -->
<g id="edge1" class="edge">
<title>Node1&#45;&gt;Node2</title>
<path fill="none" stroke="midnightblue" d="M99.87,-118.14C120.54,-126.09 146.07,-135.91 167.96,-144.33"/>
<polygon fill="midnightblue" stroke="midnightblue" points="166.83,-147.65 177.42,-147.97 169.34,-141.11 166.83,-147.65"/>
</g>
<!-- Node31 -->
<g id="node31" class="node">
<title>Node31</title>
<g id="a_node31"><a xlink:href="classwmtk_1_1_tri_mesh.html#a16693e4d11c3791da89396b412ae48db" target="_top" xlink:title=" ">
<polygon fill="none" stroke="black" points="160,-39 160,-69 275,-69 275,-39 160,-39"/>
<text text-anchor="start" x="168" y="-57" font-family="Helvetica,sans-Serif" font-size="10.00">wmtk::TriMesh::face</text>
<text text-anchor="middle" x="217.5" y="-46" font-family="Helvetica,sans-Serif" font-size="10.00">_tuple_from_id</text>
</a>
</g>
</g>
<!-- Node1&#45;&gt;Node31 -->
<g id="edge40" class="edge">
<title>Node1&#45;&gt;Node31</title>
<path fill="none" stroke="midnightblue" d="M108.58,-87.9C124.52,-82.89 142.42,-77.27 159,-72.06"/>
<polygon fill="midnightblue" stroke="midnightblue" points="160.09,-75.39 168.58,-69.05 157.99,-68.71 160.09,-75.39"/>
</g>
<!-- Node34 -->
<g id="node34" class="node">
<title>Node34</title>
<g id="a_node34"><a xlink:href="classwmtk_1_1_tri_mesh.html#a6165486fcd93cad88ad55456bd7efbba" target="_top" xlink:title=" ">
<polygon fill="none" stroke="black" points="155,-88 155,-118 280,-118 280,-88 155,-88"/>
<text text-anchor="start" x="163" y="-106" font-family="Helvetica,sans-Serif" font-size="10.00">wmtk::TriMesh::vertex</text>
<text text-anchor="middle" x="217.5" y="-95" font-family="Helvetica,sans-Serif" font-size="10.00">_tuple_from_id</text>
</a>
</g>
</g>
<!-- Node1&#45;&gt;Node34 -->
<g id="edge47" class="edge">
<title>Node1&#45;&gt;Node34</title>
<path fill="none" stroke="midnightblue" d="M119.03,-103C127.42,-103 136.13,-103 144.74,-103"/>
<polygon fill="midnightblue" stroke="midnightblue" points="144.77,-106.5 154.77,-103 144.77,-99.5 144.77,-106.5"/>
</g>
<!-- Node3 -->
<g id="node3" class="node">
<title>Node3</title>
<g id="a_node3"><a xlink:href="classwmtk_1_1_mesh.html#a4bcf7281ec7f3bdfd506ffc87fc092d3" target="_top" xlink:title=" ">
<polygon fill="none" stroke="black" points="688,-255.5 688,-274.5 837,-274.5 837,-255.5 688,-255.5"/>
<text text-anchor="middle" x="762.5" y="-262.5" font-family="Helvetica,sans-Serif" font-size="10.00">wmtk::Mesh::get_cell_hash</text>
</a>
</g>
</g>
<!-- Node2&#45;&gt;Node3 -->
<g id="edge2" class="edge">
<title>Node2&#45;&gt;Node3</title>
<path fill="none" stroke="midnightblue" d="M276.63,-176.44C330.11,-188.58 411.68,-206.56 483,-220 551.65,-232.93 630.25,-245.42 686.4,-253.95"/>
<polygon fill="midnightblue" stroke="midnightblue" points="686.21,-257.46 696.62,-255.49 687.25,-250.54 686.21,-257.46"/>
</g>
<!-- Node7 -->
<g id="node7" class="node">
<title>Node7</title>
<g id="a_node7"><a xlink:href="classwmtk_1_1_mesh.html#adf199d6a3ce6badd8bfa0e2ab3a1c1aa" target="_top" xlink:title=" ">
<polygon fill="none" stroke="black" points="697.5,-58 697.5,-88 827.5,-88 827.5,-58 697.5,-58"/>
<text text-anchor="start" x="705.5" y="-76" font-family="Helvetica,sans-Serif" font-size="10.00">wmtk::Mesh::get_const</text>
<text text-anchor="middle" x="762.5" y="-65" font-family="Helvetica,sans-Serif" font-size="10.00">_cell_hash_accessor</text>
</a>
</g>
</g>
<!-- Node2&#45;&gt;Node7 -->
<g id="edge6" class="edge">
<title>Node2&#45;&gt;Node7</title>
<path fill="none" stroke="midnightblue" d="M276.63,-172.72C324.52,-178.04 393.09,-179.32 447,-155 468.21,-145.43 462.41,-127.84 483,-117 517.52,-98.83 617.04,-86.22 687.22,-79.3"/>
<polygon fill="midnightblue" stroke="midnightblue" points="687.74,-82.77 697.35,-78.32 687.06,-75.8 687.74,-82.77"/>
</g>
<!-- Node12 -->
<g id="node12" class="node">
<title>Node12</title>
<g id="a_node12"><a xlink:href="classwmtk_1_1_tri_mesh.html#a9975c25ed665c9c9a7f1ae92818a1b7c" target="_top" xlink:title=" ">
<polygon fill="none" stroke="black" points="330,-126.5 330,-145.5 433,-145.5 433,-126.5 330,-126.5"/>
<text text-anchor="middle" x="381.5" y="-133.5" font-family="Helvetica,sans-Serif" font-size="10.00">wmtk::TriMesh::id</text>
</a>
</g>
</g>
<!-- Node2&#45;&gt;Node12 -->
<g id="edge11" class="edge">
<title>Node2&#45;&gt;Node12</title>
<path fill="none" stroke="midnightblue" d="M276.53,-153.33C290.56,-150.99 305.58,-148.49 319.73,-146.13"/>
<polygon fill="midnightblue" stroke="midnightblue" points="320.56,-149.54 329.85,-144.44 319.41,-142.63 320.56,-149.54"/>
</g>
<!-- Node13 -->
<g id="node13" class="node">
<title>Node13</title>
<g id="a_node13"><a xlink:href="classwmtk_1_1_tri_mesh.html#ab5a7b693c52023d7277e8c00f975911d" target="_top" xlink:title="TODO this needs dimension?">
<polygon fill="none" stroke="black" points="318.5,-88.5 318.5,-107.5 444.5,-107.5 444.5,-88.5 318.5,-88.5"/>
<text text-anchor="middle" x="381.5" y="-95.5" font-family="Helvetica,sans-Serif" font-size="10.00">wmtk::TriMesh::is_ccw</text>
</a>
</g>
</g>
<!-- Node2&#45;&gt;Node13 -->
<g id="edge12" class="edge">
<title>Node2&#45;&gt;Node13</title>
<path fill="none" stroke="midnightblue" d="M247.43,-147.91C266.56,-138.29 292.39,-125.99 316,-117 321.94,-114.74 328.28,-112.58 334.57,-110.58"/>
<polygon fill="midnightblue" stroke="midnightblue" points="335.81,-113.86 344.35,-107.58 333.76,-107.17 335.81,-113.86"/>
</g>
<!-- Node19 -->
<g id="node19" class="node">
<title>Node19</title>
<g id="a_node19"><a xlink:href="classwmtk_1_1_tri_mesh.html#a19371b398882cd97e736b811487b566a" target="_top" xlink:title="check validity of tuple including its hash">
<polygon fill="none" stroke="black" points="316,-318.5 316,-337.5 447,-337.5 447,-318.5 316,-318.5"/>
<text text-anchor="middle" x="381.5" y="-325.5" font-family="Helvetica,sans-Serif" font-size="10.00">wmtk::TriMesh::is_valid</text>
</a>
</g>
</g>
<!-- Node2&#45;&gt;Node19 -->
<g id="edge20" class="edge">
<title>Node2&#45;&gt;Node19</title>
<path fill="none" stroke="midnightblue" d="M230.02,-178.02C247.51,-200.41 282.29,-243.4 316,-276 329.44,-289 345.86,-302.21 358.77,-312.06"/>
<polygon fill="midnightblue" stroke="midnightblue" points="356.98,-315.08 367.07,-318.3 361.18,-309.49 356.98,-315.08"/>
</g>
<!-- Node4 -->
<g id="node4" class="node">
<title>Node4</title>
<g id="a_node4"><a xlink:href="classwmtk_1_1attribute_1_1_caching_accessor.html#a46aa3c2780f6789c42c537ee4ecb5b86" target="_top" xlink:title=" ">
<polygon fill="none" stroke="black" points="877.5,-244.5 877.5,-285.5 1014.5,-285.5 1014.5,-244.5 877.5,-244.5"/>
<text text-anchor="start" x="885.5" y="-273.5" font-family="Helvetica,sans-Serif" font-size="10.00">wmtk::attribute::Caching</text>
<text text-anchor="start" x="885.5" y="-262.5" font-family="Helvetica,sans-Serif" font-size="10.00">Accessor::const_scalar</text>
<text text-anchor="middle" x="946" y="-251.5" font-family="Helvetica,sans-Serif" font-size="10.00">_attribute</text>
</a>
</g>
</g>
<!-- Node3&#45;&gt;Node4 -->
<g id="edge3" class="edge">
<title>Node3&#45;&gt;Node4</title>
<path fill="none" stroke="midnightblue" d="M837.06,-265C846.98,-265 857.18,-265 867.17,-265"/>
<polygon fill="midnightblue" stroke="midnightblue" points="867.48,-268.5 877.48,-265 867.48,-261.5 867.48,-268.5"/>
</g>
<!-- Node5 -->
<g id="node5" class="node">
<title>Node5</title>
<g id="a_node5"><a xlink:href="classwmtk_1_1attribute_1_1_accessor.html#a5e55c4e369b2dfeba31e579ee8fa06bf" target="_top" xlink:title=" ">
<polygon fill="none" stroke="black" points="875,-305 875,-335 1017,-335 1017,-305 875,-305"/>
<text text-anchor="start" x="883" y="-323" font-family="Helvetica,sans-Serif" font-size="10.00">wmtk::attribute::Accessor</text>
<text text-anchor="middle" x="946" y="-312" font-family="Helvetica,sans-Serif" font-size="10.00">::index_access</text>
</a>
</g>
</g>
<!-- Node3&#45;&gt;Node5 -->
<g id="edge4" class="edge">
<title>Node3&#45;&gt;Node5</title>
<path fill="none" stroke="midnightblue" d="M796.61,-274.51C809.82,-278.34 825.14,-282.82 839,-287 854.82,-291.77 871.93,-297.04 887.69,-301.95"/>
<polygon fill="midnightblue" stroke="midnightblue" points="886.71,-305.31 897.3,-304.95 888.8,-298.63 886.71,-305.31"/>
</g>
<!-- Node6 -->
<g id="node6" class="node">
<title>Node6</title>
<g id="a_node6"><a xlink:href="classwmtk_1_1attribute_1_1_accessor.html#a9d0f9b5a16b8c3f40956fb9b4007f63a" target="_top" xlink:title=" ">
<polygon fill="none" stroke="black" points="1053,-305 1053,-335 1195,-335 1195,-305 1053,-305"/>
<text text-anchor="start" x="1061" y="-323" font-family="Helvetica,sans-Serif" font-size="10.00">wmtk::attribute::Accessor</text>
<text text-anchor="middle" x="1124" y="-312" font-family="Helvetica,sans-Serif" font-size="10.00">::caching_base_type</text>
</a>
</g>
</g>
<!-- Node5&#45;&gt;Node6 -->
<g id="edge5" class="edge">
<title>Node5&#45;&gt;Node6</title>
<path fill="none" stroke="midnightblue" d="M1017.07,-320C1025.54,-320 1034.25,-320 1042.85,-320"/>
<polygon fill="midnightblue" stroke="midnightblue" points="1042.89,-323.5 1052.89,-320 1042.89,-316.5 1042.89,-323.5"/>
</g>
<!-- Node8 -->
<g id="node8" class="node">
<title>Node8</title>
<g id="a_node8"><a xlink:href="classwmtk_1_1_mesh.html#a956cb71441391c99d736ec69c7467b61" target="_top" xlink:title=" ">
<polygon fill="none" stroke="black" points="1067.5,-412 1067.5,-442 1180.5,-442 1180.5,-412 1067.5,-412"/>
<text text-anchor="start" x="1075.5" y="-430" font-family="Helvetica,sans-Serif" font-size="10.00">wmtk::Mesh::create</text>
<text text-anchor="middle" x="1124" y="-419" font-family="Helvetica,sans-Serif" font-size="10.00">_const_accessor</text>
</a>
</g>
</g>
<!-- Node7&#45;&gt;Node8 -->
<g id="edge7" class="edge">
<title>Node7&#45;&gt;Node8</title>
<path fill="none" stroke="midnightblue" d="M827.76,-69.19C885.64,-69.5 968.82,-79.93 1017,-131 1083.18,-201.16 1012.21,-257.6 1053,-345 1063.75,-368.03 1082.79,-389.7 1098.3,-404.97"/>
<polygon fill="midnightblue" stroke="midnightblue" points="1095.93,-407.55 1105.58,-411.93 1100.77,-402.49 1095.93,-407.55"/>
</g>
<!-- Node9 -->
<g id="node9" class="node">
<title>Node9</title>
<g id="a_node9"><a xlink:href="classwmtk_1_1attribute_1_1_mesh_attribute_handle.html#ac326961f01b9ba4fec395827f15a7ef2" target="_top" xlink:title=" ">
<polygon fill="none" stroke="black" points="1231,-461 1231,-491 1398,-491 1398,-461 1231,-461"/>
<text text-anchor="start" x="1239" y="-479" font-family="Helvetica,sans-Serif" font-size="10.00">wmtk::attribute::MeshAttribute</text>
<text text-anchor="middle" x="1314.5" y="-468" font-family="Helvetica,sans-Serif" font-size="10.00">Handle::as</text>
</a>
</g>
</g>
<!-- Node8&#45;&gt;Node9 -->
<g id="edge8" class="edge">
<title>Node8&#45;&gt;Node9</title>
<path fill="none" stroke="midnightblue" d="M1180.54,-441.44C1201.07,-446.77 1224.56,-452.88 1246.04,-458.46"/>
<polygon fill="midnightblue" stroke="midnightblue" points="1245.18,-461.86 1255.74,-460.99 1246.95,-455.08 1245.18,-461.86"/>
</g>
<!-- Node10 -->
<g id="node10" class="node">
<title>Node10</title>
<g id="a_node10"><a xlink:href="classwmtk_1_1attribute_1_1_mesh_attribute_handle.html#a2b86caeb22b007b85b138ebc6b0ed837" target="_top" xlink:title=" ">
<polygon fill="none" stroke="black" points="1231,-412 1231,-442 1398,-442 1398,-412 1231,-412"/>
<text text-anchor="start" x="1239" y="-430" font-family="Helvetica,sans-Serif" font-size="10.00">wmtk::attribute::MeshAttribute</text>
<text text-anchor="middle" x="1314.5" y="-419" font-family="Helvetica,sans-Serif" font-size="10.00">Handle::holds</text>
</a>
</g>
</g>
<!-- Node8&#45;&gt;Node10 -->
<g id="edge9" class="edge">
<title>Node8&#45;&gt;Node10</title>
<path fill="none" stroke="midnightblue" d="M1180.54,-427C1193.08,-427 1206.74,-427 1220.37,-427"/>
<polygon fill="midnightblue" stroke="midnightblue" points="1220.76,-430.5 1230.76,-427 1220.76,-423.5 1220.76,-430.5"/>
</g>
<!-- Node11 -->
<g id="node11" class="node">
<title>Node11</title>
<g id="a_node11"><a xlink:href="classwmtk_1_1attribute_1_1_mesh_attribute_handle.html#a620620d54776b2c5f4f9cebad465cfa7" target="_top" xlink:title=" ">
<polygon fill="none" stroke="black" points="1231,-363 1231,-393 1398,-393 1398,-363 1231,-363"/>
<text text-anchor="start" x="1239" y="-381" font-family="Helvetica,sans-Serif" font-size="10.00">wmtk::attribute::MeshAttribute</text>
<text text-anchor="middle" x="1314.5" y="-370" font-family="Helvetica,sans-Serif" font-size="10.00">Handle::mesh</text>
</a>
</g>
</g>
<!-- Node8&#45;&gt;Node11 -->
<g id="edge10" class="edge">
<title>Node8&#45;&gt;Node11</title>
<path fill="none" stroke="midnightblue" d="M1180.54,-412.56C1201.07,-407.23 1224.56,-401.12 1246.04,-395.54"/>
<polygon fill="midnightblue" stroke="midnightblue" points="1246.95,-398.92 1255.74,-393.01 1245.18,-392.14 1246.95,-398.92"/>
</g>
<!-- Node14 -->
<g id="node14" class="node">
<title>Node14</title>
<g id="a_node14"><a xlink:href="namespacewmtk_1_1autogen_1_1tri__mesh.html#aaab85f5120a223c29bae0881cd7f2c87" target="_top" xlink:title=" ">
<polygon fill="none" stroke="black" points="513,-127 513,-157 620,-157 620,-127 513,-127"/>
<text text-anchor="start" x="521" y="-145" font-family="Helvetica,sans-Serif" font-size="10.00">wmtk::autogen::tri</text>
<text text-anchor="middle" x="566.5" y="-134" font-family="Helvetica,sans-Serif" font-size="10.00">_mesh::is_ccw</text>
</a>
</g>
</g>
<!-- Node13&#45;&gt;Node14 -->
<g id="edge13" class="edge">
<title>Node13&#45;&gt;Node14</title>
<path fill="none" stroke="midnightblue" d="M422.21,-107.55C445.7,-113.2 475.98,-120.48 502.65,-126.89"/>
<polygon fill="midnightblue" stroke="midnightblue" points="502.13,-130.36 512.67,-129.3 503.76,-123.56 502.13,-130.36"/>
</g>
<!-- Node17 -->
<g id="node17" class="node">
<title>Node17</title>
<g id="a_node17"><a xlink:href="classwmtk_1_1_mesh.html#abbb1c54cfd6ec17f4730317ee5fab78d" target="_top" xlink:title=" ">
<polygon fill="none" stroke="black" points="492.5,-0.5 492.5,-19.5 640.5,-19.5 640.5,-0.5 492.5,-0.5"/>
<text text-anchor="middle" x="566.5" y="-7.5" font-family="Helvetica,sans-Serif" font-size="10.00">wmtk::Mesh::is_valid_slow</text>
</a>
</g>
</g>
<!-- Node13&#45;&gt;Node17 -->
<g id="edge17" class="edge">
<title>Node13&#45;&gt;Node17</title>
<path fill="none" stroke="midnightblue" d="M426.61,-88.47C433.8,-85.78 440.89,-82.35 447,-78 469.01,-62.32 460.42,-43.85 483,-29 486.13,-26.94 489.46,-25.1 492.91,-23.46"/>
<polygon fill="midnightblue" stroke="midnightblue" points="494.39,-26.64 502.29,-19.57 491.71,-20.17 494.39,-26.64"/>
</g>
<!-- Node15 -->
<g id="node15" class="node">
<title>Node15</title>
<g id="a_node15"><a xlink:href="namespacewmtk_1_1autogen_1_1tri__mesh.html#a1c9b651c47ee993e160a8dca570cf35c" target="_top" xlink:title=" ">
<polygon fill="none" stroke="black" points="885,-140.5 885,-181.5 1007,-181.5 1007,-140.5 885,-140.5"/>
<text text-anchor="start" x="893" y="-169.5" font-family="Helvetica,sans-Serif" font-size="10.00">wmtk::autogen::tri</text>
<text text-anchor="start" x="893" y="-158.5" font-family="Helvetica,sans-Serif" font-size="10.00">_mesh::local_id_table</text>
<text text-anchor="middle" x="946" y="-147.5" font-family="Helvetica,sans-Serif" font-size="10.00">_offset</text>
</a>
</g>
</g>
<!-- Node14&#45;&gt;Node15 -->
<g id="edge14" class="edge">
<title>Node14&#45;&gt;Node15</title>
<path fill="none" stroke="midnightblue" d="M620.39,-144.66C686.86,-148.01 801.16,-153.76 874.87,-157.47"/>
<polygon fill="midnightblue" stroke="midnightblue" points="874.83,-160.97 885,-157.98 875.18,-153.98 874.83,-160.97"/>
</g>
<!-- Node16 -->
<g id="node16" class="node">
<title>Node16</title>
<g id="a_node16"><a xlink:href="namespacewmtk_1_1autogen_1_1tri__mesh.html#a786155d6d2270c482ffd6a96d3211867" target="_top" xlink:title=" ">
<polygon fill="none" stroke="black" points="701.5,-165.5 701.5,-206.5 823.5,-206.5 823.5,-165.5 701.5,-165.5"/>
<text text-anchor="start" x="709.5" y="-194.5" font-family="Helvetica,sans-Serif" font-size="10.00">wmtk::autogen::tri</text>
<text text-anchor="start" x="709.5" y="-183.5" font-family="Helvetica,sans-Serif" font-size="10.00">_mesh::tuple_is_valid</text>
<text text-anchor="middle" x="762.5" y="-172.5" font-family="Helvetica,sans-Serif" font-size="10.00">_for_ccw</text>
</a>
</g>
</g>
<!-- Node14&#45;&gt;Node16 -->
<g id="edge15" class="edge">
<title>Node14&#45;&gt;Node16</title>
<path fill="none" stroke="midnightblue" d="M620.26,-153.97C642.15,-158.93 667.87,-164.76 691.32,-170.08"/>
<polygon fill="midnightblue" stroke="midnightblue" points="690.69,-173.53 701.21,-172.33 692.24,-166.7 690.69,-173.53"/>
</g>
<!-- Node16&#45;&gt;Node15 -->
<g id="edge16" class="edge">
<title>Node16&#45;&gt;Node15</title>
<path fill="none" stroke="midnightblue" d="M823.68,-177.71C840.01,-175.46 857.82,-173.01 874.65,-170.69"/>
<polygon fill="midnightblue" stroke="midnightblue" points="875.55,-174.1 884.98,-169.27 874.59,-167.16 875.55,-174.1"/>
</g>
<!-- Node17&#45;&gt;Node7 -->
<g id="edge18" class="edge">
<title>Node17&#45;&gt;Node7</title>
<path fill="none" stroke="midnightblue" d="M614.51,-19.55C626.2,-22.27 638.63,-25.47 650,-29 672.82,-36.09 697.6,-45.67 717.99,-54.08"/>
<polygon fill="midnightblue" stroke="midnightblue" points="716.74,-57.35 727.32,-57.97 719.44,-50.89 716.74,-57.35"/>
</g>
<!-- Node18 -->
<g id="node18" class="node">
<title>Node18</title>
<g id="a_node18"><a xlink:href="classwmtk_1_1_mesh.html#a918c509096fc08691924c05c6143b9c3" target="_top" xlink:title="check validity of tuple including its hash">
<polygon fill="none" stroke="black" points="702.5,-0.5 702.5,-19.5 822.5,-19.5 822.5,-0.5 702.5,-0.5"/>
<text text-anchor="middle" x="762.5" y="-7.5" font-family="Helvetica,sans-Serif" font-size="10.00">wmtk::Mesh::is_valid</text>
</a>
</g>
</g>
<!-- Node17&#45;&gt;Node18 -->
<g id="edge19" class="edge">
<title>Node17&#45;&gt;Node18</title>
<path fill="none" stroke="midnightblue" d="M640.57,-10C657.47,-10 675.4,-10 692.14,-10"/>
<polygon fill="midnightblue" stroke="midnightblue" points="692.38,-13.5 702.38,-10 692.38,-6.5 692.38,-13.5"/>
</g>
<!-- Node19&#45;&gt;Node16 -->
<g id="edge39" class="edge">
<title>Node19&#45;&gt;Node16</title>
<path fill="none" stroke="midnightblue" d="M401.9,-318.44C421.96,-308.71 454.32,-293.48 483,-282 553.13,-253.94 635.05,-226.3 691.8,-207.94"/>
<polygon fill="midnightblue" stroke="midnightblue" points="692.95,-211.25 701.39,-204.85 690.8,-204.58 692.95,-211.25"/>
</g>
<!-- Node20 -->
<g id="node20" class="node">
<title>Node20</title>
<g id="a_node20"><a xlink:href="classwmtk_1_1_tri_mesh.html#a83fe826d80c8be74c3b0589f5818b279" target="_top" xlink:title=" ">
<polygon fill="none" stroke="black" points="483,-417 483,-447 650,-447 650,-417 483,-417"/>
<text text-anchor="start" x="491" y="-435" font-family="Helvetica,sans-Serif" font-size="10.00">wmtk::TriMesh::is_connectivity</text>
<text text-anchor="middle" x="566.5" y="-424" font-family="Helvetica,sans-Serif" font-size="10.00">_valid</text>
</a>
</g>
</g>
<!-- Node19&#45;&gt;Node20 -->
<g id="edge21" class="edge">
<title>Node19&#45;&gt;Node20</title>
<path fill="none" stroke="midnightblue" d="M393.25,-337.55C410.92,-352.86 447.66,-383.07 483,-402 490.71,-406.13 499.11,-409.92 507.51,-413.31"/>
<polygon fill="midnightblue" stroke="midnightblue" points="506.35,-416.61 516.94,-416.96 508.88,-410.08 506.35,-416.61"/>
</g>
<!-- Node27 -->
<g id="node27" class="node">
<title>Node27</title>
<g id="a_node27"><a xlink:href="namespacewmtk.html#a6a35f11c12436093d26fdd8be6fecc06" target="_top" xlink:title="Retrieves the current logger.">
<polygon fill="none" stroke="black" points="722,-296.5 722,-315.5 803,-315.5 803,-296.5 722,-296.5"/>
<text text-anchor="middle" x="762.5" y="-303.5" font-family="Helvetica,sans-Serif" font-size="10.00">wmtk::logger</text>
</a>
</g>
</g>
<!-- Node19&#45;&gt;Node27 -->
<g id="edge38" class="edge">
<title>Node19&#45;&gt;Node27</title>
<path fill="none" stroke="midnightblue" d="M400,-337.59C419.56,-347.71 452.49,-363.02 483,-369 555.83,-383.29 582.01,-398.77 650,-369 671.61,-359.54 666.1,-342.66 686,-330 693.93,-324.96 703,-320.9 712.04,-317.66"/>
<polygon fill="midnightblue" stroke="midnightblue" points="713.37,-320.9 721.78,-314.45 711.19,-314.25 713.37,-320.9"/>
</g>
<!-- Node29 -->
<g id="node29" class="node">
<title>Node29</title>
<g id="a_node29"><a xlink:href="classwmtk_1_1_mesh.html#aad291410ffabfd61e42d0a813a610805" target="_top" xlink:title=" ">
<polygon fill="none" stroke="black" points="507,-291 507,-321 626,-321 626,-291 507,-291"/>
<text text-anchor="start" x="515" y="-309" font-family="Helvetica,sans-Serif" font-size="10.00">wmtk::Mesh::is_hash</text>
<text text-anchor="middle" x="566.5" y="-298" font-family="Helvetica,sans-Serif" font-size="10.00">_valid</text>
</a>
</g>
</g>
<!-- Node19&#45;&gt;Node29 -->
<g id="edge34" class="edge">
<title>Node19&#45;&gt;Node29</title>
<path fill="none" stroke="midnightblue" d="M447.02,-320.24C463.13,-318.31 480.46,-316.22 496.76,-314.26"/>
<polygon fill="midnightblue" stroke="midnightblue" points="497.24,-317.73 506.75,-313.06 496.41,-310.78 497.24,-317.73"/>
</g>
<!-- Node30 -->
<g id="node30" class="node">
<title>Node30</title>
<g id="a_node30"><a xlink:href="classwmtk_1_1_tuple.html#a0023f575be92cd5ceeeaaaa3762ea06d" target="_top" xlink:title=" ">
<polygon fill="none" stroke="black" points="510,-340.5 510,-359.5 623,-359.5 623,-340.5 510,-340.5"/>
<text text-anchor="middle" x="566.5" y="-347.5" font-family="Helvetica,sans-Serif" font-size="10.00">wmtk::Tuple::is_null</text>
</a>
</g>
</g>
<!-- Node19&#45;&gt;Node30 -->
<g id="edge37" class="edge">
<title>Node19&#45;&gt;Node30</title>
<path fill="none" stroke="midnightblue" d="M447.02,-335.76C464.14,-337.81 482.64,-340.04 499.82,-342.1"/>
<polygon fill="midnightblue" stroke="midnightblue" points="499.41,-345.58 509.76,-343.3 500.25,-338.63 499.41,-345.58"/>
</g>
<!-- Node20&#45;&gt;Node4 -->
<g id="edge24" class="edge">
<title>Node20&#45;&gt;Node4</title>
<path fill="none" stroke="midnightblue" d="M603.24,-416.92C618.22,-409.93 635.5,-400.96 650,-391 667.89,-378.72 666.72,-367.97 686,-358 747.79,-326.05 776.22,-354.96 839,-325 857.54,-316.15 857.46,-306.7 875,-296 878.2,-294.05 881.53,-292.16 884.95,-290.33"/>
<polygon fill="midnightblue" stroke="midnightblue" points="886.79,-293.31 894.1,-285.65 883.61,-287.08 886.79,-293.31"/>
</g>
<!-- Node20&#45;&gt;Node5 -->
<g id="edge30" class="edge">
<title>Node20&#45;&gt;Node5</title>
<path fill="none" stroke="midnightblue" d="M624.84,-416.95C692.04,-399.21 799.29,-370.56 839,-358 855.22,-352.87 858.99,-350.75 875,-345 880.9,-342.88 887.08,-340.67 893.22,-338.47"/>
<polygon fill="midnightblue" stroke="midnightblue" points="894.56,-341.71 902.79,-335.05 892.2,-335.12 894.56,-341.71"/>
</g>
<!-- Node21 -->
<g id="node21" class="node">
<title>Node21</title>
<g id="a_node21"><a xlink:href="classwmtk_1_1_mesh.html#a3e8ff83c4a5526a40d18bb9883c6c6c9" target="_top" xlink:title="read in the m_capacities return the upper bound for the number of entities of the given dimension">
<polygon fill="none" stroke="black" points="884,-528.5 884,-547.5 1008,-547.5 1008,-528.5 884,-528.5"/>
<text text-anchor="middle" x="946" y="-535.5" font-family="Helvetica,sans-Serif" font-size="10.00">wmtk::Mesh::capacity</text>
</a>
</g>
</g>
<!-- Node20&#45;&gt;Node21 -->
<g id="edge22" class="edge">
<title>Node20&#45;&gt;Node21</title>
<path fill="none" stroke="midnightblue" d="M576.94,-447.16C594.52,-473.8 635.18,-528.14 686,-549 757.82,-578.48 850.45,-563.24 903.23,-550.16"/>
<polygon fill="midnightblue" stroke="midnightblue" points="904.43,-553.46 913.24,-547.58 902.68,-546.68 904.43,-553.46"/>
</g>
<!-- Node23 -->
<g id="node23" class="node">
<title>Node23</title>
<g id="a_node23"><a xlink:href="classwmtk_1_1attribute_1_1_caching_accessor.html#a20efecc1867c1883dd246f1736e515cf" target="_top" xlink:title=" ">
<polygon fill="none" stroke="black" points="694,-498.5 694,-539.5 831,-539.5 831,-498.5 694,-498.5"/>
<text text-anchor="start" x="702" y="-527.5" font-family="Helvetica,sans-Serif" font-size="10.00">wmtk::attribute::Caching</text>
<text text-anchor="start" x="702" y="-516.5" font-family="Helvetica,sans-Serif" font-size="10.00">Accessor::const_vector</text>
<text text-anchor="middle" x="762.5" y="-505.5" font-family="Helvetica,sans-Serif" font-size="10.00">_attribute</text>
</a>
</g>
</g>
<!-- Node20&#45;&gt;Node23 -->
<g id="edge25" class="edge">
<title>Node20&#45;&gt;Node23</title>
<path fill="none" stroke="midnightblue" d="M597.43,-447.11C621.23,-458.96 655.48,-475.61 686,-489 690.29,-490.88 694.75,-492.78 699.25,-494.66"/>
<polygon fill="midnightblue" stroke="midnightblue" points="697.92,-497.91 708.5,-498.49 700.6,-491.44 697.92,-497.91"/>
</g>
<!-- Node24 -->
<g id="node24" class="node">
<title>Node24</title>
<g id="a_node24"><a xlink:href="classwmtk_1_1_mesh.html#ae0e8f71e9e17a90be9423117efcc4c81" target="_top" xlink:title=" ">
<polygon fill="none" stroke="black" points="701.5,-449 701.5,-479 823.5,-479 823.5,-449 701.5,-449"/>
<text text-anchor="start" x="709.5" y="-467" font-family="Helvetica,sans-Serif" font-size="10.00">wmtk::Mesh::get_flag</text>
<text text-anchor="middle" x="762.5" y="-456" font-family="Helvetica,sans-Serif" font-size="10.00">_accessor</text>
</a>
</g>
</g>
<!-- Node20&#45;&gt;Node24 -->
<g id="edge26" class="edge">
<title>Node20&#45;&gt;Node24</title>
<path fill="none" stroke="midnightblue" d="M650.05,-445.62C663.78,-447.88 677.9,-450.21 691.28,-452.42"/>
<polygon fill="midnightblue" stroke="midnightblue" points="690.91,-455.9 701.35,-454.08 692.05,-449 690.91,-455.9"/>
</g>
<!-- Node26 -->
<g id="node26" class="node">
<title>Node26</title>
<g id="a_node26"><a xlink:href="classwmtk_1_1_tri_mesh.html#a58bdbbfa0cd7bd9263241f6501db182a" target="_top" xlink:title="check if a simplex lies on a boundary or not">
<polygon fill="none" stroke="black" points="686,-410.5 686,-429.5 839,-429.5 839,-410.5 686,-410.5"/>
<text text-anchor="middle" x="762.5" y="-417.5" font-family="Helvetica,sans-Serif" font-size="10.00">wmtk::TriMesh::is_boundary</text>
</a>
</g>
</g>
<!-- Node20&#45;&gt;Node26 -->
<g id="edge31" class="edge">
<title>Node20&#45;&gt;Node26</title>
<path fill="none" stroke="midnightblue" d="M650.05,-426.89C658.49,-426.37 667.07,-425.84 675.53,-425.32"/>
<polygon fill="midnightblue" stroke="midnightblue" points="676.02,-428.79 685.79,-424.68 675.59,-421.81 676.02,-428.79"/>
</g>
<!-- Node20&#45;&gt;Node27 -->
<g id="edge32" class="edge">
<title>Node20&#45;&gt;Node27</title>
<path fill="none" stroke="midnightblue" d="M626.52,-416.87C635.02,-412.96 643.17,-408.08 650,-402 676.71,-378.2 658.81,-353.25 686,-330 693.45,-323.63 702.6,-318.95 711.93,-315.51"/>
<polygon fill="midnightblue" stroke="midnightblue" points="713.22,-318.77 721.65,-312.35 711.06,-312.11 713.22,-318.77"/>
</g>
<!-- Node22 -->
<g id="node22" class="node">
<title>Node22</title>
<g id="a_node22"><a xlink:href="namespacewmtk.html#a5cf45c152e856196bb734c6f48919a24" target="_top" xlink:title="Get a unique integer id corresponding to each primitive type.">
<polygon fill="none" stroke="black" points="1066,-485 1066,-515 1182,-515 1182,-485 1066,-485"/>
<text text-anchor="start" x="1074" y="-503" font-family="Helvetica,sans-Serif" font-size="10.00">wmtk::get_primitive</text>
<text text-anchor="middle" x="1124" y="-492" font-family="Helvetica,sans-Serif" font-size="10.00">_type_id</text>
</a>
</g>
</g>
<!-- Node21&#45;&gt;Node22 -->
<g id="edge23" class="edge">
<title>Node21&#45;&gt;Node22</title>
<path fill="none" stroke="midnightblue" d="M991.41,-528.41C1011.02,-524.18 1034.48,-519.11 1056.13,-514.44"/>
<polygon fill="midnightblue" stroke="midnightblue" points="1056.9,-517.85 1065.93,-512.32 1055.42,-511.01 1056.9,-517.85"/>
</g>
<!-- Node25 -->
<g id="node25" class="node">
<title>Node25</title>
<g id="a_node25"><a xlink:href="classwmtk_1_1_mesh.html#a6dbab927a2ee85f77a87f075fd5c1d94" target="_top" xlink:title=" ">
<polygon fill="none" stroke="black" points="881,-449 881,-479 1011,-479 1011,-449 881,-449"/>
<text text-anchor="start" x="889" y="-467" font-family="Helvetica,sans-Serif" font-size="10.00">wmtk::Mesh::get_const</text>
<text text-anchor="middle" x="946" y="-456" font-family="Helvetica,sans-Serif" font-size="10.00">_flag_accessor</text>
</a>
</g>
</g>
<!-- Node24&#45;&gt;Node25 -->
<g id="edge27" class="edge">
<title>Node24&#45;&gt;Node25</title>
<path fill="none" stroke="midnightblue" d="M823.68,-464C838.75,-464 855.09,-464 870.75,-464"/>
<polygon fill="midnightblue" stroke="midnightblue" points="870.93,-467.5 880.93,-464 870.93,-460.5 870.93,-467.5"/>
</g>
<!-- Node25&#45;&gt;Node8 -->
<g id="edge28" class="edge">
<title>Node25&#45;&gt;Node8</title>
<path fill="none" stroke="midnightblue" d="M1011.04,-450.54C1026.2,-447.35 1042.38,-443.95 1057.6,-440.75"/>
<polygon fill="midnightblue" stroke="midnightblue" points="1058.37,-444.16 1067.44,-438.68 1056.93,-437.31 1058.37,-444.16"/>
</g>
<!-- Node25&#45;&gt;Node22 -->
<g id="edge29" class="edge">
<title>Node25&#45;&gt;Node22</title>
<path fill="none" stroke="midnightblue" d="M1011.04,-477.1C1025.57,-480.07 1041.05,-483.24 1055.71,-486.24"/>
<polygon fill="midnightblue" stroke="midnightblue" points="1055.22,-489.71 1065.72,-488.28 1056.62,-482.85 1055.22,-489.71"/>
</g>
<!-- Node28 -->
<g id="node28" class="node">
<title>Node28</title>
<g id="a_node28"><a xlink:href="namespacewmtk.html#a3daa7951a5f8b78cf4600dc047fcc180" target="_top" xlink:title="Setup a logger object to be used by WildmeshToolkit.">
<polygon fill="none" stroke="black" points="895.5,-354.5 895.5,-373.5 996.5,-373.5 996.5,-354.5 895.5,-354.5"/>
<text text-anchor="middle" x="946" y="-361.5" font-family="Helvetica,sans-Serif" font-size="10.00">wmtk::set_logger</text>
</a>
</g>
</g>
<!-- Node27&#45;&gt;Node28 -->
<g id="edge33" class="edge">
<title>Node27&#45;&gt;Node28</title>
<path fill="none" stroke="midnightblue" d="M789.01,-315.51C811.5,-323.75 845.23,-335.77 875,-345 882.44,-347.31 890.38,-349.61 898.13,-351.78"/>
<polygon fill="midnightblue" stroke="midnightblue" points="897.23,-355.16 907.8,-354.43 899.09,-348.41 897.23,-355.16"/>
</g>
<!-- Node29&#45;&gt;Node3 -->
<g id="edge35" class="edge">
<title>Node29&#45;&gt;Node3</title>
<path fill="none" stroke="midnightblue" d="M626.23,-293.59C651.72,-288.2 681.4,-281.93 706.45,-276.63"/>
<polygon fill="midnightblue" stroke="midnightblue" points="707.46,-280 716.52,-274.51 706.02,-273.15 707.46,-280"/>
</g>
<!-- Node29&#45;&gt;Node27 -->
<g id="edge36" class="edge">
<title>Node29&#45;&gt;Node27</title>
<path fill="none" stroke="midnightblue" d="M626.23,-306C653.6,-306 685.81,-306 711.94,-306"/>
<polygon fill="midnightblue" stroke="midnightblue" points="711.99,-309.5 721.99,-306 711.99,-302.5 711.99,-309.5"/>
</g>
<!-- Node31&#45;&gt;Node13 -->
<g id="edge45" class="edge">
<title>Node31&#45;&gt;Node13</title>
<path fill="none" stroke="midnightblue" d="M273.8,-69.02C293.94,-74.49 316.44,-80.6 335.57,-85.8"/>
<polygon fill="midnightblue" stroke="midnightblue" points="334.67,-89.18 345.23,-88.42 336.5,-82.42 334.67,-89.18"/>
</g>
<!-- Node31&#45;&gt;Node17 -->
<g id="edge46" class="edge">
<title>Node31&#45;&gt;Node17</title>
<path fill="none" stroke="midnightblue" d="M270.26,-38.93C284.93,-35.15 301,-31.47 316,-29 371.02,-19.92 433.6,-15.17 482.32,-12.69"/>
<polygon fill="midnightblue" stroke="midnightblue" points="482.68,-16.18 492.5,-12.19 482.34,-9.19 482.68,-16.18"/>
</g>
<!-- Node32 -->
<g id="node32" class="node">
<title>Node32</title>
<g id="a_node32"><a xlink:href="classwmtk_1_1_mesh.html#a40a0509744659785607c0574d561bcc2" target="_top" xlink:title=" ">
<polygon fill="none" stroke="black" points="321,-39 321,-69 442,-69 442,-39 321,-39"/>
<text text-anchor="start" x="329" y="-57" font-family="Helvetica,sans-Serif" font-size="10.00">wmtk::Mesh::get_cell</text>
<text text-anchor="middle" x="381.5" y="-46" font-family="Helvetica,sans-Serif" font-size="10.00">_hash_slow</text>
</a>
</g>
</g>
<!-- Node31&#45;&gt;Node32 -->
<g id="edge41" class="edge">
<title>Node31&#45;&gt;Node32</title>
<path fill="none" stroke="midnightblue" d="M275.16,-54C286.59,-54 298.74,-54 310.56,-54"/>
<polygon fill="midnightblue" stroke="midnightblue" points="310.85,-57.5 320.85,-54 310.85,-50.5 310.85,-57.5"/>
</g>
<!-- Node32&#45;&gt;Node3 -->
<g id="edge42" class="edge">
<title>Node32&#45;&gt;Node3</title>
<path fill="none" stroke="midnightblue" d="M433.53,-69.07C438.44,-71.86 443.05,-75.14 447,-79 476.92,-108.25 452.67,-137.17 483,-166 536.2,-216.57 616.9,-241.53 677.75,-253.72"/>
<polygon fill="midnightblue" stroke="midnightblue" points="677.24,-257.19 687.72,-255.64 678.57,-250.31 677.24,-257.19"/>
</g>
<!-- Node33 -->
<g id="node33" class="node">
<title>Node33</title>
<g id="a_node33"><a xlink:href="classwmtk_1_1_mesh.html#a2435c4340422557f5e61dfbad2d0bee8" target="_top" xlink:title=" ">
<polygon fill="none" stroke="black" points="506,-39 506,-69 627,-69 627,-39 506,-39"/>
<text text-anchor="start" x="514" y="-57" font-family="Helvetica,sans-Serif" font-size="10.00">wmtk::Mesh::get_cell</text>
<text text-anchor="middle" x="566.5" y="-46" font-family="Helvetica,sans-Serif" font-size="10.00">_hash_accessor</text>
</a>
</g>
</g>
<!-- Node32&#45;&gt;Node33 -->
<g id="edge43" class="edge">
<title>Node32&#45;&gt;Node33</title>
<path fill="none" stroke="midnightblue" d="M442.17,-54C459.26,-54 478.04,-54 495.68,-54"/>
<polygon fill="midnightblue" stroke="midnightblue" points="495.91,-57.5 505.91,-54 495.91,-50.5 495.91,-57.5"/>
</g>
<!-- Node33&#45;&gt;Node7 -->
<g id="edge44" class="edge">
<title>Node33&#45;&gt;Node7</title>
<path fill="none" stroke="midnightblue" d="M627.02,-59.83C646.08,-61.7 667.42,-63.79 687.38,-65.74"/>
<polygon fill="midnightblue" stroke="midnightblue" points="687.07,-69.23 697.37,-66.72 687.76,-62.26 687.07,-69.23"/>
</g>
<!-- Node34&#45;&gt;Node12 -->
<g id="edge49" class="edge">
<title>Node34&#45;&gt;Node12</title>
<path fill="none" stroke="midnightblue" d="M280.21,-115.57C294.53,-118.49 309.7,-121.58 323.79,-124.45"/>
<polygon fill="midnightblue" stroke="midnightblue" points="323.33,-127.93 333.83,-126.49 324.73,-121.07 323.33,-127.93"/>
</g>
<!-- Node34&#45;&gt;Node13 -->
<g id="edge50" class="edge">
<title>Node34&#45;&gt;Node13</title>
<path fill="none" stroke="midnightblue" d="M280.21,-101.1C289.4,-100.81 298.95,-100.52 308.33,-100.23"/>
<polygon fill="midnightblue" stroke="midnightblue" points="308.54,-103.72 318.43,-99.92 308.32,-96.73 308.54,-103.72"/>
</g>
<!-- Node34&#45;&gt;Node32 -->
<g id="edge48" class="edge">
<title>Node34&#45;&gt;Node32</title>
<path fill="none" stroke="midnightblue" d="M268.43,-87.9C284.98,-82.89 303.57,-77.27 320.79,-72.06"/>
<polygon fill="midnightblue" stroke="midnightblue" points="322.18,-75.3 330.74,-69.05 320.15,-68.6 322.18,-75.3"/>
</g>
</g>
</svg>
        <g id="navigator" transform="translate(0 0)" fill="#404254">
                <rect fill="#f2f5e9" fill-opacity="0.5" stroke="#606060" stroke-width=".5" x="0" y="0" width="60" height="60"/>
                <use id="zoomplus" xlink:href="#zoomPlus" x="17" y="9" onmousedown="handleZoom(evt,'in')"/>
                <use id="zoomminus" xlink:href="#zoomMin" x="42" y="9" onmousedown="handleZoom(evt,'out')"/>
                <use id="reset" xlink:href="#resetDef" x="30" y="36" onmousedown="handleReset()"/>
                <g id="arrowUp" xlink:href="#dirArrow" transform="translate(30 24)" onmousedown="handlePan(0,-1)">
                  <use xlink:href="#rim" fill="#404040">
                        <set attributeName="fill" to="#808080" begin="arrowUp.mouseover" end="arrowUp.mouseout"/>
                  </use>
                  <path fill="none" stroke="white" stroke-width="1.5" d="M0,-3.0v7 M-2.5,-0.5L0,-3.0L2.5,-0.5"/>
                </g>
                <g id="arrowRight" xlink:href="#dirArrow" transform="rotate(90) translate(36 -43)" onmousedown="handlePan(1,0)">
                  <use xlink:href="#rim" fill="#404040">
                        <set attributeName="fill" to="#808080" begin="arrowRight.mouseover" end="arrowRight.mouseout"/>
                  </use>
                  <path fill="none" stroke="white" stroke-width="1.5" d="M0,-3.0v7 M-2.5,-0.5L0,-3.0L2.5,-0.5"/>
                </g>
                <g id="arrowDown" xlink:href="#dirArrow" transform="rotate(180) translate(-30 -48)" onmousedown="handlePan(0,1)">
                  <use xlink:href="#rim" fill="#404040">
                        <set attributeName="fill" to="#808080" begin="arrowDown.mouseover" end="arrowDown.mouseout"/>
                  </use>
                  <path fill="none" stroke="white" stroke-width="1.5" d="M0,-3.0v7 M-2.5,-0.5L0,-3.0L2.5,-0.5"/>
                </g>
                <g id="arrowLeft" xlink:href="#dirArrow" transform="rotate(270) translate(-36 17)" onmousedown="handlePan(-1,0)">
                  <use xlink:href="#rim" fill="#404040">
                        <set attributeName="fill" to="#808080" begin="arrowLeft.mouseover" end="arrowLeft.mouseout"/>
                  </use>
                  <path fill="none" stroke="white" stroke-width="1.5" d="M0,-3.0v7 M-2.5,-0.5L0,-3.0L2.5,-0.5"/>
                </g>
        </g>
        <svg viewBox="0 0 15 15" width="100%" height="30px" preserveAspectRatio="xMaxYMin meet">
         <g id="arrow_out" transform="scale(0.3 0.3)">
          <a xlink:href="classwmtk_1_1_tri_mesh_af7c6200d5364ccf6a23fc0223dbd6421_cgraph_org.svg" target="_base">
           <rect id="button" ry="5" rx="5" y="6" x="6" height="38" width="38"
                fill="#f2f5e9" fill-opacity="0.5" stroke="#606060" stroke-width="1.0"/>
           <path id="arrow"
             d="M 11.500037,31.436501 C 11.940474,20.09759 22.043105,11.32322 32.158766,21.979434 L 37.068811,17.246167 C 37.068811,17.246167 37.088388,32 37.088388,32 L 22.160133,31.978069 C 22.160133,31.978069 26.997745,27.140456 26.997745,27.140456 C 18.528582,18.264221 13.291696,25.230495 11.500037,31.436501 z"
             style="fill:#404040;"/>
          </a>
         </g>
        </svg>
</svg>
