<?xml version="1.0" encoding="UTF-8" standalone="no"?>
<!DOCTYPE svg PUBLIC "-//W3C//DTD SVG 1.1//EN"
 "http://www.w3.org/Graphics/SVG/1.1/DTD/svg11.dtd">
<!-- Generated by graphviz version 2.43.0 (0)
 -->
<!-- Title: wmtk::Mesh::map_to_parent_tuple Pages: 1 -->
<svg width="840pt" height="49pt"
 viewBox="0.00 0.00 840.00 49.00" xmlns="http://www.w3.org/2000/svg" xmlns:xlink="http://www.w3.org/1999/xlink">
<g id="graph0" class="graph" transform="scale(1 1) rotate(0) translate(4 45)">
<title>wmtk::Mesh::map_to_parent_tuple</title>
<!-- Node1 -->
<g id="Node000001" class="node">
<title>Node1</title>
<g id="a_Node000001"><a xlink:title="optimized map from a simplex from this mesh to its direct parent">
<polygon fill="#999999" stroke="#666666" points="832,-35.5 713,-35.5 713,-5.5 832,-5.5 832,-35.5"/>
<text text-anchor="start" x="721" y="-23.5" font-family="Helvetica,sans-Serif" font-size="10.00">wmtk::Mesh::map_to</text>
<text text-anchor="middle" x="772.5" y="-12.5" font-family="Helvetica,sans-Serif" font-size="10.00">_parent_tuple</text>
</a>
</g>
</g>
<!-- Node2 -->
<g id="Node000002" class="node">
<title>Node2</title>
<g id="a_Node000002"><a xlink:href="classwmtk_1_1multimesh_1_1utils_1_1_map_validator.html#a3904ef0aa73b2aa3b9f6c054686bf17f" target="_top" xlink:title=" ">
<polygon fill="white" stroke="#666666" points="677,-41 513,-41 513,0 677,0 677,-41"/>
<text text-anchor="start" x="521" y="-29" font-family="Helvetica,sans-Serif" font-size="10.00">wmtk::multimesh::utils</text>
<text text-anchor="start" x="521" y="-18" font-family="Helvetica,sans-Serif" font-size="10.00">::MapValidator::check</text>
<text text-anchor="middle" x="595" y="-7" font-family="Helvetica,sans-Serif" font-size="10.00">_child_switch_homomorphism</text>
</a>
</g>
</g>
<!-- Node1&#45;&gt;Node2 -->
<g id="edge1_Node000001_Node000002" class="edge">
<title>Node1&#45;&gt;Node2</title>
<g id="a_edge1_Node000001_Node000002"><a xlink:title=" ">
<path fill="none" stroke="#63b8ff" d="M702.57,-20.5C694.25,-20.5 685.7,-20.5 677.23,-20.5"/>
<polygon fill="#63b8ff" stroke="#63b8ff" points="702.57,-24 712.57,-20.5 702.57,-17 702.57,-24"/>
</a>
</g>
</g>
<!-- Node3 -->
<g id="Node000003" class="node">
<title>Node3</title>
<g id="a_Node000003"><a xlink:href="classwmtk_1_1multimesh_1_1utils_1_1_map_validator.html#a68f039afe0e44da9486a4d3c38cf5bea" target="_top" xlink:title=" ">
<polygon fill="white" stroke="#666666" points="477,-41 341,-41 341,0 477,0 477,-41"/>
<text text-anchor="start" x="349" y="-29" font-family="Helvetica,sans-Serif" font-size="10.00">wmtk::multimesh::utils</text>
<text text-anchor="start" x="349" y="-18" font-family="Helvetica,sans-Serif" font-size="10.00">::MapValidator::check</text>
<text text-anchor="middle" x="409" y="-7" font-family="Helvetica,sans-Serif" font-size="10.00">_switch_homomorphism</text>
</a>
</g>
</g>
<!-- Node2&#45;&gt;Node3 -->
<g id="edge2_Node000002_Node000003" class="edge">
<title>Node2&#45;&gt;Node3</title>
<g id="a_edge2_Node000002_Node000003"><a xlink:title=" ">
<path fill="none" stroke="#63b8ff" d="M502.65,-20.5C494.01,-20.5 485.37,-20.5 477.03,-20.5"/>
<polygon fill="#63b8ff" stroke="#63b8ff" points="502.76,-24 512.76,-20.5 502.76,-17 502.76,-24"/>
</a>
</g>
</g>
<!-- Node4 -->
<g id="Node000004" class="node">
<title>Node4</title>
<g id="a_Node000004"><a xlink:href="classwmtk_1_1multimesh_1_1utils_1_1_map_validator.html#a7c91255f342becd3f24ffa7bbaebeb3d" target="_top" xlink:title=" ">
<polygon fill="white" stroke="#666666" points="305,-35.5 166,-35.5 166,-5.5 305,-5.5 305,-35.5"/>
<text text-anchor="start" x="174" y="-23.5" font-family="Helvetica,sans-Serif" font-size="10.00">wmtk::multimesh::utils</text>
<text text-anchor="middle" x="235.5" y="-12.5" font-family="Helvetica,sans-Serif" font-size="10.00">::MapValidator::check_all</text>
</a>
</g>
</g>
<!-- Node3&#45;&gt;Node4 -->
<g id="edge3_Node000003_Node000004" class="edge">
<title>Node3&#45;&gt;Node4</title>
<g id="a_edge3_Node000003_Node000004"><a xlink:title=" ">
<path fill="none" stroke="#63b8ff" d="M330.44,-20.5C321.96,-20.5 313.37,-20.5 305,-20.5"/>
<polygon fill="#63b8ff" stroke="#63b8ff" points="330.71,-24 340.71,-20.5 330.71,-17 330.71,-24"/>
</a>
</g>
</g>
<!-- Node5 -->
<g id="Node000005" class="node">
<title>Node5</title>
<g id="a_Node000005"><a xlink:href="namespacewmtk_1_1multimesh_1_1utils.html#abcc3f7f7a25879455cafc8a8f4304c4c" target="_top" xlink:title=" ">
<polygon fill="white" stroke="#666666" points="130,-35.5 0,-35.5 0,-5.5 130,-5.5 130,-35.5"/>
<text text-anchor="start" x="8" y="-23.5" font-family="Helvetica,sans-Serif" font-size="10.00">wmtk::multimesh::utils</text>
<text text-anchor="middle" x="65" y="-12.5" font-family="Helvetica,sans-Serif" font-size="10.00">::check_maps_valid</text>
</a>
</g>
</g>
<!-- Node4&#45;&gt;Node5 -->
<g id="edge4_Node000004_Node000005" class="edge">
<title>Node4&#45;&gt;Node5</title>
<g id="a_edge4_Node000004_Node000005"><a xlink:title=" ">
<path fill="none" stroke="#63b8ff" d="M155.89,-20.5C147.26,-20.5 138.55,-20.5 130.12,-20.5"/>
<polygon fill="#63b8ff" stroke="#63b8ff" points="155.96,-24 165.96,-20.5 155.96,-17 155.96,-24"/>
</a>
</g>
</g>
</g>
</svg>
