<?xml version="1.0" encoding="UTF-8" standalone="no"?>
<!DOCTYPE svg PUBLIC "-//W3C//DTD SVG 1.1//EN"
 "http://www.w3.org/Graphics/SVG/1.1/DTD/svg11.dtd">
<!-- Generated by graphviz version 2.43.0 (0)
 -->
<!-- Title: wmtk::function::LocalNeighborsSumFunction::get_value Pages: 1 -->
<!--zoomable 591 -->
<svg id="main" version="1.1" xmlns="http://www.w3.org/2000/svg" xmlns:xlink="http://www.w3.org/1999/xlink" xml:space="preserve" onload="init(evt)">
<style type="text/css"><![CDATA[
.edge:hover path { stroke: red; }
.edge:hover polygon { stroke: red; fill: red; }
]]></style>
<script type="text/javascript"><![CDATA[
var edges = document.getElementsByTagName('g');
if (edges && edges.length) {
  for (var i=0;i<edges.length;i++) {
    if (edges[i].id.substr(0,4)=='edge') {
      edges[i].setAttribute('class','edge');
    }
  }
}
]]></script>
        <defs>
                <circle id="rim" cx="0" cy="0" r="7"/>
                <circle id="rim2" cx="0" cy="0" r="3.5"/>
                <g id="zoomPlus">
                        <use xlink:href="#rim" fill="#404040">
                                <set attributeName="fill" to="#808080" begin="zoomplus.mouseover" end="zoomplus.mouseout"/>
                        </use>
                        <path d="M-4,0h8M0,-4v8" fill="none" stroke="white" stroke-width="1.5" pointer-events="none"/>
                </g>
                <g id="zoomMin">
                        <use xlink:href="#rim" fill="#404040">
                                <set attributeName="fill" to="#808080" begin="zoomminus.mouseover" end="zoomminus.mouseout"/>
                        </use>
                        <path d="M-4,0h8" fill="none" stroke="white" stroke-width="1.5" pointer-events="none"/>
                </g>
                <g id="dirArrow">
                        <path fill="none" stroke="white" stroke-width="1.5" d="M0,-3.0v7 M-2.5,-0.5L0,-3.0L2.5,-0.5"/>
                </g>
               <g id="resetDef">
                       <use xlink:href="#rim2" fill="#404040">
                               <set attributeName="fill" to="#808080" begin="reset.mouseover" end="reset.mouseout"/>
                       </use>
               </g>
        </defs>

<script type="text/javascript">
var viewWidth = 1607;
var viewHeight = 591;
var sectionId = 'dynsection-7';
</script>
<script xlink:href="svgpan.js"/>
<svg id="graph" class="graph">
<g id="viewport">
<title>wmtk::function::LocalNeighborsSumFunction::get_value</title>
<!-- Node1 -->
<g id="node1" class="node">
<title>Node1</title>
<g id="a_node1"><a xlink:title="collects the local neigh and call the same m_function on all simplicies">
<polygon fill="#bfbfbf" stroke="black" points="0,-197.5 0,-227.5 171,-227.5 171,-197.5 0,-197.5"/>
<text text-anchor="start" x="8" y="-215.5" font-family="Helvetica,sans-Serif" font-size="10.00">wmtk::function::LocalNeighbors</text>
<text text-anchor="middle" x="85.5" y="-204.5" font-family="Helvetica,sans-Serif" font-size="10.00">SumFunction::get_value</text>
</a>
</g>
</g>
<!-- Node2 -->
<g id="node2" class="node">
<title>Node2</title>
<g id="a_node2"><a xlink:href="classwmtk_1_1function_1_1_function.html#a603513868e7383ad9ae2cd52439ac3f6" target="_top" xlink:title=" ">
<polygon fill="none" stroke="black" points="224.5,-552.5 224.5,-582.5 361.5,-582.5 361.5,-552.5 224.5,-552.5"/>
<text text-anchor="start" x="232.5" y="-570.5" font-family="Helvetica,sans-Serif" font-size="10.00">wmtk::function::Function</text>
<text text-anchor="middle" x="293" y="-559.5" font-family="Helvetica,sans-Serif" font-size="10.00">::attribute_type</text>
</a>
</g>
</g>
<!-- Node1&#45;&gt;Node2 -->
<g id="edge1" class="edge">
<title>Node1&#45;&gt;Node2</title>
<path fill="none" stroke="midnightblue" d="M87.69,-227.85C92.47,-279.19 114.8,-446.74 207,-537.5 210.9,-541.34 215.33,-544.69 220.06,-547.62"/>
<polygon fill="midnightblue" stroke="midnightblue" points="218.41,-550.7 228.86,-552.44 221.77,-544.56 218.41,-550.7"/>
</g>
<!-- Node4 -->
<g id="node4" class="node">
<title>Node4</title>
<g id="a_node4"><a xlink:href="classwmtk_1_1function_1_1_local_neighbors_sum_function.html#a9a8a406910f491899eaaa0c8e5b400c2" target="_top" xlink:title=" ">
<polygon fill="none" stroke="black" points="207.5,-263.5 207.5,-293.5 378.5,-293.5 378.5,-263.5 207.5,-263.5"/>
<text text-anchor="start" x="215.5" y="-281.5" font-family="Helvetica,sans-Serif" font-size="10.00">wmtk::function::LocalNeighbors</text>
<text text-anchor="middle" x="293" y="-270.5" font-family="Helvetica,sans-Serif" font-size="10.00">SumFunction::domain</text>
</a>
</g>
</g>
<!-- Node1&#45;&gt;Node4 -->
<g id="edge3" class="edge">
<title>Node1&#45;&gt;Node4</title>
<path fill="none" stroke="midnightblue" d="M133.39,-227.56C163.66,-237.28 203.23,-249.99 235.27,-260.28"/>
<polygon fill="midnightblue" stroke="midnightblue" points="234.37,-263.67 244.96,-263.39 236.51,-257 234.37,-263.67"/>
</g>
<!-- Node10 -->
<g id="node10" class="node">
<title>Node10</title>
<g id="a_node10"><a xlink:href="classwmtk_1_1simplex_1_1_simplex.html#ad2cc0340a0772b7d6f03ba7a781d1163" target="_top" xlink:title=" ">
<polygon fill="none" stroke="black" points="1464,-432.5 1464,-462.5 1599,-462.5 1599,-432.5 1464,-432.5"/>
<text text-anchor="start" x="1472" y="-450.5" font-family="Helvetica,sans-Serif" font-size="10.00">wmtk::simplex::Simplex</text>
<text text-anchor="middle" x="1531.5" y="-439.5" font-family="Helvetica,sans-Serif" font-size="10.00">::primitive_type</text>
</a>
</g>
</g>
<!-- Node1&#45;&gt;Node10 -->
<g id="edge45" class="edge">
<title>Node1&#45;&gt;Node10</title>
<path fill="none" stroke="midnightblue" d="M95.81,-227.5C135.66,-289.62 298.85,-523.5 497.5,-523.5 497.5,-523.5 497.5,-523.5 1119,-523.5 1257.54,-523.5 1293.13,-514.15 1428,-482.5 1446.06,-478.26 1465.42,-472.09 1482.4,-466.11"/>
<polygon fill="midnightblue" stroke="midnightblue" points="1483.86,-469.3 1492.09,-462.63 1481.49,-462.72 1483.86,-469.3"/>
</g>
<!-- Node24 -->
<g id="node24" class="node">
<title>Node24</title>
<g id="a_node24"><a xlink:href="classwmtk_1_1function_1_1_function.html#a043b0fcb22e3bfb08ca9990b4775c664" target="_top" xlink:title=" ">
<polygon fill="none" stroke="black" points="430,-219.5 430,-249.5 567,-249.5 567,-219.5 430,-219.5"/>
<text text-anchor="start" x="438" y="-237.5" font-family="Helvetica,sans-Serif" font-size="10.00">wmtk::function::Function</text>
<text text-anchor="middle" x="498.5" y="-226.5" font-family="Helvetica,sans-Serif" font-size="10.00">::mesh</text>
</a>
</g>
</g>
<!-- Node1&#45;&gt;Node24 -->
<g id="edge43" class="edge">
<title>Node1&#45;&gt;Node24</title>
<path fill="none" stroke="midnightblue" d="M171.16,-217.03C244.18,-220.94 348.76,-226.54 419.7,-230.34"/>
<polygon fill="midnightblue" stroke="midnightblue" points="419.74,-233.84 429.92,-230.88 420.12,-226.85 419.74,-233.84"/>
</g>
<!-- Node25 -->
<g id="node25" class="node">
<title>Node25</title>
<g id="a_node25"><a xlink:href="classwmtk_1_1function_1_1_function.html#a0c62fa4a0fed84733c0c18b1806d1eca" target="_top" xlink:title=" ">
<polygon fill="none" stroke="black" points="224.5,-175.5 224.5,-205.5 361.5,-205.5 361.5,-175.5 224.5,-175.5"/>
<text text-anchor="start" x="232.5" y="-193.5" font-family="Helvetica,sans-Serif" font-size="10.00">wmtk::function::Function</text>
<text text-anchor="middle" x="293" y="-182.5" font-family="Helvetica,sans-Serif" font-size="10.00">::embedded_dimension</text>
</a>
</g>
</g>
<!-- Node1&#45;&gt;Node25 -->
<g id="edge29" class="edge">
<title>Node1&#45;&gt;Node25</title>
<path fill="none" stroke="midnightblue" d="M171.27,-203.42C185.51,-201.9 200.22,-200.33 214.26,-198.82"/>
<polygon fill="midnightblue" stroke="midnightblue" points="214.79,-202.29 224.36,-197.74 214.04,-195.33 214.79,-202.29"/>
</g>
<!-- Node34 -->
<g id="node34" class="node">
<title>Node34</title>
<g id="a_node34"><a xlink:href="classwmtk_1_1function_1_1_per_simplex_function.html#a102906d1b23aa53d451853ca779ca2c4" target="_top" xlink:title=" ">
<polygon fill="none" stroke="black" points="207,-126.5 207,-156.5 379,-156.5 379,-126.5 207,-126.5"/>
<text text-anchor="start" x="215" y="-144.5" font-family="Helvetica,sans-Serif" font-size="10.00">wmtk::function::PerSimplex</text>
<text text-anchor="middle" x="293" y="-133.5" font-family="Helvetica,sans-Serif" font-size="10.00">Function::embedded_dimension</text>
</a>
</g>
</g>
<!-- Node1&#45;&gt;Node34 -->
<g id="edge38" class="edge">
<title>Node1&#45;&gt;Node34</title>
<path fill="none" stroke="midnightblue" d="M123.68,-197.44C147.36,-188.06 178.78,-176.02 207,-166.5 213.91,-164.17 221.18,-161.84 228.44,-159.6"/>
<polygon fill="midnightblue" stroke="midnightblue" points="229.75,-162.86 238.29,-156.6 227.71,-156.16 229.75,-162.86"/>
</g>
<!-- Node36 -->
<g id="node36" class="node">
<title>Node36</title>
<g id="a_node36"><a xlink:href="classwmtk_1_1function_1_1_per_simplex_function.html#a73fc985110007ca8b66bc844f9d4cff7" target="_top" xlink:title="This function is defined over a simplex (normally a triangle or tetrahedron).">
<polygon fill="none" stroke="black" points="217,-77.5 217,-107.5 369,-107.5 369,-77.5 217,-77.5"/>
<text text-anchor="start" x="225" y="-95.5" font-family="Helvetica,sans-Serif" font-size="10.00">wmtk::function::PerSimplex</text>
<text text-anchor="middle" x="293" y="-84.5" font-family="Helvetica,sans-Serif" font-size="10.00">Function::get_value</text>
</a>
</g>
</g>
<!-- Node1&#45;&gt;Node36 -->
<g id="edge42" class="edge">
<title>Node1&#45;&gt;Node36</title>
<path fill="none" stroke="midnightblue" d="M101.51,-197.48C123.07,-176.69 164.87,-139.26 207,-117.5 211.5,-115.18 216.24,-113.04 221.1,-111.07"/>
<polygon fill="midnightblue" stroke="midnightblue" points="222.42,-114.32 230.53,-107.51 219.94,-107.77 222.42,-114.32"/>
</g>
<!-- Node37 -->
<g id="node37" class="node">
<title>Node37</title>
<g id="a_node37"><a xlink:href="classwmtk_1_1function_1_1_per_simplex_function.html#a59a059a94c9997cb6dff0eb014a294d1" target="_top" xlink:title=" ">
<polygon fill="none" stroke="black" points="217,-28.5 217,-58.5 369,-58.5 369,-28.5 217,-28.5"/>
<text text-anchor="start" x="225" y="-46.5" font-family="Helvetica,sans-Serif" font-size="10.00">wmtk::function::PerSimplex</text>
<text text-anchor="middle" x="293" y="-35.5" font-family="Helvetica,sans-Serif" font-size="10.00">Function::mesh</text>
</a>
</g>
</g>
<!-- Node1&#45;&gt;Node37 -->
<g id="edge44" class="edge">
<title>Node1&#45;&gt;Node37</title>
<path fill="none" stroke="midnightblue" d="M94.91,-197.19C112.01,-167.53 153.76,-102.1 207,-67.5 209.47,-65.89 212.05,-64.39 214.71,-62.99"/>
<polygon fill="midnightblue" stroke="midnightblue" points="216.45,-66.04 224,-58.6 213.46,-59.71 216.45,-66.04"/>
</g>
<!-- Node3 -->
<g id="node3" class="node">
<title>Node3</title>
<g id="a_node3"><a xlink:href="classwmtk_1_1attribute_1_1_mesh_attribute_handle.html#aee17c525d1547806f9350ad95fa66f5f" target="_top" xlink:title=" ">
<polygon fill="none" stroke="black" points="415,-552.5 415,-582.5 582,-582.5 582,-552.5 415,-552.5"/>
<text text-anchor="start" x="423" y="-570.5" font-family="Helvetica,sans-Serif" font-size="10.00">wmtk::attribute::MeshAttribute</text>
<text text-anchor="middle" x="498.5" y="-559.5" font-family="Helvetica,sans-Serif" font-size="10.00">Handle::primitive_type</text>
</a>
</g>
</g>
<!-- Node2&#45;&gt;Node3 -->
<g id="edge2" class="edge">
<title>Node2&#45;&gt;Node3</title>
<path fill="none" stroke="midnightblue" d="M361.76,-567.5C375.44,-567.5 390.04,-567.5 404.41,-567.5"/>
<polygon fill="midnightblue" stroke="midnightblue" points="404.82,-571 414.82,-567.5 404.82,-564 404.82,-571"/>
</g>
<!-- Node5 -->
<g id="node5" class="node">
<title>Node5</title>
<g id="a_node5"><a xlink:href="namespacewmtk_1_1simplex.html#a996a48358d73e378978c6d5827cb3212" target="_top" xlink:title=" ">
<polygon fill="none" stroke="black" points="419,-268.5 419,-298.5 578,-298.5 578,-268.5 419,-268.5"/>
<text text-anchor="start" x="427" y="-286.5" font-family="Helvetica,sans-Serif" font-size="10.00">wmtk::simplex::cofaces</text>
<text text-anchor="middle" x="498.5" y="-275.5" font-family="Helvetica,sans-Serif" font-size="10.00">_single_dimension_simplices</text>
</a>
</g>
</g>
<!-- Node4&#45;&gt;Node5 -->
<g id="edge4" class="edge">
<title>Node4&#45;&gt;Node5</title>
<path fill="none" stroke="midnightblue" d="M378.53,-280.58C388.42,-280.82 398.53,-281.07 408.48,-281.31"/>
<polygon fill="midnightblue" stroke="midnightblue" points="408.69,-284.82 418.77,-281.57 408.86,-277.82 408.69,-284.82"/>
</g>
<!-- Node4&#45;&gt;Node24 -->
<g id="edge28" class="edge">
<title>Node4&#45;&gt;Node24</title>
<path fill="none" stroke="midnightblue" d="M363.46,-263.48C381.62,-259.56 401.3,-255.3 419.85,-251.29"/>
<polygon fill="midnightblue" stroke="midnightblue" points="420.69,-254.69 429.73,-249.15 419.21,-247.85 420.69,-254.69"/>
</g>
<!-- Node6 -->
<g id="node6" class="node">
<title>Node6</title>
<g id="a_node6"><a xlink:href="namespacewmtk_1_1simplex.html#abee08ace6632fab4e958282840e65e43" target="_top" xlink:title=" ">
<polygon fill="none" stroke="black" points="633,-276.5 633,-306.5 776,-306.5 776,-276.5 633,-276.5"/>
<text text-anchor="start" x="641" y="-294.5" font-family="Helvetica,sans-Serif" font-size="10.00">wmtk::simplex::cofaces</text>
<text text-anchor="middle" x="704.5" y="-283.5" font-family="Helvetica,sans-Serif" font-size="10.00">_single_dimension_tuples</text>
</a>
</g>
</g>
<!-- Node5&#45;&gt;Node6 -->
<g id="edge5" class="edge">
<title>Node5&#45;&gt;Node6</title>
<path fill="none" stroke="midnightblue" d="M578.08,-286.58C592.76,-287.16 608.13,-287.76 622.87,-288.34"/>
<polygon fill="midnightblue" stroke="midnightblue" points="622.83,-291.84 632.96,-288.73 623.11,-284.84 622.83,-291.84"/>
</g>
<!-- Node23 -->
<g id="node23" class="node">
<title>Node23</title>
<g id="a_node23"><a xlink:href="namespacewmtk_1_1simplex_1_1utils.html#a358c30268c189fc8f00538b520aab4f8" target="_top" xlink:title=" ">
<polygon fill="none" stroke="black" points="618,-216 618,-257 791,-257 791,-216 618,-216"/>
<text text-anchor="start" x="626" y="-245" font-family="Helvetica,sans-Serif" font-size="10.00">wmtk::simplex::utils</text>
<text text-anchor="start" x="626" y="-234" font-family="Helvetica,sans-Serif" font-size="10.00">::tuple_vector_to_homogeneous</text>
<text text-anchor="middle" x="704.5" y="-223" font-family="Helvetica,sans-Serif" font-size="10.00">_simplex_vector</text>
</a>
</g>
</g>
<!-- Node5&#45;&gt;Node23 -->
<g id="edge27" class="edge">
<title>Node5&#45;&gt;Node23</title>
<path fill="none" stroke="midnightblue" d="M564.61,-268.5C578.35,-265.33 593.11,-261.93 607.71,-258.57"/>
<polygon fill="midnightblue" stroke="midnightblue" points="608.82,-261.91 617.78,-256.25 607.25,-255.08 608.82,-261.91"/>
</g>
<!-- Node7 -->
<g id="node7" class="node">
<title>Node7</title>
<g id="a_node7"><a xlink:href="namespacewmtk_1_1simplex_1_1internal.html#af3c31556d0dcfb8f9c4419470784a150" target="_top" xlink:title="Returns the faces (single&#45;dimension) of a simplex that are also cofaces of a given face.">
<polygon fill="none" stroke="black" points="828,-116 828,-157 977,-157 977,-116 828,-116"/>
<text text-anchor="start" x="836" y="-145" font-family="Helvetica,sans-Serif" font-size="10.00">wmtk::simplex::internal</text>
<text text-anchor="start" x="836" y="-134" font-family="Helvetica,sans-Serif" font-size="10.00">::boundary_with_preserved</text>
<text text-anchor="middle" x="902.5" y="-123" font-family="Helvetica,sans-Serif" font-size="10.00">_face_tuples</text>
</a>
</g>
</g>
<!-- Node6&#45;&gt;Node7 -->
<g id="edge6" class="edge">
<title>Node6&#45;&gt;Node7</title>
<path fill="none" stroke="midnightblue" d="M776.11,-276.89C781.51,-274.02 786.57,-270.6 791,-266.5 824.14,-235.84 796.32,-204.63 827,-171.5 829.89,-168.37 833.12,-165.5 836.57,-162.87"/>
<polygon fill="midnightblue" stroke="midnightblue" points="838.68,-165.67 844.96,-157.14 834.73,-159.89 838.68,-165.67"/>
</g>
<!-- Node6&#45;&gt;Node10 -->
<g id="edge18" class="edge">
<title>Node6&#45;&gt;Node10</title>
<path fill="none" stroke="midnightblue" d="M716.46,-306.56C735.85,-332.16 778.77,-384.1 827,-412.5 901.54,-456.4 928.35,-454.38 1014,-466.5 1168.83,-488.41 1352.2,-471.68 1453.52,-458.77"/>
<polygon fill="midnightblue" stroke="midnightblue" points="1454.19,-462.21 1463.66,-457.46 1453.29,-455.27 1454.19,-462.21"/>
</g>
<!-- Node11 -->
<g id="node11" class="node">
<title>Node11</title>
<g id="a_node11"><a xlink:href="classwmtk_1_1simplex_1_1_simplex.html#a3650fd31ff1864285502dba66db3c73c" target="_top" xlink:title=" ">
<polygon fill="none" stroke="black" points="1464,-189.5 1464,-219.5 1599,-219.5 1599,-189.5 1464,-189.5"/>
<text text-anchor="start" x="1472" y="-207.5" font-family="Helvetica,sans-Serif" font-size="10.00">wmtk::simplex::Simplex</text>
<text text-anchor="middle" x="1531.5" y="-196.5" font-family="Helvetica,sans-Serif" font-size="10.00">::tuple</text>
</a>
</g>
</g>
<!-- Node6&#45;&gt;Node11 -->
<g id="edge26" class="edge">
<title>Node6&#45;&gt;Node11</title>
<path fill="none" stroke="midnightblue" d="M776.03,-276.73C792.7,-273.47 810.45,-270.19 827,-267.5 1052.96,-230.73 1323.5,-214.08 1453.42,-207.77"/>
<polygon fill="midnightblue" stroke="midnightblue" points="1453.84,-211.25 1463.66,-207.28 1453.5,-204.26 1453.84,-211.25"/>
</g>
<!-- Node14 -->
<g id="node14" class="node">
<title>Node14</title>
<g id="a_node14"><a xlink:href="classwmtk_1_1_mesh.html#abaf00438d0700358b160e310d69725c9" target="_top" xlink:title=" ">
<polygon fill="none" stroke="black" points="1258,-138 1258,-157 1428,-157 1428,-138 1258,-138"/>
<text text-anchor="middle" x="1343" y="-145" font-family="Helvetica,sans-Serif" font-size="10.00">wmtk::Mesh::top_simplex_type</text>
</a>
</g>
</g>
<!-- Node6&#45;&gt;Node14 -->
<g id="edge25" class="edge">
<title>Node6&#45;&gt;Node14</title>
<path fill="none" stroke="midnightblue" d="M773.98,-276.49C780.03,-273.71 785.81,-270.41 791,-266.5 814.93,-248.46 801.67,-225.51 827,-209.5 829.23,-208.09 1103.94,-175.55 1251.17,-158.19"/>
<polygon fill="midnightblue" stroke="midnightblue" points="1251.59,-161.66 1261.11,-157.02 1250.77,-154.71 1251.59,-161.66"/>
</g>
<!-- Node15 -->
<g id="node15" class="node">
<title>Node15</title>
<g id="a_node15"><a xlink:href="namespacewmtk_1_1utils.html#a8dab5bd8df4c7c658413914f37210244" target="_top" xlink:title=" ">
<polygon fill="none" stroke="black" points="841.5,-276.5 841.5,-306.5 963.5,-306.5 963.5,-276.5 841.5,-276.5"/>
<text text-anchor="start" x="849.5" y="-294.5" font-family="Helvetica,sans-Serif" font-size="10.00">wmtk::utils::primitive</text>
<text text-anchor="middle" x="902.5" y="-283.5" font-family="Helvetica,sans-Serif" font-size="10.00">_range</text>
</a>
</g>
</g>
<!-- Node6&#45;&gt;Node15 -->
<g id="edge15" class="edge">
<title>Node6&#45;&gt;Node15</title>
<path fill="none" stroke="midnightblue" d="M776.26,-291.5C794.04,-291.5 813.13,-291.5 830.9,-291.5"/>
<polygon fill="midnightblue" stroke="midnightblue" points="831.19,-295 841.19,-291.5 831.19,-288 831.19,-295"/>
</g>
<!-- Node18 -->
<g id="node18" class="node">
<title>Node18</title>
<g id="a_node18"><a xlink:href="namespacewmtk_1_1simplex.html#a0101f27eb2ad82814390b92ab1a4d1a0" target="_top" xlink:title=" ">
<polygon fill="none" stroke="black" points="827,-372.5 827,-402.5 978,-402.5 978,-372.5 827,-372.5"/>
<text text-anchor="start" x="835" y="-390.5" font-family="Helvetica,sans-Serif" font-size="10.00">wmtk::simplex::top</text>
<text text-anchor="middle" x="902.5" y="-379.5" font-family="Helvetica,sans-Serif" font-size="10.00">_dimension_cofaces_tuples</text>
</a>
</g>
</g>
<!-- Node6&#45;&gt;Node18 -->
<g id="edge19" class="edge">
<title>Node6&#45;&gt;Node18</title>
<path fill="none" stroke="midnightblue" d="M736.56,-306.71C770.39,-323.28 824.61,-349.84 861.58,-367.95"/>
<polygon fill="midnightblue" stroke="midnightblue" points="860.07,-371.1 870.59,-372.36 863.15,-364.82 860.07,-371.1"/>
</g>
<!-- Node8 -->
<g id="node8" class="node">
<title>Node8</title>
<g id="a_node8"><a xlink:href="classwmtk_1_1_mesh.html#a7f8a7b7d592fdbf672f2c6c9653487ea" target="_top" xlink:title=" ">
<polygon fill="none" stroke="black" points="1061,-121.5 1061,-151.5 1175,-151.5 1175,-121.5 1061,-121.5"/>
<text text-anchor="start" x="1069" y="-139.5" font-family="Helvetica,sans-Serif" font-size="10.00">wmtk::Mesh::switch</text>
<text text-anchor="middle" x="1118" y="-128.5" font-family="Helvetica,sans-Serif" font-size="10.00">_tuples</text>
</a>
</g>
</g>
<!-- Node7&#45;&gt;Node8 -->
<g id="edge7" class="edge">
<title>Node7&#45;&gt;Node8</title>
<path fill="none" stroke="midnightblue" d="M977.27,-136.5C1001.11,-136.5 1027.37,-136.5 1050.64,-136.5"/>
<polygon fill="midnightblue" stroke="midnightblue" points="1050.75,-140 1060.75,-136.5 1050.75,-133 1050.75,-140"/>
</g>
<!-- Node9 -->
<g id="node9" class="node">
<title>Node9</title>
<g id="a_node9"><a xlink:href="classwmtk_1_1_mesh.html#a58bdbbfa0cd7bd9263241f6501db182a" target="_top" xlink:title="check if a simplex lies on a boundary or not">
<polygon fill="none" stroke="black" points="1272,-176 1272,-195 1414,-195 1414,-176 1272,-176"/>
<text text-anchor="middle" x="1343" y="-183" font-family="Helvetica,sans-Serif" font-size="10.00">wmtk::Mesh::is_boundary</text>
</a>
</g>
</g>
<!-- Node8&#45;&gt;Node9 -->
<g id="edge8" class="edge">
<title>Node8&#45;&gt;Node9</title>
<path fill="none" stroke="midnightblue" d="M1175.27,-148.86C1210.15,-156.53 1254.67,-166.31 1288.94,-173.84"/>
<polygon fill="midnightblue" stroke="midnightblue" points="1288.25,-177.27 1298.76,-176 1289.75,-170.44 1288.25,-177.27"/>
</g>
<!-- Node12 -->
<g id="node12" class="node">
<title>Node12</title>
<g id="a_node12"><a xlink:href="classwmtk_1_1_mesh.html#a965a8a24158c4aa8580c57ba09f885f7" target="_top" xlink:title="switch the orientation of the Tuple of the given dimension">
<polygon fill="none" stroke="black" points="1286,-88.5 1286,-118.5 1400,-118.5 1400,-88.5 1286,-88.5"/>
<text text-anchor="start" x="1294" y="-106.5" font-family="Helvetica,sans-Serif" font-size="10.00">wmtk::Mesh::switch</text>
<text text-anchor="middle" x="1343" y="-95.5" font-family="Helvetica,sans-Serif" font-size="10.00">_tuple</text>
</a>
</g>
</g>
<!-- Node8&#45;&gt;Node12 -->
<g id="edge11" class="edge">
<title>Node8&#45;&gt;Node12</title>
<path fill="none" stroke="midnightblue" d="M1175.27,-128.17C1205.78,-123.66 1243.66,-118.05 1275.6,-113.33"/>
<polygon fill="midnightblue" stroke="midnightblue" points="1276.37,-116.75 1285.75,-111.82 1275.34,-109.83 1276.37,-116.75"/>
</g>
<!-- Node13 -->
<g id="node13" class="node">
<title>Node13</title>
<g id="a_node13"><a xlink:href="classwmtk_1_1_mesh.html#a933f681cf24a63b155c9462280385200" target="_top" xlink:title=" ">
<polygon fill="none" stroke="black" points="1471,-102.5 1471,-132.5 1592,-132.5 1592,-102.5 1471,-102.5"/>
<text text-anchor="start" x="1479" y="-120.5" font-family="Helvetica,sans-Serif" font-size="10.00">wmtk::Mesh::top_cell</text>
<text text-anchor="middle" x="1531.5" y="-109.5" font-family="Helvetica,sans-Serif" font-size="10.00">_dimension</text>
</a>
</g>
</g>
<!-- Node8&#45;&gt;Node13 -->
<g id="edge12" class="edge">
<title>Node8&#45;&gt;Node13</title>
<path fill="none" stroke="midnightblue" d="M1156.79,-121.42C1176.32,-113.54 1200.5,-103.66 1222,-94.5 1238.11,-87.64 1240.87,-82.13 1258,-78.5 1331.91,-62.82 1353.69,-64.84 1428,-78.5 1449.21,-82.4 1471.71,-90.48 1490.22,-98.28"/>
<polygon fill="midnightblue" stroke="midnightblue" points="1488.93,-101.54 1499.5,-102.31 1491.72,-95.12 1488.93,-101.54"/>
</g>
<!-- Node8&#45;&gt;Node14 -->
<g id="edge13" class="edge">
<title>Node8&#45;&gt;Node14</title>
<path fill="none" stroke="midnightblue" d="M1175.27,-139.28C1197.27,-140.36 1223.11,-141.64 1247.79,-142.85"/>
<polygon fill="midnightblue" stroke="midnightblue" points="1247.75,-146.36 1257.91,-143.35 1248.1,-139.36 1247.75,-146.36"/>
</g>
<!-- Node9&#45;&gt;Node10 -->
<g id="edge9" class="edge">
<title>Node9&#45;&gt;Node10</title>
<path fill="none" stroke="midnightblue" d="M1348.66,-195.21C1363.27,-225.12 1410.38,-317.86 1464,-384.5 1475.97,-399.38 1491.34,-414.16 1504.29,-425.66"/>
<polygon fill="midnightblue" stroke="midnightblue" points="1502.15,-428.44 1511.99,-432.37 1506.75,-423.16 1502.15,-428.44"/>
</g>
<!-- Node9&#45;&gt;Node11 -->
<g id="edge10" class="edge">
<title>Node9&#45;&gt;Node11</title>
<path fill="none" stroke="midnightblue" d="M1414.24,-192.66C1427.03,-193.96 1440.44,-195.33 1453.42,-196.65"/>
<polygon fill="midnightblue" stroke="midnightblue" points="1453.41,-200.16 1463.71,-197.7 1454.12,-193.2 1453.41,-200.16"/>
</g>
<!-- Node14&#45;&gt;Node13 -->
<g id="edge14" class="edge">
<title>Node14&#45;&gt;Node13</title>
<path fill="none" stroke="midnightblue" d="M1403.27,-137.97C1421.53,-135.03 1441.81,-131.77 1460.71,-128.73"/>
<polygon fill="midnightblue" stroke="midnightblue" points="1461.43,-132.16 1470.75,-127.11 1460.32,-125.24 1461.43,-132.16"/>
</g>
<!-- Node16 -->
<g id="node16" class="node">
<title>Node16</title>
<g id="a_node16"><a xlink:href="namespacewmtk.html#a3b08a5d7fb42f02c54bae85758b39f59" target="_top" xlink:title="Get the primitive type corresponding to its unique integer id.">
<polygon fill="none" stroke="black" points="1060,-301.5 1060,-331.5 1176,-331.5 1176,-301.5 1060,-301.5"/>
<text text-anchor="start" x="1068" y="-319.5" font-family="Helvetica,sans-Serif" font-size="10.00">wmtk::get_primitive</text>
<text text-anchor="middle" x="1118" y="-308.5" font-family="Helvetica,sans-Serif" font-size="10.00">_type_from_id</text>
</a>
</g>
</g>
<!-- Node15&#45;&gt;Node16 -->
<g id="edge16" class="edge">
<title>Node15&#45;&gt;Node16</title>
<path fill="none" stroke="midnightblue" d="M963.54,-298.53C990.45,-301.68 1022.3,-305.41 1049.98,-308.65"/>
<polygon fill="midnightblue" stroke="midnightblue" points="1049.64,-312.14 1059.98,-309.82 1050.45,-305.18 1049.64,-312.14"/>
</g>
<!-- Node17 -->
<g id="node17" class="node">
<title>Node17</title>
<g id="a_node17"><a xlink:href="namespacewmtk.html#a5cf45c152e856196bb734c6f48919a24" target="_top" xlink:title="Get a unique integer id corresponding to each primitive type.">
<polygon fill="none" stroke="black" points="1060,-252.5 1060,-282.5 1176,-282.5 1176,-252.5 1060,-252.5"/>
<text text-anchor="start" x="1068" y="-270.5" font-family="Helvetica,sans-Serif" font-size="10.00">wmtk::get_primitive</text>
<text text-anchor="middle" x="1118" y="-259.5" font-family="Helvetica,sans-Serif" font-size="10.00">_type_id</text>
</a>
</g>
</g>
<!-- Node15&#45;&gt;Node17 -->
<g id="edge17" class="edge">
<title>Node15&#45;&gt;Node17</title>
<path fill="none" stroke="midnightblue" d="M963.54,-284.75C990.45,-281.73 1022.3,-278.15 1049.98,-275.03"/>
<polygon fill="midnightblue" stroke="midnightblue" points="1050.43,-278.51 1059.98,-273.91 1049.65,-271.55 1050.43,-278.51"/>
</g>
<!-- Node18&#45;&gt;Node10 -->
<g id="edge24" class="edge">
<title>Node18&#45;&gt;Node10</title>
<path fill="none" stroke="midnightblue" d="M978.2,-394.65C1098.1,-406.12 1332.3,-428.53 1453.59,-440.14"/>
<polygon fill="midnightblue" stroke="midnightblue" points="1453.62,-443.66 1463.9,-441.13 1454.28,-436.69 1453.62,-443.66"/>
</g>
<!-- Node19 -->
<g id="node19" class="node">
<title>Node19</title>
<g id="a_node19"><a xlink:href="classwmtk_1_1simplex_1_1_simplex_collection.html#a1e7079b3b75f70dd28c524556cab76cf" target="_top" xlink:title="Add simplex to the collection.">
<polygon fill="none" stroke="black" points="1014,-438 1014,-457 1222,-457 1222,-438 1014,-438"/>
<text text-anchor="middle" x="1118" y="-445" font-family="Helvetica,sans-Serif" font-size="10.00">wmtk::simplex::SimplexCollection::add</text>
</a>
</g>
</g>
<!-- Node18&#45;&gt;Node19 -->
<g id="edge20" class="edge">
<title>Node18&#45;&gt;Node19</title>
<path fill="none" stroke="midnightblue" d="M946.8,-402.56C967.08,-409.37 991.65,-417.27 1014,-423.5 1029.6,-427.85 1046.67,-432.05 1062.35,-435.69"/>
<polygon fill="midnightblue" stroke="midnightblue" points="1061.9,-439.17 1072.43,-437.99 1063.46,-432.35 1061.9,-439.17"/>
</g>
<!-- Node20 -->
<g id="node20" class="node">
<title>Node20</title>
<g id="a_node20"><a xlink:href="namespacewmtk.html#a441d6ad4f19569c7d4946e743da1a925" target="_top" xlink:title=" ">
<polygon fill="none" stroke="black" points="1057,-350.5 1057,-380.5 1179,-380.5 1179,-350.5 1057,-350.5"/>
<text text-anchor="start" x="1065" y="-368.5" font-family="Helvetica,sans-Serif" font-size="10.00">wmtk::log_and_throw</text>
<text text-anchor="middle" x="1118" y="-357.5" font-family="Helvetica,sans-Serif" font-size="10.00">_error</text>
</a>
</g>
</g>
<!-- Node18&#45;&gt;Node20 -->
<g id="edge21" class="edge">
<title>Node18&#45;&gt;Node20</title>
<path fill="none" stroke="midnightblue" d="M978.17,-379.81C1000.39,-377.52 1024.65,-375.02 1046.58,-372.76"/>
<polygon fill="midnightblue" stroke="midnightblue" points="1047.22,-376.21 1056.81,-371.7 1046.5,-369.25 1047.22,-376.21"/>
</g>
<!-- Node21 -->
<g id="node21" class="node">
<title>Node21</title>
<g id="a_node21"><a xlink:href="namespacewmtk.html#a6a35f11c12436093d26fdd8be6fecc06" target="_top" xlink:title="Retrieves the current logger.">
<polygon fill="none" stroke="black" points="1302.5,-356 1302.5,-375 1383.5,-375 1383.5,-356 1302.5,-356"/>
<text text-anchor="middle" x="1343" y="-363" font-family="Helvetica,sans-Serif" font-size="10.00">wmtk::logger</text>
</a>
</g>
</g>
<!-- Node20&#45;&gt;Node21 -->
<g id="edge22" class="edge">
<title>Node20&#45;&gt;Node21</title>
<path fill="none" stroke="midnightblue" d="M1179.05,-365.5C1214.48,-365.5 1258.77,-365.5 1292.24,-365.5"/>
<polygon fill="midnightblue" stroke="midnightblue" points="1292.25,-369 1302.25,-365.5 1292.25,-362 1292.25,-369"/>
</g>
<!-- Node22 -->
<g id="node22" class="node">
<title>Node22</title>
<g id="a_node22"><a xlink:href="namespacewmtk.html#a3daa7951a5f8b78cf4600dc047fcc180" target="_top" xlink:title="Setup a logger object to be used by WildmeshToolkit.">
<polygon fill="none" stroke="black" points="1481,-356 1481,-375 1582,-375 1582,-356 1481,-356"/>
<text text-anchor="middle" x="1531.5" y="-363" font-family="Helvetica,sans-Serif" font-size="10.00">wmtk::set_logger</text>
</a>
</g>
</g>
<!-- Node21&#45;&gt;Node22 -->
<g id="edge23" class="edge">
<title>Node21&#45;&gt;Node22</title>
<path fill="none" stroke="midnightblue" d="M1383.55,-365.5C1408.79,-365.5 1441.98,-365.5 1470.44,-365.5"/>
<polygon fill="midnightblue" stroke="midnightblue" points="1470.68,-369 1480.68,-365.5 1470.68,-362 1470.68,-369"/>
</g>
<!-- Node26 -->
<g id="node26" class="node">
<title>Node26</title>
<g id="a_node26"><a xlink:href="classwmtk_1_1attribute_1_1_mesh_attribute_handle.html#a3c2f0b99a4f3581ac8da264d10c493a1" target="_top" xlink:title=" ">
<polygon fill="none" stroke="black" points="415,-161.5 415,-191.5 582,-191.5 582,-161.5 415,-161.5"/>
<text text-anchor="start" x="423" y="-179.5" font-family="Helvetica,sans-Serif" font-size="10.00">wmtk::attribute::MeshAttribute</text>
<text text-anchor="middle" x="498.5" y="-168.5" font-family="Helvetica,sans-Serif" font-size="10.00">Handle::dimension</text>
</a>
</g>
</g>
<!-- Node25&#45;&gt;Node26 -->
<g id="edge30" class="edge">
<title>Node25&#45;&gt;Node26</title>
<path fill="none" stroke="midnightblue" d="M361.76,-185.84C375.57,-184.89 390.33,-183.87 404.83,-182.88"/>
<polygon fill="midnightblue" stroke="midnightblue" points="405.08,-186.37 414.82,-182.19 404.6,-179.38 405.08,-186.37"/>
</g>
<!-- Node33 -->
<g id="node33" class="node">
<title>Node33</title>
<g id="a_node33"><a xlink:href="classwmtk_1_1attribute_1_1_mesh_attribute_handle.html#ad577111f5b1fd05f60fae4b7f0ddb1f6" target="_top" xlink:title=" ">
<polygon fill="none" stroke="black" points="621,-68.5 621,-98.5 788,-98.5 788,-68.5 621,-68.5"/>
<text text-anchor="start" x="629" y="-86.5" font-family="Helvetica,sans-Serif" font-size="10.00">wmtk::attribute::MeshAttribute</text>
<text text-anchor="middle" x="704.5" y="-75.5" font-family="Helvetica,sans-Serif" font-size="10.00">Handle::is_valid</text>
</a>
</g>
</g>
<!-- Node25&#45;&gt;Node33 -->
<g id="edge37" class="edge">
<title>Node25&#45;&gt;Node33</title>
<path fill="none" stroke="midnightblue" d="M350.47,-175.37C360.04,-172.58 369.84,-169.57 379,-166.5 395.28,-161.05 398.61,-157.62 415,-152.5 453.85,-140.36 554.71,-116.91 626.2,-100.74"/>
<polygon fill="midnightblue" stroke="midnightblue" points="627.09,-104.12 636.08,-98.51 625.55,-97.3 627.09,-104.12"/>
</g>
<!-- Node27 -->
<g id="node27" class="node">
<title>Node27</title>
<g id="a_node27"><a xlink:href="classwmtk_1_1_mesh.html#a4f546f0125de42db771686220d77ec78" target="_top" xlink:title=" ">
<polygon fill="none" stroke="black" points="631.5,-166.5 631.5,-196.5 777.5,-196.5 777.5,-166.5 631.5,-166.5"/>
<text text-anchor="start" x="639.5" y="-184.5" font-family="Helvetica,sans-Serif" font-size="10.00">wmtk::Mesh::get_attribute</text>
<text text-anchor="middle" x="704.5" y="-173.5" font-family="Helvetica,sans-Serif" font-size="10.00">_dimension</text>
</a>
</g>
</g>
<!-- Node26&#45;&gt;Node27 -->
<g id="edge31" class="edge">
<title>Node26&#45;&gt;Node27</title>
<path fill="none" stroke="midnightblue" d="M582.18,-178.53C594.99,-178.84 608.22,-179.16 621.03,-179.48"/>
<polygon fill="midnightblue" stroke="midnightblue" points="621.11,-182.98 631.19,-179.73 621.28,-175.98 621.11,-182.98"/>
</g>
<!-- Node32 -->
<g id="node32" class="node">
<title>Node32</title>
<g id="a_node32"><a xlink:href="classwmtk_1_1attribute_1_1_mesh_attribute_handle.html#a620620d54776b2c5f4f9cebad465cfa7" target="_top" xlink:title=" ">
<polygon fill="none" stroke="black" points="621,-117.5 621,-147.5 788,-147.5 788,-117.5 621,-117.5"/>
<text text-anchor="start" x="629" y="-135.5" font-family="Helvetica,sans-Serif" font-size="10.00">wmtk::attribute::MeshAttribute</text>
<text text-anchor="middle" x="704.5" y="-124.5" font-family="Helvetica,sans-Serif" font-size="10.00">Handle::mesh</text>
</a>
</g>
</g>
<!-- Node26&#45;&gt;Node32 -->
<g id="edge36" class="edge">
<title>Node26&#45;&gt;Node32</title>
<path fill="none" stroke="midnightblue" d="M569.13,-161.48C586.76,-157.68 605.83,-153.57 623.91,-149.67"/>
<polygon fill="midnightblue" stroke="midnightblue" points="624.8,-153.06 633.83,-147.53 623.32,-146.21 624.8,-153.06"/>
</g>
<!-- Node28 -->
<g id="node28" class="node">
<title>Node28</title>
<g id="a_node28"><a xlink:href="classwmtk_1_1attribute_1_1_attribute_manager.html#a4ae249faad236f8d98287c3ec61e987e" target="_top" xlink:title=" ">
<polygon fill="none" stroke="black" points="832,-50 832,-91 973,-91 973,-50 832,-50"/>
<text text-anchor="start" x="840" y="-79" font-family="Helvetica,sans-Serif" font-size="10.00">wmtk::attribute::Attribute</text>
<text text-anchor="start" x="840" y="-68" font-family="Helvetica,sans-Serif" font-size="10.00">Manager::get_attribute</text>
<text text-anchor="middle" x="902.5" y="-57" font-family="Helvetica,sans-Serif" font-size="10.00">_dimension</text>
</a>
</g>
</g>
<!-- Node27&#45;&gt;Node28 -->
<g id="edge32" class="edge">
<title>Node27&#45;&gt;Node28</title>
<path fill="none" stroke="midnightblue" d="M775.06,-166.48C780.69,-163.94 786.09,-160.97 791,-157.5 813.66,-141.49 805.84,-124.44 827,-106.5 831.42,-102.75 836.3,-99.29 841.39,-96.12"/>
<polygon fill="midnightblue" stroke="midnightblue" points="843.2,-99.11 850.09,-91.05 839.68,-93.06 843.2,-99.11"/>
</g>
<!-- Node29 -->
<g id="node29" class="node">
<title>Node29</title>
<g id="a_node29"><a xlink:href="classwmtk_1_1attribute_1_1_attribute_manager.html#a8f09c6131e0dbf55f249c5eb97c3216b" target="_top" xlink:title=" ">
<polygon fill="none" stroke="black" points="1047.5,-55.5 1047.5,-85.5 1188.5,-85.5 1188.5,-55.5 1047.5,-55.5"/>
<text text-anchor="start" x="1055.5" y="-73.5" font-family="Helvetica,sans-Serif" font-size="10.00">wmtk::attribute::Attribute</text>
<text text-anchor="middle" x="1118" y="-62.5" font-family="Helvetica,sans-Serif" font-size="10.00">Manager::get</text>
</a>
</g>
</g>
<!-- Node28&#45;&gt;Node29 -->
<g id="edge33" class="edge">
<title>Node28&#45;&gt;Node29</title>
<path fill="none" stroke="midnightblue" d="M973.11,-70.5C993.61,-70.5 1016.19,-70.5 1037.27,-70.5"/>
<polygon fill="midnightblue" stroke="midnightblue" points="1037.48,-74 1047.48,-70.5 1037.48,-67 1037.48,-74"/>
</g>
<!-- Node30 -->
<g id="node30" class="node">
<title>Node30</title>
<g id="a_node30"><a xlink:href="classwmtk_1_1attribute_1_1_typed_attribute_handle.html#ad473b36dc43489bad4a345dceac443fa" target="_top" xlink:title=" ">
<polygon fill="none" stroke="black" points="1033,-3.5 1033,-33.5 1203,-33.5 1203,-3.5 1033,-3.5"/>
<text text-anchor="start" x="1041" y="-21.5" font-family="Helvetica,sans-Serif" font-size="10.00">wmtk::attribute::TypedAttribute</text>
<text text-anchor="middle" x="1118" y="-10.5" font-family="Helvetica,sans-Serif" font-size="10.00">Handle::is_valid</text>
</a>
</g>
</g>
<!-- Node28&#45;&gt;Node30 -->
<g id="edge34" class="edge">
<title>Node28&#45;&gt;Node30</title>
<path fill="none" stroke="midnightblue" d="M973.11,-53.55C996.32,-47.89 1022.21,-41.59 1045.56,-35.9"/>
<polygon fill="midnightblue" stroke="midnightblue" points="1046.51,-39.27 1055.4,-33.5 1044.85,-32.47 1046.51,-39.27"/>
</g>
<!-- Node31 -->
<g id="node31" class="node">
<title>Node31</title>
<g id="a_node31"><a xlink:href="classwmtk_1_1attribute_1_1_attribute_handle.html#afbe0d658f352336562850deaca347fe6" target="_top" xlink:title=" ">
<polygon fill="none" stroke="black" points="1272.5,-0.5 1272.5,-30.5 1413.5,-30.5 1413.5,-0.5 1272.5,-0.5"/>
<text text-anchor="start" x="1280.5" y="-18.5" font-family="Helvetica,sans-Serif" font-size="10.00">wmtk::attribute::Attribute</text>
<text text-anchor="middle" x="1343" y="-7.5" font-family="Helvetica,sans-Serif" font-size="10.00">Handle::is_valid</text>
</a>
</g>
</g>
<!-- Node30&#45;&gt;Node31 -->
<g id="edge35" class="edge">
<title>Node30&#45;&gt;Node31</title>
<path fill="none" stroke="midnightblue" d="M1203.31,-17.37C1222.65,-17.11 1243.15,-16.83 1262.29,-16.57"/>
<polygon fill="midnightblue" stroke="midnightblue" points="1262.51,-20.07 1272.47,-16.44 1262.42,-13.07 1262.51,-20.07"/>
</g>
<!-- Node34&#45;&gt;Node26 -->
<g id="edge41" class="edge">
<title>Node34&#45;&gt;Node26</title>
<path fill="none" stroke="midnightblue" d="M379.12,-156.14C387.66,-157.61 396.35,-159.1 404.95,-160.58"/>
<polygon fill="midnightblue" stroke="midnightblue" points="404.55,-164.06 415,-162.31 405.74,-157.17 404.55,-164.06"/>
</g>
<!-- Node35 -->
<g id="node35" class="node">
<title>Node35</title>
<g id="a_node35"><a xlink:href="classwmtk_1_1function_1_1_per_simplex_function.html#a0df382a56885d99b8f1c480f016387e1" target="_top" xlink:title=" ">
<polygon fill="none" stroke="black" points="422.5,-70.5 422.5,-100.5 574.5,-100.5 574.5,-70.5 422.5,-70.5"/>
<text text-anchor="start" x="430.5" y="-88.5" font-family="Helvetica,sans-Serif" font-size="10.00">wmtk::function::PerSimplex</text>
<text text-anchor="middle" x="498.5" y="-77.5" font-family="Helvetica,sans-Serif" font-size="10.00">Function::attribute_handle</text>
</a>
</g>
</g>
<!-- Node34&#45;&gt;Node35 -->
<g id="edge39" class="edge">
<title>Node34&#45;&gt;Node35</title>
<path fill="none" stroke="midnightblue" d="M348.53,-126.49C374.54,-119.34 405.83,-110.73 433.01,-103.25"/>
<polygon fill="midnightblue" stroke="midnightblue" points="434.1,-106.58 442.82,-100.55 432.24,-99.83 434.1,-106.58"/>
</g>
<!-- Node35&#45;&gt;Node33 -->
<g id="edge40" class="edge">
<title>Node35&#45;&gt;Node33</title>
<path fill="none" stroke="midnightblue" d="M574.59,-84.76C586.31,-84.65 598.53,-84.53 610.59,-84.41"/>
<polygon fill="midnightblue" stroke="midnightblue" points="610.7,-87.91 620.66,-84.31 610.63,-80.91 610.7,-87.91"/>
</g>
</g>
</svg>
        <g id="navigator" transform="translate(0 0)" fill="#404254">
                <rect fill="#f2f5e9" fill-opacity="0.5" stroke="#606060" stroke-width=".5" x="0" y="0" width="60" height="60"/>
                <use id="zoomplus" xlink:href="#zoomPlus" x="17" y="9" onmousedown="handleZoom(evt,'in')"/>
                <use id="zoomminus" xlink:href="#zoomMin" x="42" y="9" onmousedown="handleZoom(evt,'out')"/>
                <use id="reset" xlink:href="#resetDef" x="30" y="36" onmousedown="handleReset()"/>
                <g id="arrowUp" xlink:href="#dirArrow" transform="translate(30 24)" onmousedown="handlePan(0,-1)">
                  <use xlink:href="#rim" fill="#404040">
                        <set attributeName="fill" to="#808080" begin="arrowUp.mouseover" end="arrowUp.mouseout"/>
                  </use>
                  <path fill="none" stroke="white" stroke-width="1.5" d="M0,-3.0v7 M-2.5,-0.5L0,-3.0L2.5,-0.5"/>
                </g>
                <g id="arrowRight" xlink:href="#dirArrow" transform="rotate(90) translate(36 -43)" onmousedown="handlePan(1,0)">
                  <use xlink:href="#rim" fill="#404040">
                        <set attributeName="fill" to="#808080" begin="arrowRight.mouseover" end="arrowRight.mouseout"/>
                  </use>
                  <path fill="none" stroke="white" stroke-width="1.5" d="M0,-3.0v7 M-2.5,-0.5L0,-3.0L2.5,-0.5"/>
                </g>
                <g id="arrowDown" xlink:href="#dirArrow" transform="rotate(180) translate(-30 -48)" onmousedown="handlePan(0,1)">
                  <use xlink:href="#rim" fill="#404040">
                        <set attributeName="fill" to="#808080" begin="arrowDown.mouseover" end="arrowDown.mouseout"/>
                  </use>
                  <path fill="none" stroke="white" stroke-width="1.5" d="M0,-3.0v7 M-2.5,-0.5L0,-3.0L2.5,-0.5"/>
                </g>
                <g id="arrowLeft" xlink:href="#dirArrow" transform="rotate(270) translate(-36 17)" onmousedown="handlePan(-1,0)">
                  <use xlink:href="#rim" fill="#404040">
                        <set attributeName="fill" to="#808080" begin="arrowLeft.mouseover" end="arrowLeft.mouseout"/>
                  </use>
                  <path fill="none" stroke="white" stroke-width="1.5" d="M0,-3.0v7 M-2.5,-0.5L0,-3.0L2.5,-0.5"/>
                </g>
        </g>
        <svg viewBox="0 0 15 15" width="100%" height="30px" preserveAspectRatio="xMaxYMin meet">
         <g id="arrow_out" transform="scale(0.3 0.3)">
          <a xlink:href="classwmtk_1_1function_1_1_local_neighbors_sum_function_a0b81383595fa81fb270266bb6cee71da_cgraph_org.svg" target="_base">
           <rect id="button" ry="5" rx="5" y="6" x="6" height="38" width="38"
                fill="#f2f5e9" fill-opacity="0.5" stroke="#606060" stroke-width="1.0"/>
           <path id="arrow"
             d="M 11.500037,31.436501 C 11.940474,20.09759 22.043105,11.32322 32.158766,21.979434 L 37.068811,17.246167 C 37.068811,17.246167 37.088388,32 37.088388,32 L 22.160133,31.978069 C 22.160133,31.978069 26.997745,27.140456 26.997745,27.140456 C 18.528582,18.264221 13.291696,25.230495 11.500037,31.436501 z"
             style="fill:#404040;"/>
          </a>
         </g>
        </svg>
</svg>
