<?xml version="1.0" encoding="UTF-8" standalone="no"?>
<!DOCTYPE svg PUBLIC "-//W3C//DTD SVG 1.1//EN"
 "http://www.w3.org/Graphics/SVG/1.1/DTD/svg11.dtd">
<!-- Generated by graphviz version 2.43.0 (0)
 -->
<!-- Title: wmtk::operations::internal::SplitAlternateFacetOptionData::boundary_indices Pages: 1 -->
<svg width="564pt" height="86pt"
 viewBox="0.00 0.00 564.00 86.00" xmlns="http://www.w3.org/2000/svg" xmlns:xlink="http://www.w3.org/1999/xlink">
<g id="graph0" class="graph" transform="scale(1 1) rotate(0) translate(4 82)">
<title>wmtk::operations::internal::SplitAlternateFacetOptionData::boundary_indices</title>
<!-- Node1 -->
<g id="Node000001" class="node">
<title>Node1</title>
<g id="a_Node000001"><a xlink:title=" ">
<polygon fill="#999999" stroke="#666666" points="170,-59.5 0,-59.5 0,-18.5 170,-18.5 170,-59.5"/>
<text text-anchor="start" x="8" y="-47.5" font-family="Helvetica,sans-Serif" font-size="10.00">wmtk::operations::internal</text>
<text text-anchor="start" x="8" y="-36.5" font-family="Helvetica,sans-Serif" font-size="10.00">::SplitAlternateFacetOptionData</text>
<text text-anchor="middle" x="85" y="-25.5" font-family="Helvetica,sans-Serif" font-size="10.00">::boundary_indices</text>
</a>
</g>
</g>
<!-- Node2 -->
<g id="Node000002" class="node">
<title>Node2</title>
<g id="a_Node000002"><a xlink:href="classwmtk_1_1autogen_1_1_simplex_dart.html#a21ce39640b06675b3e15f8e30ce5d45b" target="_top" xlink:title=" ">
<polygon fill="white" stroke="#666666" points="363,-54 206,-54 206,-24 363,-24 363,-54"/>
<text text-anchor="start" x="214" y="-42" font-family="Helvetica,sans-Serif" font-size="10.00">wmtk::autogen::SimplexDart</text>
<text text-anchor="middle" x="284.5" y="-31" font-family="Helvetica,sans-Serif" font-size="10.00">::get_singleton</text>
</a>
</g>
</g>
<!-- Node1&#45;&gt;Node2 -->
<g id="edge1_Node000001_Node000002" class="edge">
<title>Node1&#45;&gt;Node2</title>
<g id="a_edge1_Node000001_Node000002"><a xlink:title=" ">
<path fill="none" stroke="#63b8ff" d="M170.04,-39C178.48,-39 187.06,-39 195.53,-39"/>
<polygon fill="#63b8ff" stroke="#63b8ff" points="195.8,-42.5 205.8,-39 195.8,-35.5 195.8,-42.5"/>
</a>
</g>
</g>
<!-- Node3 -->
<g id="Node000003" class="node">
<title>Node3</title>
<g id="a_Node000003"><a xlink:href="namespacewmtk.html#a5cf45c152e856196bb734c6f48919a24" target="_top" xlink:title="Get a unique integer id corresponding to each primitive type.">
<polygon fill="white" stroke="#666666" points="535.5,-78 419.5,-78 419.5,-48 535.5,-48 535.5,-78"/>
<text text-anchor="start" x="427.5" y="-66" font-family="Helvetica,sans-Serif" font-size="10.00">wmtk::get_primitive</text>
<text text-anchor="middle" x="477.5" y="-55" font-family="Helvetica,sans-Serif" font-size="10.00">_type_id</text>
</a>
</g>
</g>
<!-- Node2&#45;&gt;Node3 -->
<g id="edge2_Node000002_Node000003" class="edge">
<title>Node2&#45;&gt;Node3</title>
<g id="a_edge2_Node000002_Node000003"><a xlink:title=" ">
<path fill="none" stroke="#63b8ff" d="M363.19,-48.76C378.46,-50.68 394.36,-52.68 409.26,-54.55"/>
<polygon fill="#63b8ff" stroke="#63b8ff" points="409.03,-58.05 419.39,-55.82 409.9,-51.1 409.03,-58.05"/>
</a>
</g>
</g>
<!-- Node4 -->
<g id="Node000004" class="node">
<title>Node4</title>
<g id="a_Node000004"><a xlink:href="classwmtk_1_1autogen_1_1_simplex_dart.html#a69daf4f546ec5ae10ce9f7b675418964" target="_top" xlink:title=" ">
<polygon fill="white" stroke="#666666" points="556,-30 399,-30 399,0 556,0 556,-30"/>
<text text-anchor="start" x="407" y="-18" font-family="Helvetica,sans-Serif" font-size="10.00">wmtk::autogen::SimplexDart</text>
<text text-anchor="middle" x="477.5" y="-7" font-family="Helvetica,sans-Serif" font-size="10.00">::simplex_type</text>
</a>
</g>
</g>
<!-- Node2&#45;&gt;Node4 -->
<g id="edge3_Node000002_Node000004" class="edge">
<title>Node2&#45;&gt;Node4</title>
<g id="a_edge3_Node000002_Node000004"><a xlink:title=" ">
<path fill="none" stroke="#63b8ff" d="M363.19,-29.24C371.65,-28.17 380.31,-27.09 388.88,-26.01"/>
<polygon fill="#63b8ff" stroke="#63b8ff" points="389.4,-29.47 398.88,-24.75 388.52,-22.53 389.4,-29.47"/>
</a>
</g>
</g>
</g>
</svg>
