<?xml version="1.0" encoding="UTF-8" standalone="no"?>
<!DOCTYPE svg PUBLIC "-//W3C//DTD SVG 1.1//EN"
 "http://www.w3.org/Graphics/SVG/1.1/DTD/svg11.dtd">
<!-- Generated by graphviz version 2.43.0 (0)
 -->
<!-- Title: wmtk::utils::EigenMatrixWriter::get_FV_matrix Pages: 1 -->
<svg width="713pt" height="388pt"
 viewBox="0.00 0.00 713.00 388.00" xmlns="http://www.w3.org/2000/svg" xmlns:xlink="http://www.w3.org/1999/xlink">
<g id="graph0" class="graph" transform="scale(1 1) rotate(0) translate(4 384)">
<title>wmtk::utils::EigenMatrixWriter::get_FV_matrix</title>
<!-- Node1 -->
<g id="Node000001" class="node">
<title>Node1</title>
<g id="a_Node000001"><a xlink:title=" ">
<polygon fill="#999999" stroke="#666666" points="705,-223 569,-223 569,-193 705,-193 705,-223"/>
<text text-anchor="start" x="577" y="-211" font-family="Helvetica,sans-Serif" font-size="10.00">wmtk::utils::EigenMatrix</text>
<text text-anchor="middle" x="637" y="-200" font-family="Helvetica,sans-Serif" font-size="10.00">Writer::get_FV_matrix</text>
</a>
</g>
</g>
<!-- Node2 -->
<g id="Node000002" class="node">
<title>Node2</title>
<g id="a_Node000002"><a xlink:href="namespacewmtk_1_1components_1_1multimesh.html#afd7e3fbf6613b1570cf648edfea6c9b9" target="_top" xlink:title=" ">
<polygon fill="white" stroke="#666666" points="533,-380 364,-380 364,-350 533,-350 533,-380"/>
<text text-anchor="start" x="372" y="-368" font-family="Helvetica,sans-Serif" font-size="10.00">wmtk::components::multimesh</text>
<text text-anchor="middle" x="448.5" y="-357" font-family="Helvetica,sans-Serif" font-size="10.00">::axis_aligned_fusion</text>
</a>
</g>
</g>
<!-- Node1&#45;&gt;Node2 -->
<g id="edge1_Node000001_Node000002" class="edge">
<title>Node1&#45;&gt;Node2</title>
<g id="a_edge1_Node000001_Node000002"><a xlink:title=" ">
<path fill="none" stroke="#63b8ff" d="M623.54,-232.27C606.91,-262.26 574.66,-312.75 533,-341 527.88,-344.47 522.26,-347.45 516.43,-349.99"/>
<polygon fill="#63b8ff" stroke="#63b8ff" points="626.71,-233.78 628.38,-223.31 620.55,-230.45 626.71,-233.78"/>
</a>
</g>
</g>
<!-- Node3 -->
<g id="Node000003" class="node">
<title>Node3</title>
<g id="a_Node000003"><a xlink:href="namespacewmtk_1_1components_1_1internal.html#aff1250493ee8c47518118b92223c8576" target="_top" xlink:title=" ">
<polygon fill="white" stroke="#666666" points="525.5,-332 371.5,-332 371.5,-302 525.5,-302 525.5,-332"/>
<text text-anchor="start" x="379.5" y="-320" font-family="Helvetica,sans-Serif" font-size="10.00">wmtk::components::internal</text>
<text text-anchor="middle" x="448.5" y="-309" font-family="Helvetica,sans-Serif" font-size="10.00">::edge_insertion</text>
</a>
</g>
</g>
<!-- Node1&#45;&gt;Node3 -->
<g id="edge2_Node000001_Node000003" class="edge">
<title>Node1&#45;&gt;Node3</title>
<g id="a_edge2_Node000001_Node000003"><a xlink:title=" ">
<path fill="none" stroke="#63b8ff" d="M614.53,-230.28C594.93,-249.43 564.33,-276.49 533,-293 526.59,-296.37 519.66,-299.33 512.61,-301.9"/>
<polygon fill="#63b8ff" stroke="#63b8ff" points="617.11,-232.65 621.73,-223.12 612.17,-227.69 617.11,-232.65"/>
</a>
</g>
</g>
<!-- Node4 -->
<g id="Node000004" class="node">
<title>Node4</title>
<g id="a_Node000004"><a xlink:href="namespacewmtk_1_1components_1_1internal.html#ae96e456a97cc6bb91612325fce6c6abb" target="_top" xlink:title=" ">
<polygon fill="white" stroke="#666666" points="525.5,-266 371.5,-266 371.5,-236 525.5,-236 525.5,-266"/>
<text text-anchor="start" x="379.5" y="-254" font-family="Helvetica,sans-Serif" font-size="10.00">wmtk::components::internal</text>
<text text-anchor="middle" x="448.5" y="-243" font-family="Helvetica,sans-Serif" font-size="10.00">::get_vf</text>
</a>
</g>
</g>
<!-- Node1&#45;&gt;Node4 -->
<g id="edge3_Node000001_Node000004" class="edge">
<title>Node1&#45;&gt;Node4</title>
<g id="a_edge3_Node000001_Node000004"><a xlink:title=" ">
<path fill="none" stroke="#63b8ff" d="M560.84,-225.33C545.56,-228.85 529.6,-232.53 514.69,-235.97"/>
<polygon fill="#63b8ff" stroke="#63b8ff" points="561.81,-228.7 570.77,-223.04 560.24,-221.88 561.81,-228.7"/>
</a>
</g>
</g>
<!-- Node7 -->
<g id="Node000007" class="node">
<title>Node7</title>
<g id="a_Node000007"><a xlink:href="test__component__fusion_8cpp.html#ad717d3fcca492f6237e8e5f0e3455e4e" target="_top" xlink:title=" ">
<polygon fill="white" stroke="#666666" points="484,-217.5 413,-217.5 413,-198.5 484,-198.5 484,-217.5"/>
<text text-anchor="middle" x="448.5" y="-205.5" font-family="Helvetica,sans-Serif" font-size="10.00">TEST_CASE</text>
</a>
</g>
</g>
<!-- Node1&#45;&gt;Node7 -->
<g id="edge8_Node000001_Node000007" class="edge">
<title>Node1&#45;&gt;Node7</title>
<g id="a_edge8_Node000001_Node000007"><a xlink:title=" ">
<path fill="none" stroke="#63b8ff" d="M558.71,-208C532.76,-208 505.11,-208 484.12,-208"/>
<polygon fill="#63b8ff" stroke="#63b8ff" points="558.93,-211.5 568.93,-208 558.93,-204.5 558.93,-211.5"/>
</a>
</g>
</g>
<!-- Node8 -->
<g id="Node000008" class="node">
<title>Node8</title>
<g id="a_Node000008"><a xlink:href="namespacewmtk_1_1components.html#ab76577dc5b3ef0ad8ac307cff60d5807" target="_top" xlink:title="Perform the simplification from the original tetwild.">
<polygon fill="white" stroke="#666666" points="523.5,-162 373.5,-162 373.5,-132 523.5,-132 523.5,-162"/>
<text text-anchor="start" x="381.5" y="-150" font-family="Helvetica,sans-Serif" font-size="10.00">wmtk::components::tetwild</text>
<text text-anchor="middle" x="448.5" y="-139" font-family="Helvetica,sans-Serif" font-size="10.00">_simplification</text>
</a>
</g>
</g>
<!-- Node1&#45;&gt;Node8 -->
<g id="edge9_Node000001_Node000008" class="edge">
<title>Node1&#45;&gt;Node8</title>
<g id="a_edge9_Node000001_Node000008"><a xlink:title=" ">
<path fill="none" stroke="#63b8ff" d="M580.18,-189.74C553.11,-180.89 521.01,-170.39 495.39,-162.01"/>
<polygon fill="#63b8ff" stroke="#63b8ff" points="579.31,-193.14 589.9,-192.92 581.48,-186.49 579.31,-193.14"/>
</a>
</g>
</g>
<!-- Node9 -->
<g id="Node000009" class="node">
<title>Node9</title>
<g id="a_Node000009"><a xlink:href="namespacewmtk_1_1components_1_1triangle__insertion.html#a23509bfe845d018ac65e2759fb77c608" target="_top" xlink:title=" ">
<polygon fill="white" stroke="#666666" points="526.5,-96 370.5,-96 370.5,-66 526.5,-66 526.5,-96"/>
<text text-anchor="start" x="378.5" y="-84" font-family="Helvetica,sans-Serif" font-size="10.00">wmtk::components::triangle</text>
<text text-anchor="middle" x="448.5" y="-73" font-family="Helvetica,sans-Serif" font-size="10.00">_insertion::triangle_insertion</text>
</a>
</g>
</g>
<!-- Node1&#45;&gt;Node9 -->
<g id="edge11_Node000001_Node000009" class="edge">
<title>Node1&#45;&gt;Node9</title>
<g id="a_edge11_Node000001_Node000009"><a xlink:title=" ">
<path fill="none" stroke="#63b8ff" d="M612.66,-186.15C592.52,-167.94 562.14,-142.01 533,-123 517.51,-112.89 499.25,-103.46 483.77,-96.1"/>
<polygon fill="#63b8ff" stroke="#63b8ff" points="610.37,-188.8 620.11,-192.96 615.09,-183.63 610.37,-188.8"/>
</a>
</g>
</g>
<!-- Node10 -->
<g id="Node000010" class="node">
<title>Node10</title>
<g id="a_Node000010"><a xlink:href="namespacewmtk_1_1components_1_1internal.html#a18a56f1ee7f5d72c7557922789a96802" target="_top" xlink:title=" ">
<polygon fill="white" stroke="#666666" points="525.5,-30 371.5,-30 371.5,0 525.5,0 525.5,-30"/>
<text text-anchor="start" x="379.5" y="-18" font-family="Helvetica,sans-Serif" font-size="10.00">wmtk::components::internal</text>
<text text-anchor="middle" x="448.5" y="-7" font-family="Helvetica,sans-Serif" font-size="10.00">::winding_number</text>
</a>
</g>
</g>
<!-- Node1&#45;&gt;Node10 -->
<g id="edge13_Node000001_Node000010" class="edge">
<title>Node1&#45;&gt;Node10</title>
<g id="a_edge13_Node000001_Node000010"><a xlink:title=" ">
<path fill="none" stroke="#63b8ff" d="M624.37,-183.65C607.88,-151.24 574.98,-93.75 533,-57 520.3,-45.88 504.14,-36.87 489.43,-30.08"/>
<polygon fill="#63b8ff" stroke="#63b8ff" points="621.36,-185.46 628.95,-192.86 627.63,-182.34 621.36,-185.46"/>
</a>
</g>
</g>
<!-- Node4&#45;&gt;Node4 -->
<g id="edge7_Node000004_Node000004" class="edge">
<title>Node4&#45;&gt;Node4</title>
<g id="a_edge7_Node000004_Node000004"><a xlink:title=" ">
<path fill="none" stroke="#63b8ff" d="M481.41,-276.6C476.91,-280.97 465.94,-284 448.5,-284 419.12,-284 408.11,-275.41 415.45,-266.28"/>
<polygon fill="#63b8ff" stroke="#63b8ff" points="484.91,-276.32 481.55,-266.28 477.91,-276.23 484.91,-276.32"/>
</a>
</g>
</g>
<!-- Node5 -->
<g id="Node000005" class="node">
<title>Node5</title>
<g id="a_Node000005"><a xlink:href="namespacewmtk_1_1components_1_1internal.html#a06f1c0433aa3057a90d1e7829c851e72" target="_top" xlink:title=" ">
<polygon fill="white" stroke="#666666" points="327.5,-266 173.5,-266 173.5,-236 327.5,-236 327.5,-266"/>
<text text-anchor="start" x="181.5" y="-254" font-family="Helvetica,sans-Serif" font-size="10.00">wmtk::components::internal</text>
<text text-anchor="middle" x="250.5" y="-243" font-family="Helvetica,sans-Serif" font-size="10.00">::CDT_internal</text>
</a>
</g>
</g>
<!-- Node4&#45;&gt;Node5 -->
<g id="edge4_Node000004_Node000005" class="edge">
<title>Node4&#45;&gt;Node5</title>
<g id="a_edge4_Node000004_Node000005"><a xlink:title=" ">
<path fill="none" stroke="#63b8ff" d="M361.21,-251C349.99,-251 338.56,-251 327.52,-251"/>
<polygon fill="#63b8ff" stroke="#63b8ff" points="361.44,-254.5 371.44,-251 361.44,-247.5 361.44,-254.5"/>
</a>
</g>
</g>
<!-- Node5&#45;&gt;Node5 -->
<g id="edge6_Node000005_Node000005" class="edge">
<title>Node5&#45;&gt;Node5</title>
<g id="a_edge6_Node000005_Node000005"><a xlink:title=" ">
<path fill="none" stroke="#63b8ff" d="M282.36,-276.6C278,-280.97 267.38,-284 250.5,-284 222.06,-284 211.4,-275.41 218.51,-266.28"/>
<polygon fill="#63b8ff" stroke="#63b8ff" points="285.86,-276.32 282.49,-266.28 278.86,-276.23 285.86,-276.32"/>
</a>
</g>
</g>
<!-- Node6 -->
<g id="Node000006" class="node">
<title>Node6</title>
<g id="a_Node000006"><a xlink:href="namespacewmtk_1_1components.html#a7bf4c4516032a63182e16035aeacceb4" target="_top" xlink:title=" ">
<polygon fill="white" stroke="#666666" points="137,-260.5 0,-260.5 0,-241.5 137,-241.5 137,-260.5"/>
<text text-anchor="middle" x="68.5" y="-248.5" font-family="Helvetica,sans-Serif" font-size="10.00">wmtk::components::CDT</text>
</a>
</g>
</g>
<!-- Node5&#45;&gt;Node6 -->
<g id="edge5_Node000005_Node000006" class="edge">
<title>Node5&#45;&gt;Node6</title>
<g id="a_edge5_Node000005_Node000006"><a xlink:title=" ">
<path fill="none" stroke="#63b8ff" d="M163.16,-251C154.39,-251 145.56,-251 137.03,-251"/>
<polygon fill="#63b8ff" stroke="#63b8ff" points="163.42,-254.5 173.42,-251 163.42,-247.5 163.42,-254.5"/>
</a>
</g>
</g>
<!-- Node8&#45;&gt;Node8 -->
<g id="edge10_Node000008_Node000008" class="edge">
<title>Node8&#45;&gt;Node8</title>
<g id="a_edge10_Node000008_Node000008"><a xlink:title=" ">
<path fill="none" stroke="#63b8ff" d="M481.41,-172.6C476.91,-176.97 465.94,-180 448.5,-180 419.12,-180 408.11,-171.41 415.45,-162.28"/>
<polygon fill="#63b8ff" stroke="#63b8ff" points="484.91,-172.32 481.55,-162.28 477.91,-172.23 484.91,-172.32"/>
</a>
</g>
</g>
<!-- Node9&#45;&gt;Node9 -->
<g id="edge12_Node000009_Node000009" class="edge">
<title>Node9&#45;&gt;Node9</title>
<g id="a_edge12_Node000009_Node000009"><a xlink:title=" ">
<path fill="none" stroke="#63b8ff" d="M481.41,-106.6C476.91,-110.97 465.94,-114 448.5,-114 419.12,-114 408.11,-105.41 415.45,-96.28"/>
<polygon fill="#63b8ff" stroke="#63b8ff" points="484.91,-106.32 481.55,-96.28 477.91,-106.23 484.91,-106.32"/>
</a>
</g>
</g>
<!-- Node10&#45;&gt;Node10 -->
<g id="edge14_Node000010_Node000010" class="edge">
<title>Node10&#45;&gt;Node10</title>
<g id="a_edge14_Node000010_Node000010"><a xlink:title=" ">
<path fill="none" stroke="#63b8ff" d="M481.41,-40.6C476.91,-44.97 465.94,-48 448.5,-48 419.12,-48 408.11,-39.41 415.45,-30.28"/>
<polygon fill="#63b8ff" stroke="#63b8ff" points="484.91,-40.32 481.55,-30.28 477.91,-40.23 484.91,-40.32"/>
</a>
</g>
</g>
<!-- Node11 -->
<g id="Node000011" class="node">
<title>Node11</title>
<g id="a_Node000011"><a xlink:href="namespacewmtk_1_1components.html#a48154fbe1e5414336fe2337b0ec56dd2" target="_top" xlink:title=" ">
<polygon fill="white" stroke="#666666" points="328,-30 173,-30 173,0 328,0 328,-30"/>
<text text-anchor="start" x="181" y="-18" font-family="Helvetica,sans-Serif" font-size="10.00">wmtk::components::winding</text>
<text text-anchor="middle" x="250.5" y="-7" font-family="Helvetica,sans-Serif" font-size="10.00">_number</text>
</a>
</g>
</g>
<!-- Node10&#45;&gt;Node11 -->
<g id="edge15_Node000010_Node000011" class="edge">
<title>Node10&#45;&gt;Node11</title>
<g id="a_edge15_Node000010_Node000011"><a xlink:title=" ">
<path fill="none" stroke="#63b8ff" d="M361.36,-15C350.31,-15 339.05,-15 328.16,-15"/>
<polygon fill="#63b8ff" stroke="#63b8ff" points="361.44,-18.5 371.44,-15 361.44,-11.5 361.44,-18.5"/>
</a>
</g>
</g>
</g>
</svg>
