<?xml version="1.0" encoding="UTF-8" standalone="no"?>
<!DOCTYPE svg PUBLIC "-//W3C//DTD SVG 1.1//EN"
 "http://www.w3.org/Graphics/SVG/1.1/DTD/svg11.dtd">
<!-- Generated by graphviz version 2.43.0 (0)
 -->
<!-- Title: wmtk::EdgeMesh::EdgeMeshOperationExecutor::get_collapse_simplices_to_delete Pages: 1 -->
<!--zoomable 362 -->
<svg id="main" version="1.1" xmlns="http://www.w3.org/2000/svg" xmlns:xlink="http://www.w3.org/1999/xlink" xml:space="preserve" onload="init(evt)">
<style type="text/css"><![CDATA[
.edge:hover path { stroke: red; }
.edge:hover polygon { stroke: red; fill: red; }
]]></style>
<script type="text/javascript"><![CDATA[
var edges = document.getElementsByTagName('g');
if (edges && edges.length) {
  for (var i=0;i<edges.length;i++) {
    if (edges[i].id.substr(0,4)=='edge') {
      edges[i].setAttribute('class','edge');
    }
  }
}
]]></script>
        <defs>
                <circle id="rim" cx="0" cy="0" r="7"/>
                <circle id="rim2" cx="0" cy="0" r="3.5"/>
                <g id="zoomPlus">
                        <use xlink:href="#rim" fill="#404040">
                                <set attributeName="fill" to="#808080" begin="zoomplus.mouseover" end="zoomplus.mouseout"/>
                        </use>
                        <path d="M-4,0h8M0,-4v8" fill="none" stroke="white" stroke-width="1.5" pointer-events="none"/>
                </g>
                <g id="zoomMin">
                        <use xlink:href="#rim" fill="#404040">
                                <set attributeName="fill" to="#808080" begin="zoomminus.mouseover" end="zoomminus.mouseout"/>
                        </use>
                        <path d="M-4,0h8" fill="none" stroke="white" stroke-width="1.5" pointer-events="none"/>
                </g>
                <g id="dirArrow">
                        <path fill="none" stroke="white" stroke-width="1.5" d="M0,-3.0v7 M-2.5,-0.5L0,-3.0L2.5,-0.5"/>
                </g>
               <g id="resetDef">
                       <use xlink:href="#rim2" fill="#404040">
                               <set attributeName="fill" to="#808080" begin="reset.mouseover" end="reset.mouseout"/>
                       </use>
               </g>
        </defs>

<script type="text/javascript">
var viewWidth = 1368;
var viewHeight = 362;
var sectionId = 'dynsection-4';
</script>
<script xlink:href="svgpan.js"/>
<svg id="graph" class="graph">
<g id="viewport">
<title>wmtk::EdgeMesh::EdgeMeshOperationExecutor::get_collapse_simplices_to_delete</title>
<!-- Node1 -->
<g id="node1" class="node">
<title>Node1</title>
<g id="a_node1"><a xlink:title="gather all simplices that are deleted in a collapse">
<polygon fill="#bfbfbf" stroke="black" points="0,-153 0,-194 165,-194 165,-153 0,-153"/>
<text text-anchor="start" x="8" y="-182" font-family="Helvetica,sans-Serif" font-size="10.00">wmtk::EdgeMesh::EdgeMesh</text>
<text text-anchor="start" x="8" y="-171" font-family="Helvetica,sans-Serif" font-size="10.00">OperationExecutor::get</text>
<text text-anchor="middle" x="82.5" y="-160" font-family="Helvetica,sans-Serif" font-size="10.00">_collapse_simplices_to_delete</text>
</a>
</g>
</g>
<!-- Node2 -->
<g id="node2" class="node">
<title>Node2</title>
<g id="a_node2"><a xlink:href="classwmtk_1_1_edge_mesh.html#a2a37ed6f60cad4f5b841670470f01660" target="_top" xlink:title=" ">
<polygon fill="none" stroke="black" points="201,-233 201,-252 346,-252 346,-233 201,-233"/>
<text text-anchor="middle" x="273.5" y="-240" font-family="Helvetica,sans-Serif" font-size="10.00">wmtk::EdgeMesh::id_edge</text>
</a>
</g>
</g>
<!-- Node1&#45;&gt;Node2 -->
<g id="edge1" class="edge">
<title>Node1&#45;&gt;Node2</title>
<path fill="none" stroke="midnightblue" d="M127.55,-194.01C149.36,-203.71 176.26,-215 201,-223.5 207.93,-225.88 215.32,-228.15 222.63,-230.23"/>
<polygon fill="midnightblue" stroke="midnightblue" points="221.92,-233.66 232.49,-232.94 223.78,-226.91 221.92,-233.66"/>
</g>
<!-- Node4 -->
<g id="node4" class="node">
<title>Node4</title>
<g id="a_node4"><a xlink:href="classwmtk_1_1_edge_mesh.html#a90181e4a8ae3981f82ac6620fe978fc5" target="_top" xlink:title=" ">
<polygon fill="none" stroke="black" points="215.5,-183.5 215.5,-213.5 331.5,-213.5 331.5,-183.5 215.5,-183.5"/>
<text text-anchor="start" x="223.5" y="-201.5" font-family="Helvetica,sans-Serif" font-size="10.00">wmtk::EdgeMesh::id</text>
<text text-anchor="middle" x="273.5" y="-190.5" font-family="Helvetica,sans-Serif" font-size="10.00">_vertex</text>
</a>
</g>
</g>
<!-- Node1&#45;&gt;Node4 -->
<g id="edge3" class="edge">
<title>Node1&#45;&gt;Node4</title>
<path fill="none" stroke="midnightblue" d="M165.02,-184.28C178.43,-186.06 192.18,-187.88 205.19,-189.6"/>
<polygon fill="midnightblue" stroke="midnightblue" points="205.06,-193.11 215.44,-190.95 205.98,-186.17 205.06,-193.11"/>
</g>
<!-- Node5 -->
<g id="node5" class="node">
<title>Node5</title>
<g id="a_node5"><a xlink:href="classwmtk_1_1_mesh.html#a531f0c59e0f2c07910ba3a31dd097764" target="_top" xlink:title=" ">
<polygon fill="none" stroke="black" points="215.5,-96 215.5,-115 331.5,-115 331.5,-96 215.5,-96"/>
<text text-anchor="middle" x="273.5" y="-103" font-family="Helvetica,sans-Serif" font-size="10.00">wmtk::Mesh::is_free</text>
</a>
</g>
</g>
<!-- Node1&#45;&gt;Node5 -->
<g id="edge5" class="edge">
<title>Node1&#45;&gt;Node5</title>
<path fill="none" stroke="midnightblue" d="M128.71,-152.96C150.32,-143.58 176.72,-132.75 201,-124.5 208.1,-122.09 215.69,-119.79 223.16,-117.67"/>
<polygon fill="midnightblue" stroke="midnightblue" points="224.16,-121.03 232.88,-115.01 222.31,-114.28 224.16,-121.03"/>
</g>
<!-- Node6 -->
<g id="node6" class="node">
<title>Node6</title>
<g id="a_node6"><a xlink:href="classwmtk_1_1_edge_mesh.html#a46725851b572b51a356450adc30c14ed" target="_top" xlink:title="switch the orientation of the Tuple of the given dimension">
<polygon fill="none" stroke="black" points="204.5,-134.5 204.5,-164.5 342.5,-164.5 342.5,-134.5 204.5,-134.5"/>
<text text-anchor="start" x="212.5" y="-152.5" font-family="Helvetica,sans-Serif" font-size="10.00">wmtk::EdgeMesh::switch</text>
<text text-anchor="middle" x="273.5" y="-141.5" font-family="Helvetica,sans-Serif" font-size="10.00">_tuple</text>
</a>
</g>
</g>
<!-- Node1&#45;&gt;Node6 -->
<g id="edge6" class="edge">
<title>Node1&#45;&gt;Node6</title>
<path fill="none" stroke="midnightblue" d="M165.02,-163.15C174.74,-161.91 184.64,-160.66 194.3,-159.43"/>
<polygon fill="midnightblue" stroke="midnightblue" points="194.79,-162.9 204.27,-158.16 193.91,-155.95 194.79,-162.9"/>
</g>
<!-- Node3 -->
<g id="node3" class="node">
<title>Node3</title>
<g id="a_node3"><a xlink:href="classwmtk_1_1_mesh_c_r_t_p.html#a58243712dc3e0d258ad645e7b08870db" target="_top" xlink:title="return the global id of the Tuple of the given dimension">
<polygon fill="none" stroke="black" points="382,-225.5 382,-255.5 545,-255.5 545,-225.5 382,-225.5"/>
<text text-anchor="start" x="390" y="-243.5" font-family="Helvetica,sans-Serif" font-size="10.00">wmtk::MeshCRTP&lt; EdgeMesh</text>
<text text-anchor="middle" x="463.5" y="-232.5" font-family="Helvetica,sans-Serif" font-size="10.00"> &gt;::id</text>
</a>
</g>
</g>
<!-- Node2&#45;&gt;Node3 -->
<g id="edge2" class="edge">
<title>Node2&#45;&gt;Node3</title>
<path fill="none" stroke="midnightblue" d="M346.11,-241.74C354.54,-241.65 363.22,-241.56 371.87,-241.46"/>
<polygon fill="midnightblue" stroke="midnightblue" points="372.02,-244.96 381.98,-241.36 371.94,-237.96 372.02,-244.96"/>
</g>
<!-- Node4&#45;&gt;Node3 -->
<g id="edge4" class="edge">
<title>Node4&#45;&gt;Node3</title>
<path fill="none" stroke="midnightblue" d="M331.67,-211.27C348.53,-215.04 367.28,-219.23 385.18,-223.23"/>
<polygon fill="midnightblue" stroke="midnightblue" points="384.5,-226.66 395.03,-225.43 386.03,-219.83 384.5,-226.66"/>
</g>
<!-- Node6&#45;&gt;Node3 -->
<g id="edge9" class="edge">
<title>Node6&#45;&gt;Node3</title>
<path fill="none" stroke="midnightblue" d="M327.55,-164.54C334.01,-167.38 340.33,-170.68 346,-174.5 366.11,-188.06 361.66,-202.3 382,-215.5 385.13,-217.53 388.44,-219.41 391.85,-221.14"/>
<polygon fill="midnightblue" stroke="midnightblue" points="390.55,-224.39 401.1,-225.38 393.47,-218.03 390.55,-224.39"/>
</g>
<!-- Node7 -->
<g id="node7" class="node">
<title>Node7</title>
<g id="a_node7"><a xlink:href="classwmtk_1_1attribute_1_1_accessor.html#ada896c7e7910630ca0d3424baa3c3258" target="_top" xlink:title=" ">
<polygon fill="none" stroke="black" points="392.5,-137.5 392.5,-167.5 534.5,-167.5 534.5,-137.5 392.5,-137.5"/>
<text text-anchor="start" x="400.5" y="-155.5" font-family="Helvetica,sans-Serif" font-size="10.00">wmtk::attribute::Accessor</text>
<text text-anchor="middle" x="463.5" y="-144.5" font-family="Helvetica,sans-Serif" font-size="10.00">::const_vector_attribute</text>
</a>
</g>
</g>
<!-- Node6&#45;&gt;Node7 -->
<g id="edge7" class="edge">
<title>Node6&#45;&gt;Node7</title>
<path fill="none" stroke="midnightblue" d="M342.64,-150.59C355.53,-150.79 369.13,-151.01 382.36,-151.22"/>
<polygon fill="midnightblue" stroke="midnightblue" points="382.33,-154.72 392.38,-151.38 382.44,-147.72 382.33,-154.72"/>
</g>
<!-- Node8 -->
<g id="node8" class="node">
<title>Node8</title>
<g id="a_node8"><a xlink:href="classwmtk_1_1attribute_1_1_caching_accessor.html#ab7a79d239fdc3d22fbc0c3a83a5c50bc" target="_top" xlink:title=" ">
<polygon fill="none" stroke="black" points="890.5,-50 890.5,-91 1027.5,-91 1027.5,-50 890.5,-50"/>
<text text-anchor="start" x="898.5" y="-79" font-family="Helvetica,sans-Serif" font-size="10.00">wmtk::attribute::Caching</text>
<text text-anchor="start" x="898.5" y="-68" font-family="Helvetica,sans-Serif" font-size="10.00">Accessor::const_vector</text>
<text text-anchor="middle" x="959" y="-57" font-family="Helvetica,sans-Serif" font-size="10.00">_attribute</text>
</a>
</g>
</g>
<!-- Node6&#45;&gt;Node8 -->
<g id="edge8" class="edge">
<title>Node6&#45;&gt;Node8</title>
<path fill="none" stroke="midnightblue" d="M317.63,-134.5C326.99,-131.22 336.83,-127.76 346,-124.5 362.03,-118.8 365.36,-115.03 382,-111.5 557.23,-74.37 768.44,-69.1 880.05,-69.3"/>
<polygon fill="midnightblue" stroke="midnightblue" points="880.2,-72.8 890.21,-69.33 880.22,-65.8 880.2,-72.8"/>
</g>
<!-- Node9 -->
<g id="node9" class="node">
<title>Node9</title>
<g id="a_node9"><a xlink:href="classwmtk_1_1attribute_1_1_accessor.html#a41f40a73a13789707c117bda177dfc83" target="_top" xlink:title=" ">
<polygon fill="none" stroke="black" points="888,-0.5 888,-30.5 1030,-30.5 1030,-0.5 888,-0.5"/>
<text text-anchor="start" x="896" y="-18.5" font-family="Helvetica,sans-Serif" font-size="10.00">wmtk::attribute::Accessor</text>
<text text-anchor="middle" x="959" y="-7.5" font-family="Helvetica,sans-Serif" font-size="10.00">::index_access</text>
</a>
</g>
</g>
<!-- Node6&#45;&gt;Node9 -->
<g id="edge10" class="edge">
<title>Node6&#45;&gt;Node9</title>
<path fill="none" stroke="midnightblue" d="M327.55,-134.46C334.01,-131.62 340.33,-128.32 346,-124.5 366.11,-110.94 360.53,-94.78 382,-83.5 542.07,0.62 761,0.19 877.45,-7.57"/>
<polygon fill="midnightblue" stroke="midnightblue" points="877.49,-11.08 887.71,-8.29 877.98,-4.1 877.49,-11.08"/>
</g>
<!-- Node11 -->
<g id="node11" class="node">
<title>Node11</title>
<g id="a_node11"><a xlink:href="classwmtk_1_1_edge_mesh.html#a83db0c93833dacdfb169807d8ba4b6ca" target="_top" xlink:title="TODO this needs dimension?">
<polygon fill="none" stroke="black" points="394,-187 394,-206 533,-206 533,-187 394,-187"/>
<text text-anchor="middle" x="463.5" y="-194" font-family="Helvetica,sans-Serif" font-size="10.00">wmtk::EdgeMesh::is_ccw</text>
</a>
</g>
</g>
<!-- Node6&#45;&gt;Node11 -->
<g id="edge12" class="edge">
<title>Node6&#45;&gt;Node11</title>
<path fill="none" stroke="midnightblue" d="M334.2,-164.52C349.76,-168.43 366.5,-172.63 382,-176.5 392.38,-179.09 403.51,-181.86 414.08,-184.49"/>
<polygon fill="midnightblue" stroke="midnightblue" points="413.46,-187.94 424.01,-186.96 415.14,-181.15 413.46,-187.94"/>
</g>
<!-- Node12 -->
<g id="node12" class="node">
<title>Node12</title>
<g id="a_node12"><a xlink:href="classwmtk_1_1_edge_mesh.html#acd802c89cf0cba9c312a8e7ecfa11c80" target="_top" xlink:title="check validity of tuple including its hash">
<polygon fill="none" stroke="black" points="581,-181.5 581,-211.5 696,-211.5 696,-181.5 581,-181.5"/>
<text text-anchor="start" x="589" y="-199.5" font-family="Helvetica,sans-Serif" font-size="10.00">wmtk::EdgeMesh::is</text>
<text text-anchor="middle" x="638.5" y="-188.5" font-family="Helvetica,sans-Serif" font-size="10.00">_valid</text>
</a>
</g>
</g>
<!-- Node6&#45;&gt;Node12 -->
<g id="edge30" class="edge">
<title>Node6&#45;&gt;Node12</title>
<path fill="none" stroke="midnightblue" d="M322.77,-134.38C377.96,-119.63 470.32,-102.71 545,-127.5 572.7,-136.69 598.83,-157.77 616.21,-174.23"/>
<polygon fill="midnightblue" stroke="midnightblue" points="613.95,-176.92 623.55,-181.4 618.84,-171.91 613.95,-176.92"/>
</g>
<!-- Node10 -->
<g id="node10" class="node">
<title>Node10</title>
<g id="a_node10"><a xlink:href="classwmtk_1_1attribute_1_1_accessor.html#a9c7d323f50911892c8ea738f97d041d4" target="_top" xlink:title=" ">
<polygon fill="none" stroke="black" points="1066,-0.5 1066,-30.5 1208,-30.5 1208,-0.5 1066,-0.5"/>
<text text-anchor="start" x="1074" y="-18.5" font-family="Helvetica,sans-Serif" font-size="10.00">wmtk::attribute::Accessor</text>
<text text-anchor="middle" x="1137" y="-7.5" font-family="Helvetica,sans-Serif" font-size="10.00">::caching_base_type</text>
</a>
</g>
</g>
<!-- Node9&#45;&gt;Node10 -->
<g id="edge11" class="edge">
<title>Node9&#45;&gt;Node10</title>
<path fill="none" stroke="midnightblue" d="M1030.07,-15.5C1038.54,-15.5 1047.25,-15.5 1055.85,-15.5"/>
<polygon fill="midnightblue" stroke="midnightblue" points="1055.89,-19 1065.89,-15.5 1055.89,-12 1055.89,-19"/>
</g>
<!-- Node11&#45;&gt;Node12 -->
<g id="edge13" class="edge">
<title>Node11&#45;&gt;Node12</title>
<path fill="none" stroke="midnightblue" d="M533.37,-196.5C545.66,-196.5 558.45,-196.5 570.69,-196.5"/>
<polygon fill="midnightblue" stroke="midnightblue" points="570.81,-200 580.81,-196.5 570.81,-193 570.81,-200"/>
</g>
<!-- Node13 -->
<g id="node13" class="node">
<title>Node13</title>
<g id="a_node13"><a xlink:href="classwmtk_1_1_edge_mesh.html#a3bf6f960d630d1e3a79a09c71a43100f" target="_top" xlink:title=" ">
<polygon fill="none" stroke="black" points="734.5,-153.5 734.5,-183.5 849.5,-183.5 849.5,-153.5 734.5,-153.5"/>
<text text-anchor="start" x="742.5" y="-171.5" font-family="Helvetica,sans-Serif" font-size="10.00">wmtk::EdgeMesh::is</text>
<text text-anchor="middle" x="792" y="-160.5" font-family="Helvetica,sans-Serif" font-size="10.00">_connectivity_valid</text>
</a>
</g>
</g>
<!-- Node12&#45;&gt;Node13 -->
<g id="edge14" class="edge">
<title>Node12&#45;&gt;Node13</title>
<path fill="none" stroke="midnightblue" d="M696.34,-185.99C705.47,-184.31 714.99,-182.55 724.32,-180.82"/>
<polygon fill="midnightblue" stroke="midnightblue" points="725.14,-184.23 734.34,-178.97 723.87,-177.35 725.14,-184.23"/>
</g>
<!-- Node20 -->
<g id="node20" class="node">
<title>Node20</title>
<g id="a_node20"><a xlink:href="namespacewmtk.html#a6a35f11c12436093d26fdd8be6fecc06" target="_top" xlink:title="Retrieves the current logger.">
<polygon fill="none" stroke="black" points="918.5,-258 918.5,-277 999.5,-277 999.5,-258 918.5,-258"/>
<text text-anchor="middle" x="959" y="-265" font-family="Helvetica,sans-Serif" font-size="10.00">wmtk::logger</text>
</a>
</g>
</g>
<!-- Node12&#45;&gt;Node20 -->
<g id="edge29" class="edge">
<title>Node12&#45;&gt;Node20</title>
<path fill="none" stroke="midnightblue" d="M696.07,-209.11C756.28,-222.53 850.61,-243.56 908.12,-256.38"/>
<polygon fill="midnightblue" stroke="midnightblue" points="907.54,-259.84 918.07,-258.6 909.07,-253.01 907.54,-259.84"/>
</g>
<!-- Node22 -->
<g id="node22" class="node">
<title>Node22</title>
<g id="a_node22"><a xlink:href="classwmtk_1_1_mesh.html#a8cc8686f0688613806f43720b6db49e7" target="_top" xlink:title="check validity of tuple including its hash">
<polygon fill="none" stroke="black" points="732,-296 732,-315 852,-315 852,-296 732,-296"/>
<text text-anchor="middle" x="792" y="-303" font-family="Helvetica,sans-Serif" font-size="10.00">wmtk::Mesh::is_valid</text>
</a>
</g>
</g>
<!-- Node12&#45;&gt;Node22 -->
<g id="edge26" class="edge">
<title>Node12&#45;&gt;Node22</title>
<path fill="none" stroke="midnightblue" d="M660.57,-211.66C689.3,-232.33 740.52,-269.18 769.49,-290.02"/>
<polygon fill="midnightblue" stroke="midnightblue" points="767.55,-292.94 777.71,-295.94 771.64,-287.26 767.55,-292.94"/>
</g>
<!-- Node13&#45;&gt;Node8 -->
<g id="edge18" class="edge">
<title>Node13&#45;&gt;Node8</title>
<path fill="none" stroke="midnightblue" d="M814.03,-153.48C832.98,-140.21 861.79,-120.67 888,-105.5 893.56,-102.28 899.45,-99.06 905.36,-95.95"/>
<polygon fill="midnightblue" stroke="midnightblue" points="907.35,-98.86 914.62,-91.16 904.13,-92.64 907.35,-98.86"/>
</g>
<!-- Node13&#45;&gt;Node9 -->
<g id="edge23" class="edge">
<title>Node13&#45;&gt;Node9</title>
<path fill="none" stroke="midnightblue" d="M800.48,-153.19C814.22,-126.57 845.97,-71.64 888,-40.5 890.51,-38.64 893.17,-36.91 895.94,-35.3"/>
<polygon fill="midnightblue" stroke="midnightblue" points="897.79,-38.28 905.04,-30.55 894.55,-32.07 897.79,-38.28"/>
</g>
<!-- Node14 -->
<g id="node14" class="node">
<title>Node14</title>
<g id="a_node14"><a xlink:href="classwmtk_1_1_mesh.html#a3e8ff83c4a5526a40d18bb9883c6c6c9" target="_top" xlink:title="read in the m_capacities return the upper bound for the number of entities of the given dimension">
<polygon fill="none" stroke="black" points="1075,-117 1075,-136 1199,-136 1199,-117 1075,-117"/>
<text text-anchor="middle" x="1137" y="-124" font-family="Helvetica,sans-Serif" font-size="10.00">wmtk::Mesh::capacity</text>
</a>
</g>
</g>
<!-- Node13&#45;&gt;Node14 -->
<g id="edge15" class="edge">
<title>Node13&#45;&gt;Node14</title>
<path fill="none" stroke="midnightblue" d="M832.64,-153.47C849.47,-147.75 869.44,-141.82 888,-138.5 946.95,-127.95 1014.96,-125.32 1064.83,-125.11"/>
<polygon fill="midnightblue" stroke="midnightblue" points="1064.87,-128.61 1074.87,-125.1 1064.86,-121.61 1064.87,-128.61"/>
</g>
<!-- Node16 -->
<g id="node16" class="node">
<title>Node16</title>
<g id="a_node16"><a xlink:href="classwmtk_1_1attribute_1_1_caching_accessor.html#a196b6b32e2495b971113d552be7f45d9" target="_top" xlink:title=" ">
<polygon fill="none" stroke="black" points="890.5,-148 890.5,-189 1027.5,-189 1027.5,-148 890.5,-148"/>
<text text-anchor="start" x="898.5" y="-177" font-family="Helvetica,sans-Serif" font-size="10.00">wmtk::attribute::Caching</text>
<text text-anchor="start" x="898.5" y="-166" font-family="Helvetica,sans-Serif" font-size="10.00">Accessor::const_scalar</text>
<text text-anchor="middle" x="959" y="-155" font-family="Helvetica,sans-Serif" font-size="10.00">_attribute</text>
</a>
</g>
</g>
<!-- Node13&#45;&gt;Node16 -->
<g id="edge17" class="edge">
<title>Node13&#45;&gt;Node16</title>
<path fill="none" stroke="midnightblue" d="M849.78,-168.5C859.57,-168.5 869.9,-168.5 880.13,-168.5"/>
<polygon fill="midnightblue" stroke="midnightblue" points="880.3,-172 890.3,-168.5 880.3,-165 880.3,-172"/>
</g>
<!-- Node17 -->
<g id="node17" class="node">
<title>Node17</title>
<g id="a_node17"><a xlink:href="classwmtk_1_1_mesh.html#ae0e8f71e9e17a90be9423117efcc4c81" target="_top" xlink:title=" ">
<polygon fill="none" stroke="black" points="898,-208.5 898,-238.5 1020,-238.5 1020,-208.5 898,-208.5"/>
<text text-anchor="start" x="906" y="-226.5" font-family="Helvetica,sans-Serif" font-size="10.00">wmtk::Mesh::get_flag</text>
<text text-anchor="middle" x="959" y="-215.5" font-family="Helvetica,sans-Serif" font-size="10.00">_accessor</text>
</a>
</g>
</g>
<!-- Node13&#45;&gt;Node17 -->
<g id="edge19" class="edge">
<title>Node13&#45;&gt;Node17</title>
<path fill="none" stroke="midnightblue" d="M838.09,-183.53C858.28,-190.26 882.26,-198.25 903.45,-205.32"/>
<polygon fill="midnightblue" stroke="midnightblue" points="902.37,-208.65 912.97,-208.49 904.59,-202.01 902.37,-208.65"/>
</g>
<!-- Node13&#45;&gt;Node20 -->
<g id="edge24" class="edge">
<title>Node13&#45;&gt;Node20</title>
<path fill="none" stroke="midnightblue" d="M806.97,-183.76C824.29,-201.8 855.53,-231.49 888,-248.5 894.44,-251.87 901.54,-254.69 908.67,-257.03"/>
<polygon fill="midnightblue" stroke="midnightblue" points="907.77,-260.42 918.35,-259.94 909.78,-253.71 907.77,-260.42"/>
</g>
<!-- Node15 -->
<g id="node15" class="node">
<title>Node15</title>
<g id="a_node15"><a xlink:href="namespacewmtk.html#a5cf45c152e856196bb734c6f48919a24" target="_top" xlink:title="Get a unique integer id corresponding to each primitive type.">
<polygon fill="none" stroke="black" points="1244,-118.5 1244,-148.5 1360,-148.5 1360,-118.5 1244,-118.5"/>
<text text-anchor="start" x="1252" y="-136.5" font-family="Helvetica,sans-Serif" font-size="10.00">wmtk::get_primitive</text>
<text text-anchor="middle" x="1302" y="-125.5" font-family="Helvetica,sans-Serif" font-size="10.00">_type_id</text>
</a>
</g>
</g>
<!-- Node14&#45;&gt;Node15 -->
<g id="edge16" class="edge">
<title>Node14&#45;&gt;Node15</title>
<path fill="none" stroke="midnightblue" d="M1199.16,-129.13C1210.36,-129.61 1222.12,-130.11 1233.49,-130.6"/>
<polygon fill="midnightblue" stroke="midnightblue" points="1233.67,-134.11 1243.81,-131.04 1233.97,-127.12 1233.67,-134.11"/>
</g>
<!-- Node18 -->
<g id="node18" class="node">
<title>Node18</title>
<g id="a_node18"><a xlink:href="classwmtk_1_1_mesh.html#a6dbab927a2ee85f77a87f075fd5c1d94" target="_top" xlink:title=" ">
<polygon fill="none" stroke="black" points="1072,-194.5 1072,-224.5 1202,-224.5 1202,-194.5 1072,-194.5"/>
<text text-anchor="start" x="1080" y="-212.5" font-family="Helvetica,sans-Serif" font-size="10.00">wmtk::Mesh::get_const</text>
<text text-anchor="middle" x="1137" y="-201.5" font-family="Helvetica,sans-Serif" font-size="10.00">_flag_accessor</text>
</a>
</g>
</g>
<!-- Node17&#45;&gt;Node18 -->
<g id="edge20" class="edge">
<title>Node17&#45;&gt;Node18</title>
<path fill="none" stroke="midnightblue" d="M1020.08,-218.72C1033.54,-217.65 1047.97,-216.5 1061.93,-215.39"/>
<polygon fill="midnightblue" stroke="midnightblue" points="1062.29,-218.87 1071.99,-214.59 1061.74,-211.9 1062.29,-218.87"/>
</g>
<!-- Node18&#45;&gt;Node15 -->
<g id="edge22" class="edge">
<title>Node18&#45;&gt;Node15</title>
<path fill="none" stroke="midnightblue" d="M1170.2,-194.48C1195.79,-182.55 1231.77,-165.78 1259.52,-152.84"/>
<polygon fill="midnightblue" stroke="midnightblue" points="1261,-156.01 1268.58,-148.61 1258.04,-149.67 1261,-156.01"/>
</g>
<!-- Node19 -->
<g id="node19" class="node">
<title>Node19</title>
<g id="a_node19"><a xlink:href="classwmtk_1_1_mesh.html#a4a20dcdac339e7a4f6f8a6570114cbe6" target="_top" xlink:title=" ">
<polygon fill="none" stroke="black" points="1245.5,-194.5 1245.5,-224.5 1358.5,-224.5 1358.5,-194.5 1245.5,-194.5"/>
<text text-anchor="start" x="1253.5" y="-212.5" font-family="Helvetica,sans-Serif" font-size="10.00">wmtk::Mesh::create</text>
<text text-anchor="middle" x="1302" y="-201.5" font-family="Helvetica,sans-Serif" font-size="10.00">_const_accessor</text>
</a>
</g>
</g>
<!-- Node18&#45;&gt;Node19 -->
<g id="edge21" class="edge">
<title>Node18&#45;&gt;Node19</title>
<path fill="none" stroke="midnightblue" d="M1202.42,-209.5C1213.21,-209.5 1224.42,-209.5 1235.24,-209.5"/>
<polygon fill="midnightblue" stroke="midnightblue" points="1235.47,-213 1245.47,-209.5 1235.47,-206 1235.47,-213"/>
</g>
<!-- Node21 -->
<g id="node21" class="node">
<title>Node21</title>
<g id="a_node21"><a xlink:href="namespacewmtk.html#a3daa7951a5f8b78cf4600dc047fcc180" target="_top" xlink:title="Setup a logger object to be used by WildmeshToolkit.">
<polygon fill="none" stroke="black" points="1086.5,-258 1086.5,-277 1187.5,-277 1187.5,-258 1086.5,-258"/>
<text text-anchor="middle" x="1137" y="-265" font-family="Helvetica,sans-Serif" font-size="10.00">wmtk::set_logger</text>
</a>
</g>
</g>
<!-- Node20&#45;&gt;Node21 -->
<g id="edge25" class="edge">
<title>Node20&#45;&gt;Node21</title>
<path fill="none" stroke="midnightblue" d="M999.94,-267.5C1022.49,-267.5 1051.12,-267.5 1076.29,-267.5"/>
<polygon fill="midnightblue" stroke="midnightblue" points="1076.47,-271 1086.47,-267.5 1076.47,-264 1076.47,-271"/>
</g>
<!-- Node23 -->
<g id="node23" class="node">
<title>Node23</title>
<g id="a_node23"><a xlink:href="classwmtk_1_1_tuple.html#a0023f575be92cd5ceeeaaaa3762ea06d" target="_top" xlink:title="Checks if a tuple is &quot;null&quot;. This merely implies the global index is &#45;1.">
<polygon fill="none" stroke="black" points="902.5,-334 902.5,-353 1015.5,-353 1015.5,-334 902.5,-334"/>
<text text-anchor="middle" x="959" y="-341" font-family="Helvetica,sans-Serif" font-size="10.00">wmtk::Tuple::is_null</text>
</a>
</g>
</g>
<!-- Node22&#45;&gt;Node23 -->
<g id="edge27" class="edge">
<title>Node22&#45;&gt;Node23</title>
<path fill="none" stroke="midnightblue" d="M834.64,-315.09C856.51,-320.13 883.51,-326.34 906.66,-331.68"/>
<polygon fill="midnightblue" stroke="midnightblue" points="906.13,-335.15 916.66,-333.98 907.7,-328.32 906.13,-335.15"/>
</g>
<!-- Node24 -->
<g id="node24" class="node">
<title>Node24</title>
<g id="a_node24"><a xlink:href="classwmtk_1_1_mesh.html#ade176d345902d97af8c5da04aa3a095b" target="_top" xlink:title=" ">
<polygon fill="none" stroke="black" points="889,-296 889,-315 1029,-315 1029,-296 889,-296"/>
<text text-anchor="middle" x="959" y="-303" font-family="Helvetica,sans-Serif" font-size="10.00">wmtk::Mesh::is_removed</text>
</a>
</g>
</g>
<!-- Node22&#45;&gt;Node24 -->
<g id="edge28" class="edge">
<title>Node22&#45;&gt;Node24</title>
<path fill="none" stroke="midnightblue" d="M852.1,-305.5C860.77,-305.5 869.81,-305.5 878.8,-305.5"/>
<polygon fill="midnightblue" stroke="midnightblue" points="878.91,-309 888.91,-305.5 878.91,-302 878.91,-309"/>
</g>
</g>
</svg>
        <g id="navigator" transform="translate(0 0)" fill="#404254">
                <rect fill="#f2f5e9" fill-opacity="0.5" stroke="#606060" stroke-width=".5" x="0" y="0" width="60" height="60"/>
                <use id="zoomplus" xlink:href="#zoomPlus" x="17" y="9" onmousedown="handleZoom(evt,'in')"/>
                <use id="zoomminus" xlink:href="#zoomMin" x="42" y="9" onmousedown="handleZoom(evt,'out')"/>
                <use id="reset" xlink:href="#resetDef" x="30" y="36" onmousedown="handleReset()"/>
                <g id="arrowUp" xlink:href="#dirArrow" transform="translate(30 24)" onmousedown="handlePan(0,-1)">
                  <use xlink:href="#rim" fill="#404040">
                        <set attributeName="fill" to="#808080" begin="arrowUp.mouseover" end="arrowUp.mouseout"/>
                  </use>
                  <path fill="none" stroke="white" stroke-width="1.5" d="M0,-3.0v7 M-2.5,-0.5L0,-3.0L2.5,-0.5"/>
                </g>
                <g id="arrowRight" xlink:href="#dirArrow" transform="rotate(90) translate(36 -43)" onmousedown="handlePan(1,0)">
                  <use xlink:href="#rim" fill="#404040">
                        <set attributeName="fill" to="#808080" begin="arrowRight.mouseover" end="arrowRight.mouseout"/>
                  </use>
                  <path fill="none" stroke="white" stroke-width="1.5" d="M0,-3.0v7 M-2.5,-0.5L0,-3.0L2.5,-0.5"/>
                </g>
                <g id="arrowDown" xlink:href="#dirArrow" transform="rotate(180) translate(-30 -48)" onmousedown="handlePan(0,1)">
                  <use xlink:href="#rim" fill="#404040">
                        <set attributeName="fill" to="#808080" begin="arrowDown.mouseover" end="arrowDown.mouseout"/>
                  </use>
                  <path fill="none" stroke="white" stroke-width="1.5" d="M0,-3.0v7 M-2.5,-0.5L0,-3.0L2.5,-0.5"/>
                </g>
                <g id="arrowLeft" xlink:href="#dirArrow" transform="rotate(270) translate(-36 17)" onmousedown="handlePan(-1,0)">
                  <use xlink:href="#rim" fill="#404040">
                        <set attributeName="fill" to="#808080" begin="arrowLeft.mouseover" end="arrowLeft.mouseout"/>
                  </use>
                  <path fill="none" stroke="white" stroke-width="1.5" d="M0,-3.0v7 M-2.5,-0.5L0,-3.0L2.5,-0.5"/>
                </g>
        </g>
        <svg viewBox="0 0 15 15" width="100%" height="30px" preserveAspectRatio="xMaxYMin meet">
         <g id="arrow_out" transform="scale(0.3 0.3)">
          <a xlink:href="classwmtk_1_1_edge_mesh_1_1_edge_mesh_operation_executor_ae365a598aaead39c4d9fa3a01d486fa6_cgraph_org.svg" target="_base">
           <rect id="button" ry="5" rx="5" y="6" x="6" height="38" width="38"
                fill="#f2f5e9" fill-opacity="0.5" stroke="#606060" stroke-width="1.0"/>
           <path id="arrow"
             d="M 11.500037,31.436501 C 11.940474,20.09759 22.043105,11.32322 32.158766,21.979434 L 37.068811,17.246167 C 37.068811,17.246167 37.088388,32 37.088388,32 L 22.160133,31.978069 C 22.160133,31.978069 26.997745,27.140456 26.997745,27.140456 C 18.528582,18.264221 13.291696,25.230495 11.500037,31.436501 z"
             style="fill:#404040;"/>
          </a>
         </g>
        </svg>
</svg>
