<?xml version="1.0" encoding="UTF-8" standalone="no"?>
<!DOCTYPE svg PUBLIC "-//W3C//DTD SVG 1.1//EN"
 "http://www.w3.org/Graphics/SVG/1.1/DTD/svg11.dtd">
<!-- Generated by graphviz version 2.43.0 (0)
 -->
<!-- Title: wmtk::TriMesh::is_ccw Pages: 1 -->
<!--zoomable 545 -->
<svg id="main" version="1.1" xmlns="http://www.w3.org/2000/svg" xmlns:xlink="http://www.w3.org/1999/xlink" xml:space="preserve" onload="init(evt)">
<style type="text/css"><![CDATA[
.edge:hover path { stroke: red; }
.edge:hover polygon { stroke: red; fill: red; }
]]></style>
<script type="text/javascript"><![CDATA[
var edges = document.getElementsByTagName('g');
if (edges && edges.length) {
  for (var i=0;i<edges.length;i++) {
    if (edges[i].id.substr(0,4)=='edge') {
      edges[i].setAttribute('class','edge');
    }
  }
}
]]></script>
        <defs>
                <circle id="rim" cx="0" cy="0" r="7"/>
                <circle id="rim2" cx="0" cy="0" r="3.5"/>
                <g id="zoomPlus">
                        <use xlink:href="#rim" fill="#404040">
                                <set attributeName="fill" to="#808080" begin="zoomplus.mouseover" end="zoomplus.mouseout"/>
                        </use>
                        <path d="M-4,0h8M0,-4v8" fill="none" stroke="white" stroke-width="1.5" pointer-events="none"/>
                </g>
                <g id="zoomMin">
                        <use xlink:href="#rim" fill="#404040">
                                <set attributeName="fill" to="#808080" begin="zoomminus.mouseover" end="zoomminus.mouseout"/>
                        </use>
                        <path d="M-4,0h8" fill="none" stroke="white" stroke-width="1.5" pointer-events="none"/>
                </g>
                <g id="dirArrow">
                        <path fill="none" stroke="white" stroke-width="1.5" d="M0,-3.0v7 M-2.5,-0.5L0,-3.0L2.5,-0.5"/>
                </g>
               <g id="resetDef">
                       <use xlink:href="#rim2" fill="#404040">
                               <set attributeName="fill" to="#808080" begin="reset.mouseover" end="reset.mouseout"/>
                       </use>
               </g>
        </defs>

<script type="text/javascript">
var viewWidth = 1065;
var viewHeight = 545;
var sectionId = 'dynsection-26';
</script>
<script xlink:href="svgpan.js"/>
<svg id="graph" class="graph">
<g id="viewport">
<title>wmtk::TriMesh::is_ccw</title>
<!-- Node1 -->
<g id="node1" class="node">
<title>Node1</title>
<g id="a_node1"><a xlink:title="TODO this needs dimension?">
<polygon fill="#bfbfbf" stroke="black" points="0,-413.5 0,-432.5 126,-432.5 126,-413.5 0,-413.5"/>
<text text-anchor="middle" x="63" y="-420.5" font-family="Helvetica,sans-Serif" font-size="10.00">wmtk::TriMesh::is_ccw</text>
</a>
</g>
</g>
<!-- Node2 -->
<g id="node2" class="node">
<title>Node2</title>
<g id="a_node2"><a xlink:href="namespacewmtk_1_1autogen_1_1tri__mesh.html#aaab85f5120a223c29bae0881cd7f2c87" target="_top" xlink:title=" ">
<polygon fill="none" stroke="black" points="174,-433 174,-463 281,-463 281,-433 174,-433"/>
<text text-anchor="start" x="182" y="-451" font-family="Helvetica,sans-Serif" font-size="10.00">wmtk::autogen::tri</text>
<text text-anchor="middle" x="227.5" y="-440" font-family="Helvetica,sans-Serif" font-size="10.00">_mesh::is_ccw</text>
</a>
</g>
</g>
<!-- Node1&#45;&gt;Node2 -->
<g id="edge1" class="edge">
<title>Node1&#45;&gt;Node2</title>
<path fill="none" stroke="midnightblue" d="M125.9,-432.52C138.23,-434.42 151.19,-436.41 163.56,-438.32"/>
<polygon fill="midnightblue" stroke="midnightblue" points="163.37,-441.83 173.78,-439.89 164.43,-434.91 163.37,-441.83"/>
</g>
<!-- Node8 -->
<g id="node8" class="node">
<title>Node8</title>
<g id="a_node8"><a xlink:href="classwmtk_1_1_tri_mesh.html#a611704f60f24669e957325c7cb79f200" target="_top" xlink:title="check validity of tuple including its hash">
<polygon fill="none" stroke="black" points="162,-389.5 162,-408.5 293,-408.5 293,-389.5 162,-389.5"/>
<text text-anchor="middle" x="227.5" y="-396.5" font-family="Helvetica,sans-Serif" font-size="10.00">wmtk::TriMesh::is_valid</text>
</a>
</g>
</g>
<!-- Node1&#45;&gt;Node8 -->
<g id="edge8" class="edge">
<title>Node1&#45;&gt;Node8</title>
<path fill="none" stroke="midnightblue" d="M126.36,-413.79C134.79,-412.54 143.5,-411.26 152.11,-409.99"/>
<polygon fill="midnightblue" stroke="midnightblue" points="152.77,-413.43 162.15,-408.5 151.75,-406.5 152.77,-413.43"/>
</g>
<!-- Node3 -->
<g id="node3" class="node">
<title>Node3</title>
<g id="a_node3"><a xlink:href="namespacewmtk_1_1autogen_1_1tri__mesh.html#a1c9b651c47ee993e160a8dca570cf35c" target="_top" xlink:title=" ">
<polygon fill="none" stroke="black" points="552.5,-476.5 552.5,-517.5 674.5,-517.5 674.5,-476.5 552.5,-476.5"/>
<text text-anchor="start" x="560.5" y="-505.5" font-family="Helvetica,sans-Serif" font-size="10.00">wmtk::autogen::tri</text>
<text text-anchor="start" x="560.5" y="-494.5" font-family="Helvetica,sans-Serif" font-size="10.00">_mesh::local_id_table</text>
<text text-anchor="middle" x="613.5" y="-483.5" font-family="Helvetica,sans-Serif" font-size="10.00">_offset</text>
</a>
</g>
</g>
<!-- Node2&#45;&gt;Node3 -->
<g id="edge2" class="edge">
<title>Node2&#45;&gt;Node3</title>
<path fill="none" stroke="midnightblue" d="M271.52,-463.14C289.12,-468.73 309.83,-474.54 329,-478 400.9,-490.97 484.5,-495.29 542.19,-496.63"/>
<polygon fill="midnightblue" stroke="midnightblue" points="542.22,-500.13 552.29,-496.84 542.37,-493.14 542.22,-500.13"/>
</g>
<!-- Node6 -->
<g id="node6" class="node">
<title>Node6</title>
<g id="a_node6"><a xlink:href="namespacewmtk_1_1autogen_1_1tri__mesh.html#a786155d6d2270c482ffd6a96d3211867" target="_top" xlink:title=" ">
<polygon fill="none" stroke="black" points="351.5,-427.5 351.5,-468.5 473.5,-468.5 473.5,-427.5 351.5,-427.5"/>
<text text-anchor="start" x="359.5" y="-456.5" font-family="Helvetica,sans-Serif" font-size="10.00">wmtk::autogen::tri</text>
<text text-anchor="start" x="359.5" y="-445.5" font-family="Helvetica,sans-Serif" font-size="10.00">_mesh::tuple_is_valid</text>
<text text-anchor="middle" x="412.5" y="-434.5" font-family="Helvetica,sans-Serif" font-size="10.00">_for_ccw</text>
</a>
</g>
</g>
<!-- Node2&#45;&gt;Node6 -->
<g id="edge5" class="edge">
<title>Node2&#45;&gt;Node6</title>
<path fill="none" stroke="midnightblue" d="M281.43,-448C300.04,-448 321.25,-448 341.07,-448"/>
<polygon fill="midnightblue" stroke="midnightblue" points="341.28,-451.5 351.28,-448 341.28,-444.5 341.28,-451.5"/>
</g>
<!-- Node4 -->
<g id="node4" class="node">
<title>Node4</title>
<g id="a_node4"><a xlink:href="classwmtk_1_1utils_1_1_tuple_inspector.html#a3a04acf16e0eff80ade8e0fb8753ac1b" target="_top" xlink:title=" ">
<polygon fill="none" stroke="black" points="731,-506 731,-536 879,-536 879,-506 731,-506"/>
<text text-anchor="start" x="739" y="-524" font-family="Helvetica,sans-Serif" font-size="10.00">wmtk::utils::TupleInspector</text>
<text text-anchor="middle" x="805" y="-513" font-family="Helvetica,sans-Serif" font-size="10.00">::local_eid</text>
</a>
</g>
</g>
<!-- Node3&#45;&gt;Node4 -->
<g id="edge3" class="edge">
<title>Node3&#45;&gt;Node4</title>
<path fill="none" stroke="midnightblue" d="M674.72,-504.63C689.39,-506.48 705.34,-508.5 720.86,-510.47"/>
<polygon fill="midnightblue" stroke="midnightblue" points="720.63,-513.97 730.99,-511.75 721.5,-507.02 720.63,-513.97"/>
</g>
<!-- Node5 -->
<g id="node5" class="node">
<title>Node5</title>
<g id="a_node5"><a xlink:href="classwmtk_1_1utils_1_1_tuple_inspector.html#a92f5faa08a7f78424f5cd1ec79dcedbb" target="_top" xlink:title=" ">
<polygon fill="none" stroke="black" points="731,-457 731,-487 879,-487 879,-457 731,-457"/>
<text text-anchor="start" x="739" y="-475" font-family="Helvetica,sans-Serif" font-size="10.00">wmtk::utils::TupleInspector</text>
<text text-anchor="middle" x="805" y="-464" font-family="Helvetica,sans-Serif" font-size="10.00">::local_vid</text>
</a>
</g>
</g>
<!-- Node3&#45;&gt;Node5 -->
<g id="edge4" class="edge">
<title>Node3&#45;&gt;Node5</title>
<path fill="none" stroke="midnightblue" d="M674.72,-489.06C689.39,-487.12 705.34,-485.02 720.86,-482.97"/>
<polygon fill="midnightblue" stroke="midnightblue" points="721.53,-486.41 730.99,-481.63 720.61,-479.47 721.53,-486.41"/>
</g>
<!-- Node6&#45;&gt;Node3 -->
<g id="edge7" class="edge">
<title>Node6&#45;&gt;Node3</title>
<path fill="none" stroke="midnightblue" d="M473.75,-462.83C495.47,-468.18 520.17,-474.26 542.64,-479.8"/>
<polygon fill="midnightblue" stroke="midnightblue" points="541.91,-483.22 552.46,-482.22 543.59,-476.43 541.91,-483.22"/>
</g>
<!-- Node7 -->
<g id="node7" class="node">
<title>Node7</title>
<g id="a_node7"><a xlink:href="classwmtk_1_1_tuple.html#a0023f575be92cd5ceeeaaaa3762ea06d" target="_top" xlink:title="Checks if a tuple is &quot;null&quot;. This merely implies the global index is &#45;1.">
<polygon fill="none" stroke="black" points="557,-438.5 557,-457.5 670,-457.5 670,-438.5 557,-438.5"/>
<text text-anchor="middle" x="613.5" y="-445.5" font-family="Helvetica,sans-Serif" font-size="10.00">wmtk::Tuple::is_null</text>
</a>
</g>
</g>
<!-- Node6&#45;&gt;Node7 -->
<g id="edge6" class="edge">
<title>Node6&#45;&gt;Node7</title>
<path fill="none" stroke="midnightblue" d="M473.75,-448C496.77,-448 523.12,-448 546.64,-448"/>
<polygon fill="midnightblue" stroke="midnightblue" points="546.87,-451.5 556.87,-448 546.87,-444.5 546.87,-451.5"/>
</g>
<!-- Node8&#45;&gt;Node6 -->
<g id="edge32" class="edge">
<title>Node8&#45;&gt;Node6</title>
<path fill="none" stroke="midnightblue" d="M264.22,-408.56C286.17,-414.44 315.05,-422.17 341.41,-429.23"/>
<polygon fill="midnightblue" stroke="midnightblue" points="340.81,-432.7 351.38,-431.9 342.62,-425.93 340.81,-432.7"/>
</g>
<!-- Node9 -->
<g id="node9" class="node">
<title>Node9</title>
<g id="a_node9"><a xlink:href="classwmtk_1_1_tri_mesh.html#a6375662ccb85d7c8868b3c76d708bae5" target="_top" xlink:title=" ">
<polygon fill="none" stroke="black" points="329,-203 329,-233 496,-233 496,-203 329,-203"/>
<text text-anchor="start" x="337" y="-221" font-family="Helvetica,sans-Serif" font-size="10.00">wmtk::TriMesh::is_connectivity</text>
<text text-anchor="middle" x="412.5" y="-210" font-family="Helvetica,sans-Serif" font-size="10.00">_valid</text>
</a>
</g>
</g>
<!-- Node8&#45;&gt;Node9 -->
<g id="edge9" class="edge">
<title>Node8&#45;&gt;Node9</title>
<path fill="none" stroke="midnightblue" d="M238.34,-389.27C266.6,-361.32 348.54,-280.27 388.73,-240.52"/>
<polygon fill="midnightblue" stroke="midnightblue" points="391.53,-242.67 396.18,-233.15 386.61,-237.69 391.53,-242.67"/>
</g>
<!-- Node23 -->
<g id="node23" class="node">
<title>Node23</title>
<g id="a_node23"><a xlink:href="namespacewmtk.html#a6a35f11c12436093d26fdd8be6fecc06" target="_top" xlink:title="Retrieves the current logger.">
<polygon fill="none" stroke="black" points="573,-0.5 573,-19.5 654,-19.5 654,-0.5 573,-0.5"/>
<text text-anchor="middle" x="613.5" y="-7.5" font-family="Helvetica,sans-Serif" font-size="10.00">wmtk::logger</text>
</a>
</g>
</g>
<!-- Node8&#45;&gt;Node23 -->
<g id="edge31" class="edge">
<title>Node8&#45;&gt;Node23</title>
<path fill="none" stroke="midnightblue" d="M231.6,-389.18C241.77,-358.11 276.44,-260.07 329,-194 401.39,-103.02 427.67,-80.32 532,-29 541.57,-24.29 552.36,-20.72 562.86,-18.01"/>
<polygon fill="midnightblue" stroke="midnightblue" points="563.86,-21.38 572.79,-15.68 562.25,-14.56 563.86,-21.38"/>
</g>
<!-- Node25 -->
<g id="node25" class="node">
<title>Node25</title>
<g id="a_node25"><a xlink:href="classwmtk_1_1_mesh.html#a8cc8686f0688613806f43720b6db49e7" target="_top" xlink:title="check validity of tuple including its hash">
<polygon fill="none" stroke="black" points="352.5,-389.5 352.5,-408.5 472.5,-408.5 472.5,-389.5 352.5,-389.5"/>
<text text-anchor="middle" x="412.5" y="-396.5" font-family="Helvetica,sans-Serif" font-size="10.00">wmtk::Mesh::is_valid</text>
</a>
</g>
</g>
<!-- Node8&#45;&gt;Node25 -->
<g id="edge28" class="edge">
<title>Node8&#45;&gt;Node25</title>
<path fill="none" stroke="midnightblue" d="M293.02,-399C308.89,-399 325.95,-399 342.04,-399"/>
<polygon fill="midnightblue" stroke="midnightblue" points="342.45,-402.5 352.45,-399 342.45,-395.5 342.45,-402.5"/>
</g>
<!-- Node10 -->
<g id="node10" class="node">
<title>Node10</title>
<g id="a_node10"><a xlink:href="classwmtk_1_1_mesh.html#a3e8ff83c4a5526a40d18bb9883c6c6c9" target="_top" xlink:title="read in the m_capacities return the upper bound for the number of entities of the given dimension">
<polygon fill="none" stroke="black" points="743,-373.5 743,-392.5 867,-392.5 867,-373.5 743,-373.5"/>
<text text-anchor="middle" x="805" y="-380.5" font-family="Helvetica,sans-Serif" font-size="10.00">wmtk::Mesh::capacity</text>
</a>
</g>
</g>
<!-- Node9&#45;&gt;Node10 -->
<g id="edge10" class="edge">
<title>Node9&#45;&gt;Node10</title>
<path fill="none" stroke="midnightblue" d="M421.54,-233C437.96,-261.94 478.34,-325.06 532,-353 594.31,-385.45 675.39,-390.42 732.76,-388.83"/>
<polygon fill="midnightblue" stroke="midnightblue" points="732.96,-392.33 742.83,-388.48 732.72,-385.33 732.96,-392.33"/>
</g>
<!-- Node12 -->
<g id="node12" class="node">
<title>Node12</title>
<g id="a_node12"><a xlink:href="classwmtk_1_1attribute_1_1_caching_accessor.html#a196b6b32e2495b971113d552be7f45d9" target="_top" xlink:title=" ">
<polygon fill="none" stroke="black" points="736.5,-263.5 736.5,-304.5 873.5,-304.5 873.5,-263.5 736.5,-263.5"/>
<text text-anchor="start" x="744.5" y="-292.5" font-family="Helvetica,sans-Serif" font-size="10.00">wmtk::attribute::Caching</text>
<text text-anchor="start" x="744.5" y="-281.5" font-family="Helvetica,sans-Serif" font-size="10.00">Accessor::const_scalar</text>
<text text-anchor="middle" x="805" y="-270.5" font-family="Helvetica,sans-Serif" font-size="10.00">_attribute</text>
</a>
</g>
</g>
<!-- Node9&#45;&gt;Node12 -->
<g id="edge12" class="edge">
<title>Node9&#45;&gt;Node12</title>
<path fill="none" stroke="midnightblue" d="M443.85,-233.06C467.31,-243.94 500.92,-257.93 532,-265 596.42,-279.65 671.44,-283.98 726.36,-284.88"/>
<polygon fill="midnightblue" stroke="midnightblue" points="726.33,-288.38 736.37,-285.01 726.42,-281.38 726.33,-288.38"/>
</g>
<!-- Node13 -->
<g id="node13" class="node">
<title>Node13</title>
<g id="a_node13"><a xlink:href="classwmtk_1_1attribute_1_1_caching_accessor.html#ab7a79d239fdc3d22fbc0c3a83a5c50bc" target="_top" xlink:title=" ">
<polygon fill="none" stroke="black" points="545,-126.5 545,-167.5 682,-167.5 682,-126.5 545,-126.5"/>
<text text-anchor="start" x="553" y="-155.5" font-family="Helvetica,sans-Serif" font-size="10.00">wmtk::attribute::Caching</text>
<text text-anchor="start" x="553" y="-144.5" font-family="Helvetica,sans-Serif" font-size="10.00">Accessor::const_vector</text>
<text text-anchor="middle" x="613.5" y="-133.5" font-family="Helvetica,sans-Serif" font-size="10.00">_attribute</text>
</a>
</g>
</g>
<!-- Node9&#45;&gt;Node13 -->
<g id="edge13" class="edge">
<title>Node9&#45;&gt;Node13</title>
<path fill="none" stroke="midnightblue" d="M455.7,-202.94C481.75,-193.65 515.74,-181.52 545.42,-170.93"/>
<polygon fill="midnightblue" stroke="midnightblue" points="546.64,-174.21 554.88,-167.56 544.29,-167.62 546.64,-174.21"/>
</g>
<!-- Node14 -->
<g id="node14" class="node">
<title>Node14</title>
<g id="a_node14"><a xlink:href="classwmtk_1_1_mesh.html#ae3493915b766f0f34f0a9e89603d5773" target="_top" xlink:title=" ">
<polygon fill="none" stroke="black" points="552.5,-313 552.5,-343 674.5,-343 674.5,-313 552.5,-313"/>
<text text-anchor="start" x="560.5" y="-331" font-family="Helvetica,sans-Serif" font-size="10.00">wmtk::Mesh::get_flag</text>
<text text-anchor="middle" x="613.5" y="-320" font-family="Helvetica,sans-Serif" font-size="10.00">_accessor</text>
</a>
</g>
</g>
<!-- Node9&#45;&gt;Node14 -->
<g id="edge14" class="edge">
<title>Node9&#45;&gt;Node14</title>
<path fill="none" stroke="midnightblue" d="M432.74,-233.1C455.47,-250.43 494.92,-278.92 532,-298 539.8,-302.02 548.28,-305.77 556.69,-309.17"/>
<polygon fill="midnightblue" stroke="midnightblue" points="555.55,-312.48 566.14,-312.86 558.09,-305.96 555.55,-312.48"/>
</g>
<!-- Node17 -->
<g id="node17" class="node">
<title>Node17</title>
<g id="a_node17"><a xlink:href="classwmtk_1_1attribute_1_1_accessor.html#a41f40a73a13789707c117bda177dfc83" target="_top" xlink:title=" ">
<polygon fill="none" stroke="black" points="734,-165 734,-195 876,-195 876,-165 734,-165"/>
<text text-anchor="start" x="742" y="-183" font-family="Helvetica,sans-Serif" font-size="10.00">wmtk::attribute::Accessor</text>
<text text-anchor="middle" x="805" y="-172" font-family="Helvetica,sans-Serif" font-size="10.00">::index_access</text>
</a>
</g>
</g>
<!-- Node9&#45;&gt;Node17 -->
<g id="edge18" class="edge">
<title>Node9&#45;&gt;Node17</title>
<path fill="none" stroke="midnightblue" d="M496.32,-209.94C563.39,-203.41 657.33,-194.27 723.72,-187.81"/>
<polygon fill="midnightblue" stroke="midnightblue" points="724.11,-191.29 733.72,-186.84 723.43,-184.32 724.11,-191.29"/>
</g>
<!-- Node19 -->
<g id="node19" class="node">
<title>Node19</title>
<g id="a_node19"><a xlink:href="classwmtk_1_1attribute_1_1_flag_accessor.html#a03ac42d95cb81c6a751eb9b5de9f84d1" target="_top" xlink:title=" ">
<polygon fill="none" stroke="black" points="532,-77 532,-107 695,-107 695,-77 532,-77"/>
<text text-anchor="start" x="540" y="-95" font-family="Helvetica,sans-Serif" font-size="10.00">wmtk::attribute::FlagAccessor</text>
<text text-anchor="middle" x="613.5" y="-84" font-family="Helvetica,sans-Serif" font-size="10.00">::index_access</text>
</a>
</g>
</g>
<!-- Node9&#45;&gt;Node19 -->
<g id="edge20" class="edge">
<title>Node9&#45;&gt;Node19</title>
<path fill="none" stroke="midnightblue" d="M427.36,-202.79C448.11,-180.87 489.38,-140.48 532,-117 536,-114.8 540.22,-112.76 544.56,-110.88"/>
<polygon fill="midnightblue" stroke="midnightblue" points="546.19,-113.99 554.16,-107.01 543.58,-107.5 546.19,-113.99"/>
</g>
<!-- Node20 -->
<g id="node20" class="node">
<title>Node20</title>
<g id="a_node20"><a xlink:href="classwmtk_1_1attribute_1_1_index_flag_accessor.html#a195252af3f6230f09f0c1379cbec7240" target="_top" xlink:title=" ">
<polygon fill="none" stroke="black" points="540.5,-225 540.5,-255 686.5,-255 686.5,-225 540.5,-225"/>
<text text-anchor="start" x="548.5" y="-243" font-family="Helvetica,sans-Serif" font-size="10.00">wmtk::attribute::IndexFlag</text>
<text text-anchor="middle" x="613.5" y="-232" font-family="Helvetica,sans-Serif" font-size="10.00">Accessor::is_active</text>
</a>
</g>
</g>
<!-- Node9&#45;&gt;Node20 -->
<g id="edge21" class="edge">
<title>Node9&#45;&gt;Node20</title>
<path fill="none" stroke="midnightblue" d="M496.17,-227.14C507.37,-228.38 518.86,-229.65 530.06,-230.89"/>
<polygon fill="midnightblue" stroke="midnightblue" points="529.92,-234.39 540.24,-232.01 530.68,-227.43 529.92,-234.39"/>
</g>
<!-- Node22 -->
<g id="node22" class="node">
<title>Node22</title>
<g id="a_node22"><a xlink:href="classwmtk_1_1_tri_mesh.html#a58bdbbfa0cd7bd9263241f6501db182a" target="_top" xlink:title="check if a simplex lies on a boundary or not">
<polygon fill="none" stroke="black" points="537,-38.5 537,-57.5 690,-57.5 690,-38.5 537,-38.5"/>
<text text-anchor="middle" x="613.5" y="-45.5" font-family="Helvetica,sans-Serif" font-size="10.00">wmtk::TriMesh::is_boundary</text>
</a>
</g>
</g>
<!-- Node9&#45;&gt;Node22 -->
<g id="edge25" class="edge">
<title>Node9&#45;&gt;Node22</title>
<path fill="none" stroke="midnightblue" d="M420.97,-202.95C436.91,-172.45 477.34,-103.26 532,-68 536.02,-65.4 540.36,-63.15 544.86,-61.18"/>
<polygon fill="midnightblue" stroke="midnightblue" points="546.21,-64.41 554.28,-57.54 543.69,-57.88 546.21,-64.41"/>
</g>
<!-- Node9&#45;&gt;Node23 -->
<g id="edge26" class="edge">
<title>Node9&#45;&gt;Node23</title>
<path fill="none" stroke="midnightblue" d="M424.38,-202.76C440.62,-179.8 471.87,-134.8 496,-95 513.32,-66.43 505.43,-49.26 532,-29 540.92,-22.2 551.88,-17.78 562.82,-14.92"/>
<polygon fill="midnightblue" stroke="midnightblue" points="563.79,-18.29 572.8,-12.71 562.28,-11.46 563.79,-18.29"/>
</g>
<!-- Node11 -->
<g id="node11" class="node">
<title>Node11</title>
<g id="a_node11"><a xlink:href="namespacewmtk.html#a5cf45c152e856196bb734c6f48919a24" target="_top" xlink:title="Get a unique integer id corresponding to each primitive type.">
<polygon fill="none" stroke="black" points="928,-368 928,-398 1044,-398 1044,-368 928,-368"/>
<text text-anchor="start" x="936" y="-386" font-family="Helvetica,sans-Serif" font-size="10.00">wmtk::get_primitive</text>
<text text-anchor="middle" x="986" y="-375" font-family="Helvetica,sans-Serif" font-size="10.00">_type_id</text>
</a>
</g>
</g>
<!-- Node10&#45;&gt;Node11 -->
<g id="edge11" class="edge">
<title>Node10&#45;&gt;Node11</title>
<path fill="none" stroke="midnightblue" d="M867.1,-383C883.37,-383 901.04,-383 917.63,-383"/>
<polygon fill="midnightblue" stroke="midnightblue" points="917.79,-386.5 927.79,-383 917.79,-379.5 917.79,-386.5"/>
</g>
<!-- Node15 -->
<g id="node15" class="node">
<title>Node15</title>
<g id="a_node15"><a xlink:href="classwmtk_1_1_mesh.html#acfa981b31f00aef4438ff5e73bbce2f4" target="_top" xlink:title=" ">
<polygon fill="none" stroke="black" points="740,-324 740,-354 870,-354 870,-324 740,-324"/>
<text text-anchor="start" x="748" y="-342" font-family="Helvetica,sans-Serif" font-size="10.00">wmtk::Mesh::get_const</text>
<text text-anchor="middle" x="805" y="-331" font-family="Helvetica,sans-Serif" font-size="10.00">_flag_accessor</text>
</a>
</g>
</g>
<!-- Node14&#45;&gt;Node15 -->
<g id="edge15" class="edge">
<title>Node14&#45;&gt;Node15</title>
<path fill="none" stroke="midnightblue" d="M674.72,-331.5C692.18,-332.51 711.46,-333.63 729.68,-334.69"/>
<polygon fill="midnightblue" stroke="midnightblue" points="729.49,-338.18 739.68,-335.27 729.9,-331.19 729.49,-338.18"/>
</g>
<!-- Node15&#45;&gt;Node11 -->
<g id="edge17" class="edge">
<title>Node15&#45;&gt;Node11</title>
<path fill="none" stroke="midnightblue" d="M867.1,-354.02C883.37,-358.02 901.04,-362.36 917.63,-366.44"/>
<polygon fill="midnightblue" stroke="midnightblue" points="917.25,-369.95 927.79,-368.94 918.92,-363.15 917.25,-369.95"/>
</g>
<!-- Node16 -->
<g id="node16" class="node">
<title>Node16</title>
<g id="a_node16"><a xlink:href="classwmtk_1_1_mesh.html#a4a20dcdac339e7a4f6f8a6570114cbe6" target="_top" xlink:title=" ">
<polygon fill="none" stroke="black" points="929.5,-319 929.5,-349 1042.5,-349 1042.5,-319 929.5,-319"/>
<text text-anchor="start" x="937.5" y="-337" font-family="Helvetica,sans-Serif" font-size="10.00">wmtk::Mesh::create</text>
<text text-anchor="middle" x="986" y="-326" font-family="Helvetica,sans-Serif" font-size="10.00">_const_accessor</text>
</a>
</g>
</g>
<!-- Node15&#45;&gt;Node16 -->
<g id="edge16" class="edge">
<title>Node15&#45;&gt;Node16</title>
<path fill="none" stroke="midnightblue" d="M870.12,-337.21C886,-336.77 903.04,-336.29 919.01,-335.84"/>
<polygon fill="midnightblue" stroke="midnightblue" points="919.43,-339.33 929.33,-335.56 919.24,-332.34 919.43,-339.33"/>
</g>
<!-- Node18 -->
<g id="node18" class="node">
<title>Node18</title>
<g id="a_node18"><a xlink:href="classwmtk_1_1attribute_1_1_accessor.html#a9c7d323f50911892c8ea738f97d041d4" target="_top" xlink:title=" ">
<polygon fill="none" stroke="black" points="915,-165 915,-195 1057,-195 1057,-165 915,-165"/>
<text text-anchor="start" x="923" y="-183" font-family="Helvetica,sans-Serif" font-size="10.00">wmtk::attribute::Accessor</text>
<text text-anchor="middle" x="986" y="-172" font-family="Helvetica,sans-Serif" font-size="10.00">::caching_base_type</text>
</a>
</g>
</g>
<!-- Node17&#45;&gt;Node18 -->
<g id="edge19" class="edge">
<title>Node17&#45;&gt;Node18</title>
<path fill="none" stroke="midnightblue" d="M876.23,-180C885.58,-180 895.23,-180 904.73,-180"/>
<polygon fill="midnightblue" stroke="midnightblue" points="904.97,-183.5 914.97,-180 904.97,-176.5 904.97,-183.5"/>
</g>
<!-- Node20&#45;&gt;Node12 -->
<g id="edge23" class="edge">
<title>Node20&#45;&gt;Node12</title>
<path fill="none" stroke="midnightblue" d="M679.19,-255.02C694.31,-258.53 710.58,-262.31 726.21,-265.94"/>
<polygon fill="midnightblue" stroke="midnightblue" points="725.84,-269.45 736.38,-268.3 727.43,-262.63 725.84,-269.45"/>
</g>
<!-- Node20&#45;&gt;Node17 -->
<g id="edge24" class="edge">
<title>Node20&#45;&gt;Node17</title>
<path fill="none" stroke="midnightblue" d="M662.32,-224.86C688,-216.73 719.84,-206.65 746.82,-198.1"/>
<polygon fill="midnightblue" stroke="midnightblue" points="748.05,-201.39 756.53,-195.03 745.93,-194.71 748.05,-201.39"/>
</g>
<!-- Node21 -->
<g id="node21" class="node">
<title>Node21</title>
<g id="a_node21"><a xlink:href="classwmtk_1_1attribute_1_1_index_flag_accessor.html#a08ce19b077654f9e384d8c3fffcbbd0b" target="_top" xlink:title=" ">
<polygon fill="none" stroke="black" points="732,-214 732,-244 878,-244 878,-214 732,-214"/>
<text text-anchor="start" x="740" y="-232" font-family="Helvetica,sans-Serif" font-size="10.00">wmtk::attribute::IndexFlag</text>
<text text-anchor="middle" x="805" y="-221" font-family="Helvetica,sans-Serif" font-size="10.00">Accessor::_is_active</text>
</a>
</g>
</g>
<!-- Node20&#45;&gt;Node21 -->
<g id="edge22" class="edge">
<title>Node20&#45;&gt;Node21</title>
<path fill="none" stroke="midnightblue" d="M686.68,-235.81C698.09,-235.15 709.96,-234.46 721.58,-233.78"/>
<polygon fill="midnightblue" stroke="midnightblue" points="721.92,-237.27 731.7,-233.2 721.52,-230.28 721.92,-237.27"/>
</g>
<!-- Node24 -->
<g id="node24" class="node">
<title>Node24</title>
<g id="a_node24"><a xlink:href="namespacewmtk.html#a3daa7951a5f8b78cf4600dc047fcc180" target="_top" xlink:title="Setup a logger object to be used by WildmeshToolkit.">
<polygon fill="none" stroke="black" points="754.5,-0.5 754.5,-19.5 855.5,-19.5 855.5,-0.5 754.5,-0.5"/>
<text text-anchor="middle" x="805" y="-7.5" font-family="Helvetica,sans-Serif" font-size="10.00">wmtk::set_logger</text>
</a>
</g>
</g>
<!-- Node23&#45;&gt;Node24 -->
<g id="edge27" class="edge">
<title>Node23&#45;&gt;Node24</title>
<path fill="none" stroke="midnightblue" d="M654.23,-10C680.24,-10 714.73,-10 744.06,-10"/>
<polygon fill="midnightblue" stroke="midnightblue" points="744.19,-13.5 754.19,-10 744.19,-6.5 744.19,-13.5"/>
</g>
<!-- Node25&#45;&gt;Node7 -->
<g id="edge29" class="edge">
<title>Node25&#45;&gt;Node7</title>
<path fill="none" stroke="midnightblue" d="M457.74,-408.59C470.16,-411.44 483.65,-414.69 496,-418 512.16,-422.32 515.85,-424.63 532,-429 540.96,-431.42 550.52,-433.83 559.82,-436.08"/>
<polygon fill="midnightblue" stroke="midnightblue" points="559.22,-439.54 569.76,-438.45 560.84,-432.73 559.22,-439.54"/>
</g>
<!-- Node26 -->
<g id="node26" class="node">
<title>Node26</title>
<g id="a_node26"><a xlink:href="classwmtk_1_1_mesh.html#ade176d345902d97af8c5da04aa3a095b" target="_top" xlink:title=" ">
<polygon fill="none" stroke="black" points="543.5,-400.5 543.5,-419.5 683.5,-419.5 683.5,-400.5 543.5,-400.5"/>
<text text-anchor="middle" x="613.5" y="-407.5" font-family="Helvetica,sans-Serif" font-size="10.00">wmtk::Mesh::is_removed</text>
</a>
</g>
</g>
<!-- Node25&#45;&gt;Node26 -->
<g id="edge30" class="edge">
<title>Node25&#45;&gt;Node26</title>
<path fill="none" stroke="midnightblue" d="M472.67,-402.27C491.68,-403.32 513.06,-404.5 533.28,-405.62"/>
<polygon fill="midnightblue" stroke="midnightblue" points="533.23,-409.12 543.4,-406.18 533.61,-402.13 533.23,-409.12"/>
</g>
</g>
</svg>
        <g id="navigator" transform="translate(0 0)" fill="#404254">
                <rect fill="#f2f5e9" fill-opacity="0.5" stroke="#606060" stroke-width=".5" x="0" y="0" width="60" height="60"/>
                <use id="zoomplus" xlink:href="#zoomPlus" x="17" y="9" onmousedown="handleZoom(evt,'in')"/>
                <use id="zoomminus" xlink:href="#zoomMin" x="42" y="9" onmousedown="handleZoom(evt,'out')"/>
                <use id="reset" xlink:href="#resetDef" x="30" y="36" onmousedown="handleReset()"/>
                <g id="arrowUp" xlink:href="#dirArrow" transform="translate(30 24)" onmousedown="handlePan(0,-1)">
                  <use xlink:href="#rim" fill="#404040">
                        <set attributeName="fill" to="#808080" begin="arrowUp.mouseover" end="arrowUp.mouseout"/>
                  </use>
                  <path fill="none" stroke="white" stroke-width="1.5" d="M0,-3.0v7 M-2.5,-0.5L0,-3.0L2.5,-0.5"/>
                </g>
                <g id="arrowRight" xlink:href="#dirArrow" transform="rotate(90) translate(36 -43)" onmousedown="handlePan(1,0)">
                  <use xlink:href="#rim" fill="#404040">
                        <set attributeName="fill" to="#808080" begin="arrowRight.mouseover" end="arrowRight.mouseout"/>
                  </use>
                  <path fill="none" stroke="white" stroke-width="1.5" d="M0,-3.0v7 M-2.5,-0.5L0,-3.0L2.5,-0.5"/>
                </g>
                <g id="arrowDown" xlink:href="#dirArrow" transform="rotate(180) translate(-30 -48)" onmousedown="handlePan(0,1)">
                  <use xlink:href="#rim" fill="#404040">
                        <set attributeName="fill" to="#808080" begin="arrowDown.mouseover" end="arrowDown.mouseout"/>
                  </use>
                  <path fill="none" stroke="white" stroke-width="1.5" d="M0,-3.0v7 M-2.5,-0.5L0,-3.0L2.5,-0.5"/>
                </g>
                <g id="arrowLeft" xlink:href="#dirArrow" transform="rotate(270) translate(-36 17)" onmousedown="handlePan(-1,0)">
                  <use xlink:href="#rim" fill="#404040">
                        <set attributeName="fill" to="#808080" begin="arrowLeft.mouseover" end="arrowLeft.mouseout"/>
                  </use>
                  <path fill="none" stroke="white" stroke-width="1.5" d="M0,-3.0v7 M-2.5,-0.5L0,-3.0L2.5,-0.5"/>
                </g>
        </g>
        <svg viewBox="0 0 15 15" width="100%" height="30px" preserveAspectRatio="xMaxYMin meet">
         <g id="arrow_out" transform="scale(0.3 0.3)">
          <a xlink:href="classwmtk_1_1_tri_mesh_accbde91fccacdfdfd997e20d9ee9eb22_cgraph_org.svg" target="_base">
           <rect id="button" ry="5" rx="5" y="6" x="6" height="38" width="38"
                fill="#f2f5e9" fill-opacity="0.5" stroke="#606060" stroke-width="1.0"/>
           <path id="arrow"
             d="M 11.500037,31.436501 C 11.940474,20.09759 22.043105,11.32322 32.158766,21.979434 L 37.068811,17.246167 C 37.068811,17.246167 37.088388,32 37.088388,32 L 22.160133,31.978069 C 22.160133,31.978069 26.997745,27.140456 26.997745,27.140456 C 18.528582,18.264221 13.291696,25.230495 11.500037,31.436501 z"
             style="fill:#404040;"/>
          </a>
         </g>
        </svg>
</svg>
