<?xml version="1.0" encoding="UTF-8" standalone="no"?>
<!DOCTYPE svg PUBLIC "-//W3C//DTD SVG 1.1//EN"
 "http://www.w3.org/Graphics/SVG/1.1/DTD/svg11.dtd">
<!-- Generated by graphviz version 2.43.0 (0)
 -->
<!-- Title: wmtk::invariants::MinIncidentValenceInvariant::after Pages: 1 -->
<svg width="1888pt" height="837pt"
 viewBox="0.00 0.00 1888.00 836.53" xmlns="http://www.w3.org/2000/svg" xmlns:xlink="http://www.w3.org/1999/xlink">
<g id="graph0" class="graph" transform="scale(1 1) rotate(0) translate(4 832.53)">
<title>wmtk::invariants::MinIncidentValenceInvariant::after</title>
<!-- Node1 -->
<g id="node1" class="node">
<title>Node1</title>
<g id="a_node1"><a xlink:title=" ">
<polygon fill="#bfbfbf" stroke="black" points="0,-361.5 0,-391.5 162,-391.5 162,-361.5 0,-361.5"/>
<text text-anchor="start" x="8" y="-379.5" font-family="Helvetica,sans-Serif" font-size="10.00">wmtk::invariants::MinIncident</text>
<text text-anchor="middle" x="81" y="-368.5" font-family="Helvetica,sans-Serif" font-size="10.00">ValenceInvariant::after</text>
</a>
</g>
</g>
<!-- Node2 -->
<g id="node2" class="node">
<title>Node2</title>
<g id="a_node2"><a xlink:href="namespacewmtk_1_1simplex.html#aedab544fbb3e4c417608c0b5371e94d9" target="_top" xlink:title=" ">
<polygon fill="none" stroke="black" points="399,-497.5 399,-527.5 542,-527.5 542,-497.5 399,-497.5"/>
<text text-anchor="start" x="407" y="-515.5" font-family="Helvetica,sans-Serif" font-size="10.00">wmtk::simplex::faces</text>
<text text-anchor="middle" x="470.5" y="-504.5" font-family="Helvetica,sans-Serif" font-size="10.00">_single_dimension_tuples</text>
</a>
</g>
</g>
<!-- Node1&#45;&gt;Node2 -->
<g id="edge1" class="edge">
<title>Node1&#45;&gt;Node2</title>
<path fill="none" stroke="midnightblue" d="M124.95,-391.57C196.47,-416.68 339.75,-466.96 417.1,-494.11"/>
<polygon fill="midnightblue" stroke="midnightblue" points="416.06,-497.45 426.65,-497.46 418.38,-490.85 416.06,-497.45"/>
</g>
<!-- Node13 -->
<g id="node13" class="node">
<title>Node13</title>
<g id="a_node13"><a xlink:href="classwmtk_1_1invariants_1_1_min_incident_valence_invariant.html#a03c779db7485cb3e628da2c6162af6b1" target="_top" xlink:title=" ">
<polygon fill="none" stroke="black" points="198,-356 198,-397 360,-397 360,-356 198,-356"/>
<text text-anchor="start" x="206" y="-385" font-family="Helvetica,sans-Serif" font-size="10.00">wmtk::invariants::MinIncident</text>
<text text-anchor="start" x="206" y="-374" font-family="Helvetica,sans-Serif" font-size="10.00">ValenceInvariant::is_greater</text>
<text text-anchor="middle" x="279" y="-363" font-family="Helvetica,sans-Serif" font-size="10.00">_min_valence</text>
</a>
</g>
</g>
<!-- Node1&#45;&gt;Node13 -->
<g id="edge21" class="edge">
<title>Node1&#45;&gt;Node13</title>
<path fill="none" stroke="midnightblue" d="M162,-376.5C170.52,-376.5 179.23,-376.5 187.86,-376.5"/>
<polygon fill="midnightblue" stroke="midnightblue" points="187.93,-380 197.93,-376.5 187.93,-373 187.93,-380"/>
</g>
<!-- Node34 -->
<g id="node34" class="node">
<title>Node34</title>
<g id="a_node34"><a xlink:href="classwmtk_1_1invariants_1_1_invariant.html#ac97548bf5f1167cd85081d1bde011139" target="_top" xlink:title=" ">
<polygon fill="none" stroke="black" points="396,-241.5 396,-271.5 545,-271.5 545,-241.5 396,-241.5"/>
<text text-anchor="start" x="404" y="-259.5" font-family="Helvetica,sans-Serif" font-size="10.00">wmtk::invariants::Invariant</text>
<text text-anchor="middle" x="470.5" y="-248.5" font-family="Helvetica,sans-Serif" font-size="10.00">::mesh</text>
</a>
</g>
</g>
<!-- Node1&#45;&gt;Node34 -->
<g id="edge59" class="edge">
<title>Node1&#45;&gt;Node34</title>
<path fill="none" stroke="midnightblue" d="M130.68,-361.42C201.98,-339.34 334.6,-298.27 411.07,-274.6"/>
<polygon fill="midnightblue" stroke="midnightblue" points="412.5,-277.82 421.01,-271.51 410.43,-271.13 412.5,-277.82"/>
</g>
<!-- Node3 -->
<g id="node3" class="node">
<title>Node3</title>
<g id="a_node3"><a xlink:href="namespacewmtk_1_1simplex.html#a71a3f68cd8c07a8b71f16701238253f1" target="_top" xlink:title=" ">
<polygon fill="none" stroke="black" points="589,-686 589,-705 714,-705 714,-686 589,-686"/>
<text text-anchor="middle" x="651.5" y="-693" font-family="Helvetica,sans-Serif" font-size="10.00">wmtk::simplex::edges</text>
</a>
</g>
</g>
<!-- Node2&#45;&gt;Node3 -->
<g id="edge2" class="edge">
<title>Node2&#45;&gt;Node3</title>
<path fill="none" stroke="midnightblue" d="M486.45,-527.79C519.73,-561.81 599.68,-643.55 634.19,-678.83"/>
<polygon fill="midnightblue" stroke="midnightblue" points="631.7,-681.29 641.2,-685.99 636.71,-676.4 631.7,-681.29"/>
</g>
<!-- Node4 -->
<g id="node4" class="node">
<title>Node4</title>
<g id="a_node4"><a xlink:href="classwmtk_1_1simplex_1_1_simplex.html#ad2cc0340a0772b7d6f03ba7a781d1163" target="_top" xlink:title=" ">
<polygon fill="none" stroke="black" points="1454.5,-655.5 1454.5,-685.5 1589.5,-685.5 1589.5,-655.5 1454.5,-655.5"/>
<text text-anchor="start" x="1462.5" y="-673.5" font-family="Helvetica,sans-Serif" font-size="10.00">wmtk::simplex::Simplex</text>
<text text-anchor="middle" x="1522" y="-662.5" font-family="Helvetica,sans-Serif" font-size="10.00">::primitive_type</text>
</a>
</g>
</g>
<!-- Node2&#45;&gt;Node4 -->
<g id="edge14" class="edge">
<title>Node2&#45;&gt;Node4</title>
<path fill="none" stroke="midnightblue" d="M475.85,-527.61C487.18,-564.45 520.95,-659.88 581,-714.5 676.75,-801.6 719.56,-828.5 849,-828.5 849,-828.5 849,-828.5 1071,-828.5 1211.37,-828.5 1253.06,-828.99 1382,-773.5 1427.75,-753.81 1472.56,-716.4 1498.45,-692.5"/>
<polygon fill="midnightblue" stroke="midnightblue" points="1500.96,-694.94 1505.85,-685.55 1496.17,-689.84 1500.96,-694.94"/>
</g>
<!-- Node10 -->
<g id="node10" class="node">
<title>Node10</title>
<g id="a_node10"><a xlink:href="classwmtk_1_1_mesh.html#abaf00438d0700358b160e310d69725c9" target="_top" xlink:title=" ">
<polygon fill="none" stroke="black" points="985,-503 985,-522 1155,-522 1155,-503 985,-503"/>
<text text-anchor="middle" x="1070" y="-510" font-family="Helvetica,sans-Serif" font-size="10.00">wmtk::Mesh::top_simplex_type</text>
</a>
</g>
</g>
<!-- Node2&#45;&gt;Node10 -->
<g id="edge15" class="edge">
<title>Node2&#45;&gt;Node10</title>
<path fill="none" stroke="midnightblue" d="M542.09,-512.5C649.51,-512.5 854.19,-512.5 974.38,-512.5"/>
<polygon fill="midnightblue" stroke="midnightblue" points="974.67,-516 984.67,-512.5 974.67,-509 974.67,-516"/>
</g>
<!-- Node11 -->
<g id="node11" class="node">
<title>Node11</title>
<g id="a_node11"><a xlink:href="namespacewmtk_1_1simplex.html#aee89641a0de7b5ddf8d15bf376f9d33b" target="_top" xlink:title="Returns all faces of a simplex.">
<polygon fill="none" stroke="black" points="1009,-126 1009,-145 1131,-145 1131,-126 1009,-126"/>
<text text-anchor="middle" x="1070" y="-133" font-family="Helvetica,sans-Serif" font-size="10.00">wmtk::simplex::faces</text>
</a>
</g>
</g>
<!-- Node2&#45;&gt;Node11 -->
<g id="edge13" class="edge">
<title>Node2&#45;&gt;Node11</title>
<path fill="none" stroke="midnightblue" d="M490.67,-497.39C535.85,-462.07 653.14,-372.24 758,-307.5 836.66,-258.93 872.25,-271.18 942,-210.5 962.66,-192.53 955.52,-176.13 978,-160.5 985.14,-155.54 993.22,-151.56 1001.55,-148.37"/>
<polygon fill="midnightblue" stroke="midnightblue" points="1002.73,-151.67 1011.03,-145.1 1000.44,-145.06 1002.73,-151.67"/>
</g>
<!-- Node12 -->
<g id="node12" class="node">
<title>Node12</title>
<g id="a_node12"><a xlink:href="namespacewmtk_1_1simplex.html#a1942aba1c5db8f987a1b1535b64b3455" target="_top" xlink:title=" ">
<polygon fill="none" stroke="black" points="584.5,-585 584.5,-604 718.5,-604 718.5,-585 584.5,-585"/>
<text text-anchor="middle" x="651.5" y="-592" font-family="Helvetica,sans-Serif" font-size="10.00">wmtk::simplex::vertices</text>
</a>
</g>
</g>
<!-- Node2&#45;&gt;Node12 -->
<g id="edge16" class="edge">
<title>Node2&#45;&gt;Node12</title>
<path fill="none" stroke="midnightblue" d="M504.33,-527.54C537.44,-542.71 588.13,-565.93 620.28,-580.66"/>
<polygon fill="midnightblue" stroke="midnightblue" points="619.07,-583.95 629.62,-584.94 621.99,-577.59 619.07,-583.95"/>
</g>
<!-- Node3&#45;&gt;Node4 -->
<g id="edge3" class="edge">
<title>Node3&#45;&gt;Node4</title>
<path fill="none" stroke="midnightblue" d="M666.36,-705.11C685.79,-717.95 722.72,-740.05 758,-748.5 1027.74,-813.09 1113.47,-808.95 1382,-739.5 1421.14,-729.38 1462.14,-707.42 1489.39,-690.98"/>
<polygon fill="midnightblue" stroke="midnightblue" points="1491.39,-693.85 1498.08,-685.64 1487.72,-687.89 1491.39,-693.85"/>
</g>
<!-- Node5 -->
<g id="node5" class="node">
<title>Node5</title>
<g id="a_node5"><a xlink:href="classwmtk_1_1_mesh.html#a7f8a7b7d592fdbf672f2c6c9653487ea" target="_top" xlink:title=" ">
<polygon fill="none" stroke="black" points="793,-623.5 793,-653.5 907,-653.5 907,-623.5 793,-623.5"/>
<text text-anchor="start" x="801" y="-641.5" font-family="Helvetica,sans-Serif" font-size="10.00">wmtk::Mesh::switch</text>
<text text-anchor="middle" x="850" y="-630.5" font-family="Helvetica,sans-Serif" font-size="10.00">_tuples</text>
</a>
</g>
</g>
<!-- Node3&#45;&gt;Node5 -->
<g id="edge4" class="edge">
<title>Node3&#45;&gt;Node5</title>
<path fill="none" stroke="midnightblue" d="M685.39,-685.96C713.13,-677.91 753.6,-666.17 787.35,-656.38"/>
<polygon fill="midnightblue" stroke="midnightblue" points="788.5,-659.69 797.13,-653.55 786.55,-652.97 788.5,-659.69"/>
</g>
<!-- Node7 -->
<g id="node7" class="node">
<title>Node7</title>
<g id="a_node7"><a xlink:href="classwmtk_1_1simplex_1_1_simplex.html#a3650fd31ff1864285502dba66db3c73c" target="_top" xlink:title=" ">
<polygon fill="none" stroke="black" points="1222.5,-699.5 1222.5,-729.5 1357.5,-729.5 1357.5,-699.5 1222.5,-699.5"/>
<text text-anchor="start" x="1230.5" y="-717.5" font-family="Helvetica,sans-Serif" font-size="10.00">wmtk::simplex::Simplex</text>
<text text-anchor="middle" x="1290" y="-706.5" font-family="Helvetica,sans-Serif" font-size="10.00">::tuple</text>
</a>
</g>
</g>
<!-- Node3&#45;&gt;Node7 -->
<g id="edge12" class="edge">
<title>Node3&#45;&gt;Node7</title>
<path fill="none" stroke="midnightblue" d="M675.9,-705.07C696.96,-713.14 728.97,-724.07 758,-728.5 918.13,-752.96 1108.5,-737.26 1212.23,-725"/>
<polygon fill="midnightblue" stroke="midnightblue" points="1212.79,-728.46 1222.3,-723.79 1211.95,-721.51 1212.79,-728.46"/>
</g>
<!-- Node6 -->
<g id="node6" class="node">
<title>Node6</title>
<g id="a_node6"><a xlink:href="classwmtk_1_1_mesh.html#a58bdbbfa0cd7bd9263241f6501db182a" target="_top" xlink:title="check if a simplex lies on a boundary or not">
<polygon fill="none" stroke="black" points="999,-667 999,-686 1141,-686 1141,-667 999,-667"/>
<text text-anchor="middle" x="1070" y="-674" font-family="Helvetica,sans-Serif" font-size="10.00">wmtk::Mesh::is_boundary</text>
</a>
</g>
</g>
<!-- Node5&#45;&gt;Node6 -->
<g id="edge5" class="edge">
<title>Node5&#45;&gt;Node6</title>
<path fill="none" stroke="midnightblue" d="M907.14,-648.29C936.72,-653.44 973.16,-659.79 1003.97,-665.16"/>
<polygon fill="midnightblue" stroke="midnightblue" points="1003.73,-668.68 1014.18,-666.94 1004.93,-661.78 1003.73,-668.68"/>
</g>
<!-- Node8 -->
<g id="node8" class="node">
<title>Node8</title>
<g id="a_node8"><a xlink:href="classwmtk_1_1_mesh.html#a965a8a24158c4aa8580c57ba09f885f7" target="_top" xlink:title="switch the orientation of the Tuple of the given dimension">
<polygon fill="none" stroke="black" points="1013,-579.5 1013,-609.5 1127,-609.5 1127,-579.5 1013,-579.5"/>
<text text-anchor="start" x="1021" y="-597.5" font-family="Helvetica,sans-Serif" font-size="10.00">wmtk::Mesh::switch</text>
<text text-anchor="middle" x="1070" y="-586.5" font-family="Helvetica,sans-Serif" font-size="10.00">_tuple</text>
</a>
</g>
</g>
<!-- Node5&#45;&gt;Node8 -->
<g id="edge8" class="edge">
<title>Node5&#45;&gt;Node8</title>
<path fill="none" stroke="midnightblue" d="M907.14,-627.17C936.27,-621.29 972.04,-614.07 1002.55,-607.91"/>
<polygon fill="midnightblue" stroke="midnightblue" points="1003.56,-611.28 1012.67,-605.87 1002.18,-604.42 1003.56,-611.28"/>
</g>
<!-- Node9 -->
<g id="node9" class="node">
<title>Node9</title>
<g id="a_node9"><a xlink:href="classwmtk_1_1_mesh.html#a933f681cf24a63b155c9462280385200" target="_top" xlink:title=" ">
<polygon fill="none" stroke="black" points="1229.5,-595.5 1229.5,-625.5 1350.5,-625.5 1350.5,-595.5 1229.5,-595.5"/>
<text text-anchor="start" x="1237.5" y="-613.5" font-family="Helvetica,sans-Serif" font-size="10.00">wmtk::Mesh::top_cell</text>
<text text-anchor="middle" x="1290" y="-602.5" font-family="Helvetica,sans-Serif" font-size="10.00">_dimension</text>
</a>
</g>
</g>
<!-- Node5&#45;&gt;Node9 -->
<g id="edge9" class="edge">
<title>Node5&#45;&gt;Node9</title>
<path fill="none" stroke="midnightblue" d="M907.19,-635.23C969.49,-631.57 1072.94,-625.38 1162,-619.5 1180.52,-618.28 1200.55,-616.89 1219.11,-615.58"/>
<polygon fill="midnightblue" stroke="midnightblue" points="1219.52,-619.06 1229.25,-614.85 1219.02,-612.07 1219.52,-619.06"/>
</g>
<!-- Node5&#45;&gt;Node10 -->
<g id="edge10" class="edge">
<title>Node5&#45;&gt;Node10</title>
<path fill="none" stroke="midnightblue" d="M877.3,-623.3C919.62,-598.84 1002.3,-551.05 1043.87,-527.03"/>
<polygon fill="midnightblue" stroke="midnightblue" points="1045.65,-530.04 1052.56,-522 1042.15,-523.98 1045.65,-530.04"/>
</g>
<!-- Node6&#45;&gt;Node4 -->
<g id="edge6" class="edge">
<title>Node6&#45;&gt;Node4</title>
<path fill="none" stroke="midnightblue" d="M1141.31,-675.56C1223.62,-674.47 1359.45,-672.65 1444.38,-671.52"/>
<polygon fill="midnightblue" stroke="midnightblue" points="1444.53,-675.02 1454.48,-671.39 1444.43,-668.02 1444.53,-675.02"/>
</g>
<!-- Node6&#45;&gt;Node7 -->
<g id="edge7" class="edge">
<title>Node6&#45;&gt;Node7</title>
<path fill="none" stroke="midnightblue" d="M1125.73,-686.04C1151.9,-690.6 1183.68,-696.14 1212.23,-701.12"/>
<polygon fill="midnightblue" stroke="midnightblue" points="1211.72,-704.58 1222.17,-702.85 1212.92,-697.69 1211.72,-704.58"/>
</g>
<!-- Node10&#45;&gt;Node9 -->
<g id="edge11" class="edge">
<title>Node10&#45;&gt;Node9</title>
<path fill="none" stroke="midnightblue" d="M1092.3,-522.08C1127.88,-538.07 1200.07,-570.52 1246.4,-591.35"/>
<polygon fill="midnightblue" stroke="midnightblue" points="1245.03,-594.57 1255.59,-595.48 1247.9,-588.19 1245.03,-594.57"/>
</g>
<!-- Node12&#45;&gt;Node4 -->
<g id="edge17" class="edge">
<title>Node12&#45;&gt;Node4</title>
<path fill="none" stroke="midnightblue" d="M694.99,-584.99C809.4,-561.3 1132.17,-507 1382,-586.5 1424.67,-600.08 1467.89,-629.14 1494.56,-649.24"/>
<polygon fill="midnightblue" stroke="midnightblue" points="1492.55,-652.11 1502.62,-655.43 1496.81,-646.56 1492.55,-652.11"/>
</g>
<!-- Node12&#45;&gt;Node5 -->
<g id="edge19" class="edge">
<title>Node12&#45;&gt;Node5</title>
<path fill="none" stroke="midnightblue" d="M695.14,-604.05C720.68,-609.77 753.71,-617.16 782.61,-623.63"/>
<polygon fill="midnightblue" stroke="midnightblue" points="782.12,-627.11 792.64,-625.88 783.65,-620.28 782.12,-627.11"/>
</g>
<!-- Node12&#45;&gt;Node7 -->
<g id="edge20" class="edge">
<title>Node12&#45;&gt;Node7</title>
<path fill="none" stroke="midnightblue" d="M663.61,-604.17C681.9,-619.52 720.13,-649.17 758,-663.5 911.19,-721.48 1106.15,-723.69 1212.06,-719.51"/>
<polygon fill="midnightblue" stroke="midnightblue" points="1212.49,-723 1222.34,-719.08 1212.2,-716.01 1212.49,-723"/>
</g>
<!-- Node12&#45;&gt;Node8 -->
<g id="edge18" class="edge">
<title>Node12&#45;&gt;Node8</title>
<path fill="none" stroke="midnightblue" d="M718.96,-594.5C796.76,-594.5 924.87,-594.5 1002.64,-594.5"/>
<polygon fill="midnightblue" stroke="midnightblue" points="1002.8,-598 1012.8,-594.5 1002.8,-591 1002.8,-598"/>
</g>
<!-- Node13&#45;&gt;Node2 -->
<g id="edge24" class="edge">
<title>Node13&#45;&gt;Node2</title>
<path fill="none" stroke="midnightblue" d="M308.78,-397.16C344.19,-422.57 404.01,-465.5 439.83,-491.2"/>
<polygon fill="midnightblue" stroke="midnightblue" points="438.22,-494.36 448.39,-497.35 442.3,-488.67 438.22,-494.36"/>
</g>
<!-- Node14 -->
<g id="node14" class="node">
<title>Node14</title>
<g id="a_node14"><a xlink:href="classwmtk_1_1simplex_1_1_simplex.html#a2b9d969f3c7b1d746abc29d228f91328" target="_top" xlink:title=" ">
<polygon fill="none" stroke="black" points="403,-339.5 403,-369.5 538,-369.5 538,-339.5 403,-339.5"/>
<text text-anchor="start" x="411" y="-357.5" font-family="Helvetica,sans-Serif" font-size="10.00">wmtk::simplex::Simplex</text>
<text text-anchor="middle" x="470.5" y="-346.5" font-family="Helvetica,sans-Serif" font-size="10.00">::face</text>
</a>
</g>
</g>
<!-- Node13&#45;&gt;Node14 -->
<g id="edge22" class="edge">
<title>Node13&#45;&gt;Node14</title>
<path fill="none" stroke="midnightblue" d="M360.09,-367.2C370.88,-365.95 381.94,-364.67 392.67,-363.42"/>
<polygon fill="midnightblue" stroke="midnightblue" points="393.32,-366.87 402.85,-362.24 392.51,-359.91 393.32,-366.87"/>
</g>
<!-- Node16 -->
<g id="node16" class="node">
<title>Node16</title>
<g id="a_node16"><a xlink:href="namespacewmtk_1_1simplex.html#a3260444c136dbe145679b762c52f6a16" target="_top" xlink:title=" ">
<polygon fill="none" stroke="black" points="414,-389 414,-408 527,-408 527,-389 414,-389"/>
<text text-anchor="middle" x="470.5" y="-396" font-family="Helvetica,sans-Serif" font-size="10.00">wmtk::simplex::link</text>
</a>
</g>
</g>
<!-- Node13&#45;&gt;Node16 -->
<g id="edge25" class="edge">
<title>Node13&#45;&gt;Node16</title>
<path fill="none" stroke="midnightblue" d="M360.09,-385.8C374.64,-387.49 389.66,-389.23 403.74,-390.87"/>
<polygon fill="midnightblue" stroke="midnightblue" points="403.47,-394.36 413.8,-392.03 404.27,-387.4 403.47,-394.36"/>
</g>
<!-- Node27 -->
<g id="node27" class="node">
<title>Node27</title>
<g id="a_node27"><a xlink:href="classwmtk_1_1simplex_1_1_simplex_collection.html#a50c54839e34c7b0df73b509fb1199128" target="_top" xlink:title="Return const reference to the simplex vector.">
<polygon fill="none" stroke="black" points="978,-453.5 978,-483.5 1162,-483.5 1162,-453.5 978,-453.5"/>
<text text-anchor="start" x="986" y="-471.5" font-family="Helvetica,sans-Serif" font-size="10.00">wmtk::simplex::SimplexCollection</text>
<text text-anchor="middle" x="1070" y="-460.5" font-family="Helvetica,sans-Serif" font-size="10.00">::simplex_vector</text>
</a>
</g>
</g>
<!-- Node13&#45;&gt;Node27 -->
<g id="edge56" class="edge">
<title>Node13&#45;&gt;Node27</title>
<path fill="none" stroke="midnightblue" d="M329.13,-397.1C349.48,-404.78 373.53,-412.77 396,-417.5 595.61,-459.56 834.96,-468 967.7,-469.1"/>
<polygon fill="midnightblue" stroke="midnightblue" points="967.83,-472.6 977.85,-469.17 967.88,-465.6 967.83,-472.6"/>
</g>
<!-- Node13&#45;&gt;Node34 -->
<g id="edge55" class="edge">
<title>Node13&#45;&gt;Node34</title>
<path fill="none" stroke="midnightblue" d="M310.07,-355.94C325.43,-345.04 344.17,-331.12 360,-317.5 377.15,-302.74 376.79,-293.45 396,-281.5 399.32,-279.44 402.82,-277.52 406.44,-275.74"/>
<polygon fill="midnightblue" stroke="midnightblue" points="407.91,-278.92 415.59,-271.61 405.03,-272.54 407.91,-278.92"/>
</g>
<!-- Node35 -->
<g id="node35" class="node">
<title>Node35</title>
<g id="a_node35"><a xlink:href="classwmtk_1_1simplex_1_1_simplex.html#a7de67a391b9f48b57f4ecb4c412ccaee" target="_top" xlink:title=" ">
<polygon fill="none" stroke="black" points="403,-290.5 403,-320.5 538,-320.5 538,-290.5 403,-290.5"/>
<text text-anchor="start" x="411" y="-308.5" font-family="Helvetica,sans-Serif" font-size="10.00">wmtk::simplex::Simplex</text>
<text text-anchor="middle" x="470.5" y="-297.5" font-family="Helvetica,sans-Serif" font-size="10.00">::vertex</text>
</a>
</g>
</g>
<!-- Node13&#45;&gt;Node35 -->
<g id="edge57" class="edge">
<title>Node13&#45;&gt;Node35</title>
<path fill="none" stroke="midnightblue" d="M330.32,-355.91C350.63,-347.77 374.35,-338.47 396,-330.5 401.89,-328.33 408.08,-326.12 414.25,-323.96"/>
<polygon fill="midnightblue" stroke="midnightblue" points="415.59,-327.2 423.89,-320.62 413.3,-320.59 415.59,-327.2"/>
</g>
<!-- Node15 -->
<g id="node15" class="node">
<title>Node15</title>
<g id="a_node15"><a xlink:href="classwmtk_1_1simplex_1_1_simplex.html#ab6d51ca0c220792c1c09824d152bb53a" target="_top" xlink:title=" ">
<polygon fill="none" stroke="black" points="584,-191.5 584,-221.5 719,-221.5 719,-191.5 584,-191.5"/>
<text text-anchor="start" x="592" y="-209.5" font-family="Helvetica,sans-Serif" font-size="10.00">wmtk::simplex::Simplex</text>
<text text-anchor="middle" x="651.5" y="-198.5" font-family="Helvetica,sans-Serif" font-size="10.00">::Simplex</text>
</a>
</g>
</g>
<!-- Node14&#45;&gt;Node15 -->
<g id="edge23" class="edge">
<title>Node14&#45;&gt;Node15</title>
<path fill="none" stroke="midnightblue" d="M533,-339.44C537.36,-336.91 541.43,-333.95 545,-330.5 578.65,-297.95 547.84,-264.55 581,-231.5 582.46,-230.04 584.02,-228.67 585.65,-227.37"/>
<polygon fill="midnightblue" stroke="midnightblue" points="587.98,-230.02 594.34,-221.54 584.08,-224.21 587.98,-230.02"/>
</g>
<!-- Node16&#45;&gt;Node10 -->
<g id="edge54" class="edge">
<title>Node16&#45;&gt;Node10</title>
<path fill="none" stroke="midnightblue" d="M521.41,-408.02C630.7,-428.87 890.79,-478.5 1008.85,-501.02"/>
<polygon fill="midnightblue" stroke="midnightblue" points="1008.33,-504.49 1018.81,-502.92 1009.64,-497.61 1008.33,-504.49"/>
</g>
<!-- Node17 -->
<g id="node17" class="node">
<title>Node17</title>
<g id="a_node17"><a xlink:href="namespacewmtk_1_1simplex.html#a50d0026adbac4883ab00460ada1c1cfe" target="_top" xlink:title=" ">
<polygon fill="none" stroke="black" points="581,-241 581,-260 722,-260 722,-241 581,-241"/>
<text text-anchor="middle" x="651.5" y="-248" font-family="Helvetica,sans-Serif" font-size="10.00">wmtk::simplex::link_slow</text>
</a>
</g>
</g>
<!-- Node16&#45;&gt;Node17 -->
<g id="edge26" class="edge">
<title>Node16&#45;&gt;Node17</title>
<path fill="none" stroke="midnightblue" d="M527.18,-390.56C533.72,-387.84 539.87,-384.24 545,-379.5 581.21,-345.99 546.15,-309.42 581,-274.5 584.94,-270.55 589.57,-267.24 594.53,-264.48"/>
<polygon fill="midnightblue" stroke="midnightblue" points="596.23,-267.55 603.74,-260.08 593.21,-261.24 596.23,-267.55"/>
</g>
<!-- Node17&#45;&gt;Node11 -->
<g id="edge49" class="edge">
<title>Node17&#45;&gt;Node11</title>
<path fill="none" stroke="midnightblue" d="M686.19,-240.9C745.23,-224.13 871.26,-188.49 978,-159.5 992.34,-155.61 1007.97,-151.45 1022.17,-147.71"/>
<polygon fill="midnightblue" stroke="midnightblue" points="1023.43,-151 1032.22,-145.07 1021.66,-144.23 1023.43,-151"/>
</g>
<!-- Node18 -->
<g id="node18" class="node">
<title>Node18</title>
<g id="a_node18"><a xlink:href="classwmtk_1_1simplex_1_1_simplex_collection.html#a1e7079b3b75f70dd28c524556cab76cf" target="_top" xlink:title="Add simplex to the collection.">
<polygon fill="none" stroke="black" points="1418,-153 1418,-172 1626,-172 1626,-153 1418,-153"/>
<text text-anchor="middle" x="1522" y="-160" font-family="Helvetica,sans-Serif" font-size="10.00">wmtk::simplex::SimplexCollection::add</text>
</a>
</g>
</g>
<!-- Node17&#45;&gt;Node18 -->
<g id="edge27" class="edge">
<title>Node17&#45;&gt;Node18</title>
<path fill="none" stroke="midnightblue" d="M706.69,-240.84C712.33,-238.18 717.59,-234.79 722,-230.5 760.05,-193.41 716.39,-149.54 758,-116.5 867.73,-29.39 1315.51,-117.27 1469.05,-150.74"/>
<polygon fill="midnightblue" stroke="midnightblue" points="1468.64,-154.23 1479.16,-152.95 1470.14,-147.39 1468.64,-154.23"/>
</g>
<!-- Node19 -->
<g id="node19" class="node">
<title>Node19</title>
<g id="a_node19"><a xlink:href="namespacewmtk_1_1simplex.html#a2ed8f83fbda4dc05306bfe8d2ce7ab94" target="_top" xlink:title="The closed star contains the input simplex, all its top dimension cofaces, and their faces.">
<polygon fill="none" stroke="black" points="774.5,-317 774.5,-336 925.5,-336 925.5,-317 774.5,-317"/>
<text text-anchor="middle" x="850" y="-324" font-family="Helvetica,sans-Serif" font-size="10.00">wmtk::simplex::closed_star</text>
</a>
</g>
</g>
<!-- Node17&#45;&gt;Node19 -->
<g id="edge28" class="edge">
<title>Node17&#45;&gt;Node19</title>
<path fill="none" stroke="midnightblue" d="M677.39,-260.13C712.23,-273.6 775.68,-298.14 814.9,-313.31"/>
<polygon fill="midnightblue" stroke="midnightblue" points="813.73,-316.61 824.32,-316.95 816.25,-310.08 813.73,-316.61"/>
</g>
<!-- Node17&#45;&gt;Node27 -->
<g id="edge52" class="edge">
<title>Node17&#45;&gt;Node27</title>
<path fill="none" stroke="midnightblue" d="M660.96,-260.01C677.85,-278.55 717.61,-319.91 758,-345.5 832.89,-392.94 860.6,-387.38 942,-422.5 958.08,-429.44 961.67,-432.2 978,-438.5 988.34,-442.49 999.46,-446.43 1010.25,-450.09"/>
<polygon fill="midnightblue" stroke="midnightblue" points="1009.45,-453.51 1020.04,-453.35 1011.66,-446.87 1009.45,-453.51"/>
</g>
<!-- Node28 -->
<g id="node28" class="node">
<title>Node28</title>
<g id="a_node28"><a xlink:href="classwmtk_1_1simplex_1_1_simplex_collection.html#ab318c99d54327383ff1b985bed043f3a" target="_top" xlink:title="Sort simplex vector and remove duplicates.">
<polygon fill="none" stroke="black" points="1198,-191.5 1198,-221.5 1382,-221.5 1382,-191.5 1198,-191.5"/>
<text text-anchor="start" x="1206" y="-209.5" font-family="Helvetica,sans-Serif" font-size="10.00">wmtk::simplex::SimplexCollection</text>
<text text-anchor="middle" x="1290" y="-198.5" font-family="Helvetica,sans-Serif" font-size="10.00">::sort_and_clean</text>
</a>
</g>
</g>
<!-- Node17&#45;&gt;Node28 -->
<g id="edge53" class="edge">
<title>Node17&#45;&gt;Node28</title>
<path fill="none" stroke="midnightblue" d="M703.33,-240.87C710.01,-238.21 716.46,-234.82 722,-230.5 747.12,-210.9 732.41,-187.49 758,-168.5 838.68,-108.63 878.2,-128.13 978,-116.5 1059.23,-107.03 1084.08,-91.69 1162,-116.5 1203.64,-129.76 1243.35,-162.18 1266.96,-184.27"/>
<polygon fill="midnightblue" stroke="midnightblue" points="1264.68,-186.93 1274.32,-191.32 1269.52,-181.87 1264.68,-186.93"/>
</g>
<!-- Node32 -->
<g id="node32" class="node">
<title>Node32</title>
<g id="a_node32"><a xlink:href="classwmtk_1_1simplex_1_1_simplex_collection.html#a592a38f5119ed654001d88d032bcea9c" target="_top" xlink:title="Get intersection of two simplex collections.">
<polygon fill="none" stroke="black" points="758,-0.5 758,-30.5 942,-30.5 942,-0.5 758,-0.5"/>
<text text-anchor="start" x="766" y="-18.5" font-family="Helvetica,sans-Serif" font-size="10.00">wmtk::simplex::SimplexCollection</text>
<text text-anchor="middle" x="850" y="-7.5" font-family="Helvetica,sans-Serif" font-size="10.00">::get_intersection</text>
</a>
</g>
</g>
<!-- Node17&#45;&gt;Node32 -->
<g id="edge50" class="edge">
<title>Node17&#45;&gt;Node32</title>
<path fill="none" stroke="midnightblue" d="M707.86,-240.98C713.15,-238.28 718.01,-234.85 722,-230.5 778.57,-168.72 702.62,-108.35 758,-45.5 761.12,-41.96 764.66,-38.84 768.49,-36.09"/>
<polygon fill="midnightblue" stroke="midnightblue" points="770.64,-38.87 777.3,-30.63 766.95,-32.92 770.64,-38.87"/>
</g>
<!-- Node19&#45;&gt;Node7 -->
<g id="edge48" class="edge">
<title>Node19&#45;&gt;Node7</title>
<path fill="none" stroke="midnightblue" d="M925.6,-333.21C931.4,-335.38 936.95,-338.1 942,-341.5 967.47,-358.67 953.16,-382.43 978,-400.5 1046,-449.96 1104,-383.62 1162,-444.5 1221.59,-507.04 1155,-560.58 1198,-635.5 1211.7,-659.37 1235.35,-679.56 1255.1,-693.56"/>
<polygon fill="midnightblue" stroke="midnightblue" points="1253.34,-696.6 1263.57,-699.36 1257.29,-690.82 1253.34,-696.6"/>
</g>
<!-- Node19&#45;&gt;Node10 -->
<g id="edge47" class="edge">
<title>Node19&#45;&gt;Node10</title>
<path fill="none" stroke="midnightblue" d="M857.18,-336.37C877.82,-369.01 944.89,-472.59 978,-493.5 981.36,-495.62 984.91,-497.51 988.59,-499.19"/>
<polygon fill="midnightblue" stroke="midnightblue" points="987.38,-502.47 997.96,-502.96 989.99,-495.98 987.38,-502.47"/>
</g>
<!-- Node19&#45;&gt;Node11 -->
<g id="edge30" class="edge">
<title>Node19&#45;&gt;Node11</title>
<path fill="none" stroke="midnightblue" d="M919.97,-316.97C928.16,-313.47 935.8,-308.77 942,-302.5 988.08,-255.9 931.92,-206.1 978,-159.5 984.03,-153.4 991.41,-148.8 999.33,-145.33"/>
<polygon fill="midnightblue" stroke="midnightblue" points="1000.71,-148.55 1008.84,-141.76 998.24,-142 1000.71,-148.55"/>
</g>
<!-- Node19&#45;&gt;Node18 -->
<g id="edge29" class="edge">
<title>Node19&#45;&gt;Node18</title>
<path fill="none" stroke="midnightblue" d="M919.19,-316.83C927.6,-313.36 935.5,-308.71 942,-302.5 980.72,-265.5 935.58,-220.2 978,-187.5 1011.11,-161.98 1258.49,-159.81 1407.69,-160.89"/>
<polygon fill="midnightblue" stroke="midnightblue" points="1407.78,-164.39 1417.81,-160.97 1407.84,-157.39 1407.78,-164.39"/>
</g>
<!-- Node20 -->
<g id="node20" class="node">
<title>Node20</title>
<g id="a_node20"><a xlink:href="classwmtk_1_1_mesh.html#a8cc8686f0688613806f43720b6db49e7" target="_top" xlink:title="check validity of tuple including its hash">
<polygon fill="none" stroke="black" points="1010,-339 1010,-358 1130,-358 1130,-339 1010,-339"/>
<text text-anchor="middle" x="1070" y="-346" font-family="Helvetica,sans-Serif" font-size="10.00">wmtk::Mesh::is_valid</text>
</a>
</g>
</g>
<!-- Node19&#45;&gt;Node20 -->
<g id="edge31" class="edge">
<title>Node19&#45;&gt;Node20</title>
<path fill="none" stroke="midnightblue" d="M925.72,-334.04C949.66,-336.46 976.06,-339.12 999.61,-341.5"/>
<polygon fill="midnightblue" stroke="midnightblue" points="999.55,-345.01 1009.86,-342.53 1000.26,-338.04 999.55,-345.01"/>
</g>
<!-- Node23 -->
<g id="node23" class="node">
<title>Node23</title>
<g id="a_node23"><a xlink:href="namespacewmtk.html#a441d6ad4f19569c7d4946e743da1a925" target="_top" xlink:title=" ">
<polygon fill="none" stroke="black" points="1461,-349.5 1461,-379.5 1583,-379.5 1583,-349.5 1461,-349.5"/>
<text text-anchor="start" x="1469" y="-367.5" font-family="Helvetica,sans-Serif" font-size="10.00">wmtk::log_and_throw</text>
<text text-anchor="middle" x="1522" y="-356.5" font-family="Helvetica,sans-Serif" font-size="10.00">_error</text>
</a>
</g>
</g>
<!-- Node19&#45;&gt;Node23 -->
<g id="edge34" class="edge">
<title>Node19&#45;&gt;Node23</title>
<path fill="none" stroke="midnightblue" d="M925.79,-335.92C931.37,-337.5 936.83,-339.35 942,-341.5 960.22,-349.08 959.81,-359.85 978,-367.5 989.43,-372.31 1185.64,-404.44 1198,-405.5 1279.48,-412.49 1301.06,-417.19 1382,-405.5 1412.36,-401.12 1445.33,-391.61 1471.54,-382.85"/>
<polygon fill="midnightblue" stroke="midnightblue" points="1472.9,-386.09 1481.23,-379.54 1470.64,-379.46 1472.9,-386.09"/>
</g>
<!-- Node26 -->
<g id="node26" class="node">
<title>Node26</title>
<g id="a_node26"><a xlink:href="classwmtk_1_1simplex_1_1_simplex_collection.html#a1973c83eede96b64f422049c6fc52976" target="_top" xlink:title=" ">
<polygon fill="none" stroke="black" points="978,-240.5 978,-270.5 1162,-270.5 1162,-240.5 978,-240.5"/>
<text text-anchor="start" x="986" y="-258.5" font-family="Helvetica,sans-Serif" font-size="10.00">wmtk::simplex::SimplexCollection</text>
<text text-anchor="middle" x="1070" y="-247.5" font-family="Helvetica,sans-Serif" font-size="10.00">::reserve</text>
</a>
</g>
</g>
<!-- Node19&#45;&gt;Node26 -->
<g id="edge37" class="edge">
<title>Node19&#45;&gt;Node26</title>
<path fill="none" stroke="midnightblue" d="M897.7,-316.95C912.19,-313.26 928.02,-308.46 942,-302.5 959.25,-295.14 960.79,-287.95 978,-280.5 983.49,-278.12 989.27,-275.92 995.13,-273.88"/>
<polygon fill="midnightblue" stroke="midnightblue" points="996.66,-277.06 1005.06,-270.61 994.47,-270.41 996.66,-277.06"/>
</g>
<!-- Node19&#45;&gt;Node27 -->
<g id="edge38" class="edge">
<title>Node19&#45;&gt;Node27</title>
<path fill="none" stroke="midnightblue" d="M874.85,-336.04C894.61,-344.84 922.5,-359.41 942,-378.5 964.22,-400.25 953.71,-419.08 978,-438.5 983.03,-442.52 988.62,-446.01 994.49,-449.04"/>
<polygon fill="midnightblue" stroke="midnightblue" points="993.35,-452.37 1003.89,-453.43 996.31,-446.03 993.35,-452.37"/>
</g>
<!-- Node19&#45;&gt;Node28 -->
<g id="edge39" class="edge">
<title>Node19&#45;&gt;Node28</title>
<path fill="none" stroke="midnightblue" d="M915.5,-316.88C925.05,-313.44 934.27,-308.79 942,-302.5 969.76,-279.93 948.31,-250.47 978,-230.5 1040.19,-188.67 1126.03,-185.06 1191.77,-190.56"/>
<polygon fill="midnightblue" stroke="midnightblue" points="1191.46,-194.05 1201.74,-191.48 1192.1,-187.07 1191.46,-194.05"/>
</g>
<!-- Node29 -->
<g id="node29" class="node">
<title>Node29</title>
<g id="a_node29"><a xlink:href="namespacewmtk_1_1simplex.html#a87de7137d8d21f1643dd604d73e8f765" target="_top" xlink:title="Get all top dimension cofaces of the given simplex.">
<polygon fill="none" stroke="black" points="1012,-289.5 1012,-319.5 1128,-319.5 1128,-289.5 1012,-289.5"/>
<text text-anchor="start" x="1020" y="-307.5" font-family="Helvetica,sans-Serif" font-size="10.00">wmtk::simplex::top</text>
<text text-anchor="middle" x="1070" y="-296.5" font-family="Helvetica,sans-Serif" font-size="10.00">_dimension_cofaces</text>
</a>
</g>
</g>
<!-- Node19&#45;&gt;Node29 -->
<g id="edge40" class="edge">
<title>Node19&#45;&gt;Node29</title>
<path fill="none" stroke="midnightblue" d="M925.72,-318.96C950.42,-316.47 977.73,-313.71 1001.82,-311.28"/>
<polygon fill="midnightblue" stroke="midnightblue" points="1002.34,-314.75 1011.94,-310.26 1001.64,-307.78 1002.34,-314.75"/>
</g>
<!-- Node21 -->
<g id="node21" class="node">
<title>Node21</title>
<g id="a_node21"><a xlink:href="classwmtk_1_1_tuple.html#a0023f575be92cd5ceeeaaaa3762ea06d" target="_top" xlink:title="Checks if a tuple is &quot;null&quot;. This merely implies the global index is &#45;1.">
<polygon fill="none" stroke="black" points="1233.5,-377 1233.5,-396 1346.5,-396 1346.5,-377 1233.5,-377"/>
<text text-anchor="middle" x="1290" y="-384" font-family="Helvetica,sans-Serif" font-size="10.00">wmtk::Tuple::is_null</text>
</a>
</g>
</g>
<!-- Node20&#45;&gt;Node21 -->
<g id="edge32" class="edge">
<title>Node20&#45;&gt;Node21</title>
<path fill="none" stroke="midnightblue" d="M1125.73,-358.04C1155.66,-363.26 1192.92,-369.75 1224.29,-375.22"/>
<polygon fill="midnightblue" stroke="midnightblue" points="1223.8,-378.69 1234.25,-376.96 1225,-371.79 1223.8,-378.69"/>
</g>
<!-- Node22 -->
<g id="node22" class="node">
<title>Node22</title>
<g id="a_node22"><a xlink:href="classwmtk_1_1_mesh.html#ade176d345902d97af8c5da04aa3a095b" target="_top" xlink:title=" ">
<polygon fill="none" stroke="black" points="1220,-339 1220,-358 1360,-358 1360,-339 1220,-339"/>
<text text-anchor="middle" x="1290" y="-346" font-family="Helvetica,sans-Serif" font-size="10.00">wmtk::Mesh::is_removed</text>
</a>
</g>
</g>
<!-- Node20&#45;&gt;Node22 -->
<g id="edge33" class="edge">
<title>Node20&#45;&gt;Node22</title>
<path fill="none" stroke="midnightblue" d="M1130.28,-348.5C1154.66,-348.5 1183.26,-348.5 1209.41,-348.5"/>
<polygon fill="midnightblue" stroke="midnightblue" points="1209.68,-352 1219.68,-348.5 1209.68,-345 1209.68,-352"/>
</g>
<!-- Node24 -->
<g id="node24" class="node">
<title>Node24</title>
<g id="a_node24"><a xlink:href="namespacewmtk.html#a6a35f11c12436093d26fdd8be6fecc06" target="_top" xlink:title="Retrieves the current logger.">
<polygon fill="none" stroke="black" points="1662,-355 1662,-374 1743,-374 1743,-355 1662,-355"/>
<text text-anchor="middle" x="1702.5" y="-362" font-family="Helvetica,sans-Serif" font-size="10.00">wmtk::logger</text>
</a>
</g>
</g>
<!-- Node23&#45;&gt;Node24 -->
<g id="edge35" class="edge">
<title>Node23&#45;&gt;Node24</title>
<path fill="none" stroke="midnightblue" d="M1583.43,-364.5C1605.68,-364.5 1630.61,-364.5 1651.81,-364.5"/>
<polygon fill="midnightblue" stroke="midnightblue" points="1651.89,-368 1661.89,-364.5 1651.89,-361 1651.89,-368"/>
</g>
<!-- Node25 -->
<g id="node25" class="node">
<title>Node25</title>
<g id="a_node25"><a xlink:href="namespacewmtk.html#a3daa7951a5f8b78cf4600dc047fcc180" target="_top" xlink:title="Setup a logger object to be used by WildmeshToolkit.">
<polygon fill="none" stroke="black" points="1779,-355 1779,-374 1880,-374 1880,-355 1779,-355"/>
<text text-anchor="middle" x="1829.5" y="-362" font-family="Helvetica,sans-Serif" font-size="10.00">wmtk::set_logger</text>
</a>
</g>
</g>
<!-- Node24&#45;&gt;Node25 -->
<g id="edge36" class="edge">
<title>Node24&#45;&gt;Node25</title>
<path fill="none" stroke="midnightblue" d="M1743.05,-364.5C1751.17,-364.5 1759.9,-364.5 1768.55,-364.5"/>
<polygon fill="midnightblue" stroke="midnightblue" points="1768.65,-368 1778.65,-364.5 1768.65,-361 1768.65,-368"/>
</g>
<!-- Node29&#45;&gt;Node28 -->
<g id="edge42" class="edge">
<title>Node29&#45;&gt;Node28</title>
<path fill="none" stroke="midnightblue" d="M1128,-295.88C1139.91,-292.38 1151.9,-287.44 1162,-280.5 1184.56,-264.99 1175.44,-246.01 1198,-230.5 1200.26,-228.95 1202.61,-227.5 1205.03,-226.14"/>
<polygon fill="midnightblue" stroke="midnightblue" points="1206.7,-229.22 1214.09,-221.62 1203.58,-222.95 1206.7,-229.22"/>
</g>
<!-- Node30 -->
<g id="node30" class="node">
<title>Node30</title>
<g id="a_node30"><a xlink:href="classwmtk_1_1simplex_1_1_simplex_collection.html#a0d0c1765c4ed8ffd0f163661111bfb08" target="_top" xlink:title=" ">
<polygon fill="none" stroke="black" points="1198,-240.5 1198,-270.5 1382,-270.5 1382,-240.5 1198,-240.5"/>
<text text-anchor="start" x="1206" y="-258.5" font-family="Helvetica,sans-Serif" font-size="10.00">wmtk::simplex::SimplexCollection</text>
<text text-anchor="middle" x="1290" y="-247.5" font-family="Helvetica,sans-Serif" font-size="10.00">::mesh</text>
</a>
</g>
</g>
<!-- Node29&#45;&gt;Node30 -->
<g id="edge41" class="edge">
<title>Node29&#45;&gt;Node30</title>
<path fill="none" stroke="midnightblue" d="M1128.28,-291.63C1153.89,-285.87 1184.47,-278.99 1212.05,-272.8"/>
<polygon fill="midnightblue" stroke="midnightblue" points="1213.07,-276.16 1222.06,-270.55 1211.53,-269.33 1213.07,-276.16"/>
</g>
<!-- Node31 -->
<g id="node31" class="node">
<title>Node31</title>
<g id="a_node31"><a xlink:href="namespacewmtk_1_1simplex.html#a0101f27eb2ad82814390b92ab1a4d1a0" target="_top" xlink:title=" ">
<polygon fill="none" stroke="black" points="1214.5,-289.5 1214.5,-319.5 1365.5,-319.5 1365.5,-289.5 1214.5,-289.5"/>
<text text-anchor="start" x="1222.5" y="-307.5" font-family="Helvetica,sans-Serif" font-size="10.00">wmtk::simplex::top</text>
<text text-anchor="middle" x="1290" y="-296.5" font-family="Helvetica,sans-Serif" font-size="10.00">_dimension_cofaces_tuples</text>
</a>
</g>
</g>
<!-- Node29&#45;&gt;Node31 -->
<g id="edge43" class="edge">
<title>Node29&#45;&gt;Node31</title>
<path fill="none" stroke="midnightblue" d="M1128.28,-304.5C1151.55,-304.5 1178.93,-304.5 1204.42,-304.5"/>
<polygon fill="midnightblue" stroke="midnightblue" points="1204.46,-308 1214.46,-304.5 1204.46,-301 1204.46,-308"/>
</g>
<!-- Node31&#45;&gt;Node4 -->
<g id="edge46" class="edge">
<title>Node31&#45;&gt;Node4</title>
<path fill="none" stroke="midnightblue" d="M1365.56,-318.57C1371.51,-321.55 1377.1,-325.15 1382,-329.5 1407.34,-352 1486.06,-571.14 1512.35,-645.76"/>
<polygon fill="midnightblue" stroke="midnightblue" points="1509.08,-647.03 1515.7,-655.3 1515.69,-644.7 1509.08,-647.03"/>
</g>
<!-- Node31&#45;&gt;Node18 -->
<g id="edge44" class="edge">
<title>Node31&#45;&gt;Node18</title>
<path fill="none" stroke="midnightblue" d="M1361.27,-289.4C1368.44,-286.85 1375.48,-283.9 1382,-280.5 1433.16,-253.81 1481.93,-205.31 1505.78,-179.58"/>
<polygon fill="midnightblue" stroke="midnightblue" points="1508.47,-181.83 1512.62,-172.09 1503.3,-177.12 1508.47,-181.83"/>
</g>
<!-- Node31&#45;&gt;Node23 -->
<g id="edge45" class="edge">
<title>Node31&#45;&gt;Node23</title>
<path fill="none" stroke="midnightblue" d="M1348.74,-319.56C1380.46,-327.84 1419.97,-338.15 1453.16,-346.8"/>
<polygon fill="midnightblue" stroke="midnightblue" points="1452.67,-350.29 1463.23,-349.43 1454.44,-343.52 1452.67,-350.29"/>
</g>
<!-- Node33 -->
<g id="node33" class="node">
<title>Node33</title>
<g id="a_node33"><a xlink:href="namespacewmtk_1_1components.html#ad12cb27f259bc36dae03ccf73a88087f" target="_top" xlink:title=" ">
<polygon fill="none" stroke="black" points="1004.5,-0.5 1004.5,-30.5 1135.5,-30.5 1135.5,-0.5 1004.5,-0.5"/>
<text text-anchor="start" x="1012.5" y="-18.5" font-family="Helvetica,sans-Serif" font-size="10.00">wmtk::components::set</text>
<text text-anchor="middle" x="1070" y="-7.5" font-family="Helvetica,sans-Serif" font-size="10.00">_intersection</text>
</a>
</g>
</g>
<!-- Node32&#45;&gt;Node33 -->
<g id="edge51" class="edge">
<title>Node32&#45;&gt;Node33</title>
<path fill="none" stroke="midnightblue" d="M942.19,-15.5C959.48,-15.5 977.39,-15.5 994.11,-15.5"/>
<polygon fill="midnightblue" stroke="midnightblue" points="994.35,-19 1004.35,-15.5 994.35,-12 994.35,-19"/>
</g>
<!-- Node35&#45;&gt;Node15 -->
<g id="edge58" class="edge">
<title>Node35&#45;&gt;Node15</title>
<path fill="none" stroke="midnightblue" d="M529.8,-290.38C535.17,-287.85 540.34,-284.91 545,-281.5 567.11,-265.34 559.14,-247.99 581,-231.5 583.48,-229.63 586.11,-227.89 588.85,-226.27"/>
<polygon fill="midnightblue" stroke="midnightblue" points="590.65,-229.28 597.86,-221.51 587.39,-223.09 590.65,-229.28"/>
</g>
</g>
</svg>
