<?xml version="1.0" encoding="UTF-8" standalone="no"?>
<!DOCTYPE svg PUBLIC "-//W3C//DTD SVG 1.1//EN"
 "http://www.w3.org/Graphics/SVG/1.1/DTD/svg11.dtd">
<!-- Generated by graphviz version 2.43.0 (0)
 -->
<!-- Title: wmtk::operations::utils::UpdateEdgeOperationMultiMeshMapFunctor::operator() Pages: 1 -->
<!--zoomable 576 -->
<svg id="main" version="1.1" xmlns="http://www.w3.org/2000/svg" xmlns:xlink="http://www.w3.org/1999/xlink" xml:space="preserve" onload="init(evt)">
<style type="text/css"><![CDATA[
.edge:hover path { stroke: red; }
.edge:hover polygon { stroke: red; fill: red; }
]]></style>
<script type="text/javascript"><![CDATA[
var edges = document.getElementsByTagName('g');
if (edges && edges.length) {
  for (var i=0;i<edges.length;i++) {
    if (edges[i].id.substr(0,4)=='edge') {
      edges[i].setAttribute('class','edge');
    }
  }
}
]]></script>
        <defs>
                <circle id="rim" cx="0" cy="0" r="7"/>
                <circle id="rim2" cx="0" cy="0" r="3.5"/>
                <g id="zoomPlus">
                        <use xlink:href="#rim" fill="#404040">
                                <set attributeName="fill" to="#808080" begin="zoomplus.mouseover" end="zoomplus.mouseout"/>
                        </use>
                        <path d="M-4,0h8M0,-4v8" fill="none" stroke="white" stroke-width="1.5" pointer-events="none"/>
                </g>
                <g id="zoomMin">
                        <use xlink:href="#rim" fill="#404040">
                                <set attributeName="fill" to="#808080" begin="zoomminus.mouseover" end="zoomminus.mouseout"/>
                        </use>
                        <path d="M-4,0h8" fill="none" stroke="white" stroke-width="1.5" pointer-events="none"/>
                </g>
                <g id="dirArrow">
                        <path fill="none" stroke="white" stroke-width="1.5" d="M0,-3.0v7 M-2.5,-0.5L0,-3.0L2.5,-0.5"/>
                </g>
               <g id="resetDef">
                       <use xlink:href="#rim2" fill="#404040">
                               <set attributeName="fill" to="#808080" begin="reset.mouseover" end="reset.mouseout"/>
                       </use>
               </g>
        </defs>

<script type="text/javascript">
var viewWidth = 1381;
var viewHeight = 576;
var sectionId = 'dynsection-4';
</script>
<script xlink:href="svgpan.js"/>
<svg id="graph" class="graph">
<g id="viewport">
<title>wmtk::operations::utils::UpdateEdgeOperationMultiMeshMapFunctor::operator()</title>
<!-- Node1 -->
<g id="node1" class="node">
<title>Node1</title>
<g id="a_node1"><a xlink:title=" ">
<polygon fill="#bfbfbf" stroke="black" points="0,-305 0,-346 181,-346 181,-305 0,-305"/>
<text text-anchor="start" x="8" y="-334" font-family="Helvetica,sans-Serif" font-size="10.00">wmtk::operations::utils</text>
<text text-anchor="start" x="8" y="-323" font-family="Helvetica,sans-Serif" font-size="10.00">::UpdateEdgeOperationMultiMesh</text>
<text text-anchor="middle" x="90.5" y="-312" font-family="Helvetica,sans-Serif" font-size="10.00">MapFunctor::operator()</text>
</a>
</g>
</g>
<!-- Node2 -->
<g id="node2" class="node">
<title>Node2</title>
<g id="a_node2"><a xlink:href="classwmtk_1_1_mesh.html#aa46034e33f1e4f5e91e721df5685fb11" target="_top" xlink:title=" ">
<polygon fill="none" stroke="black" points="1039.5,-512.5 1039.5,-542.5 1152.5,-542.5 1152.5,-512.5 1039.5,-512.5"/>
<text text-anchor="start" x="1047.5" y="-530.5" font-family="Helvetica,sans-Serif" font-size="10.00">wmtk::Mesh::create</text>
<text text-anchor="middle" x="1096" y="-519.5" font-family="Helvetica,sans-Serif" font-size="10.00">_accessor</text>
</a>
</g>
</g>
<!-- Node1&#45;&gt;Node2 -->
<g id="edge1" class="edge">
<title>Node1&#45;&gt;Node2</title>
<path fill="none" stroke="midnightblue" d="M102.65,-346.14C121.53,-378.91 163.04,-442.32 217,-473.5 332.79,-540.41 379.27,-527.5 513,-527.5 513,-527.5 513,-527.5 711,-527.5 822.58,-527.5 952.41,-527.5 1028.92,-527.5"/>
<polygon fill="midnightblue" stroke="midnightblue" points="1029.36,-531 1039.36,-527.5 1029.36,-524 1029.36,-531"/>
</g>
<!-- Node6 -->
<g id="node6" class="node">
<title>Node6</title>
<g id="a_node6"><a xlink:href="classwmtk_1_1operations_1_1tet__mesh_1_1_edge_operation_data.html#acddf202ad38f22b09eb8eb6af183cc8c" target="_top" xlink:title=" ">
<polygon fill="none" stroke="black" points="232.5,-275 232.5,-316 382.5,-316 382.5,-275 232.5,-275"/>
<text text-anchor="start" x="240.5" y="-304" font-family="Helvetica,sans-Serif" font-size="10.00">wmtk::operations::tet</text>
<text text-anchor="start" x="240.5" y="-293" font-family="Helvetica,sans-Serif" font-size="10.00">_mesh::EdgeOperationData</text>
<text text-anchor="middle" x="307.5" y="-282" font-family="Helvetica,sans-Serif" font-size="10.00">::incident_face_datas</text>
</a>
</g>
</g>
<!-- Node1&#45;&gt;Node6 -->
<g id="edge5" class="edge">
<title>Node1&#45;&gt;Node6</title>
<path fill="none" stroke="midnightblue" d="M181.12,-312.99C194.71,-311.1 208.69,-309.15 222.16,-307.27"/>
<polygon fill="midnightblue" stroke="midnightblue" points="222.93,-310.69 232.35,-305.85 221.96,-303.76 222.93,-310.69"/>
</g>
<!-- Node7 -->
<g id="node7" class="node">
<title>Node7</title>
<g id="a_node7"><a xlink:href="classwmtk_1_1operations_1_1tet__mesh_1_1_edge_operation_data.html#a3d1ea8b1bc5a57499a8bfecfa8aa0970" target="_top" xlink:title=" ">
<polygon fill="none" stroke="black" points="232.5,-215 232.5,-256 382.5,-256 382.5,-215 232.5,-215"/>
<text text-anchor="start" x="240.5" y="-244" font-family="Helvetica,sans-Serif" font-size="10.00">wmtk::operations::tet</text>
<text text-anchor="start" x="240.5" y="-233" font-family="Helvetica,sans-Serif" font-size="10.00">_mesh::EdgeOperationData</text>
<text text-anchor="middle" x="307.5" y="-222" font-family="Helvetica,sans-Serif" font-size="10.00">::incident_tet_datas</text>
</a>
</g>
</g>
<!-- Node1&#45;&gt;Node7 -->
<g id="edge6" class="edge">
<title>Node1&#45;&gt;Node7</title>
<path fill="none" stroke="midnightblue" d="M131.35,-304.91C155.75,-292.69 187.79,-277.33 217,-265.5 222.03,-263.46 227.26,-261.45 232.55,-259.49"/>
<polygon fill="midnightblue" stroke="midnightblue" points="233.9,-262.72 242.11,-256.03 231.51,-256.14 233.9,-262.72"/>
</g>
<!-- Node8 -->
<g id="node8" class="node">
<title>Node8</title>
<g id="a_node8"><a xlink:href="classwmtk_1_1operations_1_1tet__mesh_1_1_edge_operation_data.html#a5837c7d6d5828df6a19b93a7a1a5895a" target="_top" xlink:title=" ">
<polygon fill="none" stroke="black" points="232.5,-155 232.5,-196 382.5,-196 382.5,-155 232.5,-155"/>
<text text-anchor="start" x="240.5" y="-184" font-family="Helvetica,sans-Serif" font-size="10.00">wmtk::operations::tet</text>
<text text-anchor="start" x="240.5" y="-173" font-family="Helvetica,sans-Serif" font-size="10.00">_mesh::EdgeOperationData</text>
<text text-anchor="middle" x="307.5" y="-162" font-family="Helvetica,sans-Serif" font-size="10.00">::incident_vids</text>
</a>
</g>
</g>
<!-- Node1&#45;&gt;Node8 -->
<g id="edge7" class="edge">
<title>Node1&#45;&gt;Node8</title>
<path fill="none" stroke="midnightblue" d="M108.06,-304.8C130.26,-278.31 172.1,-232.61 217,-205.5 219.97,-203.71 223.05,-202.01 226.22,-200.4"/>
<polygon fill="midnightblue" stroke="midnightblue" points="227.78,-203.53 235.32,-196.09 224.79,-197.2 227.78,-203.53"/>
</g>
<!-- Node9 -->
<g id="node9" class="node">
<title>Node9</title>
<g id="a_node9"><a xlink:href="classwmtk_1_1_mesh.html#abbb1c54cfd6ec17f4730317ee5fab78d" target="_top" xlink:title=" ">
<polygon fill="none" stroke="black" points="233.5,-445 233.5,-464 381.5,-464 381.5,-445 233.5,-445"/>
<text text-anchor="middle" x="307.5" y="-452" font-family="Helvetica,sans-Serif" font-size="10.00">wmtk::Mesh::is_valid_slow</text>
</a>
</g>
</g>
<!-- Node1&#45;&gt;Node9 -->
<g id="edge8" class="edge">
<title>Node1&#45;&gt;Node9</title>
<path fill="none" stroke="midnightblue" d="M108.78,-346.05C131.11,-371.2 172.45,-413.18 217,-435.5 221.88,-437.95 227.07,-440.08 232.38,-441.93"/>
<polygon fill="midnightblue" stroke="midnightblue" points="231.47,-445.32 242.06,-444.99 233.58,-438.64 231.47,-445.32"/>
</g>
<!-- Node13 -->
<g id="node13" class="node">
<title>Node13</title>
<g id="a_node13"><a xlink:href="classwmtk_1_1operations_1_1utils_1_1_update_edge_operation_multi_mesh_map_functor.html#a2297ac950a7bf7e54b63c3c860cb2e5b" target="_top" xlink:title=" ">
<polygon fill="none" stroke="black" points="217,-335 217,-376 398,-376 398,-335 217,-335"/>
<text text-anchor="start" x="225" y="-364" font-family="Helvetica,sans-Serif" font-size="10.00">wmtk::operations::utils</text>
<text text-anchor="start" x="225" y="-353" font-family="Helvetica,sans-Serif" font-size="10.00">::UpdateEdgeOperationMultiMesh</text>
<text text-anchor="middle" x="307.5" y="-342" font-family="Helvetica,sans-Serif" font-size="10.00">MapFunctor::parent_global_cid</text>
</a>
</g>
</g>
<!-- Node1&#45;&gt;Node13 -->
<g id="edge15" class="edge">
<title>Node1&#45;&gt;Node13</title>
<path fill="none" stroke="midnightblue" d="M181.12,-338.01C189.57,-339.18 198.17,-340.38 206.7,-341.57"/>
<polygon fill="midnightblue" stroke="midnightblue" points="206.29,-345.05 216.68,-342.97 207.26,-338.12 206.29,-345.05"/>
</g>
<!-- Node18 -->
<g id="node18" class="node">
<title>Node18</title>
<g id="a_node18"><a xlink:href="namespacewmtk_1_1multimesh_1_1utils.html#a3e738c974c80637ea0e2e9a6f5abc46f" target="_top" xlink:title=" ">
<polygon fill="none" stroke="black" points="240,-95 240,-136 375,-136 375,-95 240,-95"/>
<text text-anchor="start" x="248" y="-124" font-family="Helvetica,sans-Serif" font-size="10.00">wmtk::multimesh::utils</text>
<text text-anchor="start" x="248" y="-113" font-family="Helvetica,sans-Serif" font-size="10.00">::symmetric_write_tuple</text>
<text text-anchor="middle" x="307.5" y="-102" font-family="Helvetica,sans-Serif" font-size="10.00">_map_attributes</text>
</a>
</g>
</g>
<!-- Node1&#45;&gt;Node18 -->
<g id="edge20" class="edge">
<title>Node1&#45;&gt;Node18</title>
<path fill="none" stroke="midnightblue" d="M100.53,-304.72C117.78,-267.43 158.91,-189 217,-145.5 221.16,-142.39 225.66,-139.59 230.35,-137.07"/>
<polygon fill="midnightblue" stroke="midnightblue" points="232.12,-140.09 239.57,-132.56 229.05,-133.8 232.12,-140.09"/>
</g>
<!-- Node37 -->
<g id="node37" class="node">
<title>Node37</title>
<g id="a_node37"><a xlink:href="classwmtk_1_1_tet_mesh.html#a572ea805c8faf84e78915f191a9af9bf" target="_top" xlink:title=" ">
<polygon fill="none" stroke="black" points="246.5,-395.5 246.5,-425.5 368.5,-425.5 368.5,-395.5 246.5,-395.5"/>
<text text-anchor="start" x="254.5" y="-413.5" font-family="Helvetica,sans-Serif" font-size="10.00">wmtk::TetMesh::tuple</text>
<text text-anchor="middle" x="307.5" y="-402.5" font-family="Helvetica,sans-Serif" font-size="10.00">_from_global_ids</text>
</a>
</g>
</g>
<!-- Node1&#45;&gt;Node37 -->
<g id="edge50" class="edge">
<title>Node1&#45;&gt;Node37</title>
<path fill="none" stroke="midnightblue" d="M130.03,-346.07C154.48,-358.57 187.04,-374.25 217,-385.5 223.39,-387.9 230.12,-390.19 236.89,-392.34"/>
<polygon fill="midnightblue" stroke="midnightblue" points="236.23,-395.8 246.82,-395.39 238.29,-389.11 236.23,-395.8"/>
</g>
<!-- Node3 -->
<g id="node3" class="node">
<title>Node3</title>
<g id="a_node3"><a xlink:href="classwmtk_1_1attribute_1_1_mesh_attribute_handle.html#ac326961f01b9ba4fec395827f15a7ef2" target="_top" xlink:title=" ">
<polygon fill="none" stroke="black" points="1206,-537.5 1206,-567.5 1373,-567.5 1373,-537.5 1206,-537.5"/>
<text text-anchor="start" x="1214" y="-555.5" font-family="Helvetica,sans-Serif" font-size="10.00">wmtk::attribute::MeshAttribute</text>
<text text-anchor="middle" x="1289.5" y="-544.5" font-family="Helvetica,sans-Serif" font-size="10.00">Handle::as</text>
</a>
</g>
</g>
<!-- Node2&#45;&gt;Node3 -->
<g id="edge2" class="edge">
<title>Node2&#45;&gt;Node3</title>
<path fill="none" stroke="midnightblue" d="M1152.65,-534.76C1166.2,-536.53 1181.05,-538.47 1195.81,-540.4"/>
<polygon fill="midnightblue" stroke="midnightblue" points="1195.63,-543.91 1206,-541.73 1196.53,-536.96 1195.63,-543.91"/>
</g>
<!-- Node4 -->
<g id="node4" class="node">
<title>Node4</title>
<g id="a_node4"><a xlink:href="classwmtk_1_1attribute_1_1_mesh_attribute_handle.html#a2b86caeb22b007b85b138ebc6b0ed837" target="_top" xlink:title=" ">
<polygon fill="none" stroke="black" points="1206,-488.5 1206,-518.5 1373,-518.5 1373,-488.5 1206,-488.5"/>
<text text-anchor="start" x="1214" y="-506.5" font-family="Helvetica,sans-Serif" font-size="10.00">wmtk::attribute::MeshAttribute</text>
<text text-anchor="middle" x="1289.5" y="-495.5" font-family="Helvetica,sans-Serif" font-size="10.00">Handle::holds</text>
</a>
</g>
</g>
<!-- Node2&#45;&gt;Node4 -->
<g id="edge3" class="edge">
<title>Node2&#45;&gt;Node4</title>
<path fill="none" stroke="midnightblue" d="M1152.65,-520.53C1166.2,-518.83 1181.05,-516.97 1195.81,-515.12"/>
<polygon fill="midnightblue" stroke="midnightblue" points="1196.51,-518.56 1206,-513.84 1195.64,-511.61 1196.51,-518.56"/>
</g>
<!-- Node5 -->
<g id="node5" class="node">
<title>Node5</title>
<g id="a_node5"><a xlink:href="classwmtk_1_1attribute_1_1_mesh_attribute_handle.html#a620620d54776b2c5f4f9cebad465cfa7" target="_top" xlink:title=" ">
<polygon fill="none" stroke="black" points="1206,-439.5 1206,-469.5 1373,-469.5 1373,-439.5 1206,-439.5"/>
<text text-anchor="start" x="1214" y="-457.5" font-family="Helvetica,sans-Serif" font-size="10.00">wmtk::attribute::MeshAttribute</text>
<text text-anchor="middle" x="1289.5" y="-446.5" font-family="Helvetica,sans-Serif" font-size="10.00">Handle::mesh</text>
</a>
</g>
</g>
<!-- Node2&#45;&gt;Node5 -->
<g id="edge4" class="edge">
<title>Node2&#45;&gt;Node5</title>
<path fill="none" stroke="midnightblue" d="M1148.75,-512.43C1156.01,-509.76 1163.28,-506.77 1170,-503.5 1187.29,-495.09 1188.61,-487.71 1206,-479.5 1210.91,-477.18 1216.08,-475.02 1221.34,-473.02"/>
<polygon fill="midnightblue" stroke="midnightblue" points="1222.65,-476.27 1230.87,-469.58 1220.28,-469.68 1222.65,-476.27"/>
</g>
<!-- Node10 -->
<g id="node10" class="node">
<title>Node10</title>
<g id="a_node10"><a xlink:href="classwmtk_1_1_mesh.html#adf199d6a3ce6badd8bfa0e2ab3a1c1aa" target="_top" xlink:title=" ">
<polygon fill="none" stroke="black" points="841,-463.5 841,-493.5 971,-493.5 971,-463.5 841,-463.5"/>
<text text-anchor="start" x="849" y="-481.5" font-family="Helvetica,sans-Serif" font-size="10.00">wmtk::Mesh::get_const</text>
<text text-anchor="middle" x="906" y="-470.5" font-family="Helvetica,sans-Serif" font-size="10.00">_cell_hash_accessor</text>
</a>
</g>
</g>
<!-- Node9&#45;&gt;Node10 -->
<g id="edge9" class="edge">
<title>Node9&#45;&gt;Node10</title>
<path fill="none" stroke="midnightblue" d="M372.53,-464.04C392.21,-466.6 413.95,-469.06 434,-470.5 573.95,-480.58 737.87,-480.74 830.76,-479.75"/>
<polygon fill="midnightblue" stroke="midnightblue" points="830.95,-483.25 840.91,-479.64 830.87,-476.25 830.95,-483.25"/>
</g>
<!-- Node12 -->
<g id="node12" class="node">
<title>Node12</title>
<g id="a_node12"><a xlink:href="classwmtk_1_1_mesh.html#a918c509096fc08691924c05c6143b9c3" target="_top" xlink:title="check validity of tuple including its hash">
<polygon fill="none" stroke="black" points="454,-442 454,-461 574,-461 574,-442 454,-442"/>
<text text-anchor="middle" x="514" y="-449" font-family="Helvetica,sans-Serif" font-size="10.00">wmtk::Mesh::is_valid</text>
</a>
</g>
</g>
<!-- Node9&#45;&gt;Node12 -->
<g id="edge14" class="edge">
<title>Node9&#45;&gt;Node12</title>
<path fill="none" stroke="midnightblue" d="M381.75,-453.43C401.86,-453.13 423.59,-452.81 443.48,-452.52"/>
<polygon fill="midnightblue" stroke="midnightblue" points="443.75,-456.02 453.69,-452.37 443.64,-449.02 443.75,-456.02"/>
</g>
<!-- Node11 -->
<g id="node11" class="node">
<title>Node11</title>
<g id="a_node11"><a xlink:href="classwmtk_1_1_mesh.html#a956cb71441391c99d736ec69c7467b61" target="_top" xlink:title=" ">
<polygon fill="none" stroke="black" points="1039.5,-463.5 1039.5,-493.5 1152.5,-493.5 1152.5,-463.5 1039.5,-463.5"/>
<text text-anchor="start" x="1047.5" y="-481.5" font-family="Helvetica,sans-Serif" font-size="10.00">wmtk::Mesh::create</text>
<text text-anchor="middle" x="1096" y="-470.5" font-family="Helvetica,sans-Serif" font-size="10.00">_const_accessor</text>
</a>
</g>
</g>
<!-- Node10&#45;&gt;Node11 -->
<g id="edge10" class="edge">
<title>Node10&#45;&gt;Node11</title>
<path fill="none" stroke="midnightblue" d="M971.17,-478.5C989.84,-478.5 1010.26,-478.5 1029.04,-478.5"/>
<polygon fill="midnightblue" stroke="midnightblue" points="1029.28,-482 1039.28,-478.5 1029.28,-475 1029.28,-482"/>
</g>
<!-- Node11&#45;&gt;Node3 -->
<g id="edge11" class="edge">
<title>Node11&#45;&gt;Node3</title>
<path fill="none" stroke="midnightblue" d="M1147.24,-493.64C1155.01,-496.57 1162.83,-499.87 1170,-503.5 1187.38,-512.3 1188.42,-520.11 1206,-528.5 1210.05,-530.43 1214.28,-532.24 1218.6,-533.93"/>
<polygon fill="midnightblue" stroke="midnightblue" points="1217.57,-537.28 1228.17,-537.43 1219.98,-530.7 1217.57,-537.28"/>
</g>
<!-- Node11&#45;&gt;Node4 -->
<g id="edge12" class="edge">
<title>Node11&#45;&gt;Node4</title>
<path fill="none" stroke="midnightblue" d="M1152.65,-485.76C1166.2,-487.53 1181.05,-489.47 1195.81,-491.4"/>
<polygon fill="midnightblue" stroke="midnightblue" points="1195.63,-494.91 1206,-492.73 1196.53,-487.96 1195.63,-494.91"/>
</g>
<!-- Node11&#45;&gt;Node5 -->
<g id="edge13" class="edge">
<title>Node11&#45;&gt;Node5</title>
<path fill="none" stroke="midnightblue" d="M1152.65,-471.53C1166.2,-469.83 1181.05,-467.97 1195.81,-466.12"/>
<polygon fill="midnightblue" stroke="midnightblue" points="1196.51,-469.56 1206,-464.84 1195.64,-462.61 1196.51,-469.56"/>
</g>
<!-- Node14 -->
<g id="node14" class="node">
<title>Node14</title>
<g id="a_node14"><a xlink:href="classwmtk_1_1multimesh_1_1_multi_mesh_manager.html#a6a1229bbd409f510c18bacc733079a74" target="_top" xlink:title=" ">
<polygon fill="none" stroke="black" points="434,-340.5 434,-370.5 594,-370.5 594,-340.5 434,-340.5"/>
<text text-anchor="start" x="442" y="-358.5" font-family="Helvetica,sans-Serif" font-size="10.00">wmtk::multimesh::MultiMesh</text>
<text text-anchor="middle" x="514" y="-347.5" font-family="Helvetica,sans-Serif" font-size="10.00">Manager::parent_global_cid</text>
</a>
</g>
</g>
<!-- Node13&#45;&gt;Node14 -->
<g id="edge16" class="edge">
<title>Node13&#45;&gt;Node14</title>
<path fill="none" stroke="midnightblue" d="M398.2,-355.5C406.67,-355.5 415.25,-355.5 423.72,-355.5"/>
<polygon fill="midnightblue" stroke="midnightblue" points="423.97,-359 433.97,-355.5 423.97,-352 423.97,-359"/>
</g>
<!-- Node15 -->
<g id="node15" class="node">
<title>Node15</title>
<g id="a_node15"><a xlink:href="classwmtk_1_1_mesh.html#a965a0d885c5a38af7c72253d1416118b" target="_top" xlink:title=" ">
<polygon fill="none" stroke="black" points="644.5,-340.5 644.5,-370.5 775.5,-370.5 775.5,-340.5 644.5,-340.5"/>
<text text-anchor="start" x="652.5" y="-358.5" font-family="Helvetica,sans-Serif" font-size="10.00">wmtk::Mesh::get_index</text>
<text text-anchor="middle" x="710" y="-347.5" font-family="Helvetica,sans-Serif" font-size="10.00">_access</text>
</a>
</g>
</g>
<!-- Node14&#45;&gt;Node15 -->
<g id="edge17" class="edge">
<title>Node14&#45;&gt;Node15</title>
<path fill="none" stroke="midnightblue" d="M594.19,-355.5C607.33,-355.5 620.93,-355.5 633.97,-355.5"/>
<polygon fill="midnightblue" stroke="midnightblue" points="634.28,-359 644.28,-355.5 634.28,-352 634.28,-359"/>
</g>
<!-- Node16 -->
<g id="node16" class="node">
<title>Node16</title>
<g id="a_node16"><a xlink:href="classwmtk_1_1attribute_1_1_accessor.html#a5e55c4e369b2dfeba31e579ee8fa06bf" target="_top" xlink:title=" ">
<polygon fill="none" stroke="black" points="835,-340.5 835,-370.5 977,-370.5 977,-340.5 835,-340.5"/>
<text text-anchor="start" x="843" y="-358.5" font-family="Helvetica,sans-Serif" font-size="10.00">wmtk::attribute::Accessor</text>
<text text-anchor="middle" x="906" y="-347.5" font-family="Helvetica,sans-Serif" font-size="10.00">::index_access</text>
</a>
</g>
</g>
<!-- Node15&#45;&gt;Node16 -->
<g id="edge18" class="edge">
<title>Node15&#45;&gt;Node16</title>
<path fill="none" stroke="midnightblue" d="M775.6,-355.5C791.3,-355.5 808.28,-355.5 824.61,-355.5"/>
<polygon fill="midnightblue" stroke="midnightblue" points="824.68,-359 834.68,-355.5 824.68,-352 824.68,-359"/>
</g>
<!-- Node17 -->
<g id="node17" class="node">
<title>Node17</title>
<g id="a_node17"><a xlink:href="classwmtk_1_1attribute_1_1_accessor.html#a9d0f9b5a16b8c3f40956fb9b4007f63a" target="_top" xlink:title=" ">
<polygon fill="none" stroke="black" points="1025,-340.5 1025,-370.5 1167,-370.5 1167,-340.5 1025,-340.5"/>
<text text-anchor="start" x="1033" y="-358.5" font-family="Helvetica,sans-Serif" font-size="10.00">wmtk::attribute::Accessor</text>
<text text-anchor="middle" x="1096" y="-347.5" font-family="Helvetica,sans-Serif" font-size="10.00">::caching_base_type</text>
</a>
</g>
</g>
<!-- Node16&#45;&gt;Node17 -->
<g id="edge19" class="edge">
<title>Node16&#45;&gt;Node17</title>
<path fill="none" stroke="midnightblue" d="M977,-355.5C989.36,-355.5 1002.31,-355.5 1014.92,-355.5"/>
<polygon fill="midnightblue" stroke="midnightblue" points="1014.94,-359 1024.94,-355.5 1014.94,-352 1014.94,-359"/>
</g>
<!-- Node19 -->
<g id="node19" class="node">
<title>Node19</title>
<g id="a_node19"><a xlink:href="classwmtk_1_1_mesh.html#a2102fdea06a0c543437e67d77aeb2013" target="_top" xlink:title="returns a unique identifier for this mesh within a single multimesh structure">
<polygon fill="none" stroke="black" points="451.5,-188.5 451.5,-218.5 576.5,-218.5 576.5,-188.5 451.5,-188.5"/>
<text text-anchor="start" x="459.5" y="-206.5" font-family="Helvetica,sans-Serif" font-size="10.00">wmtk::Mesh::absolute</text>
<text text-anchor="middle" x="514" y="-195.5" font-family="Helvetica,sans-Serif" font-size="10.00">_multi_mesh_id</text>
</a>
</g>
</g>
<!-- Node18&#45;&gt;Node19 -->
<g id="edge21" class="edge">
<title>Node18&#45;&gt;Node19</title>
<path fill="none" stroke="midnightblue" d="M375.06,-134.99C382.96,-138.12 390.78,-141.63 398,-145.5 415.86,-155.08 416.33,-163.57 434,-173.5 441.26,-177.58 449.19,-181.33 457.13,-184.69"/>
<polygon fill="midnightblue" stroke="midnightblue" points="455.83,-187.94 466.42,-188.45 458.46,-181.45 455.83,-187.94"/>
</g>
<!-- Node22 -->
<g id="node22" class="node">
<title>Node22</title>
<g id="a_node22"><a xlink:href="classwmtk_1_1utils_1_1_tuple_inspector.html#a7637fe37249cbe7262a4a5c931c40f75" target="_top" xlink:title=" ">
<polygon fill="none" stroke="black" points="1022,-147.5 1022,-177.5 1170,-177.5 1170,-147.5 1022,-147.5"/>
<text text-anchor="start" x="1030" y="-165.5" font-family="Helvetica,sans-Serif" font-size="10.00">wmtk::utils::TupleInspector</text>
<text text-anchor="middle" x="1096" y="-154.5" font-family="Helvetica,sans-Serif" font-size="10.00">::as_string</text>
</a>
</g>
</g>
<!-- Node18&#45;&gt;Node22 -->
<g id="edge25" class="edge">
<title>Node18&#45;&gt;Node22</title>
<path fill="none" stroke="midnightblue" d="M375.27,-130.9C394.15,-134.69 414.8,-138.28 434,-140.5 640.63,-164.36 885.82,-165.47 1011.53,-164.08"/>
<polygon fill="midnightblue" stroke="midnightblue" points="1011.89,-167.57 1021.84,-163.95 1011.8,-160.57 1011.89,-167.57"/>
</g>
<!-- Node28 -->
<g id="node28" class="node">
<title>Node28</title>
<g id="a_node28"><a xlink:href="namespacewmtk.html#a6a35f11c12436093d26fdd8be6fecc06" target="_top" xlink:title="Retrieves the current logger.">
<polygon fill="none" stroke="black" points="473.5,-62 473.5,-81 554.5,-81 554.5,-62 473.5,-62"/>
<text text-anchor="middle" x="514" y="-69" font-family="Helvetica,sans-Serif" font-size="10.00">wmtk::logger</text>
</a>
</g>
</g>
<!-- Node18&#45;&gt;Node28 -->
<g id="edge31" class="edge">
<title>Node18&#45;&gt;Node28</title>
<path fill="none" stroke="midnightblue" d="M375.18,-101.15C403.91,-94.97 436.92,-87.87 463.43,-82.16"/>
<polygon fill="midnightblue" stroke="midnightblue" points="464.21,-85.58 473.25,-80.05 462.74,-78.73 464.21,-85.58"/>
</g>
<!-- Node30 -->
<g id="node30" class="node">
<title>Node30</title>
<g id="a_node30"><a xlink:href="classwmtk_1_1attribute_1_1_accessor_base.html#ac6c48d82818148360fa7e9efd10e3112" target="_top" xlink:title=" ">
<polygon fill="none" stroke="black" points="443,-12.5 443,-42.5 585,-42.5 585,-12.5 443,-12.5"/>
<text text-anchor="start" x="451" y="-30.5" font-family="Helvetica,sans-Serif" font-size="10.00">wmtk::attribute::Accessor</text>
<text text-anchor="middle" x="514" y="-19.5" font-family="Helvetica,sans-Serif" font-size="10.00">Base::mesh</text>
</a>
</g>
</g>
<!-- Node18&#45;&gt;Node30 -->
<g id="edge33" class="edge">
<title>Node18&#45;&gt;Node30</title>
<path fill="none" stroke="midnightblue" d="M345.67,-94.88C370.27,-81.73 403.51,-64.89 434,-52.5 439.69,-50.19 445.67,-47.96 451.69,-45.84"/>
<polygon fill="midnightblue" stroke="midnightblue" points="452.83,-49.15 461.16,-42.61 450.57,-42.52 452.83,-49.15"/>
</g>
<!-- Node31 -->
<g id="node31" class="node">
<title>Node31</title>
<g id="a_node31"><a xlink:href="namespacewmtk_1_1multimesh_1_1utils.html#aa6fb761beb691e021e87753de8c15b8f" target="_top" xlink:title=" ">
<polygon fill="none" stroke="black" points="438,-100.5 438,-130.5 590,-130.5 590,-100.5 438,-100.5"/>
<text text-anchor="start" x="446" y="-118.5" font-family="Helvetica,sans-Serif" font-size="10.00">wmtk::multimesh::utils</text>
<text text-anchor="middle" x="514" y="-107.5" font-family="Helvetica,sans-Serif" font-size="10.00">::write_tuple_map_attribute</text>
</a>
</g>
</g>
<!-- Node18&#45;&gt;Node31 -->
<g id="edge34" class="edge">
<title>Node18&#45;&gt;Node31</title>
<path fill="none" stroke="midnightblue" d="M375.18,-115.5C391.94,-115.5 410.15,-115.5 427.68,-115.5"/>
<polygon fill="midnightblue" stroke="midnightblue" points="427.91,-119 437.91,-115.5 427.91,-112 427.91,-119"/>
</g>
<!-- Node20 -->
<g id="node20" class="node">
<title>Node20</title>
<g id="a_node20"><a xlink:href="classwmtk_1_1multimesh_1_1_multi_mesh_manager.html#a812e0992812b2c48a889e10ae9e50758" target="_top" xlink:title=" ">
<polygon fill="none" stroke="black" points="630,-188.5 630,-218.5 790,-218.5 790,-188.5 630,-188.5"/>
<text text-anchor="start" x="638" y="-206.5" font-family="Helvetica,sans-Serif" font-size="10.00">wmtk::multimesh::MultiMesh</text>
<text text-anchor="middle" x="710" y="-195.5" font-family="Helvetica,sans-Serif" font-size="10.00">Manager::absolute_id</text>
</a>
</g>
</g>
<!-- Node19&#45;&gt;Node20 -->
<g id="edge22" class="edge">
<title>Node19&#45;&gt;Node20</title>
<path fill="none" stroke="midnightblue" d="M576.65,-203.5C590.35,-203.5 605.14,-203.5 619.7,-203.5"/>
<polygon fill="midnightblue" stroke="midnightblue" points="619.73,-207 629.73,-203.5 619.73,-200 619.73,-207"/>
</g>
<!-- Node20&#45;&gt;Node20 -->
<g id="edge23" class="edge">
<title>Node20&#45;&gt;Node20</title>
<path fill="none" stroke="midnightblue" d="M675.84,-218.66C667.61,-228.06 678.99,-237 710,-237 728.9,-237 740.5,-233.68 744.83,-228.96"/>
<polygon fill="midnightblue" stroke="midnightblue" points="748.3,-228.41 744.16,-218.66 741.31,-228.87 748.3,-228.41"/>
</g>
<!-- Node21 -->
<g id="node21" class="node">
<title>Node21</title>
<g id="a_node21"><a xlink:href="classwmtk_1_1multimesh_1_1_multi_mesh_manager.html#a7d39339adb56b1798fe817d81bfcc67c" target="_top" xlink:title="Specifies whether this structure is the root of a multi&#45;mesh tree.">
<polygon fill="none" stroke="black" points="826,-188.5 826,-218.5 986,-218.5 986,-188.5 826,-188.5"/>
<text text-anchor="start" x="834" y="-206.5" font-family="Helvetica,sans-Serif" font-size="10.00">wmtk::multimesh::MultiMesh</text>
<text text-anchor="middle" x="906" y="-195.5" font-family="Helvetica,sans-Serif" font-size="10.00">Manager::is_root</text>
</a>
</g>
</g>
<!-- Node20&#45;&gt;Node21 -->
<g id="edge24" class="edge">
<title>Node20&#45;&gt;Node21</title>
<path fill="none" stroke="midnightblue" d="M790.19,-203.5C798.53,-203.5 807.05,-203.5 815.5,-203.5"/>
<polygon fill="midnightblue" stroke="midnightblue" points="815.75,-207 825.75,-203.5 815.75,-200 815.75,-207"/>
</g>
<!-- Node23 -->
<g id="node23" class="node">
<title>Node23</title>
<g id="a_node23"><a xlink:href="classwmtk_1_1utils_1_1_tuple_inspector.html#a5a92c6323c9678ae3785e395bc84d4a9" target="_top" xlink:title=" ">
<polygon fill="none" stroke="black" points="1215.5,-196.5 1215.5,-226.5 1363.5,-226.5 1363.5,-196.5 1215.5,-196.5"/>
<text text-anchor="start" x="1223.5" y="-214.5" font-family="Helvetica,sans-Serif" font-size="10.00">wmtk::utils::TupleInspector</text>
<text text-anchor="middle" x="1289.5" y="-203.5" font-family="Helvetica,sans-Serif" font-size="10.00">::global_cid</text>
</a>
</g>
</g>
<!-- Node22&#45;&gt;Node23 -->
<g id="edge26" class="edge">
<title>Node22&#45;&gt;Node23</title>
<path fill="none" stroke="midnightblue" d="M1155.76,-177.53C1176.07,-182.73 1199.01,-188.6 1220.03,-193.98"/>
<polygon fill="midnightblue" stroke="midnightblue" points="1219.3,-197.41 1229.85,-196.49 1221.03,-190.62 1219.3,-197.41"/>
</g>
<!-- Node24 -->
<g id="node24" class="node">
<title>Node24</title>
<g id="a_node24"><a xlink:href="classwmtk_1_1utils_1_1_tuple_inspector.html#ae396c2b7e1c4c56d911d0dd848ff7ba7" target="_top" xlink:title=" ">
<polygon fill="none" stroke="black" points="1215.5,-147.5 1215.5,-177.5 1363.5,-177.5 1363.5,-147.5 1215.5,-147.5"/>
<text text-anchor="start" x="1223.5" y="-165.5" font-family="Helvetica,sans-Serif" font-size="10.00">wmtk::utils::TupleInspector</text>
<text text-anchor="middle" x="1289.5" y="-154.5" font-family="Helvetica,sans-Serif" font-size="10.00">::hash</text>
</a>
</g>
</g>
<!-- Node22&#45;&gt;Node24 -->
<g id="edge27" class="edge">
<title>Node22&#45;&gt;Node24</title>
<path fill="none" stroke="midnightblue" d="M1170.22,-162.5C1181.65,-162.5 1193.54,-162.5 1205.18,-162.5"/>
<polygon fill="midnightblue" stroke="midnightblue" points="1205.32,-166 1215.32,-162.5 1205.32,-159 1205.32,-166"/>
</g>
<!-- Node25 -->
<g id="node25" class="node">
<title>Node25</title>
<g id="a_node25"><a xlink:href="classwmtk_1_1utils_1_1_tuple_inspector.html#a3ae49ee45025897b049dbd6291d38d3e" target="_top" xlink:title=" ">
<polygon fill="none" stroke="black" points="1215.5,-98.5 1215.5,-128.5 1363.5,-128.5 1363.5,-98.5 1215.5,-98.5"/>
<text text-anchor="start" x="1223.5" y="-116.5" font-family="Helvetica,sans-Serif" font-size="10.00">wmtk::utils::TupleInspector</text>
<text text-anchor="middle" x="1289.5" y="-105.5" font-family="Helvetica,sans-Serif" font-size="10.00">::local_eid</text>
</a>
</g>
</g>
<!-- Node22&#45;&gt;Node25 -->
<g id="edge28" class="edge">
<title>Node22&#45;&gt;Node25</title>
<path fill="none" stroke="midnightblue" d="M1155.76,-147.47C1176.07,-142.27 1199.01,-136.4 1220.03,-131.02"/>
<polygon fill="midnightblue" stroke="midnightblue" points="1221.03,-134.38 1229.85,-128.51 1219.3,-127.59 1221.03,-134.38"/>
</g>
<!-- Node26 -->
<g id="node26" class="node">
<title>Node26</title>
<g id="a_node26"><a xlink:href="classwmtk_1_1utils_1_1_tuple_inspector.html#ad53c9feea9da16f5b31b9708a699e466" target="_top" xlink:title=" ">
<polygon fill="none" stroke="black" points="1215.5,-49.5 1215.5,-79.5 1363.5,-79.5 1363.5,-49.5 1215.5,-49.5"/>
<text text-anchor="start" x="1223.5" y="-67.5" font-family="Helvetica,sans-Serif" font-size="10.00">wmtk::utils::TupleInspector</text>
<text text-anchor="middle" x="1289.5" y="-56.5" font-family="Helvetica,sans-Serif" font-size="10.00">::local_fid</text>
</a>
</g>
</g>
<!-- Node22&#45;&gt;Node26 -->
<g id="edge29" class="edge">
<title>Node22&#45;&gt;Node26</title>
<path fill="none" stroke="midnightblue" d="M1154.49,-147.47C1159.97,-144.92 1165.25,-141.95 1170,-138.5 1191.88,-122.64 1183.94,-105.11 1206,-89.5 1208.83,-87.49 1211.83,-85.65 1214.94,-83.95"/>
<polygon fill="midnightblue" stroke="midnightblue" points="1216.52,-87.07 1223.96,-79.53 1213.44,-80.79 1216.52,-87.07"/>
</g>
<!-- Node27 -->
<g id="node27" class="node">
<title>Node27</title>
<g id="a_node27"><a xlink:href="classwmtk_1_1utils_1_1_tuple_inspector.html#a164882d2ccc6019e0067e8ad5e7e3bdb" target="_top" xlink:title=" ">
<polygon fill="none" stroke="black" points="1215.5,-0.5 1215.5,-30.5 1363.5,-30.5 1363.5,-0.5 1215.5,-0.5"/>
<text text-anchor="start" x="1223.5" y="-18.5" font-family="Helvetica,sans-Serif" font-size="10.00">wmtk::utils::TupleInspector</text>
<text text-anchor="middle" x="1289.5" y="-7.5" font-family="Helvetica,sans-Serif" font-size="10.00">::local_vid</text>
</a>
</g>
</g>
<!-- Node22&#45;&gt;Node27 -->
<g id="edge30" class="edge">
<title>Node22&#45;&gt;Node27</title>
<path fill="none" stroke="midnightblue" d="M1158.08,-147.4C1162.41,-144.88 1166.46,-141.94 1170,-138.5 1203.62,-105.91 1171.83,-71.5 1206,-39.5 1207.27,-38.31 1208.6,-37.18 1209.98,-36.1"/>
<polygon fill="midnightblue" stroke="midnightblue" points="1211.96,-38.99 1218.33,-30.52 1208.07,-33.16 1211.96,-38.99"/>
</g>
<!-- Node29 -->
<g id="node29" class="node">
<title>Node29</title>
<g id="a_node29"><a xlink:href="namespacewmtk.html#a3daa7951a5f8b78cf4600dc047fcc180" target="_top" xlink:title="Setup a logger object to be used by WildmeshToolkit.">
<polygon fill="none" stroke="black" points="659.5,-13 659.5,-32 760.5,-32 760.5,-13 659.5,-13"/>
<text text-anchor="middle" x="710" y="-20" font-family="Helvetica,sans-Serif" font-size="10.00">wmtk::set_logger</text>
</a>
</g>
</g>
<!-- Node28&#45;&gt;Node29 -->
<g id="edge32" class="edge">
<title>Node28&#45;&gt;Node29</title>
<path fill="none" stroke="midnightblue" d="M553.62,-61.91C566.48,-58.67 580.87,-54.98 594,-51.5 610.05,-47.24 613.92,-45.66 630,-41.5 639.03,-39.16 648.66,-36.76 657.98,-34.49"/>
<polygon fill="midnightblue" stroke="midnightblue" points="659.03,-37.84 667.93,-32.09 657.39,-31.04 659.03,-37.84"/>
</g>
<!-- Node32 -->
<g id="node32" class="node">
<title>Node32</title>
<g id="a_node32"><a xlink:href="namespacewmtk_1_1multimesh_1_1utils.html#aa35461d0dfd6b7202351061ab67b5bc3" target="_top" xlink:title=" ">
<polygon fill="none" stroke="black" points="645,-100.5 645,-130.5 775,-130.5 775,-100.5 645,-100.5"/>
<text text-anchor="start" x="653" y="-118.5" font-family="Helvetica,sans-Serif" font-size="10.00">wmtk::multimesh::utils</text>
<text text-anchor="middle" x="710" y="-107.5" font-family="Helvetica,sans-Serif" font-size="10.00">::tuples_to_vectors</text>
</a>
</g>
</g>
<!-- Node31&#45;&gt;Node32 -->
<g id="edge35" class="edge">
<title>Node31&#45;&gt;Node32</title>
<path fill="none" stroke="midnightblue" d="M590.01,-115.5C604.73,-115.5 620.17,-115.5 634.87,-115.5"/>
<polygon fill="midnightblue" stroke="midnightblue" points="634.91,-119 644.91,-115.5 634.91,-112 634.91,-119"/>
</g>
<!-- Node36 -->
<g id="node36" class="node">
<title>Node36</title>
<g id="a_node36"><a xlink:href="classwmtk_1_1attribute_1_1_accessor.html#a9712b0cf5ab1bf61cad493efb7b91bb3" target="_top" xlink:title=" ">
<polygon fill="none" stroke="black" points="639,-51.5 639,-81.5 781,-81.5 781,-51.5 639,-51.5"/>
<text text-anchor="start" x="647" y="-69.5" font-family="Helvetica,sans-Serif" font-size="10.00">wmtk::attribute::Accessor</text>
<text text-anchor="middle" x="710" y="-58.5" font-family="Helvetica,sans-Serif" font-size="10.00">::vector_attribute</text>
</a>
</g>
</g>
<!-- Node31&#45;&gt;Node36 -->
<g id="edge49" class="edge">
<title>Node31&#45;&gt;Node36</title>
<path fill="none" stroke="midnightblue" d="M574.52,-100.47C595.1,-95.27 618.34,-89.4 639.63,-84.02"/>
<polygon fill="midnightblue" stroke="midnightblue" points="640.75,-87.35 649.59,-81.51 639.04,-80.56 640.75,-87.35"/>
</g>
<!-- Node33 -->
<g id="node33" class="node">
<title>Node33</title>
<g id="a_node33"><a xlink:href="namespacewmtk_1_1multimesh_1_1utils.html#a1e2e083555fd22678fcf96094992aaae" target="_top" xlink:title=" ">
<polygon fill="none" stroke="black" points="841,-98.5 841,-128.5 971,-128.5 971,-98.5 841,-98.5"/>
<text text-anchor="start" x="849" y="-116.5" font-family="Helvetica,sans-Serif" font-size="10.00">wmtk::multimesh::utils</text>
<text text-anchor="middle" x="906" y="-105.5" font-family="Helvetica,sans-Serif" font-size="10.00">::tuple_to_vector</text>
</a>
</g>
</g>
<!-- Node32&#45;&gt;Node33 -->
<g id="edge36" class="edge">
<title>Node32&#45;&gt;Node33</title>
<path fill="none" stroke="midnightblue" d="M775.06,-114.84C792.85,-114.66 812.31,-114.46 830.63,-114.27"/>
<polygon fill="midnightblue" stroke="midnightblue" points="830.71,-117.77 840.68,-114.16 830.64,-110.77 830.71,-117.77"/>
</g>
<!-- Node34 -->
<g id="node34" class="node">
<title>Node34</title>
<g id="a_node34"><a xlink:href="namespacewmtk_1_1multimesh_1_1utils.html#a594fa9c261e673d21832b4d8f932e637" target="_top" xlink:title=" ">
<polygon fill="none" stroke="black" points="1031,-98.5 1031,-128.5 1161,-128.5 1161,-98.5 1031,-98.5"/>
<text text-anchor="start" x="1039" y="-116.5" font-family="Helvetica,sans-Serif" font-size="10.00">wmtk::multimesh::utils</text>
<text text-anchor="middle" x="1096" y="-105.5" font-family="Helvetica,sans-Serif" font-size="10.00">::tuple_to_vector2</text>
</a>
</g>
</g>
<!-- Node33&#45;&gt;Node34 -->
<g id="edge37" class="edge">
<title>Node33&#45;&gt;Node34</title>
<path fill="none" stroke="midnightblue" d="M971.17,-113.5C987.12,-113.5 1004.34,-113.5 1020.72,-113.5"/>
<polygon fill="midnightblue" stroke="midnightblue" points="1020.8,-117 1030.8,-113.5 1020.8,-110 1020.8,-117"/>
</g>
<!-- Node35 -->
<g id="node35" class="node">
<title>Node35</title>
<g id="a_node35"><a xlink:href="namespacewmtk_1_1multimesh_1_1utils.html#ab150c77419d0083e882dcc657e3ef5b5" target="_top" xlink:title=" ">
<polygon fill="none" stroke="black" points="1031,-49.5 1031,-79.5 1161,-79.5 1161,-49.5 1031,-49.5"/>
<text text-anchor="start" x="1039" y="-67.5" font-family="Helvetica,sans-Serif" font-size="10.00">wmtk::multimesh::utils</text>
<text text-anchor="middle" x="1096" y="-56.5" font-family="Helvetica,sans-Serif" font-size="10.00">::tuple_to_vector5</text>
</a>
</g>
</g>
<!-- Node33&#45;&gt;Node35 -->
<g id="edge43" class="edge">
<title>Node33&#45;&gt;Node35</title>
<path fill="none" stroke="midnightblue" d="M964.68,-98.47C984.53,-93.29 1006.94,-87.45 1027.5,-82.09"/>
<polygon fill="midnightblue" stroke="midnightblue" points="1028.63,-85.42 1037.43,-79.51 1026.87,-78.64 1028.63,-85.42"/>
</g>
<!-- Node34&#45;&gt;Node23 -->
<g id="edge38" class="edge">
<title>Node34&#45;&gt;Node23</title>
<path fill="none" stroke="midnightblue" d="M1153,-128.65C1159.01,-131.44 1164.82,-134.69 1170,-138.5 1191.78,-154.5 1183.85,-172.02 1206,-187.5 1208.14,-189 1210.37,-190.4 1212.67,-191.72"/>
<polygon fill="midnightblue" stroke="midnightblue" points="1211.36,-194.97 1221.86,-196.38 1214.52,-188.73 1211.36,-194.97"/>
</g>
<!-- Node34&#45;&gt;Node24 -->
<g id="edge39" class="edge">
<title>Node34&#45;&gt;Node24</title>
<path fill="none" stroke="midnightblue" d="M1155.76,-128.53C1176.07,-133.73 1199.01,-139.6 1220.03,-144.98"/>
<polygon fill="midnightblue" stroke="midnightblue" points="1219.3,-148.41 1229.85,-147.49 1221.03,-141.62 1219.3,-148.41"/>
</g>
<!-- Node34&#45;&gt;Node25 -->
<g id="edge40" class="edge">
<title>Node34&#45;&gt;Node25</title>
<path fill="none" stroke="midnightblue" d="M1161.03,-113.5C1175.17,-113.5 1190.34,-113.5 1205.12,-113.5"/>
<polygon fill="midnightblue" stroke="midnightblue" points="1205.27,-117 1215.27,-113.5 1205.27,-110 1205.27,-117"/>
</g>
<!-- Node34&#45;&gt;Node26 -->
<g id="edge41" class="edge">
<title>Node34&#45;&gt;Node26</title>
<path fill="none" stroke="midnightblue" d="M1155.76,-98.47C1176.07,-93.27 1199.01,-87.4 1220.03,-82.02"/>
<polygon fill="midnightblue" stroke="midnightblue" points="1221.03,-85.38 1229.85,-79.51 1219.3,-78.59 1221.03,-85.38"/>
</g>
<!-- Node34&#45;&gt;Node27 -->
<g id="edge42" class="edge">
<title>Node34&#45;&gt;Node27</title>
<path fill="none" stroke="midnightblue" d="M1154.9,-98.34C1160.24,-95.82 1165.37,-92.89 1170,-89.5 1192.09,-73.32 1183.63,-55.3 1206,-39.5 1208.13,-37.99 1210.36,-36.58 1212.66,-35.26"/>
<polygon fill="midnightblue" stroke="midnightblue" points="1214.51,-38.24 1221.82,-30.57 1211.32,-32.01 1214.51,-38.24"/>
</g>
<!-- Node35&#45;&gt;Node23 -->
<g id="edge44" class="edge">
<title>Node35&#45;&gt;Node23</title>
<path fill="none" stroke="midnightblue" d="M1156.67,-79.65C1161.53,-82.41 1166.07,-85.66 1170,-89.5 1203.17,-121.95 1172.08,-155.84 1206,-187.5 1207.27,-188.69 1208.6,-189.82 1209.98,-190.9"/>
<polygon fill="midnightblue" stroke="midnightblue" points="1208.08,-193.83 1218.34,-196.46 1211.96,-188.01 1208.08,-193.83"/>
</g>
<!-- Node35&#45;&gt;Node24 -->
<g id="edge45" class="edge">
<title>Node35&#45;&gt;Node24</title>
<path fill="none" stroke="midnightblue" d="M1153,-79.65C1159.01,-82.44 1164.82,-85.69 1170,-89.5 1191.78,-105.5 1183.85,-123.02 1206,-138.5 1208.14,-140 1210.37,-141.4 1212.67,-142.72"/>
<polygon fill="midnightblue" stroke="midnightblue" points="1211.36,-145.97 1221.86,-147.38 1214.52,-139.73 1211.36,-145.97"/>
</g>
<!-- Node35&#45;&gt;Node25 -->
<g id="edge46" class="edge">
<title>Node35&#45;&gt;Node25</title>
<path fill="none" stroke="midnightblue" d="M1155.76,-79.53C1176.07,-84.73 1199.01,-90.6 1220.03,-95.98"/>
<polygon fill="midnightblue" stroke="midnightblue" points="1219.3,-99.41 1229.85,-98.49 1221.03,-92.62 1219.3,-99.41"/>
</g>
<!-- Node35&#45;&gt;Node26 -->
<g id="edge47" class="edge">
<title>Node35&#45;&gt;Node26</title>
<path fill="none" stroke="midnightblue" d="M1161.03,-64.5C1175.17,-64.5 1190.34,-64.5 1205.12,-64.5"/>
<polygon fill="midnightblue" stroke="midnightblue" points="1205.27,-68 1215.27,-64.5 1205.27,-61 1205.27,-68"/>
</g>
<!-- Node35&#45;&gt;Node27 -->
<g id="edge48" class="edge">
<title>Node35&#45;&gt;Node27</title>
<path fill="none" stroke="midnightblue" d="M1155.76,-49.47C1176.07,-44.27 1199.01,-38.4 1220.03,-33.02"/>
<polygon fill="midnightblue" stroke="midnightblue" points="1221.03,-36.38 1229.85,-30.51 1219.3,-29.59 1221.03,-36.38"/>
</g>
<!-- Node38 -->
<g id="node38" class="node">
<title>Node38</title>
<g id="a_node38"><a xlink:href="classwmtk_1_1_mesh.html#a40a0509744659785607c0574d561bcc2" target="_top" xlink:title=" ">
<polygon fill="none" stroke="black" points="453.5,-392.5 453.5,-422.5 574.5,-422.5 574.5,-392.5 453.5,-392.5"/>
<text text-anchor="start" x="461.5" y="-410.5" font-family="Helvetica,sans-Serif" font-size="10.00">wmtk::Mesh::get_cell</text>
<text text-anchor="middle" x="514" y="-399.5" font-family="Helvetica,sans-Serif" font-size="10.00">_hash_slow</text>
</a>
</g>
</g>
<!-- Node37&#45;&gt;Node38 -->
<g id="edge51" class="edge">
<title>Node37&#45;&gt;Node38</title>
<path fill="none" stroke="midnightblue" d="M368.75,-409.62C392.05,-409.27 418.87,-408.88 443.01,-408.53"/>
<polygon fill="midnightblue" stroke="midnightblue" points="443.23,-412.02 453.18,-408.38 443.13,-405.02 443.23,-412.02"/>
</g>
<!-- Node39 -->
<g id="node39" class="node">
<title>Node39</title>
<g id="a_node39"><a xlink:href="classwmtk_1_1_mesh.html#a4bcf7281ec7f3bdfd506ffc87fc092d3" target="_top" xlink:title=" ">
<polygon fill="none" stroke="black" points="635.5,-392 635.5,-411 784.5,-411 784.5,-392 635.5,-392"/>
<text text-anchor="middle" x="710" y="-399" font-family="Helvetica,sans-Serif" font-size="10.00">wmtk::Mesh::get_cell_hash</text>
</a>
</g>
</g>
<!-- Node38&#45;&gt;Node39 -->
<g id="edge52" class="edge">
<title>Node38&#45;&gt;Node39</title>
<path fill="none" stroke="midnightblue" d="M574.52,-405.66C590.39,-405.17 607.83,-404.63 624.75,-404.11"/>
<polygon fill="midnightblue" stroke="midnightblue" points="625.31,-407.59 635.2,-403.78 625.1,-400.59 625.31,-407.59"/>
</g>
<!-- Node41 -->
<g id="node41" class="node">
<title>Node41</title>
<g id="a_node41"><a xlink:href="classwmtk_1_1_mesh.html#a2435c4340422557f5e61dfbad2d0bee8" target="_top" xlink:title=" ">
<polygon fill="none" stroke="black" points="649.5,-430.5 649.5,-460.5 770.5,-460.5 770.5,-430.5 649.5,-430.5"/>
<text text-anchor="start" x="657.5" y="-448.5" font-family="Helvetica,sans-Serif" font-size="10.00">wmtk::Mesh::get_cell</text>
<text text-anchor="middle" x="710" y="-437.5" font-family="Helvetica,sans-Serif" font-size="10.00">_hash_accessor</text>
</a>
</g>
</g>
<!-- Node38&#45;&gt;Node41 -->
<g id="edge55" class="edge">
<title>Node38&#45;&gt;Node41</title>
<path fill="none" stroke="midnightblue" d="M574.52,-419.16C595.01,-423.17 618.12,-427.7 639.33,-431.85"/>
<polygon fill="midnightblue" stroke="midnightblue" points="638.77,-435.31 649.25,-433.8 640.11,-428.44 638.77,-435.31"/>
</g>
<!-- Node39&#45;&gt;Node16 -->
<g id="edge54" class="edge">
<title>Node39&#45;&gt;Node16</title>
<path fill="none" stroke="midnightblue" d="M751.2,-391.97C774.43,-386.46 804.36,-379.36 831.65,-372.89"/>
<polygon fill="midnightblue" stroke="midnightblue" points="832.64,-376.26 841.56,-370.54 831.02,-369.44 832.64,-376.26"/>
</g>
<!-- Node40 -->
<g id="node40" class="node">
<title>Node40</title>
<g id="a_node40"><a xlink:href="classwmtk_1_1attribute_1_1_caching_accessor.html#a46aa3c2780f6789c42c537ee4ecb5b86" target="_top" xlink:title=" ">
<polygon fill="none" stroke="black" points="837.5,-390 837.5,-431 974.5,-431 974.5,-390 837.5,-390"/>
<text text-anchor="start" x="845.5" y="-419" font-family="Helvetica,sans-Serif" font-size="10.00">wmtk::attribute::Caching</text>
<text text-anchor="start" x="845.5" y="-408" font-family="Helvetica,sans-Serif" font-size="10.00">Accessor::const_scalar</text>
<text text-anchor="middle" x="906" y="-397" font-family="Helvetica,sans-Serif" font-size="10.00">_attribute</text>
</a>
</g>
</g>
<!-- Node39&#45;&gt;Node40 -->
<g id="edge53" class="edge">
<title>Node39&#45;&gt;Node40</title>
<path fill="none" stroke="midnightblue" d="M784.62,-404.92C798.59,-405.56 813.25,-406.24 827.35,-406.9"/>
<polygon fill="midnightblue" stroke="midnightblue" points="827.34,-410.4 837.49,-407.37 827.66,-403.41 827.34,-410.4"/>
</g>
<!-- Node41&#45;&gt;Node10 -->
<g id="edge56" class="edge">
<title>Node41&#45;&gt;Node10</title>
<path fill="none" stroke="midnightblue" d="M770.52,-455.63C789.58,-458.87 810.92,-462.5 830.88,-465.89"/>
<polygon fill="midnightblue" stroke="midnightblue" points="830.42,-469.36 840.87,-467.59 831.6,-462.46 830.42,-469.36"/>
</g>
</g>
</svg>
        <g id="navigator" transform="translate(0 0)" fill="#404254">
                <rect fill="#f2f5e9" fill-opacity="0.5" stroke="#606060" stroke-width=".5" x="0" y="0" width="60" height="60"/>
                <use id="zoomplus" xlink:href="#zoomPlus" x="17" y="9" onmousedown="handleZoom(evt,'in')"/>
                <use id="zoomminus" xlink:href="#zoomMin" x="42" y="9" onmousedown="handleZoom(evt,'out')"/>
                <use id="reset" xlink:href="#resetDef" x="30" y="36" onmousedown="handleReset()"/>
                <g id="arrowUp" xlink:href="#dirArrow" transform="translate(30 24)" onmousedown="handlePan(0,-1)">
                  <use xlink:href="#rim" fill="#404040">
                        <set attributeName="fill" to="#808080" begin="arrowUp.mouseover" end="arrowUp.mouseout"/>
                  </use>
                  <path fill="none" stroke="white" stroke-width="1.5" d="M0,-3.0v7 M-2.5,-0.5L0,-3.0L2.5,-0.5"/>
                </g>
                <g id="arrowRight" xlink:href="#dirArrow" transform="rotate(90) translate(36 -43)" onmousedown="handlePan(1,0)">
                  <use xlink:href="#rim" fill="#404040">
                        <set attributeName="fill" to="#808080" begin="arrowRight.mouseover" end="arrowRight.mouseout"/>
                  </use>
                  <path fill="none" stroke="white" stroke-width="1.5" d="M0,-3.0v7 M-2.5,-0.5L0,-3.0L2.5,-0.5"/>
                </g>
                <g id="arrowDown" xlink:href="#dirArrow" transform="rotate(180) translate(-30 -48)" onmousedown="handlePan(0,1)">
                  <use xlink:href="#rim" fill="#404040">
                        <set attributeName="fill" to="#808080" begin="arrowDown.mouseover" end="arrowDown.mouseout"/>
                  </use>
                  <path fill="none" stroke="white" stroke-width="1.5" d="M0,-3.0v7 M-2.5,-0.5L0,-3.0L2.5,-0.5"/>
                </g>
                <g id="arrowLeft" xlink:href="#dirArrow" transform="rotate(270) translate(-36 17)" onmousedown="handlePan(-1,0)">
                  <use xlink:href="#rim" fill="#404040">
                        <set attributeName="fill" to="#808080" begin="arrowLeft.mouseover" end="arrowLeft.mouseout"/>
                  </use>
                  <path fill="none" stroke="white" stroke-width="1.5" d="M0,-3.0v7 M-2.5,-0.5L0,-3.0L2.5,-0.5"/>
                </g>
        </g>
        <svg viewBox="0 0 15 15" width="100%" height="30px" preserveAspectRatio="xMaxYMin meet">
         <g id="arrow_out" transform="scale(0.3 0.3)">
          <a xlink:href="classwmtk_1_1operations_1_1utils_1_1_update_edge_operation_multi_mesh_map_functor_a8784cdae3cf7a6f1ad6b5c361dd8fc03_cgraph_org.svg" target="_base">
           <rect id="button" ry="5" rx="5" y="6" x="6" height="38" width="38"
                fill="#f2f5e9" fill-opacity="0.5" stroke="#606060" stroke-width="1.0"/>
           <path id="arrow"
             d="M 11.500037,31.436501 C 11.940474,20.09759 22.043105,11.32322 32.158766,21.979434 L 37.068811,17.246167 C 37.068811,17.246167 37.088388,32 37.088388,32 L 22.160133,31.978069 C 22.160133,31.978069 26.997745,27.140456 26.997745,27.140456 C 18.528582,18.264221 13.291696,25.230495 11.500037,31.436501 z"
             style="fill:#404040;"/>
          </a>
         </g>
        </svg>
</svg>
