<?xml version="1.0" encoding="UTF-8" standalone="no"?>
<!DOCTYPE svg PUBLIC "-//W3C//DTD SVG 1.1//EN"
 "http://www.w3.org/Graphics/SVG/1.1/DTD/svg11.dtd">
<!-- Generated by graphviz version 2.43.0 (0)
 -->
<!-- Title: wmtk::MeshWriter::write_absolute_id Pages: 1 -->
<svg width="1106pt" height="496pt"
 viewBox="0.00 0.00 1106.00 495.50" xmlns="http://www.w3.org/2000/svg" xmlns:xlink="http://www.w3.org/1999/xlink">
<g id="graph0" class="graph" transform="scale(1 1) rotate(0) translate(4 491.5)">
<title>wmtk::MeshWriter::write_absolute_id</title>
<!-- Node1 -->
<g id="node1" class="node">
<title>Node1</title>
<g id="a_node1"><a xlink:title=" ">
<polygon fill="#bfbfbf" stroke="black" points="961,-271 961,-301 1098,-301 1098,-271 961,-271"/>
<text text-anchor="start" x="969" y="-289" font-family="Helvetica,sans-Serif" font-size="10.00">wmtk::MeshWriter::write</text>
<text text-anchor="middle" x="1029.5" y="-278" font-family="Helvetica,sans-Serif" font-size="10.00">_absolute_id</text>
</a>
</g>
</g>
<!-- Node2 -->
<g id="node2" class="node">
<title>Node2</title>
<g id="a_node2"><a xlink:href="classwmtk_1_1_mesh.html#a32203cf93aa0cff5c2e5c1fac502ec27" target="_top" xlink:title=" ">
<polygon fill="none" stroke="black" points="801,-276.5 801,-295.5 925,-295.5 925,-276.5 801,-276.5"/>
<text text-anchor="middle" x="863" y="-283.5" font-family="Helvetica,sans-Serif" font-size="10.00">wmtk::Mesh::serialize</text>
</a>
</g>
</g>
<!-- Node1&#45;&gt;Node2 -->
<g id="edge1" class="edge">
<title>Node1&#45;&gt;Node2</title>
<path fill="none" stroke="midnightblue" d="M950.64,-286C942.07,-286 933.44,-286 925.12,-286"/>
<polygon fill="midnightblue" stroke="midnightblue" points="950.64,-289.5 960.64,-286 950.64,-282.5 950.64,-289.5"/>
</g>
<!-- Node3 -->
<g id="node3" class="node">
<title>Node3</title>
<g id="a_node3"><a xlink:href="namespacewmtk_1_1components_1_1multimesh.html#afd7e3fbf6613b1570cf648edfea6c9b9" target="_top" xlink:title=" ">
<polygon fill="none" stroke="black" points="596,-457 596,-487 765,-487 765,-457 596,-457"/>
<text text-anchor="start" x="604" y="-475" font-family="Helvetica,sans-Serif" font-size="10.00">wmtk::components::multimesh</text>
<text text-anchor="middle" x="680.5" y="-464" font-family="Helvetica,sans-Serif" font-size="10.00">::axis_aligned_fusion</text>
</a>
</g>
</g>
<!-- Node2&#45;&gt;Node3 -->
<g id="edge2" class="edge">
<title>Node2&#45;&gt;Node3</title>
<path fill="none" stroke="midnightblue" d="M855.73,-305.45C843.73,-339.56 814.24,-410.13 765,-448 760.58,-451.4 755.69,-454.32 750.56,-456.83"/>
<polygon fill="midnightblue" stroke="midnightblue" points="859.13,-306.34 859.02,-295.75 852.49,-304.1 859.13,-306.34"/>
</g>
<!-- Node4 -->
<g id="node4" class="node">
<title>Node4</title>
<g id="a_node4"><a xlink:href="namespacewmtk_1_1components_1_1internal.html#ae96e456a97cc6bb91612325fce6c6abb" target="_top" xlink:title=" ">
<polygon fill="none" stroke="black" points="603.5,-408 603.5,-438 757.5,-438 757.5,-408 603.5,-408"/>
<text text-anchor="start" x="611.5" y="-426" font-family="Helvetica,sans-Serif" font-size="10.00">wmtk::components::internal</text>
<text text-anchor="middle" x="680.5" y="-415" font-family="Helvetica,sans-Serif" font-size="10.00">::get_vf</text>
</a>
</g>
</g>
<!-- Node2&#45;&gt;Node4 -->
<g id="edge3" class="edge">
<title>Node2&#45;&gt;Node4</title>
<path fill="none" stroke="midnightblue" d="M851.32,-304.06C835.58,-329.1 803.78,-374.11 765,-399 759.67,-402.42 753.84,-405.37 747.82,-407.9"/>
<polygon fill="midnightblue" stroke="midnightblue" points="854.31,-305.88 856.55,-295.52 848.34,-302.22 854.31,-305.88"/>
</g>
<!-- Node7 -->
<g id="node7" class="node">
<title>Node7</title>
<g id="a_node7"><a xlink:href="namespacewmtk_1_1components_1_1output.html#afd1ae4506d387a7740124ccdd482e97f" target="_top" xlink:title="Write the mesh to file.">
<polygon fill="none" stroke="black" points="396.5,-353 396.5,-383 544.5,-383 544.5,-353 396.5,-353"/>
<text text-anchor="start" x="404.5" y="-371" font-family="Helvetica,sans-Serif" font-size="10.00">wmtk::components::output</text>
<text text-anchor="middle" x="470.5" y="-360" font-family="Helvetica,sans-Serif" font-size="10.00">::output</text>
</a>
</g>
</g>
<!-- Node2&#45;&gt;Node7 -->
<g id="edge6" class="edge">
<title>Node2&#45;&gt;Node7</title>
<path fill="none" stroke="midnightblue" d="M817.24,-298.14C800.86,-302.42 782.14,-307.13 765,-311 690.32,-327.86 604.26,-344.21 544.73,-355.05"/>
<polygon fill="midnightblue" stroke="midnightblue" points="818.33,-301.47 827.1,-295.54 816.54,-294.7 818.33,-301.47"/>
</g>
<!-- Node11 -->
<g id="node11" class="node">
<title>Node11</title>
<g id="a_node11"><a xlink:href="namespacewmtk_1_1components_1_1output.html#adfc106aa7b29e0a2ef8d408f7b38b990" target="_top" xlink:title="Write the mesh to file.">
<polygon fill="none" stroke="black" points="606.5,-359 606.5,-389 754.5,-389 754.5,-359 606.5,-359"/>
<text text-anchor="start" x="614.5" y="-377" font-family="Helvetica,sans-Serif" font-size="10.00">wmtk::components::output</text>
<text text-anchor="middle" x="680.5" y="-366" font-family="Helvetica,sans-Serif" font-size="10.00">::output_hdf5</text>
</a>
</g>
</g>
<!-- Node2&#45;&gt;Node11 -->
<g id="edge10" class="edge">
<title>Node2&#45;&gt;Node11</title>
<path fill="none" stroke="midnightblue" d="M839.65,-301.07C820.41,-313.61 791.64,-331.4 765,-344 753.44,-349.47 740.6,-354.54 728.53,-358.91"/>
<polygon fill="midnightblue" stroke="midnightblue" points="841.6,-303.97 848.02,-295.55 837.74,-298.13 841.6,-303.97"/>
</g>
<!-- Node12 -->
<g id="node12" class="node">
<title>Node12</title>
<g id="a_node12"><a xlink:href="test__component__isotropic__remeshing_8cpp.html#adf1e479866f5fbf4faa9038ece31a877" target="_top" xlink:title=" ">
<polygon fill="none" stroke="black" points="645,-145.5 645,-164.5 716,-164.5 716,-145.5 645,-145.5"/>
<text text-anchor="middle" x="680.5" y="-152.5" font-family="Helvetica,sans-Serif" font-size="10.00">TEST_CASE</text>
</a>
</g>
</g>
<!-- Node2&#45;&gt;Node12 -->
<g id="edge12" class="edge">
<title>Node2&#45;&gt;Node12</title>
<path fill="none" stroke="midnightblue" d="M851.47,-267.8C835.9,-242.62 804.31,-197.59 765,-174 750.34,-165.2 732,-160.48 716.25,-157.94"/>
<polygon fill="midnightblue" stroke="midnightblue" points="848.48,-269.63 856.63,-276.4 854.48,-266.02 848.48,-269.63"/>
</g>
<!-- Node13 -->
<g id="node13" class="node">
<title>Node13</title>
<g id="a_node13"><a xlink:href="namespacewmtk_1_1components.html#ab76577dc5b3ef0ad8ac307cff60d5807" target="_top" xlink:title="Perform the simplification from the original tetwild.">
<polygon fill="none" stroke="black" points="605.5,-96 605.5,-126 755.5,-126 755.5,-96 605.5,-96"/>
<text text-anchor="start" x="613.5" y="-114" font-family="Helvetica,sans-Serif" font-size="10.00">wmtk::components::tetwild</text>
<text text-anchor="middle" x="680.5" y="-103" font-family="Helvetica,sans-Serif" font-size="10.00">_simplification</text>
</a>
</g>
</g>
<!-- Node2&#45;&gt;Node13 -->
<g id="edge13" class="edge">
<title>Node2&#45;&gt;Node13</title>
<path fill="none" stroke="midnightblue" d="M854.74,-266.71C841.72,-234.72 811.35,-170.79 765,-136 759.8,-132.09 753.98,-128.8 747.92,-126.01"/>
<polygon fill="midnightblue" stroke="midnightblue" points="851.57,-268.22 858.49,-276.24 858.09,-265.65 851.57,-268.22"/>
</g>
<!-- Node14 -->
<g id="node14" class="node">
<title>Node14</title>
<g id="a_node14"><a xlink:href="namespacewmtk_1_1components_1_1internal.html#a18a56f1ee7f5d72c7557922789a96802" target="_top" xlink:title=" ">
<polygon fill="none" stroke="black" points="603.5,-222 603.5,-252 757.5,-252 757.5,-222 603.5,-222"/>
<text text-anchor="start" x="611.5" y="-240" font-family="Helvetica,sans-Serif" font-size="10.00">wmtk::components::internal</text>
<text text-anchor="middle" x="680.5" y="-229" font-family="Helvetica,sans-Serif" font-size="10.00">::winding_number</text>
</a>
</g>
</g>
<!-- Node2&#45;&gt;Node14 -->
<g id="edge14" class="edge">
<title>Node2&#45;&gt;Node14</title>
<path fill="none" stroke="midnightblue" d="M817.1,-273.81C792.82,-267.22 762.62,-259.02 736.89,-252.04"/>
<polygon fill="midnightblue" stroke="midnightblue" points="816.2,-277.19 826.77,-276.44 818.04,-270.44 816.2,-277.19"/>
</g>
<!-- Node16 -->
<g id="node16" class="node">
<title>Node16</title>
<g id="a_node16"><a xlink:href="namespacewmtk_1_1components_1_1internal.html#af3655ebb89360c7fe41a0ac2828e9895" target="_top" xlink:title=" ">
<polygon fill="none" stroke="black" points="603.5,-271 603.5,-301 757.5,-301 757.5,-271 603.5,-271"/>
<text text-anchor="start" x="611.5" y="-289" font-family="Helvetica,sans-Serif" font-size="10.00">wmtk::components::internal</text>
<text text-anchor="middle" x="680.5" y="-278" font-family="Helvetica,sans-Serif" font-size="10.00">::write</text>
</a>
</g>
</g>
<!-- Node2&#45;&gt;Node16 -->
<g id="edge16" class="edge">
<title>Node2&#45;&gt;Node16</title>
<path fill="none" stroke="midnightblue" d="M790.62,-286C779.77,-286 768.54,-286 757.59,-286"/>
<polygon fill="midnightblue" stroke="midnightblue" points="790.89,-289.5 800.89,-286 790.89,-282.5 790.89,-289.5"/>
</g>
<!-- Node18 -->
<g id="node18" class="node">
<title>Node18</title>
<g id="a_node18"><a xlink:href="classwmtk_1_1io_1_1_cache.html#a512b2d7adaeb163afee61b194eb802fd" target="_top" xlink:title="Write a mesh to cache.">
<polygon fill="none" stroke="black" points="601.5,-183.5 601.5,-202.5 759.5,-202.5 759.5,-183.5 601.5,-183.5"/>
<text text-anchor="middle" x="680.5" y="-190.5" font-family="Helvetica,sans-Serif" font-size="10.00">wmtk::io::Cache::write_mesh</text>
</a>
</g>
</g>
<!-- Node2&#45;&gt;Node18 -->
<g id="edge19" class="edge">
<title>Node2&#45;&gt;Node18</title>
<path fill="none" stroke="midnightblue" d="M844.62,-269.37C826.26,-252.7 795.76,-227.48 765,-213 755.83,-208.68 745.64,-205.25 735.62,-202.53"/>
<polygon fill="midnightblue" stroke="midnightblue" points="842.45,-272.12 852.16,-276.36 847.21,-266.99 842.45,-272.12"/>
</g>
<!-- Node5 -->
<g id="node5" class="node">
<title>Node5</title>
<g id="a_node5"><a xlink:href="namespacewmtk_1_1components_1_1internal.html#aa5cef5f50f316f60f46180e6f84752f6" target="_top" xlink:title=" ">
<polygon fill="none" stroke="black" points="393.5,-408 393.5,-438 547.5,-438 547.5,-408 393.5,-408"/>
<text text-anchor="start" x="401.5" y="-426" font-family="Helvetica,sans-Serif" font-size="10.00">wmtk::components::internal</text>
<text text-anchor="middle" x="470.5" y="-415" font-family="Helvetica,sans-Serif" font-size="10.00">::CDT_internal</text>
</a>
</g>
</g>
<!-- Node4&#45;&gt;Node5 -->
<g id="edge4" class="edge">
<title>Node4&#45;&gt;Node5</title>
<path fill="none" stroke="midnightblue" d="M592.94,-423C577.95,-423 562.46,-423 547.76,-423"/>
<polygon fill="midnightblue" stroke="midnightblue" points="593.23,-426.5 603.23,-423 593.23,-419.5 593.23,-426.5"/>
</g>
<!-- Node6 -->
<g id="node6" class="node">
<title>Node6</title>
<g id="a_node6"><a xlink:href="namespacewmtk_1_1components.html#a7bf4c4516032a63182e16035aeacceb4" target="_top" xlink:title=" ">
<polygon fill="none" stroke="black" points="199.5,-413.5 199.5,-432.5 336.5,-432.5 336.5,-413.5 199.5,-413.5"/>
<text text-anchor="middle" x="268" y="-420.5" font-family="Helvetica,sans-Serif" font-size="10.00">wmtk::components::CDT</text>
</a>
</g>
</g>
<!-- Node5&#45;&gt;Node6 -->
<g id="edge5" class="edge">
<title>Node5&#45;&gt;Node6</title>
<path fill="none" stroke="midnightblue" d="M383.28,-423C367.74,-423 351.74,-423 336.81,-423"/>
<polygon fill="midnightblue" stroke="midnightblue" points="383.41,-426.5 393.41,-423 383.41,-419.5 383.41,-426.5"/>
</g>
<!-- Node8 -->
<g id="node8" class="node">
<title>Node8</title>
<g id="a_node8"><a xlink:href="namespacewmtk_1_1components_1_1output.html#a4935c9f97d884946cce1f6e71e8f7b0d" target="_top" xlink:title="Write the mesh to file.">
<polygon fill="none" stroke="black" points="194,-354 194,-384 342,-384 342,-354 194,-354"/>
<text text-anchor="start" x="202" y="-372" font-family="Helvetica,sans-Serif" font-size="10.00">wmtk::components::output</text>
<text text-anchor="middle" x="268" y="-361" font-family="Helvetica,sans-Serif" font-size="10.00">::output</text>
</a>
</g>
</g>
<!-- Node7&#45;&gt;Node8 -->
<g id="edge7" class="edge">
<title>Node7&#45;&gt;Node8</title>
<path fill="none" stroke="midnightblue" d="M386.21,-368.42C371.55,-368.49 356.39,-368.56 342.04,-368.64"/>
<polygon fill="midnightblue" stroke="midnightblue" points="386.28,-371.92 396.26,-368.37 386.25,-364.92 386.28,-371.92"/>
</g>
<!-- Node9 -->
<g id="node9" class="node">
<title>Node9</title>
<g id="a_node9"><a xlink:href="namespacewmtk_1_1components_1_1internal.html#a8890d5e5bb5f11779d4e40e07882253a" target="_top" xlink:title=" ">
<polygon fill="none" stroke="black" points="191,-305 191,-335 345,-335 345,-305 191,-305"/>
<text text-anchor="start" x="199" y="-323" font-family="Helvetica,sans-Serif" font-size="10.00">wmtk::components::internal</text>
<text text-anchor="middle" x="268" y="-312" font-family="Helvetica,sans-Serif" font-size="10.00">::periodic_optimization</text>
</a>
</g>
</g>
<!-- Node7&#45;&gt;Node9 -->
<g id="edge8" class="edge">
<title>Node7&#45;&gt;Node9</title>
<path fill="none" stroke="midnightblue" d="M396.64,-350.56C375.35,-345.46 352.27,-339.93 331.67,-335"/>
<polygon fill="midnightblue" stroke="midnightblue" points="396.07,-354.02 406.61,-352.94 397.7,-347.21 396.07,-354.02"/>
</g>
<!-- Node10 -->
<g id="node10" class="node">
<title>Node10</title>
<g id="a_node10"><a xlink:href="namespacewmtk_1_1components.html#a4166e4880553cfacbf79ac3515a637cd" target="_top" xlink:title=" ">
<polygon fill="none" stroke="black" points="0,-243 0,-273 155,-273 155,-243 0,-243"/>
<text text-anchor="start" x="8" y="-261" font-family="Helvetica,sans-Serif" font-size="10.00">wmtk::components::periodic</text>
<text text-anchor="middle" x="77.5" y="-250" font-family="Helvetica,sans-Serif" font-size="10.00">_optimization</text>
</a>
</g>
</g>
<!-- Node9&#45;&gt;Node10 -->
<g id="edge9" class="edge">
<title>Node9&#45;&gt;Node10</title>
<path fill="none" stroke="midnightblue" d="M211.79,-301.84C184.01,-292.7 150.72,-281.75 124.36,-273.09"/>
<polygon fill="midnightblue" stroke="midnightblue" points="210.78,-305.19 221.37,-304.99 212.96,-298.54 210.78,-305.19"/>
</g>
<!-- Node11&#45;&gt;Node7 -->
<g id="edge11" class="edge">
<title>Node11&#45;&gt;Node7</title>
<path fill="none" stroke="midnightblue" d="M596.01,-371.59C579.03,-371.1 561.3,-370.59 544.72,-370.11"/>
<polygon fill="midnightblue" stroke="midnightblue" points="596.36,-375.1 606.46,-371.89 596.56,-368.11 596.36,-375.1"/>
</g>
<!-- Node15 -->
<g id="node15" class="node">
<title>Node15</title>
<g id="a_node15"><a xlink:href="namespacewmtk_1_1components.html#a888d10781e8251534aa853eb50316732" target="_top" xlink:title=" ">
<polygon fill="none" stroke="black" points="393,-225 393,-255 548,-255 548,-225 393,-225"/>
<text text-anchor="start" x="401" y="-243" font-family="Helvetica,sans-Serif" font-size="10.00">wmtk::components::winding</text>
<text text-anchor="middle" x="470.5" y="-232" font-family="Helvetica,sans-Serif" font-size="10.00">_number</text>
</a>
</g>
</g>
<!-- Node14&#45;&gt;Node15 -->
<g id="edge15" class="edge">
<title>Node14&#45;&gt;Node15</title>
<path fill="none" stroke="midnightblue" d="M593.01,-238.25C578.11,-238.46 562.72,-238.68 548.11,-238.9"/>
<polygon fill="midnightblue" stroke="midnightblue" points="593.28,-241.74 603.23,-238.1 593.18,-234.74 593.28,-241.74"/>
</g>
<!-- Node16&#45;&gt;Node9 -->
<g id="edge17" class="edge">
<title>Node16&#45;&gt;Node9</title>
<path fill="none" stroke="midnightblue" d="M593.24,-299.14C582.07,-300.58 570.78,-301.92 560,-303 487.24,-310.29 403.9,-314.77 345.11,-317.28"/>
<polygon fill="midnightblue" stroke="midnightblue" points="593.98,-302.57 603.44,-297.78 593.06,-295.63 593.98,-302.57"/>
</g>
<!-- Node17 -->
<g id="node17" class="node">
<title>Node17</title>
<g id="a_node17"><a xlink:href="namespacewmtk_1_1components.html#ac6ca52668bd22e164d4baf59ec533864" target="_top" xlink:title=" ">
<polygon fill="none" stroke="black" points="381,-274.5 381,-293.5 560,-293.5 560,-274.5 381,-274.5"/>
<text text-anchor="middle" x="470.5" y="-281.5" font-family="Helvetica,sans-Serif" font-size="10.00">wmtk::components::wildmeshing</text>
</a>
</g>
</g>
<!-- Node16&#45;&gt;Node17 -->
<g id="edge18" class="edge">
<title>Node16&#45;&gt;Node17</title>
<path fill="none" stroke="midnightblue" d="M592.92,-285.17C582.08,-285.06 570.97,-284.96 560.09,-284.85"/>
<polygon fill="midnightblue" stroke="midnightblue" points="593.2,-288.67 603.23,-285.27 593.26,-281.67 593.2,-288.67"/>
</g>
<!-- Node18&#45;&gt;Node10 -->
<g id="edge21" class="edge">
<title>Node18&#45;&gt;Node10</title>
<path fill="none" stroke="midnightblue" d="M591.33,-198.37C531.83,-202.35 451.59,-208.39 381,-216 303.9,-224.31 216.17,-236.84 155.11,-246.05"/>
<polygon fill="midnightblue" stroke="midnightblue" points="591.7,-201.86 601.45,-197.71 591.24,-194.87 591.7,-201.86"/>
</g>
<!-- Node18&#45;&gt;Node15 -->
<g id="edge27" class="edge">
<title>Node18&#45;&gt;Node15</title>
<path fill="none" stroke="midnightblue" d="M627.37,-204.78C600.33,-210.89 566.99,-218.42 538.1,-224.95"/>
<polygon fill="midnightblue" stroke="midnightblue" points="628.43,-208.13 637.41,-202.51 626.88,-201.3 628.43,-208.13"/>
</g>
<!-- Node18&#45;&gt;Node17 -->
<g id="edge26" class="edge">
<title>Node18&#45;&gt;Node17</title>
<path fill="none" stroke="midnightblue" d="M607.83,-206.32C603.68,-208.26 599.7,-210.47 596,-213 572.8,-228.88 583.38,-249.4 560,-265 554.25,-268.84 547.86,-271.92 541.22,-274.39"/>
<polygon fill="midnightblue" stroke="midnightblue" points="609.19,-209.55 617.12,-202.52 606.54,-203.07 609.19,-209.55"/>
</g>
<!-- Node19 -->
<g id="node19" class="node">
<title>Node19</title>
<g id="a_node19"><a xlink:href="namespacewmtk_1_1components.html#a115b3d7ce01e60cf45826763314b1f6c" target="_top" xlink:title=" ">
<polygon fill="none" stroke="black" points="404.5,-137 404.5,-167 536.5,-167 536.5,-137 404.5,-137"/>
<text text-anchor="start" x="412.5" y="-155" font-family="Helvetica,sans-Serif" font-size="10.00">wmtk::components::get</text>
<text text-anchor="middle" x="470.5" y="-144" font-family="Helvetica,sans-Serif" font-size="10.00">_all_meshes</text>
</a>
</g>
</g>
<!-- Node18&#45;&gt;Node19 -->
<g id="edge20" class="edge">
<title>Node18&#45;&gt;Node19</title>
<path fill="none" stroke="midnightblue" d="M621.44,-181.55C595.14,-176.37 563.93,-170.22 536.81,-164.87"/>
<polygon fill="midnightblue" stroke="midnightblue" points="620.77,-184.99 631.26,-183.49 622.12,-178.12 620.77,-184.99"/>
</g>
<!-- Node20 -->
<g id="node20" class="node">
<title>Node20</title>
<g id="a_node20"><a xlink:href="namespacewmtk_1_1components.html#a7cec0c38121ddd036af26c760311d0e8" target="_top" xlink:title=" ">
<polygon fill="none" stroke="black" points="395,-88 395,-118 546,-118 546,-88 395,-88"/>
<text text-anchor="start" x="403" y="-106" font-family="Helvetica,sans-Serif" font-size="10.00">wmtk::components::regular</text>
<text text-anchor="middle" x="470.5" y="-95" font-family="Helvetica,sans-Serif" font-size="10.00">_space</text>
</a>
</g>
</g>
<!-- Node18&#45;&gt;Node20 -->
<g id="edge22" class="edge">
<title>Node18&#45;&gt;Node20</title>
<path fill="none" stroke="midnightblue" d="M606.64,-179.71C602.94,-178.03 599.36,-176.13 596,-174 574.08,-160.09 581.56,-142.47 560,-128 554.3,-124.17 548.02,-120.93 541.51,-118.18"/>
<polygon fill="midnightblue" stroke="midnightblue" points="605.49,-183.02 616.07,-183.48 608.08,-176.52 605.49,-183.02"/>
</g>
<!-- Node21 -->
<g id="node21" class="node">
<title>Node21</title>
<g id="a_node21"><a xlink:href="namespacewmtk_1_1components.html#ae22ac68a5d85a281c4aeafa97f5230bc" target="_top" xlink:title=" ">
<polygon fill="none" stroke="black" points="404.5,-39 404.5,-69 536.5,-69 536.5,-39 404.5,-39"/>
<text text-anchor="start" x="412.5" y="-57" font-family="Helvetica,sans-Serif" font-size="10.00">wmtk::components::tag</text>
<text text-anchor="middle" x="470.5" y="-46" font-family="Helvetica,sans-Serif" font-size="10.00">_intersection</text>
</a>
</g>
</g>
<!-- Node18&#45;&gt;Node21 -->
<g id="edge23" class="edge">
<title>Node18&#45;&gt;Node21</title>
<path fill="none" stroke="midnightblue" d="M601.6,-178.3C599.65,-176.98 597.77,-175.55 596,-174 561.68,-144.03 593.7,-108.67 560,-78 553.29,-71.89 545.18,-67.31 536.63,-63.89"/>
<polygon fill="midnightblue" stroke="midnightblue" points="600.21,-181.53 610.64,-183.41 603.66,-175.44 600.21,-181.53"/>
</g>
<!-- Node23 -->
<g id="node23" class="node">
<title>Node23</title>
<g id="a_node23"><a xlink:href="test__component__fusion_8cpp.html#ad717d3fcca492f6237e8e5f0e3455e4e" target="_top" xlink:title=" ">
<polygon fill="none" stroke="black" points="435,-0.5 435,-19.5 506,-19.5 506,-0.5 435,-0.5"/>
<text text-anchor="middle" x="470.5" y="-7.5" font-family="Helvetica,sans-Serif" font-size="10.00">TEST_CASE</text>
</a>
</g>
</g>
<!-- Node18&#45;&gt;Node23 -->
<g id="edge25" class="edge">
<title>Node18&#45;&gt;Node23</title>
<path fill="none" stroke="midnightblue" d="M600.53,-177.94C598.95,-176.72 597.43,-175.41 596,-174 548.59,-127.51 607.69,-75.2 560,-29 545.89,-15.33 524.46,-10.48 506.22,-9.1"/>
<polygon fill="midnightblue" stroke="midnightblue" points="598.65,-180.89 608.96,-183.32 602.42,-174.99 598.65,-180.89"/>
</g>
<!-- Node22 -->
<g id="node22" class="node">
<title>Node22</title>
<g id="a_node22"><a xlink:href="test__component__tag__intersection_8cpp.html#ab45075e8d350017b73b4910211afe71a" target="_top" xlink:title=" ">
<polygon fill="none" stroke="black" points="232.5,-44.5 232.5,-63.5 303.5,-63.5 303.5,-44.5 232.5,-44.5"/>
<text text-anchor="middle" x="268" y="-51.5" font-family="Helvetica,sans-Serif" font-size="10.00">TEST_CASE</text>
</a>
</g>
</g>
<!-- Node21&#45;&gt;Node22 -->
<g id="edge24" class="edge">
<title>Node21&#45;&gt;Node22</title>
<path fill="none" stroke="midnightblue" d="M394.03,-54C363,-54 328.59,-54 303.74,-54"/>
<polygon fill="midnightblue" stroke="midnightblue" points="394.4,-57.5 404.4,-54 394.4,-50.5 394.4,-57.5"/>
</g>
</g>
</svg>
