<?xml version="1.0" encoding="UTF-8" standalone="no"?>
<!DOCTYPE svg PUBLIC "-//W3C//DTD SVG 1.1//EN"
 "http://www.w3.org/Graphics/SVG/1.1/DTD/svg11.dtd">
<!-- Generated by graphviz version 2.43.0 (0)
 -->
<!-- Title: wmtk::simplex::OpenStarIterable::Iterator::step_depth_3 Pages: 1 -->
<svg width="715pt" height="304pt"
 viewBox="0.00 0.00 715.00 303.50" xmlns="http://www.w3.org/2000/svg" xmlns:xlink="http://www.w3.org/1999/xlink">
<g id="graph0" class="graph" transform="scale(1 1) rotate(0) translate(4 299.5)">
<title>wmtk::simplex::OpenStarIterable::Iterator::step_depth_3</title>
<!-- Node1 -->
<g id="Node000001" class="node">
<title>Node1</title>
<g id="a_Node000001"><a xlink:title="Use breadth first search to find all d&#45;simplices, and iterate through all cofaces in a d&#45;simplex.">
<polygon fill="#999999" stroke="#666666" points="178,-204.5 0,-204.5 0,-174.5 178,-174.5 178,-204.5"/>
<text text-anchor="start" x="8" y="-192.5" font-family="Helvetica,sans-Serif" font-size="10.00">wmtk::simplex::OpenStarIterable</text>
<text text-anchor="middle" x="89" y="-181.5" font-family="Helvetica,sans-Serif" font-size="10.00">::Iterator::step_depth_3</text>
</a>
</g>
</g>
<!-- Node2 -->
<g id="Node000002" class="node">
<title>Node2</title>
<g id="a_Node000002"><a xlink:href="classwmtk_1_1_mesh.html#aadce5155d380ef52a28eefe9e3bf0d29" target="_top" xlink:title="Retrieve the IdSimplex that is represented by the tuple and primitive type.">
<polygon fill="white" stroke="#666666" points="328.5,-295.5 215.5,-295.5 215.5,-265.5 328.5,-265.5 328.5,-295.5"/>
<text text-anchor="start" x="223.5" y="-283.5" font-family="Helvetica,sans-Serif" font-size="10.00">wmtk::Mesh::get_id</text>
<text text-anchor="middle" x="272" y="-272.5" font-family="Helvetica,sans-Serif" font-size="10.00">_simplex</text>
</a>
</g>
</g>
<!-- Node1&#45;&gt;Node2 -->
<g id="edge1_Node000001_Node000002" class="edge">
<title>Node1&#45;&gt;Node2</title>
<g id="a_edge1_Node000001_Node000002"><a xlink:title=" ">
<path fill="none" stroke="#63b8ff" d="M116.22,-204.63C141.06,-218.73 179.58,-240 214,-256.5 217.34,-258.1 220.82,-259.71 224.34,-261.29"/>
<polygon fill="#63b8ff" stroke="#63b8ff" points="223.11,-264.57 233.67,-265.39 225.92,-258.16 223.11,-264.57"/>
</a>
</g>
</g>
<!-- Node3 -->
<g id="Node000003" class="node">
<title>Node3</title>
<g id="a_Node000003"><a xlink:href="namespacewmtk.html#a3b08a5d7fb42f02c54bae85758b39f59" target="_top" xlink:title="Get the primitive type corresponding to its unique integer id.">
<polygon fill="white" stroke="#666666" points="330,-247.5 214,-247.5 214,-217.5 330,-217.5 330,-247.5"/>
<text text-anchor="start" x="222" y="-235.5" font-family="Helvetica,sans-Serif" font-size="10.00">wmtk::get_primitive</text>
<text text-anchor="middle" x="272" y="-224.5" font-family="Helvetica,sans-Serif" font-size="10.00">_type_from_id</text>
</a>
</g>
</g>
<!-- Node1&#45;&gt;Node3 -->
<g id="edge2_Node000001_Node000003" class="edge">
<title>Node1&#45;&gt;Node3</title>
<g id="a_edge2_Node000001_Node000003"><a xlink:title=" ">
<path fill="none" stroke="#63b8ff" d="M153.31,-204.54C169.6,-208.41 187.19,-212.59 203.68,-216.51"/>
<polygon fill="#63b8ff" stroke="#63b8ff" points="203.24,-220 213.78,-218.91 204.86,-213.19 203.24,-220"/>
</a>
</g>
</g>
<!-- Node4 -->
<g id="Node000004" class="node">
<title>Node4</title>
<g id="a_Node000004"><a xlink:href="classwmtk_1_1simplex_1_1_simplex.html#ad2cc0340a0772b7d6f03ba7a781d1163" target="_top" xlink:title=" ">
<polygon fill="white" stroke="#666666" points="707,-200.5 572,-200.5 572,-170.5 707,-170.5 707,-200.5"/>
<text text-anchor="start" x="580" y="-188.5" font-family="Helvetica,sans-Serif" font-size="10.00">wmtk::simplex::Simplex</text>
<text text-anchor="middle" x="639.5" y="-177.5" font-family="Helvetica,sans-Serif" font-size="10.00">::primitive_type</text>
</a>
</g>
</g>
<!-- Node1&#45;&gt;Node4 -->
<g id="edge3_Node000001_Node000004" class="edge">
<title>Node1&#45;&gt;Node4</title>
<g id="a_edge3_Node000001_Node000004"><a xlink:title=" ">
<path fill="none" stroke="#63b8ff" d="M178.13,-188.86C284.26,-188.08 460.8,-186.8 561.63,-186.06"/>
<polygon fill="#63b8ff" stroke="#63b8ff" points="561.77,-189.56 571.75,-185.99 561.72,-182.56 561.77,-189.56"/>
</a>
</g>
</g>
<!-- Node5 -->
<g id="Node000005" class="node">
<title>Node5</title>
<g id="a_Node000005"><a xlink:href="classwmtk_1_1_mesh.html#a7f8a7b7d592fdbf672f2c6c9653487ea" target="_top" xlink:title=" ">
<polygon fill="white" stroke="#666666" points="329,-105.5 215,-105.5 215,-75.5 329,-75.5 329,-105.5"/>
<text text-anchor="start" x="223" y="-93.5" font-family="Helvetica,sans-Serif" font-size="10.00">wmtk::Mesh::switch</text>
<text text-anchor="middle" x="272" y="-82.5" font-family="Helvetica,sans-Serif" font-size="10.00">_tuples</text>
</a>
</g>
</g>
<!-- Node1&#45;&gt;Node5 -->
<g id="edge4_Node000001_Node000005" class="edge">
<title>Node1&#45;&gt;Node5</title>
<g id="a_edge4_Node000001_Node000005"><a xlink:title=" ">
<path fill="none" stroke="#63b8ff" d="M117.49,-174.46C148.81,-157.33 200.12,-129.27 234.7,-110.35"/>
<polygon fill="#63b8ff" stroke="#63b8ff" points="236.45,-113.38 243.55,-105.51 233.1,-107.24 236.45,-113.38"/>
</a>
</g>
</g>
<!-- Node10 -->
<g id="Node000010" class="node">
<title>Node10</title>
<g id="a_Node000010"><a xlink:href="classwmtk_1_1_mesh.html#abaf00438d0700358b160e310d69725c9" target="_top" xlink:title=" ">
<polygon fill="white" stroke="#666666" points="536,-19 366,-19 366,0 536,0 536,-19"/>
<text text-anchor="middle" x="451" y="-7" font-family="Helvetica,sans-Serif" font-size="10.00">wmtk::Mesh::top_simplex_type</text>
</a>
</g>
</g>
<!-- Node1&#45;&gt;Node10 -->
<g id="edge13_Node000001_Node000010" class="edge">
<title>Node1&#45;&gt;Node10</title>
<g id="a_edge13_Node000001_Node000010"><a xlink:title=" ">
<path fill="none" stroke="#63b8ff" d="M100.75,-174.38C120.22,-148.16 163.96,-94.44 214,-66.5 257.37,-42.29 310.82,-28.29 355.87,-20.23"/>
<polygon fill="#63b8ff" stroke="#63b8ff" points="356.68,-23.64 365.94,-18.5 355.5,-16.74 356.68,-23.64"/>
</a>
</g>
</g>
<!-- Node6 -->
<g id="Node000006" class="node">
<title>Node6</title>
<g id="a_Node000006"><a xlink:href="classwmtk_1_1_mesh.html#a58bdbbfa0cd7bd9263241f6501db182a" target="_top" xlink:title="check if a simplex lies on a boundary or not">
<polygon fill="white" stroke="#666666" points="522,-143 380,-143 380,-124 522,-124 522,-143"/>
<text text-anchor="middle" x="451" y="-131" font-family="Helvetica,sans-Serif" font-size="10.00">wmtk::Mesh::is_boundary</text>
</a>
</g>
</g>
<!-- Node5&#45;&gt;Node6 -->
<g id="edge5_Node000005_Node000006" class="edge">
<title>Node5&#45;&gt;Node6</title>
<g id="a_edge5_Node000005_Node000006"><a xlink:title=" ">
<path fill="none" stroke="#63b8ff" d="M329.49,-105.37C341.52,-108.45 354.17,-111.64 366,-114.5 375.92,-116.9 386.52,-119.37 396.73,-121.71"/>
<polygon fill="#63b8ff" stroke="#63b8ff" points="396.25,-125.19 406.78,-123.99 397.8,-118.36 396.25,-125.19"/>
</a>
</g>
</g>
<!-- Node8 -->
<g id="Node000008" class="node">
<title>Node8</title>
<g id="a_Node000008"><a xlink:href="classwmtk_1_1_mesh.html#a965a8a24158c4aa8580c57ba09f885f7" target="_top" xlink:title="switch the orientation of the Tuple of the given dimension">
<polygon fill="white" stroke="#666666" points="508,-105.5 394,-105.5 394,-75.5 508,-75.5 508,-105.5"/>
<text text-anchor="start" x="402" y="-93.5" font-family="Helvetica,sans-Serif" font-size="10.00">wmtk::Mesh::switch</text>
<text text-anchor="middle" x="451" y="-82.5" font-family="Helvetica,sans-Serif" font-size="10.00">_tuple</text>
</a>
</g>
</g>
<!-- Node5&#45;&gt;Node8 -->
<g id="edge9_Node000005_Node000008" class="edge">
<title>Node5&#45;&gt;Node8</title>
<g id="a_edge9_Node000005_Node000008"><a xlink:title=" ">
<path fill="none" stroke="#63b8ff" d="M329,-90.5C346.36,-90.5 365.64,-90.5 383.63,-90.5"/>
<polygon fill="#63b8ff" stroke="#63b8ff" points="383.75,-94 393.75,-90.5 383.75,-87 383.75,-94"/>
</a>
</g>
</g>
<!-- Node9 -->
<g id="Node000009" class="node">
<title>Node9</title>
<g id="a_Node000009"><a xlink:href="classwmtk_1_1_mesh.html#a933f681cf24a63b155c9462280385200" target="_top" xlink:title=" ">
<polygon fill="white" stroke="#666666" points="700,-43.5 579,-43.5 579,-13.5 700,-13.5 700,-43.5"/>
<text text-anchor="start" x="587" y="-31.5" font-family="Helvetica,sans-Serif" font-size="10.00">wmtk::Mesh::top_cell</text>
<text text-anchor="middle" x="639.5" y="-20.5" font-family="Helvetica,sans-Serif" font-size="10.00">_dimension</text>
</a>
</g>
</g>
<!-- Node5&#45;&gt;Node9 -->
<g id="edge10_Node000005_Node000009" class="edge">
<title>Node5&#45;&gt;Node9</title>
<g id="a_edge10_Node000005_Node000009"><a xlink:title=" ">
<path fill="none" stroke="#63b8ff" d="M326.86,-75.49C339.62,-72.24 353.24,-69.03 366,-66.5 434.48,-52.93 513.59,-42.47 568.87,-35.99"/>
<polygon fill="#63b8ff" stroke="#63b8ff" points="569.37,-39.46 578.9,-34.83 568.57,-32.5 569.37,-39.46"/>
</a>
</g>
</g>
<!-- Node5&#45;&gt;Node10 -->
<g id="edge11_Node000005_Node000010" class="edge">
<title>Node5&#45;&gt;Node10</title>
<g id="a_edge11_Node000005_Node000010"><a xlink:title=" ">
<path fill="none" stroke="#63b8ff" d="M293.89,-75.41C312.17,-62.77 339.82,-45.01 366,-33.5 376.21,-29.01 387.48,-25.13 398.36,-21.86"/>
<polygon fill="#63b8ff" stroke="#63b8ff" points="399.55,-25.16 408.2,-19.04 397.62,-18.43 399.55,-25.16"/>
</a>
</g>
</g>
<!-- Node6&#45;&gt;Node4 -->
<g id="edge7_Node000006_Node000004" class="edge">
<title>Node6&#45;&gt;Node4</title>
<g id="a_edge7_Node000006_Node000004"><a xlink:title=" ">
<path fill="none" stroke="#63b8ff" d="M486.21,-143.04C510.87,-149.91 544.88,-159.4 574.51,-167.66"/>
<polygon fill="#63b8ff" stroke="#63b8ff" points="573.8,-171.09 584.37,-170.41 575.68,-164.35 573.8,-171.09"/>
</a>
</g>
</g>
<!-- Node6&#45;&gt;Node6 -->
<g id="edge6_Node000006_Node000006" class="edge">
<title>Node6&#45;&gt;Node6</title>
<g id="a_edge6_Node000006_Node000006"><a xlink:title=" ">
<path fill="none" stroke="#63b8ff" d="M423.57,-143.08C410.22,-151.73 419.36,-161 451,-161 472.26,-161 483.36,-156.82 484.31,-151.45"/>
<polygon fill="#63b8ff" stroke="#63b8ff" points="487.05,-149.26 478.43,-143.08 481.32,-153.28 487.05,-149.26"/>
</a>
</g>
</g>
<!-- Node7 -->
<g id="Node000007" class="node">
<title>Node7</title>
<g id="a_Node000007"><a xlink:href="classwmtk_1_1simplex_1_1_simplex.html#aca78b1fb0a3c28c0036cf7919bfb0789" target="_top" xlink:title=" ">
<polygon fill="white" stroke="#666666" points="707,-148.5 572,-148.5 572,-118.5 707,-118.5 707,-148.5"/>
<text text-anchor="start" x="580" y="-136.5" font-family="Helvetica,sans-Serif" font-size="10.00">wmtk::simplex::Simplex</text>
<text text-anchor="middle" x="639.5" y="-125.5" font-family="Helvetica,sans-Serif" font-size="10.00">::tuple</text>
</a>
</g>
</g>
<!-- Node6&#45;&gt;Node7 -->
<g id="edge8_Node000006_Node000007" class="edge">
<title>Node6&#45;&gt;Node7</title>
<g id="a_edge8_Node000006_Node000007"><a xlink:title=" ">
<path fill="none" stroke="#63b8ff" d="M522.24,-133.5C535.03,-133.5 548.44,-133.5 561.42,-133.5"/>
<polygon fill="#63b8ff" stroke="#63b8ff" points="561.71,-137 571.71,-133.5 561.71,-130 561.71,-137"/>
</a>
</g>
</g>
<!-- Node10&#45;&gt;Node9 -->
<g id="edge12_Node000010_Node000009" class="edge">
<title>Node10&#45;&gt;Node9</title>
<g id="a_edge12_Node000010_Node000009"><a xlink:title=" ">
<path fill="none" stroke="#63b8ff" d="M536.25,-18.08C547.15,-19.19 558.21,-20.32 568.84,-21.4"/>
<polygon fill="#63b8ff" stroke="#63b8ff" points="568.57,-24.89 578.88,-22.43 569.28,-17.93 568.57,-24.89"/>
</a>
</g>
</g>
</g>
</svg>
