<?xml version="1.0" encoding="UTF-8" standalone="no"?>
<!DOCTYPE svg PUBLIC "-//W3C//DTD SVG 1.1//EN"
 "http://www.w3.org/Graphics/SVG/1.1/DTD/svg11.dtd">
<!-- Generated by graphviz version 2.43.0 (0)
 -->
<!-- Title: wmtk::operations::EdgeCollapse::EdgeCollapse Pages: 1 -->
<!--zoomable 292 -->
<svg id="main" version="1.1" xmlns="http://www.w3.org/2000/svg" xmlns:xlink="http://www.w3.org/1999/xlink" xml:space="preserve" onload="init(evt)">
<style type="text/css"><![CDATA[
.edge:hover path { stroke: red; }
.edge:hover polygon { stroke: red; fill: red; }
]]></style>
<script type="text/javascript"><![CDATA[
var edges = document.getElementsByTagName('g');
if (edges && edges.length) {
  for (var i=0;i<edges.length;i++) {
    if (edges[i].id.substr(0,4)=='edge') {
      edges[i].setAttribute('class','edge');
    }
  }
}
]]></script>
        <defs>
                <circle id="rim" cx="0" cy="0" r="7"/>
                <circle id="rim2" cx="0" cy="0" r="3.5"/>
                <g id="zoomPlus">
                        <use xlink:href="#rim" fill="#404040">
                                <set attributeName="fill" to="#808080" begin="zoomplus.mouseover" end="zoomplus.mouseout"/>
                        </use>
                        <path d="M-4,0h8M0,-4v8" fill="none" stroke="white" stroke-width="1.5" pointer-events="none"/>
                </g>
                <g id="zoomMin">
                        <use xlink:href="#rim" fill="#404040">
                                <set attributeName="fill" to="#808080" begin="zoomminus.mouseover" end="zoomminus.mouseout"/>
                        </use>
                        <path d="M-4,0h8" fill="none" stroke="white" stroke-width="1.5" pointer-events="none"/>
                </g>
                <g id="dirArrow">
                        <path fill="none" stroke="white" stroke-width="1.5" d="M0,-3.0v7 M-2.5,-0.5L0,-3.0L2.5,-0.5"/>
                </g>
               <g id="resetDef">
                       <use xlink:href="#rim2" fill="#404040">
                               <set attributeName="fill" to="#808080" begin="reset.mouseover" end="reset.mouseout"/>
                       </use>
               </g>
        </defs>

<script type="text/javascript">
var viewWidth = 1181;
var viewHeight = 292;
var sectionId = 'dynsection-2';
</script>
<script xlink:href="svgpan.js"/>
<svg id="graph" class="graph">
<g id="viewport">
<title>wmtk::operations::EdgeCollapse::EdgeCollapse</title>
<!-- Node1 -->
<g id="node1" class="node">
<title>Node1</title>
<g id="a_node1"><a xlink:title=" ">
<polygon fill="#bfbfbf" stroke="black" points="0,-86.5 0,-116.5 174,-116.5 174,-86.5 0,-86.5"/>
<text text-anchor="start" x="8" y="-104.5" font-family="Helvetica,sans-Serif" font-size="10.00">wmtk::operations::EdgeCollapse</text>
<text text-anchor="middle" x="87" y="-93.5" font-family="Helvetica,sans-Serif" font-size="10.00">::EdgeCollapse</text>
</a>
</g>
</g>
<!-- Node2 -->
<g id="node2" class="node">
<title>Node2</title>
<g id="a_node2"><a xlink:href="classwmtk_1_1_mesh.html#a4a590c0a2c7ce5f06703ce15cbf39548" target="_top" xlink:title=" ">
<polygon fill="none" stroke="black" points="230.5,-155.5 230.5,-185.5 349.5,-185.5 349.5,-155.5 230.5,-155.5"/>
<text text-anchor="start" x="238.5" y="-173.5" font-family="Helvetica,sans-Serif" font-size="10.00">wmtk::Mesh::custom</text>
<text text-anchor="middle" x="290" y="-162.5" font-family="Helvetica,sans-Serif" font-size="10.00">_attributes</text>
</a>
</g>
</g>
<!-- Node1&#45;&gt;Node2 -->
<g id="edge1" class="edge">
<title>Node1&#45;&gt;Node2</title>
<path fill="none" stroke="midnightblue" d="M132.11,-116.64C162.48,-127.07 203.01,-140.98 235.27,-152.05"/>
<polygon fill="midnightblue" stroke="midnightblue" points="234.4,-155.46 244.99,-155.39 236.67,-148.84 234.4,-155.46"/>
</g>
<!-- Node10 -->
<g id="node10" class="node">
<title>Node10</title>
<g id="a_node10"><a xlink:href="classwmtk_1_1multimesh_1_1_multi_mesh_visitor.html#a4ae1801ee1021dd57a0ede0444efc2d6" target="_top" xlink:title=" ">
<polygon fill="none" stroke="black" points="210,-86.5 210,-116.5 370,-116.5 370,-86.5 210,-86.5"/>
<text text-anchor="start" x="218" y="-104.5" font-family="Helvetica,sans-Serif" font-size="10.00">wmtk::multimesh::MultiMesh</text>
<text text-anchor="middle" x="290" y="-93.5" font-family="Helvetica,sans-Serif" font-size="10.00">Visitor::execute_from_root</text>
</a>
</g>
</g>
<!-- Node1&#45;&gt;Node10 -->
<g id="edge9" class="edge">
<title>Node1&#45;&gt;Node10</title>
<path fill="none" stroke="midnightblue" d="M174.12,-101.5C182.53,-101.5 191.07,-101.5 199.51,-101.5"/>
<polygon fill="midnightblue" stroke="midnightblue" points="199.74,-105 209.74,-101.5 199.74,-98 199.74,-105"/>
</g>
<!-- Node18 -->
<g id="node18" class="node">
<title>Node18</title>
<g id="a_node18"><a xlink:href="classwmtk_1_1operations_1_1_operation.html#a524a78a76bb262cffcaafdd36afa037b" target="_top" xlink:title=" ">
<polygon fill="none" stroke="black" points="212,-37.5 212,-67.5 368,-67.5 368,-37.5 212,-37.5"/>
<text text-anchor="start" x="220" y="-55.5" font-family="Helvetica,sans-Serif" font-size="10.00">wmtk::operations::Operation</text>
<text text-anchor="middle" x="290" y="-44.5" font-family="Helvetica,sans-Serif" font-size="10.00">::mesh</text>
</a>
</g>
</g>
<!-- Node1&#45;&gt;Node18 -->
<g id="edge19" class="edge">
<title>Node1&#45;&gt;Node18</title>
<path fill="none" stroke="midnightblue" d="M149.67,-86.47C171.09,-81.24 195.28,-75.35 217.43,-69.95"/>
<polygon fill="midnightblue" stroke="midnightblue" points="218.56,-73.28 227.44,-67.51 216.9,-66.47 218.56,-73.28"/>
</g>
<!-- Node3 -->
<g id="node3" class="node">
<title>Node3</title>
<g id="a_node3"><a xlink:href="classwmtk_1_1_mesh.html#abbddf3cf4645eb579d1d4ddc252920b6" target="_top" xlink:title=" ">
<polygon fill="none" stroke="black" points="429.5,-204.5 429.5,-234.5 542.5,-234.5 542.5,-204.5 429.5,-204.5"/>
<text text-anchor="start" x="437.5" y="-222.5" font-family="Helvetica,sans-Serif" font-size="10.00">wmtk::Mesh::builtin</text>
<text text-anchor="middle" x="486" y="-211.5" font-family="Helvetica,sans-Serif" font-size="10.00">_attributes</text>
</a>
</g>
</g>
<!-- Node2&#45;&gt;Node3 -->
<g id="edge2" class="edge">
<title>Node2&#45;&gt;Node3</title>
<path fill="none" stroke="midnightblue" d="M349.73,-185.33C371.79,-190.9 396.98,-197.27 419.6,-202.98"/>
<polygon fill="midnightblue" stroke="midnightblue" points="418.9,-206.42 429.46,-205.47 420.62,-199.63 418.9,-206.42"/>
</g>
<!-- Node8 -->
<g id="node8" class="node">
<title>Node8</title>
<g id="a_node8"><a xlink:href="classwmtk_1_1attribute_1_1_attribute_manager.html#adc4ec8337ed84d995fb0fe90059a6f8b" target="_top" xlink:title=" ">
<polygon fill="none" stroke="black" points="410.5,-155.5 410.5,-185.5 561.5,-185.5 561.5,-155.5 410.5,-155.5"/>
<text text-anchor="start" x="418.5" y="-173.5" font-family="Helvetica,sans-Serif" font-size="10.00">wmtk::attribute::Attribute</text>
<text text-anchor="middle" x="486" y="-162.5" font-family="Helvetica,sans-Serif" font-size="10.00">Manager::get_all_attributes</text>
</a>
</g>
</g>
<!-- Node2&#45;&gt;Node8 -->
<g id="edge7" class="edge">
<title>Node2&#45;&gt;Node8</title>
<path fill="none" stroke="midnightblue" d="M349.73,-170.5C365.53,-170.5 382.93,-170.5 399.85,-170.5"/>
<polygon fill="midnightblue" stroke="midnightblue" points="400.3,-174 410.3,-170.5 400.3,-167 400.3,-174"/>
</g>
<!-- Node4 -->
<g id="node4" class="node">
<title>Node4</title>
<g id="a_node4"><a xlink:href="classwmtk_1_1_mesh.html#aae611243b3b57b86a41c2ee673ef81d7" target="_top" xlink:title="Returns a vector of vectors of attribute handles.">
<polygon fill="none" stroke="black" points="610.5,-253.5 610.5,-283.5 753.5,-283.5 753.5,-253.5 610.5,-253.5"/>
<text text-anchor="start" x="618.5" y="-271.5" font-family="Helvetica,sans-Serif" font-size="10.00">wmtk::Mesh::connectivity</text>
<text text-anchor="middle" x="682" y="-260.5" font-family="Helvetica,sans-Serif" font-size="10.00">_attributes</text>
</a>
</g>
</g>
<!-- Node3&#45;&gt;Node4 -->
<g id="edge3" class="edge">
<title>Node3&#45;&gt;Node4</title>
<path fill="none" stroke="midnightblue" d="M542.59,-233.54C564.05,-238.96 588.84,-245.22 611.45,-250.93"/>
<polygon fill="midnightblue" stroke="midnightblue" points="610.78,-254.37 621.33,-253.43 612.49,-247.59 610.78,-254.37"/>
</g>
<!-- Node5 -->
<g id="node5" class="node">
<title>Node5</title>
<g id="a_node5"><a xlink:href="classwmtk_1_1multimesh_1_1_multi_mesh_manager.html#ab3962ab9a7904e12b10f73f227296072" target="_top" xlink:title=" ">
<polygon fill="none" stroke="black" points="602,-204.5 602,-234.5 762,-234.5 762,-204.5 602,-204.5"/>
<text text-anchor="start" x="610" y="-222.5" font-family="Helvetica,sans-Serif" font-size="10.00">wmtk::multimesh::MultiMesh</text>
<text text-anchor="middle" x="682" y="-211.5" font-family="Helvetica,sans-Serif" font-size="10.00">Manager::map_handles</text>
</a>
</g>
</g>
<!-- Node3&#45;&gt;Node5 -->
<g id="edge4" class="edge">
<title>Node3&#45;&gt;Node5</title>
<path fill="none" stroke="midnightblue" d="M542.59,-219.5C557.89,-219.5 574.88,-219.5 591.57,-219.5"/>
<polygon fill="midnightblue" stroke="midnightblue" points="591.91,-223 601.91,-219.5 591.91,-216 591.91,-223"/>
</g>
<!-- Node6 -->
<g id="node6" class="node">
<title>Node6</title>
<g id="a_node6"><a xlink:href="classwmtk_1_1attribute_1_1_typed_attribute_handle.html#ad473b36dc43489bad4a345dceac443fa" target="_top" xlink:title=" ">
<polygon fill="none" stroke="black" points="798,-204.5 798,-234.5 968,-234.5 968,-204.5 798,-204.5"/>
<text text-anchor="start" x="806" y="-222.5" font-family="Helvetica,sans-Serif" font-size="10.00">wmtk::attribute::TypedAttribute</text>
<text text-anchor="middle" x="883" y="-211.5" font-family="Helvetica,sans-Serif" font-size="10.00">Handle::is_valid</text>
</a>
</g>
</g>
<!-- Node5&#45;&gt;Node6 -->
<g id="edge5" class="edge">
<title>Node5&#45;&gt;Node6</title>
<path fill="none" stroke="midnightblue" d="M762.22,-219.5C770.64,-219.5 779.25,-219.5 787.81,-219.5"/>
<polygon fill="midnightblue" stroke="midnightblue" points="787.83,-223 797.83,-219.5 787.83,-216 787.83,-223"/>
</g>
<!-- Node7 -->
<g id="node7" class="node">
<title>Node7</title>
<g id="a_node7"><a xlink:href="classwmtk_1_1attribute_1_1_attribute_handle.html#ac48d337c6cc95e43c1ecceaacf3dd31d" target="_top" xlink:title=" ">
<polygon fill="none" stroke="black" points="1018,-204.5 1018,-234.5 1159,-234.5 1159,-204.5 1018,-204.5"/>
<text text-anchor="start" x="1026" y="-222.5" font-family="Helvetica,sans-Serif" font-size="10.00">wmtk::attribute::Attribute</text>
<text text-anchor="middle" x="1088.5" y="-211.5" font-family="Helvetica,sans-Serif" font-size="10.00">Handle::is_valid</text>
</a>
</g>
</g>
<!-- Node6&#45;&gt;Node7 -->
<g id="edge6" class="edge">
<title>Node6&#45;&gt;Node7</title>
<path fill="none" stroke="midnightblue" d="M968.24,-219.5C981.27,-219.5 994.69,-219.5 1007.62,-219.5"/>
<polygon fill="midnightblue" stroke="midnightblue" points="1007.87,-223 1017.87,-219.5 1007.87,-216 1007.87,-223"/>
</g>
<!-- Node9 -->
<g id="node9" class="node">
<title>Node9</title>
<g id="a_node9"><a xlink:href="namespacewmtk.html#a3b08a5d7fb42f02c54bae85758b39f59" target="_top" xlink:title="Get the primitive type corresponding to its unique integer id.">
<polygon fill="none" stroke="black" points="624,-155.5 624,-185.5 740,-185.5 740,-155.5 624,-155.5"/>
<text text-anchor="start" x="632" y="-173.5" font-family="Helvetica,sans-Serif" font-size="10.00">wmtk::get_primitive</text>
<text text-anchor="middle" x="682" y="-162.5" font-family="Helvetica,sans-Serif" font-size="10.00">_type_from_id</text>
</a>
</g>
</g>
<!-- Node8&#45;&gt;Node9 -->
<g id="edge8" class="edge">
<title>Node8&#45;&gt;Node9</title>
<path fill="none" stroke="midnightblue" d="M561.73,-170.5C578.79,-170.5 596.82,-170.5 613.55,-170.5"/>
<polygon fill="midnightblue" stroke="midnightblue" points="613.79,-174 623.79,-170.5 613.79,-167 613.79,-174"/>
</g>
<!-- Node11 -->
<g id="node11" class="node">
<title>Node11</title>
<g id="a_node11"><a xlink:href="namespacewmtk_1_1utils_1_1metaprogramming.html#aa5a891c5f82fc2a28e4fbdfc325b46f0" target="_top" xlink:title=" ">
<polygon fill="none" stroke="black" points="1004,-89.5 1004,-119.5 1173,-119.5 1173,-89.5 1004,-89.5"/>
<text text-anchor="start" x="1012" y="-107.5" font-family="Helvetica,sans-Serif" font-size="10.00">wmtk::utils::metaprogramming</text>
<text text-anchor="middle" x="1088.5" y="-96.5" font-family="Helvetica,sans-Serif" font-size="10.00">::as_mesh_variant</text>
</a>
</g>
</g>
<!-- Node10&#45;&gt;Node11 -->
<g id="edge10" class="edge">
<title>Node10&#45;&gt;Node11</title>
<path fill="none" stroke="midnightblue" d="M370.16,-106.17C382.17,-106.72 394.41,-107.2 406,-107.5 655.69,-114.01 718.24,-110.63 968,-107.5 976.35,-107.4 985.03,-107.25 993.73,-107.08"/>
<polygon fill="midnightblue" stroke="midnightblue" points="994.01,-110.57 1003.93,-106.87 993.86,-103.57 994.01,-110.57"/>
</g>
<!-- Node12 -->
<g id="node12" class="node">
<title>Node12</title>
<g id="a_node12"><a xlink:href="classwmtk_1_1multimesh_1_1_multi_mesh_visitor.html#ad96e498fcc27eeb8993f175015c864b4" target="_top" xlink:title=" ">
<polygon fill="none" stroke="black" points="406,-67.5 406,-97.5 566,-97.5 566,-67.5 406,-67.5"/>
<text text-anchor="start" x="414" y="-85.5" font-family="Helvetica,sans-Serif" font-size="10.00">wmtk::multimesh::MultiMesh</text>
<text text-anchor="middle" x="486" y="-74.5" font-family="Helvetica,sans-Serif" font-size="10.00">Visitor::execute_mesh</text>
</a>
</g>
</g>
<!-- Node10&#45;&gt;Node12 -->
<g id="edge11" class="edge">
<title>Node10&#45;&gt;Node12</title>
<path fill="none" stroke="midnightblue" d="M370.19,-93.74C378.62,-92.92 387.24,-92.07 395.78,-91.24"/>
<polygon fill="midnightblue" stroke="midnightblue" points="396.14,-94.72 405.75,-90.26 395.46,-87.75 396.14,-94.72"/>
</g>
<!-- Node15 -->
<g id="node15" class="node">
<title>Node15</title>
<g id="a_node15"><a xlink:href="classwmtk_1_1_mesh.html#aac3ec1ebbe00982ddfe70cc710d8f54e" target="_top" xlink:title="returns a reference to the root of a multimesh tree">
<polygon fill="none" stroke="black" points="421.5,-9.5 421.5,-39.5 550.5,-39.5 550.5,-9.5 421.5,-9.5"/>
<text text-anchor="start" x="429.5" y="-27.5" font-family="Helvetica,sans-Serif" font-size="10.00">wmtk::Mesh::get_multi</text>
<text text-anchor="middle" x="486" y="-16.5" font-family="Helvetica,sans-Serif" font-size="10.00">_mesh_root</text>
</a>
</g>
</g>
<!-- Node10&#45;&gt;Node15 -->
<g id="edge15" class="edge">
<title>Node10&#45;&gt;Node15</title>
<path fill="none" stroke="midnightblue" d="M342.84,-86.38C351.98,-83.35 361.33,-80.01 370,-76.5 386.58,-69.78 389.78,-66.04 406,-58.5 416.68,-53.54 428.28,-48.4 439.22,-43.68"/>
<polygon fill="midnightblue" stroke="midnightblue" points="440.82,-46.8 448.62,-39.64 438.05,-40.37 440.82,-46.8"/>
</g>
<!-- Node13 -->
<g id="node13" class="node">
<title>Node13</title>
<g id="a_node13"><a xlink:href="classwmtk_1_1multimesh_1_1_multi_mesh_visitor_executor.html#ad59739579a81676fc3ab172e80ce8550" target="_top" xlink:title=" ">
<polygon fill="none" stroke="black" points="602,-67.5 602,-97.5 762,-97.5 762,-67.5 602,-67.5"/>
<text text-anchor="start" x="610" y="-85.5" font-family="Helvetica,sans-Serif" font-size="10.00">wmtk::multimesh::MultiMesh</text>
<text text-anchor="middle" x="682" y="-74.5" font-family="Helvetica,sans-Serif" font-size="10.00">VisitorExecutor::execute</text>
</a>
</g>
</g>
<!-- Node12&#45;&gt;Node13 -->
<g id="edge12" class="edge">
<title>Node12&#45;&gt;Node13</title>
<path fill="none" stroke="midnightblue" d="M566.19,-82.5C574.53,-82.5 583.05,-82.5 591.5,-82.5"/>
<polygon fill="midnightblue" stroke="midnightblue" points="591.75,-86 601.75,-82.5 591.75,-79 591.75,-86"/>
</g>
<!-- Node14 -->
<g id="node14" class="node">
<title>Node14</title>
<g id="a_node14"><a xlink:href="classwmtk_1_1multimesh_1_1_multi_mesh_visitor_executor.html#a6e0ef7ccec71b521a3bc5eb5df90bef0" target="_top" xlink:title=" ">
<polygon fill="none" stroke="black" points="803,-67.5 803,-97.5 963,-97.5 963,-67.5 803,-67.5"/>
<text text-anchor="start" x="811" y="-85.5" font-family="Helvetica,sans-Serif" font-size="10.00">wmtk::multimesh::MultiMesh</text>
<text text-anchor="middle" x="883" y="-74.5" font-family="Helvetica,sans-Serif" font-size="10.00">VisitorExecutor::run</text>
</a>
</g>
</g>
<!-- Node13&#45;&gt;Node14 -->
<g id="edge13" class="edge">
<title>Node13&#45;&gt;Node14</title>
<path fill="none" stroke="midnightblue" d="M762.22,-82.5C772.22,-82.5 782.5,-82.5 792.65,-82.5"/>
<polygon fill="midnightblue" stroke="midnightblue" points="792.73,-86 802.73,-82.5 792.73,-79 792.73,-86"/>
</g>
<!-- Node14&#45;&gt;Node11 -->
<g id="edge14" class="edge">
<title>Node14&#45;&gt;Node11</title>
<path fill="none" stroke="midnightblue" d="M963.26,-91.07C973.22,-92.15 983.48,-93.26 993.64,-94.35"/>
<polygon fill="midnightblue" stroke="midnightblue" points="993.43,-97.85 1003.75,-95.45 994.18,-90.89 993.43,-97.85"/>
</g>
<!-- Node16 -->
<g id="node16" class="node">
<title>Node16</title>
<g id="a_node16"><a xlink:href="classwmtk_1_1multimesh_1_1_multi_mesh_manager.html#a434e74f6b295055a45914d41a784124a" target="_top" xlink:title=" ">
<polygon fill="none" stroke="black" points="602,-0.5 602,-30.5 762,-30.5 762,-0.5 602,-0.5"/>
<text text-anchor="start" x="610" y="-18.5" font-family="Helvetica,sans-Serif" font-size="10.00">wmtk::multimesh::MultiMesh</text>
<text text-anchor="middle" x="682" y="-7.5" font-family="Helvetica,sans-Serif" font-size="10.00">Manager::get_root_mesh</text>
</a>
</g>
</g>
<!-- Node15&#45;&gt;Node16 -->
<g id="edge16" class="edge">
<title>Node15&#45;&gt;Node16</title>
<path fill="none" stroke="midnightblue" d="M550.52,-21.55C563.68,-20.94 577.78,-20.29 591.67,-19.64"/>
<polygon fill="midnightblue" stroke="midnightblue" points="591.9,-23.14 601.73,-19.18 591.57,-16.14 591.9,-23.14"/>
</g>
<!-- Node16&#45;&gt;Node16 -->
<g id="edge17" class="edge">
<title>Node16&#45;&gt;Node16</title>
<path fill="none" stroke="midnightblue" d="M647.84,-30.66C639.61,-40.06 650.99,-49 682,-49 700.9,-49 712.5,-45.68 716.83,-40.96"/>
<polygon fill="midnightblue" stroke="midnightblue" points="720.3,-40.41 716.16,-30.66 713.31,-40.87 720.3,-40.41"/>
</g>
<!-- Node17 -->
<g id="node17" class="node">
<title>Node17</title>
<g id="a_node17"><a xlink:href="classwmtk_1_1multimesh_1_1_multi_mesh_manager.html#a7d39339adb56b1798fe817d81bfcc67c" target="_top" xlink:title="Specifies whether this structure is the root of a multi&#45;mesh tree.">
<polygon fill="none" stroke="black" points="803,-0.5 803,-30.5 963,-30.5 963,-0.5 803,-0.5"/>
<text text-anchor="start" x="811" y="-18.5" font-family="Helvetica,sans-Serif" font-size="10.00">wmtk::multimesh::MultiMesh</text>
<text text-anchor="middle" x="883" y="-7.5" font-family="Helvetica,sans-Serif" font-size="10.00">Manager::is_root</text>
</a>
</g>
</g>
<!-- Node16&#45;&gt;Node17 -->
<g id="edge18" class="edge">
<title>Node16&#45;&gt;Node17</title>
<path fill="none" stroke="midnightblue" d="M762.22,-15.5C772.22,-15.5 782.5,-15.5 792.65,-15.5"/>
<polygon fill="midnightblue" stroke="midnightblue" points="792.73,-19 802.73,-15.5 792.73,-12 792.73,-19"/>
</g>
</g>
</svg>
        <g id="navigator" transform="translate(0 0)" fill="#404254">
                <rect fill="#f2f5e9" fill-opacity="0.5" stroke="#606060" stroke-width=".5" x="0" y="0" width="60" height="60"/>
                <use id="zoomplus" xlink:href="#zoomPlus" x="17" y="9" onmousedown="handleZoom(evt,'in')"/>
                <use id="zoomminus" xlink:href="#zoomMin" x="42" y="9" onmousedown="handleZoom(evt,'out')"/>
                <use id="reset" xlink:href="#resetDef" x="30" y="36" onmousedown="handleReset()"/>
                <g id="arrowUp" xlink:href="#dirArrow" transform="translate(30 24)" onmousedown="handlePan(0,-1)">
                  <use xlink:href="#rim" fill="#404040">
                        <set attributeName="fill" to="#808080" begin="arrowUp.mouseover" end="arrowUp.mouseout"/>
                  </use>
                  <path fill="none" stroke="white" stroke-width="1.5" d="M0,-3.0v7 M-2.5,-0.5L0,-3.0L2.5,-0.5"/>
                </g>
                <g id="arrowRight" xlink:href="#dirArrow" transform="rotate(90) translate(36 -43)" onmousedown="handlePan(1,0)">
                  <use xlink:href="#rim" fill="#404040">
                        <set attributeName="fill" to="#808080" begin="arrowRight.mouseover" end="arrowRight.mouseout"/>
                  </use>
                  <path fill="none" stroke="white" stroke-width="1.5" d="M0,-3.0v7 M-2.5,-0.5L0,-3.0L2.5,-0.5"/>
                </g>
                <g id="arrowDown" xlink:href="#dirArrow" transform="rotate(180) translate(-30 -48)" onmousedown="handlePan(0,1)">
                  <use xlink:href="#rim" fill="#404040">
                        <set attributeName="fill" to="#808080" begin="arrowDown.mouseover" end="arrowDown.mouseout"/>
                  </use>
                  <path fill="none" stroke="white" stroke-width="1.5" d="M0,-3.0v7 M-2.5,-0.5L0,-3.0L2.5,-0.5"/>
                </g>
                <g id="arrowLeft" xlink:href="#dirArrow" transform="rotate(270) translate(-36 17)" onmousedown="handlePan(-1,0)">
                  <use xlink:href="#rim" fill="#404040">
                        <set attributeName="fill" to="#808080" begin="arrowLeft.mouseover" end="arrowLeft.mouseout"/>
                  </use>
                  <path fill="none" stroke="white" stroke-width="1.5" d="M0,-3.0v7 M-2.5,-0.5L0,-3.0L2.5,-0.5"/>
                </g>
        </g>
        <svg viewBox="0 0 15 15" width="100%" height="30px" preserveAspectRatio="xMaxYMin meet">
         <g id="arrow_out" transform="scale(0.3 0.3)">
          <a xlink:href="classwmtk_1_1operations_1_1_edge_collapse_a64450fa42ff00ebaba65ddca6e94c605_cgraph_org.svg" target="_base">
           <rect id="button" ry="5" rx="5" y="6" x="6" height="38" width="38"
                fill="#f2f5e9" fill-opacity="0.5" stroke="#606060" stroke-width="1.0"/>
           <path id="arrow"
             d="M 11.500037,31.436501 C 11.940474,20.09759 22.043105,11.32322 32.158766,21.979434 L 37.068811,17.246167 C 37.068811,17.246167 37.088388,32 37.088388,32 L 22.160133,31.978069 C 22.160133,31.978069 26.997745,27.140456 26.997745,27.140456 C 18.528582,18.264221 13.291696,25.230495 11.500037,31.436501 z"
             style="fill:#404040;"/>
          </a>
         </g>
        </svg>
</svg>
