<?xml version="1.0" encoding="UTF-8" standalone="no"?>
<!DOCTYPE svg PUBLIC "-//W3C//DTD SVG 1.1//EN"
 "http://www.w3.org/Graphics/SVG/1.1/DTD/svg11.dtd">
<!-- Generated by graphviz version 2.43.0 (0)
 -->
<!-- Title: wmtk::Mesh::can_map Pages: 1 -->
<svg width="2187pt" height="499pt"
 viewBox="0.00 0.00 2187.00 499.00" xmlns="http://www.w3.org/2000/svg" xmlns:xlink="http://www.w3.org/1999/xlink">
<g id="graph0" class="graph" transform="scale(1 1) rotate(0) translate(4 495)">
<title>wmtk::Mesh::can_map</title>
<!-- Node1 -->
<g id="node1" class="node">
<title>Node1</title>
<g id="a_node1"><a xlink:title=" ">
<polygon fill="#bfbfbf" stroke="black" points="0,-201.5 0,-220.5 127,-220.5 127,-201.5 0,-201.5"/>
<text text-anchor="middle" x="63.5" y="-208.5" font-family="Helvetica,sans-Serif" font-size="10.00">wmtk::Mesh::can_map</text>
</a>
</g>
</g>
<!-- Node2 -->
<g id="node2" class="node">
<title>Node2</title>
<g id="a_node2"><a xlink:href="classwmtk_1_1_multi_mesh_manager.html#a796825608494ebb29802021b875d643d" target="_top" xlink:title=" ">
<polygon fill="none" stroke="black" points="171.5,-172 171.5,-202 315.5,-202 315.5,-172 171.5,-172"/>
<text text-anchor="start" x="179.5" y="-190" font-family="Helvetica,sans-Serif" font-size="10.00">wmtk::MultiMeshManager</text>
<text text-anchor="middle" x="243.5" y="-179" font-family="Helvetica,sans-Serif" font-size="10.00">::can_map</text>
</a>
</g>
</g>
<!-- Node1&#45;&gt;Node2 -->
<g id="edge1" class="edge">
<title>Node1&#45;&gt;Node2</title>
<path fill="none" stroke="midnightblue" d="M127.01,-202.57C138.09,-201.08 149.77,-199.5 161.27,-197.95"/>
<polygon fill="midnightblue" stroke="midnightblue" points="161.88,-201.4 171.32,-196.6 160.94,-194.46 161.88,-201.4"/>
</g>
<!-- Node39 -->
<g id="node39" class="node">
<title>Node39</title>
<g id="a_node39"><a xlink:href="classwmtk_1_1_mesh.html#ad054c074d4776010002321117ec459e8" target="_top" xlink:title=" ">
<polygon fill="none" stroke="black" points="163,-221 163,-251 324,-251 324,-221 163,-221"/>
<text text-anchor="start" x="171" y="-239" font-family="Helvetica,sans-Serif" font-size="10.00">wmtk::Mesh::is_from</text>
<text text-anchor="middle" x="243.5" y="-228" font-family="Helvetica,sans-Serif" font-size="10.00">_same_multi_mesh_structure</text>
</a>
</g>
</g>
<!-- Node1&#45;&gt;Node39 -->
<g id="edge56" class="edge">
<title>Node1&#45;&gt;Node39</title>
<path fill="none" stroke="midnightblue" d="M127.01,-219.78C135.45,-220.96 144.24,-222.2 153.04,-223.44"/>
<polygon fill="midnightblue" stroke="midnightblue" points="152.57,-226.9 162.96,-224.83 153.54,-219.97 152.57,-226.9"/>
</g>
<!-- Node3 -->
<g id="node3" class="node">
<title>Node3</title>
<g id="a_node3"><a xlink:href="classwmtk_1_1_multi_mesh_manager.html#adc1bcc9bac09b0462f88b04e1026b1b6" target="_top" xlink:title=" ">
<polygon fill="none" stroke="black" points="360,-124 360,-154 504,-154 504,-124 360,-124"/>
<text text-anchor="start" x="368" y="-142" font-family="Helvetica,sans-Serif" font-size="10.00">wmtk::MultiMeshManager</text>
<text text-anchor="middle" x="432" y="-131" font-family="Helvetica,sans-Serif" font-size="10.00">::can_map_child</text>
</a>
</g>
</g>
<!-- Node2&#45;&gt;Node3 -->
<g id="edge2" class="edge">
<title>Node2&#45;&gt;Node3</title>
<path fill="none" stroke="midnightblue" d="M303,-171.94C322.01,-167.05 343.26,-161.58 362.91,-156.52"/>
<polygon fill="midnightblue" stroke="midnightblue" points="363.9,-159.88 372.71,-154 362.15,-153.11 363.9,-159.88"/>
</g>
<!-- Node27 -->
<g id="node27" class="node">
<title>Node27</title>
<g id="a_node27"><a xlink:href="classwmtk_1_1simplex_1_1_simplex.html#ad2cc0340a0772b7d6f03ba7a781d1163" target="_top" xlink:title=" ">
<polygon fill="none" stroke="black" points="1330.5,-41 1330.5,-71 1465.5,-71 1465.5,-41 1330.5,-41"/>
<text text-anchor="start" x="1338.5" y="-59" font-family="Helvetica,sans-Serif" font-size="10.00">wmtk::simplex::Simplex</text>
<text text-anchor="middle" x="1398" y="-48" font-family="Helvetica,sans-Serif" font-size="10.00">::primitive_type</text>
</a>
</g>
</g>
<!-- Node2&#45;&gt;Node27 -->
<g id="edge55" class="edge">
<title>Node2&#45;&gt;Node27</title>
<path fill="none" stroke="midnightblue" d="M260.52,-171.7C309.03,-127.04 460.28,0 611,0 611,0 611,0 995.5,0 1109.56,0 1240.12,-22.44 1320.57,-38.91"/>
<polygon fill="midnightblue" stroke="midnightblue" points="1320.11,-42.39 1330.62,-40.99 1321.53,-35.54 1320.11,-42.39"/>
</g>
<!-- Node35 -->
<g id="node35" class="node">
<title>Node35</title>
<g id="a_node35"><a xlink:href="classwmtk_1_1_mesh.html#aac3ec1ebbe00982ddfe70cc710d8f54e" target="_top" xlink:title="returns a reference to the root of a multimesh tree">
<polygon fill="none" stroke="black" points="367.5,-221 367.5,-251 496.5,-251 496.5,-221 367.5,-221"/>
<text text-anchor="start" x="375.5" y="-239" font-family="Helvetica,sans-Serif" font-size="10.00">wmtk::Mesh::get_multi</text>
<text text-anchor="middle" x="432" y="-228" font-family="Helvetica,sans-Serif" font-size="10.00">_mesh_root</text>
</a>
</g>
</g>
<!-- Node2&#45;&gt;Node35 -->
<g id="edge46" class="edge">
<title>Node2&#45;&gt;Node35</title>
<path fill="none" stroke="midnightblue" d="M301.72,-202.03C321.42,-207.21 343.64,-213.05 364.04,-218.41"/>
<polygon fill="midnightblue" stroke="midnightblue" points="363.32,-221.84 373.88,-220.99 365.1,-215.07 363.32,-221.84"/>
</g>
<!-- Node37 -->
<g id="node37" class="node">
<title>Node37</title>
<g id="a_node37"><a xlink:href="classwmtk_1_1_multi_mesh_manager.html#a86c85dc53862442b20c2b4ace8997c8a" target="_top" xlink:title="maps a simplex from this mesh to the root mesh">
<polygon fill="none" stroke="black" points="360,-371 360,-401 504,-401 504,-371 360,-371"/>
<text text-anchor="start" x="368" y="-389" font-family="Helvetica,sans-Serif" font-size="10.00">wmtk::MultiMeshManager</text>
<text text-anchor="middle" x="432" y="-378" font-family="Helvetica,sans-Serif" font-size="10.00">::map_to_root_tuple</text>
</a>
</g>
</g>
<!-- Node2&#45;&gt;Node37 -->
<g id="edge50" class="edge">
<title>Node2&#45;&gt;Node37</title>
<path fill="none" stroke="midnightblue" d="M307.83,-202.18C313.59,-204.93 319.09,-208.18 324,-212 337.55,-222.56 391.86,-316.77 417.49,-361.99"/>
<polygon fill="midnightblue" stroke="midnightblue" points="414.53,-363.87 422.5,-370.85 420.62,-360.42 414.53,-363.87"/>
</g>
<!-- Node4 -->
<g id="node4" class="node">
<title>Node4</title>
<g id="a_node4"><a xlink:href="classwmtk_1_1_multi_mesh_manager.html#a4858de0134bb52c525db4a99d341fa86" target="_top" xlink:title=" ">
<polygon fill="none" stroke="black" points="726,-105 726,-135 870,-135 870,-105 726,-105"/>
<text text-anchor="start" x="734" y="-123" font-family="Helvetica,sans-Serif" font-size="10.00">wmtk::MultiMeshManager</text>
<text text-anchor="middle" x="798" y="-112" font-family="Helvetica,sans-Serif" font-size="10.00">::absolute_id</text>
</a>
</g>
</g>
<!-- Node3&#45;&gt;Node4 -->
<g id="edge3" class="edge">
<title>Node3&#45;&gt;Node4</title>
<path fill="none" stroke="midnightblue" d="M504.05,-135.29C564.7,-132.13 651.95,-127.57 715.45,-124.26"/>
<polygon fill="midnightblue" stroke="midnightblue" points="716.02,-127.73 725.82,-123.72 715.65,-120.74 716.02,-127.73"/>
</g>
<!-- Node6 -->
<g id="node6" class="node">
<title>Node6</title>
<g id="a_node6"><a xlink:href="classwmtk_1_1_mesh.html#a2102fdea06a0c543437e67d77aeb2013" target="_top" xlink:title="returns a unique identifier for this mesh within a single multimesh structure">
<polygon fill="none" stroke="black" points="549.5,-146 549.5,-176 674.5,-176 674.5,-146 549.5,-146"/>
<text text-anchor="start" x="557.5" y="-164" font-family="Helvetica,sans-Serif" font-size="10.00">wmtk::Mesh::absolute</text>
<text text-anchor="middle" x="612" y="-153" font-family="Helvetica,sans-Serif" font-size="10.00">_multi_mesh_id</text>
</a>
</g>
</g>
<!-- Node3&#45;&gt;Node6 -->
<g id="edge6" class="edge">
<title>Node3&#45;&gt;Node6</title>
<path fill="none" stroke="midnightblue" d="M504.12,-147.79C515.73,-149.22 527.76,-150.71 539.38,-152.15"/>
<polygon fill="midnightblue" stroke="midnightblue" points="539.11,-155.64 549.47,-153.39 539.97,-148.69 539.11,-155.64"/>
</g>
<!-- Node7 -->
<g id="node7" class="node">
<title>Node7</title>
<g id="a_node7"><a xlink:href="classwmtk_1_1_multi_mesh_manager.html#a3b5aceb8f1b3a1d0328489811ac489d7" target="_top" xlink:title=" ">
<polygon fill="none" stroke="black" points="540,-205 540,-235 684,-235 684,-205 540,-205"/>
<text text-anchor="start" x="548" y="-223" font-family="Helvetica,sans-Serif" font-size="10.00">wmtk::MultiMeshManager</text>
<text text-anchor="middle" x="612" y="-212" font-family="Helvetica,sans-Serif" font-size="10.00">::map_up_to_tuples</text>
</a>
</g>
</g>
<!-- Node3&#45;&gt;Node7 -->
<g id="edge8" class="edge">
<title>Node3&#45;&gt;Node7</title>
<path fill="none" stroke="midnightblue" d="M466.06,-154.05C494.95,-167.19 537.05,-186.35 568.44,-200.63"/>
<polygon fill="midnightblue" stroke="midnightblue" points="567.26,-203.94 577.81,-204.9 570.16,-197.57 567.26,-203.94"/>
</g>
<!-- Node3&#45;&gt;Node27 -->
<g id="edge44" class="edge">
<title>Node3&#45;&gt;Node27</title>
<path fill="none" stroke="midnightblue" d="M464.8,-123.88C527.07,-95.7 670.1,-38 797,-38 797,-38 797,-38 995.5,-38 1108.58,-38 1239.4,-45.21 1320.18,-50.51"/>
<polygon fill="midnightblue" stroke="midnightblue" points="1320.05,-54.01 1330.26,-51.18 1320.52,-47.02 1320.05,-54.01"/>
</g>
<!-- Node30 -->
<g id="node30" class="node">
<title>Node30</title>
<g id="a_node30"><a xlink:href="classwmtk_1_1_mesh.html#abaf00438d0700358b160e310d69725c9" target="_top" xlink:title=" ">
<polygon fill="none" stroke="black" points="1113,-112.5 1113,-131.5 1283,-131.5 1283,-112.5 1113,-112.5"/>
<text text-anchor="middle" x="1198" y="-119.5" font-family="Helvetica,sans-Serif" font-size="10.00">wmtk::Mesh::top_simplex_type</text>
</a>
</g>
</g>
<!-- Node3&#45;&gt;Node30 -->
<g id="edge45" class="edge">
<title>Node3&#45;&gt;Node30</title>
<path fill="none" stroke="midnightblue" d="M504.06,-127.57C516.05,-125.68 528.38,-123.76 540,-122 619.92,-109.88 639.38,-101.79 720,-96 789.16,-91.03 806.72,-93.2 876,-96 952.49,-99.09 1038.99,-106.32 1102.91,-112.36"/>
<polygon fill="midnightblue" stroke="midnightblue" points="1102.68,-115.86 1112.97,-113.32 1103.35,-108.89 1102.68,-115.86"/>
</g>
<!-- Node4&#45;&gt;Node4 -->
<g id="edge4" class="edge">
<title>Node4&#45;&gt;Node4</title>
<path fill="none" stroke="midnightblue" d="M765.59,-135.16C757.77,-144.56 768.57,-153.5 798,-153.5 815.93,-153.5 826.95,-150.18 831.05,-145.46"/>
<polygon fill="midnightblue" stroke="midnightblue" points="834.52,-144.92 830.41,-135.16 827.54,-145.36 834.52,-144.92"/>
</g>
<!-- Node5 -->
<g id="node5" class="node">
<title>Node5</title>
<g id="a_node5"><a xlink:href="classwmtk_1_1_multi_mesh_manager.html#a5a5a2de96e603563ab7054e8666395b7" target="_top" xlink:title="Specifies whether this structure is the root of a multi&#45;mesh tree.">
<polygon fill="none" stroke="black" points="922.5,-287 922.5,-317 1066.5,-317 1066.5,-287 922.5,-287"/>
<text text-anchor="start" x="930.5" y="-305" font-family="Helvetica,sans-Serif" font-size="10.00">wmtk::MultiMeshManager</text>
<text text-anchor="middle" x="994.5" y="-294" font-family="Helvetica,sans-Serif" font-size="10.00">::is_root</text>
</a>
</g>
</g>
<!-- Node4&#45;&gt;Node5 -->
<g id="edge5" class="edge">
<title>Node4&#45;&gt;Node5</title>
<path fill="none" stroke="midnightblue" d="M815.25,-135.2C849.66,-167.4 929.99,-242.57 970,-280.01"/>
<polygon fill="midnightblue" stroke="midnightblue" points="967.74,-282.69 977.43,-286.97 972.52,-277.58 967.74,-282.69"/>
</g>
<!-- Node6&#45;&gt;Node4 -->
<g id="edge7" class="edge">
<title>Node6&#45;&gt;Node4</title>
<path fill="none" stroke="midnightblue" d="M674.53,-147.29C689.01,-144.06 704.63,-140.58 719.71,-137.22"/>
<polygon fill="midnightblue" stroke="midnightblue" points="720.52,-140.63 729.52,-135.04 719,-133.8 720.52,-140.63"/>
</g>
<!-- Node7&#45;&gt;Node5 -->
<g id="edge9" class="edge">
<title>Node7&#45;&gt;Node5</title>
<path fill="none" stroke="midnightblue" d="M682.79,-235.04C748.12,-249.12 845.65,-270.14 913.97,-284.86"/>
<polygon fill="midnightblue" stroke="midnightblue" points="913.32,-288.3 923.83,-286.99 914.79,-281.46 913.32,-288.3"/>
</g>
<!-- Node8 -->
<g id="node8" class="node">
<title>Node8</title>
<g id="a_node8"><a xlink:href="classwmtk_1_1_multi_mesh_manager.html#a53c699292af8c1357213e8057ad83c69" target="_top" xlink:title=" ">
<polygon fill="none" stroke="black" points="720,-393 720,-423 876,-423 876,-393 720,-393"/>
<text text-anchor="start" x="728" y="-411" font-family="Helvetica,sans-Serif" font-size="10.00">wmtk::MultiMeshManager</text>
<text text-anchor="middle" x="798" y="-400" font-family="Helvetica,sans-Serif" font-size="10.00">::map_tuple_to_parent_tuple</text>
</a>
</g>
</g>
<!-- Node7&#45;&gt;Node8 -->
<g id="edge10" class="edge">
<title>Node7&#45;&gt;Node8</title>
<path fill="none" stroke="midnightblue" d="M624.71,-235.38C643.59,-259.75 682.42,-308.25 720,-345 735.21,-359.88 753.61,-375.02 768.61,-386.74"/>
<polygon fill="midnightblue" stroke="midnightblue" points="766.5,-389.53 776.55,-392.87 770.78,-383.99 766.5,-389.53"/>
</g>
<!-- Node7&#45;&gt;Node27 -->
<g id="edge42" class="edge">
<title>Node7&#45;&gt;Node27</title>
<path fill="none" stroke="midnightblue" d="M684.03,-205.3C737.04,-194.16 811.19,-178.22 876,-163 981.78,-138.16 1006.64,-125.22 1113,-103 1182.8,-88.42 1263.02,-75.49 1320.36,-66.9"/>
<polygon fill="midnightblue" stroke="midnightblue" points="1321.05,-70.34 1330.43,-65.4 1320.02,-63.41 1321.05,-70.34"/>
</g>
<!-- Node29 -->
<g id="node29" class="node">
<title>Node29</title>
<g id="a_node29"><a xlink:href="classwmtk_1_1simplex_1_1_simplex.html#a3650fd31ff1864285502dba66db3c73c" target="_top" xlink:title=" ">
<polygon fill="none" stroke="black" points="1330.5,-246 1330.5,-276 1465.5,-276 1465.5,-246 1330.5,-246"/>
<text text-anchor="start" x="1338.5" y="-264" font-family="Helvetica,sans-Serif" font-size="10.00">wmtk::simplex::Simplex</text>
<text text-anchor="middle" x="1398" y="-253" font-family="Helvetica,sans-Serif" font-size="10.00">::tuple</text>
</a>
</g>
</g>
<!-- Node7&#45;&gt;Node29 -->
<g id="edge43" class="edge">
<title>Node7&#45;&gt;Node29</title>
<path fill="none" stroke="midnightblue" d="M684.3,-223.73C831.62,-231.43 1168.47,-249.05 1320.29,-256.99"/>
<polygon fill="midnightblue" stroke="midnightblue" points="1320.29,-260.49 1330.46,-257.52 1320.66,-253.5 1320.29,-260.49"/>
</g>
<!-- Node8&#45;&gt;Node5 -->
<g id="edge15" class="edge">
<title>Node8&#45;&gt;Node5</title>
<path fill="none" stroke="midnightblue" d="M844.46,-392.95C855.1,-388.71 866.19,-383.68 876,-378 893.78,-367.71 895.05,-360.61 912,-349 925.93,-339.46 941.89,-329.96 955.98,-322.03"/>
<polygon fill="midnightblue" stroke="midnightblue" points="957.89,-324.97 964.93,-317.05 954.49,-318.85 957.89,-324.97"/>
</g>
<!-- Node9 -->
<g id="node9" class="node">
<title>Node9</title>
<g id="a_node9"><a xlink:href="classwmtk_1_1_mesh.html#a8a5ee2526671002bd91f2b7182b92af6" target="_top" xlink:title=" ">
<polygon fill="none" stroke="black" points="1863,-341 1863,-371 1976,-371 1976,-341 1863,-341"/>
<text text-anchor="start" x="1871" y="-359" font-family="Helvetica,sans-Serif" font-size="10.00">wmtk::Mesh::create</text>
<text text-anchor="middle" x="1919.5" y="-348" font-family="Helvetica,sans-Serif" font-size="10.00">_accessor</text>
</a>
</g>
</g>
<!-- Node8&#45;&gt;Node9 -->
<g id="edge11" class="edge">
<title>Node8&#45;&gt;Node9</title>
<path fill="none" stroke="midnightblue" d="M841.97,-423.03C914.29,-446.95 1065.36,-491 1197,-491 1197,-491 1197,-491 1588,-491 1707.14,-491 1833.69,-414.89 1889.36,-376.97"/>
<polygon fill="midnightblue" stroke="midnightblue" points="1891.44,-379.79 1897.67,-371.22 1887.46,-374.03 1891.44,-379.79"/>
</g>
<!-- Node13 -->
<g id="node13" class="node">
<title>Node13</title>
<g id="a_node13"><a xlink:href="classwmtk_1_1_multi_mesh_manager.html#a65f099e4a57a0f5e5dd4304ee2eb7cb1" target="_top" xlink:title=" ">
<polygon fill="none" stroke="black" points="912,-358 912,-388 1077,-388 1077,-358 912,-358"/>
<text text-anchor="start" x="920" y="-376" font-family="Helvetica,sans-Serif" font-size="10.00">wmtk::MultiMeshManager</text>
<text text-anchor="middle" x="994.5" y="-365" font-family="Helvetica,sans-Serif" font-size="10.00">::map_tuple_between_meshes</text>
</a>
</g>
</g>
<!-- Node8&#45;&gt;Node13 -->
<g id="edge16" class="edge">
<title>Node8&#45;&gt;Node13</title>
<path fill="none" stroke="midnightblue" d="M876.15,-394.12C884.61,-392.59 893.29,-391.03 901.9,-389.48"/>
<polygon fill="midnightblue" stroke="midnightblue" points="902.75,-392.89 911.97,-387.67 901.51,-386 902.75,-392.89"/>
</g>
<!-- Node10 -->
<g id="node10" class="node">
<title>Node10</title>
<g id="a_node10"><a xlink:href="classwmtk_1_1attribute_1_1_mesh_attribute_handle.html#ac326961f01b9ba4fec395827f15a7ef2" target="_top" xlink:title=" ">
<polygon fill="none" stroke="black" points="2012,-268 2012,-298 2179,-298 2179,-268 2012,-268"/>
<text text-anchor="start" x="2020" y="-286" font-family="Helvetica,sans-Serif" font-size="10.00">wmtk::attribute::MeshAttribute</text>
<text text-anchor="middle" x="2095.5" y="-275" font-family="Helvetica,sans-Serif" font-size="10.00">Handle::as</text>
</a>
</g>
</g>
<!-- Node9&#45;&gt;Node10 -->
<g id="edge12" class="edge">
<title>Node9&#45;&gt;Node10</title>
<path fill="none" stroke="midnightblue" d="M1957.96,-340.9C1964.08,-338.12 1970.28,-335.11 1976,-332 1992.89,-322.81 1994.61,-316.21 2012,-308 2016.91,-305.68 2022.08,-303.52 2027.34,-301.52"/>
<polygon fill="midnightblue" stroke="midnightblue" points="2028.65,-304.77 2036.87,-298.08 2026.28,-298.18 2028.65,-304.77"/>
</g>
<!-- Node11 -->
<g id="node11" class="node">
<title>Node11</title>
<g id="a_node11"><a xlink:href="classwmtk_1_1attribute_1_1_mesh_attribute_handle.html#a2b86caeb22b007b85b138ebc6b0ed837" target="_top" xlink:title=" ">
<polygon fill="none" stroke="black" points="2012,-366 2012,-396 2179,-396 2179,-366 2012,-366"/>
<text text-anchor="start" x="2020" y="-384" font-family="Helvetica,sans-Serif" font-size="10.00">wmtk::attribute::MeshAttribute</text>
<text text-anchor="middle" x="2095.5" y="-373" font-family="Helvetica,sans-Serif" font-size="10.00">Handle::holds</text>
</a>
</g>
</g>
<!-- Node9&#45;&gt;Node11 -->
<g id="edge13" class="edge">
<title>Node9&#45;&gt;Node11</title>
<path fill="none" stroke="midnightblue" d="M1976.03,-363.98C1984.34,-365.17 1993.1,-366.43 2001.93,-367.7"/>
<polygon fill="midnightblue" stroke="midnightblue" points="2001.51,-371.18 2011.91,-369.13 2002.51,-364.25 2001.51,-371.18"/>
</g>
<!-- Node12 -->
<g id="node12" class="node">
<title>Node12</title>
<g id="a_node12"><a xlink:href="classwmtk_1_1attribute_1_1_mesh_attribute_handle.html#a620620d54776b2c5f4f9cebad465cfa7" target="_top" xlink:title=" ">
<polygon fill="none" stroke="black" points="2012,-317 2012,-347 2179,-347 2179,-317 2012,-317"/>
<text text-anchor="start" x="2020" y="-335" font-family="Helvetica,sans-Serif" font-size="10.00">wmtk::attribute::MeshAttribute</text>
<text text-anchor="middle" x="2095.5" y="-324" font-family="Helvetica,sans-Serif" font-size="10.00">Handle::mesh</text>
</a>
</g>
</g>
<!-- Node9&#45;&gt;Node12 -->
<g id="edge14" class="edge">
<title>Node9&#45;&gt;Node12</title>
<path fill="none" stroke="midnightblue" d="M1976.03,-348.34C1984.34,-347.19 1993.1,-345.99 2001.93,-344.77"/>
<polygon fill="midnightblue" stroke="midnightblue" points="2002.48,-348.23 2011.91,-343.39 2001.52,-341.29 2002.48,-348.23"/>
</g>
<!-- Node14 -->
<g id="node14" class="node">
<title>Node14</title>
<g id="a_node14"><a xlink:href="namespacewmtk_1_1multimesh_1_1utils.html#a8f0a6c05e27c92d2d4ac453971f52749" target="_top" xlink:title=" ">
<polygon fill="none" stroke="black" points="1123.5,-380 1123.5,-410 1272.5,-410 1272.5,-380 1123.5,-380"/>
<text text-anchor="start" x="1131.5" y="-398" font-family="Helvetica,sans-Serif" font-size="10.00">wmtk::multimesh::utils</text>
<text text-anchor="middle" x="1198" y="-387" font-family="Helvetica,sans-Serif" font-size="10.00">::read_tuple_map_attribute</text>
</a>
</g>
</g>
<!-- Node13&#45;&gt;Node14 -->
<g id="edge17" class="edge">
<title>Node13&#45;&gt;Node14</title>
<path fill="none" stroke="midnightblue" d="M1077.17,-381.92C1089.1,-383.22 1101.4,-384.56 1113.37,-385.87"/>
<polygon fill="midnightblue" stroke="midnightblue" points="1113.01,-389.35 1123.33,-386.96 1113.77,-382.39 1113.01,-389.35"/>
</g>
<!-- Node19 -->
<g id="node19" class="node">
<title>Node19</title>
<g id="a_node19"><a xlink:href="classwmtk_1_1_mesh.html#a6ca480b3f16ac2aadc9887c42748e239" target="_top" xlink:title=" ">
<polygon fill="none" stroke="black" points="1128,-298.5 1128,-317.5 1268,-317.5 1268,-298.5 1128,-298.5"/>
<text text-anchor="middle" x="1198" y="-305.5" font-family="Helvetica,sans-Serif" font-size="10.00">wmtk::Mesh::switch_face</text>
</a>
</g>
</g>
<!-- Node13&#45;&gt;Node19 -->
<g id="edge22" class="edge">
<title>Node13&#45;&gt;Node19</title>
<path fill="none" stroke="midnightblue" d="M1042.23,-357.92C1077.21,-346.64 1124.53,-331.38 1157.6,-320.71"/>
<polygon fill="midnightblue" stroke="midnightblue" points="1158.93,-323.96 1167.38,-317.56 1156.78,-317.3 1158.93,-323.96"/>
</g>
<!-- Node21 -->
<g id="node21" class="node">
<title>Node21</title>
<g id="a_node21"><a xlink:href="namespacewmtk_1_1simplex.html#a479fe685989f6c075a5ce1c52b5c4df3" target="_top" xlink:title=" ">
<polygon fill="none" stroke="black" points="1122.5,-161 1122.5,-191 1273.5,-191 1273.5,-161 1122.5,-161"/>
<text text-anchor="start" x="1130.5" y="-179" font-family="Helvetica,sans-Serif" font-size="10.00">wmtk::simplex::top</text>
<text text-anchor="middle" x="1198" y="-168" font-family="Helvetica,sans-Serif" font-size="10.00">_dimension_cofaces_tuples</text>
</a>
</g>
</g>
<!-- Node13&#45;&gt;Node21 -->
<g id="edge24" class="edge">
<title>Node13&#45;&gt;Node21</title>
<path fill="none" stroke="midnightblue" d="M1028.7,-357.96C1044.28,-350.01 1062.54,-339.34 1077,-327 1100.58,-306.87 1152.82,-236.87 1179.93,-199.67"/>
<polygon fill="midnightblue" stroke="midnightblue" points="1182.9,-201.54 1185.94,-191.39 1177.23,-197.43 1182.9,-201.54"/>
</g>
<!-- Node13&#45;&gt;Node30 -->
<g id="edge37" class="edge">
<title>Node13&#45;&gt;Node30</title>
<path fill="none" stroke="midnightblue" d="M1037.47,-357.84C1052.02,-350.61 1067.14,-340.52 1077,-327 1123.78,-262.83 1060.92,-211.94 1113,-152 1119.04,-145.05 1126.81,-139.7 1135.18,-135.6"/>
<polygon fill="midnightblue" stroke="midnightblue" points="1136.64,-138.78 1144.44,-131.62 1133.87,-132.35 1136.64,-138.78"/>
</g>
<!-- Node32 -->
<g id="node32" class="node">
<title>Node32</title>
<g id="a_node32"><a xlink:href="namespacewmtk_1_1multimesh_1_1utils.html#aa0392bf28bb6c304127cf0eea634fee8" target="_top" xlink:title=" ">
<polygon fill="none" stroke="black" points="1133,-429 1133,-459 1263,-459 1263,-429 1133,-429"/>
<text text-anchor="start" x="1141" y="-447" font-family="Helvetica,sans-Serif" font-size="10.00">wmtk::multimesh::utils</text>
<text text-anchor="middle" x="1198" y="-436" font-family="Helvetica,sans-Serif" font-size="10.00">::transport_tuple</text>
</a>
</g>
</g>
<!-- Node13&#45;&gt;Node32 -->
<g id="edge39" class="edge">
<title>Node13&#45;&gt;Node32</title>
<path fill="none" stroke="midnightblue" d="M1030.37,-388.04C1053.56,-397.77 1084.83,-410.37 1113,-420 1118.93,-422.03 1125.14,-424.03 1131.38,-425.95"/>
<polygon fill="midnightblue" stroke="midnightblue" points="1130.59,-429.37 1141.17,-428.92 1132.62,-422.67 1130.59,-429.37"/>
</g>
<!-- Node15 -->
<g id="node15" class="node">
<title>Node15</title>
<g id="a_node15"><a xlink:href="namespacewmtk_1_1multimesh_1_1utils.html#a7382ca1de4356752b14e745f23b6892d" target="_top" xlink:title=" ">
<polygon fill="none" stroke="black" points="1333,-334 1333,-364 1463,-364 1463,-334 1333,-334"/>
<text text-anchor="start" x="1341" y="-352" font-family="Helvetica,sans-Serif" font-size="10.00">wmtk::multimesh::utils</text>
<text text-anchor="middle" x="1398" y="-341" font-family="Helvetica,sans-Serif" font-size="10.00">::vectors_to_tuples</text>
</a>
</g>
</g>
<!-- Node14&#45;&gt;Node15 -->
<g id="edge18" class="edge">
<title>Node14&#45;&gt;Node15</title>
<path fill="none" stroke="midnightblue" d="M1263.83,-379.94C1282.66,-375.56 1303.36,-370.75 1322.72,-366.26"/>
<polygon fill="midnightblue" stroke="midnightblue" points="1323.75,-369.61 1332.7,-363.94 1322.17,-362.79 1323.75,-369.61"/>
</g>
<!-- Node16 -->
<g id="node16" class="node">
<title>Node16</title>
<g id="a_node16"><a xlink:href="namespacewmtk_1_1multimesh_1_1utils.html#afcaf5933957666eacc341add3d727960" target="_top" xlink:title=" ">
<polygon fill="none" stroke="black" points="1522,-334 1522,-364 1652,-364 1652,-334 1522,-334"/>
<text text-anchor="start" x="1530" y="-352" font-family="Helvetica,sans-Serif" font-size="10.00">wmtk::multimesh::utils</text>
<text text-anchor="middle" x="1587" y="-341" font-family="Helvetica,sans-Serif" font-size="10.00">::vector_to_tuple</text>
</a>
</g>
</g>
<!-- Node15&#45;&gt;Node16 -->
<g id="edge19" class="edge">
<title>Node15&#45;&gt;Node16</title>
<path fill="none" stroke="midnightblue" d="M1463.09,-349C1478.7,-349 1495.53,-349 1511.58,-349"/>
<polygon fill="midnightblue" stroke="midnightblue" points="1511.99,-352.5 1521.99,-349 1511.99,-345.5 1511.99,-352.5"/>
</g>
<!-- Node17 -->
<g id="node17" class="node">
<title>Node17</title>
<g id="a_node17"><a xlink:href="namespacewmtk_1_1multimesh_1_1utils.html#a335acc709f47df9fe96f4c2ed2e10585" target="_top" xlink:title=" ">
<polygon fill="none" stroke="black" points="1697,-310 1697,-340 1827,-340 1827,-310 1697,-310"/>
<text text-anchor="start" x="1705" y="-328" font-family="Helvetica,sans-Serif" font-size="10.00">wmtk::multimesh::utils</text>
<text text-anchor="middle" x="1762" y="-317" font-family="Helvetica,sans-Serif" font-size="10.00">::vector2_to_tuple</text>
</a>
</g>
</g>
<!-- Node16&#45;&gt;Node17 -->
<g id="edge20" class="edge">
<title>Node16&#45;&gt;Node17</title>
<path fill="none" stroke="midnightblue" d="M1652.42,-340.06C1663.64,-338.51 1675.39,-336.88 1686.84,-335.29"/>
<polygon fill="midnightblue" stroke="midnightblue" points="1687.39,-338.75 1696.82,-333.9 1686.43,-331.81 1687.39,-338.75"/>
</g>
<!-- Node18 -->
<g id="node18" class="node">
<title>Node18</title>
<g id="a_node18"><a xlink:href="namespacewmtk_1_1multimesh_1_1utils.html#a2645b98b3068060a73df0c8cc16b6a3d" target="_top" xlink:title=" ">
<polygon fill="none" stroke="black" points="1697,-359 1697,-389 1827,-389 1827,-359 1697,-359"/>
<text text-anchor="start" x="1705" y="-377" font-family="Helvetica,sans-Serif" font-size="10.00">wmtk::multimesh::utils</text>
<text text-anchor="middle" x="1762" y="-366" font-family="Helvetica,sans-Serif" font-size="10.00">::vector5_to_tuple</text>
</a>
</g>
</g>
<!-- Node16&#45;&gt;Node18 -->
<g id="edge21" class="edge">
<title>Node16&#45;&gt;Node18</title>
<path fill="none" stroke="midnightblue" d="M1652.42,-358.31C1663.64,-359.93 1675.39,-361.63 1686.84,-363.28"/>
<polygon fill="midnightblue" stroke="midnightblue" points="1686.42,-366.76 1696.82,-364.72 1687.42,-359.83 1686.42,-366.76"/>
</g>
<!-- Node20 -->
<g id="node20" class="node">
<title>Node20</title>
<g id="a_node20"><a xlink:href="classwmtk_1_1_mesh.html#a965a8a24158c4aa8580c57ba09f885f7" target="_top" xlink:title="switch the orientation of the Tuple of the given dimension">
<polygon fill="none" stroke="black" points="1530,-243 1530,-273 1644,-273 1644,-243 1530,-243"/>
<text text-anchor="start" x="1538" y="-261" font-family="Helvetica,sans-Serif" font-size="10.00">wmtk::Mesh::switch</text>
<text text-anchor="middle" x="1587" y="-250" font-family="Helvetica,sans-Serif" font-size="10.00">_tuple</text>
</a>
</g>
</g>
<!-- Node19&#45;&gt;Node20 -->
<g id="edge23" class="edge">
<title>Node19&#45;&gt;Node20</title>
<path fill="none" stroke="midnightblue" d="M1268.24,-305.84C1324.73,-303.28 1406.44,-297.76 1477,-286 1492.73,-283.38 1509.51,-279.58 1525.07,-275.63"/>
<polygon fill="midnightblue" stroke="midnightblue" points="1526.3,-278.92 1535.1,-273.01 1524.54,-272.15 1526.3,-278.92"/>
</g>
<!-- Node22 -->
<g id="node22" class="node">
<title>Node22</title>
<g id="a_node22"><a xlink:href="classwmtk_1_1_edge_mesh.html#a534952cf2729f1509a380e3e9afb65b7" target="_top" xlink:title=" ">
<polygon fill="none" stroke="black" points="1340.5,-158 1340.5,-188 1455.5,-188 1455.5,-158 1340.5,-158"/>
<text text-anchor="start" x="1348.5" y="-176" font-family="Helvetica,sans-Serif" font-size="10.00">wmtk::EdgeMesh::is</text>
<text text-anchor="middle" x="1398" y="-165" font-family="Helvetica,sans-Serif" font-size="10.00">_boundary_vertex</text>
</a>
</g>
</g>
<!-- Node21&#45;&gt;Node22 -->
<g id="edge25" class="edge">
<title>Node21&#45;&gt;Node22</title>
<path fill="none" stroke="midnightblue" d="M1273.57,-174.87C1292.17,-174.59 1311.99,-174.29 1330.19,-174.01"/>
<polygon fill="midnightblue" stroke="midnightblue" points="1330.46,-177.51 1340.4,-173.86 1330.35,-170.51 1330.46,-177.51"/>
</g>
<!-- Node21&#45;&gt;Node27 -->
<g id="edge33" class="edge">
<title>Node21&#45;&gt;Node27</title>
<path fill="none" stroke="midnightblue" d="M1246.45,-160.85C1258.99,-155.64 1272.06,-149.05 1283,-141 1303.08,-126.23 1299.68,-113.75 1319,-98 1329.25,-89.64 1341.42,-82.16 1353.06,-75.91"/>
<polygon fill="midnightblue" stroke="midnightblue" points="1354.96,-78.87 1362.23,-71.16 1351.74,-72.65 1354.96,-78.87"/>
</g>
<!-- Node28 -->
<g id="node28" class="node">
<title>Node28</title>
<g id="a_node28"><a xlink:href="classwmtk_1_1_mesh.html#a33805489402321155d4a1f7023faaf3a" target="_top" xlink:title=" ">
<polygon fill="none" stroke="black" points="1326.5,-207.5 1326.5,-226.5 1469.5,-226.5 1469.5,-207.5 1326.5,-207.5"/>
<text text-anchor="middle" x="1398" y="-214.5" font-family="Helvetica,sans-Serif" font-size="10.00">wmtk::Mesh::switch_edge</text>
</a>
</g>
</g>
<!-- Node21&#45;&gt;Node28 -->
<g id="edge34" class="edge">
<title>Node21&#45;&gt;Node28</title>
<path fill="none" stroke="midnightblue" d="M1271.6,-191.03C1294.47,-195.77 1319.36,-200.92 1340.9,-205.38"/>
<polygon fill="midnightblue" stroke="midnightblue" points="1340.36,-208.85 1350.86,-207.45 1341.78,-201.99 1340.36,-208.85"/>
</g>
<!-- Node21&#45;&gt;Node29 -->
<g id="edge36" class="edge">
<title>Node21&#45;&gt;Node29</title>
<path fill="none" stroke="midnightblue" d="M1250.47,-191.15C1261.53,-195.28 1272.91,-200.24 1283,-206 1301.09,-216.33 1300.75,-225.97 1319,-236 1322.96,-238.18 1327.14,-240.2 1331.43,-242.07"/>
<polygon fill="midnightblue" stroke="midnightblue" points="1330.35,-245.41 1340.93,-245.93 1332.98,-238.93 1330.35,-245.41"/>
</g>
<!-- Node23 -->
<g id="node23" class="node">
<title>Node23</title>
<g id="a_node23"><a xlink:href="classwmtk_1_1_mesh.html#abbb1c54cfd6ec17f4730317ee5fab78d" target="_top" xlink:title=" ">
<polygon fill="none" stroke="black" points="1513,-163.5 1513,-182.5 1661,-182.5 1661,-163.5 1513,-163.5"/>
<text text-anchor="middle" x="1587" y="-170.5" font-family="Helvetica,sans-Serif" font-size="10.00">wmtk::Mesh::is_valid_slow</text>
</a>
</g>
</g>
<!-- Node22&#45;&gt;Node23 -->
<g id="edge26" class="edge">
<title>Node22&#45;&gt;Node23</title>
<path fill="none" stroke="midnightblue" d="M1455.61,-173C1470.43,-173 1486.71,-173 1502.61,-173"/>
<polygon fill="midnightblue" stroke="midnightblue" points="1502.97,-176.5 1512.97,-173 1502.97,-169.5 1502.97,-176.5"/>
</g>
<!-- Node24 -->
<g id="node24" class="node">
<title>Node24</title>
<g id="a_node24"><a xlink:href="classwmtk_1_1_mesh.html#a92666fa5c4c8b680e9b4a9b3755689f0" target="_top" xlink:title=" ">
<polygon fill="none" stroke="black" points="1697,-158 1697,-188 1827,-188 1827,-158 1697,-158"/>
<text text-anchor="start" x="1705" y="-176" font-family="Helvetica,sans-Serif" font-size="10.00">wmtk::Mesh::get_const</text>
<text text-anchor="middle" x="1762" y="-165" font-family="Helvetica,sans-Serif" font-size="10.00">_cell_hash_accessor</text>
</a>
</g>
</g>
<!-- Node23&#45;&gt;Node24 -->
<g id="edge27" class="edge">
<title>Node23&#45;&gt;Node24</title>
<path fill="none" stroke="midnightblue" d="M1661.12,-173C1669.57,-173 1678.21,-173 1686.68,-173"/>
<polygon fill="midnightblue" stroke="midnightblue" points="1686.91,-176.5 1696.91,-173 1686.91,-169.5 1686.91,-176.5"/>
</g>
<!-- Node26 -->
<g id="node26" class="node">
<title>Node26</title>
<g id="a_node26"><a xlink:href="classwmtk_1_1_mesh.html#a8c09a3ed591ffbb0e59c83948970d121" target="_top" xlink:title="check validity of tuple including its hash">
<polygon fill="none" stroke="black" points="1702,-207.5 1702,-226.5 1822,-226.5 1822,-207.5 1702,-207.5"/>
<text text-anchor="middle" x="1762" y="-214.5" font-family="Helvetica,sans-Serif" font-size="10.00">wmtk::Mesh::is_valid</text>
</a>
</g>
</g>
<!-- Node23&#45;&gt;Node26 -->
<g id="edge32" class="edge">
<title>Node23&#45;&gt;Node26</title>
<path fill="none" stroke="midnightblue" d="M1625.54,-182.55C1651.38,-189.12 1685.92,-197.9 1713.65,-204.96"/>
<polygon fill="midnightblue" stroke="midnightblue" points="1712.98,-208.4 1723.53,-207.47 1714.71,-201.61 1712.98,-208.4"/>
</g>
<!-- Node25 -->
<g id="node25" class="node">
<title>Node25</title>
<g id="a_node25"><a xlink:href="classwmtk_1_1_mesh.html#aec980d09bb50f645d6c1c5e604e091c6" target="_top" xlink:title=" ">
<polygon fill="none" stroke="black" points="1863,-292 1863,-322 1976,-322 1976,-292 1863,-292"/>
<text text-anchor="start" x="1871" y="-310" font-family="Helvetica,sans-Serif" font-size="10.00">wmtk::Mesh::create</text>
<text text-anchor="middle" x="1919.5" y="-299" font-family="Helvetica,sans-Serif" font-size="10.00">_const_accessor</text>
</a>
</g>
</g>
<!-- Node24&#45;&gt;Node25 -->
<g id="edge28" class="edge">
<title>Node24&#45;&gt;Node25</title>
<path fill="none" stroke="midnightblue" d="M1809.88,-188.12C1815.89,-190.96 1821.77,-194.24 1827,-198 1859.57,-221.37 1887.62,-258.91 1903.78,-283.26"/>
<polygon fill="midnightblue" stroke="midnightblue" points="1901,-285.41 1909.38,-291.9 1906.88,-281.6 1901,-285.41"/>
</g>
<!-- Node25&#45;&gt;Node10 -->
<g id="edge29" class="edge">
<title>Node25&#45;&gt;Node10</title>
<path fill="none" stroke="midnightblue" d="M1976.03,-299.34C1984.34,-298.19 1993.1,-296.99 2001.93,-295.77"/>
<polygon fill="midnightblue" stroke="midnightblue" points="2002.48,-299.23 2011.91,-294.39 2001.52,-292.29 2002.48,-299.23"/>
</g>
<!-- Node25&#45;&gt;Node11 -->
<g id="edge30" class="edge">
<title>Node25&#45;&gt;Node11</title>
<path fill="none" stroke="midnightblue" d="M1956.51,-322.06C1963.1,-325.14 1969.84,-328.51 1976,-332 1992.95,-341.6 1994.42,-348.61 2012,-357 2016.05,-358.93 2020.28,-360.74 2024.6,-362.43"/>
<polygon fill="midnightblue" stroke="midnightblue" points="2023.57,-365.78 2034.17,-365.93 2025.98,-359.2 2023.57,-365.78"/>
</g>
<!-- Node25&#45;&gt;Node12 -->
<g id="edge31" class="edge">
<title>Node25&#45;&gt;Node12</title>
<path fill="none" stroke="midnightblue" d="M1976.03,-314.98C1984.34,-316.17 1993.1,-317.43 2001.93,-318.7"/>
<polygon fill="midnightblue" stroke="midnightblue" points="2001.51,-322.18 2011.91,-320.13 2002.51,-315.25 2001.51,-322.18"/>
</g>
<!-- Node28&#45;&gt;Node20 -->
<g id="edge35" class="edge">
<title>Node28&#45;&gt;Node20</title>
<path fill="none" stroke="midnightblue" d="M1442.37,-226.51C1465.33,-231.54 1494.01,-237.83 1519.69,-243.46"/>
<polygon fill="midnightblue" stroke="midnightblue" points="1519.22,-246.94 1529.74,-245.66 1520.72,-240.1 1519.22,-246.94"/>
</g>
<!-- Node31 -->
<g id="node31" class="node">
<title>Node31</title>
<g id="a_node31"><a xlink:href="classwmtk_1_1_mesh.html#ac1e12857f52985bd548a968a4c819659" target="_top" xlink:title=" ">
<polygon fill="none" stroke="black" points="1337.5,-107 1337.5,-137 1458.5,-137 1458.5,-107 1337.5,-107"/>
<text text-anchor="start" x="1345.5" y="-125" font-family="Helvetica,sans-Serif" font-size="10.00">wmtk::Mesh::top_cell</text>
<text text-anchor="middle" x="1398" y="-114" font-family="Helvetica,sans-Serif" font-size="10.00">_dimension</text>
</a>
</g>
</g>
<!-- Node30&#45;&gt;Node31 -->
<g id="edge38" class="edge">
<title>Node30&#45;&gt;Node31</title>
<path fill="none" stroke="midnightblue" d="M1283.26,-122C1297.91,-122 1313,-122 1327.21,-122"/>
<polygon fill="midnightblue" stroke="midnightblue" points="1327.39,-125.5 1337.39,-122 1327.39,-118.5 1327.39,-125.5"/>
</g>
<!-- Node33 -->
<g id="node33" class="node">
<title>Node33</title>
<g id="a_node33"><a xlink:href="namespacewmtk_1_1multimesh_1_1utils.html#a99cdf56ec6abe68409d30e0b67f4ce82" target="_top" xlink:title=" ">
<polygon fill="none" stroke="black" points="1319,-383 1319,-413 1477,-413 1477,-383 1319,-383"/>
<text text-anchor="start" x="1327" y="-401" font-family="Helvetica,sans-Serif" font-size="10.00">wmtk::multimesh::utils</text>
<text text-anchor="middle" x="1398" y="-390" font-family="Helvetica,sans-Serif" font-size="10.00">::find_local_switch_sequence</text>
</a>
</g>
</g>
<!-- Node32&#45;&gt;Node33 -->
<g id="edge40" class="edge">
<title>Node32&#45;&gt;Node33</title>
<path fill="none" stroke="midnightblue" d="M1263.01,-429.13C1281.96,-424.73 1302.86,-419.87 1322.41,-415.33"/>
<polygon fill="midnightblue" stroke="midnightblue" points="1323.24,-418.73 1332.19,-413.06 1321.66,-411.91 1323.24,-418.73"/>
</g>
<!-- Node34 -->
<g id="node34" class="node">
<title>Node34</title>
<g id="a_node34"><a xlink:href="namespacewmtk_1_1multimesh_1_1utils.html#af71d6d20a76616d671ae5f53350107b4" target="_top" xlink:title=" ">
<polygon fill="none" stroke="black" points="1333,-432 1333,-462 1463,-462 1463,-432 1333,-432"/>
<text text-anchor="start" x="1341" y="-450" font-family="Helvetica,sans-Serif" font-size="10.00">wmtk::multimesh::utils</text>
<text text-anchor="middle" x="1398" y="-439" font-family="Helvetica,sans-Serif" font-size="10.00">::local_switch_tuples</text>
</a>
</g>
</g>
<!-- Node32&#45;&gt;Node34 -->
<g id="edge41" class="edge">
<title>Node32&#45;&gt;Node34</title>
<path fill="none" stroke="midnightblue" d="M1263.01,-444.97C1282.06,-445.26 1303.1,-445.58 1322.74,-445.87"/>
<polygon fill="midnightblue" stroke="midnightblue" points="1322.82,-449.38 1332.87,-446.03 1322.92,-442.38 1322.82,-449.38"/>
</g>
<!-- Node36 -->
<g id="node36" class="node">
<title>Node36</title>
<g id="a_node36"><a xlink:href="classwmtk_1_1_multi_mesh_manager.html#a10b58d0d287321a1b422f9b945421eda" target="_top" xlink:title=" ">
<polygon fill="none" stroke="black" points="726,-287 726,-317 870,-317 870,-287 726,-287"/>
<text text-anchor="start" x="734" y="-305" font-family="Helvetica,sans-Serif" font-size="10.00">wmtk::MultiMeshManager</text>
<text text-anchor="middle" x="798" y="-294" font-family="Helvetica,sans-Serif" font-size="10.00">::get_root_mesh</text>
</a>
</g>
</g>
<!-- Node35&#45;&gt;Node36 -->
<g id="edge47" class="edge">
<title>Node35&#45;&gt;Node36</title>
<path fill="none" stroke="midnightblue" d="M496.82,-247.57C557.72,-258.61 649.71,-275.29 715.8,-287.28"/>
<polygon fill="midnightblue" stroke="midnightblue" points="715.3,-290.74 725.77,-289.08 716.55,-283.86 715.3,-290.74"/>
</g>
<!-- Node36&#45;&gt;Node5 -->
<g id="edge49" class="edge">
<title>Node36&#45;&gt;Node5</title>
<path fill="none" stroke="midnightblue" d="M870.04,-302C883.75,-302 898.22,-302 912.22,-302"/>
<polygon fill="midnightblue" stroke="midnightblue" points="912.32,-305.5 922.32,-302 912.32,-298.5 912.32,-305.5"/>
</g>
<!-- Node36&#45;&gt;Node36 -->
<g id="edge48" class="edge">
<title>Node36&#45;&gt;Node36</title>
<path fill="none" stroke="midnightblue" d="M765.59,-317.16C757.77,-326.56 768.57,-335.5 798,-335.5 815.93,-335.5 826.95,-332.18 831.05,-327.46"/>
<polygon fill="midnightblue" stroke="midnightblue" points="834.52,-326.92 830.41,-317.16 827.54,-327.36 834.52,-326.92"/>
</g>
<!-- Node37&#45;&gt;Node29 -->
<g id="edge54" class="edge">
<title>Node37&#45;&gt;Node29</title>
<path fill="none" stroke="midnightblue" d="M492.19,-401.03C507.68,-404.63 524.41,-408.23 540,-411 619.36,-425.08 639.55,-428.1 720,-433 789.21,-437.21 806.92,-438.97 876,-433 966.34,-425.19 993.76,-433.97 1077,-398 1095.36,-390.07 1094.98,-379.67 1113,-371 1183.33,-337.17 1210.79,-356.6 1283,-327 1312.89,-314.75 1344.5,-295.92 1366.84,-281.51"/>
<polygon fill="midnightblue" stroke="midnightblue" points="1368.76,-284.43 1375.21,-276.03 1364.93,-278.57 1368.76,-284.43"/>
</g>
<!-- Node38 -->
<g id="node38" class="node">
<title>Node38</title>
<g id="a_node38"><a xlink:href="classwmtk_1_1_multi_mesh_manager.html#ab7b6b4544ad22cd46f40a69c688008c0" target="_top" xlink:title=" ">
<polygon fill="none" stroke="black" points="540,-371 540,-401 684,-401 684,-371 540,-371"/>
<text text-anchor="start" x="548" y="-389" font-family="Helvetica,sans-Serif" font-size="10.00">wmtk::MultiMeshManager</text>
<text text-anchor="middle" x="612" y="-378" font-family="Helvetica,sans-Serif" font-size="10.00">::map_tuple_to_root_tuple</text>
</a>
</g>
</g>
<!-- Node37&#45;&gt;Node38 -->
<g id="edge51" class="edge">
<title>Node37&#45;&gt;Node38</title>
<path fill="none" stroke="midnightblue" d="M504.12,-386C512.61,-386 521.33,-386 529.94,-386"/>
<polygon fill="midnightblue" stroke="midnightblue" points="530,-389.5 540,-386 530,-382.5 530,-389.5"/>
</g>
<!-- Node38&#45;&gt;Node5 -->
<g id="edge52" class="edge">
<title>Node38&#45;&gt;Node5</title>
<path fill="none" stroke="midnightblue" d="M684.09,-378.75C737.45,-372.38 812.02,-361.52 876,-345 900.44,-338.69 926.9,-329.25 948.52,-320.82"/>
<polygon fill="midnightblue" stroke="midnightblue" points="950.07,-323.97 958.08,-317.03 947.49,-317.46 950.07,-323.97"/>
</g>
<!-- Node38&#45;&gt;Node8 -->
<g id="edge53" class="edge">
<title>Node38&#45;&gt;Node8</title>
<path fill="none" stroke="midnightblue" d="M684.14,-394.51C692.57,-395.51 701.25,-396.55 709.87,-397.58"/>
<polygon fill="midnightblue" stroke="midnightblue" points="709.6,-401.08 719.95,-398.79 710.43,-394.12 709.6,-401.08"/>
</g>
<!-- Node39&#45;&gt;Node35 -->
<g id="edge57" class="edge">
<title>Node39&#45;&gt;Node35</title>
<path fill="none" stroke="midnightblue" d="M324.13,-236C335.09,-236 346.3,-236 357.14,-236"/>
<polygon fill="midnightblue" stroke="midnightblue" points="357.41,-239.5 367.41,-236 357.41,-232.5 357.41,-239.5"/>
</g>
</g>
</svg>
