<?xml version="1.0" encoding="UTF-8" standalone="no"?>
<!DOCTYPE svg PUBLIC "-//W3C//DTD SVG 1.1//EN"
 "http://www.w3.org/Graphics/SVG/1.1/DTD/svg11.dtd">
<!-- Generated by graphviz version 2.43.0 (0)
 -->
<!-- Title: wmtk::multimesh::MultiMeshManager::same_simplex_dimension_surjection Pages: 1 -->
<svg width="564pt" height="164pt"
 viewBox="0.00 0.00 564.00 163.50" xmlns="http://www.w3.org/2000/svg" xmlns:xlink="http://www.w3.org/1999/xlink">
<g id="graph0" class="graph" transform="scale(1 1) rotate(0) translate(4 159.5)">
<title>wmtk::multimesh::MultiMeshManager::same_simplex_dimension_surjection</title>
<!-- Node1 -->
<g id="node1" class="node">
<title>Node1</title>
<g id="a_node1"><a xlink:title=" ">
<polygon fill="#bfbfbf" stroke="black" points="0,-49.5 0,-90.5 193,-90.5 193,-49.5 0,-49.5"/>
<text text-anchor="start" x="8" y="-78.5" font-family="Helvetica,sans-Serif" font-size="10.00">wmtk::multimesh::MultiMesh</text>
<text text-anchor="start" x="8" y="-67.5" font-family="Helvetica,sans-Serif" font-size="10.00">Manager::same_simplex_dimension</text>
<text text-anchor="middle" x="96.5" y="-56.5" font-family="Helvetica,sans-Serif" font-size="10.00">_surjection</text>
</a>
</g>
</g>
<!-- Node2 -->
<g id="node2" class="node">
<title>Node2</title>
<g id="a_node2"><a xlink:href="classwmtk_1_1_mesh.html#a3e8ff83c4a5526a40d18bb9883c6c6c9" target="_top" xlink:title="read in the m_capacities return the upper bound for the number of entities of the given dimension">
<polygon fill="none" stroke="black" points="252,-128.5 252,-147.5 376,-147.5 376,-128.5 252,-128.5"/>
<text text-anchor="middle" x="314" y="-135.5" font-family="Helvetica,sans-Serif" font-size="10.00">wmtk::Mesh::capacity</text>
</a>
</g>
</g>
<!-- Node1&#45;&gt;Node2 -->
<g id="edge1" class="edge">
<title>Node1&#45;&gt;Node2</title>
<path fill="none" stroke="midnightblue" d="M151.16,-90.53C174.85,-99.24 203.13,-109.16 229,-117 239.46,-120.17 250.76,-123.23 261.58,-126"/>
<polygon fill="midnightblue" stroke="midnightblue" points="260.78,-129.4 271.33,-128.44 262.49,-122.61 260.78,-129.4"/>
</g>
<!-- Node4 -->
<g id="node4" class="node">
<title>Node4</title>
<g id="a_node4"><a xlink:href="classwmtk_1_1_mesh.html#a6dbab927a2ee85f77a87f075fd5c1d94" target="_top" xlink:title=" ">
<polygon fill="none" stroke="black" points="249,-77 249,-107 379,-107 379,-77 249,-77"/>
<text text-anchor="start" x="257" y="-95" font-family="Helvetica,sans-Serif" font-size="10.00">wmtk::Mesh::get_const</text>
<text text-anchor="middle" x="314" y="-84" font-family="Helvetica,sans-Serif" font-size="10.00">_flag_accessor</text>
</a>
</g>
</g>
<!-- Node1&#45;&gt;Node4 -->
<g id="edge3" class="edge">
<title>Node1&#45;&gt;Node4</title>
<path fill="none" stroke="midnightblue" d="M193.28,-79.78C208.53,-81.33 224.11,-82.92 238.76,-84.42"/>
<polygon fill="midnightblue" stroke="midnightblue" points="238.45,-87.91 248.75,-85.44 239.16,-80.94 238.45,-87.91"/>
</g>
<!-- Node6 -->
<g id="node6" class="node">
<title>Node6</title>
<g id="a_node6"><a xlink:href="classwmtk_1_1_mesh.html#abaf00438d0700358b160e310d69725c9" target="_top" xlink:title=" ">
<polygon fill="none" stroke="black" points="229,-38.5 229,-57.5 399,-57.5 399,-38.5 229,-38.5"/>
<text text-anchor="middle" x="314" y="-45.5" font-family="Helvetica,sans-Serif" font-size="10.00">wmtk::Mesh::top_simplex_type</text>
</a>
</g>
</g>
<!-- Node1&#45;&gt;Node6 -->
<g id="edge6" class="edge">
<title>Node1&#45;&gt;Node6</title>
<path fill="none" stroke="midnightblue" d="M193.28,-60.22C201.67,-59.37 210.16,-58.5 218.54,-57.64"/>
<polygon fill="midnightblue" stroke="midnightblue" points="219.1,-61.1 228.69,-56.61 218.39,-54.14 219.1,-61.1"/>
</g>
<!-- Node8 -->
<g id="node8" class="node">
<title>Node8</title>
<g id="a_node8"><a xlink:href="classwmtk_1_1_mesh.html#a60165ceb4c2db2731df90e4ac100637d" target="_top" xlink:title="internal function that returns the tuple of requested type, and has the global index cid">
<polygon fill="none" stroke="black" points="239,-0.5 239,-19.5 389,-19.5 389,-0.5 239,-0.5"/>
<text text-anchor="middle" x="314" y="-7.5" font-family="Helvetica,sans-Serif" font-size="10.00">wmtk::Mesh::tuple_from_id</text>
</a>
</g>
</g>
<!-- Node1&#45;&gt;Node8 -->
<g id="edge8" class="edge">
<title>Node1&#45;&gt;Node8</title>
<path fill="none" stroke="midnightblue" d="M159.74,-49.48C181.54,-42.59 206.25,-35.11 229,-29 238.22,-26.52 248.06,-24.1 257.64,-21.86"/>
<polygon fill="midnightblue" stroke="midnightblue" points="258.54,-25.25 267.5,-19.6 256.97,-18.43 258.54,-25.25"/>
</g>
<!-- Node3 -->
<g id="node3" class="node">
<title>Node3</title>
<g id="a_node3"><a xlink:href="namespacewmtk.html#a5cf45c152e856196bb734c6f48919a24" target="_top" xlink:title="Get a unique integer id corresponding to each primitive type.">
<polygon fill="none" stroke="black" points="437.5,-125 437.5,-155 553.5,-155 553.5,-125 437.5,-125"/>
<text text-anchor="start" x="445.5" y="-143" font-family="Helvetica,sans-Serif" font-size="10.00">wmtk::get_primitive</text>
<text text-anchor="middle" x="495.5" y="-132" font-family="Helvetica,sans-Serif" font-size="10.00">_type_id</text>
</a>
</g>
</g>
<!-- Node2&#45;&gt;Node3 -->
<g id="edge2" class="edge">
<title>Node2&#45;&gt;Node3</title>
<path fill="none" stroke="midnightblue" d="M376.02,-138.68C392.43,-138.86 410.28,-139.06 427.02,-139.25"/>
<polygon fill="midnightblue" stroke="midnightblue" points="427.24,-142.75 437.28,-139.36 427.32,-135.75 427.24,-142.75"/>
</g>
<!-- Node4&#45;&gt;Node3 -->
<g id="edge5" class="edge">
<title>Node4&#45;&gt;Node3</title>
<path fill="none" stroke="midnightblue" d="M371.3,-107.06C389.51,-111.93 409.87,-117.37 428.71,-122.41"/>
<polygon fill="midnightblue" stroke="midnightblue" points="427.83,-125.8 438.4,-125 429.64,-119.03 427.83,-125.8"/>
</g>
<!-- Node5 -->
<g id="node5" class="node">
<title>Node5</title>
<g id="a_node5"><a xlink:href="classwmtk_1_1_mesh.html#a4a20dcdac339e7a4f6f8a6570114cbe6" target="_top" xlink:title=" ">
<polygon fill="none" stroke="black" points="439,-76 439,-106 552,-106 552,-76 439,-76"/>
<text text-anchor="start" x="447" y="-94" font-family="Helvetica,sans-Serif" font-size="10.00">wmtk::Mesh::create</text>
<text text-anchor="middle" x="495.5" y="-83" font-family="Helvetica,sans-Serif" font-size="10.00">_const_accessor</text>
</a>
</g>
</g>
<!-- Node4&#45;&gt;Node5 -->
<g id="edge4" class="edge">
<title>Node4&#45;&gt;Node5</title>
<path fill="none" stroke="midnightblue" d="M379.04,-91.64C395.07,-91.55 412.28,-91.46 428.4,-91.37"/>
<polygon fill="midnightblue" stroke="midnightblue" points="428.83,-94.87 438.81,-91.31 428.8,-87.87 428.83,-94.87"/>
</g>
<!-- Node7 -->
<g id="node7" class="node">
<title>Node7</title>
<g id="a_node7"><a xlink:href="classwmtk_1_1_mesh.html#a933f681cf24a63b155c9462280385200" target="_top" xlink:title=" ">
<polygon fill="none" stroke="black" points="435,-27 435,-57 556,-57 556,-27 435,-27"/>
<text text-anchor="start" x="443" y="-45" font-family="Helvetica,sans-Serif" font-size="10.00">wmtk::Mesh::top_cell</text>
<text text-anchor="middle" x="495.5" y="-34" font-family="Helvetica,sans-Serif" font-size="10.00">_dimension</text>
</a>
</g>
</g>
<!-- Node6&#45;&gt;Node7 -->
<g id="edge7" class="edge">
<title>Node6&#45;&gt;Node7</title>
<path fill="none" stroke="midnightblue" d="M399.23,-45.18C407.78,-44.9 416.39,-44.61 424.76,-44.33"/>
<polygon fill="midnightblue" stroke="midnightblue" points="424.95,-47.83 434.83,-43.99 424.72,-40.83 424.95,-47.83"/>
</g>
</g>
</svg>
