<?xml version="1.0" encoding="UTF-8" standalone="no"?>
<!DOCTYPE svg PUBLIC "-//W3C//DTD SVG 1.1//EN"
 "http://www.w3.org/Graphics/SVG/1.1/DTD/svg11.dtd">
<!-- Generated by graphviz version 2.43.0 (0)
 -->
<!-- Title: wmtk::operations::edge_mesh::CollapseNewAttributeTopoInfo::merged_simplices Pages: 1 -->
<svg width="1617pt" height="602pt"
 viewBox="0.00 0.00 1617.00 602.00" xmlns="http://www.w3.org/2000/svg" xmlns:xlink="http://www.w3.org/1999/xlink">
<g id="graph0" class="graph" transform="scale(1 1) rotate(0) translate(4 598)">
<title>wmtk::operations::edge_mesh::CollapseNewAttributeTopoInfo::merged_simplices</title>
<!-- Node1 -->
<g id="node1" class="node">
<title>Node1</title>
<g id="a_node1"><a xlink:title=" ">
<polygon fill="#bfbfbf" stroke="black" points="0,-39 0,-80 184,-80 184,-39 0,-39"/>
<text text-anchor="start" x="8" y="-68" font-family="Helvetica,sans-Serif" font-size="10.00">wmtk::operations::edge</text>
<text text-anchor="start" x="8" y="-57" font-family="Helvetica,sans-Serif" font-size="10.00">_mesh::CollapseNewAttributeTopo</text>
<text text-anchor="middle" x="92" y="-46" font-family="Helvetica,sans-Serif" font-size="10.00">Info::merged_simplices</text>
</a>
</g>
</g>
<!-- Node2 -->
<g id="node2" class="node">
<title>Node2</title>
<g id="a_node2"><a xlink:href="namespacewmtk.html#a5cf45c152e856196bb734c6f48919a24" target="_top" xlink:title="Get a unique integer id corresponding to each primitive type.">
<polygon fill="none" stroke="black" points="1480,-196.5 1480,-226.5 1596,-226.5 1596,-196.5 1480,-196.5"/>
<text text-anchor="start" x="1488" y="-214.5" font-family="Helvetica,sans-Serif" font-size="10.00">wmtk::get_primitive</text>
<text text-anchor="middle" x="1538" y="-203.5" font-family="Helvetica,sans-Serif" font-size="10.00">_type_id</text>
</a>
</g>
</g>
<!-- Node1&#45;&gt;Node2 -->
<g id="edge1" class="edge">
<title>Node1&#45;&gt;Node2</title>
<path fill="none" stroke="midnightblue" d="M184.22,-59.5C261.41,-59.5 374.95,-59.5 474,-59.5 474,-59.5 474,-59.5 1168.5,-59.5 1304.38,-59.5 1448.59,-148.91 1508.43,-190.58"/>
<polygon fill="midnightblue" stroke="midnightblue" points="1506.44,-193.47 1516.63,-196.37 1510.48,-187.75 1506.44,-193.47"/>
</g>
<!-- Node3 -->
<g id="node3" class="node">
<title>Node3</title>
<g id="a_node3"><a xlink:href="classwmtk_1_1operations_1_1edge__mesh_1_1_edge_operation_data.html#a1953b7fc9b69dc5fb1adaac297a8b7d7" target="_top" xlink:title=" ">
<polygon fill="none" stroke="black" points="220,-252 220,-293 370,-293 370,-252 220,-252"/>
<text text-anchor="start" x="228" y="-281" font-family="Helvetica,sans-Serif" font-size="10.00">wmtk::operations::edge</text>
<text text-anchor="start" x="228" y="-270" font-family="Helvetica,sans-Serif" font-size="10.00">_mesh::EdgeOperationData</text>
<text text-anchor="middle" x="295" y="-259" font-family="Helvetica,sans-Serif" font-size="10.00">::input_endpoints</text>
</a>
</g>
</g>
<!-- Node1&#45;&gt;Node3 -->
<g id="edge2" class="edge">
<title>Node1&#45;&gt;Node3</title>
<path fill="none" stroke="midnightblue" d="M112.64,-80.31C148.98,-118.82 226.74,-201.22 267.63,-244.55"/>
<polygon fill="midnightblue" stroke="midnightblue" points="265.17,-247.05 274.58,-251.92 270.26,-242.24 265.17,-247.05"/>
</g>
<!-- Node26 -->
<g id="node26" class="node">
<title>Node26</title>
<g id="a_node26"><a xlink:href="classwmtk_1_1_mesh.html#ac5778c1f8afef3a2b1b1c33a140b3166" target="_top" xlink:title="Evaluate the passed in function inside the parent scope.">
<polygon fill="none" stroke="black" points="238,-0.5 238,-30.5 352,-30.5 352,-0.5 238,-0.5"/>
<text text-anchor="start" x="246" y="-18.5" font-family="Helvetica,sans-Serif" font-size="10.00">wmtk::Mesh::parent</text>
<text text-anchor="middle" x="295" y="-7.5" font-family="Helvetica,sans-Serif" font-size="10.00">_scope</text>
</a>
</g>
</g>
<!-- Node1&#45;&gt;Node26 -->
<g id="edge33" class="edge">
<title>Node1&#45;&gt;Node26</title>
<path fill="none" stroke="midnightblue" d="M184.09,-39.56C198.8,-36.34 213.78,-33.06 227.76,-30"/>
<polygon fill="midnightblue" stroke="midnightblue" points="228.72,-33.37 237.74,-27.81 227.23,-26.53 228.72,-33.37"/>
</g>
<!-- Node4 -->
<g id="node4" class="node">
<title>Node4</title>
<g id="a_node4"><a xlink:href="classwmtk_1_1_edge_mesh.html#a46725851b572b51a356450adc30c14ed" target="_top" xlink:title="switch the orientation of the Tuple of the given dimension">
<polygon fill="none" stroke="black" points="406,-421.5 406,-451.5 544,-451.5 544,-421.5 406,-421.5"/>
<text text-anchor="start" x="414" y="-439.5" font-family="Helvetica,sans-Serif" font-size="10.00">wmtk::EdgeMesh::switch</text>
<text text-anchor="middle" x="475" y="-428.5" font-family="Helvetica,sans-Serif" font-size="10.00">_tuple</text>
</a>
</g>
</g>
<!-- Node3&#45;&gt;Node4 -->
<g id="edge3" class="edge">
<title>Node3&#45;&gt;Node4</title>
<path fill="none" stroke="midnightblue" d="M318.54,-293.27C352.15,-324.23 415.12,-382.25 449.71,-414.12"/>
<polygon fill="midnightblue" stroke="midnightblue" points="447.72,-417.05 457.45,-421.25 452.47,-411.9 447.72,-417.05"/>
</g>
<!-- Node5 -->
<g id="node5" class="node">
<title>Node5</title>
<g id="a_node5"><a xlink:href="classwmtk_1_1attribute_1_1_accessor.html#ada896c7e7910630ca0d3424baa3c3258" target="_top" xlink:title=" ">
<polygon fill="none" stroke="black" points="590.5,-377.5 590.5,-407.5 732.5,-407.5 732.5,-377.5 590.5,-377.5"/>
<text text-anchor="start" x="598.5" y="-395.5" font-family="Helvetica,sans-Serif" font-size="10.00">wmtk::attribute::Accessor</text>
<text text-anchor="middle" x="661.5" y="-384.5" font-family="Helvetica,sans-Serif" font-size="10.00">::const_vector_attribute</text>
</a>
</g>
</g>
<!-- Node4&#45;&gt;Node5 -->
<g id="edge4" class="edge">
<title>Node4&#45;&gt;Node5</title>
<path fill="none" stroke="midnightblue" d="M538.98,-421.48C554.63,-417.75 571.53,-413.72 587.61,-409.88"/>
<polygon fill="midnightblue" stroke="midnightblue" points="588.58,-413.25 597.49,-407.53 586.95,-406.44 588.58,-413.25"/>
</g>
<!-- Node6 -->
<g id="node6" class="node">
<title>Node6</title>
<g id="a_node6"><a xlink:href="classwmtk_1_1attribute_1_1_caching_accessor.html#ab7a79d239fdc3d22fbc0c3a83a5c50bc" target="_top" xlink:title=" ">
<polygon fill="none" stroke="black" points="1099,-465 1099,-506 1236,-506 1236,-465 1099,-465"/>
<text text-anchor="start" x="1107" y="-494" font-family="Helvetica,sans-Serif" font-size="10.00">wmtk::attribute::Caching</text>
<text text-anchor="start" x="1107" y="-483" font-family="Helvetica,sans-Serif" font-size="10.00">Accessor::const_vector</text>
<text text-anchor="middle" x="1167.5" y="-472" font-family="Helvetica,sans-Serif" font-size="10.00">_attribute</text>
</a>
</g>
</g>
<!-- Node4&#45;&gt;Node6 -->
<g id="edge5" class="edge">
<title>Node4&#45;&gt;Node6</title>
<path fill="none" stroke="midnightblue" d="M544.06,-450.24C556,-452.27 568.33,-454.14 580,-455.5 761.44,-476.62 976.17,-482.87 1088.73,-484.72"/>
<polygon fill="midnightblue" stroke="midnightblue" points="1088.92,-488.23 1098.97,-484.88 1089.03,-481.23 1088.92,-488.23"/>
</g>
<!-- Node7 -->
<g id="node7" class="node">
<title>Node7</title>
<g id="a_node7"><a xlink:href="classwmtk_1_1_mesh_c_r_t_p.html#a58243712dc3e0d258ad645e7b08870db" target="_top" xlink:title="return the global id of the Tuple of the given dimension">
<polygon fill="none" stroke="black" points="580,-563.5 580,-593.5 743,-593.5 743,-563.5 580,-563.5"/>
<text text-anchor="start" x="588" y="-581.5" font-family="Helvetica,sans-Serif" font-size="10.00">wmtk::MeshCRTP&lt; EdgeMesh</text>
<text text-anchor="middle" x="661.5" y="-570.5" font-family="Helvetica,sans-Serif" font-size="10.00"> &gt;::id</text>
</a>
</g>
</g>
<!-- Node4&#45;&gt;Node7 -->
<g id="edge6" class="edge">
<title>Node4&#45;&gt;Node7</title>
<path fill="none" stroke="midnightblue" d="M486.42,-451.65C503.45,-475.37 539.42,-521.35 580,-548.5 586.05,-552.55 592.72,-556.14 599.55,-559.31"/>
<polygon fill="midnightblue" stroke="midnightblue" points="598.36,-562.61 608.93,-563.37 601.14,-556.18 598.36,-562.61"/>
</g>
<!-- Node8 -->
<g id="node8" class="node">
<title>Node8</title>
<g id="a_node8"><a xlink:href="classwmtk_1_1attribute_1_1_accessor.html#a41f40a73a13789707c117bda177dfc83" target="_top" xlink:title=" ">
<polygon fill="none" stroke="black" points="1287,-431.5 1287,-461.5 1429,-461.5 1429,-431.5 1287,-431.5"/>
<text text-anchor="start" x="1295" y="-449.5" font-family="Helvetica,sans-Serif" font-size="10.00">wmtk::attribute::Accessor</text>
<text text-anchor="middle" x="1358" y="-438.5" font-family="Helvetica,sans-Serif" font-size="10.00">::index_access</text>
</a>
</g>
</g>
<!-- Node4&#45;&gt;Node8 -->
<g id="edge7" class="edge">
<title>Node4&#45;&gt;Node8</title>
<path fill="none" stroke="midnightblue" d="M508.4,-451.6C570.45,-479.09 710.97,-534.5 835.5,-534.5 835.5,-534.5 835.5,-534.5 991,-534.5 1105.98,-534.5 1139.9,-551.78 1249,-515.5 1279.8,-505.26 1310.58,-484.28 1331.35,-468.13"/>
<polygon fill="midnightblue" stroke="midnightblue" points="1333.69,-470.73 1339.34,-461.77 1329.33,-465.26 1333.69,-470.73"/>
</g>
<!-- Node10 -->
<g id="node10" class="node">
<title>Node10</title>
<g id="a_node10"><a xlink:href="classwmtk_1_1_edge_mesh.html#a83db0c93833dacdfb169807d8ba4b6ca" target="_top" xlink:title="TODO this needs dimension?">
<polygon fill="none" stroke="black" points="592,-427 592,-446 731,-446 731,-427 592,-427"/>
<text text-anchor="middle" x="661.5" y="-434" font-family="Helvetica,sans-Serif" font-size="10.00">wmtk::EdgeMesh::is_ccw</text>
</a>
</g>
</g>
<!-- Node4&#45;&gt;Node10 -->
<g id="edge9" class="edge">
<title>Node4&#45;&gt;Node10</title>
<path fill="none" stroke="midnightblue" d="M544.18,-436.5C556.37,-436.5 569.16,-436.5 581.62,-436.5"/>
<polygon fill="midnightblue" stroke="midnightblue" points="581.99,-440 591.99,-436.5 581.99,-433 581.99,-440"/>
</g>
<!-- Node11 -->
<g id="node11" class="node">
<title>Node11</title>
<g id="a_node11"><a xlink:href="classwmtk_1_1_edge_mesh.html#acd802c89cf0cba9c312a8e7ecfa11c80" target="_top" xlink:title="check validity of tuple including its hash">
<polygon fill="none" stroke="black" points="779,-303.5 779,-333.5 894,-333.5 894,-303.5 779,-303.5"/>
<text text-anchor="start" x="787" y="-321.5" font-family="Helvetica,sans-Serif" font-size="10.00">wmtk::EdgeMesh::is</text>
<text text-anchor="middle" x="836.5" y="-310.5" font-family="Helvetica,sans-Serif" font-size="10.00">_valid</text>
</a>
</g>
</g>
<!-- Node4&#45;&gt;Node11 -->
<g id="edge32" class="edge">
<title>Node4&#45;&gt;Node11</title>
<path fill="none" stroke="midnightblue" d="M494.31,-421.34C514.17,-405.69 547.43,-381.74 580,-368.5 641.24,-343.6 715.89,-330.83 768.65,-324.46"/>
<polygon fill="midnightblue" stroke="midnightblue" points="769.37,-327.9 778.9,-323.27 768.56,-320.95 769.37,-327.9"/>
</g>
<!-- Node9 -->
<g id="node9" class="node">
<title>Node9</title>
<g id="a_node9"><a xlink:href="classwmtk_1_1attribute_1_1_accessor.html#a9c7d323f50911892c8ea738f97d041d4" target="_top" xlink:title=" ">
<polygon fill="none" stroke="black" points="1467,-431.5 1467,-461.5 1609,-461.5 1609,-431.5 1467,-431.5"/>
<text text-anchor="start" x="1475" y="-449.5" font-family="Helvetica,sans-Serif" font-size="10.00">wmtk::attribute::Accessor</text>
<text text-anchor="middle" x="1538" y="-438.5" font-family="Helvetica,sans-Serif" font-size="10.00">::caching_base_type</text>
</a>
</g>
</g>
<!-- Node8&#45;&gt;Node9 -->
<g id="edge8" class="edge">
<title>Node8&#45;&gt;Node9</title>
<path fill="none" stroke="midnightblue" d="M1429.09,-446.5C1438.24,-446.5 1447.66,-446.5 1456.96,-446.5"/>
<polygon fill="midnightblue" stroke="midnightblue" points="1456.97,-450 1466.97,-446.5 1456.97,-443 1456.97,-450"/>
</g>
<!-- Node10&#45;&gt;Node11 -->
<g id="edge10" class="edge">
<title>Node10&#45;&gt;Node11</title>
<path fill="none" stroke="midnightblue" d="M721.24,-426.95C728.83,-424.48 736.29,-421.39 743,-417.5 775.51,-398.64 803.48,-364.76 819.9,-341.95"/>
<polygon fill="midnightblue" stroke="midnightblue" points="822.94,-343.71 825.82,-333.51 817.21,-339.69 822.94,-343.71"/>
</g>
<!-- Node12 -->
<g id="node12" class="node">
<title>Node12</title>
<g id="a_node12"><a xlink:href="classwmtk_1_1_edge_mesh.html#a3bf6f960d630d1e3a79a09c71a43100f" target="_top" xlink:title=" ">
<polygon fill="none" stroke="black" points="932.5,-303.5 932.5,-333.5 1047.5,-333.5 1047.5,-303.5 932.5,-303.5"/>
<text text-anchor="start" x="940.5" y="-321.5" font-family="Helvetica,sans-Serif" font-size="10.00">wmtk::EdgeMesh::is</text>
<text text-anchor="middle" x="990" y="-310.5" font-family="Helvetica,sans-Serif" font-size="10.00">_connectivity_valid</text>
</a>
</g>
</g>
<!-- Node11&#45;&gt;Node12 -->
<g id="edge11" class="edge">
<title>Node11&#45;&gt;Node12</title>
<path fill="none" stroke="midnightblue" d="M894.34,-318.5C903.47,-318.5 912.99,-318.5 922.32,-318.5"/>
<polygon fill="midnightblue" stroke="midnightblue" points="922.34,-322 932.34,-318.5 922.34,-315 922.34,-322"/>
</g>
<!-- Node21 -->
<g id="node21" class="node">
<title>Node21</title>
<g id="a_node21"><a xlink:href="namespacewmtk.html#a6a35f11c12436093d26fdd8be6fecc06" target="_top" xlink:title="Retrieves the current logger.">
<polygon fill="none" stroke="black" points="1127,-164 1127,-183 1208,-183 1208,-164 1127,-164"/>
<text text-anchor="middle" x="1167.5" y="-171" font-family="Helvetica,sans-Serif" font-size="10.00">wmtk::logger</text>
</a>
</g>
</g>
<!-- Node11&#45;&gt;Node21 -->
<g id="edge31" class="edge">
<title>Node11&#45;&gt;Node21</title>
<path fill="none" stroke="midnightblue" d="M865.64,-303.49C911.14,-279.57 1004.03,-232.19 1086,-199.5 1098.16,-194.65 1111.62,-190.02 1123.99,-186.05"/>
<polygon fill="midnightblue" stroke="midnightblue" points="1125.15,-189.36 1133.64,-183.02 1123.05,-182.68 1125.15,-189.36"/>
</g>
<!-- Node23 -->
<g id="node23" class="node">
<title>Node23</title>
<g id="a_node23"><a xlink:href="classwmtk_1_1_mesh.html#a8cc8686f0688613806f43720b6db49e7" target="_top" xlink:title="check validity of tuple including its hash">
<polygon fill="none" stroke="black" points="930,-126 930,-145 1050,-145 1050,-126 930,-126"/>
<text text-anchor="middle" x="990" y="-133" font-family="Helvetica,sans-Serif" font-size="10.00">wmtk::Mesh::is_valid</text>
</a>
</g>
</g>
<!-- Node11&#45;&gt;Node23 -->
<g id="edge28" class="edge">
<title>Node11&#45;&gt;Node23</title>
<path fill="none" stroke="midnightblue" d="M850.16,-303.21C878.08,-269.48 944.86,-188.82 974.45,-153.07"/>
<polygon fill="midnightblue" stroke="midnightblue" points="977.45,-154.94 981.13,-145.01 972.06,-150.48 977.45,-154.94"/>
</g>
<!-- Node12&#45;&gt;Node6 -->
<g id="edge15" class="edge">
<title>Node12&#45;&gt;Node6</title>
<path fill="none" stroke="midnightblue" d="M998.36,-333.58C1012.14,-360.43 1044.24,-416.83 1086,-450.5 1090.23,-453.91 1094.84,-457.04 1099.64,-459.92"/>
<polygon fill="midnightblue" stroke="midnightblue" points="1098.01,-463.02 1108.45,-464.82 1101.41,-456.9 1098.01,-463.02"/>
</g>
<!-- Node12&#45;&gt;Node8 -->
<g id="edge20" class="edge">
<title>Node12&#45;&gt;Node8</title>
<path fill="none" stroke="midnightblue" d="M1000.47,-333.75C1015.48,-356.42 1047.08,-398.4 1086,-417.5 1145.28,-446.6 1220.47,-452.59 1276.6,-452.02"/>
<polygon fill="midnightblue" stroke="midnightblue" points="1276.92,-455.51 1286.85,-451.84 1276.79,-448.51 1276.92,-455.51"/>
</g>
<!-- Node13 -->
<g id="node13" class="node">
<title>Node13</title>
<g id="a_node13"><a xlink:href="classwmtk_1_1_mesh.html#a3e8ff83c4a5526a40d18bb9883c6c6c9" target="_top" xlink:title="read in the m_capacities return the upper bound for the number of entities of the given dimension">
<polygon fill="none" stroke="black" points="1296,-202 1296,-221 1420,-221 1420,-202 1296,-202"/>
<text text-anchor="middle" x="1358" y="-209" font-family="Helvetica,sans-Serif" font-size="10.00">wmtk::Mesh::capacity</text>
</a>
</g>
</g>
<!-- Node12&#45;&gt;Node13 -->
<g id="edge12" class="edge">
<title>Node12&#45;&gt;Node13</title>
<path fill="none" stroke="midnightblue" d="M1002.17,-303.24C1018.16,-282.77 1049.66,-247.19 1086,-231.5 1149.51,-204.08 1229.17,-201.51 1285.64,-204.32"/>
<polygon fill="midnightblue" stroke="midnightblue" points="1285.73,-207.83 1295.91,-204.9 1286.12,-200.84 1285.73,-207.83"/>
</g>
<!-- Node14 -->
<g id="node14" class="node">
<title>Node14</title>
<g id="a_node14"><a xlink:href="classwmtk_1_1attribute_1_1_caching_accessor.html#a196b6b32e2495b971113d552be7f45d9" target="_top" xlink:title=" ">
<polygon fill="none" stroke="black" points="1289.5,-322 1289.5,-363 1426.5,-363 1426.5,-322 1289.5,-322"/>
<text text-anchor="start" x="1297.5" y="-351" font-family="Helvetica,sans-Serif" font-size="10.00">wmtk::attribute::Caching</text>
<text text-anchor="start" x="1297.5" y="-340" font-family="Helvetica,sans-Serif" font-size="10.00">Accessor::const_scalar</text>
<text text-anchor="middle" x="1358" y="-329" font-family="Helvetica,sans-Serif" font-size="10.00">_attribute</text>
</a>
</g>
</g>
<!-- Node12&#45;&gt;Node14 -->
<g id="edge14" class="edge">
<title>Node12&#45;&gt;Node14</title>
<path fill="none" stroke="midnightblue" d="M1047.7,-325.7C1060.3,-327.12 1073.59,-328.48 1086,-329.5 1150.94,-334.81 1224.83,-338.18 1279.03,-340.15"/>
<polygon fill="midnightblue" stroke="midnightblue" points="1279.14,-343.66 1289.26,-340.52 1279.39,-336.66 1279.14,-343.66"/>
</g>
<!-- Node15 -->
<g id="node15" class="node">
<title>Node15</title>
<g id="a_node15"><a xlink:href="classwmtk_1_1_mesh.html#ae3493915b766f0f34f0a9e89603d5773" target="_top" xlink:title=" ">
<polygon fill="none" stroke="black" points="1106.5,-289.5 1106.5,-319.5 1228.5,-319.5 1228.5,-289.5 1106.5,-289.5"/>
<text text-anchor="start" x="1114.5" y="-307.5" font-family="Helvetica,sans-Serif" font-size="10.00">wmtk::Mesh::get_flag</text>
<text text-anchor="middle" x="1167.5" y="-296.5" font-family="Helvetica,sans-Serif" font-size="10.00">_accessor</text>
</a>
</g>
</g>
<!-- Node12&#45;&gt;Node15 -->
<g id="edge16" class="edge">
<title>Node12&#45;&gt;Node15</title>
<path fill="none" stroke="midnightblue" d="M1047.98,-313.95C1063.33,-312.73 1080.13,-311.39 1096.12,-310.11"/>
<polygon fill="midnightblue" stroke="midnightblue" points="1096.8,-313.57 1106.49,-309.29 1096.24,-306.59 1096.8,-313.57"/>
</g>
<!-- Node18 -->
<g id="node18" class="node">
<title>Node18</title>
<g id="a_node18"><a xlink:href="classwmtk_1_1attribute_1_1_flag_accessor.html#a03ac42d95cb81c6a751eb9b5de9f84d1" target="_top" xlink:title=" ">
<polygon fill="none" stroke="black" points="1086,-240.5 1086,-270.5 1249,-270.5 1249,-240.5 1086,-240.5"/>
<text text-anchor="start" x="1094" y="-258.5" font-family="Helvetica,sans-Serif" font-size="10.00">wmtk::attribute::FlagAccessor</text>
<text text-anchor="middle" x="1167.5" y="-247.5" font-family="Helvetica,sans-Serif" font-size="10.00">::index_access</text>
</a>
</g>
</g>
<!-- Node12&#45;&gt;Node18 -->
<g id="edge21" class="edge">
<title>Node12&#45;&gt;Node18</title>
<path fill="none" stroke="midnightblue" d="M1026.83,-303.39C1044.52,-296.13 1066.24,-287.51 1086,-280.5 1092.39,-278.23 1099.11,-275.97 1105.83,-273.78"/>
<polygon fill="midnightblue" stroke="midnightblue" points="1107.18,-277.02 1115.63,-270.63 1105.03,-270.35 1107.18,-277.02"/>
</g>
<!-- Node19 -->
<g id="node19" class="node">
<title>Node19</title>
<g id="a_node19"><a xlink:href="classwmtk_1_1attribute_1_1_index_flag_accessor.html#a195252af3f6230f09f0c1379cbec7240" target="_top" xlink:title=" ">
<polygon fill="none" stroke="black" points="1094.5,-377.5 1094.5,-407.5 1240.5,-407.5 1240.5,-377.5 1094.5,-377.5"/>
<text text-anchor="start" x="1102.5" y="-395.5" font-family="Helvetica,sans-Serif" font-size="10.00">wmtk::attribute::IndexFlag</text>
<text text-anchor="middle" x="1167.5" y="-384.5" font-family="Helvetica,sans-Serif" font-size="10.00">Accessor::is_active</text>
</a>
</g>
</g>
<!-- Node12&#45;&gt;Node19 -->
<g id="edge22" class="edge">
<title>Node12&#45;&gt;Node19</title>
<path fill="none" stroke="midnightblue" d="M1021.97,-333.58C1040.41,-342.37 1064.36,-353.47 1086,-362.5 1095.19,-366.33 1105.06,-370.21 1114.63,-373.84"/>
<polygon fill="midnightblue" stroke="midnightblue" points="1113.47,-377.14 1124.06,-377.38 1115.93,-370.59 1113.47,-377.14"/>
</g>
<!-- Node12&#45;&gt;Node21 -->
<g id="edge26" class="edge">
<title>Node12&#45;&gt;Node21</title>
<path fill="none" stroke="midnightblue" d="M1002.08,-303.36C1024.73,-272.56 1075.13,-204.9 1086,-197.5 1095.23,-191.22 1106.14,-186.55 1116.9,-183.09"/>
<polygon fill="midnightblue" stroke="midnightblue" points="1118.06,-186.39 1126.69,-180.24 1116.11,-179.67 1118.06,-186.39"/>
</g>
<!-- Node13&#45;&gt;Node2 -->
<g id="edge13" class="edge">
<title>Node13&#45;&gt;Node2</title>
<path fill="none" stroke="midnightblue" d="M1420.26,-211.5C1436.1,-211.5 1453.24,-211.5 1469.38,-211.5"/>
<polygon fill="midnightblue" stroke="midnightblue" points="1469.82,-215 1479.82,-211.5 1469.82,-208 1469.82,-215"/>
</g>
<!-- Node16 -->
<g id="node16" class="node">
<title>Node16</title>
<g id="a_node16"><a xlink:href="classwmtk_1_1_mesh.html#acfa981b31f00aef4438ff5e73bbce2f4" target="_top" xlink:title=" ">
<polygon fill="none" stroke="black" points="1293,-261.5 1293,-291.5 1423,-291.5 1423,-261.5 1293,-261.5"/>
<text text-anchor="start" x="1301" y="-279.5" font-family="Helvetica,sans-Serif" font-size="10.00">wmtk::Mesh::get_const</text>
<text text-anchor="middle" x="1358" y="-268.5" font-family="Helvetica,sans-Serif" font-size="10.00">_flag_accessor</text>
</a>
</g>
</g>
<!-- Node15&#45;&gt;Node16 -->
<g id="edge17" class="edge">
<title>Node15&#45;&gt;Node16</title>
<path fill="none" stroke="midnightblue" d="M1228.66,-295.56C1245.85,-293.01 1264.8,-290.2 1282.73,-287.53"/>
<polygon fill="midnightblue" stroke="midnightblue" points="1283.48,-290.96 1292.86,-286.03 1282.45,-284.04 1283.48,-290.96"/>
</g>
<!-- Node16&#45;&gt;Node2 -->
<g id="edge19" class="edge">
<title>Node16&#45;&gt;Node2</title>
<path fill="none" stroke="midnightblue" d="M1400.28,-261.42C1425.8,-252.11 1458.75,-240.07 1485.91,-230.16"/>
<polygon fill="midnightblue" stroke="midnightblue" points="1487.44,-233.32 1495.63,-226.61 1485.04,-226.75 1487.44,-233.32"/>
</g>
<!-- Node17 -->
<g id="node17" class="node">
<title>Node17</title>
<g id="a_node17"><a xlink:href="classwmtk_1_1_mesh.html#a4a20dcdac339e7a4f6f8a6570114cbe6" target="_top" xlink:title=" ">
<polygon fill="none" stroke="black" points="1481.5,-261.5 1481.5,-291.5 1594.5,-291.5 1594.5,-261.5 1481.5,-261.5"/>
<text text-anchor="start" x="1489.5" y="-279.5" font-family="Helvetica,sans-Serif" font-size="10.00">wmtk::Mesh::create</text>
<text text-anchor="middle" x="1538" y="-268.5" font-family="Helvetica,sans-Serif" font-size="10.00">_const_accessor</text>
</a>
</g>
</g>
<!-- Node16&#45;&gt;Node17 -->
<g id="edge18" class="edge">
<title>Node16&#45;&gt;Node17</title>
<path fill="none" stroke="midnightblue" d="M1423.01,-276.5C1438.63,-276.5 1455.36,-276.5 1471.06,-276.5"/>
<polygon fill="midnightblue" stroke="midnightblue" points="1471.21,-280 1481.21,-276.5 1471.21,-273 1471.21,-280"/>
</g>
<!-- Node19&#45;&gt;Node8 -->
<g id="edge25" class="edge">
<title>Node19&#45;&gt;Node8</title>
<path fill="none" stroke="midnightblue" d="M1221.01,-407.54C1243.89,-414.1 1270.89,-421.83 1294.77,-428.67"/>
<polygon fill="midnightblue" stroke="midnightblue" points="1293.87,-432.06 1304.45,-431.45 1295.8,-425.33 1293.87,-432.06"/>
</g>
<!-- Node19&#45;&gt;Node14 -->
<g id="edge24" class="edge">
<title>Node19&#45;&gt;Node14</title>
<path fill="none" stroke="midnightblue" d="M1225.06,-377.5C1242.15,-372.96 1261.23,-367.9 1279.45,-363.07"/>
<polygon fill="midnightblue" stroke="midnightblue" points="1280.41,-366.44 1289.18,-360.49 1278.61,-359.67 1280.41,-366.44"/>
</g>
<!-- Node20 -->
<g id="node20" class="node">
<title>Node20</title>
<g id="a_node20"><a xlink:href="classwmtk_1_1attribute_1_1_index_flag_accessor.html#a08ce19b077654f9e384d8c3fffcbbd0b" target="_top" xlink:title=" ">
<polygon fill="none" stroke="black" points="1285,-382.5 1285,-412.5 1431,-412.5 1431,-382.5 1285,-382.5"/>
<text text-anchor="start" x="1293" y="-400.5" font-family="Helvetica,sans-Serif" font-size="10.00">wmtk::attribute::IndexFlag</text>
<text text-anchor="middle" x="1358" y="-389.5" font-family="Helvetica,sans-Serif" font-size="10.00">Accessor::_is_active</text>
</a>
</g>
</g>
<!-- Node19&#45;&gt;Node20 -->
<g id="edge23" class="edge">
<title>Node19&#45;&gt;Node20</title>
<path fill="none" stroke="midnightblue" d="M1240.57,-394.41C1251.71,-394.71 1263.29,-395.01 1274.64,-395.32"/>
<polygon fill="midnightblue" stroke="midnightblue" points="1274.88,-398.82 1284.97,-395.59 1275.07,-391.83 1274.88,-398.82"/>
</g>
<!-- Node22 -->
<g id="node22" class="node">
<title>Node22</title>
<g id="a_node22"><a xlink:href="namespacewmtk.html#a3daa7951a5f8b78cf4600dc047fcc180" target="_top" xlink:title="Setup a logger object to be used by WildmeshToolkit.">
<polygon fill="none" stroke="black" points="1307.5,-164 1307.5,-183 1408.5,-183 1408.5,-164 1307.5,-164"/>
<text text-anchor="middle" x="1358" y="-171" font-family="Helvetica,sans-Serif" font-size="10.00">wmtk::set_logger</text>
</a>
</g>
</g>
<!-- Node21&#45;&gt;Node22 -->
<g id="edge27" class="edge">
<title>Node21&#45;&gt;Node22</title>
<path fill="none" stroke="midnightblue" d="M1208.02,-173.5C1233.9,-173.5 1268.2,-173.5 1297.37,-173.5"/>
<polygon fill="midnightblue" stroke="midnightblue" points="1297.45,-177 1307.45,-173.5 1297.45,-170 1297.45,-177"/>
</g>
<!-- Node24 -->
<g id="node24" class="node">
<title>Node24</title>
<g id="a_node24"><a xlink:href="classwmtk_1_1_tuple.html#a0023f575be92cd5ceeeaaaa3762ea06d" target="_top" xlink:title="Checks if a tuple is &quot;null&quot;. This merely implies the global index is &#45;1.">
<polygon fill="none" stroke="black" points="1111,-126 1111,-145 1224,-145 1224,-126 1111,-126"/>
<text text-anchor="middle" x="1167.5" y="-133" font-family="Helvetica,sans-Serif" font-size="10.00">wmtk::Tuple::is_null</text>
</a>
</g>
</g>
<!-- Node23&#45;&gt;Node24 -->
<g id="edge29" class="edge">
<title>Node23&#45;&gt;Node24</title>
<path fill="none" stroke="midnightblue" d="M1050.42,-135.5C1066.64,-135.5 1084.31,-135.5 1100.86,-135.5"/>
<polygon fill="midnightblue" stroke="midnightblue" points="1100.99,-139 1110.99,-135.5 1100.99,-132 1100.99,-139"/>
</g>
<!-- Node25 -->
<g id="node25" class="node">
<title>Node25</title>
<g id="a_node25"><a xlink:href="classwmtk_1_1_mesh.html#ade176d345902d97af8c5da04aa3a095b" target="_top" xlink:title=" ">
<polygon fill="none" stroke="black" points="1097.5,-88 1097.5,-107 1237.5,-107 1237.5,-88 1097.5,-88"/>
<text text-anchor="middle" x="1167.5" y="-95" font-family="Helvetica,sans-Serif" font-size="10.00">wmtk::Mesh::is_removed</text>
</a>
</g>
</g>
<!-- Node23&#45;&gt;Node25 -->
<g id="edge30" class="edge">
<title>Node23&#45;&gt;Node25</title>
<path fill="none" stroke="midnightblue" d="M1035.29,-125.91C1058.76,-120.83 1087.78,-114.54 1112.56,-109.18"/>
<polygon fill="midnightblue" stroke="midnightblue" points="1113.5,-112.56 1122.53,-107.02 1112.02,-105.72 1113.5,-112.56"/>
</g>
</g>
</svg>
