<?xml version="1.0" encoding="UTF-8" standalone="no"?>
<!DOCTYPE svg PUBLIC "-//W3C//DTD SVG 1.1//EN"
 "http://www.w3.org/Graphics/SVG/1.1/DTD/svg11.dtd">
<!-- Generated by graphviz version 2.43.0 (0)
 -->
<!-- Title: wmtk::invariants::CollapseEnergyBeforeInvariantDouble::before Pages: 1 -->
<!--zoomable 482 -->
<svg id="main" version="1.1" xmlns="http://www.w3.org/2000/svg" xmlns:xlink="http://www.w3.org/1999/xlink" xml:space="preserve" onload="init(evt)">
<style type="text/css"><![CDATA[
.edge:hover path { stroke: red; }
.edge:hover polygon { stroke: red; fill: red; }
]]></style>
<script type="text/javascript"><![CDATA[
var edges = document.getElementsByTagName('g');
if (edges && edges.length) {
  for (var i=0;i<edges.length;i++) {
    if (edges[i].id.substr(0,4)=='edge') {
      edges[i].setAttribute('class','edge');
    }
  }
}
]]></script>
        <defs>
                <circle id="rim" cx="0" cy="0" r="7"/>
                <circle id="rim2" cx="0" cy="0" r="3.5"/>
                <g id="zoomPlus">
                        <use xlink:href="#rim" fill="#404040">
                                <set attributeName="fill" to="#808080" begin="zoomplus.mouseover" end="zoomplus.mouseout"/>
                        </use>
                        <path d="M-4,0h8M0,-4v8" fill="none" stroke="white" stroke-width="1.5" pointer-events="none"/>
                </g>
                <g id="zoomMin">
                        <use xlink:href="#rim" fill="#404040">
                                <set attributeName="fill" to="#808080" begin="zoomminus.mouseover" end="zoomminus.mouseout"/>
                        </use>
                        <path d="M-4,0h8" fill="none" stroke="white" stroke-width="1.5" pointer-events="none"/>
                </g>
                <g id="dirArrow">
                        <path fill="none" stroke="white" stroke-width="1.5" d="M0,-3.0v7 M-2.5,-0.5L0,-3.0L2.5,-0.5"/>
                </g>
               <g id="resetDef">
                       <use xlink:href="#rim2" fill="#404040">
                               <set attributeName="fill" to="#808080" begin="reset.mouseover" end="reset.mouseout"/>
                       </use>
               </g>
        </defs>

<script type="text/javascript">
var viewWidth = 1074;
var viewHeight = 482;
var sectionId = 'dynsection-2';
</script>
<script xlink:href="svgpan.js"/>
<svg id="graph" class="graph">
<g id="viewport">
<title>wmtk::invariants::CollapseEnergyBeforeInvariantDouble::before</title>
<!-- Node1 -->
<g id="node1" class="node">
<title>Node1</title>
<g id="a_node1"><a xlink:title=" ">
<polygon fill="#bfbfbf" stroke="black" points="0,-204.5 0,-245.5 161,-245.5 161,-204.5 0,-204.5"/>
<text text-anchor="start" x="8" y="-233.5" font-family="Helvetica,sans-Serif" font-size="10.00">wmtk::invariants::Collapse</text>
<text text-anchor="start" x="8" y="-222.5" font-family="Helvetica,sans-Serif" font-size="10.00">EnergyBeforeInvariantDouble</text>
<text text-anchor="middle" x="80.5" y="-211.5" font-family="Helvetica,sans-Serif" font-size="10.00">::before</text>
</a>
</g>
</g>
<!-- Node2 -->
<g id="node2" class="node">
<title>Node2</title>
<g id="a_node2"><a xlink:href="classwmtk_1_1_mesh.html#a4a20dcdac339e7a4f6f8a6570114cbe6" target="_top" xlink:title=" ">
<polygon fill="none" stroke="black" points="216,-443 216,-473 329,-473 329,-443 216,-443"/>
<text text-anchor="start" x="224" y="-461" font-family="Helvetica,sans-Serif" font-size="10.00">wmtk::Mesh::create</text>
<text text-anchor="middle" x="272.5" y="-450" font-family="Helvetica,sans-Serif" font-size="10.00">_const_accessor</text>
</a>
</g>
</g>
<!-- Node1&#45;&gt;Node2 -->
<g id="edge1" class="edge">
<title>Node1&#45;&gt;Node2</title>
<path fill="none" stroke="midnightblue" d="M87.4,-245.71C100.3,-287.29 134.92,-381.36 197,-433 200.04,-435.53 203.35,-437.81 206.82,-439.85"/>
<polygon fill="midnightblue" stroke="midnightblue" points="205.26,-442.99 215.74,-444.49 208.49,-436.78 205.26,-442.99"/>
</g>
<!-- Node3 -->
<g id="node3" class="node">
<title>Node3</title>
<g id="a_node3"><a xlink:href="classwmtk_1_1simplex_1_1utils_1_1_simplex_comparisons.html#a855a7009bb50500e9b336a05d424b34d" target="_top" xlink:title=" ">
<polygon fill="none" stroke="black" points="209.5,-382.5 209.5,-423.5 335.5,-423.5 335.5,-382.5 209.5,-382.5"/>
<text text-anchor="start" x="217.5" y="-411.5" font-family="Helvetica,sans-Serif" font-size="10.00">wmtk::simplex::utils</text>
<text text-anchor="start" x="217.5" y="-400.5" font-family="Helvetica,sans-Serif" font-size="10.00">::SimplexComparisons</text>
<text text-anchor="middle" x="272.5" y="-389.5" font-family="Helvetica,sans-Serif" font-size="10.00">::equal</text>
</a>
</g>
</g>
<!-- Node1&#45;&gt;Node3 -->
<g id="edge2" class="edge">
<title>Node1&#45;&gt;Node3</title>
<path fill="none" stroke="midnightblue" d="M92.85,-245.75C111.02,-277.24 149.48,-337.22 197,-373 198.86,-374.4 200.78,-375.74 202.77,-377.03"/>
<polygon fill="midnightblue" stroke="midnightblue" points="201.39,-380.28 211.78,-382.34 204.94,-374.25 201.39,-380.28"/>
</g>
<!-- Node7 -->
<g id="node7" class="node">
<title>Node7</title>
<g id="a_node7"><a xlink:href="classwmtk_1_1invariants_1_1_invariant.html#ac97548bf5f1167cd85081d1bde011139" target="_top" xlink:title=" ">
<polygon fill="none" stroke="black" points="198,-333 198,-363 347,-363 347,-333 198,-333"/>
<text text-anchor="start" x="206" y="-351" font-family="Helvetica,sans-Serif" font-size="10.00">wmtk::invariants::Invariant</text>
<text text-anchor="middle" x="272.5" y="-340" font-family="Helvetica,sans-Serif" font-size="10.00">::mesh</text>
</a>
</g>
</g>
<!-- Node1&#45;&gt;Node7 -->
<g id="edge6" class="edge">
<title>Node1&#45;&gt;Node7</title>
<path fill="none" stroke="midnightblue" d="M100.49,-245.57C121.98,-267.75 158.97,-302.72 197,-324 200.21,-325.8 203.58,-327.48 207.03,-329.06"/>
<polygon fill="midnightblue" stroke="midnightblue" points="205.75,-332.32 216.33,-332.99 208.48,-325.87 205.75,-332.32"/>
</g>
<!-- Node8 -->
<g id="node8" class="node">
<title>Node8</title>
<g id="a_node8"><a xlink:href="classwmtk_1_1_mesh.html#a0f1e2ecf58dcc8a2c86309cb11d1fe95" target="_top" xlink:title=" ">
<polygon fill="none" stroke="black" points="217,-284 217,-314 328,-314 328,-284 217,-284"/>
<text text-anchor="start" x="225" y="-302" font-family="Helvetica,sans-Serif" font-size="10.00">wmtk::Mesh::orient</text>
<text text-anchor="middle" x="272.5" y="-291" font-family="Helvetica,sans-Serif" font-size="10.00">_vertices</text>
</a>
</g>
</g>
<!-- Node1&#45;&gt;Node8 -->
<g id="edge7" class="edge">
<title>Node1&#45;&gt;Node8</title>
<path fill="none" stroke="midnightblue" d="M126.34,-245.61C147.56,-255.06 173.38,-266.11 197,-275 202.09,-276.92 207.4,-278.82 212.75,-280.67"/>
<polygon fill="midnightblue" stroke="midnightblue" points="211.78,-284.03 222.38,-283.92 214.02,-277.4 211.78,-284.03"/>
</g>
<!-- Node9 -->
<g id="node9" class="node">
<title>Node9</title>
<g id="a_node9"><a xlink:href="classwmtk_1_1_mesh.html#a965a8a24158c4aa8580c57ba09f885f7" target="_top" xlink:title="switch the orientation of the Tuple of the given dimension">
<polygon fill="none" stroke="black" points="215.5,-235 215.5,-265 329.5,-265 329.5,-235 215.5,-235"/>
<text text-anchor="start" x="223.5" y="-253" font-family="Helvetica,sans-Serif" font-size="10.00">wmtk::Mesh::switch</text>
<text text-anchor="middle" x="272.5" y="-242" font-family="Helvetica,sans-Serif" font-size="10.00">_tuple</text>
</a>
</g>
</g>
<!-- Node1&#45;&gt;Node9 -->
<g id="edge8" class="edge">
<title>Node1&#45;&gt;Node9</title>
<path fill="none" stroke="midnightblue" d="M161.25,-235.49C175.88,-237.42 191,-239.41 205.18,-241.27"/>
<polygon fill="midnightblue" stroke="midnightblue" points="204.95,-244.77 215.32,-242.61 205.87,-237.83 204.95,-244.77"/>
</g>
<!-- Node10 -->
<g id="node10" class="node">
<title>Node10</title>
<g id="a_node10"><a xlink:href="namespacewmtk_1_1function_1_1utils.html#a818b9b16f06339c34d08eceeb5342470" target="_top" xlink:title=" ">
<polygon fill="none" stroke="black" points="214,-186 214,-216 331,-216 331,-186 214,-186"/>
<text text-anchor="start" x="222" y="-204" font-family="Helvetica,sans-Serif" font-size="10.00">wmtk::function::utils</text>
<text text-anchor="middle" x="272.5" y="-193" font-family="Helvetica,sans-Serif" font-size="10.00">::Tet_AMIPS_energy</text>
</a>
</g>
</g>
<!-- Node1&#45;&gt;Node10 -->
<g id="edge9" class="edge">
<title>Node1&#45;&gt;Node10</title>
<path fill="none" stroke="midnightblue" d="M161.25,-214.93C175.33,-213.15 189.87,-211.31 203.59,-209.58"/>
<polygon fill="midnightblue" stroke="midnightblue" points="204.42,-213 213.9,-208.28 203.54,-206.06 204.42,-213"/>
</g>
<!-- Node13 -->
<g id="node13" class="node">
<title>Node13</title>
<g id="a_node13"><a xlink:href="namespacewmtk_1_1simplex.html#a87de7137d8d21f1643dd604d73e8f765" target="_top" xlink:title="Get all top dimension cofaces of the given simplex.">
<polygon fill="none" stroke="black" points="214.5,-137 214.5,-167 330.5,-167 330.5,-137 214.5,-137"/>
<text text-anchor="start" x="222.5" y="-155" font-family="Helvetica,sans-Serif" font-size="10.00">wmtk::simplex::top</text>
<text text-anchor="middle" x="272.5" y="-144" font-family="Helvetica,sans-Serif" font-size="10.00">_dimension_cofaces</text>
</a>
</g>
</g>
<!-- Node1&#45;&gt;Node13 -->
<g id="edge12" class="edge">
<title>Node1&#45;&gt;Node13</title>
<path fill="none" stroke="midnightblue" d="M127.21,-204.49C148.28,-195.33 173.73,-184.66 197,-176 202.09,-174.1 207.41,-172.21 212.77,-170.37"/>
<polygon fill="midnightblue" stroke="midnightblue" points="214.04,-173.64 222.39,-167.13 211.8,-167.01 214.04,-173.64"/>
</g>
<!-- Node21 -->
<g id="node21" class="node">
<title>Node21</title>
<g id="a_node21"><a xlink:href="classwmtk_1_1simplex_1_1_simplex.html#a3650fd31ff1864285502dba66db3c73c" target="_top" xlink:title=" ">
<polygon fill="none" stroke="black" points="205,-88 205,-118 340,-118 340,-88 205,-88"/>
<text text-anchor="start" x="213" y="-106" font-family="Helvetica,sans-Serif" font-size="10.00">wmtk::simplex::Simplex</text>
<text text-anchor="middle" x="272.5" y="-95" font-family="Helvetica,sans-Serif" font-size="10.00">::tuple</text>
</a>
</g>
</g>
<!-- Node1&#45;&gt;Node21 -->
<g id="edge21" class="edge">
<title>Node1&#45;&gt;Node21</title>
<path fill="none" stroke="midnightblue" d="M100.93,-204.25C122.51,-182.29 159.31,-147.96 197,-127 200.22,-125.21 203.59,-123.53 207.04,-121.96"/>
<polygon fill="midnightblue" stroke="midnightblue" points="208.49,-125.15 216.34,-118.04 205.77,-118.7 208.49,-125.15"/>
</g>
<!-- Node22 -->
<g id="node22" class="node">
<title>Node22</title>
<g id="a_node22"><a xlink:href="classwmtk_1_1simplex_1_1_simplex.html#a7de67a391b9f48b57f4ecb4c412ccaee" target="_top" xlink:title=" ">
<polygon fill="none" stroke="black" points="205,-39 205,-69 340,-69 340,-39 205,-39"/>
<text text-anchor="start" x="213" y="-57" font-family="Helvetica,sans-Serif" font-size="10.00">wmtk::simplex::Simplex</text>
<text text-anchor="middle" x="272.5" y="-46" font-family="Helvetica,sans-Serif" font-size="10.00">::vertex</text>
</a>
</g>
</g>
<!-- Node1&#45;&gt;Node22 -->
<g id="edge22" class="edge">
<title>Node1&#45;&gt;Node22</title>
<path fill="none" stroke="midnightblue" d="M92.28,-204.5C109.97,-172.8 148.12,-112.03 197,-78 199.15,-76.51 201.39,-75.1 203.71,-73.78"/>
<polygon fill="midnightblue" stroke="midnightblue" points="205.61,-76.74 212.94,-69.09 202.44,-70.5 205.61,-76.74"/>
</g>
<!-- Node24 -->
<g id="node24" class="node">
<title>Node24</title>
<g id="a_node24"><a xlink:href="namespacewmtk_1_1utils.html#a34133dc338089a5141f8e84feecb81ce" target="_top" xlink:title=" ">
<polygon fill="none" stroke="black" points="197,-0.5 197,-19.5 348,-19.5 348,-0.5 197,-0.5"/>
<text text-anchor="middle" x="272.5" y="-7.5" font-family="Helvetica,sans-Serif" font-size="10.00">wmtk::utils::wmtk_orient3d</text>
</a>
</g>
</g>
<!-- Node1&#45;&gt;Node24 -->
<g id="edge24" class="edge">
<title>Node1&#45;&gt;Node24</title>
<path fill="none" stroke="midnightblue" d="M87.66,-204.49C100.81,-164.3 135.57,-75.12 197,-29 199.48,-27.14 202.13,-25.46 204.89,-23.94"/>
<polygon fill="midnightblue" stroke="midnightblue" points="206.47,-27.06 214.02,-19.63 203.49,-20.73 206.47,-27.06"/>
</g>
<!-- Node4 -->
<g id="node4" class="node">
<title>Node4</title>
<g id="a_node4"><a xlink:href="classwmtk_1_1_mesh.html#a58243712dc3e0d258ad645e7b08870db" target="_top" xlink:title="return the global id of the Tuple of the given dimension">
<polygon fill="none" stroke="black" points="430,-393.5 430,-412.5 522,-412.5 522,-393.5 430,-393.5"/>
<text text-anchor="middle" x="476" y="-400.5" font-family="Helvetica,sans-Serif" font-size="10.00">wmtk::Mesh::id</text>
</a>
</g>
</g>
<!-- Node3&#45;&gt;Node4 -->
<g id="edge3" class="edge">
<title>Node3&#45;&gt;Node4</title>
<path fill="none" stroke="midnightblue" d="M335.6,-403C362.45,-403 393.61,-403 419.66,-403"/>
<polygon fill="midnightblue" stroke="midnightblue" points="419.74,-406.5 429.74,-403 419.74,-399.5 419.74,-406.5"/>
</g>
<!-- Node6 -->
<g id="node6" class="node">
<title>Node6</title>
<g id="a_node6"><a xlink:href="classwmtk_1_1simplex_1_1_simplex.html#ad2cc0340a0772b7d6f03ba7a781d1163" target="_top" xlink:title=" ">
<polygon fill="none" stroke="black" points="640.5,-260 640.5,-290 775.5,-290 775.5,-260 640.5,-260"/>
<text text-anchor="start" x="648.5" y="-278" font-family="Helvetica,sans-Serif" font-size="10.00">wmtk::simplex::Simplex</text>
<text text-anchor="middle" x="708" y="-267" font-family="Helvetica,sans-Serif" font-size="10.00">::primitive_type</text>
</a>
</g>
</g>
<!-- Node3&#45;&gt;Node6 -->
<g id="edge5" class="edge">
<title>Node3&#45;&gt;Node6</title>
<path fill="none" stroke="midnightblue" d="M335.61,-384.66C418.51,-360.18 564.39,-317.11 646.48,-292.87"/>
<polygon fill="midnightblue" stroke="midnightblue" points="647.56,-296.2 656.16,-290.01 645.58,-289.49 647.56,-296.2"/>
</g>
<!-- Node5 -->
<g id="node5" class="node">
<title>Node5</title>
<g id="a_node5"><a xlink:href="classwmtk_1_1_mesh.html#a6f6c3b9a1d738d05ec8d84cabfa5e4b4" target="_top" xlink:title="Internal utility to allow id to be virtual with a non&#45;virtual overload in derived &#45;Mesh classes.">
<polygon fill="none" stroke="black" points="644,-393.5 644,-412.5 772,-412.5 772,-393.5 644,-393.5"/>
<text text-anchor="middle" x="708" y="-400.5" font-family="Helvetica,sans-Serif" font-size="10.00">wmtk::Mesh::id_virtual</text>
</a>
</g>
</g>
<!-- Node4&#45;&gt;Node5 -->
<g id="edge4" class="edge">
<title>Node4&#45;&gt;Node5</title>
<path fill="none" stroke="midnightblue" d="M522.17,-403C553.86,-403 596.93,-403 633.52,-403"/>
<polygon fill="midnightblue" stroke="midnightblue" points="633.66,-406.5 643.66,-403 633.66,-399.5 633.66,-406.5"/>
</g>
<!-- Node11 -->
<g id="node11" class="node">
<title>Node11</title>
<g id="a_node11"><a xlink:href="namespacewmtk.html#ad12ad5f8ec07682b8da79699a2628b6a" target="_top" xlink:title=" ">
<polygon fill="none" stroke="black" points="440.5,-284.5 440.5,-303.5 511.5,-303.5 511.5,-284.5 440.5,-284.5"/>
<text text-anchor="middle" x="476" y="-291.5" font-family="Helvetica,sans-Serif" font-size="10.00">wmtk::pow</text>
</a>
</g>
</g>
<!-- Node10&#45;&gt;Node11 -->
<g id="edge10" class="edge">
<title>Node10&#45;&gt;Node11</title>
<path fill="none" stroke="midnightblue" d="M330.65,-216.05C336.79,-218.85 342.71,-222.14 348,-226 369.83,-241.93 361.27,-260.38 384,-275 397.7,-283.81 414.73,-288.62 430.35,-291.23"/>
<polygon fill="midnightblue" stroke="midnightblue" points="429.96,-294.71 440.36,-292.64 430.94,-287.78 429.96,-294.71"/>
</g>
<!-- Node12 -->
<g id="node12" class="node">
<title>Node12</title>
<g id="a_node12"><a xlink:href="namespacewmtk_1_1function_1_1utils.html#a25934673337031320046c5f37c450d0c" target="_top" xlink:title=" ">
<polygon fill="none" stroke="black" points="408.5,-235 408.5,-265 543.5,-265 543.5,-235 408.5,-235"/>
<text text-anchor="start" x="416.5" y="-253" font-family="Helvetica,sans-Serif" font-size="10.00">wmtk::function::utils</text>
<text text-anchor="middle" x="476" y="-242" font-family="Helvetica,sans-Serif" font-size="10.00">::Tet_AMIPS_energy_aux</text>
</a>
</g>
</g>
<!-- Node10&#45;&gt;Node12 -->
<g id="edge11" class="edge">
<title>Node10&#45;&gt;Node12</title>
<path fill="none" stroke="midnightblue" d="M331.24,-215.04C353.63,-220.49 379.5,-226.78 403.08,-232.51"/>
<polygon fill="midnightblue" stroke="midnightblue" points="402.48,-235.97 413.02,-234.93 404.13,-229.16 402.48,-235.97"/>
</g>
<!-- Node14 -->
<g id="node14" class="node">
<title>Node14</title>
<g id="a_node14"><a xlink:href="classwmtk_1_1simplex_1_1_simplex_collection.html#a0d0c1765c4ed8ffd0f163661111bfb08" target="_top" xlink:title=" ">
<polygon fill="none" stroke="black" points="384,-186 384,-216 568,-216 568,-186 384,-186"/>
<text text-anchor="start" x="392" y="-204" font-family="Helvetica,sans-Serif" font-size="10.00">wmtk::simplex::SimplexCollection</text>
<text text-anchor="middle" x="476" y="-193" font-family="Helvetica,sans-Serif" font-size="10.00">::mesh</text>
</a>
</g>
</g>
<!-- Node13&#45;&gt;Node14 -->
<g id="edge13" class="edge">
<title>Node13&#45;&gt;Node14</title>
<path fill="none" stroke="midnightblue" d="M330.7,-165.91C353.2,-171.38 379.29,-177.73 403.05,-183.5"/>
<polygon fill="midnightblue" stroke="midnightblue" points="402.52,-186.98 413.07,-185.94 404.18,-180.18 402.52,-186.98"/>
</g>
<!-- Node15 -->
<g id="node15" class="node">
<title>Node15</title>
<g id="a_node15"><a xlink:href="classwmtk_1_1simplex_1_1_simplex_collection.html#ab318c99d54327383ff1b985bed043f3a" target="_top" xlink:title="Sort simplex vector and remove duplicates.">
<polygon fill="none" stroke="black" points="384,-137 384,-167 568,-167 568,-137 384,-137"/>
<text text-anchor="start" x="392" y="-155" font-family="Helvetica,sans-Serif" font-size="10.00">wmtk::simplex::SimplexCollection</text>
<text text-anchor="middle" x="476" y="-144" font-family="Helvetica,sans-Serif" font-size="10.00">::sort_and_clean</text>
</a>
</g>
</g>
<!-- Node13&#45;&gt;Node15 -->
<g id="edge14" class="edge">
<title>Node13&#45;&gt;Node15</title>
<path fill="none" stroke="midnightblue" d="M330.7,-152C344.13,-152 358.83,-152 373.55,-152"/>
<polygon fill="midnightblue" stroke="midnightblue" points="373.73,-155.5 383.73,-152 373.73,-148.5 373.73,-155.5"/>
</g>
<!-- Node16 -->
<g id="node16" class="node">
<title>Node16</title>
<g id="a_node16"><a xlink:href="namespacewmtk_1_1simplex.html#a0101f27eb2ad82814390b92ab1a4d1a0" target="_top" xlink:title=" ">
<polygon fill="none" stroke="black" points="400.5,-88 400.5,-118 551.5,-118 551.5,-88 400.5,-88"/>
<text text-anchor="start" x="408.5" y="-106" font-family="Helvetica,sans-Serif" font-size="10.00">wmtk::simplex::top</text>
<text text-anchor="middle" x="476" y="-95" font-family="Helvetica,sans-Serif" font-size="10.00">_dimension_cofaces_tuples</text>
</a>
</g>
</g>
<!-- Node13&#45;&gt;Node16 -->
<g id="edge15" class="edge">
<title>Node13&#45;&gt;Node16</title>
<path fill="none" stroke="midnightblue" d="M330.7,-138.09C353.2,-132.62 379.29,-126.27 403.05,-120.5"/>
<polygon fill="midnightblue" stroke="midnightblue" points="404.18,-123.82 413.07,-118.06 402.52,-117.02 404.18,-123.82"/>
</g>
<!-- Node16&#45;&gt;Node6 -->
<g id="edge20" class="edge">
<title>Node16&#45;&gt;Node6</title>
<path fill="none" stroke="midnightblue" d="M549.57,-118.1C556,-120.63 562.25,-123.57 568,-127 621.98,-159.16 668.17,-218.28 691.26,-251.23"/>
<polygon fill="midnightblue" stroke="midnightblue" points="688.59,-253.53 697.14,-259.79 694.36,-249.57 688.59,-253.53"/>
</g>
<!-- Node17 -->
<g id="node17" class="node">
<title>Node17</title>
<g id="a_node17"><a xlink:href="classwmtk_1_1simplex_1_1_simplex_collection.html#a1e7079b3b75f70dd28c524556cab76cf" target="_top" xlink:title="Add simplex to the collection.">
<polygon fill="none" stroke="black" points="604,-115.5 604,-134.5 812,-134.5 812,-115.5 604,-115.5"/>
<text text-anchor="middle" x="708" y="-122.5" font-family="Helvetica,sans-Serif" font-size="10.00">wmtk::simplex::SimplexCollection::add</text>
</a>
</g>
</g>
<!-- Node16&#45;&gt;Node17 -->
<g id="edge16" class="edge">
<title>Node16&#45;&gt;Node17</title>
<path fill="none" stroke="midnightblue" d="M551.67,-110.14C566.31,-111.54 581.94,-113.04 597.44,-114.52"/>
<polygon fill="midnightblue" stroke="midnightblue" points="597.3,-118.02 607.59,-115.49 597.97,-111.06 597.3,-118.02"/>
</g>
<!-- Node18 -->
<g id="node18" class="node">
<title>Node18</title>
<g id="a_node18"><a xlink:href="namespacewmtk.html#a441d6ad4f19569c7d4946e743da1a925" target="_top" xlink:title=" ">
<polygon fill="none" stroke="black" points="647,-66 647,-96 769,-96 769,-66 647,-66"/>
<text text-anchor="start" x="655" y="-84" font-family="Helvetica,sans-Serif" font-size="10.00">wmtk::log_and_throw</text>
<text text-anchor="middle" x="708" y="-73" font-family="Helvetica,sans-Serif" font-size="10.00">_error</text>
</a>
</g>
</g>
<!-- Node16&#45;&gt;Node18 -->
<g id="edge17" class="edge">
<title>Node16&#45;&gt;Node18</title>
<path fill="none" stroke="midnightblue" d="M551.67,-95.86C579.01,-93.24 609.82,-90.3 636.75,-87.72"/>
<polygon fill="midnightblue" stroke="midnightblue" points="637.25,-91.19 646.87,-86.75 636.58,-84.22 637.25,-91.19"/>
</g>
<!-- Node19 -->
<g id="node19" class="node">
<title>Node19</title>
<g id="a_node19"><a xlink:href="namespacewmtk.html#a6a35f11c12436093d26fdd8be6fecc06" target="_top" xlink:title="Retrieves the current logger.">
<polygon fill="none" stroke="black" points="848,-71.5 848,-90.5 929,-90.5 929,-71.5 848,-71.5"/>
<text text-anchor="middle" x="888.5" y="-78.5" font-family="Helvetica,sans-Serif" font-size="10.00">wmtk::logger</text>
</a>
</g>
</g>
<!-- Node18&#45;&gt;Node19 -->
<g id="edge18" class="edge">
<title>Node18&#45;&gt;Node19</title>
<path fill="none" stroke="midnightblue" d="M769.43,-81C791.68,-81 816.61,-81 837.81,-81"/>
<polygon fill="midnightblue" stroke="midnightblue" points="837.89,-84.5 847.89,-81 837.89,-77.5 837.89,-84.5"/>
</g>
<!-- Node20 -->
<g id="node20" class="node">
<title>Node20</title>
<g id="a_node20"><a xlink:href="namespacewmtk.html#a3daa7951a5f8b78cf4600dc047fcc180" target="_top" xlink:title="Setup a logger object to be used by WildmeshToolkit.">
<polygon fill="none" stroke="black" points="965,-71.5 965,-90.5 1066,-90.5 1066,-71.5 965,-71.5"/>
<text text-anchor="middle" x="1015.5" y="-78.5" font-family="Helvetica,sans-Serif" font-size="10.00">wmtk::set_logger</text>
</a>
</g>
</g>
<!-- Node19&#45;&gt;Node20 -->
<g id="edge19" class="edge">
<title>Node19&#45;&gt;Node20</title>
<path fill="none" stroke="midnightblue" d="M929.05,-81C937.17,-81 945.9,-81 954.55,-81"/>
<polygon fill="midnightblue" stroke="midnightblue" points="954.65,-84.5 964.65,-81 954.65,-77.5 954.65,-84.5"/>
</g>
<!-- Node23 -->
<g id="node23" class="node">
<title>Node23</title>
<g id="a_node23"><a xlink:href="classwmtk_1_1simplex_1_1_simplex.html#ab6d51ca0c220792c1c09824d152bb53a" target="_top" xlink:title=" ">
<polygon fill="none" stroke="black" points="408.5,-39 408.5,-69 543.5,-69 543.5,-39 408.5,-39"/>
<text text-anchor="start" x="416.5" y="-57" font-family="Helvetica,sans-Serif" font-size="10.00">wmtk::simplex::Simplex</text>
<text text-anchor="middle" x="476" y="-46" font-family="Helvetica,sans-Serif" font-size="10.00">::Simplex</text>
</a>
</g>
</g>
<!-- Node22&#45;&gt;Node23 -->
<g id="edge23" class="edge">
<title>Node22&#45;&gt;Node23</title>
<path fill="none" stroke="midnightblue" d="M340.04,-54C358.6,-54 378.91,-54 398.02,-54"/>
<polygon fill="midnightblue" stroke="midnightblue" points="398.19,-57.5 408.19,-54 398.19,-50.5 398.19,-57.5"/>
</g>
</g>
</svg>
        <g id="navigator" transform="translate(0 0)" fill="#404254">
                <rect fill="#f2f5e9" fill-opacity="0.5" stroke="#606060" stroke-width=".5" x="0" y="0" width="60" height="60"/>
                <use id="zoomplus" xlink:href="#zoomPlus" x="17" y="9" onmousedown="handleZoom(evt,'in')"/>
                <use id="zoomminus" xlink:href="#zoomMin" x="42" y="9" onmousedown="handleZoom(evt,'out')"/>
                <use id="reset" xlink:href="#resetDef" x="30" y="36" onmousedown="handleReset()"/>
                <g id="arrowUp" xlink:href="#dirArrow" transform="translate(30 24)" onmousedown="handlePan(0,-1)">
                  <use xlink:href="#rim" fill="#404040">
                        <set attributeName="fill" to="#808080" begin="arrowUp.mouseover" end="arrowUp.mouseout"/>
                  </use>
                  <path fill="none" stroke="white" stroke-width="1.5" d="M0,-3.0v7 M-2.5,-0.5L0,-3.0L2.5,-0.5"/>
                </g>
                <g id="arrowRight" xlink:href="#dirArrow" transform="rotate(90) translate(36 -43)" onmousedown="handlePan(1,0)">
                  <use xlink:href="#rim" fill="#404040">
                        <set attributeName="fill" to="#808080" begin="arrowRight.mouseover" end="arrowRight.mouseout"/>
                  </use>
                  <path fill="none" stroke="white" stroke-width="1.5" d="M0,-3.0v7 M-2.5,-0.5L0,-3.0L2.5,-0.5"/>
                </g>
                <g id="arrowDown" xlink:href="#dirArrow" transform="rotate(180) translate(-30 -48)" onmousedown="handlePan(0,1)">
                  <use xlink:href="#rim" fill="#404040">
                        <set attributeName="fill" to="#808080" begin="arrowDown.mouseover" end="arrowDown.mouseout"/>
                  </use>
                  <path fill="none" stroke="white" stroke-width="1.5" d="M0,-3.0v7 M-2.5,-0.5L0,-3.0L2.5,-0.5"/>
                </g>
                <g id="arrowLeft" xlink:href="#dirArrow" transform="rotate(270) translate(-36 17)" onmousedown="handlePan(-1,0)">
                  <use xlink:href="#rim" fill="#404040">
                        <set attributeName="fill" to="#808080" begin="arrowLeft.mouseover" end="arrowLeft.mouseout"/>
                  </use>
                  <path fill="none" stroke="white" stroke-width="1.5" d="M0,-3.0v7 M-2.5,-0.5L0,-3.0L2.5,-0.5"/>
                </g>
        </g>
        <svg viewBox="0 0 15 15" width="100%" height="30px" preserveAspectRatio="xMaxYMin meet">
         <g id="arrow_out" transform="scale(0.3 0.3)">
          <a xlink:href="classwmtk_1_1invariants_1_1_collapse_energy_before_invariant_double_aedec3d60165b7fe7541a9caa18f6c131_cgraph_org.svg" target="_base">
           <rect id="button" ry="5" rx="5" y="6" x="6" height="38" width="38"
                fill="#f2f5e9" fill-opacity="0.5" stroke="#606060" stroke-width="1.0"/>
           <path id="arrow"
             d="M 11.500037,31.436501 C 11.940474,20.09759 22.043105,11.32322 32.158766,21.979434 L 37.068811,17.246167 C 37.068811,17.246167 37.088388,32 37.088388,32 L 22.160133,31.978069 C 22.160133,31.978069 26.997745,27.140456 26.997745,27.140456 C 18.528582,18.264221 13.291696,25.230495 11.500037,31.436501 z"
             style="fill:#404040;"/>
          </a>
         </g>
        </svg>
</svg>
