<?xml version="1.0" encoding="UTF-8" standalone="no"?>
<!DOCTYPE svg PUBLIC "-//W3C//DTD SVG 1.1//EN"
 "http://www.w3.org/Graphics/SVG/1.1/DTD/svg11.dtd">
<!-- Generated by graphviz version 2.43.0 (0)
 -->
<!-- Title: wmtk::EdgeMesh::initialize Pages: 1 -->
<svg width="1068pt" height="176pt"
 viewBox="0.00 0.00 1068.00 176.00" xmlns="http://www.w3.org/2000/svg" xmlns:xlink="http://www.w3.org/1999/xlink">
<g id="graph0" class="graph" transform="scale(1 1) rotate(0) translate(4 172)">
<title>wmtk::EdgeMesh::initialize</title>
<!-- Node1 -->
<g id="node1" class="node">
<title>Node1</title>
<g id="a_node1"><a xlink:title=" ">
<polygon fill="#bfbfbf" stroke="black" points="911,-73 911,-92 1060,-92 1060,-73 911,-73"/>
<text text-anchor="middle" x="985.5" y="-80" font-family="Helvetica,sans-Serif" font-size="10.00">wmtk::EdgeMesh::initialize</text>
</a>
</g>
</g>
<!-- Node2 -->
<g id="node2" class="node">
<title>Node2</title>
<g id="a_node2"><a xlink:href="classwmtk_1_1components_1_1internal_1_1_multi_mesh_from_tag.html#a96647e9413f2b7e13dd17f02cf29b12d" target="_top" xlink:title="Create a manifold mesh from the substructure.">
<polygon fill="none" stroke="black" points="312,-61 312,-102 476,-102 476,-61 312,-61"/>
<text text-anchor="start" x="320" y="-90" font-family="Helvetica,sans-Serif" font-size="10.00">wmtk::components::internal</text>
<text text-anchor="start" x="320" y="-79" font-family="Helvetica,sans-Serif" font-size="10.00">::MultiMeshFromTag::compute</text>
<text text-anchor="middle" x="394" y="-68" font-family="Helvetica,sans-Serif" font-size="10.00">_substructure_mesh</text>
</a>
</g>
</g>
<!-- Node1&#45;&gt;Node2 -->
<g id="edge1" class="edge">
<title>Node1&#45;&gt;Node2</title>
<path fill="none" stroke="midnightblue" d="M900.76,-85.22C806.3,-87.85 648.1,-90.99 512,-87.5 500.41,-87.2 488.18,-86.74 476.17,-86.2"/>
<polygon fill="midnightblue" stroke="midnightblue" points="900.93,-88.71 910.83,-84.93 900.73,-81.71 900.93,-88.71"/>
</g>
<!-- Node8 -->
<g id="node8" class="node">
<title>Node8</title>
<g id="a_node8"><a xlink:href="classwmtk_1_1_edge_mesh.html#a5fc396537aa183d59d555e66aa8d1e70" target="_top" xlink:title=" ">
<polygon fill="none" stroke="black" points="702,-54 702,-73 875,-73 875,-54 702,-54"/>
<text text-anchor="middle" x="788.5" y="-61" font-family="Helvetica,sans-Serif" font-size="10.00">wmtk::EdgeMesh::initialize_free</text>
</a>
</g>
</g>
<!-- Node1&#45;&gt;Node8 -->
<g id="edge7" class="edge">
<title>Node1&#45;&gt;Node8</title>
<path fill="none" stroke="midnightblue" d="M900.57,-74.32C892.14,-73.5 883.56,-72.67 875.11,-71.84"/>
<polygon fill="midnightblue" stroke="midnightblue" points="900.49,-77.83 910.78,-75.32 901.17,-70.86 900.49,-77.83"/>
</g>
<!-- Node3 -->
<g id="node3" class="node">
<title>Node3</title>
<g id="a_node3"><a xlink:href="namespacewmtk_1_1components.html#a43e4bf82099343e153b21c9be07cd2d1" target="_top" xlink:title="Generate a multi&#45;mesh from a mesh with a tag that represents the substructure.">
<polygon fill="none" stroke="black" points="107,-137.5 107,-167.5 276,-167.5 276,-137.5 107,-137.5"/>
<text text-anchor="start" x="115" y="-155.5" font-family="Helvetica,sans-Serif" font-size="10.00">wmtk::components::multimesh</text>
<text text-anchor="middle" x="191.5" y="-144.5" font-family="Helvetica,sans-Serif" font-size="10.00">_from_tag</text>
</a>
</g>
</g>
<!-- Node2&#45;&gt;Node3 -->
<g id="edge2" class="edge">
<title>Node2&#45;&gt;Node3</title>
<path fill="none" stroke="midnightblue" d="M334.07,-105.78C315.6,-113.09 295.06,-120.91 276,-127.5 266.13,-130.91 255.52,-134.3 245.27,-137.43"/>
<polygon fill="midnightblue" stroke="midnightblue" points="335.53,-108.96 343.53,-102.01 332.94,-102.46 335.53,-108.96"/>
</g>
<!-- Node5 -->
<g id="node5" class="node">
<title>Node5</title>
<g id="a_node5"><a xlink:href="namespacewmtk_1_1components.html#a2e278a65e90619186ee7488b1d32da30" target="_top" xlink:title=" ">
<polygon fill="none" stroke="black" points="114,-88.5 114,-118.5 269,-118.5 269,-88.5 114,-88.5"/>
<text text-anchor="start" x="122" y="-106.5" font-family="Helvetica,sans-Serif" font-size="10.00">wmtk::components::periodic</text>
<text text-anchor="middle" x="191.5" y="-95.5" font-family="Helvetica,sans-Serif" font-size="10.00">_optimization</text>
</a>
</g>
</g>
<!-- Node2&#45;&gt;Node5 -->
<g id="edge4" class="edge">
<title>Node2&#45;&gt;Node5</title>
<path fill="none" stroke="midnightblue" d="M301.75,-91.51C290.8,-92.71 279.72,-93.93 269.01,-95.1"/>
<polygon fill="midnightblue" stroke="midnightblue" points="302.18,-94.99 311.74,-90.42 301.42,-88.03 302.18,-94.99"/>
</g>
<!-- Node6 -->
<g id="node6" class="node">
<title>Node6</title>
<g id="a_node6"><a xlink:href="test__component__multimesh__from__tag_8cpp.html#a18cd3d411cfadc472201c20662d62869" target="_top" xlink:title=" ">
<polygon fill="none" stroke="black" points="156,-50 156,-69 227,-69 227,-50 156,-50"/>
<text text-anchor="middle" x="191.5" y="-57" font-family="Helvetica,sans-Serif" font-size="10.00">TEST_CASE</text>
</a>
</g>
</g>
<!-- Node2&#45;&gt;Node6 -->
<g id="edge5" class="edge">
<title>Node2&#45;&gt;Node6</title>
<path fill="none" stroke="midnightblue" d="M301.63,-71.47C275.11,-68.56 247.76,-65.56 227.07,-63.29"/>
<polygon fill="midnightblue" stroke="midnightblue" points="301.42,-74.97 311.74,-72.58 302.18,-68.01 301.42,-74.97"/>
</g>
<!-- Node7 -->
<g id="node7" class="node">
<title>Node7</title>
<g id="a_node7"><a xlink:href="namespacewmtk_1_1components.html#ad26e15d638e76cf767b43e34d5d68465" target="_top" xlink:title=" ">
<polygon fill="none" stroke="black" points="114.5,-0.5 114.5,-30.5 268.5,-30.5 268.5,-0.5 114.5,-0.5"/>
<text text-anchor="start" x="122.5" y="-18.5" font-family="Helvetica,sans-Serif" font-size="10.00">wmtk::components::triangle</text>
<text text-anchor="middle" x="191.5" y="-7.5" font-family="Helvetica,sans-Serif" font-size="10.00">_insertion</text>
</a>
</g>
</g>
<!-- Node2&#45;&gt;Node7 -->
<g id="edge6" class="edge">
<title>Node2&#45;&gt;Node7</title>
<path fill="none" stroke="midnightblue" d="M326.51,-57.6C310.05,-51.85 292.43,-45.83 276,-40.5 265.78,-37.18 254.81,-33.78 244.28,-30.6"/>
<polygon fill="midnightblue" stroke="midnightblue" points="325.45,-60.94 336.05,-60.95 327.77,-54.34 325.45,-60.94"/>
</g>
<!-- Node4 -->
<g id="node4" class="node">
<title>Node4</title>
<g id="a_node4"><a xlink:href="test__component__multimesh__from__tag_8cpp.html#a2b0208caf4b963a36a43604c3e7cf34a" target="_top" xlink:title=" ">
<polygon fill="none" stroke="black" points="0,-143 0,-162 71,-162 71,-143 0,-143"/>
<text text-anchor="middle" x="35.5" y="-150" font-family="Helvetica,sans-Serif" font-size="10.00">TEST_CASE</text>
</a>
</g>
</g>
<!-- Node3&#45;&gt;Node4 -->
<g id="edge3" class="edge">
<title>Node3&#45;&gt;Node4</title>
<path fill="none" stroke="midnightblue" d="M96.52,-152.5C87.57,-152.5 78.93,-152.5 71.14,-152.5"/>
<polygon fill="midnightblue" stroke="midnightblue" points="96.74,-156 106.74,-152.5 96.74,-149 96.74,-156"/>
</g>
<!-- Node9 -->
<g id="node9" class="node">
<title>Node9</title>
<g id="a_node9"><a xlink:href="classwmtk_1_1components_1_1internal_1_1_multi_mesh_from_tag.html#ad18667b876fc81c8cfb79a408d632b25" target="_top" xlink:title="Create a multimesh where the child&#45;mesh is just a soup (no connectivity) of m_mesh.">
<polygon fill="none" stroke="black" points="512,-37 512,-78 666,-78 666,-37 512,-37"/>
<text text-anchor="start" x="520" y="-66" font-family="Helvetica,sans-Serif" font-size="10.00">wmtk::components::internal</text>
<text text-anchor="start" x="520" y="-55" font-family="Helvetica,sans-Serif" font-size="10.00">::MultiMeshFromTag::create</text>
<text text-anchor="middle" x="589" y="-44" font-family="Helvetica,sans-Serif" font-size="10.00">_substructure_soup</text>
</a>
</g>
</g>
<!-- Node8&#45;&gt;Node9 -->
<g id="edge8" class="edge">
<title>Node8&#45;&gt;Node9</title>
<path fill="none" stroke="midnightblue" d="M691.68,-60.59C683.08,-60.33 674.46,-60.07 666.07,-59.81"/>
<polygon fill="midnightblue" stroke="midnightblue" points="691.63,-64.09 701.74,-60.89 691.85,-57.09 691.63,-64.09"/>
</g>
<!-- Node9&#45;&gt;Node2 -->
<g id="edge9" class="edge">
<title>Node9&#45;&gt;Node2</title>
<path fill="none" stroke="midnightblue" d="M501.94,-68.2C493.32,-69.27 484.59,-70.36 476.02,-71.43"/>
<polygon fill="midnightblue" stroke="midnightblue" points="502.51,-71.66 512,-66.95 501.64,-64.71 502.51,-71.66"/>
</g>
</g>
</svg>
