<?xml version="1.0" encoding="UTF-8" standalone="no"?>
<!DOCTYPE svg PUBLIC "-//W3C//DTD SVG 1.1//EN"
 "http://www.w3.org/Graphics/SVG/1.1/DTD/svg11.dtd">
<!-- Generated by graphviz version 2.43.0 (0)
 -->
<!-- Title: wmtk::invariants::EdgeValenceInvariant::before Pages: 1 -->
<svg width="1705pt" height="496pt"
 viewBox="0.00 0.00 1705.00 496.33" xmlns="http://www.w3.org/2000/svg" xmlns:xlink="http://www.w3.org/1999/xlink">
<g id="graph0" class="graph" transform="scale(1 1) rotate(0) translate(4 492.33)">
<title>wmtk::invariants::EdgeValenceInvariant::before</title>
<!-- Node1 -->
<g id="node1" class="node">
<title>Node1</title>
<g id="a_node1"><a xlink:title=" ">
<polygon fill="#bfbfbf" stroke="black" points="0,-308.83 0,-338.83 167,-338.83 167,-308.83 0,-308.83"/>
<text text-anchor="start" x="8" y="-326.83" font-family="Helvetica,sans-Serif" font-size="10.00">wmtk::invariants::EdgeValence</text>
<text text-anchor="middle" x="83.5" y="-315.83" font-family="Helvetica,sans-Serif" font-size="10.00">Invariant::before</text>
</a>
</g>
</g>
<!-- Node2 -->
<g id="node2" class="node">
<title>Node2</title>
<g id="a_node2"><a xlink:href="classwmtk_1_1invariants_1_1_invariant.html#ac97548bf5f1167cd85081d1bde011139" target="_top" xlink:title=" ">
<polygon fill="none" stroke="black" points="204,-374.83 204,-404.83 353,-404.83 353,-374.83 204,-374.83"/>
<text text-anchor="start" x="212" y="-392.83" font-family="Helvetica,sans-Serif" font-size="10.00">wmtk::invariants::Invariant</text>
<text text-anchor="middle" x="278.5" y="-381.83" font-family="Helvetica,sans-Serif" font-size="10.00">::mesh</text>
</a>
</g>
</g>
<!-- Node1&#45;&gt;Node2 -->
<g id="edge1" class="edge">
<title>Node1&#45;&gt;Node2</title>
<path fill="none" stroke="midnightblue" d="M128.78,-338.97C157.1,-348.66 194,-361.28 223.96,-371.52"/>
<polygon fill="midnightblue" stroke="midnightblue" points="222.83,-374.83 233.43,-374.76 225.1,-368.21 222.83,-374.83"/>
</g>
<!-- Node3 -->
<g id="node3" class="node">
<title>Node3</title>
<g id="a_node3"><a xlink:href="classwmtk_1_1simplex_1_1_simplex.html#ad2cc0340a0772b7d6f03ba7a781d1163" target="_top" xlink:title=" ">
<polygon fill="none" stroke="black" points="426.5,-387.83 426.5,-417.83 561.5,-417.83 561.5,-387.83 426.5,-387.83"/>
<text text-anchor="start" x="434.5" y="-405.83" font-family="Helvetica,sans-Serif" font-size="10.00">wmtk::simplex::Simplex</text>
<text text-anchor="middle" x="494" y="-394.83" font-family="Helvetica,sans-Serif" font-size="10.00">::primitive_type</text>
</a>
</g>
</g>
<!-- Node1&#45;&gt;Node3 -->
<g id="edge2" class="edge">
<title>Node1&#45;&gt;Node3</title>
<path fill="none" stroke="midnightblue" d="M167.17,-333.08C220.86,-339.97 292.11,-350.8 354,-365.83 370.39,-369.81 373.79,-373.17 390,-377.83 398.93,-380.4 408.33,-382.92 417.69,-385.32"/>
<polygon fill="midnightblue" stroke="midnightblue" points="416.84,-388.72 427.4,-387.78 418.56,-381.93 416.84,-388.72"/>
</g>
<!-- Node4 -->
<g id="node4" class="node">
<title>Node4</title>
<g id="a_node4"><a xlink:href="namespacewmtk_1_1simplex.html#ac133ab11355bb4cda7e8b1e3ed48226f" target="_top" xlink:title=" ">
<polygon fill="none" stroke="black" points="203,-286.83 203,-316.83 354,-316.83 354,-286.83 203,-286.83"/>
<text text-anchor="start" x="211" y="-304.83" font-family="Helvetica,sans-Serif" font-size="10.00">wmtk::simplex::top</text>
<text text-anchor="middle" x="278.5" y="-293.83" font-family="Helvetica,sans-Serif" font-size="10.00">_dimension_cofaces_tuples</text>
</a>
</g>
</g>
<!-- Node1&#45;&gt;Node4 -->
<g id="edge3" class="edge">
<title>Node1&#45;&gt;Node4</title>
<path fill="none" stroke="midnightblue" d="M167.19,-314.4C175.72,-313.43 184.4,-312.44 192.95,-311.47"/>
<polygon fill="midnightblue" stroke="midnightblue" points="193.37,-314.94 202.91,-310.33 192.58,-307.99 193.37,-314.94"/>
</g>
<!-- Node30 -->
<g id="node30" class="node">
<title>Node30</title>
<g id="a_node30"><a xlink:href="classwmtk_1_1simplex_1_1_simplex.html#a3650fd31ff1864285502dba66db3c73c" target="_top" xlink:title=" ">
<polygon fill="none" stroke="black" points="426.5,-185.83 426.5,-215.83 561.5,-215.83 561.5,-185.83 426.5,-185.83"/>
<text text-anchor="start" x="434.5" y="-203.83" font-family="Helvetica,sans-Serif" font-size="10.00">wmtk::simplex::Simplex</text>
<text text-anchor="middle" x="494" y="-192.83" font-family="Helvetica,sans-Serif" font-size="10.00">::tuple</text>
</a>
</g>
</g>
<!-- Node1&#45;&gt;Node30 -->
<g id="edge39" class="edge">
<title>Node1&#45;&gt;Node30</title>
<path fill="none" stroke="midnightblue" d="M120.17,-308.79C143.5,-299.25 174.78,-287.02 203,-277.83 275.22,-254.3 359.26,-232.6 418.21,-218.27"/>
<polygon fill="midnightblue" stroke="midnightblue" points="419.29,-221.61 428.19,-215.86 417.64,-214.81 419.29,-221.61"/>
</g>
<!-- Node4&#45;&gt;Node3 -->
<g id="edge17" class="edge">
<title>Node4&#45;&gt;Node3</title>
<path fill="none" stroke="midnightblue" d="M327.59,-316.87C336.83,-320.92 346.09,-325.88 354,-331.83 374.75,-347.43 368.18,-363.77 390,-377.83 398.09,-383.05 407.18,-387.17 416.52,-390.44"/>
<polygon fill="midnightblue" stroke="midnightblue" points="415.72,-393.86 426.31,-393.54 417.83,-387.19 415.72,-393.86"/>
</g>
<!-- Node5 -->
<g id="node5" class="node">
<title>Node5</title>
<g id="a_node5"><a xlink:href="classwmtk_1_1simplex_1_1_simplex_collection.html#a1e7079b3b75f70dd28c524556cab76cf" target="_top" xlink:title="Add simplex to the collection.">
<polygon fill="none" stroke="black" points="390,-349.33 390,-368.33 598,-368.33 598,-349.33 390,-349.33"/>
<text text-anchor="middle" x="494" y="-356.33" font-family="Helvetica,sans-Serif" font-size="10.00">wmtk::simplex::SimplexCollection::add</text>
</a>
</g>
</g>
<!-- Node4&#45;&gt;Node5 -->
<g id="edge4" class="edge">
<title>Node4&#45;&gt;Node5</title>
<path fill="none" stroke="midnightblue" d="M327.45,-316.85C346.81,-322.73 369.39,-329.36 390,-334.83 406.09,-339.1 423.71,-343.36 439.75,-347.08"/>
<polygon fill="midnightblue" stroke="midnightblue" points="438.97,-350.49 449.5,-349.32 440.54,-343.67 438.97,-350.49"/>
</g>
<!-- Node6 -->
<g id="node6" class="node">
<title>Node6</title>
<g id="a_node6"><a xlink:href="classwmtk_1_1_edge_mesh.html#a534952cf2729f1509a380e3e9afb65b7" target="_top" xlink:title=" ">
<polygon fill="none" stroke="black" points="820,-457.83 820,-487.83 935,-487.83 935,-457.83 820,-457.83"/>
<text text-anchor="start" x="828" y="-475.83" font-family="Helvetica,sans-Serif" font-size="10.00">wmtk::EdgeMesh::is</text>
<text text-anchor="middle" x="877.5" y="-464.83" font-family="Helvetica,sans-Serif" font-size="10.00">_boundary_vertex</text>
</a>
</g>
</g>
<!-- Node4&#45;&gt;Node6 -->
<g id="edge5" class="edge">
<title>Node4&#45;&gt;Node6</title>
<path fill="none" stroke="midnightblue" d="M354.25,-303.83C419.69,-307.19 516.73,-316.15 598,-339.83 697.43,-368.8 714.42,-396.47 808,-440.83 816.71,-444.96 826.07,-449.36 834.98,-453.53"/>
<polygon fill="midnightblue" stroke="midnightblue" points="833.52,-456.7 844.06,-457.77 836.48,-450.36 833.52,-456.7"/>
</g>
<!-- Node15 -->
<g id="node15" class="node">
<title>Node15</title>
<g id="a_node15"><a xlink:href="namespacewmtk.html#a441d6ad4f19569c7d4946e743da1a925" target="_top" xlink:title=" ">
<polygon fill="none" stroke="black" points="642,-106.83 642,-136.83 764,-136.83 764,-106.83 642,-106.83"/>
<text text-anchor="start" x="650" y="-124.83" font-family="Helvetica,sans-Serif" font-size="10.00">wmtk::log_and_throw</text>
<text text-anchor="middle" x="703" y="-113.83" font-family="Helvetica,sans-Serif" font-size="10.00">_error</text>
</a>
</g>
</g>
<!-- Node4&#45;&gt;Node15 -->
<g id="edge14" class="edge">
<title>Node4&#45;&gt;Node15</title>
<path fill="none" stroke="midnightblue" d="M318.71,-286.78C339.64,-279.15 365.97,-270.18 390,-263.83 480.94,-239.81 514.7,-268.51 598,-224.83 634.68,-205.6 666.81,-169.1 685.32,-145.12"/>
<polygon fill="midnightblue" stroke="midnightblue" points="688.28,-147 691.5,-136.91 682.69,-142.79 688.28,-147"/>
</g>
<!-- Node18 -->
<g id="node18" class="node">
<title>Node18</title>
<g id="a_node18"><a xlink:href="classwmtk_1_1_edge_mesh.html#a04f6595fe85e52dc6bf1e02512120100" target="_top" xlink:title=" ">
<polygon fill="none" stroke="black" points="410.5,-273.33 410.5,-292.33 577.5,-292.33 577.5,-273.33 410.5,-273.33"/>
<text text-anchor="middle" x="494" y="-280.33" font-family="Helvetica,sans-Serif" font-size="10.00">wmtk::EdgeMesh::switch_edge</text>
</a>
</g>
</g>
<!-- Node4&#45;&gt;Node18 -->
<g id="edge18" class="edge">
<title>Node4&#45;&gt;Node18</title>
<path fill="none" stroke="midnightblue" d="M354.17,-295.18C369.07,-293.86 384.88,-292.45 400.3,-291.08"/>
<polygon fill="midnightblue" stroke="midnightblue" points="400.7,-294.56 410.36,-290.18 400.08,-287.58 400.7,-294.56"/>
</g>
<!-- Node4&#45;&gt;Node30 -->
<g id="edge38" class="edge">
<title>Node4&#45;&gt;Node30</title>
<path fill="none" stroke="midnightblue" d="M302.45,-286.58C332.06,-266.99 380.87,-234.99 390,-230.83 399.8,-226.37 410.42,-222.39 421,-218.91"/>
<polygon fill="midnightblue" stroke="midnightblue" points="422.2,-222.2 430.68,-215.85 420.09,-215.53 422.2,-222.2"/>
</g>
<!-- Node7 -->
<g id="node7" class="node">
<title>Node7</title>
<g id="a_node7"><a xlink:href="classwmtk_1_1attribute_1_1_accessor.html#a02b9afd258380cfdafdac411b30d48af" target="_top" xlink:title=" ">
<polygon fill="none" stroke="black" points="986,-413.83 986,-443.83 1128,-443.83 1128,-413.83 986,-413.83"/>
<text text-anchor="start" x="994" y="-431.83" font-family="Helvetica,sans-Serif" font-size="10.00">wmtk::attribute::Accessor</text>
<text text-anchor="middle" x="1057" y="-420.83" font-family="Helvetica,sans-Serif" font-size="10.00">::const_vector_attribute</text>
</a>
</g>
</g>
<!-- Node6&#45;&gt;Node7 -->
<g id="edge6" class="edge">
<title>Node6&#45;&gt;Node7</title>
<path fill="none" stroke="midnightblue" d="M935.15,-458.79C951.18,-454.81 968.82,-450.44 985.56,-446.29"/>
<polygon fill="midnightblue" stroke="midnightblue" points="986.43,-449.68 995.29,-443.88 984.74,-442.89 986.43,-449.68"/>
</g>
<!-- Node8 -->
<g id="node8" class="node">
<title>Node8</title>
<g id="a_node8"><a xlink:href="classwmtk_1_1_mesh.html#abbb1c54cfd6ec17f4730317ee5fab78d" target="_top" xlink:title=" ">
<polygon fill="none" stroke="black" points="983,-335.33 983,-354.33 1131,-354.33 1131,-335.33 983,-335.33"/>
<text text-anchor="middle" x="1057" y="-342.33" font-family="Helvetica,sans-Serif" font-size="10.00">wmtk::Mesh::is_valid_slow</text>
</a>
</g>
</g>
<!-- Node6&#45;&gt;Node8 -->
<g id="edge7" class="edge">
<title>Node6&#45;&gt;Node8</title>
<path fill="none" stroke="midnightblue" d="M899.56,-457.64C933.45,-433.21 999.75,-385.39 1034.14,-360.59"/>
<polygon fill="midnightblue" stroke="midnightblue" points="1036.49,-363.22 1042.55,-354.53 1032.39,-357.54 1036.49,-363.22"/>
</g>
<!-- Node9 -->
<g id="node9" class="node">
<title>Node9</title>
<g id="a_node9"><a xlink:href="classwmtk_1_1_mesh.html#adf199d6a3ce6badd8bfa0e2ab3a1c1aa" target="_top" xlink:title=" ">
<polygon fill="none" stroke="black" points="1176.5,-269.83 1176.5,-299.83 1306.5,-299.83 1306.5,-269.83 1176.5,-269.83"/>
<text text-anchor="start" x="1184.5" y="-287.83" font-family="Helvetica,sans-Serif" font-size="10.00">wmtk::Mesh::get_const</text>
<text text-anchor="middle" x="1241.5" y="-276.83" font-family="Helvetica,sans-Serif" font-size="10.00">_cell_hash_accessor</text>
</a>
</g>
</g>
<!-- Node8&#45;&gt;Node9 -->
<g id="edge8" class="edge">
<title>Node8&#45;&gt;Node9</title>
<path fill="none" stroke="midnightblue" d="M1086.92,-335.32C1113.15,-326.7 1152.55,-313.75 1184.87,-303.12"/>
<polygon fill="midnightblue" stroke="midnightblue" points="1186.25,-306.35 1194.65,-299.9 1184.06,-299.7 1186.25,-306.35"/>
</g>
<!-- Node14 -->
<g id="node14" class="node">
<title>Node14</title>
<g id="a_node14"><a xlink:href="classwmtk_1_1_mesh.html#a918c509096fc08691924c05c6143b9c3" target="_top" xlink:title="check validity of tuple including its hash">
<polygon fill="none" stroke="black" points="1181.5,-335.33 1181.5,-354.33 1301.5,-354.33 1301.5,-335.33 1181.5,-335.33"/>
<text text-anchor="middle" x="1241.5" y="-342.33" font-family="Helvetica,sans-Serif" font-size="10.00">wmtk::Mesh::is_valid</text>
</a>
</g>
</g>
<!-- Node8&#45;&gt;Node14 -->
<g id="edge13" class="edge">
<title>Node8&#45;&gt;Node14</title>
<path fill="none" stroke="midnightblue" d="M1131.18,-344.83C1144.32,-344.83 1157.99,-344.83 1171.03,-344.83"/>
<polygon fill="midnightblue" stroke="midnightblue" points="1171.33,-348.33 1181.33,-344.83 1171.33,-341.33 1171.33,-348.33"/>
</g>
<!-- Node10 -->
<g id="node10" class="node">
<title>Node10</title>
<g id="a_node10"><a xlink:href="classwmtk_1_1_mesh.html#a956cb71441391c99d736ec69c7467b61" target="_top" xlink:title=" ">
<polygon fill="none" stroke="black" points="1366.5,-269.83 1366.5,-299.83 1479.5,-299.83 1479.5,-269.83 1366.5,-269.83"/>
<text text-anchor="start" x="1374.5" y="-287.83" font-family="Helvetica,sans-Serif" font-size="10.00">wmtk::Mesh::create</text>
<text text-anchor="middle" x="1423" y="-276.83" font-family="Helvetica,sans-Serif" font-size="10.00">_const_accessor</text>
</a>
</g>
</g>
<!-- Node9&#45;&gt;Node10 -->
<g id="edge9" class="edge">
<title>Node9&#45;&gt;Node10</title>
<path fill="none" stroke="midnightblue" d="M1306.54,-284.83C1322.57,-284.83 1339.78,-284.83 1355.9,-284.83"/>
<polygon fill="midnightblue" stroke="midnightblue" points="1356.31,-288.33 1366.31,-284.83 1356.31,-281.33 1356.31,-288.33"/>
</g>
<!-- Node11 -->
<g id="node11" class="node">
<title>Node11</title>
<g id="a_node11"><a xlink:href="classwmtk_1_1attribute_1_1_mesh_attribute_handle.html#ac326961f01b9ba4fec395827f15a7ef2" target="_top" xlink:title=" ">
<polygon fill="none" stroke="black" points="1530,-318.83 1530,-348.83 1697,-348.83 1697,-318.83 1530,-318.83"/>
<text text-anchor="start" x="1538" y="-336.83" font-family="Helvetica,sans-Serif" font-size="10.00">wmtk::attribute::MeshAttribute</text>
<text text-anchor="middle" x="1613.5" y="-325.83" font-family="Helvetica,sans-Serif" font-size="10.00">Handle::as</text>
</a>
</g>
</g>
<!-- Node10&#45;&gt;Node11 -->
<g id="edge10" class="edge">
<title>Node10&#45;&gt;Node11</title>
<path fill="none" stroke="midnightblue" d="M1479.54,-299.27C1500.07,-304.6 1523.56,-310.71 1545.04,-316.29"/>
<polygon fill="midnightblue" stroke="midnightblue" points="1544.18,-319.69 1554.74,-318.82 1545.95,-312.91 1544.18,-319.69"/>
</g>
<!-- Node12 -->
<g id="node12" class="node">
<title>Node12</title>
<g id="a_node12"><a xlink:href="classwmtk_1_1attribute_1_1_mesh_attribute_handle.html#a2b86caeb22b007b85b138ebc6b0ed837" target="_top" xlink:title=" ">
<polygon fill="none" stroke="black" points="1530,-269.83 1530,-299.83 1697,-299.83 1697,-269.83 1530,-269.83"/>
<text text-anchor="start" x="1538" y="-287.83" font-family="Helvetica,sans-Serif" font-size="10.00">wmtk::attribute::MeshAttribute</text>
<text text-anchor="middle" x="1613.5" y="-276.83" font-family="Helvetica,sans-Serif" font-size="10.00">Handle::holds</text>
</a>
</g>
</g>
<!-- Node10&#45;&gt;Node12 -->
<g id="edge11" class="edge">
<title>Node10&#45;&gt;Node12</title>
<path fill="none" stroke="midnightblue" d="M1479.54,-284.83C1492.08,-284.83 1505.74,-284.83 1519.37,-284.83"/>
<polygon fill="midnightblue" stroke="midnightblue" points="1519.76,-288.33 1529.76,-284.83 1519.76,-281.33 1519.76,-288.33"/>
</g>
<!-- Node13 -->
<g id="node13" class="node">
<title>Node13</title>
<g id="a_node13"><a xlink:href="classwmtk_1_1attribute_1_1_mesh_attribute_handle.html#a620620d54776b2c5f4f9cebad465cfa7" target="_top" xlink:title=" ">
<polygon fill="none" stroke="black" points="1530,-220.83 1530,-250.83 1697,-250.83 1697,-220.83 1530,-220.83"/>
<text text-anchor="start" x="1538" y="-238.83" font-family="Helvetica,sans-Serif" font-size="10.00">wmtk::attribute::MeshAttribute</text>
<text text-anchor="middle" x="1613.5" y="-227.83" font-family="Helvetica,sans-Serif" font-size="10.00">Handle::mesh</text>
</a>
</g>
</g>
<!-- Node10&#45;&gt;Node13 -->
<g id="edge12" class="edge">
<title>Node10&#45;&gt;Node13</title>
<path fill="none" stroke="midnightblue" d="M1479.54,-270.39C1500.07,-265.06 1523.56,-258.95 1545.04,-253.37"/>
<polygon fill="midnightblue" stroke="midnightblue" points="1545.95,-256.75 1554.74,-250.84 1544.18,-249.97 1545.95,-256.75"/>
</g>
<!-- Node16 -->
<g id="node16" class="node">
<title>Node16</title>
<g id="a_node16"><a xlink:href="namespacewmtk.html#a6a35f11c12436093d26fdd8be6fecc06" target="_top" xlink:title="Retrieves the current logger.">
<polygon fill="none" stroke="black" points="1201,-5.33 1201,-24.33 1282,-24.33 1282,-5.33 1201,-5.33"/>
<text text-anchor="middle" x="1241.5" y="-12.33" font-family="Helvetica,sans-Serif" font-size="10.00">wmtk::logger</text>
</a>
</g>
</g>
<!-- Node15&#45;&gt;Node16 -->
<g id="edge15" class="edge">
<title>Node15&#45;&gt;Node16</title>
<path fill="none" stroke="midnightblue" d="M716.99,-106.83C735.1,-87.12 770.01,-53.32 808,-38.83 938.89,11.11 1108.3,1.08 1190.86,-8.09"/>
<polygon fill="midnightblue" stroke="midnightblue" points="1190.64,-11.59 1200.97,-9.26 1191.44,-4.63 1190.64,-11.59"/>
</g>
<!-- Node17 -->
<g id="node17" class="node">
<title>Node17</title>
<g id="a_node17"><a xlink:href="namespacewmtk.html#a3daa7951a5f8b78cf4600dc047fcc180" target="_top" xlink:title="Setup a logger object to be used by WildmeshToolkit.">
<polygon fill="none" stroke="black" points="1372.5,-5.33 1372.5,-24.33 1473.5,-24.33 1473.5,-5.33 1372.5,-5.33"/>
<text text-anchor="middle" x="1423" y="-12.33" font-family="Helvetica,sans-Serif" font-size="10.00">wmtk::set_logger</text>
</a>
</g>
</g>
<!-- Node16&#45;&gt;Node17 -->
<g id="edge16" class="edge">
<title>Node16&#45;&gt;Node17</title>
<path fill="none" stroke="midnightblue" d="M1282.34,-14.83C1305.77,-14.83 1335.86,-14.83 1362.11,-14.83"/>
<polygon fill="midnightblue" stroke="midnightblue" points="1362.33,-18.33 1372.33,-14.83 1362.33,-11.33 1362.33,-18.33"/>
</g>
<!-- Node19 -->
<g id="node19" class="node">
<title>Node19</title>
<g id="a_node19"><a xlink:href="classwmtk_1_1_edge_mesh.html#a46725851b572b51a356450adc30c14ed" target="_top" xlink:title="switch the orientation of the Tuple of the given dimension">
<polygon fill="none" stroke="black" points="634,-261.83 634,-291.83 772,-291.83 772,-261.83 634,-261.83"/>
<text text-anchor="start" x="642" y="-279.83" font-family="Helvetica,sans-Serif" font-size="10.00">wmtk::EdgeMesh::switch</text>
<text text-anchor="middle" x="703" y="-268.83" font-family="Helvetica,sans-Serif" font-size="10.00">_tuple</text>
</a>
</g>
</g>
<!-- Node18&#45;&gt;Node19 -->
<g id="edge19" class="edge">
<title>Node18&#45;&gt;Node19</title>
<path fill="none" stroke="midnightblue" d="M577.7,-280.43C592.8,-279.99 608.51,-279.54 623.49,-279.11"/>
<polygon fill="midnightblue" stroke="midnightblue" points="623.82,-282.6 633.71,-278.81 623.62,-275.6 623.82,-282.6"/>
</g>
<!-- Node19&#45;&gt;Node7 -->
<g id="edge21" class="edge">
<title>Node19&#45;&gt;Node7</title>
<path fill="none" stroke="midnightblue" d="M751.92,-291.91C759.34,-295.86 766.4,-300.76 772,-306.83 804.9,-342.45 769.56,-380.27 808,-409.83 855.03,-445.99 923.02,-448.81 975.91,-443.66"/>
<polygon fill="midnightblue" stroke="midnightblue" points="976.38,-447.13 985.94,-442.57 975.62,-440.17 976.38,-447.13"/>
</g>
<!-- Node19&#45;&gt;Node8 -->
<g id="edge37" class="edge">
<title>Node19&#45;&gt;Node8</title>
<path fill="none" stroke="midnightblue" d="M742.17,-291.85C752.11,-296.24 762.65,-301.36 772,-306.83 789.26,-316.93 789.17,-327.09 808,-333.83 860.46,-352.62 923.2,-355.23 972.44,-353.22"/>
<polygon fill="midnightblue" stroke="midnightblue" points="972.92,-356.7 982.74,-352.72 972.58,-349.71 972.92,-356.7"/>
</g>
<!-- Node19&#45;&gt;Node9 -->
<g id="edge26" class="edge">
<title>Node19&#45;&gt;Node9</title>
<path fill="none" stroke="midnightblue" d="M772.22,-277.85C873.14,-279.35 1061.52,-282.16 1165.96,-283.72"/>
<polygon fill="midnightblue" stroke="midnightblue" points="1166.05,-287.22 1176.1,-283.87 1166.16,-280.22 1166.05,-287.22"/>
</g>
<!-- Node20 -->
<g id="node20" class="node">
<title>Node20</title>
<g id="a_node20"><a xlink:href="classwmtk_1_1attribute_1_1_caching_accessor.html#a20efecc1867c1883dd246f1736e515cf" target="_top" xlink:title=" ">
<polygon fill="none" stroke="black" points="809,-207.33 809,-248.33 946,-248.33 946,-207.33 809,-207.33"/>
<text text-anchor="start" x="817" y="-236.33" font-family="Helvetica,sans-Serif" font-size="10.00">wmtk::attribute::Caching</text>
<text text-anchor="start" x="817" y="-225.33" font-family="Helvetica,sans-Serif" font-size="10.00">Accessor::const_vector</text>
<text text-anchor="middle" x="877.5" y="-214.33" font-family="Helvetica,sans-Serif" font-size="10.00">_attribute</text>
</a>
</g>
</g>
<!-- Node19&#45;&gt;Node20 -->
<g id="edge20" class="edge">
<title>Node19&#45;&gt;Node20</title>
<path fill="none" stroke="midnightblue" d="M757.16,-261.73C770.43,-257.96 784.94,-253.84 799.12,-249.81"/>
<polygon fill="midnightblue" stroke="midnightblue" points="800.2,-253.14 808.86,-247.04 798.29,-246.41 800.2,-253.14"/>
</g>
<!-- Node21 -->
<g id="node21" class="node">
<title>Node21</title>
<g id="a_node21"><a xlink:href="classwmtk_1_1_mesh.html#a4bcf7281ec7f3bdfd506ffc87fc092d3" target="_top" xlink:title=" ">
<polygon fill="none" stroke="black" points="1167,-125.33 1167,-144.33 1316,-144.33 1316,-125.33 1167,-125.33"/>
<text text-anchor="middle" x="1241.5" y="-132.33" font-family="Helvetica,sans-Serif" font-size="10.00">wmtk::Mesh::get_cell_hash</text>
</a>
</g>
</g>
<!-- Node19&#45;&gt;Node21 -->
<g id="edge22" class="edge">
<title>Node19&#45;&gt;Node21</title>
<path fill="none" stroke="midnightblue" d="M718.57,-261.62C737.33,-243.1 771.85,-212.47 808,-197.83 942.02,-143.54 988.44,-183 1131,-158.83 1150.92,-155.45 1172.7,-150.87 1191.55,-146.61"/>
<polygon fill="midnightblue" stroke="midnightblue" points="1192.43,-149.99 1201.4,-144.35 1190.87,-143.17 1192.43,-149.99"/>
</g>
<!-- Node23 -->
<g id="node23" class="node">
<title>Node23</title>
<g id="a_node23"><a xlink:href="classwmtk_1_1attribute_1_1_accessor.html#addb86a1ffae67417347ebdf3b086d640" target="_top" xlink:title=" ">
<polygon fill="none" stroke="black" points="1352,-54.83 1352,-84.83 1494,-84.83 1494,-54.83 1352,-54.83"/>
<text text-anchor="start" x="1360" y="-72.83" font-family="Helvetica,sans-Serif" font-size="10.00">wmtk::attribute::Accessor</text>
<text text-anchor="middle" x="1423" y="-61.83" font-family="Helvetica,sans-Serif" font-size="10.00">::index_access</text>
</a>
</g>
</g>
<!-- Node19&#45;&gt;Node23 -->
<g id="edge29" class="edge">
<title>Node19&#45;&gt;Node23</title>
<path fill="none" stroke="midnightblue" d="M711.47,-261.72C730.15,-224.49 779.45,-129.95 808,-109.83 891.78,-50.79 1194.96,-57.79 1341.54,-64.99"/>
<polygon fill="midnightblue" stroke="midnightblue" points="1341.65,-68.5 1351.82,-65.51 1342.01,-61.51 1341.65,-68.5"/>
</g>
<!-- Node25 -->
<g id="node25" class="node">
<title>Node25</title>
<g id="a_node25"><a xlink:href="classwmtk_1_1_edge_mesh.html#a34530ca80c07ae67ffe601c2b8f22e3e" target="_top" xlink:title=" ">
<polygon fill="none" stroke="black" points="819.5,-381.33 819.5,-400.33 935.5,-400.33 935.5,-381.33 819.5,-381.33"/>
<text text-anchor="middle" x="877.5" y="-388.33" font-family="Helvetica,sans-Serif" font-size="10.00">wmtk::EdgeMesh::id</text>
</a>
</g>
</g>
<!-- Node19&#45;&gt;Node25 -->
<g id="edge27" class="edge">
<title>Node19&#45;&gt;Node25</title>
<path fill="none" stroke="midnightblue" d="M748.8,-291.86C757.07,-295.9 765.23,-300.85 772,-306.83 795.32,-327.4 783.89,-347.19 808,-366.83 813.06,-370.96 818.89,-374.4 824.95,-377.26"/>
<polygon fill="midnightblue" stroke="midnightblue" points="824.04,-380.67 834.61,-381.29 826.73,-374.21 824.04,-380.67"/>
</g>
<!-- Node26 -->
<g id="node26" class="node">
<title>Node26</title>
<g id="a_node26"><a xlink:href="classwmtk_1_1_edge_mesh.html#a83db0c93833dacdfb169807d8ba4b6ca" target="_top" xlink:title="TODO this needs dimension?">
<polygon fill="none" stroke="black" points="808,-305.33 808,-324.33 947,-324.33 947,-305.33 808,-305.33"/>
<text text-anchor="middle" x="877.5" y="-312.33" font-family="Helvetica,sans-Serif" font-size="10.00">wmtk::EdgeMesh::is_ccw</text>
</a>
</g>
</g>
<!-- Node19&#45;&gt;Node26 -->
<g id="edge30" class="edge">
<title>Node19&#45;&gt;Node26</title>
<path fill="none" stroke="midnightblue" d="M772.18,-291.85C789.26,-295.61 807.32,-299.59 823.54,-303.16"/>
<polygon fill="midnightblue" stroke="midnightblue" points="822.85,-306.6 833.37,-305.33 824.36,-299.76 822.85,-306.6"/>
</g>
<!-- Node27 -->
<g id="node27" class="node">
<title>Node27</title>
<g id="a_node27"><a xlink:href="classwmtk_1_1_edge_mesh.html#a566cd5b0f3adad310bd9818f14c99127" target="_top" xlink:title="check validity of tuple including its hash">
<polygon fill="none" stroke="black" points="820,-119.83 820,-149.83 935,-149.83 935,-119.83 820,-119.83"/>
<text text-anchor="start" x="828" y="-137.83" font-family="Helvetica,sans-Serif" font-size="10.00">wmtk::EdgeMesh::is</text>
<text text-anchor="middle" x="877.5" y="-126.83" font-family="Helvetica,sans-Serif" font-size="10.00">_valid</text>
</a>
</g>
</g>
<!-- Node19&#45;&gt;Node27 -->
<g id="edge32" class="edge">
<title>Node19&#45;&gt;Node27</title>
<path fill="none" stroke="midnightblue" d="M714.89,-261.56C732.28,-238.1 768.41,-192.95 808,-164.83 813.28,-161.08 819.1,-157.65 825.05,-154.56"/>
<polygon fill="midnightblue" stroke="midnightblue" points="826.99,-157.51 834.46,-149.99 823.93,-151.22 826.99,-157.51"/>
</g>
<!-- Node22 -->
<g id="node22" class="node">
<title>Node22</title>
<g id="a_node22"><a xlink:href="classwmtk_1_1attribute_1_1_caching_accessor.html#a46aa3c2780f6789c42c537ee4ecb5b86" target="_top" xlink:title=" ">
<polygon fill="none" stroke="black" points="1354.5,-114.33 1354.5,-155.33 1491.5,-155.33 1491.5,-114.33 1354.5,-114.33"/>
<text text-anchor="start" x="1362.5" y="-143.33" font-family="Helvetica,sans-Serif" font-size="10.00">wmtk::attribute::Caching</text>
<text text-anchor="start" x="1362.5" y="-132.33" font-family="Helvetica,sans-Serif" font-size="10.00">Accessor::const_scalar</text>
<text text-anchor="middle" x="1423" y="-121.33" font-family="Helvetica,sans-Serif" font-size="10.00">_attribute</text>
</a>
</g>
</g>
<!-- Node21&#45;&gt;Node22 -->
<g id="edge23" class="edge">
<title>Node21&#45;&gt;Node22</title>
<path fill="none" stroke="midnightblue" d="M1316.03,-134.83C1325.34,-134.83 1334.9,-134.83 1344.27,-134.83"/>
<polygon fill="midnightblue" stroke="midnightblue" points="1344.36,-138.33 1354.36,-134.83 1344.36,-131.33 1344.36,-138.33"/>
</g>
<!-- Node21&#45;&gt;Node23 -->
<g id="edge24" class="edge">
<title>Node21&#45;&gt;Node23</title>
<path fill="none" stroke="midnightblue" d="M1268.99,-125.24C1295.7,-115.56 1337.64,-100.38 1370.85,-88.35"/>
<polygon fill="midnightblue" stroke="midnightblue" points="1372.2,-91.58 1380.41,-84.89 1369.82,-85 1372.2,-91.58"/>
</g>
<!-- Node24 -->
<g id="node24" class="node">
<title>Node24</title>
<g id="a_node24"><a xlink:href="classwmtk_1_1attribute_1_1_accessor.html#ad1a1ac34aff7d11b36b19968ba3fc625" target="_top" xlink:title=" ">
<polygon fill="none" stroke="black" points="1542.5,-54.83 1542.5,-84.83 1684.5,-84.83 1684.5,-54.83 1542.5,-54.83"/>
<text text-anchor="start" x="1550.5" y="-72.83" font-family="Helvetica,sans-Serif" font-size="10.00">wmtk::attribute::Accessor</text>
<text text-anchor="middle" x="1613.5" y="-61.83" font-family="Helvetica,sans-Serif" font-size="10.00">::caching_base_type</text>
</a>
</g>
</g>
<!-- Node23&#45;&gt;Node24 -->
<g id="edge25" class="edge">
<title>Node23&#45;&gt;Node24</title>
<path fill="none" stroke="midnightblue" d="M1494.19,-69.83C1506.58,-69.83 1519.56,-69.83 1532.2,-69.83"/>
<polygon fill="midnightblue" stroke="midnightblue" points="1532.25,-73.33 1542.25,-69.83 1532.25,-66.33 1532.25,-73.33"/>
</g>
<!-- Node25&#45;&gt;Node7 -->
<g id="edge28" class="edge">
<title>Node25&#45;&gt;Node7</title>
<path fill="none" stroke="midnightblue" d="M923.29,-400.42C939.32,-403.85 957.91,-407.83 976.01,-411.71"/>
<polygon fill="midnightblue" stroke="midnightblue" points="975.49,-415.17 986,-413.84 976.95,-408.33 975.49,-415.17"/>
</g>
<!-- Node26&#45;&gt;Node8 -->
<g id="edge31" class="edge">
<title>Node26&#45;&gt;Node8</title>
<path fill="none" stroke="midnightblue" d="M935.15,-324.4C952.37,-327.31 971.45,-330.54 989.26,-333.55"/>
<polygon fill="midnightblue" stroke="midnightblue" points="989.14,-337.08 999.58,-335.29 990.31,-330.18 989.14,-337.08"/>
</g>
<!-- Node28 -->
<g id="node28" class="node">
<title>Node28</title>
<g id="a_node28"><a xlink:href="classwmtk_1_1_mesh.html#aad291410ffabfd61e42d0a813a610805" target="_top" xlink:title=" ">
<polygon fill="none" stroke="black" points="997.5,-119.83 997.5,-149.83 1116.5,-149.83 1116.5,-119.83 997.5,-119.83"/>
<text text-anchor="start" x="1005.5" y="-137.83" font-family="Helvetica,sans-Serif" font-size="10.00">wmtk::Mesh::is_hash</text>
<text text-anchor="middle" x="1057" y="-126.83" font-family="Helvetica,sans-Serif" font-size="10.00">_valid</text>
</a>
</g>
</g>
<!-- Node27&#45;&gt;Node28 -->
<g id="edge33" class="edge">
<title>Node27&#45;&gt;Node28</title>
<path fill="none" stroke="midnightblue" d="M935.15,-134.83C951.77,-134.83 970.13,-134.83 987.42,-134.83"/>
<polygon fill="midnightblue" stroke="midnightblue" points="987.45,-138.33 997.45,-134.83 987.45,-131.33 987.45,-138.33"/>
</g>
<!-- Node29 -->
<g id="node29" class="node">
<title>Node29</title>
<g id="a_node29"><a xlink:href="classwmtk_1_1_tuple.html#a0023f575be92cd5ceeeaaaa3762ea06d" target="_top" xlink:title=" ">
<polygon fill="none" stroke="black" points="1000.5,-81.33 1000.5,-100.33 1113.5,-100.33 1113.5,-81.33 1000.5,-81.33"/>
<text text-anchor="middle" x="1057" y="-88.33" font-family="Helvetica,sans-Serif" font-size="10.00">wmtk::Tuple::is_null</text>
</a>
</g>
</g>
<!-- Node27&#45;&gt;Node29 -->
<g id="edge36" class="edge">
<title>Node27&#45;&gt;Node29</title>
<path fill="none" stroke="midnightblue" d="M935.15,-120.79C958.47,-115.01 985.2,-108.38 1007.58,-102.83"/>
<polygon fill="midnightblue" stroke="midnightblue" points="1008.67,-106.17 1017.53,-100.37 1006.98,-99.37 1008.67,-106.17"/>
</g>
<!-- Node28&#45;&gt;Node16 -->
<g id="edge35" class="edge">
<title>Node28&#45;&gt;Node16</title>
<path fill="none" stroke="midnightblue" d="M1110.14,-119.75C1117.35,-116.87 1124.5,-113.57 1131,-109.83 1168.36,-88.33 1204.74,-53.08 1224.73,-32.1"/>
<polygon fill="midnightblue" stroke="midnightblue" points="1227.51,-34.25 1231.79,-24.56 1222.4,-29.47 1227.51,-34.25"/>
</g>
<!-- Node28&#45;&gt;Node21 -->
<g id="edge34" class="edge">
<title>Node28&#45;&gt;Node21</title>
<path fill="none" stroke="midnightblue" d="M1116.75,-134.83C1129.45,-134.83 1143.12,-134.83 1156.58,-134.83"/>
<polygon fill="midnightblue" stroke="midnightblue" points="1156.81,-138.33 1166.81,-134.83 1156.81,-131.33 1156.81,-138.33"/>
</g>
</g>
</svg>
