<?xml version="1.0" encoding="UTF-8" standalone="no"?>
<!DOCTYPE svg PUBLIC "-//W3C//DTD SVG 1.1//EN"
 "http://www.w3.org/Graphics/SVG/1.1/DTD/svg11.dtd">
<!-- Generated by graphviz version 2.43.0 (0)
 -->
<!-- Title: wmtk::components::AABBWrapper::is_out Pages: 1 -->
<svg width="635pt" height="78pt"
 viewBox="0.00 0.00 635.00 77.50" xmlns="http://www.w3.org/2000/svg" xmlns:xlink="http://www.w3.org/1999/xlink">
<g id="graph0" class="graph" transform="scale(1 1) rotate(0) translate(4 73.5)">
<title>wmtk::components::AABBWrapper::is_out</title>
<!-- Node1 -->
<g id="node1" class="node">
<title>Node1</title>
<g id="a_node1"><a xlink:title=" ">
<polygon fill="#bfbfbf" stroke="black" points="0,-17 0,-47 185,-47 185,-17 0,-17"/>
<text text-anchor="start" x="8" y="-35" font-family="Helvetica,sans-Serif" font-size="10.00">wmtk::components::AABBWrapper</text>
<text text-anchor="middle" x="92.5" y="-24" font-family="Helvetica,sans-Serif" font-size="10.00">::is_out</text>
</a>
</g>
</g>
<!-- Node2 -->
<g id="node2" class="node">
<title>Node2</title>
<g id="a_node2"><a xlink:href="classwmtk_1_1components_1_1_a_a_b_b_wrapper.html#a2b46fe0c98bd12dd35dac1a69375ebe7" target="_top" xlink:title=" ">
<polygon fill="none" stroke="black" points="221,-17 221,-47 406,-47 406,-17 221,-17"/>
<text text-anchor="start" x="229" y="-35" font-family="Helvetica,sans-Serif" font-size="10.00">wmtk::components::AABBWrapper</text>
<text text-anchor="middle" x="313.5" y="-24" font-family="Helvetica,sans-Serif" font-size="10.00">::is_out_using_sampling</text>
</a>
</g>
</g>
<!-- Node1&#45;&gt;Node2 -->
<g id="edge1" class="edge">
<title>Node1&#45;&gt;Node2</title>
<path fill="none" stroke="midnightblue" d="M185.11,-32C193.62,-32 202.27,-32 210.86,-32"/>
<polygon fill="midnightblue" stroke="midnightblue" points="210.91,-35.5 220.91,-32 210.91,-28.5 210.91,-35.5"/>
</g>
<!-- Node3 -->
<g id="node3" class="node">
<title>Node3</title>
<g id="a_node3"><a xlink:href="classwmtk_1_1components_1_1_a_a_b_b_wrapper.html#a499f69640ba7395431a9c0605fcbe1b8" target="_top" xlink:title=" ">
<polygon fill="none" stroke="black" points="442,-39 442,-69 627,-69 627,-39 442,-39"/>
<text text-anchor="start" x="450" y="-57" font-family="Helvetica,sans-Serif" font-size="10.00">wmtk::components::AABBWrapper</text>
<text text-anchor="middle" x="534.5" y="-46" font-family="Helvetica,sans-Serif" font-size="10.00">::is_out_envelope</text>
</a>
</g>
</g>
<!-- Node2&#45;&gt;Node3 -->
<g id="edge2" class="edge">
<title>Node2&#45;&gt;Node3</title>
<path fill="none" stroke="midnightblue" d="M406.11,-41.2C414.62,-42.06 423.27,-42.93 431.86,-43.79"/>
<polygon fill="midnightblue" stroke="midnightblue" points="431.61,-47.28 441.91,-44.8 432.31,-40.32 431.61,-47.28"/>
</g>
<!-- Node4 -->
<g id="node4" class="node">
<title>Node4</title>
<g id="a_node4"><a xlink:href="namespacewmtk_1_1components.html#a7de20dc23c12ed780d05e5e37b1f6bb7" target="_top" xlink:title=" ">
<polygon fill="none" stroke="black" points="462.5,-0.5 462.5,-19.5 606.5,-19.5 606.5,-0.5 462.5,-0.5"/>
<text text-anchor="middle" x="534.5" y="-7.5" font-family="Helvetica,sans-Serif" font-size="10.00">wmtk::components::mod3</text>
</a>
</g>
</g>
<!-- Node2&#45;&gt;Node4 -->
<g id="edge3" class="edge">
<title>Node2&#45;&gt;Node4</title>
<path fill="none" stroke="midnightblue" d="M406.11,-22.8C421.34,-21.27 437.06,-19.69 452.02,-18.19"/>
<polygon fill="midnightblue" stroke="midnightblue" points="452.65,-21.64 462.25,-17.16 451.95,-14.68 452.65,-21.64"/>
</g>
</g>
</svg>
