<?xml version="1.0" encoding="UTF-8" standalone="no"?>
<!DOCTYPE svg PUBLIC "-//W3C//DTD SVG 1.1//EN"
 "http://www.w3.org/Graphics/SVG/1.1/DTD/svg11.dtd">
<!-- Generated by graphviz version 2.43.0 (0)
 -->
<!-- Title: wmtk::multimesh::MultiMeshManager::parent_to_child_map_attribute_name Pages: 1 -->
<svg width="1522pt" height="423pt"
 viewBox="0.00 0.00 1522.00 422.50" xmlns="http://www.w3.org/2000/svg" xmlns:xlink="http://www.w3.org/1999/xlink">
<g id="graph0" class="graph" transform="scale(1 1) rotate(0) translate(4 418.5)">
<title>wmtk::multimesh::MultiMeshManager::parent_to_child_map_attribute_name</title>
<!-- Node1 -->
<g id="node1" class="node">
<title>Node1</title>
<g id="a_node1"><a xlink:title=" ">
<polygon fill="#bfbfbf" stroke="black" points="1354,-187.5 1354,-228.5 1514,-228.5 1514,-187.5 1354,-187.5"/>
<text text-anchor="start" x="1362" y="-216.5" font-family="Helvetica,sans-Serif" font-size="10.00">wmtk::multimesh::MultiMesh</text>
<text text-anchor="start" x="1362" y="-205.5" font-family="Helvetica,sans-Serif" font-size="10.00">Manager::parent_to_child</text>
<text text-anchor="middle" x="1434" y="-194.5" font-family="Helvetica,sans-Serif" font-size="10.00">_map_attribute_name</text>
</a>
</g>
</g>
<!-- Node2 -->
<g id="node2" class="node">
<title>Node2</title>
<g id="a_node2"><a xlink:href="classwmtk_1_1multimesh_1_1_multi_mesh_manager.html#a4b563821dc0926b66899d0d8a8d32e58" target="_top" xlink:title="register a another mesh as a child of this mesh.">
<polygon fill="none" stroke="black" points="1150.5,-169 1150.5,-199 1314.5,-199 1314.5,-169 1150.5,-169"/>
<text text-anchor="start" x="1158.5" y="-187" font-family="Helvetica,sans-Serif" font-size="10.00">wmtk::multimesh::MultiMesh</text>
<text text-anchor="middle" x="1232.5" y="-176" font-family="Helvetica,sans-Serif" font-size="10.00">Manager::register_child_mesh</text>
</a>
</g>
</g>
<!-- Node1&#45;&gt;Node2 -->
<g id="edge1" class="edge">
<title>Node1&#45;&gt;Node2</title>
<path fill="none" stroke="midnightblue" d="M1343.86,-197.28C1334.19,-196.11 1324.39,-194.93 1314.83,-193.78"/>
<polygon fill="midnightblue" stroke="midnightblue" points="1343.52,-200.76 1353.87,-198.48 1344.36,-193.81 1343.52,-200.76"/>
</g>
<!-- Node19 -->
<g id="node19" class="node">
<title>Node19</title>
<g id="a_node19"><a xlink:href="classwmtk_1_1multimesh_1_1_multi_mesh_manager.html#ab71befacebd0a22bb8e75ca5640d9d45" target="_top" xlink:title="Clean up child data after deleting attributes.">
<polygon fill="none" stroke="black" points="1147,-218 1147,-248 1318,-248 1318,-218 1147,-218"/>
<text text-anchor="start" x="1155" y="-236" font-family="Helvetica,sans-Serif" font-size="10.00">wmtk::multimesh::MultiMesh</text>
<text text-anchor="middle" x="1232.5" y="-225" font-family="Helvetica,sans-Serif" font-size="10.00">Manager::update_child_handles</text>
</a>
</g>
</g>
<!-- Node1&#45;&gt;Node19 -->
<g id="edge20" class="edge">
<title>Node1&#45;&gt;Node19</title>
<path fill="none" stroke="midnightblue" d="M1343.87,-219.17C1335.31,-220.24 1326.63,-221.33 1318.11,-222.4"/>
<polygon fill="midnightblue" stroke="midnightblue" points="1344.38,-222.63 1353.87,-217.92 1343.51,-215.69 1344.38,-222.63"/>
</g>
<!-- Node3 -->
<g id="node3" class="node">
<title>Node3</title>
<g id="a_node3"><a xlink:href="classwmtk_1_1_mesh.html#abde493ad70eef5e38834fdf647a56c0b" target="_top" xlink:title="register a mesh as the child of this mesh">
<polygon fill="none" stroke="black" points="963,-147 963,-177 1083,-177 1083,-147 963,-147"/>
<text text-anchor="start" x="971" y="-165" font-family="Helvetica,sans-Serif" font-size="10.00">wmtk::Mesh::register</text>
<text text-anchor="middle" x="1023" y="-154" font-family="Helvetica,sans-Serif" font-size="10.00">_child_mesh</text>
</a>
</g>
</g>
<!-- Node2&#45;&gt;Node3 -->
<g id="edge2" class="edge">
<title>Node2&#45;&gt;Node3</title>
<path fill="none" stroke="midnightblue" d="M1140.33,-174.33C1120.97,-172.28 1101.02,-170.17 1083.22,-168.28"/>
<polygon fill="midnightblue" stroke="midnightblue" points="1140.07,-177.83 1150.38,-175.4 1140.81,-170.86 1140.07,-177.83"/>
</g>
<!-- Node4 -->
<g id="node4" class="node">
<title>Node4</title>
<g id="a_node4"><a xlink:href="classwmtk_1_1components_1_1internal_1_1_multi_mesh_from_tag.html#a96647e9413f2b7e13dd17f02cf29b12d" target="_top" xlink:title="Create a manifold mesh from the substructure.">
<polygon fill="none" stroke="black" points="528.5,-147.5 528.5,-188.5 692.5,-188.5 692.5,-147.5 528.5,-147.5"/>
<text text-anchor="start" x="536.5" y="-176.5" font-family="Helvetica,sans-Serif" font-size="10.00">wmtk::components::internal</text>
<text text-anchor="start" x="536.5" y="-165.5" font-family="Helvetica,sans-Serif" font-size="10.00">::MultiMeshFromTag::compute</text>
<text text-anchor="middle" x="610.5" y="-154.5" font-family="Helvetica,sans-Serif" font-size="10.00">_substructure_mesh</text>
</a>
</g>
</g>
<!-- Node3&#45;&gt;Node4 -->
<g id="edge3" class="edge">
<title>Node3&#45;&gt;Node4</title>
<path fill="none" stroke="midnightblue" d="M952.76,-167.29C935.23,-168.42 916.43,-169.43 899,-170 829.41,-172.26 750.29,-171.46 692.69,-170.27"/>
<polygon fill="midnightblue" stroke="midnightblue" points="953.17,-170.78 962.92,-166.62 952.71,-163.79 953.17,-170.78"/>
</g>
<!-- Node10 -->
<g id="node10" class="node">
<title>Node10</title>
<g id="a_node10"><a xlink:href="classwmtk_1_1components_1_1internal_1_1_multi_mesh_from_tag.html#ad18667b876fc81c8cfb79a408d632b25" target="_top" xlink:title="Create a multimesh where the child&#45;mesh is just a soup (no connectivity) of m_mesh.">
<polygon fill="none" stroke="black" points="742.5,-119.5 742.5,-160.5 896.5,-160.5 896.5,-119.5 742.5,-119.5"/>
<text text-anchor="start" x="750.5" y="-148.5" font-family="Helvetica,sans-Serif" font-size="10.00">wmtk::components::internal</text>
<text text-anchor="start" x="750.5" y="-137.5" font-family="Helvetica,sans-Serif" font-size="10.00">::MultiMeshFromTag::create</text>
<text text-anchor="middle" x="819.5" y="-126.5" font-family="Helvetica,sans-Serif" font-size="10.00">_substructure_soup</text>
</a>
</g>
</g>
<!-- Node3&#45;&gt;Node10 -->
<g id="edge9" class="edge">
<title>Node3&#45;&gt;Node10</title>
<path fill="none" stroke="midnightblue" d="M952.77,-154.44C934.75,-152.47 915.22,-150.34 896.85,-148.34"/>
<polygon fill="midnightblue" stroke="midnightblue" points="952.58,-157.94 962.9,-155.55 953.34,-150.98 952.58,-157.94"/>
</g>
<!-- Node11 -->
<g id="node11" class="node">
<title>Node11</title>
<g id="a_node11"><a xlink:href="classwmtk_1_1multimesh_1_1utils_1_1internal_1_1_tuple_tag.html#aded6749514cde25169eec3e5a9c2529e" target="_top" xlink:title=" ">
<polygon fill="none" stroke="black" points="746.5,-48 746.5,-100 892.5,-100 892.5,-48 746.5,-48"/>
<text text-anchor="start" x="754.5" y="-88" font-family="Helvetica,sans-Serif" font-size="10.00">wmtk::multimesh::utils</text>
<text text-anchor="start" x="754.5" y="-77" font-family="Helvetica,sans-Serif" font-size="10.00">::internal::TupleTag::</text>
<text text-anchor="start" x="754.5" y="-66" font-family="Helvetica,sans-Serif" font-size="10.00">extract_and_register_child</text>
<text text-anchor="middle" x="819.5" y="-55" font-family="Helvetica,sans-Serif" font-size="10.00">_mesh_from_tag_handle</text>
</a>
</g>
</g>
<!-- Node3&#45;&gt;Node11 -->
<g id="edge11" class="edge">
<title>Node3&#45;&gt;Node11</title>
<path fill="none" stroke="midnightblue" d="M978.02,-142.79C949.38,-130.29 911.66,-113.81 880.31,-100.12"/>
<polygon fill="midnightblue" stroke="midnightblue" points="976.8,-146.08 987.36,-146.87 979.6,-139.66 976.8,-146.08"/>
</g>
<!-- Node5 -->
<g id="node5" class="node">
<title>Node5</title>
<g id="a_node5"><a xlink:href="namespacewmtk_1_1components.html#a43e4bf82099343e153b21c9be07cd2d1" target="_top" xlink:title="Generate a multi&#45;mesh from a mesh with a tag that represents the substructure.">
<polygon fill="none" stroke="black" points="312,-249 312,-279 481,-279 481,-249 312,-249"/>
<text text-anchor="start" x="320" y="-267" font-family="Helvetica,sans-Serif" font-size="10.00">wmtk::components::multimesh</text>
<text text-anchor="middle" x="396.5" y="-256" font-family="Helvetica,sans-Serif" font-size="10.00">_from_tag</text>
</a>
</g>
</g>
<!-- Node4&#45;&gt;Node5 -->
<g id="edge4" class="edge">
<title>Node4&#45;&gt;Node5</title>
<path fill="none" stroke="midnightblue" d="M525.07,-193.14C522.3,-194.67 519.6,-196.29 517,-198 496.74,-211.33 501.41,-225.9 481,-239 475.01,-242.84 468.41,-246.11 461.62,-248.9"/>
<polygon fill="midnightblue" stroke="midnightblue" points="526.83,-196.18 534.17,-188.54 523.67,-189.93 526.83,-196.18"/>
</g>
<!-- Node7 -->
<g id="node7" class="node">
<title>Node7</title>
<g id="a_node7"><a xlink:href="namespacewmtk_1_1components.html#a2e278a65e90619186ee7488b1d32da30" target="_top" xlink:title=" ">
<polygon fill="none" stroke="black" points="319,-200 319,-230 474,-230 474,-200 319,-200"/>
<text text-anchor="start" x="327" y="-218" font-family="Helvetica,sans-Serif" font-size="10.00">wmtk::components::periodic</text>
<text text-anchor="middle" x="396.5" y="-207" font-family="Helvetica,sans-Serif" font-size="10.00">_optimization</text>
</a>
</g>
</g>
<!-- Node4&#45;&gt;Node7 -->
<g id="edge6" class="edge">
<title>Node4&#45;&gt;Node7</title>
<path fill="none" stroke="midnightblue" d="M518.6,-188.15C500.76,-192.11 482.34,-196.19 465.41,-199.95"/>
<polygon fill="midnightblue" stroke="midnightblue" points="519.44,-191.55 528.44,-185.97 517.92,-184.72 519.44,-191.55"/>
</g>
<!-- Node8 -->
<g id="node8" class="node">
<title>Node8</title>
<g id="a_node8"><a xlink:href="test__component__multimesh__from__tag_8cpp.html#a18cd3d411cfadc472201c20662d62869" target="_top" xlink:title=" ">
<polygon fill="none" stroke="black" points="361,-161.5 361,-180.5 432,-180.5 432,-161.5 361,-161.5"/>
<text text-anchor="middle" x="396.5" y="-168.5" font-family="Helvetica,sans-Serif" font-size="10.00">TEST_CASE</text>
</a>
</g>
</g>
<!-- Node4&#45;&gt;Node8 -->
<g id="edge7" class="edge">
<title>Node4&#45;&gt;Node8</title>
<path fill="none" stroke="midnightblue" d="M518.2,-169.29C487.77,-169.72 455.68,-170.18 432.25,-170.51"/>
<polygon fill="midnightblue" stroke="midnightblue" points="518.49,-172.79 528.44,-169.15 518.4,-165.79 518.49,-172.79"/>
</g>
<!-- Node9 -->
<g id="node9" class="node">
<title>Node9</title>
<g id="a_node9"><a xlink:href="namespacewmtk_1_1components.html#ad26e15d638e76cf767b43e34d5d68465" target="_top" xlink:title=" ">
<polygon fill="none" stroke="black" points="319.5,-112 319.5,-142 473.5,-142 473.5,-112 319.5,-112"/>
<text text-anchor="start" x="327.5" y="-130" font-family="Helvetica,sans-Serif" font-size="10.00">wmtk::components::triangle</text>
<text text-anchor="middle" x="396.5" y="-119" font-family="Helvetica,sans-Serif" font-size="10.00">_insertion</text>
</a>
</g>
</g>
<!-- Node4&#45;&gt;Node9 -->
<g id="edge8" class="edge">
<title>Node4&#45;&gt;Node9</title>
<path fill="none" stroke="midnightblue" d="M518.23,-150.35C503.35,-147.47 488.09,-144.52 473.63,-141.72"/>
<polygon fill="midnightblue" stroke="midnightblue" points="517.96,-153.86 528.44,-152.32 519.29,-146.99 517.96,-153.86"/>
</g>
<!-- Node6 -->
<g id="node6" class="node">
<title>Node6</title>
<g id="a_node6"><a xlink:href="test__component__multimesh__from__tag_8cpp.html#a2b0208caf4b963a36a43604c3e7cf34a" target="_top" xlink:title=" ">
<polygon fill="none" stroke="black" points="156,-254.5 156,-273.5 227,-273.5 227,-254.5 156,-254.5"/>
<text text-anchor="middle" x="191.5" y="-261.5" font-family="Helvetica,sans-Serif" font-size="10.00">TEST_CASE</text>
</a>
</g>
</g>
<!-- Node5&#45;&gt;Node6 -->
<g id="edge5" class="edge">
<title>Node5&#45;&gt;Node6</title>
<path fill="none" stroke="midnightblue" d="M301.64,-264C275.09,-264 247.85,-264 227.22,-264"/>
<polygon fill="midnightblue" stroke="midnightblue" points="301.76,-267.5 311.76,-264 301.76,-260.5 301.76,-267.5"/>
</g>
<!-- Node10&#45;&gt;Node4 -->
<g id="edge10" class="edge">
<title>Node10&#45;&gt;Node4</title>
<path fill="none" stroke="midnightblue" d="M732.36,-151.65C719.25,-153.42 705.76,-155.25 692.75,-157.01"/>
<polygon fill="midnightblue" stroke="midnightblue" points="732.86,-155.12 742.3,-150.31 731.92,-148.18 732.86,-155.12"/>
</g>
<!-- Node12 -->
<g id="node12" class="node">
<title>Node12</title>
<g id="a_node12"><a xlink:href="namespacewmtk_1_1multimesh_1_1utils.html#a7abce025022d68cda1ab1de2663865df" target="_top" xlink:title="extract a child mesh based on the tag handle and the tag value, and register it to the input (parent)...">
<polygon fill="none" stroke="black" points="545.5,-87.5 545.5,-128.5 675.5,-128.5 675.5,-87.5 545.5,-87.5"/>
<text text-anchor="start" x="553.5" y="-116.5" font-family="Helvetica,sans-Serif" font-size="10.00">wmtk::multimesh::utils</text>
<text text-anchor="start" x="553.5" y="-105.5" font-family="Helvetica,sans-Serif" font-size="10.00">::extract_and_register</text>
<text text-anchor="middle" x="610.5" y="-94.5" font-family="Helvetica,sans-Serif" font-size="10.00">_child_mesh_from_tag</text>
</a>
</g>
</g>
<!-- Node11&#45;&gt;Node12 -->
<g id="edge12" class="edge">
<title>Node11&#45;&gt;Node12</title>
<path fill="none" stroke="midnightblue" d="M736.3,-87.5C716.16,-90.81 694.9,-94.3 675.75,-97.45"/>
<polygon fill="midnightblue" stroke="midnightblue" points="737.09,-90.92 746.39,-85.84 735.96,-84.01 737.09,-90.92"/>
</g>
<!-- Node13 -->
<g id="node13" class="node">
<title>Node13</title>
<g id="a_node13"><a xlink:href="namespacewmtk_1_1multimesh_1_1utils.html#a3884bf7da96f02deb13cc2b7c8b3629e" target="_top" xlink:title="extract a child mesh based on the tag handle and the tag value, and register it to the input (parent)...">
<polygon fill="none" stroke="black" points="528,-27.5 528,-68.5 693,-68.5 693,-27.5 528,-27.5"/>
<text text-anchor="start" x="536" y="-56.5" font-family="Helvetica,sans-Serif" font-size="10.00">wmtk::multimesh::utils</text>
<text text-anchor="start" x="536" y="-45.5" font-family="Helvetica,sans-Serif" font-size="10.00">::extract_and_register</text>
<text text-anchor="middle" x="610.5" y="-34.5" font-family="Helvetica,sans-Serif" font-size="10.00">_child_mesh_from_tag_handle</text>
</a>
</g>
</g>
<!-- Node11&#45;&gt;Node13 -->
<g id="edge13" class="edge">
<title>Node11&#45;&gt;Node13</title>
<path fill="none" stroke="midnightblue" d="M736.21,-63.66C722.08,-61.89 707.39,-60.04 693.27,-58.27"/>
<polygon fill="midnightblue" stroke="midnightblue" points="736.03,-67.17 746.39,-64.94 736.91,-60.22 736.03,-67.17"/>
</g>
<!-- Node13&#45;&gt;Node9 -->
<g id="edge19" class="edge">
<title>Node13&#45;&gt;Node9</title>
<path fill="none" stroke="midnightblue" d="M534.23,-71.88C528.38,-73.9 522.58,-75.95 517,-78 488.16,-88.57 455.96,-101.86 432.26,-111.93"/>
<polygon fill="midnightblue" stroke="midnightblue" points="535.76,-75.06 544.1,-68.53 533.5,-68.44 535.76,-75.06"/>
</g>
<!-- Node14 -->
<g id="node14" class="node">
<title>Node14</title>
<g id="a_node14"><a xlink:href="namespacewmtk_1_1multimesh_1_1utils.html#a4c77e0353f0106b750a18d225d22cd8a" target="_top" xlink:title="extract a child mesh based on the given tag and tag value, and register it to the input (parent) mesh">
<polygon fill="none" stroke="black" points="331.5,-27.5 331.5,-68.5 461.5,-68.5 461.5,-27.5 331.5,-27.5"/>
<text text-anchor="start" x="339.5" y="-56.5" font-family="Helvetica,sans-Serif" font-size="10.00">wmtk::multimesh::utils</text>
<text text-anchor="start" x="339.5" y="-45.5" font-family="Helvetica,sans-Serif" font-size="10.00">::extract_and_register</text>
<text text-anchor="middle" x="396.5" y="-34.5" font-family="Helvetica,sans-Serif" font-size="10.00">_child_mesh_from_tag</text>
</a>
</g>
</g>
<!-- Node13&#45;&gt;Node14 -->
<g id="edge14" class="edge">
<title>Node13&#45;&gt;Node14</title>
<path fill="none" stroke="midnightblue" d="M517.73,-48C498.84,-48 479.34,-48 461.68,-48"/>
<polygon fill="midnightblue" stroke="midnightblue" points="517.84,-51.5 527.84,-48 517.84,-44.5 517.84,-51.5"/>
</g>
<!-- Node15 -->
<g id="node15" class="node">
<title>Node15</title>
<g id="a_node15"><a xlink:href="namespacewmtk_1_1utils.html#a4ea0d7c148b4066c6692a8e31c7b7b7a" target="_top" xlink:title=" ">
<polygon fill="none" stroke="black" points="115,-76.5 115,-117.5 268,-117.5 268,-76.5 115,-76.5"/>
<text text-anchor="start" x="123" y="-105.5" font-family="Helvetica,sans-Serif" font-size="10.00">wmtk::utils::generate</text>
<text text-anchor="start" x="123" y="-94.5" font-family="Helvetica,sans-Serif" font-size="10.00">_raw_tetmesh_with_surface</text>
<text text-anchor="middle" x="191.5" y="-83.5" font-family="Helvetica,sans-Serif" font-size="10.00">_from_input</text>
</a>
</g>
</g>
<!-- Node14&#45;&gt;Node15 -->
<g id="edge15" class="edge">
<title>Node14&#45;&gt;Node15</title>
<path fill="none" stroke="midnightblue" d="M321.21,-65.93C303.88,-70.12 285.4,-74.58 268.02,-78.77"/>
<polygon fill="midnightblue" stroke="midnightblue" points="322.37,-69.25 331.27,-63.5 320.73,-62.45 322.37,-69.25"/>
</g>
<!-- Node16 -->
<g id="node16" class="node">
<title>Node16</title>
<g id="a_node16"><a xlink:href="namespacewmtk_1_1components.html#aac69455341d52516952b0655d254ec51" target="_top" xlink:title=" ">
<polygon fill="none" stroke="black" points="107,-38.5 107,-57.5 276,-57.5 276,-38.5 107,-38.5"/>
<text text-anchor="middle" x="191.5" y="-45.5" font-family="Helvetica,sans-Serif" font-size="10.00">wmtk::components::multimesh</text>
</a>
</g>
</g>
<!-- Node14&#45;&gt;Node16 -->
<g id="edge16" class="edge">
<title>Node14&#45;&gt;Node16</title>
<path fill="none" stroke="midnightblue" d="M321.24,-48C306.53,-48 291.01,-48 276.02,-48"/>
<polygon fill="midnightblue" stroke="midnightblue" points="321.27,-51.5 331.27,-48 321.27,-44.5 321.27,-51.5"/>
</g>
<!-- Node18 -->
<g id="node18" class="node">
<title>Node18</title>
<g id="a_node18"><a xlink:href="test__component__isotropic__remeshing_8cpp.html#aae475685ae29b731655dd43137a950d6" target="_top" xlink:title=" ">
<polygon fill="none" stroke="black" points="156,-0.5 156,-19.5 227,-19.5 227,-0.5 156,-0.5"/>
<text text-anchor="middle" x="191.5" y="-7.5" font-family="Helvetica,sans-Serif" font-size="10.00">TEST_CASE</text>
</a>
</g>
</g>
<!-- Node14&#45;&gt;Node18 -->
<g id="edge18" class="edge">
<title>Node14&#45;&gt;Node18</title>
<path fill="none" stroke="midnightblue" d="M321.41,-34.13C289.16,-28.09 252.93,-21.31 227.11,-16.48"/>
<polygon fill="midnightblue" stroke="midnightblue" points="320.8,-37.58 331.27,-35.98 322.08,-30.7 320.8,-37.58"/>
</g>
<!-- Node17 -->
<g id="node17" class="node">
<title>Node17</title>
<g id="a_node17"><a xlink:href="test__component__multimesh_8cpp.html#adcff0ee9e850d29cff036dae09747fe6" target="_top" xlink:title=" ">
<polygon fill="none" stroke="black" points="0,-38.5 0,-57.5 71,-57.5 71,-38.5 0,-38.5"/>
<text text-anchor="middle" x="35.5" y="-45.5" font-family="Helvetica,sans-Serif" font-size="10.00">TEST_CASE</text>
</a>
</g>
</g>
<!-- Node16&#45;&gt;Node17 -->
<g id="edge17" class="edge">
<title>Node16&#45;&gt;Node17</title>
<path fill="none" stroke="midnightblue" d="M96.52,-48C87.57,-48 78.93,-48 71.14,-48"/>
<polygon fill="midnightblue" stroke="midnightblue" points="96.74,-51.5 106.74,-48 96.74,-44.5 96.74,-51.5"/>
</g>
<!-- Node20 -->
<g id="node20" class="node">
<title>Node20</title>
<g id="a_node20"><a xlink:href="classwmtk_1_1multimesh_1_1_multi_mesh_manager.html#a69e485e6bb6293cafd0b96526522f556" target="_top" xlink:title="Deregister a child mesh.">
<polygon fill="none" stroke="black" points="935,-218 935,-248 1111,-248 1111,-218 935,-218"/>
<text text-anchor="start" x="943" y="-236" font-family="Helvetica,sans-Serif" font-size="10.00">wmtk::multimesh::MultiMesh</text>
<text text-anchor="middle" x="1023" y="-225" font-family="Helvetica,sans-Serif" font-size="10.00">Manager::deregister_child_mesh</text>
</a>
</g>
</g>
<!-- Node19&#45;&gt;Node20 -->
<g id="edge21" class="edge">
<title>Node19&#45;&gt;Node20</title>
<path fill="none" stroke="midnightblue" d="M1136.53,-233C1128.06,-233 1119.52,-233 1111.12,-233"/>
<polygon fill="midnightblue" stroke="midnightblue" points="1136.8,-236.5 1146.8,-233 1136.8,-229.5 1136.8,-236.5"/>
</g>
<!-- Node23 -->
<g id="node23" class="node">
<title>Node23</title>
<g id="a_node23"><a xlink:href="classwmtk_1_1_mesh.html#a4b8fe891dcc922a937e08025c922b532" target="_top" xlink:title="Update the child handles after clearing attributes.">
<polygon fill="none" stroke="black" points="965,-286 965,-316 1081,-316 1081,-286 965,-286"/>
<text text-anchor="start" x="973" y="-304" font-family="Helvetica,sans-Serif" font-size="10.00">wmtk::Mesh::update</text>
<text text-anchor="middle" x="1023" y="-293" font-family="Helvetica,sans-Serif" font-size="10.00">_child_handles</text>
</a>
</g>
</g>
<!-- Node19&#45;&gt;Node23 -->
<g id="edge28" class="edge">
<title>Node19&#45;&gt;Node23</title>
<path fill="none" stroke="midnightblue" d="M1176.16,-251.14C1143.01,-262 1101.37,-275.64 1070.03,-285.91"/>
<polygon fill="midnightblue" stroke="midnightblue" points="1177.29,-254.45 1185.71,-248.01 1175.11,-247.8 1177.29,-254.45"/>
</g>
<!-- Node21 -->
<g id="node21" class="node">
<title>Node21</title>
<g id="a_node21"><a xlink:href="classwmtk_1_1_mesh.html#ad43e9c7d4db3d24c9d9c30fa381cf54b" target="_top" xlink:title="Deregister a child mesh.">
<polygon fill="none" stroke="black" points="753.5,-218 753.5,-248 885.5,-248 885.5,-218 753.5,-218"/>
<text text-anchor="start" x="761.5" y="-236" font-family="Helvetica,sans-Serif" font-size="10.00">wmtk::Mesh::deregister</text>
<text text-anchor="middle" x="819.5" y="-225" font-family="Helvetica,sans-Serif" font-size="10.00">_child_mesh</text>
</a>
</g>
</g>
<!-- Node20&#45;&gt;Node21 -->
<g id="edge22" class="edge">
<title>Node20&#45;&gt;Node21</title>
<path fill="none" stroke="midnightblue" d="M924.7,-233C911.46,-233 898.14,-233 885.66,-233"/>
<polygon fill="midnightblue" stroke="midnightblue" points="924.79,-236.5 934.79,-233 924.79,-229.5 924.79,-236.5"/>
</g>
<!-- Node22 -->
<g id="node22" class="node">
<title>Node22</title>
<g id="a_node22"><a xlink:href="classwmtk_1_1components_1_1internal_1_1_multi_mesh_from_tag.html#a01b37640de0da31a48634f312aed4aa9" target="_top" xlink:title="Remove the substructure soup from the multimesh.">
<polygon fill="none" stroke="black" points="517,-208 517,-238 704,-238 704,-208 517,-208"/>
<text text-anchor="start" x="525" y="-226" font-family="Helvetica,sans-Serif" font-size="10.00">wmtk::components::internal</text>
<text text-anchor="middle" x="610.5" y="-215" font-family="Helvetica,sans-Serif" font-size="10.00">::MultiMeshFromTag::remove_soup</text>
</a>
</g>
</g>
<!-- Node21&#45;&gt;Node22 -->
<g id="edge23" class="edge">
<title>Node21&#45;&gt;Node22</title>
<path fill="none" stroke="midnightblue" d="M743.22,-229.36C730.49,-228.75 717.14,-228.1 704.02,-227.47"/>
<polygon fill="midnightblue" stroke="midnightblue" points="743.13,-232.86 753.29,-229.85 743.47,-225.87 743.13,-232.86"/>
</g>
<!-- Node22&#45;&gt;Node5 -->
<g id="edge24" class="edge">
<title>Node22&#45;&gt;Node5</title>
<path fill="none" stroke="midnightblue" d="M521.72,-239.98C506.3,-242.96 490.35,-246.04 475.23,-248.97"/>
<polygon fill="midnightblue" stroke="midnightblue" points="522.61,-243.37 531.76,-238.03 521.28,-236.5 522.61,-243.37"/>
</g>
<!-- Node22&#45;&gt;Node7 -->
<g id="edge25" class="edge">
<title>Node22&#45;&gt;Node7</title>
<path fill="none" stroke="midnightblue" d="M506.75,-219.12C495.76,-218.71 484.72,-218.29 474.11,-217.89"/>
<polygon fill="midnightblue" stroke="midnightblue" points="506.7,-222.62 516.82,-219.5 506.96,-215.63 506.7,-222.62"/>
</g>
<!-- Node22&#45;&gt;Node8 -->
<g id="edge26" class="edge">
<title>Node22&#45;&gt;Node8</title>
<path fill="none" stroke="midnightblue" d="M542.49,-205.42C522.72,-200.33 501.01,-194.85 481,-190 464.96,-186.12 447.13,-182.03 432.08,-178.64"/>
<polygon fill="midnightblue" stroke="midnightblue" points="541.78,-208.85 552.33,-207.96 543.53,-202.07 541.78,-208.85"/>
</g>
<!-- Node22&#45;&gt;Node9 -->
<g id="edge27" class="edge">
<title>Node22&#45;&gt;Node9</title>
<path fill="none" stroke="midnightblue" d="M526.72,-203.66C523.35,-201.93 520.09,-200.05 517,-198 495.36,-183.66 502.44,-166.63 481,-152 475.38,-148.16 469.15,-144.9 462.7,-142.13"/>
<polygon fill="midnightblue" stroke="midnightblue" points="525.32,-206.87 535.86,-207.89 528.25,-200.52 525.32,-206.87"/>
</g>
<!-- Node24 -->
<g id="node24" class="node">
<title>Node24</title>
<g id="a_node24"><a xlink:href="classwmtk_1_1_mesh.html#a1560383e3efd16c50b116642ebf3d6c6" target="_top" xlink:title="Remove all custom attributes besides the one passed in.">
<polygon fill="none" stroke="black" points="740,-301.5 740,-320.5 899,-320.5 899,-301.5 740,-301.5"/>
<text text-anchor="middle" x="819.5" y="-308.5" font-family="Helvetica,sans-Serif" font-size="10.00">wmtk::Mesh::clear_attributes</text>
</a>
</g>
</g>
<!-- Node23&#45;&gt;Node24 -->
<g id="edge29" class="edge">
<title>Node23&#45;&gt;Node24</title>
<path fill="none" stroke="midnightblue" d="M954.56,-304.35C936.83,-305.23 917.55,-306.18 899.28,-307.09"/>
<polygon fill="midnightblue" stroke="midnightblue" points="954.98,-307.83 964.8,-303.84 954.64,-300.84 954.98,-307.83"/>
</g>
<!-- Node24&#45;&gt;Node5 -->
<g id="edge31" class="edge">
<title>Node24&#45;&gt;Node5</title>
<path fill="none" stroke="midnightblue" d="M771.59,-299.17C750.98,-294.38 726.41,-289.23 704,-286 629.02,-275.18 542.92,-269.6 481.1,-266.77"/>
<polygon fill="midnightblue" stroke="midnightblue" points="770.82,-302.58 781.36,-301.48 772.43,-295.77 770.82,-302.58"/>
</g>
<!-- Node25 -->
<g id="node25" class="node">
<title>Node25</title>
<g id="a_node25"><a xlink:href="namespacewmtk_1_1components.html#a2089f999b4072674bda24b29e86257e1" target="_top" xlink:title="Perform maching tetrahedra/triangles.">
<polygon fill="none" stroke="black" points="529.5,-345.5 529.5,-364.5 691.5,-364.5 691.5,-345.5 529.5,-345.5"/>
<text text-anchor="middle" x="610.5" y="-352.5" font-family="Helvetica,sans-Serif" font-size="10.00">wmtk::components::marching</text>
</a>
</g>
</g>
<!-- Node24&#45;&gt;Node25 -->
<g id="edge30" class="edge">
<title>Node24&#45;&gt;Node25</title>
<path fill="none" stroke="midnightblue" d="M765.71,-322.67C746.31,-326.92 724.17,-331.73 704,-336 689.24,-339.13 673.15,-342.46 658.58,-345.45"/>
<polygon fill="midnightblue" stroke="midnightblue" points="766.56,-326.07 775.57,-320.5 765.06,-319.23 766.56,-326.07"/>
</g>
<!-- Node26 -->
<g id="node26" class="node">
<title>Node26</title>
<g id="a_node26"><a xlink:href="namespacewmtk_1_1components.html#a899899fc78b0d9575cf5996f9d10d012" target="_top" xlink:title=" ">
<polygon fill="none" stroke="black" points="535,-296 535,-326 686,-326 686,-296 535,-296"/>
<text text-anchor="start" x="543" y="-314" font-family="Helvetica,sans-Serif" font-size="10.00">wmtk::components::regular</text>
<text text-anchor="middle" x="610.5" y="-303" font-family="Helvetica,sans-Serif" font-size="10.00">_space</text>
</a>
</g>
</g>
<!-- Node24&#45;&gt;Node26 -->
<g id="edge32" class="edge">
<title>Node24&#45;&gt;Node26</title>
<path fill="none" stroke="midnightblue" d="M729.95,-311C715.39,-311 700.42,-311 686.24,-311"/>
<polygon fill="midnightblue" stroke="midnightblue" points="729.95,-314.5 739.95,-311 729.95,-307.5 729.95,-314.5"/>
</g>
<!-- Node27 -->
<g id="node27" class="node">
<title>Node27</title>
<g id="a_node27"><a xlink:href="namespacewmtk_1_1components.html#a070dcd55e46a4a33650a704d6fd1a643" target="_top" xlink:title=" ">
<polygon fill="none" stroke="black" points="544.5,-384 544.5,-414 676.5,-414 676.5,-384 544.5,-384"/>
<text text-anchor="start" x="552.5" y="-402" font-family="Helvetica,sans-Serif" font-size="10.00">wmtk::components::tag</text>
<text text-anchor="middle" x="610.5" y="-391" font-family="Helvetica,sans-Serif" font-size="10.00">_intersection</text>
</a>
</g>
</g>
<!-- Node24&#45;&gt;Node27 -->
<g id="edge33" class="edge">
<title>Node24&#45;&gt;Node27</title>
<path fill="none" stroke="midnightblue" d="M795.33,-325.91C772.76,-339.91 737.1,-360.64 704,-374 694.9,-377.67 685.08,-380.98 675.36,-383.9"/>
<polygon fill="midnightblue" stroke="midnightblue" points="797.27,-328.83 803.88,-320.55 793.55,-322.9 797.27,-328.83"/>
</g>
<!-- Node28 -->
<g id="node28" class="node">
<title>Node28</title>
<g id="a_node28"><a xlink:href="test__component__tag__intersection_8cpp.html#ab45075e8d350017b73b4910211afe71a" target="_top" xlink:title=" ">
<polygon fill="none" stroke="black" points="361,-389.5 361,-408.5 432,-408.5 432,-389.5 361,-389.5"/>
<text text-anchor="middle" x="396.5" y="-396.5" font-family="Helvetica,sans-Serif" font-size="10.00">TEST_CASE</text>
</a>
</g>
</g>
<!-- Node27&#45;&gt;Node28 -->
<g id="edge34" class="edge">
<title>Node27&#45;&gt;Node28</title>
<path fill="none" stroke="midnightblue" d="M534.3,-399C499.51,-399 459.86,-399 432.23,-399"/>
<polygon fill="midnightblue" stroke="midnightblue" points="534.45,-402.5 544.45,-399 534.45,-395.5 534.45,-402.5"/>
</g>
</g>
</svg>
