<?xml version="1.0" encoding="UTF-8" standalone="no"?>
<!DOCTYPE svg PUBLIC "-//W3C//DTD SVG 1.1//EN"
 "http://www.w3.org/Graphics/SVG/1.1/DTD/svg11.dtd">
<!-- Generated by graphviz version 2.43.0 (0)
 -->
<!-- Title: wmtk::simplex::Simplex::tetrahedron Pages: 1 -->
<svg width="561pt" height="143pt"
 viewBox="0.00 0.00 561.00 142.50" xmlns="http://www.w3.org/2000/svg" xmlns:xlink="http://www.w3.org/1999/xlink">
<g id="graph0" class="graph" transform="scale(1 1) rotate(0) translate(4 138.5)">
<title>wmtk::simplex::Simplex::tetrahedron</title>
<!-- Node1 -->
<g id="node1" class="node">
<title>Node1</title>
<g id="a_node1"><a xlink:title=" ">
<polygon fill="#bfbfbf" stroke="black" points="418,-55 418,-85 553,-85 553,-55 418,-55"/>
<text text-anchor="start" x="426" y="-73" font-family="Helvetica,sans-Serif" font-size="10.00">wmtk::simplex::Simplex</text>
<text text-anchor="middle" x="485.5" y="-62" font-family="Helvetica,sans-Serif" font-size="10.00">::tetrahedron</text>
</a>
</g>
</g>
<!-- Node2 -->
<g id="node2" class="node">
<title>Node2</title>
<g id="a_node2"><a xlink:href="classwmtk_1_1components_1_1_tag_intersection.html#a4cd0ce937927f74f60d498d50a6d12b5" target="_top" xlink:title=" ">
<polygon fill="none" stroke="black" points="191,-104 191,-134 382,-134 382,-104 191,-104"/>
<text text-anchor="start" x="199" y="-122" font-family="Helvetica,sans-Serif" font-size="10.00">wmtk::components::TagIntersection</text>
<text text-anchor="middle" x="286.5" y="-111" font-family="Helvetica,sans-Serif" font-size="10.00">::compute_intersection</text>
</a>
</g>
</g>
<!-- Node1&#45;&gt;Node2 -->
<g id="edge1" class="edge">
<title>Node1&#45;&gt;Node2</title>
<path fill="none" stroke="midnightblue" d="M414.24,-87.48C392.52,-92.88 368.81,-98.78 347.83,-103.99"/>
<polygon fill="midnightblue" stroke="midnightblue" points="415.2,-90.84 424.05,-85.03 413.51,-84.05 415.2,-90.84"/>
</g>
<!-- Node3 -->
<g id="node3" class="node">
<title>Node3</title>
<g id="a_node3"><a xlink:href="classwmtk_1_1_tet_mesh_1_1_tet_mesh_operation_executor.html#ac1c490ad927409837061c0d3157b57b5" target="_top" xlink:title=" ">
<polygon fill="none" stroke="black" points="194,-55 194,-85 379,-85 379,-55 194,-55"/>
<text text-anchor="start" x="202" y="-73" font-family="Helvetica,sans-Serif" font-size="10.00">wmtk::TetMesh::TetMeshOperation</text>
<text text-anchor="middle" x="286.5" y="-62" font-family="Helvetica,sans-Serif" font-size="10.00">Executor::get_incident_tet_data</text>
</a>
</g>
</g>
<!-- Node1&#45;&gt;Node3 -->
<g id="edge2" class="edge">
<title>Node1&#45;&gt;Node3</title>
<path fill="none" stroke="midnightblue" d="M407.79,-70C398.44,-70 388.82,-70 379.29,-70"/>
<polygon fill="midnightblue" stroke="midnightblue" points="407.8,-73.5 417.8,-70 407.8,-66.5 407.8,-73.5"/>
</g>
<!-- Node4 -->
<g id="node4" class="node">
<title>Node4</title>
<g id="a_node4"><a xlink:href="classwmtk_1_1_tet_mesh_1_1_tet_mesh_operation_executor.html#afdafef0c67dc0d9b6f2aef827d638eb6" target="_top" xlink:title="split edge v1&#45;v2">
<polygon fill="none" stroke="black" points="194,-6 194,-36 379,-36 379,-6 194,-6"/>
<text text-anchor="start" x="202" y="-24" font-family="Helvetica,sans-Serif" font-size="10.00">wmtk::TetMesh::TetMeshOperation</text>
<text text-anchor="middle" x="286.5" y="-13" font-family="Helvetica,sans-Serif" font-size="10.00">Executor::split_edge</text>
</a>
</g>
</g>
<!-- Node1&#45;&gt;Node4 -->
<g id="edge3" class="edge">
<title>Node1&#45;&gt;Node4</title>
<path fill="none" stroke="midnightblue" d="M414.24,-52.52C392.52,-47.12 368.81,-41.22 347.83,-36.01"/>
<polygon fill="midnightblue" stroke="midnightblue" points="413.51,-55.95 424.05,-54.97 415.2,-49.16 413.51,-55.95"/>
</g>
<!-- Node5 -->
<g id="node5" class="node">
<title>Node5</title>
<g id="a_node5"><a xlink:href="classwmtk_1_1operations_1_1utils_1_1_multi_mesh_edge_split_functor.html#af010a058e1bd67dbd1019342c0ac8c7d" target="_top" xlink:title=" ">
<polygon fill="none" stroke="black" points="0,-0.5 0,-41.5 155,-41.5 155,-0.5 0,-0.5"/>
<text text-anchor="start" x="8" y="-29.5" font-family="Helvetica,sans-Serif" font-size="10.00">wmtk::operations::utils</text>
<text text-anchor="start" x="8" y="-18.5" font-family="Helvetica,sans-Serif" font-size="10.00">::MultiMeshEdgeSplitFunctor</text>
<text text-anchor="middle" x="77.5" y="-7.5" font-family="Helvetica,sans-Serif" font-size="10.00">::operator()</text>
</a>
</g>
</g>
<!-- Node4&#45;&gt;Node5 -->
<g id="edge4" class="edge">
<title>Node4&#45;&gt;Node5</title>
<path fill="none" stroke="midnightblue" d="M183.51,-21C174.01,-21 164.48,-21 155.27,-21"/>
<polygon fill="midnightblue" stroke="midnightblue" points="183.8,-24.5 193.8,-21 183.8,-17.5 183.8,-24.5"/>
</g>
</g>
</svg>
