<?xml version="1.0" encoding="UTF-8" standalone="no"?>
<!DOCTYPE svg PUBLIC "-//W3C//DTD SVG 1.1//EN"
 "http://www.w3.org/Graphics/SVG/1.1/DTD/svg11.dtd">
<!-- Generated by graphviz version 2.43.0 (0)
 -->
<!-- Title: wmtk::components::internal::RegularSpace::regularize_tags Pages: 1 -->
<svg width="1198pt" height="1183pt"
 viewBox="0.00 0.00 1198.00 1182.50" xmlns="http://www.w3.org/2000/svg" xmlns:xlink="http://www.w3.org/1999/xlink">
<g id="graph0" class="graph" transform="scale(1 1) rotate(0) translate(4 1178.5)">
<title>wmtk::components::internal::RegularSpace::regularize_tags</title>
<!-- Node1 -->
<g id="node1" class="node">
<title>Node1</title>
<g id="a_node1"><a xlink:title=" ">
<polygon fill="#bfbfbf" stroke="black" points="0,-570 0,-600 170,-600 170,-570 0,-570"/>
<text text-anchor="start" x="8" y="-588" font-family="Helvetica,sans-Serif" font-size="10.00">wmtk::components::internal</text>
<text text-anchor="middle" x="85" y="-577" font-family="Helvetica,sans-Serif" font-size="10.00">::RegularSpace::regularize_tags</text>
</a>
</g>
</g>
<!-- Node2 -->
<g id="node2" class="node">
<title>Node2</title>
<g id="a_node2"><a xlink:href="classwmtk_1_1operations_1_1_operation.html#a15a2b269f98ec16b4b8d1d88feb60b85" target="_top" xlink:title=" ">
<polygon fill="none" stroke="black" points="215,-1102 215,-1132 371,-1132 371,-1102 215,-1102"/>
<text text-anchor="start" x="223" y="-1120" font-family="Helvetica,sans-Serif" font-size="10.00">wmtk::operations::Operation</text>
<text text-anchor="middle" x="293" y="-1109" font-family="Helvetica,sans-Serif" font-size="10.00">::add_invariant</text>
</a>
</g>
</g>
<!-- Node1&#45;&gt;Node2 -->
<g id="edge1" class="edge">
<title>Node1&#45;&gt;Node2</title>
<path fill="none" stroke="midnightblue" d="M88,-600.15C95.95,-656.99 128.76,-861.94 206,-1011 222.63,-1043.09 249.97,-1074.57 269.35,-1094.77"/>
<polygon fill="midnightblue" stroke="midnightblue" points="266.86,-1097.23 276.36,-1101.94 271.87,-1092.34 266.86,-1097.23"/>
</g>
<!-- Node4 -->
<g id="node4" class="node">
<title>Node4</title>
<g id="a_node4"><a xlink:href="classwmtk_1_1operations_1_1composite_1_1_tri_face_split.html#aaf5e53f3a315722f8b0ba66d52d66652" target="_top" xlink:title=" ">
<polygon fill="none" stroke="black" points="213.5,-971 213.5,-1001 372.5,-1001 372.5,-971 213.5,-971"/>
<text text-anchor="start" x="221.5" y="-989" font-family="Helvetica,sans-Serif" font-size="10.00">wmtk::operations::composite</text>
<text text-anchor="middle" x="293" y="-978" font-family="Helvetica,sans-Serif" font-size="10.00">::TriFaceSplit::collapse</text>
</a>
</g>
</g>
<!-- Node1&#45;&gt;Node4 -->
<g id="edge3" class="edge">
<title>Node1&#45;&gt;Node4</title>
<path fill="none" stroke="midnightblue" d="M86.02,-600.19C86.94,-656.83 97.98,-857.8 206,-962 207.12,-963.08 208.28,-964.1 209.47,-965.09"/>
<polygon fill="midnightblue" stroke="midnightblue" points="207.69,-968.11 217.9,-970.94 211.68,-962.36 207.69,-968.11"/>
</g>
<!-- Node5 -->
<g id="node5" class="node">
<title>Node5</title>
<g id="a_node5"><a xlink:href="classwmtk_1_1_mesh.html#aa2b952c0d3894043f513a86fbbd910ff" target="_top" xlink:title=" ">
<polygon fill="none" stroke="black" points="236.5,-922 236.5,-952 349.5,-952 349.5,-922 236.5,-922"/>
<text text-anchor="start" x="244.5" y="-940" font-family="Helvetica,sans-Serif" font-size="10.00">wmtk::Mesh::create</text>
<text text-anchor="middle" x="293" y="-929" font-family="Helvetica,sans-Serif" font-size="10.00">_accessor</text>
</a>
</g>
</g>
<!-- Node1&#45;&gt;Node5 -->
<g id="edge4" class="edge">
<title>Node1&#45;&gt;Node5</title>
<path fill="none" stroke="midnightblue" d="M87.2,-600.23C92,-651.14 114.35,-817.26 206,-907 212.01,-912.88 219.23,-917.62 226.91,-921.43"/>
<polygon fill="midnightblue" stroke="midnightblue" points="225.52,-924.64 236.08,-925.48 228.35,-918.24 225.52,-924.64"/>
</g>
<!-- Node6 -->
<g id="node6" class="node">
<title>Node6</title>
<g id="a_node6"><a xlink:href="namespacewmtk_1_1simplex.html#aee89641a0de7b5ddf8d15bf376f9d33b" target="_top" xlink:title="Returns all faces of a simplex.">
<polygon fill="none" stroke="black" points="441.5,-1105.5 441.5,-1124.5 563.5,-1124.5 563.5,-1105.5 441.5,-1105.5"/>
<text text-anchor="middle" x="502.5" y="-1112.5" font-family="Helvetica,sans-Serif" font-size="10.00">wmtk::simplex::faces</text>
</a>
</g>
</g>
<!-- Node1&#45;&gt;Node6 -->
<g id="edge5" class="edge">
<title>Node1&#45;&gt;Node6</title>
<path fill="none" stroke="midnightblue" d="M87.48,-600.08C93.05,-648.22 117.2,-799.38 206,-874 266.67,-924.99 324.55,-856.38 380,-913 436.47,-970.67 361.08,-1031.85 416,-1091 420.47,-1095.82 425.83,-1099.7 431.65,-1102.82"/>
<polygon fill="midnightblue" stroke="midnightblue" points="430.57,-1106.17 441.12,-1107.12 433.47,-1099.8 430.57,-1106.17"/>
</g>
<!-- Node7 -->
<g id="node7" class="node">
<title>Node7</title>
<g id="a_node7"><a xlink:href="namespacewmtk_1_1simplex.html#aedab544fbb3e4c417608c0b5371e94d9" target="_top" xlink:title=" ">
<polygon fill="none" stroke="black" points="221.5,-834 221.5,-864 364.5,-864 364.5,-834 221.5,-834"/>
<text text-anchor="start" x="229.5" y="-852" font-family="Helvetica,sans-Serif" font-size="10.00">wmtk::simplex::faces</text>
<text text-anchor="middle" x="293" y="-841" font-family="Helvetica,sans-Serif" font-size="10.00">_single_dimension_tuples</text>
</a>
</g>
</g>
<!-- Node1&#45;&gt;Node7 -->
<g id="edge6" class="edge">
<title>Node1&#45;&gt;Node7</title>
<path fill="none" stroke="midnightblue" d="M92.6,-600C108.49,-634.99 151.6,-723.59 206,-784 221.25,-800.94 241.45,-816.47 258.44,-828.1"/>
<polygon fill="midnightblue" stroke="midnightblue" points="256.73,-831.16 266.99,-833.81 260.62,-825.34 256.73,-831.16"/>
</g>
<!-- Node14 -->
<g id="node14" class="node">
<title>Node14</title>
<g id="a_node14"><a xlink:href="classwmtk_1_1_mesh.html#a933f681cf24a63b155c9462280385200" target="_top" xlink:title=" ">
<polygon fill="none" stroke="black" points="1062,-787 1062,-817 1183,-817 1183,-787 1062,-787"/>
<text text-anchor="start" x="1070" y="-805" font-family="Helvetica,sans-Serif" font-size="10.00">wmtk::Mesh::top_cell</text>
<text text-anchor="middle" x="1122.5" y="-794" font-family="Helvetica,sans-Serif" font-size="10.00">_dimension</text>
</a>
</g>
</g>
<!-- Node1&#45;&gt;Node14 -->
<g id="edge57" class="edge">
<title>Node1&#45;&gt;Node14</title>
<path fill="none" stroke="midnightblue" d="M97.75,-600.14C117.31,-624.15 159.09,-670.41 206,-692 326.39,-747.41 368.97,-732 501.5,-732 501.5,-732 501.5,-732 720,-732 841.8,-732 981.33,-763.65 1059.68,-784.39"/>
<polygon fill="midnightblue" stroke="midnightblue" points="1058.83,-787.78 1069.39,-786.98 1060.64,-781.02 1058.83,-787.78"/>
</g>
<!-- Node15 -->
<g id="node15" class="node">
<title>Node15</title>
<g id="a_node15"><a xlink:href="classwmtk_1_1_mesh.html#abaf00438d0700358b160e310d69725c9" target="_top" xlink:title=" ">
<polygon fill="none" stroke="black" points="849,-792.5 849,-811.5 1019,-811.5 1019,-792.5 849,-792.5"/>
<text text-anchor="middle" x="934" y="-799.5" font-family="Helvetica,sans-Serif" font-size="10.00">wmtk::Mesh::top_simplex_type</text>
</a>
</g>
</g>
<!-- Node1&#45;&gt;Node15 -->
<g id="edge58" class="edge">
<title>Node1&#45;&gt;Node15</title>
<path fill="none" stroke="midnightblue" d="M92.05,-600.16C106.24,-633.41 145.09,-712.44 206,-746 312.33,-804.58 667.43,-806.82 838.84,-804.25"/>
<polygon fill="midnightblue" stroke="midnightblue" points="838.92,-807.75 848.86,-804.1 838.81,-800.75 838.92,-807.75"/>
</g>
<!-- Node17 -->
<g id="node17" class="node">
<title>Node17</title>
<g id="a_node17"><a xlink:href="classwmtk_1_1_mesh.html#a6d2a546c8f661bf6386cf845a1693d2f" target="_top" xlink:title="Generate a vector of Tuples from global vertex/edge/triangle/tetrahedron index.">
<polygon fill="none" stroke="black" points="444.5,-520.5 444.5,-539.5 560.5,-539.5 560.5,-520.5 444.5,-520.5"/>
<text text-anchor="middle" x="502.5" y="-527.5" font-family="Helvetica,sans-Serif" font-size="10.00">wmtk::Mesh::get_all</text>
</a>
</g>
</g>
<!-- Node1&#45;&gt;Node17 -->
<g id="edge26" class="edge">
<title>Node1&#45;&gt;Node17</title>
<path fill="none" stroke="midnightblue" d="M170.08,-573.87C247.83,-563.58 361.91,-548.48 433.91,-538.95"/>
<polygon fill="midnightblue" stroke="midnightblue" points="434.76,-542.36 444.22,-537.58 433.84,-535.43 434.76,-542.36"/>
</g>
<!-- Node18 -->
<g id="node18" class="node">
<title>Node18</title>
<g id="a_node18"><a xlink:href="namespacewmtk.html#a3b08a5d7fb42f02c54bae85758b39f59" target="_top" xlink:title="Get the primitive type corresponding to its unique integer id.">
<polygon fill="none" stroke="black" points="235,-398 235,-428 351,-428 351,-398 235,-398"/>
<text text-anchor="start" x="243" y="-416" font-family="Helvetica,sans-Serif" font-size="10.00">wmtk::get_primitive</text>
<text text-anchor="middle" x="293" y="-405" font-family="Helvetica,sans-Serif" font-size="10.00">_type_from_id</text>
</a>
</g>
</g>
<!-- Node1&#45;&gt;Node18 -->
<g id="edge27" class="edge">
<title>Node1&#45;&gt;Node18</title>
<path fill="none" stroke="midnightblue" d="M94.07,-569.98C110.84,-540.19 152.42,-473.45 206,-438 211.97,-434.05 218.58,-430.71 225.4,-427.89"/>
<polygon fill="midnightblue" stroke="midnightblue" points="226.67,-431.15 234.79,-424.36 224.2,-424.6 226.67,-431.15"/>
</g>
<!-- Node19 -->
<g id="node19" class="node">
<title>Node19</title>
<g id="a_node19"><a xlink:href="namespacewmtk.html#a5cf45c152e856196bb734c6f48919a24" target="_top" xlink:title="Get a unique integer id corresponding to each primitive type.">
<polygon fill="none" stroke="black" points="235,-349 235,-379 351,-379 351,-349 235,-349"/>
<text text-anchor="start" x="243" y="-367" font-family="Helvetica,sans-Serif" font-size="10.00">wmtk::get_primitive</text>
<text text-anchor="middle" x="293" y="-356" font-family="Helvetica,sans-Serif" font-size="10.00">_type_id</text>
</a>
</g>
</g>
<!-- Node1&#45;&gt;Node19 -->
<g id="edge28" class="edge">
<title>Node1&#45;&gt;Node19</title>
<path fill="none" stroke="midnightblue" d="M90.93,-569.87C103.7,-533.06 141.47,-438.28 206,-389 211.78,-384.59 218.31,-380.95 225.14,-377.96"/>
<polygon fill="midnightblue" stroke="midnightblue" points="226.54,-381.17 234.58,-374.26 223.99,-374.65 226.54,-381.17"/>
</g>
<!-- Node20 -->
<g id="node20" class="node">
<title>Node20</title>
<g id="a_node20"><a xlink:href="classwmtk_1_1attribute_1_1_mesh_attribute_handle.html#a791e43cd14d17e32409b62fd37b9fe95" target="_top" xlink:title=" ">
<polygon fill="none" stroke="black" points="209.5,-300 209.5,-330 376.5,-330 376.5,-300 209.5,-300"/>
<text text-anchor="start" x="217.5" y="-318" font-family="Helvetica,sans-Serif" font-size="10.00">wmtk::attribute::MeshAttribute</text>
<text text-anchor="middle" x="293" y="-307" font-family="Helvetica,sans-Serif" font-size="10.00">Handle::handle</text>
</a>
</g>
</g>
<!-- Node1&#45;&gt;Node20 -->
<g id="edge29" class="edge">
<title>Node1&#45;&gt;Node20</title>
<path fill="none" stroke="midnightblue" d="M88.99,-569.7C98.2,-526.69 130.23,-403.7 206,-340 208.03,-338.29 210.17,-336.7 212.4,-335.22"/>
<polygon fill="midnightblue" stroke="midnightblue" points="214.48,-338.06 221.38,-330.02 210.98,-332 214.48,-338.06"/>
</g>
<!-- Node21 -->
<g id="node21" class="node">
<title>Node21</title>
<g id="a_node21"><a xlink:href="namespacewmtk.html#a441d6ad4f19569c7d4946e743da1a925" target="_top" xlink:title=" ">
<polygon fill="none" stroke="black" points="232,-652 232,-682 354,-682 354,-652 232,-652"/>
<text text-anchor="start" x="240" y="-670" font-family="Helvetica,sans-Serif" font-size="10.00">wmtk::log_and_throw</text>
<text text-anchor="middle" x="293" y="-659" font-family="Helvetica,sans-Serif" font-size="10.00">_error</text>
</a>
</g>
</g>
<!-- Node1&#45;&gt;Node21 -->
<g id="edge30" class="edge">
<title>Node1&#45;&gt;Node21</title>
<path fill="none" stroke="midnightblue" d="M123.78,-600.04C157.8,-613.58 207.93,-633.53 244.62,-648.14"/>
<polygon fill="midnightblue" stroke="midnightblue" points="243.52,-651.47 254.11,-651.92 246.11,-644.97 243.52,-651.47"/>
</g>
<!-- Node24 -->
<g id="node24" class="node">
<title>Node24</title>
<g id="a_node24"><a xlink:href="classwmtk_1_1_mesh.html#a26b0600a273bc261624633441e1497cb" target="_top" xlink:title=" ">
<polygon fill="none" stroke="black" points="233,-251 233,-281 353,-281 353,-251 233,-251"/>
<text text-anchor="start" x="241" y="-269" font-family="Helvetica,sans-Serif" font-size="10.00">wmtk::Mesh::register</text>
<text text-anchor="middle" x="293" y="-258" font-family="Helvetica,sans-Serif" font-size="10.00">_attribute</text>
</a>
</g>
</g>
<!-- Node1&#45;&gt;Node24 -->
<g id="edge33" class="edge">
<title>Node1&#45;&gt;Node24</title>
<path fill="none" stroke="midnightblue" d="M87.59,-569.89C93.5,-521.64 118.53,-369.76 206,-291 211.12,-286.39 217.05,-282.62 223.35,-279.55"/>
<polygon fill="midnightblue" stroke="midnightblue" points="224.97,-282.66 232.8,-275.52 222.23,-276.22 224.97,-282.66"/>
</g>
<!-- Node25 -->
<g id="node25" class="node">
<title>Node25</title>
<g id="a_node25"><a xlink:href="classwmtk_1_1_scheduler.html#a246ccf6605333ebb7c020aa8fae1e959" target="_top" xlink:title=" ">
<polygon fill="none" stroke="black" points="233,-447 233,-477 353,-477 353,-447 233,-447"/>
<text text-anchor="start" x="241" y="-465" font-family="Helvetica,sans-Serif" font-size="10.00">wmtk::Scheduler::run</text>
<text text-anchor="middle" x="293" y="-454" font-family="Helvetica,sans-Serif" font-size="10.00">_operation_on_all</text>
</a>
</g>
</g>
<!-- Node1&#45;&gt;Node25 -->
<g id="edge34" class="edge">
<title>Node1&#45;&gt;Node25</title>
<path fill="none" stroke="midnightblue" d="M111.26,-569.92C148.19,-547.86 217.01,-506.77 258.25,-482.15"/>
<polygon fill="midnightblue" stroke="midnightblue" points="260.06,-485.14 266.86,-477.01 256.48,-479.13 260.06,-485.14"/>
</g>
<!-- Node38 -->
<g id="node38" class="node">
<title>Node38</title>
<g id="a_node38"><a xlink:href="classwmtk_1_1attribute_1_1_accessor.html#ac3e8738c7d3eade46ebaa72388dcea36" target="_top" xlink:title=" ">
<polygon fill="none" stroke="black" points="222,-202 222,-232 364,-232 364,-202 222,-202"/>
<text text-anchor="start" x="230" y="-220" font-family="Helvetica,sans-Serif" font-size="10.00">wmtk::attribute::Accessor</text>
<text text-anchor="middle" x="293" y="-209" font-family="Helvetica,sans-Serif" font-size="10.00">::scalar_attribute</text>
</a>
</g>
</g>
<!-- Node1&#45;&gt;Node38 -->
<g id="edge50" class="edge">
<title>Node1&#45;&gt;Node38</title>
<path fill="none" stroke="midnightblue" d="M86.61,-569.73C89.58,-516.31 106.86,-335.96 206,-242 208.17,-239.94 210.5,-238.06 212.95,-236.32"/>
<polygon fill="midnightblue" stroke="midnightblue" points="214.97,-239.19 221.7,-231 211.34,-233.21 214.97,-239.19"/>
</g>
<!-- Node39 -->
<g id="node39" class="node">
<title>Node39</title>
<g id="a_node39"><a xlink:href="classwmtk_1_1operations_1_1_edge_collapse.html#a9fee9bff38940d22e86725aa39f5304a" target="_top" xlink:title=" ">
<polygon fill="none" stroke="black" points="206,-581 206,-611 380,-611 380,-581 206,-581"/>
<text text-anchor="start" x="214" y="-599" font-family="Helvetica,sans-Serif" font-size="10.00">wmtk::operations::EdgeCollapse</text>
<text text-anchor="middle" x="293" y="-588" font-family="Helvetica,sans-Serif" font-size="10.00">::set_new_attribute_strategy</text>
</a>
</g>
</g>
<!-- Node1&#45;&gt;Node39 -->
<g id="edge51" class="edge">
<title>Node1&#45;&gt;Node39</title>
<path fill="none" stroke="midnightblue" d="M170.09,-589.49C178.56,-589.94 187.21,-590.4 195.8,-590.86"/>
<polygon fill="midnightblue" stroke="midnightblue" points="195.67,-594.36 205.84,-591.4 196.04,-587.37 195.67,-594.36"/>
</g>
<!-- Node42 -->
<g id="node42" class="node">
<title>Node42</title>
<g id="a_node42"><a xlink:href="classwmtk_1_1operations_1_1_edge_split.html#ae0a8318865da32ee77c8ce98158b48e8" target="_top" xlink:title=" ">
<polygon fill="none" stroke="black" points="215,-153 215,-183 371,-183 371,-153 215,-153"/>
<text text-anchor="start" x="223" y="-171" font-family="Helvetica,sans-Serif" font-size="10.00">wmtk::operations::EdgeSplit</text>
<text text-anchor="middle" x="293" y="-160" font-family="Helvetica,sans-Serif" font-size="10.00">::set_new_attribute_strategy</text>
</a>
</g>
</g>
<!-- Node1&#45;&gt;Node42 -->
<g id="edge55" class="edge">
<title>Node1&#45;&gt;Node42</title>
<path fill="none" stroke="midnightblue" d="M85.84,-569.66C86.1,-511.51 95.01,-302.43 206,-193 207.45,-191.57 208.98,-190.22 210.58,-188.94"/>
<polygon fill="midnightblue" stroke="midnightblue" points="212.75,-191.7 219.05,-183.18 208.81,-185.91 212.75,-191.7"/>
</g>
<!-- Node43 -->
<g id="node43" class="node">
<title>Node43</title>
<g id="a_node43"><a xlink:href="classwmtk_1_1operations_1_1composite_1_1_tri_face_split.html#a519414e911cbb2f2c0fa1c67c6ac61aa" target="_top" xlink:title=" ">
<polygon fill="none" stroke="black" points="213.5,-104 213.5,-134 372.5,-134 372.5,-104 213.5,-104"/>
<text text-anchor="start" x="221.5" y="-122" font-family="Helvetica,sans-Serif" font-size="10.00">wmtk::operations::composite</text>
<text text-anchor="middle" x="293" y="-111" font-family="Helvetica,sans-Serif" font-size="10.00">::TriFaceSplit::split</text>
</a>
</g>
</g>
<!-- Node1&#45;&gt;Node43 -->
<g id="edge56" class="edge">
<title>Node1&#45;&gt;Node43</title>
<path fill="none" stroke="midnightblue" d="M88.1,-569.97C98.15,-500.08 143.43,-207.66 206,-144 207.43,-142.54 208.94,-141.17 210.52,-139.88"/>
<polygon fill="midnightblue" stroke="midnightblue" points="212.7,-142.63 218.91,-134.05 208.7,-136.88 212.7,-142.63"/>
</g>
<!-- Node3 -->
<g id="node3" class="node">
<title>Node3</title>
<g id="a_node3"><a xlink:href="classwmtk_1_1invariants_1_1_invariant_collection.html#a17c51789c88fea75126d3d35ac1421ab" target="_top" xlink:title=" ">
<polygon fill="none" stroke="black" points="428,-1144 428,-1174 577,-1174 577,-1144 428,-1144"/>
<text text-anchor="start" x="436" y="-1162" font-family="Helvetica,sans-Serif" font-size="10.00">wmtk::invariants::Invariant</text>
<text text-anchor="middle" x="502.5" y="-1151" font-family="Helvetica,sans-Serif" font-size="10.00">Collection::add</text>
</a>
</g>
</g>
<!-- Node2&#45;&gt;Node3 -->
<g id="edge2" class="edge">
<title>Node2&#45;&gt;Node3</title>
<path fill="none" stroke="midnightblue" d="M368.33,-1132.04C384.31,-1135.28 401.31,-1138.72 417.63,-1142.02"/>
<polygon fill="midnightblue" stroke="midnightblue" points="417.2,-1145.51 427.69,-1144.06 418.59,-1138.65 417.2,-1145.51"/>
</g>
<!-- Node7&#45;&gt;Node6 -->
<g id="edge18" class="edge">
<title>Node7&#45;&gt;Node6</title>
<path fill="none" stroke="midnightblue" d="M361.11,-864.05C368.25,-867.94 374.79,-872.84 380,-879 441.69,-951.99 352.08,-1019.95 416,-1091 420.57,-1096.08 426.13,-1100.12 432.18,-1103.33"/>
<polygon fill="midnightblue" stroke="midnightblue" points="430.81,-1106.55 441.37,-1107.46 433.68,-1100.17 430.81,-1106.55"/>
</g>
<!-- Node8 -->
<g id="node8" class="node">
<title>Node8</title>
<g id="a_node8"><a xlink:href="namespacewmtk_1_1simplex.html#a71a3f68cd8c07a8b71f16701238253f1" target="_top" xlink:title=" ">
<polygon fill="none" stroke="black" points="440,-959.5 440,-978.5 565,-978.5 565,-959.5 440,-959.5"/>
<text text-anchor="middle" x="502.5" y="-966.5" font-family="Helvetica,sans-Serif" font-size="10.00">wmtk::simplex::edges</text>
</a>
</g>
</g>
<!-- Node7&#45;&gt;Node8 -->
<g id="edge7" class="edge">
<title>Node7&#45;&gt;Node8</title>
<path fill="none" stroke="midnightblue" d="M345.55,-864.14C357.17,-868.32 369.24,-873.31 380,-879 390.66,-884.64 448.6,-928.54 480.46,-952.88"/>
<polygon fill="midnightblue" stroke="midnightblue" points="478.63,-955.88 488.7,-959.18 482.88,-950.32 478.63,-955.88"/>
</g>
<!-- Node9 -->
<g id="node9" class="node">
<title>Node9</title>
<g id="a_node9"><a xlink:href="classwmtk_1_1simplex_1_1_simplex.html#ad2cc0340a0772b7d6f03ba7a781d1163" target="_top" xlink:title=" ">
<polygon fill="none" stroke="black" points="1055,-1046 1055,-1076 1190,-1076 1190,-1046 1055,-1046"/>
<text text-anchor="start" x="1063" y="-1064" font-family="Helvetica,sans-Serif" font-size="10.00">wmtk::simplex::Simplex</text>
<text text-anchor="middle" x="1122.5" y="-1053" font-family="Helvetica,sans-Serif" font-size="10.00">::primitive_type</text>
</a>
</g>
</g>
<!-- Node7&#45;&gt;Node9 -->
<g id="edge19" class="edge">
<title>Node7&#45;&gt;Node9</title>
<path fill="none" stroke="midnightblue" d="M364.81,-859.6C370.36,-862.36 375.53,-865.78 380,-870 419.85,-907.66 376.06,-950.43 416,-988 558.92,-1122.42 653.42,-1058.38 849,-1074 924.32,-1080.01 943.59,-1078.76 1019,-1074 1027.36,-1073.47 1036.09,-1072.7 1044.76,-1071.8"/>
<polygon fill="midnightblue" stroke="midnightblue" points="1045.34,-1075.26 1054.9,-1070.68 1044.58,-1068.3 1045.34,-1075.26"/>
</g>
<!-- Node7&#45;&gt;Node15 -->
<g id="edge20" class="edge">
<title>Node7&#45;&gt;Node15</title>
<path fill="none" stroke="midnightblue" d="M364.52,-843.81C479.94,-835.32 709.28,-818.46 838.6,-808.94"/>
<polygon fill="midnightblue" stroke="midnightblue" points="839.17,-812.41 848.88,-808.19 838.65,-805.43 839.17,-812.41"/>
</g>
<!-- Node16 -->
<g id="node16" class="node">
<title>Node16</title>
<g id="a_node16"><a xlink:href="namespacewmtk_1_1simplex.html#a1942aba1c5db8f987a1b1535b64b3455" target="_top" xlink:title=" ">
<polygon fill="none" stroke="black" points="435.5,-874.5 435.5,-893.5 569.5,-893.5 569.5,-874.5 435.5,-874.5"/>
<text text-anchor="middle" x="502.5" y="-881.5" font-family="Helvetica,sans-Serif" font-size="10.00">wmtk::simplex::vertices</text>
</a>
</g>
</g>
<!-- Node7&#45;&gt;Node16 -->
<g id="edge21" class="edge">
<title>Node7&#45;&gt;Node16</title>
<path fill="none" stroke="midnightblue" d="M364.54,-860.9C387.26,-864.73 412.36,-868.96 434.79,-872.75"/>
<polygon fill="midnightblue" stroke="midnightblue" points="434.45,-876.24 444.89,-874.45 435.62,-869.34 434.45,-876.24"/>
</g>
<!-- Node8&#45;&gt;Node9 -->
<g id="edge8" class="edge">
<title>Node8&#45;&gt;Node9</title>
<path fill="none" stroke="midnightblue" d="M540.71,-978.54C564.75,-984.7 596.72,-992.86 625,-1000 724.5,-1025.13 747.27,-1042.53 849,-1056 914.55,-1064.68 989.74,-1065.37 1044.5,-1064.21"/>
<polygon fill="midnightblue" stroke="midnightblue" points="1044.92,-1067.71 1054.83,-1063.97 1044.75,-1060.71 1044.92,-1067.71"/>
</g>
<!-- Node10 -->
<g id="node10" class="node">
<title>Node10</title>
<g id="a_node10"><a xlink:href="classwmtk_1_1_mesh.html#a7f8a7b7d592fdbf672f2c6c9653487ea" target="_top" xlink:title=" ">
<polygon fill="none" stroke="black" points="662,-913 662,-943 776,-943 776,-913 662,-913"/>
<text text-anchor="start" x="670" y="-931" font-family="Helvetica,sans-Serif" font-size="10.00">wmtk::Mesh::switch</text>
<text text-anchor="middle" x="719" y="-920" font-family="Helvetica,sans-Serif" font-size="10.00">_tuples</text>
</a>
</g>
</g>
<!-- Node8&#45;&gt;Node10 -->
<g id="edge9" class="edge">
<title>Node8&#45;&gt;Node10</title>
<path fill="none" stroke="midnightblue" d="M553.25,-959.49C582.51,-953.9 619.87,-946.76 651.62,-940.69"/>
<polygon fill="midnightblue" stroke="midnightblue" points="652.55,-944.07 661.71,-938.76 651.23,-937.2 652.55,-944.07"/>
</g>
<!-- Node12 -->
<g id="node12" class="node">
<title>Node12</title>
<g id="a_node12"><a xlink:href="classwmtk_1_1simplex_1_1_simplex.html#a3650fd31ff1864285502dba66db3c73c" target="_top" xlink:title=" ">
<polygon fill="none" stroke="black" points="1055,-951 1055,-981 1190,-981 1190,-951 1055,-951"/>
<text text-anchor="start" x="1063" y="-969" font-family="Helvetica,sans-Serif" font-size="10.00">wmtk::simplex::Simplex</text>
<text text-anchor="middle" x="1122.5" y="-958" font-family="Helvetica,sans-Serif" font-size="10.00">::tuple</text>
</a>
</g>
</g>
<!-- Node8&#45;&gt;Node12 -->
<g id="edge17" class="edge">
<title>Node8&#45;&gt;Node12</title>
<path fill="none" stroke="midnightblue" d="M565.15,-975.78C661.99,-985.34 855.61,-1000.02 1019,-985 1027.36,-984.23 1036.05,-983.12 1044.68,-981.81"/>
<polygon fill="midnightblue" stroke="midnightblue" points="1045.44,-985.23 1054.76,-980.2 1044.33,-978.32 1045.44,-985.23"/>
</g>
<!-- Node11 -->
<g id="node11" class="node">
<title>Node11</title>
<g id="a_node11"><a xlink:href="classwmtk_1_1_mesh.html#a58bdbbfa0cd7bd9263241f6501db182a" target="_top" xlink:title="check if a simplex lies on a boundary or not">
<polygon fill="none" stroke="black" points="863,-956.5 863,-975.5 1005,-975.5 1005,-956.5 863,-956.5"/>
<text text-anchor="middle" x="934" y="-963.5" font-family="Helvetica,sans-Serif" font-size="10.00">wmtk::Mesh::is_boundary</text>
</a>
</g>
</g>
<!-- Node10&#45;&gt;Node11 -->
<g id="edge10" class="edge">
<title>Node10&#45;&gt;Node11</title>
<path fill="none" stroke="midnightblue" d="M776.24,-938.03C805.03,-943.17 840.18,-949.44 869.9,-954.74"/>
<polygon fill="midnightblue" stroke="midnightblue" points="869.29,-958.19 879.75,-956.5 870.52,-951.3 869.29,-958.19"/>
</g>
<!-- Node13 -->
<g id="node13" class="node">
<title>Node13</title>
<g id="a_node13"><a xlink:href="classwmtk_1_1_mesh.html#a965a8a24158c4aa8580c57ba09f885f7" target="_top" xlink:title="switch the orientation of the Tuple of the given dimension">
<polygon fill="none" stroke="black" points="877,-869 877,-899 991,-899 991,-869 877,-869"/>
<text text-anchor="start" x="885" y="-887" font-family="Helvetica,sans-Serif" font-size="10.00">wmtk::Mesh::switch</text>
<text text-anchor="middle" x="934" y="-876" font-family="Helvetica,sans-Serif" font-size="10.00">_tuple</text>
</a>
</g>
</g>
<!-- Node10&#45;&gt;Node13 -->
<g id="edge13" class="edge">
<title>Node10&#45;&gt;Node13</title>
<path fill="none" stroke="midnightblue" d="M776.24,-916.38C804.03,-910.64 837.73,-903.68 866.76,-897.68"/>
<polygon fill="midnightblue" stroke="midnightblue" points="867.73,-901.06 876.81,-895.61 866.31,-894.2 867.73,-901.06"/>
</g>
<!-- Node10&#45;&gt;Node14 -->
<g id="edge14" class="edge">
<title>Node10&#45;&gt;Node14</title>
<path fill="none" stroke="midnightblue" d="M776.13,-936.13C838.54,-942.59 940.82,-945.34 1019,-909 1057.81,-890.96 1089.47,-851.17 1106.88,-825.52"/>
<polygon fill="midnightblue" stroke="midnightblue" points="1109.85,-827.38 1112.43,-817.1 1104.01,-823.52 1109.85,-827.38"/>
</g>
<!-- Node10&#45;&gt;Node15 -->
<g id="edge15" class="edge">
<title>Node10&#45;&gt;Node15</title>
<path fill="none" stroke="midnightblue" d="M745.69,-912.8C786.96,-888.39 867.49,-840.75 908.19,-816.68"/>
<polygon fill="midnightblue" stroke="midnightblue" points="910.11,-819.61 916.94,-811.5 906.55,-813.58 910.11,-819.61"/>
</g>
<!-- Node11&#45;&gt;Node9 -->
<g id="edge11" class="edge">
<title>Node11&#45;&gt;Node9</title>
<path fill="none" stroke="midnightblue" d="M953.91,-975.63C984,-990.96 1043.4,-1021.22 1082.79,-1041.28"/>
<polygon fill="midnightblue" stroke="midnightblue" points="1081.35,-1044.48 1091.85,-1045.9 1084.53,-1038.24 1081.35,-1044.48"/>
</g>
<!-- Node11&#45;&gt;Node12 -->
<g id="edge12" class="edge">
<title>Node11&#45;&gt;Node12</title>
<path fill="none" stroke="midnightblue" d="M1005.24,-966C1018.03,-966 1031.44,-966 1044.42,-966"/>
<polygon fill="midnightblue" stroke="midnightblue" points="1044.71,-969.5 1054.71,-966 1044.71,-962.5 1044.71,-969.5"/>
</g>
<!-- Node15&#45;&gt;Node14 -->
<g id="edge16" class="edge">
<title>Node15&#45;&gt;Node14</title>
<path fill="none" stroke="midnightblue" d="M1019.25,-802C1030.15,-802 1041.21,-802 1051.84,-802"/>
<polygon fill="midnightblue" stroke="midnightblue" points="1051.88,-805.5 1061.88,-802 1051.88,-798.5 1051.88,-805.5"/>
</g>
<!-- Node16&#45;&gt;Node9 -->
<g id="edge22" class="edge">
<title>Node16&#45;&gt;Node9</title>
<path fill="none" stroke="midnightblue" d="M517.03,-893.52C538.78,-908.38 583.31,-937.05 625,-953 644.64,-960.51 910.61,-1016.78 1044.96,-1044.98"/>
<polygon fill="midnightblue" stroke="midnightblue" points="1044.28,-1048.42 1054.79,-1047.05 1045.72,-1041.57 1044.28,-1048.42"/>
</g>
<!-- Node16&#45;&gt;Node10 -->
<g id="edge24" class="edge">
<title>Node16&#45;&gt;Node10</title>
<path fill="none" stroke="midnightblue" d="M550.04,-893.55C579.75,-899.64 618.71,-907.63 651.63,-914.39"/>
<polygon fill="midnightblue" stroke="midnightblue" points="651.14,-917.86 661.64,-916.44 652.55,-911 651.14,-917.86"/>
</g>
<!-- Node16&#45;&gt;Node12 -->
<g id="edge25" class="edge">
<title>Node16&#45;&gt;Node12</title>
<path fill="none" stroke="midnightblue" d="M565.49,-874.49C684.2,-857.35 938.99,-826.07 1019,-860 1058.21,-876.63 1089.75,-916.42 1107.03,-942.24"/>
<polygon fill="midnightblue" stroke="midnightblue" points="1104.15,-944.24 1112.53,-950.73 1110.03,-940.43 1104.15,-944.24"/>
</g>
<!-- Node16&#45;&gt;Node13 -->
<g id="edge23" class="edge">
<title>Node16&#45;&gt;Node13</title>
<path fill="none" stroke="midnightblue" d="M569.67,-884C650.34,-884 785.88,-884 866.64,-884"/>
<polygon fill="midnightblue" stroke="midnightblue" points="866.69,-887.5 876.69,-884 866.69,-880.5 866.69,-887.5"/>
</g>
<!-- Node22 -->
<g id="node22" class="node">
<title>Node22</title>
<g id="a_node22"><a xlink:href="namespacewmtk.html#a6a35f11c12436093d26fdd8be6fecc06" target="_top" xlink:title="Retrieves the current logger.">
<polygon fill="none" stroke="black" points="678.5,-410.5 678.5,-429.5 759.5,-429.5 759.5,-410.5 678.5,-410.5"/>
<text text-anchor="middle" x="719" y="-417.5" font-family="Helvetica,sans-Serif" font-size="10.00">wmtk::logger</text>
</a>
</g>
</g>
<!-- Node21&#45;&gt;Node22 -->
<g id="edge31" class="edge">
<title>Node21&#45;&gt;Node22</title>
<path fill="none" stroke="midnightblue" d="M352.01,-682.01C415.22,-694.89 516.94,-705.17 589,-661 671.41,-610.49 704.34,-487.81 714.36,-439.76"/>
<polygon fill="midnightblue" stroke="midnightblue" points="717.84,-440.21 716.35,-429.72 710.98,-438.85 717.84,-440.21"/>
</g>
<!-- Node23 -->
<g id="node23" class="node">
<title>Node23</title>
<g id="a_node23"><a xlink:href="namespacewmtk.html#a3daa7951a5f8b78cf4600dc047fcc180" target="_top" xlink:title="Setup a logger object to be used by WildmeshToolkit.">
<polygon fill="none" stroke="black" points="883.5,-410.5 883.5,-429.5 984.5,-429.5 984.5,-410.5 883.5,-410.5"/>
<text text-anchor="middle" x="934" y="-417.5" font-family="Helvetica,sans-Serif" font-size="10.00">wmtk::set_logger</text>
</a>
</g>
</g>
<!-- Node22&#45;&gt;Node23 -->
<g id="edge32" class="edge">
<title>Node22&#45;&gt;Node23</title>
<path fill="none" stroke="midnightblue" d="M759.56,-420C791.32,-420 836.43,-420 872.68,-420"/>
<polygon fill="midnightblue" stroke="midnightblue" points="873.13,-423.5 883.13,-420 873.13,-416.5 873.13,-423.5"/>
</g>
<!-- Node25&#45;&gt;Node17 -->
<g id="edge36" class="edge">
<title>Node25&#45;&gt;Node17</title>
<path fill="none" stroke="midnightblue" d="M327.13,-477.02C351.37,-487.58 385.26,-501.48 416,-511 424.34,-513.58 433.23,-515.96 442.02,-518.1"/>
<polygon fill="midnightblue" stroke="midnightblue" points="441.32,-521.53 451.86,-520.41 442.92,-514.71 441.32,-521.53"/>
</g>
<!-- Node25&#45;&gt;Node22 -->
<g id="edge41" class="edge">
<title>Node25&#45;&gt;Node22</title>
<path fill="none" stroke="midnightblue" d="M353.26,-455.09C363.38,-451.43 372.9,-446 380,-438 449.56,-359.64 336.45,-273.2 416,-205 474.37,-154.95 522.09,-167.12 589,-205 665.13,-248.1 701.23,-356.03 713.23,-400.44"/>
<polygon fill="midnightblue" stroke="midnightblue" points="709.89,-401.48 715.78,-410.29 716.66,-399.73 709.89,-401.48"/>
</g>
<!-- Node26 -->
<g id="node26" class="node">
<title>Node26</title>
<g id="a_node26"><a xlink:href="classwmtk_1_1_scheduler_stats.html#a4af2233b8bafa0ee528cbef4de10fa1d" target="_top" xlink:title=" ">
<polygon fill="none" stroke="black" points="441,-77 441,-107 564,-107 564,-77 441,-77"/>
<text text-anchor="start" x="449" y="-95" font-family="Helvetica,sans-Serif" font-size="10.00">wmtk::SchedulerStats</text>
<text text-anchor="middle" x="502.5" y="-84" font-family="Helvetica,sans-Serif" font-size="10.00">::fail</text>
</a>
</g>
</g>
<!-- Node25&#45;&gt;Node26 -->
<g id="edge35" class="edge">
<title>Node25&#45;&gt;Node26</title>
<path fill="none" stroke="midnightblue" d="M353.09,-455.49C363.35,-451.8 372.97,-446.26 380,-438 473.05,-328.68 323.62,-226.89 416,-117 420.41,-111.75 425.86,-107.57 431.86,-104.24"/>
<polygon fill="midnightblue" stroke="midnightblue" points="433.41,-107.38 440.97,-99.96 430.43,-101.05 433.41,-107.38"/>
</g>
<!-- Node27 -->
<g id="node27" class="node">
<title>Node27</title>
<g id="a_node27"><a xlink:href="namespacewmtk_1_1utils.html#a3c36f4ea039196043ac93202181d91e1" target="_top" xlink:title=" ">
<polygon fill="none" stroke="black" points="420.5,-38.5 420.5,-57.5 584.5,-57.5 584.5,-38.5 420.5,-38.5"/>
<text text-anchor="middle" x="502.5" y="-45.5" font-family="Helvetica,sans-Serif" font-size="10.00">wmtk::utils::get_random_seed</text>
</a>
</g>
</g>
<!-- Node25&#45;&gt;Node27 -->
<g id="edge37" class="edge">
<title>Node25&#45;&gt;Node27</title>
<path fill="none" stroke="midnightblue" d="M353.18,-455.57C363.44,-451.88 373.03,-446.31 380,-438 433.08,-374.7 361.59,-130.16 416,-68 417.39,-66.41 418.89,-64.93 420.46,-63.56"/>
<polygon fill="midnightblue" stroke="midnightblue" points="422.84,-66.17 429,-57.55 418.81,-60.45 422.84,-66.17"/>
</g>
<!-- Node30 -->
<g id="node30" class="node">
<title>Node30</title>
<g id="a_node30"><a xlink:href="classwmtk_1_1_scheduler.html#a08fdc5c05cb68c76ea49e5c56fe07bc2" target="_top" xlink:title=" ">
<polygon fill="none" stroke="black" points="443,-0.5 443,-19.5 562,-19.5 562,-0.5 443,-0.5"/>
<text text-anchor="middle" x="502.5" y="-7.5" font-family="Helvetica,sans-Serif" font-size="10.00">wmtk::Scheduler::log</text>
</a>
</g>
</g>
<!-- Node25&#45;&gt;Node30 -->
<g id="edge40" class="edge">
<title>Node25&#45;&gt;Node30</title>
<path fill="none" stroke="midnightblue" d="M353.25,-455.62C363.49,-451.92 373.07,-446.35 380,-438 438.3,-367.82 355.84,-97.6 416,-29 420.72,-23.62 426.58,-19.58 433.02,-16.56"/>
<polygon fill="midnightblue" stroke="midnightblue" points="434.7,-19.67 442.8,-12.84 432.21,-13.13 434.7,-19.67"/>
</g>
<!-- Node31 -->
<g id="node31" class="node">
<title>Node31</title>
<g id="a_node31"><a xlink:href="classwmtk_1_1operations_1_1_operation.html#a524a78a76bb262cffcaafdd36afa037b" target="_top" xlink:title=" ">
<polygon fill="none" stroke="black" points="424.5,-471 424.5,-501 580.5,-501 580.5,-471 424.5,-471"/>
<text text-anchor="start" x="432.5" y="-489" font-family="Helvetica,sans-Serif" font-size="10.00">wmtk::operations::Operation</text>
<text text-anchor="middle" x="502.5" y="-478" font-family="Helvetica,sans-Serif" font-size="10.00">::mesh</text>
</a>
</g>
</g>
<!-- Node25&#45;&gt;Node31 -->
<g id="edge42" class="edge">
<title>Node25&#45;&gt;Node31</title>
<path fill="none" stroke="midnightblue" d="M353.18,-468.85C372.23,-471.05 393.75,-473.54 414.36,-475.92"/>
<polygon fill="midnightblue" stroke="midnightblue" points="414.06,-479.41 424.4,-477.08 414.87,-472.46 414.06,-479.41"/>
</g>
<!-- Node32 -->
<g id="node32" class="node">
<title>Node32</title>
<g id="a_node32"><a xlink:href="classwmtk_1_1operations_1_1_operation.html#a55110365dd31bcf41716087c9df8c57d" target="_top" xlink:title=" ">
<polygon fill="none" stroke="black" points="424.5,-422 424.5,-452 580.5,-452 580.5,-422 424.5,-422"/>
<text text-anchor="start" x="432.5" y="-440" font-family="Helvetica,sans-Serif" font-size="10.00">wmtk::operations::Operation</text>
<text text-anchor="middle" x="502.5" y="-429" font-family="Helvetica,sans-Serif" font-size="10.00">::primitive_type</text>
</a>
</g>
</g>
<!-- Node25&#45;&gt;Node32 -->
<g id="edge43" class="edge">
<title>Node25&#45;&gt;Node32</title>
<path fill="none" stroke="midnightblue" d="M353.18,-454.87C372.23,-452.57 393.75,-449.98 414.36,-447.5"/>
<polygon fill="midnightblue" stroke="midnightblue" points="414.89,-450.96 424.4,-446.29 414.05,-444.01 414.89,-450.96"/>
</g>
<!-- Node33 -->
<g id="node33" class="node">
<title>Node33</title>
<g id="a_node33"><a xlink:href="classwmtk_1_1_scheduler_stats.html#af4b4bf1f4201cce63753908178a40498" target="_top" xlink:title=" ">
<polygon fill="none" stroke="black" points="441,-126 441,-156 564,-156 564,-126 441,-126"/>
<text text-anchor="start" x="449" y="-144" font-family="Helvetica,sans-Serif" font-size="10.00">wmtk::SchedulerStats</text>
<text text-anchor="middle" x="502.5" y="-133" font-family="Helvetica,sans-Serif" font-size="10.00">::print_update_log</text>
</a>
</g>
</g>
<!-- Node25&#45;&gt;Node33 -->
<g id="edge44" class="edge">
<title>Node25&#45;&gt;Node33</title>
<path fill="none" stroke="midnightblue" d="M353.38,-455.2C363.49,-451.53 372.98,-446.07 380,-438 458.62,-347.69 340.37,-263.83 416,-171 420.41,-165.59 425.85,-161.16 431.84,-157.52"/>
<polygon fill="midnightblue" stroke="midnightblue" points="433.72,-160.49 440.96,-152.74 430.47,-154.29 433.72,-160.49"/>
</g>
<!-- Node34 -->
<g id="node34" class="node">
<title>Node34</title>
<g id="a_node34"><a xlink:href="classwmtk_1_1operations_1_1_operation.html#a872859aa53451b747c012c161b27ab5d" target="_top" xlink:title=" ">
<polygon fill="none" stroke="black" points="424.5,-373 424.5,-403 580.5,-403 580.5,-373 424.5,-373"/>
<text text-anchor="start" x="432.5" y="-391" font-family="Helvetica,sans-Serif" font-size="10.00">wmtk::operations::Operation</text>
<text text-anchor="middle" x="502.5" y="-380" font-family="Helvetica,sans-Serif" font-size="10.00">::priority</text>
</a>
</g>
</g>
<!-- Node25&#45;&gt;Node34 -->
<g id="edge46" class="edge">
<title>Node25&#45;&gt;Node34</title>
<path fill="none" stroke="midnightblue" d="M353.24,-448.3C362.39,-445.38 371.58,-441.96 380,-438 397.63,-429.71 398.42,-421.4 416,-413 420.88,-410.67 426.03,-408.5 431.28,-406.51"/>
<polygon fill="midnightblue" stroke="midnightblue" points="432.56,-409.77 440.79,-403.1 430.2,-403.18 432.56,-409.77"/>
</g>
<!-- Node35 -->
<g id="node35" class="node">
<title>Node35</title>
<g id="a_node35"><a xlink:href="classwmtk_1_1_scheduler_stats.html#a743d45b86c6ac7d696c26e2cad573ac9" target="_top" xlink:title=" ">
<polygon fill="none" stroke="black" points="441,-324 441,-354 564,-354 564,-324 441,-324"/>
<text text-anchor="start" x="449" y="-342" font-family="Helvetica,sans-Serif" font-size="10.00">wmtk::SchedulerStats</text>
<text text-anchor="middle" x="502.5" y="-331" font-family="Helvetica,sans-Serif" font-size="10.00">::succeed</text>
</a>
</g>
</g>
<!-- Node25&#45;&gt;Node35 -->
<g id="edge47" class="edge">
<title>Node25&#45;&gt;Node35</title>
<path fill="none" stroke="midnightblue" d="M353.26,-452.63C362.91,-449.18 372.26,-444.45 380,-438 408.09,-414.58 388.06,-387.6 416,-364 420.62,-360.1 425.82,-356.81 431.31,-354.03"/>
<polygon fill="midnightblue" stroke="midnightblue" points="433.08,-357.08 440.8,-349.82 430.24,-350.68 433.08,-357.08"/>
</g>
<!-- Node36 -->
<g id="node36" class="node">
<title>Node36</title>
<g id="a_node36"><a xlink:href="namespacewmtk_1_1simplex_1_1utils.html#a358c30268c189fc8f00538b520aab4f8" target="_top" xlink:title=" ">
<polygon fill="none" stroke="black" points="416,-263.5 416,-304.5 589,-304.5 589,-263.5 416,-263.5"/>
<text text-anchor="start" x="424" y="-292.5" font-family="Helvetica,sans-Serif" font-size="10.00">wmtk::simplex::utils</text>
<text text-anchor="start" x="424" y="-281.5" font-family="Helvetica,sans-Serif" font-size="10.00">::tuple_vector_to_homogeneous</text>
<text text-anchor="middle" x="502.5" y="-270.5" font-family="Helvetica,sans-Serif" font-size="10.00">_simplex_vector</text>
</a>
</g>
</g>
<!-- Node25&#45;&gt;Node36 -->
<g id="edge48" class="edge">
<title>Node25&#45;&gt;Node36</title>
<path fill="none" stroke="midnightblue" d="M353.33,-454C363.2,-450.42 372.61,-445.3 380,-438 420.53,-397.98 377.01,-356.53 416,-315 417.38,-313.53 418.83,-312.13 420.35,-310.8"/>
<polygon fill="midnightblue" stroke="midnightblue" points="422.57,-313.51 428.41,-304.67 418.33,-307.94 422.57,-313.51"/>
</g>
<!-- Node37 -->
<g id="node37" class="node">
<title>Node37</title>
<g id="a_node37"><a xlink:href="classwmtk_1_1operations_1_1_operation.html#ad40213d2f06b2568c2c6de742166b7f9" target="_top" xlink:title=" ">
<polygon fill="none" stroke="black" points="424.5,-214 424.5,-244 580.5,-244 580.5,-214 424.5,-214"/>
<text text-anchor="start" x="432.5" y="-232" font-family="Helvetica,sans-Serif" font-size="10.00">wmtk::operations::Operation</text>
<text text-anchor="middle" x="502.5" y="-221" font-family="Helvetica,sans-Serif" font-size="10.00">::use_random_priority</text>
</a>
</g>
</g>
<!-- Node25&#45;&gt;Node37 -->
<g id="edge49" class="edge">
<title>Node25&#45;&gt;Node37</title>
<path fill="none" stroke="midnightblue" d="M353.01,-454.87C363.15,-451.22 372.74,-445.86 380,-438 436.55,-376.8 359.83,-315.55 416,-254 417.22,-252.66 418.5,-251.4 419.85,-250.2"/>
<polygon fill="midnightblue" stroke="midnightblue" points="422.2,-252.82 428.12,-244.03 418.01,-247.2 422.2,-252.82"/>
</g>
<!-- Node28 -->
<g id="node28" class="node">
<title>Node28</title>
<g id="a_node28"><a xlink:href="classwmtk_1_1utils_1_1_random_seed_singleton.html#a228b21737dcd5423bac9d6900db8785e" target="_top" xlink:title=" ">
<polygon fill="none" stroke="black" points="625,-8 625,-38 813,-38 813,-8 625,-8"/>
<text text-anchor="start" x="633" y="-26" font-family="Helvetica,sans-Serif" font-size="10.00">wmtk::utils::RandomSeedSingleton</text>
<text text-anchor="middle" x="719" y="-15" font-family="Helvetica,sans-Serif" font-size="10.00">::get_seed</text>
</a>
</g>
</g>
<!-- Node27&#45;&gt;Node28 -->
<g id="edge38" class="edge">
<title>Node27&#45;&gt;Node28</title>
<path fill="none" stroke="midnightblue" d="M584.59,-38.55C594.47,-37.4 604.66,-36.21 614.81,-35.03"/>
<polygon fill="midnightblue" stroke="midnightblue" points="615.39,-38.48 624.92,-33.85 614.58,-31.53 615.39,-38.48"/>
</g>
<!-- Node29 -->
<g id="node29" class="node">
<title>Node29</title>
<g id="a_node29"><a xlink:href="classwmtk_1_1utils_1_1_random_seed_singleton.html#a0b3a080bdbf0de29e3e44aa7bea6f648" target="_top" xlink:title=" ">
<polygon fill="none" stroke="black" points="625,-57 625,-87 813,-87 813,-57 625,-57"/>
<text text-anchor="start" x="633" y="-75" font-family="Helvetica,sans-Serif" font-size="10.00">wmtk::utils::RandomSeedSingleton</text>
<text text-anchor="middle" x="719" y="-64" font-family="Helvetica,sans-Serif" font-size="10.00">::instance</text>
</a>
</g>
</g>
<!-- Node27&#45;&gt;Node29 -->
<g id="edge39" class="edge">
<title>Node27&#45;&gt;Node29</title>
<path fill="none" stroke="midnightblue" d="M584.59,-57.07C594.47,-58.18 604.66,-59.32 614.81,-60.45"/>
<polygon fill="midnightblue" stroke="midnightblue" points="614.59,-63.95 624.92,-61.59 615.37,-56.99 614.59,-63.95"/>
</g>
<!-- Node33&#45;&gt;Node22 -->
<g id="edge45" class="edge">
<title>Node33&#45;&gt;Node22</title>
<path fill="none" stroke="midnightblue" d="M564.14,-155.75C573.11,-159.71 581.75,-164.71 589,-171 663.53,-235.72 700.92,-354.11 713.25,-400.56"/>
<polygon fill="midnightblue" stroke="midnightblue" points="709.87,-401.46 715.74,-410.28 716.65,-399.72 709.87,-401.46"/>
</g>
<!-- Node39&#45;&gt;Node22 -->
<g id="edge53" class="edge">
<title>Node39&#45;&gt;Node22</title>
<path fill="none" stroke="midnightblue" d="M323.04,-611.19C378.64,-637.98 502.26,-686.35 589,-637 665.56,-593.45 701.41,-484.54 713.29,-439.73"/>
<polygon fill="midnightblue" stroke="midnightblue" points="716.75,-440.35 715.81,-429.8 709.96,-438.64 716.75,-440.35"/>
</g>
<!-- Node40 -->
<g id="node40" class="node">
<title>Node40</title>
<g id="a_node40"><a xlink:href="classwmtk_1_1_mesh.html#a531f0c59e0f2c07910ba3a31dd097764" target="_top" xlink:title=" ">
<polygon fill="none" stroke="black" points="444.5,-608.5 444.5,-627.5 560.5,-627.5 560.5,-608.5 444.5,-608.5"/>
<text text-anchor="middle" x="502.5" y="-615.5" font-family="Helvetica,sans-Serif" font-size="10.00">wmtk::Mesh::is_free</text>
</a>
</g>
</g>
<!-- Node39&#45;&gt;Node40 -->
<g id="edge52" class="edge">
<title>Node39&#45;&gt;Node40</title>
<path fill="none" stroke="midnightblue" d="M380.2,-605.14C398.25,-607.05 417.04,-609.05 434.29,-610.87"/>
<polygon fill="midnightblue" stroke="midnightblue" points="433.93,-614.36 444.24,-611.93 434.67,-607.39 433.93,-614.36"/>
</g>
<!-- Node41 -->
<g id="node41" class="node">
<title>Node41</title>
<g id="a_node41"><a xlink:href="classwmtk_1_1attribute_1_1_mesh_attribute_handle.html#a620620d54776b2c5f4f9cebad465cfa7" target="_top" xlink:title=" ">
<polygon fill="none" stroke="black" points="419,-559 419,-589 586,-589 586,-559 419,-559"/>
<text text-anchor="start" x="427" y="-577" font-family="Helvetica,sans-Serif" font-size="10.00">wmtk::attribute::MeshAttribute</text>
<text text-anchor="middle" x="502.5" y="-566" font-family="Helvetica,sans-Serif" font-size="10.00">Handle::mesh</text>
</a>
</g>
</g>
<!-- Node39&#45;&gt;Node41 -->
<g id="edge54" class="edge">
<title>Node39&#45;&gt;Node41</title>
<path fill="none" stroke="midnightblue" d="M380.2,-586.86C389.6,-585.86 399.2,-584.85 408.68,-583.84"/>
<polygon fill="midnightblue" stroke="midnightblue" points="409.33,-587.29 418.9,-582.76 408.59,-580.33 409.33,-587.29"/>
</g>
</g>
</svg>
