<?xml version="1.0" encoding="UTF-8" standalone="no"?>
<!DOCTYPE svg PUBLIC "-//W3C//DTD SVG 1.1//EN"
 "http://www.w3.org/Graphics/SVG/1.1/DTD/svg11.dtd">
<!-- Generated by graphviz version 2.43.0 (0)
 -->
<!-- Title: wmtk::MultiMeshManager::map_tuples Pages: 1 -->
<!--zoomable 267 -->
<svg id="main" version="1.1" xmlns="http://www.w3.org/2000/svg" xmlns:xlink="http://www.w3.org/1999/xlink" xml:space="preserve" onload="init(evt)">
<style type="text/css"><![CDATA[
.edge:hover path { stroke: red; }
.edge:hover polygon { stroke: red; fill: red; }
]]></style>
<script type="text/javascript"><![CDATA[
var edges = document.getElementsByTagName('g');
if (edges && edges.length) {
  for (var i=0;i<edges.length;i++) {
    if (edges[i].id.substr(0,4)=='edge') {
      edges[i].setAttribute('class','edge');
    }
  }
}
]]></script>
        <defs>
                <circle id="rim" cx="0" cy="0" r="7"/>
                <circle id="rim2" cx="0" cy="0" r="3.5"/>
                <g id="zoomPlus">
                        <use xlink:href="#rim" fill="#404040">
                                <set attributeName="fill" to="#808080" begin="zoomplus.mouseover" end="zoomplus.mouseout"/>
                        </use>
                        <path d="M-4,0h8M0,-4v8" fill="none" stroke="white" stroke-width="1.5" pointer-events="none"/>
                </g>
                <g id="zoomMin">
                        <use xlink:href="#rim" fill="#404040">
                                <set attributeName="fill" to="#808080" begin="zoomminus.mouseover" end="zoomminus.mouseout"/>
                        </use>
                        <path d="M-4,0h8" fill="none" stroke="white" stroke-width="1.5" pointer-events="none"/>
                </g>
                <g id="dirArrow">
                        <path fill="none" stroke="white" stroke-width="1.5" d="M0,-3.0v7 M-2.5,-0.5L0,-3.0L2.5,-0.5"/>
                </g>
               <g id="resetDef">
                       <use xlink:href="#rim2" fill="#404040">
                               <set attributeName="fill" to="#808080" begin="reset.mouseover" end="reset.mouseout"/>
                       </use>
               </g>
        </defs>

<script type="text/javascript">
var viewWidth = 1246;
var viewHeight = 267;
var sectionId = 'dynsection-66';
</script>
<script xlink:href="svgpan.js"/>
<svg id="graph" class="graph">
<g id="viewport">
<title>wmtk::MultiMeshManager::map_tuples</title>
<!-- Node1 -->
<g id="node1" class="node">
<title>Node1</title>
<g id="a_node1"><a xlink:title="maps a simplex from this mesh to any other mesh">
<polygon fill="#bfbfbf" stroke="black" points="1094,-96.5 1094,-126.5 1238,-126.5 1238,-96.5 1094,-96.5"/>
<text text-anchor="start" x="1102" y="-114.5" font-family="Helvetica,sans-Serif" font-size="10.00">wmtk::MultiMeshManager</text>
<text text-anchor="middle" x="1166" y="-103.5" font-family="Helvetica,sans-Serif" font-size="10.00">::map_tuples</text>
</a>
</g>
</g>
<!-- Node2 -->
<g id="node2" class="node">
<title>Node2</title>
<g id="a_node2"><a xlink:href="classwmtk_1_1_multi_mesh_manager.html#ae76aeebb931d918c2fed74a94af892e8" target="_top" xlink:title="maps a simplex from this mesh to any other mesh">
<polygon fill="none" stroke="black" points="886,-135 886,-154 1058,-154 1058,-135 886,-135"/>
<text text-anchor="middle" x="972" y="-142" font-family="Helvetica,sans-Serif" font-size="10.00">wmtk::MultiMeshManager::map</text>
</a>
</g>
</g>
<!-- Node1&#45;&gt;Node2 -->
<g id="edge1" class="edge">
<title>Node1&#45;&gt;Node2</title>
<path fill="none" stroke="midnightblue" d="M1083.82,-125.45C1065.18,-128.66 1045.77,-131.99 1028.51,-134.96"/>
<polygon fill="midnightblue" stroke="midnightblue" points="1084.52,-128.88 1093.78,-123.74 1083.33,-121.99 1084.52,-128.88"/>
</g>
<!-- Node9 -->
<g id="node9" class="node">
<title>Node9</title>
<g id="a_node9"><a xlink:href="classwmtk_1_1_mesh.html#a82637d24776e0e06e2124ce914c4b40f" target="_top" xlink:title="maps a simplex from this mesh to any other mesh">
<polygon fill="none" stroke="black" points="902,-83 902,-102 1042,-102 1042,-83 902,-83"/>
<text text-anchor="middle" x="972" y="-90" font-family="Helvetica,sans-Serif" font-size="10.00">wmtk::Mesh::map_tuples</text>
</a>
</g>
</g>
<!-- Node1&#45;&gt;Node9 -->
<g id="edge9" class="edge">
<title>Node1&#45;&gt;Node9</title>
<path fill="none" stroke="midnightblue" d="M1083.79,-103.46C1069.95,-102.09 1055.68,-100.68 1042.19,-99.35"/>
<polygon fill="midnightblue" stroke="midnightblue" points="1083.48,-106.95 1093.78,-104.45 1084.17,-99.98 1083.48,-106.95"/>
</g>
<!-- Node3 -->
<g id="node3" class="node">
<title>Node3</title>
<g id="a_node3"><a xlink:href="classwmtk_1_1_mesh.html#abe23d31a7ad54af38da1bf7b6e232cab" target="_top" xlink:title="maps a simplex from this mesh to any other mesh">
<polygon fill="none" stroke="black" points="726.5,-162 726.5,-181 830.5,-181 830.5,-162 726.5,-162"/>
<text text-anchor="middle" x="778.5" y="-169" font-family="Helvetica,sans-Serif" font-size="10.00">wmtk::Mesh::map</text>
</a>
</g>
</g>
<!-- Node2&#45;&gt;Node3 -->
<g id="edge2" class="edge">
<title>Node2&#45;&gt;Node3</title>
<path fill="none" stroke="midnightblue" d="M893.55,-155.42C872.41,-158.4 850.04,-161.55 830.76,-164.27"/>
<polygon fill="midnightblue" stroke="midnightblue" points="894.07,-158.88 903.48,-154.02 893.09,-151.95 894.07,-158.88"/>
</g>
<!-- Node4 -->
<g id="node4" class="node">
<title>Node4</title>
<g id="a_node4"><a xlink:href="classwmtk_1_1operations_1_1_operation.html#ae802270b57ba3fe8ed2345b5777f46af" target="_top" xlink:title=" ">
<polygon fill="none" stroke="black" points="303.5,-228.5 303.5,-258.5 459.5,-258.5 459.5,-228.5 303.5,-228.5"/>
<text text-anchor="start" x="311.5" y="-246.5" font-family="Helvetica,sans-Serif" font-size="10.00">wmtk::operations::Operation</text>
<text text-anchor="middle" x="381.5" y="-235.5" font-family="Helvetica,sans-Serif" font-size="10.00">::before</text>
</a>
</g>
</g>
<!-- Node3&#45;&gt;Node4 -->
<g id="edge3" class="edge">
<title>Node3&#45;&gt;Node4</title>
<path fill="none" stroke="midnightblue" d="M753.09,-186.1C732.11,-197.87 700.63,-213.7 671,-221.5 601.05,-239.92 518.51,-244.58 459.68,-245.13"/>
<polygon fill="midnightblue" stroke="midnightblue" points="755.02,-189.03 761.95,-181.02 751.53,-182.96 755.02,-189.03"/>
</g>
<!-- Node6 -->
<g id="node6" class="node">
<title>Node6</title>
<g id="a_node6"><a xlink:href="classwmtk_1_1_invariant_collection.html#a71eda9d515a67a1944aa0ac3d80a81e6" target="_top" xlink:title=" ">
<polygon fill="none" stroke="black" points="514,-181.5 514,-211.5 657,-211.5 657,-181.5 514,-181.5"/>
<text text-anchor="start" x="522" y="-199.5" font-family="Helvetica,sans-Serif" font-size="10.00">wmtk::InvariantCollection</text>
<text text-anchor="middle" x="585.5" y="-188.5" font-family="Helvetica,sans-Serif" font-size="10.00">::directly_modified_after</text>
</a>
</g>
</g>
<!-- Node3&#45;&gt;Node6 -->
<g id="edge5" class="edge">
<title>Node3&#45;&gt;Node6</title>
<path fill="none" stroke="midnightblue" d="M716.38,-179.5C697.54,-181.97 676.64,-184.7 657.21,-187.24"/>
<polygon fill="midnightblue" stroke="midnightblue" points="716.85,-182.97 726.32,-178.2 715.95,-176.03 716.85,-182.97"/>
</g>
<!-- Node8 -->
<g id="node8" class="node">
<title>Node8</title>
<g id="a_node8"><a xlink:href="classwmtk_1_1_mesh.html#a8b63c6ed94b08ec217f7d2aa0b73d28a" target="_top" xlink:title=" ">
<polygon fill="none" stroke="black" points="533.5,-143 533.5,-162 637.5,-162 637.5,-143 533.5,-143"/>
<text text-anchor="middle" x="585.5" y="-150" font-family="Helvetica,sans-Serif" font-size="10.00">wmtk::Mesh::map</text>
</a>
</g>
</g>
<!-- Node3&#45;&gt;Node8 -->
<g id="edge8" class="edge">
<title>Node3&#45;&gt;Node8</title>
<path fill="none" stroke="midnightblue" d="M716.11,-165.39C690.85,-162.88 661.93,-160 637.83,-157.61"/>
<polygon fill="midnightblue" stroke="midnightblue" points="716.02,-168.9 726.32,-166.41 716.71,-161.94 716.02,-168.9"/>
</g>
<!-- Node5 -->
<g id="node5" class="node">
<title>Node5</title>
<g id="a_node5"><a xlink:href="classwmtk_1_1operations_1_1_operation.html#a9c6426d34b54642aacb28e7cf93e328f" target="_top" xlink:title=" ">
<polygon fill="none" stroke="black" points="107,-203.5 107,-233.5 263,-233.5 263,-203.5 107,-203.5"/>
<text text-anchor="start" x="115" y="-221.5" font-family="Helvetica,sans-Serif" font-size="10.00">wmtk::operations::Operation</text>
<text text-anchor="middle" x="185" y="-210.5" font-family="Helvetica,sans-Serif" font-size="10.00">::operator()</text>
</a>
</g>
</g>
<!-- Node4&#45;&gt;Node5 -->
<g id="edge4" class="edge">
<title>Node4&#45;&gt;Node5</title>
<path fill="none" stroke="midnightblue" d="M293.32,-232.29C283.23,-231 273,-229.68 263.06,-228.4"/>
<polygon fill="midnightblue" stroke="midnightblue" points="292.98,-235.78 303.35,-233.58 293.88,-228.84 292.98,-235.78"/>
</g>
<!-- Node7 -->
<g id="node7" class="node">
<title>Node7</title>
<g id="a_node7"><a xlink:href="classwmtk_1_1operations_1_1_operation.html#a3cf4616909230345e0039b33c28d9214" target="_top" xlink:title=" ">
<polygon fill="none" stroke="black" points="303.5,-179.5 303.5,-209.5 459.5,-209.5 459.5,-179.5 303.5,-179.5"/>
<text text-anchor="start" x="311.5" y="-197.5" font-family="Helvetica,sans-Serif" font-size="10.00">wmtk::operations::Operation</text>
<text text-anchor="middle" x="381.5" y="-186.5" font-family="Helvetica,sans-Serif" font-size="10.00">::after</text>
</a>
</g>
</g>
<!-- Node6&#45;&gt;Node7 -->
<g id="edge6" class="edge">
<title>Node6&#45;&gt;Node7</title>
<path fill="none" stroke="midnightblue" d="M503.45,-195.7C489,-195.55 473.99,-195.41 459.65,-195.26"/>
<polygon fill="midnightblue" stroke="midnightblue" points="503.82,-199.2 513.85,-195.8 503.89,-192.2 503.82,-199.2"/>
</g>
<!-- Node7&#45;&gt;Node5 -->
<g id="edge7" class="edge">
<title>Node7&#45;&gt;Node5</title>
<path fill="none" stroke="midnightblue" d="M293.32,-205.26C283.23,-206.5 273,-207.76 263.06,-208.99"/>
<polygon fill="midnightblue" stroke="midnightblue" points="293.85,-208.72 303.35,-204.02 293,-201.77 293.85,-208.72"/>
</g>
<!-- Node10 -->
<g id="node10" class="node">
<title>Node10</title>
<g id="a_node10"><a xlink:href="classwmtk_1_1_invariant_collection.html#a10f40accf62cfc42febcd68e40b004c6" target="_top" xlink:title=" ">
<polygon fill="none" stroke="black" points="707,-99.5 707,-129.5 850,-129.5 850,-99.5 707,-99.5"/>
<text text-anchor="start" x="715" y="-117.5" font-family="Helvetica,sans-Serif" font-size="10.00">wmtk::InvariantCollection</text>
<text text-anchor="middle" x="778.5" y="-106.5" font-family="Helvetica,sans-Serif" font-size="10.00">::after</text>
</a>
</g>
</g>
<!-- Node9&#45;&gt;Node10 -->
<g id="edge10" class="edge">
<title>Node9&#45;&gt;Node10</title>
<path fill="none" stroke="midnightblue" d="M891.89,-101.59C878.05,-103.18 863.73,-104.82 850.14,-106.38"/>
<polygon fill="midnightblue" stroke="midnightblue" points="892.33,-105.06 901.86,-100.44 891.53,-98.11 892.33,-105.06"/>
</g>
<!-- Node12 -->
<g id="node12" class="node">
<title>Node12</title>
<g id="a_node12"><a xlink:href="classwmtk_1_1_mesh.html#a2d38639fa705c42719431cdffe7885fb" target="_top" xlink:title=" ">
<polygon fill="none" stroke="black" points="708.5,-61 708.5,-80 848.5,-80 848.5,-61 708.5,-61"/>
<text text-anchor="middle" x="778.5" y="-68" font-family="Helvetica,sans-Serif" font-size="10.00">wmtk::Mesh::map_tuples</text>
</a>
</g>
</g>
<!-- Node9&#45;&gt;Node12 -->
<g id="edge12" class="edge">
<title>Node9&#45;&gt;Node12</title>
<path fill="none" stroke="midnightblue" d="M891.57,-83.37C877.28,-81.73 862.5,-80.03 848.53,-78.43"/>
<polygon fill="midnightblue" stroke="midnightblue" points="891.53,-86.89 901.86,-84.56 892.33,-79.94 891.53,-86.89"/>
</g>
<!-- Node13 -->
<g id="node13" class="node">
<title>Node13</title>
<g id="a_node13"><a xlink:href="classwmtk_1_1_mesh.html#a333e19ee5ddb037313fa7dbdb0e41771" target="_top" xlink:title="register a mesh as the child of this mesh">
<polygon fill="none" stroke="black" points="718.5,-11.5 718.5,-41.5 838.5,-41.5 838.5,-11.5 718.5,-11.5"/>
<text text-anchor="start" x="726.5" y="-29.5" font-family="Helvetica,sans-Serif" font-size="10.00">wmtk::Mesh::register</text>
<text text-anchor="middle" x="778.5" y="-18.5" font-family="Helvetica,sans-Serif" font-size="10.00">_child_mesh</text>
</a>
</g>
</g>
<!-- Node9&#45;&gt;Node13 -->
<g id="edge13" class="edge">
<title>Node9&#45;&gt;Node13</title>
<path fill="none" stroke="midnightblue" d="M933.4,-79.54C901.8,-68.65 856.58,-53.07 823.33,-41.61"/>
<polygon fill="midnightblue" stroke="midnightblue" points="932.56,-82.95 943.15,-82.9 934.84,-76.34 932.56,-82.95"/>
</g>
<!-- Node11 -->
<g id="node11" class="node">
<title>Node11</title>
<g id="a_node11"><a xlink:href="classwmtk_1_1operations_1_1_optimization_smoothing_1_1_w_m_t_k_problem.html#a656eb77b00a2c1bf2e2fd918b275078b" target="_top" xlink:title=" ">
<polygon fill="none" stroke="black" points="500,-83 500,-124 671,-124 671,-83 500,-83"/>
<text text-anchor="start" x="508" y="-112" font-family="Helvetica,sans-Serif" font-size="10.00">wmtk::operations::Optimization</text>
<text text-anchor="start" x="508" y="-101" font-family="Helvetica,sans-Serif" font-size="10.00">Smoothing::WMTKProblem::is</text>
<text text-anchor="middle" x="585.5" y="-90" font-family="Helvetica,sans-Serif" font-size="10.00">_step_valid</text>
</a>
</g>
</g>
<!-- Node10&#45;&gt;Node11 -->
<g id="edge11" class="edge">
<title>Node10&#45;&gt;Node11</title>
<path fill="none" stroke="midnightblue" d="M696.67,-109.84C688.18,-109.36 679.54,-108.86 671.02,-108.37"/>
<polygon fill="midnightblue" stroke="midnightblue" points="696.74,-113.35 706.92,-110.44 697.14,-106.37 696.74,-113.35"/>
</g>
<!-- Node14 -->
<g id="node14" class="node">
<title>Node14</title>
<g id="a_node14"><a xlink:href="classwmtk_1_1multimesh_1_1utils_1_1internal_1_1_tuple_tag.html#a13408a71833abeae2bafa8f7d55c78ba" target="_top" xlink:title=" ">
<polygon fill="none" stroke="black" points="512.5,-0.5 512.5,-52.5 658.5,-52.5 658.5,-0.5 512.5,-0.5"/>
<text text-anchor="start" x="520.5" y="-40.5" font-family="Helvetica,sans-Serif" font-size="10.00">wmtk::multimesh::utils</text>
<text text-anchor="start" x="520.5" y="-29.5" font-family="Helvetica,sans-Serif" font-size="10.00">::internal::TupleTag::</text>
<text text-anchor="start" x="520.5" y="-18.5" font-family="Helvetica,sans-Serif" font-size="10.00">extract_and_register_child</text>
<text text-anchor="middle" x="585.5" y="-7.5" font-family="Helvetica,sans-Serif" font-size="10.00">_mesh_from_tag_handle</text>
</a>
</g>
</g>
<!-- Node13&#45;&gt;Node14 -->
<g id="edge14" class="edge">
<title>Node13&#45;&gt;Node14</title>
<path fill="none" stroke="midnightblue" d="M708.02,-26.5C692,-26.5 674.93,-26.5 658.8,-26.5"/>
<polygon fill="midnightblue" stroke="midnightblue" points="708.37,-30 718.37,-26.5 708.37,-23 708.37,-30"/>
</g>
<!-- Node15 -->
<g id="node15" class="node">
<title>Node15</title>
<g id="a_node15"><a xlink:href="namespacewmtk_1_1multimesh_1_1utils.html#a3ba02c50321ce0e6095c107cbb5edc13" target="_top" xlink:title="extract a child mesh based on the tag handle and the tag value, and register it to the input (parent)...">
<polygon fill="none" stroke="black" points="299,-6 299,-47 464,-47 464,-6 299,-6"/>
<text text-anchor="start" x="307" y="-35" font-family="Helvetica,sans-Serif" font-size="10.00">wmtk::multimesh::utils</text>
<text text-anchor="start" x="307" y="-24" font-family="Helvetica,sans-Serif" font-size="10.00">::extract_and_register</text>
<text text-anchor="middle" x="381.5" y="-13" font-family="Helvetica,sans-Serif" font-size="10.00">_child_mesh_from_tag_handle</text>
</a>
</g>
</g>
<!-- Node14&#45;&gt;Node15 -->
<g id="edge15" class="edge">
<title>Node14&#45;&gt;Node15</title>
<path fill="none" stroke="midnightblue" d="M502.42,-26.5C489.8,-26.5 476.78,-26.5 464.17,-26.5"/>
<polygon fill="midnightblue" stroke="midnightblue" points="502.43,-30 512.43,-26.5 502.43,-23 502.43,-30"/>
</g>
<!-- Node16 -->
<g id="node16" class="node">
<title>Node16</title>
<g id="a_node16"><a xlink:href="namespacewmtk_1_1multimesh_1_1utils.html#a9349b24597b61459c9d98753ae5234f1" target="_top" xlink:title="extract a child mesh based on the given tag and tag value, and register it to the input (parent) mesh">
<polygon fill="none" stroke="black" points="120,-6 120,-47 250,-47 250,-6 120,-6"/>
<text text-anchor="start" x="128" y="-35" font-family="Helvetica,sans-Serif" font-size="10.00">wmtk::multimesh::utils</text>
<text text-anchor="start" x="128" y="-24" font-family="Helvetica,sans-Serif" font-size="10.00">::extract_and_register</text>
<text text-anchor="middle" x="185" y="-13" font-family="Helvetica,sans-Serif" font-size="10.00">_child_mesh_from_tag</text>
</a>
</g>
</g>
<!-- Node15&#45;&gt;Node16 -->
<g id="edge16" class="edge">
<title>Node15&#45;&gt;Node16</title>
<path fill="none" stroke="midnightblue" d="M288.54,-26.5C275.61,-26.5 262.55,-26.5 250.29,-26.5"/>
<polygon fill="midnightblue" stroke="midnightblue" points="288.86,-30 298.86,-26.5 288.86,-23 288.86,-30"/>
</g>
<!-- Node17 -->
<g id="node17" class="node">
<title>Node17</title>
<g id="a_node17"><a xlink:href="test__component__isotropic__remeshing_8cpp.html#aae475685ae29b731655dd43137a950d6" target="_top" xlink:title=" ">
<polygon fill="none" stroke="black" points="0,-17 0,-36 71,-36 71,-17 0,-17"/>
<text text-anchor="middle" x="35.5" y="-24" font-family="Helvetica,sans-Serif" font-size="10.00">TEST_CASE</text>
</a>
</g>
</g>
<!-- Node16&#45;&gt;Node17 -->
<g id="edge17" class="edge">
<title>Node16&#45;&gt;Node17</title>
<path fill="none" stroke="midnightblue" d="M109.56,-26.5C96.22,-26.5 82.91,-26.5 71.38,-26.5"/>
<polygon fill="midnightblue" stroke="midnightblue" points="109.73,-30 119.73,-26.5 109.73,-23 109.73,-30"/>
</g>
</g>
</svg>
        <g id="navigator" transform="translate(0 0)" fill="#404254">
                <rect fill="#f2f5e9" fill-opacity="0.5" stroke="#606060" stroke-width=".5" x="0" y="0" width="60" height="60"/>
                <use id="zoomplus" xlink:href="#zoomPlus" x="17" y="9" onmousedown="handleZoom(evt,'in')"/>
                <use id="zoomminus" xlink:href="#zoomMin" x="42" y="9" onmousedown="handleZoom(evt,'out')"/>
                <use id="reset" xlink:href="#resetDef" x="30" y="36" onmousedown="handleReset()"/>
                <g id="arrowUp" xlink:href="#dirArrow" transform="translate(30 24)" onmousedown="handlePan(0,-1)">
                  <use xlink:href="#rim" fill="#404040">
                        <set attributeName="fill" to="#808080" begin="arrowUp.mouseover" end="arrowUp.mouseout"/>
                  </use>
                  <path fill="none" stroke="white" stroke-width="1.5" d="M0,-3.0v7 M-2.5,-0.5L0,-3.0L2.5,-0.5"/>
                </g>
                <g id="arrowRight" xlink:href="#dirArrow" transform="rotate(90) translate(36 -43)" onmousedown="handlePan(1,0)">
                  <use xlink:href="#rim" fill="#404040">
                        <set attributeName="fill" to="#808080" begin="arrowRight.mouseover" end="arrowRight.mouseout"/>
                  </use>
                  <path fill="none" stroke="white" stroke-width="1.5" d="M0,-3.0v7 M-2.5,-0.5L0,-3.0L2.5,-0.5"/>
                </g>
                <g id="arrowDown" xlink:href="#dirArrow" transform="rotate(180) translate(-30 -48)" onmousedown="handlePan(0,1)">
                  <use xlink:href="#rim" fill="#404040">
                        <set attributeName="fill" to="#808080" begin="arrowDown.mouseover" end="arrowDown.mouseout"/>
                  </use>
                  <path fill="none" stroke="white" stroke-width="1.5" d="M0,-3.0v7 M-2.5,-0.5L0,-3.0L2.5,-0.5"/>
                </g>
                <g id="arrowLeft" xlink:href="#dirArrow" transform="rotate(270) translate(-36 17)" onmousedown="handlePan(-1,0)">
                  <use xlink:href="#rim" fill="#404040">
                        <set attributeName="fill" to="#808080" begin="arrowLeft.mouseover" end="arrowLeft.mouseout"/>
                  </use>
                  <path fill="none" stroke="white" stroke-width="1.5" d="M0,-3.0v7 M-2.5,-0.5L0,-3.0L2.5,-0.5"/>
                </g>
        </g>
        <svg viewBox="0 0 15 15" width="100%" height="30px" preserveAspectRatio="xMaxYMin meet">
         <g id="arrow_out" transform="scale(0.3 0.3)">
          <a xlink:href="classwmtk_1_1_multi_mesh_manager_a5e6576353e81057bca18a1d49ac9cadf_icgraph_org.svg" target="_base">
           <rect id="button" ry="5" rx="5" y="6" x="6" height="38" width="38"
                fill="#f2f5e9" fill-opacity="0.5" stroke="#606060" stroke-width="1.0"/>
           <path id="arrow"
             d="M 11.500037,31.436501 C 11.940474,20.09759 22.043105,11.32322 32.158766,21.979434 L 37.068811,17.246167 C 37.068811,17.246167 37.088388,32 37.088388,32 L 22.160133,31.978069 C 22.160133,31.978069 26.997745,27.140456 26.997745,27.140456 C 18.528582,18.264221 13.291696,25.230495 11.500037,31.436501 z"
             style="fill:#404040;"/>
          </a>
         </g>
        </svg>
</svg>
