<?xml version="1.0" encoding="UTF-8" standalone="no"?>
<!DOCTYPE svg PUBLIC "-//W3C//DTD SVG 1.1//EN"
 "http://www.w3.org/Graphics/SVG/1.1/DTD/svg11.dtd">
<!-- Generated by graphviz version 2.43.0 (0)
 -->
<!-- Title: wmtk::PointMesh::vertex_tuple_from_id Pages: 1 -->
<svg width="1048pt" height="198pt"
 viewBox="0.00 0.00 1048.00 197.50" xmlns="http://www.w3.org/2000/svg" xmlns:xlink="http://www.w3.org/1999/xlink">
<g id="graph0" class="graph" transform="scale(1 1) rotate(0) translate(4 193.5)">
<title>wmtk::PointMesh::vertex_tuple_from_id</title>
<!-- Node1 -->
<g id="node1" class="node">
<title>Node1</title>
<g id="a_node1"><a xlink:title=" ">
<polygon fill="#bfbfbf" stroke="black" points="0,-74.5 0,-104.5 139,-104.5 139,-74.5 0,-74.5"/>
<text text-anchor="start" x="8" y="-92.5" font-family="Helvetica,sans-Serif" font-size="10.00">wmtk::PointMesh::vertex</text>
<text text-anchor="middle" x="69.5" y="-81.5" font-family="Helvetica,sans-Serif" font-size="10.00">_tuple_from_id</text>
</a>
</g>
</g>
<!-- Node2 -->
<g id="node2" class="node">
<title>Node2</title>
<g id="a_node2"><a xlink:href="classwmtk_1_1_mesh.html#a40a0509744659785607c0574d561bcc2" target="_top" xlink:title=" ">
<polygon fill="none" stroke="black" points="175,-74.5 175,-104.5 296,-104.5 296,-74.5 175,-74.5"/>
<text text-anchor="start" x="183" y="-92.5" font-family="Helvetica,sans-Serif" font-size="10.00">wmtk::Mesh::get_cell</text>
<text text-anchor="middle" x="235.5" y="-81.5" font-family="Helvetica,sans-Serif" font-size="10.00">_hash_slow</text>
</a>
</g>
</g>
<!-- Node1&#45;&gt;Node2 -->
<g id="edge1" class="edge">
<title>Node1&#45;&gt;Node2</title>
<path fill="none" stroke="midnightblue" d="M139.1,-89.5C147.52,-89.5 156.14,-89.5 164.59,-89.5"/>
<polygon fill="midnightblue" stroke="midnightblue" points="164.77,-93 174.77,-89.5 164.77,-86 164.77,-93"/>
</g>
<!-- Node3 -->
<g id="node3" class="node">
<title>Node3</title>
<g id="a_node3"><a xlink:href="classwmtk_1_1_mesh.html#a4bcf7281ec7f3bdfd506ffc87fc092d3" target="_top" xlink:title=" ">
<polygon fill="none" stroke="black" points="332,-104 332,-123 481,-123 481,-104 332,-104"/>
<text text-anchor="middle" x="406.5" y="-111" font-family="Helvetica,sans-Serif" font-size="10.00">wmtk::Mesh::get_cell_hash</text>
</a>
</g>
</g>
<!-- Node2&#45;&gt;Node3 -->
<g id="edge2" class="edge">
<title>Node2&#45;&gt;Node3</title>
<path fill="none" stroke="midnightblue" d="M296.08,-97.96C306.56,-99.45 317.6,-101.02 328.47,-102.56"/>
<polygon fill="midnightblue" stroke="midnightblue" points="328,-106.03 338.39,-103.97 328.98,-99.1 328,-106.03"/>
</g>
<!-- Node7 -->
<g id="node7" class="node">
<title>Node7</title>
<g id="a_node7"><a xlink:href="classwmtk_1_1_mesh.html#a2435c4340422557f5e61dfbad2d0bee8" target="_top" xlink:title=" ">
<polygon fill="none" stroke="black" points="346,-52.5 346,-82.5 467,-82.5 467,-52.5 346,-52.5"/>
<text text-anchor="start" x="354" y="-70.5" font-family="Helvetica,sans-Serif" font-size="10.00">wmtk::Mesh::get_cell</text>
<text text-anchor="middle" x="406.5" y="-59.5" font-family="Helvetica,sans-Serif" font-size="10.00">_hash_accessor</text>
</a>
</g>
</g>
<!-- Node2&#45;&gt;Node7 -->
<g id="edge6" class="edge">
<title>Node2&#45;&gt;Node7</title>
<path fill="none" stroke="midnightblue" d="M296.08,-81.74C308.96,-80.07 322.68,-78.28 335.9,-76.56"/>
<polygon fill="midnightblue" stroke="midnightblue" points="336.42,-80.02 345.89,-75.26 335.52,-73.08 336.42,-80.02"/>
</g>
<!-- Node4 -->
<g id="node4" class="node">
<title>Node4</title>
<g id="a_node4"><a xlink:href="classwmtk_1_1attribute_1_1_caching_accessor.html#a46aa3c2780f6789c42c537ee4ecb5b86" target="_top" xlink:title=" ">
<polygon fill="none" stroke="black" points="519.5,-148 519.5,-189 656.5,-189 656.5,-148 519.5,-148"/>
<text text-anchor="start" x="527.5" y="-177" font-family="Helvetica,sans-Serif" font-size="10.00">wmtk::attribute::Caching</text>
<text text-anchor="start" x="527.5" y="-166" font-family="Helvetica,sans-Serif" font-size="10.00">Accessor::const_scalar</text>
<text text-anchor="middle" x="588" y="-155" font-family="Helvetica,sans-Serif" font-size="10.00">_attribute</text>
</a>
</g>
</g>
<!-- Node3&#45;&gt;Node4 -->
<g id="edge3" class="edge">
<title>Node3&#45;&gt;Node4</title>
<path fill="none" stroke="midnightblue" d="M438.77,-123.08C458.63,-129.17 485.26,-137.33 510.47,-145.05"/>
<polygon fill="midnightblue" stroke="midnightblue" points="509.45,-148.4 520.04,-147.98 511.51,-141.71 509.45,-148.4"/>
</g>
<!-- Node5 -->
<g id="node5" class="node">
<title>Node5</title>
<g id="a_node5"><a xlink:href="classwmtk_1_1attribute_1_1_accessor.html#a5e55c4e369b2dfeba31e579ee8fa06bf" target="_top" xlink:title=" ">
<polygon fill="none" stroke="black" points="517,-98.5 517,-128.5 659,-128.5 659,-98.5 517,-98.5"/>
<text text-anchor="start" x="525" y="-116.5" font-family="Helvetica,sans-Serif" font-size="10.00">wmtk::attribute::Accessor</text>
<text text-anchor="middle" x="588" y="-105.5" font-family="Helvetica,sans-Serif" font-size="10.00">::index_access</text>
</a>
</g>
</g>
<!-- Node3&#45;&gt;Node5 -->
<g id="edge4" class="edge">
<title>Node3&#45;&gt;Node5</title>
<path fill="none" stroke="midnightblue" d="M481.03,-113.5C489.42,-113.5 498.02,-113.5 506.5,-113.5"/>
<polygon fill="midnightblue" stroke="midnightblue" points="506.77,-117 516.77,-113.5 506.77,-110 506.77,-117"/>
</g>
<!-- Node6 -->
<g id="node6" class="node">
<title>Node6</title>
<g id="a_node6"><a xlink:href="classwmtk_1_1attribute_1_1_accessor.html#a9d0f9b5a16b8c3f40956fb9b4007f63a" target="_top" xlink:title=" ">
<polygon fill="none" stroke="black" points="695,-98.5 695,-128.5 837,-128.5 837,-98.5 695,-98.5"/>
<text text-anchor="start" x="703" y="-116.5" font-family="Helvetica,sans-Serif" font-size="10.00">wmtk::attribute::Accessor</text>
<text text-anchor="middle" x="766" y="-105.5" font-family="Helvetica,sans-Serif" font-size="10.00">::caching_base_type</text>
</a>
</g>
</g>
<!-- Node5&#45;&gt;Node6 -->
<g id="edge5" class="edge">
<title>Node5&#45;&gt;Node6</title>
<path fill="none" stroke="midnightblue" d="M659.07,-113.5C667.54,-113.5 676.25,-113.5 684.85,-113.5"/>
<polygon fill="midnightblue" stroke="midnightblue" points="684.89,-117 694.89,-113.5 684.89,-110 684.89,-117"/>
</g>
<!-- Node8 -->
<g id="node8" class="node">
<title>Node8</title>
<g id="a_node8"><a xlink:href="classwmtk_1_1_mesh.html#adf199d6a3ce6badd8bfa0e2ab3a1c1aa" target="_top" xlink:title=" ">
<polygon fill="none" stroke="black" points="523,-49.5 523,-79.5 653,-79.5 653,-49.5 523,-49.5"/>
<text text-anchor="start" x="531" y="-67.5" font-family="Helvetica,sans-Serif" font-size="10.00">wmtk::Mesh::get_const</text>
<text text-anchor="middle" x="588" y="-56.5" font-family="Helvetica,sans-Serif" font-size="10.00">_cell_hash_accessor</text>
</a>
</g>
</g>
<!-- Node7&#45;&gt;Node8 -->
<g id="edge7" class="edge">
<title>Node7&#45;&gt;Node8</title>
<path fill="none" stroke="midnightblue" d="M467.27,-66.5C481.77,-66.26 497.45,-66 512.54,-65.74"/>
<polygon fill="midnightblue" stroke="midnightblue" points="512.93,-69.24 522.87,-65.57 512.81,-62.24 512.93,-69.24"/>
</g>
<!-- Node9 -->
<g id="node9" class="node">
<title>Node9</title>
<g id="a_node9"><a xlink:href="classwmtk_1_1_mesh.html#a956cb71441391c99d736ec69c7467b61" target="_top" xlink:title=" ">
<polygon fill="none" stroke="black" points="709.5,-49.5 709.5,-79.5 822.5,-79.5 822.5,-49.5 709.5,-49.5"/>
<text text-anchor="start" x="717.5" y="-67.5" font-family="Helvetica,sans-Serif" font-size="10.00">wmtk::Mesh::create</text>
<text text-anchor="middle" x="766" y="-56.5" font-family="Helvetica,sans-Serif" font-size="10.00">_const_accessor</text>
</a>
</g>
</g>
<!-- Node8&#45;&gt;Node9 -->
<g id="edge8" class="edge">
<title>Node8&#45;&gt;Node9</title>
<path fill="none" stroke="midnightblue" d="M653.04,-64.5C668.05,-64.5 684.07,-64.5 699.16,-64.5"/>
<polygon fill="midnightblue" stroke="midnightblue" points="699.44,-68 709.44,-64.5 699.44,-61 699.44,-68"/>
</g>
<!-- Node10 -->
<g id="node10" class="node">
<title>Node10</title>
<g id="a_node10"><a xlink:href="classwmtk_1_1attribute_1_1_mesh_attribute_handle.html#ac326961f01b9ba4fec395827f15a7ef2" target="_top" xlink:title=" ">
<polygon fill="none" stroke="black" points="873,-98.5 873,-128.5 1040,-128.5 1040,-98.5 873,-98.5"/>
<text text-anchor="start" x="881" y="-116.5" font-family="Helvetica,sans-Serif" font-size="10.00">wmtk::attribute::MeshAttribute</text>
<text text-anchor="middle" x="956.5" y="-105.5" font-family="Helvetica,sans-Serif" font-size="10.00">Handle::as</text>
</a>
</g>
</g>
<!-- Node9&#45;&gt;Node10 -->
<g id="edge9" class="edge">
<title>Node9&#45;&gt;Node10</title>
<path fill="none" stroke="midnightblue" d="M822.54,-78.94C843.07,-84.27 866.56,-90.38 888.04,-95.96"/>
<polygon fill="midnightblue" stroke="midnightblue" points="887.18,-99.36 897.74,-98.49 888.95,-92.58 887.18,-99.36"/>
</g>
<!-- Node11 -->
<g id="node11" class="node">
<title>Node11</title>
<g id="a_node11"><a xlink:href="classwmtk_1_1attribute_1_1_mesh_attribute_handle.html#a2b86caeb22b007b85b138ebc6b0ed837" target="_top" xlink:title=" ">
<polygon fill="none" stroke="black" points="873,-49.5 873,-79.5 1040,-79.5 1040,-49.5 873,-49.5"/>
<text text-anchor="start" x="881" y="-67.5" font-family="Helvetica,sans-Serif" font-size="10.00">wmtk::attribute::MeshAttribute</text>
<text text-anchor="middle" x="956.5" y="-56.5" font-family="Helvetica,sans-Serif" font-size="10.00">Handle::holds</text>
</a>
</g>
</g>
<!-- Node9&#45;&gt;Node11 -->
<g id="edge10" class="edge">
<title>Node9&#45;&gt;Node11</title>
<path fill="none" stroke="midnightblue" d="M822.54,-64.5C835.08,-64.5 848.74,-64.5 862.37,-64.5"/>
<polygon fill="midnightblue" stroke="midnightblue" points="862.76,-68 872.76,-64.5 862.76,-61 862.76,-68"/>
</g>
<!-- Node12 -->
<g id="node12" class="node">
<title>Node12</title>
<g id="a_node12"><a xlink:href="classwmtk_1_1attribute_1_1_mesh_attribute_handle.html#a620620d54776b2c5f4f9cebad465cfa7" target="_top" xlink:title=" ">
<polygon fill="none" stroke="black" points="873,-0.5 873,-30.5 1040,-30.5 1040,-0.5 873,-0.5"/>
<text text-anchor="start" x="881" y="-18.5" font-family="Helvetica,sans-Serif" font-size="10.00">wmtk::attribute::MeshAttribute</text>
<text text-anchor="middle" x="956.5" y="-7.5" font-family="Helvetica,sans-Serif" font-size="10.00">Handle::mesh</text>
</a>
</g>
</g>
<!-- Node9&#45;&gt;Node12 -->
<g id="edge11" class="edge">
<title>Node9&#45;&gt;Node12</title>
<path fill="none" stroke="midnightblue" d="M822.54,-50.06C843.07,-44.73 866.56,-38.62 888.04,-33.04"/>
<polygon fill="midnightblue" stroke="midnightblue" points="888.95,-36.42 897.74,-30.51 887.18,-29.64 888.95,-36.42"/>
</g>
</g>
</svg>
