<?xml version="1.0" encoding="UTF-8" standalone="no"?>
<!DOCTYPE svg PUBLIC "-//W3C//DTD SVG 1.1//EN"
 "http://www.w3.org/Graphics/SVG/1.1/DTD/svg11.dtd">
<!-- Generated by graphviz version 2.43.0 (0)
 -->
<!-- Title: wmtk::autogen::Dart::global_id Pages: 1 -->
<svg width="339pt" height="176pt"
 viewBox="0.00 0.00 339.00 175.50" xmlns="http://www.w3.org/2000/svg" xmlns:xlink="http://www.w3.org/1999/xlink">
<g id="graph0" class="graph" transform="scale(1 1) rotate(0) translate(4 171.5)">
<title>wmtk::autogen::Dart::global_id</title>
<!-- Node1 -->
<g id="node1" class="node">
<title>Node1</title>
<g id="a_node1"><a xlink:title=" ">
<polygon fill="#bfbfbf" stroke="black" points="214,-73.5 214,-103.5 331,-103.5 331,-73.5 214,-73.5"/>
<text text-anchor="start" x="222" y="-91.5" font-family="Helvetica,sans-Serif" font-size="10.00">wmtk::autogen::Dart</text>
<text text-anchor="middle" x="272.5" y="-80.5" font-family="Helvetica,sans-Serif" font-size="10.00">::global_id</text>
</a>
</g>
</g>
<!-- Node2 -->
<g id="node2" class="node">
<title>Node2</title>
<g id="a_node2"><a xlink:href="classwmtk_1_1autogen_1_1_simplex_dart.html#ab94f38cecd51c56d3b5c0d8f3a99c380" target="_top" xlink:title=" ">
<polygon fill="none" stroke="black" points="0,-148 0,-167 178,-167 178,-148 0,-148"/>
<text text-anchor="middle" x="89" y="-155" font-family="Helvetica,sans-Serif" font-size="10.00">wmtk::autogen::SimplexDart::act</text>
</a>
</g>
</g>
<!-- Node1&#45;&gt;Node2 -->
<g id="edge1" class="edge">
<title>Node1&#45;&gt;Node2</title>
<path fill="none" stroke="midnightblue" d="M239.06,-108.74C221.53,-118.92 199.19,-130.72 178,-138.5 167.73,-142.27 156.5,-145.4 145.59,-147.96"/>
<polygon fill="midnightblue" stroke="midnightblue" points="240.94,-111.7 247.76,-103.59 237.37,-105.67 240.94,-111.7"/>
</g>
<!-- Node3 -->
<g id="node3" class="node">
<title>Node3</title>
<g id="a_node3"><a xlink:href="classwmtk_1_1autogen_1_1_dart.html#a677f90104cb9c35f711585c0f7142b9f" target="_top" xlink:title=" ">
<polygon fill="none" stroke="black" points="30.5,-98.5 30.5,-128.5 147.5,-128.5 147.5,-98.5 30.5,-98.5"/>
<text text-anchor="start" x="38.5" y="-116.5" font-family="Helvetica,sans-Serif" font-size="10.00">wmtk::autogen::Dart</text>
<text text-anchor="middle" x="89" y="-105.5" font-family="Helvetica,sans-Serif" font-size="10.00">::is_null</text>
</a>
</g>
</g>
<!-- Node1&#45;&gt;Node3 -->
<g id="edge2" class="edge">
<title>Node1&#45;&gt;Node3</title>
<path fill="none" stroke="midnightblue" d="M203.71,-97.84C185.23,-100.38 165.38,-103.12 147.53,-105.58"/>
<polygon fill="midnightblue" stroke="midnightblue" points="204.39,-101.28 213.82,-96.44 203.44,-94.34 204.39,-101.28"/>
</g>
<!-- Node4 -->
<g id="node4" class="node">
<title>Node4</title>
<g id="a_node4"><a xlink:href="namespacewmtk_1_1autogen.html#a143a5c59070b357105d75cce0665c584" target="_top" xlink:title=" ">
<polygon fill="none" stroke="black" points="29.5,-49.5 29.5,-79.5 148.5,-79.5 148.5,-49.5 29.5,-49.5"/>
<text text-anchor="start" x="37.5" y="-67.5" font-family="Helvetica,sans-Serif" font-size="10.00">wmtk::autogen::local</text>
<text text-anchor="middle" x="89" y="-56.5" font-family="Helvetica,sans-Serif" font-size="10.00">_dart_action</text>
</a>
</g>
</g>
<!-- Node1&#45;&gt;Node4 -->
<g id="edge3" class="edge">
<title>Node1&#45;&gt;Node4</title>
<path fill="none" stroke="midnightblue" d="M203.66,-79.53C185.62,-77.14 166.29,-74.59 148.78,-72.27"/>
<polygon fill="midnightblue" stroke="midnightblue" points="203.45,-83.03 213.82,-80.87 204.37,-76.09 203.45,-83.03"/>
</g>
<!-- Node5 -->
<g id="node5" class="node">
<title>Node5</title>
<g id="a_node5"><a xlink:href="classwmtk_1_1autogen_1_1_simplex_dart.html#a05e188f1fafc9fb7067843de4b5c09a5" target="_top" xlink:title=" ">
<polygon fill="none" stroke="black" points="10.5,-0.5 10.5,-30.5 167.5,-30.5 167.5,-0.5 10.5,-0.5"/>
<text text-anchor="start" x="18.5" y="-18.5" font-family="Helvetica,sans-Serif" font-size="10.00">wmtk::autogen::SimplexDart</text>
<text text-anchor="middle" x="89" y="-7.5" font-family="Helvetica,sans-Serif" font-size="10.00">::tuple_from_dart</text>
</a>
</g>
</g>
<!-- Node1&#45;&gt;Node5 -->
<g id="edge4" class="edge">
<title>Node1&#45;&gt;Node5</title>
<path fill="none" stroke="midnightblue" d="M236.43,-68.41C219.2,-59.08 197.91,-48.35 178,-40.5 168.84,-36.89 158.95,-33.56 149.23,-30.59"/>
<polygon fill="midnightblue" stroke="midnightblue" points="235.1,-71.67 245.55,-73.42 238.47,-65.53 235.1,-71.67"/>
</g>
</g>
</svg>
