<?xml version="1.0" encoding="UTF-8" standalone="no"?>
<!DOCTYPE svg PUBLIC "-//W3C//DTD SVG 1.1//EN"
 "http://www.w3.org/Graphics/SVG/1.1/DTD/svg11.dtd">
<!-- Generated by graphviz version 2.43.0 (0)
 -->
<!-- Title: wmtk::components::AABBWrapper::AABBWrapper Pages: 1 -->
<svg width="940pt" height="228pt"
 viewBox="0.00 0.00 940.00 228.00" xmlns="http://www.w3.org/2000/svg" xmlns:xlink="http://www.w3.org/1999/xlink">
<g id="graph0" class="graph" transform="scale(1 1) rotate(0) translate(4 224)">
<title>wmtk::components::AABBWrapper::AABBWrapper</title>
<!-- Node1 -->
<g id="node1" class="node">
<title>Node1</title>
<g id="a_node1"><a xlink:title=" ">
<polygon fill="#bfbfbf" stroke="black" points="0,-142.5 0,-172.5 185,-172.5 185,-142.5 0,-142.5"/>
<text text-anchor="start" x="8" y="-160.5" font-family="Helvetica,sans-Serif" font-size="10.00">wmtk::components::AABBWrapper</text>
<text text-anchor="middle" x="92.5" y="-149.5" font-family="Helvetica,sans-Serif" font-size="10.00">::AABBWrapper</text>
</a>
</g>
</g>
<!-- Node2 -->
<g id="node2" class="node">
<title>Node2</title>
<g id="a_node2"><a xlink:href="namespacewmtk_1_1simplex.html#aee89641a0de7b5ddf8d15bf376f9d33b" target="_top" xlink:title="Returns all faces of a simplex.">
<polygon fill="none" stroke="black" points="252,-192 252,-211 374,-211 374,-192 252,-192"/>
<text text-anchor="middle" x="313" y="-199" font-family="Helvetica,sans-Serif" font-size="10.00">wmtk::simplex::faces</text>
</a>
</g>
</g>
<!-- Node1&#45;&gt;Node2 -->
<g id="edge1" class="edge">
<title>Node1&#45;&gt;Node2</title>
<path fill="none" stroke="midnightblue" d="M168.08,-172.52C196.48,-178.24 228.35,-184.66 254.88,-190"/>
<polygon fill="midnightblue" stroke="midnightblue" points="254.27,-193.44 264.76,-191.99 255.65,-186.58 254.27,-193.44"/>
</g>
<!-- Node3 -->
<g id="node3" class="node">
<title>Node3</title>
<g id="a_node3"><a xlink:href="classwmtk_1_1simplex_1_1_simplex_collection.html#aa86023a5429af2eaa288fa305399450f" target="_top" xlink:title=" ">
<polygon fill="none" stroke="black" points="221,-142.5 221,-172.5 405,-172.5 405,-142.5 221,-142.5"/>
<text text-anchor="start" x="229" y="-160.5" font-family="Helvetica,sans-Serif" font-size="10.00">wmtk::simplex::SimplexCollection</text>
<text text-anchor="middle" x="313" y="-149.5" font-family="Helvetica,sans-Serif" font-size="10.00">::size</text>
</a>
</g>
</g>
<!-- Node1&#45;&gt;Node3 -->
<g id="edge2" class="edge">
<title>Node1&#45;&gt;Node3</title>
<path fill="none" stroke="midnightblue" d="M185.21,-157.5C193.69,-157.5 202.31,-157.5 210.87,-157.5"/>
<polygon fill="midnightblue" stroke="midnightblue" points="210.87,-161 220.87,-157.5 210.87,-154 210.87,-161"/>
</g>
<!-- Node4 -->
<g id="node4" class="node">
<title>Node4</title>
<g id="a_node4"><a xlink:href="namespacewmtk_1_1simplex.html#a1942aba1c5db8f987a1b1535b64b3455" target="_top" xlink:title=" ">
<polygon fill="none" stroke="black" points="246,-104 246,-123 380,-123 380,-104 246,-104"/>
<text text-anchor="middle" x="313" y="-111" font-family="Helvetica,sans-Serif" font-size="10.00">wmtk::simplex::vertices</text>
</a>
</g>
</g>
<!-- Node1&#45;&gt;Node4 -->
<g id="edge3" class="edge">
<title>Node1&#45;&gt;Node4</title>
<path fill="none" stroke="midnightblue" d="M168.08,-142.48C196.48,-136.76 228.35,-130.34 254.88,-125"/>
<polygon fill="midnightblue" stroke="midnightblue" points="255.65,-128.42 264.76,-123.01 254.27,-121.56 255.65,-128.42"/>
</g>
<!-- Node5 -->
<g id="node5" class="node">
<title>Node5</title>
<g id="a_node5"><a xlink:href="classwmtk_1_1simplex_1_1_simplex.html#ad2cc0340a0772b7d6f03ba7a781d1163" target="_top" xlink:title=" ">
<polygon fill="none" stroke="black" points="797,-189.5 797,-219.5 932,-219.5 932,-189.5 797,-189.5"/>
<text text-anchor="start" x="805" y="-207.5" font-family="Helvetica,sans-Serif" font-size="10.00">wmtk::simplex::Simplex</text>
<text text-anchor="middle" x="864.5" y="-196.5" font-family="Helvetica,sans-Serif" font-size="10.00">::primitive_type</text>
</a>
</g>
</g>
<!-- Node4&#45;&gt;Node5 -->
<g id="edge4" class="edge">
<title>Node4&#45;&gt;Node5</title>
<path fill="none" stroke="midnightblue" d="M361.43,-123.07C375.52,-126.14 390.94,-129.73 405,-133.5 488.77,-155.94 505.61,-177.35 591,-192.5 656.4,-204.1 731.95,-206.59 786.88,-206.47"/>
<polygon fill="midnightblue" stroke="midnightblue" points="786.91,-209.97 796.89,-206.42 786.87,-202.97 786.91,-209.97"/>
</g>
<!-- Node6 -->
<g id="node6" class="node">
<title>Node6</title>
<g id="a_node6"><a xlink:href="classwmtk_1_1_mesh.html#a965a8a24158c4aa8580c57ba09f885f7" target="_top" xlink:title="switch the orientation of the Tuple of the given dimension">
<polygon fill="none" stroke="black" points="619,-0.5 619,-30.5 733,-30.5 733,-0.5 619,-0.5"/>
<text text-anchor="start" x="627" y="-18.5" font-family="Helvetica,sans-Serif" font-size="10.00">wmtk::Mesh::switch</text>
<text text-anchor="middle" x="676" y="-7.5" font-family="Helvetica,sans-Serif" font-size="10.00">_tuple</text>
</a>
</g>
</g>
<!-- Node4&#45;&gt;Node6 -->
<g id="edge5" class="edge">
<title>Node4&#45;&gt;Node6</title>
<path fill="none" stroke="midnightblue" d="M337.57,-103.93C362.85,-93.91 404.3,-78.18 441,-67.5 496.84,-51.26 561.45,-37.25 608.61,-27.88"/>
<polygon fill="midnightblue" stroke="midnightblue" points="609.56,-31.26 618.7,-25.89 608.21,-24.39 609.56,-31.26"/>
</g>
<!-- Node7 -->
<g id="node7" class="node">
<title>Node7</title>
<g id="a_node7"><a xlink:href="classwmtk_1_1_mesh.html#a7f8a7b7d592fdbf672f2c6c9653487ea" target="_top" xlink:title=" ">
<polygon fill="none" stroke="black" points="441,-76.5 441,-106.5 555,-106.5 555,-76.5 441,-76.5"/>
<text text-anchor="start" x="449" y="-94.5" font-family="Helvetica,sans-Serif" font-size="10.00">wmtk::Mesh::switch</text>
<text text-anchor="middle" x="498" y="-83.5" font-family="Helvetica,sans-Serif" font-size="10.00">_tuples</text>
</a>
</g>
</g>
<!-- Node4&#45;&gt;Node7 -->
<g id="edge6" class="edge">
<title>Node4&#45;&gt;Node7</title>
<path fill="none" stroke="midnightblue" d="M380.07,-105.56C396.6,-103.57 414.34,-101.44 430.87,-99.45"/>
<polygon fill="midnightblue" stroke="midnightblue" points="431.48,-102.9 440.99,-98.23 430.64,-95.95 431.48,-102.9"/>
</g>
<!-- Node9 -->
<g id="node9" class="node">
<title>Node9</title>
<g id="a_node9"><a xlink:href="classwmtk_1_1simplex_1_1_simplex.html#a3650fd31ff1864285502dba66db3c73c" target="_top" xlink:title=" ">
<polygon fill="none" stroke="black" points="797,-127.5 797,-157.5 932,-157.5 932,-127.5 797,-127.5"/>
<text text-anchor="start" x="805" y="-145.5" font-family="Helvetica,sans-Serif" font-size="10.00">wmtk::simplex::Simplex</text>
<text text-anchor="middle" x="864.5" y="-134.5" font-family="Helvetica,sans-Serif" font-size="10.00">::tuple</text>
</a>
</g>
</g>
<!-- Node4&#45;&gt;Node9 -->
<g id="edge14" class="edge">
<title>Node4&#45;&gt;Node9</title>
<path fill="none" stroke="midnightblue" d="M380.01,-116.98C482.22,-122.38 678.28,-132.73 786.69,-138.45"/>
<polygon fill="midnightblue" stroke="midnightblue" points="786.74,-141.95 796.91,-138.99 787.1,-134.96 786.74,-141.95"/>
</g>
<!-- Node7&#45;&gt;Node6 -->
<g id="edge10" class="edge">
<title>Node7&#45;&gt;Node6</title>
<path fill="none" stroke="midnightblue" d="M527.18,-76.3C545.18,-66.87 569.16,-54.82 591,-45.5 600.29,-41.53 610.31,-37.64 620.07,-34.04"/>
<polygon fill="midnightblue" stroke="midnightblue" points="621.5,-37.24 629.71,-30.55 619.12,-30.66 621.5,-37.24"/>
</g>
<!-- Node8 -->
<g id="node8" class="node">
<title>Node8</title>
<g id="a_node8"><a xlink:href="classwmtk_1_1_mesh.html#a58bdbbfa0cd7bd9263241f6501db182a" target="_top" xlink:title="check if a simplex lies on a boundary or not">
<polygon fill="none" stroke="black" points="605,-164 605,-183 747,-183 747,-164 605,-164"/>
<text text-anchor="middle" x="676" y="-171" font-family="Helvetica,sans-Serif" font-size="10.00">wmtk::Mesh::is_boundary</text>
</a>
</g>
</g>
<!-- Node7&#45;&gt;Node8 -->
<g id="edge7" class="edge">
<title>Node7&#45;&gt;Node8</title>
<path fill="none" stroke="midnightblue" d="M531.28,-106.54C563.84,-121.71 613.68,-144.93 645.29,-159.66"/>
<polygon fill="midnightblue" stroke="midnightblue" points="643.93,-162.88 654.47,-163.94 646.89,-156.54 643.93,-162.88"/>
</g>
<!-- Node10 -->
<g id="node10" class="node">
<title>Node10</title>
<g id="a_node10"><a xlink:href="classwmtk_1_1_mesh.html#a933f681cf24a63b155c9462280385200" target="_top" xlink:title=" ">
<polygon fill="none" stroke="black" points="804,-65.5 804,-95.5 925,-95.5 925,-65.5 804,-65.5"/>
<text text-anchor="start" x="812" y="-83.5" font-family="Helvetica,sans-Serif" font-size="10.00">wmtk::Mesh::top_cell</text>
<text text-anchor="middle" x="864.5" y="-72.5" font-family="Helvetica,sans-Serif" font-size="10.00">_dimension</text>
</a>
</g>
</g>
<!-- Node7&#45;&gt;Node10 -->
<g id="edge11" class="edge">
<title>Node7&#45;&gt;Node10</title>
<path fill="none" stroke="midnightblue" d="M555.31,-82.27C567.07,-80.7 579.41,-79.31 591,-78.5 659.86,-73.66 738.76,-74.99 793.87,-77.02"/>
<polygon fill="midnightblue" stroke="midnightblue" points="793.75,-80.52 803.88,-77.41 794.02,-73.53 793.75,-80.52"/>
</g>
<!-- Node11 -->
<g id="node11" class="node">
<title>Node11</title>
<g id="a_node11"><a xlink:href="classwmtk_1_1_mesh.html#abaf00438d0700358b160e310d69725c9" target="_top" xlink:title=" ">
<polygon fill="none" stroke="black" points="591,-88 591,-107 761,-107 761,-88 591,-88"/>
<text text-anchor="middle" x="676" y="-95" font-family="Helvetica,sans-Serif" font-size="10.00">wmtk::Mesh::top_simplex_type</text>
</a>
</g>
</g>
<!-- Node7&#45;&gt;Node11 -->
<g id="edge12" class="edge">
<title>Node7&#45;&gt;Node11</title>
<path fill="none" stroke="midnightblue" d="M555.17,-93.41C563.34,-93.69 571.94,-93.99 580.61,-94.28"/>
<polygon fill="midnightblue" stroke="midnightblue" points="580.7,-97.79 590.82,-94.63 580.94,-90.79 580.7,-97.79"/>
</g>
<!-- Node8&#45;&gt;Node5 -->
<g id="edge8" class="edge">
<title>Node8&#45;&gt;Node5</title>
<path fill="none" stroke="midnightblue" d="M734.22,-183.01C750.78,-185.76 769.13,-188.81 786.68,-191.73"/>
<polygon fill="midnightblue" stroke="midnightblue" points="786.46,-195.24 796.9,-193.43 787.61,-188.34 786.46,-195.24"/>
</g>
<!-- Node8&#45;&gt;Node9 -->
<g id="edge9" class="edge">
<title>Node8&#45;&gt;Node9</title>
<path fill="none" stroke="midnightblue" d="M734.22,-163.99C750.78,-161.24 769.13,-158.19 786.68,-155.27"/>
<polygon fill="midnightblue" stroke="midnightblue" points="787.61,-158.66 796.9,-153.57 786.46,-151.76 787.61,-158.66"/>
</g>
<!-- Node11&#45;&gt;Node10 -->
<g id="edge13" class="edge">
<title>Node11&#45;&gt;Node10</title>
<path fill="none" stroke="midnightblue" d="M761.25,-89.82C772.15,-88.83 783.21,-87.82 793.84,-86.85"/>
<polygon fill="midnightblue" stroke="midnightblue" points="794.23,-90.33 803.88,-85.93 793.6,-83.36 794.23,-90.33"/>
</g>
</g>
</svg>
