<?xml version="1.0" encoding="UTF-8" standalone="no"?>
<!DOCTYPE svg PUBLIC "-//W3C//DTD SVG 1.1//EN"
 "http://www.w3.org/Graphics/SVG/1.1/DTD/svg11.dtd">
<!-- Generated by graphviz version 2.43.0 (0)
 -->
<!-- Title: wmtk::simplex::SimplexCollection::reserve Pages: 1 -->
<svg width="1430pt" height="755pt"
 viewBox="0.00 0.00 1430.00 754.50" xmlns="http://www.w3.org/2000/svg" xmlns:xlink="http://www.w3.org/1999/xlink">
<g id="graph0" class="graph" transform="scale(1 1) rotate(0) translate(4 750.5)">
<title>wmtk::simplex::SimplexCollection::reserve</title>
<!-- Node1 -->
<g id="node1" class="node">
<title>Node1</title>
<g id="a_node1"><a xlink:title=" ">
<polygon fill="#bfbfbf" stroke="black" points="1238,-457 1238,-487 1422,-487 1422,-457 1238,-457"/>
<text text-anchor="start" x="1246" y="-475" font-family="Helvetica,sans-Serif" font-size="10.00">wmtk::simplex::SimplexCollection</text>
<text text-anchor="middle" x="1330" y="-464" font-family="Helvetica,sans-Serif" font-size="10.00">::reserve</text>
</a>
</g>
</g>
<!-- Node2 -->
<g id="node2" class="node">
<title>Node2</title>
<g id="a_node2"><a xlink:href="namespacewmtk_1_1simplex.html#a2ed8f83fbda4dc05306bfe8d2ce7ab94" target="_top" xlink:title="The closed star contains the input simplex, all its top dimension cofaces, and their faces.">
<polygon fill="none" stroke="black" points="1051,-462.5 1051,-481.5 1202,-481.5 1202,-462.5 1051,-462.5"/>
<text text-anchor="middle" x="1126.5" y="-469.5" font-family="Helvetica,sans-Serif" font-size="10.00">wmtk::simplex::closed_star</text>
</a>
</g>
</g>
<!-- Node1&#45;&gt;Node2 -->
<g id="edge1" class="edge">
<title>Node1&#45;&gt;Node2</title>
<path fill="none" stroke="midnightblue" d="M1227.83,-472C1219.17,-472 1210.52,-472 1202.13,-472"/>
<polygon fill="midnightblue" stroke="midnightblue" points="1227.98,-475.5 1237.98,-472 1227.98,-468.5 1227.98,-475.5"/>
</g>
<!-- Node3 -->
<g id="node3" class="node">
<title>Node3</title>
<g id="a_node3"><a xlink:href="classwmtk_1_1operations_1_1_operation.html#af181d255eb0ef5297646e0dc9dc817a7" target="_top" xlink:title=" ">
<polygon fill="none" stroke="black" points="836.5,-689 836.5,-719 992.5,-719 992.5,-689 836.5,-689"/>
<text text-anchor="start" x="844.5" y="-707" font-family="Helvetica,sans-Serif" font-size="10.00">wmtk::operations::Operation</text>
<text text-anchor="middle" x="914.5" y="-696" font-family="Helvetica,sans-Serif" font-size="10.00">::apply_attribute_transfer</text>
</a>
</g>
</g>
<!-- Node2&#45;&gt;Node3 -->
<g id="edge2" class="edge">
<title>Node2&#45;&gt;Node3</title>
<path fill="none" stroke="midnightblue" d="M1120.88,-491.64C1110.05,-533.23 1078.94,-630.42 1015,-680 1008.33,-685.17 1000.71,-689.25 992.72,-692.46"/>
<polygon fill="midnightblue" stroke="midnightblue" points="1124.34,-492.23 1123.36,-481.68 1117.55,-490.54 1124.34,-492.23"/>
</g>
<!-- Node6 -->
<g id="node6" class="node">
<title>Node6</title>
<g id="a_node6"><a xlink:href="classwmtk_1_1_tri_mesh_1_1_tri_mesh_operation_executor.html#a89f4f801e8e99648fcad59e11e8595b4" target="_top" xlink:title=" ">
<polygon fill="none" stroke="black" points="814,-640 814,-670 1015,-670 1015,-640 814,-640"/>
<text text-anchor="start" x="822" y="-658" font-family="Helvetica,sans-Serif" font-size="10.00">wmtk::TriMesh::TriMeshOperation</text>
<text text-anchor="middle" x="914.5" y="-647" font-family="Helvetica,sans-Serif" font-size="10.00">Executor::collapse_edge_single_mesh</text>
</a>
</g>
</g>
<!-- Node2&#45;&gt;Node6 -->
<g id="edge5" class="edge">
<title>Node2&#45;&gt;Node6</title>
<path fill="none" stroke="midnightblue" d="M1117.65,-491.34C1102.86,-525.19 1067.57,-595.03 1015,-631 1010.01,-634.41 1004.6,-637.34 998.95,-639.85"/>
<polygon fill="midnightblue" stroke="midnightblue" points="1121.05,-492.27 1121.72,-481.69 1114.6,-489.54 1121.05,-492.27"/>
</g>
<!-- Node7 -->
<g id="node7" class="node">
<title>Node7</title>
<g id="a_node7"><a xlink:href="namespacewmtk_1_1mesh__utils.html#ace9d707a188783f870a878d0623418d0" target="_top" xlink:title="compute the normalized vertex normal from the incident area weighted face normals">
<polygon fill="none" stroke="black" points="838.5,-591 838.5,-621 990.5,-621 990.5,-591 838.5,-591"/>
<text text-anchor="start" x="846.5" y="-609" font-family="Helvetica,sans-Serif" font-size="10.00">wmtk::mesh_utils::compute</text>
<text text-anchor="middle" x="914.5" y="-598" font-family="Helvetica,sans-Serif" font-size="10.00">_vertex_normal</text>
</a>
</g>
</g>
<!-- Node2&#45;&gt;Node7 -->
<g id="edge6" class="edge">
<title>Node2&#45;&gt;Node7</title>
<path fill="none" stroke="midnightblue" d="M1112.73,-489.81C1094.1,-514.43 1057.08,-558.47 1015,-582 1007.4,-586.25 999.06,-589.75 990.55,-592.64"/>
<polygon fill="midnightblue" stroke="midnightblue" points="1115.6,-491.82 1118.73,-481.69 1109.97,-487.65 1115.6,-491.82"/>
</g>
<!-- Node9 -->
<g id="node9" class="node">
<title>Node9</title>
<g id="a_node9"><a xlink:href="classwmtk_1_1operations_1_1composite_1_1_tet_edge_swap.html#aad043bd04d267b27038ff4e824aed8e0" target="_top" xlink:title="returns an empty vector in case of failure">
<polygon fill="none" stroke="black" points="835,-542 835,-572 994,-572 994,-542 835,-542"/>
<text text-anchor="start" x="843" y="-560" font-family="Helvetica,sans-Serif" font-size="10.00">wmtk::operations::composite</text>
<text text-anchor="middle" x="914.5" y="-549" font-family="Helvetica,sans-Serif" font-size="10.00">::TetEdgeSwap::execute</text>
</a>
</g>
</g>
<!-- Node2&#45;&gt;Node9 -->
<g id="edge8" class="edge">
<title>Node2&#45;&gt;Node9</title>
<path fill="none" stroke="midnightblue" d="M1102.14,-486.94C1080.33,-500.34 1046.5,-519.72 1015,-532 1005.46,-535.72 995.18,-539.03 984.99,-541.93"/>
<polygon fill="midnightblue" stroke="midnightblue" points="1104.07,-489.86 1110.71,-481.6 1100.37,-483.92 1104.07,-489.86"/>
</g>
<!-- Node10 -->
<g id="node10" class="node">
<title>Node10</title>
<g id="a_node10"><a xlink:href="classwmtk_1_1_tet_mesh_1_1_tet_mesh_operation_executor.html#a86e6f877419cd3489a5b223b5b8bb094" target="_top" xlink:title="gather all simplices that are deleted in a collapse">
<polygon fill="none" stroke="black" points="822,-481.5 822,-522.5 1007,-522.5 1007,-481.5 822,-481.5"/>
<text text-anchor="start" x="830" y="-510.5" font-family="Helvetica,sans-Serif" font-size="10.00">wmtk::TetMesh::TetMeshOperation</text>
<text text-anchor="start" x="830" y="-499.5" font-family="Helvetica,sans-Serif" font-size="10.00">Executor::get_collapse_simplices</text>
<text text-anchor="middle" x="914.5" y="-488.5" font-family="Helvetica,sans-Serif" font-size="10.00">_to_delete</text>
</a>
</g>
</g>
<!-- Node2&#45;&gt;Node10 -->
<g id="edge9" class="edge">
<title>Node2&#45;&gt;Node10</title>
<path fill="none" stroke="midnightblue" d="M1048.58,-482.99C1035.06,-484.92 1020.87,-486.95 1007,-488.93"/>
<polygon fill="midnightblue" stroke="midnightblue" points="1049.36,-486.41 1058.77,-481.53 1048.37,-479.48 1049.36,-486.41"/>
</g>
<!-- Node11 -->
<g id="node11" class="node">
<title>Node11</title>
<g id="a_node11"><a xlink:href="classwmtk_1_1_tri_mesh_1_1_tri_mesh_operation_executor.html#a17977fc07ce1f6618c8dd6e5cef42e6e" target="_top" xlink:title="gather all simplices that are deleted in a collapse">
<polygon fill="none" stroke="black" points="825,-421.5 825,-462.5 1004,-462.5 1004,-421.5 825,-421.5"/>
<text text-anchor="start" x="833" y="-450.5" font-family="Helvetica,sans-Serif" font-size="10.00">wmtk::TriMesh::TriMeshOperation</text>
<text text-anchor="start" x="833" y="-439.5" font-family="Helvetica,sans-Serif" font-size="10.00">Executor::get_collapse_simplices</text>
<text text-anchor="middle" x="914.5" y="-428.5" font-family="Helvetica,sans-Serif" font-size="10.00">_to_delete</text>
</a>
</g>
</g>
<!-- Node2&#45;&gt;Node11 -->
<g id="edge10" class="edge">
<title>Node2&#45;&gt;Node11</title>
<path fill="none" stroke="midnightblue" d="M1048.47,-461C1034.11,-458.94 1019.01,-456.79 1004.34,-454.69"/>
<polygon fill="midnightblue" stroke="midnightblue" points="1048.37,-464.52 1058.77,-462.47 1049.36,-457.59 1048.37,-464.52"/>
</g>
<!-- Node12 -->
<g id="node12" class="node">
<title>Node12</title>
<g id="a_node12"><a xlink:href="namespacewmtk_1_1simplex.html#ab9fe71cf495e974936cc882fe96a596e" target="_top" xlink:title=" ">
<polygon fill="none" stroke="black" points="847,-372 847,-402 982,-402 982,-372 847,-372"/>
<text text-anchor="start" x="855" y="-390" font-family="Helvetica,sans-Serif" font-size="10.00">wmtk::simplex::link</text>
<text text-anchor="middle" x="914.5" y="-379" font-family="Helvetica,sans-Serif" font-size="10.00">_single_dimension_slow</text>
</a>
</g>
</g>
<!-- Node2&#45;&gt;Node12 -->
<g id="edge11" class="edge">
<title>Node2&#45;&gt;Node12</title>
<path fill="none" stroke="midnightblue" d="M1102.14,-457.06C1080.33,-443.66 1046.5,-424.28 1015,-412 1004.55,-407.92 993.21,-404.34 982.06,-401.25"/>
<polygon fill="midnightblue" stroke="midnightblue" points="1100.37,-460.08 1110.71,-462.4 1104.07,-454.14 1100.37,-460.08"/>
</g>
<!-- Node14 -->
<g id="node14" class="node">
<title>Node14</title>
<g id="a_node14"><a xlink:href="namespacewmtk_1_1simplex.html#a50d0026adbac4883ab00460ada1c1cfe" target="_top" xlink:title=" ">
<polygon fill="none" stroke="black" points="844,-333.5 844,-352.5 985,-352.5 985,-333.5 844,-333.5"/>
<text text-anchor="middle" x="914.5" y="-340.5" font-family="Helvetica,sans-Serif" font-size="10.00">wmtk::simplex::link_slow</text>
</a>
</g>
</g>
<!-- Node2&#45;&gt;Node14 -->
<g id="edge13" class="edge">
<title>Node2&#45;&gt;Node14</title>
<path fill="none" stroke="midnightblue" d="M1112.81,-454.13C1094.28,-429.47 1057.39,-385.52 1015,-363 1005.74,-358.08 995.41,-354.37 985.01,-351.57"/>
<polygon fill="midnightblue" stroke="midnightblue" points="1110.04,-456.27 1118.78,-462.27 1115.69,-452.13 1110.04,-456.27"/>
</g>
<!-- Node40 -->
<g id="node40" class="node">
<title>Node40</title>
<g id="a_node40"><a xlink:href="namespacewmtk_1_1operations_1_1utils.html#a62fab811bf86bb7a2702f63304574002" target="_top" xlink:title=" ">
<polygon fill="none" stroke="black" points="842,-273.5 842,-314.5 987,-314.5 987,-273.5 842,-273.5"/>
<text text-anchor="start" x="850" y="-302.5" font-family="Helvetica,sans-Serif" font-size="10.00">wmtk::operations::utils</text>
<text text-anchor="start" x="850" y="-291.5" font-family="Helvetica,sans-Serif" font-size="10.00">::update_vertex_operation</text>
<text text-anchor="middle" x="914.5" y="-280.5" font-family="Helvetica,sans-Serif" font-size="10.00">_hashes</text>
</a>
</g>
</g>
<!-- Node2&#45;&gt;Node40 -->
<g id="edge41" class="edge">
<title>Node2&#45;&gt;Node40</title>
<path fill="none" stroke="midnightblue" d="M1116.62,-453.39C1100.7,-421.98 1064.29,-358.53 1015,-324 1006.58,-318.1 996.97,-313.34 987.13,-309.5"/>
<polygon fill="midnightblue" stroke="midnightblue" points="1113.5,-454.96 1121.06,-462.38 1119.77,-451.86 1113.5,-454.96"/>
</g>
<!-- Node41 -->
<g id="node41" class="node">
<title>Node41</title>
<g id="a_node41"><a xlink:href="classwmtk_1_1multimesh_1_1_multi_mesh_manager.html#af971c830121bdd645f1bf3fc28aa76dd" target="_top" xlink:title="update all the hashes of the top&#45;simplces of the parent mesh around a vertex hashes of the parent tup...">
<polygon fill="none" stroke="black" points="834.5,-213.5 834.5,-254.5 994.5,-254.5 994.5,-213.5 834.5,-213.5"/>
<text text-anchor="start" x="842.5" y="-242.5" font-family="Helvetica,sans-Serif" font-size="10.00">wmtk::multimesh::MultiMesh</text>
<text text-anchor="start" x="842.5" y="-231.5" font-family="Helvetica,sans-Serif" font-size="10.00">Manager::update_vertex</text>
<text text-anchor="middle" x="914.5" y="-220.5" font-family="Helvetica,sans-Serif" font-size="10.00">_operation_hashes_internal</text>
</a>
</g>
</g>
<!-- Node2&#45;&gt;Node41 -->
<g id="edge42" class="edge">
<title>Node2&#45;&gt;Node41</title>
<path fill="none" stroke="midnightblue" d="M1120.66,-452.63C1109.41,-411.58 1077.52,-315.35 1015,-264 1008.87,-258.96 1001.9,-254.77 994.57,-251.28"/>
<polygon fill="midnightblue" stroke="midnightblue" points="1117.32,-453.68 1123.25,-462.46 1124.09,-451.9 1117.32,-453.68"/>
</g>
<!-- Node4 -->
<g id="node4" class="node">
<title>Node4</title>
<g id="a_node4"><a xlink:href="classwmtk_1_1operations_1_1_operation.html#a9c6426d34b54642aacb28e7cf93e328f" target="_top" xlink:title=" ">
<polygon fill="none" stroke="black" points="622,-716 622,-746 778,-746 778,-716 622,-716"/>
<text text-anchor="start" x="630" y="-734" font-family="Helvetica,sans-Serif" font-size="10.00">wmtk::operations::Operation</text>
<text text-anchor="middle" x="700" y="-723" font-family="Helvetica,sans-Serif" font-size="10.00">::operator()</text>
</a>
</g>
</g>
<!-- Node3&#45;&gt;Node4 -->
<g id="edge3" class="edge">
<title>Node3&#45;&gt;Node4</title>
<path fill="none" stroke="midnightblue" d="M826.12,-715.1C810.21,-717.12 793.7,-719.22 778.11,-721.2"/>
<polygon fill="midnightblue" stroke="midnightblue" points="827,-718.52 836.48,-713.79 826.12,-711.57 827,-718.52"/>
</g>
<!-- Node5 -->
<g id="node5" class="node">
<title>Node5</title>
<g id="a_node5"><a xlink:href="classwmtk_1_1operations_1_1_operation_sequence.html#a547ec2a6ed8a354eff76e733b2e7fb2c" target="_top" xlink:title=" ">
<polygon fill="none" stroke="black" points="622,-667 622,-697 778,-697 778,-667 622,-667"/>
<text text-anchor="start" x="630" y="-685" font-family="Helvetica,sans-Serif" font-size="10.00">wmtk::operations::Operation</text>
<text text-anchor="middle" x="700" y="-674" font-family="Helvetica,sans-Serif" font-size="10.00">Sequence::operator()</text>
</a>
</g>
</g>
<!-- Node3&#45;&gt;Node5 -->
<g id="edge4" class="edge">
<title>Node3&#45;&gt;Node5</title>
<path fill="none" stroke="midnightblue" d="M826.12,-694.95C810.21,-693.31 793.7,-691.6 778.11,-689.98"/>
<polygon fill="midnightblue" stroke="midnightblue" points="826.17,-698.48 836.48,-696.03 826.9,-691.52 826.17,-698.48"/>
</g>
<!-- Node8 -->
<g id="node8" class="node">
<title>Node8</title>
<g id="a_node8"><a xlink:href="classwmtk_1_1operations_1_1_vertex_tangential_laplacian_smooth.html#a6bdafc81c42b34cdafe1b229217d819c" target="_top" xlink:title=" ">
<polygon fill="none" stroke="black" points="624.5,-585.5 624.5,-626.5 775.5,-626.5 775.5,-585.5 624.5,-585.5"/>
<text text-anchor="start" x="632.5" y="-614.5" font-family="Helvetica,sans-Serif" font-size="10.00">wmtk::operations::Vertex</text>
<text text-anchor="start" x="632.5" y="-603.5" font-family="Helvetica,sans-Serif" font-size="10.00">TangentialLaplacianSmooth</text>
<text text-anchor="middle" x="700" y="-592.5" font-family="Helvetica,sans-Serif" font-size="10.00">::operator()</text>
</a>
</g>
</g>
<!-- Node7&#45;&gt;Node8 -->
<g id="edge7" class="edge">
<title>Node7&#45;&gt;Node8</title>
<path fill="none" stroke="midnightblue" d="M828.17,-606C810.83,-606 792.71,-606 775.76,-606"/>
<polygon fill="midnightblue" stroke="midnightblue" points="828.28,-609.5 838.28,-606 828.28,-602.5 828.28,-609.5"/>
</g>
<!-- Node13 -->
<g id="node13" class="node">
<title>Node13</title>
<g id="a_node13"><a xlink:href="namespacewmtk_1_1simplex.html#a867591ecfe758ade38e03561223ac20f" target="_top" xlink:title=" ">
<polygon fill="none" stroke="black" points="643.5,-372 643.5,-402 756.5,-402 756.5,-372 643.5,-372"/>
<text text-anchor="start" x="651.5" y="-390" font-family="Helvetica,sans-Serif" font-size="10.00">wmtk::simplex::link</text>
<text text-anchor="middle" x="700" y="-379" font-family="Helvetica,sans-Serif" font-size="10.00">_single_dimension</text>
</a>
</g>
</g>
<!-- Node12&#45;&gt;Node13 -->
<g id="edge12" class="edge">
<title>Node12&#45;&gt;Node13</title>
<path fill="none" stroke="midnightblue" d="M836.84,-387C810.35,-387 781.2,-387 756.71,-387"/>
<polygon fill="midnightblue" stroke="midnightblue" points="836.85,-390.5 846.85,-387 836.85,-383.5 836.85,-390.5"/>
</g>
<!-- Node15 -->
<g id="node15" class="node">
<title>Node15</title>
<g id="a_node15"><a xlink:href="namespacewmtk_1_1simplex.html#a3260444c136dbe145679b762c52f6a16" target="_top" xlink:title=" ">
<polygon fill="none" stroke="black" points="643.5,-333.5 643.5,-352.5 756.5,-352.5 756.5,-333.5 643.5,-333.5"/>
<text text-anchor="middle" x="700" y="-340.5" font-family="Helvetica,sans-Serif" font-size="10.00">wmtk::simplex::link</text>
</a>
</g>
</g>
<!-- Node14&#45;&gt;Node15 -->
<g id="edge14" class="edge">
<title>Node14&#45;&gt;Node15</title>
<path fill="none" stroke="midnightblue" d="M833.81,-343C808.1,-343 780.18,-343 756.6,-343"/>
<polygon fill="midnightblue" stroke="midnightblue" points="833.92,-346.5 843.92,-343 833.92,-339.5 833.92,-346.5"/>
</g>
<!-- Node16 -->
<g id="node16" class="node">
<title>Node16</title>
<g id="a_node16"><a xlink:href="namespacewmtk_1_1components_1_1internal.html#a919ba35151931f21305c895ea3d52a2b" target="_top" xlink:title=" ">
<polygon fill="none" stroke="black" points="422.5,-701 422.5,-731 576.5,-731 576.5,-701 422.5,-701"/>
<text text-anchor="start" x="430.5" y="-719" font-family="Helvetica,sans-Serif" font-size="10.00">wmtk::components::internal</text>
<text text-anchor="middle" x="499.5" y="-708" font-family="Helvetica,sans-Serif" font-size="10.00">::adjust_sizing_field</text>
</a>
</g>
</g>
<!-- Node15&#45;&gt;Node16 -->
<g id="edge15" class="edge">
<title>Node15&#45;&gt;Node16</title>
<path fill="none" stroke="midnightblue" d="M634.2,-353.1C629.63,-355.74 625.47,-358.99 622,-363 527.43,-472.18 675.94,-572.98 586,-686 581.1,-692.15 574.86,-697.05 567.98,-700.94"/>
<polygon fill="midnightblue" stroke="midnightblue" points="635.86,-356.18 643.41,-348.75 632.87,-349.85 635.86,-356.18"/>
</g>
<!-- Node19 -->
<g id="node19" class="node">
<title>Node19</title>
<g id="a_node19"><a xlink:href="namespacewmtk_1_1components.html#a16475fcf3c7cd34eedc9f49d036dde97" target="_top" xlink:title=" ">
<polygon fill="none" stroke="black" points="223,-545 223,-575 369,-575 369,-545 223,-545"/>
<text text-anchor="start" x="231" y="-563" font-family="Helvetica,sans-Serif" font-size="10.00">wmtk::components::adjust</text>
<text text-anchor="middle" x="296" y="-552" font-family="Helvetica,sans-Serif" font-size="10.00">_sizing_field</text>
</a>
</g>
</g>
<!-- Node15&#45;&gt;Node19 -->
<g id="edge18" class="edge">
<title>Node15&#45;&gt;Node19</title>
<path fill="none" stroke="midnightblue" d="M634.26,-353.15C629.68,-355.77 625.5,-359.01 622,-363 536.35,-460.64 683.33,-567 586,-653 528.38,-703.91 485.54,-678.49 413,-653 368.92,-637.51 329.19,-597.44 309.69,-575.28"/>
<polygon fill="midnightblue" stroke="midnightblue" points="635.92,-356.23 643.48,-348.81 632.94,-349.9 635.92,-356.23"/>
</g>
<!-- Node21 -->
<g id="node21" class="node">
<title>Node21</title>
<g id="a_node21"><a xlink:href="classwmtk_1_1invariants_1_1_tet_mesh_substructure_topology_preserving_invariant.html#a30e554417dfffcaedce3a167b351173b" target="_top" xlink:title=" ">
<polygon fill="none" stroke="black" points="413,-602.5 413,-643.5 586,-643.5 586,-602.5 413,-602.5"/>
<text text-anchor="start" x="421" y="-631.5" font-family="Helvetica,sans-Serif" font-size="10.00">wmtk::invariants::TetMesh</text>
<text text-anchor="start" x="421" y="-620.5" font-family="Helvetica,sans-Serif" font-size="10.00">SubstructureTopologyPreserving</text>
<text text-anchor="middle" x="499.5" y="-609.5" font-family="Helvetica,sans-Serif" font-size="10.00">Invariant::before</text>
</a>
</g>
</g>
<!-- Node15&#45;&gt;Node21 -->
<g id="edge20" class="edge">
<title>Node15&#45;&gt;Node21</title>
<path fill="none" stroke="midnightblue" d="M634.17,-353.39C629.65,-355.97 625.5,-359.13 622,-363 552.54,-439.69 652.2,-513.49 586,-593 583.08,-596.51 579.73,-599.6 576.07,-602.34"/>
<polygon fill="midnightblue" stroke="midnightblue" points="635.71,-356.54 643.27,-349.11 632.73,-350.2 635.71,-356.54"/>
</g>
<!-- Node22 -->
<g id="node22" class="node">
<title>Node22</title>
<g id="a_node22"><a xlink:href="classwmtk_1_1invariants_1_1_tri_mesh_substructure_topology_preserving_invariant.html#a7bafc4a52c4d8cbfadee5edd24cbe01f" target="_top" xlink:title=" ">
<polygon fill="none" stroke="black" points="413,-542.5 413,-583.5 586,-583.5 586,-542.5 413,-542.5"/>
<text text-anchor="start" x="421" y="-571.5" font-family="Helvetica,sans-Serif" font-size="10.00">wmtk::invariants::TriMesh</text>
<text text-anchor="start" x="421" y="-560.5" font-family="Helvetica,sans-Serif" font-size="10.00">SubstructureTopologyPreserving</text>
<text text-anchor="middle" x="499.5" y="-549.5" font-family="Helvetica,sans-Serif" font-size="10.00">Invariant::before</text>
</a>
</g>
</g>
<!-- Node15&#45;&gt;Node22 -->
<g id="edge21" class="edge">
<title>Node15&#45;&gt;Node22</title>
<path fill="none" stroke="midnightblue" d="M633.83,-353.92C629.48,-356.39 625.46,-359.38 622,-363 568.64,-418.84 636.98,-474.99 586,-533 582.88,-536.54 579.33,-539.67 575.47,-542.43"/>
<polygon fill="midnightblue" stroke="midnightblue" points="635.6,-356.95 643.16,-349.53 632.62,-350.61 635.6,-356.95"/>
</g>
<!-- Node23 -->
<g id="node23" class="node">
<title>Node23</title>
<g id="a_node23"><a xlink:href="classwmtk_1_1invariants_1_1_valence_improvement_invariant.html#ac2f6805f4a5bfc3aba4f0c2169e03a99" target="_top" xlink:title=" ">
<polygon fill="none" stroke="black" points="417.5,-493 417.5,-523 581.5,-523 581.5,-493 417.5,-493"/>
<text text-anchor="start" x="425.5" y="-511" font-family="Helvetica,sans-Serif" font-size="10.00">wmtk::invariants::Valence</text>
<text text-anchor="middle" x="499.5" y="-500" font-family="Helvetica,sans-Serif" font-size="10.00">ImprovementInvariant::before</text>
</a>
</g>
</g>
<!-- Node15&#45;&gt;Node23 -->
<g id="edge22" class="edge">
<title>Node15&#45;&gt;Node23</title>
<path fill="none" stroke="midnightblue" d="M633.94,-354.36C629.59,-356.74 625.54,-359.59 622,-363 581.9,-401.63 625.51,-443.76 586,-483 582.16,-486.81 577.77,-490.05 573.06,-492.8"/>
<polygon fill="midnightblue" stroke="midnightblue" points="635.57,-357.46 643.2,-350.11 632.65,-351.09 635.57,-357.46"/>
</g>
<!-- Node24 -->
<g id="node24" class="node">
<title>Node24</title>
<g id="a_node24"><a xlink:href="classwmtk_1_1operations_1_1_tet_wild_tangential_laplacian_smoothing.html#a3bf44ec8f70e02db3be952687f922396" target="_top" xlink:title="returns an empty vector in case of failure">
<polygon fill="none" stroke="black" points="416.5,-432.5 416.5,-473.5 582.5,-473.5 582.5,-432.5 416.5,-432.5"/>
<text text-anchor="start" x="424.5" y="-461.5" font-family="Helvetica,sans-Serif" font-size="10.00">wmtk::operations::TetWild</text>
<text text-anchor="start" x="424.5" y="-450.5" font-family="Helvetica,sans-Serif" font-size="10.00">TangentialLaplacianSmoothing</text>
<text text-anchor="middle" x="499.5" y="-439.5" font-family="Helvetica,sans-Serif" font-size="10.00">::execute</text>
</a>
</g>
</g>
<!-- Node15&#45;&gt;Node24 -->
<g id="edge23" class="edge">
<title>Node15&#45;&gt;Node24</title>
<path fill="none" stroke="midnightblue" d="M633.8,-355.88C629.63,-357.92 625.64,-360.27 622,-363 597.1,-381.63 610.1,-403.35 586,-423 581.73,-426.48 577.03,-429.57 572.1,-432.31"/>
<polygon fill="midnightblue" stroke="midnightblue" points="635.33,-359.03 643.18,-351.92 632.61,-352.59 635.33,-359.03"/>
</g>
<!-- Node25 -->
<g id="node25" class="node">
<title>Node25</title>
<g id="a_node25"><a xlink:href="classwmtk_1_1function_1_1_edge_valence_energy.html#af25dd9d07e1f9d18c92c7a3395f271c1" target="_top" xlink:title="This function is defined over a simplex (normally a triangle or tetrahedron).">
<polygon fill="none" stroke="black" points="420.5,-383 420.5,-413 578.5,-413 578.5,-383 420.5,-383"/>
<text text-anchor="start" x="428.5" y="-401" font-family="Helvetica,sans-Serif" font-size="10.00">wmtk::function::EdgeValence</text>
<text text-anchor="middle" x="499.5" y="-390" font-family="Helvetica,sans-Serif" font-size="10.00">Energy::get_value</text>
</a>
</g>
</g>
<!-- Node15&#45;&gt;Node25 -->
<g id="edge24" class="edge">
<title>Node15&#45;&gt;Node25</title>
<path fill="none" stroke="midnightblue" d="M651.4,-355.15C641.66,-357.7 631.49,-360.4 622,-363 598.82,-369.35 573.24,-376.67 551.55,-382.97"/>
<polygon fill="midnightblue" stroke="midnightblue" points="652.55,-358.47 661.35,-352.57 650.79,-351.7 652.55,-358.47"/>
</g>
<!-- Node26 -->
<g id="node26" class="node">
<title>Node26</title>
<g id="a_node26"><a xlink:href="classwmtk_1_1invariants_1_1_min_incident_valence_invariant.html#a03c779db7485cb3e628da2c6162af6b1" target="_top" xlink:title=" ">
<polygon fill="none" stroke="black" points="418.5,-322.5 418.5,-363.5 580.5,-363.5 580.5,-322.5 418.5,-322.5"/>
<text text-anchor="start" x="426.5" y="-351.5" font-family="Helvetica,sans-Serif" font-size="10.00">wmtk::invariants::MinIncident</text>
<text text-anchor="start" x="426.5" y="-340.5" font-family="Helvetica,sans-Serif" font-size="10.00">ValenceInvariant::is_greater</text>
<text text-anchor="middle" x="499.5" y="-329.5" font-family="Helvetica,sans-Serif" font-size="10.00">_min_valence</text>
</a>
</g>
</g>
<!-- Node15&#45;&gt;Node26 -->
<g id="edge25" class="edge">
<title>Node15&#45;&gt;Node26</title>
<path fill="none" stroke="midnightblue" d="M633.16,-343C616.31,-343 598.01,-343 580.53,-343"/>
<polygon fill="midnightblue" stroke="midnightblue" points="633.44,-346.5 643.44,-343 633.44,-339.5 633.44,-346.5"/>
</g>
<!-- Node29 -->
<g id="node29" class="node">
<title>Node29</title>
<g id="a_node29"><a xlink:href="namespacewmtk_1_1simplex.html#aaf868371b90dc2c2a009e7a6832cd7f9" target="_top" xlink:title=" ">
<polygon fill="none" stroke="black" points="437,-246.5 437,-265.5 562,-265.5 562,-246.5 437,-246.5"/>
<text text-anchor="middle" x="499.5" y="-253.5" font-family="Helvetica,sans-Serif" font-size="10.00">wmtk::simplex::k_ring</text>
</a>
</g>
</g>
<!-- Node15&#45;&gt;Node29 -->
<g id="edge28" class="edge">
<title>Node15&#45;&gt;Node29</title>
<path fill="none" stroke="midnightblue" d="M675.84,-327.95C653.55,-313.99 618.52,-293.41 586,-280 572.03,-274.24 556.23,-269.37 542.04,-265.56"/>
<polygon fill="midnightblue" stroke="midnightblue" points="674.25,-331.09 684.57,-333.49 678,-325.18 674.25,-331.09"/>
</g>
<!-- Node30 -->
<g id="node30" class="node">
<title>Node30</title>
<g id="a_node30"><a xlink:href="classwmtk_1_1_scheduler.html#a4f7598112b7e77f3432f22427c7fdfb8" target="_top" xlink:title=" ">
<polygon fill="none" stroke="black" points="222.5,-290 222.5,-320 369.5,-320 369.5,-290 222.5,-290"/>
<text text-anchor="start" x="230.5" y="-308" font-family="Helvetica,sans-Serif" font-size="10.00">wmtk::Scheduler::run</text>
<text text-anchor="middle" x="296" y="-297" font-family="Helvetica,sans-Serif" font-size="10.00">_operation_on_all_coloring</text>
</a>
</g>
</g>
<!-- Node15&#45;&gt;Node30 -->
<g id="edge38" class="edge">
<title>Node15&#45;&gt;Node30</title>
<path fill="none" stroke="midnightblue" d="M660.78,-330.49C639.1,-323.99 611.32,-316.66 586,-313 512.85,-302.42 428.24,-301.37 369.55,-302.38"/>
<polygon fill="midnightblue" stroke="midnightblue" points="660,-333.91 670.58,-333.49 662.05,-327.21 660,-333.91"/>
</g>
<!-- Node33 -->
<g id="node33" class="node">
<title>Node33</title>
<g id="a_node33"><a xlink:href="namespacewmtk_1_1simplex.html#a428755c0a4c93af10690b6828a3c79f5" target="_top" xlink:title=" ">
<polygon fill="none" stroke="black" points="425,-197 425,-227 574,-227 574,-197 425,-197"/>
<text text-anchor="start" x="433" y="-215" font-family="Helvetica,sans-Serif" font-size="10.00">wmtk::simplex::link</text>
<text text-anchor="middle" x="499.5" y="-204" font-family="Helvetica,sans-Serif" font-size="10.00">_condition_closed_tetmesh</text>
</a>
</g>
</g>
<!-- Node15&#45;&gt;Node33 -->
<g id="edge33" class="edge">
<title>Node15&#45;&gt;Node33</title>
<path fill="none" stroke="midnightblue" d="M684.95,-325.43C665.25,-301.94 627.19,-260.53 586,-237 579.29,-233.16 571.93,-229.87 564.45,-227.06"/>
<polygon fill="midnightblue" stroke="midnightblue" points="682.29,-327.71 691.35,-333.21 687.7,-323.26 682.29,-327.71"/>
</g>
<!-- Node35 -->
<g id="node35" class="node">
<title>Node35</title>
<g id="a_node35"><a xlink:href="namespacewmtk_1_1simplex.html#a3b3266f811539b7df8d85a51552bc1f7" target="_top" xlink:title=" ">
<polygon fill="none" stroke="black" points="426.5,-148 426.5,-178 572.5,-178 572.5,-148 426.5,-148"/>
<text text-anchor="start" x="434.5" y="-166" font-family="Helvetica,sans-Serif" font-size="10.00">wmtk::simplex::link</text>
<text text-anchor="middle" x="499.5" y="-155" font-family="Helvetica,sans-Serif" font-size="10.00">_condition_closed_trimesh</text>
</a>
</g>
</g>
<!-- Node15&#45;&gt;Node35 -->
<g id="edge35" class="edge">
<title>Node15&#45;&gt;Node35</title>
<path fill="none" stroke="midnightblue" d="M681.12,-326.06C664.48,-309.69 639.65,-283.66 622,-258 601.95,-228.85 613.34,-209.46 586,-187 581.83,-183.58 577.2,-180.64 572.32,-178.12"/>
<polygon fill="midnightblue" stroke="midnightblue" points="678.95,-328.84 688.57,-333.28 683.82,-323.81 678.95,-328.84"/>
</g>
<!-- Node37 -->
<g id="node37" class="node">
<title>Node37</title>
<g id="a_node37"><a xlink:href="classwmtk_1_1operations_1_1_vertex_laplacian_smooth.html#a22b68bed2c372520db2e828fcb226797" target="_top" xlink:title=" ">
<polygon fill="none" stroke="black" points="422,-99 422,-129 577,-129 577,-99 422,-99"/>
<text text-anchor="start" x="430" y="-117" font-family="Helvetica,sans-Serif" font-size="10.00">wmtk::operations::Vertex</text>
<text text-anchor="middle" x="499.5" y="-106" font-family="Helvetica,sans-Serif" font-size="10.00">LaplacianSmooth::operator()</text>
</a>
</g>
</g>
<!-- Node15&#45;&gt;Node37 -->
<g id="edge37" class="edge">
<title>Node15&#45;&gt;Node37</title>
<path fill="none" stroke="midnightblue" d="M679.77,-326.47C662.37,-310.55 637.22,-284.97 622,-258 594.64,-209.51 625.72,-177.02 586,-138 582.48,-134.54 578.5,-131.57 574.24,-129.03"/>
<polygon fill="midnightblue" stroke="midnightblue" points="677.82,-329.42 687.61,-333.47 682.48,-324.2 677.82,-329.42"/>
</g>
<!-- Node38 -->
<g id="node38" class="node">
<title>Node38</title>
<g id="a_node38"><a xlink:href="namespacewmtk_1_1components.html#a4eb70b5440518ea86de4ae32116cd345" target="_top" xlink:title=" ">
<polygon fill="none" stroke="black" points="432,-38.5 432,-79.5 567,-79.5 567,-38.5 432,-38.5"/>
<text text-anchor="start" x="440" y="-67.5" font-family="Helvetica,sans-Serif" font-size="10.00">wmtk::components::set</text>
<text text-anchor="start" x="440" y="-56.5" font-family="Helvetica,sans-Serif" font-size="10.00">_operation_energy_filter</text>
<text text-anchor="middle" x="499.5" y="-45.5" font-family="Helvetica,sans-Serif" font-size="10.00">_after_sizing_field</text>
</a>
</g>
</g>
<!-- Node15&#45;&gt;Node38 -->
<g id="edge39" class="edge">
<title>Node15&#45;&gt;Node38</title>
<path fill="none" stroke="midnightblue" d="M678.96,-326.48C661.22,-310.74 636.03,-285.42 622,-258 587.02,-189.63 636.73,-146.65 586,-89 580.8,-83.1 574.38,-78.35 567.4,-74.54"/>
<polygon fill="midnightblue" stroke="midnightblue" points="677.13,-329.53 686.99,-333.41 681.7,-324.23 677.13,-329.53"/>
</g>
<!-- Node39 -->
<g id="node39" class="node">
<title>Node39</title>
<g id="a_node39"><a xlink:href="test__component__isotropic__remeshing_8cpp.html#ac951acaed01f46f17ad5496ddaeccd3f" target="_top" xlink:title=" ">
<polygon fill="none" stroke="black" points="464,-0.5 464,-19.5 535,-19.5 535,-0.5 464,-0.5"/>
<text text-anchor="middle" x="499.5" y="-7.5" font-family="Helvetica,sans-Serif" font-size="10.00">TEST_CASE</text>
</a>
</g>
</g>
<!-- Node15&#45;&gt;Node39 -->
<g id="edge40" class="edge">
<title>Node15&#45;&gt;Node39</title>
<path fill="none" stroke="midnightblue" d="M678.8,-326.82C660.81,-311.2 635.33,-285.88 622,-258 577.56,-165.05 656.53,-104.1 586,-29 573.2,-15.37 552.96,-10.45 535.39,-9.02"/>
<polygon fill="midnightblue" stroke="midnightblue" points="676.56,-329.51 686.46,-333.28 681.08,-324.16 676.56,-329.51"/>
</g>
<!-- Node17 -->
<g id="node17" class="node">
<title>Node17</title>
<g id="a_node17"><a xlink:href="namespacewmtk_1_1components_1_1internal.html#a8890d5e5bb5f11779d4e40e07882253a" target="_top" xlink:title=" ">
<polygon fill="none" stroke="black" points="219,-701 219,-731 373,-731 373,-701 219,-701"/>
<text text-anchor="start" x="227" y="-719" font-family="Helvetica,sans-Serif" font-size="10.00">wmtk::components::internal</text>
<text text-anchor="middle" x="296" y="-708" font-family="Helvetica,sans-Serif" font-size="10.00">::periodic_optimization</text>
</a>
</g>
</g>
<!-- Node16&#45;&gt;Node17 -->
<g id="edge16" class="edge">
<title>Node16&#45;&gt;Node17</title>
<path fill="none" stroke="midnightblue" d="M412.06,-716C399.17,-716 385.95,-716 373.29,-716"/>
<polygon fill="midnightblue" stroke="midnightblue" points="412.32,-719.5 422.32,-716 412.32,-712.5 412.32,-719.5"/>
</g>
<!-- Node18 -->
<g id="node18" class="node">
<title>Node18</title>
<g id="a_node18"><a xlink:href="namespacewmtk_1_1components.html#a2e278a65e90619186ee7488b1d32da30" target="_top" xlink:title=" ">
<polygon fill="none" stroke="black" points="12,-701 12,-731 167,-731 167,-701 12,-701"/>
<text text-anchor="start" x="20" y="-719" font-family="Helvetica,sans-Serif" font-size="10.00">wmtk::components::periodic</text>
<text text-anchor="middle" x="89.5" y="-708" font-family="Helvetica,sans-Serif" font-size="10.00">_optimization</text>
</a>
</g>
</g>
<!-- Node17&#45;&gt;Node18 -->
<g id="edge17" class="edge">
<title>Node17&#45;&gt;Node18</title>
<path fill="none" stroke="midnightblue" d="M208.84,-716C194.96,-716 180.68,-716 167.05,-716"/>
<polygon fill="midnightblue" stroke="midnightblue" points="208.85,-719.5 218.85,-716 208.85,-712.5 208.85,-719.5"/>
</g>
<!-- Node20 -->
<g id="node20" class="node">
<title>Node20</title>
<g id="a_node20"><a xlink:href="namespacewmtk_1_1components.html#a503af91b8a2d86f4b9af9dbded55bec0" target="_top" xlink:title=" ">
<polygon fill="none" stroke="black" points="0,-374.5 0,-393.5 179,-393.5 179,-374.5 0,-374.5"/>
<text text-anchor="middle" x="89.5" y="-381.5" font-family="Helvetica,sans-Serif" font-size="10.00">wmtk::components::wildmeshing</text>
</a>
</g>
</g>
<!-- Node19&#45;&gt;Node20 -->
<g id="edge19" class="edge">
<title>Node19&#45;&gt;Node20</title>
<path fill="none" stroke="midnightblue" d="M269.77,-538.28C224.96,-499.72 133.23,-420.77 101.55,-393.51"/>
<polygon fill="midnightblue" stroke="midnightblue" points="267.7,-541.12 277.56,-544.99 272.27,-535.82 267.7,-541.12"/>
</g>
<!-- Node27 -->
<g id="node27" class="node">
<title>Node27</title>
<g id="a_node27"><a xlink:href="classwmtk_1_1invariants_1_1_min_incident_valence_invariant.html#a86763a63b94889f8e22cd9c705c84110" target="_top" xlink:title=" ">
<polygon fill="none" stroke="black" points="215,-388 215,-418 377,-418 377,-388 215,-388"/>
<text text-anchor="start" x="223" y="-406" font-family="Helvetica,sans-Serif" font-size="10.00">wmtk::invariants::MinIncident</text>
<text text-anchor="middle" x="296" y="-395" font-family="Helvetica,sans-Serif" font-size="10.00">ValenceInvariant::after</text>
</a>
</g>
</g>
<!-- Node26&#45;&gt;Node27 -->
<g id="edge26" class="edge">
<title>Node26&#45;&gt;Node27</title>
<path fill="none" stroke="midnightblue" d="M419.54,-366.51C395.31,-373.73 369.31,-381.47 347.52,-387.96"/>
<polygon fill="midnightblue" stroke="midnightblue" points="420.85,-369.77 429.44,-363.56 418.85,-363.06 420.85,-369.77"/>
</g>
<!-- Node28 -->
<g id="node28" class="node">
<title>Node28</title>
<g id="a_node28"><a xlink:href="classwmtk_1_1invariants_1_1_min_incident_valence_invariant.html#a75aa725e6ae913b914734b6b4d084a7b" target="_top" xlink:title=" ">
<polygon fill="none" stroke="black" points="215,-339 215,-369 377,-369 377,-339 215,-339"/>
<text text-anchor="start" x="223" y="-357" font-family="Helvetica,sans-Serif" font-size="10.00">wmtk::invariants::MinIncident</text>
<text text-anchor="middle" x="296" y="-346" font-family="Helvetica,sans-Serif" font-size="10.00">ValenceInvariant::before</text>
</a>
</g>
</g>
<!-- Node26&#45;&gt;Node28 -->
<g id="edge27" class="edge">
<title>Node26&#45;&gt;Node28</title>
<path fill="none" stroke="midnightblue" d="M408.08,-347.94C397.81,-348.5 387.4,-349.07 377.27,-349.62"/>
<polygon fill="midnightblue" stroke="midnightblue" points="408.49,-351.42 418.28,-347.38 408.11,-344.43 408.49,-351.42"/>
</g>
<!-- Node29&#45;&gt;Node30 -->
<g id="edge29" class="edge">
<title>Node29&#45;&gt;Node30</title>
<path fill="none" stroke="midnightblue" d="M449.09,-268.01C421.87,-274.64 387.81,-282.92 358.84,-289.96"/>
<polygon fill="midnightblue" stroke="midnightblue" points="450.28,-271.33 459.17,-265.56 448.63,-264.53 450.28,-271.33"/>
</g>
<!-- Node31 -->
<g id="node31" class="node">
<title>Node31</title>
<g id="a_node31"><a xlink:href="namespacewmtk_1_1components_1_1internal.html#a19eecddab1770fc126938f03715626b0" target="_top" xlink:title=" ">
<polygon fill="none" stroke="black" points="218,-241 218,-271 374,-271 374,-241 218,-241"/>
<text text-anchor="start" x="226" y="-259" font-family="Helvetica,sans-Serif" font-size="10.00">wmtk::components::internal</text>
<text text-anchor="middle" x="296" y="-248" font-family="Helvetica,sans-Serif" font-size="10.00">::set_operation_energy_filter</text>
</a>
</g>
</g>
<!-- Node29&#45;&gt;Node31 -->
<g id="edge30" class="edge">
<title>Node29&#45;&gt;Node31</title>
<path fill="none" stroke="midnightblue" d="M426.55,-256C409.57,-256 391.41,-256 374.21,-256"/>
<polygon fill="midnightblue" stroke="midnightblue" points="426.95,-259.5 436.95,-256 426.95,-252.5 426.95,-259.5"/>
</g>
<!-- Node32 -->
<g id="node32" class="node">
<title>Node32</title>
<g id="a_node32"><a xlink:href="namespacewmtk_1_1components.html#ad47dd9f4c68a8e70914d5a910e5fc0e4" target="_top" xlink:title=" ">
<polygon fill="none" stroke="black" points="228.5,-192 228.5,-222 363.5,-222 363.5,-192 228.5,-192"/>
<text text-anchor="start" x="236.5" y="-210" font-family="Helvetica,sans-Serif" font-size="10.00">wmtk::components::set</text>
<text text-anchor="middle" x="296" y="-199" font-family="Helvetica,sans-Serif" font-size="10.00">_operation_energy_filter</text>
</a>
</g>
</g>
<!-- Node29&#45;&gt;Node32 -->
<g id="edge31" class="edge">
<title>Node29&#45;&gt;Node32</title>
<path fill="none" stroke="midnightblue" d="M447.39,-244.18C436.06,-241.52 424.12,-238.69 413,-236 394.54,-231.53 374.45,-226.55 356.27,-222"/>
<polygon fill="midnightblue" stroke="midnightblue" points="446.62,-247.59 457.16,-246.46 448.22,-240.78 446.62,-247.59"/>
</g>
<!-- Node32&#45;&gt;Node20 -->
<g id="edge32" class="edge">
<title>Node32&#45;&gt;Node20</title>
<path fill="none" stroke="midnightblue" d="M222.16,-226.68C219.69,-228.03 217.29,-229.47 215,-231 155.51,-270.8 110.17,-347.59 95.53,-374.45"/>
<polygon fill="midnightblue" stroke="midnightblue" points="223.92,-229.71 231.37,-222.18 220.84,-223.42 223.92,-229.71"/>
</g>
<!-- Node34 -->
<g id="node34" class="node">
<title>Node34</title>
<g id="a_node34"><a xlink:href="namespacewmtk_1_1simplex.html#aead7bf4f261c58bdb33bd0bf7fcd541d" target="_top" xlink:title=" ">
<polygon fill="none" stroke="black" points="239.5,-143 239.5,-173 352.5,-173 352.5,-143 239.5,-143"/>
<text text-anchor="start" x="247.5" y="-161" font-family="Helvetica,sans-Serif" font-size="10.00">wmtk::simplex::link</text>
<text text-anchor="middle" x="296" y="-150" font-family="Helvetica,sans-Serif" font-size="10.00">_condition</text>
</a>
</g>
</g>
<!-- Node33&#45;&gt;Node34 -->
<g id="edge34" class="edge">
<title>Node33&#45;&gt;Node34</title>
<path fill="none" stroke="midnightblue" d="M432.67,-194.36C406.86,-187.44 377.57,-179.59 352.83,-172.96"/>
<polygon fill="midnightblue" stroke="midnightblue" points="431.81,-197.75 442.37,-196.96 433.62,-190.99 431.81,-197.75"/>
</g>
<!-- Node36 -->
<g id="node36" class="node">
<title>Node36</title>
<g id="a_node36"><a xlink:href="namespacewmtk_1_1simplex.html#aad86388bdc8c1685d7d55fad016f0ca2" target="_top" xlink:title=" ">
<polygon fill="none" stroke="black" points="239.5,-94 239.5,-124 352.5,-124 352.5,-94 239.5,-94"/>
<text text-anchor="start" x="247.5" y="-112" font-family="Helvetica,sans-Serif" font-size="10.00">wmtk::simplex::link</text>
<text text-anchor="middle" x="296" y="-101" font-family="Helvetica,sans-Serif" font-size="10.00">_condition</text>
</a>
</g>
</g>
<!-- Node35&#45;&gt;Node36 -->
<g id="edge36" class="edge">
<title>Node35&#45;&gt;Node36</title>
<path fill="none" stroke="midnightblue" d="M432.67,-145.36C406.86,-138.44 377.57,-130.59 352.83,-123.96"/>
<polygon fill="midnightblue" stroke="midnightblue" points="431.81,-148.75 442.37,-147.96 433.62,-141.99 431.81,-148.75"/>
</g>
<!-- Node42 -->
<g id="node42" class="node">
<title>Node42</title>
<g id="a_node42"><a xlink:href="classwmtk_1_1_mesh.html#a0b6f79f2dffa07d93a342306abd28b7e" target="_top" xlink:title="wrapper function to update hashes (for parent mesh *this and its child meshes) after vertex operation...">
<polygon fill="none" stroke="black" points="627.5,-219 627.5,-249 772.5,-249 772.5,-219 627.5,-219"/>
<text text-anchor="start" x="635.5" y="-237" font-family="Helvetica,sans-Serif" font-size="10.00">wmtk::Mesh::update</text>
<text text-anchor="middle" x="700" y="-226" font-family="Helvetica,sans-Serif" font-size="10.00">_vertex_operation_hashes</text>
</a>
</g>
</g>
<!-- Node41&#45;&gt;Node42 -->
<g id="edge43" class="edge">
<title>Node41&#45;&gt;Node42</title>
<path fill="none" stroke="midnightblue" d="M824.34,-234C807.16,-234 789.37,-234 772.83,-234"/>
<polygon fill="midnightblue" stroke="midnightblue" points="824.37,-237.5 834.37,-234 824.37,-230.5 824.37,-237.5"/>
</g>
</g>
</svg>
