<?xml version="1.0" encoding="UTF-8" standalone="no"?>
<!DOCTYPE svg PUBLIC "-//W3C//DTD SVG 1.1//EN"
 "http://www.w3.org/Graphics/SVG/1.1/DTD/svg11.dtd">
<!-- Generated by graphviz version 2.43.0 (0)
 -->
<!-- Title: wmtk::TriMesh::is_valid Pages: 1 -->
<svg width="887pt" height="429pt"
 viewBox="0.00 0.00 887.00 429.00" xmlns="http://www.w3.org/2000/svg" xmlns:xlink="http://www.w3.org/1999/xlink">
<g id="graph0" class="graph" transform="scale(1 1) rotate(0) translate(4 425)">
<title>wmtk::TriMesh::is_valid</title>
<!-- Node1 -->
<g id="node1" class="node">
<title>Node1</title>
<g id="a_node1"><a xlink:title="check validity of tuple including its hash">
<polygon fill="#bfbfbf" stroke="black" points="0,-98.5 0,-117.5 131,-117.5 131,-98.5 0,-98.5"/>
<text text-anchor="middle" x="65.5" y="-105.5" font-family="Helvetica,sans-Serif" font-size="10.00">wmtk::TriMesh::is_valid</text>
</a>
</g>
</g>
<!-- Node2 -->
<g id="node2" class="node">
<title>Node2</title>
<g id="a_node2"><a xlink:href="classwmtk_1_1_tri_mesh.html#a6375662ccb85d7c8868b3c76d708bae5" target="_top" xlink:title=" ">
<polygon fill="none" stroke="black" points="167,-234 167,-264 334,-264 334,-234 167,-234"/>
<text text-anchor="start" x="175" y="-252" font-family="Helvetica,sans-Serif" font-size="10.00">wmtk::TriMesh::is_connectivity</text>
<text text-anchor="middle" x="250.5" y="-241" font-family="Helvetica,sans-Serif" font-size="10.00">_valid</text>
</a>
</g>
</g>
<!-- Node1&#45;&gt;Node2 -->
<g id="edge1" class="edge">
<title>Node1&#45;&gt;Node2</title>
<path fill="none" stroke="midnightblue" d="M79.08,-117.69C108.33,-140.23 181.49,-196.6 221.79,-227.65"/>
<polygon fill="midnightblue" stroke="midnightblue" points="219.81,-230.54 229.87,-233.87 224.08,-225 219.81,-230.54"/>
</g>
<!-- Node13 -->
<g id="node13" class="node">
<title>Node13</title>
<g id="a_node13"><a xlink:href="namespacewmtk.html#a6a35f11c12436093d26fdd8be6fecc06" target="_top" xlink:title="Retrieves the current logger.">
<polygon fill="none" stroke="black" points="406,-101.5 406,-120.5 487,-120.5 487,-101.5 406,-101.5"/>
<text text-anchor="middle" x="446.5" y="-108.5" font-family="Helvetica,sans-Serif" font-size="10.00">wmtk::logger</text>
</a>
</g>
</g>
<!-- Node1&#45;&gt;Node13 -->
<g id="edge21" class="edge">
<title>Node1&#45;&gt;Node13</title>
<path fill="none" stroke="midnightblue" d="M131.22,-108.51C206.13,-109.11 327.87,-110.07 395.75,-110.61"/>
<polygon fill="midnightblue" stroke="midnightblue" points="395.73,-114.11 405.76,-110.69 395.79,-107.11 395.73,-114.11"/>
</g>
<!-- Node15 -->
<g id="node15" class="node">
<title>Node15</title>
<g id="a_node15"><a xlink:href="classwmtk_1_1_mesh.html#aad291410ffabfd61e42d0a813a610805" target="_top" xlink:title=" ">
<polygon fill="none" stroke="black" points="191,-137 191,-167 310,-167 310,-137 191,-137"/>
<text text-anchor="start" x="199" y="-155" font-family="Helvetica,sans-Serif" font-size="10.00">wmtk::Mesh::is_hash</text>
<text text-anchor="middle" x="250.5" y="-144" font-family="Helvetica,sans-Serif" font-size="10.00">_valid</text>
</a>
</g>
</g>
<!-- Node1&#45;&gt;Node15 -->
<g id="edge15" class="edge">
<title>Node1&#45;&gt;Node15</title>
<path fill="none" stroke="midnightblue" d="M106.21,-117.55C128.02,-122.79 155.68,-129.44 180.87,-135.5"/>
<polygon fill="midnightblue" stroke="midnightblue" points="180.21,-138.94 190.75,-137.87 181.85,-132.13 180.21,-138.94"/>
</g>
<!-- Node17 -->
<g id="node17" class="node">
<title>Node17</title>
<g id="a_node17"><a xlink:href="classwmtk_1_1_tuple.html#a0023f575be92cd5ceeeaaaa3762ea06d" target="_top" xlink:title="Checks if a tuple is &quot;null&quot;. This merely implies the global index is &#45;1.">
<polygon fill="none" stroke="black" points="194,-60.5 194,-79.5 307,-79.5 307,-60.5 194,-60.5"/>
<text text-anchor="middle" x="250.5" y="-67.5" font-family="Helvetica,sans-Serif" font-size="10.00">wmtk::Tuple::is_null</text>
</a>
</g>
</g>
<!-- Node1&#45;&gt;Node17 -->
<g id="edge20" class="edge">
<title>Node1&#45;&gt;Node17</title>
<path fill="none" stroke="midnightblue" d="M112.68,-98.41C137.26,-93.31 167.69,-86.99 193.6,-81.61"/>
<polygon fill="midnightblue" stroke="midnightblue" points="194.57,-84.98 203.65,-79.52 193.15,-78.13 194.57,-84.98"/>
</g>
<!-- Node18 -->
<g id="node18" class="node">
<title>Node18</title>
<g id="a_node18"><a xlink:href="namespacewmtk_1_1autogen_1_1tri__mesh.html#a786155d6d2270c482ffd6a96d3211867" target="_top" xlink:title=" ">
<polygon fill="none" stroke="black" points="189.5,-0.5 189.5,-41.5 311.5,-41.5 311.5,-0.5 189.5,-0.5"/>
<text text-anchor="start" x="197.5" y="-29.5" font-family="Helvetica,sans-Serif" font-size="10.00">wmtk::autogen::tri</text>
<text text-anchor="start" x="197.5" y="-18.5" font-family="Helvetica,sans-Serif" font-size="10.00">_mesh::tuple_is_valid</text>
<text text-anchor="middle" x="250.5" y="-7.5" font-family="Helvetica,sans-Serif" font-size="10.00">_for_ccw</text>
</a>
</g>
</g>
<!-- Node1&#45;&gt;Node18 -->
<g id="edge22" class="edge">
<title>Node1&#45;&gt;Node18</title>
<path fill="none" stroke="midnightblue" d="M81.41,-98.5C100.67,-86.46 135.49,-65.54 167,-51 171.08,-49.12 175.31,-47.27 179.61,-45.48"/>
<polygon fill="midnightblue" stroke="midnightblue" points="181.14,-48.63 189.09,-41.64 178.51,-42.15 181.14,-48.63"/>
</g>
<!-- Node3 -->
<g id="node3" class="node">
<title>Node3</title>
<g id="a_node3"><a xlink:href="classwmtk_1_1_mesh.html#a3e8ff83c4a5526a40d18bb9883c6c6c9" target="_top" xlink:title="read in the m_capacities return the upper bound for the number of entities of the given dimension">
<polygon fill="none" stroke="black" points="568,-363.5 568,-382.5 692,-382.5 692,-363.5 568,-363.5"/>
<text text-anchor="middle" x="630" y="-370.5" font-family="Helvetica,sans-Serif" font-size="10.00">wmtk::Mesh::capacity</text>
</a>
</g>
</g>
<!-- Node2&#45;&gt;Node3 -->
<g id="edge2" class="edge">
<title>Node2&#45;&gt;Node3</title>
<path fill="none" stroke="midnightblue" d="M262.98,-264.19C282.13,-288.2 323.15,-334.24 370,-354 429.71,-379.19 504.02,-382.08 557.71,-379.77"/>
<polygon fill="midnightblue" stroke="midnightblue" points="558.01,-383.26 567.82,-379.27 557.66,-376.27 558.01,-383.26"/>
</g>
<!-- Node5 -->
<g id="node5" class="node">
<title>Node5</title>
<g id="a_node5"><a xlink:href="classwmtk_1_1attribute_1_1_caching_accessor.html#a196b6b32e2495b971113d552be7f45d9" target="_top" xlink:title=" ">
<polygon fill="none" stroke="black" points="561.5,-197.5 561.5,-238.5 698.5,-238.5 698.5,-197.5 561.5,-197.5"/>
<text text-anchor="start" x="569.5" y="-226.5" font-family="Helvetica,sans-Serif" font-size="10.00">wmtk::attribute::Caching</text>
<text text-anchor="start" x="569.5" y="-215.5" font-family="Helvetica,sans-Serif" font-size="10.00">Accessor::const_scalar</text>
<text text-anchor="middle" x="630" y="-204.5" font-family="Helvetica,sans-Serif" font-size="10.00">_attribute</text>
</a>
</g>
</g>
<!-- Node2&#45;&gt;Node5 -->
<g id="edge4" class="edge">
<title>Node2&#45;&gt;Node5</title>
<path fill="none" stroke="midnightblue" d="M334.34,-242.2C398.9,-236.9 487.89,-229.59 551.14,-224.39"/>
<polygon fill="midnightblue" stroke="midnightblue" points="551.78,-227.85 561.46,-223.55 551.21,-220.88 551.78,-227.85"/>
</g>
<!-- Node6 -->
<g id="node6" class="node">
<title>Node6</title>
<g id="a_node6"><a xlink:href="classwmtk_1_1attribute_1_1_caching_accessor.html#ab7a79d239fdc3d22fbc0c3a83a5c50bc" target="_top" xlink:title=" ">
<polygon fill="none" stroke="black" points="378,-253.5 378,-294.5 515,-294.5 515,-253.5 378,-253.5"/>
<text text-anchor="start" x="386" y="-282.5" font-family="Helvetica,sans-Serif" font-size="10.00">wmtk::attribute::Caching</text>
<text text-anchor="start" x="386" y="-271.5" font-family="Helvetica,sans-Serif" font-size="10.00">Accessor::const_vector</text>
<text text-anchor="middle" x="446.5" y="-260.5" font-family="Helvetica,sans-Serif" font-size="10.00">_attribute</text>
</a>
</g>
</g>
<!-- Node2&#45;&gt;Node6 -->
<g id="edge5" class="edge">
<title>Node2&#45;&gt;Node6</title>
<path fill="none" stroke="midnightblue" d="M334.05,-259.64C345.27,-261.08 356.74,-262.56 367.86,-264"/>
<polygon fill="midnightblue" stroke="midnightblue" points="367.59,-267.49 377.96,-265.3 368.49,-260.55 367.59,-267.49"/>
</g>
<!-- Node7 -->
<g id="node7" class="node">
<title>Node7</title>
<g id="a_node7"><a xlink:href="classwmtk_1_1_mesh.html#ae0e8f71e9e17a90be9423117efcc4c81" target="_top" xlink:title=" ">
<polygon fill="none" stroke="black" points="385.5,-314 385.5,-344 507.5,-344 507.5,-314 385.5,-314"/>
<text text-anchor="start" x="393.5" y="-332" font-family="Helvetica,sans-Serif" font-size="10.00">wmtk::Mesh::get_flag</text>
<text text-anchor="middle" x="446.5" y="-321" font-family="Helvetica,sans-Serif" font-size="10.00">_accessor</text>
</a>
</g>
</g>
<!-- Node2&#45;&gt;Node7 -->
<g id="edge6" class="edge">
<title>Node2&#45;&gt;Node7</title>
<path fill="none" stroke="midnightblue" d="M281.77,-264.22C305.47,-275.85 339.42,-291.89 370,-304 375.73,-306.27 381.75,-308.51 387.8,-310.66"/>
<polygon fill="midnightblue" stroke="midnightblue" points="386.68,-313.97 397.27,-313.95 388.98,-307.36 386.68,-313.97"/>
</g>
<!-- Node10 -->
<g id="node10" class="node">
<title>Node10</title>
<g id="a_node10"><a xlink:href="classwmtk_1_1attribute_1_1_accessor.html#a41f40a73a13789707c117bda177dfc83" target="_top" xlink:title=" ">
<polygon fill="none" stroke="black" points="559,-144 559,-174 701,-174 701,-144 559,-144"/>
<text text-anchor="start" x="567" y="-162" font-family="Helvetica,sans-Serif" font-size="10.00">wmtk::attribute::Accessor</text>
<text text-anchor="middle" x="630" y="-151" font-family="Helvetica,sans-Serif" font-size="10.00">::index_access</text>
</a>
</g>
</g>
<!-- Node2&#45;&gt;Node10 -->
<g id="edge10" class="edge">
<title>Node2&#45;&gt;Node10</title>
<path fill="none" stroke="midnightblue" d="M314.69,-233.94C381.2,-218.08 485.8,-193.14 555.85,-176.44"/>
<polygon fill="midnightblue" stroke="midnightblue" points="557.01,-179.76 565.92,-174.04 555.38,-172.95 557.01,-179.76"/>
</g>
<!-- Node12 -->
<g id="node12" class="node">
<title>Node12</title>
<g id="a_node12"><a xlink:href="classwmtk_1_1_tri_mesh.html#a58bdbbfa0cd7bd9263241f6501db182a" target="_top" xlink:title="check if a simplex lies on a boundary or not">
<polygon fill="none" stroke="black" points="370,-401.5 370,-420.5 523,-420.5 523,-401.5 370,-401.5"/>
<text text-anchor="middle" x="446.5" y="-408.5" font-family="Helvetica,sans-Serif" font-size="10.00">wmtk::TriMesh::is_boundary</text>
</a>
</g>
</g>
<!-- Node2&#45;&gt;Node12 -->
<g id="edge12" class="edge">
<title>Node2&#45;&gt;Node12</title>
<path fill="none" stroke="midnightblue" d="M260.53,-264.29C278.06,-292.65 319.43,-353.54 370,-387 376.61,-391.38 384.08,-395 391.67,-397.98"/>
<polygon fill="midnightblue" stroke="midnightblue" points="390.72,-401.36 401.31,-401.43 393.08,-394.77 390.72,-401.36"/>
</g>
<!-- Node2&#45;&gt;Node13 -->
<g id="edge13" class="edge">
<title>Node2&#45;&gt;Node13</title>
<path fill="none" stroke="midnightblue" d="M270.82,-233.99C288.18,-220.07 313.97,-198.35 334,-177 352,-157.81 348.02,-144.46 370,-130 377.8,-124.87 386.88,-121.13 395.98,-118.39"/>
<polygon fill="midnightblue" stroke="midnightblue" points="397.03,-121.74 405.81,-115.81 395.25,-114.97 397.03,-121.74"/>
</g>
<!-- Node4 -->
<g id="node4" class="node">
<title>Node4</title>
<g id="a_node4"><a xlink:href="namespacewmtk.html#a5cf45c152e856196bb734c6f48919a24" target="_top" xlink:title="Get a unique integer id corresponding to each primitive type.">
<polygon fill="none" stroke="black" points="750,-358 750,-388 866,-388 866,-358 750,-358"/>
<text text-anchor="start" x="758" y="-376" font-family="Helvetica,sans-Serif" font-size="10.00">wmtk::get_primitive</text>
<text text-anchor="middle" x="808" y="-365" font-family="Helvetica,sans-Serif" font-size="10.00">_type_id</text>
</a>
</g>
</g>
<!-- Node3&#45;&gt;Node4 -->
<g id="edge3" class="edge">
<title>Node3&#45;&gt;Node4</title>
<path fill="none" stroke="midnightblue" d="M692.06,-373C707.46,-373 724.06,-373 739.74,-373"/>
<polygon fill="midnightblue" stroke="midnightblue" points="739.89,-376.5 749.89,-373 739.89,-369.5 739.89,-376.5"/>
</g>
<!-- Node8 -->
<g id="node8" class="node">
<title>Node8</title>
<g id="a_node8"><a xlink:href="classwmtk_1_1_mesh.html#a6dbab927a2ee85f77a87f075fd5c1d94" target="_top" xlink:title=" ">
<polygon fill="none" stroke="black" points="565,-314 565,-344 695,-344 695,-314 565,-314"/>
<text text-anchor="start" x="573" y="-332" font-family="Helvetica,sans-Serif" font-size="10.00">wmtk::Mesh::get_const</text>
<text text-anchor="middle" x="630" y="-321" font-family="Helvetica,sans-Serif" font-size="10.00">_flag_accessor</text>
</a>
</g>
</g>
<!-- Node7&#45;&gt;Node8 -->
<g id="edge7" class="edge">
<title>Node7&#45;&gt;Node8</title>
<path fill="none" stroke="midnightblue" d="M507.68,-329C522.75,-329 539.09,-329 554.75,-329"/>
<polygon fill="midnightblue" stroke="midnightblue" points="554.93,-332.5 564.93,-329 554.93,-325.5 554.93,-332.5"/>
</g>
<!-- Node8&#45;&gt;Node4 -->
<g id="edge9" class="edge">
<title>Node8&#45;&gt;Node4</title>
<path fill="none" stroke="midnightblue" d="M691.08,-344.02C706.83,-347.96 723.91,-352.23 740,-356.25"/>
<polygon fill="midnightblue" stroke="midnightblue" points="739.32,-359.69 749.87,-358.72 741.01,-352.9 739.32,-359.69"/>
</g>
<!-- Node9 -->
<g id="node9" class="node">
<title>Node9</title>
<g id="a_node9"><a xlink:href="classwmtk_1_1_mesh.html#a4a20dcdac339e7a4f6f8a6570114cbe6" target="_top" xlink:title=" ">
<polygon fill="none" stroke="black" points="751.5,-309 751.5,-339 864.5,-339 864.5,-309 751.5,-309"/>
<text text-anchor="start" x="759.5" y="-327" font-family="Helvetica,sans-Serif" font-size="10.00">wmtk::Mesh::create</text>
<text text-anchor="middle" x="808" y="-316" font-family="Helvetica,sans-Serif" font-size="10.00">_const_accessor</text>
</a>
</g>
</g>
<!-- Node8&#45;&gt;Node9 -->
<g id="edge8" class="edge">
<title>Node8&#45;&gt;Node9</title>
<path fill="none" stroke="midnightblue" d="M695.04,-327.18C710.05,-326.75 726.07,-326.3 741.16,-325.87"/>
<polygon fill="midnightblue" stroke="midnightblue" points="741.54,-329.36 751.44,-325.58 741.34,-322.36 741.54,-329.36"/>
</g>
<!-- Node11 -->
<g id="node11" class="node">
<title>Node11</title>
<g id="a_node11"><a xlink:href="classwmtk_1_1attribute_1_1_accessor.html#a9c7d323f50911892c8ea738f97d041d4" target="_top" xlink:title=" ">
<polygon fill="none" stroke="black" points="737,-144 737,-174 879,-174 879,-144 737,-144"/>
<text text-anchor="start" x="745" y="-162" font-family="Helvetica,sans-Serif" font-size="10.00">wmtk::attribute::Accessor</text>
<text text-anchor="middle" x="808" y="-151" font-family="Helvetica,sans-Serif" font-size="10.00">::caching_base_type</text>
</a>
</g>
</g>
<!-- Node10&#45;&gt;Node11 -->
<g id="edge11" class="edge">
<title>Node10&#45;&gt;Node11</title>
<path fill="none" stroke="midnightblue" d="M701.07,-159C709.54,-159 718.25,-159 726.85,-159"/>
<polygon fill="midnightblue" stroke="midnightblue" points="726.89,-162.5 736.89,-159 726.89,-155.5 726.89,-162.5"/>
</g>
<!-- Node14 -->
<g id="node14" class="node">
<title>Node14</title>
<g id="a_node14"><a xlink:href="namespacewmtk.html#a3daa7951a5f8b78cf4600dc047fcc180" target="_top" xlink:title="Setup a logger object to be used by WildmeshToolkit.">
<polygon fill="none" stroke="black" points="579.5,-101.5 579.5,-120.5 680.5,-120.5 680.5,-101.5 579.5,-101.5"/>
<text text-anchor="middle" x="630" y="-108.5" font-family="Helvetica,sans-Serif" font-size="10.00">wmtk::set_logger</text>
</a>
</g>
</g>
<!-- Node13&#45;&gt;Node14 -->
<g id="edge14" class="edge">
<title>Node13&#45;&gt;Node14</title>
<path fill="none" stroke="midnightblue" d="M487.33,-111C511.3,-111 542.27,-111 569.13,-111"/>
<polygon fill="midnightblue" stroke="midnightblue" points="569.21,-114.5 579.21,-111 569.21,-107.5 569.21,-114.5"/>
</g>
<!-- Node15&#45;&gt;Node13 -->
<g id="edge19" class="edge">
<title>Node15&#45;&gt;Node13</title>
<path fill="none" stroke="midnightblue" d="M310.23,-139.59C337.6,-133.8 369.81,-127 395.94,-121.47"/>
<polygon fill="midnightblue" stroke="midnightblue" points="396.93,-124.84 405.99,-119.35 395.48,-117.99 396.93,-124.84"/>
</g>
<!-- Node16 -->
<g id="node16" class="node">
<title>Node16</title>
<g id="a_node16"><a xlink:href="classwmtk_1_1_mesh.html#a4bcf7281ec7f3bdfd506ffc87fc092d3" target="_top" xlink:title=" ">
<polygon fill="none" stroke="black" points="372,-139.5 372,-158.5 521,-158.5 521,-139.5 372,-139.5"/>
<text text-anchor="middle" x="446.5" y="-146.5" font-family="Helvetica,sans-Serif" font-size="10.00">wmtk::Mesh::get_cell_hash</text>
</a>
</g>
</g>
<!-- Node15&#45;&gt;Node16 -->
<g id="edge16" class="edge">
<title>Node15&#45;&gt;Node16</title>
<path fill="none" stroke="midnightblue" d="M310.23,-151.09C326.45,-150.84 344.38,-150.56 361.72,-150.3"/>
<polygon fill="midnightblue" stroke="midnightblue" points="361.91,-153.79 371.85,-150.14 361.8,-146.79 361.91,-153.79"/>
</g>
<!-- Node16&#45;&gt;Node5 -->
<g id="edge17" class="edge">
<title>Node16&#45;&gt;Node5</title>
<path fill="none" stroke="midnightblue" d="M472.74,-158.59C496.57,-167.65 533.31,-181.62 565.18,-193.74"/>
<polygon fill="midnightblue" stroke="midnightblue" points="564.31,-197.15 574.9,-197.43 566.79,-190.61 564.31,-197.15"/>
</g>
<!-- Node16&#45;&gt;Node10 -->
<g id="edge18" class="edge">
<title>Node16&#45;&gt;Node10</title>
<path fill="none" stroke="midnightblue" d="M521.06,-153.05C530.13,-153.55 539.43,-154.07 548.6,-154.57"/>
<polygon fill="midnightblue" stroke="midnightblue" points="548.68,-158.08 558.86,-155.14 549.07,-151.09 548.68,-158.08"/>
</g>
<!-- Node19 -->
<g id="node19" class="node">
<title>Node19</title>
<g id="a_node19"><a xlink:href="namespacewmtk_1_1autogen_1_1tri__mesh.html#a1c9b651c47ee993e160a8dca570cf35c" target="_top" xlink:title=" ">
<polygon fill="none" stroke="black" points="385.5,-0.5 385.5,-41.5 507.5,-41.5 507.5,-0.5 385.5,-0.5"/>
<text text-anchor="start" x="393.5" y="-29.5" font-family="Helvetica,sans-Serif" font-size="10.00">wmtk::autogen::tri</text>
<text text-anchor="start" x="393.5" y="-18.5" font-family="Helvetica,sans-Serif" font-size="10.00">_mesh::local_id_table</text>
<text text-anchor="middle" x="446.5" y="-7.5" font-family="Helvetica,sans-Serif" font-size="10.00">_offset</text>
</a>
</g>
</g>
<!-- Node18&#45;&gt;Node19 -->
<g id="edge23" class="edge">
<title>Node18&#45;&gt;Node19</title>
<path fill="none" stroke="midnightblue" d="M311.55,-21C331.73,-21 354.42,-21 375.31,-21"/>
<polygon fill="midnightblue" stroke="midnightblue" points="375.4,-24.5 385.4,-21 375.4,-17.5 375.4,-24.5"/>
</g>
</g>
</svg>
