<?xml version="1.0" encoding="UTF-8" standalone="no"?>
<!DOCTYPE svg PUBLIC "-//W3C//DTD SVG 1.1//EN"
 "http://www.w3.org/Graphics/SVG/1.1/DTD/svg11.dtd">
<!-- Generated by graphviz version 2.43.0 (0)
 -->
<!-- Title: wmtk::Mesh::register_attribute_typed Pages: 1 -->
<!--zoomable 225 -->
<svg id="main" version="1.1" xmlns="http://www.w3.org/2000/svg" xmlns:xlink="http://www.w3.org/1999/xlink" xml:space="preserve" onload="init(evt)">
<style type="text/css"><![CDATA[
.edge:hover path { stroke: red; }
.edge:hover polygon { stroke: red; fill: red; }
]]></style>
<script type="text/javascript"><![CDATA[
var edges = document.getElementsByTagName('g');
if (edges && edges.length) {
  for (var i=0;i<edges.length;i++) {
    if (edges[i].id.substr(0,4)=='edge') {
      edges[i].setAttribute('class','edge');
    }
  }
}
]]></script>
        <defs>
                <circle id="rim" cx="0" cy="0" r="7"/>
                <circle id="rim2" cx="0" cy="0" r="3.5"/>
                <g id="zoomPlus">
                        <use xlink:href="#rim" fill="#404040">
                                <set attributeName="fill" to="#808080" begin="zoomplus.mouseover" end="zoomplus.mouseout"/>
                        </use>
                        <path d="M-4,0h8M0,-4v8" fill="none" stroke="white" stroke-width="1.5" pointer-events="none"/>
                </g>
                <g id="zoomMin">
                        <use xlink:href="#rim" fill="#404040">
                                <set attributeName="fill" to="#808080" begin="zoomminus.mouseover" end="zoomminus.mouseout"/>
                        </use>
                        <path d="M-4,0h8" fill="none" stroke="white" stroke-width="1.5" pointer-events="none"/>
                </g>
                <g id="dirArrow">
                        <path fill="none" stroke="white" stroke-width="1.5" d="M0,-3.0v7 M-2.5,-0.5L0,-3.0L2.5,-0.5"/>
                </g>
               <g id="resetDef">
                       <use xlink:href="#rim2" fill="#404040">
                               <set attributeName="fill" to="#808080" begin="reset.mouseover" end="reset.mouseout"/>
                       </use>
               </g>
        </defs>

<script type="text/javascript">
var viewWidth = 1517;
var viewHeight = 225;
var sectionId = 'dynsection-111';
</script>
<script xlink:href="svgpan.js"/>
<svg id="graph" class="graph">
<g id="viewport">
<title>wmtk::Mesh::register_attribute_typed</title>
<!-- Node1 -->
<g id="node1" class="node">
<title>Node1</title>
<g id="a_node1"><a xlink:title=" ">
<polygon fill="#bfbfbf" stroke="black" points="1389,-107 1389,-137 1509,-137 1509,-107 1389,-107"/>
<text text-anchor="start" x="1397" y="-125" font-family="Helvetica,sans-Serif" font-size="10.00">wmtk::Mesh::register</text>
<text text-anchor="middle" x="1449" y="-114" font-family="Helvetica,sans-Serif" font-size="10.00">_attribute_typed</text>
</a>
</g>
</g>
<!-- Node2 -->
<g id="node2" class="node">
<title>Node2</title>
<g id="a_node2"><a xlink:href="classwmtk_1_1components_1_1internal_1_1_marching.html#a9e2d1de9a85f917baa06fd06feffe8f3" target="_top" xlink:title=" ">
<polygon fill="none" stroke="black" points="1194,-132 1194,-162 1348,-162 1348,-132 1194,-132"/>
<text text-anchor="start" x="1202" y="-150" font-family="Helvetica,sans-Serif" font-size="10.00">wmtk::components::internal</text>
<text text-anchor="middle" x="1271" y="-139" font-family="Helvetica,sans-Serif" font-size="10.00">::Marching::process</text>
</a>
</g>
</g>
<!-- Node1&#45;&gt;Node2 -->
<g id="edge1" class="edge">
<title>Node1&#45;&gt;Node2</title>
<path fill="none" stroke="midnightblue" d="M1378.93,-131.81C1368.83,-133.25 1358.37,-134.73 1348.13,-136.19"/>
<polygon fill="midnightblue" stroke="midnightblue" points="1379.5,-135.27 1388.9,-130.39 1378.51,-128.34 1379.5,-135.27"/>
</g>
<!-- Node5 -->
<g id="node5" class="node">
<title>Node5</title>
<g id="a_node5"><a xlink:href="classwmtk_1_1multimesh_1_1_multi_mesh_manager.html#a4b563821dc0926b66899d0d8a8d32e58" target="_top" xlink:title="register a another mesh as a child of this mesh.">
<polygon fill="none" stroke="black" points="1189,-83 1189,-113 1353,-113 1353,-83 1189,-83"/>
<text text-anchor="start" x="1197" y="-101" font-family="Helvetica,sans-Serif" font-size="10.00">wmtk::multimesh::MultiMesh</text>
<text text-anchor="middle" x="1271" y="-90" font-family="Helvetica,sans-Serif" font-size="10.00">Manager::register_child_mesh</text>
</a>
</g>
</g>
<!-- Node1&#45;&gt;Node5 -->
<g id="edge4" class="edge">
<title>Node1&#45;&gt;Node5</title>
<path fill="none" stroke="midnightblue" d="M1378.78,-112.56C1370.37,-111.41 1361.71,-110.23 1353.15,-109.07"/>
<polygon fill="midnightblue" stroke="midnightblue" points="1378.52,-116.06 1388.9,-113.94 1379.47,-109.12 1378.52,-116.06"/>
</g>
<!-- Node3 -->
<g id="node3" class="node">
<title>Node3</title>
<g id="a_node3"><a xlink:href="namespacewmtk_1_1components.html#a2089f999b4072674bda24b29e86257e1" target="_top" xlink:title="Perform maching tetrahedra/triangles.">
<polygon fill="none" stroke="black" points="991,-172.5 991,-191.5 1153,-191.5 1153,-172.5 991,-172.5"/>
<text text-anchor="middle" x="1072" y="-179.5" font-family="Helvetica,sans-Serif" font-size="10.00">wmtk::components::marching</text>
</a>
</g>
</g>
<!-- Node2&#45;&gt;Node3 -->
<g id="edge2" class="edge">
<title>Node2&#45;&gt;Node3</title>
<path fill="none" stroke="midnightblue" d="M1183.76,-162.32C1164.36,-165.77 1144.31,-169.33 1126.69,-172.46"/>
<polygon fill="midnightblue" stroke="midnightblue" points="1184.6,-165.73 1193.83,-160.53 1183.38,-158.84 1184.6,-165.73"/>
</g>
<!-- Node4 -->
<g id="node4" class="node">
<title>Node4</title>
<g id="a_node4"><a xlink:href="test__component__marching_8cpp.html#af20fbc246d1ad31be8d9ec0011ac52d6" target="_top" xlink:title=" ">
<polygon fill="none" stroke="black" points="1036.5,-134.5 1036.5,-153.5 1107.5,-153.5 1107.5,-134.5 1036.5,-134.5"/>
<text text-anchor="middle" x="1072" y="-141.5" font-family="Helvetica,sans-Serif" font-size="10.00">TEST_CASE</text>
</a>
</g>
</g>
<!-- Node2&#45;&gt;Node4 -->
<g id="edge3" class="edge">
<title>Node2&#45;&gt;Node4</title>
<path fill="none" stroke="midnightblue" d="M1183.62,-145.68C1156.78,-145.28 1128.71,-144.85 1107.56,-144.53"/>
<polygon fill="midnightblue" stroke="midnightblue" points="1183.78,-149.19 1193.83,-145.84 1183.89,-142.19 1183.78,-149.19"/>
</g>
<!-- Node6 -->
<g id="node6" class="node">
<title>Node6</title>
<g id="a_node6"><a xlink:href="classwmtk_1_1_mesh.html#abde493ad70eef5e38834fdf647a56c0b" target="_top" xlink:title="register a mesh as the child of this mesh">
<polygon fill="none" stroke="black" points="1012,-83 1012,-113 1132,-113 1132,-83 1012,-83"/>
<text text-anchor="start" x="1020" y="-101" font-family="Helvetica,sans-Serif" font-size="10.00">wmtk::Mesh::register</text>
<text text-anchor="middle" x="1072" y="-90" font-family="Helvetica,sans-Serif" font-size="10.00">_child_mesh</text>
</a>
</g>
</g>
<!-- Node5&#45;&gt;Node6 -->
<g id="edge5" class="edge">
<title>Node5&#45;&gt;Node6</title>
<path fill="none" stroke="midnightblue" d="M1178.44,-98C1162.7,-98 1146.71,-98 1132.11,-98"/>
<polygon fill="midnightblue" stroke="midnightblue" points="1178.74,-101.5 1188.74,-98 1178.74,-94.5 1178.74,-101.5"/>
</g>
<!-- Node7 -->
<g id="node7" class="node">
<title>Node7</title>
<g id="a_node7"><a xlink:href="classwmtk_1_1components_1_1internal_1_1_multi_mesh_from_tag.html#a96647e9413f2b7e13dd17f02cf29b12d" target="_top" xlink:title="Create a manifold mesh from the substructure.">
<polygon fill="none" stroke="black" points="600.5,-158.5 600.5,-199.5 764.5,-199.5 764.5,-158.5 600.5,-158.5"/>
<text text-anchor="start" x="608.5" y="-187.5" font-family="Helvetica,sans-Serif" font-size="10.00">wmtk::components::internal</text>
<text text-anchor="start" x="608.5" y="-176.5" font-family="Helvetica,sans-Serif" font-size="10.00">::MultiMeshFromTag::compute</text>
<text text-anchor="middle" x="682.5" y="-165.5" font-family="Helvetica,sans-Serif" font-size="10.00">_substructure_mesh</text>
</a>
</g>
</g>
<!-- Node6&#45;&gt;Node7 -->
<g id="edge6" class="edge">
<title>Node6&#45;&gt;Node7</title>
<path fill="none" stroke="midnightblue" d="M1005.85,-117.1C1000.69,-119.47 995.67,-122.1 991,-125 971.77,-136.93 975.61,-151.65 955,-161 895.31,-188.07 820.57,-191.09 764.62,-188.17"/>
<polygon fill="midnightblue" stroke="midnightblue" points="1007.44,-120.23 1015.27,-113.09 1004.69,-113.79 1007.44,-120.23"/>
</g>
<!-- Node11 -->
<g id="node11" class="node">
<title>Node11</title>
<g id="a_node11"><a xlink:href="classwmtk_1_1components_1_1internal_1_1_multi_mesh_from_tag.html#ad18667b876fc81c8cfb79a408d632b25" target="_top" xlink:title="Create a multimesh where the child&#45;mesh is just a soup (no connectivity) of m_mesh.">
<polygon fill="none" stroke="black" points="801,-110.5 801,-151.5 955,-151.5 955,-110.5 801,-110.5"/>
<text text-anchor="start" x="809" y="-139.5" font-family="Helvetica,sans-Serif" font-size="10.00">wmtk::components::internal</text>
<text text-anchor="start" x="809" y="-128.5" font-family="Helvetica,sans-Serif" font-size="10.00">::MultiMeshFromTag::create</text>
<text text-anchor="middle" x="878" y="-117.5" font-family="Helvetica,sans-Serif" font-size="10.00">_substructure_soup</text>
</a>
</g>
</g>
<!-- Node6&#45;&gt;Node11 -->
<g id="edge10" class="edge">
<title>Node6&#45;&gt;Node11</title>
<path fill="none" stroke="midnightblue" d="M1001.6,-109.93C986.57,-112.51 970.6,-115.26 955.33,-117.88"/>
<polygon fill="midnightblue" stroke="midnightblue" points="1002.56,-113.31 1011.83,-108.17 1001.38,-106.41 1002.56,-113.31"/>
</g>
<!-- Node12 -->
<g id="node12" class="node">
<title>Node12</title>
<g id="a_node12"><a xlink:href="classwmtk_1_1multimesh_1_1utils_1_1internal_1_1_tuple_tag.html#a89f54c784fb3d50bba75eb8d5db6ed8a" target="_top" xlink:title=" ">
<polygon fill="none" stroke="black" points="805,-39 805,-91 951,-91 951,-39 805,-39"/>
<text text-anchor="start" x="813" y="-79" font-family="Helvetica,sans-Serif" font-size="10.00">wmtk::multimesh::utils</text>
<text text-anchor="start" x="813" y="-68" font-family="Helvetica,sans-Serif" font-size="10.00">::internal::TupleTag::</text>
<text text-anchor="start" x="813" y="-57" font-family="Helvetica,sans-Serif" font-size="10.00">extract_and_register_child</text>
<text text-anchor="middle" x="878" y="-46" font-family="Helvetica,sans-Serif" font-size="10.00">_mesh_from_tag_handle</text>
</a>
</g>
</g>
<!-- Node6&#45;&gt;Node12 -->
<g id="edge12" class="edge">
<title>Node6&#45;&gt;Node12</title>
<path fill="none" stroke="midnightblue" d="M1001.76,-86.1C985.31,-83.27 967.73,-80.25 951.17,-77.4"/>
<polygon fill="midnightblue" stroke="midnightblue" points="1001.38,-89.59 1011.83,-87.83 1002.56,-82.69 1001.38,-89.59"/>
</g>
<!-- Node21 -->
<g id="node21" class="node">
<title>Node21</title>
<g id="a_node21"><a xlink:href="namespacewmtk_1_1components.html#a2aa35ea56a54c5b65349ced551dd1429" target="_top" xlink:title=" ">
<polygon fill="none" stroke="black" points="805,-0.5 805,-19.5 951,-19.5 951,-0.5 805,-0.5"/>
<text text-anchor="middle" x="878" y="-7.5" font-family="Helvetica,sans-Serif" font-size="10.00">wmtk::components::fusion</text>
</a>
</g>
</g>
<!-- Node6&#45;&gt;Node21 -->
<g id="edge21" class="edge">
<title>Node6&#45;&gt;Node21</title>
<path fill="none" stroke="midnightblue" d="M1041.27,-77C1018.55,-61.8 985.99,-41.77 955,-29 945.95,-25.27 935.97,-22.14 926.31,-19.56"/>
<polygon fill="midnightblue" stroke="midnightblue" points="1039.52,-80.05 1049.76,-82.77 1043.46,-74.26 1039.52,-80.05"/>
</g>
<!-- Node8 -->
<g id="node8" class="node">
<title>Node8</title>
<g id="a_node8"><a xlink:href="namespacewmtk_1_1components.html#a43e4bf82099343e153b21c9be07cd2d1" target="_top" xlink:title="Generate a multi&#45;mesh from a mesh with a tag that represents the substructure.">
<polygon fill="none" stroke="black" points="395,-186 395,-216 564,-216 564,-186 395,-186"/>
<text text-anchor="start" x="403" y="-204" font-family="Helvetica,sans-Serif" font-size="10.00">wmtk::components::multimesh</text>
<text text-anchor="middle" x="479.5" y="-193" font-family="Helvetica,sans-Serif" font-size="10.00">_from_tag</text>
</a>
</g>
</g>
<!-- Node7&#45;&gt;Node8 -->
<g id="edge7" class="edge">
<title>Node7&#45;&gt;Node8</title>
<path fill="none" stroke="midnightblue" d="M590.23,-188.99C581.58,-189.94 572.84,-190.89 564.27,-191.83"/>
<polygon fill="midnightblue" stroke="midnightblue" points="590.77,-192.45 600.32,-187.88 590,-185.49 590.77,-192.45"/>
</g>
<!-- Node10 -->
<g id="node10" class="node">
<title>Node10</title>
<g id="a_node10"><a xlink:href="test__component__multimesh__from__tag_8cpp.html#a18cd3d411cfadc472201c20662d62869" target="_top" xlink:title=" ">
<polygon fill="none" stroke="black" points="444,-147.5 444,-166.5 515,-166.5 515,-147.5 444,-147.5"/>
<text text-anchor="middle" x="479.5" y="-154.5" font-family="Helvetica,sans-Serif" font-size="10.00">TEST_CASE</text>
</a>
</g>
</g>
<!-- Node7&#45;&gt;Node10 -->
<g id="edge9" class="edge">
<title>Node7&#45;&gt;Node10</title>
<path fill="none" stroke="midnightblue" d="M590.14,-169C563.42,-166.08 535.83,-163.06 515.01,-160.78"/>
<polygon fill="midnightblue" stroke="midnightblue" points="590,-172.51 600.32,-170.12 590.77,-165.55 590,-172.51"/>
</g>
<!-- Node9 -->
<g id="node9" class="node">
<title>Node9</title>
<g id="a_node9"><a xlink:href="test__component__multimesh__from__tag_8cpp.html#a2b0208caf4b963a36a43604c3e7cf34a" target="_top" xlink:title=" ">
<polygon fill="none" stroke="black" points="239,-191.5 239,-210.5 310,-210.5 310,-191.5 239,-191.5"/>
<text text-anchor="middle" x="274.5" y="-198.5" font-family="Helvetica,sans-Serif" font-size="10.00">TEST_CASE</text>
</a>
</g>
</g>
<!-- Node8&#45;&gt;Node9 -->
<g id="edge8" class="edge">
<title>Node8&#45;&gt;Node9</title>
<path fill="none" stroke="midnightblue" d="M384.64,-201C358.09,-201 330.85,-201 310.22,-201"/>
<polygon fill="midnightblue" stroke="midnightblue" points="384.76,-204.5 394.76,-201 384.76,-197.5 384.76,-204.5"/>
</g>
<!-- Node11&#45;&gt;Node7 -->
<g id="edge11" class="edge">
<title>Node11&#45;&gt;Node7</title>
<path fill="none" stroke="midnightblue" d="M791,-152.33C782.27,-154.5 773.41,-156.7 764.73,-158.85"/>
<polygon fill="midnightblue" stroke="midnightblue" points="791.94,-155.71 800.8,-149.9 790.25,-148.91 791.94,-155.71"/>
</g>
<!-- Node13 -->
<g id="node13" class="node">
<title>Node13</title>
<g id="a_node13"><a xlink:href="namespacewmtk_1_1multimesh_1_1utils.html#a197be9245149c7042613aeacf231ec1d" target="_top" xlink:title="extract a child mesh based on the tag handle and the tag value, and register it to the input (parent)...">
<polygon fill="none" stroke="black" points="617.5,-98.5 617.5,-139.5 747.5,-139.5 747.5,-98.5 617.5,-98.5"/>
<text text-anchor="start" x="625.5" y="-127.5" font-family="Helvetica,sans-Serif" font-size="10.00">wmtk::multimesh::utils</text>
<text text-anchor="start" x="625.5" y="-116.5" font-family="Helvetica,sans-Serif" font-size="10.00">::extract_and_register</text>
<text text-anchor="middle" x="682.5" y="-105.5" font-family="Helvetica,sans-Serif" font-size="10.00">_child_mesh_from_tag</text>
</a>
</g>
</g>
<!-- Node12&#45;&gt;Node13 -->
<g id="edge13" class="edge">
<title>Node12&#45;&gt;Node13</title>
<path fill="none" stroke="midnightblue" d="M795.15,-87.84C779.27,-92.27 762.85,-96.86 747.64,-101.1"/>
<polygon fill="midnightblue" stroke="midnightblue" points="796.26,-91.17 804.95,-85.11 794.37,-84.42 796.26,-91.17"/>
</g>
<!-- Node14 -->
<g id="node14" class="node">
<title>Node14</title>
<g id="a_node14"><a xlink:href="namespacewmtk_1_1multimesh_1_1utils.html#a3ba02c50321ce0e6095c107cbb5edc13" target="_top" xlink:title="extract a child mesh based on the tag handle and the tag value, and register it to the input (parent)...">
<polygon fill="none" stroke="black" points="600,-38.5 600,-79.5 765,-79.5 765,-38.5 600,-38.5"/>
<text text-anchor="start" x="608" y="-67.5" font-family="Helvetica,sans-Serif" font-size="10.00">wmtk::multimesh::utils</text>
<text text-anchor="start" x="608" y="-56.5" font-family="Helvetica,sans-Serif" font-size="10.00">::extract_and_register</text>
<text text-anchor="middle" x="682.5" y="-45.5" font-family="Helvetica,sans-Serif" font-size="10.00">_child_mesh_from_tag_handle</text>
</a>
</g>
</g>
<!-- Node12&#45;&gt;Node14 -->
<g id="edge14" class="edge">
<title>Node12&#45;&gt;Node14</title>
<path fill="none" stroke="midnightblue" d="M794.78,-62.45C784.94,-62.15 774.89,-61.83 765.06,-61.53"/>
<polygon fill="midnightblue" stroke="midnightblue" points="794.84,-65.95 804.95,-62.77 795.06,-58.96 794.84,-65.95"/>
</g>
<!-- Node15 -->
<g id="node15" class="node">
<title>Node15</title>
<g id="a_node15"><a xlink:href="namespacewmtk_1_1multimesh_1_1utils.html#a9349b24597b61459c9d98753ae5234f1" target="_top" xlink:title="extract a child mesh based on the given tag and tag value, and register it to the input (parent) mesh">
<polygon fill="none" stroke="black" points="414.5,-38.5 414.5,-79.5 544.5,-79.5 544.5,-38.5 414.5,-38.5"/>
<text text-anchor="start" x="422.5" y="-67.5" font-family="Helvetica,sans-Serif" font-size="10.00">wmtk::multimesh::utils</text>
<text text-anchor="start" x="422.5" y="-56.5" font-family="Helvetica,sans-Serif" font-size="10.00">::extract_and_register</text>
<text text-anchor="middle" x="479.5" y="-45.5" font-family="Helvetica,sans-Serif" font-size="10.00">_child_mesh_from_tag</text>
</a>
</g>
</g>
<!-- Node14&#45;&gt;Node15 -->
<g id="edge15" class="edge">
<title>Node14&#45;&gt;Node15</title>
<path fill="none" stroke="midnightblue" d="M589.34,-59C574.22,-59 558.86,-59 544.62,-59"/>
<polygon fill="midnightblue" stroke="midnightblue" points="589.75,-62.5 599.75,-59 589.75,-55.5 589.75,-62.5"/>
</g>
<!-- Node16 -->
<g id="node16" class="node">
<title>Node16</title>
<g id="a_node16"><a xlink:href="namespacewmtk_1_1utils.html#a4ea0d7c148b4066c6692a8e31c7b7b7a" target="_top" xlink:title=" ">
<polygon fill="none" stroke="black" points="198,-87.5 198,-128.5 351,-128.5 351,-87.5 198,-87.5"/>
<text text-anchor="start" x="206" y="-116.5" font-family="Helvetica,sans-Serif" font-size="10.00">wmtk::utils::generate</text>
<text text-anchor="start" x="206" y="-105.5" font-family="Helvetica,sans-Serif" font-size="10.00">_raw_tetmesh_with_surface</text>
<text text-anchor="middle" x="274.5" y="-94.5" font-family="Helvetica,sans-Serif" font-size="10.00">_from_input</text>
</a>
</g>
</g>
<!-- Node15&#45;&gt;Node16 -->
<g id="edge16" class="edge">
<title>Node15&#45;&gt;Node16</title>
<path fill="none" stroke="midnightblue" d="M404.21,-76.93C386.88,-81.12 368.4,-85.58 351.02,-89.77"/>
<polygon fill="midnightblue" stroke="midnightblue" points="405.37,-80.25 414.27,-74.5 403.73,-73.45 405.37,-80.25"/>
</g>
<!-- Node18 -->
<g id="node18" class="node">
<title>Node18</title>
<g id="a_node18"><a xlink:href="namespacewmtk_1_1components.html#aac69455341d52516952b0655d254ec51" target="_top" xlink:title=" ">
<polygon fill="none" stroke="black" points="190,-49.5 190,-68.5 359,-68.5 359,-49.5 190,-49.5"/>
<text text-anchor="middle" x="274.5" y="-56.5" font-family="Helvetica,sans-Serif" font-size="10.00">wmtk::components::multimesh</text>
</a>
</g>
</g>
<!-- Node15&#45;&gt;Node18 -->
<g id="edge18" class="edge">
<title>Node15&#45;&gt;Node18</title>
<path fill="none" stroke="midnightblue" d="M404.24,-59C389.53,-59 374.01,-59 359.02,-59"/>
<polygon fill="midnightblue" stroke="midnightblue" points="404.27,-62.5 414.27,-59 404.27,-55.5 404.27,-62.5"/>
</g>
<!-- Node20 -->
<g id="node20" class="node">
<title>Node20</title>
<g id="a_node20"><a xlink:href="test__component__isotropic__remeshing_8cpp.html#aae475685ae29b731655dd43137a950d6" target="_top" xlink:title=" ">
<polygon fill="none" stroke="black" points="239,-11.5 239,-30.5 310,-30.5 310,-11.5 239,-11.5"/>
<text text-anchor="middle" x="274.5" y="-18.5" font-family="Helvetica,sans-Serif" font-size="10.00">TEST_CASE</text>
</a>
</g>
</g>
<!-- Node15&#45;&gt;Node20 -->
<g id="edge20" class="edge">
<title>Node15&#45;&gt;Node20</title>
<path fill="none" stroke="midnightblue" d="M404.41,-45.13C372.16,-39.09 335.93,-32.31 310.11,-27.48"/>
<polygon fill="midnightblue" stroke="midnightblue" points="403.8,-48.58 414.27,-46.98 405.08,-41.7 403.8,-48.58"/>
</g>
<!-- Node17 -->
<g id="node17" class="node">
<title>Node17</title>
<g id="a_node17"><a xlink:href="namespacewmtk_1_1components.html#ad26e15d638e76cf767b43e34d5d68465" target="_top" xlink:title=" ">
<polygon fill="none" stroke="black" points="0,-93 0,-123 154,-123 154,-93 0,-93"/>
<text text-anchor="start" x="8" y="-111" font-family="Helvetica,sans-Serif" font-size="10.00">wmtk::components::triangle</text>
<text text-anchor="middle" x="77" y="-100" font-family="Helvetica,sans-Serif" font-size="10.00">_insertion</text>
</a>
</g>
</g>
<!-- Node16&#45;&gt;Node17 -->
<g id="edge17" class="edge">
<title>Node16&#45;&gt;Node17</title>
<path fill="none" stroke="midnightblue" d="M187.7,-108C176.49,-108 165.06,-108 154.03,-108"/>
<polygon fill="midnightblue" stroke="midnightblue" points="187.91,-111.5 197.91,-108 187.91,-104.5 187.91,-111.5"/>
</g>
<!-- Node19 -->
<g id="node19" class="node">
<title>Node19</title>
<g id="a_node19"><a xlink:href="test__component__multimesh_8cpp.html#adcff0ee9e850d29cff036dae09747fe6" target="_top" xlink:title=" ">
<polygon fill="none" stroke="black" points="41.5,-49.5 41.5,-68.5 112.5,-68.5 112.5,-49.5 41.5,-49.5"/>
<text text-anchor="middle" x="77" y="-56.5" font-family="Helvetica,sans-Serif" font-size="10.00">TEST_CASE</text>
</a>
</g>
</g>
<!-- Node18&#45;&gt;Node19 -->
<g id="edge19" class="edge">
<title>Node18&#45;&gt;Node19</title>
<path fill="none" stroke="midnightblue" d="M179.58,-59C155.8,-59 131.72,-59 112.98,-59"/>
<polygon fill="midnightblue" stroke="midnightblue" points="179.74,-62.5 189.74,-59 179.74,-55.5 179.74,-62.5"/>
</g>
<!-- Node22 -->
<g id="node22" class="node">
<title>Node22</title>
<g id="a_node22"><a xlink:href="test__component__fusion_8cpp.html#ad717d3fcca492f6237e8e5f0e3455e4e" target="_top" xlink:title=" ">
<polygon fill="none" stroke="black" points="647,-0.5 647,-19.5 718,-19.5 718,-0.5 647,-0.5"/>
<text text-anchor="middle" x="682.5" y="-7.5" font-family="Helvetica,sans-Serif" font-size="10.00">TEST_CASE</text>
</a>
</g>
</g>
<!-- Node21&#45;&gt;Node22 -->
<g id="edge22" class="edge">
<title>Node21&#45;&gt;Node22</title>
<path fill="none" stroke="midnightblue" d="M794.76,-10C767.93,-10 739.59,-10 718.22,-10"/>
<polygon fill="midnightblue" stroke="midnightblue" points="794.95,-13.5 804.95,-10 794.95,-6.5 794.95,-13.5"/>
</g>
</g>
</svg>
        <g id="navigator" transform="translate(0 0)" fill="#404254">
                <rect fill="#f2f5e9" fill-opacity="0.5" stroke="#606060" stroke-width=".5" x="0" y="0" width="60" height="60"/>
                <use id="zoomplus" xlink:href="#zoomPlus" x="17" y="9" onmousedown="handleZoom(evt,'in')"/>
                <use id="zoomminus" xlink:href="#zoomMin" x="42" y="9" onmousedown="handleZoom(evt,'out')"/>
                <use id="reset" xlink:href="#resetDef" x="30" y="36" onmousedown="handleReset()"/>
                <g id="arrowUp" xlink:href="#dirArrow" transform="translate(30 24)" onmousedown="handlePan(0,-1)">
                  <use xlink:href="#rim" fill="#404040">
                        <set attributeName="fill" to="#808080" begin="arrowUp.mouseover" end="arrowUp.mouseout"/>
                  </use>
                  <path fill="none" stroke="white" stroke-width="1.5" d="M0,-3.0v7 M-2.5,-0.5L0,-3.0L2.5,-0.5"/>
                </g>
                <g id="arrowRight" xlink:href="#dirArrow" transform="rotate(90) translate(36 -43)" onmousedown="handlePan(1,0)">
                  <use xlink:href="#rim" fill="#404040">
                        <set attributeName="fill" to="#808080" begin="arrowRight.mouseover" end="arrowRight.mouseout"/>
                  </use>
                  <path fill="none" stroke="white" stroke-width="1.5" d="M0,-3.0v7 M-2.5,-0.5L0,-3.0L2.5,-0.5"/>
                </g>
                <g id="arrowDown" xlink:href="#dirArrow" transform="rotate(180) translate(-30 -48)" onmousedown="handlePan(0,1)">
                  <use xlink:href="#rim" fill="#404040">
                        <set attributeName="fill" to="#808080" begin="arrowDown.mouseover" end="arrowDown.mouseout"/>
                  </use>
                  <path fill="none" stroke="white" stroke-width="1.5" d="M0,-3.0v7 M-2.5,-0.5L0,-3.0L2.5,-0.5"/>
                </g>
                <g id="arrowLeft" xlink:href="#dirArrow" transform="rotate(270) translate(-36 17)" onmousedown="handlePan(-1,0)">
                  <use xlink:href="#rim" fill="#404040">
                        <set attributeName="fill" to="#808080" begin="arrowLeft.mouseover" end="arrowLeft.mouseout"/>
                  </use>
                  <path fill="none" stroke="white" stroke-width="1.5" d="M0,-3.0v7 M-2.5,-0.5L0,-3.0L2.5,-0.5"/>
                </g>
        </g>
        <svg viewBox="0 0 15 15" width="100%" height="30px" preserveAspectRatio="xMaxYMin meet">
         <g id="arrow_out" transform="scale(0.3 0.3)">
          <a xlink:href="classwmtk_1_1_mesh_a3faf39088ce02c2a2f208c762d6f2b52_icgraph_org.svg" target="_base">
           <rect id="button" ry="5" rx="5" y="6" x="6" height="38" width="38"
                fill="#f2f5e9" fill-opacity="0.5" stroke="#606060" stroke-width="1.0"/>
           <path id="arrow"
             d="M 11.500037,31.436501 C 11.940474,20.09759 22.043105,11.32322 32.158766,21.979434 L 37.068811,17.246167 C 37.068811,17.246167 37.088388,32 37.088388,32 L 22.160133,31.978069 C 22.160133,31.978069 26.997745,27.140456 26.997745,27.140456 C 18.528582,18.264221 13.291696,25.230495 11.500037,31.436501 z"
             style="fill:#404040;"/>
          </a>
         </g>
        </svg>
</svg>
