<?xml version="1.0" encoding="UTF-8" standalone="no"?>
<!DOCTYPE svg PUBLIC "-//W3C//DTD SVG 1.1//EN"
 "http://www.w3.org/Graphics/SVG/1.1/DTD/svg11.dtd">
<!-- Generated by graphviz version 2.43.0 (0)
 -->
<!-- Title: wmtk::operations::tet_mesh::CollapseNewAttributeTopoInfo::merged_simplices Pages: 1 -->
<!--zoomable 755 -->
<svg id="main" version="1.1" xmlns="http://www.w3.org/2000/svg" xmlns:xlink="http://www.w3.org/1999/xlink" xml:space="preserve" onload="init(evt)">
<style type="text/css"><![CDATA[
.edge:hover path { stroke: red; }
.edge:hover polygon { stroke: red; fill: red; }
]]></style>
<script type="text/javascript"><![CDATA[
var edges = document.getElementsByTagName('g');
if (edges && edges.length) {
  for (var i=0;i<edges.length;i++) {
    if (edges[i].id.substr(0,4)=='edge') {
      edges[i].setAttribute('class','edge');
    }
  }
}
]]></script>
        <defs>
                <circle id="rim" cx="0" cy="0" r="7"/>
                <circle id="rim2" cx="0" cy="0" r="3.5"/>
                <g id="zoomPlus">
                        <use xlink:href="#rim" fill="#404040">
                                <set attributeName="fill" to="#808080" begin="zoomplus.mouseover" end="zoomplus.mouseout"/>
                        </use>
                        <path d="M-4,0h8M0,-4v8" fill="none" stroke="white" stroke-width="1.5" pointer-events="none"/>
                </g>
                <g id="zoomMin">
                        <use xlink:href="#rim" fill="#404040">
                                <set attributeName="fill" to="#808080" begin="zoomminus.mouseover" end="zoomminus.mouseout"/>
                        </use>
                        <path d="M-4,0h8" fill="none" stroke="white" stroke-width="1.5" pointer-events="none"/>
                </g>
                <g id="dirArrow">
                        <path fill="none" stroke="white" stroke-width="1.5" d="M0,-3.0v7 M-2.5,-0.5L0,-3.0L2.5,-0.5"/>
                </g>
               <g id="resetDef">
                       <use xlink:href="#rim2" fill="#404040">
                               <set attributeName="fill" to="#808080" begin="reset.mouseover" end="reset.mouseout"/>
                       </use>
               </g>
        </defs>

<script type="text/javascript">
var viewWidth = 1556;
var viewHeight = 755;
var sectionId = 'dynsection-2';
</script>
<script xlink:href="svgpan.js"/>
<svg id="graph" class="graph">
<g id="viewport">
<title>wmtk::operations::tet_mesh::CollapseNewAttributeTopoInfo::merged_simplices</title>
<!-- Node1 -->
<g id="node1" class="node">
<title>Node1</title>
<g id="a_node1"><a xlink:title=" ">
<polygon fill="#bfbfbf" stroke="black" points="0,-546 0,-587 161,-587 161,-546 0,-546"/>
<text text-anchor="start" x="8" y="-575" font-family="Helvetica,sans-Serif" font-size="10.00">wmtk::operations::tet</text>
<text text-anchor="start" x="8" y="-564" font-family="Helvetica,sans-Serif" font-size="10.00">_mesh::CollapseNewAttribute</text>
<text text-anchor="middle" x="80.5" y="-553" font-family="Helvetica,sans-Serif" font-size="10.00">TopoInfo::merged_simplices</text>
</a>
</g>
</g>
<!-- Node2 -->
<g id="node2" class="node">
<title>Node2</title>
<g id="a_node2"><a xlink:href="classwmtk_1_1operations_1_1tet__mesh_1_1_edge_operation_data.html#a66a25b17c95f2070f68cc3cc2f1800d4" target="_top" xlink:title=" ">
<polygon fill="none" stroke="black" points="197,-655 197,-696 347,-696 347,-655 197,-655"/>
<text text-anchor="start" x="205" y="-684" font-family="Helvetica,sans-Serif" font-size="10.00">wmtk::operations::tet</text>
<text text-anchor="start" x="205" y="-673" font-family="Helvetica,sans-Serif" font-size="10.00">_mesh::EdgeOperationData</text>
<text text-anchor="middle" x="272" y="-662" font-family="Helvetica,sans-Serif" font-size="10.00">::ear_edges</text>
</a>
</g>
</g>
<!-- Node1&#45;&gt;Node2 -->
<g id="edge1" class="edge">
<title>Node1&#45;&gt;Node2</title>
<path fill="none" stroke="midnightblue" d="M107.99,-587.05C130.76,-604.11 164.89,-628.27 197,-645.5 200.24,-647.24 203.61,-648.94 207.04,-650.6"/>
<polygon fill="midnightblue" stroke="midnightblue" points="205.69,-653.83 216.23,-654.85 208.63,-647.47 205.69,-653.83"/>
</g>
<!-- Node5 -->
<g id="node5" class="node">
<title>Node5</title>
<g id="a_node5"><a xlink:href="classwmtk_1_1operations_1_1tet__mesh_1_1_edge_operation_data.html#a3f64ab98767a583d112a78fde2a258ba" target="_top" xlink:title=" ">
<polygon fill="none" stroke="black" points="197,-595 197,-636 347,-636 347,-595 197,-595"/>
<text text-anchor="start" x="205" y="-624" font-family="Helvetica,sans-Serif" font-size="10.00">wmtk::operations::tet</text>
<text text-anchor="start" x="205" y="-613" font-family="Helvetica,sans-Serif" font-size="10.00">_mesh::EdgeOperationData</text>
<text text-anchor="middle" x="272" y="-602" font-family="Helvetica,sans-Serif" font-size="10.00">::ear_faces</text>
</a>
</g>
</g>
<!-- Node1&#45;&gt;Node5 -->
<g id="edge4" class="edge">
<title>Node1&#45;&gt;Node5</title>
<path fill="none" stroke="midnightblue" d="M161.04,-587.07C169.65,-589.29 178.43,-591.56 187.09,-593.8"/>
<polygon fill="midnightblue" stroke="midnightblue" points="186.25,-597.2 196.8,-596.31 188,-590.42 186.25,-597.2"/>
</g>
<!-- Node7 -->
<g id="node7" class="node">
<title>Node7</title>
<g id="a_node7"><a xlink:href="namespacewmtk.html#a5cf45c152e856196bb734c6f48919a24" target="_top" xlink:title="Get a unique integer id corresponding to each primitive type.">
<polygon fill="none" stroke="black" points="1419,-515.5 1419,-545.5 1535,-545.5 1535,-515.5 1419,-515.5"/>
<text text-anchor="start" x="1427" y="-533.5" font-family="Helvetica,sans-Serif" font-size="10.00">wmtk::get_primitive</text>
<text text-anchor="middle" x="1477" y="-522.5" font-family="Helvetica,sans-Serif" font-size="10.00">_type_id</text>
</a>
</g>
</g>
<!-- Node1&#45;&gt;Node7 -->
<g id="edge7" class="edge">
<title>Node1&#45;&gt;Node7</title>
<path fill="none" stroke="midnightblue" d="M161.15,-566.5C240.07,-566.5 364.38,-566.5 472,-566.5 472,-566.5 472,-566.5 1105.5,-566.5 1223.36,-566.5 1252.92,-561.07 1370,-547.5 1382.56,-546.04 1395.91,-544.17 1408.75,-542.19"/>
<polygon fill="midnightblue" stroke="midnightblue" points="1409.58,-545.6 1418.91,-540.59 1408.49,-538.69 1409.58,-545.6"/>
</g>
<!-- Node8 -->
<g id="node8" class="node">
<title>Node8</title>
<g id="a_node8"><a xlink:href="classwmtk_1_1operations_1_1tet__mesh_1_1_edge_operation_data.html#a0b36950981ccdbd5b04a2d7eccc758a3" target="_top" xlink:title=" ">
<polygon fill="none" stroke="black" points="197,-497 197,-538 347,-538 347,-497 197,-497"/>
<text text-anchor="start" x="205" y="-526" font-family="Helvetica,sans-Serif" font-size="10.00">wmtk::operations::tet</text>
<text text-anchor="start" x="205" y="-515" font-family="Helvetica,sans-Serif" font-size="10.00">_mesh::EdgeOperationData</text>
<text text-anchor="middle" x="272" y="-504" font-family="Helvetica,sans-Serif" font-size="10.00">::input_endpoints</text>
</a>
</g>
</g>
<!-- Node1&#45;&gt;Node8 -->
<g id="edge8" class="edge">
<title>Node1&#45;&gt;Node8</title>
<path fill="none" stroke="midnightblue" d="M161.04,-545.93C169.65,-543.71 178.43,-541.44 187.09,-539.2"/>
<polygon fill="midnightblue" stroke="midnightblue" points="188,-542.58 196.8,-536.69 186.25,-535.8 188,-542.58"/>
</g>
<!-- Node37 -->
<g id="node37" class="node">
<title>Node37</title>
<g id="a_node37"><a xlink:href="classwmtk_1_1_mesh.html#ac5778c1f8afef3a2b1b1c33a140b3166" target="_top" xlink:title="Evaluate the passed in function inside the parent scope.">
<polygon fill="none" stroke="black" points="215,-447.5 215,-477.5 329,-477.5 329,-447.5 215,-447.5"/>
<text text-anchor="start" x="223" y="-465.5" font-family="Helvetica,sans-Serif" font-size="10.00">wmtk::Mesh::parent</text>
<text text-anchor="middle" x="272" y="-454.5" font-family="Helvetica,sans-Serif" font-size="10.00">_scope</text>
</a>
</g>
</g>
<!-- Node1&#45;&gt;Node37 -->
<g id="edge43" class="edge">
<title>Node1&#45;&gt;Node37</title>
<path fill="none" stroke="midnightblue" d="M107.29,-545.8C129.89,-528.42 164.18,-503.88 197,-487.5 201.32,-485.34 205.88,-483.3 210.51,-481.39"/>
<polygon fill="midnightblue" stroke="midnightblue" points="212.06,-484.54 220.09,-477.64 209.5,-478.02 212.06,-484.54"/>
</g>
<!-- Node3 -->
<g id="node3" class="node">
<title>Node3</title>
<g id="a_node3"><a xlink:href="classwmtk_1_1operations_1_1tet__mesh_1_1_edge_operation_data.html#acddf202ad38f22b09eb8eb6af183cc8c" target="_top" xlink:title=" ">
<polygon fill="none" stroke="black" points="398,-705 398,-746 548,-746 548,-705 398,-705"/>
<text text-anchor="start" x="406" y="-734" font-family="Helvetica,sans-Serif" font-size="10.00">wmtk::operations::tet</text>
<text text-anchor="start" x="406" y="-723" font-family="Helvetica,sans-Serif" font-size="10.00">_mesh::EdgeOperationData</text>
<text text-anchor="middle" x="473" y="-712" font-family="Helvetica,sans-Serif" font-size="10.00">::incident_face_datas</text>
</a>
</g>
</g>
<!-- Node2&#45;&gt;Node3 -->
<g id="edge2" class="edge">
<title>Node2&#45;&gt;Node3</title>
<path fill="none" stroke="midnightblue" d="M347.1,-694.12C360.44,-697.47 374.43,-700.98 388.02,-704.4"/>
<polygon fill="midnightblue" stroke="midnightblue" points="387.29,-707.82 397.84,-706.87 388.99,-701.03 387.29,-707.82"/>
</g>
<!-- Node4 -->
<g id="node4" class="node">
<title>Node4</title>
<g id="a_node4"><a xlink:href="classwmtk_1_1operations_1_1_edge_operation_data.html#a37bc93fecbc4e30649298de051eee7ed" target="_top" xlink:title=" ">
<polygon fill="none" stroke="black" points="383,-655.5 383,-685.5 563,-685.5 563,-655.5 383,-655.5"/>
<text text-anchor="start" x="391" y="-673.5" font-family="Helvetica,sans-Serif" font-size="10.00">wmtk::operations::EdgeOperation</text>
<text text-anchor="middle" x="473" y="-662.5" font-family="Helvetica,sans-Serif" font-size="10.00">Data::tuple_from_id</text>
</a>
</g>
</g>
<!-- Node2&#45;&gt;Node4 -->
<g id="edge3" class="edge">
<title>Node2&#45;&gt;Node4</title>
<path fill="none" stroke="midnightblue" d="M347.1,-673.64C355.44,-673.43 364.03,-673.21 372.63,-673"/>
<polygon fill="midnightblue" stroke="midnightblue" points="372.79,-676.49 382.7,-672.74 372.62,-669.5 372.79,-676.49"/>
</g>
<!-- Node5&#45;&gt;Node4 -->
<g id="edge6" class="edge">
<title>Node5&#45;&gt;Node4</title>
<path fill="none" stroke="midnightblue" d="M347.1,-635.98C366.96,-641.47 388.26,-647.36 407.54,-652.69"/>
<polygon fill="midnightblue" stroke="midnightblue" points="406.86,-656.13 417.43,-655.42 408.72,-649.38 406.86,-656.13"/>
</g>
<!-- Node6 -->
<g id="node6" class="node">
<title>Node6</title>
<g id="a_node6"><a xlink:href="classwmtk_1_1operations_1_1tet__mesh_1_1_edge_operation_data.html#a3d1ea8b1bc5a57499a8bfecfa8aa0970" target="_top" xlink:title=" ">
<polygon fill="none" stroke="black" points="398,-595 398,-636 548,-636 548,-595 398,-595"/>
<text text-anchor="start" x="406" y="-624" font-family="Helvetica,sans-Serif" font-size="10.00">wmtk::operations::tet</text>
<text text-anchor="start" x="406" y="-613" font-family="Helvetica,sans-Serif" font-size="10.00">_mesh::EdgeOperationData</text>
<text text-anchor="middle" x="473" y="-602" font-family="Helvetica,sans-Serif" font-size="10.00">::incident_tet_datas</text>
</a>
</g>
</g>
<!-- Node5&#45;&gt;Node6 -->
<g id="edge5" class="edge">
<title>Node5&#45;&gt;Node6</title>
<path fill="none" stroke="midnightblue" d="M347.1,-615.5C360.31,-615.5 374.16,-615.5 387.63,-615.5"/>
<polygon fill="midnightblue" stroke="midnightblue" points="387.84,-619 397.84,-615.5 387.84,-612 387.84,-619"/>
</g>
<!-- Node9 -->
<g id="node9" class="node">
<title>Node9</title>
<g id="a_node9"><a xlink:href="classwmtk_1_1_tet_mesh.html#a53d9ec91a1c80da4ae10dea485564f27" target="_top" xlink:title="switch the orientation of the Tuple of the given dimension">
<polygon fill="none" stroke="black" points="409,-97.5 409,-127.5 537,-127.5 537,-97.5 409,-97.5"/>
<text text-anchor="start" x="417" y="-115.5" font-family="Helvetica,sans-Serif" font-size="10.00">wmtk::TetMesh::switch</text>
<text text-anchor="middle" x="473" y="-104.5" font-family="Helvetica,sans-Serif" font-size="10.00">_tuple</text>
</a>
</g>
</g>
<!-- Node8&#45;&gt;Node9 -->
<g id="edge9" class="edge">
<title>Node8&#45;&gt;Node9</title>
<path fill="none" stroke="midnightblue" d="M335.8,-496.94C339.88,-494.17 343.68,-491.04 347,-487.5 443.78,-384.38 465.75,-204.28 470.63,-137.96"/>
<polygon fill="midnightblue" stroke="midnightblue" points="474.15,-137.83 471.32,-127.62 467.17,-137.37 474.15,-137.83"/>
</g>
<!-- Node10 -->
<g id="node10" class="node">
<title>Node10</title>
<g id="a_node10"><a xlink:href="classwmtk_1_1_mesh_c_r_t_p.html#a58243712dc3e0d258ad645e7b08870db" target="_top" xlink:title="return the global id of the Tuple of the given dimension">
<polygon fill="none" stroke="black" points="613.5,-48.5 613.5,-78.5 766.5,-78.5 766.5,-48.5 613.5,-48.5"/>
<text text-anchor="start" x="621.5" y="-66.5" font-family="Helvetica,sans-Serif" font-size="10.00">wmtk::MeshCRTP&lt; TetMesh</text>
<text text-anchor="middle" x="690" y="-55.5" font-family="Helvetica,sans-Serif" font-size="10.00"> &gt;::id</text>
</a>
</g>
</g>
<!-- Node9&#45;&gt;Node10 -->
<g id="edge10" class="edge">
<title>Node9&#45;&gt;Node10</title>
<path fill="none" stroke="midnightblue" d="M537.05,-98.13C560.9,-92.69 588.29,-86.45 613.19,-80.78"/>
<polygon fill="midnightblue" stroke="midnightblue" points="613.98,-84.19 622.96,-78.55 612.43,-77.36 613.98,-84.19"/>
</g>
<!-- Node11 -->
<g id="node11" class="node">
<title>Node11</title>
<g id="a_node11"><a xlink:href="classwmtk_1_1_tet_mesh.html#af4002e7a36e20373deb54576caffa682" target="_top" xlink:title=" ">
<polygon fill="none" stroke="black" points="599,-8 599,-27 781,-27 781,-8 599,-8"/>
<text text-anchor="middle" x="690" y="-15" font-family="Helvetica,sans-Serif" font-size="10.00">wmtk::TetMesh::is_boundary_face</text>
</a>
</g>
</g>
<!-- Node9&#45;&gt;Node11 -->
<g id="edge11" class="edge">
<title>Node9&#45;&gt;Node11</title>
<path fill="none" stroke="midnightblue" d="M495.08,-97.28C519.13,-80.58 560.15,-54.1 599,-38.5 607.53,-35.08 616.75,-32.13 625.92,-29.63"/>
<polygon fill="midnightblue" stroke="midnightblue" points="627.01,-32.96 635.82,-27.08 625.26,-26.18 627.01,-32.96"/>
</g>
<!-- Node13 -->
<g id="node13" class="node">
<title>Node13</title>
<g id="a_node13"><a xlink:href="classwmtk_1_1_tet_mesh.html#af07828ce32b19a3d5fc8e1cb6f365029" target="_top" xlink:title="check validity of tuple including its hash">
<polygon fill="none" stroke="black" points="623,-148 623,-167 757,-167 757,-148 623,-148"/>
<text text-anchor="middle" x="690" y="-155" font-family="Helvetica,sans-Serif" font-size="10.00">wmtk::TetMesh::is_valid</text>
</a>
</g>
</g>
<!-- Node9&#45;&gt;Node13 -->
<g id="edge13" class="edge">
<title>Node9&#45;&gt;Node13</title>
<path fill="none" stroke="midnightblue" d="M537.05,-125.7C567.53,-132.08 603.8,-139.67 633.26,-145.83"/>
<polygon fill="midnightblue" stroke="midnightblue" points="632.87,-149.33 643.37,-147.95 634.3,-142.48 632.87,-149.33"/>
</g>
<!-- Node36 -->
<g id="node36" class="node">
<title>Node36</title>
<g id="a_node36"><a xlink:href="namespacewmtk_1_1autogen_1_1tet__mesh.html#a4060d948aa959f21810c425f3f197dd5" target="_top" xlink:title=" ">
<polygon fill="none" stroke="black" points="617.5,-97.5 617.5,-127.5 762.5,-127.5 762.5,-97.5 617.5,-97.5"/>
<text text-anchor="start" x="625.5" y="-115.5" font-family="Helvetica,sans-Serif" font-size="10.00">wmtk::autogen::tet</text>
<text text-anchor="middle" x="690" y="-104.5" font-family="Helvetica,sans-Serif" font-size="10.00">_mesh::local_switch_tuple</text>
</a>
</g>
</g>
<!-- Node9&#45;&gt;Node36 -->
<g id="edge41" class="edge">
<title>Node9&#45;&gt;Node36</title>
<path fill="none" stroke="midnightblue" d="M537.05,-112.5C558.97,-112.5 583.87,-112.5 607.08,-112.5"/>
<polygon fill="midnightblue" stroke="midnightblue" points="607.26,-116 617.26,-112.5 607.26,-109 607.26,-116"/>
</g>
<!-- Node12 -->
<g id="node12" class="node">
<title>Node12</title>
<g id="a_node12"><a xlink:href="classwmtk_1_1attribute_1_1_accessor.html#ada896c7e7910630ca0d3424baa3c3258" target="_top" xlink:title=" ">
<polygon fill="none" stroke="black" points="831,-0.5 831,-30.5 973,-30.5 973,-0.5 831,-0.5"/>
<text text-anchor="start" x="839" y="-18.5" font-family="Helvetica,sans-Serif" font-size="10.00">wmtk::attribute::Accessor</text>
<text text-anchor="middle" x="902" y="-7.5" font-family="Helvetica,sans-Serif" font-size="10.00">::const_vector_attribute</text>
</a>
</g>
</g>
<!-- Node11&#45;&gt;Node12 -->
<g id="edge12" class="edge">
<title>Node11&#45;&gt;Node12</title>
<path fill="none" stroke="midnightblue" d="M781.28,-16.64C794.35,-16.52 807.73,-16.39 820.59,-16.27"/>
<polygon fill="midnightblue" stroke="midnightblue" points="820.81,-19.76 830.77,-16.17 820.74,-12.76 820.81,-19.76"/>
</g>
<!-- Node14 -->
<g id="node14" class="node">
<title>Node14</title>
<g id="a_node14"><a xlink:href="classwmtk_1_1_tet_mesh.html#ad4ba72346d616d38086be74705865e55" target="_top" xlink:title=" ">
<polygon fill="none" stroke="black" points="817,-328.5 817,-358.5 987,-358.5 987,-328.5 817,-328.5"/>
<text text-anchor="start" x="825" y="-346.5" font-family="Helvetica,sans-Serif" font-size="10.00">wmtk::TetMesh::is_connectivity</text>
<text text-anchor="middle" x="902" y="-335.5" font-family="Helvetica,sans-Serif" font-size="10.00">_valid</text>
</a>
</g>
</g>
<!-- Node13&#45;&gt;Node14 -->
<g id="edge14" class="edge">
<title>Node13&#45;&gt;Node14</title>
<path fill="none" stroke="midnightblue" d="M701.99,-167.24C734.48,-196.01 830.58,-281.13 876.3,-321.62"/>
<polygon fill="midnightblue" stroke="midnightblue" points="874.16,-324.4 883.96,-328.41 878.8,-319.16 874.16,-324.4"/>
</g>
<!-- Node26 -->
<g id="node26" class="node">
<title>Node26</title>
<g id="a_node26"><a xlink:href="namespacewmtk.html#a6a35f11c12436093d26fdd8be6fecc06" target="_top" xlink:title="Retrieves the current logger.">
<polygon fill="none" stroke="black" points="1064,-186 1064,-205 1145,-205 1145,-186 1064,-186"/>
<text text-anchor="middle" x="1104.5" y="-193" font-family="Helvetica,sans-Serif" font-size="10.00">wmtk::logger</text>
</a>
</g>
</g>
<!-- Node13&#45;&gt;Node26 -->
<g id="edge35" class="edge">
<title>Node13&#45;&gt;Node26</title>
<path fill="none" stroke="midnightblue" d="M747.32,-167.02C769.04,-170.42 794.13,-174.02 817,-176.5 899.58,-185.45 996.04,-190.8 1053.32,-193.44"/>
<polygon fill="midnightblue" stroke="midnightblue" points="1053.4,-196.95 1063.55,-193.9 1053.72,-189.96 1053.4,-196.95"/>
</g>
<!-- Node28 -->
<g id="node28" class="node">
<title>Node28</title>
<g id="a_node28"><a xlink:href="classwmtk_1_1_mesh.html#a8cc8686f0688613806f43720b6db49e7" target="_top" xlink:title="check validity of tuple including its hash">
<polygon fill="none" stroke="black" points="842,-148 842,-167 962,-167 962,-148 842,-148"/>
<text text-anchor="middle" x="902" y="-155" font-family="Helvetica,sans-Serif" font-size="10.00">wmtk::Mesh::is_valid</text>
</a>
</g>
</g>
<!-- Node13&#45;&gt;Node28 -->
<g id="edge32" class="edge">
<title>Node13&#45;&gt;Node28</title>
<path fill="none" stroke="midnightblue" d="M757.16,-157.5C780.93,-157.5 807.8,-157.5 831.82,-157.5"/>
<polygon fill="midnightblue" stroke="midnightblue" points="831.93,-161 841.93,-157.5 831.93,-154 831.93,-161"/>
</g>
<!-- Node31 -->
<g id="node31" class="node">
<title>Node31</title>
<g id="a_node31"><a xlink:href="namespacewmtk_1_1autogen_1_1tet__mesh.html#a217b7c5c5312a716ad27c99abcfc0eb1" target="_top" xlink:title=" ">
<polygon fill="none" stroke="black" points="841,-88 841,-129 963,-129 963,-88 841,-88"/>
<text text-anchor="start" x="849" y="-117" font-family="Helvetica,sans-Serif" font-size="10.00">wmtk::autogen::tet</text>
<text text-anchor="start" x="849" y="-106" font-family="Helvetica,sans-Serif" font-size="10.00">_mesh::tuple_is_valid</text>
<text text-anchor="middle" x="902" y="-95" font-family="Helvetica,sans-Serif" font-size="10.00">_for_ccw</text>
</a>
</g>
</g>
<!-- Node13&#45;&gt;Node31 -->
<g id="edge36" class="edge">
<title>Node13&#45;&gt;Node31</title>
<path fill="none" stroke="midnightblue" d="M731.74,-147.99C759.84,-141.44 797.93,-132.55 830.85,-124.87"/>
<polygon fill="midnightblue" stroke="midnightblue" points="831.95,-128.21 840.89,-122.53 830.36,-121.39 831.95,-128.21"/>
</g>
<!-- Node15 -->
<g id="node15" class="node">
<title>Node15</title>
<g id="a_node15"><a xlink:href="classwmtk_1_1_mesh.html#a3e8ff83c4a5526a40d18bb9883c6c6c9" target="_top" xlink:title="read in the m_capacities return the upper bound for the number of entities of the given dimension">
<polygon fill="none" stroke="black" points="1234,-519 1234,-538 1358,-538 1358,-519 1234,-519"/>
<text text-anchor="middle" x="1296" y="-526" font-family="Helvetica,sans-Serif" font-size="10.00">wmtk::Mesh::capacity</text>
</a>
</g>
</g>
<!-- Node14&#45;&gt;Node15 -->
<g id="edge15" class="edge">
<title>Node14&#45;&gt;Node15</title>
<path fill="none" stroke="midnightblue" d="M909.04,-358.72C923.21,-392.1 962.02,-471.49 1023,-505.5 1084.4,-539.75 1165.97,-542.03 1223.72,-537.89"/>
<polygon fill="midnightblue" stroke="midnightblue" points="1224.17,-541.36 1233.86,-537.08 1223.61,-534.39 1224.17,-541.36"/>
</g>
<!-- Node16 -->
<g id="node16" class="node">
<title>Node16</title>
<g id="a_node16"><a xlink:href="classwmtk_1_1attribute_1_1_caching_accessor.html#a196b6b32e2495b971113d552be7f45d9" target="_top" xlink:title=" ">
<polygon fill="none" stroke="black" points="1227.5,-409 1227.5,-450 1364.5,-450 1364.5,-409 1227.5,-409"/>
<text text-anchor="start" x="1235.5" y="-438" font-family="Helvetica,sans-Serif" font-size="10.00">wmtk::attribute::Caching</text>
<text text-anchor="start" x="1235.5" y="-427" font-family="Helvetica,sans-Serif" font-size="10.00">Accessor::const_scalar</text>
<text text-anchor="middle" x="1296" y="-416" font-family="Helvetica,sans-Serif" font-size="10.00">_attribute</text>
</a>
</g>
</g>
<!-- Node14&#45;&gt;Node16 -->
<g id="edge17" class="edge">
<title>Node14&#45;&gt;Node16</title>
<path fill="none" stroke="midnightblue" d="M922.49,-358.53C945.21,-375.1 984.57,-400.94 1023,-412.5 1086.45,-431.58 1161.87,-434.87 1217.18,-433.94"/>
<polygon fill="midnightblue" stroke="midnightblue" points="1217.35,-437.44 1227.27,-433.72 1217.19,-430.44 1217.35,-437.44"/>
</g>
<!-- Node17 -->
<g id="node17" class="node">
<title>Node17</title>
<g id="a_node17"><a xlink:href="classwmtk_1_1attribute_1_1_caching_accessor.html#ab7a79d239fdc3d22fbc0c3a83a5c50bc" target="_top" xlink:title=" ">
<polygon fill="none" stroke="black" points="1036,-274 1036,-315 1173,-315 1173,-274 1036,-274"/>
<text text-anchor="start" x="1044" y="-303" font-family="Helvetica,sans-Serif" font-size="10.00">wmtk::attribute::Caching</text>
<text text-anchor="start" x="1044" y="-292" font-family="Helvetica,sans-Serif" font-size="10.00">Accessor::const_vector</text>
<text text-anchor="middle" x="1104.5" y="-281" font-family="Helvetica,sans-Serif" font-size="10.00">_attribute</text>
</a>
</g>
</g>
<!-- Node14&#45;&gt;Node17 -->
<g id="edge18" class="edge">
<title>Node14&#45;&gt;Node17</title>
<path fill="none" stroke="midnightblue" d="M964.52,-328.47C983.91,-323.73 1005.58,-318.43 1025.94,-313.46"/>
<polygon fill="midnightblue" stroke="midnightblue" points="1026.93,-316.82 1035.81,-311.04 1025.26,-310.02 1026.93,-316.82"/>
</g>
<!-- Node18 -->
<g id="node18" class="node">
<title>Node18</title>
<g id="a_node18"><a xlink:href="classwmtk_1_1_mesh.html#ae3493915b766f0f34f0a9e89603d5773" target="_top" xlink:title=" ">
<polygon fill="none" stroke="black" points="1043.5,-465.5 1043.5,-495.5 1165.5,-495.5 1165.5,-465.5 1043.5,-465.5"/>
<text text-anchor="start" x="1051.5" y="-483.5" font-family="Helvetica,sans-Serif" font-size="10.00">wmtk::Mesh::get_flag</text>
<text text-anchor="middle" x="1104.5" y="-472.5" font-family="Helvetica,sans-Serif" font-size="10.00">_accessor</text>
</a>
</g>
</g>
<!-- Node14&#45;&gt;Node18 -->
<g id="edge19" class="edge">
<title>Node14&#45;&gt;Node18</title>
<path fill="none" stroke="midnightblue" d="M917.76,-358.61C939.34,-380.06 981.46,-419.61 1023,-445.5 1032.41,-451.36 1042.97,-456.72 1053.27,-461.38"/>
<polygon fill="midnightblue" stroke="midnightblue" points="1052.04,-464.67 1062.61,-465.47 1054.85,-458.26 1052.04,-464.67"/>
</g>
<!-- Node21 -->
<g id="node21" class="node">
<title>Node21</title>
<g id="a_node21"><a xlink:href="classwmtk_1_1attribute_1_1_accessor.html#a41f40a73a13789707c117bda177dfc83" target="_top" xlink:title=" ">
<polygon fill="none" stroke="black" points="1225,-310.5 1225,-340.5 1367,-340.5 1367,-310.5 1225,-310.5"/>
<text text-anchor="start" x="1233" y="-328.5" font-family="Helvetica,sans-Serif" font-size="10.00">wmtk::attribute::Accessor</text>
<text text-anchor="middle" x="1296" y="-317.5" font-family="Helvetica,sans-Serif" font-size="10.00">::index_access</text>
</a>
</g>
</g>
<!-- Node14&#45;&gt;Node21 -->
<g id="edge23" class="edge">
<title>Node14&#45;&gt;Node21</title>
<path fill="none" stroke="midnightblue" d="M987.09,-339.64C1054.5,-336.54 1148.46,-332.23 1214.81,-329.18"/>
<polygon fill="midnightblue" stroke="midnightblue" points="1214.97,-332.68 1224.8,-328.72 1214.65,-325.69 1214.97,-332.68"/>
</g>
<!-- Node23 -->
<g id="node23" class="node">
<title>Node23</title>
<g id="a_node23"><a xlink:href="classwmtk_1_1attribute_1_1_flag_accessor.html#a03ac42d95cb81c6a751eb9b5de9f84d1" target="_top" xlink:title=" ">
<polygon fill="none" stroke="black" points="1023,-224.5 1023,-254.5 1186,-254.5 1186,-224.5 1023,-224.5"/>
<text text-anchor="start" x="1031" y="-242.5" font-family="Helvetica,sans-Serif" font-size="10.00">wmtk::attribute::FlagAccessor</text>
<text text-anchor="middle" x="1104.5" y="-231.5" font-family="Helvetica,sans-Serif" font-size="10.00">::index_access</text>
</a>
</g>
</g>
<!-- Node14&#45;&gt;Node23 -->
<g id="edge25" class="edge">
<title>Node14&#45;&gt;Node23</title>
<path fill="none" stroke="midnightblue" d="M922.36,-328.26C945.28,-310.84 985.12,-282.41 1023,-264.5 1027.88,-262.19 1033.02,-260.03 1038.25,-258.02"/>
<polygon fill="midnightblue" stroke="midnightblue" points="1039.53,-261.28 1047.72,-254.57 1037.13,-254.71 1039.53,-261.28"/>
</g>
<!-- Node24 -->
<g id="node24" class="node">
<title>Node24</title>
<g id="a_node24"><a xlink:href="classwmtk_1_1attribute_1_1_index_flag_accessor.html#a195252af3f6230f09f0c1379cbec7240" target="_top" xlink:title=" ">
<polygon fill="none" stroke="black" points="1031.5,-372.5 1031.5,-402.5 1177.5,-402.5 1177.5,-372.5 1031.5,-372.5"/>
<text text-anchor="start" x="1039.5" y="-390.5" font-family="Helvetica,sans-Serif" font-size="10.00">wmtk::attribute::IndexFlag</text>
<text text-anchor="middle" x="1104.5" y="-379.5" font-family="Helvetica,sans-Serif" font-size="10.00">Accessor::is_active</text>
</a>
</g>
</g>
<!-- Node14&#45;&gt;Node24 -->
<g id="edge26" class="edge">
<title>Node14&#45;&gt;Node24</title>
<path fill="none" stroke="midnightblue" d="M971.44,-358.52C988.6,-362.29 1007.16,-366.36 1024.78,-370.22"/>
<polygon fill="midnightblue" stroke="midnightblue" points="1024.51,-373.75 1035.03,-372.47 1026.01,-366.91 1024.51,-373.75"/>
</g>
<!-- Node14&#45;&gt;Node26 -->
<g id="edge30" class="edge">
<title>Node14&#45;&gt;Node26</title>
<path fill="none" stroke="midnightblue" d="M912.86,-328.2C931.16,-301.11 973.08,-244.79 1023,-215.5 1032.32,-210.03 1043.09,-206.05 1053.66,-203.16"/>
<polygon fill="midnightblue" stroke="midnightblue" points="1054.8,-206.48 1063.68,-200.7 1053.13,-199.68 1054.8,-206.48"/>
</g>
<!-- Node15&#45;&gt;Node7 -->
<g id="edge16" class="edge">
<title>Node15&#45;&gt;Node7</title>
<path fill="none" stroke="midnightblue" d="M1358.1,-529.18C1374.37,-529.36 1392.04,-529.56 1408.63,-529.75"/>
<polygon fill="midnightblue" stroke="midnightblue" points="1408.75,-533.25 1418.79,-529.86 1408.83,-526.25 1408.75,-533.25"/>
</g>
<!-- Node19 -->
<g id="node19" class="node">
<title>Node19</title>
<g id="a_node19"><a xlink:href="classwmtk_1_1_mesh.html#acfa981b31f00aef4438ff5e73bbce2f4" target="_top" xlink:title=" ">
<polygon fill="none" stroke="black" points="1231,-469.5 1231,-499.5 1361,-499.5 1361,-469.5 1231,-469.5"/>
<text text-anchor="start" x="1239" y="-487.5" font-family="Helvetica,sans-Serif" font-size="10.00">wmtk::Mesh::get_const</text>
<text text-anchor="middle" x="1296" y="-476.5" font-family="Helvetica,sans-Serif" font-size="10.00">_flag_accessor</text>
</a>
</g>
</g>
<!-- Node18&#45;&gt;Node19 -->
<g id="edge20" class="edge">
<title>Node18&#45;&gt;Node19</title>
<path fill="none" stroke="midnightblue" d="M1165.72,-481.77C1183.1,-482.14 1202.29,-482.54 1220.43,-482.93"/>
<polygon fill="midnightblue" stroke="midnightblue" points="1220.61,-486.43 1230.68,-483.14 1220.76,-479.43 1220.61,-486.43"/>
</g>
<!-- Node19&#45;&gt;Node7 -->
<g id="edge22" class="edge">
<title>Node19&#45;&gt;Node7</title>
<path fill="none" stroke="midnightblue" d="M1355.61,-499.56C1372.57,-503.92 1391.22,-508.71 1408.67,-513.2"/>
<polygon fill="midnightblue" stroke="midnightblue" points="1408.23,-516.7 1418.78,-515.8 1409.97,-509.92 1408.23,-516.7"/>
</g>
<!-- Node20 -->
<g id="node20" class="node">
<title>Node20</title>
<g id="a_node20"><a xlink:href="classwmtk_1_1_mesh.html#a4a20dcdac339e7a4f6f8a6570114cbe6" target="_top" xlink:title=" ">
<polygon fill="none" stroke="black" points="1420.5,-466.5 1420.5,-496.5 1533.5,-496.5 1533.5,-466.5 1420.5,-466.5"/>
<text text-anchor="start" x="1428.5" y="-484.5" font-family="Helvetica,sans-Serif" font-size="10.00">wmtk::Mesh::create</text>
<text text-anchor="middle" x="1477" y="-473.5" font-family="Helvetica,sans-Serif" font-size="10.00">_const_accessor</text>
</a>
</g>
</g>
<!-- Node19&#45;&gt;Node20 -->
<g id="edge21" class="edge">
<title>Node19&#45;&gt;Node20</title>
<path fill="none" stroke="midnightblue" d="M1361.12,-483.43C1377,-483.16 1394.04,-482.87 1410.01,-482.61"/>
<polygon fill="midnightblue" stroke="midnightblue" points="1410.39,-486.1 1420.33,-482.43 1410.27,-479.1 1410.39,-486.1"/>
</g>
<!-- Node22 -->
<g id="node22" class="node">
<title>Node22</title>
<g id="a_node22"><a xlink:href="classwmtk_1_1attribute_1_1_accessor.html#a9c7d323f50911892c8ea738f97d041d4" target="_top" xlink:title=" ">
<polygon fill="none" stroke="black" points="1406,-310.5 1406,-340.5 1548,-340.5 1548,-310.5 1406,-310.5"/>
<text text-anchor="start" x="1414" y="-328.5" font-family="Helvetica,sans-Serif" font-size="10.00">wmtk::attribute::Accessor</text>
<text text-anchor="middle" x="1477" y="-317.5" font-family="Helvetica,sans-Serif" font-size="10.00">::caching_base_type</text>
</a>
</g>
</g>
<!-- Node21&#45;&gt;Node22 -->
<g id="edge24" class="edge">
<title>Node21&#45;&gt;Node22</title>
<path fill="none" stroke="midnightblue" d="M1367.23,-325.5C1376.58,-325.5 1386.23,-325.5 1395.73,-325.5"/>
<polygon fill="midnightblue" stroke="midnightblue" points="1395.97,-329 1405.97,-325.5 1395.97,-322 1395.97,-329"/>
</g>
<!-- Node24&#45;&gt;Node16 -->
<g id="edge28" class="edge">
<title>Node24&#45;&gt;Node16</title>
<path fill="none" stroke="midnightblue" d="M1173.38,-402.54C1187.62,-405.7 1202.74,-409.05 1217.3,-412.28"/>
<polygon fill="midnightblue" stroke="midnightblue" points="1216.76,-415.74 1227.28,-414.49 1218.27,-408.91 1216.76,-415.74"/>
</g>
<!-- Node24&#45;&gt;Node21 -->
<g id="edge29" class="edge">
<title>Node24&#45;&gt;Node21</title>
<path fill="none" stroke="midnightblue" d="M1151.37,-372.49C1177.83,-363.84 1211.29,-352.89 1239.25,-343.74"/>
<polygon fill="midnightblue" stroke="midnightblue" points="1240.48,-347.02 1248.89,-340.59 1238.3,-340.37 1240.48,-347.02"/>
</g>
<!-- Node25 -->
<g id="node25" class="node">
<title>Node25</title>
<g id="a_node25"><a xlink:href="classwmtk_1_1attribute_1_1_index_flag_accessor.html#a08ce19b077654f9e384d8c3fffcbbd0b" target="_top" xlink:title=" ">
<polygon fill="none" stroke="black" points="1223,-359.5 1223,-389.5 1369,-389.5 1369,-359.5 1223,-359.5"/>
<text text-anchor="start" x="1231" y="-377.5" font-family="Helvetica,sans-Serif" font-size="10.00">wmtk::attribute::IndexFlag</text>
<text text-anchor="middle" x="1296" y="-366.5" font-family="Helvetica,sans-Serif" font-size="10.00">Accessor::_is_active</text>
</a>
</g>
</g>
<!-- Node24&#45;&gt;Node25 -->
<g id="edge27" class="edge">
<title>Node24&#45;&gt;Node25</title>
<path fill="none" stroke="midnightblue" d="M1177.68,-382.55C1189.09,-381.77 1200.96,-380.95 1212.58,-380.15"/>
<polygon fill="midnightblue" stroke="midnightblue" points="1212.97,-383.64 1222.7,-379.46 1212.49,-376.65 1212.97,-383.64"/>
</g>
<!-- Node27 -->
<g id="node27" class="node">
<title>Node27</title>
<g id="a_node27"><a xlink:href="namespacewmtk.html#a3daa7951a5f8b78cf4600dc047fcc180" target="_top" xlink:title="Setup a logger object to be used by WildmeshToolkit.">
<polygon fill="none" stroke="black" points="1245.5,-186 1245.5,-205 1346.5,-205 1346.5,-186 1245.5,-186"/>
<text text-anchor="middle" x="1296" y="-193" font-family="Helvetica,sans-Serif" font-size="10.00">wmtk::set_logger</text>
</a>
</g>
</g>
<!-- Node26&#45;&gt;Node27 -->
<g id="edge31" class="edge">
<title>Node26&#45;&gt;Node27</title>
<path fill="none" stroke="midnightblue" d="M1145.23,-195.5C1171.24,-195.5 1205.73,-195.5 1235.06,-195.5"/>
<polygon fill="midnightblue" stroke="midnightblue" points="1235.19,-199 1245.19,-195.5 1235.19,-192 1235.19,-199"/>
</g>
<!-- Node29 -->
<g id="node29" class="node">
<title>Node29</title>
<g id="a_node29"><a xlink:href="classwmtk_1_1_tuple.html#a0023f575be92cd5ceeeaaaa3762ea06d" target="_top" xlink:title="Checks if a tuple is &quot;null&quot;. This merely implies the global index is &#45;1.">
<polygon fill="none" stroke="black" points="1048,-148 1048,-167 1161,-167 1161,-148 1048,-148"/>
<text text-anchor="middle" x="1104.5" y="-155" font-family="Helvetica,sans-Serif" font-size="10.00">wmtk::Tuple::is_null</text>
</a>
</g>
</g>
<!-- Node28&#45;&gt;Node29 -->
<g id="edge33" class="edge">
<title>Node28&#45;&gt;Node29</title>
<path fill="none" stroke="midnightblue" d="M962.07,-157.5C985.82,-157.5 1013.31,-157.5 1037.7,-157.5"/>
<polygon fill="midnightblue" stroke="midnightblue" points="1037.94,-161 1047.94,-157.5 1037.94,-154 1037.94,-161"/>
</g>
<!-- Node30 -->
<g id="node30" class="node">
<title>Node30</title>
<g id="a_node30"><a xlink:href="classwmtk_1_1_mesh.html#ade176d345902d97af8c5da04aa3a095b" target="_top" xlink:title=" ">
<polygon fill="none" stroke="black" points="1034.5,-110 1034.5,-129 1174.5,-129 1174.5,-110 1034.5,-110"/>
<text text-anchor="middle" x="1104.5" y="-117" font-family="Helvetica,sans-Serif" font-size="10.00">wmtk::Mesh::is_removed</text>
</a>
</g>
</g>
<!-- Node28&#45;&gt;Node30 -->
<g id="edge34" class="edge">
<title>Node28&#45;&gt;Node30</title>
<path fill="none" stroke="midnightblue" d="M953.34,-147.96C980.63,-142.79 1014.54,-136.36 1043.23,-130.92"/>
<polygon fill="midnightblue" stroke="midnightblue" points="1043.97,-134.34 1053.14,-129.04 1042.67,-127.47 1043.97,-134.34"/>
</g>
<!-- Node32 -->
<g id="node32" class="node">
<title>Node32</title>
<g id="a_node32"><a xlink:href="namespacewmtk_1_1autogen_1_1tet__mesh.html#ace6b80b1be9aec0d6a5ac5d144b40965" target="_top" xlink:title=" ">
<polygon fill="none" stroke="black" points="1043.5,-45 1043.5,-86 1165.5,-86 1165.5,-45 1043.5,-45"/>
<text text-anchor="start" x="1051.5" y="-74" font-family="Helvetica,sans-Serif" font-size="10.00">wmtk::autogen::tet</text>
<text text-anchor="start" x="1051.5" y="-63" font-family="Helvetica,sans-Serif" font-size="10.00">_mesh::local_id_table</text>
<text text-anchor="middle" x="1104.5" y="-52" font-family="Helvetica,sans-Serif" font-size="10.00">_offset</text>
</a>
</g>
</g>
<!-- Node31&#45;&gt;Node32 -->
<g id="edge37" class="edge">
<title>Node31&#45;&gt;Node32</title>
<path fill="none" stroke="midnightblue" d="M963.16,-95.6C985.26,-90.86 1010.48,-85.45 1033.39,-80.54"/>
<polygon fill="midnightblue" stroke="midnightblue" points="1034.34,-83.91 1043.39,-78.39 1032.87,-77.07 1034.34,-83.91"/>
</g>
<!-- Node33 -->
<g id="node33" class="node">
<title>Node33</title>
<g id="a_node33"><a xlink:href="classwmtk_1_1utils_1_1_tuple_inspector.html#a3a04acf16e0eff80ade8e0fb8753ac1b" target="_top" xlink:title=" ">
<polygon fill="none" stroke="black" points="1222,-99.5 1222,-129.5 1370,-129.5 1370,-99.5 1222,-99.5"/>
<text text-anchor="start" x="1230" y="-117.5" font-family="Helvetica,sans-Serif" font-size="10.00">wmtk::utils::TupleInspector</text>
<text text-anchor="middle" x="1296" y="-106.5" font-family="Helvetica,sans-Serif" font-size="10.00">::local_eid</text>
</a>
</g>
</g>
<!-- Node32&#45;&gt;Node33 -->
<g id="edge38" class="edge">
<title>Node32&#45;&gt;Node33</title>
<path fill="none" stroke="midnightblue" d="M1165.72,-81.07C1185.28,-86.13 1207.11,-91.77 1227.18,-96.96"/>
<polygon fill="midnightblue" stroke="midnightblue" points="1226.32,-100.36 1236.88,-99.47 1228.07,-93.58 1226.32,-100.36"/>
</g>
<!-- Node34 -->
<g id="node34" class="node">
<title>Node34</title>
<g id="a_node34"><a xlink:href="classwmtk_1_1utils_1_1_tuple_inspector.html#ae4f5c770f4a2f9440eef24448929432d" target="_top" xlink:title=" ">
<polygon fill="none" stroke="black" points="1222,-50.5 1222,-80.5 1370,-80.5 1370,-50.5 1222,-50.5"/>
<text text-anchor="start" x="1230" y="-68.5" font-family="Helvetica,sans-Serif" font-size="10.00">wmtk::utils::TupleInspector</text>
<text text-anchor="middle" x="1296" y="-57.5" font-family="Helvetica,sans-Serif" font-size="10.00">::local_fid</text>
</a>
</g>
</g>
<!-- Node32&#45;&gt;Node34 -->
<g id="edge39" class="edge">
<title>Node32&#45;&gt;Node34</title>
<path fill="none" stroke="midnightblue" d="M1165.72,-65.5C1180.39,-65.5 1196.34,-65.5 1211.86,-65.5"/>
<polygon fill="midnightblue" stroke="midnightblue" points="1211.99,-69 1221.99,-65.5 1211.99,-62 1211.99,-69"/>
</g>
<!-- Node35 -->
<g id="node35" class="node">
<title>Node35</title>
<g id="a_node35"><a xlink:href="classwmtk_1_1utils_1_1_tuple_inspector.html#a92f5faa08a7f78424f5cd1ec79dcedbb" target="_top" xlink:title=" ">
<polygon fill="none" stroke="black" points="1222,-1.5 1222,-31.5 1370,-31.5 1370,-1.5 1222,-1.5"/>
<text text-anchor="start" x="1230" y="-19.5" font-family="Helvetica,sans-Serif" font-size="10.00">wmtk::utils::TupleInspector</text>
<text text-anchor="middle" x="1296" y="-8.5" font-family="Helvetica,sans-Serif" font-size="10.00">::local_vid</text>
</a>
</g>
</g>
<!-- Node32&#45;&gt;Node35 -->
<g id="edge40" class="edge">
<title>Node32&#45;&gt;Node35</title>
<path fill="none" stroke="midnightblue" d="M1165.72,-49.93C1185.28,-44.87 1207.11,-39.23 1227.18,-34.04"/>
<polygon fill="midnightblue" stroke="midnightblue" points="1228.07,-37.42 1236.88,-31.53 1226.32,-30.64 1228.07,-37.42"/>
</g>
<!-- Node36&#45;&gt;Node32 -->
<g id="edge42" class="edge">
<title>Node36&#45;&gt;Node32</title>
<path fill="none" stroke="midnightblue" d="M745.59,-97.48C777.87,-88.65 813.19,-79.09 817,-78.5 890.1,-67.12 974.85,-64.57 1033.11,-64.43"/>
<polygon fill="midnightblue" stroke="midnightblue" points="1033.31,-67.93 1043.31,-64.43 1033.31,-60.93 1033.31,-67.93"/>
</g>
</g>
</svg>
        <g id="navigator" transform="translate(0 0)" fill="#404254">
                <rect fill="#f2f5e9" fill-opacity="0.5" stroke="#606060" stroke-width=".5" x="0" y="0" width="60" height="60"/>
                <use id="zoomplus" xlink:href="#zoomPlus" x="17" y="9" onmousedown="handleZoom(evt,'in')"/>
                <use id="zoomminus" xlink:href="#zoomMin" x="42" y="9" onmousedown="handleZoom(evt,'out')"/>
                <use id="reset" xlink:href="#resetDef" x="30" y="36" onmousedown="handleReset()"/>
                <g id="arrowUp" xlink:href="#dirArrow" transform="translate(30 24)" onmousedown="handlePan(0,-1)">
                  <use xlink:href="#rim" fill="#404040">
                        <set attributeName="fill" to="#808080" begin="arrowUp.mouseover" end="arrowUp.mouseout"/>
                  </use>
                  <path fill="none" stroke="white" stroke-width="1.5" d="M0,-3.0v7 M-2.5,-0.5L0,-3.0L2.5,-0.5"/>
                </g>
                <g id="arrowRight" xlink:href="#dirArrow" transform="rotate(90) translate(36 -43)" onmousedown="handlePan(1,0)">
                  <use xlink:href="#rim" fill="#404040">
                        <set attributeName="fill" to="#808080" begin="arrowRight.mouseover" end="arrowRight.mouseout"/>
                  </use>
                  <path fill="none" stroke="white" stroke-width="1.5" d="M0,-3.0v7 M-2.5,-0.5L0,-3.0L2.5,-0.5"/>
                </g>
                <g id="arrowDown" xlink:href="#dirArrow" transform="rotate(180) translate(-30 -48)" onmousedown="handlePan(0,1)">
                  <use xlink:href="#rim" fill="#404040">
                        <set attributeName="fill" to="#808080" begin="arrowDown.mouseover" end="arrowDown.mouseout"/>
                  </use>
                  <path fill="none" stroke="white" stroke-width="1.5" d="M0,-3.0v7 M-2.5,-0.5L0,-3.0L2.5,-0.5"/>
                </g>
                <g id="arrowLeft" xlink:href="#dirArrow" transform="rotate(270) translate(-36 17)" onmousedown="handlePan(-1,0)">
                  <use xlink:href="#rim" fill="#404040">
                        <set attributeName="fill" to="#808080" begin="arrowLeft.mouseover" end="arrowLeft.mouseout"/>
                  </use>
                  <path fill="none" stroke="white" stroke-width="1.5" d="M0,-3.0v7 M-2.5,-0.5L0,-3.0L2.5,-0.5"/>
                </g>
        </g>
        <svg viewBox="0 0 15 15" width="100%" height="30px" preserveAspectRatio="xMaxYMin meet">
         <g id="arrow_out" transform="scale(0.3 0.3)">
          <a xlink:href="classwmtk_1_1operations_1_1tet__mesh_1_1_collapse_new_attribute_topo_info_a9f0532f826f70f51e8b5a9a2275e426b_cgraph_org.svg" target="_base">
           <rect id="button" ry="5" rx="5" y="6" x="6" height="38" width="38"
                fill="#f2f5e9" fill-opacity="0.5" stroke="#606060" stroke-width="1.0"/>
           <path id="arrow"
             d="M 11.500037,31.436501 C 11.940474,20.09759 22.043105,11.32322 32.158766,21.979434 L 37.068811,17.246167 C 37.068811,17.246167 37.088388,32 37.088388,32 L 22.160133,31.978069 C 22.160133,31.978069 26.997745,27.140456 26.997745,27.140456 C 18.528582,18.264221 13.291696,25.230495 11.500037,31.436501 z"
             style="fill:#404040;"/>
          </a>
         </g>
        </svg>
</svg>
