<?xml version="1.0" encoding="UTF-8" standalone="no"?>
<!DOCTYPE svg PUBLIC "-//W3C//DTD SVG 1.1//EN"
 "http://www.w3.org/Graphics/SVG/1.1/DTD/svg11.dtd">
<!-- Generated by graphviz version 2.43.0 (0)
 -->
<!-- Title: wmtk::simplex::utils::SimplexComparisons::less Pages: 1 -->
<svg width="452pt" height="39pt"
 viewBox="0.00 0.00 452.00 39.00" xmlns="http://www.w3.org/2000/svg" xmlns:xlink="http://www.w3.org/1999/xlink">
<g id="graph0" class="graph" transform="scale(1 1) rotate(0) translate(4 35)">
<title>wmtk::simplex::utils::SimplexComparisons::less</title>
<!-- Node1 -->
<g id="node1" class="node">
<title>Node1</title>
<g id="a_node1"><a xlink:title=" ">
<polygon fill="#bfbfbf" stroke="black" points="0,-0.5 0,-30.5 152,-30.5 152,-0.5 0,-0.5"/>
<text text-anchor="start" x="8" y="-18.5" font-family="Helvetica,sans-Serif" font-size="10.00">wmtk::simplex::utils</text>
<text text-anchor="middle" x="76" y="-7.5" font-family="Helvetica,sans-Serif" font-size="10.00">::SimplexComparisons::less</text>
</a>
</g>
</g>
<!-- Node2 -->
<g id="node2" class="node">
<title>Node2</title>
<g id="a_node2"><a xlink:href="classwmtk_1_1_mesh.html#a58243712dc3e0d258ad645e7b08870db" target="_top" xlink:title="return the global id of the Tuple of the given dimension">
<polygon fill="none" stroke="black" points="188,-6 188,-25 280,-25 280,-6 188,-6"/>
<text text-anchor="middle" x="234" y="-13" font-family="Helvetica,sans-Serif" font-size="10.00">wmtk::Mesh::id</text>
</a>
</g>
</g>
<!-- Node1&#45;&gt;Node2 -->
<g id="edge1" class="edge">
<title>Node1&#45;&gt;Node2</title>
<path fill="none" stroke="midnightblue" d="M152.26,-15.5C160.8,-15.5 169.39,-15.5 177.62,-15.5"/>
<polygon fill="midnightblue" stroke="midnightblue" points="177.81,-19 187.81,-15.5 177.81,-12 177.81,-19"/>
</g>
<!-- Node3 -->
<g id="node3" class="node">
<title>Node3</title>
<g id="a_node3"><a xlink:href="classwmtk_1_1_mesh.html#a6f6c3b9a1d738d05ec8d84cabfa5e4b4" target="_top" xlink:title="Internal utility to allow id to be virtual with a non&#45;virtual overload in derived &#45;Mesh classes.">
<polygon fill="none" stroke="black" points="316,-6 316,-25 444,-25 444,-6 316,-6"/>
<text text-anchor="middle" x="380" y="-13" font-family="Helvetica,sans-Serif" font-size="10.00">wmtk::Mesh::id_virtual</text>
</a>
</g>
</g>
<!-- Node2&#45;&gt;Node3 -->
<g id="edge2" class="edge">
<title>Node2&#45;&gt;Node3</title>
<path fill="none" stroke="midnightblue" d="M280.17,-15.5C288.29,-15.5 296.94,-15.5 305.62,-15.5"/>
<polygon fill="midnightblue" stroke="midnightblue" points="305.79,-19 315.79,-15.5 305.79,-12 305.79,-19"/>
</g>
</g>
</svg>
