<?xml version="1.0" encoding="UTF-8" standalone="no"?>
<!DOCTYPE svg PUBLIC "-//W3C//DTD SVG 1.1//EN"
 "http://www.w3.org/Graphics/SVG/1.1/DTD/svg11.dtd">
<!-- Generated by graphviz version 2.43.0 (0)
 -->
<!-- Title: wmtk::invariants::EdgeValenceInvariant::before Pages: 1 -->
<!--zoomable 264 -->
<svg id="main" version="1.1" xmlns="http://www.w3.org/2000/svg" xmlns:xlink="http://www.w3.org/1999/xlink" xml:space="preserve" onload="init(evt)">
<style type="text/css"><![CDATA[
.edge:hover path { stroke: red; }
.edge:hover polygon { stroke: red; fill: red; }
]]></style>
<script type="text/javascript"><![CDATA[
var edges = document.getElementsByTagName('g');
if (edges && edges.length) {
  for (var i=0;i<edges.length;i++) {
    if (edges[i].id.substr(0,4)=='edge') {
      edges[i].setAttribute('class','edge');
    }
  }
}
]]></script>
        <defs>
                <circle id="rim" cx="0" cy="0" r="7"/>
                <circle id="rim2" cx="0" cy="0" r="3.5"/>
                <g id="zoomPlus">
                        <use xlink:href="#rim" fill="#404040">
                                <set attributeName="fill" to="#808080" begin="zoomplus.mouseover" end="zoomplus.mouseout"/>
                        </use>
                        <path d="M-4,0h8M0,-4v8" fill="none" stroke="white" stroke-width="1.5" pointer-events="none"/>
                </g>
                <g id="zoomMin">
                        <use xlink:href="#rim" fill="#404040">
                                <set attributeName="fill" to="#808080" begin="zoomminus.mouseover" end="zoomminus.mouseout"/>
                        </use>
                        <path d="M-4,0h8" fill="none" stroke="white" stroke-width="1.5" pointer-events="none"/>
                </g>
                <g id="dirArrow">
                        <path fill="none" stroke="white" stroke-width="1.5" d="M0,-3.0v7 M-2.5,-0.5L0,-3.0L2.5,-0.5"/>
                </g>
               <g id="resetDef">
                       <use xlink:href="#rim2" fill="#404040">
                               <set attributeName="fill" to="#808080" begin="reset.mouseover" end="reset.mouseout"/>
                       </use>
               </g>
        </defs>

<script type="text/javascript">
var viewWidth = 1308;
var viewHeight = 264;
var sectionId = 'dynsection-2';
</script>
<script xlink:href="svgpan.js"/>
<svg id="graph" class="graph">
<g id="viewport">
<title>wmtk::invariants::EdgeValenceInvariant::before</title>
<!-- Node1 -->
<g id="node1" class="node">
<title>Node1</title>
<g id="a_node1"><a xlink:title=" ">
<polygon fill="#bfbfbf" stroke="black" points="0,-134.5 0,-164.5 167,-164.5 167,-134.5 0,-134.5"/>
<text text-anchor="start" x="8" y="-152.5" font-family="Helvetica,sans-Serif" font-size="10.00">wmtk::invariants::EdgeValence</text>
<text text-anchor="middle" x="83.5" y="-141.5" font-family="Helvetica,sans-Serif" font-size="10.00">Invariant::before</text>
</a>
</g>
</g>
<!-- Node2 -->
<g id="node2" class="node">
<title>Node2</title>
<g id="a_node2"><a xlink:href="classwmtk_1_1invariants_1_1_invariant.html#ac97548bf5f1167cd85081d1bde011139" target="_top" xlink:title=" ">
<polygon fill="none" stroke="black" points="204,-200.5 204,-230.5 353,-230.5 353,-200.5 204,-200.5"/>
<text text-anchor="start" x="212" y="-218.5" font-family="Helvetica,sans-Serif" font-size="10.00">wmtk::invariants::Invariant</text>
<text text-anchor="middle" x="278.5" y="-207.5" font-family="Helvetica,sans-Serif" font-size="10.00">::mesh</text>
</a>
</g>
</g>
<!-- Node1&#45;&gt;Node2 -->
<g id="edge1" class="edge">
<title>Node1&#45;&gt;Node2</title>
<path fill="none" stroke="midnightblue" d="M128.78,-164.64C157.1,-174.33 194,-186.95 223.96,-197.19"/>
<polygon fill="midnightblue" stroke="midnightblue" points="222.83,-200.5 233.43,-200.43 225.1,-193.88 222.83,-200.5"/>
</g>
<!-- Node3 -->
<g id="node3" class="node">
<title>Node3</title>
<g id="a_node3"><a xlink:href="classwmtk_1_1simplex_1_1_simplex.html#ad2cc0340a0772b7d6f03ba7a781d1163" target="_top" xlink:title=" ">
<polygon fill="none" stroke="black" points="426.5,-225.5 426.5,-255.5 561.5,-255.5 561.5,-225.5 426.5,-225.5"/>
<text text-anchor="start" x="434.5" y="-243.5" font-family="Helvetica,sans-Serif" font-size="10.00">wmtk::simplex::Simplex</text>
<text text-anchor="middle" x="494" y="-232.5" font-family="Helvetica,sans-Serif" font-size="10.00">::primitive_type</text>
</a>
</g>
</g>
<!-- Node1&#45;&gt;Node3 -->
<g id="edge2" class="edge">
<title>Node1&#45;&gt;Node3</title>
<path fill="none" stroke="midnightblue" d="M167.08,-153.13C221.68,-157.74 293.99,-168.13 354,-191.5 371.92,-198.48 372.39,-207.78 390,-215.5 398.42,-219.19 407.47,-222.39 416.59,-225.15"/>
<polygon fill="midnightblue" stroke="midnightblue" points="415.91,-228.6 426.48,-227.98 417.83,-221.87 415.91,-228.6"/>
</g>
<!-- Node4 -->
<g id="node4" class="node">
<title>Node4</title>
<g id="a_node4"><a xlink:href="namespacewmtk_1_1simplex.html#ac133ab11355bb4cda7e8b1e3ed48226f" target="_top" xlink:title=" ">
<polygon fill="none" stroke="black" points="203,-112.5 203,-142.5 354,-142.5 354,-112.5 203,-112.5"/>
<text text-anchor="start" x="211" y="-130.5" font-family="Helvetica,sans-Serif" font-size="10.00">wmtk::simplex::top</text>
<text text-anchor="middle" x="278.5" y="-119.5" font-family="Helvetica,sans-Serif" font-size="10.00">_dimension_cofaces_tuples</text>
</a>
</g>
</g>
<!-- Node1&#45;&gt;Node4 -->
<g id="edge3" class="edge">
<title>Node1&#45;&gt;Node4</title>
<path fill="none" stroke="midnightblue" d="M167.19,-140.07C175.72,-139.1 184.4,-138.11 192.95,-137.14"/>
<polygon fill="midnightblue" stroke="midnightblue" points="193.37,-140.61 202.91,-136 192.58,-133.66 193.37,-140.61"/>
</g>
<!-- Node19 -->
<g id="node19" class="node">
<title>Node19</title>
<g id="a_node19"><a xlink:href="classwmtk_1_1simplex_1_1_simplex.html#a3650fd31ff1864285502dba66db3c73c" target="_top" xlink:title=" ">
<polygon fill="none" stroke="black" points="426.5,-0.5 426.5,-30.5 561.5,-30.5 561.5,-0.5 426.5,-0.5"/>
<text text-anchor="start" x="434.5" y="-18.5" font-family="Helvetica,sans-Serif" font-size="10.00">wmtk::simplex::Simplex</text>
<text text-anchor="middle" x="494" y="-7.5" font-family="Helvetica,sans-Serif" font-size="10.00">::tuple</text>
</a>
</g>
</g>
<!-- Node1&#45;&gt;Node19 -->
<g id="edge20" class="edge">
<title>Node1&#45;&gt;Node19</title>
<path fill="none" stroke="midnightblue" d="M122.11,-134.39C179.29,-111.82 291.82,-68.9 390,-40.5 398.92,-37.92 408.33,-35.39 417.68,-32.98"/>
<polygon fill="midnightblue" stroke="midnightblue" points="418.55,-36.37 427.39,-30.52 416.84,-29.58 418.55,-36.37"/>
</g>
<!-- Node4&#45;&gt;Node3 -->
<g id="edge17" class="edge">
<title>Node4&#45;&gt;Node3</title>
<path fill="none" stroke="midnightblue" d="M329.67,-142.58C338.34,-146.57 346.85,-151.49 354,-157.5 377.22,-177.02 365.43,-197.71 390,-215.5 398.05,-221.33 407.28,-225.81 416.85,-229.25"/>
<polygon fill="midnightblue" stroke="midnightblue" points="415.9,-232.62 426.49,-232.36 418.05,-225.96 415.9,-232.62"/>
</g>
<!-- Node5 -->
<g id="node5" class="node">
<title>Node5</title>
<g id="a_node5"><a xlink:href="classwmtk_1_1simplex_1_1_simplex_collection.html#a1e7079b3b75f70dd28c524556cab76cf" target="_top" xlink:title="Add simplex to the collection.">
<polygon fill="none" stroke="black" points="390,-187 390,-206 598,-206 598,-187 390,-187"/>
<text text-anchor="middle" x="494" y="-194" font-family="Helvetica,sans-Serif" font-size="10.00">wmtk::simplex::SimplexCollection::add</text>
</a>
</g>
</g>
<!-- Node4&#45;&gt;Node5 -->
<g id="edge4" class="edge">
<title>Node4&#45;&gt;Node5</title>
<path fill="none" stroke="midnightblue" d="M319.72,-142.63C330.94,-147.14 343.05,-152.28 354,-157.5 370.52,-165.38 372.77,-171.31 390,-177.5 397.75,-180.28 405.98,-182.68 414.28,-184.73"/>
<polygon fill="midnightblue" stroke="midnightblue" points="413.5,-188.14 424.03,-186.99 415.08,-181.32 413.5,-188.14"/>
</g>
<!-- Node6 -->
<g id="node6" class="node">
<title>Node6</title>
<g id="a_node6"><a xlink:href="classwmtk_1_1_edge_mesh.html#a534952cf2729f1509a380e3e9afb65b7" target="_top" xlink:title=" ">
<polygon fill="none" stroke="black" points="436.5,-137.5 436.5,-167.5 551.5,-167.5 551.5,-137.5 436.5,-137.5"/>
<text text-anchor="start" x="444.5" y="-155.5" font-family="Helvetica,sans-Serif" font-size="10.00">wmtk::EdgeMesh::is</text>
<text text-anchor="middle" x="494" y="-144.5" font-family="Helvetica,sans-Serif" font-size="10.00">_boundary_vertex</text>
</a>
</g>
</g>
<!-- Node4&#45;&gt;Node6 -->
<g id="edge5" class="edge">
<title>Node4&#45;&gt;Node6</title>
<path fill="none" stroke="midnightblue" d="M354.17,-136.24C377.64,-138.99 403.38,-142.01 426.26,-144.68"/>
<polygon fill="midnightblue" stroke="midnightblue" points="425.87,-148.16 436.21,-145.85 426.68,-141.21 425.87,-148.16"/>
</g>
<!-- Node15 -->
<g id="node15" class="node">
<title>Node15</title>
<g id="a_node15"><a xlink:href="namespacewmtk.html#a441d6ad4f19569c7d4946e743da1a925" target="_top" xlink:title=" ">
<polygon fill="none" stroke="black" points="433,-88.5 433,-118.5 555,-118.5 555,-88.5 433,-88.5"/>
<text text-anchor="start" x="441" y="-106.5" font-family="Helvetica,sans-Serif" font-size="10.00">wmtk::log_and_throw</text>
<text text-anchor="middle" x="494" y="-95.5" font-family="Helvetica,sans-Serif" font-size="10.00">_error</text>
</a>
</g>
</g>
<!-- Node4&#45;&gt;Node15 -->
<g id="edge14" class="edge">
<title>Node4&#45;&gt;Node15</title>
<path fill="none" stroke="midnightblue" d="M354.17,-119.11C376.39,-116.61 400.65,-113.88 422.58,-111.42"/>
<polygon fill="midnightblue" stroke="midnightblue" points="423.26,-114.86 432.81,-110.27 422.48,-107.91 423.26,-114.86"/>
</g>
<!-- Node18 -->
<g id="node18" class="node">
<title>Node18</title>
<g id="a_node18"><a xlink:href="classwmtk_1_1_edge_mesh.html#a04f6595fe85e52dc6bf1e02512120100" target="_top" xlink:title=" ">
<polygon fill="none" stroke="black" points="410.5,-50 410.5,-69 577.5,-69 577.5,-50 410.5,-50"/>
<text text-anchor="middle" x="494" y="-57" font-family="Helvetica,sans-Serif" font-size="10.00">wmtk::EdgeMesh::switch_edge</text>
</a>
</g>
</g>
<!-- Node4&#45;&gt;Node18 -->
<g id="edge18" class="edge">
<title>Node4&#45;&gt;Node18</title>
<path fill="none" stroke="midnightblue" d="M308.32,-112.47C330.21,-101.62 361.33,-87.37 390,-78.5 399.09,-75.69 408.77,-73.23 418.41,-71.11"/>
<polygon fill="midnightblue" stroke="midnightblue" points="419.36,-74.48 428.42,-69.01 417.92,-67.63 419.36,-74.48"/>
</g>
<!-- Node4&#45;&gt;Node19 -->
<g id="edge19" class="edge">
<title>Node4&#45;&gt;Node19</title>
<path fill="none" stroke="midnightblue" d="M303.03,-112.5C318.06,-102.58 337.7,-88.96 354,-75.5 371.21,-61.29 370.47,-51.29 390,-40.5 398.31,-35.91 407.45,-32.16 416.75,-29.08"/>
<polygon fill="midnightblue" stroke="midnightblue" points="417.93,-32.39 426.48,-26.13 415.89,-25.69 417.93,-32.39"/>
</g>
<!-- Node7 -->
<g id="node7" class="node">
<title>Node7</title>
<g id="a_node7"><a xlink:href="classwmtk_1_1attribute_1_1_accessor.html#a02b9afd258380cfdafdac411b30d48af" target="_top" xlink:title=" ">
<polygon fill="none" stroke="black" points="637,-178.5 637,-208.5 779,-208.5 779,-178.5 637,-178.5"/>
<text text-anchor="start" x="645" y="-196.5" font-family="Helvetica,sans-Serif" font-size="10.00">wmtk::attribute::Accessor</text>
<text text-anchor="middle" x="708" y="-185.5" font-family="Helvetica,sans-Serif" font-size="10.00">::const_vector_attribute</text>
</a>
</g>
</g>
<!-- Node6&#45;&gt;Node7 -->
<g id="edge6" class="edge">
<title>Node6&#45;&gt;Node7</title>
<path fill="none" stroke="midnightblue" d="M551.53,-163.43C574.71,-167.91 601.95,-173.18 627.1,-178.05"/>
<polygon fill="midnightblue" stroke="midnightblue" points="626.5,-181.5 636.99,-179.96 627.83,-174.62 626.5,-181.5"/>
</g>
<!-- Node8 -->
<g id="node8" class="node">
<title>Node8</title>
<g id="a_node8"><a xlink:href="classwmtk_1_1_mesh.html#abbb1c54cfd6ec17f4730317ee5fab78d" target="_top" xlink:title=" ">
<polygon fill="none" stroke="black" points="634,-140 634,-159 782,-159 782,-140 634,-140"/>
<text text-anchor="middle" x="708" y="-147" font-family="Helvetica,sans-Serif" font-size="10.00">wmtk::Mesh::is_valid_slow</text>
</a>
</g>
</g>
<!-- Node6&#45;&gt;Node8 -->
<g id="edge7" class="edge">
<title>Node6&#45;&gt;Node8</title>
<path fill="none" stroke="midnightblue" d="M551.53,-151.7C573.64,-151.39 599.45,-151.02 623.62,-150.68"/>
<polygon fill="midnightblue" stroke="midnightblue" points="623.91,-154.18 633.86,-150.54 623.81,-147.18 623.91,-154.18"/>
</g>
<!-- Node9 -->
<g id="node9" class="node">
<title>Node9</title>
<g id="a_node9"><a xlink:href="classwmtk_1_1_mesh.html#adf199d6a3ce6badd8bfa0e2ab3a1c1aa" target="_top" xlink:title=" ">
<polygon fill="none" stroke="black" points="818,-175.5 818,-205.5 948,-205.5 948,-175.5 818,-175.5"/>
<text text-anchor="start" x="826" y="-193.5" font-family="Helvetica,sans-Serif" font-size="10.00">wmtk::Mesh::get_const</text>
<text text-anchor="middle" x="883" y="-182.5" font-family="Helvetica,sans-Serif" font-size="10.00">_cell_hash_accessor</text>
</a>
</g>
</g>
<!-- Node8&#45;&gt;Node9 -->
<g id="edge8" class="edge">
<title>Node8&#45;&gt;Node9</title>
<path fill="none" stroke="midnightblue" d="M749.12,-159.01C766.8,-163.2 788.13,-168.25 808.49,-173.08"/>
<polygon fill="midnightblue" stroke="midnightblue" points="807.84,-176.52 818.38,-175.42 809.46,-169.71 807.84,-176.52"/>
</g>
<!-- Node14 -->
<g id="node14" class="node">
<title>Node14</title>
<g id="a_node14"><a xlink:href="classwmtk_1_1_mesh.html#a918c509096fc08691924c05c6143b9c3" target="_top" xlink:title="check validity of tuple including its hash">
<polygon fill="none" stroke="black" points="823,-137 823,-156 943,-156 943,-137 823,-137"/>
<text text-anchor="middle" x="883" y="-144" font-family="Helvetica,sans-Serif" font-size="10.00">wmtk::Mesh::is_valid</text>
</a>
</g>
</g>
<!-- Node8&#45;&gt;Node14 -->
<g id="edge13" class="edge">
<title>Node8&#45;&gt;Node14</title>
<path fill="none" stroke="midnightblue" d="M782.12,-148.23C792.18,-148.06 802.49,-147.88 812.48,-147.71"/>
<polygon fill="midnightblue" stroke="midnightblue" points="812.82,-151.2 822.76,-147.53 812.7,-144.2 812.82,-151.2"/>
</g>
<!-- Node10 -->
<g id="node10" class="node">
<title>Node10</title>
<g id="a_node10"><a xlink:href="classwmtk_1_1_mesh.html#a956cb71441391c99d736ec69c7467b61" target="_top" xlink:title=" ">
<polygon fill="none" stroke="black" points="984,-175.5 984,-205.5 1097,-205.5 1097,-175.5 984,-175.5"/>
<text text-anchor="start" x="992" y="-193.5" font-family="Helvetica,sans-Serif" font-size="10.00">wmtk::Mesh::create</text>
<text text-anchor="middle" x="1040.5" y="-182.5" font-family="Helvetica,sans-Serif" font-size="10.00">_const_accessor</text>
</a>
</g>
</g>
<!-- Node9&#45;&gt;Node10 -->
<g id="edge9" class="edge">
<title>Node9&#45;&gt;Node10</title>
<path fill="none" stroke="midnightblue" d="M948.15,-190.5C956.59,-190.5 965.26,-190.5 973.73,-190.5"/>
<polygon fill="midnightblue" stroke="midnightblue" points="973.94,-194 983.94,-190.5 973.94,-187 973.94,-194"/>
</g>
<!-- Node11 -->
<g id="node11" class="node">
<title>Node11</title>
<g id="a_node11"><a xlink:href="classwmtk_1_1attribute_1_1_mesh_attribute_handle.html#ac326961f01b9ba4fec395827f15a7ef2" target="_top" xlink:title=" ">
<polygon fill="none" stroke="black" points="1133,-224.5 1133,-254.5 1300,-254.5 1300,-224.5 1133,-224.5"/>
<text text-anchor="start" x="1141" y="-242.5" font-family="Helvetica,sans-Serif" font-size="10.00">wmtk::attribute::MeshAttribute</text>
<text text-anchor="middle" x="1216.5" y="-231.5" font-family="Helvetica,sans-Serif" font-size="10.00">Handle::as</text>
</a>
</g>
</g>
<!-- Node10&#45;&gt;Node11 -->
<g id="edge10" class="edge">
<title>Node10&#45;&gt;Node11</title>
<path fill="none" stroke="midnightblue" d="M1095.13,-205.6C1113.24,-210.7 1133.62,-216.44 1152.4,-221.73"/>
<polygon fill="midnightblue" stroke="midnightblue" points="1151.48,-225.11 1162.05,-224.45 1153.37,-218.37 1151.48,-225.11"/>
</g>
<!-- Node12 -->
<g id="node12" class="node">
<title>Node12</title>
<g id="a_node12"><a xlink:href="classwmtk_1_1attribute_1_1_mesh_attribute_handle.html#a2b86caeb22b007b85b138ebc6b0ed837" target="_top" xlink:title=" ">
<polygon fill="none" stroke="black" points="1133,-175.5 1133,-205.5 1300,-205.5 1300,-175.5 1133,-175.5"/>
<text text-anchor="start" x="1141" y="-193.5" font-family="Helvetica,sans-Serif" font-size="10.00">wmtk::attribute::MeshAttribute</text>
<text text-anchor="middle" x="1216.5" y="-182.5" font-family="Helvetica,sans-Serif" font-size="10.00">Handle::holds</text>
</a>
</g>
</g>
<!-- Node10&#45;&gt;Node12 -->
<g id="edge11" class="edge">
<title>Node10&#45;&gt;Node12</title>
<path fill="none" stroke="midnightblue" d="M1097.03,-190.5C1105.25,-190.5 1113.91,-190.5 1122.64,-190.5"/>
<polygon fill="midnightblue" stroke="midnightblue" points="1122.91,-194 1132.91,-190.5 1122.91,-187 1122.91,-194"/>
</g>
<!-- Node13 -->
<g id="node13" class="node">
<title>Node13</title>
<g id="a_node13"><a xlink:href="classwmtk_1_1attribute_1_1_mesh_attribute_handle.html#a620620d54776b2c5f4f9cebad465cfa7" target="_top" xlink:title=" ">
<polygon fill="none" stroke="black" points="1133,-126.5 1133,-156.5 1300,-156.5 1300,-126.5 1133,-126.5"/>
<text text-anchor="start" x="1141" y="-144.5" font-family="Helvetica,sans-Serif" font-size="10.00">wmtk::attribute::MeshAttribute</text>
<text text-anchor="middle" x="1216.5" y="-133.5" font-family="Helvetica,sans-Serif" font-size="10.00">Handle::mesh</text>
</a>
</g>
</g>
<!-- Node10&#45;&gt;Node13 -->
<g id="edge12" class="edge">
<title>Node10&#45;&gt;Node13</title>
<path fill="none" stroke="midnightblue" d="M1095.13,-175.4C1113.24,-170.3 1133.62,-164.56 1152.4,-159.27"/>
<polygon fill="midnightblue" stroke="midnightblue" points="1153.37,-162.63 1162.05,-156.55 1151.48,-155.89 1153.37,-162.63"/>
</g>
<!-- Node16 -->
<g id="node16" class="node">
<title>Node16</title>
<g id="a_node16"><a xlink:href="namespacewmtk.html#a6a35f11c12436093d26fdd8be6fecc06" target="_top" xlink:title="Retrieves the current logger.">
<polygon fill="none" stroke="black" points="667.5,-94 667.5,-113 748.5,-113 748.5,-94 667.5,-94"/>
<text text-anchor="middle" x="708" y="-101" font-family="Helvetica,sans-Serif" font-size="10.00">wmtk::logger</text>
</a>
</g>
</g>
<!-- Node15&#45;&gt;Node16 -->
<g id="edge15" class="edge">
<title>Node15&#45;&gt;Node16</title>
<path fill="none" stroke="midnightblue" d="M555.18,-103.5C587.38,-103.5 626.55,-103.5 657.05,-103.5"/>
<polygon fill="midnightblue" stroke="midnightblue" points="657.44,-107 667.44,-103.5 657.44,-100 657.44,-107"/>
</g>
<!-- Node17 -->
<g id="node17" class="node">
<title>Node17</title>
<g id="a_node17"><a xlink:href="namespacewmtk.html#a3daa7951a5f8b78cf4600dc047fcc180" target="_top" xlink:title="Setup a logger object to be used by WildmeshToolkit.">
<polygon fill="none" stroke="black" points="832.5,-94 832.5,-113 933.5,-113 933.5,-94 832.5,-94"/>
<text text-anchor="middle" x="883" y="-101" font-family="Helvetica,sans-Serif" font-size="10.00">wmtk::set_logger</text>
</a>
</g>
</g>
<!-- Node16&#45;&gt;Node17 -->
<g id="edge16" class="edge">
<title>Node16&#45;&gt;Node17</title>
<path fill="none" stroke="midnightblue" d="M748.69,-103.5C770.42,-103.5 797.8,-103.5 822.08,-103.5"/>
<polygon fill="midnightblue" stroke="midnightblue" points="822.27,-107 832.27,-103.5 822.27,-100 822.27,-107"/>
</g>
</g>
</svg>
        <g id="navigator" transform="translate(0 0)" fill="#404254">
                <rect fill="#f2f5e9" fill-opacity="0.5" stroke="#606060" stroke-width=".5" x="0" y="0" width="60" height="60"/>
                <use id="zoomplus" xlink:href="#zoomPlus" x="17" y="9" onmousedown="handleZoom(evt,'in')"/>
                <use id="zoomminus" xlink:href="#zoomMin" x="42" y="9" onmousedown="handleZoom(evt,'out')"/>
                <use id="reset" xlink:href="#resetDef" x="30" y="36" onmousedown="handleReset()"/>
                <g id="arrowUp" xlink:href="#dirArrow" transform="translate(30 24)" onmousedown="handlePan(0,-1)">
                  <use xlink:href="#rim" fill="#404040">
                        <set attributeName="fill" to="#808080" begin="arrowUp.mouseover" end="arrowUp.mouseout"/>
                  </use>
                  <path fill="none" stroke="white" stroke-width="1.5" d="M0,-3.0v7 M-2.5,-0.5L0,-3.0L2.5,-0.5"/>
                </g>
                <g id="arrowRight" xlink:href="#dirArrow" transform="rotate(90) translate(36 -43)" onmousedown="handlePan(1,0)">
                  <use xlink:href="#rim" fill="#404040">
                        <set attributeName="fill" to="#808080" begin="arrowRight.mouseover" end="arrowRight.mouseout"/>
                  </use>
                  <path fill="none" stroke="white" stroke-width="1.5" d="M0,-3.0v7 M-2.5,-0.5L0,-3.0L2.5,-0.5"/>
                </g>
                <g id="arrowDown" xlink:href="#dirArrow" transform="rotate(180) translate(-30 -48)" onmousedown="handlePan(0,1)">
                  <use xlink:href="#rim" fill="#404040">
                        <set attributeName="fill" to="#808080" begin="arrowDown.mouseover" end="arrowDown.mouseout"/>
                  </use>
                  <path fill="none" stroke="white" stroke-width="1.5" d="M0,-3.0v7 M-2.5,-0.5L0,-3.0L2.5,-0.5"/>
                </g>
                <g id="arrowLeft" xlink:href="#dirArrow" transform="rotate(270) translate(-36 17)" onmousedown="handlePan(-1,0)">
                  <use xlink:href="#rim" fill="#404040">
                        <set attributeName="fill" to="#808080" begin="arrowLeft.mouseover" end="arrowLeft.mouseout"/>
                  </use>
                  <path fill="none" stroke="white" stroke-width="1.5" d="M0,-3.0v7 M-2.5,-0.5L0,-3.0L2.5,-0.5"/>
                </g>
        </g>
        <svg viewBox="0 0 15 15" width="100%" height="30px" preserveAspectRatio="xMaxYMin meet">
         <g id="arrow_out" transform="scale(0.3 0.3)">
          <a xlink:href="classwmtk_1_1invariants_1_1_edge_valence_invariant_a645ae4416957c1396da936475c27bd97_cgraph_org.svg" target="_base">
           <rect id="button" ry="5" rx="5" y="6" x="6" height="38" width="38"
                fill="#f2f5e9" fill-opacity="0.5" stroke="#606060" stroke-width="1.0"/>
           <path id="arrow"
             d="M 11.500037,31.436501 C 11.940474,20.09759 22.043105,11.32322 32.158766,21.979434 L 37.068811,17.246167 C 37.068811,17.246167 37.088388,32 37.088388,32 L 22.160133,31.978069 C 22.160133,31.978069 26.997745,27.140456 26.997745,27.140456 C 18.528582,18.264221 13.291696,25.230495 11.500037,31.436501 z"
             style="fill:#404040;"/>
          </a>
         </g>
        </svg>
</svg>
