<?xml version="1.0" encoding="UTF-8" standalone="no"?>
<!DOCTYPE svg PUBLIC "-//W3C//DTD SVG 1.1//EN"
 "http://www.w3.org/Graphics/SVG/1.1/DTD/svg11.dtd">
<!-- Generated by graphviz version 2.43.0 (0)
 -->
<!-- Title: wmtk::Scheduler::run_operation_on_all Pages: 1 -->
<!--zoomable 449 -->
<svg id="main" version="1.1" xmlns="http://www.w3.org/2000/svg" xmlns:xlink="http://www.w3.org/1999/xlink" xml:space="preserve" onload="init(evt)">
<style type="text/css"><![CDATA[
.edge:hover path { stroke: red; }
.edge:hover polygon { stroke: red; fill: red; }
]]></style>
<script type="text/javascript"><![CDATA[
var edges = document.getElementsByTagName('g');
if (edges && edges.length) {
  for (var i=0;i<edges.length;i++) {
    if (edges[i].id.substr(0,4)=='edge') {
      edges[i].setAttribute('class','edge');
    }
  }
}
]]></script>
        <defs>
                <circle id="rim" cx="0" cy="0" r="7"/>
                <circle id="rim2" cx="0" cy="0" r="3.5"/>
                <g id="zoomPlus">
                        <use xlink:href="#rim" fill="#404040">
                                <set attributeName="fill" to="#808080" begin="zoomplus.mouseover" end="zoomplus.mouseout"/>
                        </use>
                        <path d="M-4,0h8M0,-4v8" fill="none" stroke="white" stroke-width="1.5" pointer-events="none"/>
                </g>
                <g id="zoomMin">
                        <use xlink:href="#rim" fill="#404040">
                                <set attributeName="fill" to="#808080" begin="zoomminus.mouseover" end="zoomminus.mouseout"/>
                        </use>
                        <path d="M-4,0h8" fill="none" stroke="white" stroke-width="1.5" pointer-events="none"/>
                </g>
                <g id="dirArrow">
                        <path fill="none" stroke="white" stroke-width="1.5" d="M0,-3.0v7 M-2.5,-0.5L0,-3.0L2.5,-0.5"/>
                </g>
               <g id="resetDef">
                       <use xlink:href="#rim2" fill="#404040">
                               <set attributeName="fill" to="#808080" begin="reset.mouseover" end="reset.mouseout"/>
                       </use>
               </g>
        </defs>

<script type="text/javascript">
var viewWidth = 1354;
var viewHeight = 449;
var sectionId = 'dynsection-1';
</script>
<script xlink:href="svgpan.js"/>
<svg id="graph" class="graph">
<g id="viewport">
<title>wmtk::Scheduler::run_operation_on_all</title>
<!-- Node1 -->
<g id="node1" class="node">
<title>Node1</title>
<g id="a_node1"><a xlink:title=" ">
<polygon fill="#bfbfbf" stroke="black" points="0,-230.5 0,-260.5 120,-260.5 120,-230.5 0,-230.5"/>
<text text-anchor="start" x="8" y="-248.5" font-family="Helvetica,sans-Serif" font-size="10.00">wmtk::Scheduler::run</text>
<text text-anchor="middle" x="60" y="-237.5" font-family="Helvetica,sans-Serif" font-size="10.00">_operation_on_all</text>
</a>
</g>
</g>
<!-- Node2 -->
<g id="node2" class="node">
<title>Node2</title>
<g id="a_node2"><a xlink:href="classwmtk_1_1_scheduler_stats.html#a4af2233b8bafa0ee528cbef4de10fa1d" target="_top" xlink:title=" ">
<polygon fill="none" stroke="black" points="181,-410.5 181,-440.5 304,-440.5 304,-410.5 181,-410.5"/>
<text text-anchor="start" x="189" y="-428.5" font-family="Helvetica,sans-Serif" font-size="10.00">wmtk::SchedulerStats</text>
<text text-anchor="middle" x="242.5" y="-417.5" font-family="Helvetica,sans-Serif" font-size="10.00">::fail</text>
</a>
</g>
</g>
<!-- Node1&#45;&gt;Node2 -->
<g id="edge1" class="edge">
<title>Node1&#45;&gt;Node2</title>
<path fill="none" stroke="midnightblue" d="M66.11,-260.86C77.28,-292.03 106.85,-362.93 156,-400.5 160.72,-404.11 165.95,-407.2 171.44,-409.84"/>
<polygon fill="midnightblue" stroke="midnightblue" points="170.28,-413.16 180.85,-413.89 173.04,-406.73 170.28,-413.16"/>
</g>
<!-- Node3 -->
<g id="node3" class="node">
<title>Node3</title>
<g id="a_node3"><a xlink:href="classwmtk_1_1_mesh.html#a6d2a546c8f661bf6386cf845a1693d2f" target="_top" xlink:title="Generate a vector of Tuples from global vertex/edge/triangle/tetrahedron index.">
<polygon fill="none" stroke="black" points="184.5,-372 184.5,-391 300.5,-391 300.5,-372 184.5,-372"/>
<text text-anchor="middle" x="242.5" y="-379" font-family="Helvetica,sans-Serif" font-size="10.00">wmtk::Mesh::get_all</text>
</a>
</g>
</g>
<!-- Node1&#45;&gt;Node3 -->
<g id="edge2" class="edge">
<title>Node1&#45;&gt;Node3</title>
<path fill="none" stroke="midnightblue" d="M68.91,-260.81C82.88,-286.2 114.38,-336.77 156,-362.5 161.74,-366.05 168.05,-368.93 174.57,-371.28"/>
<polygon fill="midnightblue" stroke="midnightblue" points="173.63,-374.66 184.22,-374.36 175.76,-367.99 173.63,-374.66"/>
</g>
<!-- Node4 -->
<g id="node4" class="node">
<title>Node4</title>
<g id="a_node4"><a xlink:href="namespacewmtk_1_1utils.html#a3c36f4ea039196043ac93202181d91e1" target="_top" xlink:title=" ">
<polygon fill="none" stroke="black" points="160.5,-334 160.5,-353 324.5,-353 324.5,-334 160.5,-334"/>
<text text-anchor="middle" x="242.5" y="-341" font-family="Helvetica,sans-Serif" font-size="10.00">wmtk::utils::get_random_seed</text>
</a>
</g>
</g>
<!-- Node1&#45;&gt;Node4 -->
<g id="edge3" class="edge">
<title>Node1&#45;&gt;Node4</title>
<path fill="none" stroke="midnightblue" d="M74.57,-260.5C91.75,-278.52 123.07,-308.34 156,-324.5 160.95,-326.93 166.21,-329.05 171.6,-330.9"/>
<polygon fill="midnightblue" stroke="midnightblue" points="170.8,-334.32 181.39,-333.96 172.88,-327.64 170.8,-334.32"/>
</g>
<!-- Node7 -->
<g id="node7" class="node">
<title>Node7</title>
<g id="a_node7"><a xlink:href="namespacewmtk.html#a6a35f11c12436093d26fdd8be6fecc06" target="_top" xlink:title="Retrieves the current logger.">
<polygon fill="none" stroke="black" points="202,-296 202,-315 283,-315 283,-296 202,-296"/>
<text text-anchor="middle" x="242.5" y="-303" font-family="Helvetica,sans-Serif" font-size="10.00">wmtk::logger</text>
</a>
</g>
</g>
<!-- Node1&#45;&gt;Node7 -->
<g id="edge6" class="edge">
<title>Node1&#45;&gt;Node7</title>
<path fill="none" stroke="midnightblue" d="M98.63,-260.64C115.97,-267.39 136.9,-275.21 156,-281.5 168.48,-285.61 182.13,-289.64 194.78,-293.19"/>
<polygon fill="midnightblue" stroke="midnightblue" points="194.1,-296.64 204.67,-295.93 195.97,-289.89 194.1,-296.64"/>
</g>
<!-- Node9 -->
<g id="node9" class="node">
<title>Node9</title>
<g id="a_node9"><a xlink:href="classwmtk_1_1operations_1_1_operation.html#a524a78a76bb262cffcaafdd36afa037b" target="_top" xlink:title=" ">
<polygon fill="none" stroke="black" points="381,-224.5 381,-254.5 537,-254.5 537,-224.5 381,-224.5"/>
<text text-anchor="start" x="389" y="-242.5" font-family="Helvetica,sans-Serif" font-size="10.00">wmtk::operations::Operation</text>
<text text-anchor="middle" x="459" y="-231.5" font-family="Helvetica,sans-Serif" font-size="10.00">::mesh</text>
</a>
</g>
</g>
<!-- Node1&#45;&gt;Node9 -->
<g id="edge8" class="edge">
<title>Node1&#45;&gt;Node9</title>
<path fill="none" stroke="midnightblue" d="M120.03,-247.65C131.94,-248.01 144.37,-248.32 156,-248.5 232.88,-249.71 252.16,-251.18 329,-248.5 342.54,-248.03 356.87,-247.28 370.85,-246.41"/>
<polygon fill="midnightblue" stroke="midnightblue" points="371.21,-249.89 380.96,-245.76 370.76,-242.91 371.21,-249.89"/>
</g>
<!-- Node10 -->
<g id="node10" class="node">
<title>Node10</title>
<g id="a_node10"><a xlink:href="classwmtk_1_1operations_1_1_operation.html#a55110365dd31bcf41716087c9df8c57d" target="_top" xlink:title=" ">
<polygon fill="none" stroke="black" points="164.5,-208.5 164.5,-238.5 320.5,-238.5 320.5,-208.5 164.5,-208.5"/>
<text text-anchor="start" x="172.5" y="-226.5" font-family="Helvetica,sans-Serif" font-size="10.00">wmtk::operations::Operation</text>
<text text-anchor="middle" x="242.5" y="-215.5" font-family="Helvetica,sans-Serif" font-size="10.00">::primitive_type</text>
</a>
</g>
</g>
<!-- Node1&#45;&gt;Node10 -->
<g id="edge9" class="edge">
<title>Node1&#45;&gt;Node10</title>
<path fill="none" stroke="midnightblue" d="M120.1,-238.3C131,-236.97 142.58,-235.56 154.1,-234.15"/>
<polygon fill="midnightblue" stroke="midnightblue" points="154.69,-237.61 164.19,-232.92 153.84,-230.66 154.69,-237.61"/>
</g>
<!-- Node11 -->
<g id="node11" class="node">
<title>Node11</title>
<g id="a_node11"><a xlink:href="classwmtk_1_1operations_1_1_operation.html#a882eca46d5f1bc42c25dde3baf0a8297" target="_top" xlink:title=" ">
<polygon fill="none" stroke="black" points="164.5,-159.5 164.5,-189.5 320.5,-189.5 320.5,-159.5 164.5,-159.5"/>
<text text-anchor="start" x="172.5" y="-177.5" font-family="Helvetica,sans-Serif" font-size="10.00">wmtk::operations::Operation</text>
<text text-anchor="middle" x="242.5" y="-166.5" font-family="Helvetica,sans-Serif" font-size="10.00">::reserve_enough_simplices</text>
</a>
</g>
</g>
<!-- Node1&#45;&gt;Node11 -->
<g id="edge10" class="edge">
<title>Node1&#45;&gt;Node11</title>
<path fill="none" stroke="midnightblue" d="M89.14,-230.34C107.76,-220.7 132.92,-208.39 156,-199.5 162.21,-197.11 168.74,-194.82 175.31,-192.66"/>
<polygon fill="midnightblue" stroke="midnightblue" points="176.48,-195.96 184.95,-189.59 174.35,-189.29 176.48,-195.96"/>
</g>
<!-- Node20 -->
<g id="node20" class="node">
<title>Node20</title>
<g id="a_node20"><a xlink:href="classwmtk_1_1_scheduler_stats.html#a743d45b86c6ac7d696c26e2cad573ac9" target="_top" xlink:title=" ">
<polygon fill="none" stroke="black" points="181,-110.5 181,-140.5 304,-140.5 304,-110.5 181,-110.5"/>
<text text-anchor="start" x="189" y="-128.5" font-family="Helvetica,sans-Serif" font-size="10.00">wmtk::SchedulerStats</text>
<text text-anchor="middle" x="242.5" y="-117.5" font-family="Helvetica,sans-Serif" font-size="10.00">::succeed</text>
</a>
</g>
</g>
<!-- Node1&#45;&gt;Node20 -->
<g id="edge22" class="edge">
<title>Node1&#45;&gt;Node20</title>
<path fill="none" stroke="midnightblue" d="M71.8,-230.45C87.8,-209.25 119.83,-170.8 156,-149.5 160.73,-146.71 165.8,-144.24 171.03,-142.04"/>
<polygon fill="midnightblue" stroke="midnightblue" points="172.48,-145.23 180.56,-138.38 169.97,-138.7 172.48,-145.23"/>
</g>
<!-- Node21 -->
<g id="node21" class="node">
<title>Node21</title>
<g id="a_node21"><a xlink:href="namespacewmtk_1_1simplex_1_1utils.html#abc97acf22bd5eb87df2b16ad3b372cfb" target="_top" xlink:title=" ">
<polygon fill="none" stroke="black" points="156,-50 156,-91 329,-91 329,-50 156,-50"/>
<text text-anchor="start" x="164" y="-79" font-family="Helvetica,sans-Serif" font-size="10.00">wmtk::simplex::utils</text>
<text text-anchor="start" x="164" y="-68" font-family="Helvetica,sans-Serif" font-size="10.00">::tuple_vector_to_homogeneous</text>
<text text-anchor="middle" x="242.5" y="-57" font-family="Helvetica,sans-Serif" font-size="10.00">_simplex_vector</text>
</a>
</g>
</g>
<!-- Node1&#45;&gt;Node21 -->
<g id="edge23" class="edge">
<title>Node1&#45;&gt;Node21</title>
<path fill="none" stroke="midnightblue" d="M66.93,-230.44C79.17,-201.2 110.02,-136.49 156,-100.5 157.81,-99.08 159.7,-97.73 161.64,-96.44"/>
<polygon fill="midnightblue" stroke="midnightblue" points="163.69,-99.29 170.48,-91.15 160.1,-93.28 163.69,-99.29"/>
</g>
<!-- Node22 -->
<g id="node22" class="node">
<title>Node22</title>
<g id="a_node22"><a xlink:href="classwmtk_1_1operations_1_1_operation.html#aa0c646b0871dfa2c87540c7db2969544" target="_top" xlink:title=" ">
<polygon fill="none" stroke="black" points="164.5,-0.5 164.5,-30.5 320.5,-30.5 320.5,-0.5 164.5,-0.5"/>
<text text-anchor="start" x="172.5" y="-18.5" font-family="Helvetica,sans-Serif" font-size="10.00">wmtk::operations::Operation</text>
<text text-anchor="middle" x="242.5" y="-7.5" font-family="Helvetica,sans-Serif" font-size="10.00">::use_random_priority</text>
</a>
</g>
</g>
<!-- Node1&#45;&gt;Node22 -->
<g id="edge24" class="edge">
<title>Node1&#45;&gt;Node22</title>
<path fill="none" stroke="midnightblue" d="M63.61,-230.3C70.92,-192.37 95.2,-92.83 156,-40.5 157.95,-38.82 160,-37.26 162.15,-35.8"/>
<polygon fill="midnightblue" stroke="midnightblue" points="163.97,-38.79 170.78,-30.67 160.4,-32.77 163.97,-38.79"/>
</g>
<!-- Node5 -->
<g id="node5" class="node">
<title>Node5</title>
<g id="a_node5"><a xlink:href="classwmtk_1_1utils_1_1_random_seed_singleton.html#a228b21737dcd5423bac9d6900db8785e" target="_top" xlink:title=" ">
<polygon fill="none" stroke="black" points="365,-377.5 365,-407.5 553,-407.5 553,-377.5 365,-377.5"/>
<text text-anchor="start" x="373" y="-395.5" font-family="Helvetica,sans-Serif" font-size="10.00">wmtk::utils::RandomSeedSingleton</text>
<text text-anchor="middle" x="459" y="-384.5" font-family="Helvetica,sans-Serif" font-size="10.00">::get_seed</text>
</a>
</g>
</g>
<!-- Node4&#45;&gt;Node5 -->
<g id="edge4" class="edge">
<title>Node4&#45;&gt;Node5</title>
<path fill="none" stroke="midnightblue" d="M287.01,-353.08C300.48,-356.07 315.36,-359.4 329,-362.5 346.88,-366.57 366.13,-371.01 384.17,-375.2"/>
<polygon fill="midnightblue" stroke="midnightblue" points="383.52,-378.64 394.05,-377.5 385.11,-371.82 383.52,-378.64"/>
</g>
<!-- Node6 -->
<g id="node6" class="node">
<title>Node6</title>
<g id="a_node6"><a xlink:href="classwmtk_1_1utils_1_1_random_seed_singleton.html#a0b3a080bdbf0de29e3e44aa7bea6f648" target="_top" xlink:title=" ">
<polygon fill="none" stroke="black" points="365,-328.5 365,-358.5 553,-358.5 553,-328.5 365,-328.5"/>
<text text-anchor="start" x="373" y="-346.5" font-family="Helvetica,sans-Serif" font-size="10.00">wmtk::utils::RandomSeedSingleton</text>
<text text-anchor="middle" x="459" y="-335.5" font-family="Helvetica,sans-Serif" font-size="10.00">::instance</text>
</a>
</g>
</g>
<!-- Node4&#45;&gt;Node6 -->
<g id="edge5" class="edge">
<title>Node4&#45;&gt;Node6</title>
<path fill="none" stroke="midnightblue" d="M324.59,-343.5C334.47,-343.5 344.66,-343.5 354.81,-343.5"/>
<polygon fill="midnightblue" stroke="midnightblue" points="354.92,-347 364.92,-343.5 354.92,-340 354.92,-347"/>
</g>
<!-- Node8 -->
<g id="node8" class="node">
<title>Node8</title>
<g id="a_node8"><a xlink:href="namespacewmtk.html#a3daa7951a5f8b78cf4600dc047fcc180" target="_top" xlink:title="Setup a logger object to be used by WildmeshToolkit.">
<polygon fill="none" stroke="black" points="408.5,-290 408.5,-309 509.5,-309 509.5,-290 408.5,-290"/>
<text text-anchor="middle" x="459" y="-297" font-family="Helvetica,sans-Serif" font-size="10.00">wmtk::set_logger</text>
</a>
</g>
</g>
<!-- Node7&#45;&gt;Node8 -->
<g id="edge7" class="edge">
<title>Node7&#45;&gt;Node8</title>
<path fill="none" stroke="midnightblue" d="M283.09,-304.39C315.4,-303.49 361.56,-302.2 398.34,-301.17"/>
<polygon fill="midnightblue" stroke="midnightblue" points="398.55,-304.66 408.45,-300.89 398.36,-297.67 398.55,-304.66"/>
</g>
<!-- Node11&#45;&gt;Node9 -->
<g id="edge21" class="edge">
<title>Node11&#45;&gt;Node9</title>
<path fill="none" stroke="midnightblue" d="M295.54,-189.57C306.59,-192.81 318.19,-196.24 329,-199.5 352.47,-206.57 378.28,-214.53 400.61,-221.49"/>
<polygon fill="midnightblue" stroke="midnightblue" points="399.68,-224.86 410.27,-224.5 401.77,-218.18 399.68,-224.86"/>
</g>
<!-- Node12 -->
<g id="node12" class="node">
<title>Node12</title>
<g id="a_node12"><a xlink:href="classwmtk_1_1multimesh_1_1_multi_mesh_visitor.html#a4ae1801ee1021dd57a0ede0444efc2d6" target="_top" xlink:title=" ">
<polygon fill="none" stroke="black" points="379,-159.5 379,-189.5 539,-189.5 539,-159.5 379,-159.5"/>
<text text-anchor="start" x="387" y="-177.5" font-family="Helvetica,sans-Serif" font-size="10.00">wmtk::multimesh::MultiMesh</text>
<text text-anchor="middle" x="459" y="-166.5" font-family="Helvetica,sans-Serif" font-size="10.00">Visitor::execute_from_root</text>
</a>
</g>
</g>
<!-- Node11&#45;&gt;Node12 -->
<g id="edge11" class="edge">
<title>Node11&#45;&gt;Node12</title>
<path fill="none" stroke="midnightblue" d="M320.64,-174.5C336.1,-174.5 352.48,-174.5 368.33,-174.5"/>
<polygon fill="midnightblue" stroke="midnightblue" points="368.66,-178 378.66,-174.5 368.66,-171 368.66,-178"/>
</g>
<!-- Node13 -->
<g id="node13" class="node">
<title>Node13</title>
<g id="a_node13"><a xlink:href="namespacewmtk_1_1utils_1_1metaprogramming.html#aa5a891c5f82fc2a28e4fbdfc325b46f0" target="_top" xlink:title=" ">
<polygon fill="none" stroke="black" points="1177,-181.5 1177,-211.5 1346,-211.5 1346,-181.5 1177,-181.5"/>
<text text-anchor="start" x="1185" y="-199.5" font-family="Helvetica,sans-Serif" font-size="10.00">wmtk::utils::metaprogramming</text>
<text text-anchor="middle" x="1261.5" y="-188.5" font-family="Helvetica,sans-Serif" font-size="10.00">::as_mesh_variant</text>
</a>
</g>
</g>
<!-- Node12&#45;&gt;Node13 -->
<g id="edge12" class="edge">
<title>Node12&#45;&gt;Node13</title>
<path fill="none" stroke="midnightblue" d="M527.63,-189.5C547.31,-193.21 568.92,-196.65 589,-198.5 794.28,-217.43 1036.37,-209.26 1166.47,-202.39"/>
<polygon fill="midnightblue" stroke="midnightblue" points="1166.99,-205.86 1176.79,-201.83 1166.61,-198.87 1166.99,-205.86"/>
</g>
<!-- Node14 -->
<g id="node14" class="node">
<title>Node14</title>
<g id="a_node14"><a xlink:href="classwmtk_1_1multimesh_1_1_multi_mesh_visitor.html#ad96e498fcc27eeb8993f175015c864b4" target="_top" xlink:title=" ">
<polygon fill="none" stroke="black" points="589,-159.5 589,-189.5 749,-189.5 749,-159.5 589,-159.5"/>
<text text-anchor="start" x="597" y="-177.5" font-family="Helvetica,sans-Serif" font-size="10.00">wmtk::multimesh::MultiMesh</text>
<text text-anchor="middle" x="669" y="-166.5" font-family="Helvetica,sans-Serif" font-size="10.00">Visitor::execute_mesh</text>
</a>
</g>
</g>
<!-- Node12&#45;&gt;Node14 -->
<g id="edge13" class="edge">
<title>Node12&#45;&gt;Node14</title>
<path fill="none" stroke="midnightblue" d="M539.23,-174.5C552.22,-174.5 565.76,-174.5 578.97,-174.5"/>
<polygon fill="midnightblue" stroke="midnightblue" points="578.99,-178 588.99,-174.5 578.99,-171 578.99,-178"/>
</g>
<!-- Node17 -->
<g id="node17" class="node">
<title>Node17</title>
<g id="a_node17"><a xlink:href="classwmtk_1_1_mesh.html#aac3ec1ebbe00982ddfe70cc710d8f54e" target="_top" xlink:title="returns a reference to the root of a multimesh tree">
<polygon fill="none" stroke="black" points="604.5,-101.5 604.5,-131.5 733.5,-131.5 733.5,-101.5 604.5,-101.5"/>
<text text-anchor="start" x="612.5" y="-119.5" font-family="Helvetica,sans-Serif" font-size="10.00">wmtk::Mesh::get_multi</text>
<text text-anchor="middle" x="669" y="-108.5" font-family="Helvetica,sans-Serif" font-size="10.00">_mesh_root</text>
</a>
</g>
</g>
<!-- Node12&#45;&gt;Node17 -->
<g id="edge17" class="edge">
<title>Node12&#45;&gt;Node17</title>
<path fill="none" stroke="midnightblue" d="M513.84,-159.49C541.4,-151.8 575.15,-142.39 604.03,-134.34"/>
<polygon fill="midnightblue" stroke="midnightblue" points="605.34,-137.61 614.03,-131.55 603.46,-130.86 605.34,-137.61"/>
</g>
<!-- Node15 -->
<g id="node15" class="node">
<title>Node15</title>
<g id="a_node15"><a xlink:href="classwmtk_1_1multimesh_1_1_multi_mesh_visitor_executor.html#ad59739579a81676fc3ab172e80ce8550" target="_top" xlink:title=" ">
<polygon fill="none" stroke="black" points="785,-159.5 785,-189.5 945,-189.5 945,-159.5 785,-159.5"/>
<text text-anchor="start" x="793" y="-177.5" font-family="Helvetica,sans-Serif" font-size="10.00">wmtk::multimesh::MultiMesh</text>
<text text-anchor="middle" x="865" y="-166.5" font-family="Helvetica,sans-Serif" font-size="10.00">VisitorExecutor::execute</text>
</a>
</g>
</g>
<!-- Node14&#45;&gt;Node15 -->
<g id="edge14" class="edge">
<title>Node14&#45;&gt;Node15</title>
<path fill="none" stroke="midnightblue" d="M749.19,-174.5C757.53,-174.5 766.05,-174.5 774.5,-174.5"/>
<polygon fill="midnightblue" stroke="midnightblue" points="774.75,-178 784.75,-174.5 774.75,-171 774.75,-178"/>
</g>
<!-- Node16 -->
<g id="node16" class="node">
<title>Node16</title>
<g id="a_node16"><a xlink:href="classwmtk_1_1multimesh_1_1_multi_mesh_visitor_executor.html#a6e0ef7ccec71b521a3bc5eb5df90bef0" target="_top" xlink:title=" ">
<polygon fill="none" stroke="black" points="981,-159.5 981,-189.5 1141,-189.5 1141,-159.5 981,-159.5"/>
<text text-anchor="start" x="989" y="-177.5" font-family="Helvetica,sans-Serif" font-size="10.00">wmtk::multimesh::MultiMesh</text>
<text text-anchor="middle" x="1061" y="-166.5" font-family="Helvetica,sans-Serif" font-size="10.00">VisitorExecutor::run</text>
</a>
</g>
</g>
<!-- Node15&#45;&gt;Node16 -->
<g id="edge15" class="edge">
<title>Node15&#45;&gt;Node16</title>
<path fill="none" stroke="midnightblue" d="M945.19,-174.5C953.53,-174.5 962.05,-174.5 970.5,-174.5"/>
<polygon fill="midnightblue" stroke="midnightblue" points="970.75,-178 980.75,-174.5 970.75,-171 970.75,-178"/>
</g>
<!-- Node16&#45;&gt;Node13 -->
<g id="edge16" class="edge">
<title>Node16&#45;&gt;Node13</title>
<path fill="none" stroke="midnightblue" d="M1141.02,-183.26C1149.49,-184.2 1158.17,-185.16 1166.79,-186.11"/>
<polygon fill="midnightblue" stroke="midnightblue" points="1166.54,-189.61 1176.87,-187.23 1167.31,-182.65 1166.54,-189.61"/>
</g>
<!-- Node18 -->
<g id="node18" class="node">
<title>Node18</title>
<g id="a_node18"><a xlink:href="classwmtk_1_1multimesh_1_1_multi_mesh_manager.html#a434e74f6b295055a45914d41a784124a" target="_top" xlink:title=" ">
<polygon fill="none" stroke="black" points="785,-92.5 785,-122.5 945,-122.5 945,-92.5 785,-92.5"/>
<text text-anchor="start" x="793" y="-110.5" font-family="Helvetica,sans-Serif" font-size="10.00">wmtk::multimesh::MultiMesh</text>
<text text-anchor="middle" x="865" y="-99.5" font-family="Helvetica,sans-Serif" font-size="10.00">Manager::get_root_mesh</text>
</a>
</g>
</g>
<!-- Node17&#45;&gt;Node18 -->
<g id="edge18" class="edge">
<title>Node17&#45;&gt;Node18</title>
<path fill="none" stroke="midnightblue" d="M733.52,-113.55C746.68,-112.94 760.78,-112.29 774.67,-111.64"/>
<polygon fill="midnightblue" stroke="midnightblue" points="774.9,-115.14 784.73,-111.18 774.57,-108.14 774.9,-115.14"/>
</g>
<!-- Node18&#45;&gt;Node18 -->
<g id="edge19" class="edge">
<title>Node18&#45;&gt;Node18</title>
<path fill="none" stroke="midnightblue" d="M830.84,-122.66C822.61,-132.06 833.99,-141 865,-141 883.9,-141 895.5,-137.68 899.83,-132.96"/>
<polygon fill="midnightblue" stroke="midnightblue" points="903.3,-132.41 899.16,-122.66 896.31,-132.87 903.3,-132.41"/>
</g>
<!-- Node19 -->
<g id="node19" class="node">
<title>Node19</title>
<g id="a_node19"><a xlink:href="classwmtk_1_1multimesh_1_1_multi_mesh_manager.html#a7d39339adb56b1798fe817d81bfcc67c" target="_top" xlink:title="Specifies whether this structure is the root of a multi&#45;mesh tree.">
<polygon fill="none" stroke="black" points="981,-92.5 981,-122.5 1141,-122.5 1141,-92.5 981,-92.5"/>
<text text-anchor="start" x="989" y="-110.5" font-family="Helvetica,sans-Serif" font-size="10.00">wmtk::multimesh::MultiMesh</text>
<text text-anchor="middle" x="1061" y="-99.5" font-family="Helvetica,sans-Serif" font-size="10.00">Manager::is_root</text>
</a>
</g>
</g>
<!-- Node18&#45;&gt;Node19 -->
<g id="edge20" class="edge">
<title>Node18&#45;&gt;Node19</title>
<path fill="none" stroke="midnightblue" d="M945.19,-107.5C953.53,-107.5 962.05,-107.5 970.5,-107.5"/>
<polygon fill="midnightblue" stroke="midnightblue" points="970.75,-111 980.75,-107.5 970.75,-104 970.75,-111"/>
</g>
</g>
</svg>
        <g id="navigator" transform="translate(0 0)" fill="#404254">
                <rect fill="#f2f5e9" fill-opacity="0.5" stroke="#606060" stroke-width=".5" x="0" y="0" width="60" height="60"/>
                <use id="zoomplus" xlink:href="#zoomPlus" x="17" y="9" onmousedown="handleZoom(evt,'in')"/>
                <use id="zoomminus" xlink:href="#zoomMin" x="42" y="9" onmousedown="handleZoom(evt,'out')"/>
                <use id="reset" xlink:href="#resetDef" x="30" y="36" onmousedown="handleReset()"/>
                <g id="arrowUp" xlink:href="#dirArrow" transform="translate(30 24)" onmousedown="handlePan(0,-1)">
                  <use xlink:href="#rim" fill="#404040">
                        <set attributeName="fill" to="#808080" begin="arrowUp.mouseover" end="arrowUp.mouseout"/>
                  </use>
                  <path fill="none" stroke="white" stroke-width="1.5" d="M0,-3.0v7 M-2.5,-0.5L0,-3.0L2.5,-0.5"/>
                </g>
                <g id="arrowRight" xlink:href="#dirArrow" transform="rotate(90) translate(36 -43)" onmousedown="handlePan(1,0)">
                  <use xlink:href="#rim" fill="#404040">
                        <set attributeName="fill" to="#808080" begin="arrowRight.mouseover" end="arrowRight.mouseout"/>
                  </use>
                  <path fill="none" stroke="white" stroke-width="1.5" d="M0,-3.0v7 M-2.5,-0.5L0,-3.0L2.5,-0.5"/>
                </g>
                <g id="arrowDown" xlink:href="#dirArrow" transform="rotate(180) translate(-30 -48)" onmousedown="handlePan(0,1)">
                  <use xlink:href="#rim" fill="#404040">
                        <set attributeName="fill" to="#808080" begin="arrowDown.mouseover" end="arrowDown.mouseout"/>
                  </use>
                  <path fill="none" stroke="white" stroke-width="1.5" d="M0,-3.0v7 M-2.5,-0.5L0,-3.0L2.5,-0.5"/>
                </g>
                <g id="arrowLeft" xlink:href="#dirArrow" transform="rotate(270) translate(-36 17)" onmousedown="handlePan(-1,0)">
                  <use xlink:href="#rim" fill="#404040">
                        <set attributeName="fill" to="#808080" begin="arrowLeft.mouseover" end="arrowLeft.mouseout"/>
                  </use>
                  <path fill="none" stroke="white" stroke-width="1.5" d="M0,-3.0v7 M-2.5,-0.5L0,-3.0L2.5,-0.5"/>
                </g>
        </g>
        <svg viewBox="0 0 15 15" width="100%" height="30px" preserveAspectRatio="xMaxYMin meet">
         <g id="arrow_out" transform="scale(0.3 0.3)">
          <a xlink:href="classwmtk_1_1_scheduler_a246ccf6605333ebb7c020aa8fae1e959_cgraph_org.svg" target="_base">
           <rect id="button" ry="5" rx="5" y="6" x="6" height="38" width="38"
                fill="#f2f5e9" fill-opacity="0.5" stroke="#606060" stroke-width="1.0"/>
           <path id="arrow"
             d="M 11.500037,31.436501 C 11.940474,20.09759 22.043105,11.32322 32.158766,21.979434 L 37.068811,17.246167 C 37.068811,17.246167 37.088388,32 37.088388,32 L 22.160133,31.978069 C 22.160133,31.978069 26.997745,27.140456 26.997745,27.140456 C 18.528582,18.264221 13.291696,25.230495 11.500037,31.436501 z"
             style="fill:#404040;"/>
          </a>
         </g>
        </svg>
</svg>
