<?xml version="1.0" encoding="UTF-8" standalone="no"?>
<!DOCTYPE svg PUBLIC "-//W3C//DTD SVG 1.1//EN"
 "http://www.w3.org/Graphics/SVG/1.1/DTD/svg11.dtd">
<!-- Generated by graphviz version 2.43.0 (0)
 -->
<!-- Title: wmtk::function::AMIPS::get_raw_coordinates Pages: 1 -->
<svg width="1586pt" height="842pt"
 viewBox="0.00 0.00 1586.00 841.82" xmlns="http://www.w3.org/2000/svg" xmlns:xlink="http://www.w3.org/1999/xlink">
<g id="graph0" class="graph" transform="scale(1 1) rotate(0) translate(4 837.82)">
<title>wmtk::function::AMIPS::get_raw_coordinates</title>
<!-- Node1 -->
<g id="node1" class="node">
<title>Node1</title>
<g id="a_node1"><a xlink:title=" ">
<polygon fill="#bfbfbf" stroke="black" points="0,-583.32 0,-613.32 127,-613.32 127,-583.32 0,-583.32"/>
<text text-anchor="start" x="8" y="-601.32" font-family="Helvetica,sans-Serif" font-size="10.00">wmtk::function::AMIPS</text>
<text text-anchor="middle" x="63.5" y="-590.32" font-family="Helvetica,sans-Serif" font-size="10.00">::get_raw_coordinates</text>
</a>
</g>
</g>
<!-- Node2 -->
<g id="node2" class="node">
<title>Node2</title>
<g id="a_node2"><a xlink:href="classwmtk_1_1function_1_1_per_simplex_function.html#a0df382a56885d99b8f1c480f016387e1" target="_top" xlink:title=" ">
<polygon fill="none" stroke="black" points="399,-656.32 399,-686.32 551,-686.32 551,-656.32 399,-656.32"/>
<text text-anchor="start" x="407" y="-674.32" font-family="Helvetica,sans-Serif" font-size="10.00">wmtk::function::PerSimplex</text>
<text text-anchor="middle" x="475" y="-663.32" font-family="Helvetica,sans-Serif" font-size="10.00">Function::attribute_handle</text>
</a>
</g>
</g>
<!-- Node1&#45;&gt;Node2 -->
<g id="edge1" class="edge">
<title>Node1&#45;&gt;Node2</title>
<path fill="none" stroke="midnightblue" d="M90.3,-613.43C109.64,-623.99 137.11,-637.38 163,-644.32 237.51,-664.28 325.3,-670.39 388.57,-671.88"/>
<polygon fill="midnightblue" stroke="midnightblue" points="388.83,-675.39 398.9,-672.09 388.98,-668.39 388.83,-675.39"/>
</g>
<!-- Node4 -->
<g id="node4" class="node">
<title>Node4</title>
<g id="a_node4"><a xlink:href="classwmtk_1_1_mesh.html#aec980d09bb50f645d6c1c5e604e091c6" target="_top" xlink:title=" ">
<polygon fill="none" stroke="black" points="192.5,-729.32 192.5,-759.32 305.5,-759.32 305.5,-729.32 192.5,-729.32"/>
<text text-anchor="start" x="200.5" y="-747.32" font-family="Helvetica,sans-Serif" font-size="10.00">wmtk::Mesh::create</text>
<text text-anchor="middle" x="249" y="-736.32" font-family="Helvetica,sans-Serif" font-size="10.00">_const_accessor</text>
</a>
</g>
</g>
<!-- Node1&#45;&gt;Node4 -->
<g id="edge3" class="edge">
<title>Node1&#45;&gt;Node4</title>
<path fill="none" stroke="midnightblue" d="M81.6,-613.59C100.99,-630.75 133.71,-659.2 163,-682.32 180.95,-696.48 201.67,-711.62 218.16,-723.39"/>
<polygon fill="midnightblue" stroke="midnightblue" points="216.18,-726.28 226.36,-729.22 220.23,-720.57 216.18,-726.28"/>
</g>
<!-- Node8 -->
<g id="node8" class="node">
<title>Node8</title>
<g id="a_node8"><a xlink:href="classwmtk_1_1function_1_1_per_simplex_function.html#a102906d1b23aa53d451853ca779ca2c4" target="_top" xlink:title=" ">
<polygon fill="none" stroke="black" points="163,-605.32 163,-635.32 335,-635.32 335,-605.32 163,-605.32"/>
<text text-anchor="start" x="171" y="-623.32" font-family="Helvetica,sans-Serif" font-size="10.00">wmtk::function::PerSimplex</text>
<text text-anchor="middle" x="249" y="-612.32" font-family="Helvetica,sans-Serif" font-size="10.00">Function::embedded_dimension</text>
</a>
</g>
</g>
<!-- Node1&#45;&gt;Node8 -->
<g id="edge7" class="edge">
<title>Node1&#45;&gt;Node8</title>
<path fill="none" stroke="midnightblue" d="M127.14,-605.83C135.42,-606.82 144.06,-607.85 152.74,-608.9"/>
<polygon fill="midnightblue" stroke="midnightblue" points="152.58,-612.4 162.92,-610.12 153.41,-605.45 152.58,-612.4"/>
</g>
<!-- Node15 -->
<g id="node15" class="node">
<title>Node15</title>
<g id="a_node15"><a xlink:href="classwmtk_1_1function_1_1_per_simplex_function.html#a59a059a94c9997cb6dff0eb014a294d1" target="_top" xlink:title=" ">
<polygon fill="none" stroke="black" points="399,-558.32 399,-588.32 551,-588.32 551,-558.32 399,-558.32"/>
<text text-anchor="start" x="407" y="-576.32" font-family="Helvetica,sans-Serif" font-size="10.00">wmtk::function::PerSimplex</text>
<text text-anchor="middle" x="475" y="-565.32" font-family="Helvetica,sans-Serif" font-size="10.00">Function::mesh</text>
</a>
</g>
</g>
<!-- Node1&#45;&gt;Node15 -->
<g id="edge59" class="edge">
<title>Node1&#45;&gt;Node15</title>
<path fill="none" stroke="midnightblue" d="M127.14,-594.49C197.04,-590.22 310.55,-583.3 388.56,-578.53"/>
<polygon fill="midnightblue" stroke="midnightblue" points="389.08,-582.01 398.85,-577.9 388.65,-575.02 389.08,-582.01"/>
</g>
<!-- Node16 -->
<g id="node16" class="node">
<title>Node16</title>
<g id="a_node16"><a xlink:href="namespacewmtk_1_1function_1_1utils.html#aff6a9b54f63d836d08a84ea66f47657f" target="_top" xlink:title="get attributes from a simplex">
<polygon fill="none" stroke="black" points="181.5,-339.32 181.5,-369.32 316.5,-369.32 316.5,-339.32 181.5,-339.32"/>
<text text-anchor="start" x="189.5" y="-357.32" font-family="Helvetica,sans-Serif" font-size="10.00">wmtk::function::utils</text>
<text text-anchor="middle" x="249" y="-346.32" font-family="Helvetica,sans-Serif" font-size="10.00">::get_simplex_attributes</text>
</a>
</g>
</g>
<!-- Node1&#45;&gt;Node16 -->
<g id="edge16" class="edge">
<title>Node1&#45;&gt;Node16</title>
<path fill="none" stroke="midnightblue" d="M75.98,-583.05C107.07,-541.72 193.05,-427.38 230.36,-377.78"/>
<polygon fill="midnightblue" stroke="midnightblue" points="233.31,-379.67 236.53,-369.57 227.72,-375.46 233.31,-379.67"/>
</g>
<!-- Node21 -->
<g id="node21" class="node">
<title>Node21</title>
<g id="a_node21"><a xlink:href="classwmtk_1_1simplex_1_1_simplex.html#a3650fd31ff1864285502dba66db3c73c" target="_top" xlink:title=" ">
<polygon fill="none" stroke="black" points="1289,-88.32 1289,-118.32 1424,-118.32 1424,-88.32 1289,-88.32"/>
<text text-anchor="start" x="1297" y="-106.32" font-family="Helvetica,sans-Serif" font-size="10.00">wmtk::simplex::Simplex</text>
<text text-anchor="middle" x="1356.5" y="-95.32" font-family="Helvetica,sans-Serif" font-size="10.00">::tuple</text>
</a>
</g>
</g>
<!-- Node1&#45;&gt;Node21 -->
<g id="edge60" class="edge">
<title>Node1&#45;&gt;Node21</title>
<path fill="none" stroke="midnightblue" d="M66.98,-583.24C83.16,-490.39 182.39,-0.32 474,-0.32 474,-0.32 474,-0.32 940,-0.32 1078.48,-0.32 1118.06,4.75 1249,-40.32 1277.44,-50.1 1306.62,-68.03 1327.23,-82.26"/>
<polygon fill="midnightblue" stroke="midnightblue" points="1325.32,-85.2 1335.51,-88.1 1329.36,-79.48 1325.32,-85.2"/>
</g>
<!-- Node3 -->
<g id="node3" class="node">
<title>Node3</title>
<g id="a_node3"><a xlink:href="classwmtk_1_1attribute_1_1_mesh_attribute_handle.html#ad577111f5b1fd05f60fae4b7f0ddb1f6" target="_top" xlink:title=" ">
<polygon fill="none" stroke="black" points="623.5,-656.32 623.5,-686.32 790.5,-686.32 790.5,-656.32 623.5,-656.32"/>
<text text-anchor="start" x="631.5" y="-674.32" font-family="Helvetica,sans-Serif" font-size="10.00">wmtk::attribute::MeshAttribute</text>
<text text-anchor="middle" x="707" y="-663.32" font-family="Helvetica,sans-Serif" font-size="10.00">Handle::is_valid</text>
</a>
</g>
</g>
<!-- Node2&#45;&gt;Node3 -->
<g id="edge2" class="edge">
<title>Node2&#45;&gt;Node3</title>
<path fill="none" stroke="midnightblue" d="M551.31,-671.32C571.13,-671.32 592.73,-671.32 613.34,-671.32"/>
<polygon fill="midnightblue" stroke="midnightblue" points="613.37,-674.82 623.37,-671.32 613.37,-667.82 613.37,-674.82"/>
</g>
<!-- Node5 -->
<g id="node5" class="node">
<title>Node5</title>
<g id="a_node5"><a xlink:href="classwmtk_1_1attribute_1_1_mesh_attribute_handle.html#ac326961f01b9ba4fec395827f15a7ef2" target="_top" xlink:title=" ">
<polygon fill="none" stroke="black" points="391.5,-705.32 391.5,-735.32 558.5,-735.32 558.5,-705.32 391.5,-705.32"/>
<text text-anchor="start" x="399.5" y="-723.32" font-family="Helvetica,sans-Serif" font-size="10.00">wmtk::attribute::MeshAttribute</text>
<text text-anchor="middle" x="475" y="-712.32" font-family="Helvetica,sans-Serif" font-size="10.00">Handle::as</text>
</a>
</g>
</g>
<!-- Node4&#45;&gt;Node5 -->
<g id="edge4" class="edge">
<title>Node4&#45;&gt;Node5</title>
<path fill="none" stroke="midnightblue" d="M305.66,-738.35C328.42,-735.91 355.38,-733.03 380.98,-730.28"/>
<polygon fill="midnightblue" stroke="midnightblue" points="381.52,-733.75 391.09,-729.2 380.78,-726.78 381.52,-733.75"/>
</g>
<!-- Node6 -->
<g id="node6" class="node">
<title>Node6</title>
<g id="a_node6"><a xlink:href="classwmtk_1_1attribute_1_1_mesh_attribute_handle.html#a2b86caeb22b007b85b138ebc6b0ed837" target="_top" xlink:title=" ">
<polygon fill="none" stroke="black" points="391.5,-803.32 391.5,-833.32 558.5,-833.32 558.5,-803.32 391.5,-803.32"/>
<text text-anchor="start" x="399.5" y="-821.32" font-family="Helvetica,sans-Serif" font-size="10.00">wmtk::attribute::MeshAttribute</text>
<text text-anchor="middle" x="475" y="-810.32" font-family="Helvetica,sans-Serif" font-size="10.00">Handle::holds</text>
</a>
</g>
</g>
<!-- Node4&#45;&gt;Node6 -->
<g id="edge5" class="edge">
<title>Node4&#45;&gt;Node6</title>
<path fill="none" stroke="midnightblue" d="M282.33,-759.37C306.4,-770.15 340.27,-784.46 371,-794.32 378.05,-796.58 385.44,-798.72 392.88,-800.73"/>
<polygon fill="midnightblue" stroke="midnightblue" points="392.1,-804.15 402.66,-803.29 393.87,-797.37 392.1,-804.15"/>
</g>
<!-- Node7 -->
<g id="node7" class="node">
<title>Node7</title>
<g id="a_node7"><a xlink:href="classwmtk_1_1attribute_1_1_mesh_attribute_handle.html#a620620d54776b2c5f4f9cebad465cfa7" target="_top" xlink:title=" ">
<polygon fill="none" stroke="black" points="391.5,-754.32 391.5,-784.32 558.5,-784.32 558.5,-754.32 391.5,-754.32"/>
<text text-anchor="start" x="399.5" y="-772.32" font-family="Helvetica,sans-Serif" font-size="10.00">wmtk::attribute::MeshAttribute</text>
<text text-anchor="middle" x="475" y="-761.32" font-family="Helvetica,sans-Serif" font-size="10.00">Handle::mesh</text>
</a>
</g>
</g>
<!-- Node4&#45;&gt;Node7 -->
<g id="edge6" class="edge">
<title>Node4&#45;&gt;Node7</title>
<path fill="none" stroke="midnightblue" d="M305.66,-750.53C328.42,-753.07 355.38,-756.08 380.98,-758.94"/>
<polygon fill="midnightblue" stroke="midnightblue" points="380.76,-762.43 391.09,-760.06 381.54,-755.48 380.76,-762.43"/>
</g>
<!-- Node8&#45;&gt;Node2 -->
<g id="edge8" class="edge">
<title>Node8&#45;&gt;Node2</title>
<path fill="none" stroke="midnightblue" d="M316,-635.34C341.74,-641.2 371.42,-647.96 398.05,-654.02"/>
<polygon fill="midnightblue" stroke="midnightblue" points="397.56,-657.5 408.09,-656.31 399.12,-650.68 397.56,-657.5"/>
</g>
<!-- Node9 -->
<g id="node9" class="node">
<title>Node9</title>
<g id="a_node9"><a xlink:href="classwmtk_1_1_mesh.html#a4f546f0125de42db771686220d77ec78" target="_top" xlink:title=" ">
<polygon fill="none" stroke="black" points="402,-607.32 402,-637.32 548,-637.32 548,-607.32 402,-607.32"/>
<text text-anchor="start" x="410" y="-625.32" font-family="Helvetica,sans-Serif" font-size="10.00">wmtk::Mesh::get_attribute</text>
<text text-anchor="middle" x="475" y="-614.32" font-family="Helvetica,sans-Serif" font-size="10.00">_dimension</text>
</a>
</g>
</g>
<!-- Node8&#45;&gt;Node9 -->
<g id="edge9" class="edge">
<title>Node8&#45;&gt;Node9</title>
<path fill="none" stroke="midnightblue" d="M335,-621.08C353.59,-621.24 373.24,-621.42 391.71,-621.58"/>
<polygon fill="midnightblue" stroke="midnightblue" points="391.82,-625.08 401.85,-621.67 391.88,-618.08 391.82,-625.08"/>
</g>
<!-- Node8&#45;&gt;Node15 -->
<g id="edge15" class="edge">
<title>Node8&#45;&gt;Node15</title>
<path fill="none" stroke="midnightblue" d="M321.49,-605.32C344.12,-600.57 369.3,-595.28 392.58,-590.4"/>
<polygon fill="midnightblue" stroke="midnightblue" points="393.35,-593.81 402.42,-588.34 391.91,-586.96 393.35,-593.81"/>
</g>
<!-- Node10 -->
<g id="node10" class="node">
<title>Node10</title>
<g id="a_node10"><a xlink:href="classwmtk_1_1attribute_1_1_attribute_manager.html#a4ae249faad236f8d98287c3ec61e987e" target="_top" xlink:title=" ">
<polygon fill="none" stroke="black" points="636.5,-581.82 636.5,-622.82 777.5,-622.82 777.5,-581.82 636.5,-581.82"/>
<text text-anchor="start" x="644.5" y="-610.82" font-family="Helvetica,sans-Serif" font-size="10.00">wmtk::attribute::Attribute</text>
<text text-anchor="start" x="644.5" y="-599.82" font-family="Helvetica,sans-Serif" font-size="10.00">Manager::get_attribute</text>
<text text-anchor="middle" x="707" y="-588.82" font-family="Helvetica,sans-Serif" font-size="10.00">_dimension</text>
</a>
</g>
</g>
<!-- Node9&#45;&gt;Node10 -->
<g id="edge10" class="edge">
<title>Node9&#45;&gt;Node10</title>
<path fill="none" stroke="midnightblue" d="M548.14,-616.04C573.03,-613.88 601.05,-611.44 626.49,-609.23"/>
<polygon fill="midnightblue" stroke="midnightblue" points="626.81,-612.72 636.47,-608.36 626.21,-605.74 626.81,-612.72"/>
</g>
<!-- Node11 -->
<g id="node11" class="node">
<title>Node11</title>
<g id="a_node11"><a xlink:href="classwmtk_1_1attribute_1_1_attribute_manager.html#abfc9300968be9c101a09922863566c34" target="_top" xlink:title=" ">
<polygon fill="none" stroke="black" points="868.5,-432.32 868.5,-462.32 1009.5,-462.32 1009.5,-432.32 868.5,-432.32"/>
<text text-anchor="start" x="876.5" y="-450.32" font-family="Helvetica,sans-Serif" font-size="10.00">wmtk::attribute::Attribute</text>
<text text-anchor="middle" x="939" y="-439.32" font-family="Helvetica,sans-Serif" font-size="10.00">Manager::get</text>
</a>
</g>
</g>
<!-- Node10&#45;&gt;Node11 -->
<g id="edge11" class="edge">
<title>Node10&#45;&gt;Node11</title>
<path fill="none" stroke="midnightblue" d="M722.16,-581.47C743.22,-552.16 785.65,-499.24 835,-471.32 842.35,-467.16 850.39,-463.72 858.62,-460.87"/>
<polygon fill="midnightblue" stroke="midnightblue" points="859.87,-464.15 868.35,-457.8 857.76,-457.47 859.87,-464.15"/>
</g>
<!-- Node13 -->
<g id="node13" class="node">
<title>Node13</title>
<g id="a_node13"><a xlink:href="classwmtk_1_1attribute_1_1_typed_attribute_handle.html#ad473b36dc43489bad4a345dceac443fa" target="_top" xlink:title=" ">
<polygon fill="none" stroke="black" points="854,-587.32 854,-617.32 1024,-617.32 1024,-587.32 854,-587.32"/>
<text text-anchor="start" x="862" y="-605.32" font-family="Helvetica,sans-Serif" font-size="10.00">wmtk::attribute::TypedAttribute</text>
<text text-anchor="middle" x="939" y="-594.32" font-family="Helvetica,sans-Serif" font-size="10.00">Handle::is_valid</text>
</a>
</g>
</g>
<!-- Node10&#45;&gt;Node13 -->
<g id="edge13" class="edge">
<title>Node10&#45;&gt;Node13</title>
<path fill="none" stroke="midnightblue" d="M777.63,-602.32C798.38,-602.32 821.48,-602.32 843.54,-602.32"/>
<polygon fill="midnightblue" stroke="midnightblue" points="843.59,-605.82 853.59,-602.32 843.59,-598.82 843.59,-605.82"/>
</g>
<!-- Node12 -->
<g id="node12" class="node">
<title>Node12</title>
<g id="a_node12"><a xlink:href="namespacewmtk.html#a9e8fdc205b7ba54f122eec3761706a8e" target="_top" xlink:title="Get a unique integer id corresponding to each primitive type.">
<polygon fill="none" stroke="black" points="1106,-333.32 1106,-363.32 1222,-363.32 1222,-333.32 1106,-333.32"/>
<text text-anchor="start" x="1114" y="-351.32" font-family="Helvetica,sans-Serif" font-size="10.00">wmtk::get_primitive</text>
<text text-anchor="middle" x="1164" y="-340.32" font-family="Helvetica,sans-Serif" font-size="10.00">_type_id</text>
</a>
</g>
</g>
<!-- Node11&#45;&gt;Node12 -->
<g id="edge12" class="edge">
<title>Node11&#45;&gt;Node12</title>
<path fill="none" stroke="midnightblue" d="M973.87,-432.28C1012.95,-414.93 1077.29,-386.37 1119.9,-367.45"/>
<polygon fill="midnightblue" stroke="midnightblue" points="1121.46,-370.59 1129.18,-363.33 1118.62,-364.19 1121.46,-370.59"/>
</g>
<!-- Node14 -->
<g id="node14" class="node">
<title>Node14</title>
<g id="a_node14"><a xlink:href="classwmtk_1_1attribute_1_1_attribute_handle.html#ac48d337c6cc95e43c1ecceaacf3dd31d" target="_top" xlink:title=" ">
<polygon fill="none" stroke="black" points="1093.5,-587.32 1093.5,-617.32 1234.5,-617.32 1234.5,-587.32 1093.5,-587.32"/>
<text text-anchor="start" x="1101.5" y="-605.32" font-family="Helvetica,sans-Serif" font-size="10.00">wmtk::attribute::Attribute</text>
<text text-anchor="middle" x="1164" y="-594.32" font-family="Helvetica,sans-Serif" font-size="10.00">Handle::is_valid</text>
</a>
</g>
</g>
<!-- Node13&#45;&gt;Node14 -->
<g id="edge14" class="edge">
<title>Node13&#45;&gt;Node14</title>
<path fill="none" stroke="midnightblue" d="M1024.31,-602.32C1043.65,-602.32 1064.15,-602.32 1083.29,-602.32"/>
<polygon fill="midnightblue" stroke="midnightblue" points="1083.47,-605.82 1093.47,-602.32 1083.47,-598.82 1083.47,-605.82"/>
</g>
<!-- Node17 -->
<g id="node17" class="node">
<title>Node17</title>
<g id="a_node17"><a xlink:href="classwmtk_1_1simplex_1_1_simplex_collection.html#a82338aad6cf6d613871fdb0d7e375a03" target="_top" xlink:title=" ">
<polygon fill="none" stroke="black" points="383,-421.32 383,-451.32 567,-451.32 567,-421.32 383,-421.32"/>
<text text-anchor="start" x="391" y="-439.32" font-family="Helvetica,sans-Serif" font-size="10.00">wmtk::simplex::SimplexCollection</text>
<text text-anchor="middle" x="475" y="-428.32" font-family="Helvetica,sans-Serif" font-size="10.00">::begin</text>
</a>
</g>
</g>
<!-- Node16&#45;&gt;Node17 -->
<g id="edge17" class="edge">
<title>Node16&#45;&gt;Node17</title>
<path fill="none" stroke="midnightblue" d="M277.68,-369.33C301.78,-381.92 337.93,-399.65 371,-411.32 378.32,-413.9 386.03,-416.31 393.79,-418.53"/>
<polygon fill="midnightblue" stroke="midnightblue" points="393.06,-421.96 403.63,-421.25 394.92,-415.22 393.06,-421.96"/>
</g>
<!-- Node18 -->
<g id="node18" class="node">
<title>Node18</title>
<g id="a_node18"><a xlink:href="classwmtk_1_1simplex_1_1_simplex_collection.html#aa4a2675404c8e8c1c3fd5a5e34042969" target="_top" xlink:title=" ">
<polygon fill="none" stroke="black" points="371,-382.82 371,-401.82 579,-401.82 579,-382.82 371,-382.82"/>
<text text-anchor="middle" x="475" y="-389.82" font-family="Helvetica,sans-Serif" font-size="10.00">wmtk::simplex::SimplexCollection::end</text>
</a>
</g>
</g>
<!-- Node16&#45;&gt;Node18 -->
<g id="edge18" class="edge">
<title>Node16&#45;&gt;Node18</title>
<path fill="none" stroke="midnightblue" d="M316.6,-365.61C345.44,-370.51 379.12,-376.22 407.9,-381.1"/>
<polygon fill="midnightblue" stroke="midnightblue" points="407.42,-384.57 417.86,-382.79 408.59,-377.67 407.42,-384.57"/>
</g>
<!-- Node19 -->
<g id="node19" class="node">
<title>Node19</title>
<g id="a_node19"><a xlink:href="classwmtk_1_1simplex_1_1utils_1_1_simplex_comparisons.html#a855a7009bb50500e9b336a05d424b34d" target="_top" xlink:title=" ">
<polygon fill="none" stroke="black" points="1101,-82.82 1101,-123.82 1227,-123.82 1227,-82.82 1101,-82.82"/>
<text text-anchor="start" x="1109" y="-111.82" font-family="Helvetica,sans-Serif" font-size="10.00">wmtk::simplex::utils</text>
<text text-anchor="start" x="1109" y="-100.82" font-family="Helvetica,sans-Serif" font-size="10.00">::SimplexComparisons</text>
<text text-anchor="middle" x="1164" y="-89.82" font-family="Helvetica,sans-Serif" font-size="10.00">::equal</text>
</a>
</g>
</g>
<!-- Node16&#45;&gt;Node19 -->
<g id="edge19" class="edge">
<title>Node16&#45;&gt;Node19</title>
<path fill="none" stroke="midnightblue" d="M253.21,-339.03C262.73,-297.95 295.06,-185.1 371,-138.32 431.31,-101.16 906.76,-101.13 1090.69,-102.54"/>
<polygon fill="midnightblue" stroke="midnightblue" points="1090.78,-106.04 1100.81,-102.62 1090.83,-99.04 1090.78,-106.04"/>
</g>
<!-- Node20 -->
<g id="node20" class="node">
<title>Node20</title>
<g id="a_node20"><a xlink:href="classwmtk_1_1simplex_1_1_simplex.html#ad2cc0340a0772b7d6f03ba7a781d1163" target="_top" xlink:title=" ">
<polygon fill="none" stroke="black" points="1289,-267.32 1289,-297.32 1424,-297.32 1424,-267.32 1289,-267.32"/>
<text text-anchor="start" x="1297" y="-285.32" font-family="Helvetica,sans-Serif" font-size="10.00">wmtk::simplex::Simplex</text>
<text text-anchor="middle" x="1356.5" y="-274.32" font-family="Helvetica,sans-Serif" font-size="10.00">::primitive_type</text>
</a>
</g>
</g>
<!-- Node16&#45;&gt;Node20 -->
<g id="edge55" class="edge">
<title>Node16&#45;&gt;Node20</title>
<path fill="none" stroke="midnightblue" d="M268.66,-339.13C328.37,-292.16 521.57,-152.32 706,-152.32 706,-152.32 706,-152.32 940,-152.32 1078.85,-152.32 1121.54,-143.25 1249,-198.32 1282.35,-212.73 1314.19,-240.28 1334.22,-259.9"/>
<polygon fill="midnightblue" stroke="midnightblue" points="1331.75,-262.38 1341.3,-266.98 1336.71,-257.44 1331.75,-262.38"/>
</g>
<!-- Node16&#45;&gt;Node21 -->
<g id="edge58" class="edge">
<title>Node16&#45;&gt;Node21</title>
<path fill="none" stroke="midnightblue" d="M250.82,-339.26C254.45,-289.09 273.59,-126.9 371,-57.32 431.67,-13.97 631.44,-38.32 706,-38.32 706,-38.32 706,-38.32 940,-38.32 1078.21,-38.32 1113.37,-46.71 1249,-73.32 1265.31,-76.52 1282.77,-80.98 1298.73,-85.49"/>
<polygon fill="midnightblue" stroke="midnightblue" points="1297.87,-88.88 1308.45,-88.29 1299.81,-82.16 1297.87,-88.88"/>
</g>
<!-- Node22 -->
<g id="node22" class="node">
<title>Node22</title>
<g id="a_node22"><a xlink:href="namespacewmtk_1_1simplex.html#aee89641a0de7b5ddf8d15bf376f9d33b" target="_top" xlink:title="Returns all faces of a simplex.">
<polygon fill="none" stroke="black" points="414,-306.82 414,-325.82 536,-325.82 536,-306.82 414,-306.82"/>
<text text-anchor="middle" x="475" y="-313.82" font-family="Helvetica,sans-Serif" font-size="10.00">wmtk::simplex::faces</text>
</a>
</g>
</g>
<!-- Node16&#45;&gt;Node22 -->
<g id="edge22" class="edge">
<title>Node16&#45;&gt;Node22</title>
<path fill="none" stroke="midnightblue" d="M316.6,-343.02C345.44,-338.13 379.12,-332.41 407.9,-327.53"/>
<polygon fill="midnightblue" stroke="midnightblue" points="408.59,-330.96 417.86,-325.84 407.42,-324.06 408.59,-330.96"/>
</g>
<!-- Node25 -->
<g id="node25" class="node">
<title>Node25</title>
<g id="a_node25"><a xlink:href="namespacewmtk_1_1simplex.html#aedab544fbb3e4c417608c0b5371e94d9" target="_top" xlink:title=" ">
<polygon fill="none" stroke="black" points="867.5,-481.32 867.5,-511.32 1010.5,-511.32 1010.5,-481.32 867.5,-481.32"/>
<text text-anchor="start" x="875.5" y="-499.32" font-family="Helvetica,sans-Serif" font-size="10.00">wmtk::simplex::faces</text>
<text text-anchor="middle" x="939" y="-488.32" font-family="Helvetica,sans-Serif" font-size="10.00">_single_dimension_tuples</text>
</a>
</g>
</g>
<!-- Node16&#45;&gt;Node25 -->
<g id="edge53" class="edge">
<title>Node16&#45;&gt;Node25</title>
<path fill="none" stroke="midnightblue" d="M256.24,-369.52C270.7,-402.39 309.95,-479.52 371,-509.32 454.31,-549.97 721.79,-523.79 857.47,-507.1"/>
<polygon fill="midnightblue" stroke="midnightblue" points="857.91,-510.57 867.4,-505.86 857.04,-503.62 857.91,-510.57"/>
</g>
<!-- Node30 -->
<g id="node30" class="node">
<title>Node30</title>
<g id="a_node30"><a xlink:href="classwmtk_1_1_mesh.html#aed90cad0755b0052b0ca4502e401bcd3" target="_top" xlink:title=" ">
<polygon fill="none" stroke="black" points="1299.5,-409.32 1299.5,-439.32 1413.5,-439.32 1413.5,-409.32 1299.5,-409.32"/>
<text text-anchor="start" x="1307.5" y="-427.32" font-family="Helvetica,sans-Serif" font-size="10.00">wmtk::Mesh::switch</text>
<text text-anchor="middle" x="1356.5" y="-416.32" font-family="Helvetica,sans-Serif" font-size="10.00">_vertex</text>
</a>
</g>
</g>
<!-- Node16&#45;&gt;Node30 -->
<g id="edge57" class="edge">
<title>Node16&#45;&gt;Node30</title>
<path fill="none" stroke="midnightblue" d="M316.53,-350.99C399.73,-348.03 536.41,-347.55 579,-373.32 605.61,-389.41 587.94,-417.99 615,-433.32 686.16,-473.61 718.12,-445.4 799,-433.32 815.55,-430.84 818.45,-424.79 835,-422.32 926.43,-408.66 950.56,-422.02 1043,-422.32 1127.93,-422.59 1225.84,-423.28 1289.1,-423.77"/>
<polygon fill="midnightblue" stroke="midnightblue" points="1289.3,-427.27 1299.33,-423.85 1289.36,-420.27 1289.3,-427.27"/>
</g>
<!-- Node38 -->
<g id="node38" class="node">
<title>Node38</title>
<g id="a_node38"><a xlink:href="classwmtk_1_1_mesh.html#a56d57041196b23cfa33661c9488c9c4b" target="_top" xlink:title="TODO this needs dimension?">
<polygon fill="none" stroke="black" points="417.5,-66.82 417.5,-85.82 532.5,-85.82 532.5,-66.82 417.5,-66.82"/>
<text text-anchor="middle" x="475" y="-73.82" font-family="Helvetica,sans-Serif" font-size="10.00">wmtk::Mesh::is_ccw</text>
</a>
</g>
</g>
<!-- Node16&#45;&gt;Node38 -->
<g id="edge54" class="edge">
<title>Node16&#45;&gt;Node38</title>
<path fill="none" stroke="midnightblue" d="M252.52,-339.21C260.71,-294.96 290.89,-164.77 371,-100.32 381.43,-91.92 394.27,-86.36 407.31,-82.71"/>
<polygon fill="midnightblue" stroke="midnightblue" points="408.4,-86.04 417.28,-80.26 406.74,-79.24 408.4,-86.04"/>
</g>
<!-- Node39 -->
<g id="node39" class="node">
<title>Node39</title>
<g id="a_node39"><a xlink:href="classwmtk_1_1simplex_1_1_simplex_collection.html#aa86023a5429af2eaa288fa305399450f" target="_top" xlink:title=" ">
<polygon fill="none" stroke="black" points="383,-470.32 383,-500.32 567,-500.32 567,-470.32 383,-470.32"/>
<text text-anchor="start" x="391" y="-488.32" font-family="Helvetica,sans-Serif" font-size="10.00">wmtk::simplex::SimplexCollection</text>
<text text-anchor="middle" x="475" y="-477.32" font-family="Helvetica,sans-Serif" font-size="10.00">::size</text>
</a>
</g>
</g>
<!-- Node16&#45;&gt;Node39 -->
<g id="edge56" class="edge">
<title>Node16&#45;&gt;Node39</title>
<path fill="none" stroke="midnightblue" d="M262.84,-369.52C283.3,-392.72 325.64,-436.77 371,-460.32 375.53,-462.67 380.28,-464.8 385.16,-466.74"/>
<polygon fill="midnightblue" stroke="midnightblue" points="384.08,-470.07 394.68,-470.23 386.49,-463.5 384.08,-470.07"/>
</g>
<!-- Node19&#45;&gt;Node20 -->
<g id="edge20" class="edge">
<title>Node19&#45;&gt;Node20</title>
<path fill="none" stroke="midnightblue" d="M1225.51,-123.82C1233.81,-127.95 1241.91,-132.76 1249,-138.32 1291.82,-171.85 1325.84,-226.78 1343.1,-258.22"/>
<polygon fill="midnightblue" stroke="midnightblue" points="1340.09,-260.02 1347.91,-267.17 1346.26,-256.7 1340.09,-260.02"/>
</g>
<!-- Node19&#45;&gt;Node21 -->
<g id="edge21" class="edge">
<title>Node19&#45;&gt;Node21</title>
<path fill="none" stroke="midnightblue" d="M1227.11,-103.32C1243.63,-103.32 1261.67,-103.32 1278.87,-103.32"/>
<polygon fill="midnightblue" stroke="midnightblue" points="1278.88,-106.82 1288.88,-103.32 1278.88,-99.82 1278.88,-106.82"/>
</g>
<!-- Node22&#45;&gt;Node20 -->
<g id="edge51" class="edge">
<title>Node22&#45;&gt;Node20</title>
<path fill="none" stroke="midnightblue" d="M484.17,-306.69C503.89,-284.3 556.76,-229.14 615,-209.32 863.9,-124.61 1185.09,-220.73 1306.29,-263.7"/>
<polygon fill="midnightblue" stroke="midnightblue" points="1305.44,-267.11 1316.04,-267.19 1307.8,-260.52 1305.44,-267.11"/>
</g>
<!-- Node23 -->
<g id="node23" class="node">
<title>Node23</title>
<g id="a_node23"><a xlink:href="classwmtk_1_1simplex_1_1_simplex_collection.html#a1e7079b3b75f70dd28c524556cab76cf" target="_top" xlink:title="Add simplex to the collection.">
<polygon fill="none" stroke="black" points="835,-355.82 835,-374.82 1043,-374.82 1043,-355.82 835,-355.82"/>
<text text-anchor="middle" x="939" y="-362.82" font-family="Helvetica,sans-Serif" font-size="10.00">wmtk::simplex::SimplexCollection::add</text>
</a>
</g>
</g>
<!-- Node22&#45;&gt;Node23 -->
<g id="edge23" class="edge">
<title>Node22&#45;&gt;Node23</title>
<path fill="none" stroke="midnightblue" d="M536.4,-322.72C613.02,-330.85 746.22,-344.98 838.08,-354.72"/>
<polygon fill="midnightblue" stroke="midnightblue" points="837.91,-358.22 848.23,-355.8 838.65,-351.26 837.91,-358.22"/>
</g>
<!-- Node24 -->
<g id="node24" class="node">
<title>Node24</title>
<g id="a_node24"><a xlink:href="namespacewmtk_1_1simplex.html#a9dec91b832501228f5b8b05646d0b89d" target="_top" xlink:title="Returns a vector with all faces in the boundary of a simplex of the given dimension.">
<polygon fill="none" stroke="black" points="646,-394.32 646,-424.32 768,-424.32 768,-394.32 646,-394.32"/>
<text text-anchor="start" x="654" y="-412.32" font-family="Helvetica,sans-Serif" font-size="10.00">wmtk::simplex::faces</text>
<text text-anchor="middle" x="707" y="-401.32" font-family="Helvetica,sans-Serif" font-size="10.00">_single_dimension</text>
</a>
</g>
</g>
<!-- Node22&#45;&gt;Node24 -->
<g id="edge24" class="edge">
<title>Node22&#45;&gt;Node24</title>
<path fill="none" stroke="midnightblue" d="M536.03,-324.01C550.74,-327.56 565.99,-332.74 579,-340.32 599.39,-352.18 595.16,-366.55 615,-379.32 621.59,-383.56 628.84,-387.25 636.27,-390.46"/>
<polygon fill="midnightblue" stroke="midnightblue" points="635.18,-393.79 645.76,-394.27 637.78,-387.3 635.18,-393.79"/>
</g>
<!-- Node34 -->
<g id="node34" class="node">
<title>Node34</title>
<g id="a_node34"><a xlink:href="namespacewmtk_1_1utils.html#ad4153e2c24f98b817e39406defdc9f7e" target="_top" xlink:title=" ">
<polygon fill="none" stroke="black" points="646,-268.32 646,-298.32 768,-298.32 768,-268.32 646,-268.32"/>
<text text-anchor="start" x="654" y="-286.32" font-family="Helvetica,sans-Serif" font-size="10.00">wmtk::utils::primitive</text>
<text text-anchor="middle" x="707" y="-275.32" font-family="Helvetica,sans-Serif" font-size="10.00">_below</text>
</a>
</g>
</g>
<!-- Node22&#45;&gt;Node34 -->
<g id="edge46" class="edge">
<title>Node22&#45;&gt;Node34</title>
<path fill="none" stroke="midnightblue" d="M536.13,-307.69C566.64,-303.31 603.87,-297.97 635.69,-293.4"/>
<polygon fill="midnightblue" stroke="midnightblue" points="636.42,-296.84 645.82,-291.95 635.43,-289.91 636.42,-296.84"/>
</g>
<!-- Node35 -->
<g id="node35" class="node">
<title>Node35</title>
<g id="a_node35"><a xlink:href="namespacewmtk_1_1utils.html#a8dab5bd8df4c7c658413914f37210244" target="_top" xlink:title=" ">
<polygon fill="none" stroke="black" points="878,-295.32 878,-325.32 1000,-325.32 1000,-295.32 878,-295.32"/>
<text text-anchor="start" x="886" y="-313.32" font-family="Helvetica,sans-Serif" font-size="10.00">wmtk::utils::primitive</text>
<text text-anchor="middle" x="939" y="-302.32" font-family="Helvetica,sans-Serif" font-size="10.00">_range</text>
</a>
</g>
</g>
<!-- Node22&#45;&gt;Node35 -->
<g id="edge50" class="edge">
<title>Node22&#45;&gt;Node35</title>
<path fill="none" stroke="midnightblue" d="M536.4,-315.53C621.77,-314.42 777.39,-312.4 867.8,-311.23"/>
<polygon fill="midnightblue" stroke="midnightblue" points="868,-314.73 877.95,-311.1 867.91,-307.73 868,-314.73"/>
</g>
<!-- Node37 -->
<g id="node37" class="node">
<title>Node37</title>
<g id="a_node37"><a xlink:href="classwmtk_1_1simplex_1_1_simplex_collection.html#ab318c99d54327383ff1b985bed043f3a" target="_top" xlink:title="Sort simplex vector and remove duplicates.">
<polygon fill="none" stroke="black" points="615,-219.32 615,-249.32 799,-249.32 799,-219.32 615,-219.32"/>
<text text-anchor="start" x="623" y="-237.32" font-family="Helvetica,sans-Serif" font-size="10.00">wmtk::simplex::SimplexCollection</text>
<text text-anchor="middle" x="707" y="-226.32" font-family="Helvetica,sans-Serif" font-size="10.00">::sort_and_clean</text>
</a>
</g>
</g>
<!-- Node22&#45;&gt;Node37 -->
<g id="edge52" class="edge">
<title>Node22&#45;&gt;Node37</title>
<path fill="none" stroke="midnightblue" d="M496.38,-306.77C523.18,-294.46 571.91,-272.91 615,-258.32 621.24,-256.2 627.77,-254.16 634.34,-252.22"/>
<polygon fill="midnightblue" stroke="midnightblue" points="635.34,-255.58 643.98,-249.45 633.4,-248.85 635.34,-255.58"/>
</g>
<!-- Node24&#45;&gt;Node23 -->
<g id="edge25" class="edge">
<title>Node24&#45;&gt;Node23</title>
<path fill="none" stroke="midnightblue" d="M768.13,-397.81C802.02,-391.33 844.22,-383.26 878.08,-376.78"/>
<polygon fill="midnightblue" stroke="midnightblue" points="879.14,-380.14 888.31,-374.82 877.83,-373.26 879.14,-380.14"/>
</g>
<!-- Node24&#45;&gt;Node25 -->
<g id="edge26" class="edge">
<title>Node24&#45;&gt;Node25</title>
<path fill="none" stroke="midnightblue" d="M734.51,-424.36C759.71,-438.15 798.99,-458.33 835,-471.32 842.24,-473.93 849.87,-476.35 857.56,-478.58"/>
<polygon fill="midnightblue" stroke="midnightblue" points="856.74,-481.99 867.31,-481.31 858.62,-475.25 856.74,-481.99"/>
</g>
<!-- Node25&#45;&gt;Node20 -->
<g id="edge37" class="edge">
<title>Node25&#45;&gt;Node20</title>
<path fill="none" stroke="midnightblue" d="M1010.75,-482.23C1021.73,-479.17 1032.8,-475.55 1043,-471.32 1060.32,-464.13 1062.43,-458.09 1079,-449.32 1152.3,-410.51 1178.88,-416.62 1249,-372.32 1280.39,-352.48 1312.41,-324.1 1333.02,-304.54"/>
<polygon fill="midnightblue" stroke="midnightblue" points="1335.55,-306.96 1340.34,-297.51 1330.7,-301.91 1335.55,-306.96"/>
</g>
<!-- Node25&#45;&gt;Node22 -->
<g id="edge36" class="edge">
<title>Node25&#45;&gt;Node22</title>
<path fill="none" stroke="midnightblue" d="M867.38,-498.52C797.31,-497.29 689.85,-485.8 615,-433.32 589.54,-415.46 601.37,-394.92 579,-373.32 559.37,-354.36 532.19,-339.67 510.68,-329.95"/>
<polygon fill="midnightblue" stroke="midnightblue" points="511.81,-326.63 501.24,-325.84 509.01,-333.04 511.81,-326.63"/>
</g>
<!-- Node26 -->
<g id="node26" class="node">
<title>Node26</title>
<g id="a_node26"><a xlink:href="namespacewmtk_1_1simplex.html#a71a3f68cd8c07a8b71f16701238253f1" target="_top" xlink:title=" ">
<polygon fill="none" stroke="black" points="1101.5,-458.82 1101.5,-477.82 1226.5,-477.82 1226.5,-458.82 1101.5,-458.82"/>
<text text-anchor="middle" x="1164" y="-465.82" font-family="Helvetica,sans-Serif" font-size="10.00">wmtk::simplex::edges</text>
</a>
</g>
</g>
<!-- Node25&#45;&gt;Node26 -->
<g id="edge27" class="edge">
<title>Node25&#45;&gt;Node26</title>
<path fill="none" stroke="midnightblue" d="M1010.56,-487.46C1036.24,-484.23 1065.29,-480.58 1091.09,-477.35"/>
<polygon fill="midnightblue" stroke="midnightblue" points="1091.69,-480.8 1101.18,-476.08 1090.82,-473.85 1091.69,-480.8"/>
</g>
<!-- Node31 -->
<g id="node31" class="node">
<title>Node31</title>
<g id="a_node31"><a xlink:href="classwmtk_1_1_mesh.html#abaf00438d0700358b160e310d69725c9" target="_top" xlink:title=" ">
<polygon fill="none" stroke="black" points="1079,-537.82 1079,-556.82 1249,-556.82 1249,-537.82 1079,-537.82"/>
<text text-anchor="middle" x="1164" y="-544.82" font-family="Helvetica,sans-Serif" font-size="10.00">wmtk::Mesh::top_simplex_type</text>
</a>
</g>
</g>
<!-- Node25&#45;&gt;Node31 -->
<g id="edge38" class="edge">
<title>Node25&#45;&gt;Node31</title>
<path fill="none" stroke="midnightblue" d="M1005.7,-511.34C1039.44,-519.06 1079.94,-528.32 1111.4,-535.52"/>
<polygon fill="midnightblue" stroke="midnightblue" points="1110.75,-538.96 1121.28,-537.77 1112.31,-532.13 1110.75,-538.96"/>
</g>
<!-- Node33 -->
<g id="node33" class="node">
<title>Node33</title>
<g id="a_node33"><a xlink:href="namespacewmtk_1_1simplex.html#a1942aba1c5db8f987a1b1535b64b3455" target="_top" xlink:title=" ">
<polygon fill="none" stroke="black" points="1097,-496.82 1097,-515.82 1231,-515.82 1231,-496.82 1097,-496.82"/>
<text text-anchor="middle" x="1164" y="-503.82" font-family="Helvetica,sans-Serif" font-size="10.00">wmtk::simplex::vertices</text>
</a>
</g>
</g>
<!-- Node25&#45;&gt;Node33 -->
<g id="edge40" class="edge">
<title>Node25&#45;&gt;Node33</title>
<path fill="none" stroke="midnightblue" d="M1010.56,-499.48C1034.78,-500.57 1062,-501.79 1086.66,-502.89"/>
<polygon fill="midnightblue" stroke="midnightblue" points="1086.55,-506.39 1096.7,-503.34 1086.86,-499.4 1086.55,-506.39"/>
</g>
<!-- Node26&#45;&gt;Node20 -->
<g id="edge28" class="edge">
<title>Node26&#45;&gt;Node20</title>
<path fill="none" stroke="midnightblue" d="M1220.04,-458.68C1230.29,-455.25 1240.44,-450.6 1249,-444.32 1261.98,-434.78 1315.11,-348.9 1341.08,-306.2"/>
<polygon fill="midnightblue" stroke="midnightblue" points="1344.13,-307.91 1346.33,-297.55 1338.15,-304.28 1344.13,-307.91"/>
</g>
<!-- Node26&#45;&gt;Node21 -->
<g id="edge35" class="edge">
<title>Node26&#45;&gt;Node21</title>
<path fill="none" stroke="midnightblue" d="M1175.89,-458.77C1193.64,-442.64 1228.85,-408.24 1249,-372.32 1275.2,-325.6 1265.82,-307.32 1285,-257.32 1302.98,-210.45 1328.33,-157.61 1343.22,-127.61"/>
<polygon fill="midnightblue" stroke="midnightblue" points="1346.51,-128.86 1347.85,-118.35 1340.25,-125.73 1346.51,-128.86"/>
</g>
<!-- Node27 -->
<g id="node27" class="node">
<title>Node27</title>
<g id="a_node27"><a xlink:href="classwmtk_1_1_mesh.html#a33805489402321155d4a1f7023faaf3a" target="_top" xlink:title=" ">
<polygon fill="none" stroke="black" points="1285,-458.82 1285,-477.82 1428,-477.82 1428,-458.82 1285,-458.82"/>
<text text-anchor="middle" x="1356.5" y="-465.82" font-family="Helvetica,sans-Serif" font-size="10.00">wmtk::Mesh::switch_edge</text>
</a>
</g>
</g>
<!-- Node26&#45;&gt;Node27 -->
<g id="edge29" class="edge">
<title>Node26&#45;&gt;Node27</title>
<path fill="none" stroke="midnightblue" d="M1226.59,-468.32C1241.84,-468.32 1258.4,-468.32 1274.43,-468.32"/>
<polygon fill="midnightblue" stroke="midnightblue" points="1274.86,-471.82 1284.86,-468.32 1274.86,-464.82 1274.86,-471.82"/>
</g>
<!-- Node29 -->
<g id="node29" class="node">
<title>Node29</title>
<g id="a_node29"><a xlink:href="classwmtk_1_1_mesh.html#a6ca480b3f16ac2aadc9887c42748e239" target="_top" xlink:title=" ">
<polygon fill="none" stroke="black" points="1286.5,-496.82 1286.5,-515.82 1426.5,-515.82 1426.5,-496.82 1286.5,-496.82"/>
<text text-anchor="middle" x="1356.5" y="-503.82" font-family="Helvetica,sans-Serif" font-size="10.00">wmtk::Mesh::switch_face</text>
</a>
</g>
</g>
<!-- Node26&#45;&gt;Node29 -->
<g id="edge31" class="edge">
<title>Node26&#45;&gt;Node29</title>
<path fill="none" stroke="midnightblue" d="M1213.07,-477.91C1238.78,-483.03 1270.61,-489.38 1297.66,-494.78"/>
<polygon fill="midnightblue" stroke="midnightblue" points="1297.28,-498.27 1307.77,-496.8 1298.65,-491.41 1297.28,-498.27"/>
</g>
<!-- Node26&#45;&gt;Node30 -->
<g id="edge33" class="edge">
<title>Node26&#45;&gt;Node30</title>
<path fill="none" stroke="midnightblue" d="M1206.34,-458.77C1230.6,-453.16 1261.83,-445.95 1289.44,-439.57"/>
<polygon fill="midnightblue" stroke="midnightblue" points="1290.47,-442.93 1299.43,-437.27 1288.9,-436.11 1290.47,-442.93"/>
</g>
<!-- Node28 -->
<g id="node28" class="node">
<title>Node28</title>
<g id="a_node28"><a xlink:href="classwmtk_1_1_mesh.html#a965a8a24158c4aa8580c57ba09f885f7" target="_top" xlink:title="switch the orientation of the Tuple of the given dimension">
<polygon fill="none" stroke="black" points="1464,-453.32 1464,-483.32 1578,-483.32 1578,-453.32 1464,-453.32"/>
<text text-anchor="start" x="1472" y="-471.32" font-family="Helvetica,sans-Serif" font-size="10.00">wmtk::Mesh::switch</text>
<text text-anchor="middle" x="1521" y="-460.32" font-family="Helvetica,sans-Serif" font-size="10.00">_tuple</text>
</a>
</g>
</g>
<!-- Node27&#45;&gt;Node28 -->
<g id="edge30" class="edge">
<title>Node27&#45;&gt;Node28</title>
<path fill="none" stroke="midnightblue" d="M1428.3,-468.32C1436.69,-468.32 1445.24,-468.32 1453.56,-468.32"/>
<polygon fill="midnightblue" stroke="midnightblue" points="1453.59,-471.82 1463.59,-468.32 1453.59,-464.82 1453.59,-471.82"/>
</g>
<!-- Node29&#45;&gt;Node28 -->
<g id="edge32" class="edge">
<title>Node29&#45;&gt;Node28</title>
<path fill="none" stroke="midnightblue" d="M1398.51,-496.73C1415.32,-492.8 1435.22,-488.14 1453.98,-483.75"/>
<polygon fill="midnightblue" stroke="midnightblue" points="1455.03,-487.1 1463.97,-481.42 1453.44,-480.29 1455.03,-487.1"/>
</g>
<!-- Node30&#45;&gt;Node28 -->
<g id="edge34" class="edge">
<title>Node30&#45;&gt;Node28</title>
<path fill="none" stroke="midnightblue" d="M1412.97,-439.34C1426.36,-442.96 1440.79,-446.87 1454.59,-450.61"/>
<polygon fill="midnightblue" stroke="midnightblue" points="1453.94,-454.06 1464.51,-453.29 1455.77,-447.3 1453.94,-454.06"/>
</g>
<!-- Node32 -->
<g id="node32" class="node">
<title>Node32</title>
<g id="a_node32"><a xlink:href="classwmtk_1_1_mesh.html#ac1e12857f52985bd548a968a4c819659" target="_top" xlink:title=" ">
<polygon fill="none" stroke="black" points="1296,-535.32 1296,-565.32 1417,-565.32 1417,-535.32 1296,-535.32"/>
<text text-anchor="start" x="1304" y="-553.32" font-family="Helvetica,sans-Serif" font-size="10.00">wmtk::Mesh::top_cell</text>
<text text-anchor="middle" x="1356.5" y="-542.32" font-family="Helvetica,sans-Serif" font-size="10.00">_dimension</text>
</a>
</g>
</g>
<!-- Node31&#45;&gt;Node32 -->
<g id="edge39" class="edge">
<title>Node31&#45;&gt;Node32</title>
<path fill="none" stroke="midnightblue" d="M1249.11,-548.64C1261.29,-548.83 1273.72,-549.03 1285.58,-549.22"/>
<polygon fill="midnightblue" stroke="midnightblue" points="1285.78,-552.72 1295.84,-549.38 1285.89,-545.72 1285.78,-552.72"/>
</g>
<!-- Node33&#45;&gt;Node20 -->
<g id="edge41" class="edge">
<title>Node33&#45;&gt;Node20</title>
<path fill="none" stroke="midnightblue" d="M1231.24,-497.91C1237.68,-495.22 1243.75,-491.76 1249,-487.32 1281.25,-460.01 1266.04,-437.08 1285,-399.32 1301.82,-365.83 1324.73,-329.1 1339.81,-305.89"/>
<polygon fill="midnightblue" stroke="midnightblue" points="1342.82,-307.69 1345.37,-297.41 1336.97,-303.86 1342.82,-307.69"/>
</g>
<!-- Node33&#45;&gt;Node21 -->
<g id="edge45" class="edge">
<title>Node33&#45;&gt;Node21</title>
<path fill="none" stroke="midnightblue" d="M1231.13,-499.64C1237.83,-496.67 1244,-492.67 1249,-487.32 1319.66,-411.74 1255.19,-356.39 1285,-257.32 1299.45,-209.3 1325.94,-156.91 1342.01,-127.29"/>
<polygon fill="midnightblue" stroke="midnightblue" points="1345.09,-128.95 1346.83,-118.5 1338.95,-125.59 1345.09,-128.95"/>
</g>
<!-- Node33&#45;&gt;Node27 -->
<g id="edge42" class="edge">
<title>Node33&#45;&gt;Node27</title>
<path fill="none" stroke="midnightblue" d="M1213.07,-496.73C1238.78,-491.6 1270.61,-485.25 1297.66,-479.85"/>
<polygon fill="midnightblue" stroke="midnightblue" points="1298.65,-483.23 1307.77,-477.84 1297.28,-476.36 1298.65,-483.23"/>
</g>
<!-- Node33&#45;&gt;Node29 -->
<g id="edge43" class="edge">
<title>Node33&#45;&gt;Node29</title>
<path fill="none" stroke="midnightblue" d="M1231.09,-506.32C1245.59,-506.32 1261.08,-506.32 1276.03,-506.32"/>
<polygon fill="midnightblue" stroke="midnightblue" points="1276.29,-509.82 1286.29,-506.32 1276.29,-502.82 1276.29,-509.82"/>
</g>
<!-- Node33&#45;&gt;Node30 -->
<g id="edge44" class="edge">
<title>Node33&#45;&gt;Node30</title>
<path fill="none" stroke="midnightblue" d="M1227.14,-496.68C1234.77,-494.23 1242.24,-491.16 1249,-487.32 1269.22,-475.81 1265.5,-462 1285,-449.32 1288.07,-447.32 1291.31,-445.47 1294.66,-443.74"/>
<polygon fill="midnightblue" stroke="midnightblue" points="1296.15,-446.9 1303.7,-439.47 1293.16,-440.57 1296.15,-446.9"/>
</g>
<!-- Node34&#45;&gt;Node35 -->
<g id="edge47" class="edge">
<title>Node34&#45;&gt;Node35</title>
<path fill="none" stroke="midnightblue" d="M768.13,-290.38C798.64,-293.96 835.87,-298.33 867.69,-302.06"/>
<polygon fill="midnightblue" stroke="midnightblue" points="867.48,-305.56 877.82,-303.25 868.3,-298.61 867.48,-305.56"/>
</g>
<!-- Node35&#45;&gt;Node12 -->
<g id="edge49" class="edge">
<title>Node35&#45;&gt;Node12</title>
<path fill="none" stroke="midnightblue" d="M1000.05,-320.55C1029.61,-325.59 1065.34,-331.67 1095.8,-336.87"/>
<polygon fill="midnightblue" stroke="midnightblue" points="1095.47,-340.36 1105.91,-338.59 1096.64,-333.46 1095.47,-340.36"/>
</g>
<!-- Node36 -->
<g id="node36" class="node">
<title>Node36</title>
<g id="a_node36"><a xlink:href="namespacewmtk.html#af31f53a490a16a8d7b0384fa35d8a990" target="_top" xlink:title="Get the primitive type corresponding to its unique integer id.">
<polygon fill="none" stroke="black" points="1106,-284.32 1106,-314.32 1222,-314.32 1222,-284.32 1106,-284.32"/>
<text text-anchor="start" x="1114" y="-302.32" font-family="Helvetica,sans-Serif" font-size="10.00">wmtk::get_primitive</text>
<text text-anchor="middle" x="1164" y="-291.32" font-family="Helvetica,sans-Serif" font-size="10.00">_type_from_id</text>
</a>
</g>
</g>
<!-- Node35&#45;&gt;Node36 -->
<g id="edge48" class="edge">
<title>Node35&#45;&gt;Node36</title>
<path fill="none" stroke="midnightblue" d="M1000.05,-307.35C1029.61,-305.9 1065.34,-304.13 1095.8,-302.63"/>
<polygon fill="midnightblue" stroke="midnightblue" points="1096.1,-306.12 1105.91,-302.13 1095.75,-299.13 1096.1,-306.12"/>
</g>
</g>
</svg>
