<?xml version="1.0" encoding="UTF-8" standalone="no"?>
<!DOCTYPE svg PUBLIC "-//W3C//DTD SVG 1.1//EN"
 "http://www.w3.org/Graphics/SVG/1.1/DTD/svg11.dtd">
<!-- Generated by graphviz version 2.43.0 (0)
 -->
<!-- Title: wmtk::TriMesh::initialize_free Pages: 1 -->
<svg width="1134pt" height="349pt"
 viewBox="0.00 0.00 1134.00 349.00" xmlns="http://www.w3.org/2000/svg" xmlns:xlink="http://www.w3.org/1999/xlink">
<g id="graph0" class="graph" transform="scale(1 1) rotate(0) translate(4 345)">
<title>wmtk::TriMesh::initialize_free</title>
<!-- Node1 -->
<g id="Node000001" class="node">
<title>Node1</title>
<g id="a_Node000001"><a xlink:title=" ">
<polygon fill="#999999" stroke="#666666" points="161,-179.5 0,-179.5 0,-160.5 161,-160.5 161,-179.5"/>
<text text-anchor="middle" x="80.5" y="-167.5" font-family="Helvetica,sans-Serif" font-size="10.00">wmtk::TriMesh::initialize_free</text>
</a>
</g>
</g>
<!-- Node2 -->
<g id="Node000002" class="node">
<title>Node2</title>
<g id="a_Node000002"><a xlink:href="classwmtk_1_1_tri_mesh.html#a813ae302287fb113bae39b8ec0ee3937" target="_top" xlink:title=" ">
<polygon fill="white" stroke="#666666" points="333,-179.5 197,-179.5 197,-160.5 333,-160.5 333,-179.5"/>
<text text-anchor="middle" x="265" y="-167.5" font-family="Helvetica,sans-Serif" font-size="10.00">wmtk::TriMesh::initialize</text>
</a>
</g>
</g>
<!-- Node1&#45;&gt;Node2 -->
<g id="edge1_Node000001_Node000002" class="edge">
<title>Node1&#45;&gt;Node2</title>
<g id="a_edge1_Node000001_Node000002"><a xlink:title=" ">
<path fill="none" stroke="#63b8ff" d="M161.02,-170C169.48,-170 178.09,-170 186.53,-170"/>
<polygon fill="#63b8ff" stroke="#63b8ff" points="186.73,-173.5 196.73,-170 186.73,-166.5 186.73,-173.5"/>
</a>
</g>
</g>
<!-- Node3 -->
<g id="Node000003" class="node">
<title>Node3</title>
<g id="a_Node000003"><a xlink:href="classwmtk_1_1attribute_1_1_index_flag_accessor.html#a95874b259daee031cd8bb3635ada83d5" target="_top" xlink:title=" ">
<polygon fill="white" stroke="#666666" points="523.5,-291 377.5,-291 377.5,-261 523.5,-261 523.5,-291"/>
<text text-anchor="start" x="385.5" y="-279" font-family="Helvetica,sans-Serif" font-size="10.00">wmtk::attribute::IndexFlag</text>
<text text-anchor="middle" x="450.5" y="-268" font-family="Helvetica,sans-Serif" font-size="10.00">Accessor::activate</text>
</a>
</g>
</g>
<!-- Node2&#45;&gt;Node3 -->
<g id="edge2_Node000002_Node000003" class="edge">
<title>Node2&#45;&gt;Node3</title>
<g id="a_edge2_Node000002_Node000003"><a xlink:title=" ">
<path fill="none" stroke="#63b8ff" d="M277.43,-179.65C295.8,-194.83 333.46,-224.55 369,-244 377.71,-248.76 387.28,-253.2 396.68,-257.16"/>
<polygon fill="#63b8ff" stroke="#63b8ff" points="395.42,-260.42 406,-260.95 398.06,-253.94 395.42,-260.42"/>
</a>
</g>
</g>
<!-- Node5 -->
<g id="Node000005" class="node">
<title>Node5</title>
<g id="a_Node000005"><a xlink:href="classwmtk_1_1attribute_1_1_accessor.html#a2d587e12c47a6d839ab80e9198cf75b5" target="_top" xlink:title=" ">
<polygon fill="white" stroke="#666666" points="712,-341 570,-341 570,-311 712,-311 712,-341"/>
<text text-anchor="start" x="578" y="-329" font-family="Helvetica,sans-Serif" font-size="10.00">wmtk::attribute::Accessor</text>
<text text-anchor="middle" x="641" y="-318" font-family="Helvetica,sans-Serif" font-size="10.00">::index_access</text>
</a>
</g>
</g>
<!-- Node2&#45;&gt;Node5 -->
<g id="edge13_Node000002_Node000005" class="edge">
<title>Node2&#45;&gt;Node5</title>
<g id="a_edge13_Node000002_Node000005"><a xlink:title=" ">
<path fill="none" stroke="#63b8ff" d="M270.29,-179.7C281.95,-204.75 316.89,-271.66 369,-300 427.24,-331.68 503.02,-336.45 559.63,-334.29"/>
<polygon fill="#63b8ff" stroke="#63b8ff" points="560.14,-337.77 569.97,-333.81 559.82,-330.77 560.14,-337.77"/>
</a>
</g>
</g>
<!-- Node7 -->
<g id="Node000007" class="node">
<title>Node7</title>
<g id="a_Node000007"><a xlink:href="classwmtk_1_1attribute_1_1_caching_accessor.html#a73f8d78b708406dcd6433398e3954e72" target="_top" xlink:title=" ">
<polygon fill="white" stroke="#666666" points="712.5,-245 569.5,-245 569.5,-215 712.5,-215 712.5,-245"/>
<text text-anchor="start" x="577.5" y="-233" font-family="Helvetica,sans-Serif" font-size="10.00">wmtk::attribute::Caching</text>
<text text-anchor="middle" x="641" y="-222" font-family="Helvetica,sans-Serif" font-size="10.00">Accessor::scalar_attribute</text>
</a>
</g>
</g>
<!-- Node2&#45;&gt;Node7 -->
<g id="edge15_Node000002_Node000007" class="edge">
<title>Node2&#45;&gt;Node7</title>
<g id="a_edge15_Node000002_Node000007"><a xlink:title=" ">
<path fill="none" stroke="#63b8ff" d="M307.46,-179.56C326.2,-183.7 348.65,-188.41 369,-192 432.62,-203.24 505.12,-213.26 559.11,-220.19"/>
<polygon fill="#63b8ff" stroke="#63b8ff" points="558.95,-223.69 569.31,-221.49 559.84,-216.75 558.95,-223.69"/>
</a>
</g>
</g>
<!-- Node8 -->
<g id="Node000008" class="node">
<title>Node8</title>
<g id="a_Node000008"><a xlink:href="classwmtk_1_1_mesh.html#a3e8ff83c4a5526a40d18bb9883c6c6c9" target="_top" xlink:title="read in the m_capacities return the upper bound for the number of entities of the given dimension">
<polygon fill="white" stroke="#666666" points="703,-196.5 579,-196.5 579,-177.5 703,-177.5 703,-196.5"/>
<text text-anchor="middle" x="641" y="-184.5" font-family="Helvetica,sans-Serif" font-size="10.00">wmtk::Mesh::capacity</text>
</a>
</g>
</g>
<!-- Node2&#45;&gt;Node8 -->
<g id="edge7_Node000002_Node000008" class="edge">
<title>Node2&#45;&gt;Node8</title>
<g id="a_edge7_Node000002_Node000008"><a xlink:title=" ">
<path fill="none" stroke="#63b8ff" d="M333.3,-173.06C399.71,-176.08 500.87,-180.68 568.65,-183.76"/>
<polygon fill="#63b8ff" stroke="#63b8ff" points="568.67,-187.26 578.82,-184.22 568.99,-180.27 568.67,-187.26"/>
</a>
</g>
</g>
<!-- Node10 -->
<g id="Node000010" class="node">
<title>Node10</title>
<g id="a_Node000010"><a xlink:href="classwmtk_1_1_mesh.html#ae3493915b766f0f34f0a9e89603d5773" target="_top" xlink:title=" ">
<polygon fill="white" stroke="#666666" points="511.5,-164 389.5,-164 389.5,-134 511.5,-134 511.5,-164"/>
<text text-anchor="start" x="397.5" y="-152" font-family="Helvetica,sans-Serif" font-size="10.00">wmtk::Mesh::get_flag</text>
<text text-anchor="middle" x="450.5" y="-141" font-family="Helvetica,sans-Serif" font-size="10.00">_accessor</text>
</a>
</g>
</g>
<!-- Node2&#45;&gt;Node10 -->
<g id="edge9_Node000002_Node000010" class="edge">
<title>Node2&#45;&gt;Node10</title>
<g id="a_edge9_Node000002_Node000010"><a xlink:title=" ">
<path fill="none" stroke="#63b8ff" d="M333.03,-162.33C348,-160.62 363.92,-158.79 379.03,-157.06"/>
<polygon fill="#63b8ff" stroke="#63b8ff" points="379.8,-160.5 389.34,-155.89 379,-153.54 379.8,-160.5"/>
</a>
</g>
</g>
<!-- Node13 -->
<g id="Node000013" class="node">
<title>Node13</title>
<g id="a_Node000013"><a xlink:href="classwmtk_1_1attribute_1_1_flag_accessor.html#a4f49a666c3811fee9b841c1cd1f66250" target="_top" xlink:title=" ">
<polygon fill="white" stroke="#666666" points="532,-116 369,-116 369,-86 532,-86 532,-116"/>
<text text-anchor="start" x="377" y="-104" font-family="Helvetica,sans-Serif" font-size="10.00">wmtk::attribute::FlagAccessor</text>
<text text-anchor="middle" x="450.5" y="-93" font-family="Helvetica,sans-Serif" font-size="10.00">::index_access</text>
</a>
</g>
</g>
<!-- Node2&#45;&gt;Node13 -->
<g id="edge14_Node000002_Node000013" class="edge">
<title>Node2&#45;&gt;Node13</title>
<g id="a_edge14_Node000002_Node000013"><a xlink:title=" ">
<path fill="none" stroke="#63b8ff" d="M285.84,-160.47C306.36,-150.81 339.5,-135.8 369,-125 374.44,-123.01 380.13,-121.06 385.86,-119.18"/>
<polygon fill="#63b8ff" stroke="#63b8ff" points="387.04,-122.48 395.51,-116.11 384.92,-115.81 387.04,-122.48"/>
</a>
</g>
</g>
<!-- Node14 -->
<g id="Node000014" class="node">
<title>Node14</title>
<g id="a_Node000014"><a xlink:href="classwmtk_1_1_mesh.html#a05eaf6f3eeb78949f3b95c359cc6df68" target="_top" xlink:title=" ">
<polygon fill="white" stroke="#666666" points="526.5,-67.5 374.5,-67.5 374.5,-48.5 526.5,-48.5 526.5,-67.5"/>
<text text-anchor="middle" x="450.5" y="-55.5" font-family="Helvetica,sans-Serif" font-size="10.00">wmtk::Mesh::set_capacities</text>
</a>
</g>
</g>
<!-- Node2&#45;&gt;Node14 -->
<g id="edge16_Node000002_Node000014" class="edge">
<title>Node2&#45;&gt;Node14</title>
<g id="a_edge16_Node000002_Node000014"><a xlink:title=" ">
<path fill="none" stroke="#63b8ff" d="M273.67,-160.39C289.41,-141.36 327.4,-98.82 369,-77 373.49,-74.64 378.28,-72.57 383.2,-70.76"/>
<polygon fill="#63b8ff" stroke="#63b8ff" points="384.38,-74.05 392.76,-67.57 382.17,-67.41 384.38,-74.05"/>
</a>
</g>
</g>
<!-- Node19 -->
<g id="Node000019" class="node">
<title>Node19</title>
<g id="a_Node000019"><a xlink:href="classwmtk_1_1attribute_1_1_caching_accessor.html#aba9f0415cf55bccd139eb4bd40ca00b9" target="_top" xlink:title=" ">
<polygon fill="white" stroke="#666666" points="522.5,-30 378.5,-30 378.5,0 522.5,0 522.5,-30"/>
<text text-anchor="start" x="386.5" y="-18" font-family="Helvetica,sans-Serif" font-size="10.00">wmtk::attribute::Caching</text>
<text text-anchor="middle" x="450.5" y="-7" font-family="Helvetica,sans-Serif" font-size="10.00">Accessor::vector_attribute</text>
</a>
</g>
</g>
<!-- Node2&#45;&gt;Node19 -->
<g id="edge21_Node000002_Node000019" class="edge">
<title>Node2&#45;&gt;Node19</title>
<g id="a_edge21_Node000002_Node000019"><a xlink:title=" ">
<path fill="none" stroke="#63b8ff" d="M270.8,-160.44C283.41,-136.29 319.95,-72.35 369,-39 371.37,-37.39 373.86,-35.88 376.42,-34.47"/>
<polygon fill="#63b8ff" stroke="#63b8ff" points="377.98,-37.61 385.41,-30.05 374.89,-31.32 377.98,-37.61"/>
</a>
</g>
</g>
<!-- Node4 -->
<g id="Node000004" class="node">
<title>Node4</title>
<g id="a_Node000004"><a xlink:href="classwmtk_1_1attribute_1_1_index_flag_accessor.html#af06d8fe6a9f16a0b9ac09e6eae9e797d" target="_top" xlink:title=" ">
<polygon fill="white" stroke="#666666" points="714,-293 568,-293 568,-263 714,-263 714,-293"/>
<text text-anchor="start" x="576" y="-281" font-family="Helvetica,sans-Serif" font-size="10.00">wmtk::attribute::IndexFlag</text>
<text text-anchor="middle" x="641" y="-270" font-family="Helvetica,sans-Serif" font-size="10.00">Accessor::_activate</text>
</a>
</g>
</g>
<!-- Node3&#45;&gt;Node4 -->
<g id="edge3_Node000003_Node000004" class="edge">
<title>Node3&#45;&gt;Node4</title>
<g id="a_edge3_Node000003_Node000004"><a xlink:title=" ">
<path fill="none" stroke="#63b8ff" d="M523.57,-276.76C534.71,-276.88 546.29,-277.01 557.64,-277.13"/>
<polygon fill="#63b8ff" stroke="#63b8ff" points="557.93,-280.63 567.97,-277.24 558.01,-273.63 557.93,-280.63"/>
</a>
</g>
</g>
<!-- Node3&#45;&gt;Node5 -->
<g id="edge4_Node000003_Node000005" class="edge">
<title>Node3&#45;&gt;Node5</title>
<g id="a_edge4_Node000003_Node000005"><a xlink:title=" ">
<path fill="none" stroke="#63b8ff" d="M508.06,-291C528.56,-296.44 551.91,-302.63 573.21,-308.28"/>
<polygon fill="#63b8ff" stroke="#63b8ff" points="572.6,-311.74 583.16,-310.92 574.39,-304.98 572.6,-311.74"/>
</a>
</g>
</g>
<!-- Node3&#45;&gt;Node7 -->
<g id="edge6_Node000003_Node000007" class="edge">
<title>Node3&#45;&gt;Node7</title>
<g id="a_edge6_Node000003_Node000007"><a xlink:title=" ">
<path fill="none" stroke="#63b8ff" d="M513.22,-260.94C530.97,-256.61 550.47,-251.85 568.75,-247.39"/>
<polygon fill="#63b8ff" stroke="#63b8ff" points="569.58,-250.79 578.46,-245.02 567.92,-243.99 569.58,-250.79"/>
</a>
</g>
</g>
<!-- Node6 -->
<g id="Node000006" class="node">
<title>Node6</title>
<g id="a_Node000006"><a xlink:href="classwmtk_1_1attribute_1_1_accessor.html#afd97a48ec5d1db975a030428df81f617" target="_top" xlink:title=" ">
<polygon fill="white" stroke="#666666" points="913.5,-341 771.5,-341 771.5,-311 913.5,-311 913.5,-341"/>
<text text-anchor="start" x="779.5" y="-329" font-family="Helvetica,sans-Serif" font-size="10.00">wmtk::attribute::Accessor</text>
<text text-anchor="middle" x="842.5" y="-318" font-family="Helvetica,sans-Serif" font-size="10.00">::caching_base_type</text>
</a>
</g>
</g>
<!-- Node5&#45;&gt;Node6 -->
<g id="edge5_Node000005_Node000006" class="edge">
<title>Node5&#45;&gt;Node6</title>
<g id="a_edge5_Node000005_Node000006"><a xlink:title=" ">
<path fill="none" stroke="#63b8ff" d="M712.06,-326C727.95,-326 744.96,-326 761.25,-326"/>
<polygon fill="#63b8ff" stroke="#63b8ff" points="761.28,-329.5 771.28,-326 761.28,-322.5 761.28,-329.5"/>
</a>
</g>
</g>
<!-- Node9 -->
<g id="Node000009" class="node">
<title>Node9</title>
<g id="a_Node000009"><a xlink:href="namespacewmtk.html#a5cf45c152e856196bb734c6f48919a24" target="_top" xlink:title="Get a unique integer id corresponding to each primitive type.">
<polygon fill="white" stroke="#666666" points="900.5,-202 784.5,-202 784.5,-172 900.5,-172 900.5,-202"/>
<text text-anchor="start" x="792.5" y="-190" font-family="Helvetica,sans-Serif" font-size="10.00">wmtk::get_primitive</text>
<text text-anchor="middle" x="842.5" y="-179" font-family="Helvetica,sans-Serif" font-size="10.00">_type_id</text>
</a>
</g>
</g>
<!-- Node8&#45;&gt;Node9 -->
<g id="edge8_Node000008_Node000009" class="edge">
<title>Node8&#45;&gt;Node9</title>
<g id="a_edge8_Node000008_Node000009"><a xlink:title=" ">
<path fill="none" stroke="#63b8ff" d="M703.21,-187C725.76,-187 751.41,-187 774.45,-187"/>
<polygon fill="#63b8ff" stroke="#63b8ff" points="774.49,-190.5 784.49,-187 774.49,-183.5 774.49,-190.5"/>
</a>
</g>
</g>
<!-- Node11 -->
<g id="Node000011" class="node">
<title>Node11</title>
<g id="a_Node000011"><a xlink:href="classwmtk_1_1_mesh.html#acfa981b31f00aef4438ff5e73bbce2f4" target="_top" xlink:title=" ">
<polygon fill="white" stroke="#666666" points="706,-159 576,-159 576,-129 706,-129 706,-159"/>
<text text-anchor="start" x="584" y="-147" font-family="Helvetica,sans-Serif" font-size="10.00">wmtk::Mesh::get_const</text>
<text text-anchor="middle" x="641" y="-136" font-family="Helvetica,sans-Serif" font-size="10.00">_flag_accessor</text>
</a>
</g>
</g>
<!-- Node10&#45;&gt;Node11 -->
<g id="edge10_Node000010_Node000011" class="edge">
<title>Node10&#45;&gt;Node11</title>
<g id="a_edge10_Node000010_Node000011"><a xlink:title=" ">
<path fill="none" stroke="#63b8ff" d="M511.66,-147.4C528.85,-146.95 547.8,-146.45 565.73,-145.97"/>
<polygon fill="#63b8ff" stroke="#63b8ff" points="565.95,-149.47 575.86,-145.7 565.77,-142.47 565.95,-149.47"/>
</a>
</g>
</g>
<!-- Node11&#45;&gt;Node9 -->
<g id="edge12_Node000011_Node000009" class="edge">
<title>Node11&#45;&gt;Node9</title>
<g id="a_edge12_Node000011_Node000009"><a xlink:title=" ">
<path fill="none" stroke="#63b8ff" d="M706.22,-157.84C728.05,-162.55 752.49,-167.82 774.53,-172.57"/>
<polygon fill="#63b8ff" stroke="#63b8ff" points="773.96,-176.02 784.47,-174.71 775.43,-169.18 773.96,-176.02"/>
</a>
</g>
</g>
<!-- Node12 -->
<g id="Node000012" class="node">
<title>Node12</title>
<g id="a_Node000012"><a xlink:href="classwmtk_1_1_mesh.html#a357182137d99f1e4a7ff536eadfc0e56" target="_top" xlink:title=" ">
<polygon fill="white" stroke="#666666" points="899,-154 786,-154 786,-124 899,-124 899,-154"/>
<text text-anchor="start" x="794" y="-142" font-family="Helvetica,sans-Serif" font-size="10.00">wmtk::Mesh::create</text>
<text text-anchor="middle" x="842.5" y="-131" font-family="Helvetica,sans-Serif" font-size="10.00">_const_accessor</text>
</a>
</g>
</g>
<!-- Node11&#45;&gt;Node12 -->
<g id="edge11_Node000011_Node000012" class="edge">
<title>Node11&#45;&gt;Node12</title>
<g id="a_edge11_Node000011_Node000012"><a xlink:title=" ">
<path fill="none" stroke="#63b8ff" d="M706.22,-142.39C728.45,-141.83 753.38,-141.21 775.73,-140.65"/>
<polygon fill="#63b8ff" stroke="#63b8ff" points="775.88,-144.15 785.79,-140.4 775.71,-137.15 775.88,-144.15"/>
</a>
</g>
</g>
<!-- Node15 -->
<g id="Node000015" class="node">
<title>Node15</title>
<g id="a_Node000015"><a xlink:href="classwmtk_1_1attribute_1_1_attribute_manager.html#a2dde70c10887ef5a2d5f00844e245b71" target="_top" xlink:title=" ">
<polygon fill="white" stroke="#666666" points="711.5,-73 570.5,-73 570.5,-43 711.5,-43 711.5,-73"/>
<text text-anchor="start" x="578.5" y="-61" font-family="Helvetica,sans-Serif" font-size="10.00">wmtk::attribute::Attribute</text>
<text text-anchor="middle" x="641" y="-50" font-family="Helvetica,sans-Serif" font-size="10.00">Manager::set_capacities</text>
</a>
</g>
</g>
<!-- Node14&#45;&gt;Node15 -->
<g id="edge17_Node000014_Node000015" class="edge">
<title>Node14&#45;&gt;Node15</title>
<g id="a_edge17_Node000014_Node000015"><a xlink:title=" ">
<path fill="none" stroke="#63b8ff" d="M526.54,-58C537.63,-58 549.08,-58 560.25,-58"/>
<polygon fill="#63b8ff" stroke="#63b8ff" points="560.42,-61.5 570.42,-58 560.42,-54.5 560.42,-61.5"/>
</a>
</g>
</g>
<!-- Node16 -->
<g id="Node000016" class="node">
<title>Node16</title>
<g id="a_Node000016"><a xlink:href="classwmtk_1_1attribute_1_1_attribute_manager.html#a4fa415bb426f10d888dd765bf11f3163" target="_top" xlink:title=" ">
<polygon fill="white" stroke="#666666" points="935,-73 750,-73 750,-43 935,-43 935,-73"/>
<text text-anchor="start" x="758" y="-61" font-family="Helvetica,sans-Serif" font-size="10.00">wmtk::attribute::Attribute</text>
<text text-anchor="middle" x="842.5" y="-50" font-family="Helvetica,sans-Serif" font-size="10.00">Manager::reserve_attributes_to_fit</text>
</a>
</g>
</g>
<!-- Node15&#45;&gt;Node16 -->
<g id="edge18_Node000015_Node000016" class="edge">
<title>Node15&#45;&gt;Node16</title>
<g id="a_edge18_Node000015_Node000016"><a xlink:title=" ">
<path fill="none" stroke="#63b8ff" d="M711.78,-58C720.77,-58 730.12,-58 739.5,-58"/>
<polygon fill="#63b8ff" stroke="#63b8ff" points="739.67,-61.5 749.67,-58 739.67,-54.5 739.67,-61.5"/>
</a>
</g>
</g>
<!-- Node17 -->
<g id="Node000017" class="node">
<title>Node17</title>
<g id="a_Node000017"><a xlink:href="classwmtk_1_1attribute_1_1_attribute_manager.html#ade4ad24f8fde18f38a4709bf24ccf549" target="_top" xlink:title=" ">
<polygon fill="white" stroke="#666666" points="1126,-97 971,-97 971,-67 1126,-67 1126,-97"/>
<text text-anchor="start" x="979" y="-85" font-family="Helvetica,sans-Serif" font-size="10.00">wmtk::attribute::Attribute</text>
<text text-anchor="middle" x="1048.5" y="-74" font-family="Helvetica,sans-Serif" font-size="10.00">Manager::reserve_attributes</text>
</a>
</g>
</g>
<!-- Node16&#45;&gt;Node17 -->
<g id="edge19_Node000016_Node000017" class="edge">
<title>Node16&#45;&gt;Node17</title>
<g id="a_edge19_Node000016_Node000017"><a xlink:title=" ">
<path fill="none" stroke="#63b8ff" d="M935.06,-68.77C943.66,-69.78 952.36,-70.81 960.92,-71.81"/>
<polygon fill="#63b8ff" stroke="#63b8ff" points="960.54,-75.29 970.88,-72.99 961.36,-68.34 960.54,-75.29"/>
</a>
</g>
</g>
<!-- Node18 -->
<g id="Node000018" class="node">
<title>Node18</title>
<g id="a_Node000018"><a xlink:href="classwmtk_1_1attribute_1_1_attribute_manager.html#a87216c73c02b436c7f965faa52553f56" target="_top" xlink:title=" ">
<polygon fill="white" stroke="#666666" points="1119,-49 978,-49 978,-19 1119,-19 1119,-49"/>
<text text-anchor="start" x="986" y="-37" font-family="Helvetica,sans-Serif" font-size="10.00">wmtk::attribute::Attribute</text>
<text text-anchor="middle" x="1048.5" y="-26" font-family="Helvetica,sans-Serif" font-size="10.00">Manager::size</text>
</a>
</g>
</g>
<!-- Node16&#45;&gt;Node18 -->
<g id="edge20_Node000016_Node000018" class="edge">
<title>Node16&#45;&gt;Node18</title>
<g id="a_edge20_Node000016_Node000018"><a xlink:title=" ">
<path fill="none" stroke="#63b8ff" d="M935.06,-47.23C945.97,-45.94 957.05,-44.64 967.78,-43.38"/>
<polygon fill="#63b8ff" stroke="#63b8ff" points="968.43,-46.83 977.95,-42.18 967.61,-39.87 968.43,-46.83"/>
</a>
</g>
</g>
</g>
</svg>
