<?xml version="1.0" encoding="UTF-8" standalone="no"?>
<!DOCTYPE svg PUBLIC "-//W3C//DTD SVG 1.1//EN"
 "http://www.w3.org/Graphics/SVG/1.1/DTD/svg11.dtd">
<!-- Generated by graphviz version 2.43.0 (0)
 -->
<!-- Title: wmtk::MeshCRTP&lt; Derived &gt; Pages: 1 -->
<svg width="1306pt" height="213pt"
 viewBox="0.00 0.00 1306.00 212.66" xmlns="http://www.w3.org/2000/svg" xmlns:xlink="http://www.w3.org/1999/xlink">
<g id="graph0" class="graph" transform="scale(1 1) rotate(0) translate(4 208.66)">
<title>wmtk::MeshCRTP&lt; Derived &gt;</title>
<!-- Node1 -->
<g id="Node000001" class="node">
<title>Node1</title>
<g id="a_Node000001"><a xlink:title="A Curiously Recurring Template Pattern shim to enable generic specialization of functions.">
<polygon fill="#999999" stroke="#666666" points="1298,-36.16 1136,-36.16 1136,-17.16 1298,-17.16 1298,-36.16"/>
<text text-anchor="middle" x="1217" y="-24.16" font-family="Helvetica,sans-Serif" font-size="10.00">wmtk::MeshCRTP&lt; Derived &gt;</text>
</a>
</g>
</g>
<!-- Node2 -->
<g id="Node000002" class="node">
<title>Node2</title>
<g id="a_Node000002"><a xlink:href="classwmtk_1_1_mesh.html" target="_top" xlink:title=" ">
<polygon fill="white" stroke="#666666" points="956,-69.16 879,-69.16 879,-50.16 956,-50.16 956,-69.16"/>
<text text-anchor="middle" x="917.5" y="-57.16" font-family="Helvetica,sans-Serif" font-size="10.00">wmtk::Mesh</text>
</a>
</g>
</g>
<!-- Node2&#45;&gt;Node1 -->
<g id="edge1_Node000001_Node000002" class="edge">
<title>Node2&#45;&gt;Node1</title>
<g id="a_edge1_Node000001_Node000002"><a xlink:title=" ">
<path fill="none" stroke="#63b8ff" d="M960.34,-47.53C970.92,-44.87 982.31,-42.34 993,-40.66 1040.04,-33.25 1093.24,-29.73 1135.87,-28.07"/>
<polygon fill="#63b8ff" stroke="#63b8ff" points="959.29,-44.19 950.5,-50.1 961.06,-50.96 959.29,-44.19"/>
</a>
</g>
</g>
<!-- Node7 -->
<g id="Node000007" class="node">
<title>Node7</title>
<g id="a_Node000007"><a xlink:href="classwmtk_1_1multimesh_1_1_multi_mesh_manager.html" target="_top" xlink:title="Implementation details for how the Mesh class implements multiple meshes.">
<polygon fill="white" stroke="#666666" points="1297,-121.66 1137,-121.66 1137,-91.66 1297,-91.66 1297,-121.66"/>
<text text-anchor="start" x="1145" y="-109.66" font-family="Helvetica,sans-Serif" font-size="10.00">wmtk::multimesh::MultiMesh</text>
<text text-anchor="middle" x="1217" y="-98.66" font-family="Helvetica,sans-Serif" font-size="10.00">Manager</text>
</a>
</g>
</g>
<!-- Node2&#45;&gt;Node7 -->
<g id="edge9_Node000007_Node000002" class="edge">
<title>Node2&#45;&gt;Node7</title>
<g id="a_edge9_Node000007_Node000002"><a xlink:title=" ">
<path fill="none" stroke="#9a32cd" stroke-dasharray="5,2" d="M966.16,-53.31C1007.01,-49.31 1067.14,-46.88 1118,-58.66 1145.31,-64.99 1173.8,-80.05 1192.98,-91.62"/>
<polygon fill="#9a32cd" stroke="#9a32cd" points="965.79,-49.83 956.21,-54.36 966.52,-56.8 965.79,-49.83"/>
</a>
</g>
<text text-anchor="middle" x="1055.5" y="-61.66" font-family="Helvetica,sans-Serif" font-size="10.00" fill="grey"> m_parent</text>
</g>
<!-- Node3 -->
<g id="Node000003" class="node">
<title>Node3</title>
<g id="a_Node000003"><a xlink:title=" ">
<polygon fill="white" stroke="#666666" points="688.5,-91.66 571.5,-91.66 571.5,-61.66 688.5,-61.66 688.5,-91.66"/>
<text text-anchor="start" x="579.5" y="-79.66" font-family="Helvetica,sans-Serif" font-size="10.00">std::enable_shared</text>
<text text-anchor="middle" x="630" y="-68.66" font-family="Helvetica,sans-Serif" font-size="10.00">_from_this&lt; Mesh &gt;</text>
</a>
</g>
</g>
<!-- Node3&#45;&gt;Node2 -->
<g id="edge2_Node000002_Node000003" class="edge">
<title>Node3&#45;&gt;Node2</title>
<g id="a_edge2_Node000002_Node000003"><a xlink:title=" ">
<path fill="none" stroke="#63b8ff" d="M699.02,-72.61C755.29,-69.26 833.15,-64.62 878.83,-61.9"/>
<polygon fill="#63b8ff" stroke="#63b8ff" points="698.55,-69.13 688.78,-73.22 698.97,-76.12 698.55,-69.13"/>
</a>
</g>
</g>
<!-- Node4 -->
<g id="Node000004" class="node">
<title>Node4</title>
<g id="a_Node000004"><a xlink:href="classwmtk_1_1utils_1_1_merkle_tree_interior_node.html" target="_top" xlink:title=" ">
<polygon fill="white" stroke="#666666" points="449,-38.16 257,-38.16 257,-19.16 449,-19.16 449,-38.16"/>
<text text-anchor="middle" x="353" y="-26.16" font-family="Helvetica,sans-Serif" font-size="10.00">wmtk::utils::MerkleTreeInteriorNode</text>
</a>
</g>
</g>
<!-- Node4&#45;&gt;Node2 -->
<g id="edge3_Node000002_Node000004" class="edge">
<title>Node4&#45;&gt;Node2</title>
<g id="a_edge3_Node000002_Node000004"><a xlink:title=" ">
<path fill="none" stroke="#63b8ff" d="M417.96,-17.53C490.24,-6.55 611.34,7.02 715,-4.66 780.22,-12.01 853.94,-36.46 891.54,-50.16"/>
<polygon fill="#63b8ff" stroke="#63b8ff" points="417,-14.14 407.66,-19.13 418.07,-21.06 417,-14.14"/>
</a>
</g>
</g>
<!-- Node6 -->
<g id="Node000006" class="node">
<title>Node6</title>
<g id="a_Node000006"><a xlink:href="classwmtk_1_1attribute_1_1_attribute_manager.html" target="_top" xlink:title=" ">
<polygon fill="white" stroke="#666666" points="700.5,-43.66 559.5,-43.66 559.5,-13.66 700.5,-13.66 700.5,-43.66"/>
<text text-anchor="start" x="567.5" y="-31.66" font-family="Helvetica,sans-Serif" font-size="10.00">wmtk::attribute::Attribute</text>
<text text-anchor="middle" x="630" y="-20.66" font-family="Helvetica,sans-Serif" font-size="10.00">Manager</text>
</a>
</g>
</g>
<!-- Node4&#45;&gt;Node6 -->
<g id="edge6_Node000006_Node000004" class="edge">
<title>Node4&#45;&gt;Node6</title>
<g id="a_edge6_Node000006_Node000004"><a xlink:title=" ">
<path fill="none" stroke="#63b8ff" d="M459.3,-28.66C492.73,-28.66 528.85,-28.66 559.14,-28.66"/>
<polygon fill="#63b8ff" stroke="#63b8ff" points="459.02,-25.16 449.02,-28.66 459.02,-32.16 459.02,-25.16"/>
</a>
</g>
</g>
<!-- Node4&#45;&gt;Node7 -->
<g id="edge8_Node000007_Node000004" class="edge">
<title>Node4&#45;&gt;Node7</title>
<g id="a_edge8_Node000007_Node000004"><a xlink:title=" ">
<path fill="none" stroke="#63b8ff" d="M381.61,-42.6C417.98,-60.12 484.42,-89.27 545,-100.66 755.81,-140.29 1010.48,-126.02 1136.87,-114.88"/>
<polygon fill="#63b8ff" stroke="#63b8ff" points="383.13,-39.44 372.61,-38.2 380.06,-45.73 383.13,-39.44"/>
</a>
</g>
</g>
<!-- Node5 -->
<g id="Node000005" class="node">
<title>Node5</title>
<g id="a_Node000005"><a xlink:href="classwmtk_1_1utils_1_1_hashable.html" target="_top" xlink:title=" ">
<polygon fill="white" stroke="#666666" points="132,-38.16 9,-38.16 9,-19.16 132,-19.16 132,-38.16"/>
<text text-anchor="middle" x="70.5" y="-26.16" font-family="Helvetica,sans-Serif" font-size="10.00">wmtk::utils::Hashable</text>
</a>
</g>
</g>
<!-- Node5&#45;&gt;Node4 -->
<g id="edge4_Node000004_Node000005" class="edge">
<title>Node5&#45;&gt;Node4</title>
<g id="a_edge4_Node000004_Node000005"><a xlink:title=" ">
<path fill="none" stroke="#63b8ff" d="M142.08,-28.66C176.84,-28.66 219.25,-28.66 256.84,-28.66"/>
<polygon fill="#63b8ff" stroke="#63b8ff" points="142.02,-25.16 132.02,-28.66 142.02,-32.16 142.02,-25.16"/>
</a>
</g>
</g>
<!-- Node6&#45;&gt;Node2 -->
<g id="edge5_Node000002_Node000006" class="edge">
<title>Node6&#45;&gt;Node2</title>
<g id="a_edge5_Node000002_Node000006"><a xlink:title=" ">
<path fill="none" stroke="#9a32cd" stroke-dasharray="5,2" d="M711.05,-35.26C750.53,-38.77 798.82,-43.43 842,-48.66 853.94,-50.11 866.92,-51.94 878.65,-53.68"/>
<polygon fill="#9a32cd" stroke="#9a32cd" points="711.22,-31.76 700.95,-34.37 710.61,-38.73 711.22,-31.76"/>
</a>
</g>
<text text-anchor="middle" x="787.5" y="-51.66" font-family="Helvetica,sans-Serif" font-size="10.00" fill="grey"> m_attribute_manager</text>
</g>
<!-- Node7&#45;&gt;Node2 -->
<g id="edge7_Node000002_Node000007" class="edge">
<title>Node7&#45;&gt;Node2</title>
<g id="a_edge7_Node000002_Node000007"><a xlink:title=" ">
<path fill="none" stroke="#9a32cd" stroke-dasharray="5,2" d="M1126.86,-92.75C1086.05,-86.37 1037.07,-78.67 993,-71.66 980.97,-69.75 967.85,-67.64 956.01,-65.73"/>
<polygon fill="#9a32cd" stroke="#9a32cd" points="1126.36,-96.22 1136.78,-94.31 1127.44,-89.3 1126.36,-96.22"/>
</a>
</g>
<text text-anchor="middle" x="1055.5" y="-93.66" font-family="Helvetica,sans-Serif" font-size="10.00" fill="grey"> m_multi_mesh_manager</text>
</g>
<!-- Node8 -->
<g id="Node000008" class="node">
<title>Node8</title>
<g id="a_Node000008"><a xlink:href="classwmtk_1_1attribute_1_1_typed_attribute_handle.html" target="_top" xlink:title=" ">
<polygon fill="white" stroke="#666666" points="715,-187.66 545,-187.66 545,-157.66 715,-157.66 715,-187.66"/>
<text text-anchor="start" x="553" y="-175.66" font-family="Helvetica,sans-Serif" font-size="10.00">wmtk::attribute::TypedAttribute</text>
<text text-anchor="middle" x="630" y="-164.66" font-family="Helvetica,sans-Serif" font-size="10.00">Handle&lt; int64_t &gt;</text>
</a>
</g>
</g>
<!-- Node8&#45;&gt;Node2 -->
<g id="edge14_Node000002_Node000008" class="edge">
<title>Node8&#45;&gt;Node2</title>
<g id="a_edge14_Node000002_Node000008"><a xlink:title=" ">
<path fill="none" stroke="#9a32cd" stroke-dasharray="5,2" d="M678.4,-153.9C739.93,-129.55 845.02,-87.95 892.25,-69.26"/>
<polygon fill="#9a32cd" stroke="#9a32cd" points="676.92,-150.72 668.91,-157.66 679.5,-157.23 676.92,-150.72"/>
</a>
</g>
<text text-anchor="middle" x="787.5" y="-131.66" font-family="Helvetica,sans-Serif" font-size="10.00" fill="grey"> m_cell_hash_handle</text>
</g>
<!-- Node8&#45;&gt;Node7 -->
<g id="edge10_Node000007_Node000008" class="edge">
<title>Node8&#45;&gt;Node7</title>
<g id="a_edge10_Node000007_Node000008"><a xlink:title=" ">
<path fill="none" stroke="#9a32cd" stroke-dasharray="5,2" d="M725.44,-170.38C824.04,-166.76 982.86,-157.47 1118,-133.66 1134.68,-130.72 1152.64,-126.19 1168.56,-121.67"/>
<polygon fill="#9a32cd" stroke="#9a32cd" points="725.07,-166.89 715.2,-170.74 725.32,-173.88 725.07,-166.89"/>
</a>
</g>
<text text-anchor="middle" x="917.5" y="-165.66" font-family="Helvetica,sans-Serif" font-size="10.00" fill="grey"> map_to_parent_handle</text>
</g>
<!-- Node9 -->
<g id="Node000009" class="node">
<title>Node9</title>
<g id="a_Node000009"><a xlink:href="classwmtk_1_1attribute_1_1_attribute_handle.html" target="_top" xlink:title="Internal handle representation used by MeshAttributes.">
<polygon fill="white" stroke="#666666" points="141,-204.66 0,-204.66 0,-174.66 141,-174.66 141,-204.66"/>
<text text-anchor="start" x="8" y="-192.66" font-family="Helvetica,sans-Serif" font-size="10.00">wmtk::attribute::Attribute</text>
<text text-anchor="middle" x="70.5" y="-181.66" font-family="Helvetica,sans-Serif" font-size="10.00">Handle</text>
</a>
</g>
</g>
<!-- Node9&#45;&gt;Node8 -->
<g id="edge11_Node000008_Node000009" class="edge">
<title>Node9&#45;&gt;Node8</title>
<g id="a_edge11_Node000008_Node000009"><a xlink:title=" ">
<path fill="none" stroke="#9a32cd" stroke-dasharray="5,2" d="M151.24,-190.23C179.02,-190.27 210.39,-190.16 239,-189.66 367.06,-187.44 399.09,-186.27 527,-179.66 532.85,-179.36 538.89,-179.02 544.96,-178.65"/>
<polygon fill="#9a32cd" stroke="#9a32cd" points="151.19,-186.73 141.18,-190.2 151.17,-193.73 151.19,-186.73"/>
</a>
</g>
<text text-anchor="middle" x="353" y="-191.66" font-family="Helvetica,sans-Serif" font-size="10.00" fill="grey"> m_base_handle</text>
</g>
<!-- Node10 -->
<g id="Node000010" class="node">
<title>Node10</title>
<g id="a_Node000010"><a xlink:href="classwmtk_1_1attribute_1_1_typed_attribute_handle.html" target="_top" xlink:title="Handle that represents attributes for some mesh.">
<polygon fill="white" stroke="#666666" points="438,-167.66 268,-167.66 268,-137.66 438,-137.66 438,-167.66"/>
<text text-anchor="start" x="276" y="-155.66" font-family="Helvetica,sans-Serif" font-size="10.00">wmtk::attribute::TypedAttribute</text>
<text text-anchor="middle" x="353" y="-144.66" font-family="Helvetica,sans-Serif" font-size="10.00">Handle&lt; T &gt;</text>
</a>
</g>
</g>
<!-- Node9&#45;&gt;Node10 -->
<g id="edge13_Node000010_Node000009" class="edge">
<title>Node9&#45;&gt;Node10</title>
<g id="a_edge13_Node000010_Node000009"><a xlink:title=" ">
<path fill="none" stroke="#9a32cd" stroke-dasharray="5,2" d="M151.29,-179.14C187.75,-174.33 230.95,-168.63 267.91,-163.75"/>
<polygon fill="#9a32cd" stroke="#9a32cd" points="150.65,-175.69 141.2,-180.47 151.57,-182.63 150.65,-175.69"/>
</a>
</g>
<text text-anchor="middle" x="199" y="-180.66" font-family="Helvetica,sans-Serif" font-size="10.00" fill="grey"> m_base_handle</text>
</g>
<!-- Node10&#45;&gt;Node8 -->
<g id="edge12_Node000008_Node000010" class="edge">
<title>Node10&#45;&gt;Node8</title>
<g id="a_edge12_Node000008_Node000010"><a xlink:title=" ">
<path fill="none" stroke="orange" stroke-dasharray="5,2" d="M448.04,-159.5C479.36,-161.78 514.02,-164.3 544.56,-166.52"/>
<polygon fill="orange" stroke="orange" points="448.23,-156.01 438,-158.77 447.72,-162.99 448.23,-156.01"/>
</a>
</g>
<text text-anchor="middle" x="497" y="-167.66" font-family="Helvetica,sans-Serif" font-size="10.00" fill="grey"> &lt; int64_t &gt;</text>
</g>
</g>
</svg>
