<?xml version="1.0" encoding="UTF-8" standalone="no"?>
<!DOCTYPE svg PUBLIC "-//W3C//DTD SVG 1.1//EN"
 "http://www.w3.org/Graphics/SVG/1.1/DTD/svg11.dtd">
<!-- Generated by graphviz version 2.43.0 (0)
 -->
<!-- Title: wmtk::Mesh::get_multi_mesh_mesh Pages: 1 -->
<svg width="677pt" height="173pt"
 viewBox="0.00 0.00 677.00 173.00" xmlns="http://www.w3.org/2000/svg" xmlns:xlink="http://www.w3.org/1999/xlink">
<g id="graph0" class="graph" transform="scale(1 1) rotate(0) translate(4 169)">
<title>wmtk::Mesh::get_multi_mesh_mesh</title>
<!-- Node1 -->
<g id="node1" class="node">
<title>Node1</title>
<g id="a_node1"><a xlink:title=" ">
<polygon fill="#bfbfbf" stroke="black" points="0,-49.5 0,-79.5 129,-79.5 129,-49.5 0,-49.5"/>
<text text-anchor="start" x="8" y="-67.5" font-family="Helvetica,sans-Serif" font-size="10.00">wmtk::Mesh::get_multi</text>
<text text-anchor="middle" x="64.5" y="-56.5" font-family="Helvetica,sans-Serif" font-size="10.00">_mesh_mesh</text>
</a>
</g>
</g>
<!-- Node2 -->
<g id="node2" class="node">
<title>Node2</title>
<g id="a_node2"><a xlink:href="classwmtk_1_1_multi_mesh_manager.html#a3e96f246c1c72c4dd83d0c90e2cd6506" target="_top" xlink:title=" ">
<polygon fill="none" stroke="black" points="165,-49.5 165,-79.5 309,-79.5 309,-49.5 165,-49.5"/>
<text text-anchor="start" x="173" y="-67.5" font-family="Helvetica,sans-Serif" font-size="10.00">wmtk::MultiMeshManager</text>
<text text-anchor="middle" x="237" y="-56.5" font-family="Helvetica,sans-Serif" font-size="10.00">::get_mesh</text>
</a>
</g>
</g>
<!-- Node1&#45;&gt;Node2 -->
<g id="edge1" class="edge">
<title>Node1&#45;&gt;Node2</title>
<path fill="none" stroke="midnightblue" d="M129.47,-64.5C137.67,-64.5 146.14,-64.5 154.57,-64.5"/>
<polygon fill="midnightblue" stroke="midnightblue" points="154.8,-68 164.8,-64.5 154.8,-61 154.8,-68"/>
</g>
<!-- Node3 -->
<g id="node3" class="node">
<title>Node3</title>
<g id="a_node3"><a xlink:href="classwmtk_1_1_multi_mesh_manager.html#a4858de0134bb52c525db4a99d341fa86" target="_top" xlink:title=" ">
<polygon fill="none" stroke="black" points="345,-116.5 345,-146.5 489,-146.5 489,-116.5 345,-116.5"/>
<text text-anchor="start" x="353" y="-134.5" font-family="Helvetica,sans-Serif" font-size="10.00">wmtk::MultiMeshManager</text>
<text text-anchor="middle" x="417" y="-123.5" font-family="Helvetica,sans-Serif" font-size="10.00">::absolute_id</text>
</a>
</g>
</g>
<!-- Node2&#45;&gt;Node3 -->
<g id="edge2" class="edge">
<title>Node2&#45;&gt;Node3</title>
<path fill="none" stroke="midnightblue" d="M273.96,-79.54C294.63,-88.03 321.15,-98.69 345,-107.5 350.03,-109.36 355.29,-111.25 360.56,-113.1"/>
<polygon fill="midnightblue" stroke="midnightblue" points="359.44,-116.41 370.04,-116.38 361.74,-109.8 359.44,-116.41"/>
</g>
<!-- Node5 -->
<g id="node5" class="node">
<title>Node5</title>
<g id="a_node5"><a xlink:href="classwmtk_1_1_multi_mesh_manager.html#a511c50bc3cdee5f55b691af400079be0" target="_top" xlink:title=" ">
<polygon fill="none" stroke="black" points="345,-0.5 345,-30.5 489,-30.5 489,-0.5 345,-0.5"/>
<text text-anchor="start" x="353" y="-18.5" font-family="Helvetica,sans-Serif" font-size="10.00">wmtk::MultiMeshManager</text>
<text text-anchor="middle" x="417" y="-7.5" font-family="Helvetica,sans-Serif" font-size="10.00">::get_child_mesh</text>
</a>
</g>
</g>
<!-- Node2&#45;&gt;Node5 -->
<g id="edge5" class="edge">
<title>Node2&#45;&gt;Node5</title>
<path fill="none" stroke="midnightblue" d="M292.86,-49.4C311.39,-44.3 332.24,-38.56 351.45,-33.27"/>
<polygon fill="midnightblue" stroke="midnightblue" points="352.61,-36.58 361.32,-30.55 350.75,-29.83 352.61,-36.58"/>
</g>
<!-- Node7 -->
<g id="node7" class="node">
<title>Node7</title>
<g id="a_node7"><a xlink:href="classwmtk_1_1_multi_mesh_manager.html#a10b58d0d287321a1b422f9b945421eda" target="_top" xlink:title=" ">
<polygon fill="none" stroke="black" points="345,-49.5 345,-79.5 489,-79.5 489,-49.5 345,-49.5"/>
<text text-anchor="start" x="353" y="-67.5" font-family="Helvetica,sans-Serif" font-size="10.00">wmtk::MultiMeshManager</text>
<text text-anchor="middle" x="417" y="-56.5" font-family="Helvetica,sans-Serif" font-size="10.00">::get_root_mesh</text>
</a>
</g>
</g>
<!-- Node2&#45;&gt;Node7 -->
<g id="edge7" class="edge">
<title>Node2&#45;&gt;Node7</title>
<path fill="none" stroke="midnightblue" d="M309.12,-64.5C317.61,-64.5 326.33,-64.5 334.94,-64.5"/>
<polygon fill="midnightblue" stroke="midnightblue" points="335,-68 345,-64.5 335,-61 335,-68"/>
</g>
<!-- Node3&#45;&gt;Node3 -->
<g id="edge3" class="edge">
<title>Node3&#45;&gt;Node3</title>
<path fill="none" stroke="midnightblue" d="M385.63,-146.66C378.07,-156.06 388.52,-165 417,-165 434.35,-165 445.01,-161.68 448.98,-156.96"/>
<polygon fill="midnightblue" stroke="midnightblue" points="452.46,-156.43 448.37,-146.66 445.47,-156.85 452.46,-156.43"/>
</g>
<!-- Node4 -->
<g id="node4" class="node">
<title>Node4</title>
<g id="a_node4"><a xlink:href="classwmtk_1_1_multi_mesh_manager.html#a5a5a2de96e603563ab7054e8666395b7" target="_top" xlink:title="Specifies whether this structure is the root of a multi&#45;mesh tree.">
<polygon fill="none" stroke="black" points="525,-82.5 525,-112.5 669,-112.5 669,-82.5 525,-82.5"/>
<text text-anchor="start" x="533" y="-100.5" font-family="Helvetica,sans-Serif" font-size="10.00">wmtk::MultiMeshManager</text>
<text text-anchor="middle" x="597" y="-89.5" font-family="Helvetica,sans-Serif" font-size="10.00">::is_root</text>
</a>
</g>
</g>
<!-- Node3&#45;&gt;Node4 -->
<g id="edge4" class="edge">
<title>Node3&#45;&gt;Node4</title>
<path fill="none" stroke="midnightblue" d="M489.12,-117.92C497.61,-116.29 506.33,-114.63 514.94,-112.98"/>
<polygon fill="midnightblue" stroke="midnightblue" points="515.83,-116.38 525,-111.06 514.52,-109.5 515.83,-116.38"/>
</g>
<!-- Node6 -->
<g id="node6" class="node">
<title>Node6</title>
<g id="a_node6"><a xlink:href="classwmtk_1_1_multi_mesh_manager.html#ac621e86e6ba30d6e9bcb925352d0c4e6" target="_top" xlink:title=" ">
<polygon fill="none" stroke="black" points="525,-0.5 525,-30.5 669,-30.5 669,-0.5 525,-0.5"/>
<text text-anchor="start" x="533" y="-18.5" font-family="Helvetica,sans-Serif" font-size="10.00">wmtk::MultiMeshManager</text>
<text text-anchor="middle" x="597" y="-7.5" font-family="Helvetica,sans-Serif" font-size="10.00">::relative_id</text>
</a>
</g>
</g>
<!-- Node5&#45;&gt;Node6 -->
<g id="edge6" class="edge">
<title>Node5&#45;&gt;Node6</title>
<path fill="none" stroke="midnightblue" d="M489.12,-15.5C497.61,-15.5 506.33,-15.5 514.94,-15.5"/>
<polygon fill="midnightblue" stroke="midnightblue" points="515,-19 525,-15.5 515,-12 515,-19"/>
</g>
<!-- Node7&#45;&gt;Node4 -->
<g id="edge9" class="edge">
<title>Node7&#45;&gt;Node4</title>
<path fill="none" stroke="midnightblue" d="M489.12,-77.68C497.61,-79.26 506.33,-80.88 514.94,-82.47"/>
<polygon fill="midnightblue" stroke="midnightblue" points="514.52,-85.95 525,-84.34 515.8,-79.07 514.52,-85.95"/>
</g>
<!-- Node7&#45;&gt;Node7 -->
<g id="edge8" class="edge">
<title>Node7&#45;&gt;Node7</title>
<path fill="none" stroke="midnightblue" d="M385.63,-79.66C378.07,-89.06 388.52,-98 417,-98 434.35,-98 445.01,-94.68 448.98,-89.96"/>
<polygon fill="midnightblue" stroke="midnightblue" points="452.46,-89.43 448.37,-79.66 445.47,-89.85 452.46,-89.43"/>
</g>
</g>
</svg>
