<?xml version="1.0" encoding="UTF-8" standalone="no"?>
<!DOCTYPE svg PUBLIC "-//W3C//DTD SVG 1.1//EN"
 "http://www.w3.org/Graphics/SVG/1.1/DTD/svg11.dtd">
<!-- Generated by graphviz version 2.43.0 (0)
 -->
<!-- Title: wmtk::function::TriangleAMIPS::eval Pages: 1 -->
<svg width="1124pt" height="142pt"
 viewBox="0.00 0.00 1124.00 142.00" xmlns="http://www.w3.org/2000/svg" xmlns:xlink="http://www.w3.org/1999/xlink">
<g id="graph0" class="graph" transform="scale(1 1) rotate(0) translate(4 138)">
<title>wmtk::function::TriangleAMIPS::eval</title>
<!-- Node1 -->
<g id="node1" class="node">
<title>Node1</title>
<g id="a_node1"><a xlink:title="This function defines a function f(x) where f is defined over a simplex domain and the variables for ...">
<polygon fill="#bfbfbf" stroke="black" points="0,-49.5 0,-79.5 134,-79.5 134,-49.5 0,-49.5"/>
<text text-anchor="start" x="8" y="-67.5" font-family="Helvetica,sans-Serif" font-size="10.00">wmtk::function::Triangle</text>
<text text-anchor="middle" x="67" y="-56.5" font-family="Helvetica,sans-Serif" font-size="10.00">AMIPS::eval</text>
</a>
</g>
</g>
<!-- Node2 -->
<g id="node2" class="node">
<title>Node2</title>
<g id="a_node2"><a xlink:href="namespacewmtk_1_1function_1_1utils.html#a5566d601b7700a203e925d5eaca49ddd" target="_top" xlink:title=" ">
<polygon fill="none" stroke="black" points="197.5,-98.5 197.5,-128.5 314.5,-128.5 314.5,-98.5 197.5,-98.5"/>
<text text-anchor="start" x="205.5" y="-116.5" font-family="Helvetica,sans-Serif" font-size="10.00">wmtk::function::utils</text>
<text text-anchor="middle" x="256" y="-105.5" font-family="Helvetica,sans-Serif" font-size="10.00">::amips</text>
</a>
</g>
</g>
<!-- Node1&#45;&gt;Node2 -->
<g id="edge1" class="edge">
<title>Node1&#45;&gt;Node2</title>
<path fill="none" stroke="midnightblue" d="M125.38,-79.53C145.12,-84.71 167.41,-90.55 187.86,-95.91"/>
<polygon fill="midnightblue" stroke="midnightblue" points="187.17,-99.34 197.73,-98.49 188.95,-92.57 187.17,-99.34"/>
</g>
<!-- Node3 -->
<g id="node3" class="node">
<title>Node3</title>
<g id="a_node3"><a xlink:href="classwmtk_1_1function_1_1_per_simplex_function.html#a102906d1b23aa53d451853ca779ca2c4" target="_top" xlink:title=" ">
<polygon fill="none" stroke="black" points="170,-49.5 170,-79.5 342,-79.5 342,-49.5 170,-49.5"/>
<text text-anchor="start" x="178" y="-67.5" font-family="Helvetica,sans-Serif" font-size="10.00">wmtk::function::PerSimplex</text>
<text text-anchor="middle" x="256" y="-56.5" font-family="Helvetica,sans-Serif" font-size="10.00">Function::embedded_dimension</text>
</a>
</g>
</g>
<!-- Node1&#45;&gt;Node3 -->
<g id="edge2" class="edge">
<title>Node1&#45;&gt;Node3</title>
<path fill="none" stroke="midnightblue" d="M134.19,-64.5C142.5,-64.5 151.12,-64.5 159.76,-64.5"/>
<polygon fill="midnightblue" stroke="midnightblue" points="159.9,-68 169.9,-64.5 159.9,-61 159.9,-68"/>
</g>
<!-- Node12 -->
<g id="node12" class="node">
<title>Node12</title>
<g id="a_node12"><a xlink:href="classwmtk_1_1simplex_1_1_simplex.html#ad2cc0340a0772b7d6f03ba7a781d1163" target="_top" xlink:title=" ">
<polygon fill="none" stroke="black" points="188.5,-0.5 188.5,-30.5 323.5,-30.5 323.5,-0.5 188.5,-0.5"/>
<text text-anchor="start" x="196.5" y="-18.5" font-family="Helvetica,sans-Serif" font-size="10.00">wmtk::simplex::Simplex</text>
<text text-anchor="middle" x="256" y="-7.5" font-family="Helvetica,sans-Serif" font-size="10.00">::primitive_type</text>
</a>
</g>
</g>
<!-- Node1&#45;&gt;Node12 -->
<g id="edge11" class="edge">
<title>Node1&#45;&gt;Node12</title>
<path fill="none" stroke="midnightblue" d="M125.38,-49.47C145.12,-44.29 167.41,-38.45 187.86,-33.09"/>
<polygon fill="midnightblue" stroke="midnightblue" points="188.95,-36.43 197.73,-30.51 187.17,-29.66 188.95,-36.43"/>
</g>
<!-- Node4 -->
<g id="node4" class="node">
<title>Node4</title>
<g id="a_node4"><a xlink:href="classwmtk_1_1function_1_1_per_simplex_function.html#a0df382a56885d99b8f1c480f016387e1" target="_top" xlink:title=" ">
<polygon fill="none" stroke="black" points="378,-101.5 378,-131.5 530,-131.5 530,-101.5 378,-101.5"/>
<text text-anchor="start" x="386" y="-119.5" font-family="Helvetica,sans-Serif" font-size="10.00">wmtk::function::PerSimplex</text>
<text text-anchor="middle" x="454" y="-108.5" font-family="Helvetica,sans-Serif" font-size="10.00">Function::attribute_handle</text>
</a>
</g>
</g>
<!-- Node3&#45;&gt;Node4 -->
<g id="edge3" class="edge">
<title>Node3&#45;&gt;Node4</title>
<path fill="none" stroke="midnightblue" d="M313.69,-79.54C336.44,-85.58 362.83,-92.58 386.49,-98.85"/>
<polygon fill="midnightblue" stroke="midnightblue" points="385.87,-102.31 396.44,-101.49 387.67,-95.55 385.87,-102.31"/>
</g>
<!-- Node6 -->
<g id="node6" class="node">
<title>Node6</title>
<g id="a_node6"><a xlink:href="classwmtk_1_1_mesh.html#a4f546f0125de42db771686220d77ec78" target="_top" xlink:title=" ">
<polygon fill="none" stroke="black" points="381,-49.5 381,-79.5 527,-79.5 527,-49.5 381,-49.5"/>
<text text-anchor="start" x="389" y="-67.5" font-family="Helvetica,sans-Serif" font-size="10.00">wmtk::Mesh::get_attribute</text>
<text text-anchor="middle" x="454" y="-56.5" font-family="Helvetica,sans-Serif" font-size="10.00">_dimension</text>
</a>
</g>
</g>
<!-- Node3&#45;&gt;Node6 -->
<g id="edge5" class="edge">
<title>Node3&#45;&gt;Node6</title>
<path fill="none" stroke="midnightblue" d="M342.11,-64.5C351.6,-64.5 361.24,-64.5 370.69,-64.5"/>
<polygon fill="midnightblue" stroke="midnightblue" points="370.85,-68 380.85,-64.5 370.85,-61 370.85,-68"/>
</g>
<!-- Node11 -->
<g id="node11" class="node">
<title>Node11</title>
<g id="a_node11"><a xlink:href="classwmtk_1_1function_1_1_per_simplex_function.html#a59a059a94c9997cb6dff0eb014a294d1" target="_top" xlink:title=" ">
<polygon fill="none" stroke="black" points="378,-0.5 378,-30.5 530,-30.5 530,-0.5 378,-0.5"/>
<text text-anchor="start" x="386" y="-18.5" font-family="Helvetica,sans-Serif" font-size="10.00">wmtk::function::PerSimplex</text>
<text text-anchor="middle" x="454" y="-7.5" font-family="Helvetica,sans-Serif" font-size="10.00">Function::mesh</text>
</a>
</g>
</g>
<!-- Node3&#45;&gt;Node11 -->
<g id="edge10" class="edge">
<title>Node3&#45;&gt;Node11</title>
<path fill="none" stroke="midnightblue" d="M317.14,-49.47C338.02,-44.24 361.61,-38.35 383.21,-32.95"/>
<polygon fill="midnightblue" stroke="midnightblue" points="384.12,-36.33 392.98,-30.51 382.42,-29.54 384.12,-36.33"/>
</g>
<!-- Node5 -->
<g id="node5" class="node">
<title>Node5</title>
<g id="a_node5"><a xlink:href="classwmtk_1_1attribute_1_1_mesh_attribute_handle.html#ad577111f5b1fd05f60fae4b7f0ddb1f6" target="_top" xlink:title=" ">
<polygon fill="none" stroke="black" points="566,-103.5 566,-133.5 733,-133.5 733,-103.5 566,-103.5"/>
<text text-anchor="start" x="574" y="-121.5" font-family="Helvetica,sans-Serif" font-size="10.00">wmtk::attribute::MeshAttribute</text>
<text text-anchor="middle" x="649.5" y="-110.5" font-family="Helvetica,sans-Serif" font-size="10.00">Handle::is_valid</text>
</a>
</g>
</g>
<!-- Node4&#45;&gt;Node5 -->
<g id="edge4" class="edge">
<title>Node4&#45;&gt;Node5</title>
<path fill="none" stroke="midnightblue" d="M530.09,-117.28C538.49,-117.36 547.12,-117.45 555.7,-117.54"/>
<polygon fill="midnightblue" stroke="midnightblue" points="555.71,-121.04 565.75,-117.64 555.79,-114.04 555.71,-121.04"/>
</g>
<!-- Node7 -->
<g id="node7" class="node">
<title>Node7</title>
<g id="a_node7"><a xlink:href="classwmtk_1_1attribute_1_1_attribute_manager.html#a4ae249faad236f8d98287c3ec61e987e" target="_top" xlink:title=" ">
<polygon fill="none" stroke="black" points="579,-43 579,-84 720,-84 720,-43 579,-43"/>
<text text-anchor="start" x="587" y="-72" font-family="Helvetica,sans-Serif" font-size="10.00">wmtk::attribute::Attribute</text>
<text text-anchor="start" x="587" y="-61" font-family="Helvetica,sans-Serif" font-size="10.00">Manager::get_attribute</text>
<text text-anchor="middle" x="649.5" y="-50" font-family="Helvetica,sans-Serif" font-size="10.00">_dimension</text>
</a>
</g>
</g>
<!-- Node6&#45;&gt;Node7 -->
<g id="edge6" class="edge">
<title>Node6&#45;&gt;Node7</title>
<path fill="none" stroke="midnightblue" d="M527.05,-64.13C540.71,-64.06 555.08,-63.98 568.96,-63.91"/>
<polygon fill="midnightblue" stroke="midnightblue" points="568.98,-67.41 578.96,-63.86 568.94,-60.41 568.98,-67.41"/>
</g>
<!-- Node8 -->
<g id="node8" class="node">
<title>Node8</title>
<g id="a_node8"><a xlink:href="classwmtk_1_1attribute_1_1_attribute_manager.html#a8f09c6131e0dbf55f249c5eb97c3216b" target="_top" xlink:title=" ">
<polygon fill="none" stroke="black" points="783.5,-73.5 783.5,-103.5 924.5,-103.5 924.5,-73.5 783.5,-73.5"/>
<text text-anchor="start" x="791.5" y="-91.5" font-family="Helvetica,sans-Serif" font-size="10.00">wmtk::attribute::Attribute</text>
<text text-anchor="middle" x="854" y="-80.5" font-family="Helvetica,sans-Serif" font-size="10.00">Manager::get</text>
</a>
</g>
</g>
<!-- Node7&#45;&gt;Node8 -->
<g id="edge7" class="edge">
<title>Node7&#45;&gt;Node8</title>
<path fill="none" stroke="midnightblue" d="M720.19,-72.1C737.21,-74.21 755.56,-76.47 773.02,-78.63"/>
<polygon fill="midnightblue" stroke="midnightblue" points="772.83,-82.13 783.18,-79.88 773.69,-75.18 772.83,-82.13"/>
</g>
<!-- Node9 -->
<g id="node9" class="node">
<title>Node9</title>
<g id="a_node9"><a xlink:href="classwmtk_1_1attribute_1_1_typed_attribute_handle.html#ad473b36dc43489bad4a345dceac443fa" target="_top" xlink:title=" ">
<polygon fill="none" stroke="black" points="769,-24.5 769,-54.5 939,-54.5 939,-24.5 769,-24.5"/>
<text text-anchor="start" x="777" y="-42.5" font-family="Helvetica,sans-Serif" font-size="10.00">wmtk::attribute::TypedAttribute</text>
<text text-anchor="middle" x="854" y="-31.5" font-family="Helvetica,sans-Serif" font-size="10.00">Handle::is_valid</text>
</a>
</g>
</g>
<!-- Node7&#45;&gt;Node9 -->
<g id="edge8" class="edge">
<title>Node7&#45;&gt;Node9</title>
<path fill="none" stroke="midnightblue" d="M720.19,-55.24C732.56,-53.77 745.62,-52.23 758.54,-50.7"/>
<polygon fill="midnightblue" stroke="midnightblue" points="759.33,-54.13 768.85,-49.47 758.51,-47.17 759.33,-54.13"/>
</g>
<!-- Node10 -->
<g id="node10" class="node">
<title>Node10</title>
<g id="a_node10"><a xlink:href="classwmtk_1_1attribute_1_1_attribute_handle.html#ac48d337c6cc95e43c1ecceaacf3dd31d" target="_top" xlink:title=" ">
<polygon fill="none" stroke="black" points="975,-24.5 975,-54.5 1116,-54.5 1116,-24.5 975,-24.5"/>
<text text-anchor="start" x="983" y="-42.5" font-family="Helvetica,sans-Serif" font-size="10.00">wmtk::attribute::Attribute</text>
<text text-anchor="middle" x="1045.5" y="-31.5" font-family="Helvetica,sans-Serif" font-size="10.00">Handle::is_valid</text>
</a>
</g>
</g>
<!-- Node9&#45;&gt;Node10 -->
<g id="edge9" class="edge">
<title>Node9&#45;&gt;Node10</title>
<path fill="none" stroke="midnightblue" d="M939.22,-39.5C947.65,-39.5 956.2,-39.5 964.59,-39.5"/>
<polygon fill="midnightblue" stroke="midnightblue" points="964.72,-43 974.72,-39.5 964.72,-36 964.72,-43"/>
</g>
</g>
</svg>
