<?xml version="1.0" encoding="UTF-8" standalone="no"?>
<!DOCTYPE svg PUBLIC "-//W3C//DTD SVG 1.1//EN"
 "http://www.w3.org/Graphics/SVG/1.1/DTD/svg11.dtd">
<!-- Generated by graphviz version 2.43.0 (0)
 -->
<!-- Title: wmtk::Mesh::get_all Pages: 1 -->
<svg width="683pt" height="263pt"
 viewBox="0.00 0.00 683.00 262.50" xmlns="http://www.w3.org/2000/svg" xmlns:xlink="http://www.w3.org/1999/xlink">
<g id="graph0" class="graph" transform="scale(1 1) rotate(0) translate(4 258.5)">
<title>wmtk::Mesh::get_all</title>
<!-- Node1 -->
<g id="Node000001" class="node">
<title>Node1</title>
<g id="a_Node000001"><a xlink:title="Generate a vector of Tuples from global vertex/edge/triangle/tetrahedron index.">
<polygon fill="#999999" stroke="#666666" points="116,-134 0,-134 0,-115 116,-115 116,-134"/>
<text text-anchor="middle" x="58" y="-122" font-family="Helvetica,sans-Serif" font-size="10.00">wmtk::Mesh::get_all</text>
</a>
</g>
</g>
<!-- Node2 -->
<g id="Node000002" class="node">
<title>Node2</title>
<g id="a_Node000002"><a xlink:href="classwmtk_1_1_mesh.html#a3e8ff83c4a5526a40d18bb9883c6c6c9" target="_top" xlink:title="read in the m_capacities return the upper bound for the number of entities of the given dimension">
<polygon fill="white" stroke="#666666" points="486,-249 362,-249 362,-230 486,-230 486,-249"/>
<text text-anchor="middle" x="424" y="-237" font-family="Helvetica,sans-Serif" font-size="10.00">wmtk::Mesh::capacity</text>
</a>
</g>
</g>
<!-- Node1&#45;&gt;Node2 -->
<g id="edge1_Node000001_Node000002" class="edge">
<title>Node1&#45;&gt;Node2</title>
<g id="a_edge1_Node000001_Node000002"><a xlink:title=" ">
<path fill="none" stroke="#63b8ff" d="M64.74,-134.06C77.49,-154.29 110.35,-201.11 152,-220.5 214.8,-249.73 294.73,-251.68 351.47,-248.02"/>
<polygon fill="#63b8ff" stroke="#63b8ff" points="352.06,-251.49 361.79,-247.28 351.56,-244.51 352.06,-251.49"/>
</a>
</g>
</g>
<!-- Node4 -->
<g id="Node000004" class="node">
<title>Node4</title>
<g id="a_Node000004"><a xlink:href="classwmtk_1_1_mesh.html#ae3493915b766f0f34f0a9e89603d5773" target="_top" xlink:title=" ">
<polygon fill="white" stroke="#666666" points="294.5,-211.5 172.5,-211.5 172.5,-181.5 294.5,-181.5 294.5,-211.5"/>
<text text-anchor="start" x="180.5" y="-199.5" font-family="Helvetica,sans-Serif" font-size="10.00">wmtk::Mesh::get_flag</text>
<text text-anchor="middle" x="233.5" y="-188.5" font-family="Helvetica,sans-Serif" font-size="10.00">_accessor</text>
</a>
</g>
</g>
<!-- Node1&#45;&gt;Node4 -->
<g id="edge3_Node000001_Node000004" class="edge">
<title>Node1&#45;&gt;Node4</title>
<g id="a_edge3_Node000001_Node000004"><a xlink:title=" ">
<path fill="none" stroke="#63b8ff" d="M75.36,-134.14C93.6,-144.59 124.19,-161.29 152,-172.5 156.99,-174.51 162.21,-176.44 167.49,-178.27"/>
<polygon fill="#63b8ff" stroke="#63b8ff" points="166.44,-181.61 177.03,-181.45 168.66,-174.97 166.44,-181.61"/>
</a>
</g>
</g>
<!-- Node7 -->
<g id="Node000007" class="node">
<title>Node7</title>
<g id="a_Node000007"><a xlink:href="classwmtk_1_1attribute_1_1_flag_accessor.html#a4f49a666c3811fee9b841c1cd1f66250" target="_top" xlink:title=" ">
<polygon fill="white" stroke="#666666" points="315,-163.5 152,-163.5 152,-133.5 315,-133.5 315,-163.5"/>
<text text-anchor="start" x="160" y="-151.5" font-family="Helvetica,sans-Serif" font-size="10.00">wmtk::attribute::FlagAccessor</text>
<text text-anchor="middle" x="233.5" y="-140.5" font-family="Helvetica,sans-Serif" font-size="10.00">::index_access</text>
</a>
</g>
</g>
<!-- Node1&#45;&gt;Node7 -->
<g id="edge7_Node000001_Node000007" class="edge">
<title>Node1&#45;&gt;Node7</title>
<g id="a_edge7_Node000001_Node000007"><a xlink:title=" ">
<path fill="none" stroke="#63b8ff" d="M116.29,-132.43C124.45,-133.55 133,-134.74 141.61,-135.93"/>
<polygon fill="#63b8ff" stroke="#63b8ff" points="141.33,-139.42 151.72,-137.33 142.29,-132.49 141.33,-139.42"/>
</a>
</g>
</g>
<!-- Node8 -->
<g id="Node000008" class="node">
<title>Node8</title>
<g id="a_Node000008"><a xlink:href="classwmtk_1_1attribute_1_1_index_flag_accessor.html#a195252af3f6230f09f0c1379cbec7240" target="_top" xlink:title=" ">
<polygon fill="white" stroke="#666666" points="306.5,-115.5 160.5,-115.5 160.5,-85.5 306.5,-85.5 306.5,-115.5"/>
<text text-anchor="start" x="168.5" y="-103.5" font-family="Helvetica,sans-Serif" font-size="10.00">wmtk::attribute::IndexFlag</text>
<text text-anchor="middle" x="233.5" y="-92.5" font-family="Helvetica,sans-Serif" font-size="10.00">Accessor::is_active</text>
</a>
</g>
</g>
<!-- Node1&#45;&gt;Node8 -->
<g id="edge8_Node000001_Node000008" class="edge">
<title>Node1&#45;&gt;Node8</title>
<g id="a_edge8_Node000001_Node000008"><a xlink:title=" ">
<path fill="none" stroke="#63b8ff" d="M116.29,-116.57C127.21,-115.06 138.83,-113.46 150.35,-111.86"/>
<polygon fill="#63b8ff" stroke="#63b8ff" points="150.99,-115.31 160.42,-110.47 150.03,-108.37 150.99,-115.31"/>
</a>
</g>
</g>
<!-- Node13 -->
<g id="Node000013" class="node">
<title>Node13</title>
<g id="a_Node000013"><a xlink:href="classwmtk_1_1_mesh.html#a933f681cf24a63b155c9462280385200" target="_top" xlink:title=" ">
<polygon fill="white" stroke="#666666" points="294,-67.5 173,-67.5 173,-37.5 294,-37.5 294,-67.5"/>
<text text-anchor="start" x="181" y="-55.5" font-family="Helvetica,sans-Serif" font-size="10.00">wmtk::Mesh::top_cell</text>
<text text-anchor="middle" x="233.5" y="-44.5" font-family="Helvetica,sans-Serif" font-size="10.00">_dimension</text>
</a>
</g>
</g>
<!-- Node1&#45;&gt;Node13 -->
<g id="edge13_Node000001_Node000013" class="edge">
<title>Node1&#45;&gt;Node13</title>
<g id="a_edge13_Node000001_Node000013"><a xlink:title=" ">
<path fill="none" stroke="#63b8ff" d="M75.36,-114.86C93.6,-104.41 124.19,-87.71 152,-76.5 156.99,-74.49 162.21,-72.56 167.49,-70.73"/>
<polygon fill="#63b8ff" stroke="#63b8ff" points="168.66,-74.03 177.03,-67.55 166.44,-67.39 168.66,-74.03"/>
</a>
</g>
</g>
<!-- Node14 -->
<g id="Node000014" class="node">
<title>Node14</title>
<g id="a_Node000014"><a xlink:href="classwmtk_1_1_mesh.html#a60165ceb4c2db2731df90e4ac100637d" target="_top" xlink:title="internal function that returns the tuple of requested type, and has the global index cid">
<polygon fill="white" stroke="#666666" points="308.5,-19 158.5,-19 158.5,0 308.5,0 308.5,-19"/>
<text text-anchor="middle" x="233.5" y="-7" font-family="Helvetica,sans-Serif" font-size="10.00">wmtk::Mesh::tuple_from_id</text>
</a>
</g>
</g>
<!-- Node1&#45;&gt;Node14 -->
<g id="edge14_Node000001_Node000014" class="edge">
<title>Node1&#45;&gt;Node14</title>
<g id="a_edge14_Node000001_Node000014"><a xlink:title=" ">
<path fill="none" stroke="#63b8ff" d="M65.41,-114.85C78.95,-95.3 112.45,-50.96 152,-28.5 155.97,-26.25 160.2,-24.26 164.55,-22.5"/>
<polygon fill="#63b8ff" stroke="#63b8ff" points="166.02,-25.7 174.25,-19.03 163.66,-19.11 166.02,-25.7"/>
</a>
</g>
</g>
<!-- Node3 -->
<g id="Node000003" class="node">
<title>Node3</title>
<g id="a_Node000003"><a xlink:href="namespacewmtk.html#a5cf45c152e856196bb734c6f48919a24" target="_top" xlink:title="Get a unique integer id corresponding to each primitive type.">
<polygon fill="white" stroke="#666666" points="662,-254.5 546,-254.5 546,-224.5 662,-224.5 662,-254.5"/>
<text text-anchor="start" x="554" y="-242.5" font-family="Helvetica,sans-Serif" font-size="10.00">wmtk::get_primitive</text>
<text text-anchor="middle" x="604" y="-231.5" font-family="Helvetica,sans-Serif" font-size="10.00">_type_id</text>
</a>
</g>
</g>
<!-- Node2&#45;&gt;Node3 -->
<g id="edge2_Node000002_Node000003" class="edge">
<title>Node2&#45;&gt;Node3</title>
<g id="a_edge2_Node000002_Node000003"><a xlink:title=" ">
<path fill="none" stroke="#63b8ff" d="M486.26,-239.5C502.1,-239.5 519.24,-239.5 535.38,-239.5"/>
<polygon fill="#63b8ff" stroke="#63b8ff" points="535.82,-243 545.82,-239.5 535.82,-236 535.82,-243"/>
</a>
</g>
</g>
<!-- Node5 -->
<g id="Node000005" class="node">
<title>Node5</title>
<g id="a_Node000005"><a xlink:href="classwmtk_1_1_mesh.html#acfa981b31f00aef4438ff5e73bbce2f4" target="_top" xlink:title=" ">
<polygon fill="white" stroke="#666666" points="489,-211.5 359,-211.5 359,-181.5 489,-181.5 489,-211.5"/>
<text text-anchor="start" x="367" y="-199.5" font-family="Helvetica,sans-Serif" font-size="10.00">wmtk::Mesh::get_const</text>
<text text-anchor="middle" x="424" y="-188.5" font-family="Helvetica,sans-Serif" font-size="10.00">_flag_accessor</text>
</a>
</g>
</g>
<!-- Node4&#45;&gt;Node5 -->
<g id="edge4_Node000004_Node000005" class="edge">
<title>Node4&#45;&gt;Node5</title>
<g id="a_edge4_Node000004_Node000005"><a xlink:title=" ">
<path fill="none" stroke="#63b8ff" d="M294.66,-196.5C311.85,-196.5 330.8,-196.5 348.73,-196.5"/>
<polygon fill="#63b8ff" stroke="#63b8ff" points="348.86,-200 358.86,-196.5 348.86,-193 348.86,-200"/>
</a>
</g>
</g>
<!-- Node5&#45;&gt;Node3 -->
<g id="edge6_Node000005_Node000003" class="edge">
<title>Node5&#45;&gt;Node3</title>
<g id="a_edge6_Node000005_Node000003"><a xlink:title=" ">
<path fill="none" stroke="#63b8ff" d="M487.26,-211.54C503.03,-215.35 520.04,-219.46 536.04,-223.32"/>
<polygon fill="#63b8ff" stroke="#63b8ff" points="535.3,-226.75 545.85,-225.69 536.95,-219.94 535.3,-226.75"/>
</a>
</g>
</g>
<!-- Node6 -->
<g id="Node000006" class="node">
<title>Node6</title>
<g id="a_Node000006"><a xlink:href="classwmtk_1_1_mesh.html#a357182137d99f1e4a7ff536eadfc0e56" target="_top" xlink:title=" ">
<polygon fill="white" stroke="#666666" points="660.5,-206.5 547.5,-206.5 547.5,-176.5 660.5,-176.5 660.5,-206.5"/>
<text text-anchor="start" x="555.5" y="-194.5" font-family="Helvetica,sans-Serif" font-size="10.00">wmtk::Mesh::create</text>
<text text-anchor="middle" x="604" y="-183.5" font-family="Helvetica,sans-Serif" font-size="10.00">_const_accessor</text>
</a>
</g>
</g>
<!-- Node5&#45;&gt;Node6 -->
<g id="edge5_Node000005_Node000006" class="edge">
<title>Node5&#45;&gt;Node6</title>
<g id="a_edge5_Node000005_Node000006"><a xlink:title=" ">
<path fill="none" stroke="#63b8ff" d="M489.01,-194.7C504.63,-194.26 521.36,-193.79 537.06,-193.35"/>
<polygon fill="#63b8ff" stroke="#63b8ff" points="537.32,-196.85 547.21,-193.07 537.12,-189.85 537.32,-196.85"/>
</a>
</g>
</g>
<!-- Node9 -->
<g id="Node000009" class="node">
<title>Node9</title>
<g id="a_Node000009"><a xlink:href="classwmtk_1_1attribute_1_1_index_flag_accessor.html#a08ce19b077654f9e384d8c3fffcbbd0b" target="_top" xlink:title=" ">
<polygon fill="white" stroke="#666666" points="497,-163.5 351,-163.5 351,-133.5 497,-133.5 497,-163.5"/>
<text text-anchor="start" x="359" y="-151.5" font-family="Helvetica,sans-Serif" font-size="10.00">wmtk::attribute::IndexFlag</text>
<text text-anchor="middle" x="424" y="-140.5" font-family="Helvetica,sans-Serif" font-size="10.00">Accessor::_is_active</text>
</a>
</g>
</g>
<!-- Node8&#45;&gt;Node9 -->
<g id="edge9_Node000008_Node000009" class="edge">
<title>Node8&#45;&gt;Node9</title>
<g id="a_edge9_Node000008_Node000009"><a xlink:title=" ">
<path fill="none" stroke="#63b8ff" d="M293.63,-115.56C312.84,-120.45 334.32,-125.92 354.18,-130.98"/>
<polygon fill="#63b8ff" stroke="#63b8ff" points="353.53,-134.42 364.08,-133.5 355.26,-127.64 353.53,-134.42"/>
</a>
</g>
</g>
<!-- Node10 -->
<g id="Node000010" class="node">
<title>Node10</title>
<g id="a_Node000010"><a xlink:href="classwmtk_1_1attribute_1_1_caching_accessor.html#a196b6b32e2495b971113d552be7f45d9" target="_top" xlink:title=" ">
<polygon fill="white" stroke="#666666" points="492.5,-115 355.5,-115 355.5,-74 492.5,-74 492.5,-115"/>
<text text-anchor="start" x="363.5" y="-103" font-family="Helvetica,sans-Serif" font-size="10.00">wmtk::attribute::Caching</text>
<text text-anchor="start" x="363.5" y="-92" font-family="Helvetica,sans-Serif" font-size="10.00">Accessor::const_scalar</text>
<text text-anchor="middle" x="424" y="-81" font-family="Helvetica,sans-Serif" font-size="10.00">_attribute</text>
</a>
</g>
</g>
<!-- Node8&#45;&gt;Node10 -->
<g id="edge10_Node000008_Node000010" class="edge">
<title>Node8&#45;&gt;Node10</title>
<g id="a_edge10_Node000008_Node000010"><a xlink:title=" ">
<path fill="none" stroke="#63b8ff" d="M306.57,-98.21C319.2,-97.8 332.39,-97.38 345.17,-96.98"/>
<polygon fill="#63b8ff" stroke="#63b8ff" points="345.43,-100.47 355.31,-96.65 345.2,-93.47 345.43,-100.47"/>
</a>
</g>
</g>
<!-- Node11 -->
<g id="Node000011" class="node">
<title>Node11</title>
<g id="a_Node000011"><a xlink:href="classwmtk_1_1attribute_1_1_accessor.html#a2d587e12c47a6d839ab80e9198cf75b5" target="_top" xlink:title=" ">
<polygon fill="white" stroke="#666666" points="495,-55.5 353,-55.5 353,-25.5 495,-25.5 495,-55.5"/>
<text text-anchor="start" x="361" y="-43.5" font-family="Helvetica,sans-Serif" font-size="10.00">wmtk::attribute::Accessor</text>
<text text-anchor="middle" x="424" y="-32.5" font-family="Helvetica,sans-Serif" font-size="10.00">::index_access</text>
</a>
</g>
</g>
<!-- Node8&#45;&gt;Node11 -->
<g id="edge11_Node000008_Node000011" class="edge">
<title>Node8&#45;&gt;Node11</title>
<g id="a_edge11_Node000008_Node000011"><a xlink:title=" ">
<path fill="none" stroke="#63b8ff" d="M286.11,-85.38C295.73,-82.49 305.68,-79.44 315,-76.5 315.37,-76.38 341.55,-67.66 368.04,-58.83"/>
<polygon fill="#63b8ff" stroke="#63b8ff" points="369.38,-62.07 377.76,-55.58 367.17,-55.43 369.38,-62.07"/>
</a>
</g>
</g>
<!-- Node12 -->
<g id="Node000012" class="node">
<title>Node12</title>
<g id="a_Node000012"><a xlink:href="classwmtk_1_1attribute_1_1_accessor.html#afd97a48ec5d1db975a030428df81f617" target="_top" xlink:title=" ">
<polygon fill="white" stroke="#666666" points="675,-55.5 533,-55.5 533,-25.5 675,-25.5 675,-55.5"/>
<text text-anchor="start" x="541" y="-43.5" font-family="Helvetica,sans-Serif" font-size="10.00">wmtk::attribute::Accessor</text>
<text text-anchor="middle" x="604" y="-32.5" font-family="Helvetica,sans-Serif" font-size="10.00">::caching_base_type</text>
</a>
</g>
</g>
<!-- Node11&#45;&gt;Node12 -->
<g id="edge12_Node000011_Node000012" class="edge">
<title>Node11&#45;&gt;Node12</title>
<g id="a_edge12_Node000011_Node000012"><a xlink:title=" ">
<path fill="none" stroke="#63b8ff" d="M495.09,-40.5C504.24,-40.5 513.66,-40.5 522.96,-40.5"/>
<polygon fill="#63b8ff" stroke="#63b8ff" points="522.97,-44 532.97,-40.5 522.97,-37 522.97,-44"/>
</a>
</g>
</g>
</g>
</svg>
