<?xml version="1.0" encoding="UTF-8" standalone="no"?>
<!DOCTYPE svg PUBLIC "-//W3C//DTD SVG 1.1//EN"
 "http://www.w3.org/Graphics/SVG/1.1/DTD/svg11.dtd">
<!-- Generated by graphviz version 2.43.0 (0)
 -->
<!-- Title: wmtk::utils::EigenMatrixWriter::get_double_matrix Pages: 1 -->
<svg width="911pt" height="208pt"
 viewBox="0.00 0.00 911.00 208.00" xmlns="http://www.w3.org/2000/svg" xmlns:xlink="http://www.w3.org/1999/xlink">
<g id="graph0" class="graph" transform="scale(1 1) rotate(0) translate(4 204)">
<title>wmtk::utils::EigenMatrixWriter::get_double_matrix</title>
<!-- Node1 -->
<g id="node1" class="node">
<title>Node1</title>
<g id="a_node1"><a xlink:title=" ">
<polygon fill="#bfbfbf" stroke="black" points="759,-49.5 759,-79.5 903,-79.5 903,-49.5 759,-49.5"/>
<text text-anchor="start" x="767" y="-67.5" font-family="Helvetica,sans-Serif" font-size="10.00">wmtk::utils::EigenMatrix</text>
<text text-anchor="middle" x="831" y="-56.5" font-family="Helvetica,sans-Serif" font-size="10.00">Writer::get_double_matrix</text>
</a>
</g>
</g>
<!-- Node2 -->
<g id="node2" class="node">
<title>Node2</title>
<g id="a_node2"><a xlink:href="classwmtk_1_1utils_1_1_eigen_matrix_writer.html#a3907d601b0f4f64c662e4c32da9ca52c" target="_top" xlink:title=" ">
<polygon fill="none" stroke="black" points="571,-98.5 571,-128.5 721,-128.5 721,-98.5 571,-98.5"/>
<text text-anchor="start" x="579" y="-116.5" font-family="Helvetica,sans-Serif" font-size="10.00">wmtk::utils::EigenMatrix</text>
<text text-anchor="middle" x="646" y="-105.5" font-family="Helvetica,sans-Serif" font-size="10.00">Writer::get_position_matrix</text>
</a>
</g>
</g>
<!-- Node1&#45;&gt;Node2 -->
<g id="edge1" class="edge">
<title>Node1&#45;&gt;Node2</title>
<path fill="none" stroke="midnightblue" d="M763.71,-82.25C743.88,-87.56 722.33,-93.33 703.21,-98.45"/>
<polygon fill="midnightblue" stroke="midnightblue" points="764.85,-85.57 773.6,-79.6 763.04,-78.81 764.85,-85.57"/>
</g>
<!-- Node10 -->
<g id="node10" class="node">
<title>Node10</title>
<g id="a_node10"><a xlink:href="namespacewmtk_1_1components.html#ab76577dc5b3ef0ad8ac307cff60d5807" target="_top" xlink:title="Perform the simplification from the original tetwild.">
<polygon fill="none" stroke="black" points="571,-49.5 571,-79.5 721,-79.5 721,-49.5 571,-49.5"/>
<text text-anchor="start" x="579" y="-67.5" font-family="Helvetica,sans-Serif" font-size="10.00">wmtk::components::tetwild</text>
<text text-anchor="middle" x="646" y="-56.5" font-family="Helvetica,sans-Serif" font-size="10.00">_simplification</text>
</a>
</g>
</g>
<!-- Node1&#45;&gt;Node10 -->
<g id="edge9" class="edge">
<title>Node1&#45;&gt;Node10</title>
<path fill="none" stroke="midnightblue" d="M748.75,-64.5C739.62,-64.5 730.34,-64.5 721.3,-64.5"/>
<polygon fill="midnightblue" stroke="midnightblue" points="748.99,-68 758.99,-64.5 748.99,-61 748.99,-68"/>
</g>
<!-- Node11 -->
<g id="node11" class="node">
<title>Node11</title>
<g id="a_node11"><a xlink:href="namespacewmtk_1_1components.html#a9d6d11e3b7ba03911492ecfc79622247" target="_top" xlink:title=" ">
<polygon fill="none" stroke="black" points="569,-0.5 569,-30.5 723,-30.5 723,-0.5 569,-0.5"/>
<text text-anchor="start" x="577" y="-18.5" font-family="Helvetica,sans-Serif" font-size="10.00">wmtk::components::triangle</text>
<text text-anchor="middle" x="646" y="-7.5" font-family="Helvetica,sans-Serif" font-size="10.00">_insertion</text>
</a>
</g>
</g>
<!-- Node1&#45;&gt;Node11 -->
<g id="edge10" class="edge">
<title>Node1&#45;&gt;Node11</title>
<path fill="none" stroke="midnightblue" d="M763.71,-46.75C743.88,-41.44 722.33,-35.67 703.21,-30.55"/>
<polygon fill="midnightblue" stroke="midnightblue" points="763.04,-50.19 773.6,-49.4 764.85,-43.43 763.04,-50.19"/>
</g>
<!-- Node3 -->
<g id="node3" class="node">
<title>Node3</title>
<g id="a_node3"><a xlink:href="namespacewmtk_1_1components_1_1multimesh.html#afd7e3fbf6613b1570cf648edfea6c9b9" target="_top" xlink:title=" ">
<polygon fill="none" stroke="black" points="364,-169.5 364,-199.5 533,-199.5 533,-169.5 364,-169.5"/>
<text text-anchor="start" x="372" y="-187.5" font-family="Helvetica,sans-Serif" font-size="10.00">wmtk::components::multimesh</text>
<text text-anchor="middle" x="448.5" y="-176.5" font-family="Helvetica,sans-Serif" font-size="10.00">::axis_aligned_fusion</text>
</a>
</g>
</g>
<!-- Node2&#45;&gt;Node3 -->
<g id="edge2" class="edge">
<title>Node2&#45;&gt;Node3</title>
<path fill="none" stroke="midnightblue" d="M602.88,-132.56C582.07,-141.61 556.46,-152.24 533,-160.5 524.18,-163.61 514.73,-166.62 505.48,-169.39"/>
<polygon fill="midnightblue" stroke="midnightblue" points="604.32,-135.74 612.07,-128.52 601.51,-129.34 604.32,-135.74"/>
</g>
<!-- Node4 -->
<g id="node4" class="node">
<title>Node4</title>
<g id="a_node4"><a xlink:href="namespacewmtk_1_1components_1_1internal.html#ae96e456a97cc6bb91612325fce6c6abb" target="_top" xlink:title=" ">
<polygon fill="none" stroke="black" points="371.5,-120.5 371.5,-150.5 525.5,-150.5 525.5,-120.5 371.5,-120.5"/>
<text text-anchor="start" x="379.5" y="-138.5" font-family="Helvetica,sans-Serif" font-size="10.00">wmtk::components::internal</text>
<text text-anchor="middle" x="448.5" y="-127.5" font-family="Helvetica,sans-Serif" font-size="10.00">::get_vf</text>
</a>
</g>
</g>
<!-- Node2&#45;&gt;Node4 -->
<g id="edge3" class="edge">
<title>Node2&#45;&gt;Node4</title>
<path fill="none" stroke="midnightblue" d="M560.65,-122.99C549,-124.3 537.08,-125.64 525.59,-126.94"/>
<polygon fill="midnightblue" stroke="midnightblue" points="561.27,-126.45 570.81,-121.85 560.48,-119.49 561.27,-126.45"/>
</g>
<!-- Node7 -->
<g id="node7" class="node">
<title>Node7</title>
<g id="a_node7"><a xlink:href="test__component__fusion_8cpp.html#ad717d3fcca492f6237e8e5f0e3455e4e" target="_top" xlink:title=" ">
<polygon fill="none" stroke="black" points="413,-82 413,-101 484,-101 484,-82 413,-82"/>
<text text-anchor="middle" x="448.5" y="-89" font-family="Helvetica,sans-Serif" font-size="10.00">TEST_CASE</text>
</a>
</g>
</g>
<!-- Node2&#45;&gt;Node7 -->
<g id="edge6" class="edge">
<title>Node2&#45;&gt;Node7</title>
<path fill="none" stroke="midnightblue" d="M560.58,-104C533.65,-100.97 505.35,-97.79 484.06,-95.39"/>
<polygon fill="midnightblue" stroke="midnightblue" points="560.48,-107.51 570.81,-105.15 561.27,-100.55 560.48,-107.51"/>
</g>
<!-- Node8 -->
<g id="node8" class="node">
<title>Node8</title>
<g id="a_node8"><a xlink:href="namespacewmtk_1_1components_1_1internal.html#a18a56f1ee7f5d72c7557922789a96802" target="_top" xlink:title=" ">
<polygon fill="none" stroke="black" points="371.5,-32.5 371.5,-62.5 525.5,-62.5 525.5,-32.5 371.5,-32.5"/>
<text text-anchor="start" x="379.5" y="-50.5" font-family="Helvetica,sans-Serif" font-size="10.00">wmtk::components::internal</text>
<text text-anchor="middle" x="448.5" y="-39.5" font-family="Helvetica,sans-Serif" font-size="10.00">::winding_number</text>
</a>
</g>
</g>
<!-- Node2&#45;&gt;Node8 -->
<g id="edge7" class="edge">
<title>Node2&#45;&gt;Node8</title>
<path fill="none" stroke="midnightblue" d="M587.22,-95.17C581.04,-93.01 574.87,-90.76 569,-88.5 552.66,-82.2 549.42,-78.58 533,-72.5 523.49,-68.98 513.24,-65.59 503.29,-62.5"/>
<polygon fill="midnightblue" stroke="midnightblue" points="586.31,-98.56 596.9,-98.49 588.58,-91.93 586.31,-98.56"/>
</g>
<!-- Node5 -->
<g id="node5" class="node">
<title>Node5</title>
<g id="a_node5"><a xlink:href="namespacewmtk_1_1components_1_1internal.html#aa5cef5f50f316f60f46180e6f84752f6" target="_top" xlink:title=" ">
<polygon fill="none" stroke="black" points="173.5,-120.5 173.5,-150.5 327.5,-150.5 327.5,-120.5 173.5,-120.5"/>
<text text-anchor="start" x="181.5" y="-138.5" font-family="Helvetica,sans-Serif" font-size="10.00">wmtk::components::internal</text>
<text text-anchor="middle" x="250.5" y="-127.5" font-family="Helvetica,sans-Serif" font-size="10.00">::CDT_internal</text>
</a>
</g>
</g>
<!-- Node4&#45;&gt;Node5 -->
<g id="edge4" class="edge">
<title>Node4&#45;&gt;Node5</title>
<path fill="none" stroke="midnightblue" d="M361.21,-135.5C349.99,-135.5 338.56,-135.5 327.52,-135.5"/>
<polygon fill="midnightblue" stroke="midnightblue" points="361.44,-139 371.44,-135.5 361.44,-132 361.44,-139"/>
</g>
<!-- Node6 -->
<g id="node6" class="node">
<title>Node6</title>
<g id="a_node6"><a xlink:href="namespacewmtk_1_1components.html#a7bf4c4516032a63182e16035aeacceb4" target="_top" xlink:title=" ">
<polygon fill="none" stroke="black" points="0,-126 0,-145 137,-145 137,-126 0,-126"/>
<text text-anchor="middle" x="68.5" y="-133" font-family="Helvetica,sans-Serif" font-size="10.00">wmtk::components::CDT</text>
</a>
</g>
</g>
<!-- Node5&#45;&gt;Node6 -->
<g id="edge5" class="edge">
<title>Node5&#45;&gt;Node6</title>
<path fill="none" stroke="midnightblue" d="M163.16,-135.5C154.39,-135.5 145.56,-135.5 137.03,-135.5"/>
<polygon fill="midnightblue" stroke="midnightblue" points="163.42,-139 173.42,-135.5 163.42,-132 163.42,-139"/>
</g>
<!-- Node9 -->
<g id="node9" class="node">
<title>Node9</title>
<g id="a_node9"><a xlink:href="namespacewmtk_1_1components.html#a888d10781e8251534aa853eb50316732" target="_top" xlink:title=" ">
<polygon fill="none" stroke="black" points="173,-32.5 173,-62.5 328,-62.5 328,-32.5 173,-32.5"/>
<text text-anchor="start" x="181" y="-50.5" font-family="Helvetica,sans-Serif" font-size="10.00">wmtk::components::winding</text>
<text text-anchor="middle" x="250.5" y="-39.5" font-family="Helvetica,sans-Serif" font-size="10.00">_number</text>
</a>
</g>
</g>
<!-- Node8&#45;&gt;Node9 -->
<g id="edge8" class="edge">
<title>Node8&#45;&gt;Node9</title>
<path fill="none" stroke="midnightblue" d="M361.36,-47.5C350.31,-47.5 339.05,-47.5 328.16,-47.5"/>
<polygon fill="midnightblue" stroke="midnightblue" points="361.44,-51 371.44,-47.5 361.44,-44 361.44,-51"/>
</g>
</g>
</svg>
