<?xml version="1.0" encoding="UTF-8" standalone="no"?>
<!DOCTYPE svg PUBLIC "-//W3C//DTD SVG 1.1//EN"
 "http://www.w3.org/Graphics/SVG/1.1/DTD/svg11.dtd">
<!-- Generated by graphviz version 2.43.0 (0)
 -->
<!-- Title: wmtk::operations::Operation::before Pages: 1 -->
<svg width="2141pt" height="683pt"
 viewBox="0.00 0.00 2141.00 683.00" xmlns="http://www.w3.org/2000/svg" xmlns:xlink="http://www.w3.org/1999/xlink">
<g id="graph0" class="graph" transform="scale(1 1) rotate(0) translate(4 679)">
<title>wmtk::operations::Operation::before</title>
<!-- Node1 -->
<g id="node1" class="node">
<title>Node1</title>
<g id="a_node1"><a xlink:title=" ">
<polygon fill="#bfbfbf" stroke="black" points="0,-93.5 0,-123.5 156,-123.5 156,-93.5 0,-93.5"/>
<text text-anchor="start" x="8" y="-111.5" font-family="Helvetica,sans-Serif" font-size="10.00">wmtk::operations::Operation</text>
<text text-anchor="middle" x="78" y="-100.5" font-family="Helvetica,sans-Serif" font-size="10.00">::before</text>
</a>
</g>
</g>
<!-- Node2 -->
<g id="node2" class="node">
<title>Node2</title>
<g id="a_node2"><a xlink:href="classwmtk_1_1invariants_1_1_invariant_collection.html#a77e630210caf679f60aaf91a27813dbd" target="_top" xlink:title=" ">
<polygon fill="none" stroke="black" points="195.5,-49.5 195.5,-79.5 344.5,-79.5 344.5,-49.5 195.5,-49.5"/>
<text text-anchor="start" x="203.5" y="-67.5" font-family="Helvetica,sans-Serif" font-size="10.00">wmtk::invariants::Invariant</text>
<text text-anchor="middle" x="270" y="-56.5" font-family="Helvetica,sans-Serif" font-size="10.00">Collection::before</text>
</a>
</g>
</g>
<!-- Node1&#45;&gt;Node2 -->
<g id="edge1" class="edge">
<title>Node1&#45;&gt;Node2</title>
<path fill="none" stroke="midnightblue" d="M143.86,-93.48C159.97,-89.75 177.37,-85.72 193.93,-81.88"/>
<polygon fill="midnightblue" stroke="midnightblue" points="195.16,-85.19 204.11,-79.53 193.58,-78.37 195.16,-85.19"/>
</g>
<!-- Node3 -->
<g id="node3" class="node">
<title>Node3</title>
<g id="a_node3"><a xlink:href="classwmtk_1_1invariants_1_1_invariant.html#ac97548bf5f1167cd85081d1bde011139" target="_top" xlink:title=" ">
<polygon fill="none" stroke="black" points="390,-87.5 390,-117.5 539,-117.5 539,-87.5 390,-87.5"/>
<text text-anchor="start" x="398" y="-105.5" font-family="Helvetica,sans-Serif" font-size="10.00">wmtk::invariants::Invariant</text>
<text text-anchor="middle" x="464.5" y="-94.5" font-family="Helvetica,sans-Serif" font-size="10.00">::mesh</text>
</a>
</g>
</g>
<!-- Node1&#45;&gt;Node3 -->
<g id="edge47" class="edge">
<title>Node1&#45;&gt;Node3</title>
<path fill="none" stroke="midnightblue" d="M156.35,-107.29C221.11,-106.28 313.36,-104.84 379.84,-103.81"/>
<polygon fill="midnightblue" stroke="midnightblue" points="379.92,-107.3 389.86,-103.65 379.81,-100.31 379.92,-107.3"/>
</g>
<!-- Node5 -->
<g id="node5" class="node">
<title>Node5</title>
<g id="a_node5"><a xlink:href="classwmtk_1_1_mesh.html#abe23d31a7ad54af38da1bf7b6e232cab" target="_top" xlink:title="maps a simplex from this mesh to any other mesh">
<polygon fill="none" stroke="black" points="218,-224 218,-243 322,-243 322,-224 218,-224"/>
<text text-anchor="middle" x="270" y="-231" font-family="Helvetica,sans-Serif" font-size="10.00">wmtk::Mesh::map</text>
</a>
</g>
</g>
<!-- Node1&#45;&gt;Node5 -->
<g id="edge4" class="edge">
<title>Node1&#45;&gt;Node5</title>
<path fill="none" stroke="midnightblue" d="M101.92,-123.58C138.31,-147.52 208.95,-193.99 245.63,-218.12"/>
<polygon fill="midnightblue" stroke="midnightblue" points="243.9,-221.18 254.18,-223.75 247.75,-215.33 243.9,-221.18"/>
</g>
<!-- Node36 -->
<g id="node36" class="node">
<title>Node36</title>
<g id="a_node36"><a xlink:href="classwmtk_1_1simplex_1_1_simplex.html#a3650fd31ff1864285502dba66db3c73c" target="_top" xlink:title=" ">
<polygon fill="none" stroke="black" points="1018,-139.5 1018,-169.5 1153,-169.5 1153,-139.5 1018,-139.5"/>
<text text-anchor="start" x="1026" y="-157.5" font-family="Helvetica,sans-Serif" font-size="10.00">wmtk::simplex::Simplex</text>
<text text-anchor="middle" x="1085.5" y="-146.5" font-family="Helvetica,sans-Serif" font-size="10.00">::tuple</text>
</a>
</g>
</g>
<!-- Node1&#45;&gt;Node36 -->
<g id="edge49" class="edge">
<title>Node1&#45;&gt;Node36</title>
<path fill="none" stroke="midnightblue" d="M156.14,-117.4C168.13,-118.58 180.39,-119.66 192,-120.5 493.24,-142.21 852.73,-150.57 1007.46,-153.32"/>
<polygon fill="midnightblue" stroke="midnightblue" points="1007.74,-156.83 1017.8,-153.5 1007.86,-149.83 1007.74,-156.83"/>
</g>
<!-- Node38 -->
<g id="node38" class="node">
<title>Node38</title>
<g id="a_node38"><a xlink:href="classwmtk_1_1operations_1_1_operation.html#a524a78a76bb262cffcaafdd36afa037b" target="_top" xlink:title=" ">
<polygon fill="none" stroke="black" points="192,-0.5 192,-30.5 348,-30.5 348,-0.5 192,-0.5"/>
<text text-anchor="start" x="200" y="-18.5" font-family="Helvetica,sans-Serif" font-size="10.00">wmtk::operations::Operation</text>
<text text-anchor="middle" x="270" y="-7.5" font-family="Helvetica,sans-Serif" font-size="10.00">::mesh</text>
</a>
</g>
</g>
<!-- Node1&#45;&gt;Node38 -->
<g id="edge48" class="edge">
<title>Node1&#45;&gt;Node38</title>
<path fill="none" stroke="midnightblue" d="M100.21,-93.35C122.28,-78.12 158.29,-54.76 192,-39.5 196.13,-37.63 200.45,-35.85 204.84,-34.17"/>
<polygon fill="midnightblue" stroke="midnightblue" points="206.32,-37.35 214.52,-30.63 203.93,-30.77 206.32,-37.35"/>
</g>
<!-- Node2&#45;&gt;Node3 -->
<g id="edge2" class="edge">
<title>Node2&#45;&gt;Node3</title>
<path fill="none" stroke="midnightblue" d="M344.6,-79.03C356.21,-81.32 368.28,-83.7 380.1,-86.04"/>
<polygon fill="midnightblue" stroke="midnightblue" points="379.45,-89.48 389.94,-87.98 380.81,-82.61 379.45,-89.48"/>
</g>
<!-- Node4 -->
<g id="node4" class="node">
<title>Node4</title>
<g id="a_node4"><a xlink:href="classwmtk_1_1simplex_1_1_simplex.html#ad2cc0340a0772b7d6f03ba7a781d1163" target="_top" xlink:title=" ">
<polygon fill="none" stroke="black" points="1707.5,-174.5 1707.5,-204.5 1842.5,-204.5 1842.5,-174.5 1707.5,-174.5"/>
<text text-anchor="start" x="1715.5" y="-192.5" font-family="Helvetica,sans-Serif" font-size="10.00">wmtk::simplex::Simplex</text>
<text text-anchor="middle" x="1775" y="-181.5" font-family="Helvetica,sans-Serif" font-size="10.00">::primitive_type</text>
</a>
</g>
</g>
<!-- Node2&#45;&gt;Node4 -->
<g id="edge3" class="edge">
<title>Node2&#45;&gt;Node4</title>
<path fill="none" stroke="midnightblue" d="M344.62,-62.72C424.04,-60.95 554.22,-58.5 666.5,-58.5 666.5,-58.5 666.5,-58.5 1326,-58.5 1465.9,-58.5 1502.74,-72.9 1635,-118.5 1672.98,-131.59 1713.58,-153.33 1741.04,-169.31"/>
<polygon fill="midnightblue" stroke="midnightblue" points="1739.43,-172.43 1749.82,-174.49 1742.98,-166.4 1739.43,-172.43"/>
</g>
<!-- Node6 -->
<g id="node6" class="node">
<title>Node6</title>
<g id="a_node6"><a xlink:href="classwmtk_1_1_mesh.html#ad054c074d4776010002321117ec459e8" target="_top" xlink:title=" ">
<polygon fill="none" stroke="black" points="384,-294.5 384,-324.5 545,-324.5 545,-294.5 384,-294.5"/>
<text text-anchor="start" x="392" y="-312.5" font-family="Helvetica,sans-Serif" font-size="10.00">wmtk::Mesh::is_from</text>
<text text-anchor="middle" x="464.5" y="-301.5" font-family="Helvetica,sans-Serif" font-size="10.00">_same_multi_mesh_structure</text>
</a>
</g>
</g>
<!-- Node5&#45;&gt;Node6 -->
<g id="edge5" class="edge">
<title>Node5&#45;&gt;Node6</title>
<path fill="none" stroke="midnightblue" d="M295.38,-243.13C325.6,-255.06 377.78,-275.66 416.01,-290.75"/>
<polygon fill="midnightblue" stroke="midnightblue" points="414.82,-294.04 425.4,-294.46 417.39,-287.53 414.82,-294.04"/>
</g>
<!-- Node10 -->
<g id="node10" class="node">
<title>Node10</title>
<g id="a_node10"><a xlink:href="classwmtk_1_1multimesh_1_1_multi_mesh_manager.html#a99b3819552ae63c825dd77bebbd65040" target="_top" xlink:title="maps a simplex from this mesh to any other mesh">
<polygon fill="none" stroke="black" points="384.5,-218.5 384.5,-248.5 544.5,-248.5 544.5,-218.5 384.5,-218.5"/>
<text text-anchor="start" x="392.5" y="-236.5" font-family="Helvetica,sans-Serif" font-size="10.00">wmtk::multimesh::MultiMesh</text>
<text text-anchor="middle" x="464.5" y="-225.5" font-family="Helvetica,sans-Serif" font-size="10.00">Manager::map</text>
</a>
</g>
</g>
<!-- Node5&#45;&gt;Node10 -->
<g id="edge10" class="edge">
<title>Node5&#45;&gt;Node10</title>
<path fill="none" stroke="midnightblue" d="M322.08,-233.5C338,-233.5 356.06,-233.5 373.81,-233.5"/>
<polygon fill="midnightblue" stroke="midnightblue" points="374.21,-237 384.21,-233.5 374.21,-230 374.21,-237"/>
</g>
<!-- Node7 -->
<g id="node7" class="node">
<title>Node7</title>
<g id="a_node7"><a xlink:href="classwmtk_1_1_mesh.html#aac3ec1ebbe00982ddfe70cc710d8f54e" target="_top" xlink:title="returns a reference to the root of a multimesh tree">
<polygon fill="none" stroke="black" points="603,-344.5 603,-374.5 732,-374.5 732,-344.5 603,-344.5"/>
<text text-anchor="start" x="611" y="-362.5" font-family="Helvetica,sans-Serif" font-size="10.00">wmtk::Mesh::get_multi</text>
<text text-anchor="middle" x="667.5" y="-351.5" font-family="Helvetica,sans-Serif" font-size="10.00">_mesh_root</text>
</a>
</g>
</g>
<!-- Node6&#45;&gt;Node7 -->
<g id="edge6" class="edge">
<title>Node6&#45;&gt;Node7</title>
<path fill="none" stroke="midnightblue" d="M525.81,-324.5C547.87,-329.99 573.02,-336.25 595.9,-341.94"/>
<polygon fill="midnightblue" stroke="midnightblue" points="595.34,-345.41 605.89,-344.42 597.03,-338.61 595.34,-345.41"/>
</g>
<!-- Node8 -->
<g id="node8" class="node">
<title>Node8</title>
<g id="a_node8"><a xlink:href="classwmtk_1_1multimesh_1_1_multi_mesh_manager.html#a434e74f6b295055a45914d41a784124a" target="_top" xlink:title=" ">
<polygon fill="none" stroke="black" points="790,-372.5 790,-402.5 950,-402.5 950,-372.5 790,-372.5"/>
<text text-anchor="start" x="798" y="-390.5" font-family="Helvetica,sans-Serif" font-size="10.00">wmtk::multimesh::MultiMesh</text>
<text text-anchor="middle" x="870" y="-379.5" font-family="Helvetica,sans-Serif" font-size="10.00">Manager::get_root_mesh</text>
</a>
</g>
</g>
<!-- Node7&#45;&gt;Node8 -->
<g id="edge7" class="edge">
<title>Node7&#45;&gt;Node8</title>
<path fill="none" stroke="midnightblue" d="M732.21,-368.4C747.41,-370.52 763.9,-372.82 780,-375.07"/>
<polygon fill="midnightblue" stroke="midnightblue" points="779.57,-378.54 789.95,-376.46 780.54,-371.61 779.57,-378.54"/>
</g>
<!-- Node8&#45;&gt;Node8 -->
<g id="edge8" class="edge">
<title>Node8&#45;&gt;Node8</title>
<path fill="none" stroke="midnightblue" d="M834.8,-402.66C826.31,-412.06 838.04,-421 870,-421 889.47,-421 901.44,-417.68 905.89,-412.96"/>
<polygon fill="midnightblue" stroke="midnightblue" points="909.36,-412.4 905.2,-402.66 902.38,-412.87 909.36,-412.4"/>
</g>
<!-- Node9 -->
<g id="node9" class="node">
<title>Node9</title>
<g id="a_node9"><a xlink:href="classwmtk_1_1multimesh_1_1_multi_mesh_manager.html#a7d39339adb56b1798fe817d81bfcc67c" target="_top" xlink:title="Specifies whether this structure is the root of a multi&#45;mesh tree.">
<polygon fill="none" stroke="black" points="1245,-371.5 1245,-401.5 1405,-401.5 1405,-371.5 1245,-371.5"/>
<text text-anchor="start" x="1253" y="-389.5" font-family="Helvetica,sans-Serif" font-size="10.00">wmtk::multimesh::MultiMesh</text>
<text text-anchor="middle" x="1325" y="-378.5" font-family="Helvetica,sans-Serif" font-size="10.00">Manager::is_root</text>
</a>
</g>
</g>
<!-- Node8&#45;&gt;Node9 -->
<g id="edge9" class="edge">
<title>Node8&#45;&gt;Node9</title>
<path fill="none" stroke="midnightblue" d="M950.17,-387.33C1029.66,-387.15 1151.92,-386.88 1234.79,-386.7"/>
<polygon fill="midnightblue" stroke="midnightblue" points="1234.96,-390.2 1244.95,-386.67 1234.94,-383.2 1234.96,-390.2"/>
</g>
<!-- Node10&#45;&gt;Node4 -->
<g id="edge45" class="edge">
<title>Node10&#45;&gt;Node4</title>
<path fill="none" stroke="midnightblue" d="M509.94,-218.42C610.82,-185.57 865.37,-110.5 1084.5,-110.5 1084.5,-110.5 1084.5,-110.5 1326,-110.5 1466.16,-110.5 1627.3,-148.47 1712.97,-171.76"/>
<polygon fill="midnightblue" stroke="midnightblue" points="1712.21,-175.18 1722.78,-174.45 1714.06,-168.43 1712.21,-175.18"/>
</g>
<!-- Node11 -->
<g id="node11" class="node">
<title>Node11</title>
<g id="a_node11"><a xlink:href="classwmtk_1_1multimesh_1_1_multi_mesh_manager.html#acaaab688faff0e1b2d9142d6cc128e46" target="_top" xlink:title="maps a simplex from this mesh to any other mesh">
<polygon fill="none" stroke="black" points="587.5,-273.5 587.5,-303.5 747.5,-303.5 747.5,-273.5 587.5,-273.5"/>
<text text-anchor="start" x="595.5" y="-291.5" font-family="Helvetica,sans-Serif" font-size="10.00">wmtk::multimesh::MultiMesh</text>
<text text-anchor="middle" x="667.5" y="-280.5" font-family="Helvetica,sans-Serif" font-size="10.00">Manager::map_tuples</text>
</a>
</g>
</g>
<!-- Node10&#45;&gt;Node11 -->
<g id="edge11" class="edge">
<title>Node10&#45;&gt;Node11</title>
<path fill="none" stroke="midnightblue" d="M520.42,-248.53C545.57,-255.41 575.55,-263.61 601.79,-270.79"/>
<polygon fill="midnightblue" stroke="midnightblue" points="601.07,-274.23 611.64,-273.49 602.92,-267.47 601.07,-274.23"/>
</g>
<!-- Node37 -->
<g id="node37" class="node">
<title>Node37</title>
<g id="a_node37"><a xlink:href="namespacewmtk_1_1simplex_1_1utils.html#a358c30268c189fc8f00538b520aab4f8" target="_top" xlink:title=" ">
<polygon fill="none" stroke="black" points="581,-213 581,-254 754,-254 754,-213 581,-213"/>
<text text-anchor="start" x="589" y="-242" font-family="Helvetica,sans-Serif" font-size="10.00">wmtk::simplex::utils</text>
<text text-anchor="start" x="589" y="-231" font-family="Helvetica,sans-Serif" font-size="10.00">::tuple_vector_to_homogeneous</text>
<text text-anchor="middle" x="667.5" y="-220" font-family="Helvetica,sans-Serif" font-size="10.00">_simplex_vector</text>
</a>
</g>
</g>
<!-- Node10&#45;&gt;Node37 -->
<g id="edge46" class="edge">
<title>Node10&#45;&gt;Node37</title>
<path fill="none" stroke="midnightblue" d="M544.65,-233.5C553.18,-233.5 561.92,-233.5 570.62,-233.5"/>
<polygon fill="midnightblue" stroke="midnightblue" points="570.79,-237 580.79,-233.5 570.79,-230 570.79,-237"/>
</g>
<!-- Node11&#45;&gt;Node4 -->
<g id="edge44" class="edge">
<title>Node11&#45;&gt;Node4</title>
<path fill="none" stroke="midnightblue" d="M735.18,-273.38C741.79,-270.61 748.2,-267.34 754,-263.5 775.07,-249.55 767.57,-231.13 790,-219.5 906.51,-159.12 953.28,-198.5 1084.5,-198.5 1084.5,-198.5 1084.5,-198.5 1326,-198.5 1456.34,-198.5 1607.96,-194.65 1697.18,-191.98"/>
<polygon fill="midnightblue" stroke="midnightblue" points="1697.33,-195.48 1707.22,-191.68 1697.11,-188.48 1697.33,-195.48"/>
</g>
<!-- Node12 -->
<g id="node12" class="node">
<title>Node12</title>
<g id="a_node12"><a xlink:href="classwmtk_1_1multimesh_1_1_multi_mesh_manager.html#a812e0992812b2c48a889e10ae9e50758" target="_top" xlink:title=" ">
<polygon fill="none" stroke="black" points="1005.5,-316.5 1005.5,-346.5 1165.5,-346.5 1165.5,-316.5 1005.5,-316.5"/>
<text text-anchor="start" x="1013.5" y="-334.5" font-family="Helvetica,sans-Serif" font-size="10.00">wmtk::multimesh::MultiMesh</text>
<text text-anchor="middle" x="1085.5" y="-323.5" font-family="Helvetica,sans-Serif" font-size="10.00">Manager::absolute_id</text>
</a>
</g>
</g>
<!-- Node11&#45;&gt;Node12 -->
<g id="edge12" class="edge">
<title>Node11&#45;&gt;Node12</title>
<path fill="none" stroke="midnightblue" d="M747.57,-292.03C804.1,-295.07 881.9,-300.28 950,-308.5 964.76,-310.28 980.36,-312.57 995.51,-315.01"/>
<polygon fill="midnightblue" stroke="midnightblue" points="994.96,-318.47 1005.39,-316.64 996.09,-311.56 994.96,-318.47"/>
</g>
<!-- Node13 -->
<g id="node13" class="node">
<title>Node13</title>
<g id="a_node13"><a xlink:href="classwmtk_1_1_mesh.html#a2102fdea06a0c543437e67d77aeb2013" target="_top" xlink:title="returns a unique identifier for this mesh within a single multimesh structure">
<polygon fill="none" stroke="black" points="807.5,-317.5 807.5,-347.5 932.5,-347.5 932.5,-317.5 807.5,-317.5"/>
<text text-anchor="start" x="815.5" y="-335.5" font-family="Helvetica,sans-Serif" font-size="10.00">wmtk::Mesh::absolute</text>
<text text-anchor="middle" x="870" y="-324.5" font-family="Helvetica,sans-Serif" font-size="10.00">_multi_mesh_id</text>
</a>
</g>
</g>
<!-- Node11&#45;&gt;Node13 -->
<g id="edge15" class="edge">
<title>Node11&#45;&gt;Node13</title>
<path fill="none" stroke="midnightblue" d="M736.94,-303.52C756.45,-307.8 777.75,-312.47 797.43,-316.79"/>
<polygon fill="midnightblue" stroke="midnightblue" points="796.74,-320.23 807.26,-318.95 798.24,-313.39 796.74,-320.23"/>
</g>
<!-- Node14 -->
<g id="node14" class="node">
<title>Node14</title>
<g id="a_node14"><a xlink:href="classwmtk_1_1multimesh_1_1_multi_mesh_manager.html#aefe5179057c978e227c3349d13578c4a" target="_top" xlink:title=" ">
<polygon fill="none" stroke="black" points="790,-228.5 790,-258.5 950,-258.5 950,-228.5 790,-228.5"/>
<text text-anchor="start" x="798" y="-246.5" font-family="Helvetica,sans-Serif" font-size="10.00">wmtk::multimesh::MultiMesh</text>
<text text-anchor="middle" x="870" y="-235.5" font-family="Helvetica,sans-Serif" font-size="10.00">Manager::map_up_to_tuples</text>
</a>
</g>
</g>
<!-- Node11&#45;&gt;Node14 -->
<g id="edge17" class="edge">
<title>Node11&#45;&gt;Node14</title>
<path fill="none" stroke="midnightblue" d="M735.54,-273.45C753.68,-269.38 773.46,-264.94 792.1,-260.76"/>
<polygon fill="midnightblue" stroke="midnightblue" points="793.03,-264.14 802.02,-258.53 791.5,-257.31 793.03,-264.14"/>
</g>
<!-- Node12&#45;&gt;Node9 -->
<g id="edge14" class="edge">
<title>Node12&#45;&gt;Node9</title>
<path fill="none" stroke="midnightblue" d="M1151.4,-346.53C1181.64,-353.53 1217.79,-361.9 1249.17,-369.17"/>
<polygon fill="midnightblue" stroke="midnightblue" points="1248.65,-372.64 1259.18,-371.49 1250.23,-365.82 1248.65,-372.64"/>
</g>
<!-- Node12&#45;&gt;Node12 -->
<g id="edge13" class="edge">
<title>Node12&#45;&gt;Node12</title>
<path fill="none" stroke="midnightblue" d="M1048.21,-346.66C1039.21,-356.06 1051.64,-365 1085.5,-365 1106.13,-365 1118.81,-361.68 1123.53,-356.96"/>
<polygon fill="midnightblue" stroke="midnightblue" points="1126.99,-356.39 1122.79,-346.66 1120.01,-356.88 1126.99,-356.39"/>
</g>
<!-- Node13&#45;&gt;Node12 -->
<g id="edge16" class="edge">
<title>Node13&#45;&gt;Node12</title>
<path fill="none" stroke="midnightblue" d="M932.75,-332.21C952.23,-332.12 974.15,-332.02 995.14,-331.92"/>
<polygon fill="midnightblue" stroke="midnightblue" points="995.38,-335.42 1005.36,-331.87 995.34,-328.42 995.38,-335.42"/>
</g>
<!-- Node14&#45;&gt;Node4 -->
<g id="edge42" class="edge">
<title>Node14&#45;&gt;Node4</title>
<path fill="none" stroke="midnightblue" d="M950.14,-243.5C1089.11,-242.79 1385.91,-238.06 1635,-212.5 1655.3,-210.42 1677.12,-207.25 1697.33,-203.93"/>
<polygon fill="midnightblue" stroke="midnightblue" points="1698.13,-207.34 1707.41,-202.23 1696.97,-200.44 1698.13,-207.34"/>
</g>
<!-- Node15 -->
<g id="node15" class="node">
<title>Node15</title>
<g id="a_node15"><a xlink:href="classwmtk_1_1multimesh_1_1_multi_mesh_manager.html#af6fd8d8b5cc1e8b2c877718b99374f03" target="_top" xlink:title=" ">
<polygon fill="none" stroke="black" points="986,-267.5 986,-297.5 1185,-297.5 1185,-267.5 986,-267.5"/>
<text text-anchor="start" x="994" y="-285.5" font-family="Helvetica,sans-Serif" font-size="10.00">wmtk::multimesh::MultiMesh</text>
<text text-anchor="middle" x="1085.5" y="-274.5" font-family="Helvetica,sans-Serif" font-size="10.00">Manager::map_tuple_to_parent_tuple</text>
</a>
</g>
</g>
<!-- Node14&#45;&gt;Node15 -->
<g id="edge18" class="edge">
<title>Node14&#45;&gt;Node15</title>
<path fill="none" stroke="midnightblue" d="M950.2,-257.97C963.85,-260.46 978.15,-263.07 992.12,-265.62"/>
<polygon fill="midnightblue" stroke="midnightblue" points="991.75,-269.12 1002.22,-267.47 993.01,-262.23 991.75,-269.12"/>
</g>
<!-- Node14&#45;&gt;Node36 -->
<g id="edge43" class="edge">
<title>Node14&#45;&gt;Node36</title>
<path fill="none" stroke="midnightblue" d="M907.22,-228.4C943.52,-213.27 999.52,-189.92 1038.85,-173.53"/>
<polygon fill="midnightblue" stroke="midnightblue" points="1040.58,-176.6 1048.46,-169.52 1037.89,-170.14 1040.58,-176.6"/>
</g>
<!-- Node15&#45;&gt;Node9 -->
<g id="edge20" class="edge">
<title>Node15&#45;&gt;Node9</title>
<path fill="none" stroke="midnightblue" d="M1167.26,-297.54C1173.54,-300.32 1179.54,-303.61 1185,-307.5 1208.78,-324.47 1197.06,-345.76 1221,-362.5 1225.51,-365.66 1230.39,-368.4 1235.47,-370.79"/>
<polygon fill="midnightblue" stroke="midnightblue" points="1234.24,-374.07 1244.81,-374.72 1236.95,-367.62 1234.24,-374.07"/>
</g>
<!-- Node16 -->
<g id="node16" class="node">
<title>Node16</title>
<g id="a_node16"><a xlink:href="classwmtk_1_1_mesh.html#a4a20dcdac339e7a4f6f8a6570114cbe6" target="_top" xlink:title=" ">
<polygon fill="none" stroke="black" points="1268.5,-267.5 1268.5,-297.5 1381.5,-297.5 1381.5,-267.5 1268.5,-267.5"/>
<text text-anchor="start" x="1276.5" y="-285.5" font-family="Helvetica,sans-Serif" font-size="10.00">wmtk::Mesh::create</text>
<text text-anchor="middle" x="1325" y="-274.5" font-family="Helvetica,sans-Serif" font-size="10.00">_const_accessor</text>
</a>
</g>
</g>
<!-- Node15&#45;&gt;Node16 -->
<g id="edge19" class="edge">
<title>Node15&#45;&gt;Node16</title>
<path fill="none" stroke="midnightblue" d="M1185.16,-282.5C1209.8,-282.5 1235.64,-282.5 1258.25,-282.5"/>
<polygon fill="midnightblue" stroke="midnightblue" points="1258.4,-286 1268.4,-282.5 1258.4,-279 1258.4,-286"/>
</g>
<!-- Node17 -->
<g id="node17" class="node">
<title>Node17</title>
<g id="a_node17"><a xlink:href="classwmtk_1_1multimesh_1_1_multi_mesh_manager.html#a6f9186ced3e97aef2a0af71a3aa5c6a0" target="_top" xlink:title=" ">
<polygon fill="none" stroke="black" points="1221,-322.5 1221,-352.5 1429,-352.5 1429,-322.5 1221,-322.5"/>
<text text-anchor="start" x="1229" y="-340.5" font-family="Helvetica,sans-Serif" font-size="10.00">wmtk::multimesh::MultiMesh</text>
<text text-anchor="middle" x="1325" y="-329.5" font-family="Helvetica,sans-Serif" font-size="10.00">Manager::map_tuple_between_meshes</text>
</a>
</g>
</g>
<!-- Node15&#45;&gt;Node17 -->
<g id="edge21" class="edge">
<title>Node15&#45;&gt;Node17</title>
<path fill="none" stroke="midnightblue" d="M1151.4,-297.53C1181.64,-304.53 1217.79,-312.9 1249.17,-320.17"/>
<polygon fill="midnightblue" stroke="midnightblue" points="1248.65,-323.64 1259.18,-322.49 1250.23,-316.82 1248.65,-323.64"/>
</g>
<!-- Node18 -->
<g id="node18" class="node">
<title>Node18</title>
<g id="a_node18"><a xlink:href="classwmtk_1_1_mesh.html#a8cc8686f0688613806f43720b6db49e7" target="_top" xlink:title="check validity of tuple including its hash">
<polygon fill="none" stroke="black" points="1490,-317 1490,-336 1610,-336 1610,-317 1490,-317"/>
<text text-anchor="middle" x="1550" y="-324" font-family="Helvetica,sans-Serif" font-size="10.00">wmtk::Mesh::is_valid</text>
</a>
</g>
</g>
<!-- Node17&#45;&gt;Node18 -->
<g id="edge22" class="edge">
<title>Node17&#45;&gt;Node18</title>
<path fill="none" stroke="midnightblue" d="M1429.01,-332.42C1446.15,-331.57 1463.55,-330.72 1479.58,-329.92"/>
<polygon fill="midnightblue" stroke="midnightblue" points="1480.1,-333.4 1489.91,-329.41 1479.75,-326.41 1480.1,-333.4"/>
</g>
<!-- Node21 -->
<g id="node21" class="node">
<title>Node21</title>
<g id="a_node21"><a xlink:href="namespacewmtk_1_1multimesh_1_1utils.html#a7d748ef4839b09a5460e8af97b9fa678" target="_top" xlink:title=" ">
<polygon fill="none" stroke="black" points="1475.5,-546.5 1475.5,-576.5 1624.5,-576.5 1624.5,-546.5 1475.5,-546.5"/>
<text text-anchor="start" x="1483.5" y="-564.5" font-family="Helvetica,sans-Serif" font-size="10.00">wmtk::multimesh::utils</text>
<text text-anchor="middle" x="1550" y="-553.5" font-family="Helvetica,sans-Serif" font-size="10.00">::read_tuple_map_attribute</text>
</a>
</g>
</g>
<!-- Node17&#45;&gt;Node21 -->
<g id="edge25" class="edge">
<title>Node17&#45;&gt;Node21</title>
<path fill="none" stroke="midnightblue" d="M1415.72,-352.67C1420.51,-355.45 1424.99,-358.7 1429,-362.5 1469.41,-400.81 1435.72,-435.14 1465,-482.5 1479.06,-505.24 1501.31,-525.75 1519.38,-540.17"/>
<polygon fill="midnightblue" stroke="midnightblue" points="1517.3,-542.99 1527.34,-546.36 1521.59,-537.46 1517.3,-542.99"/>
</g>
<!-- Node26 -->
<g id="node26" class="node">
<title>Node26</title>
<g id="a_node26"><a xlink:href="classwmtk_1_1_mesh.html#a965a8a24158c4aa8580c57ba09f885f7" target="_top" xlink:title="switch the orientation of the Tuple of the given dimension">
<polygon fill="none" stroke="black" points="1493,-404.5 1493,-434.5 1607,-434.5 1607,-404.5 1493,-404.5"/>
<text text-anchor="start" x="1501" y="-422.5" font-family="Helvetica,sans-Serif" font-size="10.00">wmtk::Mesh::switch</text>
<text text-anchor="middle" x="1550" y="-411.5" font-family="Helvetica,sans-Serif" font-size="10.00">_tuple</text>
</a>
</g>
</g>
<!-- Node17&#45;&gt;Node26 -->
<g id="edge30" class="edge">
<title>Node17&#45;&gt;Node26</title>
<path fill="none" stroke="midnightblue" d="M1405.68,-352.51C1413.77,-355.3 1421.69,-358.6 1429,-362.5 1448.15,-372.72 1446.06,-384.9 1465,-395.5 1470.78,-398.73 1477.03,-401.56 1483.43,-404.03"/>
<polygon fill="midnightblue" stroke="midnightblue" points="1482.27,-407.33 1492.86,-407.39 1484.62,-400.74 1482.27,-407.33"/>
</g>
<!-- Node27 -->
<g id="node27" class="node">
<title>Node27</title>
<g id="a_node27"><a xlink:href="namespacewmtk_1_1simplex.html#a0101f27eb2ad82814390b92ab1a4d1a0" target="_top" xlink:title=" ">
<polygon fill="none" stroke="black" points="1474.5,-265.5 1474.5,-295.5 1625.5,-295.5 1625.5,-265.5 1474.5,-265.5"/>
<text text-anchor="start" x="1482.5" y="-283.5" font-family="Helvetica,sans-Serif" font-size="10.00">wmtk::simplex::top</text>
<text text-anchor="middle" x="1550" y="-272.5" font-family="Helvetica,sans-Serif" font-size="10.00">_dimension_cofaces_tuples</text>
</a>
</g>
</g>
<!-- Node17&#45;&gt;Node27 -->
<g id="edge31" class="edge">
<title>Node17&#45;&gt;Node27</title>
<path fill="none" stroke="midnightblue" d="M1384.88,-322.45C1414.22,-314.95 1449.88,-305.84 1480.44,-298.02"/>
<polygon fill="midnightblue" stroke="midnightblue" points="1481.35,-301.4 1490.17,-295.54 1479.62,-294.62 1481.35,-301.4"/>
</g>
<!-- Node32 -->
<g id="node32" class="node">
<title>Node32</title>
<g id="a_node32"><a xlink:href="classwmtk_1_1_mesh.html#abaf00438d0700358b160e310d69725c9" target="_top" xlink:title=" ">
<polygon fill="none" stroke="black" points="1465,-454 1465,-473 1635,-473 1635,-454 1465,-454"/>
<text text-anchor="middle" x="1550" y="-461" font-family="Helvetica,sans-Serif" font-size="10.00">wmtk::Mesh::top_simplex_type</text>
</a>
</g>
</g>
<!-- Node17&#45;&gt;Node32 -->
<g id="edge37" class="edge">
<title>Node17&#45;&gt;Node32</title>
<path fill="none" stroke="midnightblue" d="M1414.21,-352.74C1419.49,-355.49 1424.49,-358.72 1429,-362.5 1459.5,-388.07 1434.3,-419.17 1465,-444.5 1467.02,-446.17 1469.15,-447.69 1471.38,-449.09"/>
<polygon fill="midnightblue" stroke="midnightblue" points="1469.89,-452.26 1480.36,-453.88 1473.18,-446.09 1469.89,-452.26"/>
</g>
<!-- Node34 -->
<g id="node34" class="node">
<title>Node34</title>
<g id="a_node34"><a xlink:href="namespacewmtk_1_1multimesh_1_1utils.html#aa0392bf28bb6c304127cf0eea634fee8" target="_top" xlink:title=" ">
<polygon fill="none" stroke="black" points="1485,-355.5 1485,-385.5 1615,-385.5 1615,-355.5 1485,-355.5"/>
<text text-anchor="start" x="1493" y="-373.5" font-family="Helvetica,sans-Serif" font-size="10.00">wmtk::multimesh::utils</text>
<text text-anchor="middle" x="1550" y="-362.5" font-family="Helvetica,sans-Serif" font-size="10.00">::transport_tuple</text>
</a>
</g>
</g>
<!-- Node17&#45;&gt;Node34 -->
<g id="edge39" class="edge">
<title>Node17&#45;&gt;Node34</title>
<path fill="none" stroke="midnightblue" d="M1427.39,-352.5C1443.28,-354.86 1459.45,-357.25 1474.59,-359.49"/>
<polygon fill="midnightblue" stroke="midnightblue" points="1474.48,-363.01 1484.89,-361.01 1475.51,-356.09 1474.48,-363.01"/>
</g>
<!-- Node19 -->
<g id="node19" class="node">
<title>Node19</title>
<g id="a_node19"><a xlink:href="classwmtk_1_1_tuple.html#a0023f575be92cd5ceeeaaaa3762ea06d" target="_top" xlink:title="Checks if a tuple is &quot;null&quot;. This merely implies the global index is &#45;1.">
<polygon fill="none" stroke="black" points="1718.5,-312 1718.5,-331 1831.5,-331 1831.5,-312 1718.5,-312"/>
<text text-anchor="middle" x="1775" y="-319" font-family="Helvetica,sans-Serif" font-size="10.00">wmtk::Tuple::is_null</text>
</a>
</g>
</g>
<!-- Node18&#45;&gt;Node19 -->
<g id="edge23" class="edge">
<title>Node18&#45;&gt;Node19</title>
<path fill="none" stroke="midnightblue" d="M1610.17,-325.17C1640.32,-324.5 1677.05,-323.67 1708.1,-322.98"/>
<polygon fill="midnightblue" stroke="midnightblue" points="1708.47,-326.47 1718.39,-322.75 1708.31,-319.47 1708.47,-326.47"/>
</g>
<!-- Node20 -->
<g id="node20" class="node">
<title>Node20</title>
<g id="a_node20"><a xlink:href="classwmtk_1_1_mesh.html#ade176d345902d97af8c5da04aa3a095b" target="_top" xlink:title=" ">
<polygon fill="none" stroke="black" points="1705,-350 1705,-369 1845,-369 1845,-350 1705,-350"/>
<text text-anchor="middle" x="1775" y="-357" font-family="Helvetica,sans-Serif" font-size="10.00">wmtk::Mesh::is_removed</text>
</a>
</g>
</g>
<!-- Node18&#45;&gt;Node20 -->
<g id="edge24" class="edge">
<title>Node18&#45;&gt;Node20</title>
<path fill="none" stroke="midnightblue" d="M1610.17,-335.26C1637.53,-339.3 1670.32,-344.16 1699.35,-348.45"/>
<polygon fill="midnightblue" stroke="midnightblue" points="1699.05,-351.95 1709.45,-349.95 1700.07,-345.02 1699.05,-351.95"/>
</g>
<!-- Node22 -->
<g id="node22" class="node">
<title>Node22</title>
<g id="a_node22"><a xlink:href="classwmtk_1_1attribute_1_1_accessor.html#ada896c7e7910630ca0d3424baa3c3258" target="_top" xlink:title=" ">
<polygon fill="none" stroke="black" points="1704,-497.5 1704,-527.5 1846,-527.5 1846,-497.5 1704,-497.5"/>
<text text-anchor="start" x="1712" y="-515.5" font-family="Helvetica,sans-Serif" font-size="10.00">wmtk::attribute::Accessor</text>
<text text-anchor="middle" x="1775" y="-504.5" font-family="Helvetica,sans-Serif" font-size="10.00">::const_vector_attribute</text>
</a>
</g>
</g>
<!-- Node21&#45;&gt;Node22 -->
<g id="edge26" class="edge">
<title>Node21&#45;&gt;Node22</title>
<path fill="none" stroke="midnightblue" d="M1619.42,-546.47C1643.61,-541.15 1670.99,-535.13 1695.92,-529.66"/>
<polygon fill="midnightblue" stroke="midnightblue" points="1696.69,-533.07 1705.71,-527.51 1695.19,-526.23 1696.69,-533.07"/>
</g>
<!-- Node23 -->
<g id="node23" class="node">
<title>Node23</title>
<g id="a_node23"><a xlink:href="classwmtk_1_1attribute_1_1_tuple_accessor.html#a02e28a9bbd718342f581c95bbe9710a7" target="_top" xlink:title=" ">
<polygon fill="none" stroke="black" points="1691.5,-644.5 1691.5,-674.5 1858.5,-674.5 1858.5,-644.5 1691.5,-644.5"/>
<text text-anchor="start" x="1699.5" y="-662.5" font-family="Helvetica,sans-Serif" font-size="10.00">wmtk::attribute::TupleAccessor</text>
<text text-anchor="middle" x="1775" y="-651.5" font-family="Helvetica,sans-Serif" font-size="10.00">::const_vector_attribute</text>
</a>
</g>
</g>
<!-- Node21&#45;&gt;Node23 -->
<g id="edge27" class="edge">
<title>Node21&#45;&gt;Node23</title>
<path fill="none" stroke="midnightblue" d="M1571.14,-576.77C1594.13,-593.5 1633.43,-620.02 1671,-635.5 1676.15,-637.62 1681.52,-639.57 1686.99,-641.37"/>
<polygon fill="midnightblue" stroke="midnightblue" points="1686.33,-644.83 1696.92,-644.44 1688.4,-638.14 1686.33,-644.83"/>
</g>
<!-- Node24 -->
<g id="node24" class="node">
<title>Node24</title>
<g id="a_node24"><a xlink:href="classwmtk_1_1attribute_1_1_accessor.html#abd60539d5779de287d2a0ec31b16c77a" target="_top" xlink:title=" ">
<polygon fill="none" stroke="black" points="1704,-595.5 1704,-625.5 1846,-625.5 1846,-595.5 1704,-595.5"/>
<text text-anchor="start" x="1712" y="-613.5" font-family="Helvetica,sans-Serif" font-size="10.00">wmtk::attribute::Accessor</text>
<text text-anchor="middle" x="1775" y="-602.5" font-family="Helvetica,sans-Serif" font-size="10.00">::dimension</text>
</a>
</g>
</g>
<!-- Node21&#45;&gt;Node24 -->
<g id="edge28" class="edge">
<title>Node21&#45;&gt;Node24</title>
<path fill="none" stroke="midnightblue" d="M1619.42,-576.53C1643.61,-581.85 1670.99,-587.87 1695.92,-593.34"/>
<polygon fill="midnightblue" stroke="midnightblue" points="1695.19,-596.77 1705.71,-595.49 1696.69,-589.93 1695.19,-596.77"/>
</g>
<!-- Node25 -->
<g id="node25" class="node">
<title>Node25</title>
<g id="a_node25"><a xlink:href="classwmtk_1_1attribute_1_1_tuple_accessor.html#a8d04c3529eb7adeead49e8faa7a119db" target="_top" xlink:title=" ">
<polygon fill="none" stroke="black" points="1691.5,-546.5 1691.5,-576.5 1858.5,-576.5 1858.5,-546.5 1691.5,-546.5"/>
<text text-anchor="start" x="1699.5" y="-564.5" font-family="Helvetica,sans-Serif" font-size="10.00">wmtk::attribute::TupleAccessor</text>
<text text-anchor="middle" x="1775" y="-553.5" font-family="Helvetica,sans-Serif" font-size="10.00">::dimension</text>
</a>
</g>
</g>
<!-- Node21&#45;&gt;Node25 -->
<g id="edge29" class="edge">
<title>Node21&#45;&gt;Node25</title>
<path fill="none" stroke="midnightblue" d="M1624.64,-561.5C1642.7,-561.5 1662.27,-561.5 1681.12,-561.5"/>
<polygon fill="midnightblue" stroke="midnightblue" points="1681.19,-565 1691.19,-561.5 1681.19,-558 1681.19,-565"/>
</g>
<!-- Node27&#45;&gt;Node4 -->
<g id="edge36" class="edge">
<title>Node27&#45;&gt;Node4</title>
<path fill="none" stroke="midnightblue" d="M1604.64,-265.35C1615.11,-261.31 1625.71,-256.38 1635,-250.5 1654.12,-238.4 1651.27,-225.58 1671,-214.5 1679.28,-209.85 1688.4,-206.06 1697.69,-202.97"/>
<polygon fill="midnightblue" stroke="midnightblue" points="1698.87,-206.27 1707.41,-200 1696.82,-199.58 1698.87,-206.27"/>
</g>
<!-- Node28 -->
<g id="node28" class="node">
<title>Node28</title>
<g id="a_node28"><a xlink:href="classwmtk_1_1simplex_1_1_simplex_collection.html#a1e7079b3b75f70dd28c524556cab76cf" target="_top" xlink:title="Add simplex to the collection.">
<polygon fill="none" stroke="black" points="1671,-224 1671,-243 1879,-243 1879,-224 1671,-224"/>
<text text-anchor="middle" x="1775" y="-231" font-family="Helvetica,sans-Serif" font-size="10.00">wmtk::simplex::SimplexCollection::add</text>
</a>
</g>
</g>
<!-- Node27&#45;&gt;Node28 -->
<g id="edge32" class="edge">
<title>Node27&#45;&gt;Node28</title>
<path fill="none" stroke="midnightblue" d="M1616.32,-265.44C1634.04,-261.45 1653.23,-257.22 1671,-253.5 1684.7,-250.63 1699.46,-247.68 1713.4,-244.96"/>
<polygon fill="midnightblue" stroke="midnightblue" points="1714.24,-248.36 1723.39,-243.02 1712.9,-241.49 1714.24,-248.36"/>
</g>
<!-- Node29 -->
<g id="node29" class="node">
<title>Node29</title>
<g id="a_node29"><a xlink:href="namespacewmtk.html#a441d6ad4f19569c7d4946e743da1a925" target="_top" xlink:title=" ">
<polygon fill="none" stroke="black" points="1714,-262.5 1714,-292.5 1836,-292.5 1836,-262.5 1714,-262.5"/>
<text text-anchor="start" x="1722" y="-280.5" font-family="Helvetica,sans-Serif" font-size="10.00">wmtk::log_and_throw</text>
<text text-anchor="middle" x="1775" y="-269.5" font-family="Helvetica,sans-Serif" font-size="10.00">_error</text>
</a>
</g>
</g>
<!-- Node27&#45;&gt;Node29 -->
<g id="edge33" class="edge">
<title>Node27&#45;&gt;Node29</title>
<path fill="none" stroke="midnightblue" d="M1625.57,-279.5C1650.83,-279.16 1678.94,-278.78 1703.85,-278.44"/>
<polygon fill="midnightblue" stroke="midnightblue" points="1703.99,-281.94 1713.94,-278.31 1703.9,-274.94 1703.99,-281.94"/>
</g>
<!-- Node30 -->
<g id="node30" class="node">
<title>Node30</title>
<g id="a_node30"><a xlink:href="namespacewmtk.html#a6a35f11c12436093d26fdd8be6fecc06" target="_top" xlink:title="Retrieves the current logger.">
<polygon fill="none" stroke="black" points="1915,-268 1915,-287 1996,-287 1996,-268 1915,-268"/>
<text text-anchor="middle" x="1955.5" y="-275" font-family="Helvetica,sans-Serif" font-size="10.00">wmtk::logger</text>
</a>
</g>
</g>
<!-- Node29&#45;&gt;Node30 -->
<g id="edge34" class="edge">
<title>Node29&#45;&gt;Node30</title>
<path fill="none" stroke="midnightblue" d="M1836.43,-277.5C1858.68,-277.5 1883.61,-277.5 1904.81,-277.5"/>
<polygon fill="midnightblue" stroke="midnightblue" points="1904.89,-281 1914.89,-277.5 1904.89,-274 1904.89,-281"/>
</g>
<!-- Node31 -->
<g id="node31" class="node">
<title>Node31</title>
<g id="a_node31"><a xlink:href="namespacewmtk.html#a3daa7951a5f8b78cf4600dc047fcc180" target="_top" xlink:title="Setup a logger object to be used by WildmeshToolkit.">
<polygon fill="none" stroke="black" points="2032,-268 2032,-287 2133,-287 2133,-268 2032,-268"/>
<text text-anchor="middle" x="2082.5" y="-275" font-family="Helvetica,sans-Serif" font-size="10.00">wmtk::set_logger</text>
</a>
</g>
</g>
<!-- Node30&#45;&gt;Node31 -->
<g id="edge35" class="edge">
<title>Node30&#45;&gt;Node31</title>
<path fill="none" stroke="midnightblue" d="M1996.05,-277.5C2004.17,-277.5 2012.9,-277.5 2021.55,-277.5"/>
<polygon fill="midnightblue" stroke="midnightblue" points="2021.65,-281 2031.65,-277.5 2021.65,-274 2021.65,-281"/>
</g>
<!-- Node33 -->
<g id="node33" class="node">
<title>Node33</title>
<g id="a_node33"><a xlink:href="classwmtk_1_1_mesh.html#a933f681cf24a63b155c9462280385200" target="_top" xlink:title=" ">
<polygon fill="none" stroke="black" points="1714.5,-448.5 1714.5,-478.5 1835.5,-478.5 1835.5,-448.5 1714.5,-448.5"/>
<text text-anchor="start" x="1722.5" y="-466.5" font-family="Helvetica,sans-Serif" font-size="10.00">wmtk::Mesh::top_cell</text>
<text text-anchor="middle" x="1775" y="-455.5" font-family="Helvetica,sans-Serif" font-size="10.00">_dimension</text>
</a>
</g>
</g>
<!-- Node32&#45;&gt;Node33 -->
<g id="edge38" class="edge">
<title>Node32&#45;&gt;Node33</title>
<path fill="none" stroke="midnightblue" d="M1635.31,-463.5C1657.99,-463.5 1682.26,-463.5 1704.07,-463.5"/>
<polygon fill="midnightblue" stroke="midnightblue" points="1704.22,-467 1714.22,-463.5 1704.22,-460 1704.22,-467"/>
</g>
<!-- Node35 -->
<g id="node35" class="node">
<title>Node35</title>
<g id="a_node35"><a xlink:href="namespacewmtk_1_1multimesh_1_1utils_1_1internal.html#a11885fe5aebd05551827804b0142945d" target="_top" xlink:title=" ">
<polygon fill="none" stroke="black" points="1710,-388 1710,-429 1840,-429 1840,-388 1710,-388"/>
<text text-anchor="start" x="1718" y="-417" font-family="Helvetica,sans-Serif" font-size="10.00">wmtk::multimesh::utils</text>
<text text-anchor="start" x="1718" y="-406" font-family="Helvetica,sans-Serif" font-size="10.00">::internal::transport</text>
<text text-anchor="middle" x="1775" y="-395" font-family="Helvetica,sans-Serif" font-size="10.00">_tuple_dart</text>
</a>
</g>
</g>
<!-- Node34&#45;&gt;Node35 -->
<g id="edge40" class="edge">
<title>Node34&#45;&gt;Node35</title>
<path fill="none" stroke="midnightblue" d="M1615.2,-375.26C1641.67,-379.09 1672.51,-384.27 1699.93,-389.48"/>
<polygon fill="midnightblue" stroke="midnightblue" points="1699.38,-392.94 1709.87,-391.39 1700.71,-386.06 1699.38,-392.94"/>
</g>
<!-- Node35&#45;&gt;Node34 -->
<g id="edge41" class="edge">
<title>Node35&#45;&gt;Node34</title>
<path fill="none" stroke="midnightblue" d="M1709.66,-403.72C1679.77,-399.39 1644.35,-393.35 1614.57,-387.49"/>
<polygon fill="midnightblue" stroke="midnightblue" points="1615.19,-384.05 1604.7,-385.52 1613.82,-390.91 1615.19,-384.05"/>
</g>
</g>
</svg>
