<?xml version="1.0" encoding="UTF-8" standalone="no"?>
<!DOCTYPE svg PUBLIC "-//W3C//DTD SVG 1.1//EN"
 "http://www.w3.org/Graphics/SVG/1.1/DTD/svg11.dtd">
<!-- Generated by graphviz version 2.43.0 (0)
 -->
<!-- Title: wmtk::MultiMeshManager::child_to_parent_map_attribute_name Pages: 1 -->
<!--zoomable 580 -->
<svg id="main" version="1.1" xmlns="http://www.w3.org/2000/svg" xmlns:xlink="http://www.w3.org/1999/xlink" xml:space="preserve" onload="init(evt)">
<style type="text/css"><![CDATA[
.edge:hover path { stroke: red; }
.edge:hover polygon { stroke: red; fill: red; }
]]></style>
<script type="text/javascript"><![CDATA[
var edges = document.getElementsByTagName('g');
if (edges && edges.length) {
  for (var i=0;i<edges.length;i++) {
    if (edges[i].id.substr(0,4)=='edge') {
      edges[i].setAttribute('class','edge');
    }
  }
}
]]></script>
        <defs>
                <circle id="rim" cx="0" cy="0" r="7"/>
                <circle id="rim2" cx="0" cy="0" r="3.5"/>
                <g id="zoomPlus">
                        <use xlink:href="#rim" fill="#404040">
                                <set attributeName="fill" to="#808080" begin="zoomplus.mouseover" end="zoomplus.mouseout"/>
                        </use>
                        <path d="M-4,0h8M0,-4v8" fill="none" stroke="white" stroke-width="1.5" pointer-events="none"/>
                </g>
                <g id="zoomMin">
                        <use xlink:href="#rim" fill="#404040">
                                <set attributeName="fill" to="#808080" begin="zoomminus.mouseover" end="zoomminus.mouseout"/>
                        </use>
                        <path d="M-4,0h8" fill="none" stroke="white" stroke-width="1.5" pointer-events="none"/>
                </g>
                <g id="dirArrow">
                        <path fill="none" stroke="white" stroke-width="1.5" d="M0,-3.0v7 M-2.5,-0.5L0,-3.0L2.5,-0.5"/>
                </g>
               <g id="resetDef">
                       <use xlink:href="#rim2" fill="#404040">
                               <set attributeName="fill" to="#808080" begin="reset.mouseover" end="reset.mouseout"/>
                       </use>
               </g>
        </defs>

<script type="text/javascript">
var viewWidth = 1394;
var viewHeight = 580;
var sectionId = 'dynsection-12';
</script>
<script xlink:href="svgpan.js"/>
<svg id="graph" class="graph">
<g id="viewport">
<title>wmtk::MultiMeshManager::child_to_parent_map_attribute_name</title>
<!-- Node1 -->
<g id="node1" class="node">
<title>Node1</title>
<g id="a_node1"><a xlink:title=" ">
<polygon fill="#bfbfbf" stroke="black" points="1242,-412.5 1242,-453.5 1386,-453.5 1386,-412.5 1242,-412.5"/>
<text text-anchor="start" x="1250" y="-441.5" font-family="Helvetica,sans-Serif" font-size="10.00">wmtk::MultiMeshManager</text>
<text text-anchor="start" x="1250" y="-430.5" font-family="Helvetica,sans-Serif" font-size="10.00">::child_to_parent_map</text>
<text text-anchor="middle" x="1314" y="-419.5" font-family="Helvetica,sans-Serif" font-size="10.00">_attribute_name</text>
</a>
</g>
</g>
<!-- Node2 -->
<g id="node2" class="node">
<title>Node2</title>
<g id="a_node2"><a xlink:href="classwmtk_1_1_multi_mesh_manager.html#a8b976bb8988f1222287c54e10e4366de" target="_top" xlink:title=" ">
<polygon fill="none" stroke="black" points="1062,-462 1062,-492 1206,-492 1206,-462 1062,-462"/>
<text text-anchor="start" x="1070" y="-480" font-family="Helvetica,sans-Serif" font-size="10.00">wmtk::MultiMeshManager</text>
<text text-anchor="middle" x="1134" y="-469" font-family="Helvetica,sans-Serif" font-size="10.00">::check_child_map_valid</text>
</a>
</g>
</g>
<!-- Node1&#45;&gt;Node2 -->
<g id="edge1" class="edge">
<title>Node1&#45;&gt;Node2</title>
<path fill="none" stroke="midnightblue" d="M1232.12,-452.99C1219.87,-456.02 1207.41,-459.1 1195.69,-462"/>
<polygon fill="midnightblue" stroke="midnightblue" points="1233.01,-456.38 1241.88,-450.58 1231.33,-449.58 1233.01,-456.38"/>
</g>
<!-- Node4 -->
<g id="node4" class="node">
<title>Node4</title>
<g id="a_node4"><a xlink:href="classwmtk_1_1_h_d_f5_reader.html#a2524f46ffeb8b8b9af898e7b2993bc00" target="_top" xlink:title=" ">
<polygon fill="none" stroke="black" points="1064,-423.5 1064,-442.5 1204,-442.5 1204,-423.5 1064,-423.5"/>
<text text-anchor="middle" x="1134" y="-430.5" font-family="Helvetica,sans-Serif" font-size="10.00">wmtk::HDF5Reader::read</text>
</a>
</g>
</g>
<!-- Node1&#45;&gt;Node4 -->
<g id="edge3" class="edge">
<title>Node1&#45;&gt;Node4</title>
<path fill="none" stroke="midnightblue" d="M1231.63,-433C1222.48,-433 1213.23,-433 1204.27,-433"/>
<polygon fill="midnightblue" stroke="midnightblue" points="1231.88,-436.5 1241.88,-433 1231.88,-429.5 1231.88,-436.5"/>
</g>
<!-- Node22 -->
<g id="node22" class="node">
<title>Node22</title>
<g id="a_node22"><a xlink:href="classwmtk_1_1_multi_mesh_manager.html#ad6ad95e6f65b0e38ce1de249158db6f3" target="_top" xlink:title="register a another mesh as a child of this mesh.">
<polygon fill="none" stroke="black" points="1062,-332 1062,-362 1206,-362 1206,-332 1062,-332"/>
<text text-anchor="start" x="1070" y="-350" font-family="Helvetica,sans-Serif" font-size="10.00">wmtk::MultiMeshManager</text>
<text text-anchor="middle" x="1134" y="-339" font-family="Helvetica,sans-Serif" font-size="10.00">::register_child_mesh</text>
</a>
</g>
</g>
<!-- Node1&#45;&gt;Node22 -->
<g id="edge24" class="edge">
<title>Node1&#45;&gt;Node22</title>
<path fill="none" stroke="midnightblue" d="M1261.07,-407.91C1230.29,-393.04 1192.32,-374.69 1166.14,-362.04"/>
<polygon fill="midnightblue" stroke="midnightblue" points="1259.84,-411.2 1270.36,-412.4 1262.88,-404.9 1259.84,-411.2"/>
</g>
<!-- Node3 -->
<g id="node3" class="node">
<title>Node3</title>
<g id="a_node3"><a xlink:href="classwmtk_1_1_multi_mesh_manager.html#a6a85ae5901f9c5b6a383bc072f182a57" target="_top" xlink:title=" ">
<polygon fill="none" stroke="black" points="882,-462 882,-492 1026,-492 1026,-462 882,-462"/>
<text text-anchor="start" x="890" y="-480" font-family="Helvetica,sans-Serif" font-size="10.00">wmtk::MultiMeshManager</text>
<text text-anchor="middle" x="954" y="-469" font-family="Helvetica,sans-Serif" font-size="10.00">::check_map_valid</text>
</a>
</g>
</g>
<!-- Node2&#45;&gt;Node3 -->
<g id="edge2" class="edge">
<title>Node2&#45;&gt;Node3</title>
<path fill="none" stroke="midnightblue" d="M1051.83,-477C1043.21,-477 1034.49,-477 1026,-477"/>
<polygon fill="midnightblue" stroke="midnightblue" points="1051.88,-480.5 1061.88,-477 1051.88,-473.5 1051.88,-480.5"/>
</g>
<!-- Node5 -->
<g id="node5" class="node">
<title>Node5</title>
<g id="a_node5"><a xlink:href="namespacewmtk.html#acc69252d3800a00676c9e7e51621538f" target="_top" xlink:title=" ">
<polygon fill="none" stroke="black" points="902,-423.5 902,-442.5 1006,-442.5 1006,-423.5 902,-423.5"/>
<text text-anchor="middle" x="954" y="-430.5" font-family="Helvetica,sans-Serif" font-size="10.00">wmtk::read_mesh</text>
</a>
</g>
</g>
<!-- Node4&#45;&gt;Node5 -->
<g id="edge4" class="edge">
<title>Node4&#45;&gt;Node5</title>
<path fill="none" stroke="midnightblue" d="M1053.9,-433C1037.68,-433 1021.02,-433 1006.1,-433"/>
<polygon fill="midnightblue" stroke="midnightblue" points="1053.93,-436.5 1063.93,-433 1053.93,-429.5 1053.93,-436.5"/>
</g>
<!-- Node6 -->
<g id="node6" class="node">
<title>Node6</title>
<g id="a_node6"><a xlink:href="classwmtk_1_1io_1_1_cache.html#a6d9002c95cb93e5e4e68eaa6b5083f8c" target="_top" xlink:title="Compare two caches for equality.">
<polygon fill="none" stroke="black" points="689.5,-461.5 689.5,-480.5 823.5,-480.5 823.5,-461.5 689.5,-461.5"/>
<text text-anchor="middle" x="756.5" y="-468.5" font-family="Helvetica,sans-Serif" font-size="10.00">wmtk::io::Cache::equals</text>
</a>
</g>
</g>
<!-- Node5&#45;&gt;Node6 -->
<g id="edge5" class="edge">
<title>Node5&#45;&gt;Node6</title>
<path fill="none" stroke="midnightblue" d="M893.89,-444.49C866,-449.91 833.1,-456.31 806.6,-461.46"/>
<polygon fill="midnightblue" stroke="midnightblue" points="894.77,-447.88 903.92,-442.54 893.44,-441.01 894.77,-447.88"/>
</g>
<!-- Node7 -->
<g id="node7" class="node">
<title>Node7</title>
<g id="a_node7"><a xlink:href="namespacewmtk_1_1components.html#acc0863c70557234ebf67c9b79e63fa71" target="_top" xlink:title=" ">
<polygon fill="none" stroke="black" points="686,-423.5 686,-442.5 827,-442.5 827,-423.5 686,-423.5"/>
<text text-anchor="middle" x="756.5" y="-430.5" font-family="Helvetica,sans-Serif" font-size="10.00">wmtk::components::input</text>
</a>
</g>
</g>
<!-- Node5&#45;&gt;Node7 -->
<g id="edge6" class="edge">
<title>Node5&#45;&gt;Node7</title>
<path fill="none" stroke="midnightblue" d="M891.72,-433C871.2,-433 848.17,-433 827.07,-433"/>
<polygon fill="midnightblue" stroke="midnightblue" points="891.89,-436.5 901.89,-433 891.89,-429.5 891.89,-436.5"/>
</g>
<!-- Node12 -->
<g id="node12" class="node">
<title>Node12</title>
<g id="a_node12"><a xlink:href="classwmtk_1_1io_1_1_cache.html#ae8e0a75e2e3df0e8a1680ab62bbc814e" target="_top" xlink:title="Load a mesh from cache.">
<polygon fill="none" stroke="black" points="679,-241.5 679,-260.5 834,-260.5 834,-241.5 679,-241.5"/>
<text text-anchor="middle" x="756.5" y="-248.5" font-family="Helvetica,sans-Serif" font-size="10.00">wmtk::io::Cache::read_mesh</text>
</a>
</g>
</g>
<!-- Node5&#45;&gt;Node12 -->
<g id="edge14" class="edge">
<title>Node5&#45;&gt;Node12</title>
<path fill="none" stroke="midnightblue" d="M935.39,-416.6C895.66,-379.62 800.07,-290.63 768.11,-260.88"/>
<polygon fill="midnightblue" stroke="midnightblue" points="933.06,-419.22 942.76,-423.47 937.83,-414.1 933.06,-419.22"/>
</g>
<!-- Node21 -->
<g id="node21" class="node">
<title>Node21</title>
<g id="a_node21"><a xlink:href="namespacewmtk_1_1components.html#abdd44e69a3ec70ad4b9c327dc3ae9d8e" target="_top" xlink:title=" ">
<polygon fill="none" stroke="black" points="667,-499.5 667,-518.5 846,-518.5 846,-499.5 667,-499.5"/>
<text text-anchor="middle" x="756.5" y="-506.5" font-family="Helvetica,sans-Serif" font-size="10.00">wmtk::components::wildmeshing</text>
</a>
</g>
</g>
<!-- Node5&#45;&gt;Node21 -->
<g id="edge23" class="edge">
<title>Node5&#45;&gt;Node21</title>
<path fill="none" stroke="midnightblue" d="M896.14,-446.06C891.21,-448.07 886.43,-450.37 882,-453 862.28,-464.73 866.08,-478.89 846,-490 838.99,-493.88 831.26,-496.97 823.37,-499.42"/>
<polygon fill="midnightblue" stroke="midnightblue" points="897.54,-449.28 905.73,-442.55 895.13,-442.7 897.54,-449.28"/>
</g>
<!-- Node8 -->
<g id="node8" class="node">
<title>Node8</title>
<g id="a_node8"><a xlink:href="classwmtk_1_1utils_1_1metaprogramming_1_1detail_1_1_reference_wrapped_functor_return_cache.html#a79a5f07c106ce8b9c97ad9afc2bcbdcd" target="_top" xlink:title=" ">
<polygon fill="none" stroke="black" points="221,-401.5 221,-442.5 406,-442.5 406,-401.5 221,-401.5"/>
<text text-anchor="start" x="229" y="-430.5" font-family="Helvetica,sans-Serif" font-size="10.00">wmtk::utils::metaprogramming</text>
<text text-anchor="start" x="229" y="-419.5" font-family="Helvetica,sans-Serif" font-size="10.00">::detail::ReferenceWrappedFunctor</text>
<text text-anchor="middle" x="313.5" y="-408.5" font-family="Helvetica,sans-Serif" font-size="10.00">ReturnCache::add</text>
</a>
</g>
</g>
<!-- Node7&#45;&gt;Node8 -->
<g id="edge7" class="edge">
<title>Node7&#45;&gt;Node8</title>
<path fill="none" stroke="midnightblue" d="M675.56,-429.54C660.75,-428.97 645.41,-428.43 631,-428 555.33,-425.76 469.45,-424.2 406.27,-423.23"/>
<polygon fill="midnightblue" stroke="midnightblue" points="675.58,-433.04 685.71,-429.94 675.86,-426.05 675.58,-433.04"/>
</g>
<!-- Node9 -->
<g id="node9" class="node">
<title>Node9</title>
<g id="a_node9"><a xlink:href="classwmtk_1_1utils_1_1metaprogramming_1_1detail_1_1_reference_wrapped_functor_return_cache.html#a3fe48c2dfe4e46ed2f18e0a87d51bd22" target="_top" xlink:title=" ">
<polygon fill="none" stroke="black" points="0,-499.5 0,-540.5 185,-540.5 185,-499.5 0,-499.5"/>
<text text-anchor="start" x="8" y="-528.5" font-family="Helvetica,sans-Serif" font-size="10.00">wmtk::utils::metaprogramming</text>
<text text-anchor="start" x="8" y="-517.5" font-family="Helvetica,sans-Serif" font-size="10.00">::detail::ReferenceWrappedFunctor</text>
<text text-anchor="middle" x="92.5" y="-506.5" font-family="Helvetica,sans-Serif" font-size="10.00">ReturnCache::get</text>
</a>
</g>
</g>
<!-- Node7&#45;&gt;Node9 -->
<g id="edge8" class="edge">
<title>Node7&#45;&gt;Node9</title>
<path fill="none" stroke="midnightblue" d="M676.65,-446.06C673.27,-447.81 670.03,-449.78 667,-452 640.97,-471.04 658.49,-498.14 631,-515 485.03,-604.54 272.16,-568.29 163.29,-540.57"/>
<polygon fill="midnightblue" stroke="midnightblue" points="678.18,-449.22 685.87,-441.94 675.32,-442.83 678.18,-449.22"/>
</g>
<!-- Node10 -->
<g id="node10" class="node">
<title>Node10</title>
<g id="a_node10"><a xlink:href="classwmtk_1_1utils_1_1metaprogramming_1_1detail_1_1_reference_wrapped_functor_return_cache.html#ae0f094cd19574b98771ed8eb7fac95b8" target="_top" xlink:title=" ">
<polygon fill="none" stroke="black" points="444,-437.5 444,-478.5 629,-478.5 629,-437.5 444,-437.5"/>
<text text-anchor="start" x="452" y="-466.5" font-family="Helvetica,sans-Serif" font-size="10.00">wmtk::utils::metaprogramming</text>
<text text-anchor="start" x="452" y="-455.5" font-family="Helvetica,sans-Serif" font-size="10.00">::detail::ReferenceWrappedFunctor</text>
<text text-anchor="middle" x="536.5" y="-444.5" font-family="Helvetica,sans-Serif" font-size="10.00">ReturnCache::get_id</text>
</a>
</g>
</g>
<!-- Node7&#45;&gt;Node10 -->
<g id="edge9" class="edge">
<title>Node7&#45;&gt;Node10</title>
<path fill="none" stroke="midnightblue" d="M675.6,-442.16C660.48,-443.9 644.55,-445.72 629.1,-447.49"/>
<polygon fill="midnightblue" stroke="midnightblue" points="676.39,-445.6 685.92,-440.98 675.59,-438.64 676.39,-445.6"/>
</g>
<!-- Node11 -->
<g id="node11" class="node">
<title>Node11</title>
<g id="a_node11"><a xlink:href="classwmtk_1_1utils_1_1metaprogramming_1_1detail_1_1_reference_wrapped_functor_return_cache.html#a5290906e9b9c635dc1bd82246eb39b42" target="_top" xlink:title=" ">
<polygon fill="none" stroke="black" points="221,-475.5 221,-516.5 406,-516.5 406,-475.5 221,-475.5"/>
<text text-anchor="start" x="229" y="-504.5" font-family="Helvetica,sans-Serif" font-size="10.00">wmtk::utils::metaprogramming</text>
<text text-anchor="start" x="229" y="-493.5" font-family="Helvetica,sans-Serif" font-size="10.00">::detail::ReferenceWrappedFunctor</text>
<text text-anchor="middle" x="313.5" y="-482.5" font-family="Helvetica,sans-Serif" font-size="10.00">ReturnCache::get_variant</text>
</a>
</g>
</g>
<!-- Node7&#45;&gt;Node11 -->
<g id="edge13" class="edge">
<title>Node7&#45;&gt;Node11</title>
<path fill="none" stroke="midnightblue" d="M680.44,-445.86C675.78,-447.64 671.26,-449.68 667,-452 647.13,-462.82 651.79,-479.08 631,-488 560.03,-518.45 471.63,-517.89 406.3,-511.18"/>
<polygon fill="midnightblue" stroke="midnightblue" points="681.82,-449.08 690.14,-442.52 679.55,-442.46 681.82,-449.08"/>
</g>
<!-- Node10&#45;&gt;Node8 -->
<g id="edge10" class="edge">
<title>Node10&#45;&gt;Node8</title>
<path fill="none" stroke="midnightblue" d="M433.72,-441.42C424.48,-439.92 415.16,-438.4 406.02,-436.91"/>
<polygon fill="midnightblue" stroke="midnightblue" points="433.26,-444.89 443.7,-443.05 434.39,-437.98 433.26,-444.89"/>
</g>
<!-- Node10&#45;&gt;Node11 -->
<g id="edge11" class="edge">
<title>Node10&#45;&gt;Node11</title>
<path fill="none" stroke="midnightblue" d="M433.72,-475.5C424.48,-477.09 415.16,-478.69 406.02,-480.26"/>
<polygon fill="midnightblue" stroke="midnightblue" points="434.43,-478.93 443.7,-473.79 433.25,-472.03 434.43,-478.93"/>
</g>
<!-- Node11&#45;&gt;Node9 -->
<g id="edge12" class="edge">
<title>Node11&#45;&gt;Node9</title>
<path fill="none" stroke="midnightblue" d="M210.85,-507.14C202.26,-508.08 193.6,-509.03 185.09,-509.96"/>
<polygon fill="midnightblue" stroke="midnightblue" points="211.33,-510.61 220.89,-506.04 210.57,-503.65 211.33,-510.61"/>
</g>
<!-- Node13 -->
<g id="node13" class="node">
<title>Node13</title>
<g id="a_node13"><a xlink:href="namespacewmtk_1_1components.html#a21e25d3a6f734e991354c2294bf49bbe" target="_top" xlink:title=" ">
<polygon fill="none" stroke="black" points="442,-148.5 442,-167.5 631,-167.5 631,-148.5 442,-148.5"/>
<text text-anchor="middle" x="536.5" y="-155.5" font-family="Helvetica,sans-Serif" font-size="10.00">wmtk::components::delaunay_exec</text>
</a>
</g>
</g>
<!-- Node12&#45;&gt;Node13 -->
<g id="edge15" class="edge">
<title>Node12&#45;&gt;Node13</title>
<path fill="none" stroke="midnightblue" d="M734.07,-235.54C710.08,-218.95 669.52,-192.96 631,-178 620.01,-173.73 607.93,-170.29 596.2,-167.55"/>
<polygon fill="midnightblue" stroke="midnightblue" points="732.21,-238.51 742.41,-241.4 736.24,-232.79 732.21,-238.51"/>
</g>
<!-- Node14 -->
<g id="node14" class="node">
<title>Node14</title>
<g id="a_node14"><a xlink:href="namespacewmtk_1_1components.html#a6966b2a96c545f618a274961433aed56" target="_top" xlink:title=" ">
<polygon fill="none" stroke="black" points="457.5,-99 457.5,-129 615.5,-129 615.5,-99 457.5,-99"/>
<text text-anchor="start" x="465.5" y="-117" font-family="Helvetica,sans-Serif" font-size="10.00">wmtk::components::isotropic</text>
<text text-anchor="middle" x="536.5" y="-106" font-family="Helvetica,sans-Serif" font-size="10.00">_remeshing</text>
</a>
</g>
</g>
<!-- Node12&#45;&gt;Node14 -->
<g id="edge16" class="edge">
<title>Node12&#45;&gt;Node14</title>
<path fill="none" stroke="midnightblue" d="M740.87,-233.39C719.34,-208.64 676.72,-163.8 631,-139 623.91,-135.15 616.19,-131.87 608.33,-129.08"/>
<polygon fill="midnightblue" stroke="midnightblue" points="738.42,-235.91 747.57,-241.25 743.74,-231.37 738.42,-235.91"/>
</g>
<!-- Node15 -->
<g id="node15" class="node">
<title>Node15</title>
<g id="a_node15"><a xlink:href="namespacewmtk_1_1components.html#aac5b85cd0cb0fc0f003a9035c9803abe" target="_top" xlink:title="Perform maching tetrahedra/triangles.">
<polygon fill="none" stroke="black" points="455.5,-60.5 455.5,-79.5 617.5,-79.5 617.5,-60.5 455.5,-60.5"/>
<text text-anchor="middle" x="536.5" y="-67.5" font-family="Helvetica,sans-Serif" font-size="10.00">wmtk::components::marching</text>
</a>
</g>
</g>
<!-- Node12&#45;&gt;Node15 -->
<g id="edge17" class="edge">
<title>Node12&#45;&gt;Node15</title>
<path fill="none" stroke="midnightblue" d="M740.06,-233.78C721.87,-213.22 691.08,-177.51 667,-145 649.61,-121.53 655.1,-106.52 631,-90 624.7,-85.68 617.65,-82.27 610.31,-79.58"/>
<polygon fill="midnightblue" stroke="midnightblue" points="737.55,-236.23 746.81,-241.37 742.78,-231.57 737.55,-236.23"/>
</g>
<!-- Node16 -->
<g id="node16" class="node">
<title>Node16</title>
<g id="a_node16"><a xlink:href="namespacewmtk_1_1components.html#a1545ca81e801e5e1999f743db925c6f0" target="_top" xlink:title=" ">
<polygon fill="none" stroke="black" points="453,-361.5 453,-380.5 620,-380.5 620,-361.5 453,-361.5"/>
<text text-anchor="middle" x="536.5" y="-368.5" font-family="Helvetica,sans-Serif" font-size="10.00">wmtk::components::mesh_info</text>
</a>
</g>
</g>
<!-- Node12&#45;&gt;Node16 -->
<g id="edge18" class="edge">
<title>Node12&#45;&gt;Node16</title>
<path fill="none" stroke="midnightblue" d="M740.02,-267.87C718.07,-290.69 675.58,-330.96 631,-352 622.76,-355.89 613.75,-358.98 604.67,-361.45"/>
<polygon fill="midnightblue" stroke="midnightblue" points="742.58,-270.26 746.9,-260.58 737.49,-265.45 742.58,-270.26"/>
</g>
<!-- Node17 -->
<g id="node17" class="node">
<title>Node17</title>
<g id="a_node17"><a xlink:href="namespacewmtk_1_1components.html#ab9a35ae2696e3819f38d8ec384d23f98" target="_top" xlink:title=" ">
<polygon fill="none" stroke="black" points="452,-323.5 452,-342.5 621,-342.5 621,-323.5 452,-323.5"/>
<text text-anchor="middle" x="536.5" y="-330.5" font-family="Helvetica,sans-Serif" font-size="10.00">wmtk::components::multimesh</text>
</a>
</g>
</g>
<!-- Node12&#45;&gt;Node17 -->
<g id="edge19" class="edge">
<title>Node12&#45;&gt;Node17</title>
<path fill="none" stroke="midnightblue" d="M731.37,-265.67C706.9,-279.95 667.52,-301.31 631,-314 620.2,-317.75 608.44,-320.86 597,-323.4"/>
<polygon fill="midnightblue" stroke="midnightblue" points="733.16,-268.68 739.99,-260.58 729.6,-262.65 733.16,-268.68"/>
</g>
<!-- Node18 -->
<g id="node18" class="node">
<title>Node18</title>
<g id="a_node18"><a xlink:href="namespacewmtk_1_1components.html#a2ee3b8a38040141d283b2b7c1c50d1d3" target="_top" xlink:title=" ">
<polygon fill="none" stroke="black" points="462.5,-285.5 462.5,-304.5 610.5,-304.5 610.5,-285.5 462.5,-285.5"/>
<text text-anchor="middle" x="536.5" y="-292.5" font-family="Helvetica,sans-Serif" font-size="10.00">wmtk::components::output</text>
</a>
</g>
</g>
<!-- Node12&#45;&gt;Node18 -->
<g id="edge20" class="edge">
<title>Node12&#45;&gt;Node18</title>
<path fill="none" stroke="midnightblue" d="M698.03,-262.6C662.69,-269.73 617.97,-278.76 584.71,-285.47"/>
<polygon fill="midnightblue" stroke="midnightblue" points="699.09,-265.96 708.2,-260.55 697.7,-259.1 699.09,-265.96"/>
</g>
<!-- Node19 -->
<g id="node19" class="node">
<title>Node19</title>
<g id="a_node19"><a xlink:href="namespacewmtk_1_1components.html#a2ddd687e41d1d3739fb61c70111d62b1" target="_top" xlink:title=" ">
<polygon fill="none" stroke="black" points="461,-236 461,-266 612,-266 612,-236 461,-236"/>
<text text-anchor="start" x="469" y="-254" font-family="Helvetica,sans-Serif" font-size="10.00">wmtk::components::regular</text>
<text text-anchor="middle" x="536.5" y="-243" font-family="Helvetica,sans-Serif" font-size="10.00">_space</text>
</a>
</g>
</g>
<!-- Node12&#45;&gt;Node19 -->
<g id="edge21" class="edge">
<title>Node12&#45;&gt;Node19</title>
<path fill="none" stroke="midnightblue" d="M668.91,-251C650.09,-251 630.34,-251 612.03,-251"/>
<polygon fill="midnightblue" stroke="midnightblue" points="668.95,-254.5 678.95,-251 668.95,-247.5 668.95,-254.5"/>
</g>
<!-- Node20 -->
<g id="node20" class="node">
<title>Node20</title>
<g id="a_node20"><a xlink:href="namespacewmtk_1_1components.html#a9e510498c6b854fa4bb1cea419333383" target="_top" xlink:title=" ">
<polygon fill="none" stroke="black" points="470.5,-187 470.5,-217 602.5,-217 602.5,-187 470.5,-187"/>
<text text-anchor="start" x="478.5" y="-205" font-family="Helvetica,sans-Serif" font-size="10.00">wmtk::components::tag</text>
<text text-anchor="middle" x="536.5" y="-194" font-family="Helvetica,sans-Serif" font-size="10.00">_intersection</text>
</a>
</g>
</g>
<!-- Node12&#45;&gt;Node20 -->
<g id="edge22" class="edge">
<title>Node12&#45;&gt;Node20</title>
<path fill="none" stroke="midnightblue" d="M703.31,-239.27C673.17,-232.49 634.98,-223.91 602.85,-216.69"/>
<polygon fill="midnightblue" stroke="midnightblue" points="702.68,-242.72 713.21,-241.49 704.22,-235.89 702.68,-242.72"/>
</g>
<!-- Node23 -->
<g id="node23" class="node">
<title>Node23</title>
<g id="a_node23"><a xlink:href="classwmtk_1_1_mesh.html#a333e19ee5ddb037313fa7dbdb0e41771" target="_top" xlink:title="register a mesh as the child of this mesh">
<polygon fill="none" stroke="black" points="894,-248 894,-278 1014,-278 1014,-248 894,-248"/>
<text text-anchor="start" x="902" y="-266" font-family="Helvetica,sans-Serif" font-size="10.00">wmtk::Mesh::register</text>
<text text-anchor="middle" x="954" y="-255" font-family="Helvetica,sans-Serif" font-size="10.00">_child_mesh</text>
</a>
</g>
</g>
<!-- Node22&#45;&gt;Node23 -->
<g id="edge25" class="edge">
<title>Node22&#45;&gt;Node23</title>
<path fill="none" stroke="midnightblue" d="M1092.07,-327.69C1060.08,-312.59 1016.25,-291.91 986.85,-278.03"/>
<polygon fill="midnightblue" stroke="midnightblue" points="1090.64,-330.88 1101.18,-331.98 1093.63,-324.55 1090.64,-330.88"/>
</g>
<!-- Node24 -->
<g id="node24" class="node">
<title>Node24</title>
<g id="a_node24"><a xlink:href="classwmtk_1_1multimesh_1_1utils_1_1internal_1_1_tuple_tag.html#a13408a71833abeae2bafa8f7d55c78ba" target="_top" xlink:title=" ">
<polygon fill="none" stroke="black" points="683.5,-83 683.5,-135 829.5,-135 829.5,-83 683.5,-83"/>
<text text-anchor="start" x="691.5" y="-123" font-family="Helvetica,sans-Serif" font-size="10.00">wmtk::multimesh::utils</text>
<text text-anchor="start" x="691.5" y="-112" font-family="Helvetica,sans-Serif" font-size="10.00">::internal::TupleTag::</text>
<text text-anchor="start" x="691.5" y="-101" font-family="Helvetica,sans-Serif" font-size="10.00">extract_and_register_child</text>
<text text-anchor="middle" x="756.5" y="-90" font-family="Helvetica,sans-Serif" font-size="10.00">_mesh_from_tag_handle</text>
</a>
</g>
</g>
<!-- Node23&#45;&gt;Node24 -->
<g id="edge26" class="edge">
<title>Node23&#45;&gt;Node24</title>
<path fill="none" stroke="midnightblue" d="M925.93,-241.68C890.58,-213.83 828.73,-165.11 790.62,-135.09"/>
<polygon fill="midnightblue" stroke="midnightblue" points="923.88,-244.51 933.9,-247.95 928.21,-239.02 923.88,-244.51"/>
</g>
<!-- Node25 -->
<g id="node25" class="node">
<title>Node25</title>
<g id="a_node25"><a xlink:href="namespacewmtk_1_1multimesh_1_1utils.html#a3ba02c50321ce0e6095c107cbb5edc13" target="_top" xlink:title="extract a child mesh based on the tag handle and the tag value, and register it to the input (parent)...">
<polygon fill="none" stroke="black" points="454,-0.5 454,-41.5 619,-41.5 619,-0.5 454,-0.5"/>
<text text-anchor="start" x="462" y="-29.5" font-family="Helvetica,sans-Serif" font-size="10.00">wmtk::multimesh::utils</text>
<text text-anchor="start" x="462" y="-18.5" font-family="Helvetica,sans-Serif" font-size="10.00">::extract_and_register</text>
<text text-anchor="middle" x="536.5" y="-7.5" font-family="Helvetica,sans-Serif" font-size="10.00">_child_mesh_from_tag_handle</text>
</a>
</g>
</g>
<!-- Node24&#45;&gt;Node25 -->
<g id="edge27" class="edge">
<title>Node24&#45;&gt;Node25</title>
<path fill="none" stroke="midnightblue" d="M694.17,-78.56C674.25,-69.18 651.89,-59.18 631,-51 622.67,-47.74 613.82,-44.55 605.02,-41.55"/>
<polygon fill="midnightblue" stroke="midnightblue" points="692.9,-81.84 703.43,-82.96 695.9,-75.51 692.9,-81.84"/>
</g>
<!-- Node26 -->
<g id="node26" class="node">
<title>Node26</title>
<g id="a_node26"><a xlink:href="namespacewmtk_1_1multimesh_1_1utils.html#a9349b24597b61459c9d98753ae5234f1" target="_top" xlink:title="extract a child mesh based on the given tag and tag value, and register it to the input (parent) mesh">
<polygon fill="none" stroke="black" points="248.5,-0.5 248.5,-41.5 378.5,-41.5 378.5,-0.5 248.5,-0.5"/>
<text text-anchor="start" x="256.5" y="-29.5" font-family="Helvetica,sans-Serif" font-size="10.00">wmtk::multimesh::utils</text>
<text text-anchor="start" x="256.5" y="-18.5" font-family="Helvetica,sans-Serif" font-size="10.00">::extract_and_register</text>
<text text-anchor="middle" x="313.5" y="-7.5" font-family="Helvetica,sans-Serif" font-size="10.00">_child_mesh_from_tag</text>
</a>
</g>
</g>
<!-- Node25&#45;&gt;Node26 -->
<g id="edge28" class="edge">
<title>Node25&#45;&gt;Node26</title>
<path fill="none" stroke="midnightblue" d="M443.55,-21C421.7,-21 398.86,-21 378.57,-21"/>
<polygon fill="midnightblue" stroke="midnightblue" points="443.84,-24.5 453.84,-21 443.84,-17.5 443.84,-24.5"/>
</g>
</g>
</svg>
        <g id="navigator" transform="translate(0 0)" fill="#404254">
                <rect fill="#f2f5e9" fill-opacity="0.5" stroke="#606060" stroke-width=".5" x="0" y="0" width="60" height="60"/>
                <use id="zoomplus" xlink:href="#zoomPlus" x="17" y="9" onmousedown="handleZoom(evt,'in')"/>
                <use id="zoomminus" xlink:href="#zoomMin" x="42" y="9" onmousedown="handleZoom(evt,'out')"/>
                <use id="reset" xlink:href="#resetDef" x="30" y="36" onmousedown="handleReset()"/>
                <g id="arrowUp" xlink:href="#dirArrow" transform="translate(30 24)" onmousedown="handlePan(0,-1)">
                  <use xlink:href="#rim" fill="#404040">
                        <set attributeName="fill" to="#808080" begin="arrowUp.mouseover" end="arrowUp.mouseout"/>
                  </use>
                  <path fill="none" stroke="white" stroke-width="1.5" d="M0,-3.0v7 M-2.5,-0.5L0,-3.0L2.5,-0.5"/>
                </g>
                <g id="arrowRight" xlink:href="#dirArrow" transform="rotate(90) translate(36 -43)" onmousedown="handlePan(1,0)">
                  <use xlink:href="#rim" fill="#404040">
                        <set attributeName="fill" to="#808080" begin="arrowRight.mouseover" end="arrowRight.mouseout"/>
                  </use>
                  <path fill="none" stroke="white" stroke-width="1.5" d="M0,-3.0v7 M-2.5,-0.5L0,-3.0L2.5,-0.5"/>
                </g>
                <g id="arrowDown" xlink:href="#dirArrow" transform="rotate(180) translate(-30 -48)" onmousedown="handlePan(0,1)">
                  <use xlink:href="#rim" fill="#404040">
                        <set attributeName="fill" to="#808080" begin="arrowDown.mouseover" end="arrowDown.mouseout"/>
                  </use>
                  <path fill="none" stroke="white" stroke-width="1.5" d="M0,-3.0v7 M-2.5,-0.5L0,-3.0L2.5,-0.5"/>
                </g>
                <g id="arrowLeft" xlink:href="#dirArrow" transform="rotate(270) translate(-36 17)" onmousedown="handlePan(-1,0)">
                  <use xlink:href="#rim" fill="#404040">
                        <set attributeName="fill" to="#808080" begin="arrowLeft.mouseover" end="arrowLeft.mouseout"/>
                  </use>
                  <path fill="none" stroke="white" stroke-width="1.5" d="M0,-3.0v7 M-2.5,-0.5L0,-3.0L2.5,-0.5"/>
                </g>
        </g>
        <svg viewBox="0 0 15 15" width="100%" height="30px" preserveAspectRatio="xMaxYMin meet">
         <g id="arrow_out" transform="scale(0.3 0.3)">
          <a xlink:href="classwmtk_1_1_multi_mesh_manager_a8541924b10ee9493874cbc6f3f297157_icgraph_org.svg" target="_base">
           <rect id="button" ry="5" rx="5" y="6" x="6" height="38" width="38"
                fill="#f2f5e9" fill-opacity="0.5" stroke="#606060" stroke-width="1.0"/>
           <path id="arrow"
             d="M 11.500037,31.436501 C 11.940474,20.09759 22.043105,11.32322 32.158766,21.979434 L 37.068811,17.246167 C 37.068811,17.246167 37.088388,32 37.088388,32 L 22.160133,31.978069 C 22.160133,31.978069 26.997745,27.140456 26.997745,27.140456 C 18.528582,18.264221 13.291696,25.230495 11.500037,31.436501 z"
             style="fill:#404040;"/>
          </a>
         </g>
        </svg>
</svg>
