<?xml version="1.0" encoding="UTF-8" standalone="no"?>
<!DOCTYPE svg PUBLIC "-//W3C//DTD SVG 1.1//EN"
 "http://www.w3.org/Graphics/SVG/1.1/DTD/svg11.dtd">
<!-- Generated by graphviz version 2.43.0 (0)
 -->
<!-- Title: wmtk::Mesh::absolute_multi_mesh_id Pages: 1 -->
<!--zoomable 602 -->
<svg id="main" version="1.1" xmlns="http://www.w3.org/2000/svg" xmlns:xlink="http://www.w3.org/1999/xlink" xml:space="preserve" onload="init(evt)">
<style type="text/css"><![CDATA[
.edge:hover path { stroke: red; }
.edge:hover polygon { stroke: red; fill: red; }
]]></style>
<script type="text/javascript"><![CDATA[
var edges = document.getElementsByTagName('g');
if (edges && edges.length) {
  for (var i=0;i<edges.length;i++) {
    if (edges[i].id.substr(0,4)=='edge') {
      edges[i].setAttribute('class','edge');
    }
  }
}
]]></script>
        <defs>
                <circle id="rim" cx="0" cy="0" r="7"/>
                <circle id="rim2" cx="0" cy="0" r="3.5"/>
                <g id="zoomPlus">
                        <use xlink:href="#rim" fill="#404040">
                                <set attributeName="fill" to="#808080" begin="zoomplus.mouseover" end="zoomplus.mouseout"/>
                        </use>
                        <path d="M-4,0h8M0,-4v8" fill="none" stroke="white" stroke-width="1.5" pointer-events="none"/>
                </g>
                <g id="zoomMin">
                        <use xlink:href="#rim" fill="#404040">
                                <set attributeName="fill" to="#808080" begin="zoomminus.mouseover" end="zoomminus.mouseout"/>
                        </use>
                        <path d="M-4,0h8" fill="none" stroke="white" stroke-width="1.5" pointer-events="none"/>
                </g>
                <g id="dirArrow">
                        <path fill="none" stroke="white" stroke-width="1.5" d="M0,-3.0v7 M-2.5,-0.5L0,-3.0L2.5,-0.5"/>
                </g>
               <g id="resetDef">
                       <use xlink:href="#rim2" fill="#404040">
                               <set attributeName="fill" to="#808080" begin="reset.mouseover" end="reset.mouseout"/>
                       </use>
               </g>
        </defs>

<script type="text/javascript">
var viewWidth = 1652;
var viewHeight = 602;
var sectionId = 'dynsection-4';
</script>
<script xlink:href="svgpan.js"/>
<svg id="graph" class="graph">
<g id="viewport">
<title>wmtk::Mesh::absolute_multi_mesh_id</title>
<!-- Node1 -->
<g id="node1" class="node">
<title>Node1</title>
<g id="a_node1"><a xlink:title="returns a unique identifier for this mesh within a single multimesh structure">
<polygon fill="#bfbfbf" stroke="black" points="1519,-159 1519,-189 1644,-189 1644,-159 1519,-159"/>
<text text-anchor="start" x="1527" y="-177" font-family="Helvetica,sans-Serif" font-size="10.00">wmtk::Mesh::absolute</text>
<text text-anchor="middle" x="1581.5" y="-166" font-family="Helvetica,sans-Serif" font-size="10.00">_multi_mesh_id</text>
</a>
</g>
</g>
<!-- Node2 -->
<g id="node2" class="node">
<title>Node2</title>
<g id="a_node2"><a xlink:href="classwmtk_1_1_multi_mesh_manager.html#adc1bcc9bac09b0462f88b04e1026b1b6" target="_top" xlink:title=" ">
<polygon fill="none" stroke="black" points="1333.5,-428 1333.5,-458 1477.5,-458 1477.5,-428 1333.5,-428"/>
<text text-anchor="start" x="1341.5" y="-446" font-family="Helvetica,sans-Serif" font-size="10.00">wmtk::MultiMeshManager</text>
<text text-anchor="middle" x="1405.5" y="-435" font-family="Helvetica,sans-Serif" font-size="10.00">::can_map_child</text>
</a>
</g>
</g>
<!-- Node1&#45;&gt;Node2 -->
<g id="edge1" class="edge">
<title>Node1&#45;&gt;Node2</title>
<path fill="none" stroke="midnightblue" d="M1571.96,-198.76C1557.59,-238.3 1525.86,-317.06 1483,-374 1467.08,-395.15 1444,-414.91 1427.36,-427.81"/>
<polygon fill="midnightblue" stroke="midnightblue" points="1575.33,-199.73 1575.4,-189.14 1568.74,-197.38 1575.33,-199.73"/>
</g>
<!-- Node7 -->
<g id="node7" class="node">
<title>Node7</title>
<g id="a_node7"><a xlink:href="classwmtk_1_1_multi_mesh_manager.html#a8b976bb8988f1222287c54e10e4366de" target="_top" xlink:title=" ">
<polygon fill="none" stroke="black" points="1333.5,-159 1333.5,-189 1477.5,-189 1477.5,-159 1333.5,-159"/>
<text text-anchor="start" x="1341.5" y="-177" font-family="Helvetica,sans-Serif" font-size="10.00">wmtk::MultiMeshManager</text>
<text text-anchor="middle" x="1405.5" y="-166" font-family="Helvetica,sans-Serif" font-size="10.00">::check_child_map_valid</text>
</a>
</g>
</g>
<!-- Node1&#45;&gt;Node7 -->
<g id="edge6" class="edge">
<title>Node1&#45;&gt;Node7</title>
<path fill="none" stroke="midnightblue" d="M1508.56,-174C1498.34,-174 1487.84,-174 1477.63,-174"/>
<polygon fill="midnightblue" stroke="midnightblue" points="1508.66,-177.5 1518.66,-174 1508.66,-170.5 1508.66,-177.5"/>
</g>
<!-- Node9 -->
<g id="node9" class="node">
<title>Node9</title>
<g id="a_node9"><a xlink:href="classwmtk_1_1_multi_mesh_manager.html#a9b8e1abffd90167a36e88afdcc133c84" target="_top" xlink:title=" ">
<polygon fill="none" stroke="black" points="1333.5,-110 1333.5,-140 1477.5,-140 1477.5,-110 1333.5,-110"/>
<text text-anchor="start" x="1341.5" y="-128" font-family="Helvetica,sans-Serif" font-size="10.00">wmtk::MultiMeshManager</text>
<text text-anchor="middle" x="1405.5" y="-117" font-family="Helvetica,sans-Serif" font-size="10.00">::child_hashes</text>
</a>
</g>
</g>
<!-- Node1&#45;&gt;Node9 -->
<g id="edge8" class="edge">
<title>Node1&#45;&gt;Node9</title>
<path fill="none" stroke="midnightblue" d="M1517.22,-156.18C1498.43,-150.89 1478.05,-145.15 1459.95,-140.05"/>
<polygon fill="midnightblue" stroke="midnightblue" points="1516.3,-159.56 1526.87,-158.9 1518.2,-152.82 1516.3,-159.56"/>
</g>
<!-- Node10 -->
<g id="node10" class="node">
<title>Node10</title>
<g id="a_node10"><a xlink:href="namespacewmtk_1_1components.html#a2aa35ea56a54c5b65349ced551dd1429" target="_top" xlink:title=" ">
<polygon fill="none" stroke="black" points="724,-217.5 724,-236.5 870,-236.5 870,-217.5 724,-217.5"/>
<text text-anchor="middle" x="797" y="-224.5" font-family="Helvetica,sans-Serif" font-size="10.00">wmtk::components::fusion</text>
</a>
</g>
</g>
<!-- Node1&#45;&gt;Node10 -->
<g id="edge9" class="edge">
<title>Node1&#45;&gt;Node10</title>
<path fill="none" stroke="midnightblue" d="M1520.58,-191.47C1508.25,-194.47 1495.28,-197.2 1483,-199 1261.62,-231.54 995.96,-231.39 870.46,-229.01"/>
<polygon fill="midnightblue" stroke="midnightblue" points="1521.46,-194.86 1530.31,-189.02 1519.75,-188.07 1521.46,-194.86"/>
</g>
<!-- Node12 -->
<g id="node12" class="node">
<title>Node12</title>
<g id="a_node12"><a xlink:href="classwmtk_1_1_multi_mesh_manager.html#ad87afee8ce9db2e0b0e40027f63f989c" target="_top" xlink:title="maps a simplex from this mesh to any other mesh using the LUB as the root">
<polygon fill="none" stroke="black" points="1333.5,-61 1333.5,-91 1477.5,-91 1477.5,-61 1333.5,-61"/>
<text text-anchor="start" x="1341.5" y="-79" font-family="Helvetica,sans-Serif" font-size="10.00">wmtk::MultiMeshManager</text>
<text text-anchor="middle" x="1405.5" y="-68" font-family="Helvetica,sans-Serif" font-size="10.00">::lub_map_tuples</text>
</a>
</g>
</g>
<!-- Node1&#45;&gt;Node12 -->
<g id="edge11" class="edge">
<title>Node1&#45;&gt;Node12</title>
<path fill="none" stroke="midnightblue" d="M1556.69,-152.17C1537.87,-135.88 1510.3,-114.1 1483,-100 1476.57,-96.68 1469.59,-93.72 1462.56,-91.11"/>
<polygon fill="midnightblue" stroke="midnightblue" points="1554.63,-155.01 1564.44,-158.99 1559.25,-149.76 1554.63,-155.01"/>
</g>
<!-- Node21 -->
<g id="node21" class="node">
<title>Node21</title>
<g id="a_node21"><a xlink:href="classwmtk_1_1_multi_mesh_manager.html#a5e6576353e81057bca18a1d49ac9cadf" target="_top" xlink:title="maps a simplex from this mesh to any other mesh">
<polygon fill="none" stroke="black" points="1333.5,-334 1333.5,-364 1477.5,-364 1477.5,-334 1333.5,-334"/>
<text text-anchor="start" x="1341.5" y="-352" font-family="Helvetica,sans-Serif" font-size="10.00">wmtk::MultiMeshManager</text>
<text text-anchor="middle" x="1405.5" y="-341" font-family="Helvetica,sans-Serif" font-size="10.00">::map_tuples</text>
</a>
</g>
</g>
<!-- Node1&#45;&gt;Node21 -->
<g id="edge20" class="edge">
<title>Node1&#45;&gt;Node21</title>
<path fill="none" stroke="midnightblue" d="M1558.22,-196.41C1522.21,-232.63 1452.14,-303.1 1421.48,-333.94"/>
<polygon fill="midnightblue" stroke="midnightblue" points="1560.79,-198.78 1565.36,-189.22 1555.83,-193.85 1560.79,-198.78"/>
</g>
<!-- Node44 -->
<g id="node44" class="node">
<title>Node44</title>
<g id="a_node44"><a xlink:href="classwmtk_1_1operations_1_1utils_1_1_multi_mesh_edge_split_functor.html#a8a62248e747da31b020adf6b38d55535" target="_top" xlink:title=" ">
<polygon fill="none" stroke="black" points="1328,-0.5 1328,-41.5 1483,-41.5 1483,-0.5 1328,-0.5"/>
<text text-anchor="start" x="1336" y="-29.5" font-family="Helvetica,sans-Serif" font-size="10.00">wmtk::operations::utils</text>
<text text-anchor="start" x="1336" y="-18.5" font-family="Helvetica,sans-Serif" font-size="10.00">::MultiMeshEdgeSplitFunctor</text>
<text text-anchor="middle" x="1405.5" y="-7.5" font-family="Helvetica,sans-Serif" font-size="10.00">::operator()</text>
</a>
</g>
</g>
<!-- Node1&#45;&gt;Node44 -->
<g id="edge47" class="edge">
<title>Node1&#45;&gt;Node44</title>
<path fill="none" stroke="midnightblue" d="M1566.69,-149.69C1550.03,-122.31 1519.64,-78.12 1483,-51 1478.3,-47.52 1473.14,-44.39 1467.79,-41.58"/>
<polygon fill="midnightblue" stroke="midnightblue" points="1563.88,-151.81 1572,-158.62 1569.89,-148.23 1563.88,-151.81"/>
</g>
<!-- Node3 -->
<g id="node3" class="node">
<title>Node3</title>
<g id="a_node3"><a xlink:href="classwmtk_1_1_multi_mesh_manager.html#a796825608494ebb29802021b875d643d" target="_top" xlink:title=" ">
<polygon fill="none" stroke="black" points="1134,-473 1134,-503 1278,-503 1278,-473 1134,-473"/>
<text text-anchor="start" x="1142" y="-491" font-family="Helvetica,sans-Serif" font-size="10.00">wmtk::MultiMeshManager</text>
<text text-anchor="middle" x="1206" y="-480" font-family="Helvetica,sans-Serif" font-size="10.00">::can_map</text>
</a>
</g>
</g>
<!-- Node2&#45;&gt;Node3 -->
<g id="edge2" class="edge">
<title>Node2&#45;&gt;Node3</title>
<path fill="none" stroke="midnightblue" d="M1328.69,-460.27C1310.32,-464.46 1290.84,-468.9 1272.98,-472.97"/>
<polygon fill="midnightblue" stroke="midnightblue" points="1329.49,-463.68 1338.46,-458.05 1327.93,-456.86 1329.49,-463.68"/>
</g>
<!-- Node4 -->
<g id="node4" class="node">
<title>Node4</title>
<g id="a_node4"><a xlink:href="classwmtk_1_1_mesh.html#ac57c4894358e3857c09dfb00eb934c1f" target="_top" xlink:title=" ">
<polygon fill="none" stroke="black" points="941,-545.5 941,-564.5 1068,-564.5 1068,-545.5 941,-545.5"/>
<text text-anchor="middle" x="1004.5" y="-552.5" font-family="Helvetica,sans-Serif" font-size="10.00">wmtk::Mesh::can_map</text>
</a>
</g>
</g>
<!-- Node3&#45;&gt;Node4 -->
<g id="edge3" class="edge">
<title>Node3&#45;&gt;Node4</title>
<path fill="none" stroke="midnightblue" d="M1150.4,-506.34C1112.67,-519.01 1064.03,-535.34 1033.8,-545.49"/>
<polygon fill="midnightblue" stroke="midnightblue" points="1151.86,-509.54 1160.23,-503.04 1149.63,-502.9 1151.86,-509.54"/>
</g>
<!-- Node5 -->
<g id="node5" class="node">
<title>Node5</title>
<g id="a_node5"><a xlink:href="classwmtk_1_1multimesh_1_1_boundary_checker.html#ac3757a6c4ff01617e4c0ac4b968407b5" target="_top" xlink:title=" ">
<polygon fill="none" stroke="black" points="719.5,-553 719.5,-583 874.5,-583 874.5,-553 719.5,-553"/>
<text text-anchor="start" x="727.5" y="-571" font-family="Helvetica,sans-Serif" font-size="10.00">wmtk::multimesh::Boundary</text>
<text text-anchor="middle" x="797" y="-560" font-family="Helvetica,sans-Serif" font-size="10.00">Checker::is_boundary</text>
</a>
</g>
</g>
<!-- Node4&#45;&gt;Node5 -->
<g id="edge4" class="edge">
<title>Node4&#45;&gt;Node5</title>
<path fill="none" stroke="midnightblue" d="M930.51,-559.62C912.35,-560.77 892.84,-562 874.52,-563.16"/>
<polygon fill="midnightblue" stroke="midnightblue" points="930.97,-563.1 940.73,-558.97 930.53,-556.11 930.97,-563.1"/>
</g>
<!-- Node6 -->
<g id="node6" class="node">
<title>Node6</title>
<g id="a_node6"><a xlink:href="classwmtk_1_1multimesh_1_1_boundary_checker.html#a3ed1904d61f664b9905f95924e8d6b64" target="_top" xlink:title=" ">
<polygon fill="none" stroke="black" points="509,-563 509,-593 664,-593 664,-563 509,-563"/>
<text text-anchor="start" x="517" y="-581" font-family="Helvetica,sans-Serif" font-size="10.00">wmtk::multimesh::Boundary</text>
<text text-anchor="middle" x="586.5" y="-570" font-family="Helvetica,sans-Serif" font-size="10.00">Checker::is_boundary</text>
</a>
</g>
</g>
<!-- Node5&#45;&gt;Node6 -->
<g id="edge5" class="edge">
<title>Node5&#45;&gt;Node6</title>
<path fill="none" stroke="midnightblue" d="M709.02,-572.17C694.1,-572.89 678.7,-573.63 664.09,-574.33"/>
<polygon fill="midnightblue" stroke="midnightblue" points="709.43,-575.66 719.25,-571.68 709.09,-568.66 709.43,-575.66"/>
</g>
<!-- Node8 -->
<g id="node8" class="node">
<title>Node8</title>
<g id="a_node8"><a xlink:href="classwmtk_1_1_multi_mesh_manager.html#a6a85ae5901f9c5b6a383bc072f182a57" target="_top" xlink:title=" ">
<polygon fill="none" stroke="black" points="1134,-159 1134,-189 1278,-189 1278,-159 1134,-159"/>
<text text-anchor="start" x="1142" y="-177" font-family="Helvetica,sans-Serif" font-size="10.00">wmtk::MultiMeshManager</text>
<text text-anchor="middle" x="1206" y="-166" font-family="Helvetica,sans-Serif" font-size="10.00">::check_map_valid</text>
</a>
</g>
</g>
<!-- Node7&#45;&gt;Node8 -->
<g id="edge7" class="edge">
<title>Node7&#45;&gt;Node8</title>
<path fill="none" stroke="midnightblue" d="M1323.21,-174C1308.24,-174 1292.7,-174 1278.06,-174"/>
<polygon fill="midnightblue" stroke="midnightblue" points="1323.48,-177.5 1333.48,-174 1323.48,-170.5 1323.48,-177.5"/>
</g>
<!-- Node11 -->
<g id="node11" class="node">
<title>Node11</title>
<g id="a_node11"><a xlink:href="test__component__fusion_8cpp.html#ad717d3fcca492f6237e8e5f0e3455e4e" target="_top" xlink:title=" ">
<polygon fill="none" stroke="black" points="551,-217.5 551,-236.5 622,-236.5 622,-217.5 551,-217.5"/>
<text text-anchor="middle" x="586.5" y="-224.5" font-family="Helvetica,sans-Serif" font-size="10.00">TEST_CASE</text>
</a>
</g>
</g>
<!-- Node10&#45;&gt;Node11 -->
<g id="edge10" class="edge">
<title>Node10&#45;&gt;Node11</title>
<path fill="none" stroke="midnightblue" d="M713.72,-227C681.83,-227 647.06,-227 622.11,-227"/>
<polygon fill="midnightblue" stroke="midnightblue" points="713.95,-230.5 723.95,-227 713.95,-223.5 713.95,-230.5"/>
</g>
<!-- Node13 -->
<g id="node13" class="node">
<title>Node13</title>
<g id="a_node13"><a xlink:href="classwmtk_1_1_multi_mesh_manager.html#abcef6ecb08f5da4cf2b6e3859747197f" target="_top" xlink:title="maps a simplex from this mesh to any other mesh using the LUB as the root">
<polygon fill="none" stroke="black" points="1134,-51 1134,-81 1278,-81 1278,-51 1134,-51"/>
<text text-anchor="start" x="1142" y="-69" font-family="Helvetica,sans-Serif" font-size="10.00">wmtk::MultiMeshManager</text>
<text text-anchor="middle" x="1206" y="-58" font-family="Helvetica,sans-Serif" font-size="10.00">::lub_map</text>
</a>
</g>
</g>
<!-- Node12&#45;&gt;Node13 -->
<g id="edge12" class="edge">
<title>Node12&#45;&gt;Node13</title>
<path fill="none" stroke="midnightblue" d="M1323.21,-71.88C1308.24,-71.13 1292.7,-70.34 1278.06,-69.6"/>
<polygon fill="midnightblue" stroke="midnightblue" points="1323.31,-75.39 1333.48,-72.4 1323.67,-68.4 1323.31,-75.39"/>
</g>
<!-- Node16 -->
<g id="node16" class="node">
<title>Node16</title>
<g id="a_node16"><a xlink:href="classwmtk_1_1_mesh.html#afca213673a7f569665d73353eae95ccc" target="_top" xlink:title="maps a simplex from this mesh to any other mesh using LUB mesh as root">
<polygon fill="none" stroke="black" points="1143.5,-100 1143.5,-130 1268.5,-130 1268.5,-100 1143.5,-100"/>
<text text-anchor="start" x="1151.5" y="-118" font-family="Helvetica,sans-Serif" font-size="10.00">wmtk::Mesh::lub_map</text>
<text text-anchor="middle" x="1206" y="-107" font-family="Helvetica,sans-Serif" font-size="10.00">_tuples</text>
</a>
</g>
</g>
<!-- Node12&#45;&gt;Node16 -->
<g id="edge15" class="edge">
<title>Node12&#45;&gt;Node16</title>
<path fill="none" stroke="midnightblue" d="M1323.66,-91.96C1305.27,-95.6 1286.02,-99.4 1268.58,-102.84"/>
<polygon fill="midnightblue" stroke="midnightblue" points="1324.34,-95.4 1333.48,-90.02 1322.99,-88.53 1324.34,-95.4"/>
</g>
<!-- Node14 -->
<g id="node14" class="node">
<title>Node14</title>
<g id="a_node14"><a xlink:href="classwmtk_1_1_mesh.html#a41b770767cdea17fe0adc0c991202091" target="_top" xlink:title="maps a simplex from this mesh to any other mesh using LUB mesh as root">
<polygon fill="none" stroke="black" points="942,-56.5 942,-75.5 1067,-75.5 1067,-56.5 942,-56.5"/>
<text text-anchor="middle" x="1004.5" y="-63.5" font-family="Helvetica,sans-Serif" font-size="10.00">wmtk::Mesh::lub_map</text>
</a>
</g>
</g>
<!-- Node13&#45;&gt;Node14 -->
<g id="edge13" class="edge">
<title>Node13&#45;&gt;Node14</title>
<path fill="none" stroke="midnightblue" d="M1123.73,-66C1104.81,-66 1084.97,-66 1067.06,-66"/>
<polygon fill="midnightblue" stroke="midnightblue" points="1123.82,-69.5 1133.82,-66 1123.82,-62.5 1123.82,-69.5"/>
</g>
<!-- Node15 -->
<g id="node15" class="node">
<title>Node15</title>
<g id="a_node15"><a xlink:href="classwmtk_1_1_mesh.html#a490bc8412756782456cdf3a5bb4582f3" target="_top" xlink:title=" ">
<polygon fill="none" stroke="black" points="734.5,-56.5 734.5,-75.5 859.5,-75.5 859.5,-56.5 734.5,-56.5"/>
<text text-anchor="middle" x="797" y="-63.5" font-family="Helvetica,sans-Serif" font-size="10.00">wmtk::Mesh::lub_map</text>
</a>
</g>
</g>
<!-- Node14&#45;&gt;Node15 -->
<g id="edge14" class="edge">
<title>Node14&#45;&gt;Node15</title>
<path fill="none" stroke="midnightblue" d="M931.59,-66C908.11,-66 882.27,-66 859.61,-66"/>
<polygon fill="midnightblue" stroke="midnightblue" points="931.84,-69.5 941.84,-66 931.84,-62.5 931.84,-69.5"/>
</g>
<!-- Node17 -->
<g id="node17" class="node">
<title>Node17</title>
<g id="a_node17"><a xlink:href="classwmtk_1_1operations_1_1_attribute_transfer_strategy_base.html#a6883c6416f61c4ee06588a86c3b8d731" target="_top" xlink:title=" ">
<polygon fill="none" stroke="black" points="929,-148.5 929,-189.5 1080,-189.5 1080,-148.5 929,-148.5"/>
<text text-anchor="start" x="937" y="-177.5" font-family="Helvetica,sans-Serif" font-size="10.00">wmtk::operations::Attribute</text>
<text text-anchor="start" x="937" y="-166.5" font-family="Helvetica,sans-Serif" font-size="10.00">TransferStrategyBase::get</text>
<text text-anchor="middle" x="1004.5" y="-155.5" font-family="Helvetica,sans-Serif" font-size="10.00">_parent_simplices</text>
</a>
</g>
</g>
<!-- Node16&#45;&gt;Node17 -->
<g id="edge16" class="edge">
<title>Node16&#45;&gt;Node17</title>
<path fill="none" stroke="midnightblue" d="M1139.67,-132.68C1120.65,-137.83 1099.72,-143.5 1080.16,-148.79"/>
<polygon fill="midnightblue" stroke="midnightblue" points="1140.69,-136.03 1149.43,-130.04 1138.86,-129.28 1140.69,-136.03"/>
</g>
<!-- Node20 -->
<g id="node20" class="node">
<title>Node20</title>
<g id="a_node20"><a xlink:href="classwmtk_1_1_mesh.html#a200e9023103df15f15802116aa19ec03" target="_top" xlink:title=" ">
<polygon fill="none" stroke="black" points="942,-99 942,-129 1067,-129 1067,-99 942,-99"/>
<text text-anchor="start" x="950" y="-117" font-family="Helvetica,sans-Serif" font-size="10.00">wmtk::Mesh::lub_map</text>
<text text-anchor="middle" x="1004.5" y="-106" font-family="Helvetica,sans-Serif" font-size="10.00">_tuples</text>
</a>
</g>
</g>
<!-- Node16&#45;&gt;Node20 -->
<g id="edge19" class="edge">
<title>Node16&#45;&gt;Node20</title>
<path fill="none" stroke="midnightblue" d="M1133.16,-114.64C1111.61,-114.53 1088.16,-114.41 1067.31,-114.31"/>
<polygon fill="midnightblue" stroke="midnightblue" points="1133.23,-118.14 1143.24,-114.69 1133.26,-111.14 1133.23,-118.14"/>
</g>
<!-- Node18 -->
<g id="node18" class="node">
<title>Node18</title>
<g id="a_node18"><a xlink:href="classwmtk_1_1operations_1_1_attribute_transfer_strategy_base.html#aa5e03221c4b6b49e1892ed464d84c0cd" target="_top" xlink:title=" ">
<polygon fill="none" stroke="black" points="721.5,-156.5 721.5,-197.5 872.5,-197.5 872.5,-156.5 721.5,-156.5"/>
<text text-anchor="start" x="729.5" y="-185.5" font-family="Helvetica,sans-Serif" font-size="10.00">wmtk::operations::Attribute</text>
<text text-anchor="start" x="729.5" y="-174.5" font-family="Helvetica,sans-Serif" font-size="10.00">TransferStrategyBase::get</text>
<text text-anchor="middle" x="797" y="-163.5" font-family="Helvetica,sans-Serif" font-size="10.00">_parent_simplices</text>
</a>
</g>
</g>
<!-- Node17&#45;&gt;Node18 -->
<g id="edge17" class="edge">
<title>Node17&#45;&gt;Node18</title>
<path fill="none" stroke="midnightblue" d="M918.35,-172.31C903.21,-172.9 887.54,-173.51 872.72,-174.09"/>
<polygon fill="midnightblue" stroke="midnightblue" points="918.87,-175.8 928.73,-171.91 918.6,-168.8 918.87,-175.8"/>
</g>
<!-- Node19 -->
<g id="node19" class="node">
<title>Node19</title>
<g id="a_node19"><a xlink:href="classwmtk_1_1operations_1_1_single_attribute_transfer_strategy.html#aa5bf8a5fdf8527d9843f3f578c646b41" target="_top" xlink:title=" ">
<polygon fill="none" stroke="black" points="727,-96.5 727,-137.5 867,-137.5 867,-96.5 727,-96.5"/>
<text text-anchor="start" x="735" y="-125.5" font-family="Helvetica,sans-Serif" font-size="10.00">wmtk::operations::Single</text>
<text text-anchor="start" x="735" y="-114.5" font-family="Helvetica,sans-Serif" font-size="10.00">AttributeTransferStrategy</text>
<text text-anchor="middle" x="797" y="-103.5" font-family="Helvetica,sans-Serif" font-size="10.00">::read_parent_values</text>
</a>
</g>
</g>
<!-- Node17&#45;&gt;Node19 -->
<g id="edge18" class="edge">
<title>Node17&#45;&gt;Node19</title>
<path fill="none" stroke="midnightblue" d="M918.73,-147.55C901.6,-143.21 883.78,-138.7 867.25,-134.52"/>
<polygon fill="midnightblue" stroke="midnightblue" points="918.18,-151.02 928.73,-150.08 919.89,-144.23 918.18,-151.02"/>
</g>
<!-- Node22 -->
<g id="node22" class="node">
<title>Node22</title>
<g id="a_node22"><a xlink:href="classwmtk_1_1_multi_mesh_manager.html#ae76aeebb931d918c2fed74a94af892e8" target="_top" xlink:title="maps a simplex from this mesh to any other mesh">
<polygon fill="none" stroke="black" points="1120,-404.5 1120,-423.5 1292,-423.5 1292,-404.5 1120,-404.5"/>
<text text-anchor="middle" x="1206" y="-411.5" font-family="Helvetica,sans-Serif" font-size="10.00">wmtk::MultiMeshManager::map</text>
</a>
</g>
</g>
<!-- Node21&#45;&gt;Node22 -->
<g id="edge21" class="edge">
<title>Node21&#45;&gt;Node22</title>
<path fill="none" stroke="midnightblue" d="M1349.11,-367.23C1312.38,-379.32 1265.66,-394.69 1236.04,-404.44"/>
<polygon fill="midnightblue" stroke="midnightblue" points="1350.29,-370.53 1358.69,-364.08 1348.1,-363.88 1350.29,-370.53"/>
</g>
<!-- Node30 -->
<g id="node30" class="node">
<title>Node30</title>
<g id="a_node30"><a xlink:href="classwmtk_1_1_mesh.html#a82637d24776e0e06e2124ce914c4b40f" target="_top" xlink:title="maps a simplex from this mesh to any other mesh">
<polygon fill="none" stroke="black" points="1136,-339.5 1136,-358.5 1276,-358.5 1276,-339.5 1136,-339.5"/>
<text text-anchor="middle" x="1206" y="-346.5" font-family="Helvetica,sans-Serif" font-size="10.00">wmtk::Mesh::map_tuples</text>
</a>
</g>
</g>
<!-- Node21&#45;&gt;Node30 -->
<g id="edge31" class="edge">
<title>Node21&#45;&gt;Node30</title>
<path fill="none" stroke="midnightblue" d="M1323.28,-349C1307.6,-349 1291.32,-349 1276.07,-349"/>
<polygon fill="midnightblue" stroke="midnightblue" points="1323.48,-352.5 1333.48,-349 1323.48,-345.5 1323.48,-352.5"/>
</g>
<!-- Node23 -->
<g id="node23" class="node">
<title>Node23</title>
<g id="a_node23"><a xlink:href="classwmtk_1_1_mesh.html#abe23d31a7ad54af38da1bf7b6e232cab" target="_top" xlink:title="maps a simplex from this mesh to any other mesh">
<polygon fill="none" stroke="black" points="952.5,-432.5 952.5,-451.5 1056.5,-451.5 1056.5,-432.5 952.5,-432.5"/>
<text text-anchor="middle" x="1004.5" y="-439.5" font-family="Helvetica,sans-Serif" font-size="10.00">wmtk::Mesh::map</text>
</a>
</g>
</g>
<!-- Node22&#45;&gt;Node23 -->
<g id="edge22" class="edge">
<title>Node22&#45;&gt;Node23</title>
<path fill="none" stroke="midnightblue" d="M1127.17,-424.92C1103.53,-428.24 1078.17,-431.8 1056.74,-434.81"/>
<polygon fill="midnightblue" stroke="midnightblue" points="1127.76,-428.37 1137.18,-423.52 1126.79,-421.44 1127.76,-428.37"/>
</g>
<!-- Node24 -->
<g id="node24" class="node">
<title>Node24</title>
<g id="a_node24"><a xlink:href="classwmtk_1_1operations_1_1_operation.html#af181d255eb0ef5297646e0dc9dc817a7" target="_top" xlink:title=" ">
<polygon fill="none" stroke="black" points="508.5,-514 508.5,-544 664.5,-544 664.5,-514 508.5,-514"/>
<text text-anchor="start" x="516.5" y="-532" font-family="Helvetica,sans-Serif" font-size="10.00">wmtk::operations::Operation</text>
<text text-anchor="middle" x="586.5" y="-521" font-family="Helvetica,sans-Serif" font-size="10.00">::apply_attribute_transfer</text>
</a>
</g>
</g>
<!-- Node23&#45;&gt;Node24 -->
<g id="edge23" class="edge">
<title>Node23&#45;&gt;Node24</title>
<path fill="none" stroke="midnightblue" d="M974.19,-455.74C951.43,-465.87 918.83,-479.18 889,-487 814.11,-506.64 726.19,-517.55 664.69,-523.3"/>
<polygon fill="midnightblue" stroke="midnightblue" points="975.63,-458.93 983.3,-451.63 972.75,-452.55 975.63,-458.93"/>
</g>
<!-- Node26 -->
<g id="node26" class="node">
<title>Node26</title>
<g id="a_node26"><a xlink:href="classwmtk_1_1operations_1_1_operation.html#ae802270b57ba3fe8ed2345b5777f46af" target="_top" xlink:title=" ">
<polygon fill="none" stroke="black" points="508.5,-465 508.5,-495 664.5,-495 664.5,-465 508.5,-465"/>
<text text-anchor="start" x="516.5" y="-483" font-family="Helvetica,sans-Serif" font-size="10.00">wmtk::operations::Operation</text>
<text text-anchor="middle" x="586.5" y="-472" font-family="Helvetica,sans-Serif" font-size="10.00">::before</text>
</a>
</g>
</g>
<!-- Node23&#45;&gt;Node26 -->
<g id="edge25" class="edge">
<title>Node23&#45;&gt;Node26</title>
<path fill="none" stroke="midnightblue" d="M957.58,-453.92C936.79,-458.82 911.8,-464.04 889,-467 813.14,-476.84 725.75,-479.69 664.64,-480.31"/>
<polygon fill="midnightblue" stroke="midnightblue" points="958.52,-457.29 967.42,-451.54 956.88,-450.48 958.52,-457.29"/>
</g>
<!-- Node27 -->
<g id="node27" class="node">
<title>Node27</title>
<g id="a_node27"><a xlink:href="classwmtk_1_1invariants_1_1_invariant_collection.html#a120325711274b7754c4b6ae6b12151c9" target="_top" xlink:title=" ">
<polygon fill="none" stroke="black" points="705,-427 705,-457 889,-457 889,-427 705,-427"/>
<text text-anchor="start" x="713" y="-445" font-family="Helvetica,sans-Serif" font-size="10.00">wmtk::invariants::Invariant</text>
<text text-anchor="middle" x="797" y="-434" font-family="Helvetica,sans-Serif" font-size="10.00">Collection::directly_modified_after</text>
</a>
</g>
</g>
<!-- Node23&#45;&gt;Node27 -->
<g id="edge27" class="edge">
<title>Node23&#45;&gt;Node27</title>
<path fill="none" stroke="midnightblue" d="M942.3,-442C925.63,-442 907.2,-442 889.25,-442"/>
<polygon fill="midnightblue" stroke="midnightblue" points="942.44,-445.5 952.44,-442 942.44,-438.5 942.44,-445.5"/>
</g>
<!-- Node29 -->
<g id="node29" class="node">
<title>Node29</title>
<g id="a_node29"><a xlink:href="classwmtk_1_1_mesh.html#a8b63c6ed94b08ec217f7d2aa0b73d28a" target="_top" xlink:title=" ">
<polygon fill="none" stroke="black" points="745,-388.5 745,-407.5 849,-407.5 849,-388.5 745,-388.5"/>
<text text-anchor="middle" x="797" y="-395.5" font-family="Helvetica,sans-Serif" font-size="10.00">wmtk::Mesh::map</text>
</a>
</g>
</g>
<!-- Node23&#45;&gt;Node29 -->
<g id="edge30" class="edge">
<title>Node23&#45;&gt;Node29</title>
<path fill="none" stroke="midnightblue" d="M948.89,-430.31C915.65,-423.19 873.72,-414.21 842.5,-407.53"/>
<polygon fill="midnightblue" stroke="midnightblue" points="948.4,-433.78 958.91,-432.45 949.86,-426.94 948.4,-433.78"/>
</g>
<!-- Node25 -->
<g id="node25" class="node">
<title>Node25</title>
<g id="a_node25"><a xlink:href="classwmtk_1_1operations_1_1_operation.html#a9c6426d34b54642aacb28e7cf93e328f" target="_top" xlink:title=" ">
<polygon fill="none" stroke="black" points="312,-465 312,-495 468,-495 468,-465 312,-465"/>
<text text-anchor="start" x="320" y="-483" font-family="Helvetica,sans-Serif" font-size="10.00">wmtk::operations::Operation</text>
<text text-anchor="middle" x="390" y="-472" font-family="Helvetica,sans-Serif" font-size="10.00">::operator()</text>
</a>
</g>
</g>
<!-- Node24&#45;&gt;Node25 -->
<g id="edge24" class="edge">
<title>Node24&#45;&gt;Node25</title>
<path fill="none" stroke="midnightblue" d="M515.84,-511.45C494.48,-506.07 471.19,-500.2 450.57,-495.01"/>
<polygon fill="midnightblue" stroke="midnightblue" points="515.27,-514.92 525.82,-513.97 516.98,-508.13 515.27,-514.92"/>
</g>
<!-- Node26&#45;&gt;Node25 -->
<g id="edge26" class="edge">
<title>Node26&#45;&gt;Node25</title>
<path fill="none" stroke="midnightblue" d="M498.32,-480C488.23,-480 478,-480 468.06,-480"/>
<polygon fill="midnightblue" stroke="midnightblue" points="498.35,-483.5 508.35,-480 498.35,-476.5 498.35,-483.5"/>
</g>
<!-- Node28 -->
<g id="node28" class="node">
<title>Node28</title>
<g id="a_node28"><a xlink:href="classwmtk_1_1operations_1_1_operation.html#a3cf4616909230345e0039b33c28d9214" target="_top" xlink:title=" ">
<polygon fill="none" stroke="black" points="508.5,-416 508.5,-446 664.5,-446 664.5,-416 508.5,-416"/>
<text text-anchor="start" x="516.5" y="-434" font-family="Helvetica,sans-Serif" font-size="10.00">wmtk::operations::Operation</text>
<text text-anchor="middle" x="586.5" y="-423" font-family="Helvetica,sans-Serif" font-size="10.00">::after</text>
</a>
</g>
</g>
<!-- Node27&#45;&gt;Node28 -->
<g id="edge28" class="edge">
<title>Node27&#45;&gt;Node28</title>
<path fill="none" stroke="midnightblue" d="M694.79,-436.66C684.69,-436.13 674.56,-435.59 664.77,-435.08"/>
<polygon fill="midnightblue" stroke="midnightblue" points="694.68,-440.16 704.85,-437.19 695.05,-433.17 694.68,-440.16"/>
</g>
<!-- Node28&#45;&gt;Node25 -->
<g id="edge29" class="edge">
<title>Node28&#45;&gt;Node25</title>
<path fill="none" stroke="midnightblue" d="M515.84,-448.55C494.48,-453.93 471.19,-459.8 450.57,-464.99"/>
<polygon fill="midnightblue" stroke="midnightblue" points="516.98,-451.87 525.82,-446.03 515.27,-445.08 516.98,-451.87"/>
</g>
<!-- Node30&#45;&gt;Node5 -->
<g id="edge35" class="edge">
<title>Node30&#45;&gt;Node5</title>
<path fill="none" stroke="midnightblue" d="M1169.35,-362.69C1152.86,-370.34 1133.91,-381.14 1120,-395 1096.33,-418.59 1109.24,-439.1 1084,-461 1048.31,-491.97 923.67,-531.69 851.24,-552.96"/>
<polygon fill="midnightblue" stroke="midnightblue" points="1170.97,-365.8 1178.71,-358.56 1168.15,-359.4 1170.97,-365.8"/>
</g>
<!-- Node31 -->
<g id="node31" class="node">
<title>Node31</title>
<g id="a_node31"><a xlink:href="classwmtk_1_1invariants_1_1_invariant_collection.html#a8ca33e950e39423425248ba8d25b3dca" target="_top" xlink:title=" ">
<polygon fill="none" stroke="black" points="930,-383 930,-413 1079,-413 1079,-383 930,-383"/>
<text text-anchor="start" x="938" y="-401" font-family="Helvetica,sans-Serif" font-size="10.00">wmtk::invariants::Invariant</text>
<text text-anchor="middle" x="1004.5" y="-390" font-family="Helvetica,sans-Serif" font-size="10.00">Collection::after</text>
</a>
</g>
</g>
<!-- Node30&#45;&gt;Node31 -->
<g id="edge32" class="edge">
<title>Node30&#45;&gt;Node31</title>
<path fill="none" stroke="midnightblue" d="M1156.09,-361.01C1129.13,-367.64 1095.41,-375.92 1066.72,-382.96"/>
<polygon fill="midnightblue" stroke="midnightblue" points="1157.18,-364.35 1166.06,-358.56 1155.51,-357.55 1157.18,-364.35"/>
</g>
<!-- Node33 -->
<g id="node33" class="node">
<title>Node33</title>
<g id="a_node33"><a xlink:href="classwmtk_1_1operations_1_1composite_1_1_project_operation.html#ac0aa2bc6e51b9d8f94fd5943627545dd" target="_top" xlink:title="returns an empty vector in case of failure">
<polygon fill="none" stroke="black" points="925,-285 925,-315 1084,-315 1084,-285 925,-285"/>
<text text-anchor="start" x="933" y="-303" font-family="Helvetica,sans-Serif" font-size="10.00">wmtk::operations::composite</text>
<text text-anchor="middle" x="1004.5" y="-292" font-family="Helvetica,sans-Serif" font-size="10.00">::ProjectOperation::execute</text>
</a>
</g>
</g>
<!-- Node30&#45;&gt;Node33 -->
<g id="edge34" class="edge">
<title>Node30&#45;&gt;Node33</title>
<path fill="none" stroke="midnightblue" d="M1156.09,-336.99C1129.13,-330.36 1095.41,-322.08 1066.72,-315.04"/>
<polygon fill="midnightblue" stroke="midnightblue" points="1155.51,-340.45 1166.06,-339.44 1157.18,-333.65 1155.51,-340.45"/>
</g>
<!-- Node34 -->
<g id="node34" class="node">
<title>Node34</title>
<g id="a_node34"><a xlink:href="classwmtk_1_1_mesh.html#a2d38639fa705c42719431cdffe7885fb" target="_top" xlink:title=" ">
<polygon fill="none" stroke="black" points="934.5,-246.5 934.5,-265.5 1074.5,-265.5 1074.5,-246.5 934.5,-246.5"/>
<text text-anchor="middle" x="1004.5" y="-253.5" font-family="Helvetica,sans-Serif" font-size="10.00">wmtk::Mesh::map_tuples</text>
</a>
</g>
</g>
<!-- Node30&#45;&gt;Node34 -->
<g id="edge36" class="edge">
<title>Node30&#45;&gt;Node34</title>
<path fill="none" stroke="midnightblue" d="M1183.44,-333.3C1160.01,-316.91 1120.97,-291.46 1084,-276 1074.01,-271.82 1062.93,-268.35 1052.31,-265.53"/>
<polygon fill="midnightblue" stroke="midnightblue" points="1181.72,-336.38 1191.9,-339.31 1185.77,-330.67 1181.72,-336.38"/>
</g>
<!-- Node35 -->
<g id="node35" class="node">
<title>Node35</title>
<g id="a_node35"><a xlink:href="classwmtk_1_1_mesh.html#a333e19ee5ddb037313fa7dbdb0e41771" target="_top" xlink:title="register a mesh as the child of this mesh">
<polygon fill="none" stroke="black" points="944.5,-334 944.5,-364 1064.5,-364 1064.5,-334 944.5,-334"/>
<text text-anchor="start" x="952.5" y="-352" font-family="Helvetica,sans-Serif" font-size="10.00">wmtk::Mesh::register</text>
<text text-anchor="middle" x="1004.5" y="-341" font-family="Helvetica,sans-Serif" font-size="10.00">_child_mesh</text>
</a>
</g>
</g>
<!-- Node30&#45;&gt;Node35 -->
<g id="edge37" class="edge">
<title>Node30&#45;&gt;Node35</title>
<path fill="none" stroke="midnightblue" d="M1125.6,-349C1105.26,-349 1083.75,-349 1064.64,-349"/>
<polygon fill="midnightblue" stroke="midnightblue" points="1125.78,-352.5 1135.78,-349 1125.78,-345.5 1125.78,-352.5"/>
</g>
<!-- Node32 -->
<g id="node32" class="node">
<title>Node32</title>
<g id="a_node32"><a xlink:href="classwmtk_1_1operations_1_1_optimization_smoothing_1_1_w_m_t_k_problem.html#a656eb77b00a2c1bf2e2fd918b275078b" target="_top" xlink:title=" ">
<polygon fill="none" stroke="black" points="711.5,-328.5 711.5,-369.5 882.5,-369.5 882.5,-328.5 711.5,-328.5"/>
<text text-anchor="start" x="719.5" y="-357.5" font-family="Helvetica,sans-Serif" font-size="10.00">wmtk::operations::Optimization</text>
<text text-anchor="start" x="719.5" y="-346.5" font-family="Helvetica,sans-Serif" font-size="10.00">Smoothing::WMTKProblem::is</text>
<text text-anchor="middle" x="797" y="-335.5" font-family="Helvetica,sans-Serif" font-size="10.00">_step_valid</text>
</a>
</g>
</g>
<!-- Node31&#45;&gt;Node32 -->
<g id="edge33" class="edge">
<title>Node31&#45;&gt;Node32</title>
<path fill="none" stroke="midnightblue" d="M930.41,-380.57C914.9,-376.87 898.41,-372.94 882.51,-369.15"/>
<polygon fill="midnightblue" stroke="midnightblue" points="929.91,-384.05 940.45,-382.97 931.53,-377.24 929.91,-384.05"/>
</g>
<!-- Node35&#45;&gt;Node10 -->
<g id="edge46" class="edge">
<title>Node35&#45;&gt;Node10</title>
<path fill="none" stroke="midnightblue" d="M935.46,-332.42C931.73,-330.25 928.21,-327.79 925,-325 896.48,-300.23 918.37,-271.76 889,-248 883.08,-243.21 876.26,-239.47 869.08,-236.55"/>
<polygon fill="midnightblue" stroke="midnightblue" points="933.96,-335.59 944.46,-337 937.13,-329.35 933.96,-335.59"/>
</g>
<!-- Node36 -->
<g id="node36" class="node">
<title>Node36</title>
<g id="a_node36"><a xlink:href="classwmtk_1_1multimesh_1_1utils_1_1internal_1_1_tuple_tag.html#a89f54c784fb3d50bba75eb8d5db6ed8a" target="_top" xlink:title=" ">
<polygon fill="none" stroke="black" points="724,-257 724,-309 870,-309 870,-257 724,-257"/>
<text text-anchor="start" x="732" y="-297" font-family="Helvetica,sans-Serif" font-size="10.00">wmtk::multimesh::utils</text>
<text text-anchor="start" x="732" y="-286" font-family="Helvetica,sans-Serif" font-size="10.00">::internal::TupleTag::</text>
<text text-anchor="start" x="732" y="-275" font-family="Helvetica,sans-Serif" font-size="10.00">extract_and_register_child</text>
<text text-anchor="middle" x="797" y="-264" font-family="Helvetica,sans-Serif" font-size="10.00">_mesh_from_tag_handle</text>
</a>
</g>
</g>
<!-- Node35&#45;&gt;Node36 -->
<g id="edge38" class="edge">
<title>Node35&#45;&gt;Node36</title>
<path fill="none" stroke="midnightblue" d="M943.72,-330.88C937.39,-328.91 931.06,-326.93 925,-325 907.19,-319.33 888.02,-313.08 870.11,-307.16"/>
<polygon fill="midnightblue" stroke="midnightblue" points="943.03,-334.33 953.61,-333.93 945.09,-327.64 943.03,-334.33"/>
</g>
<!-- Node37 -->
<g id="node37" class="node">
<title>Node37</title>
<g id="a_node37"><a xlink:href="namespacewmtk_1_1multimesh_1_1utils.html#a197be9245149c7042613aeacf231ec1d" target="_top" xlink:title="extract a child mesh based on the tag handle and the tag value, and register it to the input (parent)...">
<polygon fill="none" stroke="black" points="521.5,-259.5 521.5,-300.5 651.5,-300.5 651.5,-259.5 521.5,-259.5"/>
<text text-anchor="start" x="529.5" y="-288.5" font-family="Helvetica,sans-Serif" font-size="10.00">wmtk::multimesh::utils</text>
<text text-anchor="start" x="529.5" y="-277.5" font-family="Helvetica,sans-Serif" font-size="10.00">::extract_and_register</text>
<text text-anchor="middle" x="586.5" y="-266.5" font-family="Helvetica,sans-Serif" font-size="10.00">_child_mesh_from_tag</text>
</a>
</g>
</g>
<!-- Node36&#45;&gt;Node37 -->
<g id="edge39" class="edge">
<title>Node36&#45;&gt;Node37</title>
<path fill="none" stroke="midnightblue" d="M713.89,-281.82C693.17,-281.52 671.22,-281.2 651.53,-280.92"/>
<polygon fill="midnightblue" stroke="midnightblue" points="713.9,-285.32 723.95,-281.96 714.01,-278.32 713.9,-285.32"/>
</g>
<!-- Node38 -->
<g id="node38" class="node">
<title>Node38</title>
<g id="a_node38"><a xlink:href="namespacewmtk_1_1multimesh_1_1utils.html#a3ba02c50321ce0e6095c107cbb5edc13" target="_top" xlink:title="extract a child mesh based on the tag handle and the tag value, and register it to the input (parent)...">
<polygon fill="none" stroke="black" points="504,-319.5 504,-360.5 669,-360.5 669,-319.5 504,-319.5"/>
<text text-anchor="start" x="512" y="-348.5" font-family="Helvetica,sans-Serif" font-size="10.00">wmtk::multimesh::utils</text>
<text text-anchor="start" x="512" y="-337.5" font-family="Helvetica,sans-Serif" font-size="10.00">::extract_and_register</text>
<text text-anchor="middle" x="586.5" y="-326.5" font-family="Helvetica,sans-Serif" font-size="10.00">_child_mesh_from_tag_handle</text>
</a>
</g>
</g>
<!-- Node36&#45;&gt;Node38 -->
<g id="edge40" class="edge">
<title>Node36&#45;&gt;Node38</title>
<path fill="none" stroke="midnightblue" d="M714.1,-305.39C697.17,-310.02 679.42,-314.87 662.74,-319.43"/>
<polygon fill="midnightblue" stroke="midnightblue" points="715.23,-308.71 723.95,-302.7 713.39,-301.96 715.23,-308.71"/>
</g>
<!-- Node39 -->
<g id="node39" class="node">
<title>Node39</title>
<g id="a_node39"><a xlink:href="namespacewmtk_1_1multimesh_1_1utils.html#a9349b24597b61459c9d98753ae5234f1" target="_top" xlink:title="extract a child mesh based on the given tag and tag value, and register it to the input (parent) mesh">
<polygon fill="none" stroke="black" points="325,-319.5 325,-360.5 455,-360.5 455,-319.5 325,-319.5"/>
<text text-anchor="start" x="333" y="-348.5" font-family="Helvetica,sans-Serif" font-size="10.00">wmtk::multimesh::utils</text>
<text text-anchor="start" x="333" y="-337.5" font-family="Helvetica,sans-Serif" font-size="10.00">::extract_and_register</text>
<text text-anchor="middle" x="390" y="-326.5" font-family="Helvetica,sans-Serif" font-size="10.00">_child_mesh_from_tag</text>
</a>
</g>
</g>
<!-- Node38&#45;&gt;Node39 -->
<g id="edge41" class="edge">
<title>Node38&#45;&gt;Node39</title>
<path fill="none" stroke="midnightblue" d="M493.54,-340C480.61,-340 467.55,-340 455.29,-340"/>
<polygon fill="midnightblue" stroke="midnightblue" points="493.86,-343.5 503.86,-340 493.86,-336.5 493.86,-343.5"/>
</g>
<!-- Node40 -->
<g id="node40" class="node">
<title>Node40</title>
<g id="a_node40"><a xlink:href="namespacewmtk_1_1utils.html#af5ade8ca9598ff7d68dd37bcf395b9aa" target="_top" xlink:title=" ">
<polygon fill="none" stroke="black" points="115,-368.5 115,-409.5 268,-409.5 268,-368.5 115,-368.5"/>
<text text-anchor="start" x="123" y="-397.5" font-family="Helvetica,sans-Serif" font-size="10.00">wmtk::utils::generate</text>
<text text-anchor="start" x="123" y="-386.5" font-family="Helvetica,sans-Serif" font-size="10.00">_raw_tetmesh_with_surface</text>
<text text-anchor="middle" x="191.5" y="-375.5" font-family="Helvetica,sans-Serif" font-size="10.00">_from_input</text>
</a>
</g>
</g>
<!-- Node39&#45;&gt;Node40 -->
<g id="edge42" class="edge">
<title>Node39&#45;&gt;Node40</title>
<path fill="none" stroke="midnightblue" d="M314.99,-358.45C299.67,-362.28 283.5,-366.31 268.11,-370.15"/>
<polygon fill="midnightblue" stroke="midnightblue" points="316.07,-361.79 324.93,-355.98 314.38,-355 316.07,-361.79"/>
</g>
<!-- Node41 -->
<g id="node41" class="node">
<title>Node41</title>
<g id="a_node41"><a xlink:href="namespacewmtk_1_1components.html#aac69455341d52516952b0655d254ec51" target="_top" xlink:title=" ">
<polygon fill="none" stroke="black" points="107,-330.5 107,-349.5 276,-349.5 276,-330.5 107,-330.5"/>
<text text-anchor="middle" x="191.5" y="-337.5" font-family="Helvetica,sans-Serif" font-size="10.00">wmtk::components::multimesh</text>
</a>
</g>
</g>
<!-- Node39&#45;&gt;Node41 -->
<g id="edge43" class="edge">
<title>Node39&#45;&gt;Node41</title>
<path fill="none" stroke="midnightblue" d="M314.92,-340C302.27,-340 289.04,-340 276.16,-340"/>
<polygon fill="midnightblue" stroke="midnightblue" points="314.93,-343.5 324.93,-340 314.93,-336.5 314.93,-343.5"/>
</g>
<!-- Node43 -->
<g id="node43" class="node">
<title>Node43</title>
<g id="a_node43"><a xlink:href="test__component__isotropic__remeshing_8cpp.html#aae475685ae29b731655dd43137a950d6" target="_top" xlink:title=" ">
<polygon fill="none" stroke="black" points="156,-292.5 156,-311.5 227,-311.5 227,-292.5 156,-292.5"/>
<text text-anchor="middle" x="191.5" y="-299.5" font-family="Helvetica,sans-Serif" font-size="10.00">TEST_CASE</text>
</a>
</g>
</g>
<!-- Node39&#45;&gt;Node43 -->
<g id="edge45" class="edge">
<title>Node39&#45;&gt;Node43</title>
<path fill="none" stroke="midnightblue" d="M314.84,-325.66C284.67,-319.82 251.27,-313.37 227,-308.67"/>
<polygon fill="midnightblue" stroke="midnightblue" points="314.45,-329.15 324.93,-327.61 315.78,-322.27 314.45,-329.15"/>
</g>
<!-- Node42 -->
<g id="node42" class="node">
<title>Node42</title>
<g id="a_node42"><a xlink:href="test__component__multimesh_8cpp.html#adcff0ee9e850d29cff036dae09747fe6" target="_top" xlink:title=" ">
<polygon fill="none" stroke="black" points="0,-330.5 0,-349.5 71,-349.5 71,-330.5 0,-330.5"/>
<text text-anchor="middle" x="35.5" y="-337.5" font-family="Helvetica,sans-Serif" font-size="10.00">TEST_CASE</text>
</a>
</g>
</g>
<!-- Node41&#45;&gt;Node42 -->
<g id="edge44" class="edge">
<title>Node41&#45;&gt;Node42</title>
<path fill="none" stroke="midnightblue" d="M96.52,-340C87.57,-340 78.93,-340 71.14,-340"/>
<polygon fill="midnightblue" stroke="midnightblue" points="96.74,-343.5 106.74,-340 96.74,-336.5 96.74,-343.5"/>
</g>
</g>
</svg>
        <g id="navigator" transform="translate(0 0)" fill="#404254">
                <rect fill="#f2f5e9" fill-opacity="0.5" stroke="#606060" stroke-width=".5" x="0" y="0" width="60" height="60"/>
                <use id="zoomplus" xlink:href="#zoomPlus" x="17" y="9" onmousedown="handleZoom(evt,'in')"/>
                <use id="zoomminus" xlink:href="#zoomMin" x="42" y="9" onmousedown="handleZoom(evt,'out')"/>
                <use id="reset" xlink:href="#resetDef" x="30" y="36" onmousedown="handleReset()"/>
                <g id="arrowUp" xlink:href="#dirArrow" transform="translate(30 24)" onmousedown="handlePan(0,-1)">
                  <use xlink:href="#rim" fill="#404040">
                        <set attributeName="fill" to="#808080" begin="arrowUp.mouseover" end="arrowUp.mouseout"/>
                  </use>
                  <path fill="none" stroke="white" stroke-width="1.5" d="M0,-3.0v7 M-2.5,-0.5L0,-3.0L2.5,-0.5"/>
                </g>
                <g id="arrowRight" xlink:href="#dirArrow" transform="rotate(90) translate(36 -43)" onmousedown="handlePan(1,0)">
                  <use xlink:href="#rim" fill="#404040">
                        <set attributeName="fill" to="#808080" begin="arrowRight.mouseover" end="arrowRight.mouseout"/>
                  </use>
                  <path fill="none" stroke="white" stroke-width="1.5" d="M0,-3.0v7 M-2.5,-0.5L0,-3.0L2.5,-0.5"/>
                </g>
                <g id="arrowDown" xlink:href="#dirArrow" transform="rotate(180) translate(-30 -48)" onmousedown="handlePan(0,1)">
                  <use xlink:href="#rim" fill="#404040">
                        <set attributeName="fill" to="#808080" begin="arrowDown.mouseover" end="arrowDown.mouseout"/>
                  </use>
                  <path fill="none" stroke="white" stroke-width="1.5" d="M0,-3.0v7 M-2.5,-0.5L0,-3.0L2.5,-0.5"/>
                </g>
                <g id="arrowLeft" xlink:href="#dirArrow" transform="rotate(270) translate(-36 17)" onmousedown="handlePan(-1,0)">
                  <use xlink:href="#rim" fill="#404040">
                        <set attributeName="fill" to="#808080" begin="arrowLeft.mouseover" end="arrowLeft.mouseout"/>
                  </use>
                  <path fill="none" stroke="white" stroke-width="1.5" d="M0,-3.0v7 M-2.5,-0.5L0,-3.0L2.5,-0.5"/>
                </g>
        </g>
        <svg viewBox="0 0 15 15" width="100%" height="30px" preserveAspectRatio="xMaxYMin meet">
         <g id="arrow_out" transform="scale(0.3 0.3)">
          <a xlink:href="classwmtk_1_1_mesh_a2102fdea06a0c543437e67d77aeb2013_icgraph_org.svg" target="_base">
           <rect id="button" ry="5" rx="5" y="6" x="6" height="38" width="38"
                fill="#f2f5e9" fill-opacity="0.5" stroke="#606060" stroke-width="1.0"/>
           <path id="arrow"
             d="M 11.500037,31.436501 C 11.940474,20.09759 22.043105,11.32322 32.158766,21.979434 L 37.068811,17.246167 C 37.068811,17.246167 37.088388,32 37.088388,32 L 22.160133,31.978069 C 22.160133,31.978069 26.997745,27.140456 26.997745,27.140456 C 18.528582,18.264221 13.291696,25.230495 11.500037,31.436501 z"
             style="fill:#404040;"/>
          </a>
         </g>
        </svg>
</svg>
