<?xml version="1.0" encoding="UTF-8" standalone="no"?>
<!DOCTYPE svg PUBLIC "-//W3C//DTD SVG 1.1//EN"
 "http://www.w3.org/Graphics/SVG/1.1/DTD/svg11.dtd">
<!-- Generated by graphviz version 2.43.0 (0)
 -->
<!-- Title: wmtk::operations::tet_mesh::SplitNewAttributeTopoInfo::input_ear_simplices Pages: 1 -->
<svg width="1495pt" height="337pt"
 viewBox="0.00 0.00 1495.00 337.00" xmlns="http://www.w3.org/2000/svg" xmlns:xlink="http://www.w3.org/1999/xlink">
<g id="graph0" class="graph" transform="scale(1 1) rotate(0) translate(4 333)">
<title>wmtk::operations::tet_mesh::SplitNewAttributeTopoInfo::input_ear_simplices</title>
<!-- Node1 -->
<g id="node1" class="node">
<title>Node1</title>
<g id="a_node1"><a xlink:title=" ">
<polygon fill="#bfbfbf" stroke="black" points="0,-142.5 0,-183.5 164,-183.5 164,-142.5 0,-142.5"/>
<text text-anchor="start" x="8" y="-171.5" font-family="Helvetica,sans-Serif" font-size="10.00">wmtk::operations::tet</text>
<text text-anchor="start" x="8" y="-160.5" font-family="Helvetica,sans-Serif" font-size="10.00">_mesh::SplitNewAttributeTopo</text>
<text text-anchor="middle" x="82" y="-149.5" font-family="Helvetica,sans-Serif" font-size="10.00">Info::input_ear_simplices</text>
</a>
</g>
</g>
<!-- Node2 -->
<g id="node2" class="node">
<title>Node2</title>
<g id="a_node2"><a xlink:href="classwmtk_1_1operations_1_1tet__mesh_1_1_edge_operation_data.html#a66a25b17c95f2070f68cc3cc2f1800d4" target="_top" xlink:title=" ">
<polygon fill="none" stroke="black" points="200,-257.5 200,-298.5 350,-298.5 350,-257.5 200,-257.5"/>
<text text-anchor="start" x="208" y="-286.5" font-family="Helvetica,sans-Serif" font-size="10.00">wmtk::operations::tet</text>
<text text-anchor="start" x="208" y="-275.5" font-family="Helvetica,sans-Serif" font-size="10.00">_mesh::EdgeOperationData</text>
<text text-anchor="middle" x="275" y="-264.5" font-family="Helvetica,sans-Serif" font-size="10.00">::ear_edges</text>
</a>
</g>
</g>
<!-- Node1&#45;&gt;Node2 -->
<g id="edge1" class="edge">
<title>Node1&#45;&gt;Node2</title>
<path fill="none" stroke="midnightblue" d="M107.82,-183.79C130.72,-202.29 166.19,-229.24 200,-248 203.06,-249.7 206.24,-251.36 209.48,-252.96"/>
<polygon fill="midnightblue" stroke="midnightblue" points="208.21,-256.23 218.75,-257.34 211.2,-249.9 208.21,-256.23"/>
</g>
<!-- Node6 -->
<g id="node6" class="node">
<title>Node6</title>
<g id="a_node6"><a xlink:href="classwmtk_1_1operations_1_1tet__mesh_1_1_edge_operation_data.html#a3f64ab98767a583d112a78fde2a258ba" target="_top" xlink:title=" ">
<polygon fill="none" stroke="black" points="200,-197.5 200,-238.5 350,-238.5 350,-197.5 200,-197.5"/>
<text text-anchor="start" x="208" y="-226.5" font-family="Helvetica,sans-Serif" font-size="10.00">wmtk::operations::tet</text>
<text text-anchor="start" x="208" y="-215.5" font-family="Helvetica,sans-Serif" font-size="10.00">_mesh::EdgeOperationData</text>
<text text-anchor="middle" x="275" y="-204.5" font-family="Helvetica,sans-Serif" font-size="10.00">::ear_faces</text>
</a>
</g>
</g>
<!-- Node1&#45;&gt;Node6 -->
<g id="edge5" class="edge">
<title>Node1&#45;&gt;Node6</title>
<path fill="none" stroke="midnightblue" d="M154.39,-183.56C166.97,-187.18 180.15,-190.98 192.97,-194.67"/>
<polygon fill="midnightblue" stroke="midnightblue" points="192.12,-198.06 202.69,-197.47 194.05,-191.34 192.12,-198.06"/>
</g>
<!-- Node8 -->
<g id="node8" class="node">
<title>Node8</title>
<g id="a_node8"><a xlink:href="namespacewmtk.html#a5cf45c152e856196bb734c6f48919a24" target="_top" xlink:title="Get a unique integer id corresponding to each primitive type.">
<polygon fill="none" stroke="black" points="217,-148 217,-178 333,-178 333,-148 217,-148"/>
<text text-anchor="start" x="225" y="-166" font-family="Helvetica,sans-Serif" font-size="10.00">wmtk::get_primitive</text>
<text text-anchor="middle" x="275" y="-155" font-family="Helvetica,sans-Serif" font-size="10.00">_type_id</text>
</a>
</g>
</g>
<!-- Node1&#45;&gt;Node8 -->
<g id="edge8" class="edge">
<title>Node1&#45;&gt;Node8</title>
<path fill="none" stroke="midnightblue" d="M164,-163C178.18,-163 192.8,-163 206.56,-163"/>
<polygon fill="midnightblue" stroke="midnightblue" points="206.89,-166.5 216.89,-163 206.89,-159.5 206.89,-166.5"/>
</g>
<!-- Node9 -->
<g id="node9" class="node">
<title>Node9</title>
<g id="a_node9"><a xlink:href="classwmtk_1_1operations_1_1tet__mesh_1_1_edge_operation_data.html#a0b36950981ccdbd5b04a2d7eccc758a3" target="_top" xlink:title=" ">
<polygon fill="none" stroke="black" points="200,-87.5 200,-128.5 350,-128.5 350,-87.5 200,-87.5"/>
<text text-anchor="start" x="208" y="-116.5" font-family="Helvetica,sans-Serif" font-size="10.00">wmtk::operations::tet</text>
<text text-anchor="start" x="208" y="-105.5" font-family="Helvetica,sans-Serif" font-size="10.00">_mesh::EdgeOperationData</text>
<text text-anchor="middle" x="275" y="-94.5" font-family="Helvetica,sans-Serif" font-size="10.00">::input_endpoints</text>
</a>
</g>
</g>
<!-- Node1&#45;&gt;Node9 -->
<g id="edge9" class="edge">
<title>Node1&#45;&gt;Node9</title>
<path fill="none" stroke="midnightblue" d="M154.39,-142.44C166.97,-138.82 180.15,-135.02 192.97,-131.33"/>
<polygon fill="midnightblue" stroke="midnightblue" points="194.05,-134.66 202.69,-128.53 192.12,-127.94 194.05,-134.66"/>
</g>
<!-- Node25 -->
<g id="node25" class="node">
<title>Node25</title>
<g id="a_node25"><a xlink:href="classwmtk_1_1_mesh.html#ac5778c1f8afef3a2b1b1c33a140b3166" target="_top" xlink:title="Evaluate the passed in function inside the parent scope.">
<polygon fill="none" stroke="black" points="218,-38 218,-68 332,-68 332,-38 218,-38"/>
<text text-anchor="start" x="226" y="-56" font-family="Helvetica,sans-Serif" font-size="10.00">wmtk::Mesh::parent</text>
<text text-anchor="middle" x="275" y="-45" font-family="Helvetica,sans-Serif" font-size="10.00">_scope</text>
</a>
</g>
</g>
<!-- Node1&#45;&gt;Node25 -->
<g id="edge26" class="edge">
<title>Node1&#45;&gt;Node25</title>
<path fill="none" stroke="midnightblue" d="M106.68,-142.46C129.37,-123.61 165.21,-95.98 200,-78 204.22,-75.82 208.67,-73.77 213.21,-71.85"/>
<polygon fill="midnightblue" stroke="midnightblue" points="214.61,-75.06 222.61,-68.1 212.02,-68.55 214.61,-75.06"/>
</g>
<!-- Node3 -->
<g id="node3" class="node">
<title>Node3</title>
<g id="a_node3"><a xlink:href="classwmtk_1_1operations_1_1tet__mesh_1_1_edge_operation_data.html#acddf202ad38f22b09eb8eb6af183cc8c" target="_top" xlink:title=" ">
<polygon fill="none" stroke="black" points="401,-287.5 401,-328.5 551,-328.5 551,-287.5 401,-287.5"/>
<text text-anchor="start" x="409" y="-316.5" font-family="Helvetica,sans-Serif" font-size="10.00">wmtk::operations::tet</text>
<text text-anchor="start" x="409" y="-305.5" font-family="Helvetica,sans-Serif" font-size="10.00">_mesh::EdgeOperationData</text>
<text text-anchor="middle" x="476" y="-294.5" font-family="Helvetica,sans-Serif" font-size="10.00">::incident_face_datas</text>
</a>
</g>
</g>
<!-- Node2&#45;&gt;Node3 -->
<g id="edge2" class="edge">
<title>Node2&#45;&gt;Node3</title>
<path fill="none" stroke="midnightblue" d="M350.1,-289.17C363.31,-291.16 377.16,-293.25 390.63,-295.28"/>
<polygon fill="midnightblue" stroke="midnightblue" points="390.43,-298.79 400.84,-296.82 391.47,-291.87 390.43,-298.79"/>
</g>
<!-- Node4 -->
<g id="node4" class="node">
<title>Node4</title>
<g id="a_node4"><a xlink:href="classwmtk_1_1operations_1_1_edge_operation_data.html#a24a9fb4d4eb3904a1dc33914d3c4bafd" target="_top" xlink:title=" ">
<polygon fill="none" stroke="black" points="386,-238 386,-268 566,-268 566,-238 386,-238"/>
<text text-anchor="start" x="394" y="-256" font-family="Helvetica,sans-Serif" font-size="10.00">wmtk::operations::EdgeOperation</text>
<text text-anchor="middle" x="476" y="-245" font-family="Helvetica,sans-Serif" font-size="10.00">Data::tuple_from_id</text>
</a>
</g>
</g>
<!-- Node2&#45;&gt;Node4 -->
<g id="edge3" class="edge">
<title>Node2&#45;&gt;Node4</title>
<path fill="none" stroke="midnightblue" d="M350.1,-268.69C358.44,-267.64 367.03,-266.56 375.63,-265.48"/>
<polygon fill="midnightblue" stroke="midnightblue" points="376.21,-268.94 385.7,-264.22 375.34,-261.99 376.21,-268.94"/>
</g>
<!-- Node5 -->
<g id="node5" class="node">
<title>Node5</title>
<g id="a_node5"><a xlink:href="classwmtk_1_1_mesh.html#a60165ceb4c2db2731df90e4ac100637d" target="_top" xlink:title="internal function that returns the tuple of requested type, and has the global index cid">
<polygon fill="none" stroke="black" points="618,-243.5 618,-262.5 768,-262.5 768,-243.5 618,-243.5"/>
<text text-anchor="middle" x="693" y="-250.5" font-family="Helvetica,sans-Serif" font-size="10.00">wmtk::Mesh::tuple_from_id</text>
</a>
</g>
</g>
<!-- Node4&#45;&gt;Node5 -->
<g id="edge4" class="edge">
<title>Node4&#45;&gt;Node5</title>
<path fill="none" stroke="midnightblue" d="M566,-253C579.72,-253 593.85,-253 607.46,-253"/>
<polygon fill="midnightblue" stroke="midnightblue" points="607.76,-256.5 617.76,-253 607.76,-249.5 607.76,-256.5"/>
</g>
<!-- Node6&#45;&gt;Node4 -->
<g id="edge7" class="edge">
<title>Node6&#45;&gt;Node4</title>
<path fill="none" stroke="midnightblue" d="M350.1,-231.03C359.71,-232.72 369.67,-234.47 379.57,-236.22"/>
<polygon fill="midnightblue" stroke="midnightblue" points="378.98,-239.67 389.43,-237.95 380.19,-232.77 378.98,-239.67"/>
</g>
<!-- Node7 -->
<g id="node7" class="node">
<title>Node7</title>
<g id="a_node7"><a xlink:href="classwmtk_1_1operations_1_1tet__mesh_1_1_edge_operation_data.html#a3d1ea8b1bc5a57499a8bfecfa8aa0970" target="_top" xlink:title=" ">
<polygon fill="none" stroke="black" points="401,-177.5 401,-218.5 551,-218.5 551,-177.5 401,-177.5"/>
<text text-anchor="start" x="409" y="-206.5" font-family="Helvetica,sans-Serif" font-size="10.00">wmtk::operations::tet</text>
<text text-anchor="start" x="409" y="-195.5" font-family="Helvetica,sans-Serif" font-size="10.00">_mesh::EdgeOperationData</text>
<text text-anchor="middle" x="476" y="-184.5" font-family="Helvetica,sans-Serif" font-size="10.00">::incident_tet_datas</text>
</a>
</g>
</g>
<!-- Node6&#45;&gt;Node7 -->
<g id="edge6" class="edge">
<title>Node6&#45;&gt;Node7</title>
<path fill="none" stroke="midnightblue" d="M350.1,-210.55C363.31,-209.23 377.16,-207.83 390.63,-206.48"/>
<polygon fill="midnightblue" stroke="midnightblue" points="391.24,-209.94 400.84,-205.45 390.54,-202.97 391.24,-209.94"/>
</g>
<!-- Node10 -->
<g id="node10" class="node">
<title>Node10</title>
<g id="a_node10"><a xlink:href="classwmtk_1_1_tet_mesh.html#a4525e2b5565d11fda49e902958dbf4c4" target="_top" xlink:title="switch the orientation of the Tuple of the given dimension">
<polygon fill="none" stroke="black" points="412,-93 412,-123 540,-123 540,-93 412,-93"/>
<text text-anchor="start" x="420" y="-111" font-family="Helvetica,sans-Serif" font-size="10.00">wmtk::TetMesh::switch</text>
<text text-anchor="middle" x="476" y="-100" font-family="Helvetica,sans-Serif" font-size="10.00">_tuple</text>
</a>
</g>
</g>
<!-- Node9&#45;&gt;Node10 -->
<g id="edge10" class="edge">
<title>Node9&#45;&gt;Node10</title>
<path fill="none" stroke="midnightblue" d="M350.1,-108C366.94,-108 384.82,-108 401.62,-108"/>
<polygon fill="midnightblue" stroke="midnightblue" points="401.93,-111.5 411.93,-108 401.93,-104.5 401.93,-111.5"/>
</g>
<!-- Node11 -->
<g id="node11" class="node">
<title>Node11</title>
<g id="a_node11"><a xlink:href="classwmtk_1_1_mesh.html#a40a0509744659785607c0574d561bcc2" target="_top" xlink:title=" ">
<polygon fill="none" stroke="black" points="632.5,-175 632.5,-205 753.5,-205 753.5,-175 632.5,-175"/>
<text text-anchor="start" x="640.5" y="-193" font-family="Helvetica,sans-Serif" font-size="10.00">wmtk::Mesh::get_cell</text>
<text text-anchor="middle" x="693" y="-182" font-family="Helvetica,sans-Serif" font-size="10.00">_hash_slow</text>
</a>
</g>
</g>
<!-- Node10&#45;&gt;Node11 -->
<g id="edge11" class="edge">
<title>Node10&#45;&gt;Node11</title>
<path fill="none" stroke="midnightblue" d="M506.51,-123.05C531.49,-135.4 568.5,-152.79 602,-165 608.7,-167.44 615.76,-169.78 622.86,-171.99"/>
<polygon fill="midnightblue" stroke="midnightblue" points="621.93,-175.36 632.52,-174.9 623.96,-168.66 621.93,-175.36"/>
</g>
<!-- Node19 -->
<g id="node19" class="node">
<title>Node19</title>
<g id="a_node19"><a xlink:href="classwmtk_1_1_tet_mesh.html#aa8424e5e4d709981e9e10d659f87f97d" target="_top" xlink:title=" ">
<polygon fill="none" stroke="black" points="640,-136.5 640,-155.5 746,-155.5 746,-136.5 640,-136.5"/>
<text text-anchor="middle" x="693" y="-143.5" font-family="Helvetica,sans-Serif" font-size="10.00">wmtk::TetMesh::id</text>
</a>
</g>
</g>
<!-- Node10&#45;&gt;Node19 -->
<g id="edge19" class="edge">
<title>Node10&#45;&gt;Node19</title>
<path fill="none" stroke="midnightblue" d="M540.05,-119.14C568.31,-124.14 601.53,-130.01 629.69,-134.99"/>
<polygon fill="midnightblue" stroke="midnightblue" points="629.36,-138.48 639.82,-136.78 630.58,-131.59 629.36,-138.48"/>
</g>
<!-- Node20 -->
<g id="node20" class="node">
<title>Node20</title>
<g id="a_node20"><a xlink:href="classwmtk_1_1_tet_mesh.html#af4002e7a36e20373deb54576caffa682" target="_top" xlink:title=" ">
<polygon fill="none" stroke="black" points="602,-98.5 602,-117.5 784,-117.5 784,-98.5 602,-98.5"/>
<text text-anchor="middle" x="693" y="-105.5" font-family="Helvetica,sans-Serif" font-size="10.00">wmtk::TetMesh::is_boundary_face</text>
</a>
</g>
</g>
<!-- Node10&#45;&gt;Node20 -->
<g id="edge20" class="edge">
<title>Node10&#45;&gt;Node20</title>
<path fill="none" stroke="midnightblue" d="M540.05,-108C556.21,-108 574,-108 591.53,-108"/>
<polygon fill="midnightblue" stroke="midnightblue" points="591.81,-111.5 601.81,-108 591.81,-104.5 591.81,-111.5"/>
</g>
<!-- Node21 -->
<g id="node21" class="node">
<title>Node21</title>
<g id="a_node21"><a xlink:href="classwmtk_1_1_mesh.html#abbb1c54cfd6ec17f4730317ee5fab78d" target="_top" xlink:title=" ">
<polygon fill="none" stroke="black" points="619,-60.5 619,-79.5 767,-79.5 767,-60.5 619,-60.5"/>
<text text-anchor="middle" x="693" y="-67.5" font-family="Helvetica,sans-Serif" font-size="10.00">wmtk::Mesh::is_valid_slow</text>
</a>
</g>
</g>
<!-- Node10&#45;&gt;Node21 -->
<g id="edge21" class="edge">
<title>Node10&#45;&gt;Node21</title>
<path fill="none" stroke="midnightblue" d="M540.05,-96.86C567.75,-91.96 600.23,-86.22 628.03,-81.31"/>
<polygon fill="midnightblue" stroke="midnightblue" points="628.81,-84.72 638.05,-79.54 627.59,-77.83 628.81,-84.72"/>
</g>
<!-- Node23 -->
<g id="node23" class="node">
<title>Node23</title>
<g id="a_node23"><a xlink:href="namespacewmtk_1_1autogen_1_1tet__mesh.html#a4060d948aa959f21810c425f3f197dd5" target="_top" xlink:title=" ">
<polygon fill="none" stroke="black" points="620.5,-9 620.5,-39 765.5,-39 765.5,-9 620.5,-9"/>
<text text-anchor="start" x="628.5" y="-27" font-family="Helvetica,sans-Serif" font-size="10.00">wmtk::autogen::tet</text>
<text text-anchor="middle" x="693" y="-16" font-family="Helvetica,sans-Serif" font-size="10.00">_mesh::local_switch_tuple</text>
</a>
</g>
</g>
<!-- Node10&#45;&gt;Node23 -->
<g id="edge24" class="edge">
<title>Node10&#45;&gt;Node23</title>
<path fill="none" stroke="midnightblue" d="M507.08,-92.88C532.1,-80.65 568.85,-63.47 602,-51 610.21,-47.91 618.94,-44.93 627.61,-42.15"/>
<polygon fill="midnightblue" stroke="midnightblue" points="628.85,-45.43 637.35,-39.09 626.76,-38.75 628.85,-45.43"/>
</g>
<!-- Node12 -->
<g id="node12" class="node">
<title>Node12</title>
<g id="a_node12"><a xlink:href="classwmtk_1_1_mesh.html#aed3f470f75590f3c7b743560568fb97f" target="_top" xlink:title=" ">
<polygon fill="none" stroke="black" points="820,-186.5 820,-205.5 969,-205.5 969,-186.5 820,-186.5"/>
<text text-anchor="middle" x="894.5" y="-193.5" font-family="Helvetica,sans-Serif" font-size="10.00">wmtk::Mesh::get_cell_hash</text>
</a>
</g>
</g>
<!-- Node11&#45;&gt;Node12 -->
<g id="edge12" class="edge">
<title>Node11&#45;&gt;Node12</title>
<path fill="none" stroke="midnightblue" d="M753.59,-191.79C771.2,-192.32 790.82,-192.91 809.67,-193.48"/>
<polygon fill="midnightblue" stroke="midnightblue" points="809.64,-196.98 819.74,-193.78 809.85,-189.98 809.64,-196.98"/>
</g>
<!-- Node13 -->
<g id="node13" class="node">
<title>Node13</title>
<g id="a_node13"><a xlink:href="classwmtk_1_1_mesh.html#adc7f5c64d6c72d417722bb063b523023" target="_top" xlink:title=" ">
<polygon fill="none" stroke="black" points="834,-137 834,-167 955,-167 955,-137 834,-137"/>
<text text-anchor="start" x="842" y="-155" font-family="Helvetica,sans-Serif" font-size="10.00">wmtk::Mesh::get_cell</text>
<text text-anchor="middle" x="894.5" y="-144" font-family="Helvetica,sans-Serif" font-size="10.00">_hash_accessor</text>
</a>
</g>
</g>
<!-- Node11&#45;&gt;Node13 -->
<g id="edge13" class="edge">
<title>Node11&#45;&gt;Node13</title>
<path fill="none" stroke="midnightblue" d="M753.59,-178.65C775.69,-174.44 800.95,-169.63 823.87,-165.26"/>
<polygon fill="midnightblue" stroke="midnightblue" points="824.71,-168.67 833.88,-163.36 823.4,-161.79 824.71,-168.67"/>
</g>
<!-- Node14 -->
<g id="node14" class="node">
<title>Node14</title>
<g id="a_node14"><a xlink:href="classwmtk_1_1_mesh.html#a92666fa5c4c8b680e9b4a9b3755689f0" target="_top" xlink:title=" ">
<polygon fill="none" stroke="black" points="1005,-115 1005,-145 1135,-145 1135,-115 1005,-115"/>
<text text-anchor="start" x="1013" y="-133" font-family="Helvetica,sans-Serif" font-size="10.00">wmtk::Mesh::get_const</text>
<text text-anchor="middle" x="1070" y="-122" font-family="Helvetica,sans-Serif" font-size="10.00">_cell_hash_accessor</text>
</a>
</g>
</g>
<!-- Node13&#45;&gt;Node14 -->
<g id="edge14" class="edge">
<title>Node13&#45;&gt;Node14</title>
<path fill="none" stroke="midnightblue" d="M955.21,-144.43C967.94,-142.81 981.54,-141.09 994.74,-139.42"/>
<polygon fill="midnightblue" stroke="midnightblue" points="995.26,-142.88 1004.74,-138.15 994.38,-135.93 995.26,-142.88"/>
</g>
<!-- Node15 -->
<g id="node15" class="node">
<title>Node15</title>
<g id="a_node15"><a xlink:href="classwmtk_1_1_mesh.html#aec980d09bb50f645d6c1c5e604e091c6" target="_top" xlink:title=" ">
<polygon fill="none" stroke="black" points="1171,-115 1171,-145 1284,-145 1284,-115 1171,-115"/>
<text text-anchor="start" x="1179" y="-133" font-family="Helvetica,sans-Serif" font-size="10.00">wmtk::Mesh::create</text>
<text text-anchor="middle" x="1227.5" y="-122" font-family="Helvetica,sans-Serif" font-size="10.00">_const_accessor</text>
</a>
</g>
</g>
<!-- Node14&#45;&gt;Node15 -->
<g id="edge15" class="edge">
<title>Node14&#45;&gt;Node15</title>
<path fill="none" stroke="midnightblue" d="M1135.15,-130C1143.59,-130 1152.26,-130 1160.73,-130"/>
<polygon fill="midnightblue" stroke="midnightblue" points="1160.94,-133.5 1170.94,-130 1160.94,-126.5 1160.94,-133.5"/>
</g>
<!-- Node16 -->
<g id="node16" class="node">
<title>Node16</title>
<g id="a_node16"><a xlink:href="classwmtk_1_1attribute_1_1_mesh_attribute_handle.html#ac326961f01b9ba4fec395827f15a7ef2" target="_top" xlink:title=" ">
<polygon fill="none" stroke="black" points="1320,-164 1320,-194 1487,-194 1487,-164 1320,-164"/>
<text text-anchor="start" x="1328" y="-182" font-family="Helvetica,sans-Serif" font-size="10.00">wmtk::attribute::MeshAttribute</text>
<text text-anchor="middle" x="1403.5" y="-171" font-family="Helvetica,sans-Serif" font-size="10.00">Handle::as</text>
</a>
</g>
</g>
<!-- Node15&#45;&gt;Node16 -->
<g id="edge16" class="edge">
<title>Node15&#45;&gt;Node16</title>
<path fill="none" stroke="midnightblue" d="M1282.13,-145.1C1300.24,-150.2 1320.62,-155.94 1339.4,-161.23"/>
<polygon fill="midnightblue" stroke="midnightblue" points="1338.48,-164.61 1349.05,-163.95 1340.37,-157.87 1338.48,-164.61"/>
</g>
<!-- Node17 -->
<g id="node17" class="node">
<title>Node17</title>
<g id="a_node17"><a xlink:href="classwmtk_1_1attribute_1_1_mesh_attribute_handle.html#a2b86caeb22b007b85b138ebc6b0ed837" target="_top" xlink:title=" ">
<polygon fill="none" stroke="black" points="1320,-115 1320,-145 1487,-145 1487,-115 1320,-115"/>
<text text-anchor="start" x="1328" y="-133" font-family="Helvetica,sans-Serif" font-size="10.00">wmtk::attribute::MeshAttribute</text>
<text text-anchor="middle" x="1403.5" y="-122" font-family="Helvetica,sans-Serif" font-size="10.00">Handle::holds</text>
</a>
</g>
</g>
<!-- Node15&#45;&gt;Node17 -->
<g id="edge17" class="edge">
<title>Node15&#45;&gt;Node17</title>
<path fill="none" stroke="midnightblue" d="M1284.03,-130C1292.25,-130 1300.91,-130 1309.64,-130"/>
<polygon fill="midnightblue" stroke="midnightblue" points="1309.91,-133.5 1319.91,-130 1309.91,-126.5 1309.91,-133.5"/>
</g>
<!-- Node18 -->
<g id="node18" class="node">
<title>Node18</title>
<g id="a_node18"><a xlink:href="classwmtk_1_1attribute_1_1_mesh_attribute_handle.html#a620620d54776b2c5f4f9cebad465cfa7" target="_top" xlink:title=" ">
<polygon fill="none" stroke="black" points="1320,-66 1320,-96 1487,-96 1487,-66 1320,-66"/>
<text text-anchor="start" x="1328" y="-84" font-family="Helvetica,sans-Serif" font-size="10.00">wmtk::attribute::MeshAttribute</text>
<text text-anchor="middle" x="1403.5" y="-73" font-family="Helvetica,sans-Serif" font-size="10.00">Handle::mesh</text>
</a>
</g>
</g>
<!-- Node15&#45;&gt;Node18 -->
<g id="edge18" class="edge">
<title>Node15&#45;&gt;Node18</title>
<path fill="none" stroke="midnightblue" d="M1282.13,-114.9C1300.24,-109.8 1320.62,-104.06 1339.4,-98.77"/>
<polygon fill="midnightblue" stroke="midnightblue" points="1340.37,-102.13 1349.05,-96.05 1338.48,-95.39 1340.37,-102.13"/>
</g>
<!-- Node21&#45;&gt;Node14 -->
<g id="edge22" class="edge">
<title>Node21&#45;&gt;Node14</title>
<path fill="none" stroke="midnightblue" d="M753.42,-79.51C818.77,-89.96 923.89,-106.78 994.65,-118.1"/>
<polygon fill="midnightblue" stroke="midnightblue" points="994.41,-121.61 1004.83,-119.73 995.51,-114.7 994.41,-121.61"/>
</g>
<!-- Node22 -->
<g id="node22" class="node">
<title>Node22</title>
<g id="a_node22"><a xlink:href="classwmtk_1_1_mesh.html#a8c09a3ed591ffbb0e59c83948970d121" target="_top" xlink:title="check validity of tuple including its hash">
<polygon fill="none" stroke="black" points="834.5,-60.5 834.5,-79.5 954.5,-79.5 954.5,-60.5 834.5,-60.5"/>
<text text-anchor="middle" x="894.5" y="-67.5" font-family="Helvetica,sans-Serif" font-size="10.00">wmtk::Mesh::is_valid</text>
</a>
</g>
</g>
<!-- Node21&#45;&gt;Node22 -->
<g id="edge23" class="edge">
<title>Node21&#45;&gt;Node22</title>
<path fill="none" stroke="midnightblue" d="M767.15,-70C785.83,-70 805.84,-70 824.31,-70"/>
<polygon fill="midnightblue" stroke="midnightblue" points="824.39,-73.5 834.39,-70 824.39,-66.5 824.39,-73.5"/>
</g>
<!-- Node24 -->
<g id="node24" class="node">
<title>Node24</title>
<g id="a_node24"><a xlink:href="namespacewmtk_1_1autogen_1_1tet__mesh.html#ace6b80b1be9aec0d6a5ac5d144b40965" target="_top" xlink:title=" ">
<polygon fill="none" stroke="black" points="833.5,-0.5 833.5,-41.5 955.5,-41.5 955.5,-0.5 833.5,-0.5"/>
<text text-anchor="start" x="841.5" y="-29.5" font-family="Helvetica,sans-Serif" font-size="10.00">wmtk::autogen::tet</text>
<text text-anchor="start" x="841.5" y="-18.5" font-family="Helvetica,sans-Serif" font-size="10.00">_mesh::local_id_table</text>
<text text-anchor="middle" x="894.5" y="-7.5" font-family="Helvetica,sans-Serif" font-size="10.00">_offset</text>
</a>
</g>
</g>
<!-- Node23&#45;&gt;Node24 -->
<g id="edge25" class="edge">
<title>Node23&#45;&gt;Node24</title>
<path fill="none" stroke="midnightblue" d="M765.74,-22.92C784.4,-22.64 804.49,-22.34 823.08,-22.06"/>
<polygon fill="midnightblue" stroke="midnightblue" points="823.29,-25.56 833.24,-21.91 823.19,-18.56 823.29,-25.56"/>
</g>
</g>
</svg>
