<?xml version="1.0" encoding="UTF-8" standalone="no"?>
<!DOCTYPE svg PUBLIC "-//W3C//DTD SVG 1.1//EN"
 "http://www.w3.org/Graphics/SVG/1.1/DTD/svg11.dtd">
<!-- Generated by graphviz version 2.43.0 (0)
 -->
<!-- Title: wmtk::simplex::RawSimplex::opposite_face Pages: 1 -->
<svg width="765pt" height="240pt"
 viewBox="0.00 0.00 765.00 240.00" xmlns="http://www.w3.org/2000/svg" xmlns:xlink="http://www.w3.org/1999/xlink">
<g id="graph0" class="graph" transform="scale(1 1) rotate(0) translate(4 236)">
<title>wmtk::simplex::RawSimplex::opposite_face</title>
<!-- Node1 -->
<g id="node1" class="node">
<title>Node1</title>
<g id="a_node1"><a xlink:title="Get the face opposite to the given vertex.">
<polygon fill="#bfbfbf" stroke="black" points="0,-63.5 0,-93.5 156,-93.5 156,-63.5 0,-63.5"/>
<text text-anchor="start" x="8" y="-81.5" font-family="Helvetica,sans-Serif" font-size="10.00">wmtk::simplex::RawSimplex</text>
<text text-anchor="middle" x="78" y="-70.5" font-family="Helvetica,sans-Serif" font-size="10.00">::opposite_face</text>
</a>
</g>
</g>
<!-- Node2 -->
<g id="node2" class="node">
<title>Node2</title>
<g id="a_node2"><a xlink:href="classwmtk_1_1_mesh.html#a92666fa5c4c8b680e9b4a9b3755689f0" target="_top" xlink:title=" ">
<polygon fill="none" stroke="black" points="205,-126.5 205,-156.5 335,-156.5 335,-126.5 205,-126.5"/>
<text text-anchor="start" x="213" y="-144.5" font-family="Helvetica,sans-Serif" font-size="10.00">wmtk::Mesh::get_const</text>
<text text-anchor="middle" x="270" y="-133.5" font-family="Helvetica,sans-Serif" font-size="10.00">_cell_hash_accessor</text>
</a>
</g>
</g>
<!-- Node1&#45;&gt;Node2 -->
<g id="edge1" class="edge">
<title>Node1&#45;&gt;Node2</title>
<path fill="none" stroke="midnightblue" d="M123.51,-93.59C144.3,-100.6 169.4,-109.03 192,-116.5 198.55,-118.66 205.41,-120.91 212.23,-123.14"/>
<polygon fill="midnightblue" stroke="midnightblue" points="211.55,-126.6 222.15,-126.37 213.72,-119.95 211.55,-126.6"/>
</g>
<!-- Node7 -->
<g id="node7" class="node">
<title>Node7</title>
<g id="a_node7"><a xlink:href="classwmtk_1_1_mesh.html#a58243712dc3e0d258ad645e7b08870db" target="_top" xlink:title="return the global id of the Tuple of the given dimension">
<polygon fill="none" stroke="black" points="224,-88 224,-107 316,-107 316,-88 224,-88"/>
<text text-anchor="middle" x="270" y="-95" font-family="Helvetica,sans-Serif" font-size="10.00">wmtk::Mesh::id</text>
</a>
</g>
</g>
<!-- Node1&#45;&gt;Node7 -->
<g id="edge6" class="edge">
<title>Node1&#45;&gt;Node7</title>
<path fill="none" stroke="midnightblue" d="M156.01,-86.2C175.36,-88.14 195.74,-90.17 213.79,-91.98"/>
<polygon fill="midnightblue" stroke="midnightblue" points="213.54,-95.47 223.84,-92.98 214.24,-88.51 213.54,-95.47"/>
</g>
<!-- Node10 -->
<g id="node10" class="node">
<title>Node10</title>
<g id="a_node10"><a xlink:href="classwmtk_1_1_mesh.html#a8c09a3ed591ffbb0e59c83948970d121" target="_top" xlink:title="check validity of tuple including its hash">
<polygon fill="none" stroke="black" points="210,-50 210,-69 330,-69 330,-50 210,-50"/>
<text text-anchor="middle" x="270" y="-57" font-family="Helvetica,sans-Serif" font-size="10.00">wmtk::Mesh::is_valid</text>
</a>
</g>
</g>
<!-- Node1&#45;&gt;Node10 -->
<g id="edge9" class="edge">
<title>Node1&#45;&gt;Node10</title>
<path fill="none" stroke="midnightblue" d="M156.01,-70.8C170.49,-69.35 185.56,-67.84 199.79,-66.42"/>
<polygon fill="midnightblue" stroke="midnightblue" points="200.38,-69.88 209.98,-65.4 199.68,-62.91 200.38,-69.88"/>
</g>
<!-- Node11 -->
<g id="node11" class="node">
<title>Node11</title>
<g id="a_node11"><a xlink:href="classwmtk_1_1simplex_1_1_raw_simplex.html#a6e46386655e8ef03f18f33dd9a4ac911" target="_top" xlink:title="Get the face opposite to the given vertex.">
<polygon fill="none" stroke="black" points="192,-0.5 192,-30.5 348,-30.5 348,-0.5 192,-0.5"/>
<text text-anchor="start" x="200" y="-18.5" font-family="Helvetica,sans-Serif" font-size="10.00">wmtk::simplex::RawSimplex</text>
<text text-anchor="middle" x="270" y="-7.5" font-family="Helvetica,sans-Serif" font-size="10.00">::opposite_face</text>
</a>
</g>
</g>
<!-- Node1&#45;&gt;Node11 -->
<g id="edge10" class="edge">
<title>Node1&#45;&gt;Node11</title>
<path fill="none" stroke="midnightblue" d="M123.51,-63.41C144.3,-56.4 169.4,-47.97 192,-40.5 198.55,-38.34 205.41,-36.09 212.23,-33.86"/>
<polygon fill="midnightblue" stroke="midnightblue" points="213.72,-37.05 222.15,-30.63 211.55,-30.4 213.72,-37.05"/>
</g>
<!-- Node3 -->
<g id="node3" class="node">
<title>Node3</title>
<g id="a_node3"><a xlink:href="classwmtk_1_1_mesh.html#aec980d09bb50f645d6c1c5e604e091c6" target="_top" xlink:title=" ">
<polygon fill="none" stroke="black" points="412.5,-135.5 412.5,-165.5 525.5,-165.5 525.5,-135.5 412.5,-135.5"/>
<text text-anchor="start" x="420.5" y="-153.5" font-family="Helvetica,sans-Serif" font-size="10.00">wmtk::Mesh::create</text>
<text text-anchor="middle" x="469" y="-142.5" font-family="Helvetica,sans-Serif" font-size="10.00">_const_accessor</text>
</a>
</g>
</g>
<!-- Node2&#45;&gt;Node3 -->
<g id="edge2" class="edge">
<title>Node2&#45;&gt;Node3</title>
<path fill="none" stroke="midnightblue" d="M335.23,-144.43C356.75,-145.42 380.76,-146.51 402.39,-147.5"/>
<polygon fill="midnightblue" stroke="midnightblue" points="402.31,-151 412.46,-147.96 402.63,-144.01 402.31,-151"/>
</g>
<!-- Node4 -->
<g id="node4" class="node">
<title>Node4</title>
<g id="a_node4"><a xlink:href="classwmtk_1_1attribute_1_1_mesh_attribute_handle.html#ac326961f01b9ba4fec395827f15a7ef2" target="_top" xlink:title=" ">
<polygon fill="none" stroke="black" points="590,-201.5 590,-231.5 757,-231.5 757,-201.5 590,-201.5"/>
<text text-anchor="start" x="598" y="-219.5" font-family="Helvetica,sans-Serif" font-size="10.00">wmtk::attribute::MeshAttribute</text>
<text text-anchor="middle" x="673.5" y="-208.5" font-family="Helvetica,sans-Serif" font-size="10.00">Handle::as</text>
</a>
</g>
</g>
<!-- Node3&#45;&gt;Node4 -->
<g id="edge3" class="edge">
<title>Node3&#45;&gt;Node4</title>
<path fill="none" stroke="midnightblue" d="M511.19,-165.53C534.26,-173.79 563.62,-184.05 590,-192.5 596.3,-194.52 602.89,-196.56 609.49,-198.55"/>
<polygon fill="midnightblue" stroke="midnightblue" points="608.53,-201.92 619.12,-201.42 610.54,-195.21 608.53,-201.92"/>
</g>
<!-- Node5 -->
<g id="node5" class="node">
<title>Node5</title>
<g id="a_node5"><a xlink:href="classwmtk_1_1attribute_1_1_mesh_attribute_handle.html#a2b86caeb22b007b85b138ebc6b0ed837" target="_top" xlink:title=" ">
<polygon fill="none" stroke="black" points="590,-152.5 590,-182.5 757,-182.5 757,-152.5 590,-152.5"/>
<text text-anchor="start" x="598" y="-170.5" font-family="Helvetica,sans-Serif" font-size="10.00">wmtk::attribute::MeshAttribute</text>
<text text-anchor="middle" x="673.5" y="-159.5" font-family="Helvetica,sans-Serif" font-size="10.00">Handle::holds</text>
</a>
</g>
</g>
<!-- Node3&#45;&gt;Node5 -->
<g id="edge4" class="edge">
<title>Node3&#45;&gt;Node5</title>
<path fill="none" stroke="midnightblue" d="M525.6,-155.17C542.3,-156.57 561.09,-158.15 579.51,-159.69"/>
<polygon fill="midnightblue" stroke="midnightblue" points="579.43,-163.2 589.69,-160.55 580.02,-156.22 579.43,-163.2"/>
</g>
<!-- Node6 -->
<g id="node6" class="node">
<title>Node6</title>
<g id="a_node6"><a xlink:href="classwmtk_1_1attribute_1_1_mesh_attribute_handle.html#a620620d54776b2c5f4f9cebad465cfa7" target="_top" xlink:title=" ">
<polygon fill="none" stroke="black" points="590,-103.5 590,-133.5 757,-133.5 757,-103.5 590,-103.5"/>
<text text-anchor="start" x="598" y="-121.5" font-family="Helvetica,sans-Serif" font-size="10.00">wmtk::attribute::MeshAttribute</text>
<text text-anchor="middle" x="673.5" y="-110.5" font-family="Helvetica,sans-Serif" font-size="10.00">Handle::mesh</text>
</a>
</g>
</g>
<!-- Node3&#45;&gt;Node6 -->
<g id="edge5" class="edge">
<title>Node3&#45;&gt;Node6</title>
<path fill="none" stroke="midnightblue" d="M525.6,-141.71C542.37,-139.06 561.26,-136.08 579.77,-133.15"/>
<polygon fill="midnightblue" stroke="midnightblue" points="580.36,-136.6 589.69,-131.59 579.27,-129.69 580.36,-136.6"/>
</g>
<!-- Node8 -->
<g id="node8" class="node">
<title>Node8</title>
<g id="a_node8"><a xlink:href="classwmtk_1_1_mesh.html#abaf00438d0700358b160e310d69725c9" target="_top" xlink:title=" ">
<polygon fill="none" stroke="black" points="384,-78 384,-97 554,-97 554,-78 384,-78"/>
<text text-anchor="middle" x="469" y="-85" font-family="Helvetica,sans-Serif" font-size="10.00">wmtk::Mesh::top_simplex_type</text>
</a>
</g>
</g>
<!-- Node7&#45;&gt;Node8 -->
<g id="edge7" class="edge">
<title>Node7&#45;&gt;Node8</title>
<path fill="none" stroke="midnightblue" d="M316.2,-95.21C333.4,-94.33 353.7,-93.3 373.77,-92.28"/>
<polygon fill="midnightblue" stroke="midnightblue" points="374.09,-95.77 383.9,-91.77 373.74,-88.78 374.09,-95.77"/>
</g>
<!-- Node9 -->
<g id="node9" class="node">
<title>Node9</title>
<g id="a_node9"><a xlink:href="classwmtk_1_1_mesh.html#a933f681cf24a63b155c9462280385200" target="_top" xlink:title=" ">
<polygon fill="none" stroke="black" points="613,-54.5 613,-84.5 734,-84.5 734,-54.5 613,-54.5"/>
<text text-anchor="start" x="621" y="-72.5" font-family="Helvetica,sans-Serif" font-size="10.00">wmtk::Mesh::top_cell</text>
<text text-anchor="middle" x="673.5" y="-61.5" font-family="Helvetica,sans-Serif" font-size="10.00">_dimension</text>
</a>
</g>
</g>
<!-- Node8&#45;&gt;Node9 -->
<g id="edge8" class="edge">
<title>Node8&#45;&gt;Node9</title>
<path fill="none" stroke="midnightblue" d="M554.12,-80.02C570.25,-78.59 586.99,-77.1 602.61,-75.71"/>
<polygon fill="midnightblue" stroke="midnightblue" points="603.05,-79.19 612.7,-74.82 602.43,-72.21 603.05,-79.19"/>
</g>
<!-- Node12 -->
<g id="node12" class="node">
<title>Node12</title>
<g id="a_node12"><a xlink:href="classwmtk_1_1simplex_1_1_raw_simplex.html#a8d0562f5e777dd3b1b143028030c3010" target="_top" xlink:title=" ">
<polygon fill="none" stroke="black" points="391,-0.5 391,-30.5 547,-30.5 547,-0.5 391,-0.5"/>
<text text-anchor="start" x="399" y="-18.5" font-family="Helvetica,sans-Serif" font-size="10.00">wmtk::simplex::RawSimplex</text>
<text text-anchor="middle" x="469" y="-7.5" font-family="Helvetica,sans-Serif" font-size="10.00">::dimension</text>
</a>
</g>
</g>
<!-- Node11&#45;&gt;Node12 -->
<g id="edge11" class="edge">
<title>Node11&#45;&gt;Node12</title>
<path fill="none" stroke="midnightblue" d="M348.01,-15.5C358.64,-15.5 369.63,-15.5 380.43,-15.5"/>
<polygon fill="midnightblue" stroke="midnightblue" points="380.72,-19 390.72,-15.5 380.72,-12 380.72,-19"/>
</g>
</g>
</svg>
