<?xml version="1.0" encoding="UTF-8" standalone="no"?>
<!DOCTYPE svg PUBLIC "-//W3C//DTD SVG 1.1//EN"
 "http://www.w3.org/Graphics/SVG/1.1/DTD/svg11.dtd">
<!-- Generated by graphviz version 2.43.0 (0)
 -->
<!-- Title: wmtk::operations::edge_mesh::SplitNewAttributeTopoInfo::input_ear_simplices Pages: 1 -->
<svg width="1241pt" height="277pt"
 viewBox="0.00 0.00 1241.00 276.50" xmlns="http://www.w3.org/2000/svg" xmlns:xlink="http://www.w3.org/1999/xlink">
<g id="graph0" class="graph" transform="scale(1 1) rotate(0) translate(4 272.5)">
<title>wmtk::operations::edge_mesh::SplitNewAttributeTopoInfo::input_ear_simplices</title>
<!-- Node1 -->
<g id="node1" class="node">
<title>Node1</title>
<g id="a_node1"><a xlink:title=" ">
<polygon fill="#bfbfbf" stroke="black" points="0,-97.5 0,-138.5 164,-138.5 164,-97.5 0,-97.5"/>
<text text-anchor="start" x="8" y="-126.5" font-family="Helvetica,sans-Serif" font-size="10.00">wmtk::operations::edge</text>
<text text-anchor="start" x="8" y="-115.5" font-family="Helvetica,sans-Serif" font-size="10.00">_mesh::SplitNewAttributeTopo</text>
<text text-anchor="middle" x="82" y="-104.5" font-family="Helvetica,sans-Serif" font-size="10.00">Info::input_ear_simplices</text>
</a>
</g>
</g>
<!-- Node2 -->
<g id="node2" class="node">
<title>Node2</title>
<g id="a_node2"><a xlink:href="namespacewmtk.html#a5cf45c152e856196bb734c6f48919a24" target="_top" xlink:title="Get a unique integer id corresponding to each primitive type.">
<polygon fill="none" stroke="black" points="217,-158 217,-188 333,-188 333,-158 217,-158"/>
<text text-anchor="start" x="225" y="-176" font-family="Helvetica,sans-Serif" font-size="10.00">wmtk::get_primitive</text>
<text text-anchor="middle" x="275" y="-165" font-family="Helvetica,sans-Serif" font-size="10.00">_type_id</text>
</a>
</g>
</g>
<!-- Node1&#45;&gt;Node2 -->
<g id="edge1" class="edge">
<title>Node1&#45;&gt;Node2</title>
<path fill="none" stroke="midnightblue" d="M154.39,-138.56C173.34,-144.02 193.65,-149.86 212.05,-155.16"/>
<polygon fill="midnightblue" stroke="midnightblue" points="211.19,-158.56 221.77,-157.96 213.13,-151.83 211.19,-158.56"/>
</g>
<!-- Node3 -->
<g id="node3" class="node">
<title>Node3</title>
<g id="a_node3"><a xlink:href="classwmtk_1_1operations_1_1edge__mesh_1_1_edge_operation_data.html#a1953b7fc9b69dc5fb1adaac297a8b7d7" target="_top" xlink:title=" ">
<polygon fill="none" stroke="black" points="200,-97.5 200,-138.5 350,-138.5 350,-97.5 200,-97.5"/>
<text text-anchor="start" x="208" y="-126.5" font-family="Helvetica,sans-Serif" font-size="10.00">wmtk::operations::edge</text>
<text text-anchor="start" x="208" y="-115.5" font-family="Helvetica,sans-Serif" font-size="10.00">_mesh::EdgeOperationData</text>
<text text-anchor="middle" x="275" y="-104.5" font-family="Helvetica,sans-Serif" font-size="10.00">::input_endpoints</text>
</a>
</g>
</g>
<!-- Node1&#45;&gt;Node3 -->
<g id="edge2" class="edge">
<title>Node1&#45;&gt;Node3</title>
<path fill="none" stroke="midnightblue" d="M164,-118C172.55,-118 181.26,-118 189.85,-118"/>
<polygon fill="midnightblue" stroke="midnightblue" points="189.85,-121.5 199.85,-118 189.85,-114.5 189.85,-121.5"/>
</g>
<!-- Node15 -->
<g id="node15" class="node">
<title>Node15</title>
<g id="a_node15"><a xlink:href="classwmtk_1_1_mesh.html#ac5778c1f8afef3a2b1b1c33a140b3166" target="_top" xlink:title="Evaluate the passed in function inside the parent scope.">
<polygon fill="none" stroke="black" points="218,-48 218,-78 332,-78 332,-48 218,-48"/>
<text text-anchor="start" x="226" y="-66" font-family="Helvetica,sans-Serif" font-size="10.00">wmtk::Mesh::parent</text>
<text text-anchor="middle" x="275" y="-55" font-family="Helvetica,sans-Serif" font-size="10.00">_scope</text>
</a>
</g>
</g>
<!-- Node1&#45;&gt;Node15 -->
<g id="edge15" class="edge">
<title>Node1&#45;&gt;Node15</title>
<path fill="none" stroke="midnightblue" d="M154.39,-97.44C173.34,-91.98 193.65,-86.14 212.05,-80.84"/>
<polygon fill="midnightblue" stroke="midnightblue" points="213.13,-84.17 221.77,-78.04 211.19,-77.44 213.13,-84.17"/>
</g>
<!-- Node4 -->
<g id="node4" class="node">
<title>Node4</title>
<g id="a_node4"><a xlink:href="classwmtk_1_1_edge_mesh.html#a46725851b572b51a356450adc30c14ed" target="_top" xlink:title="switch the orientation of the Tuple of the given dimension">
<polygon fill="none" stroke="black" points="386,-103 386,-133 524,-133 524,-103 386,-103"/>
<text text-anchor="start" x="394" y="-121" font-family="Helvetica,sans-Serif" font-size="10.00">wmtk::EdgeMesh::switch</text>
<text text-anchor="middle" x="455" y="-110" font-family="Helvetica,sans-Serif" font-size="10.00">_tuple</text>
</a>
</g>
</g>
<!-- Node3&#45;&gt;Node4 -->
<g id="edge3" class="edge">
<title>Node3&#45;&gt;Node4</title>
<path fill="none" stroke="midnightblue" d="M350.2,-118C358.61,-118 367.2,-118 375.66,-118"/>
<polygon fill="midnightblue" stroke="midnightblue" points="375.89,-121.5 385.89,-118 375.89,-114.5 375.89,-121.5"/>
</g>
<!-- Node5 -->
<g id="node5" class="node">
<title>Node5</title>
<g id="a_node5"><a xlink:href="classwmtk_1_1attribute_1_1_accessor.html#ada896c7e7910630ca0d3424baa3c3258" target="_top" xlink:title=" ">
<polygon fill="none" stroke="black" points="570.5,-238 570.5,-268 712.5,-268 712.5,-238 570.5,-238"/>
<text text-anchor="start" x="578.5" y="-256" font-family="Helvetica,sans-Serif" font-size="10.00">wmtk::attribute::Accessor</text>
<text text-anchor="middle" x="641.5" y="-245" font-family="Helvetica,sans-Serif" font-size="10.00">::const_vector_attribute</text>
</a>
</g>
</g>
<!-- Node4&#45;&gt;Node5 -->
<g id="edge4" class="edge">
<title>Node4&#45;&gt;Node5</title>
<path fill="none" stroke="midnightblue" d="M466.31,-133.14C483.19,-156.79 518.96,-202.42 560,-228 563.33,-230.07 566.84,-231.99 570.47,-233.75"/>
<polygon fill="midnightblue" stroke="midnightblue" points="569.1,-236.97 579.66,-237.84 571.94,-230.58 569.1,-236.97"/>
</g>
<!-- Node6 -->
<g id="node6" class="node">
<title>Node6</title>
<g id="a_node6"><a xlink:href="classwmtk_1_1attribute_1_1_caching_accessor.html#ab7a79d239fdc3d22fbc0c3a83a5c50bc" target="_top" xlink:title=" ">
<polygon fill="none" stroke="black" points="573,-177.5 573,-218.5 710,-218.5 710,-177.5 573,-177.5"/>
<text text-anchor="start" x="581" y="-206.5" font-family="Helvetica,sans-Serif" font-size="10.00">wmtk::attribute::Caching</text>
<text text-anchor="start" x="581" y="-195.5" font-family="Helvetica,sans-Serif" font-size="10.00">Accessor::const_vector</text>
<text text-anchor="middle" x="641.5" y="-184.5" font-family="Helvetica,sans-Serif" font-size="10.00">_attribute</text>
</a>
</g>
</g>
<!-- Node4&#45;&gt;Node6 -->
<g id="edge5" class="edge">
<title>Node4&#45;&gt;Node6</title>
<path fill="none" stroke="midnightblue" d="M485.7,-133.17C506.33,-143.49 534.56,-157.17 560,-168 564.4,-169.87 568.96,-171.75 573.57,-173.59"/>
<polygon fill="midnightblue" stroke="midnightblue" points="572.49,-176.93 583.08,-177.33 575.05,-170.41 572.49,-176.93"/>
</g>
<!-- Node7 -->
<g id="node7" class="node">
<title>Node7</title>
<g id="a_node7"><a xlink:href="classwmtk_1_1_mesh_c_r_t_p.html#a58243712dc3e0d258ad645e7b08870db" target="_top" xlink:title="return the global id of the Tuple of the given dimension">
<polygon fill="none" stroke="black" points="560,-128 560,-158 723,-158 723,-128 560,-128"/>
<text text-anchor="start" x="568" y="-146" font-family="Helvetica,sans-Serif" font-size="10.00">wmtk::MeshCRTP&lt; EdgeMesh</text>
<text text-anchor="middle" x="641.5" y="-135" font-family="Helvetica,sans-Serif" font-size="10.00"> &gt;::id</text>
</a>
</g>
</g>
<!-- Node4&#45;&gt;Node7 -->
<g id="edge6" class="edge">
<title>Node4&#45;&gt;Node7</title>
<path fill="none" stroke="midnightblue" d="M524.18,-127.24C532.51,-128.37 541.13,-129.54 549.74,-130.7"/>
<polygon fill="midnightblue" stroke="midnightblue" points="549.43,-134.19 559.81,-132.07 550.37,-127.25 549.43,-134.19"/>
</g>
<!-- Node8 -->
<g id="node8" class="node">
<title>Node8</title>
<g id="a_node8"><a xlink:href="classwmtk_1_1attribute_1_1_accessor.html#a41f40a73a13789707c117bda177dfc83" target="_top" xlink:title=" ">
<polygon fill="none" stroke="black" points="570.5,-79 570.5,-109 712.5,-109 712.5,-79 570.5,-79"/>
<text text-anchor="start" x="578.5" y="-97" font-family="Helvetica,sans-Serif" font-size="10.00">wmtk::attribute::Accessor</text>
<text text-anchor="middle" x="641.5" y="-86" font-family="Helvetica,sans-Serif" font-size="10.00">::index_access</text>
</a>
</g>
</g>
<!-- Node4&#45;&gt;Node8 -->
<g id="edge7" class="edge">
<title>Node4&#45;&gt;Node8</title>
<path fill="none" stroke="midnightblue" d="M524.18,-109.13C535.97,-107.6 548.32,-105.99 560.39,-104.42"/>
<polygon fill="midnightblue" stroke="midnightblue" points="560.98,-107.87 570.44,-103.11 560.08,-100.93 560.98,-107.87"/>
</g>
<!-- Node10 -->
<g id="node10" class="node">
<title>Node10</title>
<g id="a_node10"><a xlink:href="classwmtk_1_1_edge_mesh.html#a83db0c93833dacdfb169807d8ba4b6ca" target="_top" xlink:title="TODO this needs dimension?">
<polygon fill="none" stroke="black" points="572,-40.5 572,-59.5 711,-59.5 711,-40.5 572,-40.5"/>
<text text-anchor="middle" x="641.5" y="-47.5" font-family="Helvetica,sans-Serif" font-size="10.00">wmtk::EdgeMesh::is_ccw</text>
</a>
</g>
</g>
<!-- Node4&#45;&gt;Node10 -->
<g id="edge9" class="edge">
<title>Node4&#45;&gt;Node10</title>
<path fill="none" stroke="midnightblue" d="M484.97,-102.83C505.5,-92.53 533.92,-79.16 560,-70 568.29,-67.09 577.21,-64.42 585.97,-62.06"/>
<polygon fill="midnightblue" stroke="midnightblue" points="586.97,-65.42 595.77,-59.52 585.21,-58.64 586.97,-65.42"/>
</g>
<!-- Node11 -->
<g id="node11" class="node">
<title>Node11</title>
<g id="a_node11"><a xlink:href="classwmtk_1_1_edge_mesh.html#acd802c89cf0cba9c312a8e7ecfa11c80" target="_top" xlink:title="check validity of tuple including its hash">
<polygon fill="none" stroke="black" points="772.5,-14 772.5,-44 887.5,-44 887.5,-14 772.5,-14"/>
<text text-anchor="start" x="780.5" y="-32" font-family="Helvetica,sans-Serif" font-size="10.00">wmtk::EdgeMesh::is</text>
<text text-anchor="middle" x="830" y="-21" font-family="Helvetica,sans-Serif" font-size="10.00">_valid</text>
</a>
</g>
</g>
<!-- Node4&#45;&gt;Node11 -->
<g id="edge14" class="edge">
<title>Node4&#45;&gt;Node11</title>
<path fill="none" stroke="midnightblue" d="M468.13,-102.72C485.75,-81.87 520.67,-45.45 560,-31 625.62,-6.9 706.47,-10.3 762.3,-17.28"/>
<polygon fill="midnightblue" stroke="midnightblue" points="762.06,-20.77 772.43,-18.62 762.97,-13.83 762.06,-20.77"/>
</g>
<!-- Node9 -->
<g id="node9" class="node">
<title>Node9</title>
<g id="a_node9"><a xlink:href="classwmtk_1_1attribute_1_1_accessor.html#a9c7d323f50911892c8ea738f97d041d4" target="_top" xlink:title=" ">
<polygon fill="none" stroke="black" points="759,-79 759,-109 901,-109 901,-79 759,-79"/>
<text text-anchor="start" x="767" y="-97" font-family="Helvetica,sans-Serif" font-size="10.00">wmtk::attribute::Accessor</text>
<text text-anchor="middle" x="830" y="-86" font-family="Helvetica,sans-Serif" font-size="10.00">::caching_base_type</text>
</a>
</g>
</g>
<!-- Node8&#45;&gt;Node9 -->
<g id="edge8" class="edge">
<title>Node8&#45;&gt;Node9</title>
<path fill="none" stroke="midnightblue" d="M712.74,-94C724.4,-94 736.57,-94 748.46,-94"/>
<polygon fill="midnightblue" stroke="midnightblue" points="748.82,-97.5 758.82,-94 748.82,-90.5 748.82,-97.5"/>
</g>
<!-- Node10&#45;&gt;Node11 -->
<g id="edge10" class="edge">
<title>Node10&#45;&gt;Node11</title>
<path fill="none" stroke="midnightblue" d="M711.15,-42.27C727.84,-40.39 745.65,-38.38 762.25,-36.52"/>
<polygon fill="midnightblue" stroke="midnightblue" points="762.86,-39.97 772.41,-35.37 762.08,-33.01 762.86,-39.97"/>
</g>
<!-- Node12 -->
<g id="node12" class="node">
<title>Node12</title>
<g id="a_node12"><a xlink:href="classwmtk_1_1_mesh.html#a8cc8686f0688613806f43720b6db49e7" target="_top" xlink:title="check validity of tuple including its hash">
<polygon fill="none" stroke="black" points="937,-19.5 937,-38.5 1057,-38.5 1057,-19.5 937,-19.5"/>
<text text-anchor="middle" x="997" y="-26.5" font-family="Helvetica,sans-Serif" font-size="10.00">wmtk::Mesh::is_valid</text>
</a>
</g>
</g>
<!-- Node11&#45;&gt;Node12 -->
<g id="edge11" class="edge">
<title>Node11&#45;&gt;Node12</title>
<path fill="none" stroke="midnightblue" d="M887.78,-29C900.29,-29 913.67,-29 926.61,-29"/>
<polygon fill="midnightblue" stroke="midnightblue" points="926.86,-32.5 936.86,-29 926.86,-25.5 926.86,-32.5"/>
</g>
<!-- Node13 -->
<g id="node13" class="node">
<title>Node13</title>
<g id="a_node13"><a xlink:href="classwmtk_1_1_tuple.html#a0023f575be92cd5ceeeaaaa3762ea06d" target="_top" xlink:title="Checks if a tuple is &quot;null&quot;. This merely implies the global index is &#45;1.">
<polygon fill="none" stroke="black" points="1106.5,-38.5 1106.5,-57.5 1219.5,-57.5 1219.5,-38.5 1106.5,-38.5"/>
<text text-anchor="middle" x="1163" y="-45.5" font-family="Helvetica,sans-Serif" font-size="10.00">wmtk::Tuple::is_null</text>
</a>
</g>
</g>
<!-- Node12&#45;&gt;Node13 -->
<g id="edge12" class="edge">
<title>Node12&#45;&gt;Node13</title>
<path fill="none" stroke="midnightblue" d="M1057.21,-35.86C1069.88,-37.33 1083.33,-38.89 1096.23,-40.38"/>
<polygon fill="midnightblue" stroke="midnightblue" points="1096.1,-43.89 1106.43,-41.56 1096.9,-36.93 1096.1,-43.89"/>
</g>
<!-- Node14 -->
<g id="node14" class="node">
<title>Node14</title>
<g id="a_node14"><a xlink:href="classwmtk_1_1_mesh.html#ade176d345902d97af8c5da04aa3a095b" target="_top" xlink:title=" ">
<polygon fill="none" stroke="black" points="1093,-0.5 1093,-19.5 1233,-19.5 1233,-0.5 1093,-0.5"/>
<text text-anchor="middle" x="1163" y="-7.5" font-family="Helvetica,sans-Serif" font-size="10.00">wmtk::Mesh::is_removed</text>
</a>
</g>
</g>
<!-- Node12&#45;&gt;Node14 -->
<g id="edge13" class="edge">
<title>Node12&#45;&gt;Node14</title>
<path fill="none" stroke="midnightblue" d="M1057.21,-22.14C1065.52,-21.18 1074.17,-20.18 1082.77,-19.18"/>
<polygon fill="midnightblue" stroke="midnightblue" points="1083.3,-22.64 1092.84,-18.01 1082.5,-15.69 1083.3,-22.64"/>
</g>
</g>
</svg>
