<?xml version="1.0" encoding="UTF-8" standalone="no"?>
<!DOCTYPE svg PUBLIC "-//W3C//DTD SVG 1.1//EN"
 "http://www.w3.org/Graphics/SVG/1.1/DTD/svg11.dtd">
<!-- Generated by graphviz version 2.43.0 (0)
 -->
<!-- Title: wmtk::operations::Operation::after Pages: 1 -->
<!--zoomable 405 -->
<svg id="main" version="1.1" xmlns="http://www.w3.org/2000/svg" xmlns:xlink="http://www.w3.org/1999/xlink" xml:space="preserve" onload="init(evt)">
<style type="text/css"><![CDATA[
.edge:hover path { stroke: red; }
.edge:hover polygon { stroke: red; fill: red; }
]]></style>
<script type="text/javascript"><![CDATA[
var edges = document.getElementsByTagName('g');
if (edges && edges.length) {
  for (var i=0;i<edges.length;i++) {
    if (edges[i].id.substr(0,4)=='edge') {
      edges[i].setAttribute('class','edge');
    }
  }
}
]]></script>
        <defs>
                <circle id="rim" cx="0" cy="0" r="7"/>
                <circle id="rim2" cx="0" cy="0" r="3.5"/>
                <g id="zoomPlus">
                        <use xlink:href="#rim" fill="#404040">
                                <set attributeName="fill" to="#808080" begin="zoomplus.mouseover" end="zoomplus.mouseout"/>
                        </use>
                        <path d="M-4,0h8M0,-4v8" fill="none" stroke="white" stroke-width="1.5" pointer-events="none"/>
                </g>
                <g id="zoomMin">
                        <use xlink:href="#rim" fill="#404040">
                                <set attributeName="fill" to="#808080" begin="zoomminus.mouseover" end="zoomminus.mouseout"/>
                        </use>
                        <path d="M-4,0h8" fill="none" stroke="white" stroke-width="1.5" pointer-events="none"/>
                </g>
                <g id="dirArrow">
                        <path fill="none" stroke="white" stroke-width="1.5" d="M0,-3.0v7 M-2.5,-0.5L0,-3.0L2.5,-0.5"/>
                </g>
               <g id="resetDef">
                       <use xlink:href="#rim2" fill="#404040">
                               <set attributeName="fill" to="#808080" begin="reset.mouseover" end="reset.mouseout"/>
                       </use>
               </g>
        </defs>

<script type="text/javascript">
var viewWidth = 2417;
var viewHeight = 405;
var sectionId = 'dynsection-3';
</script>
<script xlink:href="svgpan.js"/>
<svg id="graph" class="graph">
<g id="viewport">
<title>wmtk::operations::Operation::after</title>
<!-- Node1 -->
<g id="node1" class="node">
<title>Node1</title>
<g id="a_node1"><a xlink:title=" ">
<polygon fill="#bfbfbf" stroke="black" points="0,-214 0,-244 156,-244 156,-214 0,-214"/>
<text text-anchor="start" x="8" y="-232" font-family="Helvetica,sans-Serif" font-size="10.00">wmtk::operations::Operation</text>
<text text-anchor="middle" x="78" y="-221" font-family="Helvetica,sans-Serif" font-size="10.00">::after</text>
</a>
</g>
</g>
<!-- Node2 -->
<g id="node2" class="node">
<title>Node2</title>
<g id="a_node2"><a xlink:href="classwmtk_1_1_invariant_collection.html#a71eda9d515a67a1944aa0ac3d80a81e6" target="_top" xlink:title=" ">
<polygon fill="none" stroke="black" points="192,-214 192,-244 335,-244 335,-214 192,-214"/>
<text text-anchor="start" x="200" y="-232" font-family="Helvetica,sans-Serif" font-size="10.00">wmtk::InvariantCollection</text>
<text text-anchor="middle" x="263.5" y="-221" font-family="Helvetica,sans-Serif" font-size="10.00">::directly_modified_after</text>
</a>
</g>
</g>
<!-- Node1&#45;&gt;Node2 -->
<g id="edge1" class="edge">
<title>Node1&#45;&gt;Node2</title>
<path fill="none" stroke="midnightblue" d="M156.02,-229C164.46,-229 173.07,-229 181.55,-229"/>
<polygon fill="midnightblue" stroke="midnightblue" points="181.82,-232.5 191.82,-229 181.82,-225.5 181.82,-232.5"/>
</g>
<!-- Node3 -->
<g id="node3" class="node">
<title>Node3</title>
<g id="a_node3"><a xlink:href="classwmtk_1_1_mesh.html#abe23d31a7ad54af38da1bf7b6e232cab" target="_top" xlink:title="maps a simplex from this mesh to any other mesh">
<polygon fill="none" stroke="black" points="393.5,-263.5 393.5,-282.5 497.5,-282.5 497.5,-263.5 393.5,-263.5"/>
<text text-anchor="middle" x="445.5" y="-270.5" font-family="Helvetica,sans-Serif" font-size="10.00">wmtk::Mesh::map</text>
</a>
</g>
</g>
<!-- Node2&#45;&gt;Node3 -->
<g id="edge2" class="edge">
<title>Node2&#45;&gt;Node3</title>
<path fill="none" stroke="midnightblue" d="M325.94,-244.02C348.71,-249.59 374.21,-255.82 395.7,-261.07"/>
<polygon fill="midnightblue" stroke="midnightblue" points="395.04,-264.51 405.59,-263.49 396.7,-257.71 395.04,-264.51"/>
</g>
<!-- Node34 -->
<g id="node34" class="node">
<title>Node34</title>
<g id="a_node34"><a xlink:href="classwmtk_1_1invariants_1_1_invariant.html#add4d6d68498646f845e0cd1c6bc85c9a" target="_top" xlink:title=" ">
<polygon fill="none" stroke="black" points="371,-214 371,-244 520,-244 520,-214 371,-214"/>
<text text-anchor="start" x="379" y="-232" font-family="Helvetica,sans-Serif" font-size="10.00">wmtk::invariants::Invariant</text>
<text text-anchor="middle" x="445.5" y="-221" font-family="Helvetica,sans-Serif" font-size="10.00">::mesh</text>
</a>
</g>
</g>
<!-- Node2&#45;&gt;Node34 -->
<g id="edge43" class="edge">
<title>Node2&#45;&gt;Node34</title>
<path fill="none" stroke="midnightblue" d="M335.12,-229C343.55,-229 352.21,-229 360.8,-229"/>
<polygon fill="midnightblue" stroke="midnightblue" points="360.82,-232.5 370.82,-229 360.82,-225.5 360.82,-232.5"/>
</g>
<!-- Node35 -->
<g id="node35" class="node">
<title>Node35</title>
<g id="a_node35"><a xlink:href="classwmtk_1_1_mesh.html#ac5778c1f8afef3a2b1b1c33a140b3166" target="_top" xlink:title="Evaluate the passed in function inside the parent scope.">
<polygon fill="none" stroke="black" points="388.5,-165 388.5,-195 502.5,-195 502.5,-165 388.5,-165"/>
<text text-anchor="start" x="396.5" y="-183" font-family="Helvetica,sans-Serif" font-size="10.00">wmtk::Mesh::parent</text>
<text text-anchor="middle" x="445.5" y="-172" font-family="Helvetica,sans-Serif" font-size="10.00">_scope</text>
</a>
</g>
</g>
<!-- Node2&#45;&gt;Node35 -->
<g id="edge44" class="edge">
<title>Node2&#45;&gt;Node35</title>
<path fill="none" stroke="midnightblue" d="M319.97,-213.9C338.8,-208.77 359.99,-203 379.49,-197.7"/>
<polygon fill="midnightblue" stroke="midnightblue" points="380.48,-201.06 389.21,-195.05 378.64,-194.3 380.48,-201.06"/>
</g>
<!-- Node4 -->
<g id="node4" class="node">
<title>Node4</title>
<g id="a_node4"><a xlink:href="classwmtk_1_1_mesh.html#ad054c074d4776010002321117ec459e8" target="_top" xlink:title=" ">
<polygon fill="none" stroke="black" points="561.5,-290 561.5,-320 722.5,-320 722.5,-290 561.5,-290"/>
<text text-anchor="start" x="569.5" y="-308" font-family="Helvetica,sans-Serif" font-size="10.00">wmtk::Mesh::is_from</text>
<text text-anchor="middle" x="642" y="-297" font-family="Helvetica,sans-Serif" font-size="10.00">_same_multi_mesh_structure</text>
</a>
</g>
</g>
<!-- Node3&#45;&gt;Node4 -->
<g id="edge3" class="edge">
<title>Node3&#45;&gt;Node4</title>
<path fill="none" stroke="midnightblue" d="M497.6,-281.41C514.11,-284.12 532.92,-287.22 551.37,-290.25"/>
<polygon fill="midnightblue" stroke="midnightblue" points="550.83,-293.71 561.26,-291.88 551.96,-286.8 550.83,-293.71"/>
</g>
<!-- Node8 -->
<g id="node8" class="node">
<title>Node8</title>
<g id="a_node8"><a xlink:href="classwmtk_1_1_multi_mesh_manager.html#ae76aeebb931d918c2fed74a94af892e8" target="_top" xlink:title="maps a simplex from this mesh to any other mesh">
<polygon fill="none" stroke="black" points="556,-232.5 556,-251.5 728,-251.5 728,-232.5 556,-232.5"/>
<text text-anchor="middle" x="642" y="-239.5" font-family="Helvetica,sans-Serif" font-size="10.00">wmtk::MultiMeshManager::map</text>
</a>
</g>
</g>
<!-- Node3&#45;&gt;Node8 -->
<g id="edge8" class="edge">
<title>Node3&#45;&gt;Node8</title>
<path fill="none" stroke="midnightblue" d="M497.6,-264.86C520.16,-261.26 547.02,-256.98 571.37,-253.1"/>
<polygon fill="midnightblue" stroke="midnightblue" points="571.95,-256.55 581.27,-251.52 570.85,-249.64 571.95,-256.55"/>
</g>
<!-- Node5 -->
<g id="node5" class="node">
<title>Node5</title>
<g id="a_node5"><a xlink:href="classwmtk_1_1_mesh.html#aac3ec1ebbe00982ddfe70cc710d8f54e" target="_top" xlink:title="returns a reference to the root of a multimesh tree">
<polygon fill="none" stroke="black" points="786,-320 786,-350 915,-350 915,-320 786,-320"/>
<text text-anchor="start" x="794" y="-338" font-family="Helvetica,sans-Serif" font-size="10.00">wmtk::Mesh::get_multi</text>
<text text-anchor="middle" x="850.5" y="-327" font-family="Helvetica,sans-Serif" font-size="10.00">_mesh_root</text>
</a>
</g>
</g>
<!-- Node4&#45;&gt;Node5 -->
<g id="edge4" class="edge">
<title>Node4&#45;&gt;Node5</title>
<path fill="none" stroke="midnightblue" d="M722.54,-316.56C740.02,-319.09 758.45,-321.77 775.69,-324.28"/>
<polygon fill="midnightblue" stroke="midnightblue" points="775.29,-327.76 785.69,-325.73 776.29,-320.83 775.29,-327.76"/>
</g>
<!-- Node6 -->
<g id="node6" class="node">
<title>Node6</title>
<g id="a_node6"><a xlink:href="classwmtk_1_1_multi_mesh_manager.html#a10b58d0d287321a1b422f9b945421eda" target="_top" xlink:title=" ">
<polygon fill="none" stroke="black" points="1159,-348 1159,-378 1303,-378 1303,-348 1159,-348"/>
<text text-anchor="start" x="1167" y="-366" font-family="Helvetica,sans-Serif" font-size="10.00">wmtk::MultiMeshManager</text>
<text text-anchor="middle" x="1231" y="-355" font-family="Helvetica,sans-Serif" font-size="10.00">::get_root_mesh</text>
</a>
</g>
</g>
<!-- Node5&#45;&gt;Node6 -->
<g id="edge5" class="edge">
<title>Node5&#45;&gt;Node6</title>
<path fill="none" stroke="midnightblue" d="M915.28,-339.72C979.54,-344.47 1078.92,-351.82 1148.78,-356.99"/>
<polygon fill="midnightblue" stroke="midnightblue" points="1148.63,-360.49 1158.86,-357.74 1149.15,-353.51 1148.63,-360.49"/>
</g>
<!-- Node6&#45;&gt;Node6 -->
<g id="edge6" class="edge">
<title>Node6&#45;&gt;Node6</title>
<path fill="none" stroke="midnightblue" d="M1198.59,-378.16C1190.77,-387.56 1201.57,-396.5 1231,-396.5 1248.93,-396.5 1259.95,-393.18 1264.05,-388.46"/>
<polygon fill="midnightblue" stroke="midnightblue" points="1267.52,-387.92 1263.41,-378.16 1260.54,-388.36 1267.52,-387.92"/>
</g>
<!-- Node7 -->
<g id="node7" class="node">
<title>Node7</title>
<g id="a_node7"><a xlink:href="classwmtk_1_1_multi_mesh_manager.html#a5a5a2de96e603563ab7054e8666395b7" target="_top" xlink:title="Specifies whether this structure is the root of a multi&#45;mesh tree.">
<polygon fill="none" stroke="black" points="1355.5,-291 1355.5,-321 1499.5,-321 1499.5,-291 1355.5,-291"/>
<text text-anchor="start" x="1363.5" y="-309" font-family="Helvetica,sans-Serif" font-size="10.00">wmtk::MultiMeshManager</text>
<text text-anchor="middle" x="1427.5" y="-298" font-family="Helvetica,sans-Serif" font-size="10.00">::is_root</text>
</a>
</g>
</g>
<!-- Node6&#45;&gt;Node7 -->
<g id="edge7" class="edge">
<title>Node6&#45;&gt;Node7</title>
<path fill="none" stroke="midnightblue" d="M1283.36,-347.95C1308.51,-340.58 1338.97,-331.65 1365.32,-323.93"/>
<polygon fill="midnightblue" stroke="midnightblue" points="1366.58,-327.21 1375.19,-321.04 1364.61,-320.49 1366.58,-327.21"/>
</g>
<!-- Node9 -->
<g id="node9" class="node">
<title>Node9</title>
<g id="a_node9"><a xlink:href="classwmtk_1_1_multi_mesh_manager.html#a5e6576353e81057bca18a1d49ac9cadf" target="_top" xlink:title="maps a simplex from this mesh to any other mesh">
<polygon fill="none" stroke="black" points="778.5,-200 778.5,-230 922.5,-230 922.5,-200 778.5,-200"/>
<text text-anchor="start" x="786.5" y="-218" font-family="Helvetica,sans-Serif" font-size="10.00">wmtk::MultiMeshManager</text>
<text text-anchor="middle" x="850.5" y="-207" font-family="Helvetica,sans-Serif" font-size="10.00">::map_tuples</text>
</a>
</g>
</g>
<!-- Node8&#45;&gt;Node9 -->
<g id="edge9" class="edge">
<title>Node8&#45;&gt;Node9</title>
<path fill="none" stroke="midnightblue" d="M715.8,-232.48C732.79,-230.26 750.99,-227.88 768.31,-225.62"/>
<polygon fill="midnightblue" stroke="midnightblue" points="768.93,-229.06 778.39,-224.3 768.03,-222.12 768.93,-229.06"/>
</g>
<!-- Node24 -->
<g id="node24" class="node">
<title>Node24</title>
<g id="a_node24"><a xlink:href="classwmtk_1_1simplex_1_1_simplex.html#ad2cc0340a0772b7d6f03ba7a781d1163" target="_top" xlink:title=" ">
<polygon fill="none" stroke="black" points="1763.5,-7 1763.5,-37 1898.5,-37 1898.5,-7 1763.5,-7"/>
<text text-anchor="start" x="1771.5" y="-25" font-family="Helvetica,sans-Serif" font-size="10.00">wmtk::simplex::Simplex</text>
<text text-anchor="middle" x="1831" y="-14" font-family="Helvetica,sans-Serif" font-size="10.00">::primitive_type</text>
</a>
</g>
</g>
<!-- Node8&#45;&gt;Node24 -->
<g id="edge41" class="edge">
<title>Node8&#45;&gt;Node24</title>
<path fill="none" stroke="midnightblue" d="M651.17,-232.21C689.93,-186.94 861.05,0 1044,0 1044,0 1044,0 1428.5,0 1541.64,0 1672.44,-8.82 1753.2,-15.29"/>
<polygon fill="midnightblue" stroke="midnightblue" points="1753.03,-18.79 1763.28,-16.1 1753.6,-11.81 1753.03,-18.79"/>
</g>
<!-- Node33 -->
<g id="node33" class="node">
<title>Node33</title>
<g id="a_node33"><a xlink:href="namespacewmtk_1_1simplex_1_1utils.html#abc97acf22bd5eb87df2b16ad3b372cfb" target="_top" xlink:title=" ">
<polygon fill="none" stroke="black" points="764,-249.5 764,-290.5 937,-290.5 937,-249.5 764,-249.5"/>
<text text-anchor="start" x="772" y="-278.5" font-family="Helvetica,sans-Serif" font-size="10.00">wmtk::simplex::utils</text>
<text text-anchor="start" x="772" y="-267.5" font-family="Helvetica,sans-Serif" font-size="10.00">::tuple_vector_to_homogeneous</text>
<text text-anchor="middle" x="850.5" y="-256.5" font-family="Helvetica,sans-Serif" font-size="10.00">_simplex_vector</text>
</a>
</g>
</g>
<!-- Node8&#45;&gt;Node33 -->
<g id="edge42" class="edge">
<title>Node8&#45;&gt;Node33</title>
<path fill="none" stroke="midnightblue" d="M713.2,-251.52C726.28,-253.29 740.15,-255.17 753.84,-257.03"/>
<polygon fill="midnightblue" stroke="midnightblue" points="753.38,-260.5 763.76,-258.37 754.32,-253.56 753.38,-260.5"/>
</g>
<!-- Node10 -->
<g id="node10" class="node">
<title>Node10</title>
<g id="a_node10"><a xlink:href="classwmtk_1_1_multi_mesh_manager.html#a4858de0134bb52c525db4a99d341fa86" target="_top" xlink:title=" ">
<polygon fill="none" stroke="black" points="1159,-281 1159,-311 1303,-311 1303,-281 1159,-281"/>
<text text-anchor="start" x="1167" y="-299" font-family="Helvetica,sans-Serif" font-size="10.00">wmtk::MultiMeshManager</text>
<text text-anchor="middle" x="1231" y="-288" font-family="Helvetica,sans-Serif" font-size="10.00">::absolute_id</text>
</a>
</g>
</g>
<!-- Node9&#45;&gt;Node10 -->
<g id="edge10" class="edge">
<title>Node9&#45;&gt;Node10</title>
<path fill="none" stroke="midnightblue" d="M916.51,-230.11C923.66,-232.9 930.64,-236.17 937,-240 956.66,-251.83 952.21,-267.3 973,-277 1027.74,-302.53 1096.21,-306.42 1148.72,-304.39"/>
<polygon fill="midnightblue" stroke="midnightblue" points="1149.17,-307.87 1158.99,-303.91 1148.84,-300.88 1149.17,-307.87"/>
</g>
<!-- Node11 -->
<g id="node11" class="node">
<title>Node11</title>
<g id="a_node11"><a xlink:href="classwmtk_1_1_mesh.html#a2102fdea06a0c543437e67d77aeb2013" target="_top" xlink:title="returns a unique identifier for this mesh within a single multimesh structure">
<polygon fill="none" stroke="black" points="982.5,-237 982.5,-267 1107.5,-267 1107.5,-237 982.5,-237"/>
<text text-anchor="start" x="990.5" y="-255" font-family="Helvetica,sans-Serif" font-size="10.00">wmtk::Mesh::absolute</text>
<text text-anchor="middle" x="1045" y="-244" font-family="Helvetica,sans-Serif" font-size="10.00">_multi_mesh_id</text>
</a>
</g>
</g>
<!-- Node9&#45;&gt;Node11 -->
<g id="edge13" class="edge">
<title>Node9&#45;&gt;Node11</title>
<path fill="none" stroke="midnightblue" d="M922.63,-228.67C938.86,-231.79 956.12,-235.11 972.37,-238.23"/>
<polygon fill="midnightblue" stroke="midnightblue" points="971.86,-241.7 982.34,-240.15 973.18,-234.82 971.86,-241.7"/>
</g>
<!-- Node12 -->
<g id="node12" class="node">
<title>Node12</title>
<g id="a_node12"><a xlink:href="classwmtk_1_1_multi_mesh_manager.html#a3b5aceb8f1b3a1d0328489811ac489d7" target="_top" xlink:title=" ">
<polygon fill="none" stroke="black" points="973,-188 973,-218 1117,-218 1117,-188 973,-188"/>
<text text-anchor="start" x="981" y="-206" font-family="Helvetica,sans-Serif" font-size="10.00">wmtk::MultiMeshManager</text>
<text text-anchor="middle" x="1045" y="-195" font-family="Helvetica,sans-Serif" font-size="10.00">::map_up_to_tuples</text>
</a>
</g>
</g>
<!-- Node9&#45;&gt;Node12 -->
<g id="edge15" class="edge">
<title>Node9&#45;&gt;Node12</title>
<path fill="none" stroke="midnightblue" d="M922.63,-210.57C935.69,-209.75 949.41,-208.9 962.74,-208.07"/>
<polygon fill="midnightblue" stroke="midnightblue" points="963.08,-211.55 972.84,-207.44 962.64,-204.57 963.08,-211.55"/>
</g>
<!-- Node9&#45;&gt;Node24 -->
<g id="edge40" class="edge">
<title>Node9&#45;&gt;Node24</title>
<path fill="none" stroke="midnightblue" d="M869.01,-199.91C920.56,-157.11 1077.66,-38 1230,-38 1230,-38 1230,-38 1428.5,-38 1541.56,-38 1672.38,-31.59 1753.17,-26.88"/>
<polygon fill="midnightblue" stroke="midnightblue" points="1753.48,-30.37 1763.25,-26.29 1753.07,-23.38 1753.48,-30.37"/>
</g>
<!-- Node10&#45;&gt;Node7 -->
<g id="edge12" class="edge">
<title>Node10&#45;&gt;Node7</title>
<path fill="none" stroke="midnightblue" d="M1303.04,-299.65C1316.75,-300.36 1331.22,-301.1 1345.22,-301.82"/>
<polygon fill="midnightblue" stroke="midnightblue" points="1345.16,-305.32 1355.32,-302.34 1345.52,-298.33 1345.16,-305.32"/>
</g>
<!-- Node10&#45;&gt;Node10 -->
<g id="edge11" class="edge">
<title>Node10&#45;&gt;Node10</title>
<path fill="none" stroke="midnightblue" d="M1198.59,-311.16C1190.77,-320.56 1201.57,-329.5 1231,-329.5 1248.93,-329.5 1259.95,-326.18 1264.05,-321.46"/>
<polygon fill="midnightblue" stroke="midnightblue" points="1267.52,-320.92 1263.41,-311.16 1260.54,-321.36 1267.52,-320.92"/>
</g>
<!-- Node11&#45;&gt;Node10 -->
<g id="edge14" class="edge">
<title>Node11&#45;&gt;Node10</title>
<path fill="none" stroke="midnightblue" d="M1107.53,-266.71C1123.36,-270.5 1140.55,-274.61 1156.9,-278.52"/>
<polygon fill="midnightblue" stroke="midnightblue" points="1156.42,-282 1166.96,-280.93 1158.05,-275.2 1156.42,-282"/>
</g>
<!-- Node12&#45;&gt;Node7 -->
<g id="edge16" class="edge">
<title>Node12&#45;&gt;Node7</title>
<path fill="none" stroke="midnightblue" d="M1098.44,-218.02C1115.78,-222.9 1135.19,-228.28 1153,-233 1222.08,-251.32 1240,-253.4 1309,-272 1327.68,-277.04 1347.95,-282.8 1366.31,-288.12"/>
<polygon fill="midnightblue" stroke="midnightblue" points="1365.43,-291.51 1376.01,-290.95 1367.39,-284.79 1365.43,-291.51"/>
</g>
<!-- Node13 -->
<g id="node13" class="node">
<title>Node13</title>
<g id="a_node13"><a xlink:href="classwmtk_1_1_multi_mesh_manager.html#a53c699292af8c1357213e8057ad83c69" target="_top" xlink:title=" ">
<polygon fill="none" stroke="black" points="1153,-193 1153,-223 1309,-223 1309,-193 1153,-193"/>
<text text-anchor="start" x="1161" y="-211" font-family="Helvetica,sans-Serif" font-size="10.00">wmtk::MultiMeshManager</text>
<text text-anchor="middle" x="1231" y="-200" font-family="Helvetica,sans-Serif" font-size="10.00">::map_tuple_to_parent_tuple</text>
</a>
</g>
</g>
<!-- Node12&#45;&gt;Node13 -->
<g id="edge17" class="edge">
<title>Node12&#45;&gt;Node13</title>
<path fill="none" stroke="midnightblue" d="M1117.14,-204.93C1125.57,-205.16 1134.25,-205.4 1142.87,-205.63"/>
<polygon fill="midnightblue" stroke="midnightblue" points="1142.85,-209.13 1152.95,-205.91 1143.04,-202.14 1142.85,-209.13"/>
</g>
<!-- Node12&#45;&gt;Node24 -->
<g id="edge38" class="edge">
<title>Node12&#45;&gt;Node24</title>
<path fill="none" stroke="midnightblue" d="M1088.37,-187.92C1107.89,-181.29 1131.47,-173.72 1153,-168 1399.91,-102.4 1467.26,-110.31 1716,-52 1732.09,-48.23 1749.37,-43.85 1765.49,-39.63"/>
<polygon fill="midnightblue" stroke="midnightblue" points="1766.58,-42.96 1775.35,-37.02 1764.79,-36.19 1766.58,-42.96"/>
</g>
<!-- Node27 -->
<g id="node27" class="node">
<title>Node27</title>
<g id="a_node27"><a xlink:href="classwmtk_1_1simplex_1_1_simplex.html#a3650fd31ff1864285502dba66db3c73c" target="_top" xlink:title=" ">
<polygon fill="none" stroke="black" points="1763.5,-154 1763.5,-184 1898.5,-184 1898.5,-154 1763.5,-154"/>
<text text-anchor="start" x="1771.5" y="-172" font-family="Helvetica,sans-Serif" font-size="10.00">wmtk::simplex::Simplex</text>
<text text-anchor="middle" x="1831" y="-161" font-family="Helvetica,sans-Serif" font-size="10.00">::tuple</text>
</a>
</g>
</g>
<!-- Node12&#45;&gt;Node27 -->
<g id="edge39" class="edge">
<title>Node12&#45;&gt;Node27</title>
<path fill="none" stroke="midnightblue" d="M1117.16,-188.79C1129.08,-186.87 1141.36,-185.16 1153,-184 1369.77,-162.48 1627.41,-164.25 1753.2,-166.88"/>
<polygon fill="midnightblue" stroke="midnightblue" points="1753.42,-170.38 1763.49,-167.1 1753.57,-163.38 1753.42,-170.38"/>
</g>
<!-- Node13&#45;&gt;Node7 -->
<g id="edge19" class="edge">
<title>Node13&#45;&gt;Node7</title>
<path fill="none" stroke="midnightblue" d="M1282.01,-223.15C1291.44,-227.18 1300.88,-232.1 1309,-238 1329.44,-252.85 1323.94,-268.03 1345,-282 1347.42,-283.61 1349.95,-285.11 1352.56,-286.51"/>
<polygon fill="midnightblue" stroke="midnightblue" points="1351.16,-289.72 1361.68,-290.91 1354.19,-283.41 1351.16,-289.72"/>
</g>
<!-- Node14 -->
<g id="node14" class="node">
<title>Node14</title>
<g id="a_node14"><a xlink:href="classwmtk_1_1_mesh.html#a9b80238a687153168975179b69f57469" target="_top" xlink:title=" ">
<polygon fill="none" stroke="black" points="1371,-193 1371,-223 1484,-223 1484,-193 1371,-193"/>
<text text-anchor="start" x="1379" y="-211" font-family="Helvetica,sans-Serif" font-size="10.00">wmtk::Mesh::create</text>
<text text-anchor="middle" x="1427.5" y="-200" font-family="Helvetica,sans-Serif" font-size="10.00">_accessor</text>
</a>
</g>
</g>
<!-- Node13&#45;&gt;Node14 -->
<g id="edge18" class="edge">
<title>Node13&#45;&gt;Node14</title>
<path fill="none" stroke="midnightblue" d="M1309.15,-208C1326.19,-208 1344.09,-208 1360.63,-208"/>
<polygon fill="midnightblue" stroke="midnightblue" points="1360.74,-211.5 1370.74,-208 1360.74,-204.5 1360.74,-211.5"/>
</g>
<!-- Node15 -->
<g id="node15" class="node">
<title>Node15</title>
<g id="a_node15"><a xlink:href="classwmtk_1_1_multi_mesh_manager.html#a65f099e4a57a0f5e5dd4304ee2eb7cb1" target="_top" xlink:title=" ">
<polygon fill="none" stroke="black" points="1345,-242 1345,-272 1510,-272 1510,-242 1345,-242"/>
<text text-anchor="start" x="1353" y="-260" font-family="Helvetica,sans-Serif" font-size="10.00">wmtk::MultiMeshManager</text>
<text text-anchor="middle" x="1427.5" y="-249" font-family="Helvetica,sans-Serif" font-size="10.00">::map_tuple_between_meshes</text>
</a>
</g>
</g>
<!-- Node13&#45;&gt;Node15 -->
<g id="edge20" class="edge">
<title>Node13&#45;&gt;Node15</title>
<path fill="none" stroke="midnightblue" d="M1291.68,-223.03C1312.31,-228.23 1335.6,-234.1 1356.95,-239.48"/>
<polygon fill="midnightblue" stroke="midnightblue" points="1356.38,-242.94 1366.93,-241.99 1358.09,-236.16 1356.38,-242.94"/>
</g>
<!-- Node16 -->
<g id="node16" class="node">
<title>Node16</title>
<g id="a_node16"><a xlink:href="namespacewmtk_1_1multimesh_1_1utils.html#a8f0a6c05e27c92d2d4ac453971f52749" target="_top" xlink:title=" ">
<polygon fill="none" stroke="black" points="1556.5,-325 1556.5,-355 1705.5,-355 1705.5,-325 1556.5,-325"/>
<text text-anchor="start" x="1564.5" y="-343" font-family="Helvetica,sans-Serif" font-size="10.00">wmtk::multimesh::utils</text>
<text text-anchor="middle" x="1631" y="-332" font-family="Helvetica,sans-Serif" font-size="10.00">::read_tuple_map_attribute</text>
</a>
</g>
</g>
<!-- Node15&#45;&gt;Node16 -->
<g id="edge21" class="edge">
<title>Node15&#45;&gt;Node16</title>
<path fill="none" stroke="midnightblue" d="M1481.99,-272.01C1491.42,-275.06 1501.07,-278.43 1510,-282 1526.61,-288.65 1529.92,-292.15 1546,-300 1559.92,-306.79 1575.19,-314.11 1588.86,-320.6"/>
<polygon fill="midnightblue" stroke="midnightblue" points="1587.49,-323.82 1598.02,-324.95 1590.49,-317.5 1587.49,-323.82"/>
</g>
<!-- Node18 -->
<g id="node18" class="node">
<title>Node18</title>
<g id="a_node18"><a xlink:href="namespacewmtk_1_1simplex.html#a479fe685989f6c075a5ce1c52b5c4df3" target="_top" xlink:title=" ">
<polygon fill="none" stroke="black" points="1555.5,-198 1555.5,-228 1706.5,-228 1706.5,-198 1555.5,-198"/>
<text text-anchor="start" x="1563.5" y="-216" font-family="Helvetica,sans-Serif" font-size="10.00">wmtk::simplex::top</text>
<text text-anchor="middle" x="1631" y="-205" font-family="Helvetica,sans-Serif" font-size="10.00">_dimension_cofaces_tuples</text>
</a>
</g>
</g>
<!-- Node15&#45;&gt;Node18 -->
<g id="edge23" class="edge">
<title>Node15&#45;&gt;Node18</title>
<path fill="none" stroke="midnightblue" d="M1497.28,-241.98C1514.69,-238.18 1533.53,-234.07 1551.38,-230.17"/>
<polygon fill="midnightblue" stroke="midnightblue" points="1552.16,-233.58 1561.19,-228.03 1550.67,-226.74 1552.16,-233.58"/>
</g>
<!-- Node28 -->
<g id="node28" class="node">
<title>Node28</title>
<g id="a_node28"><a xlink:href="classwmtk_1_1_mesh.html#abaf00438d0700358b160e310d69725c9" target="_top" xlink:title=" ">
<polygon fill="none" stroke="black" points="1546,-271.5 1546,-290.5 1716,-290.5 1716,-271.5 1546,-271.5"/>
<text text-anchor="middle" x="1631" y="-278.5" font-family="Helvetica,sans-Serif" font-size="10.00">wmtk::Mesh::top_simplex_type</text>
</a>
</g>
</g>
<!-- Node15&#45;&gt;Node28 -->
<g id="edge33" class="edge">
<title>Node15&#45;&gt;Node28</title>
<path fill="none" stroke="midnightblue" d="M1510.17,-266.73C1520.07,-267.91 1530.22,-269.12 1540.23,-270.31"/>
<polygon fill="midnightblue" stroke="midnightblue" points="1539.83,-273.79 1550.18,-271.49 1540.66,-266.83 1539.83,-273.79"/>
</g>
<!-- Node30 -->
<g id="node30" class="node">
<title>Node30</title>
<g id="a_node30"><a xlink:href="namespacewmtk_1_1multimesh_1_1utils.html#aa0392bf28bb6c304127cf0eea634fee8" target="_top" xlink:title=" ">
<polygon fill="none" stroke="black" points="1566,-105 1566,-135 1696,-135 1696,-105 1566,-105"/>
<text text-anchor="start" x="1574" y="-123" font-family="Helvetica,sans-Serif" font-size="10.00">wmtk::multimesh::utils</text>
<text text-anchor="middle" x="1631" y="-112" font-family="Helvetica,sans-Serif" font-size="10.00">::transport_tuple</text>
</a>
</g>
</g>
<!-- Node15&#45;&gt;Node30 -->
<g id="edge35" class="edge">
<title>Node15&#45;&gt;Node30</title>
<path fill="none" stroke="midnightblue" d="M1493.32,-241.91C1499.18,-239.37 1504.84,-236.42 1510,-233 1531.06,-219.03 1528.15,-206.88 1546,-189 1563.14,-171.82 1584.26,-154.49 1601.03,-141.5"/>
<polygon fill="midnightblue" stroke="midnightblue" points="1603.55,-143.98 1609.36,-135.12 1599.29,-138.42 1603.55,-143.98"/>
</g>
<!-- Node17 -->
<g id="node17" class="node">
<title>Node17</title>
<g id="a_node17"><a xlink:href="namespacewmtk_1_1multimesh_1_1utils.html#a87b676fc443dc880b37e83144c5bbbe9" target="_top" xlink:title=" ">
<polygon fill="none" stroke="black" points="1766,-340 1766,-370 1896,-370 1896,-340 1766,-340"/>
<text text-anchor="start" x="1774" y="-358" font-family="Helvetica,sans-Serif" font-size="10.00">wmtk::multimesh::utils</text>
<text text-anchor="middle" x="1831" y="-347" font-family="Helvetica,sans-Serif" font-size="10.00">::vector5_to_tuple</text>
</a>
</g>
</g>
<!-- Node16&#45;&gt;Node17 -->
<g id="edge22" class="edge">
<title>Node16&#45;&gt;Node17</title>
<path fill="none" stroke="midnightblue" d="M1705.73,-345.59C1722.12,-346.83 1739.5,-348.14 1755.9,-349.39"/>
<polygon fill="midnightblue" stroke="midnightblue" points="1755.74,-352.88 1765.97,-350.15 1756.26,-345.9 1755.74,-352.88"/>
</g>
<!-- Node19 -->
<g id="node19" class="node">
<title>Node19</title>
<g id="a_node19"><a xlink:href="classwmtk_1_1_edge_mesh.html#a7423c40cccd7e240dfa9bd0b5c0e3185" target="_top" xlink:title=" ">
<polygon fill="none" stroke="black" points="1773.5,-242 1773.5,-272 1888.5,-272 1888.5,-242 1773.5,-242"/>
<text text-anchor="start" x="1781.5" y="-260" font-family="Helvetica,sans-Serif" font-size="10.00">wmtk::EdgeMesh::is</text>
<text text-anchor="middle" x="1831" y="-249" font-family="Helvetica,sans-Serif" font-size="10.00">_boundary_vertex</text>
</a>
</g>
</g>
<!-- Node18&#45;&gt;Node19 -->
<g id="edge24" class="edge">
<title>Node18&#45;&gt;Node19</title>
<path fill="none" stroke="midnightblue" d="M1699.59,-228.02C1720.19,-232.6 1742.82,-237.63 1763.36,-242.19"/>
<polygon fill="midnightblue" stroke="midnightblue" points="1762.73,-245.64 1773.25,-244.39 1764.25,-238.8 1762.73,-245.64"/>
</g>
<!-- Node18&#45;&gt;Node24 -->
<g id="edge29" class="edge">
<title>Node18&#45;&gt;Node24</title>
<path fill="none" stroke="midnightblue" d="M1657.16,-197.97C1675.69,-185.76 1700.31,-167 1716,-145 1743.19,-106.88 1718.07,-78.26 1752,-46 1753.12,-44.93 1754.29,-43.91 1755.5,-42.94"/>
<polygon fill="midnightblue" stroke="midnightblue" points="1757.72,-45.66 1764.01,-37.14 1753.78,-39.88 1757.72,-45.66"/>
</g>
<!-- Node25 -->
<g id="node25" class="node">
<title>Node25</title>
<g id="a_node25"><a xlink:href="classwmtk_1_1_mesh.html#a33805489402321155d4a1f7023faaf3a" target="_top" xlink:title=" ">
<polygon fill="none" stroke="black" points="1759.5,-203.5 1759.5,-222.5 1902.5,-222.5 1902.5,-203.5 1759.5,-203.5"/>
<text text-anchor="middle" x="1831" y="-210.5" font-family="Helvetica,sans-Serif" font-size="10.00">wmtk::Mesh::switch_edge</text>
</a>
</g>
</g>
<!-- Node18&#45;&gt;Node25 -->
<g id="edge30" class="edge">
<title>Node18&#45;&gt;Node25</title>
<path fill="none" stroke="midnightblue" d="M1706.57,-213C1720.51,-213 1735.14,-213 1749.25,-213"/>
<polygon fill="midnightblue" stroke="midnightblue" points="1749.42,-216.5 1759.42,-213 1749.42,-209.5 1749.42,-216.5"/>
</g>
<!-- Node18&#45;&gt;Node27 -->
<g id="edge32" class="edge">
<title>Node18&#45;&gt;Node27</title>
<path fill="none" stroke="midnightblue" d="M1699.59,-197.98C1716.98,-194.12 1735.81,-189.93 1753.62,-185.97"/>
<polygon fill="midnightblue" stroke="midnightblue" points="1754.39,-189.39 1763.39,-183.8 1752.87,-182.56 1754.39,-189.39"/>
</g>
<!-- Node20 -->
<g id="node20" class="node">
<title>Node20</title>
<g id="a_node20"><a xlink:href="classwmtk_1_1_mesh.html#abbb1c54cfd6ec17f4730317ee5fab78d" target="_top" xlink:title=" ">
<polygon fill="none" stroke="black" points="1946,-247.5 1946,-266.5 2094,-266.5 2094,-247.5 1946,-247.5"/>
<text text-anchor="middle" x="2020" y="-254.5" font-family="Helvetica,sans-Serif" font-size="10.00">wmtk::Mesh::is_valid_slow</text>
</a>
</g>
</g>
<!-- Node19&#45;&gt;Node20 -->
<g id="edge25" class="edge">
<title>Node19&#45;&gt;Node20</title>
<path fill="none" stroke="midnightblue" d="M1888.61,-257C1903.43,-257 1919.71,-257 1935.61,-257"/>
<polygon fill="midnightblue" stroke="midnightblue" points="1935.97,-260.5 1945.97,-257 1935.97,-253.5 1935.97,-260.5"/>
</g>
<!-- Node21 -->
<g id="node21" class="node">
<title>Node21</title>
<g id="a_node21"><a xlink:href="classwmtk_1_1_mesh.html#a92666fa5c4c8b680e9b4a9b3755689f0" target="_top" xlink:title=" ">
<polygon fill="none" stroke="black" points="2130,-264 2130,-294 2260,-294 2260,-264 2130,-264"/>
<text text-anchor="start" x="2138" y="-282" font-family="Helvetica,sans-Serif" font-size="10.00">wmtk::Mesh::get_const</text>
<text text-anchor="middle" x="2195" y="-271" font-family="Helvetica,sans-Serif" font-size="10.00">_cell_hash_accessor</text>
</a>
</g>
</g>
<!-- Node20&#45;&gt;Node21 -->
<g id="edge26" class="edge">
<title>Node20&#45;&gt;Node21</title>
<path fill="none" stroke="midnightblue" d="M2094.12,-266.3C2102.67,-267.39 2111.4,-268.5 2119.96,-269.58"/>
<polygon fill="midnightblue" stroke="midnightblue" points="2119.55,-273.06 2129.91,-270.85 2120.44,-266.12 2119.55,-273.06"/>
</g>
<!-- Node23 -->
<g id="node23" class="node">
<title>Node23</title>
<g id="a_node23"><a xlink:href="classwmtk_1_1_mesh.html#a8c09a3ed591ffbb0e59c83948970d121" target="_top" xlink:title="check validity of tuple including its hash">
<polygon fill="none" stroke="black" points="2135,-225.5 2135,-244.5 2255,-244.5 2255,-225.5 2135,-225.5"/>
<text text-anchor="middle" x="2195" y="-232.5" font-family="Helvetica,sans-Serif" font-size="10.00">wmtk::Mesh::is_valid</text>
</a>
</g>
</g>
<!-- Node20&#45;&gt;Node23 -->
<g id="edge28" class="edge">
<title>Node20&#45;&gt;Node23</title>
<path fill="none" stroke="midnightblue" d="M2094.12,-247.7C2104.28,-246.41 2114.7,-245.08 2124.8,-243.8"/>
<polygon fill="midnightblue" stroke="midnightblue" points="2125.28,-247.27 2134.76,-242.53 2124.4,-240.32 2125.28,-247.27"/>
</g>
<!-- Node22 -->
<g id="node22" class="node">
<title>Node22</title>
<g id="a_node22"><a xlink:href="classwmtk_1_1_mesh.html#a0a33a7e7fbfd7c9d5588f0a392783047" target="_top" xlink:title=" ">
<polygon fill="none" stroke="black" points="2296,-264 2296,-294 2409,-294 2409,-264 2296,-264"/>
<text text-anchor="start" x="2304" y="-282" font-family="Helvetica,sans-Serif" font-size="10.00">wmtk::Mesh::create</text>
<text text-anchor="middle" x="2352.5" y="-271" font-family="Helvetica,sans-Serif" font-size="10.00">_const_accessor</text>
</a>
</g>
</g>
<!-- Node21&#45;&gt;Node22 -->
<g id="edge27" class="edge">
<title>Node21&#45;&gt;Node22</title>
<path fill="none" stroke="midnightblue" d="M2260.15,-279C2268.59,-279 2277.26,-279 2285.73,-279"/>
<polygon fill="midnightblue" stroke="midnightblue" points="2285.94,-282.5 2295.94,-279 2285.94,-275.5 2285.94,-282.5"/>
</g>
<!-- Node26 -->
<g id="node26" class="node">
<title>Node26</title>
<g id="a_node26"><a xlink:href="classwmtk_1_1_mesh.html#a965a8a24158c4aa8580c57ba09f885f7" target="_top" xlink:title="switch the orientation of the Tuple of the given dimension">
<polygon fill="none" stroke="black" points="1963,-198 1963,-228 2077,-228 2077,-198 1963,-198"/>
<text text-anchor="start" x="1971" y="-216" font-family="Helvetica,sans-Serif" font-size="10.00">wmtk::Mesh::switch</text>
<text text-anchor="middle" x="2020" y="-205" font-family="Helvetica,sans-Serif" font-size="10.00">_tuple</text>
</a>
</g>
</g>
<!-- Node25&#45;&gt;Node26 -->
<g id="edge31" class="edge">
<title>Node25&#45;&gt;Node26</title>
<path fill="none" stroke="midnightblue" d="M1902.7,-213C1918.99,-213 1936.26,-213 1952.37,-213"/>
<polygon fill="midnightblue" stroke="midnightblue" points="1952.77,-216.5 1962.77,-213 1952.77,-209.5 1952.77,-216.5"/>
</g>
<!-- Node29 -->
<g id="node29" class="node">
<title>Node29</title>
<g id="a_node29"><a xlink:href="classwmtk_1_1_mesh.html#ac1e12857f52985bd548a968a4c819659" target="_top" xlink:title=" ">
<polygon fill="none" stroke="black" points="1770.5,-291 1770.5,-321 1891.5,-321 1891.5,-291 1770.5,-291"/>
<text text-anchor="start" x="1778.5" y="-309" font-family="Helvetica,sans-Serif" font-size="10.00">wmtk::Mesh::top_cell</text>
<text text-anchor="middle" x="1831" y="-298" font-family="Helvetica,sans-Serif" font-size="10.00">_dimension</text>
</a>
</g>
</g>
<!-- Node28&#45;&gt;Node29 -->
<g id="edge34" class="edge">
<title>Node28&#45;&gt;Node29</title>
<path fill="none" stroke="midnightblue" d="M1707.42,-290.52C1724.87,-292.73 1743.36,-295.06 1760.54,-297.23"/>
<polygon fill="midnightblue" stroke="midnightblue" points="1760.12,-300.7 1770.48,-298.49 1761,-293.76 1760.12,-300.7"/>
</g>
<!-- Node31 -->
<g id="node31" class="node">
<title>Node31</title>
<g id="a_node31"><a xlink:href="namespacewmtk_1_1multimesh_1_1utils.html#a99cdf56ec6abe68409d30e0b67f4ce82" target="_top" xlink:title=" ">
<polygon fill="none" stroke="black" points="1752,-105 1752,-135 1910,-135 1910,-105 1752,-105"/>
<text text-anchor="start" x="1760" y="-123" font-family="Helvetica,sans-Serif" font-size="10.00">wmtk::multimesh::utils</text>
<text text-anchor="middle" x="1831" y="-112" font-family="Helvetica,sans-Serif" font-size="10.00">::find_local_switch_sequence</text>
</a>
</g>
</g>
<!-- Node30&#45;&gt;Node31 -->
<g id="edge36" class="edge">
<title>Node30&#45;&gt;Node31</title>
<path fill="none" stroke="midnightblue" d="M1696.01,-120C1710.56,-120 1726.27,-120 1741.63,-120"/>
<polygon fill="midnightblue" stroke="midnightblue" points="1741.66,-123.5 1751.66,-120 1741.66,-116.5 1741.66,-123.5"/>
</g>
<!-- Node32 -->
<g id="node32" class="node">
<title>Node32</title>
<g id="a_node32"><a xlink:href="namespacewmtk_1_1multimesh_1_1utils.html#af71d6d20a76616d671ae5f53350107b4" target="_top" xlink:title=" ">
<polygon fill="none" stroke="black" points="1766,-56 1766,-86 1896,-86 1896,-56 1766,-56"/>
<text text-anchor="start" x="1774" y="-74" font-family="Helvetica,sans-Serif" font-size="10.00">wmtk::multimesh::utils</text>
<text text-anchor="middle" x="1831" y="-63" font-family="Helvetica,sans-Serif" font-size="10.00">::local_switch_tuples</text>
</a>
</g>
</g>
<!-- Node30&#45;&gt;Node32 -->
<g id="edge37" class="edge">
<title>Node30&#45;&gt;Node32</title>
<path fill="none" stroke="midnightblue" d="M1692.75,-104.97C1713.85,-99.74 1737.68,-93.85 1759.5,-88.45"/>
<polygon fill="midnightblue" stroke="midnightblue" points="1760.5,-91.81 1769.36,-86.01 1758.81,-85.01 1760.5,-91.81"/>
</g>
</g>
</svg>
        <g id="navigator" transform="translate(0 0)" fill="#404254">
                <rect fill="#f2f5e9" fill-opacity="0.5" stroke="#606060" stroke-width=".5" x="0" y="0" width="60" height="60"/>
                <use id="zoomplus" xlink:href="#zoomPlus" x="17" y="9" onmousedown="handleZoom(evt,'in')"/>
                <use id="zoomminus" xlink:href="#zoomMin" x="42" y="9" onmousedown="handleZoom(evt,'out')"/>
                <use id="reset" xlink:href="#resetDef" x="30" y="36" onmousedown="handleReset()"/>
                <g id="arrowUp" xlink:href="#dirArrow" transform="translate(30 24)" onmousedown="handlePan(0,-1)">
                  <use xlink:href="#rim" fill="#404040">
                        <set attributeName="fill" to="#808080" begin="arrowUp.mouseover" end="arrowUp.mouseout"/>
                  </use>
                  <path fill="none" stroke="white" stroke-width="1.5" d="M0,-3.0v7 M-2.5,-0.5L0,-3.0L2.5,-0.5"/>
                </g>
                <g id="arrowRight" xlink:href="#dirArrow" transform="rotate(90) translate(36 -43)" onmousedown="handlePan(1,0)">
                  <use xlink:href="#rim" fill="#404040">
                        <set attributeName="fill" to="#808080" begin="arrowRight.mouseover" end="arrowRight.mouseout"/>
                  </use>
                  <path fill="none" stroke="white" stroke-width="1.5" d="M0,-3.0v7 M-2.5,-0.5L0,-3.0L2.5,-0.5"/>
                </g>
                <g id="arrowDown" xlink:href="#dirArrow" transform="rotate(180) translate(-30 -48)" onmousedown="handlePan(0,1)">
                  <use xlink:href="#rim" fill="#404040">
                        <set attributeName="fill" to="#808080" begin="arrowDown.mouseover" end="arrowDown.mouseout"/>
                  </use>
                  <path fill="none" stroke="white" stroke-width="1.5" d="M0,-3.0v7 M-2.5,-0.5L0,-3.0L2.5,-0.5"/>
                </g>
                <g id="arrowLeft" xlink:href="#dirArrow" transform="rotate(270) translate(-36 17)" onmousedown="handlePan(-1,0)">
                  <use xlink:href="#rim" fill="#404040">
                        <set attributeName="fill" to="#808080" begin="arrowLeft.mouseover" end="arrowLeft.mouseout"/>
                  </use>
                  <path fill="none" stroke="white" stroke-width="1.5" d="M0,-3.0v7 M-2.5,-0.5L0,-3.0L2.5,-0.5"/>
                </g>
        </g>
        <svg viewBox="0 0 15 15" width="100%" height="30px" preserveAspectRatio="xMaxYMin meet">
         <g id="arrow_out" transform="scale(0.3 0.3)">
          <a xlink:href="classwmtk_1_1operations_1_1_operation_a3cf4616909230345e0039b33c28d9214_cgraph_org.svg" target="_base">
           <rect id="button" ry="5" rx="5" y="6" x="6" height="38" width="38"
                fill="#f2f5e9" fill-opacity="0.5" stroke="#606060" stroke-width="1.0"/>
           <path id="arrow"
             d="M 11.500037,31.436501 C 11.940474,20.09759 22.043105,11.32322 32.158766,21.979434 L 37.068811,17.246167 C 37.068811,17.246167 37.088388,32 37.088388,32 L 22.160133,31.978069 C 22.160133,31.978069 26.997745,27.140456 26.997745,27.140456 C 18.528582,18.264221 13.291696,25.230495 11.500037,31.436501 z"
             style="fill:#404040;"/>
          </a>
         </g>
        </svg>
</svg>
