<?xml version="1.0" encoding="UTF-8" standalone="no"?>
<!DOCTYPE svg PUBLIC "-//W3C//DTD SVG 1.1//EN"
 "http://www.w3.org/Graphics/SVG/1.1/DTD/svg11.dtd">
<!-- Generated by graphviz version 2.43.0 (0)
 -->
<!-- Title: wmtk::operations::internal::SplitAlternateFacetData::add_facet Pages: 1 -->
<svg width="540pt" height="137pt"
 viewBox="0.00 0.00 540.00 137.00" xmlns="http://www.w3.org/2000/svg" xmlns:xlink="http://www.w3.org/1999/xlink">
<g id="graph0" class="graph" transform="scale(1 1) rotate(0) translate(4 133)">
<title>wmtk::operations::internal::SplitAlternateFacetData::add_facet</title>
<!-- Node1 -->
<g id="node1" class="node">
<title>Node1</title>
<g id="a_node1"><a xlink:title=" ">
<polygon fill="#bfbfbf" stroke="black" points="0,-44 0,-85 146,-85 146,-44 0,-44"/>
<text text-anchor="start" x="8" y="-73" font-family="Helvetica,sans-Serif" font-size="10.00">wmtk::operations::internal</text>
<text text-anchor="start" x="8" y="-62" font-family="Helvetica,sans-Serif" font-size="10.00">::SplitAlternateFacetData</text>
<text text-anchor="middle" x="73" y="-51" font-family="Helvetica,sans-Serif" font-size="10.00">::add_facet</text>
</a>
</g>
</g>
<!-- Node2 -->
<g id="node2" class="node">
<title>Node2</title>
<g id="a_node2"><a xlink:href="classwmtk_1_1autogen_1_1_simplex_dart.html#a21ce39640b06675b3e15f8e30ce5d45b" target="_top" xlink:title=" ">
<polygon fill="none" stroke="black" points="182,-49.5 182,-79.5 339,-79.5 339,-49.5 182,-49.5"/>
<text text-anchor="start" x="190" y="-67.5" font-family="Helvetica,sans-Serif" font-size="10.00">wmtk::autogen::SimplexDart</text>
<text text-anchor="middle" x="260.5" y="-56.5" font-family="Helvetica,sans-Serif" font-size="10.00">::get_singleton</text>
</a>
</g>
</g>
<!-- Node1&#45;&gt;Node2 -->
<g id="edge1" class="edge">
<title>Node1&#45;&gt;Node2</title>
<path fill="none" stroke="midnightblue" d="M146.25,-64.5C154.66,-64.5 163.3,-64.5 171.89,-64.5"/>
<polygon fill="midnightblue" stroke="midnightblue" points="171.93,-68 181.92,-64.5 171.92,-61 171.93,-68"/>
</g>
<!-- Node3 -->
<g id="node3" class="node">
<title>Node3</title>
<g id="a_node3"><a xlink:href="namespacewmtk.html#a5cf45c152e856196bb734c6f48919a24" target="_top" xlink:title="Get a unique integer id corresponding to each primitive type.">
<polygon fill="none" stroke="black" points="395.5,-98.5 395.5,-128.5 511.5,-128.5 511.5,-98.5 395.5,-98.5"/>
<text text-anchor="start" x="403.5" y="-116.5" font-family="Helvetica,sans-Serif" font-size="10.00">wmtk::get_primitive</text>
<text text-anchor="middle" x="453.5" y="-105.5" font-family="Helvetica,sans-Serif" font-size="10.00">_type_id</text>
</a>
</g>
</g>
<!-- Node2&#45;&gt;Node3 -->
<g id="edge2" class="edge">
<title>Node2&#45;&gt;Node3</title>
<path fill="none" stroke="midnightblue" d="M320.1,-79.53C340.74,-84.83 364.1,-90.82 385.38,-96.28"/>
<polygon fill="midnightblue" stroke="midnightblue" points="384.76,-99.74 395.32,-98.83 386.5,-92.96 384.76,-99.74"/>
</g>
<!-- Node4 -->
<g id="node4" class="node">
<title>Node4</title>
<g id="a_node4"><a xlink:href="classwmtk_1_1autogen_1_1_simplex_dart.html#a69daf4f546ec5ae10ce9f7b675418964" target="_top" xlink:title=" ">
<polygon fill="none" stroke="black" points="375,-49.5 375,-79.5 532,-79.5 532,-49.5 375,-49.5"/>
<text text-anchor="start" x="383" y="-67.5" font-family="Helvetica,sans-Serif" font-size="10.00">wmtk::autogen::SimplexDart</text>
<text text-anchor="middle" x="453.5" y="-56.5" font-family="Helvetica,sans-Serif" font-size="10.00">::simplex_type</text>
</a>
</g>
</g>
<!-- Node2&#45;&gt;Node4 -->
<g id="edge3" class="edge">
<title>Node2&#45;&gt;Node4</title>
<path fill="none" stroke="midnightblue" d="M339.19,-64.5C347.65,-64.5 356.31,-64.5 364.88,-64.5"/>
<polygon fill="midnightblue" stroke="midnightblue" points="364.88,-68 374.88,-64.5 364.88,-61 364.88,-68"/>
</g>
<!-- Node5 -->
<g id="node5" class="node">
<title>Node5</title>
<g id="a_node5"><a xlink:href="classwmtk_1_1autogen_1_1_simplex_dart.html#a4620a3ab15e769b8316763ce0b26039e" target="_top" xlink:title=" ">
<polygon fill="none" stroke="black" points="375,-0.5 375,-30.5 532,-30.5 532,-0.5 375,-0.5"/>
<text text-anchor="start" x="383" y="-18.5" font-family="Helvetica,sans-Serif" font-size="10.00">wmtk::autogen::SimplexDart</text>
<text text-anchor="middle" x="453.5" y="-7.5" font-family="Helvetica,sans-Serif" font-size="10.00">::SimplexDart</text>
</a>
</g>
</g>
<!-- Node2&#45;&gt;Node5 -->
<g id="edge4" class="edge">
<title>Node2&#45;&gt;Node5</title>
<path fill="none" stroke="midnightblue" d="M320.1,-49.47C340.36,-44.27 363.24,-38.4 384.21,-33.02"/>
<polygon fill="midnightblue" stroke="midnightblue" points="385.19,-36.38 394.01,-30.51 383.45,-29.6 385.19,-36.38"/>
</g>
</g>
</svg>
