<?xml version="1.0" encoding="UTF-8" standalone="no"?>
<!DOCTYPE svg PUBLIC "-//W3C//DTD SVG 1.1//EN"
 "http://www.w3.org/Graphics/SVG/1.1/DTD/svg11.dtd">
<!-- Generated by graphviz version 2.43.0 (0)
 -->
<!-- Title: wmtk::attribute::MeshAttributeHandle::is_valid Pages: 1 -->
<!--zoomable 382 -->
<svg id="main" version="1.1" xmlns="http://www.w3.org/2000/svg" xmlns:xlink="http://www.w3.org/1999/xlink" xml:space="preserve" onload="init(evt)">
<style type="text/css"><![CDATA[
.edge:hover path { stroke: red; }
.edge:hover polygon { stroke: red; fill: red; }
]]></style>
<script type="text/javascript"><![CDATA[
var edges = document.getElementsByTagName('g');
if (edges && edges.length) {
  for (var i=0;i<edges.length;i++) {
    if (edges[i].id.substr(0,4)=='edge') {
      edges[i].setAttribute('class','edge');
    }
  }
}
]]></script>
        <defs>
                <circle id="rim" cx="0" cy="0" r="7"/>
                <circle id="rim2" cx="0" cy="0" r="3.5"/>
                <g id="zoomPlus">
                        <use xlink:href="#rim" fill="#404040">
                                <set attributeName="fill" to="#808080" begin="zoomplus.mouseover" end="zoomplus.mouseout"/>
                        </use>
                        <path d="M-4,0h8M0,-4v8" fill="none" stroke="white" stroke-width="1.5" pointer-events="none"/>
                </g>
                <g id="zoomMin">
                        <use xlink:href="#rim" fill="#404040">
                                <set attributeName="fill" to="#808080" begin="zoomminus.mouseover" end="zoomminus.mouseout"/>
                        </use>
                        <path d="M-4,0h8" fill="none" stroke="white" stroke-width="1.5" pointer-events="none"/>
                </g>
                <g id="dirArrow">
                        <path fill="none" stroke="white" stroke-width="1.5" d="M0,-3.0v7 M-2.5,-0.5L0,-3.0L2.5,-0.5"/>
                </g>
               <g id="resetDef">
                       <use xlink:href="#rim2" fill="#404040">
                               <set attributeName="fill" to="#808080" begin="reset.mouseover" end="reset.mouseout"/>
                       </use>
               </g>
        </defs>

<script type="text/javascript">
var viewWidth = 1052;
var viewHeight = 382;
var sectionId = 'dynsection-11';
</script>
<script xlink:href="svgpan.js"/>
<svg id="graph" class="graph">
<g id="viewport">
<title>wmtk::attribute::MeshAttributeHandle::is_valid</title>
<!-- Node1 -->
<g id="node1" class="node">
<title>Node1</title>
<g id="a_node1"><a xlink:title=" ">
<polygon fill="#bfbfbf" stroke="black" points="877,-74.5 877,-104.5 1044,-104.5 1044,-74.5 877,-74.5"/>
<text text-anchor="start" x="885" y="-92.5" font-family="Helvetica,sans-Serif" font-size="10.00">wmtk::attribute::MeshAttribute</text>
<text text-anchor="middle" x="960.5" y="-81.5" font-family="Helvetica,sans-Serif" font-size="10.00">Handle::is_valid</text>
</a>
</g>
</g>
<!-- Node2 -->
<g id="node2" class="node">
<title>Node2</title>
<g id="a_node2"><a xlink:href="classwmtk_1_1function_1_1_per_simplex_function.html#a0df382a56885d99b8f1c480f016387e1" target="_top" xlink:title=" ">
<polygon fill="none" stroke="black" points="675,-220.5 675,-250.5 827,-250.5 827,-220.5 675,-220.5"/>
<text text-anchor="start" x="683" y="-238.5" font-family="Helvetica,sans-Serif" font-size="10.00">wmtk::function::PerSimplex</text>
<text text-anchor="middle" x="751" y="-227.5" font-family="Helvetica,sans-Serif" font-size="10.00">Function::attribute_handle</text>
</a>
</g>
</g>
<!-- Node1&#45;&gt;Node2 -->
<g id="edge1" class="edge">
<title>Node1&#45;&gt;Node2</title>
<path fill="none" stroke="midnightblue" d="M929.85,-110.36C887.57,-140.11 810.95,-194.02 773.62,-220.29"/>
<polygon fill="midnightblue" stroke="midnightblue" points="931.91,-113.19 938.08,-104.57 927.88,-107.47 931.91,-113.19"/>
</g>
<!-- Node14 -->
<g id="node14" class="node">
<title>Node14</title>
<g id="a_node14"><a xlink:href="classwmtk_1_1function_1_1_function.html#a0c62fa4a0fed84733c0c18b1806d1eca" target="_top" xlink:title=" ">
<polygon fill="none" stroke="black" points="466.5,-74.5 466.5,-104.5 603.5,-104.5 603.5,-74.5 466.5,-74.5"/>
<text text-anchor="start" x="474.5" y="-92.5" font-family="Helvetica,sans-Serif" font-size="10.00">wmtk::function::Function</text>
<text text-anchor="middle" x="535" y="-81.5" font-family="Helvetica,sans-Serif" font-size="10.00">::embedded_dimension</text>
</a>
</g>
</g>
<!-- Node1&#45;&gt;Node14 -->
<g id="edge17" class="edge">
<title>Node1&#45;&gt;Node14</title>
<path fill="none" stroke="midnightblue" d="M866.36,-89.5C787.01,-89.5 674.86,-89.5 603.8,-89.5"/>
<polygon fill="midnightblue" stroke="midnightblue" points="866.84,-93 876.84,-89.5 866.84,-86 866.84,-93"/>
</g>
<!-- Node15 -->
<g id="node15" class="node">
<title>Node15</title>
<g id="a_node15"><a xlink:href="namespacewmtk_1_1components.html#ae3a4b32383fdc9c2eb8334cc8ef947a5" target="_top" xlink:title="Perform shortest&#45;edge collapse on a triangular surface mesh.">
<polygon fill="none" stroke="black" points="661,-28.5 661,-58.5 841,-58.5 841,-28.5 661,-28.5"/>
<text text-anchor="start" x="669" y="-46.5" font-family="Helvetica,sans-Serif" font-size="10.00">wmtk::components::shortestedge</text>
<text text-anchor="middle" x="751" y="-35.5" font-family="Helvetica,sans-Serif" font-size="10.00">_collapse</text>
</a>
</g>
</g>
<!-- Node1&#45;&gt;Node15 -->
<g id="edge21" class="edge">
<title>Node1&#45;&gt;Node15</title>
<path fill="none" stroke="midnightblue" d="M881.69,-72.25C861.32,-67.74 839.53,-62.91 819.74,-58.52"/>
<polygon fill="midnightblue" stroke="midnightblue" points="881.04,-75.69 891.56,-74.44 882.55,-68.86 881.04,-75.69"/>
</g>
<!-- Node3 -->
<g id="node3" class="node">
<title>Node3</title>
<g id="a_node3"><a xlink:href="classwmtk_1_1function_1_1_per_simplex_function.html#a102906d1b23aa53d451853ca779ca2c4" target="_top" xlink:title=" ">
<polygon fill="none" stroke="black" points="449,-196.5 449,-226.5 621,-226.5 621,-196.5 449,-196.5"/>
<text text-anchor="start" x="457" y="-214.5" font-family="Helvetica,sans-Serif" font-size="10.00">wmtk::function::PerSimplex</text>
<text text-anchor="middle" x="535" y="-203.5" font-family="Helvetica,sans-Serif" font-size="10.00">Function::embedded_dimension</text>
</a>
</g>
</g>
<!-- Node2&#45;&gt;Node3 -->
<g id="edge2" class="edge">
<title>Node2&#45;&gt;Node3</title>
<path fill="none" stroke="midnightblue" d="M664.57,-225.92C650.29,-224.32 635.48,-222.66 621.2,-221.06"/>
<polygon fill="midnightblue" stroke="midnightblue" points="664.52,-229.44 674.85,-227.07 665.3,-222.48 664.52,-229.44"/>
</g>
<!-- Node9 -->
<g id="node9" class="node">
<title>Node9</title>
<g id="a_node9"><a xlink:href="classwmtk_1_1function_1_1_a_m_i_p_s.html#a36709a007132c33f85efe0b4abd16b93" target="_top" xlink:title=" ">
<polygon fill="none" stroke="black" points="260,-343.5 260,-373.5 387,-373.5 387,-343.5 260,-343.5"/>
<text text-anchor="start" x="268" y="-361.5" font-family="Helvetica,sans-Serif" font-size="10.00">wmtk::function::AMIPS</text>
<text text-anchor="middle" x="323.5" y="-350.5" font-family="Helvetica,sans-Serif" font-size="10.00">::get_raw_coordinates</text>
</a>
</g>
</g>
<!-- Node2&#45;&gt;Node9 -->
<g id="edge16" class="edge">
<title>Node2&#45;&gt;Node9</title>
<path fill="none" stroke="midnightblue" d="M706.8,-254.54C682.97,-264.6 652.69,-276.65 625,-285.5 544.07,-311.37 448.37,-333.15 387.08,-346.01"/>
<polygon fill="midnightblue" stroke="midnightblue" points="708.43,-257.65 716.26,-250.52 705.69,-251.21 708.43,-257.65"/>
</g>
<!-- Node13 -->
<g id="node13" class="node">
<title>Node13</title>
<g id="a_node13"><a xlink:href="classwmtk_1_1function_1_1_per_simplex_autodiff_function.html#a478ad8a8370ae38cdf1899cfd3707fde" target="_top" xlink:title="This is a helper function that obtains the coordinates of the variables for the function f(x) where f...">
<polygon fill="none" stroke="black" points="445,-245.5 445,-275.5 625,-275.5 625,-245.5 445,-245.5"/>
<text text-anchor="start" x="453" y="-263.5" font-family="Helvetica,sans-Serif" font-size="10.00">wmtk::function::PerSimplex</text>
<text text-anchor="middle" x="535" y="-252.5" font-family="Helvetica,sans-Serif" font-size="10.00">AutodiffFunction::get_coordinates</text>
</a>
</g>
</g>
<!-- Node2&#45;&gt;Node13 -->
<g id="edge12" class="edge">
<title>Node2&#45;&gt;Node13</title>
<path fill="none" stroke="midnightblue" d="M664.59,-245.48C651.66,-246.99 638.29,-248.55 625.28,-250.07"/>
<polygon fill="midnightblue" stroke="midnightblue" points="665.33,-248.92 674.85,-244.28 664.51,-241.96 665.33,-248.92"/>
</g>
<!-- Node4 -->
<g id="node4" class="node">
<title>Node4</title>
<g id="a_node4"><a xlink:href="classwmtk_1_1function_1_1_triangle_a_m_i_p_s.html#a9efeeacdc9da3b8000a13d44be7e62b7" target="_top" xlink:title="This function defines a function f(x) where f is defined over a simplex domain and the variables for ...">
<polygon fill="none" stroke="black" points="256.5,-147.5 256.5,-177.5 390.5,-177.5 390.5,-147.5 256.5,-147.5"/>
<text text-anchor="start" x="264.5" y="-165.5" font-family="Helvetica,sans-Serif" font-size="10.00">wmtk::function::Triangle</text>
<text text-anchor="middle" x="323.5" y="-154.5" font-family="Helvetica,sans-Serif" font-size="10.00">AMIPS::eval</text>
</a>
</g>
</g>
<!-- Node3&#45;&gt;Node4 -->
<g id="edge3" class="edge">
<title>Node3&#45;&gt;Node4</title>
<path fill="none" stroke="midnightblue" d="M459.9,-194.17C436.64,-188.73 411.17,-182.77 388.66,-177.51"/>
<polygon fill="midnightblue" stroke="midnightblue" points="459.19,-197.6 469.72,-196.47 460.78,-190.78 459.19,-197.6"/>
</g>
<!-- Node5 -->
<g id="node5" class="node">
<title>Node5</title>
<g id="a_node5"><a xlink:href="classwmtk_1_1function_1_1_per_simplex_autodiff_function.html#a2acd918687731413b8476532ed726308" target="_top" xlink:title=" ">
<polygon fill="none" stroke="black" points="241.5,-196.5 241.5,-226.5 405.5,-226.5 405.5,-196.5 241.5,-196.5"/>
<text text-anchor="start" x="249.5" y="-214.5" font-family="Helvetica,sans-Serif" font-size="10.00">wmtk::function::PerSimplex</text>
<text text-anchor="middle" x="323.5" y="-203.5" font-family="Helvetica,sans-Serif" font-size="10.00">AutodiffFunction::get_gradient</text>
</a>
</g>
</g>
<!-- Node3&#45;&gt;Node5 -->
<g id="edge4" class="edge">
<title>Node3&#45;&gt;Node5</title>
<path fill="none" stroke="midnightblue" d="M438.68,-211.5C427.62,-211.5 416.42,-211.5 405.57,-211.5"/>
<polygon fill="midnightblue" stroke="midnightblue" points="438.79,-215 448.79,-211.5 438.79,-208 438.79,-215"/>
</g>
<!-- Node6 -->
<g id="node6" class="node">
<title>Node6</title>
<g id="a_node6"><a xlink:href="classwmtk_1_1function_1_1_local_neighbors_sum_function.html#a8f4a1942d320c2d613d1af447738f1ea" target="_top" xlink:title="get_gradient collects the local neigh and call the gradient of m_function on all simplicies">
<polygon fill="none" stroke="black" points="238,-0.5 238,-30.5 409,-30.5 409,-0.5 238,-0.5"/>
<text text-anchor="start" x="246" y="-18.5" font-family="Helvetica,sans-Serif" font-size="10.00">wmtk::function::LocalNeighbors</text>
<text text-anchor="middle" x="323.5" y="-7.5" font-family="Helvetica,sans-Serif" font-size="10.00">SumFunction::get_gradient</text>
</a>
</g>
</g>
<!-- Node3&#45;&gt;Node6 -->
<g id="edge5" class="edge">
<title>Node3&#45;&gt;Node6</title>
<path fill="none" stroke="midnightblue" d="M510.49,-189.39C491.27,-170.48 464.22,-141.9 445,-113.5 424.5,-83.21 437.04,-62.99 409,-39.5 404.91,-36.07 400.36,-33.13 395.55,-30.61"/>
<polygon fill="midnightblue" stroke="midnightblue" points="508.08,-191.93 517.69,-196.38 512.96,-186.91 508.08,-191.93"/>
</g>
<!-- Node7 -->
<g id="node7" class="node">
<title>Node7</title>
<g id="a_node7"><a xlink:href="classwmtk_1_1function_1_1_per_simplex_autodiff_function.html#a3155c5a79c212490864deb51ad023534" target="_top" xlink:title=" ">
<polygon fill="none" stroke="black" points="243,-294.5 243,-324.5 404,-324.5 404,-294.5 243,-294.5"/>
<text text-anchor="start" x="251" y="-312.5" font-family="Helvetica,sans-Serif" font-size="10.00">wmtk::function::PerSimplex</text>
<text text-anchor="middle" x="323.5" y="-301.5" font-family="Helvetica,sans-Serif" font-size="10.00">AutodiffFunction::get_hessian</text>
</a>
</g>
</g>
<!-- Node3&#45;&gt;Node7 -->
<g id="edge6" class="edge">
<title>Node3&#45;&gt;Node7</title>
<path fill="none" stroke="midnightblue" d="M453.99,-231.02C450.87,-232.7 447.86,-234.52 445,-236.5 422.78,-251.88 431.2,-270.09 409,-285.5 404.11,-288.89 398.76,-291.81 393.18,-294.31"/>
<polygon fill="midnightblue" stroke="midnightblue" points="455.54,-234.16 463.02,-226.66 452.49,-227.86 455.54,-234.16"/>
</g>
<!-- Node8 -->
<g id="node8" class="node">
<title>Node8</title>
<g id="a_node8"><a xlink:href="classwmtk_1_1function_1_1_local_neighbors_sum_function.html#a45bfd84c9f092364f449605199731442" target="_top" xlink:title="get_hessian evaluates the hessian of the function f(x) defined wrt the variable x.">
<polygon fill="none" stroke="black" points="238,-98.5 238,-128.5 409,-128.5 409,-98.5 238,-98.5"/>
<text text-anchor="start" x="246" y="-116.5" font-family="Helvetica,sans-Serif" font-size="10.00">wmtk::function::LocalNeighbors</text>
<text text-anchor="middle" x="323.5" y="-105.5" font-family="Helvetica,sans-Serif" font-size="10.00">SumFunction::get_hessian</text>
</a>
</g>
</g>
<!-- Node3&#45;&gt;Node8 -->
<g id="edge7" class="edge">
<title>Node3&#45;&gt;Node8</title>
<path fill="none" stroke="midnightblue" d="M503.82,-190.62C479.2,-174.34 443.05,-152.12 409,-137.5 401.29,-134.19 393,-131.19 384.72,-128.53"/>
<polygon fill="midnightblue" stroke="midnightblue" points="502.08,-193.67 512.34,-196.32 505.97,-187.85 502.08,-193.67"/>
</g>
<!-- Node3&#45;&gt;Node9 -->
<g id="edge8" class="edge">
<title>Node3&#45;&gt;Node9</title>
<path fill="none" stroke="midnightblue" d="M450.28,-232.13C448.44,-233.5 446.68,-234.95 445,-236.5 410.93,-268 443.02,-302.95 409,-334.5 402.74,-340.31 395.17,-344.72 387.17,-348.08"/>
<polygon fill="midnightblue" stroke="midnightblue" points="452.22,-235.04 458.76,-226.7 448.45,-229.15 452.22,-235.04"/>
</g>
<!-- Node11 -->
<g id="node11" class="node">
<title>Node11</title>
<g id="a_node11"><a xlink:href="classwmtk_1_1function_1_1_per_simplex_autodiff_function.html#a5dbdaadd8398ba89b96ae7e799d6c7e7" target="_top" xlink:title="This function is defined over a simplex (normally a triangle or tetrahedron).">
<polygon fill="none" stroke="black" points="247.5,-245.5 247.5,-275.5 399.5,-275.5 399.5,-245.5 247.5,-245.5"/>
<text text-anchor="start" x="255.5" y="-263.5" font-family="Helvetica,sans-Serif" font-size="10.00">wmtk::function::PerSimplex</text>
<text text-anchor="middle" x="323.5" y="-252.5" font-family="Helvetica,sans-Serif" font-size="10.00">AutodiffFunction::get_value</text>
</a>
</g>
</g>
<!-- Node3&#45;&gt;Node11 -->
<g id="edge10" class="edge">
<title>Node3&#45;&gt;Node11</title>
<path fill="none" stroke="midnightblue" d="M459.9,-228.83C436.64,-234.27 411.17,-240.23 388.66,-245.49"/>
<polygon fill="midnightblue" stroke="midnightblue" points="460.78,-232.22 469.72,-226.53 459.19,-225.4 460.78,-232.22"/>
</g>
<!-- Node12 -->
<g id="node12" class="node">
<title>Node12</title>
<g id="a_node12"><a xlink:href="classwmtk_1_1function_1_1_local_neighbors_sum_function.html#a0b81383595fa81fb270266bb6cee71da" target="_top" xlink:title="collects the local neigh and call the same m_function on all simplicies">
<polygon fill="none" stroke="black" points="238,-49.5 238,-79.5 409,-79.5 409,-49.5 238,-49.5"/>
<text text-anchor="start" x="246" y="-67.5" font-family="Helvetica,sans-Serif" font-size="10.00">wmtk::function::LocalNeighbors</text>
<text text-anchor="middle" x="323.5" y="-56.5" font-family="Helvetica,sans-Serif" font-size="10.00">SumFunction::get_value</text>
</a>
</g>
</g>
<!-- Node3&#45;&gt;Node12 -->
<g id="edge11" class="edge">
<title>Node3&#45;&gt;Node12</title>
<path fill="none" stroke="midnightblue" d="M516.45,-188.18C494.36,-160.43 453.83,-114.59 409,-88.5 403.07,-85.05 396.61,-82.07 390,-79.5"/>
<polygon fill="midnightblue" stroke="midnightblue" points="513.78,-190.45 522.7,-196.17 519.29,-186.14 513.78,-190.45"/>
</g>
<!-- Node10 -->
<g id="node10" class="node">
<title>Node10</title>
<g id="a_node10"><a xlink:href="classwmtk_1_1operations_1_1_a_m_i_p_s_optimization_smoothing.html#a2c409cd3da46f4360119e142ef3c3682" target="_top" xlink:title="returns an empty vector in case of failure">
<polygon fill="none" stroke="black" points="0,-343.5 0,-373.5 202,-373.5 202,-343.5 0,-343.5"/>
<text text-anchor="start" x="8" y="-361.5" font-family="Helvetica,sans-Serif" font-size="10.00">wmtk::operations::AMIPSOptimization</text>
<text text-anchor="middle" x="101" y="-350.5" font-family="Helvetica,sans-Serif" font-size="10.00">Smoothing::execute</text>
</a>
</g>
</g>
<!-- Node9&#45;&gt;Node10 -->
<g id="edge9" class="edge">
<title>Node9&#45;&gt;Node10</title>
<path fill="none" stroke="midnightblue" d="M249.6,-358.5C234.45,-358.5 218.23,-358.5 202.29,-358.5"/>
<polygon fill="midnightblue" stroke="midnightblue" points="249.9,-362 259.9,-358.5 249.9,-355 249.9,-362"/>
</g>
<!-- Node13&#45;&gt;Node5 -->
<g id="edge13" class="edge">
<title>Node13&#45;&gt;Node5</title>
<path fill="none" stroke="midnightblue" d="M459.9,-243.17C436.64,-237.73 411.17,-231.77 388.66,-226.51"/>
<polygon fill="midnightblue" stroke="midnightblue" points="459.19,-246.6 469.72,-245.47 460.78,-239.78 459.19,-246.6"/>
</g>
<!-- Node13&#45;&gt;Node7 -->
<g id="edge14" class="edge">
<title>Node13&#45;&gt;Node7</title>
<path fill="none" stroke="midnightblue" d="M459.9,-277.83C436.64,-283.27 411.17,-289.23 388.66,-294.49"/>
<polygon fill="midnightblue" stroke="midnightblue" points="460.78,-281.22 469.72,-275.53 459.19,-274.4 460.78,-281.22"/>
</g>
<!-- Node13&#45;&gt;Node11 -->
<g id="edge15" class="edge">
<title>Node13&#45;&gt;Node11</title>
<path fill="none" stroke="midnightblue" d="M434.58,-260.5C422.85,-260.5 411.03,-260.5 399.71,-260.5"/>
<polygon fill="midnightblue" stroke="midnightblue" points="434.85,-264 444.85,-260.5 434.85,-257 434.85,-264"/>
</g>
<!-- Node14&#45;&gt;Node6 -->
<g id="edge18" class="edge">
<title>Node14&#45;&gt;Node6</title>
<path fill="none" stroke="midnightblue" d="M460.6,-71.02C455.25,-69.02 449.99,-66.85 445,-64.5 427.38,-56.2 426.61,-47.83 409,-39.5 401.97,-36.17 394.39,-33.22 386.75,-30.62"/>
<polygon fill="midnightblue" stroke="midnightblue" points="459.73,-74.42 470.33,-74.43 462.05,-67.82 459.73,-74.42"/>
</g>
<!-- Node14&#45;&gt;Node8 -->
<g id="edge19" class="edge">
<title>Node14&#45;&gt;Node8</title>
<path fill="none" stroke="midnightblue" d="M456.33,-98.4C440.99,-100.16 424.81,-102.01 409.25,-103.79"/>
<polygon fill="midnightblue" stroke="midnightblue" points="456.73,-101.87 466.27,-97.26 455.94,-94.92 456.73,-101.87"/>
</g>
<!-- Node14&#45;&gt;Node12 -->
<g id="edge20" class="edge">
<title>Node14&#45;&gt;Node12</title>
<path fill="none" stroke="midnightblue" d="M456.33,-80.23C440.99,-78.4 424.81,-76.47 409.25,-74.61"/>
<polygon fill="midnightblue" stroke="midnightblue" points="455.93,-83.71 466.27,-81.42 456.76,-76.76 455.93,-83.71"/>
</g>
<!-- Node16 -->
<g id="node16" class="node">
<title>Node16</title>
<g id="a_node16"><a xlink:href="namespacewmtk_1_1components.html#a3154cdbc6047eee67258b69cc7d5e7cf" target="_top" xlink:title="Perform shortest&#45;edge collapse on a triangular surface mesh.">
<polygon fill="none" stroke="black" points="445,-25.5 445,-55.5 625,-55.5 625,-25.5 445,-25.5"/>
<text text-anchor="start" x="453" y="-43.5" font-family="Helvetica,sans-Serif" font-size="10.00">wmtk::components::shortestedge</text>
<text text-anchor="middle" x="535" y="-32.5" font-family="Helvetica,sans-Serif" font-size="10.00">_collapse</text>
</a>
</g>
</g>
<!-- Node15&#45;&gt;Node16 -->
<g id="edge22" class="edge">
<title>Node15&#45;&gt;Node16</title>
<path fill="none" stroke="midnightblue" d="M650.77,-42.11C642.19,-41.99 633.55,-41.87 625.06,-41.75"/>
<polygon fill="midnightblue" stroke="midnightblue" points="650.75,-45.61 660.79,-42.25 650.84,-38.61 650.75,-45.61"/>
</g>
</g>
</svg>
        <g id="navigator" transform="translate(0 0)" fill="#404254">
                <rect fill="#f2f5e9" fill-opacity="0.5" stroke="#606060" stroke-width=".5" x="0" y="0" width="60" height="60"/>
                <use id="zoomplus" xlink:href="#zoomPlus" x="17" y="9" onmousedown="handleZoom(evt,'in')"/>
                <use id="zoomminus" xlink:href="#zoomMin" x="42" y="9" onmousedown="handleZoom(evt,'out')"/>
                <use id="reset" xlink:href="#resetDef" x="30" y="36" onmousedown="handleReset()"/>
                <g id="arrowUp" xlink:href="#dirArrow" transform="translate(30 24)" onmousedown="handlePan(0,-1)">
                  <use xlink:href="#rim" fill="#404040">
                        <set attributeName="fill" to="#808080" begin="arrowUp.mouseover" end="arrowUp.mouseout"/>
                  </use>
                  <path fill="none" stroke="white" stroke-width="1.5" d="M0,-3.0v7 M-2.5,-0.5L0,-3.0L2.5,-0.5"/>
                </g>
                <g id="arrowRight" xlink:href="#dirArrow" transform="rotate(90) translate(36 -43)" onmousedown="handlePan(1,0)">
                  <use xlink:href="#rim" fill="#404040">
                        <set attributeName="fill" to="#808080" begin="arrowRight.mouseover" end="arrowRight.mouseout"/>
                  </use>
                  <path fill="none" stroke="white" stroke-width="1.5" d="M0,-3.0v7 M-2.5,-0.5L0,-3.0L2.5,-0.5"/>
                </g>
                <g id="arrowDown" xlink:href="#dirArrow" transform="rotate(180) translate(-30 -48)" onmousedown="handlePan(0,1)">
                  <use xlink:href="#rim" fill="#404040">
                        <set attributeName="fill" to="#808080" begin="arrowDown.mouseover" end="arrowDown.mouseout"/>
                  </use>
                  <path fill="none" stroke="white" stroke-width="1.5" d="M0,-3.0v7 M-2.5,-0.5L0,-3.0L2.5,-0.5"/>
                </g>
                <g id="arrowLeft" xlink:href="#dirArrow" transform="rotate(270) translate(-36 17)" onmousedown="handlePan(-1,0)">
                  <use xlink:href="#rim" fill="#404040">
                        <set attributeName="fill" to="#808080" begin="arrowLeft.mouseover" end="arrowLeft.mouseout"/>
                  </use>
                  <path fill="none" stroke="white" stroke-width="1.5" d="M0,-3.0v7 M-2.5,-0.5L0,-3.0L2.5,-0.5"/>
                </g>
        </g>
        <svg viewBox="0 0 15 15" width="100%" height="30px" preserveAspectRatio="xMaxYMin meet">
         <g id="arrow_out" transform="scale(0.3 0.3)">
          <a xlink:href="classwmtk_1_1attribute_1_1_mesh_attribute_handle_ad577111f5b1fd05f60fae4b7f0ddb1f6_icgraph_org.svg" target="_base">
           <rect id="button" ry="5" rx="5" y="6" x="6" height="38" width="38"
                fill="#f2f5e9" fill-opacity="0.5" stroke="#606060" stroke-width="1.0"/>
           <path id="arrow"
             d="M 11.500037,31.436501 C 11.940474,20.09759 22.043105,11.32322 32.158766,21.979434 L 37.068811,17.246167 C 37.068811,17.246167 37.088388,32 37.088388,32 L 22.160133,31.978069 C 22.160133,31.978069 26.997745,27.140456 26.997745,27.140456 C 18.528582,18.264221 13.291696,25.230495 11.500037,31.436501 z"
             style="fill:#404040;"/>
          </a>
         </g>
        </svg>
</svg>
