<?xml version="1.0" encoding="UTF-8" standalone="no"?>
<!DOCTYPE svg PUBLIC "-//W3C//DTD SVG 1.1//EN"
 "http://www.w3.org/Graphics/SVG/1.1/DTD/svg11.dtd">
<!-- Generated by graphviz version 2.43.0 (0)
 -->
<!-- Title: wmtk::Mesh::lub_map_tuples Pages: 1 -->
<!--zoomable 624 -->
<svg id="main" version="1.1" xmlns="http://www.w3.org/2000/svg" xmlns:xlink="http://www.w3.org/1999/xlink" xml:space="preserve" onload="init(evt)">
<style type="text/css"><![CDATA[
.edge:hover path { stroke: red; }
.edge:hover polygon { stroke: red; fill: red; }
]]></style>
<script type="text/javascript"><![CDATA[
var edges = document.getElementsByTagName('g');
if (edges && edges.length) {
  for (var i=0;i<edges.length;i++) {
    if (edges[i].id.substr(0,4)=='edge') {
      edges[i].setAttribute('class','edge');
    }
  }
}
]]></script>
        <defs>
                <circle id="rim" cx="0" cy="0" r="7"/>
                <circle id="rim2" cx="0" cy="0" r="3.5"/>
                <g id="zoomPlus">
                        <use xlink:href="#rim" fill="#404040">
                                <set attributeName="fill" to="#808080" begin="zoomplus.mouseover" end="zoomplus.mouseout"/>
                        </use>
                        <path d="M-4,0h8M0,-4v8" fill="none" stroke="white" stroke-width="1.5" pointer-events="none"/>
                </g>
                <g id="zoomMin">
                        <use xlink:href="#rim" fill="#404040">
                                <set attributeName="fill" to="#808080" begin="zoomminus.mouseover" end="zoomminus.mouseout"/>
                        </use>
                        <path d="M-4,0h8" fill="none" stroke="white" stroke-width="1.5" pointer-events="none"/>
                </g>
                <g id="dirArrow">
                        <path fill="none" stroke="white" stroke-width="1.5" d="M0,-3.0v7 M-2.5,-0.5L0,-3.0L2.5,-0.5"/>
                </g>
               <g id="resetDef">
                       <use xlink:href="#rim2" fill="#404040">
                               <set attributeName="fill" to="#808080" begin="reset.mouseover" end="reset.mouseout"/>
                       </use>
               </g>
        </defs>

<script type="text/javascript">
var viewWidth = 2166;
var viewHeight = 624;
var sectionId = 'dynsection-89';
</script>
<script xlink:href="svgpan.js"/>
<svg id="graph" class="graph">
<g id="viewport">
<title>wmtk::Mesh::lub_map_tuples</title>
<!-- Node1 -->
<g id="node1" class="node">
<title>Node1</title>
<g id="a_node1"><a xlink:title=" ">
<polygon fill="#bfbfbf" stroke="black" points="0,-239.5 0,-269.5 125,-269.5 125,-239.5 0,-239.5"/>
<text text-anchor="start" x="8" y="-257.5" font-family="Helvetica,sans-Serif" font-size="10.00">wmtk::Mesh::lub_map</text>
<text text-anchor="middle" x="62.5" y="-246.5" font-family="Helvetica,sans-Serif" font-size="10.00">_tuples</text>
</a>
</g>
</g>
<!-- Node2 -->
<g id="node2" class="node">
<title>Node2</title>
<g id="a_node2"><a xlink:href="classwmtk_1_1_mesh.html#afca213673a7f569665d73353eae95ccc" target="_top" xlink:title="maps a simplex from this mesh to any other mesh using LUB mesh as root">
<polygon fill="none" stroke="black" points="161,-239.5 161,-269.5 286,-269.5 286,-239.5 161,-239.5"/>
<text text-anchor="start" x="169" y="-257.5" font-family="Helvetica,sans-Serif" font-size="10.00">wmtk::Mesh::lub_map</text>
<text text-anchor="middle" x="223.5" y="-246.5" font-family="Helvetica,sans-Serif" font-size="10.00">_tuples</text>
</a>
</g>
</g>
<!-- Node1&#45;&gt;Node2 -->
<g id="edge1" class="edge">
<title>Node1&#45;&gt;Node2</title>
<path fill="none" stroke="midnightblue" d="M125.43,-254.5C133.67,-254.5 142.18,-254.5 150.58,-254.5"/>
<polygon fill="midnightblue" stroke="midnightblue" points="150.74,-258 160.74,-254.5 150.74,-251 150.74,-258"/>
</g>
<!-- Node3 -->
<g id="node3" class="node">
<title>Node3</title>
<g id="a_node3"><a xlink:href="classwmtk_1_1_mesh.html#ad054c074d4776010002321117ec459e8" target="_top" xlink:title=" ">
<polygon fill="none" stroke="black" points="322,-320.5 322,-350.5 483,-350.5 483,-320.5 322,-320.5"/>
<text text-anchor="start" x="330" y="-338.5" font-family="Helvetica,sans-Serif" font-size="10.00">wmtk::Mesh::is_from</text>
<text text-anchor="middle" x="402.5" y="-327.5" font-family="Helvetica,sans-Serif" font-size="10.00">_same_multi_mesh_structure</text>
</a>
</g>
</g>
<!-- Node2&#45;&gt;Node3 -->
<g id="edge2" class="edge">
<title>Node2&#45;&gt;Node3</title>
<path fill="none" stroke="midnightblue" d="M257.38,-269.55C286.1,-282.69 327.96,-301.85 359.18,-316.13"/>
<polygon fill="midnightblue" stroke="midnightblue" points="357.95,-319.42 368.5,-320.4 360.86,-313.05 357.95,-319.42"/>
</g>
<!-- Node7 -->
<g id="node7" class="node">
<title>Node7</title>
<g id="a_node7"><a xlink:href="classwmtk_1_1_multi_mesh_manager.html#ad87afee8ce9db2e0b0e40027f63f989c" target="_top" xlink:title="maps a simplex from this mesh to any other mesh using the LUB as the root">
<polygon fill="none" stroke="black" points="330.5,-215.5 330.5,-245.5 474.5,-245.5 474.5,-215.5 330.5,-215.5"/>
<text text-anchor="start" x="338.5" y="-233.5" font-family="Helvetica,sans-Serif" font-size="10.00">wmtk::MultiMeshManager</text>
<text text-anchor="middle" x="402.5" y="-222.5" font-family="Helvetica,sans-Serif" font-size="10.00">::lub_map_tuples</text>
</a>
</g>
</g>
<!-- Node2&#45;&gt;Node7 -->
<g id="edge7" class="edge">
<title>Node2&#45;&gt;Node7</title>
<path fill="none" stroke="midnightblue" d="M286.41,-246.11C297.35,-244.62 308.9,-243.06 320.29,-241.51"/>
<polygon fill="midnightblue" stroke="midnightblue" points="320.79,-244.98 330.23,-240.16 319.85,-238.04 320.79,-244.98"/>
</g>
<!-- Node4 -->
<g id="node4" class="node">
<title>Node4</title>
<g id="a_node4"><a xlink:href="classwmtk_1_1_mesh.html#aac3ec1ebbe00982ddfe70cc710d8f54e" target="_top" xlink:title="returns a reference to the root of a multimesh tree">
<polygon fill="none" stroke="black" points="526.5,-386.5 526.5,-416.5 655.5,-416.5 655.5,-386.5 526.5,-386.5"/>
<text text-anchor="start" x="534.5" y="-404.5" font-family="Helvetica,sans-Serif" font-size="10.00">wmtk::Mesh::get_multi</text>
<text text-anchor="middle" x="591" y="-393.5" font-family="Helvetica,sans-Serif" font-size="10.00">_mesh_root</text>
</a>
</g>
</g>
<!-- Node3&#45;&gt;Node4 -->
<g id="edge3" class="edge">
<title>Node3&#45;&gt;Node4</title>
<path fill="none" stroke="midnightblue" d="M446.29,-350.64C473.53,-360.28 509.01,-372.84 537.89,-383.06"/>
<polygon fill="midnightblue" stroke="midnightblue" points="536.82,-386.39 547.41,-386.43 539.15,-379.79 536.82,-386.39"/>
</g>
<!-- Node5 -->
<g id="node5" class="node">
<title>Node5</title>
<g id="a_node5"><a xlink:href="classwmtk_1_1_multi_mesh_manager.html#a10b58d0d287321a1b422f9b945421eda" target="_top" xlink:title=" ">
<polygon fill="none" stroke="black" points="705,-395.5 705,-425.5 849,-425.5 849,-395.5 705,-395.5"/>
<text text-anchor="start" x="713" y="-413.5" font-family="Helvetica,sans-Serif" font-size="10.00">wmtk::MultiMeshManager</text>
<text text-anchor="middle" x="777" y="-402.5" font-family="Helvetica,sans-Serif" font-size="10.00">::get_root_mesh</text>
</a>
</g>
</g>
<!-- Node4&#45;&gt;Node5 -->
<g id="edge4" class="edge">
<title>Node4&#45;&gt;Node5</title>
<path fill="none" stroke="midnightblue" d="M655.58,-404.61C668.12,-405.22 681.44,-405.87 694.48,-406.51"/>
<polygon fill="midnightblue" stroke="midnightblue" points="694.7,-410.03 704.85,-407.02 695.04,-403.04 694.7,-410.03"/>
</g>
<!-- Node5&#45;&gt;Node5 -->
<g id="edge5" class="edge">
<title>Node5&#45;&gt;Node5</title>
<path fill="none" stroke="midnightblue" d="M744.59,-425.66C736.77,-435.06 747.57,-444 777,-444 794.93,-444 805.95,-440.68 810.05,-435.96"/>
<polygon fill="midnightblue" stroke="midnightblue" points="813.52,-435.42 809.41,-425.66 806.54,-435.86 813.52,-435.42"/>
</g>
<!-- Node6 -->
<g id="node6" class="node">
<title>Node6</title>
<g id="a_node6"><a xlink:href="classwmtk_1_1_multi_mesh_manager.html#a5a5a2de96e603563ab7054e8666395b7" target="_top" xlink:title="Specifies whether this structure is the root of a multi&#45;mesh tree.">
<polygon fill="none" stroke="black" points="901.5,-379.5 901.5,-409.5 1045.5,-409.5 1045.5,-379.5 901.5,-379.5"/>
<text text-anchor="start" x="909.5" y="-397.5" font-family="Helvetica,sans-Serif" font-size="10.00">wmtk::MultiMeshManager</text>
<text text-anchor="middle" x="973.5" y="-386.5" font-family="Helvetica,sans-Serif" font-size="10.00">::is_root</text>
</a>
</g>
</g>
<!-- Node5&#45;&gt;Node6 -->
<g id="edge6" class="edge">
<title>Node5&#45;&gt;Node6</title>
<path fill="none" stroke="midnightblue" d="M849.04,-404.66C862.75,-403.53 877.22,-402.34 891.22,-401.19"/>
<polygon fill="midnightblue" stroke="midnightblue" points="891.64,-404.66 901.32,-400.36 891.07,-397.69 891.64,-404.66"/>
</g>
<!-- Node8 -->
<g id="node8" class="node">
<title>Node8</title>
<g id="a_node8"><a xlink:href="classwmtk_1_1_multi_mesh_manager.html#a4858de0134bb52c525db4a99d341fa86" target="_top" xlink:title=" ">
<polygon fill="none" stroke="black" points="705,-328.5 705,-358.5 849,-358.5 849,-328.5 705,-328.5"/>
<text text-anchor="start" x="713" y="-346.5" font-family="Helvetica,sans-Serif" font-size="10.00">wmtk::MultiMeshManager</text>
<text text-anchor="middle" x="777" y="-335.5" font-family="Helvetica,sans-Serif" font-size="10.00">::absolute_id</text>
</a>
</g>
</g>
<!-- Node7&#45;&gt;Node8 -->
<g id="edge8" class="edge">
<title>Node7&#45;&gt;Node8</title>
<path fill="none" stroke="midnightblue" d="M415.74,-245.87C434.94,-268.68 474.57,-310.7 519,-328.5 574.72,-350.82 642.71,-353.85 694.75,-351.68"/>
<polygon fill="midnightblue" stroke="midnightblue" points="695.13,-355.17 704.94,-351.19 694.78,-348.18 695.13,-355.17"/>
</g>
<!-- Node9 -->
<g id="node9" class="node">
<title>Node9</title>
<g id="a_node9"><a xlink:href="classwmtk_1_1_mesh.html#a2102fdea06a0c543437e67d77aeb2013" target="_top" xlink:title="returns a unique identifier for this mesh within a single multimesh structure">
<polygon fill="none" stroke="black" points="528.5,-240.5 528.5,-270.5 653.5,-270.5 653.5,-240.5 528.5,-240.5"/>
<text text-anchor="start" x="536.5" y="-258.5" font-family="Helvetica,sans-Serif" font-size="10.00">wmtk::Mesh::absolute</text>
<text text-anchor="middle" x="591" y="-247.5" font-family="Helvetica,sans-Serif" font-size="10.00">_multi_mesh_id</text>
</a>
</g>
</g>
<!-- Node7&#45;&gt;Node9 -->
<g id="edge11" class="edge">
<title>Node7&#45;&gt;Node9</title>
<path fill="none" stroke="midnightblue" d="M474.54,-240.02C488.79,-241.93 503.77,-243.94 518.05,-245.85"/>
<polygon fill="midnightblue" stroke="midnightblue" points="517.92,-249.37 528.3,-247.23 518.85,-242.43 517.92,-249.37"/>
</g>
<!-- Node10 -->
<g id="node10" class="node">
<title>Node10</title>
<g id="a_node10"><a xlink:href="classwmtk_1_1_multi_mesh_manager.html#aef1c4680ffe658c17fe4d47363e7095c" target="_top" xlink:title=" ">
<polygon fill="none" stroke="black" points="705,-19.5 705,-49.5 849,-49.5 849,-19.5 705,-19.5"/>
<text text-anchor="start" x="713" y="-37.5" font-family="Helvetica,sans-Serif" font-size="10.00">wmtk::MultiMeshManager</text>
<text text-anchor="middle" x="777" y="-26.5" font-family="Helvetica,sans-Serif" font-size="10.00">::is_child</text>
</a>
</g>
</g>
<!-- Node7&#45;&gt;Node10 -->
<g id="edge13" class="edge">
<title>Node7&#45;&gt;Node10</title>
<path fill="none" stroke="midnightblue" d="M410.84,-215.04C426.22,-184.47 464.93,-116.4 519,-83.5 548.01,-65.85 630.78,-52.1 694.63,-43.72"/>
<polygon fill="midnightblue" stroke="midnightblue" points="695.24,-47.17 704.71,-42.42 694.34,-40.23 695.24,-47.17"/>
</g>
<!-- Node11 -->
<g id="node11" class="node">
<title>Node11</title>
<g id="a_node11"><a xlink:href="classwmtk_1_1_multi_mesh_manager.html#ad09274bd59f7baeddc6f1a7def0d6ff5" target="_top" xlink:title=" ">
<polygon fill="none" stroke="black" points="519,-289.5 519,-319.5 663,-319.5 663,-289.5 519,-289.5"/>
<text text-anchor="start" x="527" y="-307.5" font-family="Helvetica,sans-Serif" font-size="10.00">wmtk::MultiMeshManager</text>
<text text-anchor="middle" x="591" y="-296.5" font-family="Helvetica,sans-Serif" font-size="10.00">::least_upper_bound_id</text>
</a>
</g>
</g>
<!-- Node7&#45;&gt;Node11 -->
<g id="edge14" class="edge">
<title>Node7&#45;&gt;Node11</title>
<path fill="none" stroke="midnightblue" d="M437.38,-245.54C460.28,-255.53 491.28,-268.75 519,-279.5 524.54,-281.65 530.36,-283.82 536.17,-285.95"/>
<polygon fill="midnightblue" stroke="midnightblue" points="535.31,-289.36 545.91,-289.46 537.69,-282.77 535.31,-289.36"/>
</g>
<!-- Node12 -->
<g id="node12" class="node">
<title>Node12</title>
<g id="a_node12"><a xlink:href="classwmtk_1_1_multi_mesh_manager.html#a3b5aceb8f1b3a1d0328489811ac489d7" target="_top" xlink:title=" ">
<polygon fill="none" stroke="black" points="519,-191.5 519,-221.5 663,-221.5 663,-191.5 519,-191.5"/>
<text text-anchor="start" x="527" y="-209.5" font-family="Helvetica,sans-Serif" font-size="10.00">wmtk::MultiMeshManager</text>
<text text-anchor="middle" x="591" y="-198.5" font-family="Helvetica,sans-Serif" font-size="10.00">::map_up_to_tuples</text>
</a>
</g>
</g>
<!-- Node7&#45;&gt;Node12 -->
<g id="edge15" class="edge">
<title>Node7&#45;&gt;Node12</title>
<path fill="none" stroke="midnightblue" d="M474.54,-221.36C485.77,-219.91 497.45,-218.41 508.88,-216.94"/>
<polygon fill="midnightblue" stroke="midnightblue" points="509.38,-220.4 518.85,-215.66 508.48,-213.46 509.38,-220.4"/>
</g>
<!-- Node32 -->
<g id="node32" class="node">
<title>Node32</title>
<g id="a_node32"><a xlink:href="classwmtk_1_1simplex_1_1_simplex.html#ad2cc0340a0772b7d6f03ba7a781d1163" target="_top" xlink:title=" ">
<polygon fill="none" stroke="black" points="1309.5,-111.5 1309.5,-141.5 1444.5,-141.5 1444.5,-111.5 1309.5,-111.5"/>
<text text-anchor="start" x="1317.5" y="-129.5" font-family="Helvetica,sans-Serif" font-size="10.00">wmtk::simplex::Simplex</text>
<text text-anchor="middle" x="1377" y="-118.5" font-family="Helvetica,sans-Serif" font-size="10.00">::primitive_type</text>
</a>
</g>
</g>
<!-- Node7&#45;&gt;Node32 -->
<g id="edge52" class="edge">
<title>Node7&#45;&gt;Node32</title>
<path fill="none" stroke="midnightblue" d="M427.71,-215.24C485.56,-180.31 637.29,-97.5 776,-97.5 776,-97.5 776,-97.5 974.5,-97.5 1087.76,-97.5 1218.53,-109.12 1299.25,-117.65"/>
<polygon fill="midnightblue" stroke="midnightblue" points="1299.01,-121.15 1309.33,-118.73 1299.76,-114.19 1299.01,-121.15"/>
</g>
<!-- Node40 -->
<g id="node40" class="node">
<title>Node40</title>
<g id="a_node40"><a xlink:href="classwmtk_1_1_multi_mesh_manager.html#ac621e86e6ba30d6e9bcb925352d0c4e6" target="_top" xlink:title=" ">
<polygon fill="none" stroke="black" points="519,-0.5 519,-30.5 663,-30.5 663,-0.5 519,-0.5"/>
<text text-anchor="start" x="527" y="-18.5" font-family="Helvetica,sans-Serif" font-size="10.00">wmtk::MultiMeshManager</text>
<text text-anchor="middle" x="591" y="-7.5" font-family="Helvetica,sans-Serif" font-size="10.00">::relative_id</text>
</a>
</g>
</g>
<!-- Node7&#45;&gt;Node40 -->
<g id="edge53" class="edge">
<title>Node7&#45;&gt;Node40</title>
<path fill="none" stroke="midnightblue" d="M409.18,-215.39C422.92,-180.77 461.1,-94.89 519,-45.5 523.5,-41.66 528.56,-38.25 533.86,-35.24"/>
<polygon fill="midnightblue" stroke="midnightblue" points="535.67,-38.25 542.94,-30.54 532.45,-32.03 535.67,-38.25"/>
</g>
<!-- Node8&#45;&gt;Node6 -->
<g id="edge10" class="edge">
<title>Node8&#45;&gt;Node6</title>
<path fill="none" stroke="midnightblue" d="M835.3,-358.53C857.27,-364.28 882.52,-370.91 905.32,-376.89"/>
<polygon fill="midnightblue" stroke="midnightblue" points="904.71,-380.34 915.27,-379.49 906.48,-373.57 904.71,-380.34"/>
</g>
<!-- Node8&#45;&gt;Node8 -->
<g id="edge9" class="edge">
<title>Node8&#45;&gt;Node8</title>
<path fill="none" stroke="midnightblue" d="M744.59,-358.66C736.77,-368.06 747.57,-377 777,-377 794.93,-377 805.95,-373.68 810.05,-368.96"/>
<polygon fill="midnightblue" stroke="midnightblue" points="813.52,-368.42 809.41,-358.66 806.54,-368.86 813.52,-368.42"/>
</g>
<!-- Node9&#45;&gt;Node8 -->
<g id="edge12" class="edge">
<title>Node9&#45;&gt;Node8</title>
<path fill="none" stroke="midnightblue" d="M645.1,-270.6C651.32,-273.19 657.42,-276.15 663,-279.5 681.86,-290.84 680.4,-301.73 699,-313.5 705.25,-317.46 712.11,-321.03 719.07,-324.23"/>
<polygon fill="midnightblue" stroke="midnightblue" points="718.02,-327.59 728.59,-328.34 720.8,-321.16 718.02,-327.59"/>
</g>
<!-- Node12&#45;&gt;Node6 -->
<g id="edge16" class="edge">
<title>Node12&#45;&gt;Node6</title>
<path fill="none" stroke="midnightblue" d="M647.92,-221.66C653.25,-224.19 658.38,-227.12 663,-230.5 684.81,-246.45 676.56,-264.44 699,-279.5 758.34,-319.33 796.04,-278.11 855,-318.5 877.89,-334.18 868.53,-353.22 891,-369.5 893.64,-371.41 896.42,-373.18 899.31,-374.81"/>
<polygon fill="midnightblue" stroke="midnightblue" points="897.74,-377.94 908.25,-379.32 900.9,-371.69 897.74,-377.94"/>
</g>
<!-- Node13 -->
<g id="node13" class="node">
<title>Node13</title>
<g id="a_node13"><a xlink:href="classwmtk_1_1_multi_mesh_manager.html#a53c699292af8c1357213e8057ad83c69" target="_top" xlink:title=" ">
<polygon fill="none" stroke="black" points="699,-240.5 699,-270.5 855,-270.5 855,-240.5 699,-240.5"/>
<text text-anchor="start" x="707" y="-258.5" font-family="Helvetica,sans-Serif" font-size="10.00">wmtk::MultiMeshManager</text>
<text text-anchor="middle" x="777" y="-247.5" font-family="Helvetica,sans-Serif" font-size="10.00">::map_tuple_to_parent_tuple</text>
</a>
</g>
</g>
<!-- Node12&#45;&gt;Node13 -->
<g id="edge17" class="edge">
<title>Node12&#45;&gt;Node13</title>
<path fill="none" stroke="midnightblue" d="M648.46,-221.53C667.88,-226.71 689.81,-232.55 709.93,-237.91"/>
<polygon fill="midnightblue" stroke="midnightblue" points="709.09,-241.3 719.65,-240.49 710.89,-234.54 709.09,-241.3"/>
</g>
<!-- Node12&#45;&gt;Node32 -->
<g id="edge50" class="edge">
<title>Node12&#45;&gt;Node32</title>
<path fill="none" stroke="midnightblue" d="M663.05,-193.53C723.48,-182.93 812.67,-168.3 891,-159.5 1034.63,-143.36 1203.15,-134.04 1298.97,-129.65"/>
<polygon fill="midnightblue" stroke="midnightblue" points="1299.32,-133.14 1309.15,-129.19 1299,-126.14 1299.32,-133.14"/>
</g>
<!-- Node34 -->
<g id="node34" class="node">
<title>Node34</title>
<g id="a_node34"><a xlink:href="classwmtk_1_1simplex_1_1_simplex.html#a3650fd31ff1864285502dba66db3c73c" target="_top" xlink:title=" ">
<polygon fill="none" stroke="black" points="1309.5,-199.5 1309.5,-229.5 1444.5,-229.5 1444.5,-199.5 1309.5,-199.5"/>
<text text-anchor="start" x="1317.5" y="-217.5" font-family="Helvetica,sans-Serif" font-size="10.00">wmtk::simplex::Simplex</text>
<text text-anchor="middle" x="1377" y="-206.5" font-family="Helvetica,sans-Serif" font-size="10.00">::tuple</text>
</a>
</g>
</g>
<!-- Node12&#45;&gt;Node34 -->
<g id="edge51" class="edge">
<title>Node12&#45;&gt;Node34</title>
<path fill="none" stroke="midnightblue" d="M663.3,-207.23C810.62,-208.73 1147.47,-212.17 1299.29,-213.72"/>
<polygon fill="midnightblue" stroke="midnightblue" points="1299.43,-217.22 1309.46,-213.82 1299.5,-210.22 1299.43,-217.22"/>
</g>
<!-- Node13&#45;&gt;Node6 -->
<g id="edge22" class="edge">
<title>Node13&#45;&gt;Node6</title>
<path fill="none" stroke="midnightblue" d="M833.02,-270.61C841.04,-274.53 848.71,-279.42 855,-285.5 884.2,-313.74 860.78,-342.36 891,-369.5 892.74,-371.07 894.59,-372.54 896.5,-373.91"/>
<polygon fill="midnightblue" stroke="midnightblue" points="895.01,-377.1 905.35,-379.38 898.69,-371.15 895.01,-377.1"/>
</g>
<!-- Node14 -->
<g id="node14" class="node">
<title>Node14</title>
<g id="a_node14"><a xlink:href="classwmtk_1_1_mesh.html#a8a5ee2526671002bd91f2b7182b92af6" target="_top" xlink:title=" ">
<polygon fill="none" stroke="black" points="1842,-177.5 1842,-207.5 1955,-207.5 1955,-177.5 1842,-177.5"/>
<text text-anchor="start" x="1850" y="-195.5" font-family="Helvetica,sans-Serif" font-size="10.00">wmtk::Mesh::create</text>
<text text-anchor="middle" x="1898.5" y="-184.5" font-family="Helvetica,sans-Serif" font-size="10.00">_accessor</text>
</a>
</g>
</g>
<!-- Node13&#45;&gt;Node14 -->
<g id="edge18" class="edge">
<title>Node13&#45;&gt;Node14</title>
<path fill="none" stroke="midnightblue" d="M855.24,-242.6C956.54,-226.39 1139.97,-199.49 1298,-189.5 1368.08,-185.07 1385.78,-189.26 1456,-189.5 1589.32,-189.95 1745.28,-191.18 1831.57,-191.91"/>
<polygon fill="midnightblue" stroke="midnightblue" points="1831.72,-195.41 1841.74,-192 1831.78,-188.41 1831.72,-195.41"/>
</g>
<!-- Node18 -->
<g id="node18" class="node">
<title>Node18</title>
<g id="a_node18"><a xlink:href="classwmtk_1_1_multi_mesh_manager.html#a65f099e4a57a0f5e5dd4304ee2eb7cb1" target="_top" xlink:title=" ">
<polygon fill="none" stroke="black" points="891,-330.5 891,-360.5 1056,-360.5 1056,-330.5 891,-330.5"/>
<text text-anchor="start" x="899" y="-348.5" font-family="Helvetica,sans-Serif" font-size="10.00">wmtk::MultiMeshManager</text>
<text text-anchor="middle" x="973.5" y="-337.5" font-family="Helvetica,sans-Serif" font-size="10.00">::map_tuple_between_meshes</text>
</a>
</g>
</g>
<!-- Node13&#45;&gt;Node18 -->
<g id="edge23" class="edge">
<title>Node13&#45;&gt;Node18</title>
<path fill="none" stroke="midnightblue" d="M819.08,-270.62C830.78,-275.17 843.48,-280.33 855,-285.5 882.55,-297.86 912.89,-313.41 935.83,-325.57"/>
<polygon fill="midnightblue" stroke="midnightblue" points="934.4,-328.78 944.87,-330.39 937.69,-322.6 934.4,-328.78"/>
</g>
<!-- Node15 -->
<g id="node15" class="node">
<title>Node15</title>
<g id="a_node15"><a xlink:href="classwmtk_1_1attribute_1_1_mesh_attribute_handle.html#ac326961f01b9ba4fec395827f15a7ef2" target="_top" xlink:title=" ">
<polygon fill="none" stroke="black" points="1991,-251.5 1991,-281.5 2158,-281.5 2158,-251.5 1991,-251.5"/>
<text text-anchor="start" x="1999" y="-269.5" font-family="Helvetica,sans-Serif" font-size="10.00">wmtk::attribute::MeshAttribute</text>
<text text-anchor="middle" x="2074.5" y="-258.5" font-family="Helvetica,sans-Serif" font-size="10.00">Handle::as</text>
</a>
</g>
</g>
<!-- Node14&#45;&gt;Node15 -->
<g id="edge19" class="edge">
<title>Node14&#45;&gt;Node15</title>
<path fill="none" stroke="midnightblue" d="M1937.01,-207.51C1943.12,-210.3 1949.31,-213.34 1955,-216.5 1972.02,-225.97 1973.46,-233.02 1991,-241.5 1995.68,-243.76 2000.61,-245.87 2005.63,-247.83"/>
<polygon fill="midnightblue" stroke="midnightblue" points="2004.78,-251.24 2015.37,-251.4 2007.19,-244.67 2004.78,-251.24"/>
</g>
<!-- Node16 -->
<g id="node16" class="node">
<title>Node16</title>
<g id="a_node16"><a xlink:href="classwmtk_1_1attribute_1_1_mesh_attribute_handle.html#a2b86caeb22b007b85b138ebc6b0ed837" target="_top" xlink:title=" ">
<polygon fill="none" stroke="black" points="1991,-202.5 1991,-232.5 2158,-232.5 2158,-202.5 1991,-202.5"/>
<text text-anchor="start" x="1999" y="-220.5" font-family="Helvetica,sans-Serif" font-size="10.00">wmtk::attribute::MeshAttribute</text>
<text text-anchor="middle" x="2074.5" y="-209.5" font-family="Helvetica,sans-Serif" font-size="10.00">Handle::holds</text>
</a>
</g>
</g>
<!-- Node14&#45;&gt;Node16 -->
<g id="edge20" class="edge">
<title>Node14&#45;&gt;Node16</title>
<path fill="none" stroke="midnightblue" d="M1955.03,-200.48C1963.34,-201.67 1972.1,-202.93 1980.93,-204.2"/>
<polygon fill="midnightblue" stroke="midnightblue" points="1980.51,-207.68 1990.91,-205.63 1981.51,-200.75 1980.51,-207.68"/>
</g>
<!-- Node17 -->
<g id="node17" class="node">
<title>Node17</title>
<g id="a_node17"><a xlink:href="classwmtk_1_1attribute_1_1_mesh_attribute_handle.html#a620620d54776b2c5f4f9cebad465cfa7" target="_top" xlink:title=" ">
<polygon fill="none" stroke="black" points="1991,-153.5 1991,-183.5 2158,-183.5 2158,-153.5 1991,-153.5"/>
<text text-anchor="start" x="1999" y="-171.5" font-family="Helvetica,sans-Serif" font-size="10.00">wmtk::attribute::MeshAttribute</text>
<text text-anchor="middle" x="2074.5" y="-160.5" font-family="Helvetica,sans-Serif" font-size="10.00">Handle::mesh</text>
</a>
</g>
</g>
<!-- Node14&#45;&gt;Node17 -->
<g id="edge21" class="edge">
<title>Node14&#45;&gt;Node17</title>
<path fill="none" stroke="midnightblue" d="M1955.03,-184.84C1963.34,-183.69 1972.1,-182.49 1980.93,-181.27"/>
<polygon fill="midnightblue" stroke="midnightblue" points="1981.48,-184.73 1990.91,-179.89 1980.52,-177.79 1981.48,-184.73"/>
</g>
<!-- Node19 -->
<g id="node19" class="node">
<title>Node19</title>
<g id="a_node19"><a xlink:href="classwmtk_1_1_mesh.html#abbb1c54cfd6ec17f4730317ee5fab78d" target="_top" xlink:title=" ">
<polygon fill="none" stroke="black" points="1492,-254 1492,-273 1640,-273 1640,-254 1492,-254"/>
<text text-anchor="middle" x="1566" y="-261" font-family="Helvetica,sans-Serif" font-size="10.00">wmtk::Mesh::is_valid_slow</text>
</a>
</g>
</g>
<!-- Node18&#45;&gt;Node19 -->
<g id="edge24" class="edge">
<title>Node18&#45;&gt;Node19</title>
<path fill="none" stroke="midnightblue" d="M1056.05,-354C1153.36,-361.49 1319.99,-365.87 1456,-326.5 1489.62,-316.77 1523.83,-294.56 1544.73,-279.3"/>
<polygon fill="midnightblue" stroke="midnightblue" points="1546.93,-282.03 1552.84,-273.23 1542.73,-276.42 1546.93,-282.03"/>
</g>
<!-- Node23 -->
<g id="node23" class="node">
<title>Node23</title>
<g id="a_node23"><a xlink:href="namespacewmtk_1_1multimesh_1_1utils.html#a8f0a6c05e27c92d2d4ac453971f52749" target="_top" xlink:title=" ">
<polygon fill="none" stroke="black" points="1102.5,-547.5 1102.5,-577.5 1251.5,-577.5 1251.5,-547.5 1102.5,-547.5"/>
<text text-anchor="start" x="1110.5" y="-565.5" font-family="Helvetica,sans-Serif" font-size="10.00">wmtk::multimesh::utils</text>
<text text-anchor="middle" x="1177" y="-554.5" font-family="Helvetica,sans-Serif" font-size="10.00">::read_tuple_map_attribute</text>
</a>
</g>
</g>
<!-- Node18&#45;&gt;Node23 -->
<g id="edge31" class="edge">
<title>Node18&#45;&gt;Node23</title>
<path fill="none" stroke="midnightblue" d="M1045.06,-360.58C1049.06,-363.11 1052.76,-366.06 1056,-369.5 1104.79,-421.29 1046.63,-470.68 1092,-525.5 1097.68,-532.37 1104.9,-538 1112.7,-542.61"/>
<polygon fill="midnightblue" stroke="midnightblue" points="1111.23,-545.8 1121.7,-547.39 1114.51,-539.61 1111.23,-545.8"/>
</g>
<!-- Node28 -->
<g id="node28" class="node">
<title>Node28</title>
<g id="a_node28"><a xlink:href="classwmtk_1_1_mesh.html#a6ca480b3f16ac2aadc9887c42748e239" target="_top" xlink:title=" ">
<polygon fill="none" stroke="black" points="1107,-497 1107,-516 1247,-516 1247,-497 1107,-497"/>
<text text-anchor="middle" x="1177" y="-504" font-family="Helvetica,sans-Serif" font-size="10.00">wmtk::Mesh::switch_face</text>
</a>
</g>
</g>
<!-- Node18&#45;&gt;Node28 -->
<g id="edge36" class="edge">
<title>Node18&#45;&gt;Node28</title>
<path fill="none" stroke="midnightblue" d="M1043.76,-360.67C1048.17,-363.18 1052.32,-366.1 1056,-369.5 1088.86,-399.85 1062.11,-430.21 1092,-463.5 1103.69,-476.52 1120.26,-486.16 1135.59,-492.98"/>
<polygon fill="midnightblue" stroke="midnightblue" points="1134.34,-496.25 1144.92,-496.86 1137.03,-489.79 1134.34,-496.25"/>
</g>
<!-- Node30 -->
<g id="node30" class="node">
<title>Node30</title>
<g id="a_node30"><a xlink:href="namespacewmtk_1_1simplex.html#a479fe685989f6c075a5ce1c52b5c4df3" target="_top" xlink:title=" ">
<polygon fill="none" stroke="black" points="1101.5,-248.5 1101.5,-278.5 1252.5,-278.5 1252.5,-248.5 1101.5,-248.5"/>
<text text-anchor="start" x="1109.5" y="-266.5" font-family="Helvetica,sans-Serif" font-size="10.00">wmtk::simplex::top</text>
<text text-anchor="middle" x="1177" y="-255.5" font-family="Helvetica,sans-Serif" font-size="10.00">_dimension_cofaces_tuples</text>
</a>
</g>
</g>
<!-- Node18&#45;&gt;Node30 -->
<g id="edge38" class="edge">
<title>Node18&#45;&gt;Node30</title>
<path fill="none" stroke="midnightblue" d="M1011.46,-330.46C1044.73,-316.92 1093.77,-296.97 1129.65,-282.36"/>
<polygon fill="midnightblue" stroke="midnightblue" points="1130.99,-285.59 1138.94,-278.58 1128.35,-279.11 1130.99,-285.59"/>
</g>
<!-- Node35 -->
<g id="node35" class="node">
<title>Node35</title>
<g id="a_node35"><a xlink:href="classwmtk_1_1_mesh.html#abaf00438d0700358b160e310d69725c9" target="_top" xlink:title=" ">
<polygon fill="none" stroke="black" points="1092,-377 1092,-396 1262,-396 1262,-377 1092,-377"/>
<text text-anchor="middle" x="1177" y="-384" font-family="Helvetica,sans-Serif" font-size="10.00">wmtk::Mesh::top_simplex_type</text>
</a>
</g>
</g>
<!-- Node18&#45;&gt;Node35 -->
<g id="edge45" class="edge">
<title>Node18&#45;&gt;Node35</title>
<path fill="none" stroke="midnightblue" d="M1048.39,-360.53C1071.76,-365.29 1097.22,-370.47 1119.21,-374.94"/>
<polygon fill="midnightblue" stroke="midnightblue" points="1118.55,-378.38 1129.04,-376.95 1119.94,-371.52 1118.55,-378.38"/>
</g>
<!-- Node37 -->
<g id="node37" class="node">
<title>Node37</title>
<g id="a_node37"><a xlink:href="namespacewmtk_1_1multimesh_1_1utils.html#aa0392bf28bb6c304127cf0eea634fee8" target="_top" xlink:title=" ">
<polygon fill="none" stroke="black" points="1112,-423.5 1112,-453.5 1242,-453.5 1242,-423.5 1112,-423.5"/>
<text text-anchor="start" x="1120" y="-441.5" font-family="Helvetica,sans-Serif" font-size="10.00">wmtk::multimesh::utils</text>
<text text-anchor="middle" x="1177" y="-430.5" font-family="Helvetica,sans-Serif" font-size="10.00">::transport_tuple</text>
</a>
</g>
</g>
<!-- Node18&#45;&gt;Node37 -->
<g id="edge47" class="edge">
<title>Node18&#45;&gt;Node37</title>
<path fill="none" stroke="midnightblue" d="M1037.7,-360.63C1044.07,-363.17 1050.29,-366.11 1056,-369.5 1075.46,-381.05 1073.07,-393.1 1092,-405.5 1100.07,-410.79 1109.13,-415.44 1118.22,-419.46"/>
<polygon fill="midnightblue" stroke="midnightblue" points="1117.09,-422.78 1127.67,-423.42 1119.8,-416.33 1117.09,-422.78"/>
</g>
<!-- Node20 -->
<g id="node20" class="node">
<title>Node20</title>
<g id="a_node20"><a xlink:href="classwmtk_1_1_mesh.html#a92666fa5c4c8b680e9b4a9b3755689f0" target="_top" xlink:title=" ">
<polygon fill="none" stroke="black" points="1676,-248.5 1676,-278.5 1806,-278.5 1806,-248.5 1676,-248.5"/>
<text text-anchor="start" x="1684" y="-266.5" font-family="Helvetica,sans-Serif" font-size="10.00">wmtk::Mesh::get_const</text>
<text text-anchor="middle" x="1741" y="-255.5" font-family="Helvetica,sans-Serif" font-size="10.00">_cell_hash_accessor</text>
</a>
</g>
</g>
<!-- Node19&#45;&gt;Node20 -->
<g id="edge25" class="edge">
<title>Node19&#45;&gt;Node20</title>
<path fill="none" stroke="midnightblue" d="M1640.12,-263.5C1648.57,-263.5 1657.21,-263.5 1665.68,-263.5"/>
<polygon fill="midnightblue" stroke="midnightblue" points="1665.91,-267 1675.91,-263.5 1665.91,-260 1665.91,-267"/>
</g>
<!-- Node22 -->
<g id="node22" class="node">
<title>Node22</title>
<g id="a_node22"><a xlink:href="classwmtk_1_1_mesh.html#a8c09a3ed591ffbb0e59c83948970d121" target="_top" xlink:title="check validity of tuple including its hash">
<polygon fill="none" stroke="black" points="1681,-210 1681,-229 1801,-229 1801,-210 1681,-210"/>
<text text-anchor="middle" x="1741" y="-217" font-family="Helvetica,sans-Serif" font-size="10.00">wmtk::Mesh::is_valid</text>
</a>
</g>
</g>
<!-- Node19&#45;&gt;Node22 -->
<g id="edge30" class="edge">
<title>Node19&#45;&gt;Node22</title>
<path fill="none" stroke="midnightblue" d="M1604.54,-253.95C1630.38,-247.38 1664.92,-238.6 1692.65,-231.54"/>
<polygon fill="midnightblue" stroke="midnightblue" points="1693.71,-234.89 1702.53,-229.03 1691.98,-228.1 1693.71,-234.89"/>
</g>
<!-- Node21 -->
<g id="node21" class="node">
<title>Node21</title>
<g id="a_node21"><a xlink:href="classwmtk_1_1_mesh.html#aec980d09bb50f645d6c1c5e604e091c6" target="_top" xlink:title=" ">
<polygon fill="none" stroke="black" points="1842,-226.5 1842,-256.5 1955,-256.5 1955,-226.5 1842,-226.5"/>
<text text-anchor="start" x="1850" y="-244.5" font-family="Helvetica,sans-Serif" font-size="10.00">wmtk::Mesh::create</text>
<text text-anchor="middle" x="1898.5" y="-233.5" font-family="Helvetica,sans-Serif" font-size="10.00">_const_accessor</text>
</a>
</g>
</g>
<!-- Node20&#45;&gt;Node21 -->
<g id="edge26" class="edge">
<title>Node20&#45;&gt;Node21</title>
<path fill="none" stroke="midnightblue" d="M1806.15,-254.42C1814.68,-253.22 1823.45,-251.98 1832.01,-250.77"/>
<polygon fill="midnightblue" stroke="midnightblue" points="1832.53,-254.23 1841.94,-249.36 1831.55,-247.3 1832.53,-254.23"/>
</g>
<!-- Node21&#45;&gt;Node15 -->
<g id="edge27" class="edge">
<title>Node21&#45;&gt;Node15</title>
<path fill="none" stroke="midnightblue" d="M1955.03,-249.48C1963.34,-250.67 1972.1,-251.93 1980.93,-253.2"/>
<polygon fill="midnightblue" stroke="midnightblue" points="1980.51,-256.68 1990.91,-254.63 1981.51,-249.75 1980.51,-256.68"/>
</g>
<!-- Node21&#45;&gt;Node16 -->
<g id="edge28" class="edge">
<title>Node21&#45;&gt;Node16</title>
<path fill="none" stroke="midnightblue" d="M1955.03,-233.84C1963.34,-232.69 1972.1,-231.49 1980.93,-230.27"/>
<polygon fill="midnightblue" stroke="midnightblue" points="1981.48,-233.73 1990.91,-228.89 1980.52,-226.79 1981.48,-233.73"/>
</g>
<!-- Node21&#45;&gt;Node17 -->
<g id="edge29" class="edge">
<title>Node21&#45;&gt;Node17</title>
<path fill="none" stroke="midnightblue" d="M1935.16,-226.49C1941.85,-223.38 1948.71,-219.98 1955,-216.5 1971.82,-207.19 1973.57,-200.61 1991,-192.5 1995.26,-190.52 1999.71,-188.66 2004.25,-186.93"/>
<polygon fill="midnightblue" stroke="midnightblue" points="2005.44,-190.22 2013.67,-183.55 2003.07,-183.64 2005.44,-190.22"/>
</g>
<!-- Node24 -->
<g id="node24" class="node">
<title>Node24</title>
<g id="a_node24"><a xlink:href="namespacewmtk_1_1multimesh_1_1utils.html#a7382ca1de4356752b14e745f23b6892d" target="_top" xlink:title=" ">
<polygon fill="none" stroke="black" points="1312,-560.5 1312,-590.5 1442,-590.5 1442,-560.5 1312,-560.5"/>
<text text-anchor="start" x="1320" y="-578.5" font-family="Helvetica,sans-Serif" font-size="10.00">wmtk::multimesh::utils</text>
<text text-anchor="middle" x="1377" y="-567.5" font-family="Helvetica,sans-Serif" font-size="10.00">::vectors_to_tuples</text>
</a>
</g>
</g>
<!-- Node23&#45;&gt;Node24 -->
<g id="edge32" class="edge">
<title>Node23&#45;&gt;Node24</title>
<path fill="none" stroke="midnightblue" d="M1251.73,-567.34C1268.12,-568.42 1285.5,-569.56 1301.9,-570.63"/>
<polygon fill="midnightblue" stroke="midnightblue" points="1301.76,-574.13 1311.97,-571.3 1302.22,-567.15 1301.76,-574.13"/>
</g>
<!-- Node25 -->
<g id="node25" class="node">
<title>Node25</title>
<g id="a_node25"><a xlink:href="namespacewmtk_1_1multimesh_1_1utils.html#afcaf5933957666eacc341add3d727960" target="_top" xlink:title=" ">
<polygon fill="none" stroke="black" points="1501,-560.5 1501,-590.5 1631,-590.5 1631,-560.5 1501,-560.5"/>
<text text-anchor="start" x="1509" y="-578.5" font-family="Helvetica,sans-Serif" font-size="10.00">wmtk::multimesh::utils</text>
<text text-anchor="middle" x="1566" y="-567.5" font-family="Helvetica,sans-Serif" font-size="10.00">::vector_to_tuple</text>
</a>
</g>
</g>
<!-- Node24&#45;&gt;Node25 -->
<g id="edge33" class="edge">
<title>Node24&#45;&gt;Node25</title>
<path fill="none" stroke="midnightblue" d="M1442.09,-575.5C1457.7,-575.5 1474.53,-575.5 1490.58,-575.5"/>
<polygon fill="midnightblue" stroke="midnightblue" points="1490.99,-579 1500.99,-575.5 1490.99,-572 1490.99,-579"/>
</g>
<!-- Node26 -->
<g id="node26" class="node">
<title>Node26</title>
<g id="a_node26"><a xlink:href="namespacewmtk_1_1multimesh_1_1utils.html#a335acc709f47df9fe96f4c2ed2e10585" target="_top" xlink:title=" ">
<polygon fill="none" stroke="black" points="1676,-585.5 1676,-615.5 1806,-615.5 1806,-585.5 1676,-585.5"/>
<text text-anchor="start" x="1684" y="-603.5" font-family="Helvetica,sans-Serif" font-size="10.00">wmtk::multimesh::utils</text>
<text text-anchor="middle" x="1741" y="-592.5" font-family="Helvetica,sans-Serif" font-size="10.00">::vector2_to_tuple</text>
</a>
</g>
</g>
<!-- Node25&#45;&gt;Node26 -->
<g id="edge34" class="edge">
<title>Node25&#45;&gt;Node26</title>
<path fill="none" stroke="midnightblue" d="M1631.42,-584.81C1642.64,-586.43 1654.39,-588.13 1665.84,-589.78"/>
<polygon fill="midnightblue" stroke="midnightblue" points="1665.42,-593.26 1675.82,-591.22 1666.42,-586.33 1665.42,-593.26"/>
</g>
<!-- Node27 -->
<g id="node27" class="node">
<title>Node27</title>
<g id="a_node27"><a xlink:href="namespacewmtk_1_1multimesh_1_1utils.html#a2645b98b3068060a73df0c8cc16b6a3d" target="_top" xlink:title=" ">
<polygon fill="none" stroke="black" points="1676,-536.5 1676,-566.5 1806,-566.5 1806,-536.5 1676,-536.5"/>
<text text-anchor="start" x="1684" y="-554.5" font-family="Helvetica,sans-Serif" font-size="10.00">wmtk::multimesh::utils</text>
<text text-anchor="middle" x="1741" y="-543.5" font-family="Helvetica,sans-Serif" font-size="10.00">::vector5_to_tuple</text>
</a>
</g>
</g>
<!-- Node25&#45;&gt;Node27 -->
<g id="edge35" class="edge">
<title>Node25&#45;&gt;Node27</title>
<path fill="none" stroke="midnightblue" d="M1631.42,-566.56C1642.64,-565.01 1654.39,-563.38 1665.84,-561.79"/>
<polygon fill="midnightblue" stroke="midnightblue" points="1666.39,-565.25 1675.82,-560.4 1665.43,-558.31 1666.39,-565.25"/>
</g>
<!-- Node29 -->
<g id="node29" class="node">
<title>Node29</title>
<g id="a_node29"><a xlink:href="classwmtk_1_1_mesh.html#a965a8a24158c4aa8580c57ba09f885f7" target="_top" xlink:title="switch the orientation of the Tuple of the given dimension">
<polygon fill="none" stroke="black" points="1509,-402.5 1509,-432.5 1623,-432.5 1623,-402.5 1509,-402.5"/>
<text text-anchor="start" x="1517" y="-420.5" font-family="Helvetica,sans-Serif" font-size="10.00">wmtk::Mesh::switch</text>
<text text-anchor="middle" x="1566" y="-409.5" font-family="Helvetica,sans-Serif" font-size="10.00">_tuple</text>
</a>
</g>
</g>
<!-- Node28&#45;&gt;Node29 -->
<g id="edge37" class="edge">
<title>Node28&#45;&gt;Node29</title>
<path fill="none" stroke="midnightblue" d="M1216.36,-516.03C1271.41,-527.8 1375.08,-542.81 1456,-512.5 1494.1,-498.23 1527.65,-463.94 1547.14,-440.71"/>
<polygon fill="midnightblue" stroke="midnightblue" points="1550.06,-442.67 1553.67,-432.71 1544.63,-438.24 1550.06,-442.67"/>
</g>
<!-- Node31 -->
<g id="node31" class="node">
<title>Node31</title>
<g id="a_node31"><a xlink:href="classwmtk_1_1_edge_mesh.html#a534952cf2729f1509a380e3e9afb65b7" target="_top" xlink:title=" ">
<polygon fill="none" stroke="black" points="1319.5,-248.5 1319.5,-278.5 1434.5,-278.5 1434.5,-248.5 1319.5,-248.5"/>
<text text-anchor="start" x="1327.5" y="-266.5" font-family="Helvetica,sans-Serif" font-size="10.00">wmtk::EdgeMesh::is</text>
<text text-anchor="middle" x="1377" y="-255.5" font-family="Helvetica,sans-Serif" font-size="10.00">_boundary_vertex</text>
</a>
</g>
</g>
<!-- Node30&#45;&gt;Node31 -->
<g id="edge39" class="edge">
<title>Node30&#45;&gt;Node31</title>
<path fill="none" stroke="midnightblue" d="M1252.57,-263.5C1271.17,-263.5 1290.99,-263.5 1309.19,-263.5"/>
<polygon fill="midnightblue" stroke="midnightblue" points="1309.4,-267 1319.4,-263.5 1309.4,-260 1309.4,-267"/>
</g>
<!-- Node30&#45;&gt;Node32 -->
<g id="edge41" class="edge">
<title>Node30&#45;&gt;Node32</title>
<path fill="none" stroke="midnightblue" d="M1199.95,-248.32C1235.5,-223.72 1305.74,-175.11 1345.92,-147.31"/>
<polygon fill="midnightblue" stroke="midnightblue" points="1348.03,-150.11 1354.26,-141.54 1344.04,-144.36 1348.03,-150.11"/>
</g>
<!-- Node33 -->
<g id="node33" class="node">
<title>Node33</title>
<g id="a_node33"><a xlink:href="classwmtk_1_1_mesh.html#a33805489402321155d4a1f7023faaf3a" target="_top" xlink:title=" ">
<polygon fill="none" stroke="black" points="1305.5,-298 1305.5,-317 1448.5,-317 1448.5,-298 1305.5,-298"/>
<text text-anchor="middle" x="1377" y="-305" font-family="Helvetica,sans-Serif" font-size="10.00">wmtk::Mesh::switch_edge</text>
</a>
</g>
</g>
<!-- Node30&#45;&gt;Node33 -->
<g id="edge42" class="edge">
<title>Node30&#45;&gt;Node33</title>
<path fill="none" stroke="midnightblue" d="M1245.59,-278.52C1270.98,-284.16 1299.44,-290.49 1323.28,-295.78"/>
<polygon fill="midnightblue" stroke="midnightblue" points="1322.67,-299.23 1333.19,-297.99 1324.19,-292.4 1322.67,-299.23"/>
</g>
<!-- Node30&#45;&gt;Node34 -->
<g id="edge44" class="edge">
<title>Node30&#45;&gt;Node34</title>
<path fill="none" stroke="midnightblue" d="M1238.75,-248.47C1259.85,-243.24 1283.68,-237.35 1305.5,-231.95"/>
<polygon fill="midnightblue" stroke="midnightblue" points="1306.5,-235.31 1315.36,-229.51 1304.81,-228.51 1306.5,-235.31"/>
</g>
<!-- Node31&#45;&gt;Node19 -->
<g id="edge40" class="edge">
<title>Node31&#45;&gt;Node19</title>
<path fill="none" stroke="midnightblue" d="M1434.61,-263.5C1449.43,-263.5 1465.71,-263.5 1481.61,-263.5"/>
<polygon fill="midnightblue" stroke="midnightblue" points="1481.97,-267 1491.97,-263.5 1481.97,-260 1481.97,-267"/>
</g>
<!-- Node33&#45;&gt;Node29 -->
<g id="edge43" class="edge">
<title>Node33&#45;&gt;Node29</title>
<path fill="none" stroke="midnightblue" d="M1394.27,-317.07C1424.5,-334.86 1489.96,-373.36 1530.47,-397.19"/>
<polygon fill="midnightblue" stroke="midnightblue" points="1528.81,-400.27 1539.2,-402.32 1532.36,-394.24 1528.81,-400.27"/>
</g>
<!-- Node36 -->
<g id="node36" class="node">
<title>Node36</title>
<g id="a_node36"><a xlink:href="classwmtk_1_1_mesh.html#ac1e12857f52985bd548a968a4c819659" target="_top" xlink:title=" ">
<polygon fill="none" stroke="black" points="1316.5,-374.5 1316.5,-404.5 1437.5,-404.5 1437.5,-374.5 1316.5,-374.5"/>
<text text-anchor="start" x="1324.5" y="-392.5" font-family="Helvetica,sans-Serif" font-size="10.00">wmtk::Mesh::top_cell</text>
<text text-anchor="middle" x="1377" y="-381.5" font-family="Helvetica,sans-Serif" font-size="10.00">_dimension</text>
</a>
</g>
</g>
<!-- Node35&#45;&gt;Node36 -->
<g id="edge46" class="edge">
<title>Node35&#45;&gt;Node36</title>
<path fill="none" stroke="midnightblue" d="M1262.26,-387.78C1276.91,-388 1292,-388.23 1306.21,-388.44"/>
<polygon fill="midnightblue" stroke="midnightblue" points="1306.34,-391.94 1316.39,-388.6 1306.44,-384.95 1306.34,-391.94"/>
</g>
<!-- Node38 -->
<g id="node38" class="node">
<title>Node38</title>
<g id="a_node38"><a xlink:href="namespacewmtk_1_1multimesh_1_1utils.html#a99cdf56ec6abe68409d30e0b67f4ce82" target="_top" xlink:title=" ">
<polygon fill="none" stroke="black" points="1298,-423.5 1298,-453.5 1456,-453.5 1456,-423.5 1298,-423.5"/>
<text text-anchor="start" x="1306" y="-441.5" font-family="Helvetica,sans-Serif" font-size="10.00">wmtk::multimesh::utils</text>
<text text-anchor="middle" x="1377" y="-430.5" font-family="Helvetica,sans-Serif" font-size="10.00">::find_local_switch_sequence</text>
</a>
</g>
</g>
<!-- Node37&#45;&gt;Node38 -->
<g id="edge48" class="edge">
<title>Node37&#45;&gt;Node38</title>
<path fill="none" stroke="midnightblue" d="M1242.01,-438.5C1256.56,-438.5 1272.27,-438.5 1287.63,-438.5"/>
<polygon fill="midnightblue" stroke="midnightblue" points="1287.66,-442 1297.66,-438.5 1287.66,-435 1287.66,-442"/>
</g>
<!-- Node39 -->
<g id="node39" class="node">
<title>Node39</title>
<g id="a_node39"><a xlink:href="namespacewmtk_1_1multimesh_1_1utils.html#af71d6d20a76616d671ae5f53350107b4" target="_top" xlink:title=" ">
<polygon fill="none" stroke="black" points="1312,-472.5 1312,-502.5 1442,-502.5 1442,-472.5 1312,-472.5"/>
<text text-anchor="start" x="1320" y="-490.5" font-family="Helvetica,sans-Serif" font-size="10.00">wmtk::multimesh::utils</text>
<text text-anchor="middle" x="1377" y="-479.5" font-family="Helvetica,sans-Serif" font-size="10.00">::local_switch_tuples</text>
</a>
</g>
</g>
<!-- Node37&#45;&gt;Node39 -->
<g id="edge49" class="edge">
<title>Node37&#45;&gt;Node39</title>
<path fill="none" stroke="midnightblue" d="M1238.75,-453.53C1259.85,-458.76 1283.68,-464.65 1305.5,-470.05"/>
<polygon fill="midnightblue" stroke="midnightblue" points="1304.81,-473.49 1315.36,-472.49 1306.5,-466.69 1304.81,-473.49"/>
</g>
<!-- Node40&#45;&gt;Node10 -->
<g id="edge54" class="edge">
<title>Node40&#45;&gt;Node10</title>
<path fill="none" stroke="midnightblue" d="M663.14,-22.85C673.49,-23.91 684.2,-25.02 694.73,-26.11"/>
<polygon fill="midnightblue" stroke="midnightblue" points="694.44,-29.6 704.75,-27.14 695.16,-22.63 694.44,-29.6"/>
</g>
</g>
</svg>
        <g id="navigator" transform="translate(0 0)" fill="#404254">
                <rect fill="#f2f5e9" fill-opacity="0.5" stroke="#606060" stroke-width=".5" x="0" y="0" width="60" height="60"/>
                <use id="zoomplus" xlink:href="#zoomPlus" x="17" y="9" onmousedown="handleZoom(evt,'in')"/>
                <use id="zoomminus" xlink:href="#zoomMin" x="42" y="9" onmousedown="handleZoom(evt,'out')"/>
                <use id="reset" xlink:href="#resetDef" x="30" y="36" onmousedown="handleReset()"/>
                <g id="arrowUp" xlink:href="#dirArrow" transform="translate(30 24)" onmousedown="handlePan(0,-1)">
                  <use xlink:href="#rim" fill="#404040">
                        <set attributeName="fill" to="#808080" begin="arrowUp.mouseover" end="arrowUp.mouseout"/>
                  </use>
                  <path fill="none" stroke="white" stroke-width="1.5" d="M0,-3.0v7 M-2.5,-0.5L0,-3.0L2.5,-0.5"/>
                </g>
                <g id="arrowRight" xlink:href="#dirArrow" transform="rotate(90) translate(36 -43)" onmousedown="handlePan(1,0)">
                  <use xlink:href="#rim" fill="#404040">
                        <set attributeName="fill" to="#808080" begin="arrowRight.mouseover" end="arrowRight.mouseout"/>
                  </use>
                  <path fill="none" stroke="white" stroke-width="1.5" d="M0,-3.0v7 M-2.5,-0.5L0,-3.0L2.5,-0.5"/>
                </g>
                <g id="arrowDown" xlink:href="#dirArrow" transform="rotate(180) translate(-30 -48)" onmousedown="handlePan(0,1)">
                  <use xlink:href="#rim" fill="#404040">
                        <set attributeName="fill" to="#808080" begin="arrowDown.mouseover" end="arrowDown.mouseout"/>
                  </use>
                  <path fill="none" stroke="white" stroke-width="1.5" d="M0,-3.0v7 M-2.5,-0.5L0,-3.0L2.5,-0.5"/>
                </g>
                <g id="arrowLeft" xlink:href="#dirArrow" transform="rotate(270) translate(-36 17)" onmousedown="handlePan(-1,0)">
                  <use xlink:href="#rim" fill="#404040">
                        <set attributeName="fill" to="#808080" begin="arrowLeft.mouseover" end="arrowLeft.mouseout"/>
                  </use>
                  <path fill="none" stroke="white" stroke-width="1.5" d="M0,-3.0v7 M-2.5,-0.5L0,-3.0L2.5,-0.5"/>
                </g>
        </g>
        <svg viewBox="0 0 15 15" width="100%" height="30px" preserveAspectRatio="xMaxYMin meet">
         <g id="arrow_out" transform="scale(0.3 0.3)">
          <a xlink:href="classwmtk_1_1_mesh_a200e9023103df15f15802116aa19ec03_cgraph_org.svg" target="_base">
           <rect id="button" ry="5" rx="5" y="6" x="6" height="38" width="38"
                fill="#f2f5e9" fill-opacity="0.5" stroke="#606060" stroke-width="1.0"/>
           <path id="arrow"
             d="M 11.500037,31.436501 C 11.940474,20.09759 22.043105,11.32322 32.158766,21.979434 L 37.068811,17.246167 C 37.068811,17.246167 37.088388,32 37.088388,32 L 22.160133,31.978069 C 22.160133,31.978069 26.997745,27.140456 26.997745,27.140456 C 18.528582,18.264221 13.291696,25.230495 11.500037,31.436501 z"
             style="fill:#404040;"/>
          </a>
         </g>
        </svg>
</svg>
