<?xml version="1.0" encoding="UTF-8" standalone="no"?>
<!DOCTYPE svg PUBLIC "-//W3C//DTD SVG 1.1//EN"
 "http://www.w3.org/Graphics/SVG/1.1/DTD/svg11.dtd">
<!-- Generated by graphviz version 2.43.0 (0)
 -->
<!-- Title: wmtk::operations::OptimizationSmoothing::WMTKProblem::is_step_valid Pages: 1 -->
<svg width="2421pt" height="510pt"
 viewBox="0.00 0.00 2421.00 510.24" xmlns="http://www.w3.org/2000/svg" xmlns:xlink="http://www.w3.org/1999/xlink">
<g id="graph0" class="graph" transform="scale(1 1) rotate(0) translate(4 506.24)">
<title>wmtk::operations::OptimizationSmoothing::WMTKProblem::is_step_valid</title>
<!-- Node1 -->
<g id="node1" class="node">
<title>Node1</title>
<g id="a_node1"><a xlink:title=" ">
<polygon fill="#bfbfbf" stroke="black" points="0,-298.5 0,-339.5 171,-339.5 171,-298.5 0,-298.5"/>
<text text-anchor="start" x="8" y="-327.5" font-family="Helvetica,sans-Serif" font-size="10.00">wmtk::operations::Optimization</text>
<text text-anchor="start" x="8" y="-316.5" font-family="Helvetica,sans-Serif" font-size="10.00">Smoothing::WMTKProblem::is</text>
<text text-anchor="middle" x="85.5" y="-305.5" font-family="Helvetica,sans-Serif" font-size="10.00">_step_valid</text>
</a>
</g>
</g>
<!-- Node2 -->
<g id="node2" class="node">
<title>Node2</title>
<g id="a_node2"><a xlink:href="classwmtk_1_1invariants_1_1_invariant_collection.html#a8ca33e950e39423425248ba8d25b3dca" target="_top" xlink:title=" ">
<polygon fill="none" stroke="black" points="207,-304 207,-334 356,-334 356,-304 207,-304"/>
<text text-anchor="start" x="215" y="-322" font-family="Helvetica,sans-Serif" font-size="10.00">wmtk::invariants::Invariant</text>
<text text-anchor="middle" x="281.5" y="-311" font-family="Helvetica,sans-Serif" font-size="10.00">Collection::after</text>
</a>
</g>
</g>
<!-- Node1&#45;&gt;Node2 -->
<g id="edge1" class="edge">
<title>Node1&#45;&gt;Node2</title>
<path fill="none" stroke="midnightblue" d="M171.03,-319C179.52,-319 188.14,-319 196.63,-319"/>
<polygon fill="midnightblue" stroke="midnightblue" points="196.9,-322.5 206.9,-319 196.9,-315.5 196.9,-322.5"/>
</g>
<!-- Node3 -->
<g id="node3" class="node">
<title>Node3</title>
<g id="a_node3"><a xlink:href="classwmtk_1_1_mesh.html#a82637d24776e0e06e2124ce914c4b40f" target="_top" xlink:title="maps a simplex from this mesh to any other mesh">
<polygon fill="none" stroke="black" points="396.5,-353.5 396.5,-372.5 536.5,-372.5 536.5,-353.5 396.5,-353.5"/>
<text text-anchor="middle" x="466.5" y="-360.5" font-family="Helvetica,sans-Serif" font-size="10.00">wmtk::Mesh::map_tuples</text>
</a>
</g>
</g>
<!-- Node2&#45;&gt;Node3 -->
<g id="edge2" class="edge">
<title>Node2&#45;&gt;Node3</title>
<path fill="none" stroke="midnightblue" d="M344.97,-334.02C368.22,-339.61 394.27,-345.87 416.18,-351.14"/>
<polygon fill="midnightblue" stroke="midnightblue" points="415.4,-354.55 425.94,-353.49 417.03,-347.75 415.4,-354.55"/>
</g>
<!-- Node36 -->
<g id="node36" class="node">
<title>Node36</title>
<g id="a_node36"><a xlink:href="classwmtk_1_1invariants_1_1_invariant.html#add4d6d68498646f845e0cd1c6bc85c9a" target="_top" xlink:title=" ">
<polygon fill="none" stroke="black" points="392,-304 392,-334 541,-334 541,-304 392,-304"/>
<text text-anchor="start" x="400" y="-322" font-family="Helvetica,sans-Serif" font-size="10.00">wmtk::invariants::Invariant</text>
<text text-anchor="middle" x="466.5" y="-311" font-family="Helvetica,sans-Serif" font-size="10.00">::mesh</text>
</a>
</g>
</g>
<!-- Node2&#45;&gt;Node36 -->
<g id="edge48" class="edge">
<title>Node2&#45;&gt;Node36</title>
<path fill="none" stroke="midnightblue" d="M356.14,-319C364.47,-319 373.01,-319 381.46,-319"/>
<polygon fill="midnightblue" stroke="midnightblue" points="381.71,-322.5 391.71,-319 381.71,-315.5 381.71,-322.5"/>
</g>
<!-- Node37 -->
<g id="node37" class="node">
<title>Node37</title>
<g id="a_node37"><a xlink:href="classwmtk_1_1_mesh.html#ac5778c1f8afef3a2b1b1c33a140b3166" target="_top" xlink:title="Evaluate the passed in function inside the parent scope.">
<polygon fill="none" stroke="black" points="409.5,-255 409.5,-285 523.5,-285 523.5,-255 409.5,-255"/>
<text text-anchor="start" x="417.5" y="-273" font-family="Helvetica,sans-Serif" font-size="10.00">wmtk::Mesh::parent</text>
<text text-anchor="middle" x="466.5" y="-262" font-family="Helvetica,sans-Serif" font-size="10.00">_scope</text>
</a>
</g>
</g>
<!-- Node2&#45;&gt;Node37 -->
<g id="edge49" class="edge">
<title>Node2&#45;&gt;Node37</title>
<path fill="none" stroke="midnightblue" d="M338.9,-303.9C358.04,-298.77 379.59,-293 399.41,-287.7"/>
<polygon fill="midnightblue" stroke="midnightblue" points="400.53,-291.02 409.29,-285.05 398.72,-284.26 400.53,-291.02"/>
</g>
<!-- Node4 -->
<g id="node4" class="node">
<title>Node4</title>
<g id="a_node4"><a xlink:href="classwmtk_1_1_mesh.html#ad054c074d4776010002321117ec459e8" target="_top" xlink:title=" ">
<polygon fill="none" stroke="black" points="577,-313 577,-343 738,-343 738,-313 577,-313"/>
<text text-anchor="start" x="585" y="-331" font-family="Helvetica,sans-Serif" font-size="10.00">wmtk::Mesh::is_from</text>
<text text-anchor="middle" x="657.5" y="-320" font-family="Helvetica,sans-Serif" font-size="10.00">_same_multi_mesh_structure</text>
</a>
</g>
</g>
<!-- Node3&#45;&gt;Node4 -->
<g id="edge3" class="edge">
<title>Node3&#45;&gt;Node4</title>
<path fill="none" stroke="midnightblue" d="M519.15,-353.44C533.9,-350.7 550.42,-347.64 566.75,-344.62"/>
<polygon fill="midnightblue" stroke="midnightblue" points="567.68,-348.01 576.88,-342.74 566.41,-341.12 567.68,-348.01"/>
</g>
<!-- Node8 -->
<g id="node8" class="node">
<title>Node8</title>
<g id="a_node8"><a xlink:href="classwmtk_1_1_multi_mesh_manager.html#a5e6576353e81057bca18a1d49ac9cadf" target="_top" xlink:title="maps a simplex from this mesh to any other mesh">
<polygon fill="none" stroke="black" points="585.5,-384 585.5,-414 729.5,-414 729.5,-384 585.5,-384"/>
<text text-anchor="start" x="593.5" y="-402" font-family="Helvetica,sans-Serif" font-size="10.00">wmtk::MultiMeshManager</text>
<text text-anchor="middle" x="657.5" y="-391" font-family="Helvetica,sans-Serif" font-size="10.00">::map_tuples</text>
</a>
</g>
</g>
<!-- Node3&#45;&gt;Node8 -->
<g id="edge8" class="edge">
<title>Node3&#45;&gt;Node8</title>
<path fill="none" stroke="midnightblue" d="M517.65,-372.55C535.43,-375.94 555.91,-379.84 575.59,-383.59"/>
<polygon fill="midnightblue" stroke="midnightblue" points="575,-387.04 585.48,-385.47 576.31,-380.16 575,-387.04"/>
</g>
<!-- Node5 -->
<g id="node5" class="node">
<title>Node5</title>
<g id="a_node5"><a xlink:href="classwmtk_1_1_mesh.html#aac3ec1ebbe00982ddfe70cc710d8f54e" target="_top" xlink:title="returns a reference to the root of a multimesh tree">
<polygon fill="none" stroke="black" points="781.5,-269 781.5,-299 910.5,-299 910.5,-269 781.5,-269"/>
<text text-anchor="start" x="789.5" y="-287" font-family="Helvetica,sans-Serif" font-size="10.00">wmtk::Mesh::get_multi</text>
<text text-anchor="middle" x="846" y="-276" font-family="Helvetica,sans-Serif" font-size="10.00">_mesh_root</text>
</a>
</g>
</g>
<!-- Node4&#45;&gt;Node5 -->
<g id="edge4" class="edge">
<title>Node4&#45;&gt;Node5</title>
<path fill="none" stroke="midnightblue" d="M722.16,-312.98C737.98,-309.25 755.06,-305.22 771.32,-301.38"/>
<polygon fill="midnightblue" stroke="midnightblue" points="772.38,-304.73 781.31,-299.03 770.77,-297.92 772.38,-304.73"/>
</g>
<!-- Node6 -->
<g id="node6" class="node">
<title>Node6</title>
<g id="a_node6"><a xlink:href="classwmtk_1_1_multi_mesh_manager.html#a10b58d0d287321a1b422f9b945421eda" target="_top" xlink:title=" ">
<polygon fill="none" stroke="black" points="960,-243 960,-273 1104,-273 1104,-243 960,-243"/>
<text text-anchor="start" x="968" y="-261" font-family="Helvetica,sans-Serif" font-size="10.00">wmtk::MultiMeshManager</text>
<text text-anchor="middle" x="1032" y="-250" font-family="Helvetica,sans-Serif" font-size="10.00">::get_root_mesh</text>
</a>
</g>
</g>
<!-- Node5&#45;&gt;Node6 -->
<g id="edge5" class="edge">
<title>Node5&#45;&gt;Node6</title>
<path fill="none" stroke="midnightblue" d="M910.58,-275.02C923.24,-273.23 936.71,-271.32 949.87,-269.46"/>
<polygon fill="midnightblue" stroke="midnightblue" points="950.44,-272.92 959.85,-268.05 949.46,-265.99 950.44,-272.92"/>
</g>
<!-- Node6&#45;&gt;Node6 -->
<g id="edge6" class="edge">
<title>Node6&#45;&gt;Node6</title>
<path fill="none" stroke="midnightblue" d="M999.59,-273.16C991.77,-282.56 1002.57,-291.5 1032,-291.5 1049.93,-291.5 1060.95,-288.18 1065.05,-283.46"/>
<polygon fill="midnightblue" stroke="midnightblue" points="1068.52,-282.92 1064.41,-273.16 1061.54,-283.36 1068.52,-282.92"/>
</g>
<!-- Node7 -->
<g id="node7" class="node">
<title>Node7</title>
<g id="a_node7"><a xlink:href="classwmtk_1_1_multi_mesh_manager.html#a5a5a2de96e603563ab7054e8666395b7" target="_top" xlink:title="Specifies whether this structure is the root of a multi&#45;mesh tree.">
<polygon fill="none" stroke="black" points="1156.5,-271 1156.5,-301 1300.5,-301 1300.5,-271 1156.5,-271"/>
<text text-anchor="start" x="1164.5" y="-289" font-family="Helvetica,sans-Serif" font-size="10.00">wmtk::MultiMeshManager</text>
<text text-anchor="middle" x="1228.5" y="-278" font-family="Helvetica,sans-Serif" font-size="10.00">::is_root</text>
</a>
</g>
</g>
<!-- Node6&#45;&gt;Node7 -->
<g id="edge7" class="edge">
<title>Node6&#45;&gt;Node7</title>
<path fill="none" stroke="midnightblue" d="M1104.04,-268.23C1117.75,-270.2 1132.22,-272.28 1146.22,-274.3"/>
<polygon fill="midnightblue" stroke="midnightblue" points="1145.93,-277.79 1156.32,-275.75 1146.92,-270.86 1145.93,-277.79"/>
</g>
<!-- Node9 -->
<g id="node9" class="node">
<title>Node9</title>
<g id="a_node9"><a xlink:href="classwmtk_1_1_multi_mesh_manager.html#a4858de0134bb52c525db4a99d341fa86" target="_top" xlink:title=" ">
<polygon fill="none" stroke="black" points="960,-425 960,-455 1104,-455 1104,-425 960,-425"/>
<text text-anchor="start" x="968" y="-443" font-family="Helvetica,sans-Serif" font-size="10.00">wmtk::MultiMeshManager</text>
<text text-anchor="middle" x="1032" y="-432" font-family="Helvetica,sans-Serif" font-size="10.00">::absolute_id</text>
</a>
</g>
</g>
<!-- Node8&#45;&gt;Node9 -->
<g id="edge9" class="edge">
<title>Node8&#45;&gt;Node9</title>
<path fill="none" stroke="midnightblue" d="M729.75,-402.44C782.01,-405.46 854.6,-410.69 918,-419 928.27,-420.35 939.02,-422.01 949.64,-423.81"/>
<polygon fill="midnightblue" stroke="midnightblue" points="949.3,-427.3 959.75,-425.56 950.5,-420.4 949.3,-427.3"/>
</g>
<!-- Node10 -->
<g id="node10" class="node">
<title>Node10</title>
<g id="a_node10"><a xlink:href="classwmtk_1_1_mesh.html#a2102fdea06a0c543437e67d77aeb2013" target="_top" xlink:title="returns a unique identifier for this mesh within a single multimesh structure">
<polygon fill="none" stroke="black" points="783.5,-428 783.5,-458 908.5,-458 908.5,-428 783.5,-428"/>
<text text-anchor="start" x="791.5" y="-446" font-family="Helvetica,sans-Serif" font-size="10.00">wmtk::Mesh::absolute</text>
<text text-anchor="middle" x="846" y="-435" font-family="Helvetica,sans-Serif" font-size="10.00">_multi_mesh_id</text>
</a>
</g>
</g>
<!-- Node8&#45;&gt;Node10 -->
<g id="edge12" class="edge">
<title>Node8&#45;&gt;Node10</title>
<path fill="none" stroke="midnightblue" d="M722.16,-414.02C738.66,-417.91 756.53,-422.13 773.4,-426.11"/>
<polygon fill="midnightblue" stroke="midnightblue" points="772.67,-429.53 783.2,-428.42 774.27,-422.72 772.67,-429.53"/>
</g>
<!-- Node11 -->
<g id="node11" class="node">
<title>Node11</title>
<g id="a_node11"><a xlink:href="classwmtk_1_1_multi_mesh_manager.html#a3b5aceb8f1b3a1d0328489811ac489d7" target="_top" xlink:title=" ">
<polygon fill="none" stroke="black" points="774,-340 774,-370 918,-370 918,-340 774,-340"/>
<text text-anchor="start" x="782" y="-358" font-family="Helvetica,sans-Serif" font-size="10.00">wmtk::MultiMeshManager</text>
<text text-anchor="middle" x="846" y="-347" font-family="Helvetica,sans-Serif" font-size="10.00">::map_up_to_tuples</text>
</a>
</g>
</g>
<!-- Node8&#45;&gt;Node11 -->
<g id="edge14" class="edge">
<title>Node8&#45;&gt;Node11</title>
<path fill="none" stroke="midnightblue" d="M722.16,-383.98C737.98,-380.25 755.06,-376.22 771.32,-372.38"/>
<polygon fill="midnightblue" stroke="midnightblue" points="772.38,-375.73 781.31,-370.03 770.77,-368.92 772.38,-375.73"/>
</g>
<!-- Node28 -->
<g id="node28" class="node">
<title>Node28</title>
<g id="a_node28"><a xlink:href="classwmtk_1_1simplex_1_1_simplex.html#ad2cc0340a0772b7d6f03ba7a781d1163" target="_top" xlink:title=" ">
<polygon fill="none" stroke="black" points="1564.5,-400 1564.5,-430 1699.5,-430 1699.5,-400 1564.5,-400"/>
<text text-anchor="start" x="1572.5" y="-418" font-family="Helvetica,sans-Serif" font-size="10.00">wmtk::simplex::Simplex</text>
<text text-anchor="middle" x="1632" y="-407" font-family="Helvetica,sans-Serif" font-size="10.00">::primitive_type</text>
</a>
</g>
</g>
<!-- Node8&#45;&gt;Node28 -->
<g id="edge47" class="edge">
<title>Node8&#45;&gt;Node28</title>
<path fill="none" stroke="midnightblue" d="M678.11,-414.15C700.14,-430.33 737.6,-455.33 774,-468 882.81,-505.88 915.78,-502 1031,-502 1031,-502 1031,-502 1229.5,-502 1358,-502 1504.48,-458.91 1580,-433.38"/>
<polygon fill="midnightblue" stroke="midnightblue" points="1581.4,-436.6 1589.73,-430.05 1579.14,-429.98 1581.4,-436.6"/>
</g>
<!-- Node9&#45;&gt;Node7 -->
<g id="edge11" class="edge">
<title>Node9&#45;&gt;Node7</title>
<path fill="none" stroke="midnightblue" d="M1052,-424.95C1086.72,-397.47 1160.48,-339.06 1200.43,-307.43"/>
<polygon fill="midnightblue" stroke="midnightblue" points="1202.75,-310.06 1208.42,-301.11 1198.41,-304.57 1202.75,-310.06"/>
</g>
<!-- Node9&#45;&gt;Node9 -->
<g id="edge10" class="edge">
<title>Node9&#45;&gt;Node9</title>
<path fill="none" stroke="midnightblue" d="M999.59,-455.16C991.77,-464.56 1002.57,-473.5 1032,-473.5 1049.93,-473.5 1060.95,-470.18 1065.05,-465.46"/>
<polygon fill="midnightblue" stroke="midnightblue" points="1068.52,-464.92 1064.41,-455.16 1061.54,-465.36 1068.52,-464.92"/>
</g>
<!-- Node10&#45;&gt;Node9 -->
<g id="edge13" class="edge">
<title>Node10&#45;&gt;Node9</title>
<path fill="none" stroke="midnightblue" d="M908.53,-442C921.81,-441.78 936.05,-441.55 949.95,-441.32"/>
<polygon fill="midnightblue" stroke="midnightblue" points="950.05,-444.82 959.99,-441.16 949.93,-437.82 950.05,-444.82"/>
</g>
<!-- Node11&#45;&gt;Node7 -->
<g id="edge15" class="edge">
<title>Node11&#45;&gt;Node7</title>
<path fill="none" stroke="midnightblue" d="M918.12,-342.1C982.88,-330.36 1078.44,-313.03 1146.2,-300.74"/>
<polygon fill="midnightblue" stroke="midnightblue" points="1147.19,-304.12 1156.4,-298.89 1145.94,-297.23 1147.19,-304.12"/>
</g>
<!-- Node12 -->
<g id="node12" class="node">
<title>Node12</title>
<g id="a_node12"><a xlink:href="classwmtk_1_1_multi_mesh_manager.html#a53c699292af8c1357213e8057ad83c69" target="_top" xlink:title=" ">
<polygon fill="none" stroke="black" points="954,-186 954,-216 1110,-216 1110,-186 954,-186"/>
<text text-anchor="start" x="962" y="-204" font-family="Helvetica,sans-Serif" font-size="10.00">wmtk::MultiMeshManager</text>
<text text-anchor="middle" x="1032" y="-193" font-family="Helvetica,sans-Serif" font-size="10.00">::map_tuple_to_parent_tuple</text>
</a>
</g>
</g>
<!-- Node11&#45;&gt;Node12 -->
<g id="edge16" class="edge">
<title>Node11&#45;&gt;Node12</title>
<path fill="none" stroke="midnightblue" d="M877.37,-339.8C891.1,-331.79 906.73,-320.93 918,-308 942.29,-280.12 927.16,-258.43 954,-233 958.94,-228.32 964.67,-224.27 970.72,-220.79"/>
<polygon fill="midnightblue" stroke="midnightblue" points="972.51,-223.81 979.77,-216.09 969.28,-217.6 972.51,-223.81"/>
</g>
<!-- Node11&#45;&gt;Node28 -->
<g id="edge45" class="edge">
<title>Node11&#45;&gt;Node28</title>
<path fill="none" stroke="midnightblue" d="M918.26,-366.5C930.17,-368.18 942.42,-369.76 954,-371 1170.72,-394.2 1427.86,-406.85 1553.76,-412.08"/>
<polygon fill="midnightblue" stroke="midnightblue" points="1553.92,-415.59 1564.06,-412.5 1554.21,-408.6 1553.92,-415.59"/>
</g>
<!-- Node30 -->
<g id="node30" class="node">
<title>Node30</title>
<g id="a_node30"><a xlink:href="classwmtk_1_1simplex_1_1_simplex.html#a3650fd31ff1864285502dba66db3c73c" target="_top" xlink:title=" ">
<polygon fill="none" stroke="black" points="1564.5,-351 1564.5,-381 1699.5,-381 1699.5,-351 1564.5,-351"/>
<text text-anchor="start" x="1572.5" y="-369" font-family="Helvetica,sans-Serif" font-size="10.00">wmtk::simplex::Simplex</text>
<text text-anchor="middle" x="1632" y="-358" font-family="Helvetica,sans-Serif" font-size="10.00">::tuple</text>
</a>
</g>
</g>
<!-- Node11&#45;&gt;Node30 -->
<g id="edge46" class="edge">
<title>Node11&#45;&gt;Node30</title>
<path fill="none" stroke="midnightblue" d="M918.3,-356C1065.62,-358.07 1402.47,-362.79 1554.29,-364.92"/>
<polygon fill="midnightblue" stroke="midnightblue" points="1554.41,-368.43 1564.46,-365.07 1554.51,-361.43 1554.41,-368.43"/>
</g>
<!-- Node12&#45;&gt;Node7 -->
<g id="edge21" class="edge">
<title>Node12&#45;&gt;Node7</title>
<path fill="none" stroke="midnightblue" d="M1069.91,-216.08C1082.65,-221.35 1096.98,-227.36 1110,-233 1135.15,-243.9 1163.14,-256.5 1185.49,-266.68"/>
<polygon fill="midnightblue" stroke="midnightblue" points="1184.15,-269.92 1194.7,-270.89 1187.05,-263.55 1184.15,-269.92"/>
</g>
<!-- Node13 -->
<g id="node13" class="node">
<title>Node13</title>
<g id="a_node13"><a xlink:href="classwmtk_1_1_mesh.html#a8a5ee2526671002bd91f2b7182b92af6" target="_top" xlink:title=" ">
<polygon fill="none" stroke="black" points="2097,-97 2097,-127 2210,-127 2210,-97 2097,-97"/>
<text text-anchor="start" x="2105" y="-115" font-family="Helvetica,sans-Serif" font-size="10.00">wmtk::Mesh::create</text>
<text text-anchor="middle" x="2153.5" y="-104" font-family="Helvetica,sans-Serif" font-size="10.00">_accessor</text>
</a>
</g>
</g>
<!-- Node12&#45;&gt;Node13 -->
<g id="edge17" class="edge">
<title>Node12&#45;&gt;Node13</title>
<path fill="none" stroke="midnightblue" d="M1048.96,-185.89C1100.08,-139.15 1266.12,0 1431,0 1431,0 1431,0 1822,0 1935.29,0 2059.42,-59.76 2118.1,-91.97"/>
<polygon fill="midnightblue" stroke="midnightblue" points="2116.51,-95.09 2126.95,-96.9 2119.91,-88.98 2116.51,-95.09"/>
</g>
<!-- Node17 -->
<g id="node17" class="node">
<title>Node17</title>
<g id="a_node17"><a xlink:href="classwmtk_1_1_multi_mesh_manager.html#a65f099e4a57a0f5e5dd4304ee2eb7cb1" target="_top" xlink:title=" ">
<polygon fill="none" stroke="black" points="1146,-170 1146,-200 1311,-200 1311,-170 1146,-170"/>
<text text-anchor="start" x="1154" y="-188" font-family="Helvetica,sans-Serif" font-size="10.00">wmtk::MultiMeshManager</text>
<text text-anchor="middle" x="1228.5" y="-177" font-family="Helvetica,sans-Serif" font-size="10.00">::map_tuple_between_meshes</text>
</a>
</g>
</g>
<!-- Node12&#45;&gt;Node17 -->
<g id="edge22" class="edge">
<title>Node12&#45;&gt;Node17</title>
<path fill="none" stroke="midnightblue" d="M1110.15,-194.65C1118.61,-193.96 1127.29,-193.24 1135.9,-192.54"/>
<polygon fill="midnightblue" stroke="midnightblue" points="1136.29,-196.01 1145.97,-191.71 1135.72,-189.04 1136.29,-196.01"/>
</g>
<!-- Node14 -->
<g id="node14" class="node">
<title>Node14</title>
<g id="a_node14"><a xlink:href="classwmtk_1_1attribute_1_1_mesh_attribute_handle.html#ac326961f01b9ba4fec395827f15a7ef2" target="_top" xlink:title=" ">
<polygon fill="none" stroke="black" points="2246,-73 2246,-103 2413,-103 2413,-73 2246,-73"/>
<text text-anchor="start" x="2254" y="-91" font-family="Helvetica,sans-Serif" font-size="10.00">wmtk::attribute::MeshAttribute</text>
<text text-anchor="middle" x="2329.5" y="-80" font-family="Helvetica,sans-Serif" font-size="10.00">Handle::as</text>
</a>
</g>
</g>
<!-- Node13&#45;&gt;Node14 -->
<g id="edge18" class="edge">
<title>Node13&#45;&gt;Node14</title>
<path fill="none" stroke="midnightblue" d="M2210.03,-104.34C2218.34,-103.19 2227.1,-101.99 2235.93,-100.77"/>
<polygon fill="midnightblue" stroke="midnightblue" points="2236.48,-104.23 2245.91,-99.39 2235.52,-97.29 2236.48,-104.23"/>
</g>
<!-- Node15 -->
<g id="node15" class="node">
<title>Node15</title>
<g id="a_node15"><a xlink:href="classwmtk_1_1attribute_1_1_mesh_attribute_handle.html#a2b86caeb22b007b85b138ebc6b0ed837" target="_top" xlink:title=" ">
<polygon fill="none" stroke="black" points="2246,-171 2246,-201 2413,-201 2413,-171 2246,-171"/>
<text text-anchor="start" x="2254" y="-189" font-family="Helvetica,sans-Serif" font-size="10.00">wmtk::attribute::MeshAttribute</text>
<text text-anchor="middle" x="2329.5" y="-178" font-family="Helvetica,sans-Serif" font-size="10.00">Handle::holds</text>
</a>
</g>
</g>
<!-- Node13&#45;&gt;Node15 -->
<g id="edge19" class="edge">
<title>Node13&#45;&gt;Node15</title>
<path fill="none" stroke="midnightblue" d="M2192.01,-127.01C2198.12,-129.8 2204.31,-132.84 2210,-136 2227.02,-145.47 2228.46,-152.52 2246,-161 2250.68,-163.26 2255.61,-165.37 2260.63,-167.33"/>
<polygon fill="midnightblue" stroke="midnightblue" points="2259.78,-170.74 2270.37,-170.9 2262.19,-164.17 2259.78,-170.74"/>
</g>
<!-- Node16 -->
<g id="node16" class="node">
<title>Node16</title>
<g id="a_node16"><a xlink:href="classwmtk_1_1attribute_1_1_mesh_attribute_handle.html#a620620d54776b2c5f4f9cebad465cfa7" target="_top" xlink:title=" ">
<polygon fill="none" stroke="black" points="2246,-122 2246,-152 2413,-152 2413,-122 2246,-122"/>
<text text-anchor="start" x="2254" y="-140" font-family="Helvetica,sans-Serif" font-size="10.00">wmtk::attribute::MeshAttribute</text>
<text text-anchor="middle" x="2329.5" y="-129" font-family="Helvetica,sans-Serif" font-size="10.00">Handle::mesh</text>
</a>
</g>
</g>
<!-- Node13&#45;&gt;Node16 -->
<g id="edge20" class="edge">
<title>Node13&#45;&gt;Node16</title>
<path fill="none" stroke="midnightblue" d="M2210.03,-119.98C2218.34,-121.17 2227.1,-122.43 2235.93,-123.7"/>
<polygon fill="midnightblue" stroke="midnightblue" points="2235.51,-127.18 2245.91,-125.13 2236.51,-120.25 2235.51,-127.18"/>
</g>
<!-- Node18 -->
<g id="node18" class="node">
<title>Node18</title>
<g id="a_node18"><a xlink:href="namespacewmtk_1_1multimesh_1_1utils.html#a8f0a6c05e27c92d2d4ac453971f52749" target="_top" xlink:title=" ">
<polygon fill="none" stroke="black" points="1357.5,-212 1357.5,-242 1506.5,-242 1506.5,-212 1357.5,-212"/>
<text text-anchor="start" x="1365.5" y="-230" font-family="Helvetica,sans-Serif" font-size="10.00">wmtk::multimesh::utils</text>
<text text-anchor="middle" x="1432" y="-219" font-family="Helvetica,sans-Serif" font-size="10.00">::read_tuple_map_attribute</text>
</a>
</g>
</g>
<!-- Node17&#45;&gt;Node18 -->
<g id="edge23" class="edge">
<title>Node17&#45;&gt;Node18</title>
<path fill="none" stroke="midnightblue" d="M1301.68,-200.04C1316.96,-203.23 1333.2,-206.62 1348.83,-209.87"/>
<polygon fill="midnightblue" stroke="midnightblue" points="1348.48,-213.38 1358.99,-211.99 1349.91,-206.52 1348.48,-213.38"/>
</g>
<!-- Node20 -->
<g id="node20" class="node">
<title>Node20</title>
<g id="a_node20"><a xlink:href="classwmtk_1_1_mesh.html#a6ca480b3f16ac2aadc9887c42748e239" target="_top" xlink:title=" ">
<polygon fill="none" stroke="black" points="1362,-52.5 1362,-71.5 1502,-71.5 1502,-52.5 1362,-52.5"/>
<text text-anchor="middle" x="1432" y="-59.5" font-family="Helvetica,sans-Serif" font-size="10.00">wmtk::Mesh::switch_face</text>
</a>
</g>
</g>
<!-- Node17&#45;&gt;Node20 -->
<g id="edge25" class="edge">
<title>Node17&#45;&gt;Node20</title>
<path fill="none" stroke="midnightblue" d="M1250.7,-169.72C1273.88,-153.25 1312.37,-126.63 1347,-106 1364.97,-95.3 1385.8,-84.38 1402.22,-76.1"/>
<polygon fill="midnightblue" stroke="midnightblue" points="1403.94,-79.15 1411.32,-71.54 1400.81,-72.89 1403.94,-79.15"/>
</g>
<!-- Node22 -->
<g id="node22" class="node">
<title>Node22</title>
<g id="a_node22"><a xlink:href="namespacewmtk_1_1simplex.html#a479fe685989f6c075a5ce1c52b5c4df3" target="_top" xlink:title=" ">
<polygon fill="none" stroke="black" points="1356.5,-299 1356.5,-329 1507.5,-329 1507.5,-299 1356.5,-299"/>
<text text-anchor="start" x="1364.5" y="-317" font-family="Helvetica,sans-Serif" font-size="10.00">wmtk::simplex::top</text>
<text text-anchor="middle" x="1432" y="-306" font-family="Helvetica,sans-Serif" font-size="10.00">_dimension_cofaces_tuples</text>
</a>
</g>
</g>
<!-- Node17&#45;&gt;Node22 -->
<g id="edge27" class="edge">
<title>Node17&#45;&gt;Node22</title>
<path fill="none" stroke="midnightblue" d="M1253.01,-200.05C1289.09,-223.15 1358.18,-267.38 1398.86,-293.42"/>
<polygon fill="midnightblue" stroke="midnightblue" points="1397.02,-296.4 1407.33,-298.85 1400.79,-290.51 1397.02,-296.4"/>
</g>
<!-- Node31 -->
<g id="node31" class="node">
<title>Node31</title>
<g id="a_node31"><a xlink:href="classwmtk_1_1_mesh.html#abaf00438d0700358b160e310d69725c9" target="_top" xlink:title=" ">
<polygon fill="none" stroke="black" points="1347,-171.5 1347,-190.5 1517,-190.5 1517,-171.5 1347,-171.5"/>
<text text-anchor="middle" x="1432" y="-178.5" font-family="Helvetica,sans-Serif" font-size="10.00">wmtk::Mesh::top_simplex_type</text>
</a>
</g>
</g>
<!-- Node17&#45;&gt;Node31 -->
<g id="edge40" class="edge">
<title>Node17&#45;&gt;Node31</title>
<path fill="none" stroke="midnightblue" d="M1311.17,-183.38C1319.64,-183.21 1328.29,-183.04 1336.88,-182.87"/>
<polygon fill="midnightblue" stroke="midnightblue" points="1336.99,-186.37 1346.92,-182.67 1336.85,-179.37 1336.99,-186.37"/>
</g>
<!-- Node33 -->
<g id="node33" class="node">
<title>Node33</title>
<g id="a_node33"><a xlink:href="namespacewmtk_1_1multimesh_1_1utils.html#aa0392bf28bb6c304127cf0eea634fee8" target="_top" xlink:title=" ">
<polygon fill="none" stroke="black" points="1367,-116 1367,-146 1497,-146 1497,-116 1367,-116"/>
<text text-anchor="start" x="1375" y="-134" font-family="Helvetica,sans-Serif" font-size="10.00">wmtk::multimesh::utils</text>
<text text-anchor="middle" x="1432" y="-123" font-family="Helvetica,sans-Serif" font-size="10.00">::transport_tuple</text>
</a>
</g>
</g>
<!-- Node17&#45;&gt;Node33 -->
<g id="edge42" class="edge">
<title>Node17&#45;&gt;Node33</title>
<path fill="none" stroke="midnightblue" d="M1285.63,-169.96C1310.31,-163.34 1339.46,-155.53 1365.16,-148.64"/>
<polygon fill="midnightblue" stroke="midnightblue" points="1366.07,-152.02 1374.82,-146.05 1364.26,-145.26 1366.07,-152.02"/>
</g>
<!-- Node19 -->
<g id="node19" class="node">
<title>Node19</title>
<g id="a_node19"><a xlink:href="namespacewmtk_1_1multimesh_1_1utils.html#a87b676fc443dc880b37e83144c5bbbe9" target="_top" xlink:title=" ">
<polygon fill="none" stroke="black" points="1567,-214 1567,-244 1697,-244 1697,-214 1567,-214"/>
<text text-anchor="start" x="1575" y="-232" font-family="Helvetica,sans-Serif" font-size="10.00">wmtk::multimesh::utils</text>
<text text-anchor="middle" x="1632" y="-221" font-family="Helvetica,sans-Serif" font-size="10.00">::vector5_to_tuple</text>
</a>
</g>
</g>
<!-- Node18&#45;&gt;Node19 -->
<g id="edge24" class="edge">
<title>Node18&#45;&gt;Node19</title>
<path fill="none" stroke="midnightblue" d="M1506.73,-227.74C1523.12,-227.91 1540.5,-228.09 1556.9,-228.25"/>
<polygon fill="midnightblue" stroke="midnightblue" points="1556.94,-231.75 1566.97,-228.35 1557.01,-224.75 1556.94,-231.75"/>
</g>
<!-- Node21 -->
<g id="node21" class="node">
<title>Node21</title>
<g id="a_node21"><a xlink:href="classwmtk_1_1_mesh.html#a965a8a24158c4aa8580c57ba09f885f7" target="_top" xlink:title="switch the orientation of the Tuple of the given dimension">
<polygon fill="none" stroke="black" points="1764,-172 1764,-202 1878,-202 1878,-172 1764,-172"/>
<text text-anchor="start" x="1772" y="-190" font-family="Helvetica,sans-Serif" font-size="10.00">wmtk::Mesh::switch</text>
<text text-anchor="middle" x="1821" y="-179" font-family="Helvetica,sans-Serif" font-size="10.00">_tuple</text>
</a>
</g>
</g>
<!-- Node20&#45;&gt;Node21 -->
<g id="edge26" class="edge">
<title>Node20&#45;&gt;Node21</title>
<path fill="none" stroke="midnightblue" d="M1466.18,-52.46C1520.34,-38.77 1629.85,-19.14 1711,-57 1757.68,-78.78 1791.46,-131.48 1808.17,-162.69"/>
<polygon fill="midnightblue" stroke="midnightblue" points="1805.09,-164.36 1812.8,-171.62 1811.31,-161.13 1805.09,-164.36"/>
</g>
<!-- Node23 -->
<g id="node23" class="node">
<title>Node23</title>
<g id="a_node23"><a xlink:href="classwmtk_1_1_edge_mesh.html#a7423c40cccd7e240dfa9bd0b5c0e3185" target="_top" xlink:title=" ">
<polygon fill="none" stroke="black" points="1574.5,-302 1574.5,-332 1689.5,-332 1689.5,-302 1574.5,-302"/>
<text text-anchor="start" x="1582.5" y="-320" font-family="Helvetica,sans-Serif" font-size="10.00">wmtk::EdgeMesh::is</text>
<text text-anchor="middle" x="1632" y="-309" font-family="Helvetica,sans-Serif" font-size="10.00">_boundary_vertex</text>
</a>
</g>
</g>
<!-- Node22&#45;&gt;Node23 -->
<g id="edge28" class="edge">
<title>Node22&#45;&gt;Node23</title>
<path fill="none" stroke="midnightblue" d="M1507.57,-315.13C1526.17,-315.41 1545.99,-315.71 1564.19,-315.99"/>
<polygon fill="midnightblue" stroke="midnightblue" points="1564.35,-319.49 1574.4,-316.14 1564.46,-312.49 1564.35,-319.49"/>
</g>
<!-- Node22&#45;&gt;Node28 -->
<g id="edge36" class="edge">
<title>Node22&#45;&gt;Node28</title>
<path fill="none" stroke="midnightblue" d="M1452.83,-329.14C1475.86,-346.13 1515.5,-373.6 1553,-391 1557.09,-392.9 1561.36,-394.69 1565.71,-396.38"/>
<polygon fill="midnightblue" stroke="midnightblue" points="1564.73,-399.75 1575.33,-399.91 1567.15,-393.18 1564.73,-399.75"/>
</g>
<!-- Node29 -->
<g id="node29" class="node">
<title>Node29</title>
<g id="a_node29"><a xlink:href="classwmtk_1_1_mesh.html#a33805489402321155d4a1f7023faaf3a" target="_top" xlink:title=" ">
<polygon fill="none" stroke="black" points="1560.5,-263.5 1560.5,-282.5 1703.5,-282.5 1703.5,-263.5 1560.5,-263.5"/>
<text text-anchor="middle" x="1632" y="-270.5" font-family="Helvetica,sans-Serif" font-size="10.00">wmtk::Mesh::switch_edge</text>
</a>
</g>
</g>
<!-- Node22&#45;&gt;Node29 -->
<g id="edge37" class="edge">
<title>Node22&#45;&gt;Node29</title>
<path fill="none" stroke="midnightblue" d="M1505.6,-298.97C1528.47,-294.23 1553.36,-289.08 1574.9,-284.62"/>
<polygon fill="midnightblue" stroke="midnightblue" points="1575.78,-288.01 1584.86,-282.55 1574.36,-281.15 1575.78,-288.01"/>
</g>
<!-- Node22&#45;&gt;Node30 -->
<g id="edge39" class="edge">
<title>Node22&#45;&gt;Node30</title>
<path fill="none" stroke="midnightblue" d="M1490.27,-329.04C1513.36,-335.1 1540.15,-342.14 1564.13,-348.44"/>
<polygon fill="midnightblue" stroke="midnightblue" points="1563.3,-351.84 1573.86,-350.99 1565.08,-345.07 1563.3,-351.84"/>
</g>
<!-- Node24 -->
<g id="node24" class="node">
<title>Node24</title>
<g id="a_node24"><a xlink:href="classwmtk_1_1_mesh.html#abbb1c54cfd6ec17f4730317ee5fab78d" target="_top" xlink:title=" ">
<polygon fill="none" stroke="black" points="1747,-279.5 1747,-298.5 1895,-298.5 1895,-279.5 1747,-279.5"/>
<text text-anchor="middle" x="1821" y="-286.5" font-family="Helvetica,sans-Serif" font-size="10.00">wmtk::Mesh::is_valid_slow</text>
</a>
</g>
</g>
<!-- Node23&#45;&gt;Node24 -->
<g id="edge29" class="edge">
<title>Node23&#45;&gt;Node24</title>
<path fill="none" stroke="midnightblue" d="M1689.61,-308.52C1707.47,-305.85 1727.47,-302.85 1746.34,-300.03"/>
<polygon fill="midnightblue" stroke="midnightblue" points="1747.01,-303.47 1756.38,-298.53 1745.98,-296.54 1747.01,-303.47"/>
</g>
<!-- Node25 -->
<g id="node25" class="node">
<title>Node25</title>
<g id="a_node25"><a xlink:href="classwmtk_1_1_mesh.html#a92666fa5c4c8b680e9b4a9b3755689f0" target="_top" xlink:title=" ">
<polygon fill="none" stroke="black" points="1931,-174 1931,-204 2061,-204 2061,-174 1931,-174"/>
<text text-anchor="start" x="1939" y="-192" font-family="Helvetica,sans-Serif" font-size="10.00">wmtk::Mesh::get_const</text>
<text text-anchor="middle" x="1996" y="-181" font-family="Helvetica,sans-Serif" font-size="10.00">_cell_hash_accessor</text>
</a>
</g>
</g>
<!-- Node24&#45;&gt;Node25 -->
<g id="edge30" class="edge">
<title>Node24&#45;&gt;Node25</title>
<path fill="none" stroke="midnightblue" d="M1838.59,-279.41C1866.42,-263.32 1923.1,-230.56 1960.04,-209.21"/>
<polygon fill="midnightblue" stroke="midnightblue" points="1962.07,-212.08 1968.98,-204.04 1958.57,-206.02 1962.07,-212.08"/>
</g>
<!-- Node27 -->
<g id="node27" class="node">
<title>Node27</title>
<g id="a_node27"><a xlink:href="classwmtk_1_1_mesh.html#a8c09a3ed591ffbb0e59c83948970d121" target="_top" xlink:title="check validity of tuple including its hash">
<polygon fill="none" stroke="black" points="1936,-279.5 1936,-298.5 2056,-298.5 2056,-279.5 1936,-279.5"/>
<text text-anchor="middle" x="1996" y="-286.5" font-family="Helvetica,sans-Serif" font-size="10.00">wmtk::Mesh::is_valid</text>
</a>
</g>
</g>
<!-- Node24&#45;&gt;Node27 -->
<g id="edge35" class="edge">
<title>Node24&#45;&gt;Node27</title>
<path fill="none" stroke="midnightblue" d="M1895.12,-289C1905.18,-289 1915.49,-289 1925.48,-289"/>
<polygon fill="midnightblue" stroke="midnightblue" points="1925.76,-292.5 1935.76,-289 1925.76,-285.5 1925.76,-292.5"/>
</g>
<!-- Node26 -->
<g id="node26" class="node">
<title>Node26</title>
<g id="a_node26"><a xlink:href="classwmtk_1_1_mesh.html#aec980d09bb50f645d6c1c5e604e091c6" target="_top" xlink:title=" ">
<polygon fill="none" stroke="black" points="2097,-146 2097,-176 2210,-176 2210,-146 2097,-146"/>
<text text-anchor="start" x="2105" y="-164" font-family="Helvetica,sans-Serif" font-size="10.00">wmtk::Mesh::create</text>
<text text-anchor="middle" x="2153.5" y="-153" font-family="Helvetica,sans-Serif" font-size="10.00">_const_accessor</text>
</a>
</g>
</g>
<!-- Node25&#45;&gt;Node26 -->
<g id="edge31" class="edge">
<title>Node25&#45;&gt;Node26</title>
<path fill="none" stroke="midnightblue" d="M2061.15,-177.45C2069.68,-175.91 2078.45,-174.33 2087.01,-172.79"/>
<polygon fill="midnightblue" stroke="midnightblue" points="2087.72,-176.22 2096.94,-171 2086.48,-169.33 2087.72,-176.22"/>
</g>
<!-- Node26&#45;&gt;Node14 -->
<g id="edge32" class="edge">
<title>Node26&#45;&gt;Node14</title>
<path fill="none" stroke="midnightblue" d="M2190.16,-145.99C2196.85,-142.88 2203.71,-139.48 2210,-136 2226.82,-126.69 2228.57,-120.11 2246,-112 2250.26,-110.02 2254.71,-108.16 2259.25,-106.43"/>
<polygon fill="midnightblue" stroke="midnightblue" points="2260.44,-109.72 2268.67,-103.05 2258.07,-103.14 2260.44,-109.72"/>
</g>
<!-- Node26&#45;&gt;Node15 -->
<g id="edge33" class="edge">
<title>Node26&#45;&gt;Node15</title>
<path fill="none" stroke="midnightblue" d="M2210.03,-168.98C2218.34,-170.17 2227.1,-171.43 2235.93,-172.7"/>
<polygon fill="midnightblue" stroke="midnightblue" points="2235.51,-176.18 2245.91,-174.13 2236.51,-169.25 2235.51,-176.18"/>
</g>
<!-- Node26&#45;&gt;Node16 -->
<g id="edge34" class="edge">
<title>Node26&#45;&gt;Node16</title>
<path fill="none" stroke="midnightblue" d="M2210.03,-153.34C2218.34,-152.19 2227.1,-150.99 2235.93,-149.77"/>
<polygon fill="midnightblue" stroke="midnightblue" points="2236.48,-153.23 2245.91,-148.39 2235.52,-146.29 2236.48,-153.23"/>
</g>
<!-- Node29&#45;&gt;Node21 -->
<g id="edge38" class="edge">
<title>Node29&#45;&gt;Node21</title>
<path fill="none" stroke="midnightblue" d="M1679.52,-263.45C1690.07,-260.64 1701.08,-257.17 1711,-253 1739.68,-240.95 1769.74,-222.22 1791.01,-207.79"/>
<polygon fill="midnightblue" stroke="midnightblue" points="1793.03,-210.65 1799.28,-202.1 1789.06,-204.89 1793.03,-210.65"/>
</g>
<!-- Node32 -->
<g id="node32" class="node">
<title>Node32</title>
<g id="a_node32"><a xlink:href="classwmtk_1_1_mesh.html#ac1e12857f52985bd548a968a4c819659" target="_top" xlink:title=" ">
<polygon fill="none" stroke="black" points="1571.5,-165 1571.5,-195 1692.5,-195 1692.5,-165 1571.5,-165"/>
<text text-anchor="start" x="1579.5" y="-183" font-family="Helvetica,sans-Serif" font-size="10.00">wmtk::Mesh::top_cell</text>
<text text-anchor="middle" x="1632" y="-172" font-family="Helvetica,sans-Serif" font-size="10.00">_dimension</text>
</a>
</g>
</g>
<!-- Node31&#45;&gt;Node32 -->
<g id="edge41" class="edge">
<title>Node31&#45;&gt;Node32</title>
<path fill="none" stroke="midnightblue" d="M1517.26,-180.57C1531.91,-180.5 1547,-180.42 1561.21,-180.35"/>
<polygon fill="midnightblue" stroke="midnightblue" points="1561.41,-183.85 1571.39,-180.3 1561.37,-176.85 1561.41,-183.85"/>
</g>
<!-- Node34 -->
<g id="node34" class="node">
<title>Node34</title>
<g id="a_node34"><a xlink:href="namespacewmtk_1_1multimesh_1_1utils.html#a99cdf56ec6abe68409d30e0b67f4ce82" target="_top" xlink:title=" ">
<polygon fill="none" stroke="black" points="1553,-67 1553,-97 1711,-97 1711,-67 1553,-67"/>
<text text-anchor="start" x="1561" y="-85" font-family="Helvetica,sans-Serif" font-size="10.00">wmtk::multimesh::utils</text>
<text text-anchor="middle" x="1632" y="-74" font-family="Helvetica,sans-Serif" font-size="10.00">::find_local_switch_sequence</text>
</a>
</g>
</g>
<!-- Node33&#45;&gt;Node34 -->
<g id="edge43" class="edge">
<title>Node33&#45;&gt;Node34</title>
<path fill="none" stroke="midnightblue" d="M1493.75,-115.97C1514.85,-110.74 1538.68,-104.85 1560.5,-99.45"/>
<polygon fill="midnightblue" stroke="midnightblue" points="1561.5,-102.81 1570.36,-97.01 1559.81,-96.01 1561.5,-102.81"/>
</g>
<!-- Node35 -->
<g id="node35" class="node">
<title>Node35</title>
<g id="a_node35"><a xlink:href="namespacewmtk_1_1multimesh_1_1utils.html#af71d6d20a76616d671ae5f53350107b4" target="_top" xlink:title=" ">
<polygon fill="none" stroke="black" points="1567,-116 1567,-146 1697,-146 1697,-116 1567,-116"/>
<text text-anchor="start" x="1575" y="-134" font-family="Helvetica,sans-Serif" font-size="10.00">wmtk::multimesh::utils</text>
<text text-anchor="middle" x="1632" y="-123" font-family="Helvetica,sans-Serif" font-size="10.00">::local_switch_tuples</text>
</a>
</g>
</g>
<!-- Node33&#45;&gt;Node35 -->
<g id="edge44" class="edge">
<title>Node33&#45;&gt;Node35</title>
<path fill="none" stroke="midnightblue" d="M1497.01,-131C1516.06,-131 1537.1,-131 1556.74,-131"/>
<polygon fill="midnightblue" stroke="midnightblue" points="1556.87,-134.5 1566.87,-131 1556.87,-127.5 1556.87,-134.5"/>
</g>
</g>
</svg>
