<?xml version="1.0" encoding="UTF-8" standalone="no"?>
<!DOCTYPE svg PUBLIC "-//W3C//DTD SVG 1.1//EN"
 "http://www.w3.org/Graphics/SVG/1.1/DTD/svg11.dtd">
<!-- Generated by graphviz version 2.43.0 (0)
 -->
<!-- Title: src/wmtk/simplex/cofaces_single_dimension.hpp Pages: 1 -->
<!--zoomable 117 -->
<svg id="main" version="1.1" xmlns="http://www.w3.org/2000/svg" xmlns:xlink="http://www.w3.org/1999/xlink" xml:space="preserve" onload="init(evt)">
<style type="text/css"><![CDATA[
.edge:hover path { stroke: red; }
.edge:hover polygon { stroke: red; fill: red; }
]]></style>
<script type="text/javascript"><![CDATA[
var edges = document.getElementsByTagName('g');
if (edges && edges.length) {
  for (var i=0;i<edges.length;i++) {
    if (edges[i].id.substr(0,4)=='edge') {
      edges[i].setAttribute('class','edge');
    }
  }
}
]]></script>
        <defs>
                <circle id="rim" cx="0" cy="0" r="7"/>
                <circle id="rim2" cx="0" cy="0" r="3.5"/>
                <g id="zoomPlus">
                        <use xlink:href="#rim" fill="#404040">
                                <set attributeName="fill" to="#808080" begin="zoomplus.mouseover" end="zoomplus.mouseout"/>
                        </use>
                        <path d="M-4,0h8M0,-4v8" fill="none" stroke="white" stroke-width="1.5" pointer-events="none"/>
                </g>
                <g id="zoomMin">
                        <use xlink:href="#rim" fill="#404040">
                                <set attributeName="fill" to="#808080" begin="zoomminus.mouseover" end="zoomminus.mouseout"/>
                        </use>
                        <path d="M-4,0h8" fill="none" stroke="white" stroke-width="1.5" pointer-events="none"/>
                </g>
                <g id="dirArrow">
                        <path fill="none" stroke="white" stroke-width="1.5" d="M0,-3.0v7 M-2.5,-0.5L0,-3.0L2.5,-0.5"/>
                </g>
               <g id="resetDef">
                       <use xlink:href="#rim2" fill="#404040">
                               <set attributeName="fill" to="#808080" begin="reset.mouseover" end="reset.mouseout"/>
                       </use>
               </g>
        </defs>

<script type="text/javascript">
var viewWidth = 1893;
var viewHeight = 117;
var sectionId = 'dynsection-1';
</script>
<script xlink:href="svgpan.js"/>
<svg id="graph" class="graph">
<g id="viewport">
<title>src/wmtk/simplex/cofaces_single_dimension.hpp</title>
<!-- Node1 -->
<g id="node1" class="node">
<title>Node1</title>
<g id="a_node1"><a xlink:title=" ">
<polygon fill="#bfbfbf" stroke="black" points="931,-78.5 931,-108.5 1075,-108.5 1075,-78.5 931,-78.5"/>
<text text-anchor="start" x="939" y="-96.5" font-family="Helvetica,sans-Serif" font-size="10.00">src/wmtk/simplex/cofaces</text>
<text text-anchor="middle" x="1003" y="-85.5" font-family="Helvetica,sans-Serif" font-size="10.00">_single_dimension.hpp</text>
</a>
</g>
</g>
<!-- Node2 -->
<g id="node2" class="node">
<title>Node2</title>
<g id="a_node2"><a xlink:href="_local_neighbors_sum_function_8cpp.html" target="_top" xlink:title=" ">
<polygon fill="none" stroke="black" points="0,-6 0,-36 182,-36 182,-6 0,-6"/>
<text text-anchor="start" x="8" y="-24" font-family="Helvetica,sans-Serif" font-size="10.00">src/wmtk/function/LocalNeighbors</text>
<text text-anchor="middle" x="91" y="-13" font-family="Helvetica,sans-Serif" font-size="10.00">SumFunction.cpp</text>
</a>
</g>
</g>
<!-- Node1&#45;&gt;Node2 -->
<g id="edge1" class="edge">
<title>Node1&#45;&gt;Node2</title>
<path fill="none" stroke="midnightblue" d="M920.71,-91.06C773.66,-87.66 456.34,-76.62 191,-42 179.15,-40.45 166.6,-38.33 154.53,-36.05"/>
<polygon fill="midnightblue" stroke="midnightblue" points="920.92,-94.56 931,-91.29 921.08,-87.56 920.92,-94.56"/>
</g>
<!-- Node3 -->
<g id="node3" class="node">
<title>Node3</title>
<g id="a_node3"><a xlink:href="_tet_mesh_substructure_topology_preserving_invariant_8cpp.html" target="_top" xlink:title=" ">
<polygon fill="none" stroke="black" points="200.5,-0.5 200.5,-41.5 365.5,-41.5 365.5,-0.5 200.5,-0.5"/>
<text text-anchor="start" x="208.5" y="-29.5" font-family="Helvetica,sans-Serif" font-size="10.00">src/wmtk/invariants</text>
<text text-anchor="start" x="208.5" y="-18.5" font-family="Helvetica,sans-Serif" font-size="10.00">/TetMeshSubstructureTopology</text>
<text text-anchor="middle" x="283" y="-7.5" font-family="Helvetica,sans-Serif" font-size="10.00">PreservingInvariant.cpp</text>
</a>
</g>
</g>
<!-- Node1&#45;&gt;Node3 -->
<g id="edge2" class="edge">
<title>Node1&#45;&gt;Node3</title>
<path fill="none" stroke="midnightblue" d="M920.34,-89.38C799.87,-84.04 569.23,-70.79 375,-42 371.93,-41.54 368.81,-41.05 365.66,-40.52"/>
<polygon fill="midnightblue" stroke="midnightblue" points="920.45,-92.89 930.59,-89.83 920.75,-85.89 920.45,-92.89"/>
</g>
<!-- Node4 -->
<g id="node4" class="node">
<title>Node4</title>
<g id="a_node4"><a xlink:href="_tri_mesh_substructure_topology_preserving_invariant_8cpp.html" target="_top" xlink:title=" ">
<polygon fill="none" stroke="black" points="384,-0.5 384,-41.5 546,-41.5 546,-0.5 384,-0.5"/>
<text text-anchor="start" x="392" y="-29.5" font-family="Helvetica,sans-Serif" font-size="10.00">src/wmtk/invariants</text>
<text text-anchor="start" x="392" y="-18.5" font-family="Helvetica,sans-Serif" font-size="10.00">/TriMeshSubstructureTopology</text>
<text text-anchor="middle" x="465" y="-7.5" font-family="Helvetica,sans-Serif" font-size="10.00">PreservingInvariant.cpp</text>
</a>
</g>
</g>
<!-- Node1&#45;&gt;Node4 -->
<g id="edge3" class="edge">
<title>Node1&#45;&gt;Node4</title>
<path fill="none" stroke="midnightblue" d="M920.74,-85.87C830.61,-78 681.93,-63.2 555,-42 552.16,-41.53 549.27,-41.02 546.36,-40.49"/>
<polygon fill="midnightblue" stroke="midnightblue" points="920.64,-89.38 930.9,-86.75 921.24,-82.4 920.64,-89.38"/>
</g>
<!-- Node5 -->
<g id="node5" class="node">
<title>Node5</title>
<g id="a_node5"><a xlink:href="_multi_mesh_manager_8cpp.html" target="_top" xlink:title=" ">
<polygon fill="none" stroke="black" points="564.5,-6 564.5,-36 697.5,-36 697.5,-6 564.5,-6"/>
<text text-anchor="start" x="572.5" y="-24" font-family="Helvetica,sans-Serif" font-size="10.00">src/wmtk/multimesh</text>
<text text-anchor="middle" x="631" y="-13" font-family="Helvetica,sans-Serif" font-size="10.00">/MultiMeshManager.cpp</text>
</a>
</g>
</g>
<!-- Node1&#45;&gt;Node5 -->
<g id="edge4" class="edge">
<title>Node1&#45;&gt;Node5</title>
<path fill="none" stroke="midnightblue" d="M920.77,-80.47C861.17,-71.26 778.77,-57.53 707,-42 698.87,-40.24 690.29,-38.18 681.95,-36.07"/>
<polygon fill="midnightblue" stroke="midnightblue" points="920.47,-83.96 930.88,-82.02 921.53,-77.04 920.47,-83.96"/>
</g>
<!-- Node6 -->
<g id="node6" class="node">
<title>Node6</title>
<g id="a_node6"><a xlink:href="_a_m_i_p_s_optimization_smoothing_8cpp.html" target="_top" xlink:title=" ">
<polygon fill="none" stroke="black" points="716,-6 716,-36 902,-36 902,-6 716,-6"/>
<text text-anchor="start" x="724" y="-24" font-family="Helvetica,sans-Serif" font-size="10.00">src/wmtk/operations</text>
<text text-anchor="middle" x="809" y="-13" font-family="Helvetica,sans-Serif" font-size="10.00">/AMIPSOptimizationSmoothing.cpp</text>
</a>
</g>
</g>
<!-- Node1&#45;&gt;Node6 -->
<g id="edge5" class="edge">
<title>Node1&#45;&gt;Node6</title>
<path fill="none" stroke="midnightblue" d="M954.75,-74.96C921.72,-62.96 878.5,-47.26 847.73,-36.07"/>
<polygon fill="midnightblue" stroke="midnightblue" points="953.61,-78.28 964.21,-78.4 956,-71.7 953.61,-78.28"/>
</g>
<!-- Node7 -->
<g id="node7" class="node">
<title>Node7</title>
<g id="a_node7"><a xlink:href="_a_m_i_p_s_optimization_smoothing_periodic_8cpp.html" target="_top" xlink:title=" ">
<polygon fill="none" stroke="black" points="920,-0.5 920,-41.5 1086,-41.5 1086,-0.5 920,-0.5"/>
<text text-anchor="start" x="928" y="-29.5" font-family="Helvetica,sans-Serif" font-size="10.00">src/wmtk/operations</text>
<text text-anchor="start" x="928" y="-18.5" font-family="Helvetica,sans-Serif" font-size="10.00">/AMIPSOptimizationSmoothing</text>
<text text-anchor="middle" x="1003" y="-7.5" font-family="Helvetica,sans-Serif" font-size="10.00">Periodic.cpp</text>
</a>
</g>
</g>
<!-- Node1&#45;&gt;Node7 -->
<g id="edge6" class="edge">
<title>Node1&#45;&gt;Node7</title>
<path fill="none" stroke="midnightblue" d="M1003,-67.98C1003,-59.35 1003,-49.76 1003,-41.59"/>
<polygon fill="midnightblue" stroke="midnightblue" points="999.5,-68.23 1003,-78.23 1006.5,-68.23 999.5,-68.23"/>
</g>
<!-- Node8 -->
<g id="node8" class="node">
<title>Node8</title>
<g id="a_node8"><a xlink:href="cofaces__single__dimension_8cpp.html" target="_top" xlink:title=" ">
<polygon fill="none" stroke="black" points="1104,-6 1104,-36 1248,-36 1248,-6 1104,-6"/>
<text text-anchor="start" x="1112" y="-24" font-family="Helvetica,sans-Serif" font-size="10.00">src/wmtk/simplex/cofaces</text>
<text text-anchor="middle" x="1176" y="-13" font-family="Helvetica,sans-Serif" font-size="10.00">_single_dimension.cpp</text>
</a>
</g>
</g>
<!-- Node1&#45;&gt;Node8 -->
<g id="edge7" class="edge">
<title>Node1&#45;&gt;Node8</title>
<path fill="none" stroke="midnightblue" d="M1047.17,-74.5C1076.47,-62.56 1114.37,-47.11 1141.47,-36.07"/>
<polygon fill="midnightblue" stroke="midnightblue" points="1045.53,-71.39 1037.59,-78.4 1048.17,-77.87 1045.53,-71.39"/>
</g>
<!-- Node9 -->
<g id="node9" class="node">
<title>Node9</title>
<g id="a_node9"><a xlink:href="link__condition_8cpp.html" target="_top" xlink:title=" ">
<polygon fill="none" stroke="black" points="1266.5,-6 1266.5,-36 1391.5,-36 1391.5,-6 1266.5,-6"/>
<text text-anchor="start" x="1274.5" y="-24" font-family="Helvetica,sans-Serif" font-size="10.00">src/wmtk/simplex/link</text>
<text text-anchor="middle" x="1329" y="-13" font-family="Helvetica,sans-Serif" font-size="10.00">_condition.cpp</text>
</a>
</g>
</g>
<!-- Node1&#45;&gt;Node9 -->
<g id="edge8" class="edge">
<title>Node1&#45;&gt;Node9</title>
<path fill="none" stroke="midnightblue" d="M1085.12,-77.78C1135.02,-68.44 1199.92,-55.58 1257,-42 1264.57,-40.2 1272.55,-38.14 1280.33,-36.05"/>
<polygon fill="midnightblue" stroke="midnightblue" points="1084.21,-74.39 1075.02,-79.66 1085.49,-81.27 1084.21,-74.39"/>
</g>
<!-- Node10 -->
<g id="node10" class="node">
<title>Node10</title>
<g id="a_node10"><a xlink:href="neighbors__single__dimension_8cpp.html" target="_top" xlink:title=" ">
<polygon fill="none" stroke="black" points="1409.5,-6 1409.5,-36 1564.5,-36 1564.5,-6 1409.5,-6"/>
<text text-anchor="start" x="1417.5" y="-24" font-family="Helvetica,sans-Serif" font-size="10.00">src/wmtk/simplex/neighbors</text>
<text text-anchor="middle" x="1487" y="-13" font-family="Helvetica,sans-Serif" font-size="10.00">_single_dimension.cpp</text>
</a>
</g>
</g>
<!-- Node1&#45;&gt;Node10 -->
<g id="edge9" class="edge">
<title>Node1&#45;&gt;Node10</title>
<path fill="none" stroke="midnightblue" d="M1085.34,-84.54C1166.09,-76.14 1292.52,-61.44 1401,-42 1410.51,-40.3 1420.54,-38.22 1430.27,-36.06"/>
<polygon fill="midnightblue" stroke="midnightblue" points="1084.82,-81.07 1075.24,-85.58 1085.54,-88.03 1084.82,-81.07"/>
</g>
<!-- Node11 -->
<g id="node11" class="node">
<title>Node11</title>
<g id="a_node11"><a xlink:href="_tet_mesh_8cpp.html" target="_top" xlink:title=" ">
<polygon fill="none" stroke="black" points="1582.5,-11.5 1582.5,-30.5 1707.5,-30.5 1707.5,-11.5 1582.5,-11.5"/>
<text text-anchor="middle" x="1645" y="-18.5" font-family="Helvetica,sans-Serif" font-size="10.00">src/wmtk/TetMesh.cpp</text>
</a>
</g>
</g>
<!-- Node1&#45;&gt;Node11 -->
<g id="edge10" class="edge">
<title>Node1&#45;&gt;Node11</title>
<path fill="none" stroke="midnightblue" d="M1085.41,-90.03C1196.99,-85.59 1401.95,-73.56 1574,-42 1589.12,-39.23 1605.66,-34.66 1618.97,-30.59"/>
<polygon fill="midnightblue" stroke="midnightblue" points="1085.1,-86.54 1075.24,-90.42 1085.37,-93.53 1085.1,-86.54"/>
</g>
<!-- Node12 -->
<g id="node12" class="node">
<title>Node12</title>
<g id="a_node12"><a xlink:href="internal_2_marching_8cpp.html" target="_top" xlink:title=" ">
<polygon fill="none" stroke="black" points="1725.5,-0.5 1725.5,-41.5 1884.5,-41.5 1884.5,-0.5 1725.5,-0.5"/>
<text text-anchor="start" x="1733.5" y="-29.5" font-family="Helvetica,sans-Serif" font-size="10.00">components/marching</text>
<text text-anchor="start" x="1733.5" y="-18.5" font-family="Helvetica,sans-Serif" font-size="10.00">/wmtk/components/marching</text>
<text text-anchor="middle" x="1805" y="-7.5" font-family="Helvetica,sans-Serif" font-size="10.00">/internal/Marching.cpp</text>
</a>
</g>
</g>
<!-- Node1&#45;&gt;Node12 -->
<g id="edge11" class="edge">
<title>Node1&#45;&gt;Node12</title>
<path fill="none" stroke="midnightblue" d="M1085.23,-90.76C1218.54,-87.03 1489.82,-75.65 1717,-42 1719.79,-41.59 1722.62,-41.13 1725.48,-40.65"/>
<polygon fill="midnightblue" stroke="midnightblue" points="1085,-87.27 1075.1,-91.04 1085.19,-94.26 1085,-87.27"/>
</g>
</g>
</svg>
        <g id="navigator" transform="translate(0 0)" fill="#404254">
                <rect fill="#f2f5e9" fill-opacity="0.5" stroke="#606060" stroke-width=".5" x="0" y="0" width="60" height="60"/>
                <use id="zoomplus" xlink:href="#zoomPlus" x="17" y="9" onmousedown="handleZoom(evt,'in')"/>
                <use id="zoomminus" xlink:href="#zoomMin" x="42" y="9" onmousedown="handleZoom(evt,'out')"/>
                <use id="reset" xlink:href="#resetDef" x="30" y="36" onmousedown="handleReset()"/>
                <g id="arrowUp" xlink:href="#dirArrow" transform="translate(30 24)" onmousedown="handlePan(0,-1)">
                  <use xlink:href="#rim" fill="#404040">
                        <set attributeName="fill" to="#808080" begin="arrowUp.mouseover" end="arrowUp.mouseout"/>
                  </use>
                  <path fill="none" stroke="white" stroke-width="1.5" d="M0,-3.0v7 M-2.5,-0.5L0,-3.0L2.5,-0.5"/>
                </g>
                <g id="arrowRight" xlink:href="#dirArrow" transform="rotate(90) translate(36 -43)" onmousedown="handlePan(1,0)">
                  <use xlink:href="#rim" fill="#404040">
                        <set attributeName="fill" to="#808080" begin="arrowRight.mouseover" end="arrowRight.mouseout"/>
                  </use>
                  <path fill="none" stroke="white" stroke-width="1.5" d="M0,-3.0v7 M-2.5,-0.5L0,-3.0L2.5,-0.5"/>
                </g>
                <g id="arrowDown" xlink:href="#dirArrow" transform="rotate(180) translate(-30 -48)" onmousedown="handlePan(0,1)">
                  <use xlink:href="#rim" fill="#404040">
                        <set attributeName="fill" to="#808080" begin="arrowDown.mouseover" end="arrowDown.mouseout"/>
                  </use>
                  <path fill="none" stroke="white" stroke-width="1.5" d="M0,-3.0v7 M-2.5,-0.5L0,-3.0L2.5,-0.5"/>
                </g>
                <g id="arrowLeft" xlink:href="#dirArrow" transform="rotate(270) translate(-36 17)" onmousedown="handlePan(-1,0)">
                  <use xlink:href="#rim" fill="#404040">
                        <set attributeName="fill" to="#808080" begin="arrowLeft.mouseover" end="arrowLeft.mouseout"/>
                  </use>
                  <path fill="none" stroke="white" stroke-width="1.5" d="M0,-3.0v7 M-2.5,-0.5L0,-3.0L2.5,-0.5"/>
                </g>
        </g>
        <svg viewBox="0 0 15 15" width="100%" height="30px" preserveAspectRatio="xMaxYMin meet">
         <g id="arrow_out" transform="scale(0.3 0.3)">
          <a xlink:href="cofaces__single__dimension_8hpp__dep__incl_org.svg" target="_base">
           <rect id="button" ry="5" rx="5" y="6" x="6" height="38" width="38"
                fill="#f2f5e9" fill-opacity="0.5" stroke="#606060" stroke-width="1.0"/>
           <path id="arrow"
             d="M 11.500037,31.436501 C 11.940474,20.09759 22.043105,11.32322 32.158766,21.979434 L 37.068811,17.246167 C 37.068811,17.246167 37.088388,32 37.088388,32 L 22.160133,31.978069 C 22.160133,31.978069 26.997745,27.140456 26.997745,27.140456 C 18.528582,18.264221 13.291696,25.230495 11.500037,31.436501 z"
             style="fill:#404040;"/>
          </a>
         </g>
        </svg>
</svg>
