<?xml version="1.0" encoding="UTF-8" standalone="no"?>
<!DOCTYPE svg PUBLIC "-//W3C//DTD SVG 1.1//EN"
 "http://www.w3.org/Graphics/SVG/1.1/DTD/svg11.dtd">
<!-- Generated by graphviz version 2.43.0 (0)
 -->
<!-- Title: components/delaunay/wmtk/components/delaunay/internal/delaunay_3d.hpp Pages: 1 -->
<svg width="283pt" height="214pt"
 viewBox="0.00 0.00 282.50 214.00" xmlns="http://www.w3.org/2000/svg" xmlns:xlink="http://www.w3.org/1999/xlink">
<g id="graph0" class="graph" transform="scale(1 1) rotate(0) translate(4 210)">
<title>components/delaunay/wmtk/components/delaunay/internal/delaunay_3d.hpp</title>
<!-- Node1 -->
<g id="Node000001" class="node">
<title>Node1</title>
<g id="a_Node000001"><a xlink:title=" ">
<polygon fill="#999999" stroke="#666666" points="160.5,-206 2.5,-206 2.5,-165 160.5,-165 160.5,-206"/>
<text text-anchor="start" x="10.5" y="-194" font-family="Helvetica,sans-Serif" font-size="10.00">components/delaunay</text>
<text text-anchor="start" x="10.5" y="-183" font-family="Helvetica,sans-Serif" font-size="10.00">/wmtk/components/delaunay</text>
<text text-anchor="middle" x="81.5" y="-172" font-family="Helvetica,sans-Serif" font-size="10.00">/internal/delaunay_3d.hpp</text>
</a>
</g>
</g>
<!-- Node2 -->
<g id="Node000002" class="node">
<title>Node2</title>
<g id="a_Node000002"><a xlink:href="_types_8hpp.html" target="_top" xlink:title=" ">
<polygon fill="white" stroke="#666666" points="129.5,-129 33.5,-129 33.5,-110 129.5,-110 129.5,-129"/>
<text text-anchor="middle" x="81.5" y="-117" font-family="Helvetica,sans-Serif" font-size="10.00">wmtk/Types.hpp</text>
</a>
</g>
</g>
<!-- Node1&#45;&gt;Node2 -->
<g id="edge1_Node000001_Node000002" class="edge">
<title>Node1&#45;&gt;Node2</title>
<g id="a_edge1_Node000001_Node000002"><a xlink:title=" ">
<path fill="none" stroke="#63b8ff" d="M81.5,-164.95C81.5,-156.85 81.5,-147.5 81.5,-139.47"/>
<polygon fill="#63b8ff" stroke="#63b8ff" points="85,-139.26 81.5,-129.26 78,-139.26 85,-139.26"/>
</a>
</g>
</g>
<!-- Node3 -->
<g id="Node000003" class="node">
<title>Node3</title>
<g id="a_Node000003"><a xlink:title=" ">
<polygon fill="#e0e0e0" stroke="#999999" points="69,-19 0,-19 0,0 69,0 69,-19"/>
<text text-anchor="middle" x="34.5" y="-7" font-family="Helvetica,sans-Serif" font-size="10.00">Eigen/Core</text>
</a>
</g>
</g>
<!-- Node2&#45;&gt;Node3 -->
<g id="edge2_Node000002_Node000003" class="edge">
<title>Node2&#45;&gt;Node3</title>
<g id="a_edge2_Node000002_Node000003"><a xlink:title=" ">
<path fill="none" stroke="#63b8ff" d="M74.95,-109.7C68.73,-101.01 59.46,-87.13 53.5,-74 46.95,-59.57 41.95,-42.3 38.73,-29.41"/>
<polygon fill="#63b8ff" stroke="#63b8ff" points="42.07,-28.32 36.36,-19.4 35.25,-29.94 42.07,-28.32"/>
</a>
</g>
</g>
<!-- Node4 -->
<g id="Node000004" class="node">
<title>Node4</title>
<g id="a_Node000004"><a xlink:href="_rational_8hpp.html" target="_top" xlink:title=" ">
<polygon fill="white" stroke="#666666" points="196,-74 63,-74 63,-55 196,-55 196,-74"/>
<text text-anchor="middle" x="129.5" y="-62" font-family="Helvetica,sans-Serif" font-size="10.00">wmtk/utils/Rational.hpp</text>
</a>
</g>
</g>
<!-- Node2&#45;&gt;Node4 -->
<g id="edge3_Node000002_Node000004" class="edge">
<title>Node2&#45;&gt;Node4</title>
<g id="a_edge3_Node000002_Node000004"><a xlink:title=" ">
<path fill="none" stroke="#63b8ff" d="M89.43,-109.75C96.35,-102.11 106.57,-90.82 114.95,-81.56"/>
<polygon fill="#63b8ff" stroke="#63b8ff" points="117.6,-83.85 121.72,-74.09 112.41,-79.15 117.6,-83.85"/>
</a>
</g>
</g>
<!-- Node4&#45;&gt;Node3 -->
<g id="edge4_Node000004_Node000003" class="edge">
<title>Node4&#45;&gt;Node3</title>
<g id="a_edge4_Node000004_Node000003"><a xlink:title=" ">
<path fill="none" stroke="#63b8ff" d="M114.24,-54.98C99.37,-46.69 76.52,-33.94 59.08,-24.22"/>
<polygon fill="#63b8ff" stroke="#63b8ff" points="60.48,-20.99 50.04,-19.17 57.07,-27.1 60.48,-20.99"/>
</a>
</g>
</g>
<!-- Node5 -->
<g id="Node000005" class="node">
<title>Node5</title>
<g id="a_Node000005"><a xlink:title=" ">
<polygon fill="#e0e0e0" stroke="#999999" points="134,-19 87,-19 87,0 134,0 134,-19"/>
<text text-anchor="middle" x="110.5" y="-7" font-family="Helvetica,sans-Serif" font-size="10.00">gmp.h</text>
</a>
</g>
</g>
<!-- Node4&#45;&gt;Node5 -->
<g id="edge5_Node000004_Node000005" class="edge">
<title>Node4&#45;&gt;Node5</title>
<g id="a_edge5_Node000004_Node000005"><a xlink:title=" ">
<path fill="none" stroke="#63b8ff" d="M126.36,-54.75C123.82,-47.65 120.14,-37.4 116.97,-28.56"/>
<polygon fill="#63b8ff" stroke="#63b8ff" points="120.25,-27.32 113.58,-19.09 113.66,-29.68 120.25,-27.32"/>
</a>
</g>
</g>
<!-- Node6 -->
<g id="Node000006" class="node">
<title>Node6</title>
<g id="a_Node000006"><a xlink:title=" ">
<polygon fill="#e0e0e0" stroke="#999999" points="212.5,-19 152.5,-19 152.5,0 212.5,0 212.5,-19"/>
<text text-anchor="middle" x="182.5" y="-7" font-family="Helvetica,sans-Serif" font-size="10.00">iostream</text>
</a>
</g>
</g>
<!-- Node4&#45;&gt;Node6 -->
<g id="edge6_Node000004_Node000006" class="edge">
<title>Node4&#45;&gt;Node6</title>
<g id="a_edge6_Node000004_Node000006"><a xlink:title=" ">
<path fill="none" stroke="#63b8ff" d="M138.25,-54.75C145.97,-47.03 157.4,-35.6 166.72,-26.28"/>
<polygon fill="#63b8ff" stroke="#63b8ff" points="169.31,-28.64 173.91,-19.09 164.36,-23.69 169.31,-28.64"/>
</a>
</g>
</g>
<!-- Node7 -->
<g id="Node000007" class="node">
<title>Node7</title>
<g id="a_Node000007"><a xlink:title=" ">
<polygon fill="#e0e0e0" stroke="#999999" points="274.5,-19 230.5,-19 230.5,0 274.5,0 274.5,-19"/>
<text text-anchor="middle" x="252.5" y="-7" font-family="Helvetica,sans-Serif" font-size="10.00">string</text>
</a>
</g>
</g>
<!-- Node4&#45;&gt;Node7 -->
<g id="edge7_Node000004_Node000007" class="edge">
<title>Node4&#45;&gt;Node7</title>
<g id="a_edge7_Node000004_Node000007"><a xlink:title=" ">
<path fill="none" stroke="#63b8ff" d="M149.26,-54.98C169.23,-46.38 200.3,-32.99 223.15,-23.15"/>
<polygon fill="#63b8ff" stroke="#63b8ff" points="224.58,-26.34 232.38,-19.17 221.81,-19.91 224.58,-26.34"/>
</a>
</g>
</g>
</g>
</svg>
