<?xml version="1.0" encoding="UTF-8" standalone="no"?>
<!DOCTYPE svg PUBLIC "-//W3C//DTD SVG 1.1//EN"
 "http://www.w3.org/Graphics/SVG/1.1/DTD/svg11.dtd">
<!-- Generated by graphviz version 2.43.0 (0)
 -->
<!-- Title: src/wmtk/operations/utils Pages: 1 -->
<svg width="424pt" height="439pt"
 viewBox="0.00 0.00 423.80 439.00" xmlns="http://www.w3.org/2000/svg" xmlns:xlink="http://www.w3.org/1999/xlink">
<g id="graph0" class="graph" transform="scale(1 1) rotate(0) translate(4 435)">
<title>src/wmtk/operations/utils</title>
<g id="clust1" class="cluster">
<title>clusterdir_cce1e74d6889f0f8c282b81d2e706218</title>
<g id="a_clust1"><a xlink:href="dir_cce1e74d6889f0f8c282b81d2e706218.html" target="_top" xlink:title="operations">
<polygon fill="#ddddee" stroke="black" points="222,-136 222,-423 389,-423 389,-136 222,-136"/>
<text text-anchor="middle" x="305.5" y="-411" font-family="Helvetica,sans-Serif" font-size="10.00">operations</text>
</a>
</g>
</g>
<!-- dir_0cb6cbd7421036abeba21b97678f2726 -->
<g id="node1" class="node">
<title>dir_0cb6cbd7421036abeba21b97678f2726</title>
<g id="a_node1"><a xlink:href="dir_0cb6cbd7421036abeba21b97678f2726.html" target="_top" xlink:title="attribute_new">
<polygon fill="none" stroke="black" points="340,-252 256,-252 256,-216 340,-216 340,-252"/>
<text text-anchor="middle" x="298" y="-231.5" font-family="Helvetica,sans-Serif" font-size="10.00">attribute_new</text>
</a>
</g>
</g>
<!-- dir_d2a8dd70deef9b045ca1207fab048779 -->
<g id="node3" class="node">
<title>dir_d2a8dd70deef9b045ca1207fab048779</title>
<g id="a_node3"><a xlink:href="dir_d2a8dd70deef9b045ca1207fab048779.html" target="_top" xlink:title="tri_mesh">
<polygon fill="none" stroke="black" points="289.5,-180 230.5,-180 230.5,-144 289.5,-144 289.5,-180"/>
<text text-anchor="middle" x="260" y="-159.5" font-family="Helvetica,sans-Serif" font-size="10.00">tri_mesh</text>
</a>
</g>
</g>
<!-- dir_0cb6cbd7421036abeba21b97678f2726&#45;&gt;dir_d2a8dd70deef9b045ca1207fab048779 -->
<g id="edge24" class="edge">
<title>dir_0cb6cbd7421036abeba21b97678f2726&#45;&gt;dir_d2a8dd70deef9b045ca1207fab048779</title>
<path fill="none" stroke="black" d="M282.69,-215.7C277.54,-207.73 272.1,-198.1 267.7,-189.26"/>
<polygon fill="black" stroke="black" points="270.81,-187.66 263.39,-180.1 264.48,-190.64 270.81,-187.66"/>
<g id="a_edge24&#45;headlabel"><a xlink:href="dir_000048_000051.html" target="_top" xlink:title="2">
<text text-anchor="middle" x="274.91" y="-187.21" font-family="Helvetica,sans-Serif" font-size="10.00">2</text>
</a>
</g>
</g>
<!-- dir_e920b347c556ff0a6c2062ff4f2a2c53 -->
<g id="node4" class="node">
<title>dir_e920b347c556ff0a6c2062ff4f2a2c53</title>
<g id="a_node4"><a xlink:href="dir_e920b347c556ff0a6c2062ff4f2a2c53.html" target="_top" xlink:title="edge_mesh">
<polygon fill="none" stroke="black" points="380.5,-180 307.5,-180 307.5,-144 380.5,-144 380.5,-180"/>
<text text-anchor="middle" x="344" y="-159.5" font-family="Helvetica,sans-Serif" font-size="10.00">edge_mesh</text>
</a>
</g>
</g>
<!-- dir_0cb6cbd7421036abeba21b97678f2726&#45;&gt;dir_e920b347c556ff0a6c2062ff4f2a2c53 -->
<g id="edge25" class="edge">
<title>dir_0cb6cbd7421036abeba21b97678f2726&#45;&gt;dir_e920b347c556ff0a6c2062ff4f2a2c53</title>
<path fill="none" stroke="black" d="M303.46,-215.7C308.01,-207.47 314.37,-197.48 320.77,-188.42"/>
<polygon fill="black" stroke="black" points="323.78,-190.24 326.86,-180.1 318.13,-186.1 323.78,-190.24"/>
<g id="a_edge25&#45;headlabel"><a xlink:href="dir_000048_000049.html" target="_top" xlink:title="2">
<text text-anchor="middle" x="323.95" y="-192.32" font-family="Helvetica,sans-Serif" font-size="10.00">2</text>
</a>
</g>
</g>
<!-- dir_9f42d488f21f30bdc75c62948fa574ea -->
<g id="node7" class="node">
<title>dir_9f42d488f21f30bdc75c62948fa574ea</title>
<g id="a_node7"><a xlink:href="dir_9f42d488f21f30bdc75c62948fa574ea.html" target="_top" xlink:title="utils">
<polygon fill="none" stroke="red" points="221,-108 167,-108 167,-72 221,-72 221,-108"/>
<text text-anchor="middle" x="194" y="-87.5" font-family="Helvetica,sans-Serif" font-size="10.00">utils</text>
</a>
</g>
</g>
<!-- dir_0cb6cbd7421036abeba21b97678f2726&#45;&gt;dir_9f42d488f21f30bdc75c62948fa574ea -->
<g id="edge21" class="edge">
<title>dir_0cb6cbd7421036abeba21b97678f2726&#45;&gt;dir_9f42d488f21f30bdc75c62948fa574ea</title>
<path fill="none" stroke="black" d="M340.37,-219.61C359.06,-211.35 379.21,-198.67 390,-180 399.79,-163.07 402.18,-151.3 390,-136 370.52,-111.54 282.31,-99.27 231.11,-94.12"/>
<polygon fill="black" stroke="black" points="231.38,-90.63 221.09,-93.15 230.71,-97.59 231.38,-90.63"/>
<g id="a_edge21&#45;headlabel"><a xlink:href="dir_000048_000032.html" target="_top" xlink:title="3">
<text text-anchor="middle" x="235.23" y="-85.65" font-family="Helvetica,sans-Serif" font-size="10.00">3</text>
</a>
</g>
</g>
<!-- dir_acf644b39d60b4fff64b1eb43dc3fb5a -->
<g id="node8" class="node">
<title>dir_acf644b39d60b4fff64b1eb43dc3fb5a</title>
<g id="a_node8"><a xlink:href="dir_acf644b39d60b4fff64b1eb43dc3fb5a.html" target="_top" xlink:title="multimesh">
<polygon fill="none" stroke="red" points="173.5,-180 104.5,-180 104.5,-144 173.5,-144 173.5,-180"/>
<text text-anchor="middle" x="139" y="-159.5" font-family="Helvetica,sans-Serif" font-size="10.00">multimesh</text>
</a>
</g>
</g>
<!-- dir_0cb6cbd7421036abeba21b97678f2726&#45;&gt;dir_acf644b39d60b4fff64b1eb43dc3fb5a -->
<g id="edge22" class="edge">
<title>dir_0cb6cbd7421036abeba21b97678f2726&#45;&gt;dir_acf644b39d60b4fff64b1eb43dc3fb5a</title>
<path fill="none" stroke="black" d="M259.1,-215.88C236.05,-205.73 206.78,-192.84 182.9,-182.33"/>
<polygon fill="black" stroke="black" points="184.27,-179.11 173.71,-178.28 181.45,-185.51 184.27,-179.11"/>
<g id="a_edge22&#45;headlabel"><a xlink:href="dir_000048_000029.html" target="_top" xlink:title="6">
<text text-anchor="middle" x="188.7" y="-175.46" font-family="Helvetica,sans-Serif" font-size="10.00">6</text>
</a>
</g>
</g>
<!-- dir_cbc9327ef122fb9d2e3099bcf15f379f -->
<g id="node9" class="node">
<title>dir_cbc9327ef122fb9d2e3099bcf15f379f</title>
<g id="a_node9"><a xlink:href="dir_cbc9327ef122fb9d2e3099bcf15f379f.html" target="_top" xlink:title="simplex">
<polygon fill="none" stroke="red" points="194,-36 138,-36 138,0 194,0 194,-36"/>
<text text-anchor="middle" x="166" y="-15.5" font-family="Helvetica,sans-Serif" font-size="10.00">simplex</text>
</a>
</g>
</g>
<!-- dir_0cb6cbd7421036abeba21b97678f2726&#45;&gt;dir_cbc9327ef122fb9d2e3099bcf15f379f -->
<g id="edge23" class="edge">
<title>dir_0cb6cbd7421036abeba21b97678f2726&#45;&gt;dir_cbc9327ef122fb9d2e3099bcf15f379f</title>
<path fill="none" stroke="black" d="M340.22,-224.34C364.55,-216.94 393.17,-203.6 408,-180 418.4,-163.44 418.39,-152.57 408,-136 362.94,-64.17 259.94,-35.37 203.94,-24.7"/>
<polygon fill="black" stroke="black" points="204.52,-21.24 194.06,-22.91 203.28,-28.13 204.52,-21.24"/>
<g id="a_edge23&#45;headlabel"><a xlink:href="dir_000048_000055.html" target="_top" xlink:title="1">
<text text-anchor="middle" x="208.56" y="-16.59" font-family="Helvetica,sans-Serif" font-size="10.00">1</text>
</a>
</g>
</g>
<!-- dir_0e02c20a22d9fc009c4627095f2ee7a3 -->
<g id="node2" class="node">
<title>dir_0e02c20a22d9fc009c4627095f2ee7a3</title>
<g id="a_node2"><a xlink:href="dir_0e02c20a22d9fc009c4627095f2ee7a3.html" target="_top" xlink:title="tet_mesh">
<polygon fill="none" stroke="black" points="338,-324 276,-324 276,-288 338,-288 338,-324"/>
<text text-anchor="middle" x="307" y="-303.5" font-family="Helvetica,sans-Serif" font-size="10.00">tet_mesh</text>
</a>
</g>
</g>
<!-- dir_0e02c20a22d9fc009c4627095f2ee7a3&#45;&gt;dir_0cb6cbd7421036abeba21b97678f2726 -->
<g id="edge9" class="edge">
<title>dir_0e02c20a22d9fc009c4627095f2ee7a3&#45;&gt;dir_0cb6cbd7421036abeba21b97678f2726</title>
<path fill="none" stroke="black" d="M304.78,-287.7C303.78,-279.98 302.59,-270.71 301.49,-262.11"/>
<polygon fill="black" stroke="black" points="304.95,-261.58 300.2,-252.1 298,-262.47 304.95,-261.58"/>
<g id="a_edge9&#45;headlabel"><a xlink:href="dir_000050_000048.html" target="_top" xlink:title="2">
<text text-anchor="middle" x="308.22" y="-262.28" font-family="Helvetica,sans-Serif" font-size="10.00">2</text>
</a>
</g>
</g>
<!-- dir_d2a8dd70deef9b045ca1207fab048779&#45;&gt;dir_0cb6cbd7421036abeba21b97678f2726 -->
<g id="edge3" class="edge">
<title>dir_d2a8dd70deef9b045ca1207fab048779&#45;&gt;dir_0cb6cbd7421036abeba21b97678f2726</title>
<path fill="none" stroke="black" d="M275.18,-180.1C280.32,-188.04 285.77,-197.67 290.19,-206.51"/>
<polygon fill="black" stroke="black" points="287.09,-208.15 294.52,-215.7 293.42,-205.16 287.09,-208.15"/>
<g id="a_edge3&#45;headlabel"><a xlink:href="dir_000051_000048.html" target="_top" xlink:title="2">
<text text-anchor="middle" x="282.99" y="-203.61" font-family="Helvetica,sans-Serif" font-size="10.00">2</text>
</a>
</g>
</g>
<!-- dir_d2a8dd70deef9b045ca1207fab048779&#45;&gt;dir_9f42d488f21f30bdc75c62948fa574ea -->
<g id="edge4" class="edge">
<title>dir_d2a8dd70deef9b045ca1207fab048779&#45;&gt;dir_9f42d488f21f30bdc75c62948fa574ea</title>
<path fill="none" stroke="black" d="M243.69,-143.7C235.69,-135.22 225.93,-124.86 217.18,-115.58"/>
<polygon fill="black" stroke="black" points="219.53,-112.98 210.13,-108.1 214.44,-117.78 219.53,-112.98"/>
<g id="a_edge4&#45;headlabel"><a xlink:href="dir_000051_000032.html" target="_top" xlink:title="1">
<text text-anchor="middle" x="224.07" y="-111.15" font-family="Helvetica,sans-Serif" font-size="10.00">1</text>
</a>
</g>
</g>
<!-- dir_e920b347c556ff0a6c2062ff4f2a2c53&#45;&gt;dir_0cb6cbd7421036abeba21b97678f2726 -->
<g id="edge2" class="edge">
<title>dir_e920b347c556ff0a6c2062ff4f2a2c53&#45;&gt;dir_0cb6cbd7421036abeba21b97678f2726</title>
<path fill="none" stroke="black" d="M338.66,-180.1C334.13,-188.3 327.78,-198.28 321.38,-207.36"/>
<polygon fill="black" stroke="black" points="318.36,-205.56 315.29,-215.7 324.01,-209.69 318.36,-205.56"/>
<g id="a_edge2&#45;headlabel"><a xlink:href="dir_000049_000048.html" target="_top" xlink:title="2">
<text text-anchor="middle" x="318.19" y="-198.48" font-family="Helvetica,sans-Serif" font-size="10.00">2</text>
</a>
</g>
</g>
<!-- dir_d170a5af103cbb1c1f336dd3621341a1 -->
<g id="node5" class="node">
<title>dir_d170a5af103cbb1c1f336dd3621341a1</title>
<g id="a_node5"><a xlink:href="dir_d170a5af103cbb1c1f336dd3621341a1.html" target="_top" xlink:title="utils">
<polygon fill="#eeeeff" stroke="black" points="284,-396 230,-396 230,-360 284,-360 284,-396"/>
<text text-anchor="middle" x="257" y="-375.5" font-family="Helvetica,sans-Serif" font-size="10.00">utils</text>
</a>
</g>
</g>
<!-- dir_d170a5af103cbb1c1f336dd3621341a1&#45;&gt;dir_0cb6cbd7421036abeba21b97678f2726 -->
<g id="edge10" class="edge">
<title>dir_d170a5af103cbb1c1f336dd3621341a1&#45;&gt;dir_0cb6cbd7421036abeba21b97678f2726</title>
<path fill="none" stroke="black" d="M256.84,-359.82C257.14,-341.56 259.01,-312.05 267,-288 270.11,-278.64 275.02,-269.12 280.02,-260.78"/>
<polygon fill="black" stroke="black" points="283.03,-262.58 285.41,-252.26 277.11,-258.84 283.03,-262.58"/>
<g id="a_edge10&#45;headlabel"><a xlink:href="dir_000054_000048.html" target="_top" xlink:title="4">
<text text-anchor="middle" x="283.51" y="-264.64" font-family="Helvetica,sans-Serif" font-size="10.00">4</text>
</a>
</g>
</g>
<!-- dir_d170a5af103cbb1c1f336dd3621341a1&#45;&gt;dir_0e02c20a22d9fc009c4627095f2ee7a3 -->
<g id="edge11" class="edge">
<title>dir_d170a5af103cbb1c1f336dd3621341a1&#45;&gt;dir_0e02c20a22d9fc009c4627095f2ee7a3</title>
<path fill="none" stroke="black" d="M269.36,-359.7C275.23,-351.47 282.37,-341.48 288.84,-332.42"/>
<polygon fill="black" stroke="black" points="291.82,-334.28 294.78,-324.1 286.12,-330.21 291.82,-334.28"/>
<g id="a_edge11&#45;headlabel"><a xlink:href="dir_000054_000050.html" target="_top" xlink:title="2">
<text text-anchor="middle" x="292.04" y="-336.35" font-family="Helvetica,sans-Serif" font-size="10.00">2</text>
</a>
</g>
</g>
<!-- dir_d170a5af103cbb1c1f336dd3621341a1&#45;&gt;dir_d2a8dd70deef9b045ca1207fab048779 -->
<g id="edge16" class="edge">
<title>dir_d170a5af103cbb1c1f336dd3621341a1&#45;&gt;dir_d2a8dd70deef9b045ca1207fab048779</title>
<path fill="none" stroke="black" d="M253.84,-359.55C248.95,-329.93 240.72,-267.99 247,-216 248.02,-207.53 249.93,-198.47 251.98,-190.28"/>
<polygon fill="black" stroke="black" points="255.4,-191.03 254.59,-180.47 248.64,-189.23 255.4,-191.03"/>
<g id="a_edge16&#45;headlabel"><a xlink:href="dir_000054_000051.html" target="_top" xlink:title="2">
<text text-anchor="middle" x="257.22" y="-192.74" font-family="Helvetica,sans-Serif" font-size="10.00">2</text>
</a>
</g>
</g>
<!-- dir_d170a5af103cbb1c1f336dd3621341a1&#45;&gt;dir_e920b347c556ff0a6c2062ff4f2a2c53 -->
<g id="edge17" class="edge">
<title>dir_d170a5af103cbb1c1f336dd3621341a1&#45;&gt;dir_e920b347c556ff0a6c2062ff4f2a2c53</title>
<path fill="none" stroke="black" d="M284.26,-369C305.41,-361.21 333.36,-347.11 347,-324 371.47,-282.54 361.66,-224.02 352.62,-190.14"/>
<polygon fill="black" stroke="black" points="355.97,-189.13 349.88,-180.46 349.24,-191.04 355.97,-189.13"/>
<g id="a_edge17&#45;headlabel"><a xlink:href="dir_000054_000049.html" target="_top" xlink:title="2">
<text text-anchor="middle" x="359.69" y="-189.32" font-family="Helvetica,sans-Serif" font-size="10.00">2</text>
</a>
</g>
</g>
<!-- dir_5421ed8c8fde3f7a08a046a47d931eae -->
<g id="node6" class="node">
<title>dir_5421ed8c8fde3f7a08a046a47d931eae</title>
<g id="a_node6"><a xlink:href="dir_5421ed8c8fde3f7a08a046a47d931eae.html" target="_top" xlink:title="invariants">
<polygon fill="none" stroke="black" points="109.5,-252 44.5,-252 44.5,-216 109.5,-216 109.5,-252"/>
<text text-anchor="middle" x="77" y="-231.5" font-family="Helvetica,sans-Serif" font-size="10.00">invariants</text>
</a>
</g>
</g>
<!-- dir_d170a5af103cbb1c1f336dd3621341a1&#45;&gt;dir_5421ed8c8fde3f7a08a046a47d931eae -->
<g id="edge12" class="edge">
<title>dir_d170a5af103cbb1c1f336dd3621341a1&#45;&gt;dir_5421ed8c8fde3f7a08a046a47d931eae</title>
<path fill="none" stroke="black" d="M229.84,-369.8C203.84,-361.87 164.6,-347.09 137,-324 116.37,-306.73 99.92,-280.64 89.51,-261.16"/>
<polygon fill="black" stroke="black" points="92.58,-259.48 84.88,-252.2 86.36,-262.69 92.58,-259.48"/>
<g id="a_edge12&#45;headlabel"><a xlink:href="dir_000054_000043.html" target="_top" xlink:title="2">
<text text-anchor="middle" x="96.75" y="-258.87" font-family="Helvetica,sans-Serif" font-size="10.00">2</text>
</a>
</g>
</g>
<!-- dir_d170a5af103cbb1c1f336dd3621341a1&#45;&gt;dir_9f42d488f21f30bdc75c62948fa574ea -->
<g id="edge13" class="edge">
<title>dir_d170a5af103cbb1c1f336dd3621341a1&#45;&gt;dir_9f42d488f21f30bdc75c62948fa574ea</title>
<path fill="none" stroke="black" d="M251.4,-359.93C248.12,-349.6 244.04,-336.12 241,-324 222.46,-250.21 206.25,-161.85 198.63,-118.18"/>
<polygon fill="black" stroke="black" points="202.03,-117.34 196.88,-108.08 195.13,-118.53 202.03,-117.34"/>
<g id="a_edge13&#45;headlabel"><a xlink:href="dir_000054_000032.html" target="_top" xlink:title="3">
<text text-anchor="middle" x="205.44" y="-117.89" font-family="Helvetica,sans-Serif" font-size="10.00">3</text>
</a>
</g>
</g>
<!-- dir_d170a5af103cbb1c1f336dd3621341a1&#45;&gt;dir_acf644b39d60b4fff64b1eb43dc3fb5a -->
<g id="edge14" class="edge">
<title>dir_d170a5af103cbb1c1f336dd3621341a1&#45;&gt;dir_acf644b39d60b4fff64b1eb43dc3fb5a</title>
<path fill="none" stroke="black" d="M229.73,-361.76C215.45,-352.52 198.75,-339.52 188,-324 159.48,-282.82 147.19,-224.59 142.17,-190.61"/>
<polygon fill="black" stroke="black" points="145.61,-189.92 140.79,-180.49 138.68,-190.87 145.61,-189.92"/>
<g id="a_edge14&#45;headlabel"><a xlink:href="dir_000054_000029.html" target="_top" xlink:title="12">
<text text-anchor="middle" x="148.91" y="-190.6" font-family="Helvetica,sans-Serif" font-size="10.00">12</text>
</a>
</g>
</g>
<!-- dir_d170a5af103cbb1c1f336dd3621341a1&#45;&gt;dir_cbc9327ef122fb9d2e3099bcf15f379f -->
<g id="edge15" class="edge">
<title>dir_d170a5af103cbb1c1f336dd3621341a1&#45;&gt;dir_cbc9327ef122fb9d2e3099bcf15f379f</title>
<path fill="none" stroke="black" d="M229.98,-374.73C164,-367.56 0,-339.25 0,-235 0,-235 0,-235 0,-161 0,-93.8 79.52,-51.6 128.49,-31.98"/>
<polygon fill="black" stroke="black" points="129.78,-35.23 137.84,-28.36 127.25,-28.71 129.78,-35.23"/>
<g id="a_edge15&#45;headlabel"><a xlink:href="dir_000054_000055.html" target="_top" xlink:title="5">
<text text-anchor="middle" x="127.45" y="-36.68" font-family="Helvetica,sans-Serif" font-size="10.00">5</text>
</a>
</g>
</g>
<!-- dir_5421ed8c8fde3f7a08a046a47d931eae&#45;&gt;dir_9f42d488f21f30bdc75c62948fa574ea -->
<g id="edge18" class="edge">
<title>dir_5421ed8c8fde3f7a08a046a47d931eae&#45;&gt;dir_9f42d488f21f30bdc75c62948fa574ea</title>
<path fill="none" stroke="black" d="M75.67,-215.65C74.99,-194.6 76.95,-159.07 95,-136 110.16,-116.62 135.55,-105.3 156.82,-98.87"/>
<polygon fill="black" stroke="black" points="157.86,-102.21 166.56,-96.17 155.99,-95.47 157.86,-102.21"/>
<g id="a_edge18&#45;headlabel"><a xlink:href="dir_000043_000032.html" target="_top" xlink:title="2">
<text text-anchor="middle" x="155.16" y="-103.41" font-family="Helvetica,sans-Serif" font-size="10.00">2</text>
</a>
</g>
</g>
<!-- dir_5421ed8c8fde3f7a08a046a47d931eae&#45;&gt;dir_acf644b39d60b4fff64b1eb43dc3fb5a -->
<g id="edge19" class="edge">
<title>dir_5421ed8c8fde3f7a08a046a47d931eae&#45;&gt;dir_acf644b39d60b4fff64b1eb43dc3fb5a</title>
<path fill="none" stroke="black" d="M92.33,-215.7C99.76,-207.3 108.82,-197.07 116.98,-187.86"/>
<polygon fill="black" stroke="black" points="119.84,-189.91 123.85,-180.1 114.6,-185.27 119.84,-189.91"/>
<g id="a_edge19&#45;headlabel"><a xlink:href="dir_000043_000029.html" target="_top" xlink:title="3">
<text text-anchor="middle" x="119.58" y="-191.98" font-family="Helvetica,sans-Serif" font-size="10.00">3</text>
</a>
</g>
</g>
<!-- dir_5421ed8c8fde3f7a08a046a47d931eae&#45;&gt;dir_cbc9327ef122fb9d2e3099bcf15f379f -->
<g id="edge20" class="edge">
<title>dir_5421ed8c8fde3f7a08a046a47d931eae&#45;&gt;dir_cbc9327ef122fb9d2e3099bcf15f379f</title>
<path fill="none" stroke="black" d="M72.9,-215.98C68.93,-196.16 64.74,-162.75 74,-136 86.78,-99.08 116.55,-64.97 138.78,-43.22"/>
<polygon fill="black" stroke="black" points="141.47,-45.49 146.29,-36.06 136.64,-40.42 141.47,-45.49"/>
<g id="a_edge20&#45;headlabel"><a xlink:href="dir_000043_000055.html" target="_top" xlink:title="24">
<text text-anchor="middle" x="140.83" y="-47.52" font-family="Helvetica,sans-Serif" font-size="10.00">24</text>
</a>
</g>
</g>
<!-- dir_9f42d488f21f30bdc75c62948fa574ea&#45;&gt;dir_cbc9327ef122fb9d2e3099bcf15f379f -->
<g id="edge1" class="edge">
<title>dir_9f42d488f21f30bdc75c62948fa574ea&#45;&gt;dir_cbc9327ef122fb9d2e3099bcf15f379f</title>
<path fill="none" stroke="black" d="M181.16,-71.7C177.24,-63.9 173.26,-54.51 170.15,-45.83"/>
<polygon fill="black" stroke="black" points="173.4,-44.51 166.95,-36.1 166.75,-46.7 173.4,-44.51"/>
<g id="a_edge1&#45;headlabel"><a xlink:href="dir_000032_000055.html" target="_top" xlink:title="2">
<text text-anchor="middle" x="177.22" y="-44.54" font-family="Helvetica,sans-Serif" font-size="10.00">2</text>
</a>
</g>
</g>
<!-- dir_acf644b39d60b4fff64b1eb43dc3fb5a&#45;&gt;dir_d2a8dd70deef9b045ca1207fab048779 -->
<g id="edge8" class="edge">
<title>dir_acf644b39d60b4fff64b1eb43dc3fb5a&#45;&gt;dir_d2a8dd70deef9b045ca1207fab048779</title>
<path fill="none" stroke="black" d="M173.5,-162C189.03,-162 204.55,-162 220.07,-162"/>
<polygon fill="black" stroke="black" points="220.27,-165.5 230.27,-162 220.27,-158.5 220.27,-165.5"/>
<g id="a_edge8&#45;headlabel"><a xlink:href="dir_000029_000051.html" target="_top" xlink:title="2">
<text text-anchor="middle" x="216.67" y="-165.84" font-family="Helvetica,sans-Serif" font-size="10.00">2</text>
</a>
</g>
</g>
<!-- dir_acf644b39d60b4fff64b1eb43dc3fb5a&#45;&gt;dir_9f42d488f21f30bdc75c62948fa574ea -->
<g id="edge6" class="edge">
<title>dir_acf644b39d60b4fff64b1eb43dc3fb5a&#45;&gt;dir_9f42d488f21f30bdc75c62948fa574ea</title>
<path fill="none" stroke="black" d="M152.6,-143.7C159.12,-135.39 167.07,-125.28 174.25,-116.14"/>
<polygon fill="black" stroke="black" points="177.13,-118.13 180.56,-108.1 171.63,-113.81 177.13,-118.13"/>
<g id="a_edge6&#45;headlabel"><a xlink:href="dir_000029_000032.html" target="_top" xlink:title="19">
<text text-anchor="middle" x="177.15" y="-120.21" font-family="Helvetica,sans-Serif" font-size="10.00">19</text>
</a>
</g>
</g>
<!-- dir_acf644b39d60b4fff64b1eb43dc3fb5a&#45;&gt;dir_cbc9327ef122fb9d2e3099bcf15f379f -->
<g id="edge7" class="edge">
<title>dir_acf644b39d60b4fff64b1eb43dc3fb5a&#45;&gt;dir_cbc9327ef122fb9d2e3099bcf15f379f</title>
<path fill="none" stroke="black" d="M142.26,-143.87C146.86,-119.67 155.31,-75.21 160.79,-46.39"/>
<polygon fill="black" stroke="black" points="164.3,-46.67 162.73,-36.19 157.43,-45.36 164.3,-46.67"/>
<g id="a_edge7&#45;headlabel"><a xlink:href="dir_000029_000055.html" target="_top" xlink:title="4">
<text text-anchor="middle" x="166.42" y="-48.23" font-family="Helvetica,sans-Serif" font-size="10.00">4</text>
</a>
</g>
</g>
<!-- dir_cbc9327ef122fb9d2e3099bcf15f379f&#45;&gt;dir_9f42d488f21f30bdc75c62948fa574ea -->
<g id="edge5" class="edge">
<title>dir_cbc9327ef122fb9d2e3099bcf15f379f&#45;&gt;dir_9f42d488f21f30bdc75c62948fa574ea</title>
<path fill="none" stroke="black" d="M178.74,-36.1C182.66,-43.88 186.64,-53.26 189.77,-61.95"/>
<polygon fill="black" stroke="black" points="186.53,-63.3 192.99,-71.7 193.18,-61.1 186.53,-63.3"/>
<g id="a_edge5&#45;headlabel"><a xlink:href="dir_000055_000032.html" target="_top" xlink:title="5">
<text text-anchor="middle" x="182.71" y="-58.28" font-family="Helvetica,sans-Serif" font-size="10.00">5</text>
</a>
</g>
</g>
</g>
</svg>
