<?xml version="1.0" encoding="UTF-8" standalone="no"?>
<!DOCTYPE svg PUBLIC "-//W3C//DTD SVG 1.1//EN"
 "http://www.w3.org/Graphics/SVG/1.1/DTD/svg11.dtd">
<!-- Generated by graphviz version 2.43.0 (0)
 -->
<!-- Title: components/periodic_optimization Pages: 1 -->
<svg width="250pt" height="303pt"
 viewBox="0.00 0.00 250.00 303.00" xmlns="http://www.w3.org/2000/svg" xmlns:xlink="http://www.w3.org/1999/xlink">
<g id="graph0" class="graph" transform="scale(1 1) rotate(0) translate(4 299)">
<title>components/periodic_optimization</title>
<g id="clust1" class="cluster">
<title>clusterdir_409f97388efe006bc3438b95e9edef48</title>
<g id="a_clust1"><a xlink:href="dir_409f97388efe006bc3438b95e9edef48.html" target="_top" xlink:title="components">
<polygon fill="#ddddee" stroke="black" points="8,-64 8,-287 234,-287 234,-64 8,-64"/>
<text text-anchor="middle" x="121" y="-275" font-family="Helvetica,sans-Serif" font-size="10.00">components</text>
</a>
</g>
</g>
<g id="clust2" class="cluster">
<title>clusterdir_69fcabe2ce4db5cdf31db52e9f6201b0</title>
<g id="a_clust2"><a xlink:href="dir_69fcabe2ce4db5cdf31db52e9f6201b0.html" target="_top">
<polygon fill="#eeeeff" stroke="black" points="16,-208 16,-260 226,-260 226,-208 16,-208"/>
</a>
</g>
</g>
<!-- dir_0bb33c45305857962c91977612951af5 -->
<g id="node1" class="node">
<title>dir_0bb33c45305857962c91977612951af5</title>
<g id="a_node1"><a xlink:href="dir_0bb33c45305857962c91977612951af5.html" target="_top" xlink:title="multimesh_from_tag">
<polygon fill="none" stroke="red" points="155.5,-180 36.5,-180 36.5,-144 155.5,-144 155.5,-180"/>
<text text-anchor="middle" x="96" y="-159.5" font-family="Helvetica,sans-Serif" font-size="10.00">multimesh_from_tag</text>
</a>
</g>
</g>
<!-- dir_141255b66ec4604466b3430e281cf831 -->
<g id="node2" class="node">
<title>dir_141255b66ec4604466b3430e281cf831</title>
<g id="a_node2"><a xlink:href="dir_141255b66ec4604466b3430e281cf831.html" target="_top" xlink:title="utils">
<polygon fill="none" stroke="red" points="94,-108 40,-108 40,-72 94,-72 94,-108"/>
<text text-anchor="middle" x="67" y="-87.5" font-family="Helvetica,sans-Serif" font-size="10.00">utils</text>
</a>
</g>
</g>
<!-- dir_0bb33c45305857962c91977612951af5&#45;&gt;dir_141255b66ec4604466b3430e281cf831 -->
<g id="edge6" class="edge">
<title>dir_0bb33c45305857962c91977612951af5&#45;&gt;dir_141255b66ec4604466b3430e281cf831</title>
<path fill="none" stroke="black" d="M88.83,-143.7C85.57,-135.81 81.63,-126.3 78,-117.55"/>
<polygon fill="black" stroke="black" points="81.15,-116 74.09,-108.1 74.68,-118.68 81.15,-116"/>
<g id="a_edge6&#45;headlabel"><a xlink:href="dir_000060_000105.html" target="_top" xlink:title="1">
<text text-anchor="middle" x="85.15" y="-115.74" font-family="Helvetica,sans-Serif" font-size="10.00">1</text>
</a>
</g>
</g>
<!-- dir_68267d1309a1af8e8297ef4c3efbcdba -->
<g id="node5" class="node">
<title>dir_68267d1309a1af8e8297ef4c3efbcdba</title>
<g id="a_node5"><a xlink:href="dir_68267d1309a1af8e8297ef4c3efbcdba.html" target="_top" xlink:title="src">
<polygon fill="none" stroke="red" points="149,-36 95,-36 95,0 149,0 149,-36"/>
<text text-anchor="middle" x="122" y="-15.5" font-family="Helvetica,sans-Serif" font-size="10.00">src</text>
</a>
</g>
</g>
<!-- dir_0bb33c45305857962c91977612951af5&#45;&gt;dir_68267d1309a1af8e8297ef4c3efbcdba -->
<g id="edge5" class="edge">
<title>dir_0bb33c45305857962c91977612951af5&#45;&gt;dir_68267d1309a1af8e8297ef4c3efbcdba</title>
<path fill="none" stroke="black" d="M99.14,-143.87C103.57,-119.67 111.71,-75.21 116.98,-46.39"/>
<polygon fill="black" stroke="black" points="120.49,-46.66 118.85,-36.19 113.61,-45.4 120.49,-46.66"/>
<g id="a_edge5&#45;headlabel"><a xlink:href="dir_000060_000119.html" target="_top" xlink:title="17">
<text text-anchor="middle" x="122.64" y="-48.2" font-family="Helvetica,sans-Serif" font-size="10.00">17</text>
</a>
</g>
</g>
<!-- dir_141255b66ec4604466b3430e281cf831&#45;&gt;dir_68267d1309a1af8e8297ef4c3efbcdba -->
<g id="edge1" class="edge">
<title>dir_141255b66ec4604466b3430e281cf831&#45;&gt;dir_68267d1309a1af8e8297ef4c3efbcdba</title>
<path fill="none" stroke="black" d="M80.6,-71.7C87.12,-63.39 95.07,-53.28 102.25,-44.14"/>
<polygon fill="black" stroke="black" points="105.13,-46.13 108.56,-36.1 99.63,-41.81 105.13,-46.13"/>
<g id="a_edge1&#45;headlabel"><a xlink:href="dir_000105_000119.html" target="_top" xlink:title="9">
<text text-anchor="middle" x="105.15" y="-48.21" font-family="Helvetica,sans-Serif" font-size="10.00">9</text>
</a>
</g>
</g>
<!-- dir_69fcabe2ce4db5cdf31db52e9f6201b0 -->
<g id="node3" class="node">
<title>dir_69fcabe2ce4db5cdf31db52e9f6201b0</title>
<text text-anchor="middle" x="157" y="-231.5" font-family="Helvetica,sans-Serif" font-size="10.00">periodic_optimization</text>
</g>
<!-- dir_7b32fc8c5c5774dce382c6a5a3d0db46 -->
<g id="node4" class="node">
<title>dir_7b32fc8c5c5774dce382c6a5a3d0db46</title>
<g id="a_node4"><a xlink:href="dir_7b32fc8c5c5774dce382c6a5a3d0db46.html" target="_top" xlink:title="wmtk">
<polygon fill="white" stroke="red" points="78,-252 24,-252 24,-216 78,-216 78,-252"/>
<text text-anchor="middle" x="51" y="-231.5" font-family="Helvetica,sans-Serif" font-size="10.00">wmtk</text>
</a>
</g>
</g>
<!-- dir_7b32fc8c5c5774dce382c6a5a3d0db46&#45;&gt;dir_0bb33c45305857962c91977612951af5 -->
<g id="edge2" class="edge">
<title>dir_7b32fc8c5c5774dce382c6a5a3d0db46&#45;&gt;dir_0bb33c45305857962c91977612951af5</title>
<path fill="none" stroke="black" d="M62.12,-215.7C67.36,-207.56 73.7,-197.69 79.48,-188.7"/>
<polygon fill="black" stroke="black" points="82.54,-190.41 85,-180.1 76.65,-186.62 82.54,-190.41"/>
<g id="a_edge2&#45;headlabel"><a xlink:href="dir_000070_000060.html" target="_top" xlink:title="1">
<text text-anchor="middle" x="82.99" y="-192.47" font-family="Helvetica,sans-Serif" font-size="10.00">1</text>
</a>
</g>
</g>
<!-- dir_7b32fc8c5c5774dce382c6a5a3d0db46&#45;&gt;dir_141255b66ec4604466b3430e281cf831 -->
<g id="edge3" class="edge">
<title>dir_7b32fc8c5c5774dce382c6a5a3d0db46&#45;&gt;dir_141255b66ec4604466b3430e281cf831</title>
<path fill="none" stroke="black" d="M40.34,-215.76C30.56,-197.69 18.76,-168.58 27,-144 30.35,-134 36.42,-124.38 42.83,-116.14"/>
<polygon fill="black" stroke="black" points="45.56,-118.33 49.27,-108.4 40.18,-113.85 45.56,-118.33"/>
<g id="a_edge3&#45;headlabel"><a xlink:href="dir_000070_000105.html" target="_top" xlink:title="1">
<text text-anchor="middle" x="45.44" y="-120.41" font-family="Helvetica,sans-Serif" font-size="10.00">1</text>
</a>
</g>
</g>
<!-- dir_7b32fc8c5c5774dce382c6a5a3d0db46&#45;&gt;dir_68267d1309a1af8e8297ef4c3efbcdba -->
<g id="edge4" class="edge">
<title>dir_7b32fc8c5c5774dce382c6a5a3d0db46&#45;&gt;dir_68267d1309a1af8e8297ef4c3efbcdba</title>
<path fill="none" stroke="black" d="M73.64,-215.86C77.95,-213.01 82.51,-210.26 87,-208 121.78,-190.5 147.29,-211.62 170,-180 200.07,-138.12 190.49,-111.31 170,-64 166.57,-56.09 161,-48.93 154.83,-42.77"/>
<polygon fill="black" stroke="black" points="157.17,-40.17 147.42,-36.01 152.45,-45.34 157.17,-40.17"/>
<g id="a_edge4&#45;headlabel"><a xlink:href="dir_000070_000119.html" target="_top" xlink:title="58">
<text text-anchor="middle" x="161.74" y="-37.99" font-family="Helvetica,sans-Serif" font-size="10.00">58</text>
</a>
</g>
</g>
</g>
</svg>
