<?xml version="1.0" encoding="UTF-8" standalone="no"?>
<!DOCTYPE svg PUBLIC "-//W3C//DTD SVG 1.1//EN"
 "http://www.w3.org/Graphics/SVG/1.1/DTD/svg11.dtd">
<!-- Generated by graphviz version 2.43.0 (0)
 -->
<!-- Title: src/wmtk Pages: 1 -->
<!--zoomable 543 -->
<svg id="main" version="1.1" xmlns="http://www.w3.org/2000/svg" xmlns:xlink="http://www.w3.org/1999/xlink" xml:space="preserve" onload="init(evt)">
<style type="text/css"><![CDATA[
.edge:hover path { stroke: red; }
.edge:hover polygon { stroke: red; fill: red; }
]]></style>
<script type="text/javascript"><![CDATA[
var edges = document.getElementsByTagName('g');
if (edges && edges.length) {
  for (var i=0;i<edges.length;i++) {
    if (edges[i].id.substr(0,4)=='edge') {
      edges[i].setAttribute('class','edge');
    }
  }
}
]]></script>
        <defs>
                <circle id="rim" cx="0" cy="0" r="7"/>
                <circle id="rim2" cx="0" cy="0" r="3.5"/>
                <g id="zoomPlus">
                        <use xlink:href="#rim" fill="#404040">
                                <set attributeName="fill" to="#808080" begin="zoomplus.mouseover" end="zoomplus.mouseout"/>
                        </use>
                        <path d="M-4,0h8M0,-4v8" fill="none" stroke="white" stroke-width="1.5" pointer-events="none"/>
                </g>
                <g id="zoomMin">
                        <use xlink:href="#rim" fill="#404040">
                                <set attributeName="fill" to="#808080" begin="zoomminus.mouseover" end="zoomminus.mouseout"/>
                        </use>
                        <path d="M-4,0h8" fill="none" stroke="white" stroke-width="1.5" pointer-events="none"/>
                </g>
                <g id="dirArrow">
                        <path fill="none" stroke="white" stroke-width="1.5" d="M0,-3.0v7 M-2.5,-0.5L0,-3.0L2.5,-0.5"/>
                </g>
               <g id="resetDef">
                       <use xlink:href="#rim2" fill="#404040">
                               <set attributeName="fill" to="#808080" begin="reset.mouseover" end="reset.mouseout"/>
                       </use>
               </g>
        </defs>

<script type="text/javascript">
var viewWidth = 342;
var viewHeight = 543;
var sectionId = 'dynsection-0';
</script>
<script xlink:href="svgpan.js"/>
<svg id="graph" class="graph">
<g id="viewport">
<title>src/wmtk</title>
<g id="clust1" class="cluster">
<title>clusterdir_68267d1309a1af8e8297ef4c3efbcdba</title>
<g id="a_clust1"><a xlink:href="dir_68267d1309a1af8e8297ef4c3efbcdba.html" target="_top" xlink:title="src">
<polygon fill="#ddddee" stroke="black" points="8,-8 8,-527 326,-527 326,-8 8,-8"/>
<text text-anchor="middle" x="167" y="-515" font-family="Helvetica,sans-Serif" font-size="10.00">src</text>
</a>
</g>
</g>
<g id="clust2" class="cluster">
<title>clusterdir_f7a95b7257057fa18adfa4b3aabbe846</title>
<g id="a_clust2"><a xlink:href="dir_f7a95b7257057fa18adfa4b3aabbe846.html" target="_top">
<polygon fill="#eeeeff" stroke="black" points="16,-16 16,-500 318,-500 318,-16 16,-16"/>
</a>
</g>
</g>
<!-- dir_f7a95b7257057fa18adfa4b3aabbe846 -->
<g id="node1" class="node">
<title>dir_f7a95b7257057fa18adfa4b3aabbe846</title>
<text text-anchor="middle" x="254" y="-471.5" font-family="Helvetica,sans-Serif" font-size="10.00">wmtk</text>
</g>
<!-- dir_f2a03d151d5632e9cfdfcc5fe4223b5a -->
<g id="node2" class="node">
<title>dir_f2a03d151d5632e9cfdfcc5fe4223b5a</title>
<g id="a_node2"><a xlink:href="dir_f2a03d151d5632e9cfdfcc5fe4223b5a.html" target="_top" xlink:title="attribute">
<polygon fill="white" stroke="red" points="173.5,-492 114.5,-492 114.5,-456 173.5,-456 173.5,-492"/>
<text text-anchor="middle" x="144" y="-471.5" font-family="Helvetica,sans-Serif" font-size="10.00">attribute</text>
</a>
</g>
</g>
<!-- dir_5f5962d46c0c2d5a2dbf0efb09269d04 -->
<g id="node6" class="node">
<title>dir_5f5962d46c0c2d5a2dbf0efb09269d04</title>
<g id="a_node6"><a xlink:href="dir_5f5962d46c0c2d5a2dbf0efb09269d04.html" target="_top" xlink:title="io">
<polygon fill="white" stroke="black" points="125,-420 71,-420 71,-384 125,-384 125,-420"/>
<text text-anchor="middle" x="98" y="-399.5" font-family="Helvetica,sans-Serif" font-size="10.00">io</text>
</a>
</g>
</g>
<!-- dir_f2a03d151d5632e9cfdfcc5fe4223b5a&#45;&gt;dir_5f5962d46c0c2d5a2dbf0efb09269d04 -->
<g id="edge25" class="edge">
<title>dir_f2a03d151d5632e9cfdfcc5fe4223b5a&#45;&gt;dir_5f5962d46c0c2d5a2dbf0efb09269d04</title>
<path fill="none" stroke="black" d="M126.71,-455.7C120.59,-447.64 113.97,-437.89 108.53,-428.98"/>
<polygon fill="black" stroke="black" points="111.41,-426.98 103.34,-420.1 105.36,-430.51 111.41,-426.98"/>
<g id="a_edge25&#45;headlabel"><a xlink:href="dir_000119_000138.html" target="_top" xlink:title="4">
<text text-anchor="middle" x="115.67" y="-426.15" font-family="Helvetica,sans-Serif" font-size="10.00">4</text>
</a>
</g>
</g>
<!-- dir_cbc9327ef122fb9d2e3099bcf15f379f -->
<g id="node9" class="node">
<title>dir_cbc9327ef122fb9d2e3099bcf15f379f</title>
<g id="a_node9"><a xlink:href="dir_cbc9327ef122fb9d2e3099bcf15f379f.html" target="_top" xlink:title="simplex">
<polygon fill="white" stroke="red" points="184,-60 128,-60 128,-24 184,-24 184,-60"/>
<text text-anchor="middle" x="156" y="-39.5" font-family="Helvetica,sans-Serif" font-size="10.00">simplex</text>
</a>
</g>
</g>
<!-- dir_f2a03d151d5632e9cfdfcc5fe4223b5a&#45;&gt;dir_cbc9327ef122fb9d2e3099bcf15f379f -->
<g id="edge27" class="edge">
<title>dir_f2a03d151d5632e9cfdfcc5fe4223b5a&#45;&gt;dir_cbc9327ef122fb9d2e3099bcf15f379f</title>
<path fill="none" stroke="black" d="M173.61,-465.01C198.74,-457 234.53,-442.59 259,-420 292.34,-389.23 309,-376.37 309,-331 309,-331 309,-331 309,-185 309,-122.07 238.6,-79.18 193.31,-58.09"/>
<polygon fill="black" stroke="black" points="194.62,-54.84 184.06,-53.93 191.74,-61.22 194.62,-54.84"/>
<g id="a_edge27&#45;headlabel"><a xlink:href="dir_000119_000149.html" target="_top" xlink:title="1">
<text text-anchor="middle" x="199.06" y="-51.23" font-family="Helvetica,sans-Serif" font-size="10.00">1</text>
</a>
</g>
</g>
<!-- dir_9f42d488f21f30bdc75c62948fa574ea -->
<g id="node10" class="node">
<title>dir_9f42d488f21f30bdc75c62948fa574ea</title>
<g id="a_node10"><a xlink:href="dir_9f42d488f21f30bdc75c62948fa574ea.html" target="_top" xlink:title="utils">
<polygon fill="white" stroke="red" points="132,-348 78,-348 78,-312 132,-312 132,-348"/>
<text text-anchor="middle" x="105" y="-327.5" font-family="Helvetica,sans-Serif" font-size="10.00">utils</text>
</a>
</g>
</g>
<!-- dir_f2a03d151d5632e9cfdfcc5fe4223b5a&#45;&gt;dir_9f42d488f21f30bdc75c62948fa574ea -->
<g id="edge26" class="edge">
<title>dir_f2a03d151d5632e9cfdfcc5fe4223b5a&#45;&gt;dir_9f42d488f21f30bdc75c62948fa574ea</title>
<path fill="none" stroke="black" d="M137.35,-455.86C134.61,-437.64 132.64,-408.16 125,-384 122.14,-374.94 117.67,-365.66 113.49,-357.45"/>
<polygon fill="black" stroke="black" points="116.51,-355.67 108.83,-348.37 110.28,-358.87 116.51,-355.67"/>
<g id="a_edge26&#45;headlabel"><a xlink:href="dir_000119_000123.html" target="_top" xlink:title="28">
<text text-anchor="middle" x="120.68" y="-355.07" font-family="Helvetica,sans-Serif" font-size="10.00">28</text>
</a>
</g>
</g>
<!-- dir_228c2c271cc4cd9f4cc4d2c9e4cc379f -->
<g id="node3" class="node">
<title>dir_228c2c271cc4cd9f4cc4d2c9e4cc379f</title>
<g id="a_node3"><a xlink:href="dir_228c2c271cc4cd9f4cc4d2c9e4cc379f.html" target="_top" xlink:title="autogen">
<polygon fill="white" stroke="red" points="80,-60 24,-60 24,-24 80,-24 80,-60"/>
<text text-anchor="middle" x="52" y="-39.5" font-family="Helvetica,sans-Serif" font-size="10.00">autogen</text>
</a>
</g>
</g>
<!-- dir_228c2c271cc4cd9f4cc4d2c9e4cc379f&#45;&gt;dir_9f42d488f21f30bdc75c62948fa574ea -->
<g id="edge33" class="edge">
<title>dir_228c2c271cc4cd9f4cc4d2c9e4cc379f&#45;&gt;dir_9f42d488f21f30bdc75c62948fa574ea</title>
<path fill="none" stroke="black" d="M54.05,-60.44C52.07,-70.67 48.57,-83.92 47,-96 44.94,-111.87 44.39,-116.21 47,-132 57.43,-195.04 85.43,-265.01 98.77,-302.24"/>
<polygon fill="black" stroke="black" points="95.52,-303.55 102.12,-311.84 102.13,-301.24 95.52,-303.55"/>
<g id="a_edge33&#45;headlabel"><a xlink:href="dir_000126_000123.html" target="_top" xlink:title="13">
<text text-anchor="middle" x="91.66" y="-298.59" font-family="Helvetica,sans-Serif" font-size="10.00">13</text>
</a>
</g>
</g>
<!-- dir_56a8abddcbd7373d874dbb6382cc2a5b -->
<g id="node4" class="node">
<title>dir_56a8abddcbd7373d874dbb6382cc2a5b</title>
<g id="a_node4"><a xlink:href="dir_56a8abddcbd7373d874dbb6382cc2a5b.html" target="_top" xlink:title="function">
<polygon fill="white" stroke="red" points="231,-132 175,-132 175,-96 231,-96 231,-132"/>
<text text-anchor="middle" x="203" y="-111.5" font-family="Helvetica,sans-Serif" font-size="10.00">function</text>
</a>
</g>
</g>
<!-- dir_56a8abddcbd7373d874dbb6382cc2a5b&#45;&gt;dir_f2a03d151d5632e9cfdfcc5fe4223b5a -->
<g id="edge23" class="edge">
<title>dir_56a8abddcbd7373d874dbb6382cc2a5b&#45;&gt;dir_f2a03d151d5632e9cfdfcc5fe4223b5a</title>
<path fill="none" stroke="black" d="M231.2,-127.22C247.97,-136.03 268.06,-149.62 279,-168 299.36,-202.2 289,-217.2 289,-257 289,-331 289,-331 289,-331 289,-390.58 225.74,-433.4 182.79,-455.61"/>
<polygon fill="black" stroke="black" points="181.07,-452.56 173.69,-460.17 184.2,-458.82 181.07,-452.56"/>
<g id="a_edge23&#45;headlabel"><a xlink:href="dir_000133_000119.html" target="_top" xlink:title="4">
<text text-anchor="middle" x="183.01" y="-445.91" font-family="Helvetica,sans-Serif" font-size="10.00">4</text>
</a>
</g>
</g>
<!-- dir_56a8abddcbd7373d874dbb6382cc2a5b&#45;&gt;dir_cbc9327ef122fb9d2e3099bcf15f379f -->
<g id="edge22" class="edge">
<title>dir_56a8abddcbd7373d874dbb6382cc2a5b&#45;&gt;dir_cbc9327ef122fb9d2e3099bcf15f379f</title>
<path fill="none" stroke="black" d="M191.38,-95.7C185.86,-87.47 179.15,-77.48 173.07,-68.42"/>
<polygon fill="black" stroke="black" points="175.96,-66.46 167.48,-60.1 170.15,-70.36 175.96,-66.46"/>
<g id="a_edge22&#45;headlabel"><a xlink:href="dir_000133_000149.html" target="_top" xlink:title="9">
<text text-anchor="middle" x="180.33" y="-65.36" font-family="Helvetica,sans-Serif" font-size="10.00">9</text>
</a>
</g>
</g>
<!-- dir_56a8abddcbd7373d874dbb6382cc2a5b&#45;&gt;dir_9f42d488f21f30bdc75c62948fa574ea -->
<g id="edge24" class="edge">
<title>dir_56a8abddcbd7373d874dbb6382cc2a5b&#45;&gt;dir_9f42d488f21f30bdc75c62948fa574ea</title>
<path fill="none" stroke="black" d="M200.16,-132.13C198.58,-142.48 196.79,-155.96 196,-168 194.95,-183.97 194.9,-188.04 196,-204 197.11,-220.12 199.89,-223.88 201,-240 202.1,-255.96 209.13,-262.22 201,-276 188.25,-297.61 163.17,-311.02 141.85,-318.94"/>
<polygon fill="black" stroke="black" points="140.69,-315.64 132.38,-322.2 142.97,-322.26 140.69,-315.64"/>
<g id="a_edge24&#45;headlabel"><a xlink:href="dir_000133_000123.html" target="_top" xlink:title="2">
<text text-anchor="middle" x="143.16" y="-309.28" font-family="Helvetica,sans-Serif" font-size="10.00">2</text>
</a>
</g>
</g>
<!-- dir_5421ed8c8fde3f7a08a046a47d931eae -->
<g id="node5" class="node">
<title>dir_5421ed8c8fde3f7a08a046a47d931eae</title>
<g id="a_node5"><a xlink:href="dir_5421ed8c8fde3f7a08a046a47d931eae.html" target="_top" xlink:title="invariants">
<polygon fill="white" stroke="red" points="269.5,-204 204.5,-204 204.5,-168 269.5,-168 269.5,-204"/>
<text text-anchor="middle" x="237" y="-183.5" font-family="Helvetica,sans-Serif" font-size="10.00">invariants</text>
</a>
</g>
</g>
<!-- dir_5421ed8c8fde3f7a08a046a47d931eae&#45;&gt;dir_f2a03d151d5632e9cfdfcc5fe4223b5a -->
<g id="edge32" class="edge">
<title>dir_5421ed8c8fde3f7a08a046a47d931eae&#45;&gt;dir_f2a03d151d5632e9cfdfcc5fe4223b5a</title>
<path fill="none" stroke="black" d="M237.06,-204.33C236.74,-222.47 235.18,-251.64 229,-276 212.73,-340.13 178.11,-410.11 158.45,-446.95"/>
<polygon fill="black" stroke="black" points="155.23,-445.54 153.56,-456 161.39,-448.86 155.23,-445.54"/>
<g id="a_edge32&#45;headlabel"><a xlink:href="dir_000136_000119.html" target="_top" xlink:title="22">
<text text-anchor="middle" x="154.44" y="-438.53" font-family="Helvetica,sans-Serif" font-size="10.00">22</text>
</a>
</g>
</g>
<!-- dir_5421ed8c8fde3f7a08a046a47d931eae&#45;&gt;dir_56a8abddcbd7373d874dbb6382cc2a5b -->
<g id="edge28" class="edge">
<title>dir_5421ed8c8fde3f7a08a046a47d931eae&#45;&gt;dir_56a8abddcbd7373d874dbb6382cc2a5b</title>
<path fill="none" stroke="black" d="M228.6,-167.7C224.73,-159.73 220.05,-150.1 215.76,-141.26"/>
<polygon fill="black" stroke="black" points="218.83,-139.57 211.31,-132.1 212.53,-142.63 218.83,-139.57"/>
<g id="a_edge28&#45;headlabel"><a xlink:href="dir_000136_000133.html" target="_top" xlink:title="12">
<text text-anchor="middle" x="222.95" y="-139.06" font-family="Helvetica,sans-Serif" font-size="10.00">12</text>
</a>
</g>
</g>
<!-- dir_acf644b39d60b4fff64b1eb43dc3fb5a -->
<g id="node7" class="node">
<title>dir_acf644b39d60b4fff64b1eb43dc3fb5a</title>
<g id="a_node7"><a xlink:href="dir_acf644b39d60b4fff64b1eb43dc3fb5a.html" target="_top" xlink:title="multimesh">
<polygon fill="white" stroke="red" points="116.5,-132 47.5,-132 47.5,-96 116.5,-96 116.5,-132"/>
<text text-anchor="middle" x="82" y="-111.5" font-family="Helvetica,sans-Serif" font-size="10.00">multimesh</text>
</a>
</g>
</g>
<!-- dir_5421ed8c8fde3f7a08a046a47d931eae&#45;&gt;dir_acf644b39d60b4fff64b1eb43dc3fb5a -->
<g id="edge30" class="edge">
<title>dir_5421ed8c8fde3f7a08a046a47d931eae&#45;&gt;dir_acf644b39d60b4fff64b1eb43dc3fb5a</title>
<path fill="none" stroke="black" d="M204.13,-170.15C181.36,-159.87 150.78,-146.06 125.93,-134.84"/>
<polygon fill="black" stroke="black" points="127.26,-131.6 116.71,-130.67 124.38,-137.98 127.26,-131.6"/>
<g id="a_edge30&#45;headlabel"><a xlink:href="dir_000136_000120.html" target="_top" xlink:title="4">
<text text-anchor="middle" x="131.71" y="-127.99" font-family="Helvetica,sans-Serif" font-size="10.00">4</text>
</a>
</g>
</g>
<!-- dir_5421ed8c8fde3f7a08a046a47d931eae&#45;&gt;dir_cbc9327ef122fb9d2e3099bcf15f379f -->
<g id="edge31" class="edge">
<title>dir_5421ed8c8fde3f7a08a046a47d931eae&#45;&gt;dir_cbc9327ef122fb9d2e3099bcf15f379f</title>
<path fill="none" stroke="black" d="M242.54,-167.73C247.51,-148.85 252.32,-118.34 240,-96 230.02,-77.91 210.99,-65.14 193.55,-56.68"/>
<polygon fill="black" stroke="black" points="194.66,-53.34 184.1,-52.41 191.78,-59.72 194.66,-53.34"/>
<g id="a_edge31&#45;headlabel"><a xlink:href="dir_000136_000149.html" target="_top" xlink:title="44">
<text text-anchor="middle" x="199.1" y="-49.73" font-family="Helvetica,sans-Serif" font-size="10.00">44</text>
</a>
</g>
</g>
<!-- dir_5421ed8c8fde3f7a08a046a47d931eae&#45;&gt;dir_9f42d488f21f30bdc75c62948fa574ea -->
<g id="edge29" class="edge">
<title>dir_5421ed8c8fde3f7a08a046a47d931eae&#45;&gt;dir_9f42d488f21f30bdc75c62948fa574ea</title>
<path fill="none" stroke="black" d="M237.18,-204.31C236.51,-223.77 232.64,-255.36 216,-276 197.39,-299.09 166.31,-312.72 141.76,-320.37"/>
<polygon fill="black" stroke="black" points="140.66,-317.04 132.04,-323.19 142.61,-323.76 140.66,-317.04"/>
<g id="a_edge29&#45;headlabel"><a xlink:href="dir_000136_000123.html" target="_top" xlink:title="19">
<text text-anchor="middle" x="143.32" y="-310.81" font-family="Helvetica,sans-Serif" font-size="10.00">19</text>
</a>
</g>
</g>
<!-- dir_5f5962d46c0c2d5a2dbf0efb09269d04&#45;&gt;dir_f2a03d151d5632e9cfdfcc5fe4223b5a -->
<g id="edge15" class="edge">
<title>dir_5f5962d46c0c2d5a2dbf0efb09269d04&#45;&gt;dir_f2a03d151d5632e9cfdfcc5fe4223b5a</title>
<path fill="none" stroke="black" d="M115.14,-420.1C121.25,-428.13 127.87,-437.87 133.34,-446.8"/>
<polygon fill="black" stroke="black" points="130.47,-448.83 138.54,-455.7 136.52,-445.3 130.47,-448.83"/>
<g id="a_edge15&#45;headlabel"><a xlink:href="dir_000138_000119.html" target="_top" xlink:title="1">
<text text-anchor="middle" x="126.21" y="-444.66" font-family="Helvetica,sans-Serif" font-size="10.00">1</text>
</a>
</g>
</g>
<!-- dir_5f5962d46c0c2d5a2dbf0efb09269d04&#45;&gt;dir_acf644b39d60b4fff64b1eb43dc3fb5a -->
<g id="edge14" class="edge">
<title>dir_5f5962d46c0c2d5a2dbf0efb09269d04&#45;&gt;dir_acf644b39d60b4fff64b1eb43dc3fb5a</title>
<path fill="none" stroke="black" d="M85.69,-383.78C79.35,-373.84 72.27,-360.8 69,-348 50.41,-275.3 65.53,-185.82 75.31,-141.91"/>
<polygon fill="black" stroke="black" points="78.75,-142.54 77.59,-132.01 71.93,-140.96 78.75,-142.54"/>
<g id="a_edge14&#45;headlabel"><a xlink:href="dir_000138_000120.html" target="_top" xlink:title="1">
<text text-anchor="middle" x="80.71" y="-144.18" font-family="Helvetica,sans-Serif" font-size="10.00">1</text>
</a>
</g>
</g>
<!-- dir_5f5962d46c0c2d5a2dbf0efb09269d04&#45;&gt;dir_9f42d488f21f30bdc75c62948fa574ea -->
<g id="edge13" class="edge">
<title>dir_5f5962d46c0c2d5a2dbf0efb09269d04&#45;&gt;dir_9f42d488f21f30bdc75c62948fa574ea</title>
<path fill="none" stroke="black" d="M93.81,-383.7C93.79,-375.98 94.49,-366.71 95.69,-358.11"/>
<polygon fill="black" stroke="black" points="99.17,-358.55 97.39,-348.1 92.27,-357.38 99.17,-358.55"/>
<g id="a_edge13&#45;headlabel"><a xlink:href="dir_000138_000123.html" target="_top" xlink:title="11">
<text text-anchor="middle" x="101.37" y="-360.07" font-family="Helvetica,sans-Serif" font-size="10.00">11</text>
</a>
</g>
</g>
<!-- dir_acf644b39d60b4fff64b1eb43dc3fb5a&#45;&gt;dir_f2a03d151d5632e9cfdfcc5fe4223b5a -->
<g id="edge20" class="edge">
<title>dir_acf644b39d60b4fff64b1eb43dc3fb5a&#45;&gt;dir_f2a03d151d5632e9cfdfcc5fe4223b5a</title>
<path fill="none" stroke="black" d="M70.19,-132.04C53.49,-157.84 25,-208.92 25,-257 25,-331 25,-331 25,-331 25,-373.84 34.55,-387.11 62,-420 73.69,-434.01 90.05,-445.61 105.09,-454.35"/>
<polygon fill="black" stroke="black" points="103.78,-457.63 114.22,-459.42 107.18,-451.5 103.78,-457.63"/>
<g id="a_edge20&#45;headlabel"><a xlink:href="dir_000120_000119.html" target="_top" xlink:title="13">
<text text-anchor="middle" x="99.26" y="-455.87" font-family="Helvetica,sans-Serif" font-size="10.00">13</text>
</a>
</g>
</g>
<!-- dir_acf644b39d60b4fff64b1eb43dc3fb5a&#45;&gt;dir_228c2c271cc4cd9f4cc4d2c9e4cc379f -->
<g id="edge21" class="edge">
<title>dir_acf644b39d60b4fff64b1eb43dc3fb5a&#45;&gt;dir_228c2c271cc4cd9f4cc4d2c9e4cc379f</title>
<path fill="none" stroke="black" d="M74.58,-95.7C71.21,-87.81 67.13,-78.3 63.38,-69.55"/>
<polygon fill="black" stroke="black" points="66.49,-67.92 59.33,-60.1 60.05,-70.67 66.49,-67.92"/>
<g id="a_edge21&#45;headlabel"><a xlink:href="dir_000120_000126.html" target="_top" xlink:title="5">
<text text-anchor="middle" x="70.51" y="-67.6" font-family="Helvetica,sans-Serif" font-size="10.00">5</text>
</a>
</g>
</g>
<!-- dir_cce1e74d6889f0f8c282b81d2e706218 -->
<g id="node8" class="node">
<title>dir_cce1e74d6889f0f8c282b81d2e706218</title>
<g id="a_node8"><a xlink:href="dir_cce1e74d6889f0f8c282b81d2e706218.html" target="_top" xlink:title="operations">
<polygon fill="white" stroke="red" points="192,-276 124,-276 124,-240 192,-240 192,-276"/>
<text text-anchor="middle" x="158" y="-255.5" font-family="Helvetica,sans-Serif" font-size="10.00">operations</text>
</a>
</g>
</g>
<!-- dir_acf644b39d60b4fff64b1eb43dc3fb5a&#45;&gt;dir_cce1e74d6889f0f8c282b81d2e706218 -->
<g id="edge19" class="edge">
<title>dir_acf644b39d60b4fff64b1eb43dc3fb5a&#45;&gt;dir_cce1e74d6889f0f8c282b81d2e706218</title>
<path fill="none" stroke="black" d="M95.79,-132.19C111.45,-156.64 135.83,-201.67 149.18,-230.44"/>
<polygon fill="black" stroke="black" points="146.13,-232.18 153.42,-239.87 152.52,-229.31 146.13,-232.18"/>
<g id="a_edge19&#45;headlabel"><a xlink:href="dir_000120_000141.html" target="_top" xlink:title="6">
<text text-anchor="middle" x="142.07" y="-227.56" font-family="Helvetica,sans-Serif" font-size="10.00">6</text>
</a>
</g>
</g>
<!-- dir_acf644b39d60b4fff64b1eb43dc3fb5a&#45;&gt;dir_cbc9327ef122fb9d2e3099bcf15f379f -->
<g id="edge18" class="edge">
<title>dir_acf644b39d60b4fff64b1eb43dc3fb5a&#45;&gt;dir_cbc9327ef122fb9d2e3099bcf15f379f</title>
<path fill="none" stroke="black" d="M100.29,-95.7C109.43,-87.05 120.64,-76.45 130.6,-67.03"/>
<polygon fill="black" stroke="black" points="133.06,-69.52 137.92,-60.1 128.25,-64.43 133.06,-69.52"/>
<g id="a_edge18&#45;headlabel"><a xlink:href="dir_000120_000149.html" target="_top" xlink:title="13">
<text text-anchor="middle" x="132.4" y="-71.55" font-family="Helvetica,sans-Serif" font-size="10.00">13</text>
</a>
</g>
</g>
<!-- dir_acf644b39d60b4fff64b1eb43dc3fb5a&#45;&gt;dir_9f42d488f21f30bdc75c62948fa574ea -->
<g id="edge17" class="edge">
<title>dir_acf644b39d60b4fff64b1eb43dc3fb5a&#45;&gt;dir_9f42d488f21f30bdc75c62948fa574ea</title>
<path fill="none" stroke="black" d="M87.74,-132.23C95.25,-169.32 104.94,-256.98 106.75,-301.71"/>
<polygon fill="black" stroke="black" points="103.26,-301.95 107.03,-311.85 110.26,-301.76 103.26,-301.95"/>
<g id="a_edge17&#45;headlabel"><a xlink:href="dir_000120_000123.html" target="_top" xlink:title="27">
<text text-anchor="middle" x="100.32" y="-295.94" font-family="Helvetica,sans-Serif" font-size="10.00">27</text>
</a>
</g>
</g>
<!-- dir_cce1e74d6889f0f8c282b81d2e706218&#45;&gt;dir_f2a03d151d5632e9cfdfcc5fe4223b5a -->
<g id="edge12" class="edge">
<title>dir_cce1e74d6889f0f8c282b81d2e706218&#45;&gt;dir_f2a03d151d5632e9cfdfcc5fe4223b5a</title>
<path fill="none" stroke="black" d="M156.87,-276.23C154.45,-313.32 148.71,-400.98 145.79,-445.71"/>
<polygon fill="black" stroke="black" points="142.28,-445.64 145.12,-455.85 149.27,-446.1 142.28,-445.64"/>
<g id="a_edge12&#45;headlabel"><a xlink:href="dir_000141_000119.html" target="_top" xlink:title="14">
<text text-anchor="middle" x="139.68" y="-439.37" font-family="Helvetica,sans-Serif" font-size="10.00">14</text>
</a>
</g>
</g>
<!-- dir_cce1e74d6889f0f8c282b81d2e706218&#45;&gt;dir_56a8abddcbd7373d874dbb6382cc2a5b -->
<g id="edge8" class="edge">
<title>dir_cce1e74d6889f0f8c282b81d2e706218&#45;&gt;dir_56a8abddcbd7373d874dbb6382cc2a5b</title>
<path fill="none" stroke="black" d="M161.38,-239.69C165.13,-221.58 171.75,-192.43 180,-168 182.95,-159.26 186.76,-149.95 190.41,-141.62"/>
<polygon fill="black" stroke="black" points="193.66,-142.93 194.58,-132.38 187.28,-140.05 193.66,-142.93"/>
<g id="a_edge8&#45;headlabel"><a xlink:href="dir_000141_000133.html" target="_top" xlink:title="5">
<text text-anchor="middle" x="194.77" y="-144.88" font-family="Helvetica,sans-Serif" font-size="10.00">5</text>
</a>
</g>
</g>
<!-- dir_cce1e74d6889f0f8c282b81d2e706218&#45;&gt;dir_5421ed8c8fde3f7a08a046a47d931eae -->
<g id="edge7" class="edge">
<title>dir_cce1e74d6889f0f8c282b81d2e706218&#45;&gt;dir_5421ed8c8fde3f7a08a046a47d931eae</title>
<path fill="none" stroke="black" d="M177.53,-239.7C187.38,-230.97 199.49,-220.24 210.2,-210.75"/>
<polygon fill="black" stroke="black" points="212.53,-213.36 217.7,-204.1 207.89,-208.12 212.53,-213.36"/>
<g id="a_edge7&#45;headlabel"><a xlink:href="dir_000141_000136.html" target="_top" xlink:title="3">
<text text-anchor="middle" x="211.73" y="-215.36" font-family="Helvetica,sans-Serif" font-size="10.00">3</text>
</a>
</g>
</g>
<!-- dir_cce1e74d6889f0f8c282b81d2e706218&#45;&gt;dir_acf644b39d60b4fff64b1eb43dc3fb5a -->
<g id="edge10" class="edge">
<title>dir_cce1e74d6889f0f8c282b81d2e706218&#45;&gt;dir_acf644b39d60b4fff64b1eb43dc3fb5a</title>
<path fill="none" stroke="black" d="M144.25,-239.87C128.6,-215.46 104.23,-170.43 90.85,-141.64"/>
<polygon fill="black" stroke="black" points="93.9,-139.88 86.61,-132.19 87.51,-142.75 93.9,-139.88"/>
<g id="a_edge10&#45;headlabel"><a xlink:href="dir_000141_000120.html" target="_top" xlink:title="20">
<text text-anchor="middle" x="97.96" y="-139.5" font-family="Helvetica,sans-Serif" font-size="10.00">20</text>
</a>
</g>
</g>
<!-- dir_cce1e74d6889f0f8c282b81d2e706218&#45;&gt;dir_cbc9327ef122fb9d2e3099bcf15f379f -->
<g id="edge11" class="edge">
<title>dir_cce1e74d6889f0f8c282b81d2e706218&#45;&gt;dir_cbc9327ef122fb9d2e3099bcf15f379f</title>
<path fill="none" stroke="black" d="M157.84,-239.85C157.49,-202.83 156.67,-115.18 156.26,-70.39"/>
<polygon fill="black" stroke="black" points="159.75,-70.2 156.16,-60.23 152.75,-70.26 159.75,-70.2"/>
<g id="a_edge11&#45;headlabel"><a xlink:href="dir_000141_000149.html" target="_top" xlink:title="21">
<text text-anchor="middle" x="162.63" y="-71.27" font-family="Helvetica,sans-Serif" font-size="10.00">21</text>
</a>
</g>
</g>
<!-- dir_cce1e74d6889f0f8c282b81d2e706218&#45;&gt;dir_9f42d488f21f30bdc75c62948fa574ea -->
<g id="edge9" class="edge">
<title>dir_cce1e74d6889f0f8c282b81d2e706218&#45;&gt;dir_9f42d488f21f30bdc75c62948fa574ea</title>
<path fill="none" stroke="black" d="M150.94,-276.1C145.49,-284.47 137.95,-294.69 130.49,-303.92"/>
<polygon fill="black" stroke="black" points="127.73,-301.77 124.02,-311.7 133.11,-306.25 127.73,-301.77"/>
<g id="a_edge9&#45;headlabel"><a xlink:href="dir_000141_000123.html" target="_top" xlink:title="20">
<text text-anchor="middle" x="127.84" y="-294.69" font-family="Helvetica,sans-Serif" font-size="10.00">20</text>
</a>
</g>
</g>
<!-- dir_cbc9327ef122fb9d2e3099bcf15f379f&#45;&gt;dir_9f42d488f21f30bdc75c62948fa574ea -->
<g id="edge16" class="edge">
<title>dir_cbc9327ef122fb9d2e3099bcf15f379f&#45;&gt;dir_9f42d488f21f30bdc75c62948fa574ea</title>
<path fill="none" stroke="black" d="M156.95,-60.03C152.82,-94.05 134.73,-172.91 124,-240 120.71,-260.6 118.12,-284.05 115.11,-301.71"/>
<polygon fill="black" stroke="black" points="111.6,-301.4 113.17,-311.87 118.48,-302.71 111.6,-301.4"/>
<g id="a_edge16&#45;headlabel"><a xlink:href="dir_000149_000123.html" target="_top" xlink:title="13">
<text text-anchor="middle" x="109.49" y="-294.83" font-family="Helvetica,sans-Serif" font-size="10.00">13</text>
</a>
</g>
</g>
<!-- dir_9f42d488f21f30bdc75c62948fa574ea&#45;&gt;dir_f2a03d151d5632e9cfdfcc5fe4223b5a -->
<g id="edge6" class="edge">
<title>dir_9f42d488f21f30bdc75c62948fa574ea&#45;&gt;dir_f2a03d151d5632e9cfdfcc5fe4223b5a</title>
<path fill="none" stroke="black" d="M124.68,-348.37C131.93,-358.36 139.02,-371.4 143,-384 149.36,-404.11 151.79,-427.89 151.33,-445.81"/>
<polygon fill="black" stroke="black" points="147.83,-445.67 150.7,-455.86 154.81,-446.1 147.83,-445.67"/>
<g id="a_edge6&#45;headlabel"><a xlink:href="dir_000123_000119.html" target="_top" xlink:title="1">
<text text-anchor="middle" x="145.22" y="-439.4" font-family="Helvetica,sans-Serif" font-size="10.00">1</text>
</a>
</g>
</g>
<!-- dir_9f42d488f21f30bdc75c62948fa574ea&#45;&gt;dir_228c2c271cc4cd9f4cc4d2c9e4cc379f -->
<g id="edge1" class="edge">
<title>dir_9f42d488f21f30bdc75c62948fa574ea&#45;&gt;dir_228c2c271cc4cd9f4cc4d2c9e4cc379f</title>
<path fill="none" stroke="black" d="M91.9,-311.84C72.85,-278.23 40.41,-200.97 29,-132 26.39,-116.21 26.94,-111.87 29,-96 30.12,-87.41 32.21,-78.23 34.84,-69.97"/>
<polygon fill="black" stroke="black" points="38.18,-71.03 38.3,-60.44 31.6,-68.65 38.18,-71.03"/>
<g id="a_edge1&#45;headlabel"><a xlink:href="dir_000123_000126.html" target="_top" xlink:title="2">
<text text-anchor="middle" x="39.62" y="-72.88" font-family="Helvetica,sans-Serif" font-size="10.00">2</text>
</a>
</g>
</g>
<!-- dir_9f42d488f21f30bdc75c62948fa574ea&#45;&gt;dir_5f5962d46c0c2d5a2dbf0efb09269d04 -->
<g id="edge2" class="edge">
<title>dir_9f42d488f21f30bdc75c62948fa574ea&#45;&gt;dir_5f5962d46c0c2d5a2dbf0efb09269d04</title>
<path fill="none" stroke="black" d="M109.18,-348.1C109.22,-355.79 108.53,-365.05 107.34,-373.67"/>
<polygon fill="black" stroke="black" points="103.86,-373.25 105.65,-383.7 110.76,-374.42 103.86,-373.25"/>
<g id="a_edge2&#45;headlabel"><a xlink:href="dir_000123_000138.html" target="_top" xlink:title="1">
<text text-anchor="middle" x="101.66" y="-366.74" font-family="Helvetica,sans-Serif" font-size="10.00">1</text>
</a>
</g>
</g>
<!-- dir_9f42d488f21f30bdc75c62948fa574ea&#45;&gt;dir_acf644b39d60b4fff64b1eb43dc3fb5a -->
<g id="edge3" class="edge">
<title>dir_9f42d488f21f30bdc75c62948fa574ea&#45;&gt;dir_acf644b39d60b4fff64b1eb43dc3fb5a</title>
<path fill="none" stroke="black" d="M99.28,-311.85C91.76,-274.83 82.07,-187.18 80.25,-142.39"/>
<polygon fill="black" stroke="black" points="83.75,-142.13 79.97,-132.23 76.75,-142.33 83.75,-142.13"/>
<g id="a_edge3&#45;headlabel"><a xlink:href="dir_000123_000120.html" target="_top" xlink:title="1">
<text text-anchor="middle" x="86.68" y="-143.14" font-family="Helvetica,sans-Serif" font-size="10.00">1</text>
</a>
</g>
</g>
<!-- dir_9f42d488f21f30bdc75c62948fa574ea&#45;&gt;dir_cce1e74d6889f0f8c282b81d2e706218 -->
<g id="edge5" class="edge">
<title>dir_9f42d488f21f30bdc75c62948fa574ea&#45;&gt;dir_cce1e74d6889f0f8c282b81d2e706218</title>
<path fill="none" stroke="black" d="M112.19,-311.7C117.67,-303.3 125.23,-293.07 132.68,-283.86"/>
<polygon fill="black" stroke="black" points="135.44,-286.03 139.15,-276.1 130.06,-281.54 135.44,-286.03"/>
<g id="a_edge5&#45;headlabel"><a xlink:href="dir_000123_000141.html" target="_top" xlink:title="1">
<text text-anchor="middle" x="135.32" y="-288.1" font-family="Helvetica,sans-Serif" font-size="10.00">1</text>
</a>
</g>
</g>
<!-- dir_9f42d488f21f30bdc75c62948fa574ea&#45;&gt;dir_cbc9327ef122fb9d2e3099bcf15f379f -->
<g id="edge4" class="edge">
<title>dir_9f42d488f21f30bdc75c62948fa574ea&#45;&gt;dir_cbc9327ef122fb9d2e3099bcf15f379f</title>
<path fill="none" stroke="black" d="M99.73,-311.87C99.08,-293.91 102.02,-264.87 106,-240 115.81,-178.67 131.77,-107.51 143.62,-69.76"/>
<polygon fill="black" stroke="black" points="147.02,-70.62 146.84,-60.03 140.37,-68.42 147.02,-70.62"/>
<g id="a_edge4&#45;headlabel"><a xlink:href="dir_000123_000149.html" target="_top" xlink:title="2">
<text text-anchor="middle" x="148.58" y="-72.43" font-family="Helvetica,sans-Serif" font-size="10.00">2</text>
</a>
</g>
</g>
</g>
</svg>
        <g id="navigator" transform="translate(0 0)" fill="#404254">
                <rect fill="#f2f5e9" fill-opacity="0.5" stroke="#606060" stroke-width=".5" x="0" y="0" width="60" height="60"/>
                <use id="zoomplus" xlink:href="#zoomPlus" x="17" y="9" onmousedown="handleZoom(evt,'in')"/>
                <use id="zoomminus" xlink:href="#zoomMin" x="42" y="9" onmousedown="handleZoom(evt,'out')"/>
                <use id="reset" xlink:href="#resetDef" x="30" y="36" onmousedown="handleReset()"/>
                <g id="arrowUp" xlink:href="#dirArrow" transform="translate(30 24)" onmousedown="handlePan(0,-1)">
                  <use xlink:href="#rim" fill="#404040">
                        <set attributeName="fill" to="#808080" begin="arrowUp.mouseover" end="arrowUp.mouseout"/>
                  </use>
                  <path fill="none" stroke="white" stroke-width="1.5" d="M0,-3.0v7 M-2.5,-0.5L0,-3.0L2.5,-0.5"/>
                </g>
                <g id="arrowRight" xlink:href="#dirArrow" transform="rotate(90) translate(36 -43)" onmousedown="handlePan(1,0)">
                  <use xlink:href="#rim" fill="#404040">
                        <set attributeName="fill" to="#808080" begin="arrowRight.mouseover" end="arrowRight.mouseout"/>
                  </use>
                  <path fill="none" stroke="white" stroke-width="1.5" d="M0,-3.0v7 M-2.5,-0.5L0,-3.0L2.5,-0.5"/>
                </g>
                <g id="arrowDown" xlink:href="#dirArrow" transform="rotate(180) translate(-30 -48)" onmousedown="handlePan(0,1)">
                  <use xlink:href="#rim" fill="#404040">
                        <set attributeName="fill" to="#808080" begin="arrowDown.mouseover" end="arrowDown.mouseout"/>
                  </use>
                  <path fill="none" stroke="white" stroke-width="1.5" d="M0,-3.0v7 M-2.5,-0.5L0,-3.0L2.5,-0.5"/>
                </g>
                <g id="arrowLeft" xlink:href="#dirArrow" transform="rotate(270) translate(-36 17)" onmousedown="handlePan(-1,0)">
                  <use xlink:href="#rim" fill="#404040">
                        <set attributeName="fill" to="#808080" begin="arrowLeft.mouseover" end="arrowLeft.mouseout"/>
                  </use>
                  <path fill="none" stroke="white" stroke-width="1.5" d="M0,-3.0v7 M-2.5,-0.5L0,-3.0L2.5,-0.5"/>
                </g>
        </g>
        <svg viewBox="0 0 15 15" width="100%" height="30px" preserveAspectRatio="xMaxYMin meet">
         <g id="arrow_out" transform="scale(0.3 0.3)">
          <a xlink:href="dir_f7a95b7257057fa18adfa4b3aabbe846_dep_org.svg" target="_base">
           <rect id="button" ry="5" rx="5" y="6" x="6" height="38" width="38"
                fill="#f2f5e9" fill-opacity="0.5" stroke="#606060" stroke-width="1.0"/>
           <path id="arrow"
             d="M 11.500037,31.436501 C 11.940474,20.09759 22.043105,11.32322 32.158766,21.979434 L 37.068811,17.246167 C 37.068811,17.246167 37.088388,32 37.088388,32 L 22.160133,31.978069 C 22.160133,31.978069 26.997745,27.140456 26.997745,27.140456 C 18.528582,18.264221 13.291696,25.230495 11.500037,31.436501 z"
             style="fill:#404040;"/>
          </a>
         </g>
        </svg>
</svg>
