<?xml version="1.0" encoding="UTF-8" standalone="no"?>
<!DOCTYPE svg PUBLIC "-//W3C//DTD SVG 1.1//EN"
 "http://www.w3.org/Graphics/SVG/1.1/DTD/svg11.dtd">
<!-- Generated by graphviz version 2.43.0 (0)
 -->
<!-- Title: src/wmtk/simplex/faces_single_dimension.hpp Pages: 1 -->
<!--zoomable 117 -->
<svg id="main" version="1.1" xmlns="http://www.w3.org/2000/svg" xmlns:xlink="http://www.w3.org/1999/xlink" xml:space="preserve" onload="init(evt)">
<style type="text/css"><![CDATA[
.edge:hover path { stroke: red; }
.edge:hover polygon { stroke: red; fill: red; }
]]></style>
<script type="text/javascript"><![CDATA[
var edges = document.getElementsByTagName('g');
if (edges && edges.length) {
  for (var i=0;i<edges.length;i++) {
    if (edges[i].id.substr(0,4)=='edge') {
      edges[i].setAttribute('class','edge');
    }
  }
}
]]></script>
        <defs>
                <circle id="rim" cx="0" cy="0" r="7"/>
                <circle id="rim2" cx="0" cy="0" r="3.5"/>
                <g id="zoomPlus">
                        <use xlink:href="#rim" fill="#404040">
                                <set attributeName="fill" to="#808080" begin="zoomplus.mouseover" end="zoomplus.mouseout"/>
                        </use>
                        <path d="M-4,0h8M0,-4v8" fill="none" stroke="white" stroke-width="1.5" pointer-events="none"/>
                </g>
                <g id="zoomMin">
                        <use xlink:href="#rim" fill="#404040">
                                <set attributeName="fill" to="#808080" begin="zoomminus.mouseover" end="zoomminus.mouseout"/>
                        </use>
                        <path d="M-4,0h8" fill="none" stroke="white" stroke-width="1.5" pointer-events="none"/>
                </g>
                <g id="dirArrow">
                        <path fill="none" stroke="white" stroke-width="1.5" d="M0,-3.0v7 M-2.5,-0.5L0,-3.0L2.5,-0.5"/>
                </g>
               <g id="resetDef">
                       <use xlink:href="#rim2" fill="#404040">
                               <set attributeName="fill" to="#808080" begin="reset.mouseover" end="reset.mouseout"/>
                       </use>
               </g>
        </defs>

<script type="text/javascript">
var viewWidth = 2153;
var viewHeight = 117;
var sectionId = 'dynsection-1';
</script>
<script xlink:href="svgpan.js"/>
<svg id="graph" class="graph">
<g id="viewport">
<title>src/wmtk/simplex/faces_single_dimension.hpp</title>
<!-- Node1 -->
<g id="node1" class="node">
<title>Node1</title>
<g id="a_node1"><a xlink:title=" ">
<polygon fill="#bfbfbf" stroke="black" points="1006,-78.5 1006,-108.5 1139,-108.5 1139,-78.5 1006,-78.5"/>
<text text-anchor="start" x="1014" y="-96.5" font-family="Helvetica,sans-Serif" font-size="10.00">src/wmtk/simplex/faces</text>
<text text-anchor="middle" x="1072.5" y="-85.5" font-family="Helvetica,sans-Serif" font-size="10.00">_single_dimension.hpp</text>
</a>
</g>
</g>
<!-- Node2 -->
<g id="node2" class="node">
<title>Node2</title>
<g id="a_node2"><a xlink:href="_per_simplex_autodiff_function_8cpp.html" target="_top" xlink:title=" ">
<polygon fill="none" stroke="black" points="0,-6 0,-36 163,-36 163,-6 0,-6"/>
<text text-anchor="start" x="8" y="-24" font-family="Helvetica,sans-Serif" font-size="10.00">src/wmtk/function/PerSimplex</text>
<text text-anchor="middle" x="81.5" y="-13" font-family="Helvetica,sans-Serif" font-size="10.00">AutodiffFunction.cpp</text>
</a>
</g>
</g>
<!-- Node1&#45;&gt;Node2 -->
<g id="edge1" class="edge">
<title>Node1&#45;&gt;Node2</title>
<path fill="none" stroke="midnightblue" d="M995.39,-92.33C839.31,-91.06 475.06,-83.46 172.5,-42 161.6,-40.51 150.07,-38.4 139.02,-36.1"/>
<polygon fill="midnightblue" stroke="midnightblue" points="995.79,-95.83 1005.82,-92.4 995.84,-88.83 995.79,-95.83"/>
</g>
<!-- Node3 -->
<g id="node3" class="node">
<title>Node3</title>
<g id="a_node3"><a xlink:href="_simplex_getter_8cpp.html" target="_top" xlink:title=" ">
<polygon fill="none" stroke="black" points="181.5,-6 181.5,-36 309.5,-36 309.5,-6 181.5,-6"/>
<text text-anchor="start" x="189.5" y="-24" font-family="Helvetica,sans-Serif" font-size="10.00">src/wmtk/function/utils</text>
<text text-anchor="middle" x="245.5" y="-13" font-family="Helvetica,sans-Serif" font-size="10.00">/SimplexGetter.cpp</text>
</a>
</g>
</g>
<!-- Node1&#45;&gt;Node3 -->
<g id="edge2" class="edge">
<title>Node1&#45;&gt;Node3</title>
<path fill="none" stroke="midnightblue" d="M995.53,-92.42C858.45,-91.14 563.42,-83.32 318.5,-42 309.56,-40.49 300.13,-38.34 291.14,-36.01"/>
<polygon fill="midnightblue" stroke="midnightblue" points="995.89,-95.92 1005.92,-92.5 995.95,-88.92 995.89,-95.92"/>
</g>
<!-- Node4 -->
<g id="node4" class="node">
<title>Node4</title>
<g id="a_node4"><a xlink:href="_min_incident_valence_invariant_8cpp.html" target="_top" xlink:title=" ">
<polygon fill="none" stroke="black" points="328,-6 328,-36 507,-36 507,-6 328,-6"/>
<text text-anchor="start" x="336" y="-24" font-family="Helvetica,sans-Serif" font-size="10.00">src/wmtk/invariants</text>
<text text-anchor="middle" x="417.5" y="-13" font-family="Helvetica,sans-Serif" font-size="10.00">/MinIncidentValenceInvariant.cpp</text>
</a>
</g>
</g>
<!-- Node1&#45;&gt;Node4 -->
<g id="edge3" class="edge">
<title>Node1&#45;&gt;Node4</title>
<path fill="none" stroke="midnightblue" d="M995.79,-88.18C888.25,-81.52 686.76,-66.85 516.5,-42 505.22,-40.35 493.29,-38.25 481.76,-36.04"/>
<polygon fill="midnightblue" stroke="midnightblue" points="995.7,-91.68 1005.9,-88.8 996.13,-84.69 995.7,-91.68"/>
</g>
<!-- Node5 -->
<g id="node5" class="node">
<title>Node5</title>
<g id="a_node5"><a xlink:href="_simplex_inversion_invariant_8cpp.html" target="_top" xlink:title=" ">
<polygon fill="none" stroke="black" points="525.5,-6 525.5,-36 693.5,-36 693.5,-6 525.5,-6"/>
<text text-anchor="start" x="533.5" y="-24" font-family="Helvetica,sans-Serif" font-size="10.00">src/wmtk/invariants</text>
<text text-anchor="middle" x="609.5" y="-13" font-family="Helvetica,sans-Serif" font-size="10.00">/SimplexInversionInvariant.cpp</text>
</a>
</g>
</g>
<!-- Node1&#45;&gt;Node5 -->
<g id="edge4" class="edge">
<title>Node1&#45;&gt;Node5</title>
<path fill="none" stroke="midnightblue" d="M995.46,-83.72C920.43,-74.76 803.28,-59.69 702.5,-42 692.5,-40.24 681.93,-38.18 671.65,-36.05"/>
<polygon fill="midnightblue" stroke="midnightblue" points="995.42,-87.24 1005.76,-84.94 996.24,-80.29 995.42,-87.24"/>
</g>
<!-- Node6 -->
<g id="node6" class="node">
<title>Node6</title>
<g id="a_node6"><a xlink:href="_tet_mesh_substructure_topology_preserving_invariant_8cpp.html" target="_top" xlink:title=" ">
<polygon fill="none" stroke="black" points="712,-0.5 712,-41.5 877,-41.5 877,-0.5 712,-0.5"/>
<text text-anchor="start" x="720" y="-29.5" font-family="Helvetica,sans-Serif" font-size="10.00">src/wmtk/invariants</text>
<text text-anchor="start" x="720" y="-18.5" font-family="Helvetica,sans-Serif" font-size="10.00">/TetMeshSubstructureTopology</text>
<text text-anchor="middle" x="794.5" y="-7.5" font-family="Helvetica,sans-Serif" font-size="10.00">PreservingInvariant.cpp</text>
</a>
</g>
</g>
<!-- Node1&#45;&gt;Node6 -->
<g id="edge5" class="edge">
<title>Node1&#45;&gt;Node6</title>
<path fill="none" stroke="midnightblue" d="M1007.44,-76C966.78,-65.69 914.22,-52.36 871.49,-41.53"/>
<polygon fill="midnightblue" stroke="midnightblue" points="1006.69,-79.42 1017.24,-78.49 1008.41,-72.64 1006.69,-79.42"/>
</g>
<!-- Node7 -->
<g id="node7" class="node">
<title>Node7</title>
<g id="a_node7"><a xlink:href="_tri_mesh_substructure_topology_preserving_invariant_8cpp.html" target="_top" xlink:title=" ">
<polygon fill="none" stroke="black" points="895.5,-0.5 895.5,-41.5 1057.5,-41.5 1057.5,-0.5 895.5,-0.5"/>
<text text-anchor="start" x="903.5" y="-29.5" font-family="Helvetica,sans-Serif" font-size="10.00">src/wmtk/invariants</text>
<text text-anchor="start" x="903.5" y="-18.5" font-family="Helvetica,sans-Serif" font-size="10.00">/TriMeshSubstructureTopology</text>
<text text-anchor="middle" x="976.5" y="-7.5" font-family="Helvetica,sans-Serif" font-size="10.00">PreservingInvariant.cpp</text>
</a>
</g>
</g>
<!-- Node1&#45;&gt;Node7 -->
<g id="edge6" class="edge">
<title>Node1&#45;&gt;Node7</title>
<path fill="none" stroke="midnightblue" d="M1044.87,-72.21C1031.76,-62.58 1016.16,-51.12 1003.17,-41.59"/>
<polygon fill="midnightblue" stroke="midnightblue" points="1042.94,-75.14 1053.07,-78.23 1047.08,-69.49 1042.94,-75.14"/>
</g>
<!-- Node8 -->
<g id="node8" class="node">
<title>Node8</title>
<g id="a_node8"><a xlink:href="_valence_improvement_invariant_8cpp.html" target="_top" xlink:title=" ">
<polygon fill="none" stroke="black" points="1075.5,-6 1075.5,-36 1263.5,-36 1263.5,-6 1075.5,-6"/>
<text text-anchor="start" x="1083.5" y="-24" font-family="Helvetica,sans-Serif" font-size="10.00">src/wmtk/invariants</text>
<text text-anchor="middle" x="1169.5" y="-13" font-family="Helvetica,sans-Serif" font-size="10.00">/ValenceImprovementInvariant.cpp</text>
</a>
</g>
</g>
<!-- Node1&#45;&gt;Node8 -->
<g id="edge7" class="edge">
<title>Node1&#45;&gt;Node8</title>
<path fill="none" stroke="midnightblue" d="M1100.55,-72.11C1116.49,-60.53 1136.03,-46.33 1150.23,-36"/>
<polygon fill="midnightblue" stroke="midnightblue" points="1098.16,-69.52 1092.13,-78.23 1102.28,-75.19 1098.16,-69.52"/>
</g>
<!-- Node9 -->
<g id="node9" class="node">
<title>Node9</title>
<g id="a_node9"><a xlink:href="_attribute_transfer_strategy_base_8cpp.html" target="_top" xlink:title=" ">
<polygon fill="none" stroke="black" points="1282,-0.5 1282,-41.5 1425,-41.5 1425,-0.5 1282,-0.5"/>
<text text-anchor="start" x="1290" y="-29.5" font-family="Helvetica,sans-Serif" font-size="10.00">src/wmtk/operations</text>
<text text-anchor="start" x="1290" y="-18.5" font-family="Helvetica,sans-Serif" font-size="10.00">/AttributeTransferStrategy</text>
<text text-anchor="middle" x="1353.5" y="-7.5" font-family="Helvetica,sans-Serif" font-size="10.00">Base.cpp</text>
</a>
</g>
</g>
<!-- Node1&#45;&gt;Node9 -->
<g id="edge8" class="edge">
<title>Node1&#45;&gt;Node9</title>
<path fill="none" stroke="midnightblue" d="M1138.18,-76.02C1181.31,-65.2 1237.73,-51.05 1281.99,-39.94"/>
<polygon fill="midnightblue" stroke="midnightblue" points="1137.2,-72.66 1128.35,-78.49 1138.9,-79.45 1137.2,-72.66"/>
</g>
<!-- Node10 -->
<g id="node10" class="node">
<title>Node10</title>
<g id="a_node10"><a xlink:href="faces_8cpp.html" target="_top" xlink:title=" ">
<polygon fill="none" stroke="black" points="1443,-11.5 1443,-30.5 1596,-30.5 1596,-11.5 1443,-11.5"/>
<text text-anchor="middle" x="1519.5" y="-18.5" font-family="Helvetica,sans-Serif" font-size="10.00">src/wmtk/simplex/faces.cpp</text>
</a>
</g>
</g>
<!-- Node1&#45;&gt;Node10 -->
<g id="edge9" class="edge">
<title>Node1&#45;&gt;Node10</title>
<path fill="none" stroke="midnightblue" d="M1149.29,-83.88C1222.79,-75.13 1336.65,-60.3 1434.5,-42 1451.79,-38.77 1470.86,-34.36 1486.55,-30.5"/>
<polygon fill="midnightblue" stroke="midnightblue" points="1148.71,-80.42 1139.19,-85.07 1149.53,-87.37 1148.71,-80.42"/>
</g>
<!-- Node11 -->
<g id="node11" class="node">
<title>Node11</title>
<g id="a_node11"><a xlink:href="faces__single__dimension_8cpp.html" target="_top" xlink:title=" ">
<polygon fill="none" stroke="black" points="1614,-6 1614,-36 1747,-36 1747,-6 1614,-6"/>
<text text-anchor="start" x="1622" y="-24" font-family="Helvetica,sans-Serif" font-size="10.00">src/wmtk/simplex/faces</text>
<text text-anchor="middle" x="1680.5" y="-13" font-family="Helvetica,sans-Serif" font-size="10.00">_single_dimension.cpp</text>
</a>
</g>
</g>
<!-- Node1&#45;&gt;Node11 -->
<g id="edge10" class="edge">
<title>Node1&#45;&gt;Node11</title>
<path fill="none" stroke="midnightblue" d="M1149.14,-89.24C1253.17,-83.91 1444.58,-70.87 1605.5,-42 1614.25,-40.43 1623.48,-38.34 1632.35,-36.1"/>
<polygon fill="midnightblue" stroke="midnightblue" points="1148.85,-85.75 1139.04,-89.75 1149.2,-92.74 1148.85,-85.75"/>
</g>
<!-- Node12 -->
<g id="node12" class="node">
<title>Node12</title>
<g id="a_node12"><a xlink:href="_raw_simplex_8cpp.html" target="_top" xlink:title=" ">
<polygon fill="none" stroke="black" points="1765.5,-11.5 1765.5,-30.5 1953.5,-30.5 1953.5,-11.5 1765.5,-11.5"/>
<text text-anchor="middle" x="1859.5" y="-18.5" font-family="Helvetica,sans-Serif" font-size="10.00">src/wmtk/simplex/RawSimplex.cpp</text>
</a>
</g>
</g>
<!-- Node1&#45;&gt;Node12 -->
<g id="edge11" class="edge">
<title>Node1&#45;&gt;Node12</title>
<path fill="none" stroke="midnightblue" d="M1149.29,-89.79C1276.15,-84.65 1537.3,-71.27 1756.5,-42 1777.99,-39.13 1801.75,-34.61 1821.04,-30.59"/>
<polygon fill="midnightblue" stroke="midnightblue" points="1149.13,-86.29 1139.28,-90.19 1149.41,-93.29 1149.13,-86.29"/>
</g>
<!-- Node13 -->
<g id="node13" class="node">
<title>Node13</title>
<g id="a_node13"><a xlink:href="_regular_space_8cpp.html" target="_top" xlink:title=" ">
<polygon fill="none" stroke="black" points="1972,-0.5 1972,-41.5 2145,-41.5 2145,-0.5 1972,-0.5"/>
<text text-anchor="start" x="1980" y="-29.5" font-family="Helvetica,sans-Serif" font-size="10.00">components/wmtk_components</text>
<text text-anchor="start" x="1980" y="-18.5" font-family="Helvetica,sans-Serif" font-size="10.00">/regular_space/internal</text>
<text text-anchor="middle" x="2058.5" y="-7.5" font-family="Helvetica,sans-Serif" font-size="10.00">/RegularSpace.cpp</text>
</a>
</g>
</g>
<!-- Node1&#45;&gt;Node13 -->
<g id="edge12" class="edge">
<title>Node1&#45;&gt;Node13</title>
<path fill="none" stroke="midnightblue" d="M1149.59,-91.97C1304.35,-90.07 1663.65,-81.39 1962.5,-42 1965.62,-41.59 1968.8,-41.13 1971.99,-40.64"/>
<polygon fill="midnightblue" stroke="midnightblue" points="1149.21,-88.48 1139.25,-92.1 1149.29,-95.48 1149.21,-88.48"/>
</g>
</g>
</svg>
        <g id="navigator" transform="translate(0 0)" fill="#404254">
                <rect fill="#f2f5e9" fill-opacity="0.5" stroke="#606060" stroke-width=".5" x="0" y="0" width="60" height="60"/>
                <use id="zoomplus" xlink:href="#zoomPlus" x="17" y="9" onmousedown="handleZoom(evt,'in')"/>
                <use id="zoomminus" xlink:href="#zoomMin" x="42" y="9" onmousedown="handleZoom(evt,'out')"/>
                <use id="reset" xlink:href="#resetDef" x="30" y="36" onmousedown="handleReset()"/>
                <g id="arrowUp" xlink:href="#dirArrow" transform="translate(30 24)" onmousedown="handlePan(0,-1)">
                  <use xlink:href="#rim" fill="#404040">
                        <set attributeName="fill" to="#808080" begin="arrowUp.mouseover" end="arrowUp.mouseout"/>
                  </use>
                  <path fill="none" stroke="white" stroke-width="1.5" d="M0,-3.0v7 M-2.5,-0.5L0,-3.0L2.5,-0.5"/>
                </g>
                <g id="arrowRight" xlink:href="#dirArrow" transform="rotate(90) translate(36 -43)" onmousedown="handlePan(1,0)">
                  <use xlink:href="#rim" fill="#404040">
                        <set attributeName="fill" to="#808080" begin="arrowRight.mouseover" end="arrowRight.mouseout"/>
                  </use>
                  <path fill="none" stroke="white" stroke-width="1.5" d="M0,-3.0v7 M-2.5,-0.5L0,-3.0L2.5,-0.5"/>
                </g>
                <g id="arrowDown" xlink:href="#dirArrow" transform="rotate(180) translate(-30 -48)" onmousedown="handlePan(0,1)">
                  <use xlink:href="#rim" fill="#404040">
                        <set attributeName="fill" to="#808080" begin="arrowDown.mouseover" end="arrowDown.mouseout"/>
                  </use>
                  <path fill="none" stroke="white" stroke-width="1.5" d="M0,-3.0v7 M-2.5,-0.5L0,-3.0L2.5,-0.5"/>
                </g>
                <g id="arrowLeft" xlink:href="#dirArrow" transform="rotate(270) translate(-36 17)" onmousedown="handlePan(-1,0)">
                  <use xlink:href="#rim" fill="#404040">
                        <set attributeName="fill" to="#808080" begin="arrowLeft.mouseover" end="arrowLeft.mouseout"/>
                  </use>
                  <path fill="none" stroke="white" stroke-width="1.5" d="M0,-3.0v7 M-2.5,-0.5L0,-3.0L2.5,-0.5"/>
                </g>
        </g>
        <svg viewBox="0 0 15 15" width="100%" height="30px" preserveAspectRatio="xMaxYMin meet">
         <g id="arrow_out" transform="scale(0.3 0.3)">
          <a xlink:href="faces__single__dimension_8hpp__dep__incl_org.svg" target="_base">
           <rect id="button" ry="5" rx="5" y="6" x="6" height="38" width="38"
                fill="#f2f5e9" fill-opacity="0.5" stroke="#606060" stroke-width="1.0"/>
           <path id="arrow"
             d="M 11.500037,31.436501 C 11.940474,20.09759 22.043105,11.32322 32.158766,21.979434 L 37.068811,17.246167 C 37.068811,17.246167 37.088388,32 37.088388,32 L 22.160133,31.978069 C 22.160133,31.978069 26.997745,27.140456 26.997745,27.140456 C 18.528582,18.264221 13.291696,25.230495 11.500037,31.436501 z"
             style="fill:#404040;"/>
          </a>
         </g>
        </svg>
</svg>
