<?xml version="1.0" encoding="UTF-8" standalone="no"?>
<!DOCTYPE svg PUBLIC "-//W3C//DTD SVG 1.1//EN"
 "http://www.w3.org/Graphics/SVG/1.1/DTD/svg11.dtd">
<!-- Generated by graphviz version 2.43.0 (0)
 -->
<!-- Title: src/wmtk/attribute/internal/hash.hpp Pages: 1 -->
<!--zoomable 274 -->
<svg id="main" version="1.1" xmlns="http://www.w3.org/2000/svg" xmlns:xlink="http://www.w3.org/1999/xlink" xml:space="preserve" onload="init(evt)">
<style type="text/css"><![CDATA[
.edge:hover path { stroke: red; }
.edge:hover polygon { stroke: red; fill: red; }
]]></style>
<script type="text/javascript"><![CDATA[
var edges = document.getElementsByTagName('g');
if (edges && edges.length) {
  for (var i=0;i<edges.length;i++) {
    if (edges[i].id.substr(0,4)=='edge') {
      edges[i].setAttribute('class','edge');
    }
  }
}
]]></script>
        <defs>
                <circle id="rim" cx="0" cy="0" r="7"/>
                <circle id="rim2" cx="0" cy="0" r="3.5"/>
                <g id="zoomPlus">
                        <use xlink:href="#rim" fill="#404040">
                                <set attributeName="fill" to="#808080" begin="zoomplus.mouseover" end="zoomplus.mouseout"/>
                        </use>
                        <path d="M-4,0h8M0,-4v8" fill="none" stroke="white" stroke-width="1.5" pointer-events="none"/>
                </g>
                <g id="zoomMin">
                        <use xlink:href="#rim" fill="#404040">
                                <set attributeName="fill" to="#808080" begin="zoomminus.mouseover" end="zoomminus.mouseout"/>
                        </use>
                        <path d="M-4,0h8" fill="none" stroke="white" stroke-width="1.5" pointer-events="none"/>
                </g>
                <g id="dirArrow">
                        <path fill="none" stroke="white" stroke-width="1.5" d="M0,-3.0v7 M-2.5,-0.5L0,-3.0L2.5,-0.5"/>
                </g>
               <g id="resetDef">
                       <use xlink:href="#rim2" fill="#404040">
                               <set attributeName="fill" to="#808080" begin="reset.mouseover" end="reset.mouseout"/>
                       </use>
               </g>
        </defs>

<script type="text/javascript">
var viewWidth = 723;
var viewHeight = 274;
var sectionId = 'dynsection-0';
</script>
<script xlink:href="svgpan.js"/>
<svg id="graph" class="graph">
<g id="viewport">
<title>src/wmtk/attribute/internal/hash.hpp</title>
<!-- Node1 -->
<g id="node1" class="node">
<title>Node1</title>
<g id="a_node1"><a xlink:title=" ">
<polygon fill="#bfbfbf" stroke="black" points="166,-235.5 166,-265.5 273,-265.5 273,-235.5 166,-235.5"/>
<text text-anchor="start" x="174" y="-253.5" font-family="Helvetica,sans-Serif" font-size="10.00">src/wmtk/attribute</text>
<text text-anchor="middle" x="219.5" y="-242.5" font-family="Helvetica,sans-Serif" font-size="10.00">/internal/hash.hpp</text>
</a>
</g>
</g>
<!-- Node2 -->
<g id="node2" class="node">
<title>Node2</title>
<g id="a_node2"><a xlink:title=" ">
<polygon fill="none" stroke="#bfbfbf" points="56,-174 56,-193 121,-193 121,-174 56,-174"/>
<text text-anchor="middle" x="88.5" y="-181" font-family="Helvetica,sans-Serif" font-size="10.00">functional</text>
</a>
</g>
</g>
<!-- Node1&#45;&gt;Node2 -->
<g id="edge1" class="edge">
<title>Node1&#45;&gt;Node2</title>
<path fill="none" stroke="midnightblue" d="M191.07,-235.4C168.39,-224.14 136.87,-208.5 114.78,-197.54"/>
<polygon fill="midnightblue" stroke="midnightblue" points="116.16,-194.32 105.64,-193.01 113.05,-200.59 116.16,-194.32"/>
</g>
<!-- Node3 -->
<g id="node3" class="node">
<title>Node3</title>
<g id="a_node3"><a xlink:href="_mesh_attribute_handle_8hpp.html" target="_top" xlink:title=" ">
<polygon fill="none" stroke="black" points="139,-168.5 139,-198.5 300,-198.5 300,-168.5 139,-168.5"/>
<text text-anchor="start" x="147" y="-186.5" font-family="Helvetica,sans-Serif" font-size="10.00">wmtk/attribute/MeshAttribute</text>
<text text-anchor="middle" x="219.5" y="-175.5" font-family="Helvetica,sans-Serif" font-size="10.00">Handle.hpp</text>
</a>
</g>
</g>
<!-- Node1&#45;&gt;Node3 -->
<g id="edge2" class="edge">
<title>Node1&#45;&gt;Node3</title>
<path fill="none" stroke="midnightblue" d="M219.5,-235.4C219.5,-227.64 219.5,-217.81 219.5,-208.86"/>
<polygon fill="midnightblue" stroke="midnightblue" points="223,-208.58 219.5,-198.58 216,-208.58 223,-208.58"/>
</g>
<!-- Node20 -->
<g id="node20" class="node">
<title>Node20</title>
<g id="a_node20"><a xlink:href="vector__hash_8hpp.html" target="_top" xlink:title=" ">
<polygon fill="none" stroke="black" points="429.5,-56.5 429.5,-75.5 581.5,-75.5 581.5,-56.5 429.5,-56.5"/>
<text text-anchor="middle" x="505.5" y="-63.5" font-family="Helvetica,sans-Serif" font-size="10.00">wmtk/utils/vector_hash.hpp</text>
</a>
</g>
</g>
<!-- Node1&#45;&gt;Node20 -->
<g id="edge20" class="edge">
<title>Node1&#45;&gt;Node20</title>
<path fill="none" stroke="midnightblue" d="M252.54,-235.48C297.15,-215.76 378.11,-177.15 439.5,-132 459.03,-117.64 478.44,-97.66 491.1,-83.65"/>
<polygon fill="midnightblue" stroke="midnightblue" points="494.04,-85.61 498.05,-75.81 488.8,-80.97 494.04,-85.61"/>
</g>
<!-- Node4 -->
<g id="node4" class="node">
<title>Node4</title>
<g id="a_node4"><a xlink:href="_rational_8hpp.html" target="_top" xlink:title=" ">
<polygon fill="none" stroke="black" points="113,-56.5 113,-75.5 246,-75.5 246,-56.5 113,-56.5"/>
<text text-anchor="middle" x="179.5" y="-63.5" font-family="Helvetica,sans-Serif" font-size="10.00">wmtk/utils/Rational.hpp</text>
</a>
</g>
</g>
<!-- Node3&#45;&gt;Node4 -->
<g id="edge3" class="edge">
<title>Node3&#45;&gt;Node4</title>
<path fill="none" stroke="midnightblue" d="M229.34,-168.42C238.26,-153.77 248.72,-130.43 239.5,-112 232.77,-98.54 219.89,-88.07 207.79,-80.62"/>
<polygon fill="midnightblue" stroke="midnightblue" points="209.22,-77.41 198.8,-75.52 205.77,-83.5 209.22,-77.41"/>
</g>
<!-- Node9 -->
<g id="node9" class="node">
<title>Node9</title>
<g id="a_node9"><a xlink:href="_attribute_type_8hpp.html" target="_top" xlink:title=" ">
<polygon fill="none" stroke="black" points="128,-112.5 128,-131.5 231,-131.5 231,-112.5 128,-112.5"/>
<text text-anchor="middle" x="179.5" y="-119.5" font-family="Helvetica,sans-Serif" font-size="10.00">AttributeType.hpp</text>
</a>
</g>
</g>
<!-- Node3&#45;&gt;Node9 -->
<g id="edge8" class="edge">
<title>Node3&#45;&gt;Node9</title>
<path fill="none" stroke="midnightblue" d="M210.02,-168.4C204.33,-159.93 197.05,-149.1 191.02,-140.14"/>
<polygon fill="midnightblue" stroke="midnightblue" points="193.8,-138 185.32,-131.66 187.99,-141.91 193.8,-138"/>
</g>
<!-- Node10 -->
<g id="node10" class="node">
<title>Node10</title>
<g id="a_node10"><a xlink:href="_typed_attribute_handle_8hpp.html" target="_top" xlink:title=" ">
<polygon fill="none" stroke="black" points="288,-112.5 288,-131.5 431,-131.5 431,-112.5 288,-112.5"/>
<text text-anchor="middle" x="359.5" y="-119.5" font-family="Helvetica,sans-Serif" font-size="10.00">TypedAttributeHandle.hpp</text>
</a>
</g>
</g>
<!-- Node3&#45;&gt;Node10 -->
<g id="edge10" class="edge">
<title>Node3&#45;&gt;Node10</title>
<path fill="none" stroke="midnightblue" d="M252.68,-168.4C276.06,-158.46 307.11,-145.26 329.71,-135.66"/>
<polygon fill="midnightblue" stroke="midnightblue" points="331.29,-138.79 339.13,-131.66 328.56,-132.35 331.29,-138.79"/>
</g>
<!-- Node18 -->
<g id="node18" class="node">
<title>Node18</title>
<g id="a_node18"><a xlink:title=" ">
<polygon fill="none" stroke="#bfbfbf" points="0,-112.5 0,-131.5 41,-131.5 41,-112.5 0,-112.5"/>
<text text-anchor="middle" x="20.5" y="-119.5" font-family="Helvetica,sans-Serif" font-size="10.00">tuple</text>
</a>
</g>
</g>
<!-- Node3&#45;&gt;Node18 -->
<g id="edge18" class="edge">
<title>Node3&#45;&gt;Node18</title>
<path fill="none" stroke="midnightblue" d="M171.46,-168.4C139.65,-159.02 96.75,-146.31 50.91,-132.41"/>
<polygon fill="midnightblue" stroke="midnightblue" points="51.67,-128.98 41.09,-129.42 49.64,-135.68 51.67,-128.98"/>
</g>
<!-- Node19 -->
<g id="node19" class="node">
<title>Node19</title>
<g id="a_node19"><a xlink:title=" ">
<polygon fill="none" stroke="#bfbfbf" points="59,-112.5 59,-131.5 110,-131.5 110,-112.5 59,-112.5"/>
<text text-anchor="middle" x="84.5" y="-119.5" font-family="Helvetica,sans-Serif" font-size="10.00">variant</text>
</a>
</g>
</g>
<!-- Node3&#45;&gt;Node19 -->
<g id="edge19" class="edge">
<title>Node3&#45;&gt;Node19</title>
<path fill="none" stroke="midnightblue" d="M187.51,-168.4C165.06,-158.51 135.29,-145.38 113.52,-135.79"/>
<polygon fill="midnightblue" stroke="midnightblue" points="114.71,-132.49 104.14,-131.66 111.88,-138.89 114.71,-132.49"/>
</g>
<!-- Node5 -->
<g id="node5" class="node">
<title>Node5</title>
<g id="a_node5"><a xlink:title=" ">
<polygon fill="none" stroke="#bfbfbf" points="220,-0.5 220,-19.5 289,-19.5 289,-0.5 220,-0.5"/>
<text text-anchor="middle" x="254.5" y="-7.5" font-family="Helvetica,sans-Serif" font-size="10.00">Eigen/Core</text>
</a>
</g>
</g>
<!-- Node4&#45;&gt;Node5 -->
<g id="edge4" class="edge">
<title>Node4&#45;&gt;Node5</title>
<path fill="none" stroke="midnightblue" d="M191.55,-56.32C202.96,-48.11 220.33,-35.6 233.93,-25.81"/>
<polygon fill="midnightblue" stroke="midnightblue" points="236.16,-28.52 242.23,-19.83 232.07,-22.84 236.16,-28.52"/>
</g>
<!-- Node6 -->
<g id="node6" class="node">
<title>Node6</title>
<g id="a_node6"><a xlink:title=" ">
<polygon fill="none" stroke="#bfbfbf" points="14,-0.5 14,-19.5 61,-19.5 61,-0.5 14,-0.5"/>
<text text-anchor="middle" x="37.5" y="-7.5" font-family="Helvetica,sans-Serif" font-size="10.00">gmp.h</text>
</a>
</g>
</g>
<!-- Node4&#45;&gt;Node6 -->
<g id="edge5" class="edge">
<title>Node4&#45;&gt;Node6</title>
<path fill="none" stroke="midnightblue" d="M157,-56.44C133.42,-47.48 96.18,-33.31 69.54,-23.18"/>
<polygon fill="midnightblue" stroke="midnightblue" points="70.49,-19.8 59.9,-19.52 68,-26.34 70.49,-19.8"/>
</g>
<!-- Node7 -->
<g id="node7" class="node">
<title>Node7</title>
<g id="a_node7"><a xlink:title=" ">
<polygon fill="none" stroke="#bfbfbf" points="79.5,-0.5 79.5,-19.5 139.5,-19.5 139.5,-0.5 79.5,-0.5"/>
<text text-anchor="middle" x="109.5" y="-7.5" font-family="Helvetica,sans-Serif" font-size="10.00">iostream</text>
</a>
</g>
</g>
<!-- Node4&#45;&gt;Node7 -->
<g id="edge6" class="edge">
<title>Node4&#45;&gt;Node7</title>
<path fill="none" stroke="midnightblue" d="M168.25,-56.32C157.7,-48.18 141.7,-35.84 129.06,-26.09"/>
<polygon fill="midnightblue" stroke="midnightblue" points="131.01,-23.17 120.95,-19.83 126.73,-28.71 131.01,-23.17"/>
</g>
<!-- Node8 -->
<g id="node8" class="node">
<title>Node8</title>
<g id="a_node8"><a xlink:title=" ">
<polygon fill="none" stroke="#bfbfbf" points="157.5,-0.5 157.5,-19.5 201.5,-19.5 201.5,-0.5 157.5,-0.5"/>
<text text-anchor="middle" x="179.5" y="-7.5" font-family="Helvetica,sans-Serif" font-size="10.00">string</text>
</a>
</g>
</g>
<!-- Node4&#45;&gt;Node8 -->
<g id="edge7" class="edge">
<title>Node4&#45;&gt;Node8</title>
<path fill="none" stroke="midnightblue" d="M179.5,-56.08C179.5,-49.01 179.5,-38.86 179.5,-29.99"/>
<polygon fill="midnightblue" stroke="midnightblue" points="183,-29.75 179.5,-19.75 176,-29.75 183,-29.75"/>
</g>
<!-- Node9&#45;&gt;Node4 -->
<g id="edge9" class="edge">
<title>Node9&#45;&gt;Node4</title>
<path fill="none" stroke="midnightblue" d="M179.5,-112.08C179.5,-105.01 179.5,-94.86 179.5,-85.99"/>
<polygon fill="midnightblue" stroke="midnightblue" points="183,-85.75 179.5,-75.75 176,-85.75 183,-85.75"/>
</g>
<!-- Node11 -->
<g id="node11" class="node">
<title>Node11</title>
<g id="a_node11"><a xlink:href="_primitive_type_8hpp.html" target="_top" xlink:title=" ">
<polygon fill="none" stroke="black" points="276,-56.5 276,-75.5 411,-75.5 411,-56.5 276,-56.5"/>
<text text-anchor="middle" x="343.5" y="-63.5" font-family="Helvetica,sans-Serif" font-size="10.00">wmtk/PrimitiveType.hpp</text>
</a>
</g>
</g>
<!-- Node10&#45;&gt;Node11 -->
<g id="edge11" class="edge">
<title>Node10&#45;&gt;Node11</title>
<path fill="none" stroke="midnightblue" d="M356.86,-112.08C354.71,-104.85 351.62,-94.41 348.95,-85.4"/>
<polygon fill="midnightblue" stroke="midnightblue" points="352.29,-84.34 346.09,-75.75 345.58,-86.33 352.29,-84.34"/>
</g>
<!-- Node15 -->
<g id="node15" class="node">
<title>Node15</title>
<g id="a_node15"><a xlink:href="_attribute_handle_8hpp.html" target="_top" xlink:title=" ">
<polygon fill="none" stroke="black" points="600,-56.5 600,-75.5 715,-75.5 715,-56.5 600,-56.5"/>
<text text-anchor="middle" x="657.5" y="-63.5" font-family="Helvetica,sans-Serif" font-size="10.00">AttributeHandle.hpp</text>
</a>
</g>
</g>
<!-- Node10&#45;&gt;Node15 -->
<g id="edge15" class="edge">
<title>Node10&#45;&gt;Node15</title>
<path fill="none" stroke="midnightblue" d="M406.72,-112.44C459.25,-102.92 544.11,-87.55 600.35,-77.36"/>
<polygon fill="midnightblue" stroke="midnightblue" points="601.29,-80.74 610.5,-75.52 600.04,-73.86 601.29,-80.74"/>
</g>
<!-- Node12 -->
<g id="node12" class="node">
<title>Node12</title>
<g id="a_node12"><a xlink:title=" ">
<polygon fill="none" stroke="#bfbfbf" points="398,-0.5 398,-19.5 463,-19.5 463,-0.5 398,-0.5"/>
<text text-anchor="middle" x="430.5" y="-7.5" font-family="Helvetica,sans-Serif" font-size="10.00">stdexcept</text>
</a>
</g>
</g>
<!-- Node11&#45;&gt;Node12 -->
<g id="edge12" class="edge">
<title>Node11&#45;&gt;Node12</title>
<path fill="none" stroke="midnightblue" d="M357.48,-56.32C371.05,-47.9 391.88,-34.97 407.82,-25.07"/>
<polygon fill="midnightblue" stroke="midnightblue" points="409.91,-27.9 416.56,-19.65 406.21,-21.95 409.91,-27.9"/>
</g>
<!-- Node13 -->
<g id="node13" class="node">
<title>Node13</title>
<g id="a_node13"><a xlink:title=" ">
<polygon fill="none" stroke="#bfbfbf" points="307,-0.5 307,-19.5 380,-19.5 380,-0.5 307,-0.5"/>
<text text-anchor="middle" x="343.5" y="-7.5" font-family="Helvetica,sans-Serif" font-size="10.00">string_view</text>
</a>
</g>
</g>
<!-- Node11&#45;&gt;Node13 -->
<g id="edge13" class="edge">
<title>Node11&#45;&gt;Node13</title>
<path fill="none" stroke="midnightblue" d="M343.5,-56.08C343.5,-49.01 343.5,-38.86 343.5,-29.99"/>
<polygon fill="midnightblue" stroke="midnightblue" points="347,-29.75 343.5,-19.75 340,-29.75 347,-29.75"/>
</g>
<!-- Node14 -->
<g id="node14" class="node">
<title>Node14</title>
<g id="a_node14"><a xlink:title=" ">
<polygon fill="none" stroke="#bfbfbf" points="482,-0.5 482,-19.5 529,-19.5 529,-0.5 482,-0.5"/>
<text text-anchor="middle" x="505.5" y="-7.5" font-family="Helvetica,sans-Serif" font-size="10.00">vector</text>
</a>
</g>
</g>
<!-- Node11&#45;&gt;Node14 -->
<g id="edge14" class="edge">
<title>Node11&#45;&gt;Node14</title>
<path fill="none" stroke="midnightblue" d="M369.17,-56.44C396.98,-47.17 441.47,-32.34 472.02,-22.16"/>
<polygon fill="midnightblue" stroke="midnightblue" points="473.42,-25.38 481.8,-18.9 471.2,-18.74 473.42,-25.38"/>
</g>
<!-- Node16 -->
<g id="node16" class="node">
<title>Node16</title>
<g id="a_node16"><a xlink:title=" ">
<polygon fill="none" stroke="#bfbfbf" points="551.5,-0.5 551.5,-19.5 601.5,-19.5 601.5,-0.5 551.5,-0.5"/>
<text text-anchor="middle" x="576.5" y="-7.5" font-family="Helvetica,sans-Serif" font-size="10.00">cstdint</text>
</a>
</g>
</g>
<!-- Node15&#45;&gt;Node16 -->
<g id="edge16" class="edge">
<title>Node15&#45;&gt;Node16</title>
<path fill="none" stroke="midnightblue" d="M644.49,-56.32C631.97,-47.98 612.82,-35.21 598.03,-25.35"/>
<polygon fill="midnightblue" stroke="midnightblue" points="599.74,-22.29 589.48,-19.65 595.86,-28.11 599.74,-22.29"/>
</g>
<!-- Node17 -->
<g id="node17" class="node">
<title>Node17</title>
<g id="a_node17"><a xlink:title=" ">
<polygon fill="none" stroke="#bfbfbf" points="623,-0.5 623,-19.5 692,-19.5 692,-0.5 623,-0.5"/>
<text text-anchor="middle" x="657.5" y="-7.5" font-family="Helvetica,sans-Serif" font-size="10.00">type_traits</text>
</a>
</g>
</g>
<!-- Node15&#45;&gt;Node17 -->
<g id="edge17" class="edge">
<title>Node15&#45;&gt;Node17</title>
<path fill="none" stroke="midnightblue" d="M657.5,-56.08C657.5,-49.01 657.5,-38.86 657.5,-29.99"/>
<polygon fill="midnightblue" stroke="midnightblue" points="661,-29.75 657.5,-19.75 654,-29.75 661,-29.75"/>
</g>
<!-- Node20&#45;&gt;Node14 -->
<g id="edge22" class="edge">
<title>Node20&#45;&gt;Node14</title>
<path fill="none" stroke="midnightblue" d="M505.5,-56.08C505.5,-49.01 505.5,-38.86 505.5,-29.99"/>
<polygon fill="midnightblue" stroke="midnightblue" points="509,-29.75 505.5,-19.75 502,-29.75 509,-29.75"/>
</g>
<!-- Node20&#45;&gt;Node16 -->
<g id="edge21" class="edge">
<title>Node20&#45;&gt;Node16</title>
<path fill="none" stroke="midnightblue" d="M516.91,-56.32C527.61,-48.18 543.84,-35.84 556.66,-26.09"/>
<polygon fill="midnightblue" stroke="midnightblue" points="559.04,-28.67 564.89,-19.83 554.81,-23.1 559.04,-28.67"/>
</g>
</g>
</svg>
        <g id="navigator" transform="translate(0 0)" fill="#404254">
                <rect fill="#f2f5e9" fill-opacity="0.5" stroke="#606060" stroke-width=".5" x="0" y="0" width="60" height="60"/>
                <use id="zoomplus" xlink:href="#zoomPlus" x="17" y="9" onmousedown="handleZoom(evt,'in')"/>
                <use id="zoomminus" xlink:href="#zoomMin" x="42" y="9" onmousedown="handleZoom(evt,'out')"/>
                <use id="reset" xlink:href="#resetDef" x="30" y="36" onmousedown="handleReset()"/>
                <g id="arrowUp" xlink:href="#dirArrow" transform="translate(30 24)" onmousedown="handlePan(0,-1)">
                  <use xlink:href="#rim" fill="#404040">
                        <set attributeName="fill" to="#808080" begin="arrowUp.mouseover" end="arrowUp.mouseout"/>
                  </use>
                  <path fill="none" stroke="white" stroke-width="1.5" d="M0,-3.0v7 M-2.5,-0.5L0,-3.0L2.5,-0.5"/>
                </g>
                <g id="arrowRight" xlink:href="#dirArrow" transform="rotate(90) translate(36 -43)" onmousedown="handlePan(1,0)">
                  <use xlink:href="#rim" fill="#404040">
                        <set attributeName="fill" to="#808080" begin="arrowRight.mouseover" end="arrowRight.mouseout"/>
                  </use>
                  <path fill="none" stroke="white" stroke-width="1.5" d="M0,-3.0v7 M-2.5,-0.5L0,-3.0L2.5,-0.5"/>
                </g>
                <g id="arrowDown" xlink:href="#dirArrow" transform="rotate(180) translate(-30 -48)" onmousedown="handlePan(0,1)">
                  <use xlink:href="#rim" fill="#404040">
                        <set attributeName="fill" to="#808080" begin="arrowDown.mouseover" end="arrowDown.mouseout"/>
                  </use>
                  <path fill="none" stroke="white" stroke-width="1.5" d="M0,-3.0v7 M-2.5,-0.5L0,-3.0L2.5,-0.5"/>
                </g>
                <g id="arrowLeft" xlink:href="#dirArrow" transform="rotate(270) translate(-36 17)" onmousedown="handlePan(-1,0)">
                  <use xlink:href="#rim" fill="#404040">
                        <set attributeName="fill" to="#808080" begin="arrowLeft.mouseover" end="arrowLeft.mouseout"/>
                  </use>
                  <path fill="none" stroke="white" stroke-width="1.5" d="M0,-3.0v7 M-2.5,-0.5L0,-3.0L2.5,-0.5"/>
                </g>
        </g>
        <svg viewBox="0 0 15 15" width="100%" height="30px" preserveAspectRatio="xMaxYMin meet">
         <g id="arrow_out" transform="scale(0.3 0.3)">
          <a xlink:href="hash_8hpp__incl_org.svg" target="_base">
           <rect id="button" ry="5" rx="5" y="6" x="6" height="38" width="38"
                fill="#f2f5e9" fill-opacity="0.5" stroke="#606060" stroke-width="1.0"/>
           <path id="arrow"
             d="M 11.500037,31.436501 C 11.940474,20.09759 22.043105,11.32322 32.158766,21.979434 L 37.068811,17.246167 C 37.068811,17.246167 37.088388,32 37.088388,32 L 22.160133,31.978069 C 22.160133,31.978069 26.997745,27.140456 26.997745,27.140456 C 18.528582,18.264221 13.291696,25.230495 11.500037,31.436501 z"
             style="fill:#404040;"/>
          </a>
         </g>
        </svg>
</svg>
