<?xml version="1.0" encoding="UTF-8" standalone="no"?>
<!DOCTYPE svg PUBLIC "-//W3C//DTD SVG 1.1//EN"
 "http://www.w3.org/Graphics/SVG/1.1/DTD/svg11.dtd">
<!-- Generated by graphviz version 2.43.0 (0)
 -->
<!-- Title: wmtk::mesh_utils::set_matrix_attribute Pages: 1 -->
<svg width="1328pt" height="657pt"
 viewBox="0.00 0.00 1328.00 657.35" xmlns="http://www.w3.org/2000/svg" xmlns:xlink="http://www.w3.org/1999/xlink">
<g id="graph0" class="graph" transform="scale(1 1) rotate(0) translate(4 653.35)">
<title>wmtk::mesh_utils::set_matrix_attribute</title>
<!-- Node1 -->
<g id="node1" class="node">
<title>Node1</title>
<g id="a_node1"><a xlink:title=" ">
<polygon fill="#bfbfbf" stroke="black" points="1195,-549.35 1195,-579.35 1320,-579.35 1320,-549.35 1195,-549.35"/>
<text text-anchor="start" x="1203" y="-567.35" font-family="Helvetica,sans-Serif" font-size="10.00">wmtk::mesh_utils::set</text>
<text text-anchor="middle" x="1257.5" y="-556.35" font-family="Helvetica,sans-Serif" font-size="10.00">_matrix_attribute</text>
</a>
</g>
</g>
<!-- Node2 -->
<g id="node2" class="node">
<title>Node2</title>
<g id="a_node2"><a xlink:href="namespacewmtk_1_1components.html#a21e25d3a6f734e991354c2294bf49bbe" target="_top" xlink:title=" ">
<polygon fill="none" stroke="black" points="442,-629.85 442,-648.85 631,-648.85 631,-629.85 442,-629.85"/>
<text text-anchor="middle" x="536.5" y="-636.85" font-family="Helvetica,sans-Serif" font-size="10.00">wmtk::components::delaunay_exec</text>
</a>
</g>
</g>
<!-- Node1&#45;&gt;Node2 -->
<g id="edge1" class="edge">
<title>Node1&#45;&gt;Node2</title>
<path fill="none" stroke="midnightblue" d="M1194.93,-581.83C1183.08,-584.71 1170.71,-587.39 1159,-589.35 973.36,-620.38 753.19,-632.32 631.03,-636.79"/>
<polygon fill="midnightblue" stroke="midnightblue" points="1195.88,-585.2 1204.73,-579.37 1194.18,-578.41 1195.88,-585.2"/>
</g>
<!-- Node3 -->
<g id="node3" class="node">
<title>Node3</title>
<g id="a_node3"><a xlink:href="namespacewmtk_1_1components_1_1internal.html#a7e292eba37fd37581ede0aa29943c3db" target="_top" xlink:title="Build a tagged triangle mesh from a greyscale image.">
<polygon fill="none" stroke="black" points="998,-549.35 998,-579.35 1159,-579.35 1159,-549.35 998,-549.35"/>
<text text-anchor="start" x="1006" y="-567.35" font-family="Helvetica,sans-Serif" font-size="10.00">wmtk::components::internal</text>
<text text-anchor="middle" x="1078.5" y="-556.35" font-family="Helvetica,sans-Serif" font-size="10.00">::mesh_with_tag_from_image</text>
</a>
</g>
</g>
<!-- Node1&#45;&gt;Node3 -->
<g id="edge2" class="edge">
<title>Node1&#45;&gt;Node3</title>
<path fill="none" stroke="midnightblue" d="M1184.51,-564.35C1176.14,-564.35 1167.57,-564.35 1159.1,-564.35"/>
<polygon fill="midnightblue" stroke="midnightblue" points="1184.59,-567.85 1194.59,-564.35 1184.59,-560.85 1184.59,-567.85"/>
</g>
<!-- Node5 -->
<g id="node5" class="node">
<title>Node5</title>
<g id="a_node5"><a xlink:href="classwmtk_1_1_msh_reader.html#a5eecae37de86c25ce483dbc69f14adac" target="_top" xlink:title=" ">
<polygon fill="none" stroke="black" points="1012,-469.85 1012,-488.85 1145,-488.85 1145,-469.85 1012,-469.85"/>
<text text-anchor="middle" x="1078.5" y="-476.85" font-family="Helvetica,sans-Serif" font-size="10.00">wmtk::MshReader::read</text>
</a>
</g>
</g>
<!-- Node1&#45;&gt;Node5 -->
<g id="edge4" class="edge">
<title>Node1&#45;&gt;Node5</title>
<path fill="none" stroke="midnightblue" d="M1215.9,-544.85C1179.47,-527.36 1127.55,-502.42 1099.44,-488.92"/>
<polygon fill="midnightblue" stroke="midnightblue" points="1214.73,-548.17 1225.26,-549.35 1217.76,-541.86 1214.73,-548.17"/>
</g>
<!-- Node4 -->
<g id="node4" class="node">
<title>Node4</title>
<g id="a_node4"><a xlink:href="test__component__input_8cpp.html#ac75dc6f525d583460008c72f843a1ffc" target="_top" xlink:title=" ">
<polygon fill="none" stroke="black" points="874.5,-554.85 874.5,-573.85 945.5,-573.85 945.5,-554.85 874.5,-554.85"/>
<text text-anchor="middle" x="910" y="-561.85" font-family="Helvetica,sans-Serif" font-size="10.00">TEST_CASE</text>
</a>
</g>
</g>
<!-- Node3&#45;&gt;Node4 -->
<g id="edge3" class="edge">
<title>Node3&#45;&gt;Node4</title>
<path fill="none" stroke="midnightblue" d="M987.43,-564.35C972.68,-564.35 958.22,-564.35 945.91,-564.35"/>
<polygon fill="midnightblue" stroke="midnightblue" points="987.66,-567.85 997.66,-564.35 987.66,-560.85 987.66,-567.85"/>
</g>
<!-- Node6 -->
<g id="node6" class="node">
<title>Node6</title>
<g id="a_node6"><a xlink:href="namespacewmtk.html#acc69252d3800a00676c9e7e51621538f" target="_top" xlink:title=" ">
<polygon fill="none" stroke="black" points="858,-388.85 858,-407.85 962,-407.85 962,-388.85 858,-388.85"/>
<text text-anchor="middle" x="910" y="-395.85" font-family="Helvetica,sans-Serif" font-size="10.00">wmtk::read_mesh</text>
</a>
</g>
</g>
<!-- Node5&#45;&gt;Node6 -->
<g id="edge5" class="edge">
<title>Node5&#45;&gt;Node6</title>
<path fill="none" stroke="midnightblue" d="M1048.41,-465.19C1014.64,-448.77 959.88,-422.13 930.73,-407.95"/>
<polygon fill="midnightblue" stroke="midnightblue" points="1047.22,-468.51 1057.75,-469.74 1050.29,-462.22 1047.22,-468.51"/>
</g>
<!-- Node7 -->
<g id="node7" class="node">
<title>Node7</title>
<g id="a_node7"><a xlink:href="classwmtk_1_1io_1_1_cache.html#a6d9002c95cb93e5e4e68eaa6b5083f8c" target="_top" xlink:title="Compare two caches for equality.">
<polygon fill="none" stroke="black" points="677.5,-378.85 677.5,-397.85 811.5,-397.85 811.5,-378.85 677.5,-378.85"/>
<text text-anchor="middle" x="744.5" y="-385.85" font-family="Helvetica,sans-Serif" font-size="10.00">wmtk::io::Cache::equals</text>
</a>
</g>
</g>
<!-- Node6&#45;&gt;Node7 -->
<g id="edge6" class="edge">
<title>Node6&#45;&gt;Node7</title>
<path fill="none" stroke="midnightblue" d="M847.58,-394.59C835.84,-393.87 823.5,-393.12 811.62,-392.39"/>
<polygon fill="midnightblue" stroke="midnightblue" points="847.52,-398.09 857.72,-395.21 847.95,-391.11 847.52,-398.09"/>
</g>
<!-- Node8 -->
<g id="node8" class="node">
<title>Node8</title>
<g id="a_node8"><a xlink:href="namespacewmtk_1_1components.html#a7de2c2a52403b035714a612f42804af3" target="_top" xlink:title=" ">
<polygon fill="none" stroke="black" points="674,-108.85 674,-127.85 815,-127.85 815,-108.85 674,-108.85"/>
<text text-anchor="middle" x="744.5" y="-115.85" font-family="Helvetica,sans-Serif" font-size="10.00">wmtk::components::input</text>
</a>
</g>
</g>
<!-- Node6&#45;&gt;Node8 -->
<g id="edge7" class="edge">
<title>Node6&#45;&gt;Node8</title>
<path fill="none" stroke="midnightblue" d="M898.19,-379.83C866.53,-325.61 774.74,-168.42 751.1,-127.95"/>
<polygon fill="midnightblue" stroke="midnightblue" points="895.31,-381.84 903.37,-388.71 901.35,-378.31 895.31,-381.84"/>
</g>
<!-- Node14 -->
<g id="node14" class="node">
<title>Node14</title>
<g id="a_node14"><a xlink:href="classwmtk_1_1io_1_1_cache.html#ae8e0a75e2e3df0e8a1680ab62bbc814e" target="_top" xlink:title="Load a mesh from cache.">
<polygon fill="none" stroke="black" points="667,-416.85 667,-435.85 822,-435.85 822,-416.85 667,-416.85"/>
<text text-anchor="middle" x="744.5" y="-423.85" font-family="Helvetica,sans-Serif" font-size="10.00">wmtk::io::Cache::read_mesh</text>
</a>
</g>
</g>
<!-- Node6&#45;&gt;Node14 -->
<g id="edge16" class="edge">
<title>Node6&#45;&gt;Node14</title>
<path fill="none" stroke="midnightblue" d="M847.83,-408.82C832.51,-411.45 816.17,-414.25 801.14,-416.82"/>
<polygon fill="midnightblue" stroke="midnightblue" points="848.45,-412.27 857.72,-407.13 847.27,-405.37 848.45,-412.27"/>
</g>
<!-- Node9 -->
<g id="node9" class="node">
<title>Node9</title>
<g id="a_node9"><a xlink:href="classwmtk_1_1utils_1_1metaprogramming_1_1detail_1_1_reference_wrapped_functor_return_cache.html#a79a5f07c106ce8b9c97ad9afc2bcbdcd" target="_top" xlink:title=" ">
<polygon fill="none" stroke="black" points="221,-67.85 221,-108.85 406,-108.85 406,-67.85 221,-67.85"/>
<text text-anchor="start" x="229" y="-96.85" font-family="Helvetica,sans-Serif" font-size="10.00">wmtk::utils::metaprogramming</text>
<text text-anchor="start" x="229" y="-85.85" font-family="Helvetica,sans-Serif" font-size="10.00">::detail::ReferenceWrappedFunctor</text>
<text text-anchor="middle" x="313.5" y="-74.85" font-family="Helvetica,sans-Serif" font-size="10.00">ReturnCache::add</text>
</a>
</g>
</g>
<!-- Node8&#45;&gt;Node9 -->
<g id="edge8" class="edge">
<title>Node8&#45;&gt;Node9</title>
<path fill="none" stroke="midnightblue" d="M663.55,-112.76C590.5,-107.65 482.54,-100.1 406.06,-94.75"/>
<polygon fill="midnightblue" stroke="midnightblue" points="663.4,-116.25 673.62,-113.46 663.89,-109.27 663.4,-116.25"/>
</g>
<!-- Node10 -->
<g id="node10" class="node">
<title>Node10</title>
<g id="a_node10"><a xlink:href="classwmtk_1_1utils_1_1metaprogramming_1_1detail_1_1_reference_wrapped_functor_return_cache.html#a3fe48c2dfe4e46ed2f18e0a87d51bd22" target="_top" xlink:title=" ">
<polygon fill="none" stroke="black" points="0,-61.85 0,-102.85 185,-102.85 185,-61.85 0,-61.85"/>
<text text-anchor="start" x="8" y="-90.85" font-family="Helvetica,sans-Serif" font-size="10.00">wmtk::utils::metaprogramming</text>
<text text-anchor="start" x="8" y="-79.85" font-family="Helvetica,sans-Serif" font-size="10.00">::detail::ReferenceWrappedFunctor</text>
<text text-anchor="middle" x="92.5" y="-68.85" font-family="Helvetica,sans-Serif" font-size="10.00">ReturnCache::get</text>
</a>
</g>
</g>
<!-- Node8&#45;&gt;Node10 -->
<g id="edge9" class="edge">
<title>Node8&#45;&gt;Node10</title>
<path fill="none" stroke="midnightblue" d="M663.78,-125.11C560.91,-132.29 376.66,-139.9 221,-118.35 198.56,-115.24 174.51,-109.19 153.41,-102.93"/>
<polygon fill="midnightblue" stroke="midnightblue" points="664.05,-128.6 673.78,-124.39 663.55,-121.61 664.05,-128.6"/>
</g>
<!-- Node11 -->
<g id="node11" class="node">
<title>Node11</title>
<g id="a_node11"><a xlink:href="classwmtk_1_1utils_1_1metaprogramming_1_1detail_1_1_reference_wrapped_functor_return_cache.html#ae0f094cd19574b98771ed8eb7fac95b8" target="_top" xlink:title=" ">
<polygon fill="none" stroke="black" points="444,-29.85 444,-70.85 629,-70.85 629,-29.85 444,-29.85"/>
<text text-anchor="start" x="452" y="-58.85" font-family="Helvetica,sans-Serif" font-size="10.00">wmtk::utils::metaprogramming</text>
<text text-anchor="start" x="452" y="-47.85" font-family="Helvetica,sans-Serif" font-size="10.00">::detail::ReferenceWrappedFunctor</text>
<text text-anchor="middle" x="536.5" y="-36.85" font-family="Helvetica,sans-Serif" font-size="10.00">ReturnCache::get_id</text>
</a>
</g>
</g>
<!-- Node8&#45;&gt;Node11 -->
<g id="edge10" class="edge">
<title>Node8&#45;&gt;Node11</title>
<path fill="none" stroke="midnightblue" d="M704.89,-105.6C675.39,-95.86 634.11,-82.24 599.92,-70.95"/>
<polygon fill="midnightblue" stroke="midnightblue" points="703.83,-108.94 714.42,-108.75 706.02,-102.29 703.83,-108.94"/>
</g>
<!-- Node12 -->
<g id="node12" class="node">
<title>Node12</title>
<g id="a_node12"><a xlink:href="classwmtk_1_1utils_1_1metaprogramming_1_1detail_1_1_reference_wrapped_functor_return_cache.html#a5290906e9b9c635dc1bd82246eb39b42" target="_top" xlink:title=" ">
<polygon fill="none" stroke="black" points="221,-7.85 221,-48.85 406,-48.85 406,-7.85 221,-7.85"/>
<text text-anchor="start" x="229" y="-36.85" font-family="Helvetica,sans-Serif" font-size="10.00">wmtk::utils::metaprogramming</text>
<text text-anchor="start" x="229" y="-25.85" font-family="Helvetica,sans-Serif" font-size="10.00">::detail::ReferenceWrappedFunctor</text>
<text text-anchor="middle" x="313.5" y="-14.85" font-family="Helvetica,sans-Serif" font-size="10.00">ReturnCache::get_variant</text>
</a>
</g>
</g>
<!-- Node8&#45;&gt;Node12 -->
<g id="edge14" class="edge">
<title>Node8&#45;&gt;Node12</title>
<path fill="none" stroke="midnightblue" d="M730.06,-100.49C711.05,-76.87 673.8,-36.38 631,-20.35 558.94,6.64 471.04,1.72 406.17,-8.29"/>
<polygon fill="midnightblue" stroke="midnightblue" points="727.51,-102.91 736.43,-108.62 733.03,-98.59 727.51,-102.91"/>
</g>
<!-- Node13 -->
<g id="node13" class="node">
<title>Node13</title>
<g id="a_node13"><a xlink:href="test__component__input_8cpp.html#a16c891bca32fed14c4bf443bedbae763" target="_top" xlink:title=" ">
<polygon fill="none" stroke="black" points="501,-165.85 501,-184.85 572,-184.85 572,-165.85 501,-165.85"/>
<text text-anchor="middle" x="536.5" y="-172.85" font-family="Helvetica,sans-Serif" font-size="10.00">TEST_CASE</text>
</a>
</g>
</g>
<!-- Node8&#45;&gt;Node13 -->
<g id="edge15" class="edge">
<title>Node8&#45;&gt;Node13</title>
<path fill="none" stroke="midnightblue" d="M702.38,-130.78C681.12,-137.11 654.72,-144.83 631,-151.35 611.61,-156.68 589.85,-162.29 572.21,-166.74"/>
<polygon fill="midnightblue" stroke="midnightblue" points="703.48,-134.1 712.06,-127.88 701.48,-127.39 703.48,-134.1"/>
</g>
<!-- Node11&#45;&gt;Node9 -->
<g id="edge11" class="edge">
<title>Node11&#45;&gt;Node9</title>
<path fill="none" stroke="midnightblue" d="M433.72,-67.85C424.48,-69.44 415.16,-71.04 406.02,-72.61"/>
<polygon fill="midnightblue" stroke="midnightblue" points="434.43,-71.28 443.7,-66.13 433.25,-64.38 434.43,-71.28"/>
</g>
<!-- Node11&#45;&gt;Node12 -->
<g id="edge12" class="edge">
<title>Node11&#45;&gt;Node12</title>
<path fill="none" stroke="midnightblue" d="M433.72,-40.22C424.48,-39.3 415.16,-38.37 406.02,-37.46"/>
<polygon fill="midnightblue" stroke="midnightblue" points="433.4,-43.7 443.7,-41.21 434.09,-36.74 433.4,-43.7"/>
</g>
<!-- Node12&#45;&gt;Node10 -->
<g id="edge13" class="edge">
<title>Node12&#45;&gt;Node10</title>
<path fill="none" stroke="midnightblue" d="M219.34,-51.32C205.17,-54.81 190.63,-58.4 176.69,-61.84"/>
<polygon fill="midnightblue" stroke="midnightblue" points="220.21,-54.71 229.08,-48.92 218.53,-47.91 220.21,-54.71"/>
</g>
<!-- Node14&#45;&gt;Node2 -->
<g id="edge17" class="edge">
<title>Node14&#45;&gt;Node2</title>
<path fill="none" stroke="midnightblue" d="M738.17,-445.67C726.17,-485.28 693.14,-575.71 631,-620.35 625.75,-624.12 619.93,-627.18 613.84,-629.66"/>
<polygon fill="midnightblue" stroke="midnightblue" points="741.57,-446.5 741,-435.92 734.85,-444.55 741.57,-446.5"/>
</g>
<!-- Node15 -->
<g id="node15" class="node">
<title>Node15</title>
<g id="a_node15"><a xlink:href="namespacewmtk_1_1components.html#acacc2b8923eea46d8d2c892cf3decfe8" target="_top" xlink:title=" ">
<polygon fill="none" stroke="black" points="470.5,-329.35 470.5,-359.35 602.5,-359.35 602.5,-329.35 470.5,-329.35"/>
<text text-anchor="start" x="478.5" y="-347.35" font-family="Helvetica,sans-Serif" font-size="10.00">wmtk::components::get</text>
<text text-anchor="middle" x="536.5" y="-336.35" font-family="Helvetica,sans-Serif" font-size="10.00">_all_meshes</text>
</a>
</g>
</g>
<!-- Node14&#45;&gt;Node15 -->
<g id="edge18" class="edge">
<title>Node14&#45;&gt;Node15</title>
<path fill="none" stroke="midnightblue" d="M678.78,-413.15C674.69,-411.44 670.72,-409.52 667,-407.35 646.9,-395.63 650.99,-381.25 631,-369.35 622.34,-364.19 612.6,-360.08 602.76,-356.8"/>
<polygon fill="midnightblue" stroke="midnightblue" points="677.91,-416.56 688.5,-416.75 680.34,-409.99 677.91,-416.56"/>
</g>
<!-- Node16 -->
<g id="node16" class="node">
<title>Node16</title>
<g id="a_node16"><a xlink:href="namespacewmtk_1_1components.html#a1a5ffb0788dc02e8b355a7a1ad447c7f" target="_top" xlink:title=" ">
<polygon fill="none" stroke="black" points="457.5,-280.35 457.5,-310.35 615.5,-310.35 615.5,-280.35 457.5,-280.35"/>
<text text-anchor="start" x="465.5" y="-298.35" font-family="Helvetica,sans-Serif" font-size="10.00">wmtk::components::isotropic</text>
<text text-anchor="middle" x="536.5" y="-287.35" font-family="Helvetica,sans-Serif" font-size="10.00">_remeshing</text>
</a>
</g>
</g>
<!-- Node14&#45;&gt;Node16 -->
<g id="edge19" class="edge">
<title>Node14&#45;&gt;Node16</title>
<path fill="none" stroke="midnightblue" d="M673.19,-411.98C671.02,-410.57 668.95,-409.03 667,-407.35 635.04,-379.71 662.86,-347.11 631,-319.35 626.45,-315.38 621.33,-312.06 615.9,-309.27"/>
<polygon fill="midnightblue" stroke="midnightblue" points="671.54,-415.06 681.99,-416.77 674.89,-408.91 671.54,-415.06"/>
</g>
<!-- Node18 -->
<g id="node18" class="node">
<title>Node18</title>
<g id="a_node18"><a xlink:href="namespacewmtk_1_1components.html#a2089f999b4072674bda24b29e86257e1" target="_top" xlink:title="Perform maching tetrahedra/triangles.">
<polygon fill="none" stroke="black" points="455.5,-241.85 455.5,-260.85 617.5,-260.85 617.5,-241.85 455.5,-241.85"/>
<text text-anchor="middle" x="536.5" y="-248.85" font-family="Helvetica,sans-Serif" font-size="10.00">wmtk::components::marching</text>
</a>
</g>
</g>
<!-- Node14&#45;&gt;Node18 -->
<g id="edge21" class="edge">
<title>Node14&#45;&gt;Node18</title>
<path fill="none" stroke="midnightblue" d="M671.64,-411.37C670.01,-410.13 668.46,-408.79 667,-407.35 622.18,-363.13 676.76,-313.59 631,-270.35 627.03,-266.59 622.52,-263.49 617.7,-260.94"/>
<polygon fill="midnightblue" stroke="midnightblue" points="670.01,-414.47 680.34,-416.81 673.72,-408.54 670.01,-414.47"/>
</g>
<!-- Node19 -->
<g id="node19" class="node">
<title>Node19</title>
<g id="a_node19"><a xlink:href="namespacewmtk_1_1components.html#ae2940d2f56c63d17f0f4d53eee921a8b" target="_top" xlink:title=" ">
<polygon fill="none" stroke="black" points="453,-591.85 453,-610.85 620,-610.85 620,-591.85 453,-591.85"/>
<text text-anchor="middle" x="536.5" y="-598.85" font-family="Helvetica,sans-Serif" font-size="10.00">wmtk::components::mesh_info</text>
</a>
</g>
</g>
<!-- Node14&#45;&gt;Node19 -->
<g id="edge22" class="edge">
<title>Node14&#45;&gt;Node19</title>
<path fill="none" stroke="midnightblue" d="M735.43,-445.52C720.26,-479.04 684.16,-548.03 631,-582.35 625.02,-586.21 618.4,-589.31 611.54,-591.8"/>
<polygon fill="midnightblue" stroke="midnightblue" points="738.81,-446.53 739.61,-435.96 732.4,-443.72 738.81,-446.53"/>
</g>
<!-- Node21 -->
<g id="node21" class="node">
<title>Node21</title>
<g id="a_node21"><a xlink:href="namespacewmtk_1_1components.html#aac69455341d52516952b0655d254ec51" target="_top" xlink:title=" ">
<polygon fill="none" stroke="black" points="452,-553.85 452,-572.85 621,-572.85 621,-553.85 452,-553.85"/>
<text text-anchor="middle" x="536.5" y="-560.85" font-family="Helvetica,sans-Serif" font-size="10.00">wmtk::components::multimesh</text>
</a>
</g>
</g>
<!-- Node14&#45;&gt;Node21 -->
<g id="edge24" class="edge">
<title>Node14&#45;&gt;Node21</title>
<path fill="none" stroke="midnightblue" d="M731.91,-444.16C713.76,-470.52 675.99,-519.49 631,-544.35 624.04,-548.19 616.4,-551.27 608.59,-553.72"/>
<polygon fill="midnightblue" stroke="midnightblue" points="734.82,-446.1 737.5,-435.85 729.01,-442.2 734.82,-446.1"/>
</g>
<!-- Node23 -->
<g id="node23" class="node">
<title>Node23</title>
<g id="a_node23"><a xlink:href="namespacewmtk_1_1components.html#afb654c569d4536f122b7cdfb9156c7d7" target="_top" xlink:title=" ">
<polygon fill="none" stroke="black" points="462.5,-203.85 462.5,-222.85 610.5,-222.85 610.5,-203.85 462.5,-203.85"/>
<text text-anchor="middle" x="536.5" y="-210.85" font-family="Helvetica,sans-Serif" font-size="10.00">wmtk::components::output</text>
</a>
</g>
</g>
<!-- Node14&#45;&gt;Node23 -->
<g id="edge26" class="edge">
<title>Node14&#45;&gt;Node23</title>
<path fill="none" stroke="midnightblue" d="M671.03,-411.06C669.62,-409.91 668.27,-408.67 667,-407.35 612,-350.07 687.22,-288.43 631,-232.35 625.25,-226.62 618.28,-222.38 610.76,-219.28"/>
<polygon fill="midnightblue" stroke="midnightblue" points="669.48,-414.24 679.75,-416.83 673.34,-408.4 669.48,-414.24"/>
</g>
<!-- Node24 -->
<g id="node24" class="node">
<title>Node24</title>
<g id="a_node24"><a xlink:href="namespacewmtk_1_1components.html#a899899fc78b0d9575cf5996f9d10d012" target="_top" xlink:title=" ">
<polygon fill="none" stroke="black" points="461,-504.35 461,-534.35 612,-534.35 612,-504.35 461,-504.35"/>
<text text-anchor="start" x="469" y="-522.35" font-family="Helvetica,sans-Serif" font-size="10.00">wmtk::components::regular</text>
<text text-anchor="middle" x="536.5" y="-511.35" font-family="Helvetica,sans-Serif" font-size="10.00">_space</text>
</a>
</g>
</g>
<!-- Node14&#45;&gt;Node24 -->
<g id="edge28" class="edge">
<title>Node14&#45;&gt;Node24</title>
<path fill="none" stroke="midnightblue" d="M722.06,-441.84C700.13,-457.07 664.59,-480.05 631,-494.35 622.19,-498.1 612.66,-501.42 603.18,-504.31"/>
<polygon fill="midnightblue" stroke="midnightblue" points="724.15,-444.65 730.31,-436.03 720.12,-438.93 724.15,-444.65"/>
</g>
<!-- Node25 -->
<g id="node25" class="node">
<title>Node25</title>
<g id="a_node25"><a xlink:href="namespacewmtk_1_1components.html#a070dcd55e46a4a33650a704d6fd1a643" target="_top" xlink:title=" ">
<polygon fill="none" stroke="black" points="470.5,-455.35 470.5,-485.35 602.5,-485.35 602.5,-455.35 470.5,-455.35"/>
<text text-anchor="start" x="478.5" y="-473.35" font-family="Helvetica,sans-Serif" font-size="10.00">wmtk::components::tag</text>
<text text-anchor="middle" x="536.5" y="-462.35" font-family="Helvetica,sans-Serif" font-size="10.00">_intersection</text>
</a>
</g>
</g>
<!-- Node14&#45;&gt;Node25 -->
<g id="edge29" class="edge">
<title>Node14&#45;&gt;Node25</title>
<path fill="none" stroke="midnightblue" d="M688.96,-438C662.52,-443.64 630.57,-450.47 602.84,-456.39"/>
<polygon fill="midnightblue" stroke="midnightblue" points="689.75,-441.41 698.8,-435.9 688.29,-434.56 689.75,-441.41"/>
</g>
<!-- Node27 -->
<g id="node27" class="node">
<title>Node27</title>
<g id="a_node27"><a xlink:href="test__component__isotropic__remeshing_8cpp.html#adf1e479866f5fbf4faa9038ece31a877" target="_top" xlink:title=" ">
<polygon fill="none" stroke="black" points="501,-416.85 501,-435.85 572,-435.85 572,-416.85 501,-416.85"/>
<text text-anchor="middle" x="536.5" y="-423.85" font-family="Helvetica,sans-Serif" font-size="10.00">TEST_CASE</text>
</a>
</g>
</g>
<!-- Node14&#45;&gt;Node27 -->
<g id="edge31" class="edge">
<title>Node14&#45;&gt;Node27</title>
<path fill="none" stroke="midnightblue" d="M656.41,-426.35C626.78,-426.35 595.35,-426.35 572.26,-426.35"/>
<polygon fill="midnightblue" stroke="midnightblue" points="656.79,-429.85 666.79,-426.35 656.79,-422.85 656.79,-429.85"/>
</g>
<!-- Node28 -->
<g id="node28" class="node">
<title>Node28</title>
<g id="a_node28"><a xlink:href="namespacewmtk_1_1components.html#a503af91b8a2d86f4b9af9dbded55bec0" target="_top" xlink:title=" ">
<polygon fill="none" stroke="black" points="447,-378.85 447,-397.85 626,-397.85 626,-378.85 447,-378.85"/>
<text text-anchor="middle" x="536.5" y="-385.85" font-family="Helvetica,sans-Serif" font-size="10.00">wmtk::components::wildmeshing</text>
</a>
</g>
</g>
<!-- Node14&#45;&gt;Node28 -->
<g id="edge32" class="edge">
<title>Node14&#45;&gt;Node28</title>
<path fill="none" stroke="midnightblue" d="M681.6,-414.93C652.13,-409.49 617.28,-403.06 589.24,-397.89"/>
<polygon fill="midnightblue" stroke="midnightblue" points="681.31,-418.44 691.78,-416.81 682.58,-411.55 681.31,-418.44"/>
</g>
<!-- Node17 -->
<g id="node17" class="node">
<title>Node17</title>
<g id="a_node17"><a xlink:href="test__component__isotropic__remeshing_8cpp.html#a64dc4992576434e79fdb0838f9092ab8" target="_top" xlink:title=" ">
<polygon fill="none" stroke="black" points="278,-244.85 278,-263.85 349,-263.85 349,-244.85 278,-244.85"/>
<text text-anchor="middle" x="313.5" y="-251.85" font-family="Helvetica,sans-Serif" font-size="10.00">TEST_CASE</text>
</a>
</g>
</g>
<!-- Node16&#45;&gt;Node17 -->
<g id="edge20" class="edge">
<title>Node16&#45;&gt;Node17</title>
<path fill="none" stroke="midnightblue" d="M447.18,-278.96C412.78,-272.58 375.38,-265.64 349.08,-260.76"/>
<polygon fill="midnightblue" stroke="midnightblue" points="446.8,-282.45 457.27,-280.84 448.08,-275.57 446.8,-282.45"/>
</g>
<!-- Node20 -->
<g id="node20" class="node">
<title>Node20</title>
<g id="a_node20"><a xlink:href="test__component__mesh__info_8cpp.html#ae25bd2a8d9e0eab8fb1941fed8422302" target="_top" xlink:title=" ">
<polygon fill="none" stroke="black" points="278,-591.85 278,-610.85 349,-610.85 349,-591.85 278,-591.85"/>
<text text-anchor="middle" x="313.5" y="-598.85" font-family="Helvetica,sans-Serif" font-size="10.00">TEST_CASE</text>
</a>
</g>
</g>
<!-- Node19&#45;&gt;Node20 -->
<g id="edge23" class="edge">
<title>Node19&#45;&gt;Node20</title>
<path fill="none" stroke="midnightblue" d="M442.69,-601.35C409.56,-601.35 374.24,-601.35 349.08,-601.35"/>
<polygon fill="midnightblue" stroke="midnightblue" points="442.89,-604.85 452.89,-601.35 442.89,-597.85 442.89,-604.85"/>
</g>
<!-- Node22 -->
<g id="node22" class="node">
<title>Node22</title>
<g id="a_node22"><a xlink:href="test__component__multimesh_8cpp.html#adcff0ee9e850d29cff036dae09747fe6" target="_top" xlink:title=" ">
<polygon fill="none" stroke="black" points="278,-553.85 278,-572.85 349,-572.85 349,-553.85 278,-553.85"/>
<text text-anchor="middle" x="313.5" y="-560.85" font-family="Helvetica,sans-Serif" font-size="10.00">TEST_CASE</text>
</a>
</g>
</g>
<!-- Node21&#45;&gt;Node22 -->
<g id="edge25" class="edge">
<title>Node21&#45;&gt;Node22</title>
<path fill="none" stroke="midnightblue" d="M441.82,-563.35C408.92,-563.35 373.99,-563.35 349.05,-563.35"/>
<polygon fill="midnightblue" stroke="midnightblue" points="441.95,-566.85 451.95,-563.35 441.95,-559.85 441.95,-566.85"/>
</g>
<!-- Node23&#45;&gt;Node17 -->
<g id="edge27" class="edge">
<title>Node23&#45;&gt;Node17</title>
<path fill="none" stroke="midnightblue" d="M474.26,-224.71C433.99,-232.18 382.74,-241.69 349.3,-247.89"/>
<polygon fill="midnightblue" stroke="midnightblue" points="475.05,-228.12 484.24,-222.86 473.77,-221.24 475.05,-228.12"/>
</g>
<!-- Node26 -->
<g id="node26" class="node">
<title>Node26</title>
<g id="a_node26"><a xlink:href="test__component__tag__intersection_8cpp.html#ab45075e8d350017b73b4910211afe71a" target="_top" xlink:title=" ">
<polygon fill="none" stroke="black" points="278,-460.85 278,-479.85 349,-479.85 349,-460.85 278,-460.85"/>
<text text-anchor="middle" x="313.5" y="-467.85" font-family="Helvetica,sans-Serif" font-size="10.00">TEST_CASE</text>
</a>
</g>
</g>
<!-- Node25&#45;&gt;Node26 -->
<g id="edge30" class="edge">
<title>Node25&#45;&gt;Node26</title>
<path fill="none" stroke="midnightblue" d="M459.95,-470.35C422.33,-470.35 378.68,-470.35 349.09,-470.35"/>
<polygon fill="midnightblue" stroke="midnightblue" points="460.39,-473.85 470.39,-470.35 460.39,-466.85 460.39,-473.85"/>
</g>
<!-- Node29 -->
<g id="node29" class="node">
<title>Node29</title>
<g id="a_node29"><a xlink:href="test__component__wildmeshing_8cpp.html#a219d81c90b83b8e8c21801a6bba773cc" target="_top" xlink:title=" ">
<polygon fill="none" stroke="black" points="278,-378.85 278,-397.85 349,-397.85 349,-378.85 278,-378.85"/>
<text text-anchor="middle" x="313.5" y="-385.85" font-family="Helvetica,sans-Serif" font-size="10.00">TEST_CASE</text>
</a>
</g>
</g>
<!-- Node28&#45;&gt;Node29 -->
<g id="edge33" class="edge">
<title>Node28&#45;&gt;Node29</title>
<path fill="none" stroke="midnightblue" d="M436.75,-388.35C405.36,-388.35 372.7,-388.35 349.04,-388.35"/>
<polygon fill="midnightblue" stroke="midnightblue" points="436.88,-391.85 446.88,-388.35 436.88,-384.85 436.88,-391.85"/>
</g>
</g>
</svg>
