<?xml version="1.0" encoding="UTF-8" standalone="no"?>
<!DOCTYPE svg PUBLIC "-//W3C//DTD SVG 1.1//EN"
 "http://www.w3.org/Graphics/SVG/1.1/DTD/svg11.dtd">
<!-- Generated by graphviz version 2.43.0 (0)
 -->
<!-- Title: wmtk::primitive_type_name Pages: 1 -->
<svg width="791pt" height="345pt"
 viewBox="0.00 0.00 791.00 345.00" xmlns="http://www.w3.org/2000/svg" xmlns:xlink="http://www.w3.org/1999/xlink">
<g id="graph0" class="graph" transform="scale(1 1) rotate(0) translate(4 341)">
<title>wmtk::primitive_type_name</title>
<!-- Node1 -->
<g id="node1" class="node">
<title>Node1</title>
<g id="a_node1"><a xlink:title=" ">
<polygon fill="#bfbfbf" stroke="black" points="628,-165 628,-184 783,-184 783,-165 628,-165"/>
<text text-anchor="middle" x="705.5" y="-172" font-family="Helvetica,sans-Serif" font-size="10.00">wmtk::primitive_type_name</text>
</a>
</g>
</g>
<!-- Node2 -->
<g id="node2" class="node">
<title>Node2</title>
<g id="a_node2"><a xlink:href="classwmtk_1_1attribute_1_1_typed_attribute_handle.html#abb7e339212d42fd0111f740b003aeb77" target="_top" xlink:title=" ">
<polygon fill="none" stroke="black" points="417,-208.5 417,-238.5 587,-238.5 587,-208.5 417,-208.5"/>
<text text-anchor="start" x="425" y="-226.5" font-family="Helvetica,sans-Serif" font-size="10.00">wmtk::attribute::TypedAttribute</text>
<text text-anchor="middle" x="502" y="-215.5" font-family="Helvetica,sans-Serif" font-size="10.00">Handle::string</text>
</a>
</g>
</g>
<!-- Node1&#45;&gt;Node2 -->
<g id="edge1" class="edge">
<title>Node1&#45;&gt;Node2</title>
<path fill="none" stroke="midnightblue" d="M655.09,-186.51C627.87,-193.14 593.81,-201.42 564.84,-208.46"/>
<polygon fill="midnightblue" stroke="midnightblue" points="656.28,-189.83 665.17,-184.06 654.63,-183.03 656.28,-189.83"/>
</g>
<!-- Node3 -->
<g id="node3" class="node">
<title>Node3</title>
<g id="a_node3"><a xlink:href="classwmtk_1_1_mesh.html#ac205d6addf4e76f000c70547253735f0" target="_top" xlink:title=" ">
<polygon fill="none" stroke="black" points="442.5,-159.5 442.5,-189.5 561.5,-189.5 561.5,-159.5 442.5,-159.5"/>
<text text-anchor="start" x="450.5" y="-177.5" font-family="Helvetica,sans-Serif" font-size="10.00">wmtk::Mesh::request</text>
<text text-anchor="middle" x="502" y="-166.5" font-family="Helvetica,sans-Serif" font-size="10.00">_simplex_indices</text>
</a>
</g>
</g>
<!-- Node1&#45;&gt;Node3 -->
<g id="edge2" class="edge">
<title>Node1&#45;&gt;Node3</title>
<path fill="none" stroke="midnightblue" d="M617.64,-174.5C598.74,-174.5 579.17,-174.5 561.67,-174.5"/>
<polygon fill="midnightblue" stroke="midnightblue" points="617.75,-178 627.75,-174.5 617.75,-171 617.75,-178"/>
</g>
<!-- Node12 -->
<g id="node12" class="node">
<title>Node12</title>
<g id="a_node12"><a xlink:href="namespacewmtk_1_1components.html#ae3a4b32383fdc9c2eb8334cc8ef947a5" target="_top" xlink:title="Perform shortest&#45;edge collapse on a triangular surface mesh.">
<polygon fill="none" stroke="black" points="412,-55.5 412,-85.5 592,-85.5 592,-55.5 412,-55.5"/>
<text text-anchor="start" x="420" y="-73.5" font-family="Helvetica,sans-Serif" font-size="10.00">wmtk::components::shortestedge</text>
<text text-anchor="middle" x="502" y="-62.5" font-family="Helvetica,sans-Serif" font-size="10.00">_collapse</text>
</a>
</g>
</g>
<!-- Node1&#45;&gt;Node12 -->
<g id="edge11" class="edge">
<title>Node1&#45;&gt;Node12</title>
<path fill="none" stroke="midnightblue" d="M676.94,-160.28C638.99,-140.69 570.94,-105.57 532.17,-85.55"/>
<polygon fill="midnightblue" stroke="midnightblue" points="675.41,-163.43 685.9,-164.9 678.62,-157.21 675.41,-163.43"/>
</g>
<!-- Node4 -->
<g id="node4" class="node">
<title>Node4</title>
<g id="a_node4"><a xlink:href="classwmtk_1_1_tri_mesh_1_1_tri_mesh_operation_executor.html#a54ec111e8890281195a6d2449f822f02" target="_top" xlink:title=" ">
<polygon fill="none" stroke="black" points="194,-306.5 194,-336.5 373,-336.5 373,-306.5 194,-306.5"/>
<text text-anchor="start" x="202" y="-324.5" font-family="Helvetica,sans-Serif" font-size="10.00">wmtk::TriMesh::TriMeshOperation</text>
<text text-anchor="middle" x="283.5" y="-313.5" font-family="Helvetica,sans-Serif" font-size="10.00">Executor::create_spine_simplices</text>
</a>
</g>
</g>
<!-- Node3&#45;&gt;Node4 -->
<g id="edge3" class="edge">
<title>Node3&#45;&gt;Node4</title>
<path fill="none" stroke="midnightblue" d="M432.83,-186.19C425.21,-189.58 418.03,-193.92 412,-199.5 377.93,-231 410.34,-266.29 376,-297.5 372.23,-300.92 368.04,-303.87 363.57,-306.41"/>
<polygon fill="midnightblue" stroke="midnightblue" points="434.25,-189.4 442.31,-182.52 431.72,-182.87 434.25,-189.4"/>
</g>
<!-- Node5 -->
<g id="node5" class="node">
<title>Node5</title>
<g id="a_node5"><a xlink:href="classwmtk_1_1_tri_mesh_1_1_tri_mesh_operation_executor.html#a3df1e4a6e6de766e419522774d6463d6" target="_top" xlink:title=" ">
<polygon fill="none" stroke="black" points="194,-257.5 194,-287.5 373,-287.5 373,-257.5 194,-257.5"/>
<text text-anchor="start" x="202" y="-275.5" font-family="Helvetica,sans-Serif" font-size="10.00">wmtk::TriMesh::TriMeshOperation</text>
<text text-anchor="middle" x="283.5" y="-264.5" font-family="Helvetica,sans-Serif" font-size="10.00">Executor::fill_split_facet_data</text>
</a>
</g>
</g>
<!-- Node3&#45;&gt;Node5 -->
<g id="edge4" class="edge">
<title>Node3&#45;&gt;Node5</title>
<path fill="none" stroke="midnightblue" d="M432.99,-188.41C425.57,-191.42 418.4,-195.07 412,-199.5 389.78,-214.88 398.35,-233.31 376,-248.5 370.97,-251.92 365.49,-254.84 359.78,-257.36"/>
<polygon fill="midnightblue" stroke="midnightblue" points="434.3,-191.66 442.49,-184.94 431.89,-185.09 434.3,-191.66"/>
</g>
<!-- Node6 -->
<g id="node6" class="node">
<title>Node6</title>
<g id="a_node6"><a xlink:href="classwmtk_1_1_tri_mesh_1_1_tri_mesh_operation_executor.html#a998d9ebaf1507d842fb01db91e044644" target="_top" xlink:title=" ">
<polygon fill="none" stroke="black" points="194,-208.5 194,-238.5 373,-238.5 373,-208.5 194,-208.5"/>
<text text-anchor="start" x="202" y="-226.5" font-family="Helvetica,sans-Serif" font-size="10.00">wmtk::TriMesh::TriMeshOperation</text>
<text text-anchor="middle" x="283.5" y="-215.5" font-family="Helvetica,sans-Serif" font-size="10.00">Executor::replace_incident_face</text>
</a>
</g>
</g>
<!-- Node3&#45;&gt;Node6 -->
<g id="edge5" class="edge">
<title>Node3&#45;&gt;Node6</title>
<path fill="none" stroke="midnightblue" d="M432.59,-189.98C406.45,-195.9 376.71,-202.63 350.78,-208.5"/>
<polygon fill="midnightblue" stroke="midnightblue" points="433.43,-193.38 442.41,-187.76 431.89,-186.55 433.43,-193.38"/>
</g>
<!-- Node7 -->
<g id="node7" class="node">
<title>Node7</title>
<g id="a_node7"><a xlink:href="classwmtk_1_1operations_1_1_edge_operation_data.html#a80ea6d5059989a2d093179a0dbd2556d" target="_top" xlink:title=" ">
<polygon fill="none" stroke="black" points="193.5,-159.5 193.5,-189.5 373.5,-189.5 373.5,-159.5 193.5,-159.5"/>
<text text-anchor="start" x="201.5" y="-177.5" font-family="Helvetica,sans-Serif" font-size="10.00">wmtk::operations::EdgeOperation</text>
<text text-anchor="middle" x="283.5" y="-166.5" font-family="Helvetica,sans-Serif" font-size="10.00">Data::request_simplex_indices</text>
</a>
</g>
</g>
<!-- Node3&#45;&gt;Node7 -->
<g id="edge6" class="edge">
<title>Node3&#45;&gt;Node7</title>
<path fill="none" stroke="midnightblue" d="M432.27,-174.5C413.65,-174.5 393.23,-174.5 373.66,-174.5"/>
<polygon fill="midnightblue" stroke="midnightblue" points="432.41,-178 442.41,-174.5 432.41,-171 432.41,-178"/>
</g>
<!-- Node9 -->
<g id="node9" class="node">
<title>Node9</title>
<g id="a_node9"><a xlink:href="classwmtk_1_1_tet_mesh_1_1_tet_mesh_operation_executor.html#afdafef0c67dc0d9b6f2aef827d638eb6" target="_top" xlink:title="split edge v1&#45;v2">
<polygon fill="none" stroke="black" points="191,-110.5 191,-140.5 376,-140.5 376,-110.5 191,-110.5"/>
<text text-anchor="start" x="199" y="-128.5" font-family="Helvetica,sans-Serif" font-size="10.00">wmtk::TetMesh::TetMeshOperation</text>
<text text-anchor="middle" x="283.5" y="-117.5" font-family="Helvetica,sans-Serif" font-size="10.00">Executor::split_edge</text>
</a>
</g>
</g>
<!-- Node3&#45;&gt;Node9 -->
<g id="edge8" class="edge">
<title>Node3&#45;&gt;Node9</title>
<path fill="none" stroke="midnightblue" d="M432.59,-159.02C406.45,-153.1 376.71,-146.37 350.78,-140.5"/>
<polygon fill="midnightblue" stroke="midnightblue" points="431.89,-162.45 442.41,-161.24 433.43,-155.62 431.89,-162.45"/>
</g>
<!-- Node11 -->
<g id="node11" class="node">
<title>Node11</title>
<g id="a_node11"><a xlink:href="classwmtk_1_1_edge_mesh_1_1_edge_mesh_operation_executor.html#acb42aca716850f7017290140eef6d94e" target="_top" xlink:title=" ">
<polygon fill="none" stroke="black" points="205,-50 205,-91 362,-91 362,-50 205,-50"/>
<text text-anchor="start" x="213" y="-79" font-family="Helvetica,sans-Serif" font-size="10.00">wmtk::EdgeMesh::EdgeMesh</text>
<text text-anchor="start" x="213" y="-68" font-family="Helvetica,sans-Serif" font-size="10.00">OperationExecutor::split</text>
<text text-anchor="middle" x="283.5" y="-57" font-family="Helvetica,sans-Serif" font-size="10.00">_edge_single_mesh</text>
</a>
</g>
</g>
<!-- Node3&#45;&gt;Node11 -->
<g id="edge10" class="edge">
<title>Node3&#45;&gt;Node11</title>
<path fill="none" stroke="midnightblue" d="M469.67,-153.81C444.94,-138.08 409.2,-116.63 376,-101.5 367.91,-97.81 359.25,-94.32 350.6,-91.11"/>
<polygon fill="midnightblue" stroke="midnightblue" points="467.95,-156.86 478.25,-159.32 471.73,-150.97 467.95,-156.86"/>
</g>
<!-- Node8 -->
<g id="node8" class="node">
<title>Node8</title>
<g id="a_node8"><a xlink:href="classwmtk_1_1operations_1_1internal_1_1_split_alternate_facet_data.html#a6d058aa5a832bcf22fd76c0762fe058a" target="_top" xlink:title=" ">
<polygon fill="none" stroke="black" points="4.5,-159 4.5,-200 150.5,-200 150.5,-159 4.5,-159"/>
<text text-anchor="start" x="12.5" y="-188" font-family="Helvetica,sans-Serif" font-size="10.00">wmtk::operations::internal</text>
<text text-anchor="start" x="12.5" y="-177" font-family="Helvetica,sans-Serif" font-size="10.00">::SplitAlternateFacetData</text>
<text text-anchor="middle" x="77.5" y="-166" font-family="Helvetica,sans-Serif" font-size="10.00">::add_facet</text>
</a>
</g>
</g>
<!-- Node7&#45;&gt;Node8 -->
<g id="edge7" class="edge">
<title>Node7&#45;&gt;Node8</title>
<path fill="none" stroke="midnightblue" d="M183.25,-176.93C172.26,-177.2 161.23,-177.47 150.66,-177.73"/>
<polygon fill="midnightblue" stroke="midnightblue" points="183.41,-180.43 193.32,-176.69 183.24,-173.43 183.41,-180.43"/>
</g>
<!-- Node10 -->
<g id="node10" class="node">
<title>Node10</title>
<g id="a_node10"><a xlink:href="classwmtk_1_1operations_1_1utils_1_1_multi_mesh_edge_split_functor.html#af010a058e1bd67dbd1019342c0ac8c7d" target="_top" xlink:title=" ">
<polygon fill="none" stroke="black" points="0,-99 0,-140 155,-140 155,-99 0,-99"/>
<text text-anchor="start" x="8" y="-128" font-family="Helvetica,sans-Serif" font-size="10.00">wmtk::operations::utils</text>
<text text-anchor="start" x="8" y="-117" font-family="Helvetica,sans-Serif" font-size="10.00">::MultiMeshEdgeSplitFunctor</text>
<text text-anchor="middle" x="77.5" y="-106" font-family="Helvetica,sans-Serif" font-size="10.00">::operator()</text>
</a>
</g>
</g>
<!-- Node9&#45;&gt;Node10 -->
<g id="edge9" class="edge">
<title>Node9&#45;&gt;Node10</title>
<path fill="none" stroke="midnightblue" d="M180.81,-122.51C172.17,-122.25 163.52,-122 155.12,-121.75"/>
<polygon fill="midnightblue" stroke="midnightblue" points="180.84,-126.01 190.94,-122.81 181.05,-119.01 180.84,-126.01"/>
</g>
<!-- Node13 -->
<g id="node13" class="node">
<title>Node13</title>
<g id="a_node13"><a xlink:href="namespacewmtk_1_1components.html#a3154cdbc6047eee67258b69cc7d5e7cf" target="_top" xlink:title="Perform shortest&#45;edge collapse on a triangular surface mesh.">
<polygon fill="none" stroke="black" points="193.5,-0.5 193.5,-30.5 373.5,-30.5 373.5,-0.5 193.5,-0.5"/>
<text text-anchor="start" x="201.5" y="-18.5" font-family="Helvetica,sans-Serif" font-size="10.00">wmtk::components::shortestedge</text>
<text text-anchor="middle" x="283.5" y="-7.5" font-family="Helvetica,sans-Serif" font-size="10.00">_collapse</text>
</a>
</g>
</g>
<!-- Node12&#45;&gt;Node13 -->
<g id="edge12" class="edge">
<title>Node12&#45;&gt;Node13</title>
<path fill="none" stroke="midnightblue" d="M431.97,-52.96C403.53,-45.74 370.91,-37.45 343.59,-30.51"/>
<polygon fill="midnightblue" stroke="midnightblue" points="431.29,-56.4 441.84,-55.47 433.01,-49.62 431.29,-56.4"/>
</g>
</g>
</svg>
