<?xml version="1.0" encoding="UTF-8" standalone="no"?>
<!DOCTYPE svg PUBLIC "-//W3C//DTD SVG 1.1//EN"
 "http://www.w3.org/Graphics/SVG/1.1/DTD/svg11.dtd">
<!-- Generated by graphviz version 2.43.0 (0)
 -->
<!-- Title: wmtk::multimesh::same_simplex_dimension_bijection Pages: 1 -->
<svg width="1173pt" height="165pt"
 viewBox="0.00 0.00 1173.00 165.00" xmlns="http://www.w3.org/2000/svg" xmlns:xlink="http://www.w3.org/1999/xlink">
<g id="graph0" class="graph" transform="scale(1 1) rotate(0) translate(4 161)">
<title>wmtk::multimesh::same_simplex_dimension_bijection</title>
<!-- Node1 -->
<g id="node1" class="node">
<title>Node1</title>
<g id="a_node1"><a xlink:title=" ">
<polygon fill="#bfbfbf" stroke="black" points="0,-70.5 0,-100.5 164,-100.5 164,-70.5 0,-70.5"/>
<text text-anchor="start" x="8" y="-88.5" font-family="Helvetica,sans-Serif" font-size="10.00">wmtk::multimesh::same</text>
<text text-anchor="middle" x="82" y="-77.5" font-family="Helvetica,sans-Serif" font-size="10.00">_simplex_dimension_bijection</text>
</a>
</g>
</g>
<!-- Node2 -->
<g id="node2" class="node">
<title>Node2</title>
<g id="a_node2"><a xlink:href="classwmtk_1_1_mesh.html#a3e8ff83c4a5526a40d18bb9883c6c6c9" target="_top" xlink:title="read in the m_capacities return the upper bound for the number of entities of the given dimension">
<polygon fill="none" stroke="black" points="658,-132 658,-151 782,-151 782,-132 658,-132"/>
<text text-anchor="middle" x="720" y="-139" font-family="Helvetica,sans-Serif" font-size="10.00">wmtk::Mesh::capacity</text>
</a>
</g>
</g>
<!-- Node1&#45;&gt;Node2 -->
<g id="edge1" class="edge">
<title>Node1&#45;&gt;Node2</title>
<path fill="none" stroke="midnightblue" d="M144.93,-100.55C162.62,-104.36 181.99,-108.05 200,-110.5 359.11,-132.12 547.7,-138.67 647.97,-140.64"/>
<polygon fill="midnightblue" stroke="midnightblue" points="647.92,-144.14 657.99,-140.83 648.05,-137.14 647.92,-144.14"/>
</g>
<!-- Node4 -->
<g id="node4" class="node">
<title>Node4</title>
<g id="a_node4"><a xlink:href="namespacewmtk_1_1multimesh.html#a7bd59ab748f0b54f3ab7dc9d625b04ec" target="_top" xlink:title=" ">
<polygon fill="none" stroke="black" points="200,-70.5 200,-100.5 370,-100.5 370,-70.5 200,-70.5"/>
<text text-anchor="start" x="208" y="-88.5" font-family="Helvetica,sans-Serif" font-size="10.00">wmtk::multimesh::same</text>
<text text-anchor="middle" x="285" y="-77.5" font-family="Helvetica,sans-Serif" font-size="10.00">_simplex_dimension_surjection</text>
</a>
</g>
</g>
<!-- Node1&#45;&gt;Node4 -->
<g id="edge3" class="edge">
<title>Node1&#45;&gt;Node4</title>
<path fill="none" stroke="midnightblue" d="M164.18,-85.5C172.63,-85.5 181.28,-85.5 189.87,-85.5"/>
<polygon fill="midnightblue" stroke="midnightblue" points="189.9,-89 199.9,-85.5 189.9,-82 189.9,-89"/>
</g>
<!-- Node11 -->
<g id="node11" class="node">
<title>Node11</title>
<g id="a_node11"><a xlink:href="classwmtk_1_1_mesh.html#abaf00438d0700358b160e310d69725c9" target="_top" xlink:title=" ">
<polygon fill="none" stroke="black" points="635,-6 635,-25 805,-25 805,-6 635,-6"/>
<text text-anchor="middle" x="720" y="-13" font-family="Helvetica,sans-Serif" font-size="10.00">wmtk::Mesh::top_simplex_type</text>
</a>
</g>
</g>
<!-- Node1&#45;&gt;Node11 -->
<g id="edge15" class="edge">
<title>Node1&#45;&gt;Node11</title>
<path fill="none" stroke="midnightblue" d="M149.59,-70.47C166.01,-67.15 183.59,-63.9 200,-61.5 347.47,-39.91 520.1,-27.06 624.42,-20.64"/>
<polygon fill="midnightblue" stroke="midnightblue" points="624.84,-24.12 634.61,-20.02 624.41,-17.13 624.84,-24.12"/>
</g>
<!-- Node3 -->
<g id="node3" class="node">
<title>Node3</title>
<g id="a_node3"><a xlink:href="namespacewmtk.html#a5cf45c152e856196bb734c6f48919a24" target="_top" xlink:title="Get a unique integer id corresponding to each primitive type.">
<polygon fill="none" stroke="black" points="843.5,-126.5 843.5,-156.5 959.5,-156.5 959.5,-126.5 843.5,-126.5"/>
<text text-anchor="start" x="851.5" y="-144.5" font-family="Helvetica,sans-Serif" font-size="10.00">wmtk::get_primitive</text>
<text text-anchor="middle" x="901.5" y="-133.5" font-family="Helvetica,sans-Serif" font-size="10.00">_type_id</text>
</a>
</g>
</g>
<!-- Node2&#45;&gt;Node3 -->
<g id="edge2" class="edge">
<title>Node2&#45;&gt;Node3</title>
<path fill="none" stroke="midnightblue" d="M782.02,-141.5C798.43,-141.5 816.28,-141.5 833.02,-141.5"/>
<polygon fill="midnightblue" stroke="midnightblue" points="833.28,-145 843.28,-141.5 833.28,-138 833.28,-145"/>
</g>
<!-- Node5 -->
<g id="node5" class="node">
<title>Node5</title>
<g id="a_node5"><a xlink:href="classwmtk_1_1multimesh_1_1_multi_mesh_manager.html#a365936d6390d1fe630967491af67a3db" target="_top" xlink:title=" ">
<polygon fill="none" stroke="black" points="406,-65 406,-106 599,-106 599,-65 406,-65"/>
<text text-anchor="start" x="414" y="-94" font-family="Helvetica,sans-Serif" font-size="10.00">wmtk::multimesh::MultiMesh</text>
<text text-anchor="start" x="414" y="-83" font-family="Helvetica,sans-Serif" font-size="10.00">Manager::same_simplex_dimension</text>
<text text-anchor="middle" x="502.5" y="-72" font-family="Helvetica,sans-Serif" font-size="10.00">_surjection</text>
</a>
</g>
</g>
<!-- Node4&#45;&gt;Node5 -->
<g id="edge4" class="edge">
<title>Node4&#45;&gt;Node5</title>
<path fill="none" stroke="midnightblue" d="M370.24,-85.5C378.64,-85.5 387.24,-85.5 395.83,-85.5"/>
<polygon fill="midnightblue" stroke="midnightblue" points="395.88,-89 405.88,-85.5 395.88,-82 395.88,-89"/>
</g>
<!-- Node5&#45;&gt;Node2 -->
<g id="edge5" class="edge">
<title>Node5&#45;&gt;Node2</title>
<path fill="none" stroke="midnightblue" d="M573.95,-106.05C593.65,-111.6 615.11,-117.46 635,-122.5 644.67,-124.95 655.01,-127.42 665.02,-129.72"/>
<polygon fill="midnightblue" stroke="midnightblue" points="664.34,-133.16 674.87,-131.97 665.89,-126.33 664.34,-133.16"/>
</g>
<!-- Node6 -->
<g id="node6" class="node">
<title>Node6</title>
<g id="a_node6"><a xlink:href="classwmtk_1_1_mesh.html#a6dbab927a2ee85f77a87f075fd5c1d94" target="_top" xlink:title=" ">
<polygon fill="none" stroke="black" points="655,-82.5 655,-112.5 785,-112.5 785,-82.5 655,-82.5"/>
<text text-anchor="start" x="663" y="-100.5" font-family="Helvetica,sans-Serif" font-size="10.00">wmtk::Mesh::get_const</text>
<text text-anchor="middle" x="720" y="-89.5" font-family="Helvetica,sans-Serif" font-size="10.00">_flag_accessor</text>
</a>
</g>
</g>
<!-- Node5&#45;&gt;Node6 -->
<g id="edge6" class="edge">
<title>Node5&#45;&gt;Node6</title>
<path fill="none" stroke="midnightblue" d="M599.28,-90.83C614.53,-91.68 630.11,-92.55 644.76,-93.37"/>
<polygon fill="midnightblue" stroke="midnightblue" points="644.57,-96.86 654.75,-93.92 644.96,-89.87 644.57,-96.86"/>
</g>
<!-- Node5&#45;&gt;Node11 -->
<g id="edge12" class="edge">
<title>Node5&#45;&gt;Node11</title>
<path fill="none" stroke="midnightblue" d="M551.61,-64.87C576.25,-54.82 606.9,-43.08 635,-34.5 643.42,-31.93 652.4,-29.54 661.25,-27.38"/>
<polygon fill="midnightblue" stroke="midnightblue" points="662.22,-30.75 671.15,-25.04 660.61,-23.93 662.22,-30.75"/>
</g>
<!-- Node13 -->
<g id="node13" class="node">
<title>Node13</title>
<g id="a_node13"><a xlink:href="classwmtk_1_1_mesh.html#a60165ceb4c2db2731df90e4ac100637d" target="_top" xlink:title="internal function that returns the tuple of requested type, and has the global index cid">
<polygon fill="none" stroke="black" points="645,-44 645,-63 795,-63 795,-44 645,-44"/>
<text text-anchor="middle" x="720" y="-51" font-family="Helvetica,sans-Serif" font-size="10.00">wmtk::Mesh::tuple_from_id</text>
</a>
</g>
</g>
<!-- Node5&#45;&gt;Node13 -->
<g id="edge14" class="edge">
<title>Node5&#45;&gt;Node13</title>
<path fill="none" stroke="midnightblue" d="M599.28,-71.28C614.53,-69.01 630.11,-66.7 644.76,-64.52"/>
<polygon fill="midnightblue" stroke="midnightblue" points="645.37,-67.97 654.75,-63.04 644.34,-61.05 645.37,-67.97"/>
</g>
<!-- Node6&#45;&gt;Node3 -->
<g id="edge11" class="edge">
<title>Node6&#45;&gt;Node3</title>
<path fill="none" stroke="midnightblue" d="M782.27,-112.52C798.83,-116.58 816.82,-120.99 833.67,-125.12"/>
<polygon fill="midnightblue" stroke="midnightblue" points="832.89,-128.53 843.43,-127.51 834.55,-121.73 832.89,-128.53"/>
</g>
<!-- Node7 -->
<g id="node7" class="node">
<title>Node7</title>
<g id="a_node7"><a xlink:href="classwmtk_1_1_mesh.html#a956cb71441391c99d736ec69c7467b61" target="_top" xlink:title=" ">
<polygon fill="none" stroke="black" points="845,-77.5 845,-107.5 958,-107.5 958,-77.5 845,-77.5"/>
<text text-anchor="start" x="853" y="-95.5" font-family="Helvetica,sans-Serif" font-size="10.00">wmtk::Mesh::create</text>
<text text-anchor="middle" x="901.5" y="-84.5" font-family="Helvetica,sans-Serif" font-size="10.00">_const_accessor</text>
</a>
</g>
</g>
<!-- Node6&#45;&gt;Node7 -->
<g id="edge7" class="edge">
<title>Node6&#45;&gt;Node7</title>
<path fill="none" stroke="midnightblue" d="M785.04,-95.72C801.07,-95.27 818.28,-94.79 834.4,-94.34"/>
<polygon fill="midnightblue" stroke="midnightblue" points="834.92,-97.83 844.81,-94.05 834.72,-90.83 834.92,-97.83"/>
</g>
<!-- Node8 -->
<g id="node8" class="node">
<title>Node8</title>
<g id="a_node8"><a xlink:href="classwmtk_1_1attribute_1_1_mesh_attribute_handle.html#ac326961f01b9ba4fec395827f15a7ef2" target="_top" xlink:title=" ">
<polygon fill="none" stroke="black" points="998,-126.5 998,-156.5 1165,-156.5 1165,-126.5 998,-126.5"/>
<text text-anchor="start" x="1006" y="-144.5" font-family="Helvetica,sans-Serif" font-size="10.00">wmtk::attribute::MeshAttribute</text>
<text text-anchor="middle" x="1081.5" y="-133.5" font-family="Helvetica,sans-Serif" font-size="10.00">Handle::as</text>
</a>
</g>
</g>
<!-- Node7&#45;&gt;Node8 -->
<g id="edge8" class="edge">
<title>Node7&#45;&gt;Node8</title>
<path fill="none" stroke="midnightblue" d="M957.36,-107.6C975.89,-112.7 996.74,-118.44 1015.95,-123.73"/>
<polygon fill="midnightblue" stroke="midnightblue" points="1015.25,-127.17 1025.82,-126.45 1017.11,-120.42 1015.25,-127.17"/>
</g>
<!-- Node9 -->
<g id="node9" class="node">
<title>Node9</title>
<g id="a_node9"><a xlink:href="classwmtk_1_1attribute_1_1_mesh_attribute_handle.html#a2b86caeb22b007b85b138ebc6b0ed837" target="_top" xlink:title=" ">
<polygon fill="none" stroke="black" points="998,-77.5 998,-107.5 1165,-107.5 1165,-77.5 998,-77.5"/>
<text text-anchor="start" x="1006" y="-95.5" font-family="Helvetica,sans-Serif" font-size="10.00">wmtk::attribute::MeshAttribute</text>
<text text-anchor="middle" x="1081.5" y="-84.5" font-family="Helvetica,sans-Serif" font-size="10.00">Handle::holds</text>
</a>
</g>
</g>
<!-- Node7&#45;&gt;Node9 -->
<g id="edge9" class="edge">
<title>Node7&#45;&gt;Node9</title>
<path fill="none" stroke="midnightblue" d="M958.33,-92.5C967.74,-92.5 977.72,-92.5 987.77,-92.5"/>
<polygon fill="midnightblue" stroke="midnightblue" points="987.81,-96 997.81,-92.5 987.81,-89 987.81,-96"/>
</g>
<!-- Node10 -->
<g id="node10" class="node">
<title>Node10</title>
<g id="a_node10"><a xlink:href="classwmtk_1_1attribute_1_1_mesh_attribute_handle.html#a620620d54776b2c5f4f9cebad465cfa7" target="_top" xlink:title=" ">
<polygon fill="none" stroke="black" points="998,-28.5 998,-58.5 1165,-58.5 1165,-28.5 998,-28.5"/>
<text text-anchor="start" x="1006" y="-46.5" font-family="Helvetica,sans-Serif" font-size="10.00">wmtk::attribute::MeshAttribute</text>
<text text-anchor="middle" x="1081.5" y="-35.5" font-family="Helvetica,sans-Serif" font-size="10.00">Handle::mesh</text>
</a>
</g>
</g>
<!-- Node7&#45;&gt;Node10 -->
<g id="edge10" class="edge">
<title>Node7&#45;&gt;Node10</title>
<path fill="none" stroke="midnightblue" d="M957.36,-77.4C975.89,-72.3 996.74,-66.56 1015.95,-61.27"/>
<polygon fill="midnightblue" stroke="midnightblue" points="1017.11,-64.58 1025.82,-58.55 1015.25,-57.83 1017.11,-64.58"/>
</g>
<!-- Node12 -->
<g id="node12" class="node">
<title>Node12</title>
<g id="a_node12"><a xlink:href="classwmtk_1_1_mesh.html#a933f681cf24a63b155c9462280385200" target="_top" xlink:title=" ">
<polygon fill="none" stroke="black" points="841,-0.5 841,-30.5 962,-30.5 962,-0.5 841,-0.5"/>
<text text-anchor="start" x="849" y="-18.5" font-family="Helvetica,sans-Serif" font-size="10.00">wmtk::Mesh::top_cell</text>
<text text-anchor="middle" x="901.5" y="-7.5" font-family="Helvetica,sans-Serif" font-size="10.00">_dimension</text>
</a>
</g>
</g>
<!-- Node11&#45;&gt;Node12 -->
<g id="edge13" class="edge">
<title>Node11&#45;&gt;Node12</title>
<path fill="none" stroke="midnightblue" d="M805.23,-15.5C813.78,-15.5 822.39,-15.5 830.76,-15.5"/>
<polygon fill="midnightblue" stroke="midnightblue" points="830.83,-19 840.83,-15.5 830.83,-12 830.83,-19"/>
</g>
</g>
</svg>
