<?xml version="1.0" encoding="UTF-8" standalone="no"?>
<!DOCTYPE svg PUBLIC "-//W3C//DTD SVG 1.1//EN"
 "http://www.w3.org/Graphics/SVG/1.1/DTD/svg11.dtd">
<!-- Generated by graphviz version 2.43.0 (0)
 -->
<!-- Title: wmtk::function::utils::get_simplex_attributes Pages: 1 -->
<!--zoomable 607 -->
<svg id="main" version="1.1" xmlns="http://www.w3.org/2000/svg" xmlns:xlink="http://www.w3.org/1999/xlink" xml:space="preserve" onload="init(evt)">
<style type="text/css"><![CDATA[
.edge:hover path { stroke: red; }
.edge:hover polygon { stroke: red; fill: red; }
]]></style>
<script type="text/javascript"><![CDATA[
var edges = document.getElementsByTagName('g');
if (edges && edges.length) {
  for (var i=0;i<edges.length;i++) {
    if (edges[i].id.substr(0,4)=='edge') {
      edges[i].setAttribute('class','edge');
    }
  }
}
]]></script>
        <defs>
                <circle id="rim" cx="0" cy="0" r="7"/>
                <circle id="rim2" cx="0" cy="0" r="3.5"/>
                <g id="zoomPlus">
                        <use xlink:href="#rim" fill="#404040">
                                <set attributeName="fill" to="#808080" begin="zoomplus.mouseover" end="zoomplus.mouseout"/>
                        </use>
                        <path d="M-4,0h8M0,-4v8" fill="none" stroke="white" stroke-width="1.5" pointer-events="none"/>
                </g>
                <g id="zoomMin">
                        <use xlink:href="#rim" fill="#404040">
                                <set attributeName="fill" to="#808080" begin="zoomminus.mouseover" end="zoomminus.mouseout"/>
                        </use>
                        <path d="M-4,0h8" fill="none" stroke="white" stroke-width="1.5" pointer-events="none"/>
                </g>
                <g id="dirArrow">
                        <path fill="none" stroke="white" stroke-width="1.5" d="M0,-3.0v7 M-2.5,-0.5L0,-3.0L2.5,-0.5"/>
                </g>
               <g id="resetDef">
                       <use xlink:href="#rim2" fill="#404040">
                               <set attributeName="fill" to="#808080" begin="reset.mouseover" end="reset.mouseout"/>
                       </use>
               </g>
        </defs>

<script type="text/javascript">
var viewWidth = 1350;
var viewHeight = 607;
var sectionId = 'dynsection-3';
</script>
<script xlink:href="svgpan.js"/>
<svg id="graph" class="graph">
<g id="viewport">
<title>wmtk::function::utils::get_simplex_attributes</title>
<!-- Node1 -->
<g id="node1" class="node">
<title>Node1</title>
<g id="a_node1"><a xlink:title="get attributes from a simplex">
<polygon fill="#bfbfbf" stroke="black" points="0,-284 0,-314 135,-314 135,-284 0,-284"/>
<text text-anchor="start" x="8" y="-302" font-family="Helvetica,sans-Serif" font-size="10.00">wmtk::function::utils</text>
<text text-anchor="middle" x="67.5" y="-291" font-family="Helvetica,sans-Serif" font-size="10.00">::get_simplex_attributes</text>
</a>
</g>
</g>
<!-- Node2 -->
<g id="node2" class="node">
<title>Node2</title>
<g id="a_node2"><a xlink:href="classwmtk_1_1simplex_1_1_simplex_collection.html#a82338aad6cf6d613871fdb0d7e375a03" target="_top" xlink:title=" ">
<polygon fill="none" stroke="black" points="183,-568 183,-598 367,-598 367,-568 183,-568"/>
<text text-anchor="start" x="191" y="-586" font-family="Helvetica,sans-Serif" font-size="10.00">wmtk::simplex::SimplexCollection</text>
<text text-anchor="middle" x="275" y="-575" font-family="Helvetica,sans-Serif" font-size="10.00">::begin</text>
</a>
</g>
</g>
<!-- Node1&#45;&gt;Node2 -->
<g id="edge1" class="edge">
<title>Node1&#45;&gt;Node2</title>
<path fill="none" stroke="midnightblue" d="M69.79,-314.3C74.4,-359.13 94.2,-491.18 171,-558 172.8,-559.57 174.69,-561.05 176.65,-562.43"/>
<polygon fill="midnightblue" stroke="midnightblue" points="175.28,-565.7 185.63,-567.95 178.94,-559.73 175.28,-565.7"/>
</g>
<!-- Node3 -->
<g id="node3" class="node">
<title>Node3</title>
<g id="a_node3"><a xlink:href="classwmtk_1_1simplex_1_1_simplex_collection.html#aa4a2675404c8e8c1c3fd5a5e34042969" target="_top" xlink:title=" ">
<polygon fill="none" stroke="black" points="171,-529.5 171,-548.5 379,-548.5 379,-529.5 171,-529.5"/>
<text text-anchor="middle" x="275" y="-536.5" font-family="Helvetica,sans-Serif" font-size="10.00">wmtk::simplex::SimplexCollection::end</text>
</a>
</g>
</g>
<!-- Node1&#45;&gt;Node3 -->
<g id="edge2" class="edge">
<title>Node1&#45;&gt;Node3</title>
<path fill="none" stroke="midnightblue" d="M71.03,-314.07C78.5,-353.66 104.26,-461.22 171,-515 176.23,-519.22 182.08,-522.72 188.25,-525.63"/>
<polygon fill="midnightblue" stroke="midnightblue" points="186.92,-528.86 197.5,-529.47 189.61,-522.4 186.92,-528.86"/>
</g>
<!-- Node4 -->
<g id="node4" class="node">
<title>Node4</title>
<g id="a_node4"><a xlink:href="structwmtk_1_1simplex_1_1utils_1_1_simplex_comparisons.html#a855a7009bb50500e9b336a05d424b34d" target="_top" xlink:title=" ">
<polygon fill="none" stroke="black" points="883,-431.5 883,-472.5 1009,-472.5 1009,-431.5 883,-431.5"/>
<text text-anchor="start" x="891" y="-460.5" font-family="Helvetica,sans-Serif" font-size="10.00">wmtk::simplex::utils</text>
<text text-anchor="start" x="891" y="-449.5" font-family="Helvetica,sans-Serif" font-size="10.00">::SimplexComparisons</text>
<text text-anchor="middle" x="946" y="-438.5" font-family="Helvetica,sans-Serif" font-size="10.00">::equal</text>
</a>
</g>
</g>
<!-- Node1&#45;&gt;Node4 -->
<g id="edge3" class="edge">
<title>Node1&#45;&gt;Node4</title>
<path fill="none" stroke="midnightblue" d="M105.17,-314.03C167.59,-338.89 299.02,-388.1 415,-411 576.28,-442.84 769.73,-450.22 872.49,-451.77"/>
<polygon fill="midnightblue" stroke="midnightblue" points="872.7,-455.27 882.75,-451.9 872.8,-448.27 872.7,-455.27"/>
</g>
<!-- Node5 -->
<g id="node5" class="node">
<title>Node5</title>
<g id="a_node5"><a xlink:href="classwmtk_1_1simplex_1_1_simplex.html#ad2cc0340a0772b7d6f03ba7a781d1163" target="_top" xlink:title=" ">
<polygon fill="none" stroke="black" points="1053,-388 1053,-418 1188,-418 1188,-388 1053,-388"/>
<text text-anchor="start" x="1061" y="-406" font-family="Helvetica,sans-Serif" font-size="10.00">wmtk::simplex::Simplex</text>
<text text-anchor="middle" x="1120.5" y="-395" font-family="Helvetica,sans-Serif" font-size="10.00">::primitive_type</text>
</a>
</g>
</g>
<!-- Node1&#45;&gt;Node5 -->
<g id="edge36" class="edge">
<title>Node1&#45;&gt;Node5</title>
<path fill="none" stroke="midnightblue" d="M82.81,-314.01C101.52,-332.87 136.04,-365.18 171,-385 308.07,-462.7 348.44,-501 506,-501 506,-501 506,-501 740,-501 861.63,-501 898.91,-524.15 1013,-482 1045.98,-469.82 1077.52,-444.05 1097.59,-425.25"/>
<polygon fill="midnightblue" stroke="midnightblue" points="1100.17,-427.63 1104.96,-418.18 1095.32,-422.58 1100.17,-427.63"/>
</g>
<!-- Node6 -->
<g id="node6" class="node">
<title>Node6</title>
<g id="a_node6"><a xlink:href="classwmtk_1_1simplex_1_1_simplex.html#a3650fd31ff1864285502dba66db3c73c" target="_top" xlink:title=" ">
<polygon fill="none" stroke="black" points="1053,-159 1053,-189 1188,-189 1188,-159 1053,-159"/>
<text text-anchor="start" x="1061" y="-177" font-family="Helvetica,sans-Serif" font-size="10.00">wmtk::simplex::Simplex</text>
<text text-anchor="middle" x="1120.5" y="-166" font-family="Helvetica,sans-Serif" font-size="10.00">::tuple</text>
</a>
</g>
</g>
<!-- Node1&#45;&gt;Node6 -->
<g id="edge38" class="edge">
<title>Node1&#45;&gt;Node6</title>
<path fill="none" stroke="midnightblue" d="M101.03,-283.99C161.36,-257.06 295.35,-201.43 415,-181 640.39,-142.52 912.27,-156.51 1042.56,-166.85"/>
<polygon fill="midnightblue" stroke="midnightblue" points="1042.58,-170.37 1052.83,-167.68 1043.14,-163.39 1042.58,-170.37"/>
</g>
<!-- Node7 -->
<g id="node7" class="node">
<title>Node7</title>
<g id="a_node7"><a xlink:href="namespacewmtk_1_1simplex.html#aee89641a0de7b5ddf8d15bf376f9d33b" target="_top" xlink:title="Returns all faces of a simplex.">
<polygon fill="none" stroke="black" points="214,-289.5 214,-308.5 336,-308.5 336,-289.5 214,-289.5"/>
<text text-anchor="middle" x="275" y="-296.5" font-family="Helvetica,sans-Serif" font-size="10.00">wmtk::simplex::faces</text>
</a>
</g>
</g>
<!-- Node1&#45;&gt;Node7 -->
<g id="edge6" class="edge">
<title>Node1&#45;&gt;Node7</title>
<path fill="none" stroke="midnightblue" d="M135.22,-299C157.17,-299 181.64,-299 203.84,-299"/>
<polygon fill="midnightblue" stroke="midnightblue" points="203.86,-302.5 213.86,-299 203.86,-295.5 203.86,-302.5"/>
</g>
<!-- Node10 -->
<g id="node10" class="node">
<title>Node10</title>
<g id="a_node10"><a xlink:href="namespacewmtk_1_1simplex.html#aedab544fbb3e4c417608c0b5371e94d9" target="_top" xlink:title=" ">
<polygon fill="none" stroke="black" points="667.5,-109 667.5,-139 810.5,-139 810.5,-109 667.5,-109"/>
<text text-anchor="start" x="675.5" y="-127" font-family="Helvetica,sans-Serif" font-size="10.00">wmtk::simplex::faces</text>
<text text-anchor="middle" x="739" y="-116" font-family="Helvetica,sans-Serif" font-size="10.00">_single_dimension_tuples</text>
</a>
</g>
</g>
<!-- Node1&#45;&gt;Node10 -->
<g id="edge34" class="edge">
<title>Node1&#45;&gt;Node10</title>
<path fill="none" stroke="midnightblue" d="M71.31,-283.87C79.2,-246.32 105.41,-149.05 171,-110 250.81,-62.49 520.91,-92.61 657.5,-111.74"/>
<polygon fill="midnightblue" stroke="midnightblue" points="657.1,-115.22 667.49,-113.15 658.08,-108.29 657.1,-115.22"/>
</g>
<!-- Node15 -->
<g id="node15" class="node">
<title>Node15</title>
<g id="a_node15"><a xlink:href="classwmtk_1_1_mesh.html#aed90cad0755b0052b0ca4502e401bcd3" target="_top" xlink:title=" ">
<polygon fill="none" stroke="black" points="1063.5,-33 1063.5,-63 1177.5,-63 1177.5,-33 1063.5,-33"/>
<text text-anchor="start" x="1071.5" y="-51" font-family="Helvetica,sans-Serif" font-size="10.00">wmtk::Mesh::switch</text>
<text text-anchor="middle" x="1120.5" y="-40" font-family="Helvetica,sans-Serif" font-size="10.00">_vertex</text>
</a>
</g>
</g>
<!-- Node1&#45;&gt;Node15 -->
<g id="edge37" class="edge">
<title>Node1&#45;&gt;Node15</title>
<path fill="none" stroke="midnightblue" d="M70.51,-283.88C76.8,-243.19 100.11,-131.05 171,-81 293.22,5.29 356.39,-48 506,-48 506,-48 506,-48 740,-48 849.65,-48 977.12,-48 1052.9,-48"/>
<polygon fill="midnightblue" stroke="midnightblue" points="1053.24,-51.5 1063.24,-48 1053.24,-44.5 1053.24,-51.5"/>
</g>
<!-- Node22 -->
<g id="node22" class="node">
<title>Node22</title>
<g id="a_node22"><a xlink:href="classwmtk_1_1_mesh.html#a56d57041196b23cfa33661c9488c9c4b" target="_top" xlink:title="TODO this needs dimension?">
<polygon fill="none" stroke="black" points="217.5,-0.5 217.5,-19.5 332.5,-19.5 332.5,-0.5 217.5,-0.5"/>
<text text-anchor="middle" x="275" y="-7.5" font-family="Helvetica,sans-Serif" font-size="10.00">wmtk::Mesh::is_ccw</text>
</a>
</g>
</g>
<!-- Node1&#45;&gt;Node22 -->
<g id="edge35" class="edge">
<title>Node1&#45;&gt;Node22</title>
<path fill="none" stroke="midnightblue" d="M69.58,-283.96C73.66,-238.67 92.24,-102.43 171,-34 181.22,-25.12 194.09,-19.37 207.24,-15.67"/>
<polygon fill="midnightblue" stroke="midnightblue" points="208.42,-18.99 217.31,-13.23 206.77,-12.19 208.42,-18.99"/>
</g>
<!-- Node4&#45;&gt;Node5 -->
<g id="edge4" class="edge">
<title>Node4&#45;&gt;Node5</title>
<path fill="none" stroke="midnightblue" d="M1009.28,-434.31C1024.63,-429.95 1041.09,-425.27 1056.49,-420.9"/>
<polygon fill="midnightblue" stroke="midnightblue" points="1057.76,-424.18 1066.43,-418.08 1055.85,-417.44 1057.76,-424.18"/>
</g>
<!-- Node4&#45;&gt;Node6 -->
<g id="edge5" class="edge">
<title>Node4&#45;&gt;Node6</title>
<path fill="none" stroke="midnightblue" d="M968.82,-431.22C982.52,-417.48 999.99,-398.63 1013,-380 1055.62,-318.96 1092.23,-238.63 1109.28,-198.72"/>
<polygon fill="midnightblue" stroke="midnightblue" points="1112.61,-199.83 1113.28,-189.25 1106.16,-197.1 1112.61,-199.83"/>
</g>
<!-- Node7&#45;&gt;Node5 -->
<g id="edge32" class="edge">
<title>Node7&#45;&gt;Node5</title>
<path fill="none" stroke="midnightblue" d="M286.5,-308.57C308.4,-327.82 361.41,-370.8 415,-387 530.31,-421.86 885.09,-412.55 1042.69,-406.41"/>
<polygon fill="midnightblue" stroke="midnightblue" points="1042.93,-409.9 1052.78,-406.01 1042.65,-402.9 1042.93,-409.9"/>
</g>
<!-- Node8 -->
<g id="node8" class="node">
<title>Node8</title>
<g id="a_node8"><a xlink:href="classwmtk_1_1simplex_1_1_simplex_collection.html#a1e7079b3b75f70dd28c524556cab76cf" target="_top" xlink:title="Add simplex to the collection.">
<polygon fill="none" stroke="black" points="635,-242.5 635,-261.5 843,-261.5 843,-242.5 635,-242.5"/>
<text text-anchor="middle" x="739" y="-249.5" font-family="Helvetica,sans-Serif" font-size="10.00">wmtk::simplex::SimplexCollection::add</text>
</a>
</g>
</g>
<!-- Node7&#45;&gt;Node8 -->
<g id="edge7" class="edge">
<title>Node7&#45;&gt;Node8</title>
<path fill="none" stroke="midnightblue" d="M336.05,-297.61C401.07,-295.57 507.74,-290.64 599,-279 628.17,-275.28 660.43,-269.14 686.52,-263.66"/>
<polygon fill="midnightblue" stroke="midnightblue" points="687.51,-267.02 696.56,-261.51 686.05,-260.18 687.51,-267.02"/>
</g>
<!-- Node9 -->
<g id="node9" class="node">
<title>Node9</title>
<g id="a_node9"><a xlink:href="namespacewmtk_1_1simplex.html#a9dec91b832501228f5b8b05646d0b89d" target="_top" xlink:title="Returns a vector with all faces in the boundary of a simplex of the given dimension.">
<polygon fill="none" stroke="black" points="446,-191 446,-221 568,-221 568,-191 446,-191"/>
<text text-anchor="start" x="454" y="-209" font-family="Helvetica,sans-Serif" font-size="10.00">wmtk::simplex::faces</text>
<text text-anchor="middle" x="507" y="-198" font-family="Helvetica,sans-Serif" font-size="10.00">_single_dimension</text>
</a>
</g>
</g>
<!-- Node7&#45;&gt;Node9 -->
<g id="edge8" class="edge">
<title>Node7&#45;&gt;Node9</title>
<path fill="none" stroke="midnightblue" d="M292.62,-289.36C318.21,-274.84 369.1,-247.24 415,-230 421.73,-227.47 428.83,-225.1 435.99,-222.92"/>
<polygon fill="midnightblue" stroke="midnightblue" points="437.13,-226.23 445.74,-220.05 435.16,-219.51 437.13,-226.23"/>
</g>
<!-- Node17 -->
<g id="node17" class="node">
<title>Node17</title>
<g id="a_node17"><a xlink:href="namespacewmtk_1_1utils.html#ad4153e2c24f98b817e39406defdc9f7e" target="_top" xlink:title=" ">
<polygon fill="none" stroke="black" points="446,-328 446,-358 568,-358 568,-328 446,-328"/>
<text text-anchor="start" x="454" y="-346" font-family="Helvetica,sans-Serif" font-size="10.00">wmtk::utils::primitive</text>
<text text-anchor="middle" x="507" y="-335" font-family="Helvetica,sans-Serif" font-size="10.00">_below</text>
</a>
</g>
</g>
<!-- Node7&#45;&gt;Node17 -->
<g id="edge27" class="edge">
<title>Node7&#45;&gt;Node17</title>
<path fill="none" stroke="midnightblue" d="M325.91,-308.55C358.15,-314.72 400.58,-322.83 436.15,-329.64"/>
<polygon fill="midnightblue" stroke="midnightblue" points="435.51,-333.08 445.99,-331.52 436.82,-326.2 435.51,-333.08"/>
</g>
<!-- Node18 -->
<g id="node18" class="node">
<title>Node18</title>
<g id="a_node18"><a xlink:href="namespacewmtk_1_1utils.html#a8dab5bd8df4c7c658413914f37210244" target="_top" xlink:title=" ">
<polygon fill="none" stroke="black" points="678,-332 678,-362 800,-362 800,-332 678,-332"/>
<text text-anchor="start" x="686" y="-350" font-family="Helvetica,sans-Serif" font-size="10.00">wmtk::utils::primitive</text>
<text text-anchor="middle" x="739" y="-339" font-family="Helvetica,sans-Serif" font-size="10.00">_range</text>
</a>
</g>
</g>
<!-- Node7&#45;&gt;Node18 -->
<g id="edge31" class="edge">
<title>Node7&#45;&gt;Node18</title>
<path fill="none" stroke="midnightblue" d="M289.77,-308.57C313.84,-324.64 365.69,-356.43 415,-368 500.47,-388.05 601.92,-375.81 668.01,-363.22"/>
<polygon fill="midnightblue" stroke="midnightblue" points="668.76,-366.64 677.9,-361.28 667.41,-359.77 668.76,-366.64"/>
</g>
<!-- Node21 -->
<g id="node21" class="node">
<title>Node21</title>
<g id="a_node21"><a xlink:href="classwmtk_1_1simplex_1_1_simplex_collection.html#ab318c99d54327383ff1b985bed043f3a" target="_top" xlink:title="Sort simplex vector and remove duplicates.">
<polygon fill="none" stroke="black" points="415,-240 415,-270 599,-270 599,-240 415,-240"/>
<text text-anchor="start" x="423" y="-258" font-family="Helvetica,sans-Serif" font-size="10.00">wmtk::simplex::SimplexCollection</text>
<text text-anchor="middle" x="507" y="-247" font-family="Helvetica,sans-Serif" font-size="10.00">::sort_and_clean</text>
</a>
</g>
</g>
<!-- Node7&#45;&gt;Node21 -->
<g id="edge33" class="edge">
<title>Node7&#45;&gt;Node21</title>
<path fill="none" stroke="midnightblue" d="M325.91,-289.45C352.61,-284.34 386.3,-277.9 417.29,-271.97"/>
<polygon fill="midnightblue" stroke="midnightblue" points="418.09,-275.38 427.25,-270.07 416.77,-268.51 418.09,-275.38"/>
</g>
<!-- Node9&#45;&gt;Node8 -->
<g id="edge9" class="edge">
<title>Node9&#45;&gt;Node8</title>
<path fill="none" stroke="midnightblue" d="M568.13,-218.03C602.78,-224.96 646.1,-233.62 680.33,-240.47"/>
<polygon fill="midnightblue" stroke="midnightblue" points="679.68,-243.91 690.18,-242.44 681.06,-237.04 679.68,-243.91"/>
</g>
<!-- Node9&#45;&gt;Node10 -->
<g id="edge10" class="edge">
<title>Node9&#45;&gt;Node10</title>
<path fill="none" stroke="midnightblue" d="M554.88,-190.94C569.09,-186.27 584.72,-181.02 599,-176 629.2,-165.38 662.82,-152.82 689.44,-142.7"/>
<polygon fill="midnightblue" stroke="midnightblue" points="690.81,-145.93 698.91,-139.1 688.32,-139.39 690.81,-145.93"/>
</g>
<!-- Node10&#45;&gt;Node7 -->
<g id="edge20" class="edge">
<title>Node10&#45;&gt;Node7</title>
<path fill="none" stroke="midnightblue" d="M667.39,-125.88C599.72,-130.07 496.17,-142.86 415,-181 362.52,-205.66 313.98,-255.44 290.6,-281.77"/>
<polygon fill="midnightblue" stroke="midnightblue" points="287.86,-279.6 283.93,-289.44 293.14,-284.2 287.86,-279.6"/>
</g>
<!-- Node11 -->
<g id="node11" class="node">
<title>Node11</title>
<g id="a_node11"><a xlink:href="namespacewmtk_1_1simplex.html#a71a3f68cd8c07a8b71f16701238253f1" target="_top" xlink:title=" ">
<polygon fill="none" stroke="black" points="883.5,-120.5 883.5,-139.5 1008.5,-139.5 1008.5,-120.5 883.5,-120.5"/>
<text text-anchor="middle" x="946" y="-127.5" font-family="Helvetica,sans-Serif" font-size="10.00">wmtk::simplex::edges</text>
</a>
</g>
</g>
<!-- Node10&#45;&gt;Node11 -->
<g id="edge11" class="edge">
<title>Node10&#45;&gt;Node11</title>
<path fill="none" stroke="midnightblue" d="M810.55,-126.06C830.76,-126.66 852.82,-127.3 873.11,-127.9"/>
<polygon fill="midnightblue" stroke="midnightblue" points="873.13,-131.4 883.22,-128.19 873.33,-124.4 873.13,-131.4"/>
</g>
<!-- Node16 -->
<g id="node16" class="node">
<title>Node16</title>
<g id="a_node16"><a xlink:href="namespacewmtk_1_1simplex.html#a1942aba1c5db8f987a1b1535b64b3455" target="_top" xlink:title=" ">
<polygon fill="none" stroke="black" points="879,-82.5 879,-101.5 1013,-101.5 1013,-82.5 879,-82.5"/>
<text text-anchor="middle" x="946" y="-89.5" font-family="Helvetica,sans-Serif" font-size="10.00">wmtk::simplex::vertices</text>
</a>
</g>
</g>
<!-- Node10&#45;&gt;Node16 -->
<g id="edge21" class="edge">
<title>Node10&#45;&gt;Node16</title>
<path fill="none" stroke="midnightblue" d="M810.55,-112.99C831.05,-109.79 853.45,-106.29 873.98,-103.09"/>
<polygon fill="midnightblue" stroke="midnightblue" points="874.56,-106.54 883.9,-101.54 873.48,-99.62 874.56,-106.54"/>
</g>
<!-- Node11&#45;&gt;Node5 -->
<g id="edge12" class="edge">
<title>Node11&#45;&gt;Node5</title>
<path fill="none" stroke="midnightblue" d="M953.14,-139.72C977.53,-178.32 1068,-321.5 1104.3,-378.94"/>
<polygon fill="midnightblue" stroke="midnightblue" points="1101.53,-381.11 1109.83,-387.7 1107.45,-377.38 1101.53,-381.11"/>
</g>
<!-- Node11&#45;&gt;Node6 -->
<g id="edge19" class="edge">
<title>Node11&#45;&gt;Node6</title>
<path fill="none" stroke="midnightblue" d="M984.43,-139.55C1003.76,-144.48 1027.98,-150.66 1050.55,-156.41"/>
<polygon fill="midnightblue" stroke="midnightblue" points="1049.88,-159.85 1060.44,-158.93 1051.61,-153.07 1049.88,-159.85"/>
</g>
<!-- Node12 -->
<g id="node12" class="node">
<title>Node12</title>
<g id="a_node12"><a xlink:href="classwmtk_1_1_mesh.html#a33805489402321155d4a1f7023faaf3a" target="_top" xlink:title=" ">
<polygon fill="none" stroke="black" points="1049,-82.5 1049,-101.5 1192,-101.5 1192,-82.5 1049,-82.5"/>
<text text-anchor="middle" x="1120.5" y="-89.5" font-family="Helvetica,sans-Serif" font-size="10.00">wmtk::Mesh::switch_edge</text>
</a>
</g>
</g>
<!-- Node11&#45;&gt;Node12 -->
<g id="edge13" class="edge">
<title>Node11&#45;&gt;Node12</title>
<path fill="none" stroke="midnightblue" d="M990.53,-120.41C1013.6,-115.33 1042.13,-109.04 1066.48,-103.68"/>
<polygon fill="midnightblue" stroke="midnightblue" points="1067.27,-107.09 1076.28,-101.52 1065.77,-100.25 1067.27,-107.09"/>
</g>
<!-- Node14 -->
<g id="node14" class="node">
<title>Node14</title>
<g id="a_node14"><a xlink:href="classwmtk_1_1_mesh.html#a6ca480b3f16ac2aadc9887c42748e239" target="_top" xlink:title=" ">
<polygon fill="none" stroke="black" points="1050.5,-120.5 1050.5,-139.5 1190.5,-139.5 1190.5,-120.5 1050.5,-120.5"/>
<text text-anchor="middle" x="1120.5" y="-127.5" font-family="Helvetica,sans-Serif" font-size="10.00">wmtk::Mesh::switch_face</text>
</a>
</g>
</g>
<!-- Node11&#45;&gt;Node14 -->
<g id="edge15" class="edge">
<title>Node11&#45;&gt;Node14</title>
<path fill="none" stroke="midnightblue" d="M1008.79,-130C1018.97,-130 1029.65,-130 1040.19,-130"/>
<polygon fill="midnightblue" stroke="midnightblue" points="1040.23,-133.5 1050.23,-130 1040.23,-126.5 1040.23,-133.5"/>
</g>
<!-- Node11&#45;&gt;Node15 -->
<g id="edge17" class="edge">
<title>Node11&#45;&gt;Node15</title>
<path fill="none" stroke="midnightblue" d="M992.38,-120.42C999.56,-117.94 1006.68,-114.84 1013,-111 1032.88,-98.91 1029.5,-85.68 1049,-73 1052.07,-71.01 1055.31,-69.15 1058.66,-67.42"/>
<polygon fill="midnightblue" stroke="midnightblue" points="1060.15,-70.59 1067.7,-63.15 1057.16,-64.26 1060.15,-70.59"/>
</g>
<!-- Node13 -->
<g id="node13" class="node">
<title>Node13</title>
<g id="a_node13"><a xlink:href="classwmtk_1_1_mesh.html#a965a8a24158c4aa8580c57ba09f885f7" target="_top" xlink:title="switch the orientation of the Tuple of the given dimension">
<polygon fill="none" stroke="black" points="1228,-77 1228,-107 1342,-107 1342,-77 1228,-77"/>
<text text-anchor="start" x="1236" y="-95" font-family="Helvetica,sans-Serif" font-size="10.00">wmtk::Mesh::switch</text>
<text text-anchor="middle" x="1285" y="-84" font-family="Helvetica,sans-Serif" font-size="10.00">_tuple</text>
</a>
</g>
</g>
<!-- Node12&#45;&gt;Node13 -->
<g id="edge14" class="edge">
<title>Node12&#45;&gt;Node13</title>
<path fill="none" stroke="midnightblue" d="M1192.3,-92C1200.69,-92 1209.24,-92 1217.56,-92"/>
<polygon fill="midnightblue" stroke="midnightblue" points="1217.59,-95.5 1227.59,-92 1217.59,-88.5 1217.59,-95.5"/>
</g>
<!-- Node14&#45;&gt;Node13 -->
<g id="edge16" class="edge">
<title>Node14&#45;&gt;Node13</title>
<path fill="none" stroke="midnightblue" d="M1162.51,-120.41C1179.32,-116.48 1199.22,-111.83 1217.98,-107.44"/>
<polygon fill="midnightblue" stroke="midnightblue" points="1219.03,-110.79 1227.97,-105.1 1217.44,-103.97 1219.03,-110.79"/>
</g>
<!-- Node15&#45;&gt;Node13 -->
<g id="edge18" class="edge">
<title>Node15&#45;&gt;Node13</title>
<path fill="none" stroke="midnightblue" d="M1176.97,-63.02C1190.36,-66.65 1204.79,-70.55 1218.59,-74.29"/>
<polygon fill="midnightblue" stroke="midnightblue" points="1217.94,-77.74 1228.51,-76.97 1219.77,-70.98 1217.94,-77.74"/>
</g>
<!-- Node16&#45;&gt;Node5 -->
<g id="edge22" class="edge">
<title>Node16&#45;&gt;Node5</title>
<path fill="none" stroke="midnightblue" d="M998.62,-101.51C1003.88,-103.99 1008.81,-107.1 1013,-111 1023.32,-120.63 1087.93,-309.62 1111.18,-378.31"/>
<polygon fill="midnightblue" stroke="midnightblue" points="1107.9,-379.55 1114.42,-387.9 1114.53,-377.31 1107.9,-379.55"/>
</g>
<!-- Node16&#45;&gt;Node6 -->
<g id="edge26" class="edge">
<title>Node16&#45;&gt;Node6</title>
<path fill="none" stroke="midnightblue" d="M992.38,-101.58C999.56,-104.06 1006.68,-107.16 1013,-111 1032.88,-123.09 1029.5,-136.32 1049,-149 1052.07,-150.99 1055.31,-152.85 1058.66,-154.58"/>
<polygon fill="midnightblue" stroke="midnightblue" points="1057.16,-157.74 1067.7,-158.85 1060.15,-151.41 1057.16,-157.74"/>
</g>
<!-- Node16&#45;&gt;Node12 -->
<g id="edge23" class="edge">
<title>Node16&#45;&gt;Node12</title>
<path fill="none" stroke="midnightblue" d="M1013.2,-92C1021.6,-92 1030.27,-92 1038.86,-92"/>
<polygon fill="midnightblue" stroke="midnightblue" points="1038.89,-95.5 1048.89,-92 1038.89,-88.5 1038.89,-95.5"/>
</g>
<!-- Node16&#45;&gt;Node14 -->
<g id="edge24" class="edge">
<title>Node16&#45;&gt;Node14</title>
<path fill="none" stroke="midnightblue" d="M990.53,-101.59C1013.6,-106.67 1042.13,-112.96 1066.48,-118.32"/>
<polygon fill="midnightblue" stroke="midnightblue" points="1065.77,-121.75 1076.28,-120.48 1067.27,-114.91 1065.77,-121.75"/>
</g>
<!-- Node16&#45;&gt;Node15 -->
<g id="edge25" class="edge">
<title>Node16&#45;&gt;Node15</title>
<path fill="none" stroke="midnightblue" d="M984.43,-82.45C1004.63,-77.3 1030.16,-70.79 1053.57,-64.82"/>
<polygon fill="midnightblue" stroke="midnightblue" points="1054.63,-68.16 1063.46,-62.3 1052.9,-61.38 1054.63,-68.16"/>
</g>
<!-- Node17&#45;&gt;Node18 -->
<g id="edge28" class="edge">
<title>Node17&#45;&gt;Node18</title>
<path fill="none" stroke="midnightblue" d="M568.13,-344.05C598.64,-344.58 635.87,-345.22 667.69,-345.78"/>
<polygon fill="midnightblue" stroke="midnightblue" points="667.76,-349.28 677.82,-345.95 667.88,-342.28 667.76,-349.28"/>
</g>
<!-- Node19 -->
<g id="node19" class="node">
<title>Node19</title>
<g id="a_node19"><a xlink:href="namespacewmtk.html#ae1347939ca47e5c292201e0eedd2b4cb" target="_top" xlink:title="Get the primitive type corresponding to its unique integer id.">
<polygon fill="none" stroke="black" points="888,-291 888,-321 1004,-321 1004,-291 888,-291"/>
<text text-anchor="start" x="896" y="-309" font-family="Helvetica,sans-Serif" font-size="10.00">wmtk::get_primitive</text>
<text text-anchor="middle" x="946" y="-298" font-family="Helvetica,sans-Serif" font-size="10.00">_type_from_id</text>
</a>
</g>
</g>
<!-- Node18&#45;&gt;Node19 -->
<g id="edge29" class="edge">
<title>Node18&#45;&gt;Node19</title>
<path fill="none" stroke="midnightblue" d="M800.12,-334.98C824.42,-330.12 852.57,-324.49 877.57,-319.49"/>
<polygon fill="midnightblue" stroke="midnightblue" points="878.58,-322.85 887.7,-317.46 877.2,-315.99 878.58,-322.85"/>
</g>
<!-- Node20 -->
<g id="node20" class="node">
<title>Node20</title>
<g id="a_node20"><a xlink:href="namespacewmtk.html#a086fd9be68bdeec5f8eda4fc73982e57" target="_top" xlink:title="Get a unique integer id corresponding to each primitive type.">
<polygon fill="none" stroke="black" points="888,-340 888,-370 1004,-370 1004,-340 888,-340"/>
<text text-anchor="start" x="896" y="-358" font-family="Helvetica,sans-Serif" font-size="10.00">wmtk::get_primitive</text>
<text text-anchor="middle" x="946" y="-347" font-family="Helvetica,sans-Serif" font-size="10.00">_type_id</text>
</a>
</g>
</g>
<!-- Node18&#45;&gt;Node20 -->
<g id="edge30" class="edge">
<title>Node18&#45;&gt;Node20</title>
<path fill="none" stroke="midnightblue" d="M800.12,-349.35C824.42,-350.29 852.57,-351.39 877.57,-352.37"/>
<polygon fill="midnightblue" stroke="midnightblue" points="877.57,-355.87 887.7,-352.76 877.84,-348.88 877.57,-355.87"/>
</g>
</g>
</svg>
        <g id="navigator" transform="translate(0 0)" fill="#404254">
                <rect fill="#f2f5e9" fill-opacity="0.5" stroke="#606060" stroke-width=".5" x="0" y="0" width="60" height="60"/>
                <use id="zoomplus" xlink:href="#zoomPlus" x="17" y="9" onmousedown="handleZoom(evt,'in')"/>
                <use id="zoomminus" xlink:href="#zoomMin" x="42" y="9" onmousedown="handleZoom(evt,'out')"/>
                <use id="reset" xlink:href="#resetDef" x="30" y="36" onmousedown="handleReset()"/>
                <g id="arrowUp" xlink:href="#dirArrow" transform="translate(30 24)" onmousedown="handlePan(0,-1)">
                  <use xlink:href="#rim" fill="#404040">
                        <set attributeName="fill" to="#808080" begin="arrowUp.mouseover" end="arrowUp.mouseout"/>
                  </use>
                  <path fill="none" stroke="white" stroke-width="1.5" d="M0,-3.0v7 M-2.5,-0.5L0,-3.0L2.5,-0.5"/>
                </g>
                <g id="arrowRight" xlink:href="#dirArrow" transform="rotate(90) translate(36 -43)" onmousedown="handlePan(1,0)">
                  <use xlink:href="#rim" fill="#404040">
                        <set attributeName="fill" to="#808080" begin="arrowRight.mouseover" end="arrowRight.mouseout"/>
                  </use>
                  <path fill="none" stroke="white" stroke-width="1.5" d="M0,-3.0v7 M-2.5,-0.5L0,-3.0L2.5,-0.5"/>
                </g>
                <g id="arrowDown" xlink:href="#dirArrow" transform="rotate(180) translate(-30 -48)" onmousedown="handlePan(0,1)">
                  <use xlink:href="#rim" fill="#404040">
                        <set attributeName="fill" to="#808080" begin="arrowDown.mouseover" end="arrowDown.mouseout"/>
                  </use>
                  <path fill="none" stroke="white" stroke-width="1.5" d="M0,-3.0v7 M-2.5,-0.5L0,-3.0L2.5,-0.5"/>
                </g>
                <g id="arrowLeft" xlink:href="#dirArrow" transform="rotate(270) translate(-36 17)" onmousedown="handlePan(-1,0)">
                  <use xlink:href="#rim" fill="#404040">
                        <set attributeName="fill" to="#808080" begin="arrowLeft.mouseover" end="arrowLeft.mouseout"/>
                  </use>
                  <path fill="none" stroke="white" stroke-width="1.5" d="M0,-3.0v7 M-2.5,-0.5L0,-3.0L2.5,-0.5"/>
                </g>
        </g>
        <svg viewBox="0 0 15 15" width="100%" height="30px" preserveAspectRatio="xMaxYMin meet">
         <g id="arrow_out" transform="scale(0.3 0.3)">
          <a xlink:href="namespacewmtk_1_1function_1_1utils_a2756827018ecfed5f649f08c94821242_cgraph_org.svg" target="_base">
           <rect id="button" ry="5" rx="5" y="6" x="6" height="38" width="38"
                fill="#f2f5e9" fill-opacity="0.5" stroke="#606060" stroke-width="1.0"/>
           <path id="arrow"
             d="M 11.500037,31.436501 C 11.940474,20.09759 22.043105,11.32322 32.158766,21.979434 L 37.068811,17.246167 C 37.068811,17.246167 37.088388,32 37.088388,32 L 22.160133,31.978069 C 22.160133,31.978069 26.997745,27.140456 26.997745,27.140456 C 18.528582,18.264221 13.291696,25.230495 11.500037,31.436501 z"
             style="fill:#404040;"/>
          </a>
         </g>
        </svg>
</svg>
