<?xml version="1.0" encoding="UTF-8" standalone="no"?>
<!DOCTYPE svg PUBLIC "-//W3C//DTD SVG 1.1//EN"
 "http://www.w3.org/Graphics/SVG/1.1/DTD/svg11.dtd">
<!-- Generated by graphviz version 2.43.0 (0)
 -->
<!-- Title: wmtk::simplex::faces_single_dimension_tuples Pages: 1 -->
<!--zoomable 726 -->
<svg id="main" version="1.1" xmlns="http://www.w3.org/2000/svg" xmlns:xlink="http://www.w3.org/1999/xlink" xml:space="preserve" onload="init(evt)">
<style type="text/css"><![CDATA[
.edge:hover path { stroke: red; }
.edge:hover polygon { stroke: red; fill: red; }
]]></style>
<script type="text/javascript"><![CDATA[
var edges = document.getElementsByTagName('g');
if (edges && edges.length) {
  for (var i=0;i<edges.length;i++) {
    if (edges[i].id.substr(0,4)=='edge') {
      edges[i].setAttribute('class','edge');
    }
  }
}
]]></script>
        <defs>
                <circle id="rim" cx="0" cy="0" r="7"/>
                <circle id="rim2" cx="0" cy="0" r="3.5"/>
                <g id="zoomPlus">
                        <use xlink:href="#rim" fill="#404040">
                                <set attributeName="fill" to="#808080" begin="zoomplus.mouseover" end="zoomplus.mouseout"/>
                        </use>
                        <path d="M-4,0h8M0,-4v8" fill="none" stroke="white" stroke-width="1.5" pointer-events="none"/>
                </g>
                <g id="zoomMin">
                        <use xlink:href="#rim" fill="#404040">
                                <set attributeName="fill" to="#808080" begin="zoomminus.mouseover" end="zoomminus.mouseout"/>
                        </use>
                        <path d="M-4,0h8" fill="none" stroke="white" stroke-width="1.5" pointer-events="none"/>
                </g>
                <g id="dirArrow">
                        <path fill="none" stroke="white" stroke-width="1.5" d="M0,-3.0v7 M-2.5,-0.5L0,-3.0L2.5,-0.5"/>
                </g>
               <g id="resetDef">
                       <use xlink:href="#rim2" fill="#404040">
                               <set attributeName="fill" to="#808080" begin="reset.mouseover" end="reset.mouseout"/>
                       </use>
               </g>
        </defs>

<script type="text/javascript">
var viewWidth = 940;
var viewHeight = 726;
var sectionId = 'dynsection-20';
</script>
<script xlink:href="svgpan.js"/>
<svg id="graph" class="graph">
<g id="viewport">
<title>wmtk::simplex::faces_single_dimension_tuples</title>
<!-- Node1 -->
<g id="node1" class="node">
<title>Node1</title>
<g id="a_node1"><a xlink:title=" ">
<polygon fill="#bfbfbf" stroke="black" points="789,-331.5 789,-361.5 932,-361.5 932,-331.5 789,-331.5"/>
<text text-anchor="start" x="797" y="-349.5" font-family="Helvetica,sans-Serif" font-size="10.00">wmtk::simplex::faces</text>
<text text-anchor="middle" x="860.5" y="-338.5" font-family="Helvetica,sans-Serif" font-size="10.00">_single_dimension_tuples</text>
</a>
</g>
</g>
<!-- Node2 -->
<g id="node2" class="node">
<title>Node2</title>
<g id="a_node2"><a xlink:href="classwmtk_1_1invariants_1_1_envelope_invariant.html#a4d834a753526ea4996f7a9aa5b078f45" target="_top" xlink:title=" ">
<polygon fill="none" stroke="black" points="582,-687.5 582,-717.5 732,-717.5 732,-687.5 582,-687.5"/>
<text text-anchor="start" x="590" y="-705.5" font-family="Helvetica,sans-Serif" font-size="10.00">wmtk::invariants::Envelope</text>
<text text-anchor="middle" x="657" y="-694.5" font-family="Helvetica,sans-Serif" font-size="10.00">Invariant::after</text>
</a>
</g>
</g>
<!-- Node1&#45;&gt;Node2 -->
<g id="edge1" class="edge">
<title>Node1&#45;&gt;Node2</title>
<path fill="none" stroke="midnightblue" d="M859.16,-371.65C856.91,-433.27 842.29,-592.9 753,-677.5 747.06,-683.13 740,-687.53 732.46,-690.96"/>
<polygon fill="midnightblue" stroke="midnightblue" points="862.66,-371.75 859.44,-361.65 855.66,-371.55 862.66,-371.75"/>
</g>
<!-- Node3 -->
<g id="node3" class="node">
<title>Node3</title>
<g id="a_node3"><a xlink:href="classwmtk_1_1invariants_1_1_min_incident_valence_invariant.html#a86763a63b94889f8e22cd9c705c84110" target="_top" xlink:title=" ">
<polygon fill="none" stroke="black" points="354,-350.5 354,-380.5 516,-380.5 516,-350.5 354,-350.5"/>
<text text-anchor="start" x="362" y="-368.5" font-family="Helvetica,sans-Serif" font-size="10.00">wmtk::invariants::MinIncident</text>
<text text-anchor="middle" x="435" y="-357.5" font-family="Helvetica,sans-Serif" font-size="10.00">ValenceInvariant::after</text>
</a>
</g>
</g>
<!-- Node1&#45;&gt;Node3 -->
<g id="edge2" class="edge">
<title>Node1&#45;&gt;Node3</title>
<path fill="none" stroke="midnightblue" d="M778.22,-350.15C702.8,-353.53 591.2,-358.54 516.15,-361.9"/>
<polygon fill="midnightblue" stroke="midnightblue" points="778.78,-353.62 788.62,-349.68 778.47,-346.63 778.78,-353.62"/>
</g>
<!-- Node4 -->
<g id="node4" class="node">
<title>Node4</title>
<g id="a_node4"><a xlink:href="classwmtk_1_1invariants_1_1_tet_mesh_substructure_topology_preserving_invariant.html#a30e554417dfffcaedce3a167b351173b" target="_top" xlink:title=" ">
<polygon fill="none" stroke="black" points="570.5,-567 570.5,-608 743.5,-608 743.5,-567 570.5,-567"/>
<text text-anchor="start" x="578.5" y="-596" font-family="Helvetica,sans-Serif" font-size="10.00">wmtk::invariants::TetMesh</text>
<text text-anchor="start" x="578.5" y="-585" font-family="Helvetica,sans-Serif" font-size="10.00">SubstructureTopologyPreserving</text>
<text text-anchor="middle" x="657" y="-574" font-family="Helvetica,sans-Serif" font-size="10.00">Invariant::before</text>
</a>
</g>
</g>
<!-- Node1&#45;&gt;Node4 -->
<g id="edge3" class="edge">
<title>Node1&#45;&gt;Node4</title>
<path fill="none" stroke="midnightblue" d="M853.73,-371.38C842.24,-415.38 812.35,-507.04 753,-557.5 748.92,-560.97 744.43,-564.04 739.69,-566.76"/>
<polygon fill="midnightblue" stroke="midnightblue" points="857.17,-372.07 856.2,-361.52 850.38,-370.37 857.17,-372.07"/>
</g>
<!-- Node5 -->
<g id="node5" class="node">
<title>Node5</title>
<g id="a_node5"><a xlink:href="classwmtk_1_1invariants_1_1_tri_mesh_substructure_topology_preserving_invariant.html#a7bafc4a52c4d8cbfadee5edd24cbe01f" target="_top" xlink:title=" ">
<polygon fill="none" stroke="black" points="570.5,-507 570.5,-548 743.5,-548 743.5,-507 570.5,-507"/>
<text text-anchor="start" x="578.5" y="-536" font-family="Helvetica,sans-Serif" font-size="10.00">wmtk::invariants::TriMesh</text>
<text text-anchor="start" x="578.5" y="-525" font-family="Helvetica,sans-Serif" font-size="10.00">SubstructureTopologyPreserving</text>
<text text-anchor="middle" x="657" y="-514" font-family="Helvetica,sans-Serif" font-size="10.00">Invariant::before</text>
</a>
</g>
</g>
<!-- Node1&#45;&gt;Node5 -->
<g id="edge4" class="edge">
<title>Node1&#45;&gt;Node5</title>
<path fill="none" stroke="midnightblue" d="M848.56,-370.92C832.38,-404.31 798.96,-463.9 753,-497.5 748.25,-500.97 743.09,-504.05 737.71,-506.78"/>
<polygon fill="midnightblue" stroke="midnightblue" points="851.74,-372.38 852.84,-361.85 845.41,-369.4 851.74,-372.38"/>
</g>
<!-- Node6 -->
<g id="node6" class="node">
<title>Node6</title>
<g id="a_node6"><a xlink:href="classwmtk_1_1invariants_1_1_valence_improvement_invariant.html#ac2f6805f4a5bfc3aba4f0c2169e03a99" target="_top" xlink:title=" ">
<polygon fill="none" stroke="black" points="575,-457.5 575,-487.5 739,-487.5 739,-457.5 575,-457.5"/>
<text text-anchor="start" x="583" y="-475.5" font-family="Helvetica,sans-Serif" font-size="10.00">wmtk::invariants::Valence</text>
<text text-anchor="middle" x="657" y="-464.5" font-family="Helvetica,sans-Serif" font-size="10.00">ImprovementInvariant::before</text>
</a>
</g>
</g>
<!-- Node1&#45;&gt;Node6 -->
<g id="edge5" class="edge">
<title>Node1&#45;&gt;Node6</title>
<path fill="none" stroke="midnightblue" d="M841.27,-369.57C821.81,-392.65 788.89,-427.51 753,-447.5 746.15,-451.32 738.69,-454.57 731.06,-457.34"/>
<polygon fill="midnightblue" stroke="midnightblue" points="844.14,-371.59 847.81,-361.65 838.74,-367.13 844.14,-371.59"/>
</g>
<!-- Node7 -->
<g id="node7" class="node">
<title>Node7</title>
<g id="a_node7"><a xlink:href="classwmtk_1_1components_1_1internal_1_1_multi_mesh_from_tag.html#a00b7df05e0cd44c1a2d4e6ee39dbaacf" target="_top" xlink:title="Create the adjacency (stored as attribute) of the substructure.">
<polygon fill="none" stroke="black" points="580,-627 580,-668 734,-668 734,-627 580,-627"/>
<text text-anchor="start" x="588" y="-656" font-family="Helvetica,sans-Serif" font-size="10.00">wmtk::components::internal</text>
<text text-anchor="start" x="588" y="-645" font-family="Helvetica,sans-Serif" font-size="10.00">::MultiMeshFromTag::build</text>
<text text-anchor="middle" x="657" y="-634" font-family="Helvetica,sans-Serif" font-size="10.00">_adjacency_matrix</text>
</a>
</g>
</g>
<!-- Node1&#45;&gt;Node7 -->
<g id="edge6" class="edge">
<title>Node1&#45;&gt;Node7</title>
<path fill="none" stroke="midnightblue" d="M856.78,-371.85C849.73,-425.12 825.96,-549.38 753,-617.5 747.44,-622.69 740.98,-626.99 734.1,-630.54"/>
<polygon fill="midnightblue" stroke="midnightblue" points="860.3,-371.96 858.05,-361.6 853.35,-371.1 860.3,-371.96"/>
</g>
<!-- Node13 -->
<g id="node13" class="node">
<title>Node13</title>
<g id="a_node13"><a xlink:href="classwmtk_1_1components_1_1internal_1_1_multi_mesh_from_tag.html#afb744eb2b5ec264a9a682ccfd3f8dfcb" target="_top" xlink:title="Compute the ids of the manifold substructure.">
<polygon fill="none" stroke="black" points="575,-397 575,-438 739,-438 739,-397 575,-397"/>
<text text-anchor="start" x="583" y="-426" font-family="Helvetica,sans-Serif" font-size="10.00">wmtk::components::internal</text>
<text text-anchor="start" x="583" y="-415" font-family="Helvetica,sans-Serif" font-size="10.00">::MultiMeshFromTag::compute</text>
<text text-anchor="middle" x="657" y="-404" font-family="Helvetica,sans-Serif" font-size="10.00">_substructure_ids</text>
</a>
</g>
</g>
<!-- Node1&#45;&gt;Node13 -->
<g id="edge12" class="edge">
<title>Node1&#45;&gt;Node13</title>
<path fill="none" stroke="midnightblue" d="M807.21,-364.93C779.37,-374.74 745.05,-386.83 716.34,-396.94"/>
<polygon fill="midnightblue" stroke="midnightblue" points="808.5,-368.18 816.77,-361.56 806.17,-361.58 808.5,-368.18"/>
</g>
<!-- Node14 -->
<g id="node14" class="node">
<title>Node14</title>
<g id="a_node14"><a xlink:href="namespacewmtk_1_1simplex.html#ace43fb8c5382e1b98da1c5fc5ea5331f" target="_top" xlink:title=" ">
<polygon fill="none" stroke="black" points="596,-309.5 596,-339.5 718,-339.5 718,-309.5 596,-309.5"/>
<text text-anchor="start" x="604" y="-327.5" font-family="Helvetica,sans-Serif" font-size="10.00">wmtk::simplex::faces</text>
<text text-anchor="middle" x="657" y="-316.5" font-family="Helvetica,sans-Serif" font-size="10.00">_single_dimension</text>
</a>
</g>
</g>
<!-- Node1&#45;&gt;Node14 -->
<g id="edge14" class="edge">
<title>Node1&#45;&gt;Node14</title>
<path fill="none" stroke="midnightblue" d="M778.63,-337.67C758.47,-335.47 737.2,-333.15 718.23,-331.08"/>
<polygon fill="midnightblue" stroke="midnightblue" points="778.42,-341.17 788.74,-338.77 779.18,-334.21 778.42,-341.17"/>
</g>
<!-- Node15 -->
<g id="node15" class="node">
<title>Node15</title>
<g id="a_node15"><a xlink:href="namespacewmtk_1_1function_1_1utils.html#a10708966079a04e25ba0ea7953479662" target="_top" xlink:title="get attributes from a simplex">
<polygon fill="none" stroke="black" points="589.5,-199.5 589.5,-229.5 724.5,-229.5 724.5,-199.5 589.5,-199.5"/>
<text text-anchor="start" x="597.5" y="-217.5" font-family="Helvetica,sans-Serif" font-size="10.00">wmtk::function::utils</text>
<text text-anchor="middle" x="657" y="-206.5" font-family="Helvetica,sans-Serif" font-size="10.00">::get_simplex_attributes</text>
</a>
</g>
</g>
<!-- Node1&#45;&gt;Node15 -->
<g id="edge15" class="edge">
<title>Node1&#45;&gt;Node15</title>
<path fill="none" stroke="midnightblue" d="M842.45,-323.15C823.36,-298.69 790.18,-260.91 753,-239.5 744.28,-234.48 734.53,-230.44 724.7,-227.21"/>
<polygon fill="midnightblue" stroke="midnightblue" points="839.75,-325.38 848.6,-331.2 845.31,-321.13 839.75,-325.38"/>
</g>
<!-- Node19 -->
<g id="node19" class="node">
<title>Node19</title>
<g id="a_node19"><a xlink:href="classwmtk_1_1invariants_1_1_min_incident_valence_invariant.html#a03c779db7485cb3e628da2c6162af6b1" target="_top" xlink:title=" ">
<polygon fill="none" stroke="black" points="576,-249 576,-290 738,-290 738,-249 576,-249"/>
<text text-anchor="start" x="584" y="-278" font-family="Helvetica,sans-Serif" font-size="10.00">wmtk::invariants::MinIncident</text>
<text text-anchor="start" x="584" y="-267" font-family="Helvetica,sans-Serif" font-size="10.00">ValenceInvariant::is_greater</text>
<text text-anchor="middle" x="657" y="-256" font-family="Helvetica,sans-Serif" font-size="10.00">_min_valence</text>
</a>
</g>
</g>
<!-- Node1&#45;&gt;Node19 -->
<g id="edge19" class="edge">
<title>Node1&#45;&gt;Node19</title>
<path fill="none" stroke="midnightblue" d="M817.52,-327.31C798.07,-318.68 774.53,-308.64 753,-300.5 743.59,-296.94 733.56,-293.4 723.69,-290.06"/>
<polygon fill="midnightblue" stroke="midnightblue" points="816.16,-330.53 826.72,-331.41 819.01,-324.14 816.16,-330.53"/>
</g>
<!-- Node21 -->
<g id="node21" class="node">
<title>Node21</title>
<g id="a_node21"><a xlink:href="namespacewmtk_1_1simplex.html#a15e2b37cbcf34fa9fcd27d3449866254" target="_top" xlink:title=" ">
<polygon fill="none" stroke="black" points="585.5,-150.5 585.5,-180.5 728.5,-180.5 728.5,-150.5 585.5,-150.5"/>
<text text-anchor="start" x="593.5" y="-168.5" font-family="Helvetica,sans-Serif" font-size="10.00">wmtk::simplex::neighbors</text>
<text text-anchor="middle" x="657" y="-157.5" font-family="Helvetica,sans-Serif" font-size="10.00">_single_dimension_tuples</text>
</a>
</g>
</g>
<!-- Node1&#45;&gt;Node21 -->
<g id="edge22" class="edge">
<title>Node1&#45;&gt;Node21</title>
<path fill="none" stroke="midnightblue" d="M849.49,-322.01C834.03,-287.34 801.04,-224.4 753,-190.5 745.61,-185.29 737.22,-181.16 728.54,-177.9"/>
<polygon fill="midnightblue" stroke="midnightblue" points="846.36,-323.61 853.55,-331.4 852.79,-320.83 846.36,-323.61"/>
</g>
<!-- Node26 -->
<g id="node26" class="node">
<title>Node26</title>
<g id="a_node26"><a xlink:href="classwmtk_1_1operations_1_1composite_1_1_project_operation.html#a2502ed31a22f3171e399e5362b920a81" target="_top" xlink:title=" ">
<polygon fill="none" stroke="black" points="561,-101.5 561,-131.5 753,-131.5 753,-101.5 561,-101.5"/>
<text text-anchor="start" x="569" y="-119.5" font-family="Helvetica,sans-Serif" font-size="10.00">wmtk::operations::composite</text>
<text text-anchor="middle" x="657" y="-108.5" font-family="Helvetica,sans-Serif" font-size="10.00">::ProjectOperation::ProjectOperation</text>
</a>
</g>
</g>
<!-- Node1&#45;&gt;Node26 -->
<g id="edge27" class="edge">
<title>Node1&#45;&gt;Node26</title>
<path fill="none" stroke="midnightblue" d="M853.75,-321.54C842.38,-277.9 812.74,-187.88 753,-140.5 748.74,-137.12 744.05,-134.21 739.12,-131.7"/>
<polygon fill="midnightblue" stroke="midnightblue" points="850.38,-322.48 856.2,-331.34 857.17,-320.79 850.38,-322.48"/>
</g>
<!-- Node27 -->
<g id="node27" class="node">
<title>Node27</title>
<g id="a_node27"><a xlink:href="classwmtk_1_1components_1_1internal_1_1_regular_space.html#af9adef544fff10ba9257d128fd13393c" target="_top" xlink:title=" ">
<polygon fill="none" stroke="black" points="572,-49.5 572,-79.5 742,-79.5 742,-49.5 572,-49.5"/>
<text text-anchor="start" x="580" y="-67.5" font-family="Helvetica,sans-Serif" font-size="10.00">wmtk::components::internal</text>
<text text-anchor="middle" x="657" y="-56.5" font-family="Helvetica,sans-Serif" font-size="10.00">::RegularSpace::regularize_tags</text>
</a>
</g>
</g>
<!-- Node1&#45;&gt;Node27 -->
<g id="edge28" class="edge">
<title>Node1&#45;&gt;Node27</title>
<path fill="none" stroke="midnightblue" d="M856.24,-321.05C848.3,-269.82 823.19,-153.82 753,-91.5 747.61,-86.72 741.44,-82.78 734.88,-79.54"/>
<polygon fill="midnightblue" stroke="midnightblue" points="852.82,-321.85 857.72,-331.24 859.74,-320.84 852.82,-321.85"/>
</g>
<!-- Node30 -->
<g id="node30" class="node">
<title>Node30</title>
<g id="a_node30"><a xlink:href="namespacewmtk_1_1components.html#a9f615850a1b53a1f3bd0842e9d1ce920" target="_top" xlink:title=" ">
<polygon fill="none" stroke="black" points="594,-0.5 594,-30.5 720,-30.5 720,-0.5 594,-0.5"/>
<text text-anchor="start" x="602" y="-18.5" font-family="Helvetica,sans-Serif" font-size="10.00">wmtk::components::to</text>
<text text-anchor="middle" x="657" y="-7.5" font-family="Helvetica,sans-Serif" font-size="10.00">_points</text>
</a>
</g>
</g>
<!-- Node1&#45;&gt;Node30 -->
<g id="edge31" class="edge">
<title>Node1&#45;&gt;Node30</title>
<path fill="none" stroke="midnightblue" d="M858.47,-321.14C854.66,-262.43 836.78,-116.34 753,-39.5 743.85,-31.11 732.19,-25.55 720.2,-21.89"/>
<polygon fill="midnightblue" stroke="midnightblue" points="854.99,-321.57 859.04,-331.36 861.97,-321.18 854.99,-321.57"/>
</g>
<!-- Node8 -->
<g id="node8" class="node">
<title>Node8</title>
<g id="a_node8"><a xlink:href="classwmtk_1_1components_1_1internal_1_1_multi_mesh_from_tag.html#a96647e9413f2b7e13dd17f02cf29b12d" target="_top" xlink:title="Create a manifold mesh from the substructure.">
<polygon fill="none" stroke="black" points="353,-400 353,-441 517,-441 517,-400 353,-400"/>
<text text-anchor="start" x="361" y="-429" font-family="Helvetica,sans-Serif" font-size="10.00">wmtk::components::internal</text>
<text text-anchor="start" x="361" y="-418" font-family="Helvetica,sans-Serif" font-size="10.00">::MultiMeshFromTag::compute</text>
<text text-anchor="middle" x="435" y="-407" font-family="Helvetica,sans-Serif" font-size="10.00">_substructure_mesh</text>
</a>
</g>
</g>
<!-- Node7&#45;&gt;Node8 -->
<g id="edge7" class="edge">
<title>Node7&#45;&gt;Node8</title>
<path fill="none" stroke="midnightblue" d="M570.98,-624.2C567.5,-622.15 564.15,-619.92 561,-617.5 498.71,-569.59 459.04,-481.16 443.48,-441.14"/>
<polygon fill="midnightblue" stroke="midnightblue" points="569.43,-627.34 579.9,-628.94 572.72,-621.16 569.43,-627.34"/>
</g>
<!-- Node9 -->
<g id="node9" class="node">
<title>Node9</title>
<g id="a_node9"><a xlink:href="namespacewmtk_1_1components.html#a43e4bf82099343e153b21c9be07cd2d1" target="_top" xlink:title="Generate a multi&#45;mesh from a mesh with a tag that represents the substructure.">
<polygon fill="none" stroke="black" points="123.5,-449.5 123.5,-479.5 292.5,-479.5 292.5,-449.5 123.5,-449.5"/>
<text text-anchor="start" x="131.5" y="-467.5" font-family="Helvetica,sans-Serif" font-size="10.00">wmtk::components::multimesh</text>
<text text-anchor="middle" x="208" y="-456.5" font-family="Helvetica,sans-Serif" font-size="10.00">_from_tag</text>
</a>
</g>
</g>
<!-- Node8&#45;&gt;Node9 -->
<g id="edge8" class="edge">
<title>Node8&#45;&gt;Node9</title>
<path fill="none" stroke="midnightblue" d="M342.71,-438.35C323.89,-442.03 304.24,-445.88 285.98,-449.45"/>
<polygon fill="midnightblue" stroke="midnightblue" points="343.63,-441.74 352.77,-436.39 342.28,-434.87 343.63,-441.74"/>
</g>
<!-- Node11 -->
<g id="node11" class="node">
<title>Node11</title>
<g id="a_node11"><a xlink:href="test__component__multimesh__from__tag_8cpp.html#a18cd3d411cfadc472201c20662d62869" target="_top" xlink:title=" ">
<polygon fill="none" stroke="black" points="172.5,-411 172.5,-430 243.5,-430 243.5,-411 172.5,-411"/>
<text text-anchor="middle" x="208" y="-418" font-family="Helvetica,sans-Serif" font-size="10.00">TEST_CASE</text>
</a>
</g>
</g>
<!-- Node8&#45;&gt;Node11 -->
<g id="edge10" class="edge">
<title>Node8&#45;&gt;Node11</title>
<path fill="none" stroke="midnightblue" d="M342.55,-420.5C307.72,-420.5 270.1,-420.5 243.69,-420.5"/>
<polygon fill="midnightblue" stroke="midnightblue" points="342.77,-424 352.77,-420.5 342.77,-417 342.77,-424"/>
</g>
<!-- Node12 -->
<g id="node12" class="node">
<title>Node12</title>
<g id="a_node12"><a xlink:href="namespacewmtk_1_1components.html#ad26e15d638e76cf767b43e34d5d68465" target="_top" xlink:title=" ">
<polygon fill="none" stroke="black" points="131,-361.5 131,-391.5 285,-391.5 285,-361.5 131,-361.5"/>
<text text-anchor="start" x="139" y="-379.5" font-family="Helvetica,sans-Serif" font-size="10.00">wmtk::components::triangle</text>
<text text-anchor="middle" x="208" y="-368.5" font-family="Helvetica,sans-Serif" font-size="10.00">_insertion</text>
</a>
</g>
</g>
<!-- Node8&#45;&gt;Node12 -->
<g id="edge11" class="edge">
<title>Node8&#45;&gt;Node12</title>
<path fill="none" stroke="midnightblue" d="M342.86,-402.68C323.73,-398.94 303.75,-395.03 285.23,-391.41"/>
<polygon fill="midnightblue" stroke="midnightblue" points="342.28,-406.13 352.77,-404.61 343.63,-399.26 342.28,-406.13"/>
</g>
<!-- Node10 -->
<g id="node10" class="node">
<title>Node10</title>
<g id="a_node10"><a xlink:href="test__component__multimesh__from__tag_8cpp.html#a2b0208caf4b963a36a43604c3e7cf34a" target="_top" xlink:title=" ">
<polygon fill="none" stroke="black" points="0,-455 0,-474 71,-474 71,-455 0,-455"/>
<text text-anchor="middle" x="35.5" y="-462" font-family="Helvetica,sans-Serif" font-size="10.00">TEST_CASE</text>
</a>
</g>
</g>
<!-- Node9&#45;&gt;Node10 -->
<g id="edge9" class="edge">
<title>Node9&#45;&gt;Node10</title>
<path fill="none" stroke="midnightblue" d="M112.93,-464.5C98.09,-464.5 83.6,-464.5 71.3,-464.5"/>
<polygon fill="midnightblue" stroke="midnightblue" points="113.25,-468 123.25,-464.5 113.25,-461 113.25,-468"/>
</g>
<!-- Node13&#45;&gt;Node8 -->
<g id="edge13" class="edge">
<title>Node13&#45;&gt;Node8</title>
<path fill="none" stroke="midnightblue" d="M564.51,-418.75C548.86,-418.96 532.69,-419.18 517.33,-419.39"/>
<polygon fill="midnightblue" stroke="midnightblue" points="564.75,-422.24 574.71,-418.61 564.66,-415.25 564.75,-422.24"/>
</g>
<!-- Node16 -->
<g id="node16" class="node">
<title>Node16</title>
<g id="a_node16"><a xlink:href="classwmtk_1_1function_1_1_per_simplex_autodiff_function.html#a2925164a2ef8ed1f86a9c07075972967" target="_top" xlink:title=" ">
<polygon fill="none" stroke="black" points="345,-199.5 345,-229.5 525,-229.5 525,-199.5 345,-199.5"/>
<text text-anchor="start" x="353" y="-217.5" font-family="Helvetica,sans-Serif" font-size="10.00">wmtk::function::PerSimplex</text>
<text text-anchor="middle" x="435" y="-206.5" font-family="Helvetica,sans-Serif" font-size="10.00">AutodiffFunction::get_coordinates</text>
</a>
</g>
</g>
<!-- Node15&#45;&gt;Node16 -->
<g id="edge16" class="edge">
<title>Node15&#45;&gt;Node16</title>
<path fill="none" stroke="midnightblue" d="M579.26,-214.5C561.79,-214.5 543.07,-214.5 525.13,-214.5"/>
<polygon fill="midnightblue" stroke="midnightblue" points="579.4,-218 589.4,-214.5 579.4,-211 579.4,-218"/>
</g>
<!-- Node17 -->
<g id="node17" class="node">
<title>Node17</title>
<g id="a_node17"><a xlink:href="classwmtk_1_1function_1_1_a_m_i_p_s.html#a36709a007132c33f85efe0b4abd16b93" target="_top" xlink:title=" ">
<polygon fill="none" stroke="black" points="371.5,-248.5 371.5,-278.5 498.5,-278.5 498.5,-248.5 371.5,-248.5"/>
<text text-anchor="start" x="379.5" y="-266.5" font-family="Helvetica,sans-Serif" font-size="10.00">wmtk::function::AMIPS</text>
<text text-anchor="middle" x="435" y="-255.5" font-family="Helvetica,sans-Serif" font-size="10.00">::get_raw_coordinates</text>
</a>
</g>
</g>
<!-- Node15&#45;&gt;Node17 -->
<g id="edge17" class="edge">
<title>Node15&#45;&gt;Node17</title>
<path fill="none" stroke="midnightblue" d="M579.43,-231.55C553.02,-237.44 523.77,-243.95 498.62,-249.55"/>
<polygon fill="midnightblue" stroke="midnightblue" points="580.4,-234.92 589.4,-229.33 578.87,-228.09 580.4,-234.92"/>
</g>
<!-- Node18 -->
<g id="node18" class="node">
<title>Node18</title>
<g id="a_node18"><a xlink:href="classwmtk_1_1operations_1_1_a_m_i_p_s_optimization_smoothing.html#a2c409cd3da46f4360119e142ef3c3682" target="_top" xlink:title="returns an empty vector in case of failure">
<polygon fill="none" stroke="black" points="107,-248.5 107,-278.5 309,-278.5 309,-248.5 107,-248.5"/>
<text text-anchor="start" x="115" y="-266.5" font-family="Helvetica,sans-Serif" font-size="10.00">wmtk::operations::AMIPSOptimization</text>
<text text-anchor="middle" x="208" y="-255.5" font-family="Helvetica,sans-Serif" font-size="10.00">Smoothing::execute</text>
</a>
</g>
</g>
<!-- Node17&#45;&gt;Node18 -->
<g id="edge18" class="edge">
<title>Node17&#45;&gt;Node18</title>
<path fill="none" stroke="midnightblue" d="M361.2,-263.5C344.64,-263.5 326.77,-263.5 309.3,-263.5"/>
<polygon fill="midnightblue" stroke="midnightblue" points="361.32,-267 371.32,-263.5 361.32,-260 361.32,-267"/>
</g>
<!-- Node19&#45;&gt;Node3 -->
<g id="edge20" class="edge">
<title>Node19&#45;&gt;Node3</title>
<path fill="none" stroke="midnightblue" d="M571.56,-294.56C567.92,-296.41 564.38,-298.39 561,-300.5 541.53,-312.63 544.54,-325.47 525,-337.5 516.72,-342.6 507.44,-346.84 498.07,-350.35"/>
<polygon fill="midnightblue" stroke="midnightblue" points="573.25,-297.63 580.8,-290.19 570.26,-291.3 573.25,-297.63"/>
</g>
<!-- Node20 -->
<g id="node20" class="node">
<title>Node20</title>
<g id="a_node20"><a xlink:href="classwmtk_1_1invariants_1_1_min_incident_valence_invariant.html#a75aa725e6ae913b914734b6b4d084a7b" target="_top" xlink:title=" ">
<polygon fill="none" stroke="black" points="354,-297.5 354,-327.5 516,-327.5 516,-297.5 354,-297.5"/>
<text text-anchor="start" x="362" y="-315.5" font-family="Helvetica,sans-Serif" font-size="10.00">wmtk::invariants::MinIncident</text>
<text text-anchor="middle" x="435" y="-304.5" font-family="Helvetica,sans-Serif" font-size="10.00">ValenceInvariant::before</text>
</a>
</g>
</g>
<!-- Node19&#45;&gt;Node20 -->
<g id="edge21" class="edge">
<title>Node19&#45;&gt;Node20</title>
<path fill="none" stroke="midnightblue" d="M565.75,-287.14C548.25,-290.56 530.07,-294.11 513.05,-297.44"/>
<polygon fill="midnightblue" stroke="midnightblue" points="566.81,-290.5 575.95,-285.15 565.47,-283.63 566.81,-290.5"/>
</g>
<!-- Node22 -->
<g id="node22" class="node">
<title>Node22</title>
<g id="a_node22"><a xlink:href="classwmtk_1_1operations_1_1_attribute_transfer_strategy_base.html#a6883c6416f61c4ee06588a86c3b8d731" target="_top" xlink:title=" ">
<polygon fill="none" stroke="black" points="359.5,-90 359.5,-131 510.5,-131 510.5,-90 359.5,-90"/>
<text text-anchor="start" x="367.5" y="-119" font-family="Helvetica,sans-Serif" font-size="10.00">wmtk::operations::Attribute</text>
<text text-anchor="start" x="367.5" y="-108" font-family="Helvetica,sans-Serif" font-size="10.00">TransferStrategyBase::get</text>
<text text-anchor="middle" x="435" y="-97" font-family="Helvetica,sans-Serif" font-size="10.00">_parent_simplices</text>
</a>
</g>
</g>
<!-- Node21&#45;&gt;Node22 -->
<g id="edge23" class="edge">
<title>Node21&#45;&gt;Node22</title>
<path fill="none" stroke="midnightblue" d="M586.12,-148.03C562.05,-142.01 535.01,-135.25 510.58,-129.14"/>
<polygon fill="midnightblue" stroke="midnightblue" points="585.33,-151.44 595.88,-150.47 587.03,-144.65 585.33,-151.44"/>
</g>
<!-- Node25 -->
<g id="node25" class="node">
<title>Node25</title>
<g id="a_node25"><a xlink:href="namespacewmtk_1_1simplex.html#a9cd714440f235fdd4df798e86dc2d597" target="_top" xlink:title=" ">
<polygon fill="none" stroke="black" points="363.5,-150.5 363.5,-180.5 506.5,-180.5 506.5,-150.5 363.5,-150.5"/>
<text text-anchor="start" x="371.5" y="-168.5" font-family="Helvetica,sans-Serif" font-size="10.00">wmtk::simplex::neighbors</text>
<text text-anchor="middle" x="435" y="-157.5" font-family="Helvetica,sans-Serif" font-size="10.00">_single_dimension</text>
</a>
</g>
</g>
<!-- Node21&#45;&gt;Node25 -->
<g id="edge26" class="edge">
<title>Node21&#45;&gt;Node25</title>
<path fill="none" stroke="midnightblue" d="M575.31,-165.5C552.88,-165.5 528.7,-165.5 506.87,-165.5"/>
<polygon fill="midnightblue" stroke="midnightblue" points="575.48,-169 585.48,-165.5 575.48,-162 575.48,-169"/>
</g>
<!-- Node23 -->
<g id="node23" class="node">
<title>Node23</title>
<g id="a_node23"><a xlink:href="classwmtk_1_1operations_1_1_attribute_transfer_strategy_base.html#aa5e03221c4b6b49e1892ed464d84c0cd" target="_top" xlink:title=" ">
<polygon fill="none" stroke="black" points="132.5,-120 132.5,-161 283.5,-161 283.5,-120 132.5,-120"/>
<text text-anchor="start" x="140.5" y="-149" font-family="Helvetica,sans-Serif" font-size="10.00">wmtk::operations::Attribute</text>
<text text-anchor="start" x="140.5" y="-138" font-family="Helvetica,sans-Serif" font-size="10.00">TransferStrategyBase::get</text>
<text text-anchor="middle" x="208" y="-127" font-family="Helvetica,sans-Serif" font-size="10.00">_parent_simplices</text>
</a>
</g>
</g>
<!-- Node22&#45;&gt;Node23 -->
<g id="edge24" class="edge">
<title>Node22&#45;&gt;Node23</title>
<path fill="none" stroke="midnightblue" d="M349.29,-121.8C327.76,-124.67 304.78,-127.73 283.79,-130.53"/>
<polygon fill="midnightblue" stroke="midnightblue" points="349.94,-125.24 359.39,-120.45 349.02,-118.3 349.94,-125.24"/>
</g>
<!-- Node24 -->
<g id="node24" class="node">
<title>Node24</title>
<g id="a_node24"><a xlink:href="classwmtk_1_1operations_1_1_single_attribute_transfer_strategy.html#aa5bf8a5fdf8527d9843f3f578c646b41" target="_top" xlink:title=" ">
<polygon fill="none" stroke="black" points="138,-60 138,-101 278,-101 278,-60 138,-60"/>
<text text-anchor="start" x="146" y="-89" font-family="Helvetica,sans-Serif" font-size="10.00">wmtk::operations::Single</text>
<text text-anchor="start" x="146" y="-78" font-family="Helvetica,sans-Serif" font-size="10.00">AttributeTransferStrategy</text>
<text text-anchor="middle" x="208" y="-67" font-family="Helvetica,sans-Serif" font-size="10.00">::read_parent_values</text>
</a>
</g>
</g>
<!-- Node22&#45;&gt;Node24 -->
<g id="edge25" class="edge">
<title>Node22&#45;&gt;Node24</title>
<path fill="none" stroke="midnightblue" d="M349.42,-99.22C325.89,-96.09 300.61,-92.72 278.08,-89.71"/>
<polygon fill="midnightblue" stroke="midnightblue" points="349.02,-102.7 359.39,-100.55 349.94,-95.76 349.02,-102.7"/>
</g>
<!-- Node28 -->
<g id="node28" class="node">
<title>Node28</title>
<g id="a_node28"><a xlink:href="namespacewmtk_1_1components.html#a899899fc78b0d9575cf5996f9d10d012" target="_top" xlink:title=" ">
<polygon fill="none" stroke="black" points="359.5,-2.5 359.5,-32.5 510.5,-32.5 510.5,-2.5 359.5,-2.5"/>
<text text-anchor="start" x="367.5" y="-20.5" font-family="Helvetica,sans-Serif" font-size="10.00">wmtk::components::regular</text>
<text text-anchor="middle" x="435" y="-9.5" font-family="Helvetica,sans-Serif" font-size="10.00">_space</text>
</a>
</g>
</g>
<!-- Node27&#45;&gt;Node28 -->
<g id="edge29" class="edge">
<title>Node27&#45;&gt;Node28</title>
<path fill="none" stroke="midnightblue" d="M575.81,-47.37C553.05,-42.51 528.44,-37.25 506.3,-32.52"/>
<polygon fill="midnightblue" stroke="midnightblue" points="575.28,-50.83 585.79,-49.5 576.74,-43.99 575.28,-50.83"/>
</g>
<!-- Node29 -->
<g id="node29" class="node">
<title>Node29</title>
<g id="a_node29"><a xlink:href="test__component__regular__space_8cpp.html#a5e69783b3ce0c074477e3081ab8cf658" target="_top" xlink:title=" ">
<polygon fill="none" stroke="black" points="399.5,-52 399.5,-71 470.5,-71 470.5,-52 399.5,-52"/>
<text text-anchor="middle" x="435" y="-59" font-family="Helvetica,sans-Serif" font-size="10.00">TEST_CASE</text>
</a>
</g>
</g>
<!-- Node27&#45;&gt;Node29 -->
<g id="edge30" class="edge">
<title>Node27&#45;&gt;Node29</title>
<path fill="none" stroke="midnightblue" d="M561.49,-63.21C529.22,-62.77 495.14,-62.31 470.65,-61.97"/>
<polygon fill="midnightblue" stroke="midnightblue" points="561.84,-66.72 571.89,-63.35 561.93,-59.72 561.84,-66.72"/>
</g>
</g>
</svg>
        <g id="navigator" transform="translate(0 0)" fill="#404254">
                <rect fill="#f2f5e9" fill-opacity="0.5" stroke="#606060" stroke-width=".5" x="0" y="0" width="60" height="60"/>
                <use id="zoomplus" xlink:href="#zoomPlus" x="17" y="9" onmousedown="handleZoom(evt,'in')"/>
                <use id="zoomminus" xlink:href="#zoomMin" x="42" y="9" onmousedown="handleZoom(evt,'out')"/>
                <use id="reset" xlink:href="#resetDef" x="30" y="36" onmousedown="handleReset()"/>
                <g id="arrowUp" xlink:href="#dirArrow" transform="translate(30 24)" onmousedown="handlePan(0,-1)">
                  <use xlink:href="#rim" fill="#404040">
                        <set attributeName="fill" to="#808080" begin="arrowUp.mouseover" end="arrowUp.mouseout"/>
                  </use>
                  <path fill="none" stroke="white" stroke-width="1.5" d="M0,-3.0v7 M-2.5,-0.5L0,-3.0L2.5,-0.5"/>
                </g>
                <g id="arrowRight" xlink:href="#dirArrow" transform="rotate(90) translate(36 -43)" onmousedown="handlePan(1,0)">
                  <use xlink:href="#rim" fill="#404040">
                        <set attributeName="fill" to="#808080" begin="arrowRight.mouseover" end="arrowRight.mouseout"/>
                  </use>
                  <path fill="none" stroke="white" stroke-width="1.5" d="M0,-3.0v7 M-2.5,-0.5L0,-3.0L2.5,-0.5"/>
                </g>
                <g id="arrowDown" xlink:href="#dirArrow" transform="rotate(180) translate(-30 -48)" onmousedown="handlePan(0,1)">
                  <use xlink:href="#rim" fill="#404040">
                        <set attributeName="fill" to="#808080" begin="arrowDown.mouseover" end="arrowDown.mouseout"/>
                  </use>
                  <path fill="none" stroke="white" stroke-width="1.5" d="M0,-3.0v7 M-2.5,-0.5L0,-3.0L2.5,-0.5"/>
                </g>
                <g id="arrowLeft" xlink:href="#dirArrow" transform="rotate(270) translate(-36 17)" onmousedown="handlePan(-1,0)">
                  <use xlink:href="#rim" fill="#404040">
                        <set attributeName="fill" to="#808080" begin="arrowLeft.mouseover" end="arrowLeft.mouseout"/>
                  </use>
                  <path fill="none" stroke="white" stroke-width="1.5" d="M0,-3.0v7 M-2.5,-0.5L0,-3.0L2.5,-0.5"/>
                </g>
        </g>
        <svg viewBox="0 0 15 15" width="100%" height="30px" preserveAspectRatio="xMaxYMin meet">
         <g id="arrow_out" transform="scale(0.3 0.3)">
          <a xlink:href="namespacewmtk_1_1simplex_aedab544fbb3e4c417608c0b5371e94d9_icgraph_org.svg" target="_base">
           <rect id="button" ry="5" rx="5" y="6" x="6" height="38" width="38"
                fill="#f2f5e9" fill-opacity="0.5" stroke="#606060" stroke-width="1.0"/>
           <path id="arrow"
             d="M 11.500037,31.436501 C 11.940474,20.09759 22.043105,11.32322 32.158766,21.979434 L 37.068811,17.246167 C 37.068811,17.246167 37.088388,32 37.088388,32 L 22.160133,31.978069 C 22.160133,31.978069 26.997745,27.140456 26.997745,27.140456 C 18.528582,18.264221 13.291696,25.230495 11.500037,31.436501 z"
             style="fill:#404040;"/>
          </a>
         </g>
        </svg>
</svg>
