<?xml version="1.0" encoding="UTF-8" standalone="no"?>
<!DOCTYPE svg PUBLIC "-//W3C//DTD SVG 1.1//EN"
 "http://www.w3.org/Graphics/SVG/1.1/DTD/svg11.dtd">
<!-- Generated by graphviz version 2.43.0 (0)
 -->
<!-- Title: wmtk::simplex::top_dimension_cofaces_tuples Pages: 1 -->
<svg width="1040pt" height="225pt"
 viewBox="0.00 0.00 1040.00 225.00" xmlns="http://www.w3.org/2000/svg" xmlns:xlink="http://www.w3.org/1999/xlink">
<g id="graph0" class="graph" transform="scale(1 1) rotate(0) translate(4 221)">
<title>wmtk::simplex::top_dimension_cofaces_tuples</title>
<!-- Node1 -->
<g id="node1" class="node">
<title>Node1</title>
<g id="a_node1"><a xlink:title=" ">
<polygon fill="#bfbfbf" stroke="black" points="0,-66.5 0,-96.5 151,-96.5 151,-66.5 0,-66.5"/>
<text text-anchor="start" x="8" y="-84.5" font-family="Helvetica,sans-Serif" font-size="10.00">wmtk::simplex::top</text>
<text text-anchor="middle" x="75.5" y="-73.5" font-family="Helvetica,sans-Serif" font-size="10.00">_dimension_cofaces_tuples</text>
</a>
</g>
</g>
<!-- Node2 -->
<g id="node2" class="node">
<title>Node2</title>
<g id="a_node2"><a xlink:href="classwmtk_1_1_edge_mesh.html#a534952cf2729f1509a380e3e9afb65b7" target="_top" xlink:title=" ">
<polygon fill="none" stroke="black" points="201,-137.5 201,-167.5 316,-167.5 316,-137.5 201,-137.5"/>
<text text-anchor="start" x="209" y="-155.5" font-family="Helvetica,sans-Serif" font-size="10.00">wmtk::EdgeMesh::is</text>
<text text-anchor="middle" x="258.5" y="-144.5" font-family="Helvetica,sans-Serif" font-size="10.00">_boundary_vertex</text>
</a>
</g>
</g>
<!-- Node1&#45;&gt;Node2 -->
<g id="edge1" class="edge">
<title>Node1&#45;&gt;Node2</title>
<path fill="none" stroke="midnightblue" d="M111.64,-96.69C133.26,-105.9 161.6,-117.72 187,-127.5 192.51,-129.62 198.29,-131.78 204.07,-133.89"/>
<polygon fill="midnightblue" stroke="midnightblue" points="203.15,-137.28 213.74,-137.39 205.53,-130.7 203.15,-137.28"/>
</g>
<!-- Node11 -->
<g id="node11" class="node">
<title>Node11</title>
<g id="a_node11"><a xlink:href="classwmtk_1_1simplex_1_1_simplex.html#ad2cc0340a0772b7d6f03ba7a781d1163" target="_top" xlink:title=" ">
<polygon fill="none" stroke="black" points="191,-88.5 191,-118.5 326,-118.5 326,-88.5 191,-88.5"/>
<text text-anchor="start" x="199" y="-106.5" font-family="Helvetica,sans-Serif" font-size="10.00">wmtk::simplex::Simplex</text>
<text text-anchor="middle" x="258.5" y="-95.5" font-family="Helvetica,sans-Serif" font-size="10.00">::primitive_type</text>
</a>
</g>
</g>
<!-- Node1&#45;&gt;Node11 -->
<g id="edge10" class="edge">
<title>Node1&#45;&gt;Node11</title>
<path fill="none" stroke="midnightblue" d="M151.16,-90.58C160.92,-91.76 170.93,-92.98 180.72,-94.17"/>
<polygon fill="midnightblue" stroke="midnightblue" points="180.48,-97.66 190.83,-95.4 181.32,-90.72 180.48,-97.66"/>
</g>
<!-- Node12 -->
<g id="node12" class="node">
<title>Node12</title>
<g id="a_node12"><a xlink:href="classwmtk_1_1_mesh.html#a33805489402321155d4a1f7023faaf3a" target="_top" xlink:title=" ">
<polygon fill="none" stroke="black" points="187,-50 187,-69 330,-69 330,-50 187,-50"/>
<text text-anchor="middle" x="258.5" y="-57" font-family="Helvetica,sans-Serif" font-size="10.00">wmtk::Mesh::switch_edge</text>
</a>
</g>
</g>
<!-- Node1&#45;&gt;Node12 -->
<g id="edge11" class="edge">
<title>Node1&#45;&gt;Node12</title>
<path fill="none" stroke="midnightblue" d="M151.16,-72.42C159.63,-71.4 168.29,-70.34 176.84,-69.3"/>
<polygon fill="midnightblue" stroke="midnightblue" points="177.29,-72.78 186.79,-68.09 176.44,-65.83 177.29,-72.78"/>
</g>
<!-- Node14 -->
<g id="node14" class="node">
<title>Node14</title>
<g id="a_node14"><a xlink:href="classwmtk_1_1simplex_1_1_simplex.html#a3650fd31ff1864285502dba66db3c73c" target="_top" xlink:title=" ">
<polygon fill="none" stroke="black" points="191,-0.5 191,-30.5 326,-30.5 326,-0.5 191,-0.5"/>
<text text-anchor="start" x="199" y="-18.5" font-family="Helvetica,sans-Serif" font-size="10.00">wmtk::simplex::Simplex</text>
<text text-anchor="middle" x="258.5" y="-7.5" font-family="Helvetica,sans-Serif" font-size="10.00">::tuple</text>
</a>
</g>
</g>
<!-- Node1&#45;&gt;Node14 -->
<g id="edge13" class="edge">
<title>Node1&#45;&gt;Node14</title>
<path fill="none" stroke="midnightblue" d="M116.6,-66.46C137.55,-58.64 163.63,-48.98 187,-40.5 192.85,-38.38 198.98,-36.18 205.08,-34"/>
<polygon fill="midnightblue" stroke="midnightblue" points="206.35,-37.26 214.59,-30.6 204,-30.66 206.35,-37.26"/>
</g>
<!-- Node3 -->
<g id="node3" class="node">
<title>Node3</title>
<g id="a_node3"><a xlink:href="classwmtk_1_1attribute_1_1_accessor.html#a3383f6fb2e0708b23af38a9e53445b19" target="_top" xlink:title=" ">
<polygon fill="none" stroke="black" points="369,-159.5 369,-189.5 511,-189.5 511,-159.5 369,-159.5"/>
<text text-anchor="start" x="377" y="-177.5" font-family="Helvetica,sans-Serif" font-size="10.00">wmtk::attribute::Accessor</text>
<text text-anchor="middle" x="440" y="-166.5" font-family="Helvetica,sans-Serif" font-size="10.00">::const_vector_attribute</text>
</a>
</g>
</g>
<!-- Node2&#45;&gt;Node3 -->
<g id="edge2" class="edge">
<title>Node2&#45;&gt;Node3</title>
<path fill="none" stroke="midnightblue" d="M316.29,-159.46C329.68,-161.1 344.21,-162.88 358.43,-164.62"/>
<polygon fill="midnightblue" stroke="midnightblue" points="358.35,-168.14 368.7,-165.88 359.2,-161.19 358.35,-168.14"/>
</g>
<!-- Node4 -->
<g id="node4" class="node">
<title>Node4</title>
<g id="a_node4"><a xlink:href="classwmtk_1_1_mesh.html#abbb1c54cfd6ec17f4730317ee5fab78d" target="_top" xlink:title=" ">
<polygon fill="none" stroke="black" points="366,-121 366,-140 514,-140 514,-121 366,-121"/>
<text text-anchor="middle" x="440" y="-128" font-family="Helvetica,sans-Serif" font-size="10.00">wmtk::Mesh::is_valid_slow</text>
</a>
</g>
</g>
<!-- Node2&#45;&gt;Node4 -->
<g id="edge3" class="edge">
<title>Node2&#45;&gt;Node4</title>
<path fill="none" stroke="midnightblue" d="M316.29,-145.54C328.82,-144 342.33,-142.35 355.66,-140.71"/>
<polygon fill="midnightblue" stroke="midnightblue" points="356.3,-144.16 365.8,-139.47 355.44,-137.21 356.3,-144.16"/>
</g>
<!-- Node5 -->
<g id="node5" class="node">
<title>Node5</title>
<g id="a_node5"><a xlink:href="classwmtk_1_1_mesh.html#adf199d6a3ce6badd8bfa0e2ab3a1c1aa" target="_top" xlink:title=" ">
<polygon fill="none" stroke="black" points="550,-137.5 550,-167.5 680,-167.5 680,-137.5 550,-137.5"/>
<text text-anchor="start" x="558" y="-155.5" font-family="Helvetica,sans-Serif" font-size="10.00">wmtk::Mesh::get_const</text>
<text text-anchor="middle" x="615" y="-144.5" font-family="Helvetica,sans-Serif" font-size="10.00">_cell_hash_accessor</text>
</a>
</g>
</g>
<!-- Node4&#45;&gt;Node5 -->
<g id="edge4" class="edge">
<title>Node4&#45;&gt;Node5</title>
<path fill="none" stroke="midnightblue" d="M514.12,-139.8C522.67,-140.89 531.4,-142 539.96,-143.08"/>
<polygon fill="midnightblue" stroke="midnightblue" points="539.55,-146.56 549.91,-144.35 540.44,-139.62 539.55,-146.56"/>
</g>
<!-- Node10 -->
<g id="node10" class="node">
<title>Node10</title>
<g id="a_node10"><a xlink:href="classwmtk_1_1_mesh.html#a918c509096fc08691924c05c6143b9c3" target="_top" xlink:title="check validity of tuple including its hash">
<polygon fill="none" stroke="black" points="555,-99 555,-118 675,-118 675,-99 555,-99"/>
<text text-anchor="middle" x="615" y="-106" font-family="Helvetica,sans-Serif" font-size="10.00">wmtk::Mesh::is_valid</text>
</a>
</g>
</g>
<!-- Node4&#45;&gt;Node10 -->
<g id="edge9" class="edge">
<title>Node4&#45;&gt;Node10</title>
<path fill="none" stroke="midnightblue" d="M514.12,-121.2C524.28,-119.91 534.7,-118.58 544.8,-117.3"/>
<polygon fill="midnightblue" stroke="midnightblue" points="545.28,-120.77 554.76,-116.03 544.4,-113.82 545.28,-120.77"/>
</g>
<!-- Node6 -->
<g id="node6" class="node">
<title>Node6</title>
<g id="a_node6"><a xlink:href="classwmtk_1_1_mesh.html#a956cb71441391c99d736ec69c7467b61" target="_top" xlink:title=" ">
<polygon fill="none" stroke="black" points="716,-137.5 716,-167.5 829,-167.5 829,-137.5 716,-137.5"/>
<text text-anchor="start" x="724" y="-155.5" font-family="Helvetica,sans-Serif" font-size="10.00">wmtk::Mesh::create</text>
<text text-anchor="middle" x="772.5" y="-144.5" font-family="Helvetica,sans-Serif" font-size="10.00">_const_accessor</text>
</a>
</g>
</g>
<!-- Node5&#45;&gt;Node6 -->
<g id="edge5" class="edge">
<title>Node5&#45;&gt;Node6</title>
<path fill="none" stroke="midnightblue" d="M680.15,-152.5C688.59,-152.5 697.26,-152.5 705.73,-152.5"/>
<polygon fill="midnightblue" stroke="midnightblue" points="705.94,-156 715.94,-152.5 705.94,-149 705.94,-156"/>
</g>
<!-- Node7 -->
<g id="node7" class="node">
<title>Node7</title>
<g id="a_node7"><a xlink:href="classwmtk_1_1attribute_1_1_mesh_attribute_handle.html#ac326961f01b9ba4fec395827f15a7ef2" target="_top" xlink:title=" ">
<polygon fill="none" stroke="black" points="865,-186.5 865,-216.5 1032,-216.5 1032,-186.5 865,-186.5"/>
<text text-anchor="start" x="873" y="-204.5" font-family="Helvetica,sans-Serif" font-size="10.00">wmtk::attribute::MeshAttribute</text>
<text text-anchor="middle" x="948.5" y="-193.5" font-family="Helvetica,sans-Serif" font-size="10.00">Handle::as</text>
</a>
</g>
</g>
<!-- Node6&#45;&gt;Node7 -->
<g id="edge6" class="edge">
<title>Node6&#45;&gt;Node7</title>
<path fill="none" stroke="midnightblue" d="M827.13,-167.6C845.24,-172.7 865.62,-178.44 884.4,-183.73"/>
<polygon fill="midnightblue" stroke="midnightblue" points="883.48,-187.11 894.05,-186.45 885.37,-180.37 883.48,-187.11"/>
</g>
<!-- Node8 -->
<g id="node8" class="node">
<title>Node8</title>
<g id="a_node8"><a xlink:href="classwmtk_1_1attribute_1_1_mesh_attribute_handle.html#a2b86caeb22b007b85b138ebc6b0ed837" target="_top" xlink:title=" ">
<polygon fill="none" stroke="black" points="865,-137.5 865,-167.5 1032,-167.5 1032,-137.5 865,-137.5"/>
<text text-anchor="start" x="873" y="-155.5" font-family="Helvetica,sans-Serif" font-size="10.00">wmtk::attribute::MeshAttribute</text>
<text text-anchor="middle" x="948.5" y="-144.5" font-family="Helvetica,sans-Serif" font-size="10.00">Handle::holds</text>
</a>
</g>
</g>
<!-- Node6&#45;&gt;Node8 -->
<g id="edge7" class="edge">
<title>Node6&#45;&gt;Node8</title>
<path fill="none" stroke="midnightblue" d="M829.03,-152.5C837.25,-152.5 845.91,-152.5 854.64,-152.5"/>
<polygon fill="midnightblue" stroke="midnightblue" points="854.91,-156 864.91,-152.5 854.91,-149 854.91,-156"/>
</g>
<!-- Node9 -->
<g id="node9" class="node">
<title>Node9</title>
<g id="a_node9"><a xlink:href="classwmtk_1_1attribute_1_1_mesh_attribute_handle.html#a620620d54776b2c5f4f9cebad465cfa7" target="_top" xlink:title=" ">
<polygon fill="none" stroke="black" points="865,-88.5 865,-118.5 1032,-118.5 1032,-88.5 865,-88.5"/>
<text text-anchor="start" x="873" y="-106.5" font-family="Helvetica,sans-Serif" font-size="10.00">wmtk::attribute::MeshAttribute</text>
<text text-anchor="middle" x="948.5" y="-95.5" font-family="Helvetica,sans-Serif" font-size="10.00">Handle::mesh</text>
</a>
</g>
</g>
<!-- Node6&#45;&gt;Node9 -->
<g id="edge8" class="edge">
<title>Node6&#45;&gt;Node9</title>
<path fill="none" stroke="midnightblue" d="M827.13,-137.4C845.24,-132.3 865.62,-126.56 884.4,-121.27"/>
<polygon fill="midnightblue" stroke="midnightblue" points="885.37,-124.63 894.05,-118.55 883.48,-117.89 885.37,-124.63"/>
</g>
<!-- Node13 -->
<g id="node13" class="node">
<title>Node13</title>
<g id="a_node13"><a xlink:href="classwmtk_1_1_mesh.html#a965a8a24158c4aa8580c57ba09f885f7" target="_top" xlink:title="switch the orientation of the Tuple of the given dimension">
<polygon fill="none" stroke="black" points="383,-44.5 383,-74.5 497,-74.5 497,-44.5 383,-44.5"/>
<text text-anchor="start" x="391" y="-62.5" font-family="Helvetica,sans-Serif" font-size="10.00">wmtk::Mesh::switch</text>
<text text-anchor="middle" x="440" y="-51.5" font-family="Helvetica,sans-Serif" font-size="10.00">_tuple</text>
</a>
</g>
</g>
<!-- Node12&#45;&gt;Node13 -->
<g id="edge12" class="edge">
<title>Node12&#45;&gt;Node13</title>
<path fill="none" stroke="midnightblue" d="M330.19,-59.5C344.1,-59.5 358.66,-59.5 372.43,-59.5"/>
<polygon fill="midnightblue" stroke="midnightblue" points="372.79,-63 382.79,-59.5 372.79,-56 372.79,-63"/>
</g>
</g>
</svg>
