<?xml version="1.0" encoding="UTF-8" standalone="no"?>
<!DOCTYPE svg PUBLIC "-//W3C//DTD SVG 1.1//EN"
 "http://www.w3.org/Graphics/SVG/1.1/DTD/svg11.dtd">
<!-- Generated by graphviz version 2.43.0 (0)
 -->
<!-- Title: wmtk::components::multimesh::axis_aligned_fusion Pages: 1 -->
<svg width="1430pt" height="975pt"
 viewBox="0.00 0.00 1430.00 975.00" xmlns="http://www.w3.org/2000/svg" xmlns:xlink="http://www.w3.org/1999/xlink">
<g id="graph0" class="graph" transform="scale(1 1) rotate(0) translate(4 971)">
<title>wmtk::components::multimesh::axis_aligned_fusion</title>
<!-- Node1 -->
<g id="node1" class="node">
<title>Node1</title>
<g id="a_node1"><a xlink:title=" ">
<polygon fill="#bfbfbf" stroke="black" points="0,-675 0,-705 169,-705 169,-675 0,-675"/>
<text text-anchor="start" x="8" y="-693" font-family="Helvetica,sans-Serif" font-size="10.00">wmtk::components::multimesh</text>
<text text-anchor="middle" x="84.5" y="-682" font-family="Helvetica,sans-Serif" font-size="10.00">::axis_aligned_fusion</text>
</a>
</g>
</g>
<!-- Node2 -->
<g id="node2" class="node">
<title>Node2</title>
<g id="a_node2"><a xlink:href="namespacewmtk.html#a415d7a83177f8770f317416478c57cae" target="_top" xlink:title=" ">
<polygon fill="none" stroke="black" points="253,-947.5 253,-966.5 321,-966.5 321,-947.5 253,-947.5"/>
<text text-anchor="middle" x="287" y="-954.5" font-family="Helvetica,sans-Serif" font-size="10.00">wmtk::abs</text>
</a>
</g>
</g>
<!-- Node1&#45;&gt;Node2 -->
<g id="edge1" class="edge">
<title>Node1&#45;&gt;Node2</title>
<path fill="none" stroke="midnightblue" d="M88.11,-705.06C96.45,-748.55 126.71,-875.2 205,-938 215.68,-946.57 229.57,-951.4 242.81,-954.08"/>
<polygon fill="midnightblue" stroke="midnightblue" points="242.32,-957.55 252.76,-955.74 243.47,-950.64 242.32,-957.55"/>
</g>
<!-- Node3 -->
<g id="node3" class="node">
<title>Node3</title>
<g id="a_node3"><a xlink:href="namespacewmtk.html#a2f35ead9c86e0fd722118c11a8cbcf08" target="_top" xlink:title=" ">
<polygon fill="none" stroke="black" points="251.5,-909.5 251.5,-928.5 322.5,-928.5 322.5,-909.5 251.5,-909.5"/>
<text text-anchor="middle" x="287" y="-916.5" font-family="Helvetica,sans-Serif" font-size="10.00">wmtk::cmp</text>
</a>
</g>
</g>
<!-- Node1&#45;&gt;Node3 -->
<g id="edge2" class="edge">
<title>Node1&#45;&gt;Node3</title>
<path fill="none" stroke="midnightblue" d="M90.02,-705.24C102.08,-743.25 138.73,-842.98 205,-895 215.47,-903.22 228.69,-908.63 241.4,-912.18"/>
<polygon fill="midnightblue" stroke="midnightblue" points="240.88,-915.66 251.43,-914.66 242.56,-908.86 240.88,-915.66"/>
</g>
<!-- Node4 -->
<g id="node4" class="node">
<title>Node4</title>
<g id="a_node4"><a xlink:href="classwmtk_1_1_mesh.html#a6d2a546c8f661bf6386cf845a1693d2f" target="_top" xlink:title="Generate a vector of Tuples from global vertex/edge/triangle/tetrahedron index.">
<polygon fill="none" stroke="black" points="432,-918.5 432,-937.5 548,-937.5 548,-918.5 432,-918.5"/>
<text text-anchor="middle" x="490" y="-925.5" font-family="Helvetica,sans-Serif" font-size="10.00">wmtk::Mesh::get_all</text>
</a>
</g>
</g>
<!-- Node1&#45;&gt;Node4 -->
<g id="edge3" class="edge">
<title>Node1&#45;&gt;Node4</title>
<path fill="none" stroke="midnightblue" d="M91.51,-705.23C105.73,-739.17 144.8,-821.2 205,-862 266.94,-903.98 296.26,-882.48 369,-900 385.03,-903.86 388.96,-905.18 405,-909 414.93,-911.36 425.53,-913.82 435.75,-916.14"/>
<polygon fill="midnightblue" stroke="midnightblue" points="435.27,-919.62 445.79,-918.42 436.81,-912.8 435.27,-919.62"/>
</g>
<!-- Node5 -->
<g id="node5" class="node">
<title>Node5</title>
<g id="a_node5"><a xlink:href="classwmtk_1_1utils_1_1_eigen_matrix_writer.html#abad266697117582fd962efd4129a4389" target="_top" xlink:title=" ">
<polygon fill="none" stroke="black" points="219,-724 219,-754 355,-754 355,-724 219,-724"/>
<text text-anchor="start" x="227" y="-742" font-family="Helvetica,sans-Serif" font-size="10.00">wmtk::utils::EigenMatrix</text>
<text text-anchor="middle" x="287" y="-731" font-family="Helvetica,sans-Serif" font-size="10.00">Writer::get_FV_matrix</text>
</a>
</g>
</g>
<!-- Node1&#45;&gt;Node5 -->
<g id="edge4" class="edge">
<title>Node1&#45;&gt;Node5</title>
<path fill="none" stroke="midnightblue" d="M147.02,-705.03C168.38,-710.26 192.52,-716.15 214.61,-721.55"/>
<polygon fill="midnightblue" stroke="midnightblue" points="214.05,-725.02 224.6,-723.99 215.71,-718.22 214.05,-725.02"/>
</g>
<!-- Node7 -->
<g id="node7" class="node">
<title>Node7</title>
<g id="a_node7"><a xlink:href="classwmtk_1_1utils_1_1_eigen_matrix_writer.html#a3907d601b0f4f64c662e4c32da9ca52c" target="_top" xlink:title=" ">
<polygon fill="none" stroke="black" points="212,-675 212,-705 362,-705 362,-675 212,-675"/>
<text text-anchor="start" x="220" y="-693" font-family="Helvetica,sans-Serif" font-size="10.00">wmtk::utils::EigenMatrix</text>
<text text-anchor="middle" x="287" y="-682" font-family="Helvetica,sans-Serif" font-size="10.00">Writer::get_position_matrix</text>
</a>
</g>
</g>
<!-- Node1&#45;&gt;Node7 -->
<g id="edge6" class="edge">
<title>Node1&#45;&gt;Node7</title>
<path fill="none" stroke="midnightblue" d="M169.08,-690C179.83,-690 190.84,-690 201.6,-690"/>
<polygon fill="midnightblue" stroke="midnightblue" points="201.82,-693.5 211.82,-690 201.82,-686.5 201.82,-693.5"/>
</g>
<!-- Node9 -->
<g id="node9" class="node">
<title>Node9</title>
<g id="a_node9"><a xlink:href="classwmtk_1_1utils_1_1_eigen_matrix_writer.html#a7d76c607fec79828f387677795e990ab" target="_top" xlink:title=" ">
<polygon fill="none" stroke="black" points="219,-773 219,-803 355,-803 355,-773 219,-773"/>
<text text-anchor="start" x="227" y="-791" font-family="Helvetica,sans-Serif" font-size="10.00">wmtk::utils::EigenMatrix</text>
<text text-anchor="middle" x="287" y="-780" font-family="Helvetica,sans-Serif" font-size="10.00">Writer::get_TV_matrix</text>
</a>
</g>
</g>
<!-- Node1&#45;&gt;Node9 -->
<g id="edge8" class="edge">
<title>Node1&#45;&gt;Node9</title>
<path fill="none" stroke="midnightblue" d="M106.14,-705.16C129.23,-721.55 168.26,-747.54 205,-764 209.37,-765.96 213.94,-767.81 218.6,-769.54"/>
<polygon fill="midnightblue" stroke="midnightblue" points="217.63,-772.91 228.22,-772.95 219.96,-766.31 217.63,-772.91"/>
</g>
<!-- Node10 -->
<g id="node10" class="node">
<title>Node10</title>
<g id="a_node10"><a xlink:href="classwmtk_1_1_tri_mesh.html#a813ae302287fb113bae39b8ec0ee3937" target="_top" xlink:title=" ">
<polygon fill="none" stroke="black" points="422,-587.5 422,-606.5 558,-606.5 558,-587.5 422,-587.5"/>
<text text-anchor="middle" x="490" y="-594.5" font-family="Helvetica,sans-Serif" font-size="10.00">wmtk::TriMesh::initialize</text>
</a>
</g>
</g>
<!-- Node1&#45;&gt;Node10 -->
<g id="edge10" class="edge">
<title>Node1&#45;&gt;Node10</title>
<path fill="none" stroke="midnightblue" d="M103.96,-674.77C126.32,-657.32 165.86,-629.51 205,-617 272.51,-595.42 353.49,-591.74 411.68,-592.68"/>
<polygon fill="midnightblue" stroke="midnightblue" points="411.83,-596.18 421.9,-592.9 411.98,-589.19 411.83,-596.18"/>
</g>
<!-- Node25 -->
<g id="node25" class="node">
<title>Node25</title>
<g id="a_node25"><a xlink:href="classwmtk_1_1_tet_mesh.html#ab8b4b3182fb3778fa8da52ea4fa156b6" target="_top" xlink:title=" ">
<polygon fill="none" stroke="black" points="420.5,-546.5 420.5,-565.5 559.5,-565.5 559.5,-546.5 420.5,-546.5"/>
<text text-anchor="middle" x="490" y="-553.5" font-family="Helvetica,sans-Serif" font-size="10.00">wmtk::TetMesh::initialize</text>
</a>
</g>
</g>
<!-- Node1&#45;&gt;Node25 -->
<g id="edge26" class="edge">
<title>Node1&#45;&gt;Node25</title>
<path fill="none" stroke="midnightblue" d="M97.98,-674.86C117.92,-651.88 159.38,-608.76 205,-589 270.21,-560.76 351.29,-553.79 410.11,-553.12"/>
<polygon fill="midnightblue" stroke="midnightblue" points="410.47,-556.62 420.46,-553.07 410.44,-549.62 410.47,-556.62"/>
</g>
<!-- Node26 -->
<g id="node26" class="node">
<title>Node26</title>
<g id="a_node26"><a xlink:href="namespacewmtk.html#a6a35f11c12436093d26fdd8be6fecc06" target="_top" xlink:title="Retrieves the current logger.">
<polygon fill="none" stroke="black" points="246.5,-86.5 246.5,-105.5 327.5,-105.5 327.5,-86.5 246.5,-86.5"/>
<text text-anchor="middle" x="287" y="-93.5" font-family="Helvetica,sans-Serif" font-size="10.00">wmtk::logger</text>
</a>
</g>
</g>
<!-- Node1&#45;&gt;Node26 -->
<g id="edge32" class="edge">
<title>Node1&#45;&gt;Node26</title>
<path fill="none" stroke="midnightblue" d="M87.63,-674.99C96.37,-615.79 132.56,-393.46 205,-225 223.25,-182.56 254.31,-137.98 272.2,-113.93"/>
<polygon fill="midnightblue" stroke="midnightblue" points="275.13,-115.86 278.36,-105.77 269.54,-111.65 275.13,-115.86"/>
</g>
<!-- Node28 -->
<g id="node28" class="node">
<title>Node28</title>
<g id="a_node28"><a xlink:href="namespacewmtk_1_1multimesh.html#ae9d6749c097baf5c55d25e598ecec6e1" target="_top" xlink:title=" ">
<polygon fill="none" stroke="black" points="205,-626 205,-656 369,-656 369,-626 205,-626"/>
<text text-anchor="start" x="213" y="-644" font-family="Helvetica,sans-Serif" font-size="10.00">wmtk::multimesh::same</text>
<text text-anchor="middle" x="287" y="-633" font-family="Helvetica,sans-Serif" font-size="10.00">_simplex_dimension_bijection</text>
</a>
</g>
</g>
<!-- Node1&#45;&gt;Node28 -->
<g id="edge34" class="edge">
<title>Node1&#45;&gt;Node28</title>
<path fill="none" stroke="midnightblue" d="M147.02,-674.97C168.38,-669.74 192.52,-663.85 214.61,-658.45"/>
<polygon fill="midnightblue" stroke="midnightblue" points="215.71,-661.78 224.6,-656.01 214.05,-654.98 215.71,-661.78"/>
</g>
<!-- Node32 -->
<g id="node32" class="node">
<title>Node32</title>
<g id="a_node32"><a xlink:href="classwmtk_1_1_mesh.html#a933f681cf24a63b155c9462280385200" target="_top" xlink:title=" ">
<polygon fill="none" stroke="black" points="1078,-365 1078,-395 1199,-395 1199,-365 1078,-365"/>
<text text-anchor="start" x="1086" y="-383" font-family="Helvetica,sans-Serif" font-size="10.00">wmtk::Mesh::top_cell</text>
<text text-anchor="middle" x="1138.5" y="-372" font-family="Helvetica,sans-Serif" font-size="10.00">_dimension</text>
</a>
</g>
</g>
<!-- Node1&#45;&gt;Node32 -->
<g id="edge61" class="edge">
<title>Node1&#45;&gt;Node32</title>
<path fill="none" stroke="midnightblue" d="M95.81,-674.57C114.81,-647.03 157.76,-588.74 205,-551 283.6,-488.21 310.46,-479.39 405,-445 636.23,-360.88 934.47,-366.58 1067.76,-374.53"/>
<polygon fill="midnightblue" stroke="midnightblue" points="1067.64,-378.03 1077.84,-375.16 1068.07,-371.05 1067.64,-378.03"/>
</g>
<!-- Node34 -->
<g id="node34" class="node">
<title>Node34</title>
<g id="a_node34"><a xlink:href="classwmtk_1_1_mesh.html#a32203cf93aa0cff5c2e5c1fac502ec27" target="_top" xlink:title=" ">
<polygon fill="none" stroke="black" points="225,-234.5 225,-253.5 349,-253.5 349,-234.5 225,-234.5"/>
<text text-anchor="middle" x="287" y="-241.5" font-family="Helvetica,sans-Serif" font-size="10.00">wmtk::Mesh::serialize</text>
</a>
</g>
</g>
<!-- Node1&#45;&gt;Node34 -->
<g id="edge44" class="edge">
<title>Node1&#45;&gt;Node34</title>
<path fill="none" stroke="midnightblue" d="M90.57,-674.75C105.79,-629.58 153.21,-492.93 205,-385 226.87,-339.44 257.76,-288.65 274.36,-262.22"/>
<polygon fill="midnightblue" stroke="midnightblue" points="277.4,-263.97 279.79,-253.64 271.49,-260.22 277.4,-263.97"/>
</g>
<!-- Node45 -->
<g id="node45" class="node">
<title>Node45</title>
<g id="a_node45"><a xlink:href="namespacewmtk_1_1mesh__utils.html#ad92eb4095d516f6a20e25587f9effe80" target="_top" xlink:title=" ">
<polygon fill="none" stroke="black" points="224.5,-822 224.5,-852 349.5,-852 349.5,-822 224.5,-822"/>
<text text-anchor="start" x="232.5" y="-840" font-family="Helvetica,sans-Serif" font-size="10.00">wmtk::mesh_utils::set</text>
<text text-anchor="middle" x="287" y="-829" font-family="Helvetica,sans-Serif" font-size="10.00">_matrix_attribute</text>
</a>
</g>
</g>
<!-- Node1&#45;&gt;Node45 -->
<g id="edge57" class="edge">
<title>Node1&#45;&gt;Node45</title>
<path fill="none" stroke="midnightblue" d="M96.18,-705.29C115.11,-731.28 157.11,-784.03 205,-813 208.2,-814.94 211.57,-816.72 215.03,-818.37"/>
<polygon fill="midnightblue" stroke="midnightblue" points="213.84,-821.67 224.41,-822.43 216.62,-815.25 213.84,-821.67"/>
</g>
<!-- Node6 -->
<g id="node6" class="node">
<title>Node6</title>
<g id="a_node6"><a xlink:href="classwmtk_1_1utils_1_1_eigen_matrix_writer.html#ab6ea4733784a08f80e81b23769f5fb5c" target="_top" xlink:title=" ">
<polygon fill="none" stroke="black" points="417.5,-771 417.5,-801 562.5,-801 562.5,-771 417.5,-771"/>
<text text-anchor="start" x="425.5" y="-789" font-family="Helvetica,sans-Serif" font-size="10.00">wmtk::utils::EigenMatrix</text>
<text text-anchor="middle" x="490" y="-778" font-family="Helvetica,sans-Serif" font-size="10.00">Writer::get_int64_t_matrix</text>
</a>
</g>
</g>
<!-- Node5&#45;&gt;Node6 -->
<g id="edge5" class="edge">
<title>Node5&#45;&gt;Node6</title>
<path fill="none" stroke="midnightblue" d="M352.15,-754C372.09,-758.66 394.25,-763.84 414.82,-768.65"/>
<polygon fill="midnightblue" stroke="midnightblue" points="414.24,-772.11 424.77,-770.98 415.83,-765.3 414.24,-772.11"/>
</g>
<!-- Node8 -->
<g id="node8" class="node">
<title>Node8</title>
<g id="a_node8"><a xlink:href="classwmtk_1_1utils_1_1_eigen_matrix_writer.html#ae83d204878455162293807bb06421c6f" target="_top" xlink:title=" ">
<polygon fill="none" stroke="black" points="418,-722 418,-752 562,-752 562,-722 418,-722"/>
<text text-anchor="start" x="426" y="-740" font-family="Helvetica,sans-Serif" font-size="10.00">wmtk::utils::EigenMatrix</text>
<text text-anchor="middle" x="490" y="-729" font-family="Helvetica,sans-Serif" font-size="10.00">Writer::get_double_matrix</text>
</a>
</g>
</g>
<!-- Node7&#45;&gt;Node8 -->
<g id="edge7" class="edge">
<title>Node7&#45;&gt;Node8</title>
<path fill="none" stroke="midnightblue" d="M352.15,-705C372.09,-709.66 394.25,-714.84 414.82,-719.65"/>
<polygon fill="midnightblue" stroke="midnightblue" points="414.24,-723.11 424.77,-721.98 415.83,-716.3 414.24,-723.11"/>
</g>
<!-- Node9&#45;&gt;Node6 -->
<g id="edge9" class="edge">
<title>Node9&#45;&gt;Node6</title>
<path fill="none" stroke="midnightblue" d="M355.21,-787.33C371.9,-787.17 389.98,-786.99 407.29,-786.81"/>
<polygon fill="midnightblue" stroke="midnightblue" points="407.41,-790.31 417.37,-786.71 407.34,-783.31 407.41,-790.31"/>
</g>
<!-- Node11 -->
<g id="node11" class="node">
<title>Node11</title>
<g id="a_node11"><a xlink:href="classwmtk_1_1_mesh.html#a3e8ff83c4a5526a40d18bb9883c6c6c9" target="_top" xlink:title="read in the m_capacities return the upper bound for the number of entities of the given dimension">
<polygon fill="none" stroke="black" points="863,-742.5 863,-761.5 987,-761.5 987,-742.5 863,-742.5"/>
<text text-anchor="middle" x="925" y="-749.5" font-family="Helvetica,sans-Serif" font-size="10.00">wmtk::Mesh::capacity</text>
</a>
</g>
</g>
<!-- Node10&#45;&gt;Node11 -->
<g id="edge11" class="edge">
<title>Node10&#45;&gt;Node11</title>
<path fill="none" stroke="midnightblue" d="M555.14,-606.63C562.53,-609.91 569.41,-614.26 575,-620 621.65,-667.86 558.39,-724.79 611,-766 694.15,-831.14 831.25,-789.4 892.61,-765.45"/>
<polygon fill="midnightblue" stroke="midnightblue" points="894.15,-768.6 902.13,-761.63 891.55,-762.1 894.15,-768.6"/>
</g>
<!-- Node13 -->
<g id="node13" class="node">
<title>Node13</title>
<g id="a_node13"><a xlink:href="classwmtk_1_1_mesh.html#ae0e8f71e9e17a90be9423117efcc4c81" target="_top" xlink:title=" ">
<polygon fill="none" stroke="black" points="646.5,-584 646.5,-614 768.5,-614 768.5,-584 646.5,-584"/>
<text text-anchor="start" x="654.5" y="-602" font-family="Helvetica,sans-Serif" font-size="10.00">wmtk::Mesh::get_flag</text>
<text text-anchor="middle" x="707.5" y="-591" font-family="Helvetica,sans-Serif" font-size="10.00">_accessor</text>
</a>
</g>
</g>
<!-- Node10&#45;&gt;Node13 -->
<g id="edge13" class="edge">
<title>Node10&#45;&gt;Node13</title>
<path fill="none" stroke="midnightblue" d="M558,-597.62C582.87,-597.85 611.14,-598.11 636.28,-598.35"/>
<polygon fill="midnightblue" stroke="midnightblue" points="636.45,-601.85 646.48,-598.44 636.52,-594.85 636.45,-601.85"/>
</g>
<!-- Node16 -->
<g id="node16" class="node">
<title>Node16</title>
<g id="a_node16"><a xlink:href="classwmtk_1_1attribute_1_1_accessor.html#a41f40a73a13789707c117bda177dfc83" target="_top" xlink:title=" ">
<polygon fill="none" stroke="black" points="636.5,-496 636.5,-526 778.5,-526 778.5,-496 636.5,-496"/>
<text text-anchor="start" x="644.5" y="-514" font-family="Helvetica,sans-Serif" font-size="10.00">wmtk::attribute::Accessor</text>
<text text-anchor="middle" x="707.5" y="-503" font-family="Helvetica,sans-Serif" font-size="10.00">::index_access</text>
</a>
</g>
</g>
<!-- Node10&#45;&gt;Node16 -->
<g id="edge17" class="edge">
<title>Node10&#45;&gt;Node16</title>
<path fill="none" stroke="midnightblue" d="M546.15,-587.37C556.17,-584.3 566.21,-580.28 575,-575 595.22,-562.86 590.78,-548.14 611,-536 615.99,-533 621.33,-530.36 626.85,-528.04"/>
<polygon fill="midnightblue" stroke="midnightblue" points="628.2,-531.27 636.28,-524.41 625.69,-524.74 628.2,-531.27"/>
</g>
<!-- Node18 -->
<g id="node18" class="node">
<title>Node18</title>
<g id="a_node18"><a xlink:href="classwmtk_1_1attribute_1_1_caching_accessor.html#a73f8d78b708406dcd6433398e3954e72" target="_top" xlink:title=" ">
<polygon fill="none" stroke="black" points="636,-447 636,-477 779,-477 779,-447 636,-447"/>
<text text-anchor="start" x="644" y="-465" font-family="Helvetica,sans-Serif" font-size="10.00">wmtk::attribute::Caching</text>
<text text-anchor="middle" x="707.5" y="-454" font-family="Helvetica,sans-Serif" font-size="10.00">Accessor::scalar_attribute</text>
</a>
</g>
</g>
<!-- Node10&#45;&gt;Node18 -->
<g id="edge19" class="edge">
<title>Node10&#45;&gt;Node18</title>
<path fill="none" stroke="midnightblue" d="M554.35,-587.37C561.87,-584.29 568.99,-580.26 575,-575 606.79,-547.16 579.21,-514.84 611,-487 615.74,-482.85 621.08,-479.38 626.77,-476.47"/>
<polygon fill="midnightblue" stroke="midnightblue" points="628.24,-479.65 635.93,-472.36 625.37,-473.26 628.24,-479.65"/>
</g>
<!-- Node19 -->
<g id="node19" class="node">
<title>Node19</title>
<g id="a_node19"><a xlink:href="classwmtk_1_1_mesh.html#a05eaf6f3eeb78949f3b95c359cc6df68" target="_top" xlink:title=" ">
<polygon fill="none" stroke="black" points="631.5,-545.5 631.5,-564.5 783.5,-564.5 783.5,-545.5 631.5,-545.5"/>
<text text-anchor="middle" x="707.5" y="-552.5" font-family="Helvetica,sans-Serif" font-size="10.00">wmtk::Mesh::set_capacities</text>
</a>
</g>
</g>
<!-- Node10&#45;&gt;Node19 -->
<g id="edge20" class="edge">
<title>Node10&#45;&gt;Node19</title>
<path fill="none" stroke="midnightblue" d="M539.9,-587.47C571.75,-581.26 613.49,-573.13 647.23,-566.55"/>
<polygon fill="midnightblue" stroke="midnightblue" points="648.27,-569.91 657.42,-564.57 646.94,-563.04 648.27,-569.91"/>
</g>
<!-- Node24 -->
<g id="node24" class="node">
<title>Node24</title>
<g id="a_node24"><a xlink:href="classwmtk_1_1attribute_1_1_caching_accessor.html#a6869b1252af8463481fa82925ce9ae0d" target="_top" xlink:title=" ">
<polygon fill="none" stroke="black" points="635.5,-633 635.5,-663 779.5,-663 779.5,-633 635.5,-633"/>
<text text-anchor="start" x="643.5" y="-651" font-family="Helvetica,sans-Serif" font-size="10.00">wmtk::attribute::Caching</text>
<text text-anchor="middle" x="707.5" y="-640" font-family="Helvetica,sans-Serif" font-size="10.00">Accessor::vector_attribute</text>
</a>
</g>
</g>
<!-- Node10&#45;&gt;Node24 -->
<g id="edge25" class="edge">
<title>Node10&#45;&gt;Node24</title>
<path fill="none" stroke="midnightblue" d="M531.28,-606.53C559.78,-613.28 598.81,-622.51 632.8,-630.56"/>
<polygon fill="midnightblue" stroke="midnightblue" points="632.16,-634 642.7,-632.9 633.78,-627.19 632.16,-634"/>
</g>
<!-- Node12 -->
<g id="node12" class="node">
<title>Node12</title>
<g id="a_node12"><a xlink:href="namespacewmtk.html#a5cf45c152e856196bb734c6f48919a24" target="_top" xlink:title="Get a unique integer id corresponding to each primitive type.">
<polygon fill="none" stroke="black" points="1080.5,-720 1080.5,-750 1196.5,-750 1196.5,-720 1080.5,-720"/>
<text text-anchor="start" x="1088.5" y="-738" font-family="Helvetica,sans-Serif" font-size="10.00">wmtk::get_primitive</text>
<text text-anchor="middle" x="1138.5" y="-727" font-family="Helvetica,sans-Serif" font-size="10.00">_type_id</text>
</a>
</g>
</g>
<!-- Node11&#45;&gt;Node12 -->
<g id="edge12" class="edge">
<title>Node11&#45;&gt;Node12</title>
<path fill="none" stroke="midnightblue" d="M987.17,-747.08C1013.25,-744.99 1043.74,-742.54 1070.43,-740.39"/>
<polygon fill="midnightblue" stroke="midnightblue" points="1070.76,-743.88 1080.45,-739.59 1070.2,-736.9 1070.76,-743.88"/>
</g>
<!-- Node14 -->
<g id="node14" class="node">
<title>Node14</title>
<g id="a_node14"><a xlink:href="classwmtk_1_1_mesh.html#a6dbab927a2ee85f77a87f075fd5c1d94" target="_top" xlink:title=" ">
<polygon fill="none" stroke="black" points="860,-649 860,-679 990,-679 990,-649 860,-649"/>
<text text-anchor="start" x="868" y="-667" font-family="Helvetica,sans-Serif" font-size="10.00">wmtk::Mesh::get_const</text>
<text text-anchor="middle" x="925" y="-656" font-family="Helvetica,sans-Serif" font-size="10.00">_flag_accessor</text>
</a>
</g>
</g>
<!-- Node13&#45;&gt;Node14 -->
<g id="edge14" class="edge">
<title>Node13&#45;&gt;Node14</title>
<path fill="none" stroke="midnightblue" d="M768.27,-614C780.15,-617.16 792.5,-620.58 804,-624 826.26,-630.62 850.61,-638.59 871.52,-645.68"/>
<polygon fill="midnightblue" stroke="midnightblue" points="870.58,-649.05 881.17,-648.96 872.84,-642.43 870.58,-649.05"/>
</g>
<!-- Node14&#45;&gt;Node12 -->
<g id="edge16" class="edge">
<title>Node14&#45;&gt;Node12</title>
<path fill="none" stroke="midnightblue" d="M978.12,-679.01C988.71,-682.2 999.74,-685.62 1010,-689 1035.93,-697.53 1064.55,-707.78 1088.09,-716.43"/>
<polygon fill="midnightblue" stroke="midnightblue" points="1086.91,-719.73 1097.51,-719.91 1089.34,-713.16 1086.91,-719.73"/>
</g>
<!-- Node15 -->
<g id="node15" class="node">
<title>Node15</title>
<g id="a_node15"><a xlink:href="classwmtk_1_1_mesh.html#a4a20dcdac339e7a4f6f8a6570114cbe6" target="_top" xlink:title=" ">
<polygon fill="none" stroke="black" points="1082,-649 1082,-679 1195,-679 1195,-649 1082,-649"/>
<text text-anchor="start" x="1090" y="-667" font-family="Helvetica,sans-Serif" font-size="10.00">wmtk::Mesh::create</text>
<text text-anchor="middle" x="1138.5" y="-656" font-family="Helvetica,sans-Serif" font-size="10.00">_const_accessor</text>
</a>
</g>
</g>
<!-- Node14&#45;&gt;Node15 -->
<g id="edge15" class="edge">
<title>Node14&#45;&gt;Node15</title>
<path fill="none" stroke="midnightblue" d="M990.03,-664C1015.9,-664 1045.73,-664 1071.77,-664"/>
<polygon fill="midnightblue" stroke="midnightblue" points="1071.92,-667.5 1081.92,-664 1071.92,-660.5 1071.92,-667.5"/>
</g>
<!-- Node17 -->
<g id="node17" class="node">
<title>Node17</title>
<g id="a_node17"><a xlink:href="classwmtk_1_1attribute_1_1_accessor.html#a9c7d323f50911892c8ea738f97d041d4" target="_top" xlink:title=" ">
<polygon fill="none" stroke="black" points="854,-493 854,-523 996,-523 996,-493 854,-493"/>
<text text-anchor="start" x="862" y="-511" font-family="Helvetica,sans-Serif" font-size="10.00">wmtk::attribute::Accessor</text>
<text text-anchor="middle" x="925" y="-500" font-family="Helvetica,sans-Serif" font-size="10.00">::caching_base_type</text>
</a>
</g>
</g>
<!-- Node16&#45;&gt;Node17 -->
<g id="edge18" class="edge">
<title>Node16&#45;&gt;Node17</title>
<path fill="none" stroke="midnightblue" d="M778.76,-510.02C799.55,-509.73 822.46,-509.41 843.81,-509.12"/>
<polygon fill="midnightblue" stroke="midnightblue" points="843.88,-512.62 853.83,-508.98 843.78,-505.62 843.88,-512.62"/>
</g>
<!-- Node20 -->
<g id="node20" class="node">
<title>Node20</title>
<g id="a_node20"><a xlink:href="classwmtk_1_1attribute_1_1_attribute_manager.html#a2dde70c10887ef5a2d5f00844e245b71" target="_top" xlink:title=" ">
<polygon fill="none" stroke="black" points="854.5,-542 854.5,-572 995.5,-572 995.5,-542 854.5,-542"/>
<text text-anchor="start" x="862.5" y="-560" font-family="Helvetica,sans-Serif" font-size="10.00">wmtk::attribute::Attribute</text>
<text text-anchor="middle" x="925" y="-549" font-family="Helvetica,sans-Serif" font-size="10.00">Manager::set_capacities</text>
</a>
</g>
</g>
<!-- Node19&#45;&gt;Node20 -->
<g id="edge21" class="edge">
<title>Node19&#45;&gt;Node20</title>
<path fill="none" stroke="midnightblue" d="M783.57,-555.7C803.12,-555.88 824.25,-556.07 844.05,-556.26"/>
<polygon fill="midnightblue" stroke="midnightblue" points="844.23,-559.76 854.26,-556.35 844.29,-552.76 844.23,-559.76"/>
</g>
<!-- Node21 -->
<g id="node21" class="node">
<title>Node21</title>
<g id="a_node21"><a xlink:href="classwmtk_1_1attribute_1_1_attribute_manager.html#a4fa415bb426f10d888dd765bf11f3163" target="_top" xlink:title=" ">
<polygon fill="none" stroke="black" points="1046,-542 1046,-572 1231,-572 1231,-542 1046,-542"/>
<text text-anchor="start" x="1054" y="-560" font-family="Helvetica,sans-Serif" font-size="10.00">wmtk::attribute::Attribute</text>
<text text-anchor="middle" x="1138.5" y="-549" font-family="Helvetica,sans-Serif" font-size="10.00">Manager::reserve_attributes_to_fit</text>
</a>
</g>
</g>
<!-- Node20&#45;&gt;Node21 -->
<g id="edge22" class="edge">
<title>Node20&#45;&gt;Node21</title>
<path fill="none" stroke="midnightblue" d="M995.55,-557C1008.31,-557 1021.87,-557 1035.35,-557"/>
<polygon fill="midnightblue" stroke="midnightblue" points="1035.63,-560.5 1045.63,-557 1035.63,-553.5 1035.63,-560.5"/>
</g>
<!-- Node22 -->
<g id="node22" class="node">
<title>Node22</title>
<g id="a_node22"><a xlink:href="classwmtk_1_1attribute_1_1_attribute_manager.html#ade4ad24f8fde18f38a4709bf24ccf549" target="_top" xlink:title=" ">
<polygon fill="none" stroke="black" points="1267,-566 1267,-596 1422,-596 1422,-566 1267,-566"/>
<text text-anchor="start" x="1275" y="-584" font-family="Helvetica,sans-Serif" font-size="10.00">wmtk::attribute::Attribute</text>
<text text-anchor="middle" x="1344.5" y="-573" font-family="Helvetica,sans-Serif" font-size="10.00">Manager::reserve_attributes</text>
</a>
</g>
</g>
<!-- Node21&#45;&gt;Node22 -->
<g id="edge23" class="edge">
<title>Node21&#45;&gt;Node22</title>
<path fill="none" stroke="midnightblue" d="M1231.06,-567.77C1239.66,-568.78 1248.36,-569.81 1256.92,-570.81"/>
<polygon fill="midnightblue" stroke="midnightblue" points="1256.54,-574.29 1266.88,-571.99 1257.36,-567.34 1256.54,-574.29"/>
</g>
<!-- Node23 -->
<g id="node23" class="node">
<title>Node23</title>
<g id="a_node23"><a xlink:href="classwmtk_1_1attribute_1_1_attribute_manager.html#a87216c73c02b436c7f965faa52553f56" target="_top" xlink:title=" ">
<polygon fill="none" stroke="black" points="1274,-517 1274,-547 1415,-547 1415,-517 1274,-517"/>
<text text-anchor="start" x="1282" y="-535" font-family="Helvetica,sans-Serif" font-size="10.00">wmtk::attribute::Attribute</text>
<text text-anchor="middle" x="1344.5" y="-524" font-family="Helvetica,sans-Serif" font-size="10.00">Manager::size</text>
</a>
</g>
</g>
<!-- Node21&#45;&gt;Node23 -->
<g id="edge24" class="edge">
<title>Node21&#45;&gt;Node23</title>
<path fill="none" stroke="midnightblue" d="M1231.06,-545.78C1241.97,-544.44 1253.05,-543.08 1263.78,-541.77"/>
<polygon fill="midnightblue" stroke="midnightblue" points="1264.45,-545.21 1273.95,-540.52 1263.6,-538.27 1264.45,-545.21"/>
</g>
<!-- Node25&#45;&gt;Node11 -->
<g id="edge27" class="edge">
<title>Node25&#45;&gt;Node11</title>
<path fill="none" stroke="midnightblue" d="M556.84,-565.5C563.59,-568.63 569.85,-572.7 575,-578 624.3,-628.7 556.98,-687.35 611,-733 646.19,-762.74 771.68,-761.46 852.67,-757.18"/>
<polygon fill="midnightblue" stroke="midnightblue" points="853.02,-760.66 862.81,-756.61 852.63,-753.67 853.02,-760.66"/>
</g>
<!-- Node25&#45;&gt;Node13 -->
<g id="edge28" class="edge">
<title>Node25&#45;&gt;Node13</title>
<path fill="none" stroke="midnightblue" d="M538.83,-565.54C567.47,-571.26 604.4,-578.63 636.31,-584.99"/>
<polygon fill="midnightblue" stroke="midnightblue" points="635.98,-588.5 646.47,-587.02 637.35,-581.63 635.98,-588.5"/>
</g>
<!-- Node25&#45;&gt;Node16 -->
<g id="edge29" class="edge">
<title>Node25&#45;&gt;Node16</title>
<path fill="none" stroke="midnightblue" d="M536.7,-546.46C562.68,-541.03 595.95,-534.08 626.15,-527.78"/>
<polygon fill="midnightblue" stroke="midnightblue" points="627.18,-531.14 636.25,-525.67 625.75,-524.29 627.18,-531.14"/>
</g>
<!-- Node25&#45;&gt;Node18 -->
<g id="edge30" class="edge">
<title>Node25&#45;&gt;Node18</title>
<path fill="none" stroke="midnightblue" d="M504.78,-546.44C526.47,-531.77 570.31,-503.68 611,-487 617.13,-484.49 623.58,-482.17 630.12,-480.03"/>
<polygon fill="midnightblue" stroke="midnightblue" points="631.23,-483.35 639.74,-477.04 629.15,-476.67 631.23,-483.35"/>
</g>
<!-- Node25&#45;&gt;Node19 -->
<g id="edge31" class="edge">
<title>Node25&#45;&gt;Node19</title>
<path fill="none" stroke="midnightblue" d="M559.78,-555.68C579.27,-555.59 600.73,-555.49 621.08,-555.4"/>
<polygon fill="midnightblue" stroke="midnightblue" points="621.3,-558.9 631.29,-555.35 621.27,-551.9 621.3,-558.9"/>
</g>
<!-- Node27 -->
<g id="node27" class="node">
<title>Node27</title>
<g id="a_node27"><a xlink:href="namespacewmtk.html#a3daa7951a5f8b78cf4600dc047fcc180" target="_top" xlink:title="Setup a logger object to be used by WildmeshToolkit.">
<polygon fill="none" stroke="black" points="439.5,-0.5 439.5,-19.5 540.5,-19.5 540.5,-0.5 439.5,-0.5"/>
<text text-anchor="middle" x="490" y="-7.5" font-family="Helvetica,sans-Serif" font-size="10.00">wmtk::set_logger</text>
</a>
</g>
</g>
<!-- Node26&#45;&gt;Node27 -->
<g id="edge33" class="edge">
<title>Node26&#45;&gt;Node27</title>
<path fill="none" stroke="midnightblue" d="M301.73,-86.32C322.91,-71.8 365.3,-44.46 405,-29 412.81,-25.96 421.23,-23.34 429.61,-21.1"/>
<polygon fill="midnightblue" stroke="midnightblue" points="430.56,-24.47 439.4,-18.65 428.85,-17.68 430.56,-24.47"/>
</g>
<!-- Node28&#45;&gt;Node11 -->
<g id="edge35" class="edge">
<title>Node28&#45;&gt;Node11</title>
<path fill="none" stroke="midnightblue" d="M350.83,-656.03C433.98,-676.03 570.66,-709.3 575,-713 605.91,-739.35 577.09,-774.64 611,-797 702.42,-857.28 841.39,-796.31 898.32,-766.44"/>
<polygon fill="midnightblue" stroke="midnightblue" points="900.19,-769.4 907.35,-761.59 896.88,-763.23 900.19,-769.4"/>
</g>
<!-- Node29 -->
<g id="node29" class="node">
<title>Node29</title>
<g id="a_node29"><a xlink:href="namespacewmtk_1_1multimesh.html#a7bd59ab748f0b54f3ab7dc9d625b04ec" target="_top" xlink:title=" ">
<polygon fill="none" stroke="black" points="405,-629 405,-659 575,-659 575,-629 405,-629"/>
<text text-anchor="start" x="413" y="-647" font-family="Helvetica,sans-Serif" font-size="10.00">wmtk::multimesh::same</text>
<text text-anchor="middle" x="490" y="-636" font-family="Helvetica,sans-Serif" font-size="10.00">_simplex_dimension_surjection</text>
</a>
</g>
</g>
<!-- Node28&#45;&gt;Node29 -->
<g id="edge36" class="edge">
<title>Node28&#45;&gt;Node29</title>
<path fill="none" stroke="midnightblue" d="M369.18,-642.21C377.63,-642.34 386.28,-642.47 394.87,-642.6"/>
<polygon fill="midnightblue" stroke="midnightblue" points="394.85,-646.1 404.9,-642.74 394.95,-639.1 394.85,-646.1"/>
</g>
<!-- Node31 -->
<g id="node31" class="node">
<title>Node31</title>
<g id="a_node31"><a xlink:href="classwmtk_1_1_mesh.html#abaf00438d0700358b160e310d69725c9" target="_top" xlink:title=" ">
<polygon fill="none" stroke="black" points="840,-389.5 840,-408.5 1010,-408.5 1010,-389.5 840,-389.5"/>
<text text-anchor="middle" x="925" y="-396.5" font-family="Helvetica,sans-Serif" font-size="10.00">wmtk::Mesh::top_simplex_type</text>
</a>
</g>
</g>
<!-- Node28&#45;&gt;Node31 -->
<g id="edge43" class="edge">
<title>Node28&#45;&gt;Node31</title>
<path fill="none" stroke="midnightblue" d="M302.4,-625.75C323.44,-604.06 364.5,-563.96 405,-537 489.56,-480.71 513.55,-466.66 611,-438 682.54,-416.96 766.53,-407.27 829.49,-402.81"/>
<polygon fill="midnightblue" stroke="midnightblue" points="830.06,-406.28 839.8,-402.11 829.59,-399.29 830.06,-406.28"/>
</g>
<!-- Node30 -->
<g id="node30" class="node">
<title>Node30</title>
<g id="a_node30"><a xlink:href="classwmtk_1_1multimesh_1_1_multi_mesh_manager.html#a365936d6390d1fe630967491af67a3db" target="_top" xlink:title=" ">
<polygon fill="none" stroke="black" points="611,-682.5 611,-723.5 804,-723.5 804,-682.5 611,-682.5"/>
<text text-anchor="start" x="619" y="-711.5" font-family="Helvetica,sans-Serif" font-size="10.00">wmtk::multimesh::MultiMesh</text>
<text text-anchor="start" x="619" y="-700.5" font-family="Helvetica,sans-Serif" font-size="10.00">Manager::same_simplex_dimension</text>
<text text-anchor="middle" x="707.5" y="-689.5" font-family="Helvetica,sans-Serif" font-size="10.00">_surjection</text>
</a>
</g>
</g>
<!-- Node29&#45;&gt;Node30 -->
<g id="edge37" class="edge">
<title>Node29&#45;&gt;Node30</title>
<path fill="none" stroke="midnightblue" d="M545.94,-659.04C568.94,-665.34 596.2,-672.8 621.67,-679.78"/>
<polygon fill="midnightblue" stroke="midnightblue" points="620.77,-683.16 631.34,-682.42 622.62,-676.41 620.77,-683.16"/>
</g>
<!-- Node30&#45;&gt;Node11 -->
<g id="edge38" class="edge">
<title>Node30&#45;&gt;Node11</title>
<path fill="none" stroke="midnightblue" d="M798.95,-723.57C824.03,-729.27 850.38,-735.26 872.39,-740.27"/>
<polygon fill="midnightblue" stroke="midnightblue" points="871.66,-743.69 882.18,-742.49 873.21,-736.86 871.66,-743.69"/>
</g>
<!-- Node30&#45;&gt;Node14 -->
<g id="edge39" class="edge">
<title>Node30&#45;&gt;Node14</title>
<path fill="none" stroke="midnightblue" d="M804.28,-685.67C819.53,-682.91 835.11,-680.09 849.76,-677.43"/>
<polygon fill="midnightblue" stroke="midnightblue" points="850.53,-680.85 859.75,-675.63 849.29,-673.96 850.53,-680.85"/>
</g>
<!-- Node30&#45;&gt;Node31 -->
<g id="edge40" class="edge">
<title>Node30&#45;&gt;Node31</title>
<path fill="none" stroke="midnightblue" d="M793.55,-682.34C797.36,-679.6 800.88,-676.5 804,-673 860.85,-609.13 800.22,-559.69 840,-484 855.05,-455.36 882.93,-430.08 902.43,-414.68"/>
<polygon fill="midnightblue" stroke="midnightblue" points="904.66,-417.38 910.46,-408.52 900.4,-411.83 904.66,-417.38"/>
</g>
<!-- Node33 -->
<g id="node33" class="node">
<title>Node33</title>
<g id="a_node33"><a xlink:href="classwmtk_1_1_mesh.html#a60165ceb4c2db2731df90e4ac100637d" target="_top" xlink:title="internal function that returns the tuple of requested type, and has the global index cid">
<polygon fill="none" stroke="black" points="850,-698.5 850,-717.5 1000,-717.5 1000,-698.5 850,-698.5"/>
<text text-anchor="middle" x="925" y="-705.5" font-family="Helvetica,sans-Serif" font-size="10.00">wmtk::Mesh::tuple_from_id</text>
</a>
</g>
</g>
<!-- Node30&#45;&gt;Node33 -->
<g id="edge42" class="edge">
<title>Node30&#45;&gt;Node33</title>
<path fill="none" stroke="midnightblue" d="M804.28,-705.22C816.1,-705.5 828.12,-705.78 839.75,-706.05"/>
<polygon fill="midnightblue" stroke="midnightblue" points="839.79,-709.55 849.87,-706.28 839.95,-702.55 839.79,-709.55"/>
</g>
<!-- Node31&#45;&gt;Node32 -->
<g id="edge41" class="edge">
<title>Node31&#45;&gt;Node32</title>
<path fill="none" stroke="midnightblue" d="M1010.2,-391.44C1029.25,-389.72 1049.27,-387.93 1067.66,-386.27"/>
<polygon fill="midnightblue" stroke="midnightblue" points="1068.04,-389.75 1077.68,-385.37 1067.41,-382.78 1068.04,-389.75"/>
</g>
<!-- Node34&#45;&gt;Node31 -->
<g id="edge54" class="edge">
<title>Node34&#45;&gt;Node31</title>
<path fill="none" stroke="midnightblue" d="M295.87,-253.64C313.14,-274.05 356.75,-321.41 405,-342 479.22,-373.67 701.26,-388.86 829.6,-395.17"/>
<polygon fill="midnightblue" stroke="midnightblue" points="829.66,-398.68 839.81,-395.67 829.99,-391.69 829.66,-398.68"/>
</g>
<!-- Node35 -->
<g id="node35" class="node">
<title>Node35</title>
<g id="a_node35"><a xlink:href="classwmtk_1_1multimesh_1_1_multi_mesh_manager.html#a812e0992812b2c48a889e10ae9e50758" target="_top" xlink:title=" ">
<polygon fill="none" stroke="black" points="410,-137 410,-167 570,-167 570,-137 410,-137"/>
<text text-anchor="start" x="418" y="-155" font-family="Helvetica,sans-Serif" font-size="10.00">wmtk::multimesh::MultiMesh</text>
<text text-anchor="middle" x="490" y="-144" font-family="Helvetica,sans-Serif" font-size="10.00">Manager::absolute_id</text>
</a>
</g>
</g>
<!-- Node34&#45;&gt;Node35 -->
<g id="edge45" class="edge">
<title>Node34&#45;&gt;Node35</title>
<path fill="none" stroke="midnightblue" d="M309.13,-234.33C341.65,-219.45 404.6,-190.63 446.72,-171.35"/>
<polygon fill="midnightblue" stroke="midnightblue" points="448.26,-174.5 455.9,-167.15 445.35,-168.13 448.26,-174.5"/>
</g>
<!-- Node37 -->
<g id="node37" class="node">
<title>Node37</title>
<g id="a_node37"><a xlink:href="classwmtk_1_1multimesh_1_1_multi_mesh_manager.html#ab29db13e4be68177d7ae3c188d7b275e" target="_top" xlink:title=" ">
<polygon fill="none" stroke="black" points="410,-39 410,-69 570,-69 570,-39 410,-39"/>
<text text-anchor="start" x="418" y="-57" font-family="Helvetica,sans-Serif" font-size="10.00">wmtk::multimesh::MultiMesh</text>
<text text-anchor="middle" x="490" y="-46" font-family="Helvetica,sans-Serif" font-size="10.00">Manager::relative_id</text>
</a>
</g>
</g>
<!-- Node34&#45;&gt;Node37 -->
<g id="edge48" class="edge">
<title>Node34&#45;&gt;Node37</title>
<path fill="none" stroke="midnightblue" d="M293.66,-234.28C312.58,-202.12 374.1,-99.95 405,-78 407.11,-76.5 409.31,-75.1 411.58,-73.78"/>
<polygon fill="midnightblue" stroke="midnightblue" points="413.36,-76.8 420.65,-69.12 410.16,-70.58 413.36,-76.8"/>
</g>
<!-- Node39 -->
<g id="node39" class="node">
<title>Node39</title>
<g id="a_node39"><a xlink:href="classwmtk_1_1attribute_1_1_attribute_manager.html#a2f9290f582622604dc0daba270c84f9b" target="_top" xlink:title=" ">
<polygon fill="none" stroke="black" points="419.5,-204 419.5,-234 560.5,-234 560.5,-204 419.5,-204"/>
<text text-anchor="start" x="427.5" y="-222" font-family="Helvetica,sans-Serif" font-size="10.00">wmtk::attribute::Attribute</text>
<text text-anchor="middle" x="490" y="-211" font-family="Helvetica,sans-Serif" font-size="10.00">Manager::serialize</text>
</a>
</g>
</g>
<!-- Node34&#45;&gt;Node39 -->
<g id="edge50" class="edge">
<title>Node34&#45;&gt;Node39</title>
<path fill="none" stroke="midnightblue" d="M349.13,-236.4C368.1,-234.04 389.29,-231.4 409.33,-228.91"/>
<polygon fill="midnightblue" stroke="midnightblue" points="409.88,-232.37 419.37,-227.66 409.01,-225.42 409.88,-232.37"/>
</g>
<!-- Node42 -->
<g id="node42" class="node">
<title>Node42</title>
<g id="a_node42"><a xlink:href="classwmtk_1_1multimesh_1_1_multi_mesh_manager.html#a9c0175530619088d9f52b38f1417cc1c" target="_top" xlink:title=" ">
<polygon fill="none" stroke="black" points="410,-88 410,-118 570,-118 570,-88 410,-88"/>
<text text-anchor="start" x="418" y="-106" font-family="Helvetica,sans-Serif" font-size="10.00">wmtk::multimesh::MultiMesh</text>
<text text-anchor="middle" x="490" y="-95" font-family="Helvetica,sans-Serif" font-size="10.00">Manager::serialize</text>
</a>
</g>
</g>
<!-- Node34&#45;&gt;Node42 -->
<g id="edge53" class="edge">
<title>Node34&#45;&gt;Node42</title>
<path fill="none" stroke="midnightblue" d="M294.99,-234.17C311.49,-211.71 355.24,-156.28 405,-127 407.88,-125.31 410.88,-123.73 413.96,-122.26"/>
<polygon fill="midnightblue" stroke="midnightblue" points="415.64,-125.34 423.42,-118.15 412.86,-118.92 415.64,-125.34"/>
</g>
<!-- Node43 -->
<g id="node43" class="node">
<title>Node43</title>
<g id="a_node43"><a xlink:href="classwmtk_1_1_mesh_writer.html#ac54560ef6ed79d5dfdb1a2c9dcb8687c" target="_top" xlink:title=" ">
<polygon fill="none" stroke="black" points="421.5,-302 421.5,-332 558.5,-332 558.5,-302 421.5,-302"/>
<text text-anchor="start" x="429.5" y="-320" font-family="Helvetica,sans-Serif" font-size="10.00">wmtk::MeshWriter::write</text>
<text text-anchor="middle" x="490" y="-309" font-family="Helvetica,sans-Serif" font-size="10.00">_absolute_id</text>
</a>
</g>
</g>
<!-- Node34&#45;&gt;Node43 -->
<g id="edge55" class="edge">
<title>Node34&#45;&gt;Node43</title>
<path fill="none" stroke="midnightblue" d="M308.84,-253.61C332.02,-264.09 370.71,-280.97 405,-293 410.82,-295.04 416.92,-297.04 423.05,-298.96"/>
<polygon fill="midnightblue" stroke="midnightblue" points="422.1,-302.33 432.68,-301.91 424.14,-295.64 422.1,-302.33"/>
</g>
<!-- Node44 -->
<g id="node44" class="node">
<title>Node44</title>
<g id="a_node44"><a xlink:href="classwmtk_1_1_mesh_writer.html#a0e4fd87b00f2cb95a14c19e5a3670bde" target="_top" xlink:title=" ">
<polygon fill="none" stroke="black" points="421.5,-253 421.5,-283 558.5,-283 558.5,-253 421.5,-253"/>
<text text-anchor="start" x="429.5" y="-271" font-family="Helvetica,sans-Serif" font-size="10.00">wmtk::MeshWriter::write</text>
<text text-anchor="middle" x="490" y="-260" font-family="Helvetica,sans-Serif" font-size="10.00">_top_simplex_type</text>
</a>
</g>
</g>
<!-- Node34&#45;&gt;Node44 -->
<g id="edge56" class="edge">
<title>Node34&#45;&gt;Node44</title>
<path fill="none" stroke="midnightblue" d="M349.13,-251.3C368.68,-253.63 390.59,-256.25 411.17,-258.71"/>
<polygon fill="midnightblue" stroke="midnightblue" points="410.81,-262.19 421.15,-259.9 411.64,-255.24 410.81,-262.19"/>
</g>
<!-- Node35&#45;&gt;Node35 -->
<g id="edge46" class="edge">
<title>Node35&#45;&gt;Node35</title>
<path fill="none" stroke="midnightblue" d="M454.8,-167.16C446.31,-176.56 458.04,-185.5 490,-185.5 509.47,-185.5 521.44,-182.18 525.89,-177.46"/>
<polygon fill="midnightblue" stroke="midnightblue" points="529.36,-176.9 525.2,-167.16 522.38,-177.37 529.36,-176.9"/>
</g>
<!-- Node36 -->
<g id="node36" class="node">
<title>Node36</title>
<g id="a_node36"><a xlink:href="classwmtk_1_1multimesh_1_1_multi_mesh_manager.html#a7d39339adb56b1798fe817d81bfcc67c" target="_top" xlink:title="Specifies whether this structure is the root of a multi&#45;mesh tree.">
<polygon fill="none" stroke="black" points="627.5,-137 627.5,-167 787.5,-167 787.5,-137 627.5,-137"/>
<text text-anchor="start" x="635.5" y="-155" font-family="Helvetica,sans-Serif" font-size="10.00">wmtk::multimesh::MultiMesh</text>
<text text-anchor="middle" x="707.5" y="-144" font-family="Helvetica,sans-Serif" font-size="10.00">Manager::is_root</text>
</a>
</g>
</g>
<!-- Node35&#45;&gt;Node36 -->
<g id="edge47" class="edge">
<title>Node35&#45;&gt;Node36</title>
<path fill="none" stroke="midnightblue" d="M570.02,-152C585.39,-152 601.61,-152 617.28,-152"/>
<polygon fill="midnightblue" stroke="midnightblue" points="617.49,-155.5 627.49,-152 617.49,-148.5 617.49,-155.5"/>
</g>
<!-- Node38 -->
<g id="node38" class="node">
<title>Node38</title>
<g id="a_node38"><a xlink:href="classwmtk_1_1multimesh_1_1_multi_mesh_manager.html#a4f99281b52dfca1c9baff535917d58a7" target="_top" xlink:title=" ">
<polygon fill="none" stroke="black" points="627.5,-39 627.5,-69 787.5,-69 787.5,-39 627.5,-39"/>
<text text-anchor="start" x="635.5" y="-57" font-family="Helvetica,sans-Serif" font-size="10.00">wmtk::multimesh::MultiMesh</text>
<text text-anchor="middle" x="707.5" y="-46" font-family="Helvetica,sans-Serif" font-size="10.00">Manager::is_child</text>
</a>
</g>
</g>
<!-- Node37&#45;&gt;Node38 -->
<g id="edge49" class="edge">
<title>Node37&#45;&gt;Node38</title>
<path fill="none" stroke="midnightblue" d="M570.02,-54C585.39,-54 601.61,-54 617.28,-54"/>
<polygon fill="midnightblue" stroke="midnightblue" points="617.49,-57.5 627.49,-54 617.49,-50.5 617.49,-57.5"/>
</g>
<!-- Node40 -->
<g id="node40" class="node">
<title>Node40</title>
<g id="a_node40"><a xlink:href="classwmtk_1_1_mesh_writer.html#a9775a31599c23785098b9be77bdbfb62" target="_top" xlink:title=" ">
<polygon fill="none" stroke="black" points="639,-244.5 639,-263.5 776,-263.5 776,-244.5 639,-244.5"/>
<text text-anchor="middle" x="707.5" y="-251.5" font-family="Helvetica,sans-Serif" font-size="10.00">wmtk::MeshWriter::write</text>
</a>
</g>
</g>
<!-- Node39&#45;&gt;Node40 -->
<g id="edge51" class="edge">
<title>Node39&#45;&gt;Node40</title>
<path fill="none" stroke="midnightblue" d="M560.67,-230.32C585.42,-234.33 613.25,-238.85 637.91,-242.86"/>
<polygon fill="midnightblue" stroke="midnightblue" points="637.47,-246.33 647.9,-244.48 638.59,-239.43 637.47,-246.33"/>
</g>
<!-- Node41 -->
<g id="node41" class="node">
<title>Node41</title>
<g id="a_node41"><a xlink:href="classwmtk_1_1_mesh_writer.html#adaf132d57772f8692155189c4c5789b9" target="_top" xlink:title=" ">
<polygon fill="none" stroke="black" points="639,-195 639,-225 776,-225 776,-195 639,-195"/>
<text text-anchor="start" x="647" y="-213" font-family="Helvetica,sans-Serif" font-size="10.00">wmtk::MeshWriter::write</text>
<text text-anchor="middle" x="707.5" y="-202" font-family="Helvetica,sans-Serif" font-size="10.00">_capacities</text>
</a>
</g>
</g>
<!-- Node39&#45;&gt;Node41 -->
<g id="edge52" class="edge">
<title>Node39&#45;&gt;Node41</title>
<path fill="none" stroke="midnightblue" d="M560.67,-216.09C582.42,-215.18 606.55,-214.17 628.82,-213.24"/>
<polygon fill="midnightblue" stroke="midnightblue" points="629.06,-216.74 638.91,-212.82 628.77,-209.74 629.06,-216.74"/>
</g>
<!-- Node45&#45;&gt;Node4 -->
<g id="edge60" class="edge">
<title>Node45&#45;&gt;Node4</title>
<path fill="none" stroke="midnightblue" d="M340.93,-852.17C350.71,-856.18 360.51,-861.09 369,-867 389.17,-881.05 383.94,-896.31 405,-909 410.38,-912.24 416.25,-914.93 422.32,-917.16"/>
<polygon fill="midnightblue" stroke="midnightblue" points="421.36,-920.53 431.96,-920.3 423.53,-913.88 421.36,-920.53"/>
</g>
<!-- Node46 -->
<g id="node46" class="node">
<title>Node46</title>
<g id="a_node46"><a xlink:href="classwmtk_1_1attribute_1_1_mesh_attribute_handle.html#a9c02e0fc8ac13ad9f16ce928e7a2c84c" target="_top" xlink:title=" ">
<polygon fill="none" stroke="black" points="406.5,-820 406.5,-850 573.5,-850 573.5,-820 406.5,-820"/>
<text text-anchor="start" x="414.5" y="-838" font-family="Helvetica,sans-Serif" font-size="10.00">wmtk::attribute::MeshAttribute</text>
<text text-anchor="middle" x="490" y="-827" font-family="Helvetica,sans-Serif" font-size="10.00">Handle::as</text>
</a>
</g>
</g>
<!-- Node45&#45;&gt;Node46 -->
<g id="edge58" class="edge">
<title>Node45&#45;&gt;Node46</title>
<path fill="none" stroke="midnightblue" d="M349.67,-836.39C364.35,-836.24 380.32,-836.08 396.05,-835.92"/>
<polygon fill="midnightblue" stroke="midnightblue" points="396.37,-839.42 406.34,-835.82 396.3,-832.42 396.37,-839.42"/>
</g>
<!-- Node47 -->
<g id="node47" class="node">
<title>Node47</title>
<g id="a_node47"><a xlink:href="classwmtk_1_1_mesh.html#aa2b952c0d3894043f513a86fbbd910ff" target="_top" xlink:title=" ">
<polygon fill="none" stroke="black" points="433.5,-869 433.5,-899 546.5,-899 546.5,-869 433.5,-869"/>
<text text-anchor="start" x="441.5" y="-887" font-family="Helvetica,sans-Serif" font-size="10.00">wmtk::Mesh::create</text>
<text text-anchor="middle" x="490" y="-876" font-family="Helvetica,sans-Serif" font-size="10.00">_accessor</text>
</a>
</g>
</g>
<!-- Node45&#45;&gt;Node47 -->
<g id="edge59" class="edge">
<title>Node45&#45;&gt;Node47</title>
<path fill="none" stroke="midnightblue" d="M349.67,-851.42C373,-856.88 399.62,-863.1 423.3,-868.64"/>
<polygon fill="midnightblue" stroke="midnightblue" points="422.72,-872.1 433.25,-870.96 424.31,-865.28 422.72,-872.1"/>
</g>
</g>
</svg>
