<?xml version="1.0" encoding="UTF-8" standalone="no"?>
<!DOCTYPE svg PUBLIC "-//W3C//DTD SVG 1.1//EN"
 "http://www.w3.org/Graphics/SVG/1.1/DTD/svg11.dtd">
<!-- Generated by graphviz version 2.43.0 (0)
 -->
<!-- Title: wmtk::simplex::link_single_dimension Pages: 1 -->
<svg width="1450pt" height="548pt"
 viewBox="0.00 0.00 1450.00 548.40" xmlns="http://www.w3.org/2000/svg" xmlns:xlink="http://www.w3.org/1999/xlink">
<g id="graph0" class="graph" transform="scale(1 1) rotate(0) translate(4 544.4)">
<title>wmtk::simplex::link_single_dimension</title>
<!-- Node1 -->
<g id="Node000001" class="node">
<title>Node1</title>
<g id="a_Node000001"><a xlink:title=" ">
<polygon fill="#999999" stroke="#666666" points="113,-200 0,-200 0,-170 113,-170 113,-200"/>
<text text-anchor="start" x="8" y="-188" font-family="Helvetica,sans-Serif" font-size="10.00">wmtk::simplex::link</text>
<text text-anchor="middle" x="56.5" y="-177" font-family="Helvetica,sans-Serif" font-size="10.00">_single_dimension</text>
</a>
</g>
</g>
<!-- Node1&#45;&gt;Node1 -->
<g id="edge1_Node000001_Node000001" class="edge">
<title>Node1&#45;&gt;Node1</title>
<g id="a_edge1_Node000001_Node000001"><a xlink:title=" ">
<path fill="none" stroke="#63b8ff" d="M28.38,-200.28C22.12,-209.41 31.5,-218 56.5,-218 71.34,-218 80.68,-214.97 84.51,-210.6"/>
<polygon fill="#63b8ff" stroke="#63b8ff" points="88.01,-210.32 84.62,-200.28 81.01,-210.23 88.01,-210.32"/>
</a>
</g>
</g>
<!-- Node2 -->
<g id="Node000002" class="node">
<title>Node2</title>
<g id="a_Node000002"><a xlink:href="namespacewmtk_1_1simplex.html#ab9fe71cf495e974936cc882fe96a596e" target="_top" xlink:title=" ">
<polygon fill="white" stroke="#666666" points="284,-424 149,-424 149,-394 284,-394 284,-424"/>
<text text-anchor="start" x="157" y="-412" font-family="Helvetica,sans-Serif" font-size="10.00">wmtk::simplex::link</text>
<text text-anchor="middle" x="216.5" y="-401" font-family="Helvetica,sans-Serif" font-size="10.00">_single_dimension_slow</text>
</a>
</g>
</g>
<!-- Node1&#45;&gt;Node2 -->
<g id="edge2_Node000001_Node000002" class="edge">
<title>Node1&#45;&gt;Node2</title>
<g id="a_edge2_Node000001_Node000002"><a xlink:title=" ">
<path fill="none" stroke="#63b8ff" d="M68.11,-200.05C95.09,-238.29 166.44,-339.45 198.95,-385.53"/>
<polygon fill="#63b8ff" stroke="#63b8ff" points="196.1,-387.57 204.73,-393.73 201.82,-383.54 196.1,-387.57"/>
</a>
</g>
</g>
<!-- Node20 -->
<g id="Node000020" class="node">
<title>Node20</title>
<g id="a_Node000020"><a xlink:href="classwmtk_1_1_mesh.html#abaf00438d0700358b160e310d69725c9" target="_top" xlink:title=" ">
<polygon fill="white" stroke="#666666" points="717,-36.5 547,-36.5 547,-17.5 717,-17.5 717,-36.5"/>
<text text-anchor="middle" x="632" y="-24.5" font-family="Helvetica,sans-Serif" font-size="10.00">wmtk::Mesh::top_simplex_type</text>
</a>
</g>
</g>
<!-- Node1&#45;&gt;Node20 -->
<g id="edge33_Node000001_Node000020" class="edge">
<title>Node1&#45;&gt;Node20</title>
<g id="a_edge33_Node000001_Node000020"><a xlink:title=" ">
<path fill="none" stroke="#63b8ff" d="M104.37,-169.92C190.15,-142.67 378.46,-84.49 540,-46 550.58,-43.48 561.89,-40.97 572.82,-38.64"/>
<polygon fill="#63b8ff" stroke="#63b8ff" points="573.65,-42.04 582.72,-36.55 572.21,-35.19 573.65,-42.04"/>
</a>
</g>
</g>
<!-- Node3 -->
<g id="Node000003" class="node">
<title>Node3</title>
<g id="a_Node000003"><a xlink:href="classwmtk_1_1simplex_1_1_simplex_collection.html#a1e7079b3b75f70dd28c524556cab76cf" target="_top" xlink:title="Add simplex to the collection.">
<polygon fill="white" stroke="#666666" points="1188,-380.5 980,-380.5 980,-361.5 1188,-361.5 1188,-380.5"/>
<text text-anchor="middle" x="1084" y="-368.5" font-family="Helvetica,sans-Serif" font-size="10.00">wmtk::simplex::SimplexCollection::add</text>
</a>
</g>
</g>
<!-- Node2&#45;&gt;Node3 -->
<g id="edge3_Node000002_Node000003" class="edge">
<title>Node2&#45;&gt;Node3</title>
<g id="a_edge3_Node000002_Node000003"><a xlink:title=" ">
<path fill="none" stroke="#63b8ff" d="M225.45,-424.13C240.08,-450.15 274.05,-502.52 320,-523 394.7,-556.29 422.86,-533.17 504,-523 714.5,-496.63 957.45,-415.67 1047.25,-383.94"/>
<polygon fill="#63b8ff" stroke="#63b8ff" points="1048.69,-387.15 1056.94,-380.5 1046.35,-380.55 1048.69,-387.15"/>
</a>
</g>
</g>
<!-- Node4 -->
<g id="Node000004" class="node">
<title>Node4</title>
<g id="a_Node000004"><a xlink:href="namespacewmtk_1_1simplex.html#a2ed8f83fbda4dc05306bfe8d2ce7ab94" target="_top" xlink:title="The closed star contains the input simplex, all its top dimension cofaces, and their faces.">
<polygon fill="white" stroke="#666666" points="487.5,-246.5 336.5,-246.5 336.5,-227.5 487.5,-227.5 487.5,-246.5"/>
<text text-anchor="middle" x="412" y="-234.5" font-family="Helvetica,sans-Serif" font-size="10.00">wmtk::simplex::closed_star</text>
</a>
</g>
</g>
<!-- Node2&#45;&gt;Node4 -->
<g id="edge4_Node000002_Node000004" class="edge">
<title>Node2&#45;&gt;Node4</title>
<g id="a_edge4_Node000002_Node000004"><a xlink:title=" ">
<path fill="none" stroke="#63b8ff" d="M234.67,-393.74C270.96,-361.48 355.17,-286.63 392.55,-253.4"/>
<polygon fill="#63b8ff" stroke="#63b8ff" points="395.04,-255.87 400.19,-246.61 390.39,-250.64 395.04,-255.87"/>
</a>
</g>
</g>
<!-- Node5 -->
<g id="Node000005" class="node">
<title>Node5</title>
<g id="a_Node000005"><a xlink:href="namespacewmtk_1_1simplex.html#aee89641a0de7b5ddf8d15bf376f9d33b" target="_top" xlink:title="Returns all faces of a simplex.">
<polygon fill="white" stroke="#666666" points="693,-418.5 571,-418.5 571,-399.5 693,-399.5 693,-418.5"/>
<text text-anchor="middle" x="632" y="-406.5" font-family="Helvetica,sans-Serif" font-size="10.00">wmtk::simplex::faces</text>
</a>
</g>
</g>
<!-- Node2&#45;&gt;Node5 -->
<g id="edge29_Node000002_Node000005" class="edge">
<title>Node2&#45;&gt;Node5</title>
<g id="a_edge29_Node000002_Node000005"><a xlink:title=" ">
<path fill="none" stroke="#63b8ff" d="M284.4,-409C360.3,-409 483.56,-409 560.8,-409"/>
<polygon fill="#63b8ff" stroke="#63b8ff" points="560.92,-412.5 570.92,-409 560.92,-405.5 560.92,-412.5"/>
</a>
</g>
</g>
<!-- Node14 -->
<g id="Node000014" class="node">
<title>Node14</title>
<g id="a_Node000014"><a xlink:href="classwmtk_1_1simplex_1_1_simplex_collection.html#a3c5684abe23553010bb7f87840e9518d" target="_top" xlink:title="Return const reference to the simplex vector.">
<polygon fill="white" stroke="#666666" points="724,-85 540,-85 540,-55 724,-55 724,-85"/>
<text text-anchor="start" x="548" y="-73" font-family="Helvetica,sans-Serif" font-size="10.00">wmtk::simplex::SimplexCollection</text>
<text text-anchor="middle" x="632" y="-62" font-family="Helvetica,sans-Serif" font-size="10.00">::simplex_vector</text>
</a>
</g>
</g>
<!-- Node2&#45;&gt;Node14 -->
<g id="edge31_Node000002_Node000014" class="edge">
<title>Node2&#45;&gt;Node14</title>
<g id="a_edge31_Node000002_Node000014"><a xlink:title=" ">
<path fill="none" stroke="#63b8ff" d="M222.37,-393.92C234.18,-359.27 267.32,-272.85 320,-219 398.64,-138.61 435.87,-136.47 540,-94 545.11,-91.92 550.45,-89.97 555.87,-88.15"/>
<polygon fill="#63b8ff" stroke="#63b8ff" points="557.23,-91.39 565.7,-85.02 555.11,-84.72 557.23,-91.39"/>
</a>
</g>
</g>
<!-- Node15 -->
<g id="Node000015" class="node">
<title>Node15</title>
<g id="a_Node000015"><a xlink:href="classwmtk_1_1simplex_1_1_simplex_collection.html#ab318c99d54327383ff1b985bed043f3a" target="_top" xlink:title="Sort simplex vector and remove duplicates.">
<polygon fill="white" stroke="#666666" points="944,-305 760,-305 760,-275 944,-275 944,-305"/>
<text text-anchor="start" x="768" y="-293" font-family="Helvetica,sans-Serif" font-size="10.00">wmtk::simplex::SimplexCollection</text>
<text text-anchor="middle" x="852" y="-282" font-family="Helvetica,sans-Serif" font-size="10.00">::sort_and_clean</text>
</a>
</g>
</g>
<!-- Node2&#45;&gt;Node15 -->
<g id="edge32_Node000002_Node000015" class="edge">
<title>Node2&#45;&gt;Node15</title>
<g id="a_edge32_Node000002_Node000015"><a xlink:title=" ">
<path fill="none" stroke="#63b8ff" d="M284.17,-421.94C403.44,-443.76 647.95,-482.15 724,-446 781.52,-418.66 821.53,-351.11 839.8,-314.51"/>
<polygon fill="#63b8ff" stroke="#63b8ff" points="843.16,-315.6 844.37,-305.07 836.86,-312.55 843.16,-315.6"/>
</a>
</g>
</g>
<!-- Node23 -->
<g id="Node000023" class="node">
<title>Node23</title>
<g id="a_Node000023"><a xlink:href="classwmtk_1_1simplex_1_1_simplex_collection.html#a592a38f5119ed654001d88d032bcea9c" target="_top" xlink:title="Get intersection of two simplex collections.">
<polygon fill="white" stroke="#666666" points="504,-514 320,-514 320,-484 504,-484 504,-514"/>
<text text-anchor="start" x="328" y="-502" font-family="Helvetica,sans-Serif" font-size="10.00">wmtk::simplex::SimplexCollection</text>
<text text-anchor="middle" x="412" y="-491" font-family="Helvetica,sans-Serif" font-size="10.00">::get_intersection</text>
</a>
</g>
</g>
<!-- Node2&#45;&gt;Node23 -->
<g id="edge30_Node000002_Node000023" class="edge">
<title>Node2&#45;&gt;Node23</title>
<g id="a_edge30_Node000002_Node000023"><a xlink:title=" ">
<path fill="none" stroke="#63b8ff" d="M239.5,-424.1C259.73,-437.5 290.92,-456.92 320,-470 328.64,-473.89 337.96,-477.48 347.22,-480.73"/>
<polygon fill="#63b8ff" stroke="#63b8ff" points="346.23,-484.09 356.82,-483.97 348.47,-477.45 346.23,-484.09"/>
</a>
</g>
</g>
<!-- Node4&#45;&gt;Node3 -->
<g id="edge5_Node000004_Node000003" class="edge">
<title>Node4&#45;&gt;Node3</title>
<g id="a_edge5_Node000004_Node000003"><a xlink:title=" ">
<path fill="none" stroke="#63b8ff" d="M419.88,-246.83C436.97,-270.29 484.05,-329.3 540,-352 615.1,-382.47 834,-380.59 969.84,-376.07"/>
<polygon fill="#63b8ff" stroke="#63b8ff" points="970.01,-379.57 979.88,-375.73 969.77,-372.57 970.01,-379.57"/>
</a>
</g>
</g>
<!-- Node4&#45;&gt;Node5 -->
<g id="edge6_Node000004_Node000005" class="edge">
<title>Node4&#45;&gt;Node5</title>
<g id="a_edge6_Node000004_Node000005"><a xlink:title=" ">
<path fill="none" stroke="#63b8ff" d="M418.43,-246.71C433.78,-273.27 480.32,-347.61 540,-385 547.34,-389.6 555.55,-393.33 563.95,-396.34"/>
<polygon fill="#63b8ff" stroke="#63b8ff" points="562.88,-399.67 573.47,-399.45 565.05,-393.02 562.88,-399.67"/>
</a>
</g>
</g>
<!-- Node6 -->
<g id="Node000006" class="node">
<title>Node6</title>
<g id="a_Node000006"><a xlink:href="classwmtk_1_1_mesh.html#a8cc8686f0688613806f43720b6db49e7" target="_top" xlink:title="check validity of tuple including its hash">
<polygon fill="white" stroke="#666666" points="692,-122.5 572,-122.5 572,-103.5 692,-103.5 692,-122.5"/>
<text text-anchor="middle" x="632" y="-110.5" font-family="Helvetica,sans-Serif" font-size="10.00">wmtk::Mesh::is_valid</text>
</a>
</g>
</g>
<!-- Node4&#45;&gt;Node6 -->
<g id="edge8_Node000004_Node000006" class="edge">
<title>Node4&#45;&gt;Node6</title>
<g id="a_edge8_Node000004_Node000006"><a xlink:title=" ">
<path fill="none" stroke="#63b8ff" d="M431.94,-227.42C451.21,-217.18 481.37,-199.72 504,-180 522.79,-163.63 518.96,-150.36 540,-137 547.14,-132.47 555.11,-128.79 563.28,-125.8"/>
<polygon fill="#63b8ff" stroke="#63b8ff" points="564.55,-129.07 572.94,-122.6 562.34,-122.42 564.55,-129.07"/>
</a>
</g>
</g>
<!-- Node10 -->
<g id="Node000010" class="node">
<title>Node10</title>
<g id="a_Node000010"><a xlink:href="namespacewmtk.html#a441d6ad4f19569c7d4946e743da1a925" target="_top" xlink:title=" ">
<polygon fill="white" stroke="#666666" points="1145,-166 1023,-166 1023,-136 1145,-136 1145,-166"/>
<text text-anchor="start" x="1031" y="-154" font-family="Helvetica,sans-Serif" font-size="10.00">wmtk::log_and_throw</text>
<text text-anchor="middle" x="1084" y="-143" font-family="Helvetica,sans-Serif" font-size="10.00">_error</text>
</a>
</g>
</g>
<!-- Node4&#45;&gt;Node10 -->
<g id="edge13_Node000004_Node000010" class="edge">
<title>Node4&#45;&gt;Node10</title>
<g id="a_edge13_Node000004_Node000010"><a xlink:title=" ">
<path fill="none" stroke="#63b8ff" d="M426.24,-227.39C448.45,-211.89 495.19,-181.93 540,-170 704.74,-126.14 907.51,-134.74 1012.51,-143.59"/>
<polygon fill="#63b8ff" stroke="#63b8ff" points="1012.4,-147.09 1022.66,-144.47 1013.01,-140.12 1012.4,-147.09"/>
</a>
</g>
</g>
<!-- Node13 -->
<g id="Node000013" class="node">
<title>Node13</title>
<g id="a_Node000013"><a xlink:href="classwmtk_1_1simplex_1_1_simplex_collection.html#a1973c83eede96b64f422049c6fc52976" target="_top" xlink:title=" ">
<polygon fill="white" stroke="#666666" points="724,-343 540,-343 540,-313 724,-313 724,-343"/>
<text text-anchor="start" x="548" y="-331" font-family="Helvetica,sans-Serif" font-size="10.00">wmtk::simplex::SimplexCollection</text>
<text text-anchor="middle" x="632" y="-320" font-family="Helvetica,sans-Serif" font-size="10.00">::reserve</text>
</a>
</g>
</g>
<!-- Node4&#45;&gt;Node13 -->
<g id="edge16_Node000004_Node000013" class="edge">
<title>Node4&#45;&gt;Node13</title>
<g id="a_edge16_Node000004_Node000013"><a xlink:title=" ">
<path fill="none" stroke="#63b8ff" d="M428.49,-246.66C451.88,-260.91 497.96,-287.61 540,-304 545.36,-306.09 550.98,-308.06 556.66,-309.9"/>
<polygon fill="#63b8ff" stroke="#63b8ff" points="555.69,-313.27 566.28,-312.88 557.76,-306.58 555.69,-313.27"/>
</a>
</g>
</g>
<!-- Node4&#45;&gt;Node14 -->
<g id="edge17_Node000004_Node000014" class="edge">
<title>Node4&#45;&gt;Node14</title>
<g id="a_edge17_Node000004_Node000014"><a xlink:title=" ">
<path fill="none" stroke="#63b8ff" d="M435.98,-227.49C456.26,-218.07 485.42,-201.89 504,-180 530.81,-148.41 508.74,-121.2 540,-94 541.36,-92.82 542.76,-91.7 544.21,-90.63"/>
<polygon fill="#63b8ff" stroke="#63b8ff" points="546.39,-93.39 552.97,-85.09 542.65,-87.48 546.39,-93.39"/>
</a>
</g>
</g>
<!-- Node4&#45;&gt;Node15 -->
<g id="edge18_Node000004_Node000015" class="edge">
<title>Node4&#45;&gt;Node15</title>
<g id="a_edge18_Node000004_Node000015"><a xlink:title=" ">
<path fill="none" stroke="#63b8ff" d="M487.64,-237.18C550.96,-238.37 643.97,-242.59 724,-256 740.38,-258.74 743.97,-261.66 760,-266 767.54,-268.04 775.44,-270.16 783.3,-272.25"/>
<polygon fill="#63b8ff" stroke="#63b8ff" points="782.64,-275.7 793.2,-274.88 784.43,-268.93 782.64,-275.7"/>
</a>
</g>
</g>
<!-- Node16 -->
<g id="Node000016" class="node">
<title>Node16</title>
<g id="a_Node000016"><a xlink:href="namespacewmtk_1_1simplex.html#a87de7137d8d21f1643dd604d73e8f765" target="_top" xlink:title="Get all top dimension cofaces of the given simplex.">
<polygon fill="white" stroke="#666666" points="690,-209 574,-209 574,-179 690,-179 690,-209"/>
<text text-anchor="start" x="582" y="-197" font-family="Helvetica,sans-Serif" font-size="10.00">wmtk::simplex::top</text>
<text text-anchor="middle" x="632" y="-186" font-family="Helvetica,sans-Serif" font-size="10.00">_dimension_cofaces</text>
</a>
</g>
</g>
<!-- Node4&#45;&gt;Node16 -->
<g id="edge19_Node000004_Node000016" class="edge">
<title>Node4&#45;&gt;Node16</title>
<g id="a_edge19_Node000004_Node000016"><a xlink:title=" ">
<path fill="none" stroke="#63b8ff" d="M461.38,-227.46C491.51,-221.51 530.69,-213.79 563.8,-207.25"/>
<polygon fill="#63b8ff" stroke="#63b8ff" points="564.74,-210.64 573.87,-205.27 563.38,-203.77 564.74,-210.64"/>
</a>
</g>
</g>
<!-- Node4&#45;&gt;Node20 -->
<g id="edge26_Node000004_Node000020" class="edge">
<title>Node4&#45;&gt;Node20</title>
<g id="a_edge26_Node000004_Node000020"><a xlink:title=" ">
<path fill="none" stroke="#63b8ff" d="M416.43,-227.12C428.1,-195.14 469.42,-93.76 540,-46 542.89,-44.04 545.95,-42.28 549.12,-40.69"/>
<polygon fill="#63b8ff" stroke="#63b8ff" points="550.55,-43.88 558.31,-36.67 547.75,-37.47 550.55,-43.88"/>
</a>
</g>
</g>
<!-- Node22 -->
<g id="Node000022" class="node">
<title>Node22</title>
<g id="a_Node000022"><a xlink:href="classwmtk_1_1simplex_1_1_simplex.html#aca78b1fb0a3c28c0036cf7919bfb0789" target="_top" xlink:title=" ">
<polygon fill="white" stroke="#666666" points="699.5,-295 564.5,-295 564.5,-265 699.5,-265 699.5,-295"/>
<text text-anchor="start" x="572.5" y="-283" font-family="Helvetica,sans-Serif" font-size="10.00">wmtk::simplex::Simplex</text>
<text text-anchor="middle" x="632" y="-272" font-family="Helvetica,sans-Serif" font-size="10.00">::tuple</text>
</a>
</g>
</g>
<!-- Node4&#45;&gt;Node22 -->
<g id="edge28_Node000004_Node000022" class="edge">
<title>Node4&#45;&gt;Node22</title>
<g id="a_edge28_Node000004_Node000022"><a xlink:title=" ">
<path fill="none" stroke="#63b8ff" d="M461.38,-246.54C488.66,-251.92 523.37,-258.77 554.27,-264.86"/>
<polygon fill="#63b8ff" stroke="#63b8ff" points="553.66,-268.31 564.15,-266.81 555.02,-261.45 553.66,-268.31"/>
</a>
</g>
</g>
<!-- Node5&#45;&gt;Node5 -->
<g id="edge7_Node000005_Node000005" class="edge">
<title>Node5&#45;&gt;Node5</title>
<g id="a_edge7_Node000005_Node000005"><a xlink:title=" ">
<path fill="none" stroke="#63b8ff" d="M598.09,-418.58C581.6,-427.23 592.9,-436.5 632,-436.5 660.1,-436.5 673.85,-431.71 673.23,-425.81"/>
<polygon fill="#63b8ff" stroke="#63b8ff" points="675.48,-423.12 665.91,-418.58 670.57,-428.1 675.48,-423.12"/>
</a>
</g>
</g>
<!-- Node7 -->
<g id="Node000007" class="node">
<title>Node7</title>
<g id="a_Node000007"><a xlink:href="classwmtk_1_1_tuple.html#a0023f575be92cd5ceeeaaaa3762ea06d" target="_top" xlink:title="Checks if a tuple is &quot;null&quot;. This merely implies the global index is &#45;1.">
<polygon fill="white" stroke="#666666" points="908.5,-122.5 795.5,-122.5 795.5,-103.5 908.5,-103.5 908.5,-122.5"/>
<text text-anchor="middle" x="852" y="-110.5" font-family="Helvetica,sans-Serif" font-size="10.00">wmtk::Tuple::is_null</text>
</a>
</g>
</g>
<!-- Node6&#45;&gt;Node7 -->
<g id="edge9_Node000006_Node000007" class="edge">
<title>Node6&#45;&gt;Node7</title>
<g id="a_edge9_Node000006_Node000007"><a xlink:title=" ">
<path fill="none" stroke="#63b8ff" d="M692.28,-113C721.04,-113 755.68,-113 785.25,-113"/>
<polygon fill="#63b8ff" stroke="#63b8ff" points="785.48,-116.5 795.48,-113 785.48,-109.5 785.48,-116.5"/>
</a>
</g>
</g>
<!-- Node8 -->
<g id="Node000008" class="node">
<title>Node8</title>
<g id="a_Node000008"><a xlink:href="classwmtk_1_1_mesh.html#ade176d345902d97af8c5da04aa3a095b" target="_top" xlink:title=" ">
<polygon fill="white" stroke="#666666" points="922,-67.5 782,-67.5 782,-48.5 922,-48.5 922,-67.5"/>
<text text-anchor="middle" x="852" y="-55.5" font-family="Helvetica,sans-Serif" font-size="10.00">wmtk::Mesh::is_removed</text>
</a>
</g>
</g>
<!-- Node6&#45;&gt;Node8 -->
<g id="edge10_Node000006_Node000008" class="edge">
<title>Node6&#45;&gt;Node8</title>
<g id="a_edge10_Node000006_Node000008"><a xlink:title=" ">
<path fill="none" stroke="#63b8ff" d="M681.79,-103.47C695.49,-100.62 710.36,-97.35 724,-94 752.85,-86.91 785.05,-77.77 809.81,-70.47"/>
<polygon fill="#63b8ff" stroke="#63b8ff" points="811,-73.77 819.59,-67.57 809.01,-67.06 811,-73.77"/>
</a>
</g>
</g>
<!-- Node8&#45;&gt;Node8 -->
<g id="edge12_Node000008_Node000008" class="edge">
<title>Node8&#45;&gt;Node8</title>
<g id="a_edge12_Node000008_Node000008"><a xlink:title=" ">
<path fill="none" stroke="#63b8ff" d="M818.09,-67.58C801.6,-76.23 812.9,-85.5 852,-85.5 880.1,-85.5 893.85,-80.71 893.23,-74.81"/>
<polygon fill="#63b8ff" stroke="#63b8ff" points="895.48,-72.12 885.91,-67.58 890.57,-77.1 895.48,-72.12"/>
</a>
</g>
</g>
<!-- Node9 -->
<g id="Node000009" class="node">
<title>Node9</title>
<g id="a_Node000009"><a xlink:href="classwmtk_1_1_tuple.html#aef64a43ff5f5617dbc99d865356bbc25" target="_top" xlink:title=" ">
<polygon fill="white" stroke="#666666" points="1149.5,-67.5 1018.5,-67.5 1018.5,-48.5 1149.5,-48.5 1149.5,-67.5"/>
<text text-anchor="middle" x="1084" y="-55.5" font-family="Helvetica,sans-Serif" font-size="10.00">wmtk::Tuple::global_cid</text>
</a>
</g>
</g>
<!-- Node8&#45;&gt;Node9 -->
<g id="edge11_Node000008_Node000009" class="edge">
<title>Node8&#45;&gt;Node9</title>
<g id="a_edge11_Node000008_Node000009"><a xlink:title=" ">
<path fill="none" stroke="#63b8ff" d="M922.01,-58C949.23,-58 980.57,-58 1008.32,-58"/>
<polygon fill="#63b8ff" stroke="#63b8ff" points="1008.37,-61.5 1018.37,-58 1008.37,-54.5 1008.37,-61.5"/>
</a>
</g>
</g>
<!-- Node11 -->
<g id="Node000011" class="node">
<title>Node11</title>
<g id="a_Node000011"><a xlink:href="namespacewmtk.html#a6a35f11c12436093d26fdd8be6fecc06" target="_top" xlink:title="Retrieves the current logger.">
<polygon fill="white" stroke="#666666" points="1305,-160.5 1224,-160.5 1224,-141.5 1305,-141.5 1305,-160.5"/>
<text text-anchor="middle" x="1264.5" y="-148.5" font-family="Helvetica,sans-Serif" font-size="10.00">wmtk::logger</text>
</a>
</g>
</g>
<!-- Node10&#45;&gt;Node11 -->
<g id="edge14_Node000010_Node000011" class="edge">
<title>Node10&#45;&gt;Node11</title>
<g id="a_edge14_Node000010_Node000011"><a xlink:title=" ">
<path fill="none" stroke="#63b8ff" d="M1145.43,-151C1167.68,-151 1192.61,-151 1213.81,-151"/>
<polygon fill="#63b8ff" stroke="#63b8ff" points="1213.89,-154.5 1223.89,-151 1213.89,-147.5 1213.89,-154.5"/>
</a>
</g>
</g>
<!-- Node12 -->
<g id="Node000012" class="node">
<title>Node12</title>
<g id="a_Node000012"><a xlink:href="namespacewmtk.html#a3daa7951a5f8b78cf4600dc047fcc180" target="_top" xlink:title="Setup a logger object to be used by WildmeshToolkit.">
<polygon fill="white" stroke="#666666" points="1442,-160.5 1341,-160.5 1341,-141.5 1442,-141.5 1442,-160.5"/>
<text text-anchor="middle" x="1391.5" y="-148.5" font-family="Helvetica,sans-Serif" font-size="10.00">wmtk::set_logger</text>
</a>
</g>
</g>
<!-- Node11&#45;&gt;Node12 -->
<g id="edge15_Node000011_Node000012" class="edge">
<title>Node11&#45;&gt;Node12</title>
<g id="a_edge15_Node000011_Node000012"><a xlink:title=" ">
<path fill="none" stroke="#63b8ff" d="M1305.05,-151C1313.17,-151 1321.9,-151 1330.55,-151"/>
<polygon fill="#63b8ff" stroke="#63b8ff" points="1330.65,-154.5 1340.65,-151 1330.65,-147.5 1330.65,-154.5"/>
</a>
</g>
</g>
<!-- Node16&#45;&gt;Node15 -->
<g id="edge21_Node000016_Node000015" class="edge">
<title>Node16&#45;&gt;Node15</title>
<g id="a_edge21_Node000016_Node000015"><a xlink:title=" ">
<path fill="none" stroke="#63b8ff" d="M690.14,-206.76C701.91,-210.85 713.81,-216.16 724,-223 744.7,-236.89 738.96,-252.64 760,-266 762.61,-267.65 765.32,-269.2 768.12,-270.63"/>
<polygon fill="#63b8ff" stroke="#63b8ff" points="766.74,-273.85 777.29,-274.87 769.68,-267.5 766.74,-273.85"/>
</a>
</g>
</g>
<!-- Node17 -->
<g id="Node000017" class="node">
<title>Node17</title>
<g id="a_Node000017"><a xlink:href="classwmtk_1_1simplex_1_1_simplex_collection.html#a0d0c1765c4ed8ffd0f163661111bfb08" target="_top" xlink:title=" ">
<polygon fill="white" stroke="#666666" points="944,-257 760,-257 760,-227 944,-227 944,-257"/>
<text text-anchor="start" x="768" y="-245" font-family="Helvetica,sans-Serif" font-size="10.00">wmtk::simplex::SimplexCollection</text>
<text text-anchor="middle" x="852" y="-234" font-family="Helvetica,sans-Serif" font-size="10.00">::mesh</text>
</a>
</g>
</g>
<!-- Node16&#45;&gt;Node17 -->
<g id="edge20_Node000016_Node000017" class="edge">
<title>Node16&#45;&gt;Node17</title>
<g id="a_edge20_Node000016_Node000017"><a xlink:title=" ">
<path fill="none" stroke="#63b8ff" d="M690.28,-206.61C715.56,-212.18 745.67,-218.81 772.96,-224.82"/>
<polygon fill="#63b8ff" stroke="#63b8ff" points="772.35,-228.27 782.87,-227 773.86,-221.43 772.35,-228.27"/>
</a>
</g>
</g>
<!-- Node18 -->
<g id="Node000018" class="node">
<title>Node18</title>
<g id="a_Node000018"><a xlink:href="namespacewmtk_1_1simplex.html#a0101f27eb2ad82814390b92ab1a4d1a0" target="_top" xlink:title=" ">
<polygon fill="white" stroke="#666666" points="927.5,-209 776.5,-209 776.5,-179 927.5,-179 927.5,-209"/>
<text text-anchor="start" x="784.5" y="-197" font-family="Helvetica,sans-Serif" font-size="10.00">wmtk::simplex::top</text>
<text text-anchor="middle" x="852" y="-186" font-family="Helvetica,sans-Serif" font-size="10.00">_dimension_cofaces_tuples</text>
</a>
</g>
</g>
<!-- Node16&#45;&gt;Node18 -->
<g id="edge22_Node000016_Node000018" class="edge">
<title>Node16&#45;&gt;Node18</title>
<g id="a_edge22_Node000016_Node000018"><a xlink:title=" ">
<path fill="none" stroke="#63b8ff" d="M690.28,-194C713.55,-194 740.93,-194 766.42,-194"/>
<polygon fill="#63b8ff" stroke="#63b8ff" points="766.46,-197.5 776.46,-194 766.46,-190.5 766.46,-197.5"/>
</a>
</g>
</g>
<!-- Node18&#45;&gt;Node3 -->
<g id="edge23_Node000018_Node000003" class="edge">
<title>Node18&#45;&gt;Node3</title>
<g id="a_edge23_Node000018_Node000003"><a xlink:title=" ">
<path fill="none" stroke="#63b8ff" d="M926.1,-209.18C932.35,-211.69 938.41,-214.61 944,-218 1002.36,-253.42 1050.73,-320.68 1071.74,-352.9"/>
<polygon fill="#63b8ff" stroke="#63b8ff" points="1068.81,-354.82 1077.15,-361.36 1074.71,-351.05 1068.81,-354.82"/>
</a>
</g>
</g>
<!-- Node18&#45;&gt;Node10 -->
<g id="edge24_Node000018_Node000010" class="edge">
<title>Node18&#45;&gt;Node10</title>
<g id="a_edge24_Node000018_Node000010"><a xlink:title=" ">
<path fill="none" stroke="#63b8ff" d="M927.67,-180.04C955.01,-174.93 985.82,-169.17 1012.75,-164.13"/>
<polygon fill="#63b8ff" stroke="#63b8ff" points="1013.68,-167.52 1022.87,-162.24 1012.4,-160.64 1013.68,-167.52"/>
</a>
</g>
</g>
<!-- Node19 -->
<g id="Node000019" class="node">
<title>Node19</title>
<g id="a_Node000019"><a xlink:href="classwmtk_1_1simplex_1_1_simplex.html#ad2cc0340a0772b7d6f03ba7a781d1163" target="_top" xlink:title=" ">
<polygon fill="white" stroke="#666666" points="1151.5,-214 1016.5,-214 1016.5,-184 1151.5,-184 1151.5,-214"/>
<text text-anchor="start" x="1024.5" y="-202" font-family="Helvetica,sans-Serif" font-size="10.00">wmtk::simplex::Simplex</text>
<text text-anchor="middle" x="1084" y="-191" font-family="Helvetica,sans-Serif" font-size="10.00">::primitive_type</text>
</a>
</g>
</g>
<!-- Node18&#45;&gt;Node19 -->
<g id="edge25_Node000018_Node000019" class="edge">
<title>Node18&#45;&gt;Node19</title>
<g id="a_edge25_Node000018_Node000019"><a xlink:title=" ">
<path fill="none" stroke="#63b8ff" d="M927.67,-195.62C952.81,-196.17 980.88,-196.78 1006.18,-197.33"/>
<polygon fill="#63b8ff" stroke="#63b8ff" points="1006.38,-200.84 1016.46,-197.55 1006.54,-193.84 1006.38,-200.84"/>
</a>
</g>
</g>
<!-- Node21 -->
<g id="Node000021" class="node">
<title>Node21</title>
<g id="a_Node000021"><a xlink:href="classwmtk_1_1_mesh.html#a933f681cf24a63b155c9462280385200" target="_top" xlink:title=" ">
<polygon fill="white" stroke="#666666" points="912.5,-30 791.5,-30 791.5,0 912.5,0 912.5,-30"/>
<text text-anchor="start" x="799.5" y="-18" font-family="Helvetica,sans-Serif" font-size="10.00">wmtk::Mesh::top_cell</text>
<text text-anchor="middle" x="852" y="-7" font-family="Helvetica,sans-Serif" font-size="10.00">_dimension</text>
</a>
</g>
</g>
<!-- Node20&#45;&gt;Node21 -->
<g id="edge27_Node000020_Node000021" class="edge">
<title>Node20&#45;&gt;Node21</title>
<g id="a_edge27_Node000020_Node000021"><a xlink:title=" ">
<path fill="none" stroke="#63b8ff" d="M717.28,-22.36C738.4,-21.2 760.82,-19.96 781.15,-18.85"/>
<polygon fill="#63b8ff" stroke="#63b8ff" points="781.46,-22.33 791.25,-18.29 781.08,-15.34 781.46,-22.33"/>
</a>
</g>
</g>
</g>
</svg>
