<?xml version="1.0" encoding="UTF-8" standalone="no"?>
<!DOCTYPE svg PUBLIC "-//W3C//DTD SVG 1.1//EN"
 "http://www.w3.org/Graphics/SVG/1.1/DTD/svg11.dtd">
<!-- Generated by graphviz version 2.43.0 (0)
 -->
<!-- Title: wmtk::utils::wmtk_orient3d Pages: 1 -->
<!--zoomable 947 -->
<svg id="main" version="1.1" xmlns="http://www.w3.org/2000/svg" xmlns:xlink="http://www.w3.org/1999/xlink" xml:space="preserve" onload="init(evt)">
<style type="text/css"><![CDATA[
.edge:hover path { stroke: red; }
.edge:hover polygon { stroke: red; fill: red; }
]]></style>
<script type="text/javascript"><![CDATA[
var edges = document.getElementsByTagName('g');
if (edges && edges.length) {
  for (var i=0;i<edges.length;i++) {
    if (edges[i].id.substr(0,4)=='edge') {
      edges[i].setAttribute('class','edge');
    }
  }
}
]]></script>
        <defs>
                <circle id="rim" cx="0" cy="0" r="7"/>
                <circle id="rim2" cx="0" cy="0" r="3.5"/>
                <g id="zoomPlus">
                        <use xlink:href="#rim" fill="#404040">
                                <set attributeName="fill" to="#808080" begin="zoomplus.mouseover" end="zoomplus.mouseout"/>
                        </use>
                        <path d="M-4,0h8M0,-4v8" fill="none" stroke="white" stroke-width="1.5" pointer-events="none"/>
                </g>
                <g id="zoomMin">
                        <use xlink:href="#rim" fill="#404040">
                                <set attributeName="fill" to="#808080" begin="zoomminus.mouseover" end="zoomminus.mouseout"/>
                        </use>
                        <path d="M-4,0h8" fill="none" stroke="white" stroke-width="1.5" pointer-events="none"/>
                </g>
                <g id="dirArrow">
                        <path fill="none" stroke="white" stroke-width="1.5" d="M0,-3.0v7 M-2.5,-0.5L0,-3.0L2.5,-0.5"/>
                </g>
               <g id="resetDef">
                       <use xlink:href="#rim2" fill="#404040">
                               <set attributeName="fill" to="#808080" begin="reset.mouseover" end="reset.mouseout"/>
                       </use>
               </g>
        </defs>

<script type="text/javascript">
var viewWidth = 961;
var viewHeight = 947;
var sectionId = 'dynsection-31';
</script>
<script xlink:href="svgpan.js"/>
<svg id="graph" class="graph">
<g id="viewport">
<title>wmtk::utils::wmtk_orient3d</title>
<!-- Node1 -->
<g id="node1" class="node">
<title>Node1</title>
<g id="a_node1"><a xlink:title=" ">
<polygon fill="#bfbfbf" stroke="black" points="802,-449.5 802,-468.5 953,-468.5 953,-449.5 802,-449.5"/>
<text text-anchor="middle" x="877.5" y="-456.5" font-family="Helvetica,sans-Serif" font-size="10.00">wmtk::utils::wmtk_orient3d</text>
</a>
</g>
</g>
<!-- Node2 -->
<g id="node2" class="node">
<title>Node2</title>
<g id="a_node2"><a xlink:href="classwmtk_1_1_simplex_inversion_invariant.html#a1163728175bfbd4dc26f4861019ee591" target="_top" xlink:title="we assume with local vid order (v0,v1,v2,v3) has positive volume (orient3d(v0,v1,v2,...">
<polygon fill="none" stroke="black" points="568,-908 568,-938 747,-938 747,-908 568,-908"/>
<text text-anchor="start" x="576" y="-926" font-family="Helvetica,sans-Serif" font-size="10.00">wmtk::SimplexInversionInvariant</text>
<text text-anchor="middle" x="657.5" y="-915" font-family="Helvetica,sans-Serif" font-size="10.00">::after</text>
</a>
</g>
</g>
<!-- Node1&#45;&gt;Node2 -->
<g id="edge1" class="edge">
<title>Node1&#45;&gt;Node2</title>
<path fill="none" stroke="midnightblue" d="M874.27,-478.86C865.13,-556.55 828.12,-838.5 766,-899 760.52,-904.34 754.13,-908.59 747.24,-911.97"/>
<polygon fill="midnightblue" stroke="midnightblue" points="877.78,-478.91 875.45,-468.57 870.83,-478.1 877.78,-478.91"/>
</g>
<!-- Node6 -->
<g id="node6" class="node">
<title>Node6</title>
<g id="a_node6"><a xlink:href="classwmtk_1_1invariants_1_1_collapse_energy_before_invariant.html#aaf60c03541b2a73aebe4ebad561f2535" target="_top" xlink:title=" ">
<polygon fill="none" stroke="black" points="575.5,-859 575.5,-889 739.5,-889 739.5,-859 575.5,-859"/>
<text text-anchor="start" x="583.5" y="-877" font-family="Helvetica,sans-Serif" font-size="10.00">wmtk::invariants::Collapse</text>
<text text-anchor="middle" x="657.5" y="-866" font-family="Helvetica,sans-Serif" font-size="10.00">EnergyBeforeInvariant::before</text>
</a>
</g>
</g>
<!-- Node1&#45;&gt;Node6 -->
<g id="edge5" class="edge">
<title>Node1&#45;&gt;Node6</title>
<path fill="none" stroke="midnightblue" d="M873.64,-478.41C862.73,-549.75 821.6,-795.99 766,-849 758.51,-856.14 749.4,-861.38 739.68,-865.2"/>
<polygon fill="midnightblue" stroke="midnightblue" points="877.1,-478.93 875.12,-468.52 870.18,-477.89 877.1,-478.93"/>
</g>
<!-- Node7 -->
<g id="node7" class="node">
<title>Node7</title>
<g id="a_node7"><a xlink:href="classwmtk_1_1invariants_1_1_collapse_energy_before_invariant_double.html#aedec3d60165b7fe7541a9caa18f6c131" target="_top" xlink:title=" ">
<polygon fill="none" stroke="black" points="577,-798.5 577,-839.5 738,-839.5 738,-798.5 577,-798.5"/>
<text text-anchor="start" x="585" y="-827.5" font-family="Helvetica,sans-Serif" font-size="10.00">wmtk::invariants::Collapse</text>
<text text-anchor="start" x="585" y="-816.5" font-family="Helvetica,sans-Serif" font-size="10.00">EnergyBeforeInvariantDouble</text>
<text text-anchor="middle" x="657.5" y="-805.5" font-family="Helvetica,sans-Serif" font-size="10.00">::before</text>
</a>
</g>
</g>
<!-- Node1&#45;&gt;Node7 -->
<g id="edge6" class="edge">
<title>Node1&#45;&gt;Node7</title>
<path fill="none" stroke="midnightblue" d="M875.99,-478.65C873.41,-535.48 857.99,-701.59 766,-789 758.06,-796.54 748.39,-802.22 738.14,-806.48"/>
<polygon fill="midnightblue" stroke="midnightblue" points="879.49,-478.64 876.36,-468.52 872.5,-478.38 879.49,-478.64"/>
</g>
<!-- Node8 -->
<g id="node8" class="node">
<title>Node8</title>
<g id="a_node8"><a xlink:href="classwmtk_1_1invariants_1_1_collapse_soft_energy_before_invariant.html#aab8e4687323543f65ee7a38e93b9e32d" target="_top" xlink:title=" ">
<polygon fill="none" stroke="black" points="584,-738.5 584,-779.5 731,-779.5 731,-738.5 584,-738.5"/>
<text text-anchor="start" x="592" y="-767.5" font-family="Helvetica,sans-Serif" font-size="10.00">wmtk::invariants::Collapse</text>
<text text-anchor="start" x="592" y="-756.5" font-family="Helvetica,sans-Serif" font-size="10.00">SoftEnergyBeforeInvariant</text>
<text text-anchor="middle" x="657.5" y="-745.5" font-family="Helvetica,sans-Serif" font-size="10.00">::before</text>
</a>
</g>
</g>
<!-- Node1&#45;&gt;Node8 -->
<g id="edge7" class="edge">
<title>Node1&#45;&gt;Node8</title>
<path fill="none" stroke="midnightblue" d="M874.33,-478.64C867.77,-528.32 843.57,-659.96 766,-729 756.09,-737.82 743.78,-744.07 731.07,-748.49"/>
<polygon fill="midnightblue" stroke="midnightblue" points="877.82,-478.94 875.56,-468.59 870.87,-478.09 877.82,-478.94"/>
</g>
<!-- Node9 -->
<g id="node9" class="node">
<title>Node9</title>
<g id="a_node9"><a xlink:href="classwmtk_1_1_swap23_energy_before_invariant.html#ab44b90bbea65c45e354fc3e72ecf0b29" target="_top" xlink:title=" ">
<polygon fill="none" stroke="black" points="580,-689 580,-719 735,-719 735,-689 580,-689"/>
<text text-anchor="start" x="588" y="-707" font-family="Helvetica,sans-Serif" font-size="10.00">wmtk::Swap23EnergyBefore</text>
<text text-anchor="middle" x="657.5" y="-696" font-family="Helvetica,sans-Serif" font-size="10.00">Invariant::before</text>
</a>
</g>
</g>
<!-- Node1&#45;&gt;Node9 -->
<g id="edge8" class="edge">
<title>Node1&#45;&gt;Node9</title>
<path fill="none" stroke="midnightblue" d="M872.6,-478.76C862.91,-522.39 833.47,-627.27 766,-680 756.96,-687.07 746.25,-692.14 735.16,-695.76"/>
<polygon fill="midnightblue" stroke="midnightblue" points="876.05,-479.34 874.69,-468.83 869.21,-477.9 876.05,-479.34"/>
</g>
<!-- Node10 -->
<g id="node10" class="node">
<title>Node10</title>
<g id="a_node10"><a xlink:href="classwmtk_1_1_swap32_energy_before_invariant.html#ab57dde58cf0edb77bb38a8ba31a68108" target="_top" xlink:title=" ">
<polygon fill="none" stroke="black" points="580,-640 580,-670 735,-670 735,-640 580,-640"/>
<text text-anchor="start" x="588" y="-658" font-family="Helvetica,sans-Serif" font-size="10.00">wmtk::Swap32EnergyBefore</text>
<text text-anchor="middle" x="657.5" y="-647" font-family="Helvetica,sans-Serif" font-size="10.00">Invariant::before</text>
</a>
</g>
</g>
<!-- Node1&#45;&gt;Node10 -->
<g id="edge9" class="edge">
<title>Node1&#45;&gt;Node10</title>
<path fill="none" stroke="midnightblue" d="M869.74,-478.49C856.13,-514.64 821.9,-591.95 766,-631 756.75,-637.46 746.05,-642.22 735.07,-645.71"/>
<polygon fill="midnightblue" stroke="midnightblue" points="873.17,-479.27 873.3,-468.68 866.59,-476.88 873.17,-479.27"/>
</g>
<!-- Node11 -->
<g id="node11" class="node">
<title>Node11</title>
<g id="a_node11"><a xlink:href="classwmtk_1_1_swap32_energy_before_invariant_double.html#a55e8fe16823411da398db8d0e7902fd4" target="_top" xlink:title=" ">
<polygon fill="none" stroke="black" points="580,-591 580,-621 735,-621 735,-591 580,-591"/>
<text text-anchor="start" x="588" y="-609" font-family="Helvetica,sans-Serif" font-size="10.00">wmtk::Swap32EnergyBefore</text>
<text text-anchor="middle" x="657.5" y="-598" font-family="Helvetica,sans-Serif" font-size="10.00">InvariantDouble::before</text>
</a>
</g>
</g>
<!-- Node1&#45;&gt;Node11 -->
<g id="edge10" class="edge">
<title>Node1&#45;&gt;Node11</title>
<path fill="none" stroke="midnightblue" d="M865.58,-477.06C848.12,-504.31 811.22,-555.55 766,-582 756.51,-587.55 745.86,-591.82 735.05,-595.1"/>
<polygon fill="midnightblue" stroke="midnightblue" points="868.6,-478.84 870.93,-468.5 862.66,-475.13 868.6,-478.84"/>
</g>
<!-- Node12 -->
<g id="node12" class="node">
<title>Node12</title>
<g id="a_node12"><a xlink:href="classwmtk_1_1_swap44_energy_before_invariant.html#ad084e9675c0844f9229f4a9f452a9f4a" target="_top" xlink:title=" ">
<polygon fill="none" stroke="black" points="580,-542 580,-572 735,-572 735,-542 580,-542"/>
<text text-anchor="start" x="588" y="-560" font-family="Helvetica,sans-Serif" font-size="10.00">wmtk::Swap44EnergyBefore</text>
<text text-anchor="middle" x="657.5" y="-549" font-family="Helvetica,sans-Serif" font-size="10.00">Invariant::before</text>
</a>
</g>
</g>
<!-- Node1&#45;&gt;Node12 -->
<g id="edge11" class="edge">
<title>Node1&#45;&gt;Node12</title>
<path fill="none" stroke="midnightblue" d="M857.57,-474.91C836.52,-491.8 800.88,-518.05 766,-533 756.24,-537.18 745.67,-540.68 735.08,-543.59"/>
<polygon fill="midnightblue" stroke="midnightblue" points="859.86,-477.56 865.39,-468.52 855.43,-472.14 859.86,-477.56"/>
</g>
<!-- Node13 -->
<g id="node13" class="node">
<title>Node13</title>
<g id="a_node13"><a xlink:href="classwmtk_1_1_swap44_energy_before_invariant_double.html#a14e29c5ddd8dca1f088cb7765a068096" target="_top" xlink:title=" ">
<polygon fill="none" stroke="black" points="580,-493 580,-523 735,-523 735,-493 580,-493"/>
<text text-anchor="start" x="588" y="-511" font-family="Helvetica,sans-Serif" font-size="10.00">wmtk::Swap44EnergyBefore</text>
<text text-anchor="middle" x="657.5" y="-500" font-family="Helvetica,sans-Serif" font-size="10.00">InvariantDouble::before</text>
</a>
</g>
</g>
<!-- Node1&#45;&gt;Node13 -->
<g id="edge12" class="edge">
<title>Node1&#45;&gt;Node13</title>
<path fill="none" stroke="midnightblue" d="M824.54,-470.79C806.06,-474.97 785.11,-479.71 766,-484 753.03,-486.91 739.18,-490.02 725.89,-492.99"/>
<polygon fill="midnightblue" stroke="midnightblue" points="825.55,-474.15 834.53,-468.53 824,-467.32 825.55,-474.15"/>
</g>
<!-- Node14 -->
<g id="node14" class="node">
<title>Node14</title>
<g id="a_node14"><a xlink:href="classwmtk_1_1_swap56_energy_before_invariant.html#a904628eeefa17ffc85adcf81413f823a" target="_top" xlink:title=" ">
<polygon fill="none" stroke="black" points="580,-444 580,-474 735,-474 735,-444 580,-444"/>
<text text-anchor="start" x="588" y="-462" font-family="Helvetica,sans-Serif" font-size="10.00">wmtk::Swap56EnergyBefore</text>
<text text-anchor="middle" x="657.5" y="-451" font-family="Helvetica,sans-Serif" font-size="10.00">Invariant::before</text>
</a>
</g>
</g>
<!-- Node1&#45;&gt;Node14 -->
<g id="edge13" class="edge">
<title>Node1&#45;&gt;Node14</title>
<path fill="none" stroke="midnightblue" d="M791.6,-459C773.06,-459 753.55,-459 735.35,-459"/>
<polygon fill="midnightblue" stroke="midnightblue" points="791.78,-462.5 801.78,-459 791.78,-455.5 791.78,-462.5"/>
</g>
<!-- Node15 -->
<g id="node15" class="node">
<title>Node15</title>
<g id="a_node15"><a xlink:href="classwmtk_1_1_swap56_energy_before_invariant_double.html#a853497f492784f29f3e0e9566d8d4137" target="_top" xlink:title=" ">
<polygon fill="none" stroke="black" points="580,-395 580,-425 735,-425 735,-395 580,-395"/>
<text text-anchor="start" x="588" y="-413" font-family="Helvetica,sans-Serif" font-size="10.00">wmtk::Swap56EnergyBefore</text>
<text text-anchor="middle" x="657.5" y="-402" font-family="Helvetica,sans-Serif" font-size="10.00">InvariantDouble::before</text>
</a>
</g>
</g>
<!-- Node1&#45;&gt;Node15 -->
<g id="edge14" class="edge">
<title>Node1&#45;&gt;Node15</title>
<path fill="none" stroke="midnightblue" d="M824.09,-447.22C794.51,-440.57 757.24,-432.19 725.55,-425.07"/>
<polygon fill="midnightblue" stroke="midnightblue" points="823.68,-450.72 834.21,-449.49 825.22,-443.89 823.68,-450.72"/>
</g>
<!-- Node16 -->
<g id="node16" class="node">
<title>Node16</title>
<g id="a_node16"><a xlink:href="namespacewmtk_1_1components_1_1internal.html#aa5cef5f50f316f60f46180e6f84752f6" target="_top" xlink:title=" ">
<polygon fill="none" stroke="black" points="580.5,-346 580.5,-376 734.5,-376 734.5,-346 580.5,-346"/>
<text text-anchor="start" x="588.5" y="-364" font-family="Helvetica,sans-Serif" font-size="10.00">wmtk::components::internal</text>
<text text-anchor="middle" x="657.5" y="-353" font-family="Helvetica,sans-Serif" font-size="10.00">::CDT_internal</text>
</a>
</g>
</g>
<!-- Node1&#45;&gt;Node16 -->
<g id="edge15" class="edge">
<title>Node1&#45;&gt;Node16</title>
<path fill="none" stroke="midnightblue" d="M857.16,-443.11C836.02,-426.5 800.53,-400.85 766,-386 756.14,-381.76 745.45,-378.18 734.77,-375.17"/>
<polygon fill="midnightblue" stroke="midnightblue" points="855.05,-445.89 865.04,-449.4 859.42,-440.43 855.05,-445.89"/>
</g>
<!-- Node18 -->
<g id="node18" class="node">
<title>Node18</title>
<g id="a_node18"><a xlink:href="classwmtk_1_1operations_1_1_a_m_i_p_s_optimization_smoothing_1_1_w_m_t_k_a_m_i_p_s_problem.html#a79268f8e41e4113db4f763d8206c5fda" target="_top" xlink:title=" ">
<polygon fill="none" stroke="black" points="556.5,-285.5 556.5,-326.5 758.5,-326.5 758.5,-285.5 556.5,-285.5"/>
<text text-anchor="start" x="564.5" y="-314.5" font-family="Helvetica,sans-Serif" font-size="10.00">wmtk::operations::AMIPSOptimization</text>
<text text-anchor="start" x="564.5" y="-303.5" font-family="Helvetica,sans-Serif" font-size="10.00">Smoothing::WMTKAMIPSProblem</text>
<text text-anchor="middle" x="657.5" y="-292.5" font-family="Helvetica,sans-Serif" font-size="10.00">::is_step_valid</text>
</a>
</g>
</g>
<!-- Node1&#45;&gt;Node18 -->
<g id="edge17" class="edge">
<title>Node1&#45;&gt;Node18</title>
<path fill="none" stroke="midnightblue" d="M865.08,-441.03C847.19,-414.35 810.03,-364.47 766,-337 759.66,-333.04 752.79,-329.57 745.7,-326.54"/>
<polygon fill="midnightblue" stroke="midnightblue" points="862.17,-442.98 870.58,-449.43 868.03,-439.14 862.17,-442.98"/>
</g>
<!-- Node20 -->
<g id="node20" class="node">
<title>Node20</title>
<g id="a_node20"><a xlink:href="classwmtk_1_1operations_1_1_a_m_i_p_s_optimization_smoothing_periodic_1_1_w_m_t_k_a_m_i_p_s_problem.html#a4a454562d96a7c0c995d4f2ae607f9b0" target="_top" xlink:title=" ">
<polygon fill="none" stroke="black" points="549,-225.5 549,-266.5 766,-266.5 766,-225.5 549,-225.5"/>
<text text-anchor="start" x="557" y="-254.5" font-family="Helvetica,sans-Serif" font-size="10.00">wmtk::operations::AMIPSOptimization</text>
<text text-anchor="start" x="557" y="-243.5" font-family="Helvetica,sans-Serif" font-size="10.00">SmoothingPeriodic::WMTKAMIPSProblem</text>
<text text-anchor="middle" x="657.5" y="-232.5" font-family="Helvetica,sans-Serif" font-size="10.00">::is_step_valid</text>
</a>
</g>
</g>
<!-- Node1&#45;&gt;Node20 -->
<g id="edge19" class="edge">
<title>Node1&#45;&gt;Node20</title>
<path fill="none" stroke="midnightblue" d="M870.25,-439.58C857.18,-402.08 823.28,-319.53 766,-276 761.29,-272.42 756.18,-269.27 750.83,-266.5"/>
<polygon fill="midnightblue" stroke="midnightblue" points="867.02,-440.93 873.52,-449.29 873.65,-438.7 867.02,-440.93"/>
</g>
<!-- Node22 -->
<g id="node22" class="node">
<title>Node22</title>
<g id="a_node22"><a xlink:href="namespacewmtk_1_1components_1_1internal.html#a8890d5e5bb5f11779d4e40e07882253a" target="_top" xlink:title=" ">
<polygon fill="none" stroke="black" points="580.5,-176 580.5,-206 734.5,-206 734.5,-176 580.5,-176"/>
<text text-anchor="start" x="588.5" y="-194" font-family="Helvetica,sans-Serif" font-size="10.00">wmtk::components::internal</text>
<text text-anchor="middle" x="657.5" y="-183" font-family="Helvetica,sans-Serif" font-size="10.00">::periodic_optimization</text>
</a>
</g>
</g>
<!-- Node1&#45;&gt;Node22 -->
<g id="edge21" class="edge">
<title>Node1&#45;&gt;Node22</title>
<path fill="none" stroke="midnightblue" d="M873.53,-439.26C865.44,-392.69 838.54,-275.41 766,-216 756.88,-208.53 745.94,-203.21 734.58,-199.43"/>
<polygon fill="midnightblue" stroke="midnightblue" points="870.1,-439.96 875.16,-449.27 877.01,-438.84 870.1,-439.96"/>
</g>
<!-- Node24 -->
<g id="node24" class="node">
<title>Node24</title>
<g id="a_node24"><a xlink:href="classwmtk_1_1io_1_1_msh_reader.html#ab48bcfed792dcb59c7f417fd2cf44486" target="_top" xlink:title=" ">
<polygon fill="none" stroke="black" points="597.5,-127 597.5,-157 717.5,-157 717.5,-127 597.5,-127"/>
<text text-anchor="start" x="605.5" y="-145" font-family="Helvetica,sans-Serif" font-size="10.00">wmtk::io::MshReader</text>
<text text-anchor="middle" x="657.5" y="-134" font-family="Helvetica,sans-Serif" font-size="10.00">::validate</text>
</a>
</g>
</g>
<!-- Node1&#45;&gt;Node24 -->
<g id="edge23" class="edge">
<title>Node1&#45;&gt;Node24</title>
<path fill="none" stroke="midnightblue" d="M875.21,-439.34C870.63,-386.61 850.56,-240.98 766,-167 752.66,-155.33 734.93,-148.83 717.71,-145.29"/>
<polygon fill="midnightblue" stroke="midnightblue" points="871.72,-439.69 875.98,-449.39 878.7,-439.15 871.72,-439.69"/>
</g>
<!-- Node25 -->
<g id="node25" class="node">
<title>Node25</title>
<g id="a_node25"><a xlink:href="namespacewmtk_1_1components.html#ac6ca52668bd22e164d4baf59ec533864" target="_top" xlink:title=" ">
<polygon fill="none" stroke="black" points="568,-88.5 568,-107.5 747,-107.5 747,-88.5 568,-88.5"/>
<text text-anchor="middle" x="657.5" y="-95.5" font-family="Helvetica,sans-Serif" font-size="10.00">wmtk::components::wildmeshing</text>
</a>
</g>
</g>
<!-- Node1&#45;&gt;Node25 -->
<g id="edge24" class="edge">
<title>Node1&#45;&gt;Node25</title>
<path fill="none" stroke="midnightblue" d="M876.6,-439.07C875.75,-380.01 864.63,-204.63 766,-118 760.37,-113.05 753.91,-109.15 747.02,-106.1"/>
<polygon fill="midnightblue" stroke="midnightblue" points="873.1,-439.29 876.66,-449.27 880.1,-439.26 873.1,-439.29"/>
</g>
<!-- Node26 -->
<g id="node26" class="node">
<title>Node26</title>
<g id="a_node26"><a xlink:href="namespacewmtk_1_1components_1_1internal.html#a798951bc2a6b1069a5ae8c946ddfdecd" target="_top" xlink:title=" ">
<polygon fill="none" stroke="black" points="580.5,-39 580.5,-69 734.5,-69 734.5,-39 580.5,-39"/>
<text text-anchor="start" x="588.5" y="-57" font-family="Helvetica,sans-Serif" font-size="10.00">wmtk::components::internal</text>
<text text-anchor="middle" x="657.5" y="-46" font-family="Helvetica,sans-Serif" font-size="10.00">::wildmeshing3d</text>
</a>
</g>
</g>
<!-- Node1&#45;&gt;Node26 -->
<g id="edge25" class="edge">
<title>Node1&#45;&gt;Node26</title>
<path fill="none" stroke="midnightblue" d="M877.19,-439.16C878.21,-376.29 872.37,-179.73 766,-79 757.23,-70.7 746.27,-64.97 734.73,-61.05"/>
<polygon fill="midnightblue" stroke="midnightblue" points="873.68,-439.2 876.94,-449.29 880.68,-439.38 873.68,-439.2"/>
</g>
<!-- Node28 -->
<g id="node28" class="node">
<title>Node28</title>
<g id="a_node28"><a xlink:href="namespacewmtk_1_1utils.html#ae9909d772a51855effa0ab75c701df5c" target="_top" xlink:title=" ">
<polygon fill="none" stroke="black" points="582,-0.5 582,-19.5 733,-19.5 733,-0.5 582,-0.5"/>
<text text-anchor="middle" x="657.5" y="-7.5" font-family="Helvetica,sans-Serif" font-size="10.00">wmtk::utils::wmtk_orient3d</text>
</a>
</g>
</g>
<!-- Node1&#45;&gt;Node28 -->
<g id="edge27" class="edge">
<title>Node1&#45;&gt;Node28</title>
<path fill="none" stroke="midnightblue" d="M874.21,-439.01C865.01,-362.07 828.13,-86.54 766,-29 756.82,-20.5 745.23,-15.12 733.08,-11.82"/>
<polygon fill="midnightblue" stroke="midnightblue" points="870.77,-439.7 875.41,-449.23 877.72,-438.89 870.77,-439.7"/>
</g>
<!-- Node3 -->
<g id="node3" class="node">
<title>Node3</title>
<g id="a_node3"><a xlink:href="classwmtk_1_1components_1_1internal_1_1_simplicial_embedding.html#a56a218aa40f62ce6ecdb5ac253553e6c" target="_top" xlink:title="Regularize tags in mesh.">
<polygon fill="none" stroke="black" points="307,-908 307,-938 513,-938 513,-908 307,-908"/>
<text text-anchor="start" x="315" y="-926" font-family="Helvetica,sans-Serif" font-size="10.00">wmtk::components::internal</text>
<text text-anchor="middle" x="410" y="-915" font-family="Helvetica,sans-Serif" font-size="10.00">::SimplicialEmbedding::regularize_tags</text>
</a>
</g>
</g>
<!-- Node2&#45;&gt;Node3 -->
<g id="edge2" class="edge">
<title>Node2&#45;&gt;Node3</title>
<path fill="none" stroke="midnightblue" d="M557.8,-923C543.14,-923 528,-923 513.27,-923"/>
<polygon fill="midnightblue" stroke="midnightblue" points="557.87,-926.5 567.87,-923 557.87,-919.5 557.87,-926.5"/>
</g>
<!-- Node4 -->
<g id="node4" class="node">
<title>Node4</title>
<g id="a_node4"><a xlink:href="namespacewmtk_1_1components.html#abab23cfb68442b5652e27826a47ba553" target="_top" xlink:title=" ">
<polygon fill="none" stroke="black" points="107,-908 107,-938 271,-938 271,-908 107,-908"/>
<text text-anchor="start" x="115" y="-926" font-family="Helvetica,sans-Serif" font-size="10.00">wmtk::components::simplicial</text>
<text text-anchor="middle" x="189" y="-915" font-family="Helvetica,sans-Serif" font-size="10.00">_embedding</text>
</a>
</g>
</g>
<!-- Node3&#45;&gt;Node4 -->
<g id="edge3" class="edge">
<title>Node3&#45;&gt;Node4</title>
<path fill="none" stroke="midnightblue" d="M296.79,-923C288.2,-923 279.63,-923 271.3,-923"/>
<polygon fill="midnightblue" stroke="midnightblue" points="296.87,-926.5 306.87,-923 296.87,-919.5 296.87,-926.5"/>
</g>
<!-- Node5 -->
<g id="node5" class="node">
<title>Node5</title>
<g id="a_node5"><a xlink:href="test__simplicial__embedding_8cpp.html#a49717460104eb5696a0b66b964ff84a0" target="_top" xlink:title=" ">
<polygon fill="none" stroke="black" points="0,-913.5 0,-932.5 71,-932.5 71,-913.5 0,-913.5"/>
<text text-anchor="middle" x="35.5" y="-920.5" font-family="Helvetica,sans-Serif" font-size="10.00">TEST_CASE</text>
</a>
</g>
</g>
<!-- Node4&#45;&gt;Node5 -->
<g id="edge4" class="edge">
<title>Node4&#45;&gt;Node5</title>
<path fill="none" stroke="midnightblue" d="M96.73,-923C87.78,-923 79.14,-923 71.32,-923"/>
<polygon fill="midnightblue" stroke="midnightblue" points="96.93,-926.5 106.93,-923 96.93,-919.5 96.93,-926.5"/>
</g>
<!-- Node17 -->
<g id="node17" class="node">
<title>Node17</title>
<g id="a_node17"><a xlink:href="namespacewmtk_1_1components.html#a7bf4c4516032a63182e16035aeacceb4" target="_top" xlink:title=" ">
<polygon fill="none" stroke="black" points="341.5,-351.5 341.5,-370.5 478.5,-370.5 478.5,-351.5 341.5,-351.5"/>
<text text-anchor="middle" x="410" y="-358.5" font-family="Helvetica,sans-Serif" font-size="10.00">wmtk::components::CDT</text>
</a>
</g>
</g>
<!-- Node16&#45;&gt;Node17 -->
<g id="edge16" class="edge">
<title>Node16&#45;&gt;Node17</title>
<path fill="none" stroke="midnightblue" d="M570.12,-361C540.08,-361 506.84,-361 478.55,-361"/>
<polygon fill="midnightblue" stroke="midnightblue" points="570.17,-364.5 580.17,-361 570.17,-357.5 570.17,-364.5"/>
</g>
<!-- Node19 -->
<g id="node19" class="node">
<title>Node19</title>
<g id="a_node19"><a xlink:href="classwmtk_1_1operations_1_1_a_m_i_p_s_optimization_smoothing.html#a2c409cd3da46f4360119e142ef3c3682" target="_top" xlink:title="returns an empty vector in case of failure">
<polygon fill="none" stroke="black" points="309,-291 309,-321 511,-321 511,-291 309,-291"/>
<text text-anchor="start" x="317" y="-309" font-family="Helvetica,sans-Serif" font-size="10.00">wmtk::operations::AMIPSOptimization</text>
<text text-anchor="middle" x="410" y="-298" font-family="Helvetica,sans-Serif" font-size="10.00">Smoothing::execute</text>
</a>
</g>
</g>
<!-- Node18&#45;&gt;Node19 -->
<g id="edge18" class="edge">
<title>Node18&#45;&gt;Node19</title>
<path fill="none" stroke="midnightblue" d="M546.14,-306C534.53,-306 522.77,-306 511.29,-306"/>
<polygon fill="midnightblue" stroke="midnightblue" points="546.29,-309.5 556.29,-306 546.29,-302.5 546.29,-309.5"/>
</g>
<!-- Node21 -->
<g id="node21" class="node">
<title>Node21</title>
<g id="a_node21"><a xlink:href="classwmtk_1_1operations_1_1_a_m_i_p_s_optimization_smoothing_periodic.html#a86df18fe3713cb41dca1687487dea61b" target="_top" xlink:title="returns an empty vector in case of failure">
<polygon fill="none" stroke="black" points="309,-231 309,-261 511,-261 511,-231 309,-231"/>
<text text-anchor="start" x="317" y="-249" font-family="Helvetica,sans-Serif" font-size="10.00">wmtk::operations::AMIPSOptimization</text>
<text text-anchor="middle" x="410" y="-238" font-family="Helvetica,sans-Serif" font-size="10.00">SmoothingPeriodic::execute</text>
</a>
</g>
</g>
<!-- Node20&#45;&gt;Node21 -->
<g id="edge20" class="edge">
<title>Node20&#45;&gt;Node21</title>
<path fill="none" stroke="midnightblue" d="M538.53,-246C529.4,-246 520.23,-246 511.22,-246"/>
<polygon fill="midnightblue" stroke="midnightblue" points="538.82,-249.5 548.82,-246 538.82,-242.5 538.82,-249.5"/>
</g>
<!-- Node23 -->
<g id="node23" class="node">
<title>Node23</title>
<g id="a_node23"><a xlink:href="namespacewmtk_1_1components.html#a4166e4880553cfacbf79ac3515a637cd" target="_top" xlink:title=" ">
<polygon fill="none" stroke="black" points="332.5,-176 332.5,-206 487.5,-206 487.5,-176 332.5,-176"/>
<text text-anchor="start" x="340.5" y="-194" font-family="Helvetica,sans-Serif" font-size="10.00">wmtk::components::periodic</text>
<text text-anchor="middle" x="410" y="-183" font-family="Helvetica,sans-Serif" font-size="10.00">_optimization</text>
</a>
</g>
</g>
<!-- Node22&#45;&gt;Node23 -->
<g id="edge22" class="edge">
<title>Node22&#45;&gt;Node23</title>
<path fill="none" stroke="midnightblue" d="M570.02,-191C543.19,-191 513.82,-191 487.71,-191"/>
<polygon fill="midnightblue" stroke="midnightblue" points="570.17,-194.5 580.17,-191 570.17,-187.5 570.17,-194.5"/>
</g>
<!-- Node27 -->
<g id="node27" class="node">
<title>Node27</title>
<g id="a_node27"><a xlink:href="namespacewmtk_1_1components.html#a7c75b44e67ee059f20849f2ea5e04e49" target="_top" xlink:title=" ">
<polygon fill="none" stroke="black" points="320.5,-44.5 320.5,-63.5 499.5,-63.5 499.5,-44.5 320.5,-44.5"/>
<text text-anchor="middle" x="410" y="-51.5" font-family="Helvetica,sans-Serif" font-size="10.00">wmtk::components::wildmeshing</text>
</a>
</g>
</g>
<!-- Node26&#45;&gt;Node27 -->
<g id="edge26" class="edge">
<title>Node26&#45;&gt;Node27</title>
<path fill="none" stroke="midnightblue" d="M569.86,-54C547.13,-54 522.59,-54 499.75,-54"/>
<polygon fill="midnightblue" stroke="midnightblue" points="570.17,-57.5 580.17,-54 570.17,-50.5 570.17,-57.5"/>
</g>
</g>
</svg>
        <g id="navigator" transform="translate(0 0)" fill="#404254">
                <rect fill="#f2f5e9" fill-opacity="0.5" stroke="#606060" stroke-width=".5" x="0" y="0" width="60" height="60"/>
                <use id="zoomplus" xlink:href="#zoomPlus" x="17" y="9" onmousedown="handleZoom(evt,'in')"/>
                <use id="zoomminus" xlink:href="#zoomMin" x="42" y="9" onmousedown="handleZoom(evt,'out')"/>
                <use id="reset" xlink:href="#resetDef" x="30" y="36" onmousedown="handleReset()"/>
                <g id="arrowUp" xlink:href="#dirArrow" transform="translate(30 24)" onmousedown="handlePan(0,-1)">
                  <use xlink:href="#rim" fill="#404040">
                        <set attributeName="fill" to="#808080" begin="arrowUp.mouseover" end="arrowUp.mouseout"/>
                  </use>
                  <path fill="none" stroke="white" stroke-width="1.5" d="M0,-3.0v7 M-2.5,-0.5L0,-3.0L2.5,-0.5"/>
                </g>
                <g id="arrowRight" xlink:href="#dirArrow" transform="rotate(90) translate(36 -43)" onmousedown="handlePan(1,0)">
                  <use xlink:href="#rim" fill="#404040">
                        <set attributeName="fill" to="#808080" begin="arrowRight.mouseover" end="arrowRight.mouseout"/>
                  </use>
                  <path fill="none" stroke="white" stroke-width="1.5" d="M0,-3.0v7 M-2.5,-0.5L0,-3.0L2.5,-0.5"/>
                </g>
                <g id="arrowDown" xlink:href="#dirArrow" transform="rotate(180) translate(-30 -48)" onmousedown="handlePan(0,1)">
                  <use xlink:href="#rim" fill="#404040">
                        <set attributeName="fill" to="#808080" begin="arrowDown.mouseover" end="arrowDown.mouseout"/>
                  </use>
                  <path fill="none" stroke="white" stroke-width="1.5" d="M0,-3.0v7 M-2.5,-0.5L0,-3.0L2.5,-0.5"/>
                </g>
                <g id="arrowLeft" xlink:href="#dirArrow" transform="rotate(270) translate(-36 17)" onmousedown="handlePan(-1,0)">
                  <use xlink:href="#rim" fill="#404040">
                        <set attributeName="fill" to="#808080" begin="arrowLeft.mouseover" end="arrowLeft.mouseout"/>
                  </use>
                  <path fill="none" stroke="white" stroke-width="1.5" d="M0,-3.0v7 M-2.5,-0.5L0,-3.0L2.5,-0.5"/>
                </g>
        </g>
        <svg viewBox="0 0 15 15" width="100%" height="30px" preserveAspectRatio="xMaxYMin meet">
         <g id="arrow_out" transform="scale(0.3 0.3)">
          <a xlink:href="namespacewmtk_1_1utils_a34133dc338089a5141f8e84feecb81ce_icgraph_org.svg" target="_base">
           <rect id="button" ry="5" rx="5" y="6" x="6" height="38" width="38"
                fill="#f2f5e9" fill-opacity="0.5" stroke="#606060" stroke-width="1.0"/>
           <path id="arrow"
             d="M 11.500037,31.436501 C 11.940474,20.09759 22.043105,11.32322 32.158766,21.979434 L 37.068811,17.246167 C 37.068811,17.246167 37.088388,32 37.088388,32 L 22.160133,31.978069 C 22.160133,31.978069 26.997745,27.140456 26.997745,27.140456 C 18.528582,18.264221 13.291696,25.230495 11.500037,31.436501 z"
             style="fill:#404040;"/>
          </a>
         </g>
        </svg>
</svg>
