<?xml version="1.0" encoding="UTF-8" standalone="no"?>
<!DOCTYPE svg PUBLIC "-//W3C//DTD SVG 1.1//EN"
 "http://www.w3.org/Graphics/SVG/1.1/DTD/svg11.dtd">
<!-- Generated by graphviz version 2.43.0 (0)
 -->
<!-- Title: wmtk::utils::metaprogramming::as_mesh_variant Pages: 1 -->
<!--zoomable 452 -->
<svg id="main" version="1.1" xmlns="http://www.w3.org/2000/svg" xmlns:xlink="http://www.w3.org/1999/xlink" xml:space="preserve" onload="init(evt)">
<style type="text/css"><![CDATA[
.edge:hover path { stroke: red; }
.edge:hover polygon { stroke: red; fill: red; }
]]></style>
<script type="text/javascript"><![CDATA[
var edges = document.getElementsByTagName('g');
if (edges && edges.length) {
  for (var i=0;i<edges.length;i++) {
    if (edges[i].id.substr(0,4)=='edge') {
      edges[i].setAttribute('class','edge');
    }
  }
}
]]></script>
        <defs>
                <circle id="rim" cx="0" cy="0" r="7"/>
                <circle id="rim2" cx="0" cy="0" r="3.5"/>
                <g id="zoomPlus">
                        <use xlink:href="#rim" fill="#404040">
                                <set attributeName="fill" to="#808080" begin="zoomplus.mouseover" end="zoomplus.mouseout"/>
                        </use>
                        <path d="M-4,0h8M0,-4v8" fill="none" stroke="white" stroke-width="1.5" pointer-events="none"/>
                </g>
                <g id="zoomMin">
                        <use xlink:href="#rim" fill="#404040">
                                <set attributeName="fill" to="#808080" begin="zoomminus.mouseover" end="zoomminus.mouseout"/>
                        </use>
                        <path d="M-4,0h8" fill="none" stroke="white" stroke-width="1.5" pointer-events="none"/>
                </g>
                <g id="dirArrow">
                        <path fill="none" stroke="white" stroke-width="1.5" d="M0,-3.0v7 M-2.5,-0.5L0,-3.0L2.5,-0.5"/>
                </g>
               <g id="resetDef">
                       <use xlink:href="#rim2" fill="#404040">
                               <set attributeName="fill" to="#808080" begin="reset.mouseover" end="reset.mouseout"/>
                       </use>
               </g>
        </defs>

<script type="text/javascript">
var viewWidth = 1947;
var viewHeight = 452;
var sectionId = 'dynsection-1';
</script>
<script xlink:href="svgpan.js"/>
<svg id="graph" class="graph">
<g id="viewport">
<title>wmtk::utils::metaprogramming::as_mesh_variant</title>
<!-- Node1 -->
<g id="node1" class="node">
<title>Node1</title>
<g id="a_node1"><a xlink:title=" ">
<polygon fill="#bfbfbf" stroke="black" points="1770,-126 1770,-156 1939,-156 1939,-126 1770,-126"/>
<text text-anchor="start" x="1778" y="-144" font-family="Helvetica,sans-Serif" font-size="10.00">wmtk::utils::metaprogramming</text>
<text text-anchor="middle" x="1854.5" y="-133" font-family="Helvetica,sans-Serif" font-size="10.00">::as_mesh_variant</text>
</a>
</g>
</g>
<!-- Node2 -->
<g id="node2" class="node">
<title>Node2</title>
<g id="a_node2"><a xlink:href="classwmtk_1_1multimesh_1_1_multi_mesh_visitor.html#a4ae1801ee1021dd57a0ede0444efc2d6" target="_top" xlink:title=" ">
<polygon fill="none" stroke="black" points="949,-235 949,-265 1109,-265 1109,-235 949,-235"/>
<text text-anchor="start" x="957" y="-253" font-family="Helvetica,sans-Serif" font-size="10.00">wmtk::multimesh::MultiMesh</text>
<text text-anchor="middle" x="1029" y="-242" font-family="Helvetica,sans-Serif" font-size="10.00">Visitor::execute_from_root</text>
</a>
</g>
</g>
<!-- Node1&#45;&gt;Node2 -->
<g id="edge1" class="edge">
<title>Node1&#45;&gt;Node2</title>
<path fill="none" stroke="midnightblue" d="M1833.16,-163.91C1811.22,-186.88 1774.03,-221.05 1734,-237 1518.37,-322.9 1235.32,-288.53 1103.49,-265.04"/>
<polygon fill="midnightblue" stroke="midnightblue" points="1836,-166 1840.26,-156.3 1830.88,-161.22 1836,-166"/>
</g>
<!-- Node24 -->
<g id="node24" class="node">
<title>Node24</title>
<g id="a_node24"><a xlink:href="classwmtk_1_1multimesh_1_1_multi_mesh_simplex_visitor.html#ad4359b5c36f328c241da00f5fc6d93a7" target="_top" xlink:title=" ">
<polygon fill="none" stroke="black" points="1574,-120.5 1574,-161.5 1734,-161.5 1734,-120.5 1574,-120.5"/>
<text text-anchor="start" x="1582" y="-149.5" font-family="Helvetica,sans-Serif" font-size="10.00">wmtk::multimesh::MultiMesh</text>
<text text-anchor="start" x="1582" y="-138.5" font-family="Helvetica,sans-Serif" font-size="10.00">SimplexVisitor::execute</text>
<text text-anchor="middle" x="1654" y="-127.5" font-family="Helvetica,sans-Serif" font-size="10.00">_from_root</text>
</a>
</g>
</g>
<!-- Node1&#45;&gt;Node24 -->
<g id="edge26" class="edge">
<title>Node1&#45;&gt;Node24</title>
<path fill="none" stroke="midnightblue" d="M1759.82,-141C1751.21,-141 1742.54,-141 1734.08,-141"/>
<polygon fill="midnightblue" stroke="midnightblue" points="1759.89,-144.5 1769.89,-141 1759.89,-137.5 1759.89,-144.5"/>
</g>
<!-- Node33 -->
<g id="node33" class="node">
<title>Node33</title>
<g id="a_node33"><a xlink:href="classwmtk_1_1multimesh_1_1_multi_mesh_visitor_executor.html#a6e0ef7ccec71b521a3bc5eb5df90bef0" target="_top" xlink:title=" ">
<polygon fill="none" stroke="black" points="1574,-197 1574,-227 1734,-227 1734,-197 1574,-197"/>
<text text-anchor="start" x="1582" y="-215" font-family="Helvetica,sans-Serif" font-size="10.00">wmtk::multimesh::MultiMesh</text>
<text text-anchor="middle" x="1654" y="-204" font-family="Helvetica,sans-Serif" font-size="10.00">VisitorExecutor::run</text>
</a>
</g>
</g>
<!-- Node1&#45;&gt;Node33 -->
<g id="edge35" class="edge">
<title>Node1&#45;&gt;Node33</title>
<path fill="none" stroke="midnightblue" d="M1801.6,-159.56C1769.02,-171.22 1727.55,-186.05 1697.04,-196.96"/>
<polygon fill="midnightblue" stroke="midnightblue" points="1803.17,-162.72 1811.4,-156.06 1800.81,-156.13 1803.17,-162.72"/>
</g>
<!-- Node36 -->
<g id="node36" class="node">
<title>Node36</title>
<g id="a_node36"><a xlink:href="classwmtk_1_1multimesh_1_1_multi_mesh_simplex_event_visitor.html#ada0ea3a7aece15b0a8e494d59d833415" target="_top" xlink:title=" ">
<polygon fill="none" stroke="black" points="1574,-0.5 1574,-41.5 1734,-41.5 1734,-0.5 1574,-0.5"/>
<text text-anchor="start" x="1582" y="-29.5" font-family="Helvetica,sans-Serif" font-size="10.00">wmtk::multimesh::MultiMesh</text>
<text text-anchor="start" x="1582" y="-18.5" font-family="Helvetica,sans-Serif" font-size="10.00">SimplexEventVisitor::run</text>
<text text-anchor="middle" x="1654" y="-7.5" font-family="Helvetica,sans-Serif" font-size="10.00">_on_edges</text>
</a>
</g>
</g>
<!-- Node1&#45;&gt;Node36 -->
<g id="edge39" class="edge">
<title>Node1&#45;&gt;Node36</title>
<path fill="none" stroke="midnightblue" d="M1829.12,-119.36C1805.92,-99.58 1769.39,-70.53 1734,-51 1727.96,-47.67 1721.48,-44.55 1714.92,-41.68"/>
<polygon fill="midnightblue" stroke="midnightblue" points="1826.89,-122.05 1836.75,-125.93 1831.46,-116.75 1826.89,-122.05"/>
</g>
<!-- Node37 -->
<g id="node37" class="node">
<title>Node37</title>
<g id="a_node37"><a xlink:href="classwmtk_1_1multimesh_1_1_multi_mesh_simplex_event_visitor.html#a7655c88ae0f53ca9bcfecba966fb2044" target="_top" xlink:title=" ">
<polygon fill="none" stroke="black" points="1574,-60.5 1574,-101.5 1734,-101.5 1734,-60.5 1574,-60.5"/>
<text text-anchor="start" x="1582" y="-89.5" font-family="Helvetica,sans-Serif" font-size="10.00">wmtk::multimesh::MultiMesh</text>
<text text-anchor="start" x="1582" y="-78.5" font-family="Helvetica,sans-Serif" font-size="10.00">SimplexEventVisitor::run</text>
<text text-anchor="middle" x="1654" y="-67.5" font-family="Helvetica,sans-Serif" font-size="10.00">_on_nodes</text>
</a>
</g>
</g>
<!-- Node1&#45;&gt;Node37 -->
<g id="edge41" class="edge">
<title>Node1&#45;&gt;Node37</title>
<path fill="none" stroke="midnightblue" d="M1793.96,-123C1771.57,-116.23 1745.95,-108.49 1722.86,-101.51"/>
<polygon fill="midnightblue" stroke="midnightblue" points="1793.08,-126.39 1803.67,-125.94 1795.11,-119.69 1793.08,-126.39"/>
</g>
<!-- Node3 -->
<g id="node3" class="node">
<title>Node3</title>
<g id="a_node3"><a xlink:href="namespacewmtk_1_1multimesh.html#a75477c4fe069fcdff90f57a76087afe0" target="_top" xlink:title=" ">
<polygon fill="none" stroke="black" points="520,-358.5 520,-377.5 685,-377.5 685,-358.5 520,-358.5"/>
<text text-anchor="middle" x="602.5" y="-365.5" font-family="Helvetica,sans-Serif" font-size="10.00">wmtk::multimesh::consolidate</text>
</a>
</g>
</g>
<!-- Node2&#45;&gt;Node3 -->
<g id="edge2" class="edge">
<title>Node2&#45;&gt;Node3</title>
<path fill="none" stroke="midnightblue" d="M1008.37,-272.68C986.21,-296.49 947.78,-332.69 906,-349 835.05,-376.7 747.62,-379.15 685.03,-376.05"/>
<polygon fill="midnightblue" stroke="midnightblue" points="1011.1,-274.88 1015.24,-265.13 1005.92,-270.17 1011.1,-274.88"/>
</g>
<!-- Node4 -->
<g id="node4" class="node">
<title>Node4</title>
<g id="a_node4"><a xlink:href="namespacewmtk_1_1components_1_1internal.html#a49432d47b0fca2f5fe80f1e9c634fa14" target="_top" xlink:title=" ">
<polygon fill="none" stroke="black" points="317.5,-391 317.5,-421 471.5,-421 471.5,-391 317.5,-391"/>
<text text-anchor="start" x="325.5" y="-409" font-family="Helvetica,sans-Serif" font-size="10.00">wmtk::components::internal</text>
<text text-anchor="middle" x="394.5" y="-398" font-family="Helvetica,sans-Serif" font-size="10.00">::isotropic_remeshing</text>
</a>
</g>
</g>
<!-- Node2&#45;&gt;Node4 -->
<g id="edge11" class="edge">
<title>Node2&#45;&gt;Node4</title>
<path fill="none" stroke="midnightblue" d="M1013.34,-273.9C993.32,-304.09 954.33,-354.77 906,-377 763.86,-442.38 575.46,-431.48 471.88,-418.35"/>
<polygon fill="midnightblue" stroke="midnightblue" points="1016.45,-275.54 1018.94,-265.24 1010.57,-271.74 1016.45,-275.54"/>
</g>
<!-- Node9 -->
<g id="node9" class="node">
<title>Node9</title>
<g id="a_node9"><a xlink:href="classwmtk_1_1operations_1_1_edge_collapse.html#a64450fa42ff00ebaba65ddca6e94c605" target="_top" xlink:title=" ">
<polygon fill="none" stroke="black" points="726.5,-260 726.5,-290 900.5,-290 900.5,-260 726.5,-260"/>
<text text-anchor="start" x="734.5" y="-278" font-family="Helvetica,sans-Serif" font-size="10.00">wmtk::operations::EdgeCollapse</text>
<text text-anchor="middle" x="813.5" y="-267" font-family="Helvetica,sans-Serif" font-size="10.00">::EdgeCollapse</text>
</a>
</g>
</g>
<!-- Node2&#45;&gt;Node9 -->
<g id="edge8" class="edge">
<title>Node2&#45;&gt;Node9</title>
<path fill="none" stroke="midnightblue" d="M938.79,-260.45C926.2,-261.92 913.27,-263.43 900.74,-264.9"/>
<polygon fill="midnightblue" stroke="midnightblue" points="939.28,-263.91 948.8,-259.27 938.46,-256.96 939.28,-263.91"/>
</g>
<!-- Node10 -->
<g id="node10" class="node">
<title>Node10</title>
<g id="a_node10"><a xlink:href="classwmtk_1_1operations_1_1_edge_split.html#a81bb31c49a0200610f79af9a5253a11d" target="_top" xlink:title=" ">
<polygon fill="none" stroke="black" points="736.5,-211 736.5,-241 890.5,-241 890.5,-211 736.5,-211"/>
<text text-anchor="start" x="744.5" y="-229" font-family="Helvetica,sans-Serif" font-size="10.00">wmtk::operations::EdgeSplit</text>
<text text-anchor="middle" x="813.5" y="-218" font-family="Helvetica,sans-Serif" font-size="10.00">::EdgeSplit</text>
</a>
</g>
</g>
<!-- Node2&#45;&gt;Node10 -->
<g id="edge9" class="edge">
<title>Node2&#45;&gt;Node10</title>
<path fill="none" stroke="midnightblue" d="M938.46,-239.93C922.59,-238.15 906.19,-236.31 890.73,-234.57"/>
<polygon fill="midnightblue" stroke="midnightblue" points="938.48,-243.46 948.8,-241.1 939.26,-236.5 938.48,-243.46"/>
</g>
<!-- Node11 -->
<g id="node11" class="node">
<title>Node11</title>
<g id="a_node11"><a xlink:href="namespacewmtk_1_1components.html#acacc2b8923eea46d8d2c892cf3decfe8" target="_top" xlink:title=" ">
<polygon fill="none" stroke="black" points="747.5,-162 747.5,-192 879.5,-192 879.5,-162 747.5,-162"/>
<text text-anchor="start" x="755.5" y="-180" font-family="Helvetica,sans-Serif" font-size="10.00">wmtk::components::get</text>
<text text-anchor="middle" x="813.5" y="-169" font-family="Helvetica,sans-Serif" font-size="10.00">_all_meshes</text>
</a>
</g>
</g>
<!-- Node2&#45;&gt;Node11 -->
<g id="edge10" class="edge">
<title>Node2&#45;&gt;Node11</title>
<path fill="none" stroke="midnightblue" d="M983.16,-231.02C960.29,-221.67 931.89,-210.6 906,-202 895.53,-198.52 884.27,-195.15 873.36,-192.07"/>
<polygon fill="midnightblue" stroke="midnightblue" points="982.03,-234.33 992.61,-234.9 984.69,-227.86 982.03,-234.33"/>
</g>
<!-- Node12 -->
<g id="node12" class="node">
<title>Node12</title>
<g id="a_node12"><a xlink:href="classwmtk_1_1operations_1_1_operation.html#a882eca46d5f1bc42c25dde3baf0a8297" target="_top" xlink:title=" ">
<polygon fill="none" stroke="black" points="735.5,-309 735.5,-339 891.5,-339 891.5,-309 735.5,-309"/>
<text text-anchor="start" x="743.5" y="-327" font-family="Helvetica,sans-Serif" font-size="10.00">wmtk::operations::Operation</text>
<text text-anchor="middle" x="813.5" y="-316" font-family="Helvetica,sans-Serif" font-size="10.00">::reserve_enough_simplices</text>
</a>
</g>
</g>
<!-- Node2&#45;&gt;Node12 -->
<g id="edge12" class="edge">
<title>Node2&#45;&gt;Node12</title>
<path fill="none" stroke="midnightblue" d="M985.57,-269.01C962.35,-279 932.9,-291 906,-300 896.5,-303.18 886.33,-306.2 876.35,-308.97"/>
<polygon fill="midnightblue" stroke="midnightblue" points="987.01,-272.2 994.79,-265.01 984.22,-265.78 987.01,-272.2"/>
</g>
<!-- Node22 -->
<g id="node22" class="node">
<title>Node22</title>
<g id="a_node22"><a xlink:href="classwmtk_1_1multimesh_1_1attribute_1_1_use_parent_scope_r_a_i_i.html#ab6f91c3184ec10524c2da65171bafcbf" target="_top" xlink:title=" ">
<polygon fill="none" stroke="black" points="725.5,-101.5 725.5,-142.5 901.5,-142.5 901.5,-101.5 725.5,-101.5"/>
<text text-anchor="start" x="733.5" y="-130.5" font-family="Helvetica,sans-Serif" font-size="10.00">wmtk::multimesh::attribute</text>
<text text-anchor="start" x="733.5" y="-119.5" font-family="Helvetica,sans-Serif" font-size="10.00">::UseParentScopeRAII::UseParent</text>
<text text-anchor="middle" x="813.5" y="-108.5" font-family="Helvetica,sans-Serif" font-size="10.00">ScopeRAII</text>
</a>
</g>
</g>
<!-- Node2&#45;&gt;Node22 -->
<g id="edge24" class="edge">
<title>Node2&#45;&gt;Node22</title>
<path fill="none" stroke="midnightblue" d="M1005.4,-228.02C982.13,-206.4 943.99,-173.72 906,-153 898.93,-149.15 891.3,-145.65 883.56,-142.51"/>
<polygon fill="midnightblue" stroke="midnightblue" points="1003.02,-230.59 1012.7,-234.89 1007.82,-225.49 1003.02,-230.59"/>
</g>
<!-- Node23 -->
<g id="node23" class="node">
<title>Node23</title>
<g id="a_node23"><a xlink:href="classwmtk_1_1multimesh_1_1attribute_1_1_use_parent_scope_r_a_i_i.html#a6a2deaf9e4b3bc43db8ba58d396b08a3" target="_top" xlink:title=" ">
<polygon fill="none" stroke="black" points="721,-41.5 721,-82.5 906,-82.5 906,-41.5 721,-41.5"/>
<text text-anchor="start" x="729" y="-70.5" font-family="Helvetica,sans-Serif" font-size="10.00">wmtk::multimesh::attribute</text>
<text text-anchor="start" x="729" y="-59.5" font-family="Helvetica,sans-Serif" font-size="10.00">::UseParentScopeRAII::~UseParent</text>
<text text-anchor="middle" x="813.5" y="-48.5" font-family="Helvetica,sans-Serif" font-size="10.00">ScopeRAII</text>
</a>
</g>
</g>
<!-- Node2&#45;&gt;Node23 -->
<g id="edge25" class="edge">
<title>Node2&#45;&gt;Node23</title>
<path fill="none" stroke="midnightblue" d="M1015.62,-226.05C996.6,-191.53 956.97,-128.01 906,-92 901.08,-88.53 895.74,-85.44 890.19,-82.69"/>
<polygon fill="midnightblue" stroke="midnightblue" points="1012.6,-227.83 1020.43,-234.97 1018.76,-224.51 1012.6,-227.83"/>
</g>
<!-- Node3&#45;&gt;Node4 -->
<g id="edge3" class="edge">
<title>Node3&#45;&gt;Node4</title>
<path fill="none" stroke="midnightblue" d="M539.85,-379.37C518.46,-383.32 494.21,-387.79 471.78,-391.93"/>
<polygon fill="midnightblue" stroke="midnightblue" points="540.58,-382.8 549.78,-377.54 539.31,-375.91 540.58,-382.8"/>
</g>
<!-- Node8 -->
<g id="node8" class="node">
<title>Node8</title>
<g id="a_node8"><a xlink:href="namespacewmtk_1_1components.html#a503af91b8a2d86f4b9af9dbded55bec0" target="_top" xlink:title=" ">
<polygon fill="none" stroke="black" points="305,-352.5 305,-371.5 484,-371.5 484,-352.5 305,-352.5"/>
<text text-anchor="middle" x="394.5" y="-359.5" font-family="Helvetica,sans-Serif" font-size="10.00">wmtk::components::wildmeshing</text>
</a>
</g>
</g>
<!-- Node3&#45;&gt;Node8 -->
<g id="edge7" class="edge">
<title>Node3&#45;&gt;Node8</title>
<path fill="none" stroke="midnightblue" d="M509.58,-365.32C501.15,-365.08 492.63,-364.83 484.23,-364.58"/>
<polygon fill="midnightblue" stroke="midnightblue" points="509.69,-368.83 519.79,-365.62 509.89,-361.83 509.69,-368.83"/>
</g>
<!-- Node5 -->
<g id="node5" class="node">
<title>Node5</title>
<g id="a_node5"><a xlink:href="namespacewmtk_1_1components.html#a1a5ffb0788dc02e8b355a7a1ad447c7f" target="_top" xlink:title=" ">
<polygon fill="none" stroke="black" points="109,-413 109,-443 267,-443 267,-413 109,-413"/>
<text text-anchor="start" x="117" y="-431" font-family="Helvetica,sans-Serif" font-size="10.00">wmtk::components::isotropic</text>
<text text-anchor="middle" x="188" y="-420" font-family="Helvetica,sans-Serif" font-size="10.00">_remeshing</text>
</a>
</g>
</g>
<!-- Node4&#45;&gt;Node5 -->
<g id="edge4" class="edge">
<title>Node4&#45;&gt;Node5</title>
<path fill="none" stroke="midnightblue" d="M307.28,-415.28C294,-416.7 280.35,-418.17 267.26,-419.58"/>
<polygon fill="midnightblue" stroke="midnightblue" points="307.78,-418.74 317.35,-414.19 307.03,-411.78 307.78,-418.74"/>
</g>
<!-- Node7 -->
<g id="node7" class="node">
<title>Node7</title>
<g id="a_node7"><a xlink:href="test__component__isotropic__remeshing_8cpp.html#a51ae85bc413e9940267e8a366e0bcc9f" target="_top" xlink:title=" ">
<polygon fill="none" stroke="black" points="152.5,-374.5 152.5,-393.5 223.5,-393.5 223.5,-374.5 152.5,-374.5"/>
<text text-anchor="middle" x="188" y="-381.5" font-family="Helvetica,sans-Serif" font-size="10.00">TEST_CASE</text>
</a>
</g>
</g>
<!-- Node4&#45;&gt;Node7 -->
<g id="edge6" class="edge">
<title>Node4&#45;&gt;Node7</title>
<path fill="none" stroke="midnightblue" d="M307.04,-396.7C277.63,-393.53 246.43,-390.18 223.5,-387.71"/>
<polygon fill="midnightblue" stroke="midnightblue" points="307.03,-400.22 317.35,-397.81 307.78,-393.26 307.03,-400.22"/>
</g>
<!-- Node6 -->
<g id="node6" class="node">
<title>Node6</title>
<g id="a_node6"><a xlink:href="test__component__isotropic__remeshing_8cpp.html#a64dc4992576434e79fdb0838f9092ab8" target="_top" xlink:title=" ">
<polygon fill="none" stroke="black" points="0,-418.5 0,-437.5 71,-437.5 71,-418.5 0,-418.5"/>
<text text-anchor="middle" x="35.5" y="-425.5" font-family="Helvetica,sans-Serif" font-size="10.00">TEST_CASE</text>
</a>
</g>
</g>
<!-- Node5&#45;&gt;Node6 -->
<g id="edge5" class="edge">
<title>Node5&#45;&gt;Node6</title>
<path fill="none" stroke="midnightblue" d="M98.55,-428C88.93,-428 79.6,-428 71.22,-428"/>
<polygon fill="midnightblue" stroke="midnightblue" points="98.66,-431.5 108.66,-428 98.66,-424.5 98.66,-431.5"/>
</g>
<!-- Node13 -->
<g id="node13" class="node">
<title>Node13</title>
<g id="a_node13"><a xlink:href="classwmtk_1_1_scheduler.html#a246ccf6605333ebb7c020aa8fae1e959" target="_top" xlink:title=" ">
<polygon fill="none" stroke="black" points="542.5,-309 542.5,-339 662.5,-339 662.5,-309 542.5,-309"/>
<text text-anchor="start" x="550.5" y="-327" font-family="Helvetica,sans-Serif" font-size="10.00">wmtk::Scheduler::run</text>
<text text-anchor="middle" x="602.5" y="-316" font-family="Helvetica,sans-Serif" font-size="10.00">_operation_on_all</text>
</a>
</g>
</g>
<!-- Node12&#45;&gt;Node13 -->
<g id="edge13" class="edge">
<title>Node12&#45;&gt;Node13</title>
<path fill="none" stroke="midnightblue" d="M725.06,-324C704.07,-324 682.14,-324 662.77,-324"/>
<polygon fill="midnightblue" stroke="midnightblue" points="725.27,-327.5 735.27,-324 725.27,-320.5 725.27,-327.5"/>
</g>
<!-- Node13&#45;&gt;Node4 -->
<g id="edge14" class="edge">
<title>Node13&#45;&gt;Node4</title>
<path fill="none" stroke="midnightblue" d="M533.01,-342.58C528.52,-344.54 524.14,-346.67 520,-349 501.34,-359.49 502.78,-370.72 484,-381 477,-384.83 469.36,-388.12 461.59,-390.94"/>
<polygon fill="midnightblue" stroke="midnightblue" points="534.39,-345.8 542.36,-338.82 531.78,-339.31 534.39,-345.8"/>
</g>
<!-- Node13&#45;&gt;Node8 -->
<g id="edge23" class="edge">
<title>Node13&#45;&gt;Node8</title>
<path fill="none" stroke="midnightblue" d="M532.4,-336.75C504.55,-341.88 472.98,-347.71 447.18,-352.47"/>
<polygon fill="midnightblue" stroke="midnightblue" points="533.27,-340.15 542.47,-334.89 532,-333.26 533.27,-340.15"/>
</g>
<!-- Node14 -->
<g id="node14" class="node">
<title>Node14</title>
<g id="a_node14"><a xlink:href="classwmtk_1_1components_1_1internal_1_1_marching.html#a9e2d1de9a85f917baa06fd06feffe8f3" target="_top" xlink:title=" ">
<polygon fill="none" stroke="black" points="317.5,-216 317.5,-246 471.5,-246 471.5,-216 317.5,-216"/>
<text text-anchor="start" x="325.5" y="-234" font-family="Helvetica,sans-Serif" font-size="10.00">wmtk::components::internal</text>
<text text-anchor="middle" x="394.5" y="-223" font-family="Helvetica,sans-Serif" font-size="10.00">::Marching::process</text>
</a>
</g>
</g>
<!-- Node13&#45;&gt;Node14 -->
<g id="edge15" class="edge">
<title>Node13&#45;&gt;Node14</title>
<path fill="none" stroke="midnightblue" d="M570.75,-303.35C547.67,-288.57 514.86,-269.04 484,-256 475.32,-252.33 465.95,-249.03 456.65,-246.11"/>
<polygon fill="midnightblue" stroke="midnightblue" points="569.11,-306.46 579.41,-308.96 572.92,-300.58 569.11,-306.46"/>
</g>
<!-- Node17 -->
<g id="node17" class="node">
<title>Node17</title>
<g id="a_node17"><a xlink:href="classwmtk_1_1components_1_1internal_1_1_regular_space.html#af9adef544fff10ba9257d128fd13393c" target="_top" xlink:title=" ">
<polygon fill="none" stroke="black" points="309.5,-167 309.5,-197 479.5,-197 479.5,-167 309.5,-167"/>
<text text-anchor="start" x="317.5" y="-185" font-family="Helvetica,sans-Serif" font-size="10.00">wmtk::components::internal</text>
<text text-anchor="middle" x="394.5" y="-174" font-family="Helvetica,sans-Serif" font-size="10.00">::RegularSpace::regularize_tags</text>
</a>
</g>
</g>
<!-- Node13&#45;&gt;Node17 -->
<g id="edge18" class="edge">
<title>Node13&#45;&gt;Node17</title>
<path fill="none" stroke="midnightblue" d="M584.13,-300.61C563.23,-274.09 525.7,-231.4 484,-207 477.39,-203.13 470.14,-199.83 462.73,-197.03"/>
<polygon fill="midnightblue" stroke="midnightblue" points="581.43,-302.84 590.32,-308.6 586.97,-298.55 581.43,-302.84"/>
</g>
<!-- Node20 -->
<g id="node20" class="node">
<title>Node20</title>
<g id="a_node20"><a xlink:href="test__component__isotropic__remeshing_8cpp.html#adf1e479866f5fbf4faa9038ece31a877" target="_top" xlink:title=" ">
<polygon fill="none" stroke="black" points="359,-314.5 359,-333.5 430,-333.5 430,-314.5 359,-314.5"/>
<text text-anchor="middle" x="394.5" y="-321.5" font-family="Helvetica,sans-Serif" font-size="10.00">TEST_CASE</text>
</a>
</g>
</g>
<!-- Node13&#45;&gt;Node20 -->
<g id="edge21" class="edge">
<title>Node13&#45;&gt;Node20</title>
<path fill="none" stroke="midnightblue" d="M532.46,-324C498.05,-324 457.94,-324 430.06,-324"/>
<polygon fill="midnightblue" stroke="midnightblue" points="532.47,-327.5 542.47,-324 532.47,-320.5 532.47,-327.5"/>
</g>
<!-- Node21 -->
<g id="node21" class="node">
<title>Node21</title>
<g id="a_node21"><a xlink:href="namespacewmtk_1_1components.html#ad26e15d638e76cf767b43e34d5d68465" target="_top" xlink:title=" ">
<polygon fill="none" stroke="black" points="317.5,-265 317.5,-295 471.5,-295 471.5,-265 317.5,-265"/>
<text text-anchor="start" x="325.5" y="-283" font-family="Helvetica,sans-Serif" font-size="10.00">wmtk::components::triangle</text>
<text text-anchor="middle" x="394.5" y="-272" font-family="Helvetica,sans-Serif" font-size="10.00">_insertion</text>
</a>
</g>
</g>
<!-- Node13&#45;&gt;Node21 -->
<g id="edge22" class="edge">
<title>Node13&#45;&gt;Node21</title>
<path fill="none" stroke="midnightblue" d="M532.47,-309.25C511.03,-304.68 487.38,-299.62 465.85,-295.03"/>
<polygon fill="midnightblue" stroke="midnightblue" points="531.96,-312.73 542.47,-311.39 533.42,-305.88 531.96,-312.73"/>
</g>
<!-- Node15 -->
<g id="node15" class="node">
<title>Node15</title>
<g id="a_node15"><a xlink:href="namespacewmtk_1_1components.html#a2089f999b4072674bda24b29e86257e1" target="_top" xlink:title="Perform maching tetrahedra/triangles.">
<polygon fill="none" stroke="black" points="107,-258.5 107,-277.5 269,-277.5 269,-258.5 107,-258.5"/>
<text text-anchor="middle" x="188" y="-265.5" font-family="Helvetica,sans-Serif" font-size="10.00">wmtk::components::marching</text>
</a>
</g>
</g>
<!-- Node14&#45;&gt;Node15 -->
<g id="edge16" class="edge">
<title>Node14&#45;&gt;Node15</title>
<path fill="none" stroke="midnightblue" d="M307.5,-246.56C285.13,-250.61 261.69,-254.85 241.62,-258.48"/>
<polygon fill="midnightblue" stroke="midnightblue" points="308.13,-250 317.35,-244.78 306.89,-243.11 308.13,-250"/>
</g>
<!-- Node16 -->
<g id="node16" class="node">
<title>Node16</title>
<g id="a_node16"><a xlink:href="test__component__marching_8cpp.html#af20fbc246d1ad31be8d9ec0011ac52d6" target="_top" xlink:title=" ">
<polygon fill="none" stroke="black" points="152.5,-220.5 152.5,-239.5 223.5,-239.5 223.5,-220.5 152.5,-220.5"/>
<text text-anchor="middle" x="188" y="-227.5" font-family="Helvetica,sans-Serif" font-size="10.00">TEST_CASE</text>
</a>
</g>
</g>
<!-- Node14&#45;&gt;Node16 -->
<g id="edge17" class="edge">
<title>Node14&#45;&gt;Node16</title>
<path fill="none" stroke="midnightblue" d="M307.04,-230.58C277.63,-230.43 246.43,-230.28 223.5,-230.17"/>
<polygon fill="midnightblue" stroke="midnightblue" points="307.33,-234.08 317.35,-230.63 307.37,-227.08 307.33,-234.08"/>
</g>
<!-- Node18 -->
<g id="node18" class="node">
<title>Node18</title>
<g id="a_node18"><a xlink:href="namespacewmtk_1_1components.html#a899899fc78b0d9575cf5996f9d10d012" target="_top" xlink:title=" ">
<polygon fill="none" stroke="black" points="112.5,-169 112.5,-199 263.5,-199 263.5,-169 112.5,-169"/>
<text text-anchor="start" x="120.5" y="-187" font-family="Helvetica,sans-Serif" font-size="10.00">wmtk::components::regular</text>
<text text-anchor="middle" x="188" y="-176" font-family="Helvetica,sans-Serif" font-size="10.00">_space</text>
</a>
</g>
</g>
<!-- Node17&#45;&gt;Node18 -->
<g id="edge19" class="edge">
<title>Node17&#45;&gt;Node18</title>
<path fill="none" stroke="midnightblue" d="M299.4,-182.92C287.38,-183.04 275.22,-183.16 263.57,-183.27"/>
<polygon fill="midnightblue" stroke="midnightblue" points="299.47,-186.42 309.44,-182.82 299.4,-179.42 299.47,-186.42"/>
</g>
<!-- Node19 -->
<g id="node19" class="node">
<title>Node19</title>
<g id="a_node19"><a xlink:href="test__component__regular__space_8cpp.html#a5e69783b3ce0c074477e3081ab8cf658" target="_top" xlink:title=" ">
<polygon fill="none" stroke="black" points="152.5,-130.5 152.5,-149.5 223.5,-149.5 223.5,-130.5 152.5,-130.5"/>
<text text-anchor="middle" x="188" y="-137.5" font-family="Helvetica,sans-Serif" font-size="10.00">TEST_CASE</text>
</a>
</g>
</g>
<!-- Node17&#45;&gt;Node19 -->
<g id="edge20" class="edge">
<title>Node17&#45;&gt;Node19</title>
<path fill="none" stroke="midnightblue" d="M310.11,-164.87C279.9,-158.67 247.42,-152 223.71,-147.13"/>
<polygon fill="midnightblue" stroke="midnightblue" points="309.75,-168.37 320.25,-166.96 311.16,-161.52 309.75,-168.37"/>
</g>
<!-- Node25 -->
<g id="node25" class="node">
<title>Node25</title>
<g id="a_node25"><a xlink:href="classwmtk_1_1_multi_mesh_link_condition_invariant.html#a57a1a58849c2b75bb85c3f8e9d09ea43" target="_top" xlink:title=" ">
<polygon fill="none" stroke="black" points="1359,-164 1359,-194 1527,-194 1527,-164 1359,-164"/>
<text text-anchor="start" x="1367" y="-182" font-family="Helvetica,sans-Serif" font-size="10.00">wmtk::MultiMeshLinkCondition</text>
<text text-anchor="middle" x="1443" y="-171" font-family="Helvetica,sans-Serif" font-size="10.00">Invariant::before</text>
</a>
</g>
</g>
<!-- Node24&#45;&gt;Node25 -->
<g id="edge27" class="edge">
<title>Node24&#45;&gt;Node25</title>
<path fill="none" stroke="midnightblue" d="M1564.09,-157.17C1551.66,-159.43 1538.92,-161.74 1526.61,-163.98"/>
<polygon fill="midnightblue" stroke="midnightblue" points="1564.77,-160.6 1573.99,-155.37 1563.52,-153.71 1564.77,-160.6"/>
</g>
<!-- Node26 -->
<g id="node26" class="node">
<title>Node26</title>
<g id="a_node26"><a xlink:href="classwmtk_1_1_multi_mesh_map_valid_invariant.html#a0e3e660f15b5ae131f0a5b59086192f0" target="_top" xlink:title=" ">
<polygon fill="none" stroke="black" points="1348,-115 1348,-145 1538,-145 1538,-115 1348,-115"/>
<text text-anchor="start" x="1356" y="-133" font-family="Helvetica,sans-Serif" font-size="10.00">wmtk::MultiMeshMapValidInvariant</text>
<text text-anchor="middle" x="1443" y="-122" font-family="Helvetica,sans-Serif" font-size="10.00">::before</text>
</a>
</g>
</g>
<!-- Node24&#45;&gt;Node26 -->
<g id="edge28" class="edge">
<title>Node24&#45;&gt;Node26</title>
<path fill="none" stroke="midnightblue" d="M1563.76,-136.3C1555.31,-135.86 1546.73,-135.41 1538.24,-134.96"/>
<polygon fill="midnightblue" stroke="midnightblue" points="1563.82,-139.81 1573.99,-136.84 1564.18,-132.82 1563.82,-139.81"/>
</g>
<!-- Node27 -->
<g id="node27" class="node">
<title>Node27</title>
<g id="a_node27"><a xlink:href="namespacewmtk_1_1operations_1_1utils.html#ab5e8f949ae96f6b2930b99ada4bbbdd2" target="_top" xlink:title=" ">
<polygon fill="none" stroke="black" points="1365.5,-66 1365.5,-96 1520.5,-96 1520.5,-66 1365.5,-66"/>
<text text-anchor="start" x="1373.5" y="-84" font-family="Helvetica,sans-Serif" font-size="10.00">wmtk::operations::utils</text>
<text text-anchor="middle" x="1443" y="-73" font-family="Helvetica,sans-Serif" font-size="10.00">::multi_mesh_edge_collapse</text>
</a>
</g>
</g>
<!-- Node24&#45;&gt;Node27 -->
<g id="edge29" class="edge">
<title>Node24&#45;&gt;Node27</title>
<path fill="none" stroke="midnightblue" d="M1577,-117.45C1564.01,-113.55 1550.63,-109.6 1538,-106 1526.31,-102.67 1513.76,-99.23 1501.75,-96.01"/>
<polygon fill="midnightblue" stroke="midnightblue" points="1576.25,-120.88 1586.83,-120.42 1578.27,-114.18 1576.25,-120.88"/>
</g>
<!-- Node30 -->
<g id="node30" class="node">
<title>Node30</title>
<g id="a_node30"><a xlink:href="namespacewmtk_1_1operations_1_1utils.html#a3e94d698922497c091993a8c5c7cd3a9" target="_top" xlink:title=" ">
<polygon fill="none" stroke="black" points="1375,-14 1375,-44 1511,-44 1511,-14 1375,-14"/>
<text text-anchor="start" x="1383" y="-32" font-family="Helvetica,sans-Serif" font-size="10.00">wmtk::operations::utils</text>
<text text-anchor="middle" x="1443" y="-21" font-family="Helvetica,sans-Serif" font-size="10.00">::multi_mesh_edge_split</text>
</a>
</g>
</g>
<!-- Node24&#45;&gt;Node30 -->
<g id="edge32" class="edge">
<title>Node24&#45;&gt;Node30</title>
<path fill="none" stroke="midnightblue" d="M1579.52,-115.05C1577.62,-113.76 1575.77,-112.41 1574,-111 1551.44,-93.02 1561.2,-74.14 1538,-57 1530.06,-51.13 1520.89,-46.49 1511.45,-42.81"/>
<polygon fill="midnightblue" stroke="midnightblue" points="1577.83,-118.12 1588.19,-120.35 1581.48,-112.15 1577.83,-118.12"/>
</g>
<!-- Node28 -->
<g id="node28" class="node">
<title>Node28</title>
<g id="a_node28"><a xlink:href="namespacewmtk_1_1operations_1_1utils.html#a0d925c29e22ee1b95307157a318b8914" target="_top" xlink:title=" ">
<polygon fill="none" stroke="black" points="1154.5,-63.5 1154.5,-104.5 1309.5,-104.5 1309.5,-63.5 1154.5,-63.5"/>
<text text-anchor="start" x="1162.5" y="-92.5" font-family="Helvetica,sans-Serif" font-size="10.00">wmtk::operations::utils</text>
<text text-anchor="start" x="1162.5" y="-81.5" font-family="Helvetica,sans-Serif" font-size="10.00">::multi_mesh_edge_collapse</text>
<text text-anchor="middle" x="1232" y="-70.5" font-family="Helvetica,sans-Serif" font-size="10.00">_with_modified_simplices</text>
</a>
</g>
</g>
<!-- Node27&#45;&gt;Node28 -->
<g id="edge30" class="edge">
<title>Node27&#45;&gt;Node28</title>
<path fill="none" stroke="midnightblue" d="M1355.03,-82.25C1339.96,-82.46 1324.39,-82.69 1309.63,-82.9"/>
<polygon fill="midnightblue" stroke="midnightblue" points="1355.41,-85.74 1365.36,-82.1 1355.31,-78.74 1355.41,-85.74"/>
</g>
<!-- Node29 -->
<g id="node29" class="node">
<title>Node29</title>
<g id="a_node29"><a xlink:href="classwmtk_1_1operations_1_1_edge_collapse.html#a8d52e8ef34eb9d5b32c8d290270fe5d3" target="_top" xlink:title="returns an empty vector in case of failure">
<polygon fill="none" stroke="black" points="942,-69 942,-99 1116,-99 1116,-69 942,-69"/>
<text text-anchor="start" x="950" y="-87" font-family="Helvetica,sans-Serif" font-size="10.00">wmtk::operations::EdgeCollapse</text>
<text text-anchor="middle" x="1029" y="-76" font-family="Helvetica,sans-Serif" font-size="10.00">::execute</text>
</a>
</g>
</g>
<!-- Node28&#45;&gt;Node29 -->
<g id="edge31" class="edge">
<title>Node28&#45;&gt;Node29</title>
<path fill="none" stroke="midnightblue" d="M1144.35,-84C1134.98,-84 1125.45,-84 1116.09,-84"/>
<polygon fill="midnightblue" stroke="midnightblue" points="1144.44,-87.5 1154.44,-84 1144.44,-80.5 1144.44,-87.5"/>
</g>
<!-- Node31 -->
<g id="node31" class="node">
<title>Node31</title>
<g id="a_node31"><a xlink:href="namespacewmtk_1_1operations_1_1utils.html#a4a73b2cae74aa12fe98de292e60adf3b" target="_top" xlink:title=" ">
<polygon fill="none" stroke="black" points="1160.5,-3.5 1160.5,-44.5 1303.5,-44.5 1303.5,-3.5 1160.5,-3.5"/>
<text text-anchor="start" x="1168.5" y="-32.5" font-family="Helvetica,sans-Serif" font-size="10.00">wmtk::operations::utils</text>
<text text-anchor="start" x="1168.5" y="-21.5" font-family="Helvetica,sans-Serif" font-size="10.00">::multi_mesh_edge_split</text>
<text text-anchor="middle" x="1232" y="-10.5" font-family="Helvetica,sans-Serif" font-size="10.00">_with_modified_simplices</text>
</a>
</g>
</g>
<!-- Node30&#45;&gt;Node31 -->
<g id="edge33" class="edge">
<title>Node30&#45;&gt;Node31</title>
<path fill="none" stroke="midnightblue" d="M1364.46,-27.15C1344.57,-26.67 1323.28,-26.16 1303.75,-25.69"/>
<polygon fill="midnightblue" stroke="midnightblue" points="1364.64,-30.65 1374.72,-27.39 1364.81,-23.65 1364.64,-30.65"/>
</g>
<!-- Node32 -->
<g id="node32" class="node">
<title>Node32</title>
<g id="a_node32"><a xlink:href="classwmtk_1_1operations_1_1_edge_split.html#acf2afde09bd19955800804d11f7dfc2b" target="_top" xlink:title="returns an empty vector in case of failure">
<polygon fill="none" stroke="black" points="952,-9 952,-39 1106,-39 1106,-9 952,-9"/>
<text text-anchor="start" x="960" y="-27" font-family="Helvetica,sans-Serif" font-size="10.00">wmtk::operations::EdgeSplit</text>
<text text-anchor="middle" x="1029" y="-16" font-family="Helvetica,sans-Serif" font-size="10.00">::execute</text>
</a>
</g>
</g>
<!-- Node31&#45;&gt;Node32 -->
<g id="edge34" class="edge">
<title>Node31&#45;&gt;Node32</title>
<path fill="none" stroke="midnightblue" d="M1150.01,-24C1135.55,-24 1120.54,-24 1106.22,-24"/>
<polygon fill="midnightblue" stroke="midnightblue" points="1150.42,-27.5 1160.42,-24 1150.42,-20.5 1150.42,-27.5"/>
</g>
<!-- Node34 -->
<g id="node34" class="node">
<title>Node34</title>
<g id="a_node34"><a xlink:href="classwmtk_1_1multimesh_1_1_multi_mesh_visitor_executor.html#ad59739579a81676fc3ab172e80ce8550" target="_top" xlink:title=" ">
<polygon fill="none" stroke="black" points="1363,-213 1363,-243 1523,-243 1523,-213 1363,-213"/>
<text text-anchor="start" x="1371" y="-231" font-family="Helvetica,sans-Serif" font-size="10.00">wmtk::multimesh::MultiMesh</text>
<text text-anchor="middle" x="1443" y="-220" font-family="Helvetica,sans-Serif" font-size="10.00">VisitorExecutor::execute</text>
</a>
</g>
</g>
<!-- Node33&#45;&gt;Node34 -->
<g id="edge36" class="edge">
<title>Node33&#45;&gt;Node34</title>
<path fill="none" stroke="midnightblue" d="M1563.74,-218.83C1550.24,-219.87 1536.39,-220.93 1523.13,-221.94"/>
<polygon fill="midnightblue" stroke="midnightblue" points="1564.28,-222.3 1573.99,-218.05 1563.75,-215.32 1564.28,-222.3"/>
</g>
<!-- Node35 -->
<g id="node35" class="node">
<title>Node35</title>
<g id="a_node35"><a xlink:href="classwmtk_1_1multimesh_1_1_multi_mesh_visitor.html#ad96e498fcc27eeb8993f175015c864b4" target="_top" xlink:title=" ">
<polygon fill="none" stroke="black" points="1152,-213 1152,-243 1312,-243 1312,-213 1152,-213"/>
<text text-anchor="start" x="1160" y="-231" font-family="Helvetica,sans-Serif" font-size="10.00">wmtk::multimesh::MultiMesh</text>
<text text-anchor="middle" x="1232" y="-220" font-family="Helvetica,sans-Serif" font-size="10.00">Visitor::execute_mesh</text>
</a>
</g>
</g>
<!-- Node34&#45;&gt;Node35 -->
<g id="edge37" class="edge">
<title>Node34&#45;&gt;Node35</title>
<path fill="none" stroke="midnightblue" d="M1352.74,-228C1339.24,-228 1325.39,-228 1312.13,-228"/>
<polygon fill="midnightblue" stroke="midnightblue" points="1352.99,-231.5 1362.99,-228 1352.99,-224.5 1352.99,-231.5"/>
</g>
<!-- Node35&#45;&gt;Node2 -->
<g id="edge38" class="edge">
<title>Node35&#45;&gt;Node2</title>
<path fill="none" stroke="midnightblue" d="M1141.88,-237.75C1130.95,-238.95 1119.84,-240.17 1109.08,-241.34"/>
<polygon fill="midnightblue" stroke="midnightblue" points="1142.29,-241.23 1151.85,-236.66 1141.53,-234.27 1142.29,-241.23"/>
</g>
<!-- Node36&#45;&gt;Node30 -->
<g id="edge40" class="edge">
<title>Node36&#45;&gt;Node30</title>
<path fill="none" stroke="midnightblue" d="M1563.7,-24.42C1546.1,-25.09 1527.9,-25.79 1511.17,-26.43"/>
<polygon fill="midnightblue" stroke="midnightblue" points="1564.13,-27.9 1573.99,-24.02 1563.86,-20.91 1564.13,-27.9"/>
</g>
<!-- Node37&#45;&gt;Node27 -->
<g id="edge42" class="edge">
<title>Node37&#45;&gt;Node27</title>
<path fill="none" stroke="midnightblue" d="M1563.66,-81C1549.36,-81 1534.67,-81 1520.7,-81"/>
<polygon fill="midnightblue" stroke="midnightblue" points="1563.99,-84.5 1573.99,-81 1563.99,-77.5 1563.99,-84.5"/>
</g>
<!-- Node37&#45;&gt;Node30 -->
<g id="edge43" class="edge">
<title>Node37&#45;&gt;Node30</title>
<path fill="none" stroke="midnightblue" d="M1564.19,-58.9C1544.08,-53.9 1523.18,-48.7 1504.55,-44.07"/>
<polygon fill="midnightblue" stroke="midnightblue" points="1563.44,-62.32 1573.99,-61.34 1565.13,-55.53 1563.44,-62.32"/>
</g>
</g>
</svg>
        <g id="navigator" transform="translate(0 0)" fill="#404254">
                <rect fill="#f2f5e9" fill-opacity="0.5" stroke="#606060" stroke-width=".5" x="0" y="0" width="60" height="60"/>
                <use id="zoomplus" xlink:href="#zoomPlus" x="17" y="9" onmousedown="handleZoom(evt,'in')"/>
                <use id="zoomminus" xlink:href="#zoomMin" x="42" y="9" onmousedown="handleZoom(evt,'out')"/>
                <use id="reset" xlink:href="#resetDef" x="30" y="36" onmousedown="handleReset()"/>
                <g id="arrowUp" xlink:href="#dirArrow" transform="translate(30 24)" onmousedown="handlePan(0,-1)">
                  <use xlink:href="#rim" fill="#404040">
                        <set attributeName="fill" to="#808080" begin="arrowUp.mouseover" end="arrowUp.mouseout"/>
                  </use>
                  <path fill="none" stroke="white" stroke-width="1.5" d="M0,-3.0v7 M-2.5,-0.5L0,-3.0L2.5,-0.5"/>
                </g>
                <g id="arrowRight" xlink:href="#dirArrow" transform="rotate(90) translate(36 -43)" onmousedown="handlePan(1,0)">
                  <use xlink:href="#rim" fill="#404040">
                        <set attributeName="fill" to="#808080" begin="arrowRight.mouseover" end="arrowRight.mouseout"/>
                  </use>
                  <path fill="none" stroke="white" stroke-width="1.5" d="M0,-3.0v7 M-2.5,-0.5L0,-3.0L2.5,-0.5"/>
                </g>
                <g id="arrowDown" xlink:href="#dirArrow" transform="rotate(180) translate(-30 -48)" onmousedown="handlePan(0,1)">
                  <use xlink:href="#rim" fill="#404040">
                        <set attributeName="fill" to="#808080" begin="arrowDown.mouseover" end="arrowDown.mouseout"/>
                  </use>
                  <path fill="none" stroke="white" stroke-width="1.5" d="M0,-3.0v7 M-2.5,-0.5L0,-3.0L2.5,-0.5"/>
                </g>
                <g id="arrowLeft" xlink:href="#dirArrow" transform="rotate(270) translate(-36 17)" onmousedown="handlePan(-1,0)">
                  <use xlink:href="#rim" fill="#404040">
                        <set attributeName="fill" to="#808080" begin="arrowLeft.mouseover" end="arrowLeft.mouseout"/>
                  </use>
                  <path fill="none" stroke="white" stroke-width="1.5" d="M0,-3.0v7 M-2.5,-0.5L0,-3.0L2.5,-0.5"/>
                </g>
        </g>
        <svg viewBox="0 0 15 15" width="100%" height="30px" preserveAspectRatio="xMaxYMin meet">
         <g id="arrow_out" transform="scale(0.3 0.3)">
          <a xlink:href="namespacewmtk_1_1utils_1_1metaprogramming_aa5a891c5f82fc2a28e4fbdfc325b46f0_icgraph_org.svg" target="_base">
           <rect id="button" ry="5" rx="5" y="6" x="6" height="38" width="38"
                fill="#f2f5e9" fill-opacity="0.5" stroke="#606060" stroke-width="1.0"/>
           <path id="arrow"
             d="M 11.500037,31.436501 C 11.940474,20.09759 22.043105,11.32322 32.158766,21.979434 L 37.068811,17.246167 C 37.068811,17.246167 37.088388,32 37.088388,32 L 22.160133,31.978069 C 22.160133,31.978069 26.997745,27.140456 26.997745,27.140456 C 18.528582,18.264221 13.291696,25.230495 11.500037,31.436501 z"
             style="fill:#404040;"/>
          </a>
         </g>
        </svg>
</svg>
