<?xml version="1.0" encoding="UTF-8" standalone="no"?>
<!DOCTYPE svg PUBLIC "-//W3C//DTD SVG 1.1//EN"
 "http://www.w3.org/Graphics/SVG/1.1/DTD/svg11.dtd">
<!-- Generated by graphviz version 2.43.0 (0)
 -->
<!-- Title: wmtk::mesh_utils::compute_face_normal_area_weighted Pages: 1 -->
<svg width="1449pt" height="576pt"
 viewBox="0.00 0.00 1449.00 575.50" xmlns="http://www.w3.org/2000/svg" xmlns:xlink="http://www.w3.org/1999/xlink">
<g id="graph0" class="graph" transform="scale(1 1) rotate(0) translate(4 571.5)">
<title>wmtk::mesh_utils::compute_face_normal_area_weighted</title>
<!-- Node1 -->
<g id="node1" class="node">
<title>Node1</title>
<g id="a_node1"><a xlink:title="compute area vector of face">
<polygon fill="#bfbfbf" stroke="black" points="0,-434 0,-464 160,-464 160,-434 0,-434"/>
<text text-anchor="start" x="8" y="-452" font-family="Helvetica,sans-Serif" font-size="10.00">wmtk::mesh_utils::compute</text>
<text text-anchor="middle" x="80" y="-441" font-family="Helvetica,sans-Serif" font-size="10.00">_face_normal_area_weighted</text>
</a>
</g>
</g>
<!-- Node2 -->
<g id="node2" class="node">
<title>Node2</title>
<g id="a_node2"><a xlink:href="classwmtk_1_1attribute_1_1_accessor.html#acbfbd5a98532cf295fdf6dd64066bb26" target="_top" xlink:title=" ">
<polygon fill="none" stroke="black" points="202.5,-478 202.5,-508 344.5,-508 344.5,-478 202.5,-478"/>
<text text-anchor="start" x="210.5" y="-496" font-family="Helvetica,sans-Serif" font-size="10.00">wmtk::attribute::Accessor</text>
<text text-anchor="middle" x="273.5" y="-485" font-family="Helvetica,sans-Serif" font-size="10.00">::const_vector_attribute</text>
</a>
</g>
</g>
<!-- Node1&#45;&gt;Node2 -->
<g id="edge1" class="edge">
<title>Node1&#45;&gt;Node2</title>
<path fill="none" stroke="midnightblue" d="M146.37,-464.02C162.76,-467.79 180.48,-471.86 197.31,-475.72"/>
<polygon fill="midnightblue" stroke="midnightblue" points="196.57,-479.15 207.1,-477.97 198.14,-472.32 196.57,-479.15"/>
</g>
<!-- Node3 -->
<g id="node3" class="node">
<title>Node3</title>
<g id="a_node3"><a xlink:href="classwmtk_1_1_tri_mesh.html#a79010f8baac63245558c846aafea10d0" target="_top" xlink:title=" ">
<polygon fill="none" stroke="black" points="196,-439.5 196,-458.5 351,-458.5 351,-439.5 196,-439.5"/>
<text text-anchor="middle" x="273.5" y="-446.5" font-family="Helvetica,sans-Serif" font-size="10.00">wmtk::TriMesh::switch_edge</text>
</a>
</g>
</g>
<!-- Node1&#45;&gt;Node3 -->
<g id="edge2" class="edge">
<title>Node1&#45;&gt;Node3</title>
<path fill="none" stroke="midnightblue" d="M160.27,-449C168.61,-449 177.12,-449 185.54,-449"/>
<polygon fill="midnightblue" stroke="midnightblue" points="185.75,-452.5 195.75,-449 185.75,-445.5 185.75,-452.5"/>
</g>
<!-- Node31 -->
<g id="node31" class="node">
<title>Node31</title>
<g id="a_node31"><a xlink:href="classwmtk_1_1_tri_mesh.html#ada97686704b8c13ca21853028a4074b8" target="_top" xlink:title=" ">
<polygon fill="none" stroke="black" points="211,-390 211,-420 336,-420 336,-390 211,-390"/>
<text text-anchor="start" x="219" y="-408" font-family="Helvetica,sans-Serif" font-size="10.00">wmtk::TriMesh::switch</text>
<text text-anchor="middle" x="273.5" y="-397" font-family="Helvetica,sans-Serif" font-size="10.00">_vertex</text>
</a>
</g>
</g>
<!-- Node1&#45;&gt;Node31 -->
<g id="edge42" class="edge">
<title>Node1&#45;&gt;Node31</title>
<path fill="none" stroke="midnightblue" d="M146.37,-433.98C164.01,-429.93 183.19,-425.52 201.15,-421.39"/>
<polygon fill="midnightblue" stroke="midnightblue" points="202.01,-424.79 210.98,-419.14 200.45,-417.96 202.01,-424.79"/>
</g>
<!-- Node4 -->
<g id="node4" class="node">
<title>Node4</title>
<g id="a_node4"><a xlink:href="classwmtk_1_1_tri_mesh.html#a17b808a46d1a31efc12d555e6721bd02" target="_top" xlink:title="switch the orientation of the Tuple of the given dimension">
<polygon fill="none" stroke="black" points="387,-412 387,-442 512,-442 512,-412 387,-412"/>
<text text-anchor="start" x="395" y="-430" font-family="Helvetica,sans-Serif" font-size="10.00">wmtk::TriMesh::switch</text>
<text text-anchor="middle" x="449.5" y="-419" font-family="Helvetica,sans-Serif" font-size="10.00">_tuple</text>
</a>
</g>
</g>
<!-- Node3&#45;&gt;Node4 -->
<g id="edge3" class="edge">
<title>Node3&#45;&gt;Node4</title>
<path fill="none" stroke="midnightblue" d="M349.81,-439.48C358.82,-438.34 368,-437.18 376.95,-436.05"/>
<polygon fill="midnightblue" stroke="midnightblue" points="377.46,-439.51 386.94,-434.78 376.58,-432.57 377.46,-439.51"/>
</g>
<!-- Node5 -->
<g id="node5" class="node">
<title>Node5</title>
<g id="a_node5"><a xlink:href="classwmtk_1_1_mesh.html#a4bcf7281ec7f3bdfd506ffc87fc092d3" target="_top" xlink:title=" ">
<polygon fill="none" stroke="black" points="934,-262.5 934,-281.5 1083,-281.5 1083,-262.5 934,-262.5"/>
<text text-anchor="middle" x="1008.5" y="-269.5" font-family="Helvetica,sans-Serif" font-size="10.00">wmtk::Mesh::get_cell_hash</text>
</a>
</g>
</g>
<!-- Node4&#45;&gt;Node5 -->
<g id="edge4" class="edge">
<title>Node4&#45;&gt;Node5</title>
<path fill="none" stroke="midnightblue" d="M459.75,-411.96C475.23,-387.93 508.61,-340.75 548,-313 618.38,-263.42 644.33,-259.59 729,-244 801.99,-230.56 822.34,-234.89 896,-244 896.43,-244.05 929.6,-252.39 959.64,-259.95"/>
<polygon fill="midnightblue" stroke="midnightblue" points="959.11,-263.42 969.66,-262.47 960.82,-256.63 959.11,-263.42"/>
</g>
<!-- Node9 -->
<g id="node9" class="node">
<title>Node9</title>
<g id="a_node9"><a xlink:href="classwmtk_1_1_mesh.html#adf199d6a3ce6badd8bfa0e2ab3a1c1aa" target="_top" xlink:title=" ">
<polygon fill="none" stroke="black" points="943.5,-537 943.5,-567 1073.5,-567 1073.5,-537 943.5,-537"/>
<text text-anchor="start" x="951.5" y="-555" font-family="Helvetica,sans-Serif" font-size="10.00">wmtk::Mesh::get_const</text>
<text text-anchor="middle" x="1008.5" y="-544" font-family="Helvetica,sans-Serif" font-size="10.00">_cell_hash_accessor</text>
</a>
</g>
</g>
<!-- Node4&#45;&gt;Node9 -->
<g id="edge8" class="edge">
<title>Node4&#45;&gt;Node9</title>
<path fill="none" stroke="midnightblue" d="M461.71,-442.32C478.04,-463.31 510.55,-500.3 548,-517 674.19,-573.28 839.25,-569.55 933.3,-561.17"/>
<polygon fill="midnightblue" stroke="midnightblue" points="933.66,-564.65 943.29,-560.24 933.01,-557.68 933.66,-564.65"/>
</g>
<!-- Node11 -->
<g id="node11" class="node">
<title>Node11</title>
<g id="a_node11"><a xlink:href="classwmtk_1_1_tri_mesh.html#a9975c25ed665c9c9a7f1ae92818a1b7c" target="_top" xlink:title=" ">
<polygon fill="none" stroke="black" points="569,-177.5 569,-196.5 672,-196.5 672,-177.5 569,-177.5"/>
<text text-anchor="middle" x="620.5" y="-184.5" font-family="Helvetica,sans-Serif" font-size="10.00">wmtk::TriMesh::id</text>
</a>
</g>
</g>
<!-- Node4&#45;&gt;Node11 -->
<g id="edge10" class="edge">
<title>Node4&#45;&gt;Node11</title>
<path fill="none" stroke="midnightblue" d="M453.07,-411.72C460.43,-372.56 485.3,-267.72 548,-211 552.48,-206.95 557.67,-203.58 563.16,-200.77"/>
<polygon fill="midnightblue" stroke="midnightblue" points="564.9,-203.83 572.62,-196.57 562.06,-197.43 564.9,-203.83"/>
</g>
<!-- Node12 -->
<g id="node12" class="node">
<title>Node12</title>
<g id="a_node12"><a xlink:href="classwmtk_1_1_tri_mesh.html#accbde91fccacdfdfd997e20d9ee9eb22" target="_top" xlink:title="TODO this needs dimension?">
<polygon fill="none" stroke="black" points="557.5,-461.5 557.5,-480.5 683.5,-480.5 683.5,-461.5 557.5,-461.5"/>
<text text-anchor="middle" x="620.5" y="-468.5" font-family="Helvetica,sans-Serif" font-size="10.00">wmtk::TriMesh::is_ccw</text>
</a>
</g>
</g>
<!-- Node4&#45;&gt;Node12 -->
<g id="edge11" class="edge">
<title>Node4&#45;&gt;Node12</title>
<path fill="none" stroke="midnightblue" d="M508.19,-442.02C529.37,-447.54 553.07,-453.7 573.13,-458.93"/>
<polygon fill="midnightblue" stroke="midnightblue" points="572.4,-462.36 582.96,-461.49 574.17,-455.58 572.4,-462.36"/>
</g>
<!-- Node16 -->
<g id="node16" class="node">
<title>Node16</title>
<g id="a_node16"><a xlink:href="classwmtk_1_1_mesh.html#abbb1c54cfd6ec17f4730317ee5fab78d" target="_top" xlink:title=" ">
<polygon fill="none" stroke="black" points="738.5,-505.5 738.5,-524.5 886.5,-524.5 886.5,-505.5 738.5,-505.5"/>
<text text-anchor="middle" x="812.5" y="-512.5" font-family="Helvetica,sans-Serif" font-size="10.00">wmtk::Mesh::is_valid_slow</text>
</a>
</g>
</g>
<!-- Node4&#45;&gt;Node16 -->
<g id="edge39" class="edge">
<title>Node4&#45;&gt;Node16</title>
<path fill="none" stroke="midnightblue" d="M468.15,-442.19C486.69,-457.18 517.35,-479.36 548,-490 606.01,-510.14 675.26,-516.06 728.21,-517.13"/>
<polygon fill="midnightblue" stroke="midnightblue" points="728.19,-520.63 738.24,-517.28 728.29,-513.63 728.19,-520.63"/>
</g>
<!-- Node18 -->
<g id="node18" class="node">
<title>Node18</title>
<g id="a_node18"><a xlink:href="classwmtk_1_1_tri_mesh.html#aef71c0f7f377768fa70857133220aff2" target="_top" xlink:title="check validity of tuple including its hash">
<polygon fill="none" stroke="black" points="555,-322.5 555,-341.5 686,-341.5 686,-322.5 555,-322.5"/>
<text text-anchor="middle" x="620.5" y="-329.5" font-family="Helvetica,sans-Serif" font-size="10.00">wmtk::TriMesh::is_valid</text>
</a>
</g>
</g>
<!-- Node4&#45;&gt;Node18 -->
<g id="edge19" class="edge">
<title>Node4&#45;&gt;Node18</title>
<path fill="none" stroke="midnightblue" d="M477.28,-411.95C508.99,-394.12 561.49,-364.61 593.06,-346.87"/>
<polygon fill="midnightblue" stroke="midnightblue" points="595.13,-349.71 602.13,-341.76 591.7,-343.61 595.13,-349.71"/>
</g>
<!-- Node30 -->
<g id="node30" class="node">
<title>Node30</title>
<g id="a_node30"><a xlink:href="namespacewmtk_1_1autogen_1_1tri__mesh.html#a91e6b348f528d93ad6d9031bae1480da" target="_top" xlink:title=" ">
<polygon fill="none" stroke="black" points="548,-412 548,-442 693,-442 693,-412 548,-412"/>
<text text-anchor="start" x="556" y="-430" font-family="Helvetica,sans-Serif" font-size="10.00">wmtk::autogen::tri</text>
<text text-anchor="middle" x="620.5" y="-419" font-family="Helvetica,sans-Serif" font-size="10.00">_mesh::local_switch_tuple</text>
</a>
</g>
</g>
<!-- Node4&#45;&gt;Node30 -->
<g id="edge40" class="edge">
<title>Node4&#45;&gt;Node30</title>
<path fill="none" stroke="midnightblue" d="M512.47,-427C520.64,-427 529.11,-427 537.55,-427"/>
<polygon fill="midnightblue" stroke="midnightblue" points="537.81,-430.5 547.81,-427 537.81,-423.5 537.81,-430.5"/>
</g>
<!-- Node6 -->
<g id="node6" class="node">
<title>Node6</title>
<g id="a_node6"><a xlink:href="classwmtk_1_1attribute_1_1_caching_accessor.html#a196b6b32e2495b971113d552be7f45d9" target="_top" xlink:title=" ">
<polygon fill="none" stroke="black" points="1123.5,-208.5 1123.5,-249.5 1260.5,-249.5 1260.5,-208.5 1123.5,-208.5"/>
<text text-anchor="start" x="1131.5" y="-237.5" font-family="Helvetica,sans-Serif" font-size="10.00">wmtk::attribute::Caching</text>
<text text-anchor="start" x="1131.5" y="-226.5" font-family="Helvetica,sans-Serif" font-size="10.00">Accessor::const_scalar</text>
<text text-anchor="middle" x="1192" y="-215.5" font-family="Helvetica,sans-Serif" font-size="10.00">_attribute</text>
</a>
</g>
</g>
<!-- Node5&#45;&gt;Node6 -->
<g id="edge5" class="edge">
<title>Node5&#45;&gt;Node6</title>
<path fill="none" stroke="midnightblue" d="M1049.78,-262.46C1068.53,-258.02 1091.49,-252.58 1113.4,-247.38"/>
<polygon fill="midnightblue" stroke="midnightblue" points="1114.46,-250.73 1123.38,-245.02 1112.84,-243.92 1114.46,-250.73"/>
</g>
<!-- Node7 -->
<g id="node7" class="node">
<title>Node7</title>
<g id="a_node7"><a xlink:href="classwmtk_1_1attribute_1_1_accessor.html#a41f40a73a13789707c117bda177dfc83" target="_top" xlink:title=" ">
<polygon fill="none" stroke="black" points="1121,-126 1121,-156 1263,-156 1263,-126 1121,-126"/>
<text text-anchor="start" x="1129" y="-144" font-family="Helvetica,sans-Serif" font-size="10.00">wmtk::attribute::Accessor</text>
<text text-anchor="middle" x="1192" y="-133" font-family="Helvetica,sans-Serif" font-size="10.00">::index_access</text>
</a>
</g>
</g>
<!-- Node5&#45;&gt;Node7 -->
<g id="edge6" class="edge">
<title>Node5&#45;&gt;Node7</title>
<path fill="none" stroke="midnightblue" d="M1066.76,-262.46C1073.23,-260 1079.48,-256.9 1085,-253 1108.56,-236.37 1101.69,-220.43 1121,-199 1133.05,-185.63 1148.25,-172.67 1161.41,-162.4"/>
<polygon fill="midnightblue" stroke="midnightblue" points="1163.88,-164.91 1169.7,-156.06 1159.63,-159.35 1163.88,-164.91"/>
</g>
<!-- Node8 -->
<g id="node8" class="node">
<title>Node8</title>
<g id="a_node8"><a xlink:href="classwmtk_1_1attribute_1_1_accessor.html#a9c7d323f50911892c8ea738f97d041d4" target="_top" xlink:title=" ">
<polygon fill="none" stroke="black" points="1299,-126 1299,-156 1441,-156 1441,-126 1299,-126"/>
<text text-anchor="start" x="1307" y="-144" font-family="Helvetica,sans-Serif" font-size="10.00">wmtk::attribute::Accessor</text>
<text text-anchor="middle" x="1370" y="-133" font-family="Helvetica,sans-Serif" font-size="10.00">::caching_base_type</text>
</a>
</g>
</g>
<!-- Node7&#45;&gt;Node8 -->
<g id="edge7" class="edge">
<title>Node7&#45;&gt;Node8</title>
<path fill="none" stroke="midnightblue" d="M1263.07,-141C1271.54,-141 1280.25,-141 1288.85,-141"/>
<polygon fill="midnightblue" stroke="midnightblue" points="1288.89,-144.5 1298.89,-141 1288.89,-137.5 1288.89,-144.5"/>
</g>
<!-- Node10 -->
<g id="node10" class="node">
<title>Node10</title>
<g id="a_node10"><a xlink:href="classwmtk_1_1_mesh.html#a4a20dcdac339e7a4f6f8a6570114cbe6" target="_top" xlink:title=" ">
<polygon fill="none" stroke="black" points="1313.5,-335 1313.5,-365 1426.5,-365 1426.5,-335 1313.5,-335"/>
<text text-anchor="start" x="1321.5" y="-353" font-family="Helvetica,sans-Serif" font-size="10.00">wmtk::Mesh::create</text>
<text text-anchor="middle" x="1370" y="-342" font-family="Helvetica,sans-Serif" font-size="10.00">_const_accessor</text>
</a>
</g>
</g>
<!-- Node9&#45;&gt;Node10 -->
<g id="edge9" class="edge">
<title>Node9&#45;&gt;Node10</title>
<path fill="none" stroke="midnightblue" d="M1072.28,-536.94C1125.93,-522.16 1203.63,-496.1 1263,-457 1298.55,-433.59 1331.76,-396.68 1351.22,-372.91"/>
<polygon fill="midnightblue" stroke="midnightblue" points="1353.97,-375.08 1357.51,-365.09 1348.51,-370.69 1353.97,-375.08"/>
</g>
<!-- Node13 -->
<g id="node13" class="node">
<title>Node13</title>
<g id="a_node13"><a xlink:href="namespacewmtk_1_1autogen_1_1tri__mesh.html#aaab85f5120a223c29bae0881cd7f2c87" target="_top" xlink:title=" ">
<polygon fill="none" stroke="black" points="759,-456 759,-486 866,-486 866,-456 759,-456"/>
<text text-anchor="start" x="767" y="-474" font-family="Helvetica,sans-Serif" font-size="10.00">wmtk::autogen::tri</text>
<text text-anchor="middle" x="812.5" y="-463" font-family="Helvetica,sans-Serif" font-size="10.00">_mesh::is_ccw</text>
</a>
</g>
</g>
<!-- Node12&#45;&gt;Node13 -->
<g id="edge12" class="edge">
<title>Node12&#45;&gt;Node13</title>
<path fill="none" stroke="midnightblue" d="M683.71,-471C704.55,-471 727.78,-471 748.66,-471"/>
<polygon fill="midnightblue" stroke="midnightblue" points="748.7,-474.5 758.7,-471 748.7,-467.5 748.7,-474.5"/>
</g>
<!-- Node12&#45;&gt;Node16 -->
<g id="edge16" class="edge">
<title>Node12&#45;&gt;Node16</title>
<path fill="none" stroke="midnightblue" d="M662.73,-480.55C691.36,-487.18 729.71,-496.06 760.3,-503.14"/>
<polygon fill="midnightblue" stroke="midnightblue" points="759.82,-506.62 770.35,-505.47 761.4,-499.81 759.82,-506.62"/>
</g>
<!-- Node14 -->
<g id="node14" class="node">
<title>Node14</title>
<g id="a_node14"><a xlink:href="namespacewmtk_1_1autogen_1_1tri__mesh.html#a1c9b651c47ee993e160a8dca570cf35c" target="_top" xlink:title=" ">
<polygon fill="none" stroke="black" points="1131,-406.5 1131,-447.5 1253,-447.5 1253,-406.5 1131,-406.5"/>
<text text-anchor="start" x="1139" y="-435.5" font-family="Helvetica,sans-Serif" font-size="10.00">wmtk::autogen::tri</text>
<text text-anchor="start" x="1139" y="-424.5" font-family="Helvetica,sans-Serif" font-size="10.00">_mesh::local_id_table</text>
<text text-anchor="middle" x="1192" y="-413.5" font-family="Helvetica,sans-Serif" font-size="10.00">_offset</text>
</a>
</g>
</g>
<!-- Node13&#45;&gt;Node14 -->
<g id="edge13" class="edge">
<title>Node13&#45;&gt;Node14</title>
<path fill="none" stroke="midnightblue" d="M866.09,-465.52C920.82,-459.75 1008.97,-450.22 1085,-441 1096.59,-439.59 1108.88,-438.03 1120.83,-436.48"/>
<polygon fill="midnightblue" stroke="midnightblue" points="1121.31,-439.95 1130.77,-435.18 1120.4,-433.01 1121.31,-439.95"/>
</g>
<!-- Node15 -->
<g id="node15" class="node">
<title>Node15</title>
<g id="a_node15"><a xlink:href="namespacewmtk_1_1autogen_1_1tri__mesh.html#a786155d6d2270c482ffd6a96d3211867" target="_top" xlink:title=" ">
<polygon fill="none" stroke="black" points="947.5,-357.5 947.5,-398.5 1069.5,-398.5 1069.5,-357.5 947.5,-357.5"/>
<text text-anchor="start" x="955.5" y="-386.5" font-family="Helvetica,sans-Serif" font-size="10.00">wmtk::autogen::tri</text>
<text text-anchor="start" x="955.5" y="-375.5" font-family="Helvetica,sans-Serif" font-size="10.00">_mesh::tuple_is_valid</text>
<text text-anchor="middle" x="1008.5" y="-364.5" font-family="Helvetica,sans-Serif" font-size="10.00">_for_ccw</text>
</a>
</g>
</g>
<!-- Node13&#45;&gt;Node15 -->
<g id="edge14" class="edge">
<title>Node13&#45;&gt;Node15</title>
<path fill="none" stroke="midnightblue" d="M845.1,-455.85C874.96,-441.53 920.31,-419.8 955.5,-402.93"/>
<polygon fill="midnightblue" stroke="midnightblue" points="957.17,-406.01 964.67,-398.53 954.14,-399.7 957.17,-406.01"/>
</g>
<!-- Node15&#45;&gt;Node14 -->
<g id="edge15" class="edge">
<title>Node15&#45;&gt;Node14</title>
<path fill="none" stroke="midnightblue" d="M1069.68,-394.25C1086.16,-398.7 1104.16,-403.56 1121.13,-408.14"/>
<polygon fill="midnightblue" stroke="midnightblue" points="1120.41,-411.57 1130.98,-410.8 1122.24,-404.81 1120.41,-411.57"/>
</g>
<!-- Node16&#45;&gt;Node9 -->
<g id="edge17" class="edge">
<title>Node16&#45;&gt;Node9</title>
<path fill="none" stroke="midnightblue" d="M863.46,-524.53C884.78,-528.59 910.09,-533.42 933.51,-537.89"/>
<polygon fill="midnightblue" stroke="midnightblue" points="932.93,-541.34 943.41,-539.78 934.24,-534.47 932.93,-541.34"/>
</g>
<!-- Node17 -->
<g id="node17" class="node">
<title>Node17</title>
<g id="a_node17"><a xlink:href="classwmtk_1_1_mesh.html#a918c509096fc08691924c05c6143b9c3" target="_top" xlink:title="check validity of tuple including its hash">
<polygon fill="none" stroke="black" points="948.5,-498.5 948.5,-517.5 1068.5,-517.5 1068.5,-498.5 948.5,-498.5"/>
<text text-anchor="middle" x="1008.5" y="-505.5" font-family="Helvetica,sans-Serif" font-size="10.00">wmtk::Mesh::is_valid</text>
</a>
</g>
</g>
<!-- Node16&#45;&gt;Node17 -->
<g id="edge18" class="edge">
<title>Node16&#45;&gt;Node17</title>
<path fill="none" stroke="midnightblue" d="M886.57,-512.36C903.47,-511.75 921.4,-511.11 938.14,-510.5"/>
<polygon fill="midnightblue" stroke="midnightblue" points="938.52,-513.99 948.38,-510.13 938.26,-507 938.52,-513.99"/>
</g>
<!-- Node18&#45;&gt;Node15 -->
<g id="edge38" class="edge">
<title>Node18&#45;&gt;Node15</title>
<path fill="none" stroke="midnightblue" d="M642.38,-341.58C663.66,-350.8 697.86,-364.2 729,-370 798.95,-383.04 880.46,-383.73 937.15,-381.97"/>
<polygon fill="midnightblue" stroke="midnightblue" points="937.57,-385.45 947.44,-381.61 937.33,-378.46 937.57,-385.45"/>
</g>
<!-- Node19 -->
<g id="node19" class="node">
<title>Node19</title>
<g id="a_node19"><a xlink:href="classwmtk_1_1_tri_mesh.html#a6375662ccb85d7c8868b3c76d708bae5" target="_top" xlink:title=" ">
<polygon fill="none" stroke="black" points="729,-140 729,-170 896,-170 896,-140 729,-140"/>
<text text-anchor="start" x="737" y="-158" font-family="Helvetica,sans-Serif" font-size="10.00">wmtk::TriMesh::is_connectivity</text>
<text text-anchor="middle" x="812.5" y="-147" font-family="Helvetica,sans-Serif" font-size="10.00">_valid</text>
</a>
</g>
</g>
<!-- Node18&#45;&gt;Node19 -->
<g id="edge20" class="edge">
<title>Node18&#45;&gt;Node19</title>
<path fill="none" stroke="midnightblue" d="M631.72,-322.48C661.04,-295.16 746.06,-215.96 787.81,-177.07"/>
<polygon fill="midnightblue" stroke="midnightblue" points="790.38,-179.45 795.32,-170.08 785.61,-174.33 790.38,-179.45"/>
</g>
<!-- Node26 -->
<g id="node26" class="node">
<title>Node26</title>
<g id="a_node26"><a xlink:href="namespacewmtk.html#a6a35f11c12436093d26fdd8be6fecc06" target="_top" xlink:title="Retrieves the current logger.">
<polygon fill="none" stroke="black" points="968,-300.5 968,-319.5 1049,-319.5 1049,-300.5 968,-300.5"/>
<text text-anchor="middle" x="1008.5" y="-307.5" font-family="Helvetica,sans-Serif" font-size="10.00">wmtk::logger</text>
</a>
</g>
</g>
<!-- Node18&#45;&gt;Node26 -->
<g id="edge37" class="edge">
<title>Node18&#45;&gt;Node26</title>
<path fill="none" stroke="midnightblue" d="M686.11,-328.32C762.56,-323.96 888.2,-316.8 957.58,-312.85"/>
<polygon fill="midnightblue" stroke="midnightblue" points="958.02,-316.33 967.8,-312.26 957.62,-309.34 958.02,-316.33"/>
</g>
<!-- Node28 -->
<g id="node28" class="node">
<title>Node28</title>
<g id="a_node28"><a xlink:href="classwmtk_1_1_mesh.html#aad291410ffabfd61e42d0a813a610805" target="_top" xlink:title=" ">
<polygon fill="none" stroke="black" points="753,-254 753,-284 872,-284 872,-254 753,-254"/>
<text text-anchor="start" x="761" y="-272" font-family="Helvetica,sans-Serif" font-size="10.00">wmtk::Mesh::is_hash</text>
<text text-anchor="middle" x="812.5" y="-261" font-family="Helvetica,sans-Serif" font-size="10.00">_valid</text>
</a>
</g>
</g>
<!-- Node18&#45;&gt;Node28 -->
<g id="edge33" class="edge">
<title>Node18&#45;&gt;Node28</title>
<path fill="none" stroke="midnightblue" d="M650.36,-322.43C678.44,-313.12 721.85,-298.73 756.53,-287.23"/>
<polygon fill="midnightblue" stroke="midnightblue" points="757.68,-290.53 766.07,-284.07 755.47,-283.89 757.68,-290.53"/>
</g>
<!-- Node29 -->
<g id="node29" class="node">
<title>Node29</title>
<g id="a_node29"><a xlink:href="classwmtk_1_1_tuple.html#a0023f575be92cd5ceeeaaaa3762ea06d" target="_top" xlink:title="Checks if a tuple is &quot;null&quot;. This merely implies the global index is &#45;1.">
<polygon fill="none" stroke="black" points="756,-341.5 756,-360.5 869,-360.5 869,-341.5 756,-341.5"/>
<text text-anchor="middle" x="812.5" y="-348.5" font-family="Helvetica,sans-Serif" font-size="10.00">wmtk::Tuple::is_null</text>
</a>
</g>
</g>
<!-- Node18&#45;&gt;Node29 -->
<g id="edge36" class="edge">
<title>Node18&#45;&gt;Node29</title>
<path fill="none" stroke="midnightblue" d="M686.09,-338.46C705.42,-340.39 726.63,-342.51 746.02,-344.45"/>
<polygon fill="midnightblue" stroke="midnightblue" points="745.67,-347.93 755.97,-345.45 746.37,-340.97 745.67,-347.93"/>
</g>
<!-- Node19&#45;&gt;Node6 -->
<g id="edge23" class="edge">
<title>Node19&#45;&gt;Node6</title>
<path fill="none" stroke="midnightblue" d="M896.23,-162.49C950.4,-168.39 1022.49,-178.15 1085,-193 1098.77,-196.27 1113.28,-200.59 1127,-205.11"/>
<polygon fill="midnightblue" stroke="midnightblue" points="1126.24,-208.54 1136.83,-208.41 1128.47,-201.91 1126.24,-208.54"/>
</g>
<!-- Node19&#45;&gt;Node7 -->
<g id="edge29" class="edge">
<title>Node19&#45;&gt;Node7</title>
<path fill="none" stroke="midnightblue" d="M896.34,-151.93C959.97,-149.57 1047.35,-146.33 1110.41,-143.99"/>
<polygon fill="midnightblue" stroke="midnightblue" points="1110.84,-147.48 1120.71,-143.61 1110.58,-140.48 1110.84,-147.48"/>
</g>
<!-- Node20 -->
<g id="node20" class="node">
<title>Node20</title>
<g id="a_node20"><a xlink:href="classwmtk_1_1_mesh.html#a3e8ff83c4a5526a40d18bb9883c6c6c9" target="_top" xlink:title="read in the m_capacities return the upper bound for the number of entities of the given dimension">
<polygon fill="none" stroke="black" points="1130,-38.5 1130,-57.5 1254,-57.5 1254,-38.5 1130,-38.5"/>
<text text-anchor="middle" x="1192" y="-45.5" font-family="Helvetica,sans-Serif" font-size="10.00">wmtk::Mesh::capacity</text>
</a>
</g>
</g>
<!-- Node19&#45;&gt;Node20 -->
<g id="edge21" class="edge">
<title>Node19&#45;&gt;Node20</title>
<path fill="none" stroke="midnightblue" d="M827.89,-139.9C848.66,-119.23 889.25,-82.9 932,-67 992.54,-44.49 1066.44,-41.22 1119.78,-42.71"/>
<polygon fill="midnightblue" stroke="midnightblue" points="1119.71,-46.21 1129.83,-43.06 1119.95,-39.22 1119.71,-46.21"/>
</g>
<!-- Node22 -->
<g id="node22" class="node">
<title>Node22</title>
<g id="a_node22"><a xlink:href="classwmtk_1_1attribute_1_1_caching_accessor.html#ab7a79d239fdc3d22fbc0c3a83a5c50bc" target="_top" xlink:title=" ">
<polygon fill="none" stroke="black" points="940,-202.5 940,-243.5 1077,-243.5 1077,-202.5 940,-202.5"/>
<text text-anchor="start" x="948" y="-231.5" font-family="Helvetica,sans-Serif" font-size="10.00">wmtk::attribute::Caching</text>
<text text-anchor="start" x="948" y="-220.5" font-family="Helvetica,sans-Serif" font-size="10.00">Accessor::const_vector</text>
<text text-anchor="middle" x="1008.5" y="-209.5" font-family="Helvetica,sans-Serif" font-size="10.00">_attribute</text>
</a>
</g>
</g>
<!-- Node19&#45;&gt;Node22 -->
<g id="edge24" class="edge">
<title>Node19&#45;&gt;Node22</title>
<path fill="none" stroke="midnightblue" d="M856.55,-170.09C880.82,-178.6 911.69,-189.42 939.18,-199.05"/>
<polygon fill="midnightblue" stroke="midnightblue" points="938.15,-202.4 948.75,-202.41 940.47,-195.8 938.15,-202.4"/>
</g>
<!-- Node23 -->
<g id="node23" class="node">
<title>Node23</title>
<g id="a_node23"><a xlink:href="classwmtk_1_1_mesh.html#ae0e8f71e9e17a90be9423117efcc4c81" target="_top" xlink:title=" ">
<polygon fill="none" stroke="black" points="947.5,-77 947.5,-107 1069.5,-107 1069.5,-77 947.5,-77"/>
<text text-anchor="start" x="955.5" y="-95" font-family="Helvetica,sans-Serif" font-size="10.00">wmtk::Mesh::get_flag</text>
<text text-anchor="middle" x="1008.5" y="-84" font-family="Helvetica,sans-Serif" font-size="10.00">_accessor</text>
</a>
</g>
</g>
<!-- Node19&#45;&gt;Node23 -->
<g id="edge25" class="edge">
<title>Node19&#45;&gt;Node23</title>
<path fill="none" stroke="midnightblue" d="M859.97,-139.91C887.46,-130.98 922.47,-119.61 951.49,-110.19"/>
<polygon fill="midnightblue" stroke="midnightblue" points="952.65,-113.49 961.08,-107.08 950.48,-106.84 952.65,-113.49"/>
</g>
<!-- Node25 -->
<g id="node25" class="node">
<title>Node25</title>
<g id="a_node25"><a xlink:href="classwmtk_1_1_tri_mesh.html#a58bdbbfa0cd7bd9263241f6501db182a" target="_top" xlink:title="check if a simplex lies on a boundary or not">
<polygon fill="none" stroke="black" points="932,-0.5 932,-19.5 1085,-19.5 1085,-0.5 932,-0.5"/>
<text text-anchor="middle" x="1008.5" y="-7.5" font-family="Helvetica,sans-Serif" font-size="10.00">wmtk::TriMesh::is_boundary</text>
</a>
</g>
</g>
<!-- Node19&#45;&gt;Node25 -->
<g id="edge30" class="edge">
<title>Node19&#45;&gt;Node25</title>
<path fill="none" stroke="midnightblue" d="M824.48,-139.65C843.53,-114.1 885.18,-62.82 932,-34 939.16,-29.6 947.2,-25.93 955.29,-22.89"/>
<polygon fill="midnightblue" stroke="midnightblue" points="956.46,-26.19 964.77,-19.62 954.17,-19.57 956.46,-26.19"/>
</g>
<!-- Node19&#45;&gt;Node26 -->
<g id="edge31" class="edge">
<title>Node19&#45;&gt;Node26</title>
<path fill="none" stroke="midnightblue" d="M828.26,-170.04C845.12,-187.42 873.32,-217.1 896,-244 912.96,-264.12 910.02,-276.54 932,-291 939.8,-296.13 948.88,-299.87 957.98,-302.61"/>
<polygon fill="midnightblue" stroke="midnightblue" points="957.25,-306.03 967.81,-305.19 959.03,-299.26 957.25,-306.03"/>
</g>
<!-- Node21 -->
<g id="node21" class="node">
<title>Node21</title>
<g id="a_node21"><a xlink:href="namespacewmtk.html#a5cf45c152e856196bb734c6f48919a24" target="_top" xlink:title="Get a unique integer id corresponding to each primitive type.">
<polygon fill="none" stroke="black" points="1312,-55 1312,-85 1428,-85 1428,-55 1312,-55"/>
<text text-anchor="start" x="1320" y="-73" font-family="Helvetica,sans-Serif" font-size="10.00">wmtk::get_primitive</text>
<text text-anchor="middle" x="1370" y="-62" font-family="Helvetica,sans-Serif" font-size="10.00">_type_id</text>
</a>
</g>
</g>
<!-- Node20&#45;&gt;Node21 -->
<g id="edge22" class="edge">
<title>Node20&#45;&gt;Node21</title>
<path fill="none" stroke="midnightblue" d="M1254.06,-55.63C1269.46,-57.56 1286.06,-59.63 1301.74,-61.59"/>
<polygon fill="midnightblue" stroke="midnightblue" points="1301.53,-65.09 1311.89,-62.86 1302.4,-58.15 1301.53,-65.09"/>
</g>
<!-- Node24 -->
<g id="node24" class="node">
<title>Node24</title>
<g id="a_node24"><a xlink:href="classwmtk_1_1_mesh.html#a6dbab927a2ee85f77a87f075fd5c1d94" target="_top" xlink:title=" ">
<polygon fill="none" stroke="black" points="1127,-77 1127,-107 1257,-107 1257,-77 1127,-77"/>
<text text-anchor="start" x="1135" y="-95" font-family="Helvetica,sans-Serif" font-size="10.00">wmtk::Mesh::get_const</text>
<text text-anchor="middle" x="1192" y="-84" font-family="Helvetica,sans-Serif" font-size="10.00">_flag_accessor</text>
</a>
</g>
</g>
<!-- Node23&#45;&gt;Node24 -->
<g id="edge26" class="edge">
<title>Node23&#45;&gt;Node24</title>
<path fill="none" stroke="midnightblue" d="M1069.68,-92C1084.75,-92 1101.09,-92 1116.75,-92"/>
<polygon fill="midnightblue" stroke="midnightblue" points="1116.93,-95.5 1126.93,-92 1116.93,-88.5 1116.93,-95.5"/>
</g>
<!-- Node24&#45;&gt;Node10 -->
<g id="edge27" class="edge">
<title>Node24&#45;&gt;Node10</title>
<path fill="none" stroke="midnightblue" d="M1250.29,-107.04C1254.87,-109.58 1259.2,-112.54 1263,-116 1295.94,-145.95 1341.97,-271.49 1360.64,-325.32"/>
<polygon fill="midnightblue" stroke="midnightblue" points="1357.33,-326.47 1363.9,-334.79 1363.95,-324.19 1357.33,-326.47"/>
</g>
<!-- Node24&#45;&gt;Node21 -->
<g id="edge28" class="edge">
<title>Node24&#45;&gt;Node21</title>
<path fill="none" stroke="midnightblue" d="M1257.04,-84C1271.57,-82.18 1287.05,-80.24 1301.71,-78.41"/>
<polygon fill="midnightblue" stroke="midnightblue" points="1302.23,-81.87 1311.72,-77.16 1301.36,-74.93 1302.23,-81.87"/>
</g>
<!-- Node27 -->
<g id="node27" class="node">
<title>Node27</title>
<g id="a_node27"><a xlink:href="namespacewmtk.html#a3daa7951a5f8b78cf4600dc047fcc180" target="_top" xlink:title="Setup a logger object to be used by WildmeshToolkit.">
<polygon fill="none" stroke="black" points="1141.5,-300.5 1141.5,-319.5 1242.5,-319.5 1242.5,-300.5 1141.5,-300.5"/>
<text text-anchor="middle" x="1192" y="-307.5" font-family="Helvetica,sans-Serif" font-size="10.00">wmtk::set_logger</text>
</a>
</g>
</g>
<!-- Node26&#45;&gt;Node27 -->
<g id="edge32" class="edge">
<title>Node26&#45;&gt;Node27</title>
<path fill="none" stroke="midnightblue" d="M1049.33,-310C1073.3,-310 1104.27,-310 1131.13,-310"/>
<polygon fill="midnightblue" stroke="midnightblue" points="1131.21,-313.5 1141.21,-310 1131.21,-306.5 1131.21,-313.5"/>
</g>
<!-- Node28&#45;&gt;Node5 -->
<g id="edge34" class="edge">
<title>Node28&#45;&gt;Node5</title>
<path fill="none" stroke="midnightblue" d="M872.23,-269.91C888.45,-270.16 906.38,-270.44 923.72,-270.7"/>
<polygon fill="midnightblue" stroke="midnightblue" points="923.8,-274.21 933.85,-270.86 923.91,-267.21 923.8,-274.21"/>
</g>
<!-- Node28&#45;&gt;Node26 -->
<g id="edge35" class="edge">
<title>Node28&#45;&gt;Node26</title>
<path fill="none" stroke="midnightblue" d="M872.23,-281.41C899.6,-287.2 931.81,-294 957.94,-299.53"/>
<polygon fill="midnightblue" stroke="midnightblue" points="957.48,-303.01 967.99,-301.65 958.93,-296.16 957.48,-303.01"/>
</g>
<!-- Node30&#45;&gt;Node14 -->
<g id="edge41" class="edge">
<title>Node30&#45;&gt;Node14</title>
<path fill="none" stroke="midnightblue" d="M693.05,-427C802.88,-427 1011.72,-427 1120.76,-427"/>
<polygon fill="midnightblue" stroke="midnightblue" points="1120.99,-430.5 1130.99,-427 1120.99,-423.5 1120.99,-430.5"/>
</g>
<!-- Node31&#45;&gt;Node4 -->
<g id="edge43" class="edge">
<title>Node31&#45;&gt;Node4</title>
<path fill="none" stroke="midnightblue" d="M336.34,-412.82C349.41,-414.47 363.32,-416.23 376.73,-417.93"/>
<polygon fill="midnightblue" stroke="midnightblue" points="376.5,-421.42 386.86,-419.21 377.38,-414.48 376.5,-421.42"/>
</g>
</g>
</svg>
