<?xml version="1.0" encoding="UTF-8" standalone="no"?>
<!DOCTYPE svg PUBLIC "-//W3C//DTD SVG 1.1//EN"
 "http://www.w3.org/Graphics/SVG/1.1/DTD/svg11.dtd">
<!-- Generated by graphviz version 2.43.0 (0)
 -->
<!-- Title: wmtk::autogen::tri_mesh::tuple_is_valid_for_ccw Pages: 1 -->
<svg width="1668pt" height="799pt"
 viewBox="0.00 0.00 1668.00 798.50" xmlns="http://www.w3.org/2000/svg" xmlns:xlink="http://www.w3.org/1999/xlink">
<g id="graph0" class="graph" transform="scale(1 1) rotate(0) translate(4 794.5)">
<title>wmtk::autogen::tri_mesh::tuple_is_valid_for_ccw</title>
<!-- Node1 -->
<g id="node1" class="node">
<title>Node1</title>
<g id="a_node1"><a xlink:title=" ">
<polygon fill="#bfbfbf" stroke="black" points="1538,-612.5 1538,-653.5 1660,-653.5 1660,-612.5 1538,-612.5"/>
<text text-anchor="start" x="1546" y="-641.5" font-family="Helvetica,sans-Serif" font-size="10.00">wmtk::autogen::tri</text>
<text text-anchor="start" x="1546" y="-630.5" font-family="Helvetica,sans-Serif" font-size="10.00">_mesh::tuple_is_valid</text>
<text text-anchor="middle" x="1599" y="-619.5" font-family="Helvetica,sans-Serif" font-size="10.00">_for_ccw</text>
</a>
</g>
</g>
<!-- Node2 -->
<g id="node2" class="node">
<title>Node2</title>
<g id="a_node2"><a xlink:href="namespacewmtk_1_1autogen_1_1tri__mesh.html#aaab85f5120a223c29bae0881cd7f2c87" target="_top" xlink:title=" ">
<polygon fill="none" stroke="black" points="1383,-662 1383,-692 1490,-692 1490,-662 1383,-662"/>
<text text-anchor="start" x="1391" y="-680" font-family="Helvetica,sans-Serif" font-size="10.00">wmtk::autogen::tri</text>
<text text-anchor="middle" x="1436.5" y="-669" font-family="Helvetica,sans-Serif" font-size="10.00">_mesh::is_ccw</text>
</a>
</g>
</g>
<!-- Node1&#45;&gt;Node2 -->
<g id="edge1" class="edge">
<title>Node1&#45;&gt;Node2</title>
<path fill="none" stroke="midnightblue" d="M1528.13,-652.16C1515.38,-655.65 1502.29,-659.24 1490.15,-662.57"/>
<polygon fill="midnightblue" stroke="midnightblue" points="1529.06,-655.53 1537.78,-649.51 1527.21,-648.78 1529.06,-655.53"/>
</g>
<!-- Node30 -->
<g id="node30" class="node">
<title>Node30</title>
<g id="a_node30"><a xlink:href="classwmtk_1_1_tri_mesh.html#a611704f60f24669e957325c7cb79f200" target="_top" xlink:title="check validity of tuple including its hash">
<polygon fill="none" stroke="black" points="1371,-623.5 1371,-642.5 1502,-642.5 1502,-623.5 1371,-623.5"/>
<text text-anchor="middle" x="1436.5" y="-630.5" font-family="Helvetica,sans-Serif" font-size="10.00">wmtk::TriMesh::is_valid</text>
</a>
</g>
</g>
<!-- Node1&#45;&gt;Node30 -->
<g id="edge40" class="edge">
<title>Node1&#45;&gt;Node30</title>
<path fill="none" stroke="midnightblue" d="M1527.55,-633C1519.08,-633 1510.47,-633 1502.09,-633"/>
<polygon fill="midnightblue" stroke="midnightblue" points="1527.78,-636.5 1537.78,-633 1527.78,-629.5 1527.78,-636.5"/>
</g>
<!-- Node34 -->
<g id="node34" class="node">
<title>Node34</title>
<g id="a_node34"><a xlink:href="namespacewmtk_1_1autogen.html#ac29d917dc0d4499209fc0a43367fafd5" target="_top" xlink:title=" ">
<polygon fill="none" stroke="black" points="1376,-574 1376,-604 1497,-604 1497,-574 1376,-574"/>
<text text-anchor="start" x="1384" y="-592" font-family="Helvetica,sans-Serif" font-size="10.00">wmtk::autogen::tuple</text>
<text text-anchor="middle" x="1436.5" y="-581" font-family="Helvetica,sans-Serif" font-size="10.00">_is_valid_for_ccw</text>
</a>
</g>
</g>
<!-- Node1&#45;&gt;Node34 -->
<g id="edge51" class="edge">
<title>Node1&#45;&gt;Node34</title>
<path fill="none" stroke="midnightblue" d="M1527.85,-613.77C1515.93,-610.5 1503.69,-607.15 1492.24,-604.01"/>
<polygon fill="midnightblue" stroke="midnightblue" points="1527.21,-617.22 1537.78,-616.49 1529.06,-610.47 1527.21,-617.22"/>
</g>
<!-- Node3 -->
<g id="node3" class="node">
<title>Node3</title>
<g id="a_node3"><a xlink:href="classwmtk_1_1_tri_mesh.html#accbde91fccacdfdfd997e20d9ee9eb22" target="_top" xlink:title="TODO this needs dimension?">
<polygon fill="none" stroke="black" points="1181.5,-645.5 1181.5,-664.5 1307.5,-664.5 1307.5,-645.5 1181.5,-645.5"/>
<text text-anchor="middle" x="1244.5" y="-652.5" font-family="Helvetica,sans-Serif" font-size="10.00">wmtk::TriMesh::is_ccw</text>
</a>
</g>
</g>
<!-- Node2&#45;&gt;Node3 -->
<g id="edge2" class="edge">
<title>Node2&#45;&gt;Node3</title>
<path fill="none" stroke="midnightblue" d="M1372.77,-669.74C1351.86,-667.32 1328.58,-664.62 1307.71,-662.2"/>
<polygon fill="midnightblue" stroke="midnightblue" points="1372.49,-673.23 1382.83,-670.9 1373.3,-666.27 1372.49,-673.23"/>
</g>
<!-- Node29 -->
<g id="node29" class="node">
<title>Node29</title>
<g id="a_node29"><a xlink:href="namespacewmtk_1_1autogen.html#a365ab61cb89e1b96e57747b7a3a97558" target="_top" xlink:title=" ">
<polygon fill="none" stroke="black" points="1180.5,-759.5 1180.5,-778.5 1308.5,-778.5 1308.5,-759.5 1180.5,-759.5"/>
<text text-anchor="middle" x="1244.5" y="-766.5" font-family="Helvetica,sans-Serif" font-size="10.00">wmtk::autogen::is_ccw</text>
</a>
</g>
</g>
<!-- Node2&#45;&gt;Node29 -->
<g id="edge39" class="edge">
<title>Node2&#45;&gt;Node29</title>
<path fill="none" stroke="midnightblue" d="M1409.28,-698.33C1389.81,-713.25 1362.04,-732.65 1335,-745 1321.83,-751.01 1306.86,-755.77 1292.98,-759.4"/>
<polygon fill="midnightblue" stroke="midnightblue" points="1411.62,-700.95 1417.36,-692.04 1407.32,-695.43 1411.62,-700.95"/>
</g>
<!-- Node4 -->
<g id="node4" class="node">
<title>Node4</title>
<g id="a_node4"><a xlink:href="classwmtk_1_1_simplex_inversion_invariant.html#a1163728175bfbd4dc26f4861019ee591" target="_top" xlink:title="we assume with local vid order (v0,v1,v2,v3) has positive volume (orient3d(v0,v1,v2,...">
<polygon fill="none" stroke="black" points="776.5,-576 776.5,-606 955.5,-606 955.5,-576 776.5,-576"/>
<text text-anchor="start" x="784.5" y="-594" font-family="Helvetica,sans-Serif" font-size="10.00">wmtk::SimplexInversionInvariant</text>
<text text-anchor="middle" x="866" y="-583" font-family="Helvetica,sans-Serif" font-size="10.00">::after</text>
</a>
</g>
</g>
<!-- Node3&#45;&gt;Node4 -->
<g id="edge3" class="edge">
<title>Node3&#45;&gt;Node4</title>
<path fill="none" stroke="midnightblue" d="M1178.71,-643.12C1170.32,-641.03 1161.9,-638.66 1154,-636 1137.23,-630.35 1135.02,-623.82 1118,-619 1065.37,-604.09 1004.43,-597.06 955.78,-593.77"/>
<polygon fill="midnightblue" stroke="midnightblue" points="1177.99,-646.54 1188.53,-645.43 1179.6,-639.73 1177.99,-646.54"/>
</g>
<!-- Node5 -->
<g id="node5" class="node">
<title>Node5</title>
<g id="a_node5"><a xlink:href="namespacewmtk_1_1mesh__utils.html#ace9d707a188783f870a878d0623418d0" target="_top" xlink:title="compute the normalized vertex normal from the incident area weighted face normals">
<polygon fill="none" stroke="black" points="369,-621 369,-651 521,-651 521,-621 369,-621"/>
<text text-anchor="start" x="377" y="-639" font-family="Helvetica,sans-Serif" font-size="10.00">wmtk::mesh_utils::compute</text>
<text text-anchor="middle" x="445" y="-628" font-family="Helvetica,sans-Serif" font-size="10.00">_vertex_normal</text>
</a>
</g>
</g>
<!-- Node3&#45;&gt;Node5 -->
<g id="edge4" class="edge">
<title>Node3&#45;&gt;Node5</title>
<path fill="none" stroke="midnightblue" d="M1171.18,-653.28C1020.54,-649.69 674.4,-641.44 521.25,-637.79"/>
<polygon fill="midnightblue" stroke="midnightblue" points="1171.17,-656.78 1181.25,-653.52 1171.34,-649.78 1171.17,-656.78"/>
</g>
<!-- Node7 -->
<g id="node7" class="node">
<title>Node7</title>
<g id="a_node7"><a xlink:href="classwmtk_1_1_tri_mesh.html#ae68edb47957a4207ffb2e40f2f3686a8" target="_top" xlink:title=" ">
<polygon fill="none" stroke="black" points="996.5,-711 996.5,-741 1114.5,-741 1114.5,-711 996.5,-711"/>
<text text-anchor="start" x="1004.5" y="-729" font-family="Helvetica,sans-Serif" font-size="10.00">wmtk::TriMesh::edge</text>
<text text-anchor="middle" x="1055.5" y="-718" font-family="Helvetica,sans-Serif" font-size="10.00">_tuple_from_id</text>
</a>
</g>
</g>
<!-- Node3&#45;&gt;Node7 -->
<g id="edge6" class="edge">
<title>Node3&#45;&gt;Node7</title>
<path fill="none" stroke="midnightblue" d="M1187.28,-667.25C1176.04,-670.48 1164.47,-674.38 1154,-679 1136.63,-686.66 1134.93,-693.4 1118,-702 1111.77,-705.17 1105.01,-708.19 1098.34,-710.95"/>
<polygon fill="midnightblue" stroke="midnightblue" points="1188.32,-670.59 1197.04,-664.58 1186.47,-663.84 1188.32,-670.59"/>
</g>
<!-- Node9 -->
<g id="node9" class="node">
<title>Node9</title>
<g id="a_node9"><a xlink:href="classwmtk_1_1_tri_mesh.html#a16693e4d11c3791da89396b412ae48db" target="_top" xlink:title=" ">
<polygon fill="none" stroke="black" points="998,-760 998,-790 1113,-790 1113,-760 998,-760"/>
<text text-anchor="start" x="1006" y="-778" font-family="Helvetica,sans-Serif" font-size="10.00">wmtk::TriMesh::face</text>
<text text-anchor="middle" x="1055.5" y="-767" font-family="Helvetica,sans-Serif" font-size="10.00">_tuple_from_id</text>
</a>
</g>
</g>
<!-- Node3&#45;&gt;Node9 -->
<g id="edge8" class="edge">
<title>Node3&#45;&gt;Node9</title>
<path fill="none" stroke="midnightblue" d="M1219.71,-670.07C1201.26,-682.08 1175.32,-699.71 1154,-717 1136.91,-730.86 1136.59,-739.23 1118,-751 1112.77,-754.31 1107.01,-757.29 1101.18,-759.94"/>
<polygon fill="midnightblue" stroke="midnightblue" points="1221.61,-673.01 1228.11,-664.64 1217.81,-667.12 1221.61,-673.01"/>
</g>
<!-- Node10 -->
<g id="node10" class="node">
<title>Node10</title>
<g id="a_node10"><a xlink:href="classwmtk_1_1_tri_mesh.html#a17b808a46d1a31efc12d555e6721bd02" target="_top" xlink:title="switch the orientation of the Tuple of the given dimension">
<polygon fill="none" stroke="black" points="993,-433 993,-463 1118,-463 1118,-433 993,-433"/>
<text text-anchor="start" x="1001" y="-451" font-family="Helvetica,sans-Serif" font-size="10.00">wmtk::TriMesh::switch</text>
<text text-anchor="middle" x="1055.5" y="-440" font-family="Helvetica,sans-Serif" font-size="10.00">_tuple</text>
</a>
</g>
</g>
<!-- Node3&#45;&gt;Node10 -->
<g id="edge10" class="edge">
<title>Node3&#45;&gt;Node10</title>
<path fill="none" stroke="midnightblue" d="M1171.71,-645.9C1165.38,-643.32 1159.35,-640.07 1154,-636 1138.68,-624.33 1083.14,-505.86 1063.47,-463.2"/>
<polygon fill="midnightblue" stroke="midnightblue" points="1170.57,-649.21 1181.17,-649.22 1172.9,-642.61 1170.57,-649.21"/>
</g>
<!-- Node28 -->
<g id="node28" class="node">
<title>Node28</title>
<g id="a_node28"><a xlink:href="classwmtk_1_1_tri_mesh.html#a6165486fcd93cad88ad55456bd7efbba" target="_top" xlink:title=" ">
<polygon fill="none" stroke="black" points="993,-662 993,-692 1118,-692 1118,-662 993,-662"/>
<text text-anchor="start" x="1001" y="-680" font-family="Helvetica,sans-Serif" font-size="10.00">wmtk::TriMesh::vertex</text>
<text text-anchor="middle" x="1055.5" y="-669" font-family="Helvetica,sans-Serif" font-size="10.00">_tuple_from_id</text>
</a>
</g>
</g>
<!-- Node3&#45;&gt;Node28 -->
<g id="edge37" class="edge">
<title>Node3&#45;&gt;Node28</title>
<path fill="none" stroke="midnightblue" d="M1171.28,-663.5C1153.7,-665.56 1135.06,-667.76 1118.02,-669.76"/>
<polygon fill="midnightblue" stroke="midnightblue" points="1171.97,-666.94 1181.49,-662.3 1171.15,-659.99 1171.97,-666.94"/>
</g>
<!-- Node6 -->
<g id="node6" class="node">
<title>Node6</title>
<g id="a_node6"><a xlink:href="classwmtk_1_1operations_1_1_vertex_tangential_laplacian_smooth.html#a6bdafc81c42b34cdafe1b229217d819c" target="_top" xlink:title=" ">
<polygon fill="none" stroke="black" points="177.5,-615.5 177.5,-656.5 328.5,-656.5 328.5,-615.5 177.5,-615.5"/>
<text text-anchor="start" x="185.5" y="-644.5" font-family="Helvetica,sans-Serif" font-size="10.00">wmtk::operations::Vertex</text>
<text text-anchor="start" x="185.5" y="-633.5" font-family="Helvetica,sans-Serif" font-size="10.00">TangentialLaplacianSmooth</text>
<text text-anchor="middle" x="253" y="-622.5" font-family="Helvetica,sans-Serif" font-size="10.00">::operator()</text>
</a>
</g>
</g>
<!-- Node5&#45;&gt;Node6 -->
<g id="edge5" class="edge">
<title>Node5&#45;&gt;Node6</title>
<path fill="none" stroke="midnightblue" d="M358.86,-636C348.75,-636 338.49,-636 328.55,-636"/>
<polygon fill="midnightblue" stroke="midnightblue" points="358.91,-639.5 368.91,-636 358.91,-632.5 358.91,-639.5"/>
</g>
<!-- Node8 -->
<g id="node8" class="node">
<title>Node8</title>
<g id="a_node8"><a xlink:href="classwmtk_1_1_tri_mesh.html#a359c853dd0fa71a15fc8fc24837e0325" target="_top" xlink:title="internal function that returns the tuple of requested type, and has the global index cid">
<polygon fill="none" stroke="black" points="806.5,-711 806.5,-741 925.5,-741 925.5,-711 806.5,-711"/>
<text text-anchor="start" x="814.5" y="-729" font-family="Helvetica,sans-Serif" font-size="10.00">wmtk::TriMesh::tuple</text>
<text text-anchor="middle" x="866" y="-718" font-family="Helvetica,sans-Serif" font-size="10.00">_from_id</text>
</a>
</g>
</g>
<!-- Node7&#45;&gt;Node8 -->
<g id="edge7" class="edge">
<title>Node7&#45;&gt;Node8</title>
<path fill="none" stroke="midnightblue" d="M986.26,-726C966.42,-726 944.93,-726 925.74,-726"/>
<polygon fill="midnightblue" stroke="midnightblue" points="986.46,-729.5 996.46,-726 986.46,-722.5 986.46,-729.5"/>
</g>
<!-- Node9&#45;&gt;Node8 -->
<g id="edge9" class="edge">
<title>Node9&#45;&gt;Node8</title>
<path fill="none" stroke="midnightblue" d="M988.3,-757.7C967.54,-752.27 944.81,-746.33 924.69,-741.08"/>
<polygon fill="midnightblue" stroke="midnightblue" points="987.43,-761.09 997.99,-760.23 989.2,-754.32 987.43,-761.09"/>
</g>
<!-- Node10&#45;&gt;Node4 -->
<g id="edge11" class="edge">
<title>Node10&#45;&gt;Node4</title>
<path fill="none" stroke="midnightblue" d="M1039.69,-471.77C1022.67,-497.25 992.47,-537.24 957,-561 947.97,-567.05 937.61,-571.98 927.21,-575.95"/>
<polygon fill="midnightblue" stroke="midnightblue" points="1042.82,-473.38 1045.35,-463.1 1036.95,-469.56 1042.82,-473.38"/>
</g>
<!-- Node11 -->
<g id="node11" class="node">
<title>Node11</title>
<g id="a_node11"><a xlink:href="namespacewmtk_1_1components_1_1internal.html#abdf0e65326bccb762e8182f1329f3fe8" target="_top" xlink:title=" ">
<polygon fill="none" stroke="black" points="176,-200 176,-230 330,-230 330,-200 176,-200"/>
<text text-anchor="start" x="184" y="-218" font-family="Helvetica,sans-Serif" font-size="10.00">wmtk::components::internal</text>
<text text-anchor="middle" x="253" y="-207" font-family="Helvetica,sans-Serif" font-size="10.00">::edge_insertion</text>
</a>
</g>
</g>
<!-- Node10&#45;&gt;Node11 -->
<g id="edge12" class="edge">
<title>Node10&#45;&gt;Node11</title>
<path fill="none" stroke="midnightblue" d="M1028.49,-469.45C1009.64,-484.08 983,-502.91 957,-515 945.61,-520.3 751.45,-573.32 739,-575 660.16,-585.65 634.91,-601.78 560,-575 389.68,-514.12 285.75,-291.04 260.2,-230.34"/>
<polygon fill="midnightblue" stroke="midnightblue" points="1030.89,-472.02 1036.57,-463.07 1026.55,-466.52 1030.89,-472.02"/>
</g>
<!-- Node13 -->
<g id="node13" class="node">
<title>Node13</title>
<g id="a_node13"><a xlink:href="classwmtk_1_1operations_1_1tri__mesh_1_1_edge_operation_data.html#abde449107fdbb8d53b331d0071109a33" target="_top" xlink:title=" ">
<polygon fill="none" stroke="black" points="791,-464.5 791,-505.5 941,-505.5 941,-464.5 791,-464.5"/>
<text text-anchor="start" x="799" y="-493.5" font-family="Helvetica,sans-Serif" font-size="10.00">wmtk::operations::tri</text>
<text text-anchor="start" x="799" y="-482.5" font-family="Helvetica,sans-Serif" font-size="10.00">_mesh::EdgeOperationData</text>
<text text-anchor="middle" x="866" y="-471.5" font-family="Helvetica,sans-Serif" font-size="10.00">::input_endpoints</text>
</a>
</g>
</g>
<!-- Node10&#45;&gt;Node13 -->
<g id="edge14" class="edge">
<title>Node10&#45;&gt;Node13</title>
<path fill="none" stroke="midnightblue" d="M983,-462.11C969.28,-464.82 954.89,-467.66 941.1,-470.38"/>
<polygon fill="midnightblue" stroke="midnightblue" points="983.71,-465.54 992.85,-460.17 982.36,-458.67 983.71,-465.54"/>
</g>
<!-- Node16 -->
<g id="node16" class="node">
<title>Node16</title>
<g id="a_node16"><a xlink:href="namespacewmtk_1_1simplex.html#aad86388bdc8c1685d7d55fad016f0ca2" target="_top" xlink:title=" ">
<polygon fill="none" stroke="black" points="196.5,-135 196.5,-165 309.5,-165 309.5,-135 196.5,-135"/>
<text text-anchor="start" x="204.5" y="-153" font-family="Helvetica,sans-Serif" font-size="10.00">wmtk::simplex::link</text>
<text text-anchor="middle" x="253" y="-142" font-family="Helvetica,sans-Serif" font-size="10.00">_condition</text>
</a>
</g>
</g>
<!-- Node10&#45;&gt;Node16 -->
<g id="edge17" class="edge">
<title>Node10&#45;&gt;Node16</title>
<path fill="none" stroke="midnightblue" d="M1051.5,-422.74C1044.42,-375.01 1022.02,-271.71 957,-220 857.46,-140.84 457.88,-144 309.68,-148.05"/>
<polygon fill="midnightblue" stroke="midnightblue" points="1048.06,-423.41 1052.89,-432.84 1055,-422.45 1048.06,-423.41"/>
</g>
<!-- Node17 -->
<g id="node17" class="node">
<title>Node17</title>
<g id="a_node17"><a xlink:href="namespacewmtk_1_1simplex.html#a3b3266f811539b7df8d85a51552bc1f7" target="_top" xlink:title=" ">
<polygon fill="none" stroke="black" points="372,-103 372,-133 518,-133 518,-103 372,-103"/>
<text text-anchor="start" x="380" y="-121" font-family="Helvetica,sans-Serif" font-size="10.00">wmtk::simplex::link</text>
<text text-anchor="middle" x="445" y="-110" font-family="Helvetica,sans-Serif" font-size="10.00">_condition_closed_trimesh</text>
</a>
</g>
</g>
<!-- Node10&#45;&gt;Node17 -->
<g id="edge18" class="edge">
<title>Node10&#45;&gt;Node17</title>
<path fill="none" stroke="midnightblue" d="M1047.21,-423.01C1026.55,-352.53 968.36,-156.78 957,-148 890.36,-96.53 642.38,-104.82 518.04,-112.6"/>
<polygon fill="midnightblue" stroke="midnightblue" points="1043.92,-424.21 1050.08,-432.83 1050.63,-422.24 1043.92,-424.21"/>
</g>
<!-- Node18 -->
<g id="node18" class="node">
<title>Node18</title>
<g id="a_node18"><a xlink:href="classwmtk_1_1_tri_mesh.html#a79010f8baac63245558c846aafea10d0" target="_top" xlink:title=" ">
<polygon fill="none" stroke="black" points="788.5,-300.5 788.5,-319.5 943.5,-319.5 943.5,-300.5 788.5,-300.5"/>
<text text-anchor="middle" x="866" y="-307.5" font-family="Helvetica,sans-Serif" font-size="10.00">wmtk::TriMesh::switch_edge</text>
</a>
</g>
</g>
<!-- Node10&#45;&gt;Node18 -->
<g id="edge20" class="edge">
<title>Node10&#45;&gt;Node18</title>
<path fill="none" stroke="midnightblue" d="M1025.8,-426.88C984.54,-396.51 910.11,-341.73 880.09,-319.63"/>
<polygon fill="midnightblue" stroke="midnightblue" points="1023.95,-429.86 1034.08,-432.97 1028.1,-424.22 1023.95,-429.86"/>
</g>
<!-- Node26 -->
<g id="node26" class="node">
<title>Node26</title>
<g id="a_node26"><a xlink:href="classwmtk_1_1_tri_mesh.html#a0ecb0fd199e840ff9f3d206abc10a64b" target="_top" xlink:title=" ">
<polygon fill="none" stroke="black" points="790,-229.5 790,-248.5 942,-248.5 942,-229.5 790,-229.5"/>
<text text-anchor="middle" x="866" y="-236.5" font-family="Helvetica,sans-Serif" font-size="10.00">wmtk::TriMesh::switch_face</text>
</a>
</g>
</g>
<!-- Node10&#45;&gt;Node26 -->
<g id="edge31" class="edge">
<title>Node10&#45;&gt;Node26</title>
<path fill="none" stroke="midnightblue" d="M1043.96,-423.5C1028.69,-390.25 997.73,-330.45 957,-291 937.56,-272.17 910,-257.55 890.51,-248.68"/>
<polygon fill="midnightblue" stroke="midnightblue" points="1040.9,-425.23 1048.19,-432.92 1047.28,-422.36 1040.9,-425.23"/>
</g>
<!-- Node27 -->
<g id="node27" class="node">
<title>Node27</title>
<g id="a_node27"><a xlink:href="classwmtk_1_1_tri_mesh.html#ada97686704b8c13ca21853028a4074b8" target="_top" xlink:title=" ">
<polygon fill="none" stroke="black" points="803.5,-396 803.5,-426 928.5,-426 928.5,-396 803.5,-396"/>
<text text-anchor="start" x="811.5" y="-414" font-family="Helvetica,sans-Serif" font-size="10.00">wmtk::TriMesh::switch</text>
<text text-anchor="middle" x="866" y="-403" font-family="Helvetica,sans-Serif" font-size="10.00">_vertex</text>
</a>
</g>
</g>
<!-- Node10&#45;&gt;Node27 -->
<g id="edge33" class="edge">
<title>Node10&#45;&gt;Node27</title>
<path fill="none" stroke="midnightblue" d="M982.54,-433.8C964.78,-430.29 945.91,-426.57 928.69,-423.17"/>
<polygon fill="midnightblue" stroke="midnightblue" points="982.36,-437.33 992.85,-435.83 983.71,-430.46 982.36,-437.33"/>
</g>
<!-- Node12 -->
<g id="node12" class="node">
<title>Node12</title>
<g id="a_node12"><a xlink:href="namespacewmtk_1_1components.html#a1d95b8c424d645d432babf8ba5765e36" target="_top" xlink:title=" ">
<polygon fill="none" stroke="black" points="0,-200 0,-230 140,-230 140,-200 0,-200"/>
<text text-anchor="start" x="8" y="-218" font-family="Helvetica,sans-Serif" font-size="10.00">wmtk::components::edge</text>
<text text-anchor="middle" x="70" y="-207" font-family="Helvetica,sans-Serif" font-size="10.00">_insertion</text>
</a>
</g>
</g>
<!-- Node11&#45;&gt;Node12 -->
<g id="edge13" class="edge">
<title>Node11&#45;&gt;Node12</title>
<path fill="none" stroke="midnightblue" d="M165.76,-215C157.2,-215 148.59,-215 140.24,-215"/>
<polygon fill="midnightblue" stroke="midnightblue" points="165.76,-218.5 175.76,-215 165.76,-211.5 165.76,-218.5"/>
</g>
<!-- Node14 -->
<g id="node14" class="node">
<title>Node14</title>
<g id="a_node14"><a xlink:href="classwmtk_1_1operations_1_1tri__mesh_1_1_split_new_attribute_topo_info.html#a5f44117bceeaae70d0c4b87f7db7af0a" target="_top" xlink:title=" ">
<polygon fill="none" stroke="black" points="567.5,-524.5 567.5,-565.5 731.5,-565.5 731.5,-524.5 567.5,-524.5"/>
<text text-anchor="start" x="575.5" y="-553.5" font-family="Helvetica,sans-Serif" font-size="10.00">wmtk::operations::tri</text>
<text text-anchor="start" x="575.5" y="-542.5" font-family="Helvetica,sans-Serif" font-size="10.00">_mesh::SplitNewAttributeTopo</text>
<text text-anchor="middle" x="649.5" y="-531.5" font-family="Helvetica,sans-Serif" font-size="10.00">Info::input_ear_simplices</text>
</a>
</g>
</g>
<!-- Node13&#45;&gt;Node14 -->
<g id="edge15" class="edge">
<title>Node13&#45;&gt;Node14</title>
<path fill="none" stroke="midnightblue" d="M781.64,-508.32C762.6,-513.64 742.51,-519.26 723.92,-524.46"/>
<polygon fill="midnightblue" stroke="midnightblue" points="782.79,-511.63 791.48,-505.56 780.91,-504.89 782.79,-511.63"/>
</g>
<!-- Node15 -->
<g id="node15" class="node">
<title>Node15</title>
<g id="a_node15"><a xlink:href="classwmtk_1_1operations_1_1tri__mesh_1_1_collapse_new_attribute_topo_info.html#ad62f4f6e69a6bb038ae1cfd3021e8f4a" target="_top" xlink:title=" ">
<polygon fill="none" stroke="black" points="569,-464.5 569,-505.5 730,-505.5 730,-464.5 569,-464.5"/>
<text text-anchor="start" x="577" y="-493.5" font-family="Helvetica,sans-Serif" font-size="10.00">wmtk::operations::tri</text>
<text text-anchor="start" x="577" y="-482.5" font-family="Helvetica,sans-Serif" font-size="10.00">_mesh::CollapseNewAttribute</text>
<text text-anchor="middle" x="649.5" y="-471.5" font-family="Helvetica,sans-Serif" font-size="10.00">TopoInfo::merged_simplices</text>
</a>
</g>
</g>
<!-- Node13&#45;&gt;Node15 -->
<g id="edge16" class="edge">
<title>Node13&#45;&gt;Node15</title>
<path fill="none" stroke="midnightblue" d="M780.64,-485C764,-485 746.59,-485 730.11,-485"/>
<polygon fill="midnightblue" stroke="midnightblue" points="780.88,-488.5 790.88,-485 780.88,-481.5 780.88,-488.5"/>
</g>
<!-- Node17&#45;&gt;Node16 -->
<g id="edge19" class="edge">
<title>Node17&#45;&gt;Node16</title>
<path fill="none" stroke="midnightblue" d="M361.67,-131.87C344.14,-134.82 326.03,-137.87 309.78,-140.61"/>
<polygon fill="midnightblue" stroke="midnightblue" points="362.62,-135.26 371.9,-130.14 361.46,-128.35 362.62,-135.26"/>
</g>
<!-- Node19 -->
<g id="node19" class="node">
<title>Node19</title>
<g id="a_node19"><a xlink:href="namespacewmtk_1_1mesh__utils.html#a07c6f8b4fe4d3bf868a521ac66aee027" target="_top" xlink:title="compute area vector of face">
<polygon fill="none" stroke="black" points="569.5,-377 569.5,-407 729.5,-407 729.5,-377 569.5,-377"/>
<text text-anchor="start" x="577.5" y="-395" font-family="Helvetica,sans-Serif" font-size="10.00">wmtk::mesh_utils::compute</text>
<text text-anchor="middle" x="649.5" y="-384" font-family="Helvetica,sans-Serif" font-size="10.00">_face_normal_area_weighted</text>
</a>
</g>
</g>
<!-- Node18&#45;&gt;Node19 -->
<g id="edge21" class="edge">
<title>Node18&#45;&gt;Node19</title>
<path fill="none" stroke="midnightblue" d="M830.27,-323.28C791.85,-337.96 730.09,-361.58 689.9,-376.94"/>
<polygon fill="midnightblue" stroke="midnightblue" points="831.88,-326.41 839.97,-319.57 829.38,-319.87 831.88,-326.41"/>
</g>
<!-- Node21 -->
<g id="node21" class="node">
<title>Node21</title>
<g id="a_node21"><a xlink:href="classwmtk_1_1_tri_mesh_1_1_tri_mesh_operation_executor.html#a17977fc07ce1f6618c8dd6e5cef42e6e" target="_top" xlink:title="gather all simplices that are deleted in a collapse">
<polygon fill="none" stroke="black" points="560,-240.5 560,-281.5 739,-281.5 739,-240.5 560,-240.5"/>
<text text-anchor="start" x="568" y="-269.5" font-family="Helvetica,sans-Serif" font-size="10.00">wmtk::TriMesh::TriMeshOperation</text>
<text text-anchor="start" x="568" y="-258.5" font-family="Helvetica,sans-Serif" font-size="10.00">Executor::get_collapse_simplices</text>
<text text-anchor="middle" x="649.5" y="-247.5" font-family="Helvetica,sans-Serif" font-size="10.00">_to_delete</text>
</a>
</g>
</g>
<!-- Node18&#45;&gt;Node21 -->
<g id="edge24" class="edge">
<title>Node18&#45;&gt;Node21</title>
<path fill="none" stroke="midnightblue" d="M813.47,-298.23C791.15,-293.13 764.38,-287.01 739.04,-281.23"/>
<polygon fill="midnightblue" stroke="midnightblue" points="812.86,-301.68 823.39,-300.49 814.42,-294.86 812.86,-301.68"/>
</g>
<!-- Node22 -->
<g id="node22" class="node">
<title>Node22</title>
<g id="a_node22"><a xlink:href="classwmtk_1_1_tri_mesh.html#a1d5d124897281d6a649098213173fdb5" target="_top" xlink:title=" ">
<polygon fill="none" stroke="black" points="573,-191 573,-221 726,-221 726,-191 573,-191"/>
<text text-anchor="start" x="581" y="-209" font-family="Helvetica,sans-Serif" font-size="10.00">wmtk::TriMesh::is_boundary</text>
<text text-anchor="middle" x="649.5" y="-198" font-family="Helvetica,sans-Serif" font-size="10.00">_vertex</text>
</a>
</g>
</g>
<!-- Node18&#45;&gt;Node22 -->
<g id="edge25" class="edge">
<title>Node18&#45;&gt;Node22</title>
<path fill="none" stroke="midnightblue" d="M838.15,-295.59C819.99,-285.58 795.64,-271.64 775,-258 758.31,-246.98 756.93,-239.87 739,-231 731.42,-227.25 723.18,-223.98 714.88,-221.15"/>
<polygon fill="midnightblue" stroke="midnightblue" points="836.58,-298.72 847.03,-300.45 839.94,-292.58 836.58,-298.72"/>
</g>
<!-- Node25 -->
<g id="node25" class="node">
<title>Node25</title>
<g id="a_node25"><a xlink:href="namespacewmtk_1_1simplex.html#a57782c66cdc76e978dfac308de1edd1b" target="_top" xlink:title=" ">
<polygon fill="none" stroke="black" points="578,-300.5 578,-319.5 721,-319.5 721,-300.5 578,-300.5"/>
<text text-anchor="middle" x="649.5" y="-307.5" font-family="Helvetica,sans-Serif" font-size="10.00">wmtk::simplex::open_star</text>
</a>
</g>
</g>
<!-- Node18&#45;&gt;Node25 -->
<g id="edge30" class="edge">
<title>Node18&#45;&gt;Node25</title>
<path fill="none" stroke="midnightblue" d="M778.35,-310C759.38,-310 739.53,-310 721.27,-310"/>
<polygon fill="midnightblue" stroke="midnightblue" points="778.47,-313.5 788.47,-310 778.47,-306.5 778.47,-313.5"/>
</g>
<!-- Node19&#45;&gt;Node5 -->
<g id="edge23" class="edge">
<title>Node19&#45;&gt;Node5</title>
<path fill="none" stroke="midnightblue" d="M575.12,-411.73C569.72,-414.7 564.59,-418.1 560,-422 494.06,-478 460.53,-581.99 449.86,-620.84"/>
<polygon fill="midnightblue" stroke="midnightblue" points="577.01,-414.7 584.44,-407.15 573.92,-408.42 577.01,-414.7"/>
</g>
<!-- Node20 -->
<g id="node20" class="node">
<title>Node20</title>
<g id="a_node20"><a xlink:href="namespacewmtk_1_1mesh__utils.html#a05b2e8377c52bd2da29a3b2c38bef90d" target="_top" xlink:title="compute the normalized face normal based on the vertex positions">
<polygon fill="none" stroke="black" points="369,-377 369,-407 521,-407 521,-377 369,-377"/>
<text text-anchor="start" x="377" y="-395" font-family="Helvetica,sans-Serif" font-size="10.00">wmtk::mesh_utils::compute</text>
<text text-anchor="middle" x="445" y="-384" font-family="Helvetica,sans-Serif" font-size="10.00">_face_normal</text>
</a>
</g>
</g>
<!-- Node19&#45;&gt;Node20 -->
<g id="edge22" class="edge">
<title>Node19&#45;&gt;Node20</title>
<path fill="none" stroke="midnightblue" d="M559.21,-392C546.5,-392 533.54,-392 521.13,-392"/>
<polygon fill="midnightblue" stroke="midnightblue" points="559.34,-395.5 569.34,-392 559.34,-388.5 559.34,-395.5"/>
</g>
<!-- Node23 -->
<g id="node23" class="node">
<title>Node23</title>
<g id="a_node23"><a xlink:href="classwmtk_1_1function_1_1_edge_valence_energy.html#af25dd9d07e1f9d18c92c7a3395f271c1" target="_top" xlink:title="This function is defined over a simplex (normally a triangle or tetrahedron).">
<polygon fill="none" stroke="black" points="366,-280 366,-310 524,-310 524,-280 366,-280"/>
<text text-anchor="start" x="374" y="-298" font-family="Helvetica,sans-Serif" font-size="10.00">wmtk::function::EdgeValence</text>
<text text-anchor="middle" x="445" y="-287" font-family="Helvetica,sans-Serif" font-size="10.00">Energy::get_value</text>
</a>
</g>
</g>
<!-- Node22&#45;&gt;Node23 -->
<g id="edge26" class="edge">
<title>Node22&#45;&gt;Node23</title>
<path fill="none" stroke="midnightblue" d="M578.11,-224.23C571.92,-226.33 565.81,-228.59 560,-231 527.09,-244.66 491.67,-265.64 469.19,-279.82"/>
<polygon fill="midnightblue" stroke="midnightblue" points="579.43,-227.48 587.86,-221.07 577.27,-220.82 579.43,-227.48"/>
</g>
<!-- Node24 -->
<g id="node24" class="node">
<title>Node24</title>
<g id="a_node24"><a xlink:href="classwmtk_1_1_tri_mesh.html#a2e568aaaffd6e68904c5cecd8256ed93" target="_top" xlink:title="check if a simplex (encoded as a tuple/primitive pair) lies on a boundary or not">
<polygon fill="none" stroke="black" points="368.5,-193.5 368.5,-212.5 521.5,-212.5 521.5,-193.5 368.5,-193.5"/>
<text text-anchor="middle" x="445" y="-200.5" font-family="Helvetica,sans-Serif" font-size="10.00">wmtk::TriMesh::is_boundary</text>
</a>
</g>
</g>
<!-- Node22&#45;&gt;Node24 -->
<g id="edge27" class="edge">
<title>Node22&#45;&gt;Node24</title>
<path fill="none" stroke="midnightblue" d="M562.5,-204.73C548.91,-204.52 534.94,-204.32 521.6,-204.12"/>
<polygon fill="midnightblue" stroke="midnightblue" points="562.76,-208.23 572.81,-204.88 562.86,-201.23 562.76,-208.23"/>
</g>
<!-- Node24&#45;&gt;Node11 -->
<g id="edge28" class="edge">
<title>Node24&#45;&gt;Node11</title>
<path fill="none" stroke="midnightblue" d="M358.3,-208.41C348.97,-209 339.52,-209.6 330.31,-210.18"/>
<polygon fill="midnightblue" stroke="midnightblue" points="358.6,-211.9 368.36,-207.78 358.16,-204.91 358.6,-211.9"/>
</g>
<!-- Node24&#45;&gt;Node16 -->
<g id="edge29" class="edge">
<title>Node24&#45;&gt;Node16</title>
<path fill="none" stroke="midnightblue" d="M399.88,-190.69C372.45,-183.04 337,-173.15 307.91,-165.04"/>
<polygon fill="midnightblue" stroke="midnightblue" points="399.02,-194.09 409.59,-193.4 400.9,-187.34 399.02,-194.09"/>
</g>
<!-- Node26&#45;&gt;Node22 -->
<g id="edge32" class="edge">
<title>Node26&#45;&gt;Node22</title>
<path fill="none" stroke="midnightblue" d="M793.2,-227.95C771.7,-224.65 748.04,-221.01 726.29,-217.66"/>
<polygon fill="midnightblue" stroke="midnightblue" points="792.83,-231.44 803.25,-229.5 793.89,-224.52 792.83,-231.44"/>
</g>
<!-- Node27&#45;&gt;Node5 -->
<g id="edge35" class="edge">
<title>Node27&#45;&gt;Node5</title>
<path fill="none" stroke="midnightblue" d="M792.96,-414.48C715.17,-419.42 597.36,-430.74 560,-455 496.93,-495.96 462.31,-585.37 450.59,-620.96"/>
<polygon fill="midnightblue" stroke="midnightblue" points="793.42,-417.95 803.18,-413.85 792.99,-410.97 793.42,-417.95"/>
</g>
<!-- Node27&#45;&gt;Node19 -->
<g id="edge34" class="edge">
<title>Node27&#45;&gt;Node19</title>
<path fill="none" stroke="midnightblue" d="M793.12,-404.63C772.79,-402.83 750.55,-400.86 729.81,-399.03"/>
<polygon fill="midnightblue" stroke="midnightblue" points="792.98,-408.13 803.25,-405.53 793.59,-401.16 792.98,-408.13"/>
</g>
<!-- Node27&#45;&gt;Node23 -->
<g id="edge36" class="edge">
<title>Node27&#45;&gt;Node23</title>
<path fill="none" stroke="midnightblue" d="M816.35,-392.39C793.15,-383.94 764.87,-374.23 739,-367 660.67,-345.11 638.81,-349.08 560,-329 537.89,-323.36 513.62,-316.26 493.19,-310"/>
<polygon fill="midnightblue" stroke="midnightblue" points="815.37,-395.76 825.96,-395.93 817.79,-389.19 815.37,-395.76"/>
</g>
<!-- Node28&#45;&gt;Node8 -->
<g id="edge38" class="edge">
<title>Node28&#45;&gt;Node8</title>
<path fill="none" stroke="midnightblue" d="M987.07,-694.62C966.55,-699.98 944.21,-705.82 924.42,-710.99"/>
<polygon fill="midnightblue" stroke="midnightblue" points="988.18,-697.95 996.97,-692.03 986.41,-691.18 988.18,-697.95"/>
</g>
<!-- Node30&#45;&gt;Node3 -->
<g id="edge48" class="edge">
<title>Node30&#45;&gt;Node3</title>
<path fill="none" stroke="midnightblue" d="M1360.7,-641.66C1343.13,-643.69 1324.6,-645.84 1307.66,-647.8"/>
<polygon fill="midnightblue" stroke="midnightblue" points="1361.38,-645.11 1370.91,-640.48 1360.57,-638.15 1361.38,-645.11"/>
</g>
<!-- Node30&#45;&gt;Node7 -->
<g id="edge41" class="edge">
<title>Node30&#45;&gt;Node7</title>
<path fill="none" stroke="midnightblue" d="M1389.61,-645.81C1383.27,-647.99 1376.92,-650.4 1371,-653 1354.04,-660.46 1352.36,-667.54 1335,-674 1261.71,-701.28 1172.02,-714.73 1114.58,-721.01"/>
<polygon fill="midnightblue" stroke="midnightblue" points="1391.07,-649.02 1399.48,-642.58 1388.89,-642.36 1391.07,-649.02"/>
</g>
<!-- Node30&#45;&gt;Node9 -->
<g id="edge42" class="edge">
<title>Node30&#45;&gt;Node9</title>
<path fill="none" stroke="midnightblue" d="M1381.26,-646.64C1377.64,-648.5 1374.17,-650.61 1371,-653 1347.67,-670.59 1358.95,-691.27 1335,-708 1267.29,-755.28 1234.22,-730.41 1154,-750 1140.76,-753.23 1126.54,-756.82 1113.16,-760.24"/>
<polygon fill="midnightblue" stroke="midnightblue" points="1382.81,-649.78 1390.52,-642.51 1379.96,-643.39 1382.81,-649.78"/>
</g>
<!-- Node30&#45;&gt;Node10 -->
<g id="edge50" class="edge">
<title>Node30&#45;&gt;Node10</title>
<path fill="none" stroke="midnightblue" d="M1381.9,-619.66C1378.1,-617.98 1374.43,-616.1 1371,-614 1351.16,-601.85 1353.91,-589.55 1335,-576 1260.59,-522.7 1160.45,-483.24 1102.74,-463.08"/>
<polygon fill="midnightblue" stroke="midnightblue" points="1380.9,-623.03 1391.49,-623.43 1383.47,-616.52 1380.9,-623.03"/>
</g>
<!-- Node31 -->
<g id="node31" class="node">
<title>Node31</title>
<g id="a_node31"><a xlink:href="classwmtk_1_1_tri_mesh.html#ac603f7969b10c674eb00e007a507a530" target="_top" xlink:title=" ">
<polygon fill="none" stroke="black" points="775,-76.5 775,-95.5 957,-95.5 957,-76.5 775,-76.5"/>
<text text-anchor="middle" x="866" y="-83.5" font-family="Helvetica,sans-Serif" font-size="10.00">wmtk::TriMesh::is_boundary_edge</text>
</a>
</g>
</g>
<!-- Node30&#45;&gt;Node31 -->
<g id="edge43" class="edge">
<title>Node30&#45;&gt;Node31</title>
<path fill="none" stroke="midnightblue" d="M1375.51,-618.01C1373.91,-616.78 1372.41,-615.44 1371,-614 1327.66,-569.53 1366.16,-532.71 1335,-479 1216.41,-274.57 1165.07,-217.07 957,-105 949.83,-101.14 941.94,-98.06 933.91,-95.61"/>
<polygon fill="midnightblue" stroke="midnightblue" points="1373.73,-621.03 1384.06,-623.38 1377.46,-615.1 1373.73,-621.03"/>
</g>
<!-- Node33 -->
<g id="node33" class="node">
<title>Node33</title>
<g id="a_node33"><a xlink:href="classwmtk_1_1operations_1_1utils_1_1_update_edge_operation_multi_mesh_map_functor.html#aac119196791985369035cec5059809fd" target="_top" xlink:title=" ">
<polygon fill="none" stroke="black" points="1154,-585.5 1154,-626.5 1335,-626.5 1335,-585.5 1154,-585.5"/>
<text text-anchor="start" x="1162" y="-614.5" font-family="Helvetica,sans-Serif" font-size="10.00">wmtk::operations::utils</text>
<text text-anchor="start" x="1162" y="-603.5" font-family="Helvetica,sans-Serif" font-size="10.00">::UpdateEdgeOperationMultiMesh</text>
<text text-anchor="middle" x="1244.5" y="-592.5" font-family="Helvetica,sans-Serif" font-size="10.00">MapFunctor::operator()</text>
</a>
</g>
</g>
<!-- Node30&#45;&gt;Node33 -->
<g id="edge49" class="edge">
<title>Node30&#45;&gt;Node33</title>
<path fill="none" stroke="midnightblue" d="M1360.78,-622.38C1352.37,-621.19 1343.73,-619.96 1335.16,-618.74"/>
<polygon fill="midnightblue" stroke="midnightblue" points="1360.52,-625.88 1370.91,-623.82 1361.5,-618.95 1360.52,-625.88"/>
</g>
<!-- Node31&#45;&gt;Node16 -->
<g id="edge46" class="edge">
<title>Node31&#45;&gt;Node16</title>
<path fill="none" stroke="midnightblue" d="M778.27,-75.48C677.52,-65.94 507.08,-58.12 366,-93 332.54,-101.27 297.72,-121.05 275.96,-134.97"/>
<polygon fill="midnightblue" stroke="midnightblue" points="778.1,-78.98 788.4,-76.47 778.78,-72.02 778.1,-78.98"/>
</g>
<!-- Node31&#45;&gt;Node22 -->
<g id="edge45" class="edge">
<title>Node31&#45;&gt;Node22</title>
<path fill="none" stroke="midnightblue" d="M838.96,-100.57C797.96,-123.5 718.78,-167.8 677.31,-191"/>
<polygon fill="midnightblue" stroke="midnightblue" points="840.79,-103.55 847.81,-95.62 837.37,-97.45 840.79,-103.55"/>
</g>
<!-- Node31&#45;&gt;Node24 -->
<g id="edge44" class="edge">
<title>Node31&#45;&gt;Node24</title>
<path fill="none" stroke="midnightblue" d="M820.97,-98.29C737.03,-121.73 555.76,-172.35 480.17,-193.46"/>
<polygon fill="midnightblue" stroke="midnightblue" points="822.02,-101.64 830.71,-95.57 820.14,-94.89 822.02,-101.64"/>
</g>
<!-- Node32 -->
<g id="node32" class="node">
<title>Node32</title>
<g id="a_node32"><a xlink:href="test__component__isotropic__remeshing_8cpp.html#a9e0dd9408a6fe42f1fb8e8764f740dda" target="_top" xlink:title=" ">
<polygon fill="none" stroke="black" points="614,-0.5 614,-19.5 685,-19.5 685,-0.5 614,-0.5"/>
<text text-anchor="middle" x="649.5" y="-7.5" font-family="Helvetica,sans-Serif" font-size="10.00">TEST_CASE</text>
</a>
</g>
</g>
<!-- Node31&#45;&gt;Node32 -->
<g id="edge47" class="edge">
<title>Node31&#45;&gt;Node32</title>
<path fill="none" stroke="midnightblue" d="M834.51,-72.14C809.24,-60.97 772.23,-45.31 739,-34 721.52,-28.05 701.71,-22.56 685.27,-18.34"/>
<polygon fill="midnightblue" stroke="midnightblue" points="833.35,-75.46 843.91,-76.33 836.2,-69.06 833.35,-75.46"/>
</g>
</g>
</svg>
