<?xml version="1.0" encoding="UTF-8" standalone="no"?>
<!DOCTYPE svg PUBLIC "-//W3C//DTD SVG 1.1//EN"
 "http://www.w3.org/Graphics/SVG/1.1/DTD/svg11.dtd">
<!-- Generated by graphviz version 2.43.0 (0)
 -->
<!-- Title: wmtk::mesh_utils::set_matrix_attribute Pages: 1 -->
<!--zoomable 413 -->
<svg id="main" version="1.1" xmlns="http://www.w3.org/2000/svg" xmlns:xlink="http://www.w3.org/1999/xlink" xml:space="preserve" onload="init(evt)">
<style type="text/css"><![CDATA[
.edge:hover path { stroke: red; }
.edge:hover polygon { stroke: red; fill: red; }
]]></style>
<script type="text/javascript"><![CDATA[
var edges = document.getElementsByTagName('g');
if (edges && edges.length) {
  for (var i=0;i<edges.length;i++) {
    if (edges[i].id.substr(0,4)=='edge') {
      edges[i].setAttribute('class','edge');
    }
  }
}
]]></script>
        <defs>
                <circle id="rim" cx="0" cy="0" r="7"/>
                <circle id="rim2" cx="0" cy="0" r="3.5"/>
                <g id="zoomPlus">
                        <use xlink:href="#rim" fill="#404040">
                                <set attributeName="fill" to="#808080" begin="zoomplus.mouseover" end="zoomplus.mouseout"/>
                        </use>
                        <path d="M-4,0h8M0,-4v8" fill="none" stroke="white" stroke-width="1.5" pointer-events="none"/>
                </g>
                <g id="zoomMin">
                        <use xlink:href="#rim" fill="#404040">
                                <set attributeName="fill" to="#808080" begin="zoomminus.mouseover" end="zoomminus.mouseout"/>
                        </use>
                        <path d="M-4,0h8" fill="none" stroke="white" stroke-width="1.5" pointer-events="none"/>
                </g>
                <g id="dirArrow">
                        <path fill="none" stroke="white" stroke-width="1.5" d="M0,-3.0v7 M-2.5,-0.5L0,-3.0L2.5,-0.5"/>
                </g>
               <g id="resetDef">
                       <use xlink:href="#rim2" fill="#404040">
                               <set attributeName="fill" to="#808080" begin="reset.mouseover" end="reset.mouseout"/>
                       </use>
               </g>
        </defs>

<script type="text/javascript">
var viewWidth = 1352;
var viewHeight = 413;
var sectionId = 'dynsection-6';
</script>
<script xlink:href="svgpan.js"/>
<svg id="graph" class="graph">
<g id="viewport">
<title>wmtk::mesh_utils::set_matrix_attribute</title>
<!-- Node1 -->
<g id="node1" class="node">
<title>Node1</title>
<g id="a_node1"><a xlink:title=" ">
<polygon fill="#bfbfbf" stroke="black" points="1219,-298 1219,-328 1344,-328 1344,-298 1219,-298"/>
<text text-anchor="start" x="1227" y="-316" font-family="Helvetica,sans-Serif" font-size="10.00">wmtk::mesh_utils::set</text>
<text text-anchor="middle" x="1281.5" y="-305" font-family="Helvetica,sans-Serif" font-size="10.00">_matrix_attribute</text>
</a>
</g>
</g>
<!-- Node2 -->
<g id="node2" class="node">
<title>Node2</title>
<g id="a_node2"><a xlink:href="namespacewmtk_1_1components.html#a21e25d3a6f734e991354c2294bf49bbe" target="_top" xlink:title=" ">
<polygon fill="none" stroke="black" points="442,-385.5 442,-404.5 631,-404.5 631,-385.5 442,-385.5"/>
<text text-anchor="middle" x="536.5" y="-392.5" font-family="Helvetica,sans-Serif" font-size="10.00">wmtk::components::delaunay_exec</text>
</a>
</g>
</g>
<!-- Node1&#45;&gt;Node2 -->
<g id="edge1" class="edge">
<title>Node1&#45;&gt;Node2</title>
<path fill="none" stroke="midnightblue" d="M1208.68,-327.8C1200.05,-329.34 1191.34,-330.78 1183,-332 987.6,-360.51 756.98,-379.52 631.1,-388.67"/>
<polygon fill="midnightblue" stroke="midnightblue" points="1209.55,-331.2 1218.76,-325.95 1208.29,-324.31 1209.55,-331.2"/>
</g>
<!-- Node3 -->
<g id="node3" class="node">
<title>Node3</title>
<g id="a_node3"><a xlink:href="namespacewmtk_1_1components_1_1internal.html#a7e292eba37fd37581ede0aa29943c3db" target="_top" xlink:title="Build a tagged triangle mesh from a greyscale image.">
<polygon fill="none" stroke="black" points="1022,-254 1022,-284 1183,-284 1183,-254 1022,-254"/>
<text text-anchor="start" x="1030" y="-272" font-family="Helvetica,sans-Serif" font-size="10.00">wmtk::components::internal</text>
<text text-anchor="middle" x="1102.5" y="-261" font-family="Helvetica,sans-Serif" font-size="10.00">::mesh_with_tag_from_image</text>
</a>
</g>
</g>
<!-- Node1&#45;&gt;Node3 -->
<g id="edge2" class="edge">
<title>Node1&#45;&gt;Node3</title>
<path fill="none" stroke="midnightblue" d="M1210.16,-295.51C1194.87,-291.71 1178.82,-287.72 1163.95,-284.03"/>
<polygon fill="midnightblue" stroke="midnightblue" points="1209.53,-298.96 1220.08,-297.98 1211.22,-292.17 1209.53,-298.96"/>
</g>
<!-- Node4 -->
<g id="node4" class="node">
<title>Node4</title>
<g id="a_node4"><a xlink:href="classwmtk_1_1_msh_reader.html#a5eecae37de86c25ce483dbc69f14adac" target="_top" xlink:title=" ">
<polygon fill="none" stroke="black" points="1036,-303.5 1036,-322.5 1169,-322.5 1169,-303.5 1036,-303.5"/>
<text text-anchor="middle" x="1102.5" y="-310.5" font-family="Helvetica,sans-Serif" font-size="10.00">wmtk::MshReader::read</text>
</a>
</g>
</g>
<!-- Node1&#45;&gt;Node4 -->
<g id="edge3" class="edge">
<title>Node1&#45;&gt;Node4</title>
<path fill="none" stroke="midnightblue" d="M1208.35,-313C1195.43,-313 1182.02,-313 1169.28,-313"/>
<polygon fill="midnightblue" stroke="midnightblue" points="1208.59,-316.5 1218.59,-313 1208.59,-309.5 1208.59,-316.5"/>
</g>
<!-- Node5 -->
<g id="node5" class="node">
<title>Node5</title>
<g id="a_node5"><a xlink:href="namespacewmtk.html#acc69252d3800a00676c9e7e51621538f" target="_top" xlink:title=" ">
<polygon fill="none" stroke="black" points="882,-271.5 882,-290.5 986,-290.5 986,-271.5 882,-271.5"/>
<text text-anchor="middle" x="934" y="-278.5" font-family="Helvetica,sans-Serif" font-size="10.00">wmtk::read_mesh</text>
</a>
</g>
</g>
<!-- Node4&#45;&gt;Node5 -->
<g id="edge4" class="edge">
<title>Node4&#45;&gt;Node5</title>
<path fill="none" stroke="midnightblue" d="M1042.05,-301.57C1023.23,-297.96 1002.65,-294 984.6,-290.53"/>
<polygon fill="midnightblue" stroke="midnightblue" points="1041.51,-305.04 1052,-303.49 1042.84,-298.16 1041.51,-305.04"/>
</g>
<!-- Node6 -->
<g id="node6" class="node">
<title>Node6</title>
<g id="a_node6"><a xlink:href="classwmtk_1_1io_1_1_cache.html#a6d9002c95cb93e5e4e68eaa6b5083f8c" target="_top" xlink:title="Compare two caches for equality.">
<polygon fill="none" stroke="black" points="689.5,-233.5 689.5,-252.5 823.5,-252.5 823.5,-233.5 689.5,-233.5"/>
<text text-anchor="middle" x="756.5" y="-240.5" font-family="Helvetica,sans-Serif" font-size="10.00">wmtk::io::Cache::equals</text>
</a>
</g>
</g>
<!-- Node5&#45;&gt;Node6 -->
<g id="edge5" class="edge">
<title>Node5&#45;&gt;Node6</title>
<path fill="none" stroke="midnightblue" d="M879.62,-269.31C868.51,-266.89 856.87,-264.35 846,-262 831.72,-258.91 816.13,-255.55 802.07,-252.54"/>
<polygon fill="midnightblue" stroke="midnightblue" points="879.12,-272.78 889.64,-271.5 880.62,-265.95 879.12,-272.78"/>
</g>
<!-- Node7 -->
<g id="node7" class="node">
<title>Node7</title>
<g id="a_node7"><a xlink:href="namespacewmtk_1_1components.html#acc0863c70557234ebf67c9b79e63fa71" target="_top" xlink:title=" ">
<polygon fill="none" stroke="black" points="686,-95.5 686,-114.5 827,-114.5 827,-95.5 686,-95.5"/>
<text text-anchor="middle" x="756.5" y="-102.5" font-family="Helvetica,sans-Serif" font-size="10.00">wmtk::components::input</text>
</a>
</g>
</g>
<!-- Node5&#45;&gt;Node7 -->
<g id="edge6" class="edge">
<title>Node5&#45;&gt;Node7</title>
<path fill="none" stroke="midnightblue" d="M915.95,-263.91C879.73,-227.58 796.07,-143.68 767.37,-114.9"/>
<polygon fill="midnightblue" stroke="midnightblue" points="913.77,-266.68 923.31,-271.29 918.73,-261.73 913.77,-266.68"/>
</g>
<!-- Node12 -->
<g id="node12" class="node">
<title>Node12</title>
<g id="a_node12"><a xlink:href="classwmtk_1_1io_1_1_cache.html#ae8e0a75e2e3df0e8a1680ab62bbc814e" target="_top" xlink:title="Load a mesh from cache.">
<polygon fill="none" stroke="black" points="679,-271.5 679,-290.5 834,-290.5 834,-271.5 679,-271.5"/>
<text text-anchor="middle" x="756.5" y="-278.5" font-family="Helvetica,sans-Serif" font-size="10.00">wmtk::io::Cache::read_mesh</text>
</a>
</g>
</g>
<!-- Node5&#45;&gt;Node12 -->
<g id="edge14" class="edge">
<title>Node5&#45;&gt;Node12</title>
<path fill="none" stroke="midnightblue" d="M871.42,-281C859.41,-281 846.68,-281 834.24,-281"/>
<polygon fill="midnightblue" stroke="midnightblue" points="871.77,-284.5 881.77,-281 871.77,-277.5 871.77,-284.5"/>
</g>
<!-- Node18 -->
<g id="node18" class="node">
<title>Node18</title>
<g id="a_node18"><a xlink:href="namespacewmtk_1_1components.html#abdd44e69a3ec70ad4b9c327dc3ae9d8e" target="_top" xlink:title=" ">
<polygon fill="none" stroke="black" points="667,-309.5 667,-328.5 846,-328.5 846,-309.5 667,-309.5"/>
<text text-anchor="middle" x="756.5" y="-316.5" font-family="Helvetica,sans-Serif" font-size="10.00">wmtk::components::wildmeshing</text>
</a>
</g>
</g>
<!-- Node5&#45;&gt;Node18 -->
<g id="edge21" class="edge">
<title>Node5&#45;&gt;Node18</title>
<path fill="none" stroke="midnightblue" d="M879.62,-292.69C868.51,-295.11 856.87,-297.65 846,-300 831.72,-303.09 816.13,-306.45 802.07,-309.46"/>
<polygon fill="midnightblue" stroke="midnightblue" points="880.62,-296.05 889.64,-290.5 879.12,-289.22 880.62,-296.05"/>
</g>
<!-- Node8 -->
<g id="node8" class="node">
<title>Node8</title>
<g id="a_node8"><a xlink:href="classwmtk_1_1utils_1_1metaprogramming_1_1detail_1_1_reference_wrapped_functor_return_cache.html#a79a5f07c106ce8b9c97ad9afc2bcbdcd" target="_top" xlink:title=" ">
<polygon fill="none" stroke="black" points="221,-0.5 221,-41.5 406,-41.5 406,-0.5 221,-0.5"/>
<text text-anchor="start" x="229" y="-29.5" font-family="Helvetica,sans-Serif" font-size="10.00">wmtk::utils::metaprogramming</text>
<text text-anchor="start" x="229" y="-18.5" font-family="Helvetica,sans-Serif" font-size="10.00">::detail::ReferenceWrappedFunctor</text>
<text text-anchor="middle" x="313.5" y="-7.5" font-family="Helvetica,sans-Serif" font-size="10.00">ReturnCache::add</text>
</a>
</g>
</g>
<!-- Node7&#45;&gt;Node8 -->
<g id="edge7" class="edge">
<title>Node7&#45;&gt;Node8</title>
<path fill="none" stroke="midnightblue" d="M737.01,-88.55C714.04,-69.31 672.75,-38.49 631,-26 557.68,-4.07 470.48,-4.52 406.19,-9.49"/>
<polygon fill="midnightblue" stroke="midnightblue" points="735.01,-91.45 744.88,-95.3 739.56,-86.13 735.01,-91.45"/>
</g>
<!-- Node9 -->
<g id="node9" class="node">
<title>Node9</title>
<g id="a_node9"><a xlink:href="classwmtk_1_1utils_1_1metaprogramming_1_1detail_1_1_reference_wrapped_functor_return_cache.html#a3fe48c2dfe4e46ed2f18e0a87d51bd22" target="_top" xlink:title=" ">
<polygon fill="none" stroke="black" points="0,-97.5 0,-138.5 185,-138.5 185,-97.5 0,-97.5"/>
<text text-anchor="start" x="8" y="-126.5" font-family="Helvetica,sans-Serif" font-size="10.00">wmtk::utils::metaprogramming</text>
<text text-anchor="start" x="8" y="-115.5" font-family="Helvetica,sans-Serif" font-size="10.00">::detail::ReferenceWrappedFunctor</text>
<text text-anchor="middle" x="92.5" y="-104.5" font-family="Helvetica,sans-Serif" font-size="10.00">ReturnCache::get</text>
</a>
</g>
</g>
<!-- Node7&#45;&gt;Node9 -->
<g id="edge8" class="edge">
<title>Node7&#45;&gt;Node9</title>
<path fill="none" stroke="midnightblue" d="M675.57,-111.11C660.76,-112.15 645.41,-113.16 631,-114 449.03,-124.62 403.23,-128.29 221,-124 209.37,-123.73 197.15,-123.31 185.06,-122.83"/>
<polygon fill="midnightblue" stroke="midnightblue" points="676,-114.59 685.72,-110.39 675.5,-107.6 676,-114.59"/>
</g>
<!-- Node10 -->
<g id="node10" class="node">
<title>Node10</title>
<g id="a_node10"><a xlink:href="classwmtk_1_1utils_1_1metaprogramming_1_1detail_1_1_reference_wrapped_functor_return_cache.html#ae0f094cd19574b98771ed8eb7fac95b8" target="_top" xlink:title=" ">
<polygon fill="none" stroke="black" points="444,-35.5 444,-76.5 629,-76.5 629,-35.5 444,-35.5"/>
<text text-anchor="start" x="452" y="-64.5" font-family="Helvetica,sans-Serif" font-size="10.00">wmtk::utils::metaprogramming</text>
<text text-anchor="start" x="452" y="-53.5" font-family="Helvetica,sans-Serif" font-size="10.00">::detail::ReferenceWrappedFunctor</text>
<text text-anchor="middle" x="536.5" y="-42.5" font-family="Helvetica,sans-Serif" font-size="10.00">ReturnCache::get_id</text>
</a>
</g>
</g>
<!-- Node7&#45;&gt;Node10 -->
<g id="edge9" class="edge">
<title>Node7&#45;&gt;Node10</title>
<path fill="none" stroke="midnightblue" d="M703.29,-93.26C680.97,-88.25 654.25,-82.24 628.85,-76.53"/>
<polygon fill="midnightblue" stroke="midnightblue" points="702.68,-96.72 713.21,-95.49 704.22,-89.89 702.68,-96.72"/>
</g>
<!-- Node11 -->
<g id="node11" class="node">
<title>Node11</title>
<g id="a_node11"><a xlink:href="classwmtk_1_1utils_1_1metaprogramming_1_1detail_1_1_reference_wrapped_functor_return_cache.html#a5290906e9b9c635dc1bd82246eb39b42" target="_top" xlink:title=" ">
<polygon fill="none" stroke="black" points="221,-73.5 221,-114.5 406,-114.5 406,-73.5 221,-73.5"/>
<text text-anchor="start" x="229" y="-102.5" font-family="Helvetica,sans-Serif" font-size="10.00">wmtk::utils::metaprogramming</text>
<text text-anchor="start" x="229" y="-91.5" font-family="Helvetica,sans-Serif" font-size="10.00">::detail::ReferenceWrappedFunctor</text>
<text text-anchor="middle" x="313.5" y="-80.5" font-family="Helvetica,sans-Serif" font-size="10.00">ReturnCache::get_variant</text>
</a>
</g>
</g>
<!-- Node7&#45;&gt;Node11 -->
<g id="edge13" class="edge">
<title>Node7&#45;&gt;Node11</title>
<path fill="none" stroke="midnightblue" d="M675.18,-103C599.32,-101.1 485.65,-98.27 406.26,-96.29"/>
<polygon fill="midnightblue" stroke="midnightblue" points="675.54,-106.51 685.62,-103.26 675.71,-99.51 675.54,-106.51"/>
</g>
<!-- Node10&#45;&gt;Node8 -->
<g id="edge10" class="edge">
<title>Node10&#45;&gt;Node8</title>
<path fill="none" stroke="midnightblue" d="M433.72,-39.88C424.48,-38.42 415.16,-36.94 406.02,-35.49"/>
<polygon fill="midnightblue" stroke="midnightblue" points="433.27,-43.35 443.7,-41.46 434.37,-36.44 433.27,-43.35"/>
</g>
<!-- Node10&#45;&gt;Node11 -->
<g id="edge11" class="edge">
<title>Node10&#45;&gt;Node11</title>
<path fill="none" stroke="midnightblue" d="M433.72,-73.5C424.48,-75.09 415.16,-76.69 406.02,-78.26"/>
<polygon fill="midnightblue" stroke="midnightblue" points="434.43,-76.93 443.7,-71.79 433.25,-70.03 434.43,-76.93"/>
</g>
<!-- Node11&#45;&gt;Node9 -->
<g id="edge12" class="edge">
<title>Node11&#45;&gt;Node9</title>
<path fill="none" stroke="midnightblue" d="M210.85,-105.14C202.26,-106.08 193.6,-107.03 185.09,-107.96"/>
<polygon fill="midnightblue" stroke="midnightblue" points="211.33,-108.61 220.89,-104.04 210.57,-101.65 211.33,-108.61"/>
</g>
<!-- Node12&#45;&gt;Node2 -->
<g id="edge15" class="edge">
<title>Node12&#45;&gt;Node2</title>
<path fill="none" stroke="midnightblue" d="M673.62,-295.41C671.32,-296.81 669.1,-298.34 667,-300 637.7,-323.21 660.42,-352.95 631,-376 626.18,-379.78 620.79,-382.86 615.11,-385.37"/>
<polygon fill="midnightblue" stroke="midnightblue" points="675.62,-298.31 682.89,-290.61 672.4,-292.1 675.62,-298.31"/>
</g>
<!-- Node13 -->
<g id="node13" class="node">
<title>Node13</title>
<g id="a_node13"><a xlink:href="namespacewmtk_1_1components.html#a6966b2a96c545f618a274961433aed56" target="_top" xlink:title=" ">
<polygon fill="none" stroke="black" points="457.5,-336 457.5,-366 615.5,-366 615.5,-336 457.5,-336"/>
<text text-anchor="start" x="465.5" y="-354" font-family="Helvetica,sans-Serif" font-size="10.00">wmtk::components::isotropic</text>
<text text-anchor="middle" x="536.5" y="-343" font-family="Helvetica,sans-Serif" font-size="10.00">_remeshing</text>
</a>
</g>
</g>
<!-- Node12&#45;&gt;Node13 -->
<g id="edge16" class="edge">
<title>Node12&#45;&gt;Node13</title>
<path fill="none" stroke="midnightblue" d="M684.78,-293.39C678.66,-295.3 672.65,-297.49 667,-300 648.97,-308.02 648.83,-317.53 631,-326 622.96,-329.82 614.23,-333.13 605.46,-335.98"/>
<polygon fill="midnightblue" stroke="midnightblue" points="685.8,-296.74 694.46,-290.62 683.88,-290.01 685.8,-296.74"/>
</g>
<!-- Node14 -->
<g id="node14" class="node">
<title>Node14</title>
<g id="a_node14"><a xlink:href="namespacewmtk_1_1components.html#aac5b85cd0cb0fc0f003a9035c9803abe" target="_top" xlink:title="Perform maching tetrahedra/triangles.">
<polygon fill="none" stroke="black" points="455.5,-297.5 455.5,-316.5 617.5,-316.5 617.5,-297.5 455.5,-297.5"/>
<text text-anchor="middle" x="536.5" y="-304.5" font-family="Helvetica,sans-Serif" font-size="10.00">wmtk::components::marching</text>
</a>
</g>
</g>
<!-- Node12&#45;&gt;Node14 -->
<g id="edge17" class="edge">
<title>Node12&#45;&gt;Node14</title>
<path fill="none" stroke="midnightblue" d="M668.99,-291.32C651.9,-293.36 634.04,-295.49 617.19,-297.5"/>
<polygon fill="midnightblue" stroke="midnightblue" points="669.43,-294.79 678.95,-290.13 668.6,-287.84 669.43,-294.79"/>
</g>
<!-- Node15 -->
<g id="node15" class="node">
<title>Node15</title>
<g id="a_node15"><a xlink:href="namespacewmtk_1_1components.html#a1545ca81e801e5e1999f743db925c6f0" target="_top" xlink:title=" ">
<polygon fill="none" stroke="black" points="453,-259.5 453,-278.5 620,-278.5 620,-259.5 453,-259.5"/>
<text text-anchor="middle" x="536.5" y="-266.5" font-family="Helvetica,sans-Serif" font-size="10.00">wmtk::components::mesh_info</text>
</a>
</g>
</g>
<!-- Node12&#45;&gt;Node15 -->
<g id="edge18" class="edge">
<title>Node12&#45;&gt;Node15</title>
<path fill="none" stroke="midnightblue" d="M668.57,-276.21C652.61,-275.34 636,-274.42 620.17,-273.55"/>
<polygon fill="midnightblue" stroke="midnightblue" points="668.77,-279.73 678.95,-276.79 669.16,-272.74 668.77,-279.73"/>
</g>
<!-- Node16 -->
<g id="node16" class="node">
<title>Node16</title>
<g id="a_node16"><a xlink:href="namespacewmtk_1_1components.html#a2ee3b8a38040141d283b2b7c1c50d1d3" target="_top" xlink:title=" ">
<polygon fill="none" stroke="black" points="462.5,-221.5 462.5,-240.5 610.5,-240.5 610.5,-221.5 462.5,-221.5"/>
<text text-anchor="middle" x="536.5" y="-228.5" font-family="Helvetica,sans-Serif" font-size="10.00">wmtk::components::output</text>
</a>
</g>
</g>
<!-- Node12&#45;&gt;Node16 -->
<g id="edge19" class="edge">
<title>Node12&#45;&gt;Node16</title>
<path fill="none" stroke="midnightblue" d="M696.06,-269.18C686.31,-266.97 676.34,-264.55 667,-262 650.73,-257.56 647.29,-254.35 631,-250 617.88,-246.49 603.57,-243.28 590.18,-240.54"/>
<polygon fill="midnightblue" stroke="midnightblue" points="695.6,-272.66 706.11,-271.4 697.11,-265.83 695.6,-272.66"/>
</g>
<!-- Node17 -->
<g id="node17" class="node">
<title>Node17</title>
<g id="a_node17"><a xlink:href="namespacewmtk_1_1components.html#a2ddd687e41d1d3739fb61c70111d62b1" target="_top" xlink:title=" ">
<polygon fill="none" stroke="black" points="461,-172 461,-202 612,-202 612,-172 461,-172"/>
<text text-anchor="start" x="469" y="-190" font-family="Helvetica,sans-Serif" font-size="10.00">wmtk::components::regular</text>
<text text-anchor="middle" x="536.5" y="-179" font-family="Helvetica,sans-Serif" font-size="10.00">_space</text>
</a>
</g>
</g>
<!-- Node12&#45;&gt;Node17 -->
<g id="edge20" class="edge">
<title>Node12&#45;&gt;Node17</title>
<path fill="none" stroke="midnightblue" d="M676.92,-267.54C673.47,-265.89 670.14,-264.06 667,-262 644.08,-247.01 653.54,-227.55 631,-212 625.19,-207.99 618.77,-204.63 612.1,-201.8"/>
<polygon fill="midnightblue" stroke="midnightblue" points="675.73,-270.83 686.3,-271.44 678.42,-264.37 675.73,-270.83"/>
</g>
</g>
</svg>
        <g id="navigator" transform="translate(0 0)" fill="#404254">
                <rect fill="#f2f5e9" fill-opacity="0.5" stroke="#606060" stroke-width=".5" x="0" y="0" width="60" height="60"/>
                <use id="zoomplus" xlink:href="#zoomPlus" x="17" y="9" onmousedown="handleZoom(evt,'in')"/>
                <use id="zoomminus" xlink:href="#zoomMin" x="42" y="9" onmousedown="handleZoom(evt,'out')"/>
                <use id="reset" xlink:href="#resetDef" x="30" y="36" onmousedown="handleReset()"/>
                <g id="arrowUp" xlink:href="#dirArrow" transform="translate(30 24)" onmousedown="handlePan(0,-1)">
                  <use xlink:href="#rim" fill="#404040">
                        <set attributeName="fill" to="#808080" begin="arrowUp.mouseover" end="arrowUp.mouseout"/>
                  </use>
                  <path fill="none" stroke="white" stroke-width="1.5" d="M0,-3.0v7 M-2.5,-0.5L0,-3.0L2.5,-0.5"/>
                </g>
                <g id="arrowRight" xlink:href="#dirArrow" transform="rotate(90) translate(36 -43)" onmousedown="handlePan(1,0)">
                  <use xlink:href="#rim" fill="#404040">
                        <set attributeName="fill" to="#808080" begin="arrowRight.mouseover" end="arrowRight.mouseout"/>
                  </use>
                  <path fill="none" stroke="white" stroke-width="1.5" d="M0,-3.0v7 M-2.5,-0.5L0,-3.0L2.5,-0.5"/>
                </g>
                <g id="arrowDown" xlink:href="#dirArrow" transform="rotate(180) translate(-30 -48)" onmousedown="handlePan(0,1)">
                  <use xlink:href="#rim" fill="#404040">
                        <set attributeName="fill" to="#808080" begin="arrowDown.mouseover" end="arrowDown.mouseout"/>
                  </use>
                  <path fill="none" stroke="white" stroke-width="1.5" d="M0,-3.0v7 M-2.5,-0.5L0,-3.0L2.5,-0.5"/>
                </g>
                <g id="arrowLeft" xlink:href="#dirArrow" transform="rotate(270) translate(-36 17)" onmousedown="handlePan(-1,0)">
                  <use xlink:href="#rim" fill="#404040">
                        <set attributeName="fill" to="#808080" begin="arrowLeft.mouseover" end="arrowLeft.mouseout"/>
                  </use>
                  <path fill="none" stroke="white" stroke-width="1.5" d="M0,-3.0v7 M-2.5,-0.5L0,-3.0L2.5,-0.5"/>
                </g>
        </g>
        <svg viewBox="0 0 15 15" width="100%" height="30px" preserveAspectRatio="xMaxYMin meet">
         <g id="arrow_out" transform="scale(0.3 0.3)">
          <a xlink:href="namespacewmtk_1_1mesh__utils_a8977491d37ece9a7fd4f320140571ffa_icgraph_org.svg" target="_base">
           <rect id="button" ry="5" rx="5" y="6" x="6" height="38" width="38"
                fill="#f2f5e9" fill-opacity="0.5" stroke="#606060" stroke-width="1.0"/>
           <path id="arrow"
             d="M 11.500037,31.436501 C 11.940474,20.09759 22.043105,11.32322 32.158766,21.979434 L 37.068811,17.246167 C 37.068811,17.246167 37.088388,32 37.088388,32 L 22.160133,31.978069 C 22.160133,31.978069 26.997745,27.140456 26.997745,27.140456 C 18.528582,18.264221 13.291696,25.230495 11.500037,31.436501 z"
             style="fill:#404040;"/>
          </a>
         </g>
        </svg>
</svg>
