<?xml version="1.0" encoding="UTF-8" standalone="no"?>
<!DOCTYPE svg PUBLIC "-//W3C//DTD SVG 1.1//EN"
 "http://www.w3.org/Graphics/SVG/1.1/DTD/svg11.dtd">
<!-- Generated by graphviz version 2.43.0 (0)
 -->
<!-- Title: wmtk::function::Tet_AMIPS_energy Pages: 1 -->
<svg width="365pt" height="127pt"
 viewBox="0.00 0.00 365.00 126.50" xmlns="http://www.w3.org/2000/svg" xmlns:xlink="http://www.w3.org/1999/xlink">
<g id="graph0" class="graph" transform="scale(1 1) rotate(0) translate(4 122.5)">
<title>wmtk::function::Tet_AMIPS_energy</title>
<!-- Node1 -->
<g id="node1" class="node">
<title>Node1</title>
<g id="a_node1"><a xlink:title=" ">
<polygon fill="#bfbfbf" stroke="black" points="247,-39 247,-69 357,-69 357,-39 247,-39"/>
<text text-anchor="start" x="255" y="-57" font-family="Helvetica,sans-Serif" font-size="10.00">wmtk::function::Tet</text>
<text text-anchor="middle" x="302" y="-46" font-family="Helvetica,sans-Serif" font-size="10.00">_AMIPS_energy</text>
</a>
</g>
</g>
<!-- Node2 -->
<g id="node2" class="node">
<title>Node2</title>
<g id="a_node2"><a xlink:href="classwmtk_1_1function_1_1_a_m_i_p_s.html#af9abca3d72a09a1b5f792fb7f94f7076" target="_top" xlink:title="This function is defined over a simplex (normally a triangle or tetrahedron).">
<polygon fill="none" stroke="black" points="42,-88 42,-118 169,-118 169,-88 42,-88"/>
<text text-anchor="start" x="50" y="-106" font-family="Helvetica,sans-Serif" font-size="10.00">wmtk::function::AMIPS</text>
<text text-anchor="middle" x="105.5" y="-95" font-family="Helvetica,sans-Serif" font-size="10.00">::get_value</text>
</a>
</g>
</g>
<!-- Node1&#45;&gt;Node2 -->
<g id="edge1" class="edge">
<title>Node1&#45;&gt;Node2</title>
<path fill="none" stroke="midnightblue" d="M238.42,-71.77C229.24,-74.27 219.89,-76.75 211,-79 197.47,-82.43 182.89,-85.91 169.05,-89.12"/>
<polygon fill="midnightblue" stroke="midnightblue" points="239.56,-75.09 248.28,-69.07 237.71,-68.34 239.56,-75.09"/>
</g>
<!-- Node3 -->
<g id="node3" class="node">
<title>Node3</title>
<g id="a_node3"><a xlink:href="classwmtk_1_1operations_1_1_a_m_i_p_s_optimization_smoothing_1_1_w_m_t_k_a_m_i_p_s_problem.html#ab59d438a581f80e7c225a440c0cfafb6" target="_top" xlink:title=" ">
<polygon fill="none" stroke="black" points="0,-39 0,-69 211,-69 211,-39 0,-39"/>
<text text-anchor="start" x="8" y="-57" font-family="Helvetica,sans-Serif" font-size="10.00">wmtk::operations::AMIPSOptimization</text>
<text text-anchor="middle" x="105.5" y="-46" font-family="Helvetica,sans-Serif" font-size="10.00">Smoothing::WMTKAMIPSProblem::value</text>
</a>
</g>
</g>
<!-- Node1&#45;&gt;Node3 -->
<g id="edge2" class="edge">
<title>Node1&#45;&gt;Node3</title>
<path fill="none" stroke="midnightblue" d="M236.58,-54C228.32,-54 219.71,-54 211.02,-54"/>
<polygon fill="midnightblue" stroke="midnightblue" points="236.82,-57.5 246.82,-54 236.82,-50.5 236.82,-57.5"/>
</g>
<!-- Node4 -->
<g id="node4" class="node">
<title>Node4</title>
<g id="a_node4"><a xlink:href="namespacewmtk_1_1components.html#a503af91b8a2d86f4b9af9dbded55bec0" target="_top" xlink:title=" ">
<polygon fill="none" stroke="black" points="16,-0.5 16,-19.5 195,-19.5 195,-0.5 16,-0.5"/>
<text text-anchor="middle" x="105.5" y="-7.5" font-family="Helvetica,sans-Serif" font-size="10.00">wmtk::components::wildmeshing</text>
</a>
</g>
</g>
<!-- Node1&#45;&gt;Node4 -->
<g id="edge3" class="edge">
<title>Node1&#45;&gt;Node4</title>
<path fill="none" stroke="midnightblue" d="M237.11,-36.36C228.36,-34.12 219.48,-31.94 211,-30 194.61,-26.25 176.67,-22.64 160.35,-19.54"/>
<polygon fill="midnightblue" stroke="midnightblue" points="236.34,-39.78 246.9,-38.9 238.1,-33 236.34,-39.78"/>
</g>
</g>
</svg>
