<?xml version="1.0" encoding="UTF-8" standalone="no"?>
<!DOCTYPE svg PUBLIC "-//W3C//DTD SVG 1.1//EN"
 "http://www.w3.org/Graphics/SVG/1.1/DTD/svg11.dtd">
<!-- Generated by graphviz version 2.43.0 (0)
 -->
<!-- Title: wmtk::components::set_operation_energy_filter_after_sizing_field Pages: 1 -->
<svg width="1649pt" height="697pt"
 viewBox="0.00 0.00 1649.00 697.25" xmlns="http://www.w3.org/2000/svg" xmlns:xlink="http://www.w3.org/1999/xlink">
<g id="graph0" class="graph" transform="scale(1 1) rotate(0) translate(4 693.25)">
<title>wmtk::components::set_operation_energy_filter_after_sizing_field</title>
<!-- Node1 -->
<g id="Node000001" class="node">
<title>Node1</title>
<g id="a_Node000001"><a xlink:title=" ">
<polygon fill="#999999" stroke="#666666" points="135,-467.75 0,-467.75 0,-426.75 135,-426.75 135,-467.75"/>
<text text-anchor="start" x="8" y="-455.75" font-family="Helvetica,sans-Serif" font-size="10.00">wmtk::components::set</text>
<text text-anchor="start" x="8" y="-444.75" font-family="Helvetica,sans-Serif" font-size="10.00">_operation_energy_filter</text>
<text text-anchor="middle" x="67.5" y="-433.75" font-family="Helvetica,sans-Serif" font-size="10.00">_after_sizing_field</text>
</a>
</g>
</g>
<!-- Node2 -->
<g id="Node000002" class="node">
<title>Node2</title>
<g id="a_Node000002"><a xlink:href="classwmtk_1_1_mesh.html#a5f7e9ae7268c929db6161af3e2c6eb73" target="_top" xlink:title=" ">
<polygon fill="white" stroke="#666666" points="295,-689.25 182,-689.25 182,-659.25 295,-659.25 295,-689.25"/>
<text text-anchor="start" x="190" y="-677.25" font-family="Helvetica,sans-Serif" font-size="10.00">wmtk::Mesh::create</text>
<text text-anchor="middle" x="238.5" y="-666.25" font-family="Helvetica,sans-Serif" font-size="10.00">_accessor</text>
</a>
</g>
</g>
<!-- Node1&#45;&gt;Node2 -->
<g id="edge1_Node000001_Node000002" class="edge">
<title>Node1&#45;&gt;Node2</title>
<g id="a_edge1_Node000001_Node000002"><a xlink:title=" ">
<path fill="none" stroke="#63b8ff" d="M73.45,-467.95C84.21,-508.61 113.51,-599.34 171,-650.25 172.33,-651.42 173.72,-652.54 175.15,-653.61"/>
<polygon fill="#63b8ff" stroke="#63b8ff" points="173.55,-656.74 183.87,-659.14 177.3,-650.82 173.55,-656.74"/>
</a>
</g>
</g>
<!-- Node3 -->
<g id="Node000003" class="node">
<title>Node3</title>
<g id="a_Node000003"><a xlink:href="classwmtk_1_1_mesh.html#a357182137d99f1e4a7ff536eadfc0e56" target="_top" xlink:title=" ">
<polygon fill="white" stroke="#666666" points="295,-641.25 182,-641.25 182,-611.25 295,-611.25 295,-641.25"/>
<text text-anchor="start" x="190" y="-629.25" font-family="Helvetica,sans-Serif" font-size="10.00">wmtk::Mesh::create</text>
<text text-anchor="middle" x="238.5" y="-618.25" font-family="Helvetica,sans-Serif" font-size="10.00">_const_accessor</text>
</a>
</g>
</g>
<!-- Node1&#45;&gt;Node3 -->
<g id="edge2_Node000001_Node000003" class="edge">
<title>Node1&#45;&gt;Node3</title>
<g id="a_edge2_Node000001_Node000003"><a xlink:title=" ">
<path fill="none" stroke="#63b8ff" d="M76.95,-467.89C91.45,-500.84 124.09,-565.35 171,-602.25 172.76,-603.63 174.61,-604.95 176.53,-606.19"/>
<polygon fill="#63b8ff" stroke="#63b8ff" points="174.87,-609.27 185.29,-611.17 178.33,-603.18 174.87,-609.27"/>
</a>
</g>
</g>
<!-- Node4 -->
<g id="Node000004" class="node">
<title>Node4</title>
<g id="a_Node000004"><a xlink:href="classwmtk_1_1_mesh.html#a6d2a546c8f661bf6386cf845a1693d2f" target="_top" xlink:title="Generate a vector of Tuples from global vertex/edge/triangle/tetrahedron index.">
<polygon fill="white" stroke="#666666" points="296.5,-574.75 180.5,-574.75 180.5,-555.75 296.5,-555.75 296.5,-574.75"/>
<text text-anchor="middle" x="238.5" y="-562.75" font-family="Helvetica,sans-Serif" font-size="10.00">wmtk::Mesh::get_all</text>
</a>
</g>
</g>
<!-- Node1&#45;&gt;Node4 -->
<g id="edge3_Node000001_Node000004" class="edge">
<title>Node1&#45;&gt;Node4</title>
<g id="a_edge3_Node000001_Node000004"><a xlink:title=" ">
<path fill="none" stroke="#63b8ff" d="M86.28,-467.77C105.38,-488.73 137.54,-520.99 171,-541.25 177.87,-545.4 185.56,-549 193.22,-552.06"/>
<polygon fill="#63b8ff" stroke="#63b8ff" points="192.24,-555.43 202.83,-555.64 194.68,-548.87 192.24,-555.43"/>
</a>
</g>
</g>
<!-- Node5 -->
<g id="Node000005" class="node">
<title>Node5</title>
<g id="a_Node000005"><a xlink:href="namespacewmtk_1_1simplex.html#a3260444c136dbe145679b762c52f6a16" target="_top" xlink:title=" ">
<polygon fill="white" stroke="#666666" points="295,-456.75 182,-456.75 182,-437.75 295,-437.75 295,-456.75"/>
<text text-anchor="middle" x="238.5" y="-444.75" font-family="Helvetica,sans-Serif" font-size="10.00">wmtk::simplex::link</text>
</a>
</g>
</g>
<!-- Node1&#45;&gt;Node5 -->
<g id="edge5_Node000001_Node000005" class="edge">
<title>Node1&#45;&gt;Node5</title>
<g id="a_edge5_Node000001_Node000005"><a xlink:title=" ">
<path fill="none" stroke="#63b8ff" d="M135.29,-447.25C147.21,-447.25 159.62,-447.25 171.51,-447.25"/>
<polygon fill="#63b8ff" stroke="#63b8ff" points="171.81,-450.75 181.81,-447.25 171.81,-443.75 171.81,-450.75"/>
</a>
</g>
</g>
<!-- Node18 -->
<g id="Node000018" class="node">
<title>Node18</title>
<g id="a_Node000018"><a xlink:href="classwmtk_1_1simplex_1_1_simplex_collection.html#a3c5684abe23553010bb7f87840e9518d" target="_top" xlink:title="Return const reference to the simplex vector.">
<polygon fill="white" stroke="#666666" points="923,-609.25 739,-609.25 739,-579.25 923,-579.25 923,-609.25"/>
<text text-anchor="start" x="747" y="-597.25" font-family="Helvetica,sans-Serif" font-size="10.00">wmtk::simplex::SimplexCollection</text>
<text text-anchor="middle" x="831" y="-586.25" font-family="Helvetica,sans-Serif" font-size="10.00">::simplex_vector</text>
</a>
</g>
</g>
<!-- Node1&#45;&gt;Node18 -->
<g id="edge40_Node000001_Node000018" class="edge">
<title>Node1&#45;&gt;Node18</title>
<g id="a_edge40_Node000001_Node000018"><a xlink:title=" ">
<path fill="none" stroke="#63b8ff" d="M115.97,-467.78C214.3,-509.9 437.85,-603.36 519,-618.25 598,-632.74 689.85,-622.38 753.14,-611.11"/>
<polygon fill="#63b8ff" stroke="#63b8ff" points="753.85,-614.54 763.05,-609.29 752.58,-607.65 753.85,-614.54"/>
</a>
</g>
</g>
<!-- Node24 -->
<g id="Node000024" class="node">
<title>Node24</title>
<g id="a_Node000024"><a xlink:href="classwmtk_1_1_mesh.html#abaf00438d0700358b160e310d69725c9" target="_top" xlink:title=" ">
<polygon fill="white" stroke="#666666" points="916,-218.75 746,-218.75 746,-199.75 916,-199.75 916,-218.75"/>
<text text-anchor="middle" x="831" y="-206.75" font-family="Helvetica,sans-Serif" font-size="10.00">wmtk::Mesh::top_simplex_type</text>
</a>
</g>
</g>
<!-- Node1&#45;&gt;Node24 -->
<g id="edge41_Node000001_Node000024" class="edge">
<title>Node1&#45;&gt;Node24</title>
<g id="a_edge41_Node000001_Node000024"><a xlink:title=" ">
<path fill="none" stroke="#63b8ff" d="M120.21,-426.6C231.57,-382.9 503.12,-280.36 739,-223.25 742.55,-222.39 746.19,-221.57 749.88,-220.79"/>
<polygon fill="#63b8ff" stroke="#63b8ff" points="750.59,-224.22 759.71,-218.84 749.22,-217.36 750.59,-224.22"/>
</a>
</g>
</g>
<!-- Node28 -->
<g id="Node000028" class="node">
<title>Node28</title>
<g id="a_Node000028"><a xlink:href="classwmtk_1_1_mesh.html#ab832ace56e7e07d16291ad568f3d73d9" target="_top" xlink:title=" ">
<polygon fill="white" stroke="#666666" points="294,-333.25 183,-333.25 183,-303.25 294,-303.25 294,-333.25"/>
<text text-anchor="start" x="191" y="-321.25" font-family="Helvetica,sans-Serif" font-size="10.00">wmtk::Mesh::orient</text>
<text text-anchor="middle" x="238.5" y="-310.25" font-family="Helvetica,sans-Serif" font-size="10.00">_vertices</text>
</a>
</g>
</g>
<!-- Node1&#45;&gt;Node28 -->
<g id="edge39_Node000001_Node000028" class="edge">
<title>Node1&#45;&gt;Node28</title>
<g id="a_edge39_Node000001_Node000028"><a xlink:title=" ">
<path fill="none" stroke="#63b8ff" d="M85.59,-426.6C104.62,-404.64 137.17,-370 171,-347.25 176.14,-343.79 181.77,-340.59 187.5,-337.67"/>
<polygon fill="#63b8ff" stroke="#63b8ff" points="189.03,-340.82 196.53,-333.33 186,-334.51 189.03,-340.82"/>
</a>
</g>
</g>
<!-- Node29 -->
<g id="Node000029" class="node">
<title>Node29</title>
<g id="a_Node000029"><a xlink:href="classwmtk_1_1simplex_1_1_simplex.html#a7de67a391b9f48b57f4ecb4c412ccaee" target="_top" xlink:title=" ">
<polygon fill="white" stroke="#666666" points="306,-285.25 171,-285.25 171,-255.25 306,-255.25 306,-285.25"/>
<text text-anchor="start" x="179" y="-273.25" font-family="Helvetica,sans-Serif" font-size="10.00">wmtk::simplex::Simplex</text>
<text text-anchor="middle" x="238.5" y="-262.25" font-family="Helvetica,sans-Serif" font-size="10.00">::vertex</text>
</a>
</g>
</g>
<!-- Node1&#45;&gt;Node29 -->
<g id="edge42_Node000001_Node000029" class="edge">
<title>Node1&#45;&gt;Node29</title>
<g id="a_edge42_Node000001_Node000029"><a xlink:title=" ">
<path fill="none" stroke="#63b8ff" d="M77.14,-426.61C91.8,-394.01 124.52,-330.57 171,-294.25 172.77,-292.87 174.62,-291.56 176.54,-290.32"/>
<polygon fill="#63b8ff" stroke="#63b8ff" points="178.34,-293.33 185.31,-285.35 174.89,-287.24 178.34,-293.33"/>
</a>
</g>
</g>
<!-- Node31 -->
<g id="Node000031" class="node">
<title>Node31</title>
<g id="a_Node000031"><a xlink:href="namespacewmtk_1_1simplex.html#a04b1e47aa146538c1a677fc9c5538241" target="_top" xlink:title=" ">
<polygon fill="white" stroke="#666666" points="479.5,-81.75 345.5,-81.75 345.5,-62.75 479.5,-62.75 479.5,-81.75"/>
<text text-anchor="middle" x="412.5" y="-69.75" font-family="Helvetica,sans-Serif" font-size="10.00">wmtk::simplex::vertices</text>
</a>
</g>
</g>
<!-- Node1&#45;&gt;Node31 -->
<g id="edge44_Node000001_Node000031" class="edge">
<title>Node1&#45;&gt;Node31</title>
<g id="a_edge44_Node000001_Node000031"><a xlink:title=" ">
<path fill="none" stroke="#63b8ff" d="M75.34,-426.55C88.89,-387.88 122.09,-303.38 171,-246.25 234.31,-172.29 335.14,-112.74 383.65,-86.6"/>
<polygon fill="#63b8ff" stroke="#63b8ff" points="385.44,-89.61 392.62,-81.82 382.15,-83.43 385.44,-89.61"/>
</a>
</g>
</g>
<!-- Node4&#45;&gt;Node4 -->
<g id="edge4_Node000004_Node000004" class="edge">
<title>Node4&#45;&gt;Node4</title>
<g id="a_edge4_Node000004_Node000004"><a xlink:title=" ">
<path fill="none" stroke="#63b8ff" d="M212.3,-574.83C199.55,-583.48 208.29,-592.75 238.5,-592.75 258.8,-592.75 269.4,-588.56 270.31,-583.2"/>
<polygon fill="#63b8ff" stroke="#63b8ff" points="273.18,-581.19 264.7,-574.83 267.36,-585.08 273.18,-581.19"/>
</a>
</g>
</g>
<!-- Node5&#45;&gt;Node5 -->
<g id="edge6_Node000005_Node000005" class="edge">
<title>Node5&#45;&gt;Node5</title>
<g id="a_edge6_Node000005_Node000005"><a xlink:title=" ">
<path fill="none" stroke="#63b8ff" d="M212.3,-456.83C199.55,-465.48 208.29,-474.75 238.5,-474.75 258.8,-474.75 269.4,-470.56 270.31,-465.2"/>
<polygon fill="#63b8ff" stroke="#63b8ff" points="273.18,-463.19 264.7,-456.83 267.36,-467.08 273.18,-463.19"/>
</a>
</g>
</g>
<!-- Node6 -->
<g id="Node000006" class="node">
<title>Node6</title>
<g id="a_Node000006"><a xlink:href="namespacewmtk_1_1simplex.html#a50d0026adbac4883ab00460ada1c1cfe" target="_top" xlink:title=" ">
<polygon fill="white" stroke="#666666" points="483,-522.75 342,-522.75 342,-503.75 483,-503.75 483,-522.75"/>
<text text-anchor="middle" x="412.5" y="-510.75" font-family="Helvetica,sans-Serif" font-size="10.00">wmtk::simplex::link_slow</text>
</a>
</g>
</g>
<!-- Node5&#45;&gt;Node6 -->
<g id="edge7_Node000005_Node000006" class="edge">
<title>Node5&#45;&gt;Node6</title>
<g id="a_edge7_Node000005_Node000006"><a xlink:title=" ">
<path fill="none" stroke="#63b8ff" d="M264.51,-456.84C294.15,-468.22 343.69,-487.23 376.97,-500"/>
<polygon fill="#63b8ff" stroke="#63b8ff" points="376.15,-503.43 386.74,-503.75 378.66,-496.9 376.15,-503.43"/>
</a>
</g>
</g>
<!-- Node5&#45;&gt;Node24 -->
<g id="edge38_Node000005_Node000024" class="edge">
<title>Node5&#45;&gt;Node24</title>
<g id="a_edge38_Node000005_Node000024"><a xlink:title=" ">
<path fill="none" stroke="#63b8ff" d="M295.09,-442.09C411.66,-430.79 673.36,-402.65 703,-375.25 751.69,-330.24 693.68,-275.51 738.71,-225.08"/>
<polygon fill="#63b8ff" stroke="#63b8ff" points="741.19,-227.54 745.77,-217.99 736.23,-222.6 741.19,-227.54"/>
</a>
</g>
</g>
<!-- Node7 -->
<g id="Node000007" class="node">
<title>Node7</title>
<g id="a_Node000007"><a xlink:href="classwmtk_1_1simplex_1_1_simplex_collection.html#a1e7079b3b75f70dd28c524556cab76cf" target="_top" xlink:title="Add simplex to the collection.">
<polygon fill="white" stroke="#666666" points="1387,-484.75 1179,-484.75 1179,-465.75 1387,-465.75 1387,-484.75"/>
<text text-anchor="middle" x="1283" y="-472.75" font-family="Helvetica,sans-Serif" font-size="10.00">wmtk::simplex::SimplexCollection::add</text>
</a>
</g>
</g>
<!-- Node6&#45;&gt;Node7 -->
<g id="edge8_Node000006_Node000007" class="edge">
<title>Node6&#45;&gt;Node7</title>
<g id="a_edge8_Node000006_Node000007"><a xlink:title=" ">
<path fill="none" stroke="#63b8ff" d="M419.74,-522.92C434.21,-544.41 472.37,-595.96 519,-618.25 681.29,-695.81 744.34,-663.07 923,-642.25 1022.8,-630.61 1053.05,-635 1143,-590.25 1193.86,-564.94 1242.42,-517.77 1266.42,-492.42"/>
<polygon fill="#63b8ff" stroke="#63b8ff" points="1269.06,-494.71 1273.31,-485.01 1263.94,-489.94 1269.06,-494.71"/>
</a>
</g>
</g>
<!-- Node8 -->
<g id="Node000008" class="node">
<title>Node8</title>
<g id="a_Node000008"><a xlink:href="namespacewmtk_1_1simplex.html#a2ed8f83fbda4dc05306bfe8d2ce7ab94" target="_top" xlink:title="The closed star contains the input simplex, all its top dimension cofaces, and their faces.">
<polygon fill="white" stroke="#666666" points="686.5,-446.75 535.5,-446.75 535.5,-427.75 686.5,-427.75 686.5,-446.75"/>
<text text-anchor="middle" x="611" y="-434.75" font-family="Helvetica,sans-Serif" font-size="10.00">wmtk::simplex::closed_star</text>
</a>
</g>
</g>
<!-- Node6&#45;&gt;Node8 -->
<g id="edge9_Node000006_Node000008" class="edge">
<title>Node6&#45;&gt;Node8</title>
<g id="a_edge9_Node000006_Node000008"><a xlink:title=" ">
<path fill="none" stroke="#63b8ff" d="M430.21,-503.7C450.63,-492.35 486.49,-473.41 519,-461.25 530.95,-456.78 544.09,-452.8 556.56,-449.43"/>
<polygon fill="#63b8ff" stroke="#63b8ff" points="557.61,-452.78 566.4,-446.86 555.84,-446 557.61,-452.78"/>
</a>
</g>
</g>
<!-- Node9 -->
<g id="Node000009" class="node">
<title>Node9</title>
<g id="a_Node000009"><a xlink:href="namespacewmtk_1_1simplex.html#aee89641a0de7b5ddf8d15bf376f9d33b" target="_top" xlink:title="Returns all faces of a simplex.">
<polygon fill="white" stroke="#666666" points="892,-542.75 770,-542.75 770,-523.75 892,-523.75 892,-542.75"/>
<text text-anchor="middle" x="831" y="-530.75" font-family="Helvetica,sans-Serif" font-size="10.00">wmtk::simplex::faces</text>
</a>
</g>
</g>
<!-- Node6&#45;&gt;Node9 -->
<g id="edge34_Node000006_Node000009" class="edge">
<title>Node6&#45;&gt;Node9</title>
<g id="a_edge34_Node000006_Node000009"><a xlink:title=" ">
<path fill="none" stroke="#63b8ff" d="M474.73,-503.73C489.21,-501.87 504.62,-500.2 519,-499.25 600.6,-493.86 621.97,-488.2 703,-499.25 719.45,-501.49 722.97,-504.91 739,-509.25 753.34,-513.13 768.97,-517.28 783.17,-521.02"/>
<polygon fill="#63b8ff" stroke="#63b8ff" points="782.66,-524.51 793.22,-523.66 784.44,-517.74 782.66,-524.51"/>
</a>
</g>
</g>
<!-- Node6&#45;&gt;Node18 -->
<g id="edge36_Node000006_Node000018" class="edge">
<title>Node6&#45;&gt;Node18</title>
<g id="a_edge36_Node000006_Node000018"><a xlink:title=" ">
<path fill="none" stroke="#63b8ff" d="M483.24,-506.7C543.88,-503.83 632.77,-506.53 703,-537.25 722.89,-545.95 719.95,-559.84 739,-570.25 742.45,-572.13 746.06,-573.87 749.76,-575.48"/>
<polygon fill="#63b8ff" stroke="#63b8ff" points="748.54,-578.77 759.12,-579.22 751.13,-572.26 748.54,-578.77"/>
</a>
</g>
</g>
<!-- Node19 -->
<g id="Node000019" class="node">
<title>Node19</title>
<g id="a_Node000019"><a xlink:href="classwmtk_1_1simplex_1_1_simplex_collection.html#ab318c99d54327383ff1b985bed043f3a" target="_top" xlink:title="Sort simplex vector and remove duplicates.">
<polygon fill="white" stroke="#666666" points="1143,-581.25 959,-581.25 959,-551.25 1143,-551.25 1143,-581.25"/>
<text text-anchor="start" x="967" y="-569.25" font-family="Helvetica,sans-Serif" font-size="10.00">wmtk::simplex::SimplexCollection</text>
<text text-anchor="middle" x="1051" y="-558.25" font-family="Helvetica,sans-Serif" font-size="10.00">::sort_and_clean</text>
</a>
</g>
</g>
<!-- Node6&#45;&gt;Node19 -->
<g id="edge37_Node000006_Node000019" class="edge">
<title>Node6&#45;&gt;Node19</title>
<g id="a_edge37_Node000006_Node000019"><a xlink:title=" ">
<path fill="none" stroke="#63b8ff" d="M455.79,-522.79C475.04,-527.05 498.14,-532.05 519,-536.25 600.53,-552.66 632.32,-526.42 703,-570.25 725.66,-584.3 715.15,-606.32 739,-618.25 812.14,-654.82 842.76,-634.04 923,-618.25 954.71,-612.01 988.48,-597.78 1013.22,-585.78"/>
<polygon fill="#63b8ff" stroke="#63b8ff" points="1014.83,-588.89 1022.24,-581.31 1011.72,-582.61 1014.83,-588.89"/>
</a>
</g>
</g>
<!-- Node27 -->
<g id="Node000027" class="node">
<title>Node27</title>
<g id="a_Node000027"><a xlink:href="classwmtk_1_1simplex_1_1_simplex_collection.html#a592a38f5119ed654001d88d032bcea9c" target="_top" xlink:title="Get intersection of two simplex collections.">
<polygon fill="white" stroke="#666666" points="703,-609.25 519,-609.25 519,-579.25 703,-579.25 703,-609.25"/>
<text text-anchor="start" x="527" y="-597.25" font-family="Helvetica,sans-Serif" font-size="10.00">wmtk::simplex::SimplexCollection</text>
<text text-anchor="middle" x="611" y="-586.25" font-family="Helvetica,sans-Serif" font-size="10.00">::get_intersection</text>
</a>
</g>
</g>
<!-- Node6&#45;&gt;Node27 -->
<g id="edge35_Node000006_Node000027" class="edge">
<title>Node6&#45;&gt;Node27</title>
<g id="a_edge35_Node000006_Node000027"><a xlink:title=" ">
<path fill="none" stroke="#63b8ff" d="M431.05,-522.91C451.69,-534.03 487.18,-552.42 519,-565.25 528.34,-569.01 538.38,-572.63 548.25,-575.94"/>
<polygon fill="#63b8ff" stroke="#63b8ff" points="547.44,-579.36 558.03,-579.16 549.62,-572.71 547.44,-579.36"/>
</a>
</g>
</g>
<!-- Node8&#45;&gt;Node7 -->
<g id="edge10_Node000008_Node000007" class="edge">
<title>Node8&#45;&gt;Node7</title>
<g id="a_edge10_Node000008_Node000007"><a xlink:title=" ">
<path fill="none" stroke="#63b8ff" d="M686.83,-431.06C703.96,-429.89 722.1,-428.85 739,-428.25 820.73,-425.35 845.65,-401.71 923,-428.25 942.17,-434.83 940.03,-449.11 959,-456.25 1025.5,-481.27 1105.13,-486.2 1168.69,-484.79"/>
<polygon fill="#63b8ff" stroke="#63b8ff" points="1168.85,-488.29 1178.75,-484.51 1168.66,-481.29 1168.85,-488.29"/>
</a>
</g>
</g>
<!-- Node8&#45;&gt;Node9 -->
<g id="edge11_Node000008_Node000009" class="edge">
<title>Node8&#45;&gt;Node9</title>
<g id="a_edge11_Node000008_Node000009"><a xlink:title=" ">
<path fill="none" stroke="#63b8ff" d="M671.76,-446.88C682.73,-450.3 693.65,-454.95 703,-461.25 725.12,-476.14 716.88,-494.35 739,-509.25 745.65,-513.72 753.09,-517.37 760.78,-520.33"/>
<polygon fill="#63b8ff" stroke="#63b8ff" points="759.64,-523.64 770.24,-523.62 761.94,-517.03 759.64,-523.64"/>
</a>
</g>
</g>
<!-- Node10 -->
<g id="Node000010" class="node">
<title>Node10</title>
<g id="a_Node000010"><a xlink:href="classwmtk_1_1_mesh.html#a8cc8686f0688613806f43720b6db49e7" target="_top" xlink:title="check validity of tuple including its hash">
<polygon fill="white" stroke="#666666" points="891,-380.75 771,-380.75 771,-361.75 891,-361.75 891,-380.75"/>
<text text-anchor="middle" x="831" y="-368.75" font-family="Helvetica,sans-Serif" font-size="10.00">wmtk::Mesh::is_valid</text>
</a>
</g>
</g>
<!-- Node8&#45;&gt;Node10 -->
<g id="edge13_Node000008_Node000010" class="edge">
<title>Node8&#45;&gt;Node10</title>
<g id="a_edge13_Node000008_Node000010"><a xlink:title=" ">
<path fill="none" stroke="#63b8ff" d="M655.62,-427.68C670.83,-423.84 687.87,-418.96 703,-413.25 719.74,-406.93 722.26,-401.56 739,-395.25 750.94,-390.74 764.07,-386.75 776.55,-383.38"/>
<polygon fill="#63b8ff" stroke="#63b8ff" points="777.59,-386.73 786.38,-380.81 775.82,-379.95 777.59,-386.73"/>
</a>
</g>
</g>
<!-- Node14 -->
<g id="Node000014" class="node">
<title>Node14</title>
<g id="a_Node000014"><a xlink:href="namespacewmtk.html#a441d6ad4f19569c7d4946e743da1a925" target="_top" xlink:title=" ">
<polygon fill="white" stroke="#666666" points="1344,-327.25 1222,-327.25 1222,-297.25 1344,-297.25 1344,-327.25"/>
<text text-anchor="start" x="1230" y="-315.25" font-family="Helvetica,sans-Serif" font-size="10.00">wmtk::log_and_throw</text>
<text text-anchor="middle" x="1283" y="-304.25" font-family="Helvetica,sans-Serif" font-size="10.00">_error</text>
</a>
</g>
</g>
<!-- Node8&#45;&gt;Node14 -->
<g id="edge18_Node000008_Node000014" class="edge">
<title>Node8&#45;&gt;Node14</title>
<g id="a_edge18_Node000008_Node000014"><a xlink:title=" ">
<path fill="none" stroke="#63b8ff" d="M674.71,-427.64C684.8,-424.21 694.66,-419.56 703,-413.25 728.1,-394.25 713.06,-370.08 739,-352.25 820.71,-296.09 860.23,-323.96 959,-315.25 1045.7,-307.6 1145.99,-308.12 1211.52,-309.72"/>
<polygon fill="#63b8ff" stroke="#63b8ff" points="1211.65,-313.22 1221.74,-309.98 1211.83,-306.23 1211.65,-313.22"/>
</a>
</g>
</g>
<!-- Node17 -->
<g id="Node000017" class="node">
<title>Node17</title>
<g id="a_Node000017"><a xlink:href="classwmtk_1_1simplex_1_1_simplex_collection.html#a1973c83eede96b64f422049c6fc52976" target="_top" xlink:title=" ">
<polygon fill="white" stroke="#666666" points="923,-305.25 739,-305.25 739,-275.25 923,-275.25 923,-305.25"/>
<text text-anchor="start" x="747" y="-293.25" font-family="Helvetica,sans-Serif" font-size="10.00">wmtk::simplex::SimplexCollection</text>
<text text-anchor="middle" x="831" y="-282.25" font-family="Helvetica,sans-Serif" font-size="10.00">::reserve</text>
</a>
</g>
</g>
<!-- Node8&#45;&gt;Node17 -->
<g id="edge21_Node000008_Node000017" class="edge">
<title>Node8&#45;&gt;Node17</title>
<g id="a_edge21_Node000008_Node000017"><a xlink:title=" ">
<path fill="none" stroke="#63b8ff" d="M678.45,-427.74C687.42,-424.27 695.95,-419.58 703,-413.25 736.29,-383.37 706.47,-349.96 739,-319.25 742.58,-315.87 746.55,-312.88 750.78,-310.24"/>
<polygon fill="#63b8ff" stroke="#63b8ff" points="752.69,-313.19 759.77,-305.3 749.32,-307.05 752.69,-313.19"/>
</a>
</g>
</g>
<!-- Node8&#45;&gt;Node18 -->
<g id="edge22_Node000008_Node000018" class="edge">
<title>Node8&#45;&gt;Node18</title>
<g id="a_edge22_Node000008_Node000018"><a xlink:title=" ">
<path fill="none" stroke="#63b8ff" d="M631.53,-446.78C651.55,-457.34 682.56,-475.98 703,-499.25 726.36,-525.82 711.48,-548.01 739,-570.25 740.57,-571.52 742.21,-572.72 743.89,-573.86"/>
<polygon fill="#63b8ff" stroke="#63b8ff" points="742.3,-576.99 752.69,-579.06 745.86,-570.96 742.3,-576.99"/>
</a>
</g>
</g>
<!-- Node8&#45;&gt;Node19 -->
<g id="edge23_Node000008_Node000019" class="edge">
<title>Node8&#45;&gt;Node19</title>
<g id="a_edge23_Node000008_Node000019"><a xlink:title=" ">
<path fill="none" stroke="#63b8ff" d="M640.28,-446.77C665.88,-455.19 704.7,-467.46 739,-476.25 819.89,-496.97 847.18,-479.26 923,-514.25 941.4,-522.74 940.83,-533.26 959,-542.25 962.98,-544.22 967.14,-546.04 971.4,-547.72"/>
<polygon fill="#63b8ff" stroke="#63b8ff" points="970.24,-551.03 980.84,-551.19 972.66,-544.45 970.24,-551.03"/>
</a>
</g>
</g>
<!-- Node20 -->
<g id="Node000020" class="node">
<title>Node20</title>
<g id="a_Node000020"><a xlink:href="namespacewmtk_1_1simplex.html#a87de7137d8d21f1643dd604d73e8f765" target="_top" xlink:title="Get all top dimension cofaces of the given simplex.">
<polygon fill="white" stroke="#666666" points="889,-467.25 773,-467.25 773,-437.25 889,-437.25 889,-467.25"/>
<text text-anchor="start" x="781" y="-455.25" font-family="Helvetica,sans-Serif" font-size="10.00">wmtk::simplex::top</text>
<text text-anchor="middle" x="831" y="-444.25" font-family="Helvetica,sans-Serif" font-size="10.00">_dimension_cofaces</text>
</a>
</g>
</g>
<!-- Node8&#45;&gt;Node20 -->
<g id="edge24_Node000008_Node000020" class="edge">
<title>Node8&#45;&gt;Node20</title>
<g id="a_edge24_Node000008_Node000020"><a xlink:title=" ">
<path fill="none" stroke="#63b8ff" d="M686.72,-442.39C711.42,-444.09 738.73,-445.97 762.82,-447.62"/>
<polygon fill="#63b8ff" stroke="#63b8ff" points="762.72,-451.13 772.94,-448.32 763.2,-444.14 762.72,-451.13"/>
</a>
</g>
</g>
<!-- Node8&#45;&gt;Node24 -->
<g id="edge31_Node000008_Node000024" class="edge">
<title>Node8&#45;&gt;Node24</title>
<g id="a_edge31_Node000008_Node000024"><a xlink:title=" ">
<path fill="none" stroke="#63b8ff" d="M682.17,-427.6C689.96,-424.1 697.18,-419.43 703,-413.25 758.92,-353.84 683.08,-292.65 739,-233.25 742.46,-229.57 746.4,-226.44 750.67,-223.76"/>
<polygon fill="#63b8ff" stroke="#63b8ff" points="752.65,-226.68 759.83,-218.89 749.36,-220.5 752.65,-226.68"/>
</a>
</g>
</g>
<!-- Node26 -->
<g id="Node000026" class="node">
<title>Node26</title>
<g id="a_Node000026"><a xlink:href="classwmtk_1_1simplex_1_1_simplex.html#aca78b1fb0a3c28c0036cf7919bfb0789" target="_top" xlink:title=" ">
<polygon fill="white" stroke="#666666" points="1118.5,-109.25 983.5,-109.25 983.5,-79.25 1118.5,-79.25 1118.5,-109.25"/>
<text text-anchor="start" x="991.5" y="-97.25" font-family="Helvetica,sans-Serif" font-size="10.00">wmtk::simplex::Simplex</text>
<text text-anchor="middle" x="1051" y="-86.25" font-family="Helvetica,sans-Serif" font-size="10.00">::tuple</text>
</a>
</g>
</g>
<!-- Node8&#45;&gt;Node26 -->
<g id="edge33_Node000008_Node000026" class="edge">
<title>Node8&#45;&gt;Node26</title>
<g id="a_edge33_Node000008_Node000026"><a xlink:title=" ">
<path fill="none" stroke="#63b8ff" d="M681.47,-427.56C689.47,-424.07 696.93,-419.42 703,-413.25 750.14,-365.27 690.7,-313.06 739,-266.25 799.03,-208.07 852.08,-271.5 923,-227.25 945.03,-213.51 941.57,-200.49 959,-181.25 980.18,-157.86 1006.42,-133.18 1025.27,-116.1"/>
<polygon fill="#63b8ff" stroke="#63b8ff" points="1027.76,-118.57 1032.86,-109.28 1023.08,-113.36 1027.76,-118.57"/>
</a>
</g>
</g>
<!-- Node9&#45;&gt;Node9 -->
<g id="edge12_Node000009_Node000009" class="edge">
<title>Node9&#45;&gt;Node9</title>
<g id="a_edge12_Node000009_Node000009"><a xlink:title=" ">
<path fill="none" stroke="#63b8ff" d="M797.09,-542.83C780.6,-551.48 791.9,-560.75 831,-560.75 859.1,-560.75 872.85,-555.96 872.23,-550.06"/>
<polygon fill="#63b8ff" stroke="#63b8ff" points="874.48,-547.36 864.91,-542.83 869.57,-552.35 874.48,-547.36"/>
</a>
</g>
</g>
<!-- Node11 -->
<g id="Node000011" class="node">
<title>Node11</title>
<g id="a_Node000011"><a xlink:href="classwmtk_1_1_tuple.html#a0023f575be92cd5ceeeaaaa3762ea06d" target="_top" xlink:title="Checks if a tuple is &quot;null&quot;. This merely implies the global index is &#45;1.">
<polygon fill="white" stroke="#666666" points="1107.5,-343.75 994.5,-343.75 994.5,-324.75 1107.5,-324.75 1107.5,-343.75"/>
<text text-anchor="middle" x="1051" y="-331.75" font-family="Helvetica,sans-Serif" font-size="10.00">wmtk::Tuple::is_null</text>
</a>
</g>
</g>
<!-- Node10&#45;&gt;Node11 -->
<g id="edge14_Node000010_Node000011" class="edge">
<title>Node10&#45;&gt;Node11</title>
<g id="a_edge14_Node000010_Node000011"><a xlink:title=" ">
<path fill="none" stroke="#63b8ff" d="M888.14,-361.72C917.5,-356.74 953.6,-350.61 984.26,-345.41"/>
<polygon fill="#63b8ff" stroke="#63b8ff" points="985.15,-348.8 994.43,-343.68 983.98,-341.9 985.15,-348.8"/>
</a>
</g>
</g>
<!-- Node12 -->
<g id="Node000012" class="node">
<title>Node12</title>
<g id="a_Node000012"><a xlink:href="classwmtk_1_1_mesh.html#ade176d345902d97af8c5da04aa3a095b" target="_top" xlink:title=" ">
<polygon fill="white" stroke="#666666" points="1121,-380.75 981,-380.75 981,-361.75 1121,-361.75 1121,-380.75"/>
<text text-anchor="middle" x="1051" y="-368.75" font-family="Helvetica,sans-Serif" font-size="10.00">wmtk::Mesh::is_removed</text>
</a>
</g>
</g>
<!-- Node10&#45;&gt;Node12 -->
<g id="edge15_Node000010_Node000012" class="edge">
<title>Node10&#45;&gt;Node12</title>
<g id="a_edge15_Node000010_Node000012"><a xlink:title=" ">
<path fill="none" stroke="#63b8ff" d="M891.28,-371.25C915.66,-371.25 944.26,-371.25 970.41,-371.25"/>
<polygon fill="#63b8ff" stroke="#63b8ff" points="970.68,-374.75 980.68,-371.25 970.68,-367.75 970.68,-374.75"/>
</a>
</g>
</g>
<!-- Node12&#45;&gt;Node12 -->
<g id="edge17_Node000012_Node000012" class="edge">
<title>Node12&#45;&gt;Node12</title>
<g id="a_edge17_Node000012_Node000012"><a xlink:title=" ">
<path fill="none" stroke="#63b8ff" d="M1017.09,-380.83C1000.6,-389.48 1011.9,-398.75 1051,-398.75 1079.1,-398.75 1092.85,-393.96 1092.23,-388.06"/>
<polygon fill="#63b8ff" stroke="#63b8ff" points="1094.48,-385.36 1084.91,-380.83 1089.57,-390.35 1094.48,-385.36"/>
</a>
</g>
</g>
<!-- Node13 -->
<g id="Node000013" class="node">
<title>Node13</title>
<g id="a_Node000013"><a xlink:href="classwmtk_1_1_tuple.html#aef64a43ff5f5617dbc99d865356bbc25" target="_top" xlink:title=" ">
<polygon fill="white" stroke="#666666" points="1348.5,-380.75 1217.5,-380.75 1217.5,-361.75 1348.5,-361.75 1348.5,-380.75"/>
<text text-anchor="middle" x="1283" y="-368.75" font-family="Helvetica,sans-Serif" font-size="10.00">wmtk::Tuple::global_cid</text>
</a>
</g>
</g>
<!-- Node12&#45;&gt;Node13 -->
<g id="edge16_Node000012_Node000013" class="edge">
<title>Node12&#45;&gt;Node13</title>
<g id="a_edge16_Node000012_Node000013"><a xlink:title=" ">
<path fill="none" stroke="#63b8ff" d="M1121.01,-371.25C1148.23,-371.25 1179.57,-371.25 1207.32,-371.25"/>
<polygon fill="#63b8ff" stroke="#63b8ff" points="1207.37,-374.75 1217.37,-371.25 1207.37,-367.75 1207.37,-374.75"/>
</a>
</g>
</g>
<!-- Node15 -->
<g id="Node000015" class="node">
<title>Node15</title>
<g id="a_Node000015"><a xlink:href="namespacewmtk.html#a6a35f11c12436093d26fdd8be6fecc06" target="_top" xlink:title="Retrieves the current logger.">
<polygon fill="white" stroke="#666666" points="1504,-321.75 1423,-321.75 1423,-302.75 1504,-302.75 1504,-321.75"/>
<text text-anchor="middle" x="1463.5" y="-309.75" font-family="Helvetica,sans-Serif" font-size="10.00">wmtk::logger</text>
</a>
</g>
</g>
<!-- Node14&#45;&gt;Node15 -->
<g id="edge19_Node000014_Node000015" class="edge">
<title>Node14&#45;&gt;Node15</title>
<g id="a_edge19_Node000014_Node000015"><a xlink:title=" ">
<path fill="none" stroke="#63b8ff" d="M1344.43,-312.25C1366.68,-312.25 1391.61,-312.25 1412.81,-312.25"/>
<polygon fill="#63b8ff" stroke="#63b8ff" points="1412.89,-315.75 1422.89,-312.25 1412.89,-308.75 1412.89,-315.75"/>
</a>
</g>
</g>
<!-- Node16 -->
<g id="Node000016" class="node">
<title>Node16</title>
<g id="a_Node000016"><a xlink:href="namespacewmtk.html#a3daa7951a5f8b78cf4600dc047fcc180" target="_top" xlink:title="Setup a logger object to be used by WildmeshToolkit.">
<polygon fill="white" stroke="#666666" points="1641,-321.75 1540,-321.75 1540,-302.75 1641,-302.75 1641,-321.75"/>
<text text-anchor="middle" x="1590.5" y="-309.75" font-family="Helvetica,sans-Serif" font-size="10.00">wmtk::set_logger</text>
</a>
</g>
</g>
<!-- Node15&#45;&gt;Node16 -->
<g id="edge20_Node000015_Node000016" class="edge">
<title>Node15&#45;&gt;Node16</title>
<g id="a_edge20_Node000015_Node000016"><a xlink:title=" ">
<path fill="none" stroke="#63b8ff" d="M1504.05,-312.25C1512.17,-312.25 1520.9,-312.25 1529.55,-312.25"/>
<polygon fill="#63b8ff" stroke="#63b8ff" points="1529.65,-315.75 1539.65,-312.25 1529.65,-308.75 1529.65,-315.75"/>
</a>
</g>
</g>
<!-- Node20&#45;&gt;Node19 -->
<g id="edge26_Node000020_Node000019" class="edge">
<title>Node20&#45;&gt;Node19</title>
<g id="a_edge26_Node000020_Node000019"><a xlink:title=" ">
<path fill="none" stroke="#63b8ff" d="M889.09,-463.45C901.12,-467.64 913.15,-473.39 923,-481.25 947.61,-500.87 933.9,-523.25 959,-542.25 960.85,-543.65 962.78,-544.97 964.77,-546.21"/>
<polygon fill="#63b8ff" stroke="#63b8ff" points="963.38,-549.44 973.83,-551.19 966.75,-543.31 963.38,-549.44"/>
</a>
</g>
</g>
<!-- Node21 -->
<g id="Node000021" class="node">
<title>Node21</title>
<g id="a_Node000021"><a xlink:href="classwmtk_1_1simplex_1_1_simplex_collection.html#a0d0c1765c4ed8ffd0f163661111bfb08" target="_top" xlink:title=" ">
<polygon fill="white" stroke="#666666" points="1143,-533.25 959,-533.25 959,-503.25 1143,-503.25 1143,-533.25"/>
<text text-anchor="start" x="967" y="-521.25" font-family="Helvetica,sans-Serif" font-size="10.00">wmtk::simplex::SimplexCollection</text>
<text text-anchor="middle" x="1051" y="-510.25" font-family="Helvetica,sans-Serif" font-size="10.00">::mesh</text>
</a>
</g>
</g>
<!-- Node20&#45;&gt;Node21 -->
<g id="edge25_Node000020_Node000021" class="edge">
<title>Node20&#45;&gt;Node21</title>
<g id="a_edge25_Node000020_Node000021"><a xlink:title=" ">
<path fill="none" stroke="#63b8ff" d="M881.74,-467.31C913.99,-477.07 956.19,-489.85 990.26,-500.16"/>
<polygon fill="#63b8ff" stroke="#63b8ff" points="989.51,-503.59 1000.1,-503.14 991.54,-496.89 989.51,-503.59"/>
</a>
</g>
</g>
<!-- Node22 -->
<g id="Node000022" class="node">
<title>Node22</title>
<g id="a_Node000022"><a xlink:href="namespacewmtk_1_1simplex.html#a0101f27eb2ad82814390b92ab1a4d1a0" target="_top" xlink:title=" ">
<polygon fill="white" stroke="#666666" points="1126.5,-447.25 975.5,-447.25 975.5,-417.25 1126.5,-417.25 1126.5,-447.25"/>
<text text-anchor="start" x="983.5" y="-435.25" font-family="Helvetica,sans-Serif" font-size="10.00">wmtk::simplex::top</text>
<text text-anchor="middle" x="1051" y="-424.25" font-family="Helvetica,sans-Serif" font-size="10.00">_dimension_cofaces_tuples</text>
</a>
</g>
</g>
<!-- Node20&#45;&gt;Node22 -->
<g id="edge27_Node000020_Node000022" class="edge">
<title>Node20&#45;&gt;Node22</title>
<g id="a_edge27_Node000020_Node000022"><a xlink:title=" ">
<path fill="none" stroke="#63b8ff" d="M889.28,-446.99C912.55,-444.86 939.93,-442.35 965.42,-440.01"/>
<polygon fill="#63b8ff" stroke="#63b8ff" points="965.82,-443.48 975.46,-439.09 965.18,-436.51 965.82,-443.48"/>
</a>
</g>
</g>
<!-- Node22&#45;&gt;Node7 -->
<g id="edge28_Node000022_Node000007" class="edge">
<title>Node22&#45;&gt;Node7</title>
<g id="a_edge28_Node000022_Node000007"><a xlink:title=" ">
<path fill="none" stroke="#63b8ff" d="M1126.67,-446.21C1157.18,-451.91 1192.02,-458.43 1220.97,-463.84"/>
<polygon fill="#63b8ff" stroke="#63b8ff" points="1220.47,-467.3 1230.94,-465.7 1221.76,-460.42 1220.47,-467.3"/>
</a>
</g>
</g>
<!-- Node22&#45;&gt;Node14 -->
<g id="edge29_Node000022_Node000014" class="edge">
<title>Node22&#45;&gt;Node14</title>
<g id="a_edge29_Node000022_Node000014"><a xlink:title=" ">
<path fill="none" stroke="#63b8ff" d="M1125.72,-417.13C1131.84,-414.37 1137.7,-411.11 1143,-407.25 1166.61,-390.04 1156.3,-370.64 1179,-352.25 1189.74,-343.55 1202.58,-336.58 1215.5,-331.06"/>
<polygon fill="#63b8ff" stroke="#63b8ff" points="1216.92,-334.26 1224.9,-327.28 1214.31,-327.76 1216.92,-334.26"/>
</a>
</g>
</g>
<!-- Node23 -->
<g id="Node000023" class="node">
<title>Node23</title>
<g id="a_Node000023"><a xlink:href="classwmtk_1_1simplex_1_1_simplex.html#ad2cc0340a0772b7d6f03ba7a781d1163" target="_top" xlink:title=" ">
<polygon fill="white" stroke="#666666" points="1350.5,-152.25 1215.5,-152.25 1215.5,-122.25 1350.5,-122.25 1350.5,-152.25"/>
<text text-anchor="start" x="1223.5" y="-140.25" font-family="Helvetica,sans-Serif" font-size="10.00">wmtk::simplex::Simplex</text>
<text text-anchor="middle" x="1283" y="-129.25" font-family="Helvetica,sans-Serif" font-size="10.00">::primitive_type</text>
</a>
</g>
</g>
<!-- Node22&#45;&gt;Node23 -->
<g id="edge30_Node000022_Node000023" class="edge">
<title>Node22&#45;&gt;Node23</title>
<g id="a_edge30_Node000022_Node000023"><a xlink:title=" ">
<path fill="none" stroke="#63b8ff" d="M1126.57,-418.89C1132.59,-415.76 1138.19,-411.94 1143,-407.25 1182.57,-368.68 1155.15,-338.09 1179,-288.25 1202.21,-239.73 1239.83,-189.28 1262.61,-160.71"/>
<polygon fill="#63b8ff" stroke="#63b8ff" points="1265.61,-162.56 1269.17,-152.58 1260.16,-158.16 1265.61,-162.56"/>
</a>
</g>
</g>
<!-- Node25 -->
<g id="Node000025" class="node">
<title>Node25</title>
<g id="a_Node000025"><a xlink:href="classwmtk_1_1_mesh.html#a933f681cf24a63b155c9462280385200" target="_top" xlink:title=" ">
<polygon fill="white" stroke="#666666" points="1111.5,-220.25 990.5,-220.25 990.5,-190.25 1111.5,-190.25 1111.5,-220.25"/>
<text text-anchor="start" x="998.5" y="-208.25" font-family="Helvetica,sans-Serif" font-size="10.00">wmtk::Mesh::top_cell</text>
<text text-anchor="middle" x="1051" y="-197.25" font-family="Helvetica,sans-Serif" font-size="10.00">_dimension</text>
</a>
</g>
</g>
<!-- Node24&#45;&gt;Node25 -->
<g id="edge32_Node000024_Node000025" class="edge">
<title>Node24&#45;&gt;Node25</title>
<g id="a_edge32_Node000024_Node000025"><a xlink:title=" ">
<path fill="none" stroke="#63b8ff" d="M916.28,-207.7C937.4,-207.31 959.82,-206.9 980.15,-206.53"/>
<polygon fill="#63b8ff" stroke="#63b8ff" points="980.32,-210.03 990.25,-206.34 980.19,-203.03 980.32,-210.03"/>
</a>
</g>
</g>
<!-- Node30 -->
<g id="Node000030" class="node">
<title>Node30</title>
<g id="a_Node000030"><a xlink:href="classwmtk_1_1simplex_1_1_simplex.html#ab6d51ca0c220792c1c09824d152bb53a" target="_top" xlink:title=" ">
<polygon fill="white" stroke="#666666" points="480,-285.25 345,-285.25 345,-255.25 480,-255.25 480,-285.25"/>
<text text-anchor="start" x="353" y="-273.25" font-family="Helvetica,sans-Serif" font-size="10.00">wmtk::simplex::Simplex</text>
<text text-anchor="middle" x="412.5" y="-262.25" font-family="Helvetica,sans-Serif" font-size="10.00">::Simplex</text>
</a>
</g>
</g>
<!-- Node29&#45;&gt;Node30 -->
<g id="edge43_Node000029_Node000030" class="edge">
<title>Node29&#45;&gt;Node30</title>
<g id="a_edge43_Node000029_Node000030"><a xlink:title=" ">
<path fill="none" stroke="#63b8ff" d="M306.49,-270.25C315.77,-270.25 325.37,-270.25 334.81,-270.25"/>
<polygon fill="#63b8ff" stroke="#63b8ff" points="334.97,-273.75 344.97,-270.25 334.97,-266.75 334.97,-273.75"/>
</a>
</g>
</g>
<!-- Node31&#45;&gt;Node23 -->
<g id="edge45_Node000031_Node000023" class="edge">
<title>Node31&#45;&gt;Node23</title>
<g id="a_edge45_Node000031_Node000023"><a xlink:title=" ">
<path fill="none" stroke="#63b8ff" d="M433.14,-62.62C453.89,-53.01 487.87,-38.89 519,-33.25 792.37,16.3 878.43,14.53 1143,-70.25 1180.13,-82.15 1219.97,-102.17 1247.44,-117.24"/>
<polygon fill="#63b8ff" stroke="#63b8ff" points="1245.82,-120.34 1256.26,-122.14 1249.22,-114.22 1245.82,-120.34"/>
</a>
</g>
</g>
<!-- Node31&#45;&gt;Node26 -->
<g id="edge55_Node000031_Node000026" class="edge">
<title>Node31&#45;&gt;Node26</title>
<g id="a_edge55_Node000031_Node000026"><a xlink:title=" ">
<path fill="none" stroke="#63b8ff" d="M463.14,-62.74C554.79,-46.76 756.41,-19.01 923,-48.25 952.67,-53.45 984.54,-65.02 1008.93,-75.25"/>
<polygon fill="#63b8ff" stroke="#63b8ff" points="1007.66,-78.51 1018.23,-79.23 1010.41,-72.07 1007.66,-78.51"/>
</a>
</g>
</g>
<!-- Node32 -->
<g id="Node000032" class="node">
<title>Node32</title>
<g id="a_Node000032"><a xlink:href="classwmtk_1_1_mesh.html#a965a8a24158c4aa8580c57ba09f885f7" target="_top" xlink:title="switch the orientation of the Tuple of the given dimension">
<polygon fill="white" stroke="#666666" points="888,-87.25 774,-87.25 774,-57.25 888,-57.25 888,-87.25"/>
<text text-anchor="start" x="782" y="-75.25" font-family="Helvetica,sans-Serif" font-size="10.00">wmtk::Mesh::switch</text>
<text text-anchor="middle" x="831" y="-64.25" font-family="Helvetica,sans-Serif" font-size="10.00">_tuple</text>
</a>
</g>
</g>
<!-- Node31&#45;&gt;Node32 -->
<g id="edge46_Node000031_Node000032" class="edge">
<title>Node31&#45;&gt;Node32</title>
<g id="a_edge46_Node000031_Node000032"><a xlink:title=" ">
<path fill="none" stroke="#63b8ff" d="M479.96,-72.25C557.76,-72.25 685.87,-72.25 763.64,-72.25"/>
<polygon fill="#63b8ff" stroke="#63b8ff" points="763.8,-75.75 773.8,-72.25 763.8,-68.75 763.8,-75.75"/>
</a>
</g>
</g>
<!-- Node33 -->
<g id="Node000033" class="node">
<title>Node33</title>
<g id="a_Node000033"><a xlink:href="classwmtk_1_1_mesh.html#a7f8a7b7d592fdbf672f2c6c9653487ea" target="_top" xlink:title=" ">
<polygon fill="white" stroke="#666666" points="668,-130.25 554,-130.25 554,-100.25 668,-100.25 668,-130.25"/>
<text text-anchor="start" x="562" y="-118.25" font-family="Helvetica,sans-Serif" font-size="10.00">wmtk::Mesh::switch</text>
<text text-anchor="middle" x="611" y="-107.25" font-family="Helvetica,sans-Serif" font-size="10.00">_tuples</text>
</a>
</g>
</g>
<!-- Node31&#45;&gt;Node33 -->
<g id="edge47_Node000031_Node000033" class="edge">
<title>Node31&#45;&gt;Node33</title>
<g id="a_edge47_Node000031_Node000033"><a xlink:title=" ">
<path fill="none" stroke="#63b8ff" d="M457.11,-81.79C482.6,-87.37 515.28,-94.52 543.88,-100.78"/>
<polygon fill="#63b8ff" stroke="#63b8ff" points="543.29,-104.23 553.81,-102.95 544.79,-97.39 543.29,-104.23"/>
</a>
</g>
</g>
<!-- Node33&#45;&gt;Node24 -->
<g id="edge54_Node000033_Node000024" class="edge">
<title>Node33&#45;&gt;Node24</title>
<g id="a_edge54_Node000033_Node000024"><a xlink:title=" ">
<path fill="none" stroke="#63b8ff" d="M635.48,-130.5C660.34,-146.08 701.14,-170.09 739,-185.25 750.38,-189.8 762.9,-193.75 774.92,-197.05"/>
<polygon fill="#63b8ff" stroke="#63b8ff" points="774.3,-200.51 784.86,-199.67 776.08,-193.74 774.3,-200.51"/>
</a>
</g>
</g>
<!-- Node33&#45;&gt;Node25 -->
<g id="edge53_Node000033_Node000025" class="edge">
<title>Node33&#45;&gt;Node25</title>
<g id="a_edge53_Node000033_Node000025"><a xlink:title=" ">
<path fill="none" stroke="#63b8ff" d="M660.54,-130.29C684.08,-137.26 712.86,-145.29 739,-151.25 821.12,-169.96 916.73,-185.67 980.04,-195.23"/>
<polygon fill="#63b8ff" stroke="#63b8ff" points="979.89,-198.75 990.3,-196.77 980.93,-191.83 979.89,-198.75"/>
</a>
</g>
</g>
<!-- Node33&#45;&gt;Node32 -->
<g id="edge52_Node000033_Node000032" class="edge">
<title>Node33&#45;&gt;Node32</title>
<g id="a_edge52_Node000033_Node000032"><a xlink:title=" ">
<path fill="none" stroke="#63b8ff" d="M668.14,-104.17C697.27,-98.43 733.04,-91.37 763.55,-85.35"/>
<polygon fill="#63b8ff" stroke="#63b8ff" points="764.54,-88.73 773.67,-83.36 763.18,-81.86 764.54,-88.73"/>
</a>
</g>
</g>
<!-- Node34 -->
<g id="Node000034" class="node">
<title>Node34</title>
<g id="a_Node000034"><a xlink:href="classwmtk_1_1_mesh.html#a58bdbbfa0cd7bd9263241f6501db182a" target="_top" xlink:title="check if a simplex lies on a boundary or not">
<polygon fill="white" stroke="#666666" points="902,-124.75 760,-124.75 760,-105.75 902,-105.75 902,-124.75"/>
<text text-anchor="middle" x="831" y="-112.75" font-family="Helvetica,sans-Serif" font-size="10.00">wmtk::Mesh::is_boundary</text>
</a>
</g>
</g>
<!-- Node33&#45;&gt;Node34 -->
<g id="edge48_Node000033_Node000034" class="edge">
<title>Node33&#45;&gt;Node34</title>
<g id="a_edge48_Node000033_Node000034"><a xlink:title=" ">
<path fill="none" stroke="#63b8ff" d="M668.14,-115.25C692.97,-115.25 722.64,-115.25 749.75,-115.25"/>
<polygon fill="#63b8ff" stroke="#63b8ff" points="750,-118.75 760,-115.25 750,-111.75 750,-118.75"/>
</a>
</g>
</g>
<!-- Node34&#45;&gt;Node23 -->
<g id="edge50_Node000034_Node000023" class="edge">
<title>Node34&#45;&gt;Node23</title>
<g id="a_edge50_Node000034_Node000023"><a xlink:title=" ">
<path fill="none" stroke="#63b8ff" d="M902.31,-118.68C984.62,-122.71 1120.45,-129.35 1205.38,-133.5"/>
<polygon fill="#63b8ff" stroke="#63b8ff" points="1205.32,-137 1215.48,-134 1205.66,-130.01 1205.32,-137"/>
</a>
</g>
</g>
<!-- Node34&#45;&gt;Node26 -->
<g id="edge51_Node000034_Node000026" class="edge">
<title>Node34&#45;&gt;Node26</title>
<g id="a_edge51_Node000034_Node000026"><a xlink:title=" ">
<path fill="none" stroke="#63b8ff" d="M902.18,-108.49C924.84,-106.3 950.07,-103.87 973.19,-101.65"/>
<polygon fill="#63b8ff" stroke="#63b8ff" points="973.68,-105.12 983.29,-100.67 973.01,-98.15 973.68,-105.12"/>
</a>
</g>
</g>
<!-- Node34&#45;&gt;Node34 -->
<g id="edge49_Node000034_Node000034" class="edge">
<title>Node34&#45;&gt;Node34</title>
<g id="a_edge49_Node000034_Node000034"><a xlink:title=" ">
<path fill="none" stroke="#63b8ff" d="M797.09,-124.83C780.6,-133.48 791.9,-142.75 831,-142.75 859.1,-142.75 872.85,-137.96 872.23,-132.06"/>
<polygon fill="#63b8ff" stroke="#63b8ff" points="874.48,-129.36 864.91,-124.83 869.57,-134.35 874.48,-129.36"/>
</a>
</g>
</g>
</g>
</svg>
