<?xml version="1.0" encoding="UTF-8" standalone="no"?>
<!DOCTYPE svg PUBLIC "-//W3C//DTD SVG 1.1//EN"
 "http://www.w3.org/Graphics/SVG/1.1/DTD/svg11.dtd">
<!-- Generated by graphviz version 2.43.0 (0)
 -->
<!-- Title: wmtk::read_mesh Pages: 1 -->
<!--zoomable 787 -->
<svg id="main" version="1.1" xmlns="http://www.w3.org/2000/svg" xmlns:xlink="http://www.w3.org/1999/xlink" xml:space="preserve" onload="init(evt)">
<style type="text/css"><![CDATA[
.edge:hover path { stroke: red; }
.edge:hover polygon { stroke: red; fill: red; }
]]></style>
<script type="text/javascript"><![CDATA[
var edges = document.getElementsByTagName('g');
if (edges && edges.length) {
  for (var i=0;i<edges.length;i++) {
    if (edges[i].id.substr(0,4)=='edge') {
      edges[i].setAttribute('class','edge');
    }
  }
}
]]></script>
        <defs>
                <circle id="rim" cx="0" cy="0" r="7"/>
                <circle id="rim2" cx="0" cy="0" r="3.5"/>
                <g id="zoomPlus">
                        <use xlink:href="#rim" fill="#404040">
                                <set attributeName="fill" to="#808080" begin="zoomplus.mouseover" end="zoomplus.mouseout"/>
                        </use>
                        <path d="M-4,0h8M0,-4v8" fill="none" stroke="white" stroke-width="1.5" pointer-events="none"/>
                </g>
                <g id="zoomMin">
                        <use xlink:href="#rim" fill="#404040">
                                <set attributeName="fill" to="#808080" begin="zoomminus.mouseover" end="zoomminus.mouseout"/>
                        </use>
                        <path d="M-4,0h8" fill="none" stroke="white" stroke-width="1.5" pointer-events="none"/>
                </g>
                <g id="dirArrow">
                        <path fill="none" stroke="white" stroke-width="1.5" d="M0,-3.0v7 M-2.5,-0.5L0,-3.0L2.5,-0.5"/>
                </g>
               <g id="resetDef">
                       <use xlink:href="#rim2" fill="#404040">
                               <set attributeName="fill" to="#808080" begin="reset.mouseover" end="reset.mouseout"/>
                       </use>
               </g>
        </defs>

<script type="text/javascript">
var viewWidth = 834;
var viewHeight = 787;
var sectionId = 'dynsection-20';
</script>
<script xlink:href="svgpan.js"/>
<svg id="graph" class="graph">
<g id="viewport">
<title>wmtk::read_mesh</title>
<!-- Node1 -->
<g id="node1" class="node">
<title>Node1</title>
<g id="a_node1"><a xlink:title=" ">
<polygon fill="#bfbfbf" stroke="black" points="0,-401.5 0,-420.5 104,-420.5 104,-401.5 0,-401.5"/>
<text text-anchor="middle" x="52" y="-408.5" font-family="Helvetica,sans-Serif" font-size="10.00">wmtk::read_mesh</text>
</a>
</g>
</g>
<!-- Node2 -->
<g id="node2" class="node">
<title>Node2</title>
<g id="a_node2"><a xlink:href="classwmtk_1_1_h_d_f5_reader.html#a2524f46ffeb8b8b9af898e7b2993bc00" target="_top" xlink:title=" ">
<polygon fill="none" stroke="black" points="140,-420.5 140,-439.5 280,-439.5 280,-420.5 140,-420.5"/>
<text text-anchor="middle" x="210" y="-427.5" font-family="Helvetica,sans-Serif" font-size="10.00">wmtk::HDF5Reader::read</text>
</a>
</g>
</g>
<!-- Node1&#45;&gt;Node2 -->
<g id="edge1" class="edge">
<title>Node1&#45;&gt;Node2</title>
<path fill="none" stroke="midnightblue" d="M104.08,-417.22C112.41,-418.24 121.2,-419.31 130.02,-420.38"/>
<polygon fill="midnightblue" stroke="midnightblue" points="129.6,-423.86 139.95,-421.59 130.44,-416.91 129.6,-423.86"/>
</g>
<!-- Node3 -->
<g id="node3" class="node">
<title>Node3</title>
<g id="a_node3"><a xlink:href="classwmtk_1_1_msh_reader.html#afd780afbbde030daa41a17137bc37085" target="_top" xlink:title=" ">
<polygon fill="none" stroke="black" points="143.5,-382.5 143.5,-401.5 276.5,-401.5 276.5,-382.5 143.5,-382.5"/>
<text text-anchor="middle" x="210" y="-389.5" font-family="Helvetica,sans-Serif" font-size="10.00">wmtk::MshReader::read</text>
</a>
</g>
</g>
<!-- Node1&#45;&gt;Node3 -->
<g id="edge2" class="edge">
<title>Node1&#45;&gt;Node3</title>
<path fill="none" stroke="midnightblue" d="M104.08,-404.78C113.38,-403.65 123.26,-402.44 133.1,-401.24"/>
<polygon fill="midnightblue" stroke="midnightblue" points="133.8,-404.68 143.3,-400 132.95,-397.74 133.8,-404.68"/>
</g>
<!-- Node4 -->
<g id="node4" class="node">
<title>Node4</title>
<g id="a_node4"><a xlink:href="namespacewmtk_1_1utils.html#a5f6998f980cb239bfc739e9600e3d03e" target="_top" xlink:title=" ">
<polygon fill="none" stroke="black" points="341,-759.5 341,-778.5 461,-778.5 461,-759.5 341,-759.5"/>
<text text-anchor="middle" x="401" y="-766.5" font-family="Helvetica,sans-Serif" font-size="10.00">wmtk::utils::exactinit</text>
</a>
</g>
</g>
<!-- Node3&#45;&gt;Node4 -->
<g id="edge3" class="edge">
<title>Node3&#45;&gt;Node4</title>
<path fill="none" stroke="midnightblue" d="M268.6,-401.66C272.89,-404.14 276.78,-407.21 280,-411 378.06,-526.5 215.29,-636.8 316,-750 320.3,-754.84 325.56,-758.58 331.31,-761.47"/>
<polygon fill="midnightblue" stroke="midnightblue" points="330.13,-764.76 340.71,-765.32 332.79,-758.29 330.13,-764.76"/>
</g>
<!-- Node5 -->
<g id="node5" class="node">
<title>Node5</title>
<g id="a_node5"><a xlink:href="classwmtk_1_1_msh_reader.html#a3c428a196eb1eb7b632c42fc0b1775e0" target="_top" xlink:title=" ">
<polygon fill="none" stroke="black" points="328,-710 328,-740 474,-740 474,-710 328,-710"/>
<text text-anchor="start" x="336" y="-728" font-family="Helvetica,sans-Serif" font-size="10.00">wmtk::MshReader::extract</text>
<text text-anchor="middle" x="401" y="-717" font-family="Helvetica,sans-Serif" font-size="10.00">_edge_vertices</text>
</a>
</g>
</g>
<!-- Node3&#45;&gt;Node5 -->
<g id="edge4" class="edge">
<title>Node3&#45;&gt;Node5</title>
<path fill="none" stroke="midnightblue" d="M268.21,-401.54C272.63,-404.04 276.67,-407.15 280,-411 364.93,-509.26 231.54,-602.34 316,-701 317.19,-702.39 318.45,-703.7 319.77,-704.93"/>
<polygon fill="midnightblue" stroke="midnightblue" points="317.93,-707.93 328,-711.24 322.19,-702.38 317.93,-707.93"/>
</g>
<!-- Node6 -->
<g id="node6" class="node">
<title>Node6</title>
<g id="a_node6"><a xlink:href="classwmtk_1_1_msh_reader.html#ad402a5894549f729431cd9fcc75f7121" target="_top" xlink:title=" ">
<polygon fill="none" stroke="black" points="328,-661 328,-691 474,-691 474,-661 328,-661"/>
<text text-anchor="start" x="336" y="-679" font-family="Helvetica,sans-Serif" font-size="10.00">wmtk::MshReader::extract</text>
<text text-anchor="middle" x="401" y="-668" font-family="Helvetica,sans-Serif" font-size="10.00">_edges</text>
</a>
</g>
</g>
<!-- Node3&#45;&gt;Node6 -->
<g id="edge5" class="edge">
<title>Node3&#45;&gt;Node6</title>
<path fill="none" stroke="midnightblue" d="M268.11,-401.63C272.55,-404.11 276.62,-407.19 280,-411 351.83,-492.05 244.56,-570.61 316,-652 317.17,-653.33 318.41,-654.59 319.7,-655.79"/>
<polygon fill="midnightblue" stroke="midnightblue" points="317.65,-658.62 327.73,-661.9 321.9,-653.05 317.65,-658.62"/>
</g>
<!-- Node7 -->
<g id="node7" class="node">
<title>Node7</title>
<g id="a_node7"><a xlink:href="classwmtk_1_1_msh_reader.html#aee1ef092f5560041625ae03009e709e6" target="_top" xlink:title=" ">
<polygon fill="none" stroke="black" points="328,-612 328,-642 474,-642 474,-612 328,-612"/>
<text text-anchor="start" x="336" y="-630" font-family="Helvetica,sans-Serif" font-size="10.00">wmtk::MshReader::extract</text>
<text text-anchor="middle" x="401" y="-619" font-family="Helvetica,sans-Serif" font-size="10.00">_element_attribute</text>
</a>
</g>
</g>
<!-- Node3&#45;&gt;Node7 -->
<g id="edge6" class="edge">
<title>Node3&#45;&gt;Node7</title>
<path fill="none" stroke="midnightblue" d="M267.63,-401.58C272.24,-404.07 276.47,-407.16 280,-411 338.78,-474.9 257.53,-538.82 316,-603 317.19,-604.31 318.45,-605.55 319.77,-606.73"/>
<polygon fill="midnightblue" stroke="midnightblue" points="317.77,-609.6 327.89,-612.76 321.95,-603.98 317.77,-609.6"/>
</g>
<!-- Node9 -->
<g id="node9" class="node">
<title>Node9</title>
<g id="a_node9"><a xlink:href="classwmtk_1_1_msh_reader.html#a8045c70c2c7a8795adf9aef9c6f7185f" target="_top" xlink:title=" ">
<polygon fill="none" stroke="black" points="328,-563 328,-593 474,-593 474,-563 328,-563"/>
<text text-anchor="start" x="336" y="-581" font-family="Helvetica,sans-Serif" font-size="10.00">wmtk::MshReader::extract</text>
<text text-anchor="middle" x="401" y="-570" font-family="Helvetica,sans-Serif" font-size="10.00">_face_vertices</text>
</a>
</g>
</g>
<!-- Node3&#45;&gt;Node9 -->
<g id="edge8" class="edge">
<title>Node3&#45;&gt;Node9</title>
<path fill="none" stroke="midnightblue" d="M267.05,-401.64C271.84,-404.11 276.26,-407.18 280,-411 325.83,-457.85 270.4,-506.93 316,-554 317.09,-555.12 318.23,-556.2 319.41,-557.22"/>
<polygon fill="midnightblue" stroke="midnightblue" points="317.61,-560.24 327.76,-563.28 321.72,-554.57 317.61,-560.24"/>
</g>
<!-- Node10 -->
<g id="node10" class="node">
<title>Node10</title>
<g id="a_node10"><a xlink:href="classwmtk_1_1_msh_reader.html#a4dc55e5fdde3d97adebe88283914d24c" target="_top" xlink:title=" ">
<polygon fill="none" stroke="black" points="328,-514 328,-544 474,-544 474,-514 328,-514"/>
<text text-anchor="start" x="336" y="-532" font-family="Helvetica,sans-Serif" font-size="10.00">wmtk::MshReader::extract</text>
<text text-anchor="middle" x="401" y="-521" font-family="Helvetica,sans-Serif" font-size="10.00">_faces</text>
</a>
</g>
</g>
<!-- Node3&#45;&gt;Node10 -->
<g id="edge9" class="edge">
<title>Node3&#45;&gt;Node10</title>
<path fill="none" stroke="midnightblue" d="M265.57,-401.63C270.83,-404.09 275.77,-407.16 280,-411 313.13,-441.06 283.01,-474.78 316,-505 317.15,-506.06 318.35,-507.07 319.58,-508.03"/>
<polygon fill="midnightblue" stroke="midnightblue" points="317.97,-511.16 328.23,-513.79 321.85,-505.33 317.97,-511.16"/>
</g>
<!-- Node11 -->
<g id="node11" class="node">
<title>Node11</title>
<g id="a_node11"><a xlink:href="classwmtk_1_1_msh_reader.html#a31602d9861c306e1ca58a4f3f19b4e02" target="_top" xlink:title=" ">
<polygon fill="none" stroke="black" points="328,-465 328,-495 474,-495 474,-465 328,-465"/>
<text text-anchor="start" x="336" y="-483" font-family="Helvetica,sans-Serif" font-size="10.00">wmtk::MshReader::extract</text>
<text text-anchor="middle" x="401" y="-472" font-family="Helvetica,sans-Serif" font-size="10.00">_tet_vertices</text>
</a>
</g>
</g>
<!-- Node3&#45;&gt;Node11 -->
<g id="edge10" class="edge">
<title>Node3&#45;&gt;Node11</title>
<path fill="none" stroke="midnightblue" d="M260.5,-401.59C267.35,-404.05 274.06,-407.14 280,-411 301.18,-424.78 294.96,-441 316,-455 319.1,-457.06 322.37,-458.95 325.75,-460.7"/>
<polygon fill="midnightblue" stroke="midnightblue" points="324.38,-463.92 334.92,-464.96 327.33,-457.57 324.38,-463.92"/>
</g>
<!-- Node12 -->
<g id="node12" class="node">
<title>Node12</title>
<g id="a_node12"><a xlink:href="classwmtk_1_1_msh_reader.html#ae4607fef1acf5e758d861002f2a37d07" target="_top" xlink:title=" ">
<polygon fill="none" stroke="black" points="316,-426.5 316,-445.5 486,-445.5 486,-426.5 316,-426.5"/>
<text text-anchor="middle" x="401" y="-433.5" font-family="Helvetica,sans-Serif" font-size="10.00">wmtk::MshReader::extract_tets</text>
</a>
</g>
</g>
<!-- Node3&#45;&gt;Node12 -->
<g id="edge11" class="edge">
<title>Node3&#45;&gt;Node12</title>
<path fill="none" stroke="midnightblue" d="M250.86,-401.6C270.47,-406.3 294.46,-412 316,-417 326.15,-419.36 337.01,-421.84 347.43,-424.2"/>
<polygon fill="midnightblue" stroke="midnightblue" points="346.72,-427.63 357.25,-426.43 348.27,-420.81 346.72,-427.63"/>
</g>
<!-- Node13 -->
<g id="node13" class="node">
<title>Node13</title>
<g id="a_node13"><a xlink:href="classwmtk_1_1_msh_reader.html#a66333941d3f41b8fcd84c3c686138468" target="_top" xlink:title=" ">
<polygon fill="none" stroke="black" points="337.5,-377 337.5,-407 464.5,-407 464.5,-377 337.5,-377"/>
<text text-anchor="start" x="345.5" y="-395" font-family="Helvetica,sans-Serif" font-size="10.00">wmtk::MshReader::get</text>
<text text-anchor="middle" x="401" y="-384" font-family="Helvetica,sans-Serif" font-size="10.00">_num_edges</text>
</a>
</g>
</g>
<!-- Node3&#45;&gt;Node13 -->
<g id="edge12" class="edge">
<title>Node3&#45;&gt;Node13</title>
<path fill="none" stroke="midnightblue" d="M276.57,-392C292.91,-392 310.52,-392 327.18,-392"/>
<polygon fill="midnightblue" stroke="midnightblue" points="327.41,-395.5 337.41,-392 327.41,-388.5 327.41,-395.5"/>
</g>
<!-- Node14 -->
<g id="node14" class="node">
<title>Node14</title>
<g id="a_node14"><a xlink:href="classwmtk_1_1_msh_reader.html#a992a795093de4cb8852af91b6f33d6cb" target="_top" xlink:title=" ">
<polygon fill="none" stroke="black" points="337.5,-328 337.5,-358 464.5,-358 464.5,-328 337.5,-328"/>
<text text-anchor="start" x="345.5" y="-346" font-family="Helvetica,sans-Serif" font-size="10.00">wmtk::MshReader::get</text>
<text text-anchor="middle" x="401" y="-335" font-family="Helvetica,sans-Serif" font-size="10.00">_num_face_vertices</text>
</a>
</g>
</g>
<!-- Node3&#45;&gt;Node14 -->
<g id="edge13" class="edge">
<title>Node3&#45;&gt;Node14</title>
<path fill="none" stroke="midnightblue" d="M247.89,-382.44C271.82,-376.23 303.71,-367.96 332.12,-360.6"/>
<polygon fill="midnightblue" stroke="midnightblue" points="333.2,-363.93 342,-358.04 331.44,-357.16 333.2,-363.93"/>
</g>
<!-- Node15 -->
<g id="node15" class="node">
<title>Node15</title>
<g id="a_node15"><a xlink:href="classwmtk_1_1_msh_reader.html#a13023b1fa7b02848942456a578fc0dd2" target="_top" xlink:title=" ">
<polygon fill="none" stroke="black" points="337.5,-279 337.5,-309 464.5,-309 464.5,-279 337.5,-279"/>
<text text-anchor="start" x="345.5" y="-297" font-family="Helvetica,sans-Serif" font-size="10.00">wmtk::MshReader::get</text>
<text text-anchor="middle" x="401" y="-286" font-family="Helvetica,sans-Serif" font-size="10.00">_num_faces</text>
</a>
</g>
</g>
<!-- Node3&#45;&gt;Node15 -->
<g id="edge14" class="edge">
<title>Node3&#45;&gt;Node15</title>
<path fill="none" stroke="midnightblue" d="M222.21,-382.38C240.63,-367 278.99,-336.81 316,-319 320.88,-316.65 326.04,-314.47 331.29,-312.46"/>
<polygon fill="midnightblue" stroke="midnightblue" points="332.59,-315.71 340.81,-309.02 330.21,-309.12 332.59,-315.71"/>
</g>
<!-- Node16 -->
<g id="node16" class="node">
<title>Node16</title>
<g id="a_node16"><a xlink:href="classwmtk_1_1_msh_reader.html#a56a702077d70ba028a366286d2c9ad73" target="_top" xlink:title=" ">
<polygon fill="none" stroke="black" points="337.5,-230 337.5,-260 464.5,-260 464.5,-230 337.5,-230"/>
<text text-anchor="start" x="345.5" y="-248" font-family="Helvetica,sans-Serif" font-size="10.00">wmtk::MshReader::get</text>
<text text-anchor="middle" x="401" y="-237" font-family="Helvetica,sans-Serif" font-size="10.00">_num_tet_vertices</text>
</a>
</g>
</g>
<!-- Node3&#45;&gt;Node16 -->
<g id="edge15" class="edge">
<title>Node3&#45;&gt;Node16</title>
<path fill="none" stroke="midnightblue" d="M216.52,-382.44C230.26,-359.48 268.39,-300.84 316,-270 319.77,-267.56 323.78,-265.35 327.93,-263.35"/>
<polygon fill="midnightblue" stroke="midnightblue" points="329.44,-266.51 337.2,-259.3 326.64,-260.1 329.44,-266.51"/>
</g>
<!-- Node17 -->
<g id="node17" class="node">
<title>Node17</title>
<g id="a_node17"><a xlink:href="classwmtk_1_1_msh_reader.html#aff67a9acab713b89eafc0d4412f3288d" target="_top" xlink:title=" ">
<polygon fill="none" stroke="black" points="337.5,-181 337.5,-211 464.5,-211 464.5,-181 337.5,-181"/>
<text text-anchor="start" x="345.5" y="-199" font-family="Helvetica,sans-Serif" font-size="10.00">wmtk::MshReader::get</text>
<text text-anchor="middle" x="401" y="-188" font-family="Helvetica,sans-Serif" font-size="10.00">_num_tets</text>
</a>
</g>
</g>
<!-- Node3&#45;&gt;Node17 -->
<g id="edge16" class="edge">
<title>Node3&#45;&gt;Node17</title>
<path fill="none" stroke="midnightblue" d="M214.19,-382.16C224.17,-352.9 257.69,-265.76 316,-221 319.8,-218.08 323.93,-215.51 328.26,-213.23"/>
<polygon fill="midnightblue" stroke="midnightblue" points="329.8,-216.37 337.38,-208.97 326.84,-210.03 329.8,-216.37"/>
</g>
<!-- Node18 -->
<g id="node18" class="node">
<title>Node18</title>
<g id="a_node18"><a xlink:href="namespacewmtk.html#a441d6ad4f19569c7d4946e743da1a925" target="_top" xlink:title=" ">
<polygon fill="none" stroke="black" points="340,-132 340,-162 462,-162 462,-132 340,-132"/>
<text text-anchor="start" x="348" y="-150" font-family="Helvetica,sans-Serif" font-size="10.00">wmtk::log_and_throw</text>
<text text-anchor="middle" x="401" y="-139" font-family="Helvetica,sans-Serif" font-size="10.00">_error</text>
</a>
</g>
</g>
<!-- Node3&#45;&gt;Node18 -->
<g id="edge17" class="edge">
<title>Node3&#45;&gt;Node18</title>
<path fill="none" stroke="midnightblue" d="M212.71,-382.39C219.29,-348.26 246.2,-231.68 316,-172 320.45,-168.2 325.45,-164.98 330.74,-162.24"/>
<polygon fill="midnightblue" stroke="midnightblue" points="332.23,-165.41 339.88,-158.09 329.33,-159.04 332.23,-165.41"/>
</g>
<!-- Node19 -->
<g id="node19" class="node">
<title>Node19</title>
<g id="a_node19"><a xlink:href="namespacewmtk.html#a6a35f11c12436093d26fdd8be6fecc06" target="_top" xlink:title="Retrieves the current logger.">
<polygon fill="none" stroke="black" points="565,-137.5 565,-156.5 646,-156.5 646,-137.5 565,-137.5"/>
<text text-anchor="middle" x="605.5" y="-144.5" font-family="Helvetica,sans-Serif" font-size="10.00">wmtk::logger</text>
</a>
</g>
</g>
<!-- Node3&#45;&gt;Node19 -->
<g id="edge20" class="edge">
<title>Node3&#45;&gt;Node19</title>
<path fill="none" stroke="midnightblue" d="M211.2,-382.35C212.63,-341.97 224.1,-185.78 316,-123 353.63,-97.3 482.7,-120.05 554.79,-135.51"/>
<polygon fill="midnightblue" stroke="midnightblue" points="554.48,-139.02 565,-137.73 555.97,-132.18 554.48,-139.02"/>
</g>
<!-- Node21 -->
<g id="node21" class="node">
<title>Node21</title>
<g id="a_node21"><a xlink:href="namespacewmtk_1_1mesh__utils.html#ad92eb4095d516f6a20e25587f9effe80" target="_top" xlink:title=" ">
<polygon fill="none" stroke="black" points="338.5,-44 338.5,-74 463.5,-74 463.5,-44 338.5,-44"/>
<text text-anchor="start" x="346.5" y="-62" font-family="Helvetica,sans-Serif" font-size="10.00">wmtk::mesh_utils::set</text>
<text text-anchor="middle" x="401" y="-51" font-family="Helvetica,sans-Serif" font-size="10.00">_matrix_attribute</text>
</a>
</g>
</g>
<!-- Node3&#45;&gt;Node21 -->
<g id="edge21" class="edge">
<title>Node3&#45;&gt;Node21</title>
<path fill="none" stroke="midnightblue" d="M211.45,-382.31C213.87,-340.92 228.82,-177 316,-89 319.95,-85.01 324.47,-81.55 329.31,-78.55"/>
<polygon fill="midnightblue" stroke="midnightblue" points="331.23,-81.49 338.33,-73.63 327.87,-75.35 331.23,-81.49"/>
</g>
<!-- Node25 -->
<g id="node25" class="node">
<title>Node25</title>
<g id="a_node25"><a xlink:href="namespacewmtk_1_1utils.html#a34133dc338089a5141f8e84feecb81ce" target="_top" xlink:title=" ">
<polygon fill="none" stroke="black" points="325.5,-5.5 325.5,-24.5 476.5,-24.5 476.5,-5.5 325.5,-5.5"/>
<text text-anchor="middle" x="401" y="-12.5" font-family="Helvetica,sans-Serif" font-size="10.00">wmtk::utils::wmtk_orient3d</text>
</a>
</g>
</g>
<!-- Node3&#45;&gt;Node25 -->
<g id="edge25" class="edge">
<title>Node3&#45;&gt;Node25</title>
<path fill="none" stroke="midnightblue" d="M210.62,-382.28C209.35,-335.9 210.33,-135.28 316,-35 317.95,-33.15 320.04,-31.46 322.24,-29.92"/>
<polygon fill="midnightblue" stroke="midnightblue" points="324.34,-32.74 331.21,-24.67 320.81,-26.7 324.34,-32.74"/>
</g>
<!-- Node8 -->
<g id="node8" class="node">
<title>Node8</title>
<g id="a_node8"><a xlink:href="classwmtk_1_1_msh_reader.html#a7c87cee1adfc204dcceb07b91352d1d5" target="_top" xlink:title=" ">
<polygon fill="none" stroke="black" points="536.5,-612 536.5,-642 674.5,-642 674.5,-612 536.5,-612"/>
<text text-anchor="start" x="544.5" y="-630" font-family="Helvetica,sans-Serif" font-size="10.00">wmtk::MshReader::get</text>
<text text-anchor="middle" x="605.5" y="-619" font-family="Helvetica,sans-Serif" font-size="10.00">_simplex_element_block</text>
</a>
</g>
</g>
<!-- Node7&#45;&gt;Node8 -->
<g id="edge7" class="edge">
<title>Node7&#45;&gt;Node8</title>
<path fill="none" stroke="midnightblue" d="M474.25,-627C490.99,-627 508.89,-627 525.89,-627"/>
<polygon fill="midnightblue" stroke="midnightblue" points="526.34,-630.5 536.34,-627 526.34,-623.5 526.34,-630.5"/>
</g>
<!-- Node18&#45;&gt;Node19 -->
<g id="edge18" class="edge">
<title>Node18&#45;&gt;Node19</title>
<path fill="none" stroke="midnightblue" d="M462.21,-147C491.67,-147 526.72,-147 554.65,-147"/>
<polygon fill="midnightblue" stroke="midnightblue" points="554.99,-150.5 564.99,-147 554.99,-143.5 554.99,-150.5"/>
</g>
<!-- Node20 -->
<g id="node20" class="node">
<title>Node20</title>
<g id="a_node20"><a xlink:href="namespacewmtk.html#a3daa7951a5f8b78cf4600dc047fcc180" target="_top" xlink:title="Setup a logger object to be used by WildmeshToolkit.">
<polygon fill="none" stroke="black" points="725,-137.5 725,-156.5 826,-156.5 826,-137.5 725,-137.5"/>
<text text-anchor="middle" x="775.5" y="-144.5" font-family="Helvetica,sans-Serif" font-size="10.00">wmtk::set_logger</text>
</a>
</g>
</g>
<!-- Node19&#45;&gt;Node20 -->
<g id="edge19" class="edge">
<title>Node19&#45;&gt;Node20</title>
<path fill="none" stroke="midnightblue" d="M646.31,-147C666.68,-147 691.88,-147 714.54,-147"/>
<polygon fill="midnightblue" stroke="midnightblue" points="714.74,-150.5 724.74,-147 714.74,-143.5 714.74,-150.5"/>
</g>
<!-- Node22 -->
<g id="node22" class="node">
<title>Node22</title>
<g id="a_node22"><a xlink:href="classwmtk_1_1attribute_1_1_mesh_attribute_handle.html#a9c02e0fc8ac13ad9f16ce928e7a2c84c" target="_top" xlink:title=" ">
<polygon fill="none" stroke="black" points="522,-88 522,-118 689,-118 689,-88 522,-88"/>
<text text-anchor="start" x="530" y="-106" font-family="Helvetica,sans-Serif" font-size="10.00">wmtk::attribute::MeshAttribute</text>
<text text-anchor="middle" x="605.5" y="-95" font-family="Helvetica,sans-Serif" font-size="10.00">Handle::as</text>
</a>
</g>
</g>
<!-- Node21&#45;&gt;Node22 -->
<g id="edge22" class="edge">
<title>Node21&#45;&gt;Node22</title>
<path fill="none" stroke="midnightblue" d="M463.58,-72.38C483.08,-76.62 504.91,-81.36 525.46,-85.83"/>
<polygon fill="midnightblue" stroke="midnightblue" points="524.91,-89.29 535.43,-87.99 526.4,-82.45 524.91,-89.29"/>
</g>
<!-- Node23 -->
<g id="node23" class="node">
<title>Node23</title>
<g id="a_node23"><a xlink:href="classwmtk_1_1_mesh.html#aa2b952c0d3894043f513a86fbbd910ff" target="_top" xlink:title=" ">
<polygon fill="none" stroke="black" points="549,-39 549,-69 662,-69 662,-39 549,-39"/>
<text text-anchor="start" x="557" y="-57" font-family="Helvetica,sans-Serif" font-size="10.00">wmtk::Mesh::create</text>
<text text-anchor="middle" x="605.5" y="-46" font-family="Helvetica,sans-Serif" font-size="10.00">_accessor</text>
</a>
</g>
</g>
<!-- Node21&#45;&gt;Node23 -->
<g id="edge23" class="edge">
<title>Node21&#45;&gt;Node23</title>
<path fill="none" stroke="midnightblue" d="M463.58,-57.48C487.3,-56.89 514.48,-56.22 538.59,-55.63"/>
<polygon fill="midnightblue" stroke="midnightblue" points="538.81,-59.12 548.72,-55.38 538.64,-52.13 538.81,-59.12"/>
</g>
<!-- Node24 -->
<g id="node24" class="node">
<title>Node24</title>
<g id="a_node24"><a xlink:href="classwmtk_1_1_mesh.html#a6d2a546c8f661bf6386cf845a1693d2f" target="_top" xlink:title="Generate a vector of Tuples from global vertex/edge/triangle/tetrahedron index.">
<polygon fill="none" stroke="black" points="547.5,-0.5 547.5,-19.5 663.5,-19.5 663.5,-0.5 547.5,-0.5"/>
<text text-anchor="middle" x="605.5" y="-7.5" font-family="Helvetica,sans-Serif" font-size="10.00">wmtk::Mesh::get_all</text>
</a>
</g>
</g>
<!-- Node21&#45;&gt;Node24 -->
<g id="edge24" class="edge">
<title>Node21&#45;&gt;Node24</title>
<path fill="none" stroke="midnightblue" d="M463.58,-44.1C493.01,-36.98 527.76,-28.57 555.38,-21.89"/>
<polygon fill="midnightblue" stroke="midnightblue" points="556.32,-25.26 565.21,-19.51 554.67,-18.46 556.32,-25.26"/>
</g>
</g>
</svg>
        <g id="navigator" transform="translate(0 0)" fill="#404254">
                <rect fill="#f2f5e9" fill-opacity="0.5" stroke="#606060" stroke-width=".5" x="0" y="0" width="60" height="60"/>
                <use id="zoomplus" xlink:href="#zoomPlus" x="17" y="9" onmousedown="handleZoom(evt,'in')"/>
                <use id="zoomminus" xlink:href="#zoomMin" x="42" y="9" onmousedown="handleZoom(evt,'out')"/>
                <use id="reset" xlink:href="#resetDef" x="30" y="36" onmousedown="handleReset()"/>
                <g id="arrowUp" xlink:href="#dirArrow" transform="translate(30 24)" onmousedown="handlePan(0,-1)">
                  <use xlink:href="#rim" fill="#404040">
                        <set attributeName="fill" to="#808080" begin="arrowUp.mouseover" end="arrowUp.mouseout"/>
                  </use>
                  <path fill="none" stroke="white" stroke-width="1.5" d="M0,-3.0v7 M-2.5,-0.5L0,-3.0L2.5,-0.5"/>
                </g>
                <g id="arrowRight" xlink:href="#dirArrow" transform="rotate(90) translate(36 -43)" onmousedown="handlePan(1,0)">
                  <use xlink:href="#rim" fill="#404040">
                        <set attributeName="fill" to="#808080" begin="arrowRight.mouseover" end="arrowRight.mouseout"/>
                  </use>
                  <path fill="none" stroke="white" stroke-width="1.5" d="M0,-3.0v7 M-2.5,-0.5L0,-3.0L2.5,-0.5"/>
                </g>
                <g id="arrowDown" xlink:href="#dirArrow" transform="rotate(180) translate(-30 -48)" onmousedown="handlePan(0,1)">
                  <use xlink:href="#rim" fill="#404040">
                        <set attributeName="fill" to="#808080" begin="arrowDown.mouseover" end="arrowDown.mouseout"/>
                  </use>
                  <path fill="none" stroke="white" stroke-width="1.5" d="M0,-3.0v7 M-2.5,-0.5L0,-3.0L2.5,-0.5"/>
                </g>
                <g id="arrowLeft" xlink:href="#dirArrow" transform="rotate(270) translate(-36 17)" onmousedown="handlePan(-1,0)">
                  <use xlink:href="#rim" fill="#404040">
                        <set attributeName="fill" to="#808080" begin="arrowLeft.mouseover" end="arrowLeft.mouseout"/>
                  </use>
                  <path fill="none" stroke="white" stroke-width="1.5" d="M0,-3.0v7 M-2.5,-0.5L0,-3.0L2.5,-0.5"/>
                </g>
        </g>
        <svg viewBox="0 0 15 15" width="100%" height="30px" preserveAspectRatio="xMaxYMin meet">
         <g id="arrow_out" transform="scale(0.3 0.3)">
          <a xlink:href="namespacewmtk_adb1edeb39c4e0ef98ecc5afeed46891c_cgraph_org.svg" target="_base">
           <rect id="button" ry="5" rx="5" y="6" x="6" height="38" width="38"
                fill="#f2f5e9" fill-opacity="0.5" stroke="#606060" stroke-width="1.0"/>
           <path id="arrow"
             d="M 11.500037,31.436501 C 11.940474,20.09759 22.043105,11.32322 32.158766,21.979434 L 37.068811,17.246167 C 37.068811,17.246167 37.088388,32 37.088388,32 L 22.160133,31.978069 C 22.160133,31.978069 26.997745,27.140456 26.997745,27.140456 C 18.528582,18.264221 13.291696,25.230495 11.500037,31.436501 z"
             style="fill:#404040;"/>
          </a>
         </g>
        </svg>
</svg>
