<?xml version="1.0" encoding="UTF-8" standalone="no"?>
<!DOCTYPE svg PUBLIC "-//W3C//DTD SVG 1.1//EN"
 "http://www.w3.org/Graphics/SVG/1.1/DTD/svg11.dtd">
<!-- Generated by graphviz version 2.43.0 (0)
 -->
<!-- Title: wmtk::multimesh::utils::symmetric_write_tuple_map_attributes Pages: 1 -->
<!--zoomable 375 -->
<svg id="main" version="1.1" xmlns="http://www.w3.org/2000/svg" xmlns:xlink="http://www.w3.org/1999/xlink" xml:space="preserve" onload="init(evt)">
<style type="text/css"><![CDATA[
.edge:hover path { stroke: red; }
.edge:hover polygon { stroke: red; fill: red; }
]]></style>
<script type="text/javascript"><![CDATA[
var edges = document.getElementsByTagName('g');
if (edges && edges.length) {
  for (var i=0;i<edges.length;i++) {
    if (edges[i].id.substr(0,4)=='edge') {
      edges[i].setAttribute('class','edge');
    }
  }
}
]]></script>
        <defs>
                <circle id="rim" cx="0" cy="0" r="7"/>
                <circle id="rim2" cx="0" cy="0" r="3.5"/>
                <g id="zoomPlus">
                        <use xlink:href="#rim" fill="#404040">
                                <set attributeName="fill" to="#808080" begin="zoomplus.mouseover" end="zoomplus.mouseout"/>
                        </use>
                        <path d="M-4,0h8M0,-4v8" fill="none" stroke="white" stroke-width="1.5" pointer-events="none"/>
                </g>
                <g id="zoomMin">
                        <use xlink:href="#rim" fill="#404040">
                                <set attributeName="fill" to="#808080" begin="zoomminus.mouseover" end="zoomminus.mouseout"/>
                        </use>
                        <path d="M-4,0h8" fill="none" stroke="white" stroke-width="1.5" pointer-events="none"/>
                </g>
                <g id="dirArrow">
                        <path fill="none" stroke="white" stroke-width="1.5" d="M0,-3.0v7 M-2.5,-0.5L0,-3.0L2.5,-0.5"/>
                </g>
               <g id="resetDef">
                       <use xlink:href="#rim2" fill="#404040">
                               <set attributeName="fill" to="#808080" begin="reset.mouseover" end="reset.mouseout"/>
                       </use>
               </g>
        </defs>

<script type="text/javascript">
var viewWidth = 1591;
var viewHeight = 375;
var sectionId = 'dynsection-16';
</script>
<script xlink:href="svgpan.js"/>
<svg id="graph" class="graph">
<g id="viewport">
<title>wmtk::multimesh::utils::symmetric_write_tuple_map_attributes</title>
<!-- Node1 -->
<g id="node1" class="node">
<title>Node1</title>
<g id="a_node1"><a xlink:title=" ">
<polygon fill="#bfbfbf" stroke="black" points="1448,-149 1448,-190 1583,-190 1583,-149 1448,-149"/>
<text text-anchor="start" x="1456" y="-178" font-family="Helvetica,sans-Serif" font-size="10.00">wmtk::multimesh::utils</text>
<text text-anchor="start" x="1456" y="-167" font-family="Helvetica,sans-Serif" font-size="10.00">::symmetric_write_tuple</text>
<text text-anchor="middle" x="1515.5" y="-156" font-family="Helvetica,sans-Serif" font-size="10.00">_map_attributes</text>
</a>
</g>
</g>
<!-- Node2 -->
<g id="node2" class="node">
<title>Node2</title>
<g id="a_node2"><a xlink:href="classwmtk_1_1operations_1_1utils_1_1_update_edge_operation_multi_mesh_map_functor.html#aac119196791985369035cec5059809fd" target="_top" xlink:title=" ">
<polygon fill="none" stroke="black" points="1223.5,-270 1223.5,-311 1404.5,-311 1404.5,-270 1223.5,-270"/>
<text text-anchor="start" x="1231.5" y="-299" font-family="Helvetica,sans-Serif" font-size="10.00">wmtk::operations::utils</text>
<text text-anchor="start" x="1231.5" y="-288" font-family="Helvetica,sans-Serif" font-size="10.00">::UpdateEdgeOperationMultiMesh</text>
<text text-anchor="middle" x="1314" y="-277" font-family="Helvetica,sans-Serif" font-size="10.00">MapFunctor::operator()</text>
</a>
</g>
</g>
<!-- Node1&#45;&gt;Node2 -->
<g id="edge1" class="edge">
<title>Node1&#45;&gt;Node2</title>
<path fill="none" stroke="midnightblue" d="M1489.45,-197.38C1470.06,-217.45 1441.6,-243.83 1412,-260.5 1405.78,-264 1399.1,-267.15 1392.26,-269.96"/>
<polygon fill="midnightblue" stroke="midnightblue" points="1492.08,-199.69 1496.42,-190.03 1487,-194.87 1492.08,-199.69"/>
</g>
<!-- Node3 -->
<g id="node3" class="node">
<title>Node3</title>
<g id="a_node3"><a xlink:href="classwmtk_1_1multimesh_1_1_multi_mesh_manager.html#a4b563821dc0926b66899d0d8a8d32e58" target="_top" xlink:title="register a another mesh as a child of this mesh.">
<polygon fill="none" stroke="black" points="1232,-220.5 1232,-250.5 1396,-250.5 1396,-220.5 1232,-220.5"/>
<text text-anchor="start" x="1240" y="-238.5" font-family="Helvetica,sans-Serif" font-size="10.00">wmtk::multimesh::MultiMesh</text>
<text text-anchor="middle" x="1314" y="-227.5" font-family="Helvetica,sans-Serif" font-size="10.00">Manager::register_child_mesh</text>
</a>
</g>
</g>
<!-- Node1&#45;&gt;Node3 -->
<g id="edge2" class="edge">
<title>Node1&#45;&gt;Node3</title>
<path fill="none" stroke="midnightblue" d="M1447.39,-193.48C1435.62,-197.57 1423.47,-201.71 1412,-205.5 1396.77,-210.53 1380.11,-215.77 1364.96,-220.44"/>
<polygon fill="midnightblue" stroke="midnightblue" points="1448.88,-196.67 1457.17,-190.07 1446.57,-190.06 1448.88,-196.67"/>
</g>
<!-- Node16 -->
<g id="node16" class="node">
<title>Node16</title>
<g id="a_node16"><a xlink:href="classwmtk_1_1operations_1_1utils_1_1_update_edge_operation_multi_mesh_map_functor.html#a4c69338c29bf0105b1881d829a177d45" target="_top" xlink:title=" ">
<polygon fill="none" stroke="black" points="979,-186 979,-227 1180,-227 1180,-186 979,-186"/>
<text text-anchor="start" x="987" y="-215" font-family="Helvetica,sans-Serif" font-size="10.00">wmtk::operations::utils</text>
<text text-anchor="start" x="987" y="-204" font-family="Helvetica,sans-Serif" font-size="10.00">::UpdateEdgeOperationMultiMesh</text>
<text text-anchor="middle" x="1079.5" y="-193" font-family="Helvetica,sans-Serif" font-size="10.00">MapFunctor::update_ear_replacement</text>
</a>
</g>
</g>
<!-- Node1&#45;&gt;Node16 -->
<g id="edge15" class="edge">
<title>Node1&#45;&gt;Node16</title>
<path fill="none" stroke="midnightblue" d="M1437.32,-176.08C1365.57,-182.2 1258.29,-191.34 1180.11,-198.01"/>
<polygon fill="midnightblue" stroke="midnightblue" points="1437.97,-179.54 1447.64,-175.2 1437.38,-172.56 1437.97,-179.54"/>
</g>
<!-- Node18 -->
<g id="node18" class="node">
<title>Node18</title>
<g id="a_node18"><a xlink:href="classwmtk_1_1multimesh_1_1_multi_mesh_manager.html#abe80ff5ed63ac45969a4d7d087a5ffd8" target="_top" xlink:title=" ">
<polygon fill="none" stroke="black" points="1216,-132.5 1216,-162.5 1412,-162.5 1412,-132.5 1216,-132.5"/>
<text text-anchor="start" x="1224" y="-150.5" font-family="Helvetica,sans-Serif" font-size="10.00">wmtk::multimesh::MultiMesh</text>
<text text-anchor="middle" x="1314" y="-139.5" font-family="Helvetica,sans-Serif" font-size="10.00">Manager::update_map_tuple_hashes</text>
</a>
</g>
</g>
<!-- Node1&#45;&gt;Node18 -->
<g id="edge17" class="edge">
<title>Node1&#45;&gt;Node18</title>
<path fill="none" stroke="midnightblue" d="M1437.72,-161.03C1429.36,-160.11 1420.78,-159.16 1412.21,-158.22"/>
<polygon fill="midnightblue" stroke="midnightblue" points="1437.47,-164.53 1447.79,-162.14 1438.24,-157.57 1437.47,-164.53"/>
</g>
<!-- Node20 -->
<g id="node20" class="node">
<title>Node20</title>
<g id="a_node20"><a xlink:href="namespacewmtk_1_1operations_1_1utils.html#a45a56d2f7cd5b33c464cfe0779be372a" target="_top" xlink:title=" ">
<polygon fill="none" stroke="black" points="1241.5,-72 1241.5,-113 1386.5,-113 1386.5,-72 1241.5,-72"/>
<text text-anchor="start" x="1249.5" y="-101" font-family="Helvetica,sans-Serif" font-size="10.00">wmtk::operations::utils</text>
<text text-anchor="start" x="1249.5" y="-90" font-family="Helvetica,sans-Serif" font-size="10.00">::update_vertex_operation</text>
<text text-anchor="middle" x="1314" y="-79" font-family="Helvetica,sans-Serif" font-size="10.00">_multimesh_map_hash</text>
</a>
</g>
</g>
<!-- Node1&#45;&gt;Node20 -->
<g id="edge20" class="edge">
<title>Node1&#45;&gt;Node20</title>
<path fill="none" stroke="midnightblue" d="M1462.37,-144.74C1446.37,-137.51 1428.6,-129.85 1412,-123.5 1402.59,-119.9 1392.56,-116.36 1382.65,-113.04"/>
<polygon fill="midnightblue" stroke="midnightblue" points="1461.01,-147.97 1471.56,-148.93 1463.92,-141.6 1461.01,-147.97"/>
</g>
<!-- Node22 -->
<g id="node22" class="node">
<title>Node22</title>
<g id="a_node22"><a xlink:href="classwmtk_1_1multimesh_1_1_multi_mesh_manager.html#a49bf5ccfd29d9bbc2e2b0de2cfa67670" target="_top" xlink:title=" ">
<polygon fill="none" stroke="black" points="1234,-0.5 1234,-52.5 1394,-52.5 1394,-0.5 1234,-0.5"/>
<text text-anchor="start" x="1242" y="-40.5" font-family="Helvetica,sans-Serif" font-size="10.00">wmtk::multimesh::MultiMesh</text>
<text text-anchor="start" x="1242" y="-29.5" font-family="Helvetica,sans-Serif" font-size="10.00">Manager::update_vertex</text>
<text text-anchor="start" x="1242" y="-18.5" font-family="Helvetica,sans-Serif" font-size="10.00">_operation_multimesh_map</text>
<text text-anchor="middle" x="1314" y="-7.5" font-family="Helvetica,sans-Serif" font-size="10.00">_hash_internal</text>
</a>
</g>
</g>
<!-- Node1&#45;&gt;Node22 -->
<g id="edge22" class="edge">
<title>Node1&#45;&gt;Node22</title>
<path fill="none" stroke="midnightblue" d="M1493.03,-140.69C1474.01,-116.9 1444.31,-83.72 1412,-62.5 1406.44,-58.85 1400.47,-55.51 1394.31,-52.45"/>
<polygon fill="midnightblue" stroke="midnightblue" points="1490.37,-142.97 1499.3,-148.67 1495.88,-138.64 1490.37,-142.97"/>
</g>
<!-- Node4 -->
<g id="node4" class="node">
<title>Node4</title>
<g id="a_node4"><a xlink:href="classwmtk_1_1_mesh.html#a333e19ee5ddb037313fa7dbdb0e41771" target="_top" xlink:title="register a mesh as the child of this mesh">
<polygon fill="none" stroke="black" points="1019.5,-246.5 1019.5,-276.5 1139.5,-276.5 1139.5,-246.5 1019.5,-246.5"/>
<text text-anchor="start" x="1027.5" y="-264.5" font-family="Helvetica,sans-Serif" font-size="10.00">wmtk::Mesh::register</text>
<text text-anchor="middle" x="1079.5" y="-253.5" font-family="Helvetica,sans-Serif" font-size="10.00">_child_mesh</text>
</a>
</g>
</g>
<!-- Node3&#45;&gt;Node4 -->
<g id="edge3" class="edge">
<title>Node3&#45;&gt;Node4</title>
<path fill="none" stroke="midnightblue" d="M1221.64,-245.72C1194.12,-248.79 1164.65,-252.09 1139.79,-254.87"/>
<polygon fill="midnightblue" stroke="midnightblue" points="1222.13,-249.18 1231.68,-244.59 1221.36,-242.23 1222.13,-249.18"/>
</g>
<!-- Node5 -->
<g id="node5" class="node">
<title>Node5</title>
<g id="a_node5"><a xlink:href="classwmtk_1_1multimesh_1_1utils_1_1internal_1_1_tuple_tag.html#a89f54c784fb3d50bba75eb8d5db6ed8a" target="_top" xlink:title=" ">
<polygon fill="none" stroke="black" points="779.5,-262.5 779.5,-314.5 925.5,-314.5 925.5,-262.5 779.5,-262.5"/>
<text text-anchor="start" x="787.5" y="-302.5" font-family="Helvetica,sans-Serif" font-size="10.00">wmtk::multimesh::utils</text>
<text text-anchor="start" x="787.5" y="-291.5" font-family="Helvetica,sans-Serif" font-size="10.00">::internal::TupleTag::</text>
<text text-anchor="start" x="787.5" y="-280.5" font-family="Helvetica,sans-Serif" font-size="10.00">extract_and_register_child</text>
<text text-anchor="middle" x="852.5" y="-269.5" font-family="Helvetica,sans-Serif" font-size="10.00">_mesh_from_tag_handle</text>
</a>
</g>
</g>
<!-- Node4&#45;&gt;Node5 -->
<g id="edge4" class="edge">
<title>Node4&#45;&gt;Node5</title>
<path fill="none" stroke="midnightblue" d="M1009.43,-269.79C982.94,-272.97 952.66,-276.6 925.87,-279.82"/>
<polygon fill="midnightblue" stroke="midnightblue" points="1009.87,-273.26 1019.38,-268.59 1009.04,-266.31 1009.87,-273.26"/>
</g>
<!-- Node14 -->
<g id="node14" class="node">
<title>Node14</title>
<g id="a_node14"><a xlink:href="namespacewmtk_1_1components.html#a2aa35ea56a54c5b65349ced551dd1429" target="_top" xlink:title=" ">
<polygon fill="none" stroke="black" points="779.5,-224 779.5,-243 925.5,-243 925.5,-224 779.5,-224"/>
<text text-anchor="middle" x="852.5" y="-231" font-family="Helvetica,sans-Serif" font-size="10.00">wmtk::components::fusion</text>
</a>
</g>
</g>
<!-- Node4&#45;&gt;Node14 -->
<g id="edge13" class="edge">
<title>Node4&#45;&gt;Node14</title>
<path fill="none" stroke="midnightblue" d="M1009.43,-252.9C982.94,-249.61 952.66,-245.84 925.87,-242.51"/>
<polygon fill="midnightblue" stroke="midnightblue" points="1009.03,-256.38 1019.38,-254.14 1009.89,-249.44 1009.03,-256.38"/>
</g>
<!-- Node6 -->
<g id="node6" class="node">
<title>Node6</title>
<g id="a_node6"><a xlink:href="namespacewmtk_1_1multimesh_1_1utils.html#a197be9245149c7042613aeacf231ec1d" target="_top" xlink:title="extract a child mesh based on the tag handle and the tag value, and register it to the input (parent)...">
<polygon fill="none" stroke="black" points="578.5,-325 578.5,-366 708.5,-366 708.5,-325 578.5,-325"/>
<text text-anchor="start" x="586.5" y="-354" font-family="Helvetica,sans-Serif" font-size="10.00">wmtk::multimesh::utils</text>
<text text-anchor="start" x="586.5" y="-343" font-family="Helvetica,sans-Serif" font-size="10.00">::extract_and_register</text>
<text text-anchor="middle" x="643.5" y="-332" font-family="Helvetica,sans-Serif" font-size="10.00">_child_mesh_from_tag</text>
</a>
</g>
</g>
<!-- Node5&#45;&gt;Node6 -->
<g id="edge5" class="edge">
<title>Node5&#45;&gt;Node6</title>
<path fill="none" stroke="midnightblue" d="M769.57,-311.06C749.36,-316.63 727.99,-322.51 708.75,-327.81"/>
<polygon fill="midnightblue" stroke="midnightblue" points="770.68,-314.39 779.39,-308.36 768.82,-307.64 770.68,-314.39"/>
</g>
<!-- Node7 -->
<g id="node7" class="node">
<title>Node7</title>
<g id="a_node7"><a xlink:href="namespacewmtk_1_1multimesh_1_1utils.html#a3ba02c50321ce0e6095c107cbb5edc13" target="_top" xlink:title="extract a child mesh based on the tag handle and the tag value, and register it to the input (parent)...">
<polygon fill="none" stroke="black" points="561,-265 561,-306 726,-306 726,-265 561,-265"/>
<text text-anchor="start" x="569" y="-294" font-family="Helvetica,sans-Serif" font-size="10.00">wmtk::multimesh::utils</text>
<text text-anchor="start" x="569" y="-283" font-family="Helvetica,sans-Serif" font-size="10.00">::extract_and_register</text>
<text text-anchor="middle" x="643.5" y="-272" font-family="Helvetica,sans-Serif" font-size="10.00">_child_mesh_from_tag_handle</text>
</a>
</g>
</g>
<!-- Node5&#45;&gt;Node7 -->
<g id="edge6" class="edge">
<title>Node5&#45;&gt;Node7</title>
<path fill="none" stroke="midnightblue" d="M769.21,-287.31C755.08,-287.1 740.39,-286.89 726.27,-286.69"/>
<polygon fill="midnightblue" stroke="midnightblue" points="769.34,-290.81 779.39,-287.45 769.44,-283.81 769.34,-290.81"/>
</g>
<!-- Node8 -->
<g id="node8" class="node">
<title>Node8</title>
<g id="a_node8"><a xlink:href="namespacewmtk_1_1multimesh_1_1utils.html#a9349b24597b61459c9d98753ae5234f1" target="_top" xlink:title="extract a child mesh based on the given tag and tag value, and register it to the input (parent) mesh">
<polygon fill="none" stroke="black" points="395,-265 395,-306 525,-306 525,-265 395,-265"/>
<text text-anchor="start" x="403" y="-294" font-family="Helvetica,sans-Serif" font-size="10.00">wmtk::multimesh::utils</text>
<text text-anchor="start" x="403" y="-283" font-family="Helvetica,sans-Serif" font-size="10.00">::extract_and_register</text>
<text text-anchor="middle" x="460" y="-272" font-family="Helvetica,sans-Serif" font-size="10.00">_child_mesh_from_tag</text>
</a>
</g>
</g>
<!-- Node7&#45;&gt;Node8 -->
<g id="edge7" class="edge">
<title>Node7&#45;&gt;Node8</title>
<path fill="none" stroke="midnightblue" d="M550.66,-285.5C542.04,-285.5 533.42,-285.5 525.13,-285.5"/>
<polygon fill="midnightblue" stroke="midnightblue" points="550.78,-289 560.78,-285.5 550.78,-282 550.78,-289"/>
</g>
<!-- Node9 -->
<g id="node9" class="node">
<title>Node9</title>
<g id="a_node9"><a xlink:href="namespacewmtk_1_1utils.html#a4ea0d7c148b4066c6692a8e31c7b7b7a" target="_top" xlink:title=" ">
<polygon fill="none" stroke="black" points="198,-314 198,-355 351,-355 351,-314 198,-314"/>
<text text-anchor="start" x="206" y="-343" font-family="Helvetica,sans-Serif" font-size="10.00">wmtk::utils::generate</text>
<text text-anchor="start" x="206" y="-332" font-family="Helvetica,sans-Serif" font-size="10.00">_raw_tetmesh_with_surface</text>
<text text-anchor="middle" x="274.5" y="-321" font-family="Helvetica,sans-Serif" font-size="10.00">_from_input</text>
</a>
</g>
</g>
<!-- Node8&#45;&gt;Node9 -->
<g id="edge8" class="edge">
<title>Node8&#45;&gt;Node9</title>
<path fill="none" stroke="midnightblue" d="M385.14,-305.22C373.99,-308.2 362.48,-311.27 351.3,-314.26"/>
<polygon fill="midnightblue" stroke="midnightblue" points="386.06,-308.6 394.82,-302.64 384.26,-301.84 386.06,-308.6"/>
</g>
<!-- Node11 -->
<g id="node11" class="node">
<title>Node11</title>
<g id="a_node11"><a xlink:href="namespacewmtk_1_1components.html#aac69455341d52516952b0655d254ec51" target="_top" xlink:title=" ">
<polygon fill="none" stroke="black" points="190,-276 190,-295 359,-295 359,-276 190,-276"/>
<text text-anchor="middle" x="274.5" y="-283" font-family="Helvetica,sans-Serif" font-size="10.00">wmtk::components::multimesh</text>
</a>
</g>
</g>
<!-- Node8&#45;&gt;Node11 -->
<g id="edge10" class="edge">
<title>Node8&#45;&gt;Node11</title>
<path fill="none" stroke="midnightblue" d="M384.73,-285.5C376.36,-285.5 367.8,-285.5 359.32,-285.5"/>
<polygon fill="midnightblue" stroke="midnightblue" points="384.82,-289 394.82,-285.5 384.82,-282 384.82,-289"/>
</g>
<!-- Node13 -->
<g id="node13" class="node">
<title>Node13</title>
<g id="a_node13"><a xlink:href="test__component__isotropic__remeshing_8cpp.html#aae475685ae29b731655dd43137a950d6" target="_top" xlink:title=" ">
<polygon fill="none" stroke="black" points="239,-238 239,-257 310,-257 310,-238 239,-238"/>
<text text-anchor="middle" x="274.5" y="-245" font-family="Helvetica,sans-Serif" font-size="10.00">TEST_CASE</text>
</a>
</g>
</g>
<!-- Node8&#45;&gt;Node13 -->
<g id="edge12" class="edge">
<title>Node8&#45;&gt;Node13</title>
<path fill="none" stroke="midnightblue" d="M384.99,-270.17C359.06,-264.8 331.15,-259.02 310,-254.64"/>
<polygon fill="midnightblue" stroke="midnightblue" points="384.32,-273.61 394.82,-272.21 385.74,-266.75 384.32,-273.61"/>
</g>
<!-- Node10 -->
<g id="node10" class="node">
<title>Node10</title>
<g id="a_node10"><a xlink:href="namespacewmtk_1_1components.html#ad26e15d638e76cf767b43e34d5d68465" target="_top" xlink:title=" ">
<polygon fill="none" stroke="black" points="0,-319.5 0,-349.5 154,-349.5 154,-319.5 0,-319.5"/>
<text text-anchor="start" x="8" y="-337.5" font-family="Helvetica,sans-Serif" font-size="10.00">wmtk::components::triangle</text>
<text text-anchor="middle" x="77" y="-326.5" font-family="Helvetica,sans-Serif" font-size="10.00">_insertion</text>
</a>
</g>
</g>
<!-- Node9&#45;&gt;Node10 -->
<g id="edge9" class="edge">
<title>Node9&#45;&gt;Node10</title>
<path fill="none" stroke="midnightblue" d="M187.7,-334.5C176.49,-334.5 165.06,-334.5 154.03,-334.5"/>
<polygon fill="midnightblue" stroke="midnightblue" points="187.91,-338 197.91,-334.5 187.91,-331 187.91,-338"/>
</g>
<!-- Node12 -->
<g id="node12" class="node">
<title>Node12</title>
<g id="a_node12"><a xlink:href="test__component__multimesh_8cpp.html#adcff0ee9e850d29cff036dae09747fe6" target="_top" xlink:title=" ">
<polygon fill="none" stroke="black" points="41.5,-276 41.5,-295 112.5,-295 112.5,-276 41.5,-276"/>
<text text-anchor="middle" x="77" y="-283" font-family="Helvetica,sans-Serif" font-size="10.00">TEST_CASE</text>
</a>
</g>
</g>
<!-- Node11&#45;&gt;Node12 -->
<g id="edge11" class="edge">
<title>Node11&#45;&gt;Node12</title>
<path fill="none" stroke="midnightblue" d="M179.58,-285.5C155.8,-285.5 131.72,-285.5 112.98,-285.5"/>
<polygon fill="midnightblue" stroke="midnightblue" points="179.74,-289 189.74,-285.5 179.74,-282 179.74,-289"/>
</g>
<!-- Node15 -->
<g id="node15" class="node">
<title>Node15</title>
<g id="a_node15"><a xlink:href="test__component__fusion_8cpp.html#ad717d3fcca492f6237e8e5f0e3455e4e" target="_top" xlink:title=" ">
<polygon fill="none" stroke="black" points="608,-224 608,-243 679,-243 679,-224 608,-224"/>
<text text-anchor="middle" x="643.5" y="-231" font-family="Helvetica,sans-Serif" font-size="10.00">TEST_CASE</text>
</a>
</g>
</g>
<!-- Node14&#45;&gt;Node15 -->
<g id="edge14" class="edge">
<title>Node14&#45;&gt;Node15</title>
<path fill="none" stroke="midnightblue" d="M769.32,-233.5C737.95,-233.5 703.84,-233.5 679.22,-233.5"/>
<polygon fill="midnightblue" stroke="midnightblue" points="769.39,-237 779.39,-233.5 769.39,-230 769.39,-237"/>
</g>
<!-- Node17 -->
<g id="node17" class="node">
<title>Node17</title>
<g id="a_node17"><a xlink:href="classwmtk_1_1operations_1_1utils_1_1_update_edge_operation_multi_mesh_map_functor.html#a57611fefa85bea3d1858ca385b0f350a" target="_top" xlink:title=" ">
<polygon fill="none" stroke="black" points="762,-145 762,-186 943,-186 943,-145 762,-145"/>
<text text-anchor="start" x="770" y="-174" font-family="Helvetica,sans-Serif" font-size="10.00">wmtk::operations::utils</text>
<text text-anchor="start" x="770" y="-163" font-family="Helvetica,sans-Serif" font-size="10.00">::UpdateEdgeOperationMultiMesh</text>
<text text-anchor="middle" x="852.5" y="-152" font-family="Helvetica,sans-Serif" font-size="10.00">MapFunctor::operator()</text>
</a>
</g>
</g>
<!-- Node16&#45;&gt;Node17 -->
<g id="edge16" class="edge">
<title>Node16&#45;&gt;Node17</title>
<path fill="none" stroke="midnightblue" d="M968.78,-186.51C960.2,-184.94 951.6,-183.38 943.17,-181.84"/>
<polygon fill="midnightblue" stroke="midnightblue" points="968.36,-189.99 978.83,-188.34 969.62,-183.1 968.36,-189.99"/>
</g>
<!-- Node19 -->
<g id="node19" class="node">
<title>Node19</title>
<g id="a_node19"><a xlink:href="classwmtk_1_1operations_1_1utils_1_1_update_edge_operation_multi_mesh_map_functor.html#affd40fcd5b842c963ae1511a255ba646" target="_top" xlink:title=" ">
<polygon fill="none" stroke="black" points="989,-126 989,-167 1170,-167 1170,-126 989,-126"/>
<text text-anchor="start" x="997" y="-155" font-family="Helvetica,sans-Serif" font-size="10.00">wmtk::operations::utils</text>
<text text-anchor="start" x="997" y="-144" font-family="Helvetica,sans-Serif" font-size="10.00">::UpdateEdgeOperationMultiMesh</text>
<text text-anchor="middle" x="1079.5" y="-133" font-family="Helvetica,sans-Serif" font-size="10.00">MapFunctor::update_all_hashes</text>
</a>
</g>
</g>
<!-- Node18&#45;&gt;Node19 -->
<g id="edge18" class="edge">
<title>Node18&#45;&gt;Node19</title>
<path fill="none" stroke="midnightblue" d="M1205.46,-147.04C1193.7,-146.99 1181.82,-146.94 1170.31,-146.89"/>
<polygon fill="midnightblue" stroke="midnightblue" points="1205.73,-150.54 1215.75,-147.08 1205.76,-143.54 1205.73,-150.54"/>
</g>
<!-- Node19&#45;&gt;Node17 -->
<g id="edge19" class="edge">
<title>Node19&#45;&gt;Node17</title>
<path fill="none" stroke="midnightblue" d="M978.61,-154.94C966.79,-155.93 954.79,-156.95 943.13,-157.93"/>
<polygon fill="midnightblue" stroke="midnightblue" points="979.26,-158.39 988.93,-154.06 978.67,-151.42 979.26,-158.39"/>
</g>
<!-- Node21 -->
<g id="node21" class="node">
<title>Node21</title>
<g id="a_node21"><a xlink:href="namespacewmtk_1_1operations_1_1utils.html#a62fab811bf86bb7a2702f63304574002" target="_top" xlink:title=" ">
<polygon fill="none" stroke="black" points="1007,-66 1007,-107 1152,-107 1152,-66 1007,-66"/>
<text text-anchor="start" x="1015" y="-95" font-family="Helvetica,sans-Serif" font-size="10.00">wmtk::operations::utils</text>
<text text-anchor="start" x="1015" y="-84" font-family="Helvetica,sans-Serif" font-size="10.00">::update_vertex_operation</text>
<text text-anchor="middle" x="1079.5" y="-73" font-family="Helvetica,sans-Serif" font-size="10.00">_hashes</text>
</a>
</g>
</g>
<!-- Node20&#45;&gt;Node21 -->
<g id="edge21" class="edge">
<title>Node20&#45;&gt;Node21</title>
<path fill="none" stroke="midnightblue" d="M1231.24,-90.39C1205.51,-89.73 1177.3,-89 1152.32,-88.35"/>
<polygon fill="midnightblue" stroke="midnightblue" points="1231.26,-93.89 1241.35,-90.65 1231.44,-86.89 1231.26,-93.89"/>
</g>
<!-- Node23 -->
<g id="node23" class="node">
<title>Node23</title>
<g id="a_node23"><a xlink:href="classwmtk_1_1multimesh_1_1_multi_mesh_manager.html#af971c830121bdd645f1bf3fc28aa76dd" target="_top" xlink:title="update all the hashes of the top&#45;simplces of the parent mesh around a vertex hashes of the parent tup...">
<polygon fill="none" stroke="black" points="999.5,-6 999.5,-47 1159.5,-47 1159.5,-6 999.5,-6"/>
<text text-anchor="start" x="1007.5" y="-35" font-family="Helvetica,sans-Serif" font-size="10.00">wmtk::multimesh::MultiMesh</text>
<text text-anchor="start" x="1007.5" y="-24" font-family="Helvetica,sans-Serif" font-size="10.00">Manager::update_vertex</text>
<text text-anchor="middle" x="1079.5" y="-13" font-family="Helvetica,sans-Serif" font-size="10.00">_operation_hashes_internal</text>
</a>
</g>
</g>
<!-- Node22&#45;&gt;Node23 -->
<g id="edge23" class="edge">
<title>Node22&#45;&gt;Node23</title>
<path fill="none" stroke="midnightblue" d="M1223.73,-26.5C1202.65,-26.5 1180.31,-26.5 1159.71,-26.5"/>
<polygon fill="midnightblue" stroke="midnightblue" points="1223.96,-30 1233.96,-26.5 1223.96,-23 1223.96,-30"/>
</g>
<!-- Node24 -->
<g id="node24" class="node">
<title>Node24</title>
<g id="a_node24"><a xlink:href="classwmtk_1_1_mesh.html#a0b6f79f2dffa07d93a342306abd28b7e" target="_top" xlink:title="wrapper function to update hashes (for parent mesh *this and its child meshes) after vertex operation...">
<polygon fill="none" stroke="black" points="780,-11.5 780,-41.5 925,-41.5 925,-11.5 780,-11.5"/>
<text text-anchor="start" x="788" y="-29.5" font-family="Helvetica,sans-Serif" font-size="10.00">wmtk::Mesh::update</text>
<text text-anchor="middle" x="852.5" y="-18.5" font-family="Helvetica,sans-Serif" font-size="10.00">_vertex_operation_hashes</text>
</a>
</g>
</g>
<!-- Node23&#45;&gt;Node24 -->
<g id="edge24" class="edge">
<title>Node23&#45;&gt;Node24</title>
<path fill="none" stroke="midnightblue" d="M989.46,-26.5C968.12,-26.5 945.61,-26.5 925.18,-26.5"/>
<polygon fill="midnightblue" stroke="midnightblue" points="989.49,-30 999.49,-26.5 989.49,-23 989.49,-30"/>
</g>
</g>
</svg>
        <g id="navigator" transform="translate(0 0)" fill="#404254">
                <rect fill="#f2f5e9" fill-opacity="0.5" stroke="#606060" stroke-width=".5" x="0" y="0" width="60" height="60"/>
                <use id="zoomplus" xlink:href="#zoomPlus" x="17" y="9" onmousedown="handleZoom(evt,'in')"/>
                <use id="zoomminus" xlink:href="#zoomMin" x="42" y="9" onmousedown="handleZoom(evt,'out')"/>
                <use id="reset" xlink:href="#resetDef" x="30" y="36" onmousedown="handleReset()"/>
                <g id="arrowUp" xlink:href="#dirArrow" transform="translate(30 24)" onmousedown="handlePan(0,-1)">
                  <use xlink:href="#rim" fill="#404040">
                        <set attributeName="fill" to="#808080" begin="arrowUp.mouseover" end="arrowUp.mouseout"/>
                  </use>
                  <path fill="none" stroke="white" stroke-width="1.5" d="M0,-3.0v7 M-2.5,-0.5L0,-3.0L2.5,-0.5"/>
                </g>
                <g id="arrowRight" xlink:href="#dirArrow" transform="rotate(90) translate(36 -43)" onmousedown="handlePan(1,0)">
                  <use xlink:href="#rim" fill="#404040">
                        <set attributeName="fill" to="#808080" begin="arrowRight.mouseover" end="arrowRight.mouseout"/>
                  </use>
                  <path fill="none" stroke="white" stroke-width="1.5" d="M0,-3.0v7 M-2.5,-0.5L0,-3.0L2.5,-0.5"/>
                </g>
                <g id="arrowDown" xlink:href="#dirArrow" transform="rotate(180) translate(-30 -48)" onmousedown="handlePan(0,1)">
                  <use xlink:href="#rim" fill="#404040">
                        <set attributeName="fill" to="#808080" begin="arrowDown.mouseover" end="arrowDown.mouseout"/>
                  </use>
                  <path fill="none" stroke="white" stroke-width="1.5" d="M0,-3.0v7 M-2.5,-0.5L0,-3.0L2.5,-0.5"/>
                </g>
                <g id="arrowLeft" xlink:href="#dirArrow" transform="rotate(270) translate(-36 17)" onmousedown="handlePan(-1,0)">
                  <use xlink:href="#rim" fill="#404040">
                        <set attributeName="fill" to="#808080" begin="arrowLeft.mouseover" end="arrowLeft.mouseout"/>
                  </use>
                  <path fill="none" stroke="white" stroke-width="1.5" d="M0,-3.0v7 M-2.5,-0.5L0,-3.0L2.5,-0.5"/>
                </g>
        </g>
        <svg viewBox="0 0 15 15" width="100%" height="30px" preserveAspectRatio="xMaxYMin meet">
         <g id="arrow_out" transform="scale(0.3 0.3)">
          <a xlink:href="namespacewmtk_1_1multimesh_1_1utils_a3e738c974c80637ea0e2e9a6f5abc46f_icgraph_org.svg" target="_base">
           <rect id="button" ry="5" rx="5" y="6" x="6" height="38" width="38"
                fill="#f2f5e9" fill-opacity="0.5" stroke="#606060" stroke-width="1.0"/>
           <path id="arrow"
             d="M 11.500037,31.436501 C 11.940474,20.09759 22.043105,11.32322 32.158766,21.979434 L 37.068811,17.246167 C 37.068811,17.246167 37.088388,32 37.088388,32 L 22.160133,31.978069 C 22.160133,31.978069 26.997745,27.140456 26.997745,27.140456 C 18.528582,18.264221 13.291696,25.230495 11.500037,31.436501 z"
             style="fill:#404040;"/>
          </a>
         </g>
        </svg>
</svg>
