<?xml version="1.0" encoding="UTF-8" standalone="no"?>
<!DOCTYPE svg PUBLIC "-//W3C//DTD SVG 1.1//EN"
 "http://www.w3.org/Graphics/SVG/1.1/DTD/svg11.dtd">
<!-- Generated by graphviz version 2.43.0 (0)
 -->
<!-- Title: wmtk::components::internal::set_operation_energy_filter_after_sizing_field Pages: 1 -->
<!--zoomable 731 -->

<svg id="main" version="1.1" xmlns="http://www.w3.org/2000/svg" xmlns:xlink="http://www.w3.org/1999/xlink" xml:space="preserve" onload="init(evt)">
<style type="text/css"><![CDATA[
.node, .edge {opacity: 0.7;}
.node.selected, .edge.selected {opacity: 1;}
.edge:hover path { stroke: red; }
.edge:hover polygon { stroke: red; fill: red; }
]]></style>

<defs>
  <circle id="rim" cx="0" cy="0" r="7"/>
  <circle id="rim2" cx="0" cy="0" r="3.5"/>
  <g id="zoomPlus">
    <use xlink:href="#rim" fill="#404040"><set attributeName="fill" to="#808080" begin="zoomplus.mouseover" end="zoomplus.mouseout"/></use>
    <path d="M-4,0h8M0,-4v8" fill="none" stroke="white" stroke-width="1.5" pointer-events="none"/>
  </g>
  <g id="zoomMin">
    <use xlink:href="#rim" fill="#404040"><set attributeName="fill" to="#808080" begin="zoomminus.mouseover" end="zoomminus.mouseout"/></use>
    <path d="M-4,0h8" fill="none" stroke="white" stroke-width="1.5" pointer-events="none"/>
  </g>
  <g id="arrowUp" transform="translate(30 24)">
    <use xlink:href="#rim"/>
    <path pointer-events="none" fill="none" stroke="white" stroke-width="1.5" d="M0,-3.0v7 M-2.5,-0.5L0,-3.0L2.5,-0.5"/>
  </g>
  <g id="arrowRight" transform="rotate(90) translate(36 -43)">
    <use xlink:href="#rim"/>
    <path pointer-events="none" fill="none" stroke="white" stroke-width="1.5" d="M0,-3.0v7 M-2.5,-0.5L0,-3.0L2.5,-0.5"/>
  </g>
  <g id="arrowDown" transform="rotate(180) translate(-30 -48)">
    <use xlink:href="#rim"/>
    <path pointer-events="none" fill="none" stroke="white" stroke-width="1.5" d="M0,-3.0v7 M-2.5,-0.5L0,-3.0L2.5,-0.5"/>
  </g>
  <g id="arrowLeft" transform="rotate(270) translate(-36 17)">
    <use xlink:href="#rim"/>
    <path pointer-events="none" fill="none" stroke="white" stroke-width="1.5" d="M0,-3.0v7 M-2.5,-0.5L0,-3.0L2.5,-0.5"/>
  </g>
  <g id="resetDef">
    <use xlink:href="#rim2" fill="#404040"><set attributeName="fill" to="#808080" begin="reset.mouseover" end="reset.mouseout"/></use>
  </g>
</defs>
<script type="application/ecmascript">
var viewWidth = 1670;
var viewHeight = 731;
var sectionId = 'dynsection-53';
</script>
<script type="application/ecmascript" xlink:href="svg.min.js"/>
<svg id="graph" class="graph">
<g id="viewport">
<title>wmtk::components::internal::set_operation_energy_filter_after_sizing_field</title>
<!-- Node1 -->
<g id="Node000001" class="node">
<title>Node1</title>
<g id="a_Node000001"><a xlink:title=" ">
<polygon fill="#999999" stroke="#666666" points="156,-474.58 0,-474.58 0,-433.58 156,-433.58 156,-474.58"/>
<text text-anchor="start" x="8" y="-462.58" font-family="Helvetica,sans-Serif" font-size="10.00">wmtk::components::internal</text>
<text text-anchor="start" x="8" y="-451.58" font-family="Helvetica,sans-Serif" font-size="10.00">::set_operation_energy_filter</text>
<text text-anchor="middle" x="78" y="-440.58" font-family="Helvetica,sans-Serif" font-size="10.00">_after_sizing_field</text>
</a>
</g>
</g>
<!-- Node1&#45;&gt;Node1 -->
<g id="edge41_Node000001_Node000001" class="edge">
<title>Node1&#45;&gt;Node1</title>
<g id="a_edge41_Node000001_Node000001"><a xlink:title=" ">
<path fill="none" stroke="#63b8ff" d="M44.92,-474.67C41.31,-484.23 52.34,-492.58 78,-492.58 94.04,-492.58 104.36,-489.32 108.97,-484.54"/>
<polygon fill="#63b8ff" stroke="#63b8ff" points="112.41,-485.19 111.08,-474.67 105.56,-483.72 112.41,-485.19"/>
</a>
</g>
</g>
<!-- Node2 -->
<g id="Node000002" class="node">
<title>Node2</title>
<g id="a_Node000002"><a xlink:href="classwmtk_1_1_mesh.html#ad85569ecd50cc7c0b5161b1d1cd13ebb" target="_top" xlink:title=" ">
<polygon fill="white" stroke="#666666" points="316,-723.08 203,-723.08 203,-693.08 316,-693.08 316,-723.08"/>
<text text-anchor="start" x="211" y="-711.08" font-family="Helvetica,sans-Serif" font-size="10.00">wmtk::Mesh::create</text>
<text text-anchor="middle" x="259.5" y="-700.08" font-family="Helvetica,sans-Serif" font-size="10.00">_accessor</text>
</a>
</g>
</g>
<!-- Node1&#45;&gt;Node2 -->
<g id="edge1_Node000001_Node000002" class="edge">
<title>Node1&#45;&gt;Node2</title>
<g id="a_edge1_Node000001_Node000002"><a xlink:title=" ">
<path fill="none" stroke="#63b8ff" d="M83.58,-474.76C94.51,-519.33 126.21,-625.17 192,-684.08 193.32,-685.26 194.7,-686.38 196.14,-687.46"/>
<polygon fill="#63b8ff" stroke="#63b8ff" points="194.52,-690.58 204.83,-693.01 198.29,-684.68 194.52,-690.58"/>
</a>
</g>
</g>
<!-- Node3 -->
<g id="Node000003" class="node">
<title>Node3</title>
<g id="a_Node000003"><a xlink:href="classwmtk_1_1_mesh.html#a4cd7e6ca59d8d58cc7057c13bd190d57" target="_top" xlink:title=" ">
<polygon fill="white" stroke="#666666" points="316,-675.08 203,-675.08 203,-645.08 316,-645.08 316,-675.08"/>
<text text-anchor="start" x="211" y="-663.08" font-family="Helvetica,sans-Serif" font-size="10.00">wmtk::Mesh::create</text>
<text text-anchor="middle" x="259.5" y="-652.08" font-family="Helvetica,sans-Serif" font-size="10.00">_const_accessor</text>
</a>
</g>
</g>
<!-- Node1&#45;&gt;Node3 -->
<g id="edge2_Node000001_Node000003" class="edge">
<title>Node1&#45;&gt;Node3</title>
<g id="a_edge2_Node000001_Node000003"><a xlink:title=" ">
<path fill="none" stroke="#63b8ff" d="M86.48,-474.67C101.07,-512.06 136.8,-591.37 192,-636.08 193.57,-637.35 195.22,-638.56 196.93,-639.71"/>
<polygon fill="#63b8ff" stroke="#63b8ff" points="195.46,-642.91 205.85,-644.95 199,-636.87 195.46,-642.91"/>
</a>
</g>
</g>
<!-- Node4 -->
<g id="Node000004" class="node">
<title>Node4</title>
<g id="a_Node000004"><a xlink:href="classwmtk_1_1_mesh.html#a6d2a546c8f661bf6386cf845a1693d2f" target="_top" xlink:title="Generate a vector of Tuples from global vertex/edge/triangle/tetrahedron index.">
<polygon fill="white" stroke="#666666" points="317.5,-608.58 201.5,-608.58 201.5,-589.58 317.5,-589.58 317.5,-608.58"/>
<text text-anchor="middle" x="259.5" y="-596.58" font-family="Helvetica,sans-Serif" font-size="10.00">wmtk::Mesh::get_all</text>
</a>
</g>
</g>
<!-- Node1&#45;&gt;Node4 -->
<g id="edge3_Node000001_Node000004" class="edge">
<title>Node1&#45;&gt;Node4</title>
<g id="a_edge3_Node000001_Node000004"><a xlink:title=" ">
<path fill="none" stroke="#63b8ff" d="M93.5,-474.89C113.05,-501.54 150.25,-547.55 192,-575.08 198.34,-579.26 205.5,-582.82 212.71,-585.82"/>
<polygon fill="#63b8ff" stroke="#63b8ff" points="211.92,-589.26 222.51,-589.56 214.42,-582.72 211.92,-589.26"/>
</a>
</g>
</g>
<!-- Node5 -->
<g id="Node000005" class="node">
<title>Node5</title>
<g id="a_Node000005"><a xlink:href="namespacewmtk_1_1simplex.html#a3260444c136dbe145679b762c52f6a16" target="_top" xlink:title=" ">
<polygon fill="white" stroke="#666666" points="316,-463.58 203,-463.58 203,-444.58 316,-444.58 316,-463.58"/>
<text text-anchor="middle" x="259.5" y="-451.58" font-family="Helvetica,sans-Serif" font-size="10.00">wmtk::simplex::link</text>
</a>
</g>
</g>
<!-- Node1&#45;&gt;Node5 -->
<g id="edge5_Node000001_Node000005" class="edge">
<title>Node1&#45;&gt;Node5</title>
<g id="a_edge5_Node000001_Node000005"><a xlink:title=" ">
<path fill="none" stroke="#63b8ff" d="M156.17,-454.08C168.29,-454.08 180.73,-454.08 192.57,-454.08"/>
<polygon fill="#63b8ff" stroke="#63b8ff" points="192.8,-457.58 202.8,-454.08 192.8,-450.58 192.8,-457.58"/>
</a>
</g>
</g>
<!-- Node18 -->
<g id="Node000018" class="node">
<title>Node18</title>
<g id="a_Node000018"><a xlink:href="classwmtk_1_1simplex_1_1_simplex_collection.html#a3c5684abe23553010bb7f87840e9518d" target="_top" xlink:title="Return const reference to the simplex vector.">
<polygon fill="white" stroke="#666666" points="944,-667.08 760,-667.08 760,-637.08 944,-637.08 944,-667.08"/>
<text text-anchor="start" x="768" y="-655.08" font-family="Helvetica,sans-Serif" font-size="10.00">wmtk::simplex::SimplexCollection</text>
<text text-anchor="middle" x="852" y="-644.08" font-family="Helvetica,sans-Serif" font-size="10.00">::simplex_vector</text>
</a>
</g>
</g>
<!-- Node1&#45;&gt;Node18 -->
<g id="edge42_Node000001_Node000018" class="edge">
<title>Node1&#45;&gt;Node18</title>
<g id="a_edge42_Node000001_Node000018"><a xlink:title=" ">
<path fill="none" stroke="#63b8ff" d="M118.32,-474.7C196.24,-514.41 376.87,-600.67 540,-636.08 608.94,-651.04 688.4,-654.91 749.75,-655.1"/>
<polygon fill="#63b8ff" stroke="#63b8ff" points="749.82,-658.6 759.82,-655.1 749.82,-651.6 749.82,-658.6"/>
</a>
</g>
</g>
<!-- Node24 -->
<g id="Node000024" class="node">
<title>Node24</title>
<g id="a_Node000024"><a xlink:href="classwmtk_1_1_mesh.html#abaf00438d0700358b160e310d69725c9" target="_top" xlink:title=" ">
<polygon fill="white" stroke="#666666" points="937,-238.58 767,-238.58 767,-219.58 937,-219.58 937,-238.58"/>
<text text-anchor="middle" x="852" y="-226.58" font-family="Helvetica,sans-Serif" font-size="10.00">wmtk::Mesh::top_simplex_type</text>
</a>
</g>
</g>
<!-- Node1&#45;&gt;Node24 -->
<g id="edge43_Node000001_Node000024" class="edge">
<title>Node1&#45;&gt;Node24</title>
<g id="a_edge43_Node000001_Node000024"><a xlink:title=" ">
<path fill="none" stroke="#63b8ff" d="M135.17,-433.56C250.7,-392.06 523.9,-297.5 760,-243.08 763.83,-242.19 767.77,-241.35 771.76,-240.55"/>
<polygon fill="#63b8ff" stroke="#63b8ff" points="772.57,-243.96 781.73,-238.64 771.25,-237.08 772.57,-243.96"/>
</a>
</g>
</g>
<!-- Node28 -->
<g id="Node000028" class="node">
<title>Node28</title>
<g id="a_Node000028"><a xlink:href="classwmtk_1_1_mesh.html#ab832ace56e7e07d16291ad568f3d73d9" target="_top" xlink:title=" ">
<polygon fill="white" stroke="#666666" points="315,-302.08 204,-302.08 204,-272.08 315,-272.08 315,-302.08"/>
<text text-anchor="start" x="212" y="-290.08" font-family="Helvetica,sans-Serif" font-size="10.00">wmtk::Mesh::orient</text>
<text text-anchor="middle" x="259.5" y="-279.08" font-family="Helvetica,sans-Serif" font-size="10.00">_vertices</text>
</a>
</g>
</g>
<!-- Node1&#45;&gt;Node28 -->
<g id="edge40_Node000001_Node000028" class="edge">
<title>Node1&#45;&gt;Node28</title>
<g id="a_edge40_Node000001_Node000028"><a xlink:title=" ">
<path fill="none" stroke="#63b8ff" d="M91.52,-433.21C110.17,-403.67 147.81,-349.53 192,-316.08 196.46,-312.7 201.37,-309.63 206.44,-306.85"/>
<polygon fill="#63b8ff" stroke="#63b8ff" points="208.34,-309.81 215.68,-302.17 205.18,-303.57 208.34,-309.81"/>
</a>
</g>
</g>
<!-- Node29 -->
<g id="Node000029" class="node">
<title>Node29</title>
<g id="a_Node000029"><a xlink:href="classwmtk_1_1simplex_1_1_simplex.html#a7de67a391b9f48b57f4ecb4c412ccaee" target="_top" xlink:title=" ">
<polygon fill="white" stroke="#666666" points="327,-153.08 192,-153.08 192,-123.08 327,-123.08 327,-153.08"/>
<text text-anchor="start" x="200" y="-141.08" font-family="Helvetica,sans-Serif" font-size="10.00">wmtk::simplex::Simplex</text>
<text text-anchor="middle" x="259.5" y="-130.08" font-family="Helvetica,sans-Serif" font-size="10.00">::vertex</text>
</a>
</g>
</g>
<!-- Node1&#45;&gt;Node29 -->
<g id="edge44_Node000001_Node000029" class="edge">
<title>Node1&#45;&gt;Node29</title>
<g id="a_edge44_Node000001_Node000029"><a xlink:title=" ">
<path fill="none" stroke="#63b8ff" d="M90.78,-433.34C122.76,-377.04 211.1,-221.53 245.01,-161.83"/>
<polygon fill="#63b8ff" stroke="#63b8ff" points="248.07,-163.53 249.96,-153.11 241.98,-160.07 248.07,-163.53"/>
</a>
</g>
</g>
<!-- Node31 -->
<g id="Node000031" class="node">
<title>Node31</title>
<g id="a_Node000031"><a xlink:href="namespacewmtk_1_1simplex.html#a04b1e47aa146538c1a677fc9c5538241" target="_top" xlink:title=" ">
<polygon fill="white" stroke="#666666" points="500.5,-122.58 366.5,-122.58 366.5,-103.58 500.5,-103.58 500.5,-122.58"/>
<text text-anchor="middle" x="433.5" y="-110.58" font-family="Helvetica,sans-Serif" font-size="10.00">wmtk::simplex::vertices</text>
</a>
</g>
</g>
<!-- Node1&#45;&gt;Node31 -->
<g id="edge46_Node000001_Node000031" class="edge">
<title>Node1&#45;&gt;Node31</title>
<g id="a_edge46_Node000001_Node000031"><a xlink:title=" ">
<path fill="none" stroke="#63b8ff" d="M97.44,-433.24C118.33,-410.79 154.41,-375.42 192,-354.08 246.76,-322.99 278.63,-351.39 327,-311.08 385.53,-262.3 416.21,-172.46 427.43,-132.79"/>
<polygon fill="#63b8ff" stroke="#63b8ff" points="430.84,-133.58 430.08,-123.01 424.09,-131.74 430.84,-133.58"/>
</a>
</g>
</g>
<!-- Node4&#45;&gt;Node4 -->
<g id="edge4_Node000004_Node000004" class="edge">
<title>Node4&#45;&gt;Node4</title>
<g id="a_edge4_Node000004_Node000004"><a xlink:title=" ">
<path fill="none" stroke="#63b8ff" d="M232.68,-608.66C219.63,-617.31 228.57,-626.58 259.5,-626.58 280.28,-626.58 291.13,-622.39 292.06,-617.03"/>
<polygon fill="#63b8ff" stroke="#63b8ff" points="294.86,-614.93 286.32,-608.66 289.09,-618.89 294.86,-614.93"/>
</a>
</g>
</g>
<!-- Node5&#45;&gt;Node5 -->
<g id="edge6_Node000005_Node000005" class="edge">
<title>Node5&#45;&gt;Node5</title>
<g id="a_edge6_Node000005_Node000005"><a xlink:title=" ">
<path fill="none" stroke="#63b8ff" d="M232.68,-463.66C219.63,-472.31 228.57,-481.58 259.5,-481.58 280.28,-481.58 291.13,-477.39 292.06,-472.03"/>
<polygon fill="#63b8ff" stroke="#63b8ff" points="294.86,-469.93 286.32,-463.66 289.09,-473.89 294.86,-469.93"/>
</a>
</g>
</g>
<!-- Node6 -->
<g id="Node000006" class="node">
<title>Node6</title>
<g id="a_Node000006"><a xlink:href="namespacewmtk_1_1simplex.html#a50d0026adbac4883ab00460ada1c1cfe" target="_top" xlink:title=" ">
<polygon fill="white" stroke="#666666" points="504,-540.58 363,-540.58 363,-521.58 504,-521.58 504,-540.58"/>
<text text-anchor="middle" x="433.5" y="-528.58" font-family="Helvetica,sans-Serif" font-size="10.00">wmtk::simplex::link_slow</text>
</a>
</g>
</g>
<!-- Node5&#45;&gt;Node6 -->
<g id="edge7_Node000005_Node000006" class="edge">
<title>Node5&#45;&gt;Node6</title>
<g id="a_edge7_Node000005_Node000006"><a xlink:title=" ">
<path fill="none" stroke="#63b8ff" d="M281.94,-463.67C312.15,-477.2 367.4,-501.94 401.92,-517.39"/>
<polygon fill="#63b8ff" stroke="#63b8ff" points="400.51,-520.59 411.06,-521.48 403.37,-514.2 400.51,-520.59"/>
</a>
</g>
</g>
<!-- Node5&#45;&gt;Node24 -->
<g id="edge39_Node000005_Node000024" class="edge">
<title>Node5&#45;&gt;Node24</title>
<g id="a_edge39_Node000005_Node000024"><a xlink:title=" ">
<path fill="none" stroke="#63b8ff" d="M316.05,-448.87C432.53,-437.48 694.08,-409.17 724,-382.08 769,-341.34 718.13,-291.06 759.67,-244.94"/>
<polygon fill="#63b8ff" stroke="#63b8ff" points="762.17,-247.4 766.82,-237.88 757.25,-242.42 762.17,-247.4"/>
</a>
</g>
</g>
<!-- Node7 -->
<g id="Node000007" class="node">
<title>Node7</title>
<g id="a_Node000007"><a xlink:href="classwmtk_1_1simplex_1_1_simplex_collection.html#a1e7079b3b75f70dd28c524556cab76cf" target="_top" xlink:title="Add simplex to the collection.">
<polygon fill="white" stroke="#666666" points="1408,-534.58 1200,-534.58 1200,-515.58 1408,-515.58 1408,-534.58"/>
<text text-anchor="middle" x="1304" y="-522.58" font-family="Helvetica,sans-Serif" font-size="10.00">wmtk::simplex::SimplexCollection::add</text>
</a>
</g>
</g>
<!-- Node6&#45;&gt;Node7 -->
<g id="edge8_Node000006_Node000007" class="edge">
<title>Node6&#45;&gt;Node7</title>
<g id="a_edge8_Node000006_Node000007"><a xlink:title=" ">
<path fill="none" stroke="#63b8ff" d="M441.08,-540.83C455.95,-562.03 494.42,-612.27 540,-636.08 699.92,-719.63 767.13,-711.76 944,-676.08 1076.52,-649.34 1221.02,-572.27 1277.95,-539.79"/>
<polygon fill="#63b8ff" stroke="#63b8ff" points="1280.01,-542.64 1286.94,-534.62 1276.52,-536.57 1280.01,-542.64"/>
</a>
</g>
</g>
<!-- Node8 -->
<g id="Node000008" class="node">
<title>Node8</title>
<g id="a_Node000008"><a xlink:href="namespacewmtk_1_1simplex.html#a2ed8f83fbda4dc05306bfe8d2ce7ab94" target="_top" xlink:title="The closed star contains the input simplex, all its top dimension cofaces, and their faces.">
<polygon fill="white" stroke="#666666" points="707.5,-453.58 556.5,-453.58 556.5,-434.58 707.5,-434.58 707.5,-453.58"/>
<text text-anchor="middle" x="632" y="-441.58" font-family="Helvetica,sans-Serif" font-size="10.00">wmtk::simplex::closed_star</text>
</a>
</g>
</g>
<!-- Node6&#45;&gt;Node8 -->
<g id="edge9_Node000006_Node000008" class="edge">
<title>Node6&#45;&gt;Node8</title>
<g id="a_edge9_Node000006_Node000008"><a xlink:title=" ">
<path fill="none" stroke="#63b8ff" d="M452.56,-521.55C473.38,-510.71 508.76,-492.75 540,-479.08 557.76,-471.31 577.84,-463.48 594.61,-457.21"/>
<polygon fill="#63b8ff" stroke="#63b8ff" points="595.9,-460.46 604.06,-453.71 593.47,-453.9 595.9,-460.46"/>
</a>
</g>
</g>
<!-- Node9 -->
<g id="Node000009" class="node">
<title>Node9</title>
<g id="a_Node000009"><a xlink:href="namespacewmtk_1_1simplex.html#aee89641a0de7b5ddf8d15bf376f9d33b" target="_top" xlink:title="Returns all faces of a simplex.">
<polygon fill="white" stroke="#666666" points="913,-562.58 791,-562.58 791,-543.58 913,-543.58 913,-562.58"/>
<text text-anchor="middle" x="852" y="-550.58" font-family="Helvetica,sans-Serif" font-size="10.00">wmtk::simplex::faces</text>
</a>
</g>
</g>
<!-- Node6&#45;&gt;Node9 -->
<g id="edge35_Node000006_Node000009" class="edge">
<title>Node6&#45;&gt;Node9</title>
<g id="a_edge35_Node000006_Node000009"><a xlink:title=" ">
<path fill="none" stroke="#63b8ff" d="M495.73,-521.56C510.21,-519.7 525.62,-518.03 540,-517.08 621.6,-511.69 643.28,-503.98 724,-517.08 740.65,-519.78 743.84,-524.26 760,-529.08 773.86,-533.21 789.01,-537.35 802.91,-541.01"/>
<polygon fill="#63b8ff" stroke="#63b8ff" points="802.21,-544.44 812.77,-543.57 803.98,-537.67 802.21,-544.44"/>
</a>
</g>
</g>
<!-- Node6&#45;&gt;Node18 -->
<g id="edge37_Node000006_Node000018" class="edge">
<title>Node6&#45;&gt;Node18</title>
<g id="a_edge37_Node000006_Node000018"><a xlink:title=" ">
<path fill="none" stroke="#63b8ff" d="M504.05,-540.13C577.13,-550.45 686.57,-568.46 724,-588.08 743.76,-598.44 740.86,-611.61 760,-623.08 766.36,-626.89 773.27,-630.25 780.34,-633.21"/>
<polygon fill="#63b8ff" stroke="#63b8ff" points="779.47,-636.62 790.06,-636.99 782.01,-630.1 779.47,-636.62"/>
</a>
</g>
</g>
<!-- Node19 -->
<g id="Node000019" class="node">
<title>Node19</title>
<g id="a_Node000019"><a xlink:href="classwmtk_1_1simplex_1_1_simplex_collection.html#ab318c99d54327383ff1b985bed043f3a" target="_top" xlink:title="Sort simplex vector and remove duplicates.">
<polygon fill="white" stroke="#666666" points="1164,-497.08 980,-497.08 980,-467.08 1164,-467.08 1164,-497.08"/>
<text text-anchor="start" x="988" y="-485.08" font-family="Helvetica,sans-Serif" font-size="10.00">wmtk::simplex::SimplexCollection</text>
<text text-anchor="middle" x="1072" y="-474.08" font-family="Helvetica,sans-Serif" font-size="10.00">::sort_and_clean</text>
</a>
</g>
</g>
<!-- Node6&#45;&gt;Node19 -->
<g id="edge38_Node000006_Node000019" class="edge">
<title>Node6&#45;&gt;Node19</title>
<g id="a_edge38_Node000006_Node000019"><a xlink:title=" ">
<path fill="none" stroke="#63b8ff" d="M504.22,-527.97C577.45,-525.84 687.03,-526.2 724,-545.08 746.81,-556.73 736.92,-578.98 760,-590.08 833.71,-625.5 867.25,-618.3 944,-590.08 989.84,-573.22 1030.43,-531.67 1052.77,-505.29"/>
<polygon fill="#63b8ff" stroke="#63b8ff" points="1055.69,-507.25 1059.37,-497.32 1050.3,-502.79 1055.69,-507.25"/>
</a>
</g>
</g>
<!-- Node27 -->
<g id="Node000027" class="node">
<title>Node27</title>
<g id="a_Node000027"><a xlink:href="classwmtk_1_1simplex_1_1_simplex_collection.html#a592a38f5119ed654001d88d032bcea9c" target="_top" xlink:title="Get intersection of two simplex collections.">
<polygon fill="white" stroke="#666666" points="724,-627.08 540,-627.08 540,-597.08 724,-597.08 724,-627.08"/>
<text text-anchor="start" x="548" y="-615.08" font-family="Helvetica,sans-Serif" font-size="10.00">wmtk::simplex::SimplexCollection</text>
<text text-anchor="middle" x="632" y="-604.08" font-family="Helvetica,sans-Serif" font-size="10.00">::get_intersection</text>
</a>
</g>
</g>
<!-- Node6&#45;&gt;Node27 -->
<g id="edge36_Node000006_Node000027" class="edge">
<title>Node6&#45;&gt;Node27</title>
<g id="a_edge36_Node000006_Node000027"><a xlink:title=" ">
<path fill="none" stroke="#63b8ff" d="M452.05,-540.74C472.69,-551.86 508.18,-570.25 540,-583.08 549.34,-586.84 559.38,-590.46 569.25,-593.78"/>
<polygon fill="#63b8ff" stroke="#63b8ff" points="568.44,-597.19 579.03,-596.99 570.62,-590.54 568.44,-597.19"/>
</a>
</g>
</g>
<!-- Node8&#45;&gt;Node7 -->
<g id="edge10_Node000008_Node000007" class="edge">
<title>Node8&#45;&gt;Node7</title>
<g id="a_edge10_Node000008_Node000007"><a xlink:title=" ">
<path fill="none" stroke="#63b8ff" d="M662.73,-453.6C688.28,-461.47 726.24,-472.39 760,-479.08 906.69,-508.13 1079.25,-518.84 1189.8,-522.79"/>
<polygon fill="#63b8ff" stroke="#63b8ff" points="1189.86,-526.29 1199.97,-523.14 1190.1,-519.3 1189.86,-526.29"/>
</a>
</g>
</g>
<!-- Node8&#45;&gt;Node9 -->
<g id="edge11_Node000008_Node000009" class="edge">
<title>Node8&#45;&gt;Node9</title>
<g id="a_edge11_Node000008_Node000009"><a xlink:title=" ">
<path fill="none" stroke="#63b8ff" d="M672.28,-453.71C689.35,-459.21 708.85,-467.4 724,-479.08 745.68,-495.8 737.44,-513.56 760,-529.08 766.44,-533.5 773.64,-537.11 781.11,-540.06"/>
<polygon fill="#63b8ff" stroke="#63b8ff" points="780.07,-543.4 790.66,-543.44 782.41,-536.8 780.07,-543.4"/>
</a>
</g>
</g>
<!-- Node10 -->
<g id="Node000010" class="node">
<title>Node10</title>
<g id="a_Node000010"><a xlink:href="classwmtk_1_1_mesh.html#a8cc8686f0688613806f43720b6db49e7" target="_top" xlink:title="check validity of tuple including its hash">
<polygon fill="white" stroke="#666666" points="912,-314.58 792,-314.58 792,-295.58 912,-295.58 912,-314.58"/>
<text text-anchor="middle" x="852" y="-302.58" font-family="Helvetica,sans-Serif" font-size="10.00">wmtk::Mesh::is_valid</text>
</a>
</g>
</g>
<!-- Node8&#45;&gt;Node10 -->
<g id="edge13_Node000008_Node000010" class="edge">
<title>Node8&#45;&gt;Node10</title>
<g id="a_edge13_Node000008_Node000010"><a xlink:title=" ">
<path fill="none" stroke="#63b8ff" d="M699.38,-434.51C708.37,-431.04 716.91,-426.37 724,-420.08 756.53,-391.2 727.47,-357.95 760,-329.08 766.41,-323.39 774.02,-319.02 782.06,-315.67"/>
<polygon fill="#63b8ff" stroke="#63b8ff" points="783.44,-318.9 791.65,-312.2 781.06,-312.31 783.44,-318.9"/>
</a>
</g>
</g>
<!-- Node16 -->
<g id="Node000016" class="node">
<title>Node16</title>
<g id="a_Node000016"><a xlink:href="namespacewmtk.html#a441d6ad4f19569c7d4946e743da1a925" target="_top" xlink:title=" ">
<polygon fill="white" stroke="#666666" points="1365,-358.08 1243,-358.08 1243,-328.08 1365,-328.08 1365,-358.08"/>
<text text-anchor="start" x="1251" y="-346.08" font-family="Helvetica,sans-Serif" font-size="10.00">wmtk::log_and_throw</text>
<text text-anchor="middle" x="1304" y="-335.08" font-family="Helvetica,sans-Serif" font-size="10.00">_error</text>
</a>
</g>
</g>
<!-- Node8&#45;&gt;Node16 -->
<g id="edge20_Node000008_Node000016" class="edge">
<title>Node8&#45;&gt;Node16</title>
<g id="a_edge20_Node000008_Node000016"><a xlink:title=" ">
<path fill="none" stroke="#63b8ff" d="M695.12,-434.48C705.39,-431.05 715.46,-426.39 724,-420.08 748.4,-402.04 733.75,-377.29 760,-362.08 838.27,-316.73 1104.08,-328.67 1232.46,-337.51"/>
<polygon fill="#63b8ff" stroke="#63b8ff" points="1232.36,-341.01 1242.58,-338.22 1232.85,-334.03 1232.36,-341.01"/>
</a>
</g>
</g>
<!-- Node17 -->
<g id="Node000017" class="node">
<title>Node17</title>
<g id="a_Node000017"><a xlink:href="classwmtk_1_1simplex_1_1_simplex_collection.html#a1973c83eede96b64f422049c6fc52976" target="_top" xlink:title=" ">
<polygon fill="white" stroke="#666666" points="944,-449.08 760,-449.08 760,-419.08 944,-419.08 944,-449.08"/>
<text text-anchor="start" x="768" y="-437.08" font-family="Helvetica,sans-Serif" font-size="10.00">wmtk::simplex::SimplexCollection</text>
<text text-anchor="middle" x="852" y="-426.08" font-family="Helvetica,sans-Serif" font-size="10.00">::reserve</text>
</a>
</g>
</g>
<!-- Node8&#45;&gt;Node17 -->
<g id="edge22_Node000008_Node000017" class="edge">
<title>Node8&#45;&gt;Node17</title>
<g id="a_edge22_Node000008_Node000017"><a xlink:title=" ">
<path fill="none" stroke="#63b8ff" d="M707.72,-440.65C721.21,-440.03 735.48,-439.38 749.57,-438.73"/>
<polygon fill="#63b8ff" stroke="#63b8ff" points="749.97,-442.22 759.8,-438.26 749.65,-435.22 749.97,-442.22"/>
</a>
</g>
</g>
<!-- Node8&#45;&gt;Node18 -->
<g id="edge23_Node000008_Node000018" class="edge">
<title>Node8&#45;&gt;Node18</title>
<g id="a_edge23_Node000008_Node000018"><a xlink:title=" ">
<path fill="none" stroke="#63b8ff" d="M639.98,-453.71C658.05,-478.23 708.52,-544.33 760,-590.08 777.28,-605.43 798.54,-620.12 816.16,-631.33"/>
<polygon fill="#63b8ff" stroke="#63b8ff" points="814.67,-634.53 825.01,-636.87 818.39,-628.6 814.67,-634.53"/>
</a>
</g>
</g>
<!-- Node8&#45;&gt;Node19 -->
<g id="edge24_Node000008_Node000019" class="edge">
<title>Node8&#45;&gt;Node19</title>
<g id="a_edge24_Node000008_Node000019"><a xlink:title=" ">
<path fill="none" stroke="#63b8ff" d="M707.5,-452.7C724.73,-454.58 742.99,-456.48 760,-458.08 829.97,-464.63 908.92,-470.71 969.77,-475.11"/>
<polygon fill="#63b8ff" stroke="#63b8ff" points="969.53,-478.6 979.76,-475.83 970.03,-471.62 969.53,-478.6"/>
</a>
</g>
</g>
<!-- Node20 -->
<g id="Node000020" class="node">
<title>Node20</title>
<g id="a_Node000020"><a xlink:href="namespacewmtk_1_1simplex.html#a87de7137d8d21f1643dd604d73e8f765" target="_top" xlink:title="Get all top dimension cofaces of the given simplex.">
<polygon fill="white" stroke="#666666" points="910,-401.08 794,-401.08 794,-371.08 910,-371.08 910,-401.08"/>
<text text-anchor="start" x="802" y="-389.08" font-family="Helvetica,sans-Serif" font-size="10.00">wmtk::simplex::top</text>
<text text-anchor="middle" x="852" y="-378.08" font-family="Helvetica,sans-Serif" font-size="10.00">_dimension_cofaces</text>
</a>
</g>
</g>
<!-- Node8&#45;&gt;Node20 -->
<g id="edge25_Node000008_Node000020" class="edge">
<title>Node8&#45;&gt;Node20</title>
<g id="a_edge25_Node000008_Node000020"><a xlink:title=" ">
<path fill="none" stroke="#63b8ff" d="M669.78,-434.49C686.36,-430.14 706.18,-424.9 724,-420.08 740.03,-415.74 743.97,-414.42 760,-410.08 767.74,-407.98 775.85,-405.81 783.91,-403.67"/>
<polygon fill="#63b8ff" stroke="#63b8ff" points="784.92,-407.02 793.69,-401.07 783.13,-400.25 784.92,-407.02"/>
</a>
</g>
</g>
<!-- Node8&#45;&gt;Node24 -->
<g id="edge32_Node000008_Node000024" class="edge">
<title>Node8&#45;&gt;Node24</title>
<g id="a_edge32_Node000008_Node000024"><a xlink:title=" ">
<path fill="none" stroke="#63b8ff" d="M702.63,-434.55C710.61,-431.04 718.02,-426.34 724,-420.08 776.45,-365.18 707.55,-307.98 760,-253.08 763.65,-249.26 767.82,-246.03 772.33,-243.29"/>
<polygon fill="#63b8ff" stroke="#63b8ff" points="774.1,-246.31 781.37,-238.61 770.88,-240.1 774.1,-246.31"/>
</a>
</g>
</g>
<!-- Node26 -->
<g id="Node000026" class="node">
<title>Node26</title>
<g id="a_Node000026"><a xlink:href="classwmtk_1_1simplex_1_1_simplex.html#aca78b1fb0a3c28c0036cf7919bfb0789" target="_top" xlink:title=" ">
<polygon fill="white" stroke="#666666" points="1139.5,-135.08 1004.5,-135.08 1004.5,-105.08 1139.5,-105.08 1139.5,-135.08"/>
<text text-anchor="start" x="1012.5" y="-123.08" font-family="Helvetica,sans-Serif" font-size="10.00">wmtk::simplex::Simplex</text>
<text text-anchor="middle" x="1072" y="-112.08" font-family="Helvetica,sans-Serif" font-size="10.00">::tuple</text>
</a>
</g>
</g>
<!-- Node8&#45;&gt;Node26 -->
<g id="edge34_Node000008_Node000026" class="edge">
<title>Node8&#45;&gt;Node26</title>
<g id="a_edge34_Node000008_Node000026"><a xlink:title=" ">
<path fill="none" stroke="#63b8ff" d="M701.88,-434.46C710.08,-430.97 717.75,-426.3 724,-420.08 767.71,-376.57 715.24,-328.5 760,-286.08 820.67,-228.57 881.25,-302.31 944,-247.08 980.4,-215.04 944.39,-177 980,-144.08 984.46,-139.96 989.54,-136.53 994.97,-133.67"/>
<polygon fill="#63b8ff" stroke="#63b8ff" points="996.73,-136.72 1004.38,-129.4 993.83,-130.34 996.73,-136.72"/>
</a>
</g>
</g>
<!-- Node9&#45;&gt;Node9 -->
<g id="edge12_Node000009_Node000009" class="edge">
<title>Node9&#45;&gt;Node9</title>
<g id="a_edge12_Node000009_Node000009"><a xlink:title=" ">
<path fill="none" stroke="#63b8ff" d="M818.09,-562.66C801.6,-571.31 812.9,-580.58 852,-580.58 880.1,-580.58 893.85,-575.79 893.23,-569.89"/>
<polygon fill="#63b8ff" stroke="#63b8ff" points="895.48,-567.19 885.91,-562.66 890.57,-572.18 895.48,-567.19"/>
</a>
</g>
</g>
<!-- Node11 -->
<g id="Node000011" class="node">
<title>Node11</title>
<g id="a_Node000011"><a xlink:href="classwmtk_1_1_tuple.html#a0023f575be92cd5ceeeaaaa3762ea06d" target="_top" xlink:title="Checks if a tuple is &quot;null&quot;. This merely implies the global index is &#45;1.">
<polygon fill="white" stroke="#666666" points="1128.5,-314.58 1015.5,-314.58 1015.5,-295.58 1128.5,-295.58 1128.5,-314.58"/>
<text text-anchor="middle" x="1072" y="-302.58" font-family="Helvetica,sans-Serif" font-size="10.00">wmtk::Tuple::is_null</text>
</a>
</g>
</g>
<!-- Node10&#45;&gt;Node11 -->
<g id="edge14_Node000010_Node000011" class="edge">
<title>Node10&#45;&gt;Node11</title>
<g id="a_edge14_Node000010_Node000011"><a xlink:title=" ">
<path fill="none" stroke="#63b8ff" d="M912.28,-305.08C941.04,-305.08 975.68,-305.08 1005.25,-305.08"/>
<polygon fill="#63b8ff" stroke="#63b8ff" points="1005.48,-308.58 1015.48,-305.08 1005.48,-301.58 1005.48,-308.58"/>
</a>
</g>
</g>
<!-- Node12 -->
<g id="Node000012" class="node">
<title>Node12</title>
<g id="a_Node000012"><a xlink:href="classwmtk_1_1_mesh.html#ade176d345902d97af8c5da04aa3a095b" target="_top" xlink:title=" ">
<polygon fill="white" stroke="#666666" points="1142,-220.58 1002,-220.58 1002,-201.58 1142,-201.58 1142,-220.58"/>
<text text-anchor="middle" x="1072" y="-208.58" font-family="Helvetica,sans-Serif" font-size="10.00">wmtk::Mesh::is_removed</text>
</a>
</g>
</g>
<!-- Node10&#45;&gt;Node12 -->
<g id="edge15_Node000010_Node000012" class="edge">
<title>Node10&#45;&gt;Node12</title>
<g id="a_edge15_Node000010_Node000012"><a xlink:title=" ">
<path fill="none" stroke="#63b8ff" d="M903.9,-295.5C917.34,-291.95 931.55,-287.24 944,-281.08 962.17,-272.09 962.68,-263.62 980,-253.08 998.06,-242.09 1019.47,-232.07 1036.99,-224.57"/>
<polygon fill="#63b8ff" stroke="#63b8ff" points="1038.41,-227.78 1046.28,-220.68 1035.7,-221.32 1038.41,-227.78"/>
</a>
</g>
</g>
<!-- Node14 -->
<g id="Node000014" class="node">
<title>Node14</title>
<g id="a_Node000014"><a xlink:href="namespacewmtk.html#a6a35f11c12436093d26fdd8be6fecc06" target="_top" xlink:title="Retrieves the current logger.">
<polygon fill="white" stroke="#666666" points="1525,-314.58 1444,-314.58 1444,-295.58 1525,-295.58 1525,-314.58"/>
<text text-anchor="middle" x="1484.5" y="-302.58" font-family="Helvetica,sans-Serif" font-size="10.00">wmtk::logger</text>
</a>
</g>
</g>
<!-- Node10&#45;&gt;Node14 -->
<g id="edge18_Node000010_Node000014" class="edge">
<title>Node10&#45;&gt;Node14</title>
<g id="a_edge18_Node000010_Node000014"><a xlink:title=" ">
<path fill="none" stroke="#63b8ff" d="M904.71,-295.56C927.68,-291.8 955.1,-287.93 980,-286.08 1146.1,-273.72 1343.67,-290.26 1433.99,-299.54"/>
<polygon fill="#63b8ff" stroke="#63b8ff" points="1433.64,-303.02 1443.95,-300.58 1434.37,-296.06 1433.64,-303.02"/>
</a>
</g>
</g>
<!-- Node12&#45;&gt;Node12 -->
<g id="edge17_Node000012_Node000012" class="edge">
<title>Node12&#45;&gt;Node12</title>
<g id="a_edge17_Node000012_Node000012"><a xlink:title=" ">
<path fill="none" stroke="#63b8ff" d="M1038.09,-220.66C1021.6,-229.31 1032.9,-238.58 1072,-238.58 1100.1,-238.58 1113.85,-233.79 1113.23,-227.89"/>
<polygon fill="#63b8ff" stroke="#63b8ff" points="1115.48,-225.19 1105.91,-220.66 1110.57,-230.18 1115.48,-225.19"/>
</a>
</g>
</g>
<!-- Node13 -->
<g id="Node000013" class="node">
<title>Node13</title>
<g id="a_Node000013"><a xlink:href="classwmtk_1_1_tuple.html#aef64a43ff5f5617dbc99d865356bbc25" target="_top" xlink:title=" ">
<polygon fill="white" stroke="#666666" points="1369.5,-220.58 1238.5,-220.58 1238.5,-201.58 1369.5,-201.58 1369.5,-220.58"/>
<text text-anchor="middle" x="1304" y="-208.58" font-family="Helvetica,sans-Serif" font-size="10.00">wmtk::Tuple::global_cid</text>
</a>
</g>
</g>
<!-- Node12&#45;&gt;Node13 -->
<g id="edge16_Node000012_Node000013" class="edge">
<title>Node12&#45;&gt;Node13</title>
<g id="a_edge16_Node000012_Node000013"><a xlink:title=" ">
<path fill="none" stroke="#63b8ff" d="M1142.01,-211.08C1169.23,-211.08 1200.57,-211.08 1228.32,-211.08"/>
<polygon fill="#63b8ff" stroke="#63b8ff" points="1228.37,-214.58 1238.37,-211.08 1228.37,-207.58 1228.37,-214.58"/>
</a>
</g>
</g>
<!-- Node15 -->
<g id="Node000015" class="node">
<title>Node15</title>
<g id="a_Node000015"><a xlink:href="namespacewmtk.html#a3daa7951a5f8b78cf4600dc047fcc180" target="_top" xlink:title="Setup a logger object to be used by WildmeshToolkit.">
<polygon fill="white" stroke="#666666" points="1662,-314.58 1561,-314.58 1561,-295.58 1662,-295.58 1662,-314.58"/>
<text text-anchor="middle" x="1611.5" y="-302.58" font-family="Helvetica,sans-Serif" font-size="10.00">wmtk::set_logger</text>
</a>
</g>
</g>
<!-- Node14&#45;&gt;Node15 -->
<g id="edge19_Node000014_Node000015" class="edge">
<title>Node14&#45;&gt;Node15</title>
<g id="a_edge19_Node000014_Node000015"><a xlink:title=" ">
<path fill="none" stroke="#63b8ff" d="M1525.05,-305.08C1533.17,-305.08 1541.9,-305.08 1550.55,-305.08"/>
<polygon fill="#63b8ff" stroke="#63b8ff" points="1550.65,-308.58 1560.65,-305.08 1550.65,-301.58 1550.65,-308.58"/>
</a>
</g>
</g>
<!-- Node16&#45;&gt;Node14 -->
<g id="edge21_Node000016_Node000014" class="edge">
<title>Node16&#45;&gt;Node14</title>
<g id="a_edge21_Node000016_Node000014"><a xlink:title=" ">
<path fill="none" stroke="#63b8ff" d="M1365.43,-330.21C1387.78,-325.45 1412.84,-320.12 1434.1,-315.6"/>
<polygon fill="#63b8ff" stroke="#63b8ff" points="1434.83,-319.02 1443.89,-313.51 1433.38,-312.17 1434.83,-319.02"/>
</a>
</g>
</g>
<!-- Node20&#45;&gt;Node19 -->
<g id="edge27_Node000020_Node000019" class="edge">
<title>Node20&#45;&gt;Node19</title>
<g id="a_edge27_Node000020_Node000019"><a xlink:title=" ">
<path fill="none" stroke="#63b8ff" d="M910.38,-394.98C922.14,-398.47 933.97,-403.33 944,-410.08 966.12,-424.97 957.88,-443.18 980,-458.08 982.41,-459.7 984.93,-461.22 987.53,-462.63"/>
<polygon fill="#63b8ff" stroke="#63b8ff" points="986.1,-465.83 996.62,-467.05 989.16,-459.53 986.1,-465.83"/>
</a>
</g>
</g>
<!-- Node21 -->
<g id="Node000021" class="node">
<title>Node21</title>
<g id="a_Node000021"><a xlink:href="classwmtk_1_1simplex_1_1_simplex_collection.html#a0d0c1765c4ed8ffd0f163661111bfb08" target="_top" xlink:title=" ">
<polygon fill="white" stroke="#666666" points="1164,-449.08 980,-449.08 980,-419.08 1164,-419.08 1164,-449.08"/>
<text text-anchor="start" x="988" y="-437.08" font-family="Helvetica,sans-Serif" font-size="10.00">wmtk::simplex::SimplexCollection</text>
<text text-anchor="middle" x="1072" y="-426.08" font-family="Helvetica,sans-Serif" font-size="10.00">::mesh</text>
</a>
</g>
</g>
<!-- Node20&#45;&gt;Node21 -->
<g id="edge26_Node000020_Node000021" class="edge">
<title>Node20&#45;&gt;Node21</title>
<g id="a_edge26_Node000020_Node000021"><a xlink:title=" ">
<path fill="none" stroke="#63b8ff" d="M910.28,-398.69C935.56,-404.26 965.67,-410.89 992.96,-416.89"/>
<polygon fill="#63b8ff" stroke="#63b8ff" points="992.35,-420.34 1002.87,-419.08 993.86,-413.51 992.35,-420.34"/>
</a>
</g>
</g>
<!-- Node22 -->
<g id="Node000022" class="node">
<title>Node22</title>
<g id="a_Node000022"><a xlink:href="namespacewmtk_1_1simplex.html#a0101f27eb2ad82814390b92ab1a4d1a0" target="_top" xlink:title=" ">
<polygon fill="white" stroke="#666666" points="1147.5,-401.08 996.5,-401.08 996.5,-371.08 1147.5,-371.08 1147.5,-401.08"/>
<text text-anchor="start" x="1004.5" y="-389.08" font-family="Helvetica,sans-Serif" font-size="10.00">wmtk::simplex::top</text>
<text text-anchor="middle" x="1072" y="-378.08" font-family="Helvetica,sans-Serif" font-size="10.00">_dimension_cofaces_tuples</text>
</a>
</g>
</g>
<!-- Node20&#45;&gt;Node22 -->
<g id="edge28_Node000020_Node000022" class="edge">
<title>Node20&#45;&gt;Node22</title>
<g id="a_edge28_Node000020_Node000022"><a xlink:title=" ">
<path fill="none" stroke="#63b8ff" d="M910.28,-386.08C933.55,-386.08 960.93,-386.08 986.42,-386.08"/>
<polygon fill="#63b8ff" stroke="#63b8ff" points="986.46,-389.58 996.46,-386.08 986.46,-382.58 986.46,-389.58"/>
</a>
</g>
</g>
<!-- Node22&#45;&gt;Node7 -->
<g id="edge29_Node000022_Node000007" class="edge">
<title>Node22&#45;&gt;Node7</title>
<g id="a_edge29_Node000022_Node000007"><a xlink:title=" ">
<path fill="none" stroke="#63b8ff" d="M1142.75,-401.1C1150.09,-403.67 1157.31,-406.64 1164,-410.08 1214.53,-436.03 1263.23,-482.93 1287.33,-508.07"/>
<polygon fill="#63b8ff" stroke="#63b8ff" points="1284.85,-510.55 1294.26,-515.42 1289.94,-505.74 1284.85,-510.55"/>
</a>
</g>
</g>
<!-- Node22&#45;&gt;Node16 -->
<g id="edge30_Node000022_Node000016" class="edge">
<title>Node22&#45;&gt;Node16</title>
<g id="a_edge30_Node000022_Node000016"><a xlink:title=" ">
<path fill="none" stroke="#63b8ff" d="M1147.67,-372.12C1175.01,-367.01 1205.82,-361.25 1232.75,-356.21"/>
<polygon fill="#63b8ff" stroke="#63b8ff" points="1233.68,-359.6 1242.87,-354.32 1232.4,-352.72 1233.68,-359.6"/>
</a>
</g>
</g>
<!-- Node23 -->
<g id="Node000023" class="node">
<title>Node23</title>
<g id="a_Node000023"><a xlink:href="classwmtk_1_1simplex_1_1_simplex.html#ad2cc0340a0772b7d6f03ba7a781d1163" target="_top" xlink:title=" ">
<polygon fill="white" stroke="#666666" points="1371.5,-92.08 1236.5,-92.08 1236.5,-62.08 1371.5,-62.08 1371.5,-92.08"/>
<text text-anchor="start" x="1244.5" y="-80.08" font-family="Helvetica,sans-Serif" font-size="10.00">wmtk::simplex::Simplex</text>
<text text-anchor="middle" x="1304" y="-69.08" font-family="Helvetica,sans-Serif" font-size="10.00">::primitive_type</text>
</a>
</g>
</g>
<!-- Node22&#45;&gt;Node23 -->
<g id="edge31_Node000022_Node000023" class="edge">
<title>Node22&#45;&gt;Node23</title>
<g id="a_edge31_Node000022_Node000023"><a xlink:title=" ">
<path fill="none" stroke="#63b8ff" d="M1105.6,-370.86C1125.23,-360.12 1149.22,-343.93 1164,-323.08 1198.92,-273.82 1171.09,-245.09 1200,-192.08 1220.06,-155.29 1254.03,-120.55 1277.44,-99.07"/>
<polygon fill="#63b8ff" stroke="#63b8ff" points="1279.85,-101.61 1284.94,-92.31 1275.17,-96.41 1279.85,-101.61"/>
</a>
</g>
</g>
<!-- Node25 -->
<g id="Node000025" class="node">
<title>Node25</title>
<g id="a_Node000025"><a xlink:href="classwmtk_1_1_mesh.html#a933f681cf24a63b155c9462280385200" target="_top" xlink:title=" ">
<polygon fill="white" stroke="#666666" points="1132.5,-183.08 1011.5,-183.08 1011.5,-153.08 1132.5,-153.08 1132.5,-183.08"/>
<text text-anchor="start" x="1019.5" y="-171.08" font-family="Helvetica,sans-Serif" font-size="10.00">wmtk::Mesh::top_cell</text>
<text text-anchor="middle" x="1072" y="-160.08" font-family="Helvetica,sans-Serif" font-size="10.00">_dimension</text>
</a>
</g>
</g>
<!-- Node24&#45;&gt;Node25 -->
<g id="edge33_Node000024_Node000025" class="edge">
<title>Node24&#45;&gt;Node25</title>
<g id="a_edge33_Node000024_Node000025"><a xlink:title=" ">
<path fill="none" stroke="#63b8ff" d="M892.19,-219.55C908.33,-215.42 927.15,-210.33 944,-205.08 960.24,-200.01 963.76,-197.14 980,-192.08 986.86,-189.94 994.06,-187.83 1001.26,-185.79"/>
<polygon fill="#63b8ff" stroke="#63b8ff" points="1002.36,-189.12 1011.07,-183.08 1000.49,-182.37 1002.36,-189.12"/>
</a>
</g>
</g>
<!-- Node30 -->
<g id="Node000030" class="node">
<title>Node30</title>
<g id="a_Node000030"><a xlink:href="classwmtk_1_1simplex_1_1_simplex.html#ab6d51ca0c220792c1c09824d152bb53a" target="_top" xlink:title=" ">
<polygon fill="white" stroke="#666666" points="501,-85.08 366,-85.08 366,-55.08 501,-55.08 501,-85.08"/>
<text text-anchor="start" x="374" y="-73.08" font-family="Helvetica,sans-Serif" font-size="10.00">wmtk::simplex::Simplex</text>
<text text-anchor="middle" x="433.5" y="-62.08" font-family="Helvetica,sans-Serif" font-size="10.00">::Simplex</text>
</a>
</g>
</g>
<!-- Node29&#45;&gt;Node30 -->
<g id="edge45_Node000029_Node000030" class="edge">
<title>Node29&#45;&gt;Node30</title>
<g id="a_edge45_Node000029_Node000030"><a xlink:title=" ">
<path fill="none" stroke="#63b8ff" d="M293.95,-122.99C313.86,-114.19 339.7,-103.09 363,-94.08 367.79,-92.23 372.79,-90.36 377.81,-88.54"/>
<polygon fill="#63b8ff" stroke="#63b8ff" points="379.22,-91.75 387.46,-85.09 376.87,-85.16 379.22,-91.75"/>
</a>
</g>
</g>
<!-- Node31&#45;&gt;Node23 -->
<g id="edge47_Node000031_Node000023" class="edge">
<title>Node31&#45;&gt;Node23</title>
<g id="a_edge47_Node000031_Node000023"><a xlink:title=" ">
<path fill="none" stroke="#63b8ff" d="M483.01,-103.5C490.32,-101.03 497.56,-97.93 504,-94.08 523.96,-82.12 518.71,-65.46 540,-56.08 782.55,50.87 1111.92,-22.14 1244.33,-59.17"/>
<polygon fill="#63b8ff" stroke="#63b8ff" points="1243.7,-62.63 1254.27,-61.99 1245.61,-55.9 1243.7,-62.63"/>
</a>
</g>
</g>
<!-- Node31&#45;&gt;Node26 -->
<g id="edge57_Node000031_Node000026" class="edge">
<title>Node31&#45;&gt;Node26</title>
<g id="a_edge57_Node000031_Node000026"><a xlink:title=" ">
<path fill="none" stroke="#63b8ff" d="M468.53,-103.53C550.93,-81.84 767.35,-33.31 944,-68.08 975.71,-74.32 1009.48,-88.55 1034.22,-100.55"/>
<polygon fill="#63b8ff" stroke="#63b8ff" points="1032.72,-103.71 1043.24,-105.02 1035.83,-97.44 1032.72,-103.71"/>
</a>
</g>
</g>
<!-- Node32 -->
<g id="Node000032" class="node">
<title>Node32</title>
<g id="a_Node000032"><a xlink:href="classwmtk_1_1_mesh.html#a965a8a24158c4aa8580c57ba09f885f7" target="_top" xlink:title="switch the orientation of the Tuple of the given dimension">
<polygon fill="white" stroke="#666666" points="909,-107.08 795,-107.08 795,-77.08 909,-77.08 909,-107.08"/>
<text text-anchor="start" x="803" y="-95.08" font-family="Helvetica,sans-Serif" font-size="10.00">wmtk::Mesh::switch</text>
<text text-anchor="middle" x="852" y="-84.08" font-family="Helvetica,sans-Serif" font-size="10.00">_tuple</text>
</a>
</g>
</g>
<!-- Node31&#45;&gt;Node32 -->
<g id="edge48_Node000031_Node000032" class="edge">
<title>Node31&#45;&gt;Node32</title>
<g id="a_edge48_Node000031_Node000032"><a xlink:title=" ">
<path fill="none" stroke="#63b8ff" d="M500.96,-109.73C578.76,-105.8 706.87,-99.35 784.64,-95.42"/>
<polygon fill="#63b8ff" stroke="#63b8ff" points="784.99,-98.91 794.8,-94.91 784.63,-91.92 784.99,-98.91"/>
</a>
</g>
</g>
<!-- Node33 -->
<g id="Node000033" class="node">
<title>Node33</title>
<g id="a_Node000033"><a xlink:href="classwmtk_1_1_mesh.html#a7f8a7b7d592fdbf672f2c6c9653487ea" target="_top" xlink:title=" ">
<polygon fill="white" stroke="#666666" points="689,-150.08 575,-150.08 575,-120.08 689,-120.08 689,-150.08"/>
<text text-anchor="start" x="583" y="-138.08" font-family="Helvetica,sans-Serif" font-size="10.00">wmtk::Mesh::switch</text>
<text text-anchor="middle" x="632" y="-127.08" font-family="Helvetica,sans-Serif" font-size="10.00">_tuples</text>
</a>
</g>
</g>
<!-- Node31&#45;&gt;Node33 -->
<g id="edge49_Node000031_Node000033" class="edge">
<title>Node31&#45;&gt;Node33</title>
<g id="a_edge49_Node000031_Node000033"><a xlink:title=" ">
<path fill="none" stroke="#63b8ff" d="M500.75,-120.5C521.43,-122.81 544.24,-125.36 564.91,-127.68"/>
<polygon fill="#63b8ff" stroke="#63b8ff" points="564.54,-131.16 574.87,-128.79 565.32,-124.2 564.54,-131.16"/>
</a>
</g>
</g>
<!-- Node33&#45;&gt;Node24 -->
<g id="edge56_Node000033_Node000024" class="edge">
<title>Node33&#45;&gt;Node24</title>
<g id="a_edge56_Node000033_Node000024"><a xlink:title=" ">
<path fill="none" stroke="#63b8ff" d="M656.48,-150.33C681.34,-165.91 722.14,-189.92 760,-205.08 771.38,-209.63 783.9,-213.58 795.92,-216.88"/>
<polygon fill="#63b8ff" stroke="#63b8ff" points="795.3,-220.34 805.86,-219.5 797.08,-213.57 795.3,-220.34"/>
</a>
</g>
</g>
<!-- Node33&#45;&gt;Node25 -->
<g id="edge55_Node000033_Node000025" class="edge">
<title>Node33&#45;&gt;Node25</title>
<g id="a_edge55_Node000033_Node000025"><a xlink:title=" ">
<path fill="none" stroke="#63b8ff" d="M675,-150.14C699.44,-158.11 731.06,-167.06 760,-171.08 842.2,-182.5 937.79,-179.13 1001.07,-174.61"/>
<polygon fill="#63b8ff" stroke="#63b8ff" points="1001.62,-178.08 1011.33,-173.84 1001.1,-171.09 1001.62,-178.08"/>
</a>
</g>
</g>
<!-- Node33&#45;&gt;Node32 -->
<g id="edge54_Node000033_Node000032" class="edge">
<title>Node33&#45;&gt;Node32</title>
<g id="a_edge54_Node000033_Node000032"><a xlink:title=" ">
<path fill="none" stroke="#63b8ff" d="M689.14,-124C718.27,-118.26 754.04,-111.2 784.55,-105.19"/>
<polygon fill="#63b8ff" stroke="#63b8ff" points="785.54,-108.56 794.67,-103.19 784.18,-101.69 785.54,-108.56"/>
</a>
</g>
</g>
<!-- Node34 -->
<g id="Node000034" class="node">
<title>Node34</title>
<g id="a_Node000034"><a xlink:href="classwmtk_1_1_mesh.html#a58bdbbfa0cd7bd9263241f6501db182a" target="_top" xlink:title="check if a simplex lies on a boundary or not">
<polygon fill="white" stroke="#666666" points="923,-144.58 781,-144.58 781,-125.58 923,-125.58 923,-144.58"/>
<text text-anchor="middle" x="852" y="-132.58" font-family="Helvetica,sans-Serif" font-size="10.00">wmtk::Mesh::is_boundary</text>
</a>
</g>
</g>
<!-- Node33&#45;&gt;Node34 -->
<g id="edge50_Node000033_Node000034" class="edge">
<title>Node33&#45;&gt;Node34</title>
<g id="a_edge50_Node000033_Node000034"><a xlink:title=" ">
<path fill="none" stroke="#63b8ff" d="M689.14,-135.08C713.97,-135.08 743.64,-135.08 770.75,-135.08"/>
<polygon fill="#63b8ff" stroke="#63b8ff" points="771,-138.58 781,-135.08 771,-131.58 771,-138.58"/>
</a>
</g>
</g>
<!-- Node34&#45;&gt;Node23 -->
<g id="edge52_Node000034_Node000023" class="edge">
<title>Node34&#45;&gt;Node23</title>
<g id="a_edge52_Node000034_Node000023"><a xlink:title=" ">
<path fill="none" stroke="#63b8ff" d="M911.99,-125.47C922.8,-122.95 933.87,-119.85 944,-116.08 961.15,-109.69 962.42,-101.19 980,-96.08 1061.54,-72.37 1159.4,-70.04 1225.88,-72.1"/>
<polygon fill="#63b8ff" stroke="#63b8ff" points="1226.16,-75.61 1236.28,-72.47 1226.4,-68.62 1226.16,-75.61"/>
</a>
</g>
</g>
<!-- Node34&#45;&gt;Node26 -->
<g id="edge53_Node000034_Node000026" class="edge">
<title>Node34&#45;&gt;Node26</title>
<g id="a_edge53_Node000034_Node000026"><a xlink:title=" ">
<path fill="none" stroke="#63b8ff" d="M923.18,-130.25C945.84,-128.69 971.07,-126.95 994.19,-125.36"/>
<polygon fill="#63b8ff" stroke="#63b8ff" points="994.56,-128.85 1004.29,-124.67 994.08,-121.86 994.56,-128.85"/>
</a>
</g>
</g>
<!-- Node34&#45;&gt;Node34 -->
<g id="edge51_Node000034_Node000034" class="edge">
<title>Node34&#45;&gt;Node34</title>
<g id="a_edge51_Node000034_Node000034"><a xlink:title=" ">
<path fill="none" stroke="#63b8ff" d="M818.09,-144.66C801.6,-153.31 812.9,-162.58 852,-162.58 880.1,-162.58 893.85,-157.79 893.23,-151.89"/>
<polygon fill="#63b8ff" stroke="#63b8ff" points="895.48,-149.19 885.91,-144.66 890.57,-154.18 895.48,-149.19"/>
</a>
</g>
</g>
</g>
</svg>

<g id="navigator" transform="translate(0 0)" fill="#404254">
  <rect fill="#f2f5e9" fill-opacity="0.5" stroke="#606060" stroke-width=".5" x="0" y="0" width="60" height="60"/>
  <use id="zoomplus" xlink:href="#zoomPlus" x="17" y="9" onmousedown="handleZoom(evt,'in')"/>
  <use id="zoomminus" xlink:href="#zoomMin" x="42" y="9" onmousedown="handleZoom(evt,'out')"/>
  <use id="reset" xlink:href="#resetDef" x="30" y="36" onmousedown="handleReset()"/>
   <use id="arrowup" xlink:href="#arrowUp" x="0" y="0" onmousedown="handlePan(0,-1)"/>
  <use id="arrowright" xlink:href="#arrowRight" x="0" y="0" onmousedown="handlePan(1,0)"/>
  <use id="arrowdown" xlink:href="#arrowDown" x="0" y="0" onmousedown="handlePan(0,1)"/>
  <use id="arrowleft" xlink:href="#arrowLeft" x="0" y="0" onmousedown="handlePan(-1,0)"/>
</g>
<svg viewBox="0 0 15 15" width="100%" height="30px" preserveAspectRatio="xMaxYMin meet">
 <g id="arrow_out" transform="scale(0.3 0.3)">
  <a xlink:href="namespacewmtk_1_1components_1_1internal_af341a4c0f56c927af751378846a6b82e_cgraph_org.svg" target="_base">
   <rect id="button" ry="5" rx="5" y="6" x="6" height="38" width="38"
        fill="#f2f5e9" fill-opacity="0.5" stroke="#606060" stroke-width="1.0"/>
   <path id="arrow"
     d="M 11.500037,31.436501 C 11.940474,20.09759 22.043105,11.32322 32.158766,21.979434 L 37.068811,17.246167 C 37.068811,17.246167 37.088388,32 37.088388,32 L 22.160133,31.978069 C 22.160133,31.978069 26.997745,27.140456 26.997745,27.140456 C 18.528582,18.264221 13.291696,25.230495 11.500037,31.436501 z"
     style="fill:#404040;"/>
  </a>
 </g>
</svg>

<style type='text/css'>
<![CDATA[
[data-mouse-over-selected='false'] { opacity: 0.7; }
[data-mouse-over-selected='true']  { opacity: 1.0; }
]]>
</style>
<script type="application/ecmascript"><![CDATA[
document.addEventListener('DOMContentLoaded', (event) => {
  highlightEdges();
  highlightAdjacentNodes();
});
]]></script>
</svg>
