<?xml version="1.0" encoding="UTF-8" standalone="no"?>
<!DOCTYPE svg PUBLIC "-//W3C//DTD SVG 1.1//EN"
 "http://www.w3.org/Graphics/SVG/1.1/DTD/svg11.dtd">
<!-- Generated by graphviz version 2.43.0 (0)
 -->
<!-- Title: wmtk::mesh_utils::compute_face_normal Pages: 1 -->
<svg width="1773pt" height="460pt"
 viewBox="0.00 0.00 1773.00 460.00" xmlns="http://www.w3.org/2000/svg" xmlns:xlink="http://www.w3.org/1999/xlink">
<g id="graph0" class="graph" transform="scale(1 1) rotate(0) translate(4 456)">
<title>wmtk::mesh_utils::compute_face_normal</title>
<!-- Node1 -->
<g id="node1" class="node">
<title>Node1</title>
<g id="a_node1"><a xlink:title="compute the normalized face normal based on the vertex positions">
<polygon fill="#bfbfbf" stroke="black" points="0,-320 0,-350 152,-350 152,-320 0,-320"/>
<text text-anchor="start" x="8" y="-338" font-family="Helvetica,sans-Serif" font-size="10.00">wmtk::mesh_utils::compute</text>
<text text-anchor="middle" x="76" y="-327" font-family="Helvetica,sans-Serif" font-size="10.00">_face_normal</text>
</a>
</g>
</g>
<!-- Node2 -->
<g id="node2" class="node">
<title>Node2</title>
<g id="a_node2"><a xlink:href="namespacewmtk_1_1mesh__utils.html#a07c6f8b4fe4d3bf868a521ac66aee027" target="_top" xlink:title="compute area vector of face">
<polygon fill="none" stroke="black" points="188,-320 188,-350 348,-350 348,-320 188,-320"/>
<text text-anchor="start" x="196" y="-338" font-family="Helvetica,sans-Serif" font-size="10.00">wmtk::mesh_utils::compute</text>
<text text-anchor="middle" x="268" y="-327" font-family="Helvetica,sans-Serif" font-size="10.00">_face_normal_area_weighted</text>
</a>
</g>
</g>
<!-- Node1&#45;&gt;Node2 -->
<g id="edge1" class="edge">
<title>Node1&#45;&gt;Node2</title>
<path fill="none" stroke="midnightblue" d="M152.09,-335C160.52,-335 169.16,-335 177.74,-335"/>
<polygon fill="midnightblue" stroke="midnightblue" points="177.77,-338.5 187.77,-335 177.77,-331.5 177.77,-338.5"/>
</g>
<!-- Node3 -->
<g id="node3" class="node">
<title>Node3</title>
<g id="a_node3"><a xlink:href="classwmtk_1_1attribute_1_1_accessor.html#acbfbd5a98532cf295fdf6dd64066bb26" target="_top" xlink:title=" ">
<polygon fill="none" stroke="black" points="390.5,-369 390.5,-399 532.5,-399 532.5,-369 390.5,-369"/>
<text text-anchor="start" x="398.5" y="-387" font-family="Helvetica,sans-Serif" font-size="10.00">wmtk::attribute::Accessor</text>
<text text-anchor="middle" x="461.5" y="-376" font-family="Helvetica,sans-Serif" font-size="10.00">::const_vector_attribute</text>
</a>
</g>
</g>
<!-- Node2&#45;&gt;Node3 -->
<g id="edge2" class="edge">
<title>Node2&#45;&gt;Node3</title>
<path fill="none" stroke="midnightblue" d="M327.76,-350.03C348.07,-355.23 371.01,-361.1 392.03,-366.48"/>
<polygon fill="midnightblue" stroke="midnightblue" points="391.3,-369.91 401.85,-368.99 393.03,-363.12 391.3,-369.91"/>
</g>
<!-- Node4 -->
<g id="node4" class="node">
<title>Node4</title>
<g id="a_node4"><a xlink:href="classwmtk_1_1_tri_mesh.html#a79010f8baac63245558c846aafea10d0" target="_top" xlink:title=" ">
<polygon fill="none" stroke="black" points="384,-281.5 384,-300.5 539,-300.5 539,-281.5 384,-281.5"/>
<text text-anchor="middle" x="461.5" y="-288.5" font-family="Helvetica,sans-Serif" font-size="10.00">wmtk::TriMesh::switch_edge</text>
</a>
</g>
</g>
<!-- Node2&#45;&gt;Node4 -->
<g id="edge3" class="edge">
<title>Node2&#45;&gt;Node4</title>
<path fill="none" stroke="midnightblue" d="M334.37,-319.98C358.81,-314.36 386.21,-308.07 409.2,-302.79"/>
<polygon fill="midnightblue" stroke="midnightblue" points="410.14,-306.16 419.1,-300.51 408.57,-299.34 410.14,-306.16"/>
</g>
<!-- Node29 -->
<g id="node29" class="node">
<title>Node29</title>
<g id="a_node29"><a xlink:href="classwmtk_1_1_tri_mesh.html#ada97686704b8c13ca21853028a4074b8" target="_top" xlink:title=" ">
<polygon fill="none" stroke="black" points="399,-320 399,-350 524,-350 524,-320 399,-320"/>
<text text-anchor="start" x="407" y="-338" font-family="Helvetica,sans-Serif" font-size="10.00">wmtk::TriMesh::switch</text>
<text text-anchor="middle" x="461.5" y="-327" font-family="Helvetica,sans-Serif" font-size="10.00">_vertex</text>
</a>
</g>
</g>
<!-- Node2&#45;&gt;Node29 -->
<g id="edge34" class="edge">
<title>Node2&#45;&gt;Node29</title>
<path fill="none" stroke="midnightblue" d="M348.27,-335C361.59,-335 375.34,-335 388.46,-335"/>
<polygon fill="midnightblue" stroke="midnightblue" points="388.83,-338.5 398.83,-335 388.83,-331.5 388.83,-338.5"/>
</g>
<!-- Node5 -->
<g id="node5" class="node">
<title>Node5</title>
<g id="a_node5"><a xlink:href="classwmtk_1_1_tri_mesh.html#a17b808a46d1a31efc12d555e6721bd02" target="_top" xlink:title="switch the orientation of the Tuple of the given dimension">
<polygon fill="none" stroke="black" points="575,-298 575,-328 700,-328 700,-298 575,-298"/>
<text text-anchor="start" x="583" y="-316" font-family="Helvetica,sans-Serif" font-size="10.00">wmtk::TriMesh::switch</text>
<text text-anchor="middle" x="637.5" y="-305" font-family="Helvetica,sans-Serif" font-size="10.00">_tuple</text>
</a>
</g>
</g>
<!-- Node4&#45;&gt;Node5 -->
<g id="edge4" class="edge">
<title>Node4&#45;&gt;Node5</title>
<path fill="none" stroke="midnightblue" d="M537.81,-300.52C546.82,-301.66 556,-302.82 564.95,-303.95"/>
<polygon fill="midnightblue" stroke="midnightblue" points="564.58,-307.43 574.94,-305.22 565.46,-300.49 564.58,-307.43"/>
</g>
<!-- Node6 -->
<g id="node6" class="node">
<title>Node6</title>
<g id="a_node6"><a xlink:href="classwmtk_1_1_tri_mesh.html#a9975c25ed665c9c9a7f1ae92818a1b7c" target="_top" xlink:title=" ">
<polygon fill="none" stroke="black" points="747.5,-360.5 747.5,-379.5 850.5,-379.5 850.5,-360.5 747.5,-360.5"/>
<text text-anchor="middle" x="799" y="-367.5" font-family="Helvetica,sans-Serif" font-size="10.00">wmtk::TriMesh::id</text>
</a>
</g>
</g>
<!-- Node5&#45;&gt;Node6 -->
<g id="edge5" class="edge">
<title>Node5&#45;&gt;Node6</title>
<path fill="none" stroke="midnightblue" d="M675.3,-328.09C693.45,-335.34 715.75,-343.96 736,-351 742.36,-353.21 749.13,-355.42 755.77,-357.52"/>
<polygon fill="midnightblue" stroke="midnightblue" points="754.77,-360.87 765.35,-360.49 756.84,-354.19 754.77,-360.87"/>
</g>
<!-- Node7 -->
<g id="node7" class="node">
<title>Node7</title>
<g id="a_node7"><a xlink:href="classwmtk_1_1_tri_mesh.html#accbde91fccacdfdfd997e20d9ee9eb22" target="_top" xlink:title="TODO this needs dimension?">
<polygon fill="none" stroke="black" points="736,-322.5 736,-341.5 862,-341.5 862,-322.5 736,-322.5"/>
<text text-anchor="middle" x="799" y="-329.5" font-family="Helvetica,sans-Serif" font-size="10.00">wmtk::TriMesh::is_ccw</text>
</a>
</g>
</g>
<!-- Node5&#45;&gt;Node7 -->
<g id="edge6" class="edge">
<title>Node5&#45;&gt;Node7</title>
<path fill="none" stroke="midnightblue" d="M700.17,-320.35C708.61,-321.35 717.34,-322.39 725.95,-323.42"/>
<polygon fill="midnightblue" stroke="midnightblue" points="725.63,-326.9 735.97,-324.61 726.46,-319.95 725.63,-326.9"/>
</g>
<!-- Node11 -->
<g id="node11" class="node">
<title>Node11</title>
<g id="a_node11"><a xlink:href="classwmtk_1_1_tri_mesh.html#a611704f60f24669e957325c7cb79f200" target="_top" xlink:title="check validity of tuple including its hash">
<polygon fill="none" stroke="black" points="905,-234.5 905,-253.5 1036,-253.5 1036,-234.5 905,-234.5"/>
<text text-anchor="middle" x="970.5" y="-241.5" font-family="Helvetica,sans-Serif" font-size="10.00">wmtk::TriMesh::is_valid</text>
</a>
</g>
</g>
<!-- Node5&#45;&gt;Node11 -->
<g id="edge31" class="edge">
<title>Node5&#45;&gt;Node11</title>
<path fill="none" stroke="midnightblue" d="M700.37,-300.1C761.75,-287.31 854.95,-267.88 914,-255.57"/>
<polygon fill="midnightblue" stroke="midnightblue" points="914.82,-258.97 923.89,-253.51 913.39,-252.12 914.82,-258.97"/>
</g>
<!-- Node28 -->
<g id="node28" class="node">
<title>Node28</title>
<g id="a_node28"><a xlink:href="namespacewmtk_1_1autogen_1_1tri__mesh.html#a91e6b348f528d93ad6d9031bae1480da" target="_top" xlink:title=" ">
<polygon fill="none" stroke="black" points="898,-289 898,-319 1043,-319 1043,-289 898,-289"/>
<text text-anchor="start" x="906" y="-307" font-family="Helvetica,sans-Serif" font-size="10.00">wmtk::autogen::tri</text>
<text text-anchor="middle" x="970.5" y="-296" font-family="Helvetica,sans-Serif" font-size="10.00">_mesh::local_switch_tuple</text>
</a>
</g>
</g>
<!-- Node5&#45;&gt;Node28 -->
<g id="edge32" class="edge">
<title>Node5&#45;&gt;Node28</title>
<path fill="none" stroke="midnightblue" d="M700.37,-311.32C753.24,-309.88 829.71,-307.8 887.64,-306.23"/>
<polygon fill="midnightblue" stroke="midnightblue" points="887.96,-309.72 897.86,-305.95 887.77,-302.72 887.96,-309.72"/>
</g>
<!-- Node8 -->
<g id="node8" class="node">
<title>Node8</title>
<g id="a_node8"><a xlink:href="namespacewmtk_1_1autogen_1_1tri__mesh.html#aaab85f5120a223c29bae0881cd7f2c87" target="_top" xlink:title=" ">
<polygon fill="none" stroke="black" points="917,-354 917,-384 1024,-384 1024,-354 917,-354"/>
<text text-anchor="start" x="925" y="-372" font-family="Helvetica,sans-Serif" font-size="10.00">wmtk::autogen::tri</text>
<text text-anchor="middle" x="970.5" y="-361" font-family="Helvetica,sans-Serif" font-size="10.00">_mesh::is_ccw</text>
</a>
</g>
</g>
<!-- Node7&#45;&gt;Node8 -->
<g id="edge7" class="edge">
<title>Node7&#45;&gt;Node8</title>
<path fill="none" stroke="midnightblue" d="M843.65,-341.53C862.96,-345.74 886.02,-350.78 907.09,-355.38"/>
<polygon fill="midnightblue" stroke="midnightblue" points="906.42,-358.81 916.94,-357.53 907.91,-351.97 906.42,-358.81"/>
</g>
<!-- Node7&#45;&gt;Node11 -->
<g id="edge11" class="edge">
<title>Node7&#45;&gt;Node11</title>
<path fill="none" stroke="midnightblue" d="M817.24,-322.4C836.72,-311.62 869.45,-293.7 898,-279 911.71,-271.94 927.05,-264.39 939.99,-258.11"/>
<polygon fill="midnightblue" stroke="midnightblue" points="941.87,-261.09 949.36,-253.59 938.83,-254.79 941.87,-261.09"/>
</g>
<!-- Node9 -->
<g id="node9" class="node">
<title>Node9</title>
<g id="a_node9"><a xlink:href="namespacewmtk_1_1autogen_1_1tri__mesh.html#a1c9b651c47ee993e160a8dca570cf35c" target="_top" xlink:title=" ">
<polygon fill="none" stroke="black" points="1297.5,-410.5 1297.5,-451.5 1419.5,-451.5 1419.5,-410.5 1297.5,-410.5"/>
<text text-anchor="start" x="1305.5" y="-439.5" font-family="Helvetica,sans-Serif" font-size="10.00">wmtk::autogen::tri</text>
<text text-anchor="start" x="1305.5" y="-428.5" font-family="Helvetica,sans-Serif" font-size="10.00">_mesh::local_id_table</text>
<text text-anchor="middle" x="1358.5" y="-417.5" font-family="Helvetica,sans-Serif" font-size="10.00">_offset</text>
</a>
</g>
</g>
<!-- Node8&#45;&gt;Node9 -->
<g id="edge8" class="edge">
<title>Node8&#45;&gt;Node9</title>
<path fill="none" stroke="midnightblue" d="M1019.27,-384.08C1037.77,-389.45 1059.22,-395.13 1079,-399 1149.14,-412.73 1230.46,-421.24 1287.05,-426"/>
<polygon fill="midnightblue" stroke="midnightblue" points="1287.07,-429.51 1297.32,-426.84 1287.64,-422.53 1287.07,-429.51"/>
</g>
<!-- Node10 -->
<g id="node10" class="node">
<title>Node10</title>
<g id="a_node10"><a xlink:href="namespacewmtk_1_1autogen_1_1tri__mesh.html#a786155d6d2270c482ffd6a96d3211867" target="_top" xlink:title=" ">
<polygon fill="none" stroke="black" points="1101.5,-348.5 1101.5,-389.5 1223.5,-389.5 1223.5,-348.5 1101.5,-348.5"/>
<text text-anchor="start" x="1109.5" y="-377.5" font-family="Helvetica,sans-Serif" font-size="10.00">wmtk::autogen::tri</text>
<text text-anchor="start" x="1109.5" y="-366.5" font-family="Helvetica,sans-Serif" font-size="10.00">_mesh::tuple_is_valid</text>
<text text-anchor="middle" x="1162.5" y="-355.5" font-family="Helvetica,sans-Serif" font-size="10.00">_for_ccw</text>
</a>
</g>
</g>
<!-- Node8&#45;&gt;Node10 -->
<g id="edge9" class="edge">
<title>Node8&#45;&gt;Node10</title>
<path fill="none" stroke="midnightblue" d="M1024.17,-369C1044.94,-369 1069.09,-369 1091.3,-369"/>
<polygon fill="midnightblue" stroke="midnightblue" points="1091.34,-372.5 1101.34,-369 1091.34,-365.5 1091.34,-372.5"/>
</g>
<!-- Node10&#45;&gt;Node9 -->
<g id="edge10" class="edge">
<title>Node10&#45;&gt;Node9</title>
<path fill="none" stroke="midnightblue" d="M1223.55,-388.19C1243.82,-394.67 1266.63,-401.96 1287.59,-408.66"/>
<polygon fill="midnightblue" stroke="midnightblue" points="1286.8,-412.08 1297.4,-411.79 1288.94,-405.41 1286.8,-412.08"/>
</g>
<!-- Node11&#45;&gt;Node10 -->
<g id="edge30" class="edge">
<title>Node11&#45;&gt;Node10</title>
<path fill="none" stroke="midnightblue" d="M993.68,-253.5C1008.1,-260.01 1027.12,-269.21 1043,-279 1073.69,-297.92 1106.13,-322.95 1129.3,-341.82"/>
<polygon fill="midnightblue" stroke="midnightblue" points="1127.14,-344.57 1137.09,-348.21 1131.58,-339.16 1127.14,-344.57"/>
</g>
<!-- Node12 -->
<g id="node12" class="node">
<title>Node12</title>
<g id="a_node12"><a xlink:href="classwmtk_1_1_tri_mesh.html#a6375662ccb85d7c8868b3c76d708bae5" target="_top" xlink:title=" ">
<polygon fill="none" stroke="black" points="1079,-212 1079,-242 1246,-242 1246,-212 1079,-212"/>
<text text-anchor="start" x="1087" y="-230" font-family="Helvetica,sans-Serif" font-size="10.00">wmtk::TriMesh::is_connectivity</text>
<text text-anchor="middle" x="1162.5" y="-219" font-family="Helvetica,sans-Serif" font-size="10.00">_valid</text>
</a>
</g>
</g>
<!-- Node11&#45;&gt;Node12 -->
<g id="edge12" class="edge">
<title>Node11&#45;&gt;Node12</title>
<path fill="none" stroke="midnightblue" d="M1036.09,-238.22C1046.63,-237.28 1057.73,-236.28 1068.79,-235.29"/>
<polygon fill="midnightblue" stroke="midnightblue" points="1069.27,-238.77 1078.92,-234.39 1068.65,-231.79 1069.27,-238.77"/>
</g>
<!-- Node23 -->
<g id="node23" class="node">
<title>Node23</title>
<g id="a_node23"><a xlink:href="namespacewmtk.html#a6a35f11c12436093d26fdd8be6fecc06" target="_top" xlink:title="Retrieves the current logger.">
<polygon fill="none" stroke="black" points="1318,-76.5 1318,-95.5 1399,-95.5 1399,-76.5 1318,-76.5"/>
<text text-anchor="middle" x="1358.5" y="-83.5" font-family="Helvetica,sans-Serif" font-size="10.00">wmtk::logger</text>
</a>
</g>
</g>
<!-- Node11&#45;&gt;Node23 -->
<g id="edge29" class="edge">
<title>Node11&#45;&gt;Node23</title>
<path fill="none" stroke="midnightblue" d="M989.94,-234.37C1037.31,-209.94 1167.6,-144.66 1282,-105 1290.35,-102.1 1299.36,-99.45 1308.15,-97.1"/>
<polygon fill="midnightblue" stroke="midnightblue" points="1309.12,-100.46 1317.93,-94.58 1307.37,-93.68 1309.12,-100.46"/>
</g>
<!-- Node25 -->
<g id="node25" class="node">
<title>Node25</title>
<g id="a_node25"><a xlink:href="classwmtk_1_1_mesh.html#a8cc8686f0688613806f43720b6db49e7" target="_top" xlink:title="check validity of tuple including its hash">
<polygon fill="none" stroke="black" points="1102.5,-38.5 1102.5,-57.5 1222.5,-57.5 1222.5,-38.5 1102.5,-38.5"/>
<text text-anchor="middle" x="1162.5" y="-45.5" font-family="Helvetica,sans-Serif" font-size="10.00">wmtk::Mesh::is_valid</text>
</a>
</g>
</g>
<!-- Node11&#45;&gt;Node25 -->
<g id="edge26" class="edge">
<title>Node11&#45;&gt;Node25</title>
<path fill="none" stroke="midnightblue" d="M979.53,-234.27C996.97,-213.31 1039.88,-162.57 1079,-123 1099.93,-101.83 1125.5,-79.02 1142.57,-64.19"/>
<polygon fill="midnightblue" stroke="midnightblue" points="1144.93,-66.77 1150.21,-57.59 1140.35,-61.47 1144.93,-66.77"/>
</g>
<!-- Node13 -->
<g id="node13" class="node">
<title>Node13</title>
<g id="a_node13"><a xlink:href="classwmtk_1_1_mesh.html#a3e8ff83c4a5526a40d18bb9883c6c6c9" target="_top" xlink:title="read in the m_capacities return the upper bound for the number of entities of the given dimension">
<polygon fill="none" stroke="black" points="1480,-372.5 1480,-391.5 1604,-391.5 1604,-372.5 1480,-372.5"/>
<text text-anchor="middle" x="1542" y="-379.5" font-family="Helvetica,sans-Serif" font-size="10.00">wmtk::Mesh::capacity</text>
</a>
</g>
</g>
<!-- Node12&#45;&gt;Node13 -->
<g id="edge13" class="edge">
<title>Node12&#45;&gt;Node13</title>
<path fill="none" stroke="midnightblue" d="M1187,-242.21C1204.8,-254.58 1229.02,-273.33 1246,-294 1267.71,-320.42 1253.41,-343.25 1282,-362 1341.02,-400.71 1424.68,-399.56 1480.79,-392.83"/>
<polygon fill="midnightblue" stroke="midnightblue" points="1481.47,-396.27 1490.94,-391.51 1480.57,-389.33 1481.47,-396.27"/>
</g>
<!-- Node15 -->
<g id="node15" class="node">
<title>Node15</title>
<g id="a_node15"><a xlink:href="classwmtk_1_1attribute_1_1_caching_accessor.html#a196b6b32e2495b971113d552be7f45d9" target="_top" xlink:title=" ">
<polygon fill="none" stroke="black" points="1290,-262.5 1290,-303.5 1427,-303.5 1427,-262.5 1290,-262.5"/>
<text text-anchor="start" x="1298" y="-291.5" font-family="Helvetica,sans-Serif" font-size="10.00">wmtk::attribute::Caching</text>
<text text-anchor="start" x="1298" y="-280.5" font-family="Helvetica,sans-Serif" font-size="10.00">Accessor::const_scalar</text>
<text text-anchor="middle" x="1358.5" y="-269.5" font-family="Helvetica,sans-Serif" font-size="10.00">_attribute</text>
</a>
</g>
</g>
<!-- Node12&#45;&gt;Node15 -->
<g id="edge15" class="edge">
<title>Node12&#45;&gt;Node15</title>
<path fill="none" stroke="midnightblue" d="M1215.49,-242.01C1235.25,-247.71 1258.21,-254.34 1279.83,-260.58"/>
<polygon fill="midnightblue" stroke="midnightblue" points="1279.08,-264.01 1289.65,-263.42 1281.02,-257.28 1279.08,-264.01"/>
</g>
<!-- Node16 -->
<g id="node16" class="node">
<title>Node16</title>
<g id="a_node16"><a xlink:href="classwmtk_1_1attribute_1_1_caching_accessor.html#ab7a79d239fdc3d22fbc0c3a83a5c50bc" target="_top" xlink:title=" ">
<polygon fill="none" stroke="black" points="1290,-202.5 1290,-243.5 1427,-243.5 1427,-202.5 1290,-202.5"/>
<text text-anchor="start" x="1298" y="-231.5" font-family="Helvetica,sans-Serif" font-size="10.00">wmtk::attribute::Caching</text>
<text text-anchor="start" x="1298" y="-220.5" font-family="Helvetica,sans-Serif" font-size="10.00">Accessor::const_vector</text>
<text text-anchor="middle" x="1358.5" y="-209.5" font-family="Helvetica,sans-Serif" font-size="10.00">_attribute</text>
</a>
</g>
</g>
<!-- Node12&#45;&gt;Node16 -->
<g id="edge16" class="edge">
<title>Node12&#45;&gt;Node16</title>
<path fill="none" stroke="midnightblue" d="M1246.05,-225.3C1257.27,-225.07 1268.74,-224.83 1279.86,-224.6"/>
<polygon fill="midnightblue" stroke="midnightblue" points="1280.03,-228.1 1289.96,-224.39 1279.89,-221.1 1280.03,-228.1"/>
</g>
<!-- Node17 -->
<g id="node17" class="node">
<title>Node17</title>
<g id="a_node17"><a xlink:href="classwmtk_1_1_mesh.html#ae0e8f71e9e17a90be9423117efcc4c81" target="_top" xlink:title=" ">
<polygon fill="none" stroke="black" points="1297.5,-323 1297.5,-353 1419.5,-353 1419.5,-323 1297.5,-323"/>
<text text-anchor="start" x="1305.5" y="-341" font-family="Helvetica,sans-Serif" font-size="10.00">wmtk::Mesh::get_flag</text>
<text text-anchor="middle" x="1358.5" y="-330" font-family="Helvetica,sans-Serif" font-size="10.00">_accessor</text>
</a>
</g>
</g>
<!-- Node12&#45;&gt;Node17 -->
<g id="edge17" class="edge">
<title>Node12&#45;&gt;Node17</title>
<path fill="none" stroke="midnightblue" d="M1182.78,-242.12C1210.77,-263.86 1261.53,-302.5 1282,-313 1286.3,-315.21 1290.84,-317.28 1295.47,-319.21"/>
<polygon fill="midnightblue" stroke="midnightblue" points="1294.47,-322.58 1305.06,-322.97 1297.03,-316.06 1294.47,-322.58"/>
</g>
<!-- Node20 -->
<g id="node20" class="node">
<title>Node20</title>
<g id="a_node20"><a xlink:href="classwmtk_1_1attribute_1_1_accessor.html#a41f40a73a13789707c117bda177dfc83" target="_top" xlink:title=" ">
<polygon fill="none" stroke="black" points="1287.5,-153 1287.5,-183 1429.5,-183 1429.5,-153 1287.5,-153"/>
<text text-anchor="start" x="1295.5" y="-171" font-family="Helvetica,sans-Serif" font-size="10.00">wmtk::attribute::Accessor</text>
<text text-anchor="middle" x="1358.5" y="-160" font-family="Helvetica,sans-Serif" font-size="10.00">::index_access</text>
</a>
</g>
</g>
<!-- Node12&#45;&gt;Node20 -->
<g id="edge21" class="edge">
<title>Node12&#45;&gt;Node20</title>
<path fill="none" stroke="midnightblue" d="M1212.96,-211.96C1238.95,-204.05 1271,-194.31 1298.31,-186"/>
<polygon fill="midnightblue" stroke="midnightblue" points="1299.59,-189.27 1308.13,-183.01 1297.55,-182.57 1299.59,-189.27"/>
</g>
<!-- Node22 -->
<g id="node22" class="node">
<title>Node22</title>
<g id="a_node22"><a xlink:href="classwmtk_1_1_tri_mesh.html#a58bdbbfa0cd7bd9263241f6501db182a" target="_top" xlink:title="check if a simplex lies on a boundary or not">
<polygon fill="none" stroke="black" points="1282,-114.5 1282,-133.5 1435,-133.5 1435,-114.5 1282,-114.5"/>
<text text-anchor="middle" x="1358.5" y="-121.5" font-family="Helvetica,sans-Serif" font-size="10.00">wmtk::TriMesh::is_boundary</text>
</a>
</g>
</g>
<!-- Node12&#45;&gt;Node22 -->
<g id="edge23" class="edge">
<title>Node12&#45;&gt;Node22</title>
<path fill="none" stroke="midnightblue" d="M1180.3,-211.99C1202.19,-193.19 1242.37,-161.25 1282,-143 1287.27,-140.57 1292.89,-138.43 1298.61,-136.53"/>
<polygon fill="midnightblue" stroke="midnightblue" points="1299.72,-139.85 1308.26,-133.58 1297.67,-133.16 1299.72,-139.85"/>
</g>
<!-- Node12&#45;&gt;Node23 -->
<g id="edge24" class="edge">
<title>Node12&#45;&gt;Node23</title>
<path fill="none" stroke="midnightblue" d="M1181.67,-211.77C1198.93,-196.96 1225.27,-173.47 1246,-151 1263.6,-131.92 1260.24,-119.15 1282,-105 1289.82,-99.91 1298.91,-96.19 1308.03,-93.46"/>
<polygon fill="midnightblue" stroke="midnightblue" points="1309.08,-96.8 1317.86,-90.87 1307.3,-90.03 1309.08,-96.8"/>
</g>
<!-- Node14 -->
<g id="node14" class="node">
<title>Node14</title>
<g id="a_node14"><a xlink:href="namespacewmtk.html#a5cf45c152e856196bb734c6f48919a24" target="_top" xlink:title="Get a unique integer id corresponding to each primitive type.">
<polygon fill="none" stroke="black" points="1649,-367 1649,-397 1765,-397 1765,-367 1649,-367"/>
<text text-anchor="start" x="1657" y="-385" font-family="Helvetica,sans-Serif" font-size="10.00">wmtk::get_primitive</text>
<text text-anchor="middle" x="1707" y="-374" font-family="Helvetica,sans-Serif" font-size="10.00">_type_id</text>
</a>
</g>
</g>
<!-- Node13&#45;&gt;Node14 -->
<g id="edge14" class="edge">
<title>Node13&#45;&gt;Node14</title>
<path fill="none" stroke="midnightblue" d="M1604.16,-382C1615.36,-382 1627.12,-382 1638.49,-382"/>
<polygon fill="midnightblue" stroke="midnightblue" points="1638.81,-385.5 1648.81,-382 1638.81,-378.5 1638.81,-385.5"/>
</g>
<!-- Node18 -->
<g id="node18" class="node">
<title>Node18</title>
<g id="a_node18"><a xlink:href="classwmtk_1_1_mesh.html#a6dbab927a2ee85f77a87f075fd5c1d94" target="_top" xlink:title=" ">
<polygon fill="none" stroke="black" points="1477,-323 1477,-353 1607,-353 1607,-323 1477,-323"/>
<text text-anchor="start" x="1485" y="-341" font-family="Helvetica,sans-Serif" font-size="10.00">wmtk::Mesh::get_const</text>
<text text-anchor="middle" x="1542" y="-330" font-family="Helvetica,sans-Serif" font-size="10.00">_flag_accessor</text>
</a>
</g>
</g>
<!-- Node17&#45;&gt;Node18 -->
<g id="edge18" class="edge">
<title>Node17&#45;&gt;Node18</title>
<path fill="none" stroke="midnightblue" d="M1419.68,-338C1434.75,-338 1451.09,-338 1466.75,-338"/>
<polygon fill="midnightblue" stroke="midnightblue" points="1466.93,-341.5 1476.93,-338 1466.93,-334.5 1466.93,-341.5"/>
</g>
<!-- Node18&#45;&gt;Node14 -->
<g id="edge20" class="edge">
<title>Node18&#45;&gt;Node14</title>
<path fill="none" stroke="midnightblue" d="M1598.64,-353.02C1612.07,-356.65 1626.55,-360.55 1640.39,-364.29"/>
<polygon fill="midnightblue" stroke="midnightblue" points="1639.77,-367.75 1650.33,-366.97 1641.59,-360.99 1639.77,-367.75"/>
</g>
<!-- Node19 -->
<g id="node19" class="node">
<title>Node19</title>
<g id="a_node19"><a xlink:href="classwmtk_1_1_mesh.html#a4a20dcdac339e7a4f6f8a6570114cbe6" target="_top" xlink:title=" ">
<polygon fill="none" stroke="black" points="1650.5,-318 1650.5,-348 1763.5,-348 1763.5,-318 1650.5,-318"/>
<text text-anchor="start" x="1658.5" y="-336" font-family="Helvetica,sans-Serif" font-size="10.00">wmtk::Mesh::create</text>
<text text-anchor="middle" x="1707" y="-325" font-family="Helvetica,sans-Serif" font-size="10.00">_const_accessor</text>
</a>
</g>
</g>
<!-- Node18&#45;&gt;Node19 -->
<g id="edge19" class="edge">
<title>Node18&#45;&gt;Node19</title>
<path fill="none" stroke="midnightblue" d="M1607.42,-336.02C1618.21,-335.69 1629.42,-335.35 1640.24,-335.02"/>
<polygon fill="midnightblue" stroke="midnightblue" points="1640.59,-338.51 1650.47,-334.7 1640.37,-331.51 1640.59,-338.51"/>
</g>
<!-- Node21 -->
<g id="node21" class="node">
<title>Node21</title>
<g id="a_node21"><a xlink:href="classwmtk_1_1attribute_1_1_accessor.html#a9c7d323f50911892c8ea738f97d041d4" target="_top" xlink:title=" ">
<polygon fill="none" stroke="black" points="1471,-153 1471,-183 1613,-183 1613,-153 1471,-153"/>
<text text-anchor="start" x="1479" y="-171" font-family="Helvetica,sans-Serif" font-size="10.00">wmtk::attribute::Accessor</text>
<text text-anchor="middle" x="1542" y="-160" font-family="Helvetica,sans-Serif" font-size="10.00">::caching_base_type</text>
</a>
</g>
</g>
<!-- Node20&#45;&gt;Node21 -->
<g id="edge22" class="edge">
<title>Node20&#45;&gt;Node21</title>
<path fill="none" stroke="midnightblue" d="M1429.67,-168C1439.77,-168 1450.23,-168 1460.51,-168"/>
<polygon fill="midnightblue" stroke="midnightblue" points="1460.71,-171.5 1470.71,-168 1460.71,-164.5 1460.71,-171.5"/>
</g>
<!-- Node24 -->
<g id="node24" class="node">
<title>Node24</title>
<g id="a_node24"><a xlink:href="namespacewmtk.html#a3daa7951a5f8b78cf4600dc047fcc180" target="_top" xlink:title="Setup a logger object to be used by WildmeshToolkit.">
<polygon fill="none" stroke="black" points="1491.5,-76.5 1491.5,-95.5 1592.5,-95.5 1592.5,-76.5 1491.5,-76.5"/>
<text text-anchor="middle" x="1542" y="-83.5" font-family="Helvetica,sans-Serif" font-size="10.00">wmtk::set_logger</text>
</a>
</g>
</g>
<!-- Node23&#45;&gt;Node24 -->
<g id="edge25" class="edge">
<title>Node23&#45;&gt;Node24</title>
<path fill="none" stroke="midnightblue" d="M1399.33,-86C1423.3,-86 1454.27,-86 1481.13,-86"/>
<polygon fill="midnightblue" stroke="midnightblue" points="1481.21,-89.5 1491.21,-86 1481.21,-82.5 1481.21,-89.5"/>
</g>
<!-- Node26 -->
<g id="node26" class="node">
<title>Node26</title>
<g id="a_node26"><a xlink:href="classwmtk_1_1_tuple.html#a0023f575be92cd5ceeeaaaa3762ea06d" target="_top" xlink:title="Checks if a tuple is &quot;null&quot;. This merely implies the global index is &#45;1.">
<polygon fill="none" stroke="black" points="1302,-38.5 1302,-57.5 1415,-57.5 1415,-38.5 1302,-38.5"/>
<text text-anchor="middle" x="1358.5" y="-45.5" font-family="Helvetica,sans-Serif" font-size="10.00">wmtk::Tuple::is_null</text>
</a>
</g>
</g>
<!-- Node25&#45;&gt;Node26 -->
<g id="edge27" class="edge">
<title>Node25&#45;&gt;Node26</title>
<path fill="none" stroke="midnightblue" d="M1222.76,-48C1244.6,-48 1269.46,-48 1291.83,-48"/>
<polygon fill="midnightblue" stroke="midnightblue" points="1291.92,-51.5 1301.92,-48 1291.92,-44.5 1291.92,-51.5"/>
</g>
<!-- Node27 -->
<g id="node27" class="node">
<title>Node27</title>
<g id="a_node27"><a xlink:href="classwmtk_1_1_mesh.html#ade176d345902d97af8c5da04aa3a095b" target="_top" xlink:title=" ">
<polygon fill="none" stroke="black" points="1288.5,-0.5 1288.5,-19.5 1428.5,-19.5 1428.5,-0.5 1288.5,-0.5"/>
<text text-anchor="middle" x="1358.5" y="-7.5" font-family="Helvetica,sans-Serif" font-size="10.00">wmtk::Mesh::is_removed</text>
</a>
</g>
</g>
<!-- Node25&#45;&gt;Node27 -->
<g id="edge28" class="edge">
<title>Node25&#45;&gt;Node27</title>
<path fill="none" stroke="midnightblue" d="M1212.45,-38.41C1238.75,-33.26 1271.34,-26.88 1298.97,-21.47"/>
<polygon fill="midnightblue" stroke="midnightblue" points="1299.76,-24.88 1308.9,-19.52 1298.41,-18.01 1299.76,-24.88"/>
</g>
<!-- Node28&#45;&gt;Node9 -->
<g id="edge33" class="edge">
<title>Node28&#45;&gt;Node9</title>
<path fill="none" stroke="midnightblue" d="M1043.04,-297.1C1101.98,-294.96 1185.42,-300.41 1246,-339 1271.27,-355.1 1259.49,-376.23 1282,-396 1285.67,-399.23 1289.7,-402.21 1293.91,-404.96"/>
<polygon fill="midnightblue" stroke="midnightblue" points="1292.4,-408.14 1302.78,-410.29 1296,-402.14 1292.4,-408.14"/>
</g>
<!-- Node29&#45;&gt;Node5 -->
<g id="edge35" class="edge">
<title>Node29&#45;&gt;Node5</title>
<path fill="none" stroke="midnightblue" d="M524.34,-327.18C537.41,-325.53 551.32,-323.77 564.73,-322.07"/>
<polygon fill="midnightblue" stroke="midnightblue" points="565.38,-325.52 574.86,-320.79 564.5,-318.58 565.38,-325.52"/>
</g>
</g>
</svg>
