<?xml version="1.0" encoding="UTF-8" standalone="no"?>
<!DOCTYPE svg PUBLIC "-//W3C//DTD SVG 1.1//EN"
 "http://www.w3.org/Graphics/SVG/1.1/DTD/svg11.dtd">
<!-- Generated by graphviz version 2.43.0 (0)
 -->
<!-- Title: wmtk::multimesh::utils::write_tuple_map_attribute_slow Pages: 1 -->
<svg width="578pt" height="182pt"
 viewBox="0.00 0.00 578.00 182.00" xmlns="http://www.w3.org/2000/svg" xmlns:xlink="http://www.w3.org/1999/xlink">
<g id="graph0" class="graph" transform="scale(1 1) rotate(0) translate(4 178)">
<title>wmtk::multimesh::utils::write_tuple_map_attribute_slow</title>
<!-- Node1 -->
<g id="Node000001" class="node">
<title>Node1</title>
<g id="a_Node000001"><a xlink:title=" ">
<polygon fill="#999999" stroke="#666666" points="179,-126 0,-126 0,-96 179,-96 179,-126"/>
<text text-anchor="start" x="8" y="-114" font-family="Helvetica,sans-Serif" font-size="10.00">wmtk::multimesh::utils</text>
<text text-anchor="middle" x="89.5" y="-103" font-family="Helvetica,sans-Serif" font-size="10.00">::write_tuple_map_attribute_slow</text>
</a>
</g>
</g>
<!-- Node2 -->
<g id="Node000002" class="node">
<title>Node2</title>
<g id="a_Node000002"><a xlink:href="classwmtk_1_1_mesh.html#a5f7e9ae7268c929db6161af3e2c6eb73" target="_top" xlink:title=" ">
<polygon fill="white" stroke="#666666" points="347.5,-150 234.5,-150 234.5,-120 347.5,-120 347.5,-150"/>
<text text-anchor="start" x="242.5" y="-138" font-family="Helvetica,sans-Serif" font-size="10.00">wmtk::Mesh::create</text>
<text text-anchor="middle" x="291" y="-127" font-family="Helvetica,sans-Serif" font-size="10.00">_accessor</text>
</a>
</g>
</g>
<!-- Node1&#45;&gt;Node2 -->
<g id="edge1_Node000001_Node000002" class="edge">
<title>Node1&#45;&gt;Node2</title>
<g id="a_edge1_Node000001_Node000002"><a xlink:title=" ">
<path fill="none" stroke="#63b8ff" d="M179.17,-121.67C194.24,-123.48 209.65,-125.33 224.01,-127.06"/>
<polygon fill="#63b8ff" stroke="#63b8ff" points="223.91,-130.57 234.26,-128.29 224.75,-123.62 223.91,-130.57"/>
</a>
</g>
</g>
<!-- Node3 -->
<g id="Node000003" class="node">
<title>Node3</title>
<g id="a_Node000003"><a xlink:href="namespacewmtk_1_1multimesh_1_1utils.html#aa965e96578f254d53e7ca53d617f5c6a" target="_top" xlink:title=" ">
<polygon fill="white" stroke="#666666" points="367,-102 215,-102 215,-72 367,-72 367,-102"/>
<text text-anchor="start" x="223" y="-90" font-family="Helvetica,sans-Serif" font-size="10.00">wmtk::multimesh::utils</text>
<text text-anchor="middle" x="291" y="-79" font-family="Helvetica,sans-Serif" font-size="10.00">::write_tuple_map_attribute</text>
</a>
</g>
</g>
<!-- Node1&#45;&gt;Node3 -->
<g id="edge2_Node000001_Node000003" class="edge">
<title>Node1&#45;&gt;Node3</title>
<g id="a_edge2_Node000001_Node000003"><a xlink:title=" ">
<path fill="none" stroke="#63b8ff" d="M179.17,-100.33C187.6,-99.32 196.14,-98.29 204.54,-97.28"/>
<polygon fill="#63b8ff" stroke="#63b8ff" points="205.2,-100.73 214.71,-96.06 204.36,-93.78 205.2,-100.73"/>
</a>
</g>
</g>
<!-- Node4 -->
<g id="Node000004" class="node">
<title>Node4</title>
<g id="a_Node000004"><a xlink:href="classwmtk_1_1attribute_1_1_accessor.html#ad6fb9ed9ff56571fe257bf0f4b542368" target="_top" xlink:title=" ">
<polygon fill="white" stroke="#666666" points="557.5,-174 415.5,-174 415.5,-144 557.5,-144 557.5,-174"/>
<text text-anchor="start" x="423.5" y="-162" font-family="Helvetica,sans-Serif" font-size="10.00">wmtk::attribute::Accessor</text>
<text text-anchor="middle" x="486.5" y="-151" font-family="Helvetica,sans-Serif" font-size="10.00">::const_vector_attribute</text>
</a>
</g>
</g>
<!-- Node3&#45;&gt;Node4 -->
<g id="edge3_Node000003_Node000004" class="edge">
<title>Node3&#45;&gt;Node4</title>
<g id="a_edge3_Node000003_Node000004"><a xlink:title=" ">
<path fill="none" stroke="#63b8ff" d="M345.57,-102.12C352.9,-104.77 360.23,-107.74 367,-111 384.32,-119.34 385.57,-126.89 403,-135 407.26,-136.98 411.71,-138.84 416.25,-140.57"/>
<polygon fill="#63b8ff" stroke="#63b8ff" points="415.07,-143.86 425.67,-143.95 417.44,-137.28 415.07,-143.86"/>
</a>
</g>
</g>
<!-- Node5 -->
<g id="Node000005" class="node">
<title>Node5</title>
<g id="a_Node000005"><a xlink:href="classwmtk_1_1attribute_1_1_accessor_base.html#abd60539d5779de287d2a0ec31b16c77a" target="_top" xlink:title=" ">
<polygon fill="white" stroke="#666666" points="557.5,-126 415.5,-126 415.5,-96 557.5,-96 557.5,-126"/>
<text text-anchor="start" x="423.5" y="-114" font-family="Helvetica,sans-Serif" font-size="10.00">wmtk::attribute::Accessor</text>
<text text-anchor="middle" x="486.5" y="-103" font-family="Helvetica,sans-Serif" font-size="10.00">Base::dimension</text>
</a>
</g>
</g>
<!-- Node3&#45;&gt;Node5 -->
<g id="edge4_Node000003_Node000005" class="edge">
<title>Node3&#45;&gt;Node5</title>
<g id="a_edge4_Node000003_Node000005"><a xlink:title=" ">
<path fill="none" stroke="#63b8ff" d="M367.09,-96.31C379.58,-97.86 392.58,-99.47 405.19,-101.04"/>
<polygon fill="#63b8ff" stroke="#63b8ff" points="404.85,-104.52 415.21,-102.28 405.71,-97.58 404.85,-104.52"/>
</a>
</g>
</g>
<!-- Node6 -->
<g id="Node000006" class="node">
<title>Node6</title>
<g id="a_Node000006"><a xlink:href="classwmtk_1_1attribute_1_1_tuple_accessor.html#a8d04c3529eb7adeead49e8faa7a119db" target="_top" xlink:title=" ">
<polygon fill="white" stroke="#666666" points="570,-78 403,-78 403,-48 570,-48 570,-78"/>
<text text-anchor="start" x="411" y="-66" font-family="Helvetica,sans-Serif" font-size="10.00">wmtk::attribute::TupleAccessor</text>
<text text-anchor="middle" x="486.5" y="-55" font-family="Helvetica,sans-Serif" font-size="10.00">::dimension</text>
</a>
</g>
</g>
<!-- Node3&#45;&gt;Node6 -->
<g id="edge5_Node000003_Node000006" class="edge">
<title>Node3&#45;&gt;Node6</title>
<g id="a_edge5_Node000003_Node000006"><a xlink:title=" ">
<path fill="none" stroke="#63b8ff" d="M367.09,-77.69C375.49,-76.64 384.12,-75.57 392.7,-74.51"/>
<polygon fill="#63b8ff" stroke="#63b8ff" points="393.26,-77.97 402.75,-73.26 392.39,-71.02 393.26,-77.97"/>
</a>
</g>
</g>
<!-- Node7 -->
<g id="Node000007" class="node">
<title>Node7</title>
<g id="a_Node000007"><a xlink:href="classwmtk_1_1attribute_1_1_tuple_accessor.html#ab380e89ad00405e1e82f83f4d33ec6b1" target="_top" xlink:title=" ">
<polygon fill="white" stroke="#666666" points="570,-30 403,-30 403,0 570,0 570,-30"/>
<text text-anchor="start" x="411" y="-18" font-family="Helvetica,sans-Serif" font-size="10.00">wmtk::attribute::TupleAccessor</text>
<text text-anchor="middle" x="486.5" y="-7" font-family="Helvetica,sans-Serif" font-size="10.00">::vector_attribute</text>
</a>
</g>
</g>
<!-- Node3&#45;&gt;Node7 -->
<g id="edge6_Node000003_Node000007" class="edge">
<title>Node3&#45;&gt;Node7</title>
<g id="a_edge6_Node000003_Node000007"><a xlink:title=" ">
<path fill="none" stroke="#63b8ff" d="M324.11,-71.84C346.05,-61.81 375.94,-48.74 403,-39 408.57,-36.99 414.4,-35.03 420.28,-33.15"/>
<polygon fill="#63b8ff" stroke="#63b8ff" points="421.66,-36.38 430.16,-30.06 419.58,-29.7 421.66,-36.38"/>
</a>
</g>
</g>
</g>
</svg>
