<?xml version="1.0" encoding="UTF-8" standalone="no"?>
<!DOCTYPE svg PUBLIC "-//W3C//DTD SVG 1.1//EN"
 "http://www.w3.org/Graphics/SVG/1.1/DTD/svg11.dtd">
<!-- Generated by graphviz version 2.43.0 (0)
 -->
<!-- Title: wmtk::multimesh::consolidate Pages: 1 -->
<svg width="603pt" height="334pt"
 viewBox="0.00 0.00 603.00 334.00" xmlns="http://www.w3.org/2000/svg" xmlns:xlink="http://www.w3.org/1999/xlink">
<g id="graph0" class="graph" transform="scale(1 1) rotate(0) translate(4 330)">
<title>wmtk::multimesh::consolidate</title>
<!-- Node1 -->
<g id="node1" class="node">
<title>Node1</title>
<g id="a_node1"><a xlink:title=" ">
<polygon fill="#bfbfbf" stroke="black" points="430,-148 430,-167 595,-167 595,-148 430,-148"/>
<text text-anchor="middle" x="512.5" y="-155" font-family="Helvetica,sans-Serif" font-size="10.00">wmtk::multimesh::consolidate</text>
</a>
</g>
</g>
<!-- Node2 -->
<g id="node2" class="node">
<title>Node2</title>
<g id="a_node2"><a xlink:href="namespacewmtk_1_1components_1_1isotropic__remeshing.html#a5bcab5e634086e092020a2edb03a010b" target="_top" xlink:title=" ">
<polygon fill="none" stroke="black" points="215,-295.5 215,-325.5 394,-325.5 394,-295.5 215,-295.5"/>
<text text-anchor="start" x="223" y="-313.5" font-family="Helvetica,sans-Serif" font-size="10.00">wmtk::components::isotropic</text>
<text text-anchor="middle" x="304.5" y="-302.5" font-family="Helvetica,sans-Serif" font-size="10.00">_remeshing::isotropic_remeshing</text>
</a>
</g>
</g>
<!-- Node1&#45;&gt;Node2 -->
<g id="edge1" class="edge">
<title>Node1&#45;&gt;Node2</title>
<path fill="none" stroke="midnightblue" d="M499.91,-175.81C481.14,-203.93 441.38,-257.55 394,-286.5 388.43,-289.9 382.37,-292.83 376.13,-295.35"/>
<polygon fill="midnightblue" stroke="midnightblue" points="502.92,-177.6 505.45,-167.32 497.06,-173.78 502.92,-177.6"/>
</g>
<!-- Node4 -->
<g id="node4" class="node">
<title>Node4</title>
<g id="a_node4"><a xlink:href="namespacewmtk_1_1components_1_1longest__edge__split.html#a0be451c677a35037d6e49f97356604cb" target="_top" xlink:title="Perform longes&#45;edge split on a mesh.">
<polygon fill="none" stroke="black" points="219.5,-246.5 219.5,-276.5 389.5,-276.5 389.5,-246.5 219.5,-246.5"/>
<text text-anchor="start" x="227.5" y="-264.5" font-family="Helvetica,sans-Serif" font-size="10.00">wmtk::components::longest</text>
<text text-anchor="middle" x="304.5" y="-253.5" font-family="Helvetica,sans-Serif" font-size="10.00">_edge_split::longest_edge_split</text>
</a>
</g>
</g>
<!-- Node1&#45;&gt;Node4 -->
<g id="edge3" class="edge">
<title>Node1&#45;&gt;Node4</title>
<path fill="none" stroke="midnightblue" d="M492.29,-173.59C469.97,-191.53 431.41,-220.29 394,-237.5 386.77,-240.83 378.99,-243.77 371.14,-246.35"/>
<polygon fill="midnightblue" stroke="midnightblue" points="494.74,-176.1 500.27,-167.06 490.31,-170.68 494.74,-176.1"/>
</g>
<!-- Node6 -->
<g id="node6" class="node">
<title>Node6</title>
<g id="a_node6"><a xlink:href="namespacewmtk_1_1components_1_1internal.html#a8890d5e5bb5f11779d4e40e07882253a" target="_top" xlink:title=" ">
<polygon fill="none" stroke="black" points="227.5,-197.5 227.5,-227.5 381.5,-227.5 381.5,-197.5 227.5,-197.5"/>
<text text-anchor="start" x="235.5" y="-215.5" font-family="Helvetica,sans-Serif" font-size="10.00">wmtk::components::internal</text>
<text text-anchor="middle" x="304.5" y="-204.5" font-family="Helvetica,sans-Serif" font-size="10.00">::periodic_optimization</text>
</a>
</g>
</g>
<!-- Node1&#45;&gt;Node6 -->
<g id="edge5" class="edge">
<title>Node1&#45;&gt;Node6</title>
<path fill="none" stroke="midnightblue" d="M465.64,-169.75C435.01,-177.92 394.53,-188.73 361.93,-197.43"/>
<polygon fill="midnightblue" stroke="midnightblue" points="466.86,-173.04 475.62,-167.08 465.05,-166.28 466.86,-173.04"/>
</g>
<!-- Node8 -->
<g id="node8" class="node">
<title>Node8</title>
<g id="a_node8"><a xlink:href="namespacewmtk_1_1components_1_1shortest__edge__collapse.html#a13c53b8b70fc1b63e7bdb22318139dd9" target="_top" xlink:title="Perform shortest&#45;edge collapse on a triangular surface mesh.">
<polygon fill="none" stroke="black" points="226.5,-137 226.5,-178 382.5,-178 382.5,-137 226.5,-137"/>
<text text-anchor="start" x="234.5" y="-166" font-family="Helvetica,sans-Serif" font-size="10.00">wmtk::components::shortest</text>
<text text-anchor="start" x="234.5" y="-155" font-family="Helvetica,sans-Serif" font-size="10.00">_edge_collapse::shortest</text>
<text text-anchor="middle" x="304.5" y="-144" font-family="Helvetica,sans-Serif" font-size="10.00">_edge_collapse</text>
</a>
</g>
</g>
<!-- Node1&#45;&gt;Node8 -->
<g id="edge7" class="edge">
<title>Node1&#45;&gt;Node8</title>
<path fill="none" stroke="midnightblue" d="M419.53,-157.5C407.25,-157.5 394.75,-157.5 382.75,-157.5"/>
<polygon fill="midnightblue" stroke="midnightblue" points="419.79,-161 429.79,-157.5 419.79,-154 419.79,-161"/>
</g>
<!-- Node10 -->
<g id="node10" class="node">
<title>Node10</title>
<g id="a_node10"><a xlink:href="namespacewmtk_1_1components.html#ac6ca52668bd22e164d4baf59ec533864" target="_top" xlink:title=" ">
<polygon fill="none" stroke="black" points="215,-99 215,-118 394,-118 394,-99 215,-99"/>
<text text-anchor="middle" x="304.5" y="-106" font-family="Helvetica,sans-Serif" font-size="10.00">wmtk::components::wildmeshing</text>
</a>
</g>
</g>
<!-- Node1&#45;&gt;Node10 -->
<g id="edge9" class="edge">
<title>Node1&#45;&gt;Node10</title>
<path fill="none" stroke="midnightblue" d="M465.66,-145.36C443.98,-139.73 417.71,-133.07 394,-127.5 380.23,-124.27 365.21,-120.96 351.51,-118.03"/>
<polygon fill="midnightblue" stroke="midnightblue" points="465.03,-148.81 475.59,-147.95 466.8,-142.04 465.03,-148.81"/>
</g>
<!-- Node11 -->
<g id="node11" class="node">
<title>Node11</title>
<g id="a_node11"><a xlink:href="namespacewmtk_1_1components_1_1internal.html#a28a63b9ae929bfe3ccb0fa3a266a272c" target="_top" xlink:title=" ">
<polygon fill="none" stroke="black" points="227.5,-49.5 227.5,-79.5 381.5,-79.5 381.5,-49.5 227.5,-49.5"/>
<text text-anchor="start" x="235.5" y="-67.5" font-family="Helvetica,sans-Serif" font-size="10.00">wmtk::components::internal</text>
<text text-anchor="middle" x="304.5" y="-56.5" font-family="Helvetica,sans-Serif" font-size="10.00">::wildmeshing2d</text>
</a>
</g>
</g>
<!-- Node1&#45;&gt;Node11 -->
<g id="edge10" class="edge">
<title>Node1&#45;&gt;Node11</title>
<path fill="none" stroke="midnightblue" d="M489.27,-142.37C466.26,-127.27 428.88,-104.25 394,-89.5 385.32,-85.83 375.95,-82.53 366.65,-79.61"/>
<polygon fill="midnightblue" stroke="midnightblue" points="487.36,-145.31 497.63,-147.93 491.24,-139.48 487.36,-145.31"/>
</g>
<!-- Node13 -->
<g id="node13" class="node">
<title>Node13</title>
<g id="a_node13"><a xlink:href="namespacewmtk_1_1components_1_1internal.html#a798951bc2a6b1069a5ae8c946ddfdecd" target="_top" xlink:title=" ">
<polygon fill="none" stroke="black" points="227.5,-0.5 227.5,-30.5 381.5,-30.5 381.5,-0.5 227.5,-0.5"/>
<text text-anchor="start" x="235.5" y="-18.5" font-family="Helvetica,sans-Serif" font-size="10.00">wmtk::components::internal</text>
<text text-anchor="middle" x="304.5" y="-7.5" font-family="Helvetica,sans-Serif" font-size="10.00">::wildmeshing3d</text>
</a>
</g>
</g>
<!-- Node1&#45;&gt;Node13 -->
<g id="edge12" class="edge">
<title>Node1&#45;&gt;Node13</title>
<path fill="none" stroke="midnightblue" d="M498.71,-139.69C479.12,-113.72 439.17,-65.74 394,-39.5 388.08,-36.06 381.65,-33.1 375.05,-30.56"/>
<polygon fill="midnightblue" stroke="midnightblue" points="496,-141.92 504.76,-147.88 501.63,-137.76 496,-141.92"/>
</g>
<!-- Node3 -->
<g id="node3" class="node">
<title>Node3</title>
<g id="a_node3"><a xlink:href="test__component__isotropic__remeshing_8cpp.html#a51ae85bc413e9940267e8a366e0bcc9f" target="_top" xlink:title=" ">
<polygon fill="none" stroke="black" points="54,-301 54,-320 125,-320 125,-301 54,-301"/>
<text text-anchor="middle" x="89.5" y="-308" font-family="Helvetica,sans-Serif" font-size="10.00">TEST_CASE</text>
</a>
</g>
</g>
<!-- Node2&#45;&gt;Node3 -->
<g id="edge2" class="edge">
<title>Node2&#45;&gt;Node3</title>
<path fill="none" stroke="midnightblue" d="M204.69,-310.5C176.22,-310.5 147.01,-310.5 125.26,-310.5"/>
<polygon fill="midnightblue" stroke="midnightblue" points="204.71,-314 214.71,-310.5 204.71,-307 204.71,-314"/>
</g>
<!-- Node5 -->
<g id="node5" class="node">
<title>Node5</title>
<g id="a_node5"><a xlink:href="namespacewmtk_1_1components_1_1longest__edge__split.html#a91cd0e6f904d4c6d1e0000504cc0a257" target="_top" xlink:title="Perform longes&#45;edge split on a mesh.">
<polygon fill="none" stroke="black" points="4.5,-246.5 4.5,-276.5 174.5,-276.5 174.5,-246.5 4.5,-246.5"/>
<text text-anchor="start" x="12.5" y="-264.5" font-family="Helvetica,sans-Serif" font-size="10.00">wmtk::components::longest</text>
<text text-anchor="middle" x="89.5" y="-253.5" font-family="Helvetica,sans-Serif" font-size="10.00">_edge_split::longest_edge_split</text>
</a>
</g>
</g>
<!-- Node4&#45;&gt;Node5 -->
<g id="edge4" class="edge">
<title>Node4&#45;&gt;Node5</title>
<path fill="none" stroke="midnightblue" d="M209.28,-261.5C197.79,-261.5 186.1,-261.5 174.77,-261.5"/>
<polygon fill="midnightblue" stroke="midnightblue" points="209.32,-265 219.32,-261.5 209.32,-258 209.32,-265"/>
</g>
<!-- Node7 -->
<g id="node7" class="node">
<title>Node7</title>
<g id="a_node7"><a xlink:href="namespacewmtk_1_1components.html#a4166e4880553cfacbf79ac3515a637cd" target="_top" xlink:title=" ">
<polygon fill="none" stroke="black" points="12,-197.5 12,-227.5 167,-227.5 167,-197.5 12,-197.5"/>
<text text-anchor="start" x="20" y="-215.5" font-family="Helvetica,sans-Serif" font-size="10.00">wmtk::components::periodic</text>
<text text-anchor="middle" x="89.5" y="-204.5" font-family="Helvetica,sans-Serif" font-size="10.00">_optimization</text>
</a>
</g>
</g>
<!-- Node6&#45;&gt;Node7 -->
<g id="edge6" class="edge">
<title>Node6&#45;&gt;Node7</title>
<path fill="none" stroke="midnightblue" d="M217.06,-212.5C200.6,-212.5 183.47,-212.5 167.34,-212.5"/>
<polygon fill="midnightblue" stroke="midnightblue" points="217.2,-216 227.2,-212.5 217.2,-209 217.2,-216"/>
</g>
<!-- Node9 -->
<g id="node9" class="node">
<title>Node9</title>
<g id="a_node9"><a xlink:href="namespacewmtk_1_1components_1_1shortest__edge__collapse.html#a1be5a09251cc55d3030f671a39c7ed47" target="_top" xlink:title="Perform shortest&#45;edge collapse on a triangular surface mesh.">
<polygon fill="none" stroke="black" points="11.5,-137 11.5,-178 167.5,-178 167.5,-137 11.5,-137"/>
<text text-anchor="start" x="19.5" y="-166" font-family="Helvetica,sans-Serif" font-size="10.00">wmtk::components::shortest</text>
<text text-anchor="start" x="19.5" y="-155" font-family="Helvetica,sans-Serif" font-size="10.00">_edge_collapse::shortest</text>
<text text-anchor="middle" x="89.5" y="-144" font-family="Helvetica,sans-Serif" font-size="10.00">_edge_collapse</text>
</a>
</g>
</g>
<!-- Node8&#45;&gt;Node9 -->
<g id="edge8" class="edge">
<title>Node8&#45;&gt;Node9</title>
<path fill="none" stroke="midnightblue" d="M215.92,-157.5C199.96,-157.5 183.42,-157.5 167.79,-157.5"/>
<polygon fill="midnightblue" stroke="midnightblue" points="216.3,-161 226.3,-157.5 216.3,-154 216.3,-161"/>
</g>
<!-- Node12 -->
<g id="node12" class="node">
<title>Node12</title>
<g id="a_node12"><a xlink:href="namespacewmtk_1_1components.html#a7c75b44e67ee059f20849f2ea5e04e49" target="_top" xlink:title=" ">
<polygon fill="none" stroke="black" points="0,-31 0,-50 179,-50 179,-31 0,-31"/>
<text text-anchor="middle" x="89.5" y="-38" font-family="Helvetica,sans-Serif" font-size="10.00">wmtk::components::wildmeshing</text>
</a>
</g>
</g>
<!-- Node11&#45;&gt;Node12 -->
<g id="edge11" class="edge">
<title>Node11&#45;&gt;Node12</title>
<path fill="none" stroke="midnightblue" d="M217.16,-54.77C203.23,-53.2 188.82,-51.58 174.93,-50.01"/>
<polygon fill="midnightblue" stroke="midnightblue" points="216.87,-58.26 227.2,-55.9 217.66,-51.31 216.87,-58.26"/>
</g>
<!-- Node13&#45;&gt;Node12 -->
<g id="edge13" class="edge">
<title>Node13&#45;&gt;Node12</title>
<path fill="none" stroke="midnightblue" d="M216.95,-25.66C201.98,-27.41 186.48,-29.24 171.66,-30.97"/>
<polygon fill="midnightblue" stroke="midnightblue" points="217.68,-29.1 227.2,-24.45 216.86,-22.14 217.68,-29.1"/>
</g>
</g>
</svg>
