<?xml version="1.0" encoding="UTF-8" standalone="no"?>
<!DOCTYPE svg PUBLIC "-//W3C//DTD SVG 1.1//EN"
 "http://www.w3.org/Graphics/SVG/1.1/DTD/svg11.dtd">
<!-- Generated by graphviz version 2.43.0 (0)
 -->
<!-- Title: wmtk::components::mesh_info Pages: 1 -->
<!--zoomable 127 -->
<svg id="main" version="1.1" xmlns="http://www.w3.org/2000/svg" xmlns:xlink="http://www.w3.org/1999/xlink" xml:space="preserve" onload="init(evt)">
<style type="text/css"><![CDATA[
.edge:hover path { stroke: red; }
.edge:hover polygon { stroke: red; fill: red; }
]]></style>
<script type="text/javascript"><![CDATA[
var edges = document.getElementsByTagName('g');
if (edges && edges.length) {
  for (var i=0;i<edges.length;i++) {
    if (edges[i].id.substr(0,4)=='edge') {
      edges[i].setAttribute('class','edge');
    }
  }
}
]]></script>
        <defs>
                <circle id="rim" cx="0" cy="0" r="7"/>
                <circle id="rim2" cx="0" cy="0" r="3.5"/>
                <g id="zoomPlus">
                        <use xlink:href="#rim" fill="#404040">
                                <set attributeName="fill" to="#808080" begin="zoomplus.mouseover" end="zoomplus.mouseout"/>
                        </use>
                        <path d="M-4,0h8M0,-4v8" fill="none" stroke="white" stroke-width="1.5" pointer-events="none"/>
                </g>
                <g id="zoomMin">
                        <use xlink:href="#rim" fill="#404040">
                                <set attributeName="fill" to="#808080" begin="zoomminus.mouseover" end="zoomminus.mouseout"/>
                        </use>
                        <path d="M-4,0h8" fill="none" stroke="white" stroke-width="1.5" pointer-events="none"/>
                </g>
                <g id="dirArrow">
                        <path fill="none" stroke="white" stroke-width="1.5" d="M0,-3.0v7 M-2.5,-0.5L0,-3.0L2.5,-0.5"/>
                </g>
               <g id="resetDef">
                       <use xlink:href="#rim2" fill="#404040">
                               <set attributeName="fill" to="#808080" begin="reset.mouseover" end="reset.mouseout"/>
                       </use>
               </g>
        </defs>

<script type="text/javascript">
var viewWidth = 1020;
var viewHeight = 127;
var sectionId = 'dynsection-19';
</script>
<script xlink:href="svgpan.js"/>
<svg id="graph" class="graph">
<g id="viewport">
<title>wmtk::components::mesh_info</title>
<!-- Node1 -->
<g id="node1" class="node">
<title>Node1</title>
<g id="a_node1"><a xlink:title=" ">
<polygon fill="#bfbfbf" stroke="black" points="0,-61.5 0,-80.5 167,-80.5 167,-61.5 0,-61.5"/>
<text text-anchor="middle" x="83.5" y="-68.5" font-family="Helvetica,sans-Serif" font-size="10.00">wmtk::components::mesh_info</text>
</a>
</g>
</g>
<!-- Node2 -->
<g id="node2" class="node">
<title>Node2</title>
<g id="a_node2"><a xlink:href="classwmtk_1_1_mesh.html#a6d2a546c8f661bf6386cf845a1693d2f" target="_top" xlink:title="Generate a vector of Tuples from global vertex/edge/triangle/tetrahedron index.">
<polygon fill="none" stroke="black" points="222.5,-99.5 222.5,-118.5 338.5,-118.5 338.5,-99.5 222.5,-99.5"/>
<text text-anchor="middle" x="280.5" y="-106.5" font-family="Helvetica,sans-Serif" font-size="10.00">wmtk::Mesh::get_all</text>
</a>
</g>
</g>
<!-- Node1&#45;&gt;Node2 -->
<g id="edge1" class="edge">
<title>Node1&#45;&gt;Node2</title>
<path fill="none" stroke="midnightblue" d="M133.46,-80.54C159.88,-85.69 192.69,-92.08 220.52,-97.51"/>
<polygon fill="midnightblue" stroke="midnightblue" points="220.04,-100.98 230.52,-99.46 221.38,-94.11 220.04,-100.98"/>
</g>
<!-- Node3 -->
<g id="node3" class="node">
<title>Node3</title>
<g id="a_node3"><a xlink:href="namespacewmtk.html#a6a35f11c12436093d26fdd8be6fecc06" target="_top" xlink:title="Retrieves the current logger.">
<polygon fill="none" stroke="black" points="240,-61.5 240,-80.5 321,-80.5 321,-61.5 240,-61.5"/>
<text text-anchor="middle" x="280.5" y="-68.5" font-family="Helvetica,sans-Serif" font-size="10.00">wmtk::logger</text>
</a>
</g>
</g>
<!-- Node1&#45;&gt;Node3 -->
<g id="edge2" class="edge">
<title>Node1&#45;&gt;Node3</title>
<path fill="none" stroke="midnightblue" d="M167.2,-71C188.48,-71 210.73,-71 229.75,-71"/>
<polygon fill="midnightblue" stroke="midnightblue" points="229.96,-74.5 239.96,-71 229.96,-67.5 229.96,-74.5"/>
</g>
<!-- Node5 -->
<g id="node5" class="node">
<title>Node5</title>
<g id="a_node5"><a xlink:href="classwmtk_1_1io_1_1_cache.html#ae8e0a75e2e3df0e8a1680ab62bbc814e" target="_top" xlink:title="Load a mesh from cache.">
<polygon fill="none" stroke="black" points="203,-22.5 203,-41.5 358,-41.5 358,-22.5 203,-22.5"/>
<text text-anchor="middle" x="280.5" y="-29.5" font-family="Helvetica,sans-Serif" font-size="10.00">wmtk::io::Cache::read_mesh</text>
</a>
</g>
</g>
<!-- Node1&#45;&gt;Node5 -->
<g id="edge4" class="edge">
<title>Node1&#45;&gt;Node5</title>
<path fill="none" stroke="midnightblue" d="M132.2,-61.46C159.33,-56.03 193.5,-49.2 222.09,-43.48"/>
<polygon fill="midnightblue" stroke="midnightblue" points="222.83,-46.9 231.95,-41.51 221.46,-40.04 222.83,-46.9"/>
</g>
<!-- Node4 -->
<g id="node4" class="node">
<title>Node4</title>
<g id="a_node4"><a xlink:href="namespacewmtk.html#a3daa7951a5f8b78cf4600dc047fcc180" target="_top" xlink:title="Setup a logger object to be used by WildmeshToolkit.">
<polygon fill="none" stroke="black" points="404.5,-63.5 404.5,-82.5 505.5,-82.5 505.5,-63.5 404.5,-63.5"/>
<text text-anchor="middle" x="455" y="-70.5" font-family="Helvetica,sans-Serif" font-size="10.00">wmtk::set_logger</text>
</a>
</g>
</g>
<!-- Node3&#45;&gt;Node4 -->
<g id="edge3" class="edge">
<title>Node3&#45;&gt;Node4</title>
<path fill="none" stroke="midnightblue" d="M321.07,-71.46C342.75,-71.71 370.04,-72.03 394.26,-72.31"/>
<polygon fill="midnightblue" stroke="midnightblue" points="394.38,-75.81 404.42,-72.43 394.46,-68.81 394.38,-75.81"/>
</g>
<!-- Node6 -->
<g id="node6" class="node">
<title>Node6</title>
<g id="a_node6"><a xlink:href="classwmtk_1_1io_1_1_cache.html#ac5338ba0053a8bb7479e759f1e7aafde" target="_top" xlink:title=" ">
<polygon fill="none" stroke="black" points="394,-14 394,-44 516,-44 516,-14 394,-14"/>
<text text-anchor="start" x="402" y="-32" font-family="Helvetica,sans-Serif" font-size="10.00">wmtk::io::Cache::load</text>
<text text-anchor="middle" x="455" y="-21" font-family="Helvetica,sans-Serif" font-size="10.00">_multimesh</text>
</a>
</g>
</g>
<!-- Node5&#45;&gt;Node6 -->
<g id="edge5" class="edge">
<title>Node5&#45;&gt;Node6</title>
<path fill="none" stroke="midnightblue" d="M358.17,-30.67C366.67,-30.52 375.31,-30.37 383.73,-30.22"/>
<polygon fill="midnightblue" stroke="midnightblue" points="383.94,-33.72 393.88,-30.05 383.82,-26.72 383.94,-33.72"/>
</g>
<!-- Node7 -->
<g id="node7" class="node">
<title>Node7</title>
<g id="a_node7"><a xlink:href="classwmtk_1_1io_1_1_cache.html#a4de81893405bfe6c61b847c5638a6baa" target="_top" xlink:title="Get the path where the file with the given name is stored.">
<polygon fill="none" stroke="black" points="552,-14 552,-44 669,-44 669,-14 552,-14"/>
<text text-anchor="start" x="560" y="-32" font-family="Helvetica,sans-Serif" font-size="10.00">wmtk::io::Cache::get</text>
<text text-anchor="middle" x="610.5" y="-21" font-family="Helvetica,sans-Serif" font-size="10.00">_file_path</text>
</a>
</g>
</g>
<!-- Node6&#45;&gt;Node7 -->
<g id="edge6" class="edge">
<title>Node6&#45;&gt;Node7</title>
<path fill="none" stroke="midnightblue" d="M516.23,-29C524.59,-29 533.22,-29 541.71,-29"/>
<polygon fill="midnightblue" stroke="midnightblue" points="541.96,-32.5 551.96,-29 541.96,-25.5 541.96,-32.5"/>
</g>
<!-- Node8 -->
<g id="node8" class="node">
<title>Node8</title>
<g id="a_node8"><a xlink:href="classwmtk_1_1io_1_1_cache.html#a5b5aec47c3b367c6a55eec437ea86c7f" target="_top" xlink:title="Create a file with the given name in the cache without overwriting any file with the same name.">
<polygon fill="none" stroke="black" points="705,-14 705,-44 837,-44 837,-14 705,-14"/>
<text text-anchor="start" x="713" y="-32" font-family="Helvetica,sans-Serif" font-size="10.00">wmtk::io::Cache::create</text>
<text text-anchor="middle" x="771" y="-21" font-family="Helvetica,sans-Serif" font-size="10.00">_unique_file</text>
</a>
</g>
</g>
<!-- Node7&#45;&gt;Node8 -->
<g id="edge7" class="edge">
<title>Node7&#45;&gt;Node8</title>
<path fill="none" stroke="midnightblue" d="M669.17,-29C677.5,-29 686.18,-29 694.8,-29"/>
<polygon fill="midnightblue" stroke="midnightblue" points="694.86,-32.5 704.86,-29 694.86,-25.5 694.86,-32.5"/>
</g>
<!-- Node9 -->
<g id="node9" class="node">
<title>Node9</title>
<g id="a_node9"><a xlink:href="_cache_8cpp.html#a5b4cac697f6cc5b012ce6710b3c08044" target="_top" xlink:title=" ">
<polygon fill="none" stroke="black" points="873,-38.5 873,-57.5 1012,-57.5 1012,-38.5 873,-38.5"/>
<text text-anchor="middle" x="942.5" y="-45.5" font-family="Helvetica,sans-Serif" font-size="10.00">nanoseconds_timestamp</text>
</a>
</g>
</g>
<!-- Node8&#45;&gt;Node9 -->
<g id="edge8" class="edge">
<title>Node8&#45;&gt;Node9</title>
<path fill="none" stroke="midnightblue" d="M837.05,-36.29C845.5,-37.24 854.23,-38.22 862.88,-39.19"/>
<polygon fill="midnightblue" stroke="midnightblue" points="862.64,-42.68 872.97,-40.32 863.42,-35.73 862.64,-42.68"/>
</g>
<!-- Node10 -->
<g id="node10" class="node">
<title>Node10</title>
<g id="a_node10"><a xlink:href="_cache_8cpp.html#acbefa9838640a2761e4c12367c464a17" target="_top" xlink:title=" ">
<polygon fill="none" stroke="black" points="896.5,-0.5 896.5,-19.5 988.5,-19.5 988.5,-0.5 896.5,-0.5"/>
<text text-anchor="middle" x="942.5" y="-7.5" font-family="Helvetica,sans-Serif" font-size="10.00">number_to_hex</text>
</a>
</g>
</g>
<!-- Node8&#45;&gt;Node10 -->
<g id="edge9" class="edge">
<title>Node8&#45;&gt;Node10</title>
<path fill="none" stroke="midnightblue" d="M837.05,-21.71C853.28,-19.89 870.54,-17.95 886.25,-16.19"/>
<polygon fill="midnightblue" stroke="midnightblue" points="886.78,-19.66 896.33,-15.06 886,-12.7 886.78,-19.66"/>
</g>
</g>
</svg>
        <g id="navigator" transform="translate(0 0)" fill="#404254">
                <rect fill="#f2f5e9" fill-opacity="0.5" stroke="#606060" stroke-width=".5" x="0" y="0" width="60" height="60"/>
                <use id="zoomplus" xlink:href="#zoomPlus" x="17" y="9" onmousedown="handleZoom(evt,'in')"/>
                <use id="zoomminus" xlink:href="#zoomMin" x="42" y="9" onmousedown="handleZoom(evt,'out')"/>
                <use id="reset" xlink:href="#resetDef" x="30" y="36" onmousedown="handleReset()"/>
                <g id="arrowUp" xlink:href="#dirArrow" transform="translate(30 24)" onmousedown="handlePan(0,-1)">
                  <use xlink:href="#rim" fill="#404040">
                        <set attributeName="fill" to="#808080" begin="arrowUp.mouseover" end="arrowUp.mouseout"/>
                  </use>
                  <path fill="none" stroke="white" stroke-width="1.5" d="M0,-3.0v7 M-2.5,-0.5L0,-3.0L2.5,-0.5"/>
                </g>
                <g id="arrowRight" xlink:href="#dirArrow" transform="rotate(90) translate(36 -43)" onmousedown="handlePan(1,0)">
                  <use xlink:href="#rim" fill="#404040">
                        <set attributeName="fill" to="#808080" begin="arrowRight.mouseover" end="arrowRight.mouseout"/>
                  </use>
                  <path fill="none" stroke="white" stroke-width="1.5" d="M0,-3.0v7 M-2.5,-0.5L0,-3.0L2.5,-0.5"/>
                </g>
                <g id="arrowDown" xlink:href="#dirArrow" transform="rotate(180) translate(-30 -48)" onmousedown="handlePan(0,1)">
                  <use xlink:href="#rim" fill="#404040">
                        <set attributeName="fill" to="#808080" begin="arrowDown.mouseover" end="arrowDown.mouseout"/>
                  </use>
                  <path fill="none" stroke="white" stroke-width="1.5" d="M0,-3.0v7 M-2.5,-0.5L0,-3.0L2.5,-0.5"/>
                </g>
                <g id="arrowLeft" xlink:href="#dirArrow" transform="rotate(270) translate(-36 17)" onmousedown="handlePan(-1,0)">
                  <use xlink:href="#rim" fill="#404040">
                        <set attributeName="fill" to="#808080" begin="arrowLeft.mouseover" end="arrowLeft.mouseout"/>
                  </use>
                  <path fill="none" stroke="white" stroke-width="1.5" d="M0,-3.0v7 M-2.5,-0.5L0,-3.0L2.5,-0.5"/>
                </g>
        </g>
        <svg viewBox="0 0 15 15" width="100%" height="30px" preserveAspectRatio="xMaxYMin meet">
         <g id="arrow_out" transform="scale(0.3 0.3)">
          <a xlink:href="namespacewmtk_1_1components_ae2940d2f56c63d17f0f4d53eee921a8b_cgraph_org.svg" target="_base">
           <rect id="button" ry="5" rx="5" y="6" x="6" height="38" width="38"
                fill="#f2f5e9" fill-opacity="0.5" stroke="#606060" stroke-width="1.0"/>
           <path id="arrow"
             d="M 11.500037,31.436501 C 11.940474,20.09759 22.043105,11.32322 32.158766,21.979434 L 37.068811,17.246167 C 37.068811,17.246167 37.088388,32 37.088388,32 L 22.160133,31.978069 C 22.160133,31.978069 26.997745,27.140456 26.997745,27.140456 C 18.528582,18.264221 13.291696,25.230495 11.500037,31.436501 z"
             style="fill:#404040;"/>
          </a>
         </g>
        </svg>
</svg>
