<?xml version="1.0" encoding="UTF-8" standalone="no"?>
<!DOCTYPE svg PUBLIC "-//W3C//DTD SVG 1.1//EN"
 "http://www.w3.org/Graphics/SVG/1.1/DTD/svg11.dtd">
<!-- Generated by graphviz version 2.43.0 (0)
 -->
<!-- Title: wmtk::mesh_utils::set_matrix_attribute Pages: 1 -->
<!--zoomable 381 -->
<svg id="main" version="1.1" xmlns="http://www.w3.org/2000/svg" xmlns:xlink="http://www.w3.org/1999/xlink" xml:space="preserve" onload="init(evt)">
<style type="text/css"><![CDATA[
.edge:hover path { stroke: red; }
.edge:hover polygon { stroke: red; fill: red; }
]]></style>
<script type="text/javascript"><![CDATA[
var edges = document.getElementsByTagName('g');
if (edges && edges.length) {
  for (var i=0;i<edges.length;i++) {
    if (edges[i].id.substr(0,4)=='edge') {
      edges[i].setAttribute('class','edge');
    }
  }
}
]]></script>
        <defs>
                <circle id="rim" cx="0" cy="0" r="7"/>
                <circle id="rim2" cx="0" cy="0" r="3.5"/>
                <g id="zoomPlus">
                        <use xlink:href="#rim" fill="#404040">
                                <set attributeName="fill" to="#808080" begin="zoomplus.mouseover" end="zoomplus.mouseout"/>
                        </use>
                        <path d="M-4,0h8M0,-4v8" fill="none" stroke="white" stroke-width="1.5" pointer-events="none"/>
                </g>
                <g id="zoomMin">
                        <use xlink:href="#rim" fill="#404040">
                                <set attributeName="fill" to="#808080" begin="zoomminus.mouseover" end="zoomminus.mouseout"/>
                        </use>
                        <path d="M-4,0h8" fill="none" stroke="white" stroke-width="1.5" pointer-events="none"/>
                </g>
                <g id="dirArrow">
                        <path fill="none" stroke="white" stroke-width="1.5" d="M0,-3.0v7 M-2.5,-0.5L0,-3.0L2.5,-0.5"/>
                </g>
               <g id="resetDef">
                       <use xlink:href="#rim2" fill="#404040">
                               <set attributeName="fill" to="#808080" begin="reset.mouseover" end="reset.mouseout"/>
                       </use>
               </g>
        </defs>

<script type="text/javascript">
var viewWidth = 1415;
var viewHeight = 381;
var sectionId = 'dynsection-6';
</script>
<script xlink:href="svgpan.js"/>
<svg id="graph" class="graph">
<g id="viewport">
<title>wmtk::mesh_utils::set_matrix_attribute</title>
<!-- Node1 -->
<g id="node1" class="node">
<title>Node1</title>
<g id="a_node1"><a xlink:title=" ">
<polygon fill="#bfbfbf" stroke="black" points="1282,-195 1282,-225 1407,-225 1407,-195 1282,-195"/>
<text text-anchor="start" x="1290" y="-213" font-family="Helvetica,sans-Serif" font-size="10.00">wmtk::mesh_utils::set</text>
<text text-anchor="middle" x="1344.5" y="-202" font-family="Helvetica,sans-Serif" font-size="10.00">_matrix_attribute</text>
</a>
</g>
</g>
<!-- Node2 -->
<g id="node2" class="node">
<title>Node2</title>
<g id="a_node2"><a xlink:href="namespacewmtk_1_1components.html#a21e25d3a6f734e991354c2294bf49bbe" target="_top" xlink:title=" ">
<polygon fill="none" stroke="black" points="1057,-353.5 1057,-372.5 1246,-372.5 1246,-353.5 1057,-353.5"/>
<text text-anchor="middle" x="1151.5" y="-360.5" font-family="Helvetica,sans-Serif" font-size="10.00">wmtk::components::delaunay_exec</text>
</a>
</g>
</g>
<!-- Node1&#45;&gt;Node2 -->
<g id="edge1" class="edge">
<title>Node1&#45;&gt;Node2</title>
<path fill="none" stroke="midnightblue" d="M1332.67,-234.51C1317.76,-265.21 1287.93,-317.05 1246,-344 1240.01,-347.85 1233.39,-350.94 1226.53,-353.42"/>
<polygon fill="midnightblue" stroke="midnightblue" points="1335.89,-235.88 1336.98,-225.34 1329.56,-232.9 1335.89,-235.88"/>
</g>
<!-- Node3 -->
<g id="node3" class="node">
<title>Node3</title>
<g id="a_node3"><a xlink:href="namespacewmtk_1_1components.html#a2aa35ea56a54c5b65349ced551dd1429" target="_top" xlink:title=" ">
<polygon fill="none" stroke="black" points="1078.5,-315.5 1078.5,-334.5 1224.5,-334.5 1224.5,-315.5 1078.5,-315.5"/>
<text text-anchor="middle" x="1151.5" y="-322.5" font-family="Helvetica,sans-Serif" font-size="10.00">wmtk::components::fusion</text>
</a>
</g>
</g>
<!-- Node1&#45;&gt;Node3 -->
<g id="edge2" class="edge">
<title>Node1&#45;&gt;Node3</title>
<path fill="none" stroke="midnightblue" d="M1325.08,-232.76C1307.05,-253.55 1277.73,-283.62 1246,-301 1234.54,-307.28 1221.38,-311.96 1208.62,-315.43"/>
<polygon fill="midnightblue" stroke="midnightblue" points="1327.85,-234.92 1331.64,-225.02 1322.51,-230.39 1327.85,-234.92"/>
</g>
<!-- Node4 -->
<g id="node4" class="node">
<title>Node4</title>
<g id="a_node4"><a xlink:href="test__component__fusion_8cpp.html#ad717d3fcca492f6237e8e5f0e3455e4e" target="_top" xlink:title=" ">
<polygon fill="none" stroke="black" points="901.5,-312.5 901.5,-331.5 972.5,-331.5 972.5,-312.5 901.5,-312.5"/>
<text text-anchor="middle" x="937" y="-319.5" font-family="Helvetica,sans-Serif" font-size="10.00">TEST_CASE</text>
</a>
</g>
</g>
<!-- Node1&#45;&gt;Node4 -->
<g id="edge27" class="edge">
<title>Node1&#45;&gt;Node4</title>
<path fill="none" stroke="midnightblue" d="M1314.95,-230.76C1296.23,-243.41 1270.71,-258.84 1246,-268 1196.12,-286.5 1042.07,-308.32 972.61,-317.54"/>
<polygon fill="midnightblue" stroke="midnightblue" points="1317.07,-233.56 1323.31,-225 1313.09,-227.8 1317.07,-233.56"/>
</g>
<!-- Node5 -->
<g id="node5" class="node">
<title>Node5</title>
<g id="a_node5"><a xlink:href="namespacewmtk_1_1utils.html#a8d59b38c3560ad4f49865c212b854456" target="_top" xlink:title="input a triangle surface mesh, embed it into a regular grid and generate a tetmesh,...">
<polygon fill="none" stroke="black" points="1079.5,-217.5 1079.5,-258.5 1223.5,-258.5 1223.5,-217.5 1079.5,-217.5"/>
<text text-anchor="start" x="1087.5" y="-246.5" font-family="Helvetica,sans-Serif" font-size="10.00">wmtk::utils::generate</text>
<text text-anchor="start" x="1087.5" y="-235.5" font-family="Helvetica,sans-Serif" font-size="10.00">_raw_tetmesh_from_input</text>
<text text-anchor="middle" x="1151.5" y="-224.5" font-family="Helvetica,sans-Serif" font-size="10.00">_surface</text>
</a>
</g>
</g>
<!-- Node1&#45;&gt;Node5 -->
<g id="edge4" class="edge">
<title>Node1&#45;&gt;Node5</title>
<path fill="none" stroke="midnightblue" d="M1271.59,-220.54C1255.91,-222.84 1239.32,-225.27 1223.66,-227.57"/>
<polygon fill="midnightblue" stroke="midnightblue" points="1272.36,-223.97 1281.75,-219.05 1271.35,-217.04 1272.36,-223.97"/>
</g>
<!-- Node8 -->
<g id="node8" class="node">
<title>Node8</title>
<g id="a_node8"><a xlink:href="namespacewmtk_1_1components_1_1internal_1_1procedural.html#a9f9c7ba8540630226be69470ae8ed872" target="_top" xlink:title=" ">
<polygon fill="none" stroke="black" points="1074.5,-168 1074.5,-198 1228.5,-198 1228.5,-168 1074.5,-168"/>
<text text-anchor="start" x="1082.5" y="-186" font-family="Helvetica,sans-Serif" font-size="10.00">wmtk::components::internal</text>
<text text-anchor="middle" x="1151.5" y="-175" font-family="Helvetica,sans-Serif" font-size="10.00">::procedural::make_mesh</text>
</a>
</g>
</g>
<!-- Node1&#45;&gt;Node8 -->
<g id="edge7" class="edge">
<title>Node1&#45;&gt;Node8</title>
<path fill="none" stroke="midnightblue" d="M1271.69,-199.85C1257.66,-197.87 1242.91,-195.78 1228.75,-193.78"/>
<polygon fill="midnightblue" stroke="midnightblue" points="1271.36,-203.34 1281.75,-201.27 1272.34,-196.41 1271.36,-203.34"/>
</g>
<!-- Node12 -->
<g id="node12" class="node">
<title>Node12</title>
<g id="a_node12"><a xlink:href="namespacewmtk_1_1components_1_1internal.html#a7e292eba37fd37581ede0aa29943c3db" target="_top" xlink:title="Build a tagged triangle mesh from a greyscale image.">
<polygon fill="none" stroke="black" points="1071,-119 1071,-149 1232,-149 1232,-119 1071,-119"/>
<text text-anchor="start" x="1079" y="-137" font-family="Helvetica,sans-Serif" font-size="10.00">wmtk::components::internal</text>
<text text-anchor="middle" x="1151.5" y="-126" font-family="Helvetica,sans-Serif" font-size="10.00">::mesh_with_tag_from_image</text>
</a>
</g>
</g>
<!-- Node1&#45;&gt;Node12 -->
<g id="edge11" class="edge">
<title>Node1&#45;&gt;Node12</title>
<path fill="none" stroke="midnightblue" d="M1309.71,-189.96C1291.33,-179.68 1267.93,-167.54 1246,-159 1236.61,-155.34 1226.48,-152.02 1216.48,-149.09"/>
<polygon fill="midnightblue" stroke="midnightblue" points="1308.14,-193.1 1318.56,-194.99 1311.59,-187.01 1308.14,-193.1"/>
</g>
<!-- Node14 -->
<g id="node14" class="node">
<title>Node14</title>
<g id="a_node14"><a xlink:href="classwmtk_1_1_msh_reader.html#a5eecae37de86c25ce483dbc69f14adac" target="_top" xlink:title=" ">
<polygon fill="none" stroke="black" points="1085,-80.5 1085,-99.5 1218,-99.5 1218,-80.5 1085,-80.5"/>
<text text-anchor="middle" x="1151.5" y="-87.5" font-family="Helvetica,sans-Serif" font-size="10.00">wmtk::MshReader::read</text>
</a>
</g>
</g>
<!-- Node1&#45;&gt;Node14 -->
<g id="edge13" class="edge">
<title>Node1&#45;&gt;Node14</title>
<path fill="none" stroke="midnightblue" d="M1327.52,-186.56C1310.24,-163.12 1280.48,-127.92 1246,-109 1237.43,-104.3 1227.85,-100.76 1218.17,-98.09"/>
<polygon fill="midnightblue" stroke="midnightblue" points="1324.84,-188.83 1333.52,-194.91 1330.53,-184.75 1324.84,-188.83"/>
</g>
<!-- Node25 -->
<g id="node25" class="node">
<title>Node25</title>
<g id="a_node25"><a xlink:href="namespacewmtk_1_1components.html#aeb23de4c7313815bf7aa012ea81fb073" target="_top" xlink:title=" ">
<polygon fill="none" stroke="black" points="1088.5,-31 1088.5,-61 1214.5,-61 1214.5,-31 1088.5,-31"/>
<text text-anchor="start" x="1096.5" y="-49" font-family="Helvetica,sans-Serif" font-size="10.00">wmtk::components::to</text>
<text text-anchor="middle" x="1151.5" y="-38" font-family="Helvetica,sans-Serif" font-size="10.00">_points</text>
</a>
</g>
</g>
<!-- Node1&#45;&gt;Node25 -->
<g id="edge28" class="edge">
<title>Node1&#45;&gt;Node25</title>
<path fill="none" stroke="midnightblue" d="M1332.88,-185.48C1318.02,-154.14 1288.07,-100.42 1246,-71 1236.64,-64.45 1225.65,-59.62 1214.56,-56.05"/>
<polygon fill="midnightblue" stroke="midnightblue" points="1329.81,-187.19 1337.16,-194.81 1336.17,-184.26 1329.81,-187.19"/>
</g>
<!-- Node3&#45;&gt;Node4 -->
<g id="edge3" class="edge">
<title>Node3&#45;&gt;Node4</title>
<path fill="none" stroke="midnightblue" d="M1068.07,-323.84C1034.86,-323.37 998.38,-322.85 972.52,-322.49"/>
<polygon fill="midnightblue" stroke="midnightblue" points="1068.21,-327.34 1078.26,-323.98 1068.31,-320.34 1068.21,-327.34"/>
</g>
<!-- Node6 -->
<g id="node6" class="node">
<title>Node6</title>
<g id="a_node6"><a xlink:href="namespacewmtk_1_1utils.html#a4ea0d7c148b4066c6692a8e31c7b7b7a" target="_top" xlink:title=" ">
<polygon fill="none" stroke="black" points="860.5,-250.5 860.5,-291.5 1013.5,-291.5 1013.5,-250.5 860.5,-250.5"/>
<text text-anchor="start" x="868.5" y="-279.5" font-family="Helvetica,sans-Serif" font-size="10.00">wmtk::utils::generate</text>
<text text-anchor="start" x="868.5" y="-268.5" font-family="Helvetica,sans-Serif" font-size="10.00">_raw_tetmesh_with_surface</text>
<text text-anchor="middle" x="937" y="-257.5" font-family="Helvetica,sans-Serif" font-size="10.00">_from_input</text>
</a>
</g>
</g>
<!-- Node5&#45;&gt;Node6 -->
<g id="edge5" class="edge">
<title>Node5&#45;&gt;Node6</title>
<path fill="none" stroke="midnightblue" d="M1069.41,-250.59C1051.12,-253.43 1031.78,-256.44 1013.73,-259.24"/>
<polygon fill="midnightblue" stroke="midnightblue" points="1070.1,-254.03 1079.45,-249.03 1069.03,-247.11 1070.1,-254.03"/>
</g>
<!-- Node7 -->
<g id="node7" class="node">
<title>Node7</title>
<g id="a_node7"><a xlink:href="namespacewmtk_1_1components.html#ad26e15d638e76cf767b43e34d5d68465" target="_top" xlink:title=" ">
<polygon fill="none" stroke="black" points="663,-256 663,-286 817,-286 817,-256 663,-256"/>
<text text-anchor="start" x="671" y="-274" font-family="Helvetica,sans-Serif" font-size="10.00">wmtk::components::triangle</text>
<text text-anchor="middle" x="740" y="-263" font-family="Helvetica,sans-Serif" font-size="10.00">_insertion</text>
</a>
</g>
</g>
<!-- Node6&#45;&gt;Node7 -->
<g id="edge6" class="edge">
<title>Node6&#45;&gt;Node7</title>
<path fill="none" stroke="midnightblue" d="M850.3,-271C839.31,-271 828.1,-271 817.27,-271"/>
<polygon fill="midnightblue" stroke="midnightblue" points="850.33,-274.5 860.33,-271 850.33,-267.5 850.33,-274.5"/>
</g>
<!-- Node9 -->
<g id="node9" class="node">
<title>Node9</title>
<g id="a_node9"><a xlink:href="namespacewmtk_1_1components_1_1internal_1_1procedural.html#afc38ded3a4052aa252280a0a73ee9e69" target="_top" xlink:title=" ">
<polygon fill="none" stroke="black" points="860,-201 860,-231 1014,-231 1014,-201 860,-201"/>
<text text-anchor="start" x="868" y="-219" font-family="Helvetica,sans-Serif" font-size="10.00">wmtk::components::internal</text>
<text text-anchor="middle" x="937" y="-208" font-family="Helvetica,sans-Serif" font-size="10.00">::procedural::make_mesh</text>
</a>
</g>
</g>
<!-- Node8&#45;&gt;Node9 -->
<g id="edge8" class="edge">
<title>Node8&#45;&gt;Node9</title>
<path fill="none" stroke="midnightblue" d="M1064.2,-196.4C1047.67,-198.97 1030.48,-201.64 1014.3,-204.15"/>
<polygon fill="midnightblue" stroke="midnightblue" points="1065.04,-199.81 1074.38,-194.82 1063.96,-192.9 1065.04,-199.81"/>
</g>
<!-- Node10 -->
<g id="node10" class="node">
<title>Node10</title>
<g id="a_node10"><a xlink:href="namespacewmtk_1_1components.html#a59bbaed7b26fb80218677ddfc1a94960" target="_top" xlink:title=" ">
<polygon fill="none" stroke="black" points="853,-162.5 853,-181.5 1021,-181.5 1021,-162.5 853,-162.5"/>
<text text-anchor="middle" x="937" y="-169.5" font-family="Helvetica,sans-Serif" font-size="10.00">wmtk::components::procedural</text>
</a>
</g>
</g>
<!-- Node8&#45;&gt;Node10 -->
<g id="edge9" class="edge">
<title>Node8&#45;&gt;Node10</title>
<path fill="none" stroke="midnightblue" d="M1064.15,-178.53C1049.95,-177.8 1035.26,-177.03 1021.15,-176.3"/>
<polygon fill="midnightblue" stroke="midnightblue" points="1064.22,-182.04 1074.38,-179.06 1064.58,-175.05 1064.22,-182.04"/>
</g>
<!-- Node11 -->
<g id="node11" class="node">
<title>Node11</title>
<g id="a_node11"><a xlink:href="test__component__procedural_8cpp.html#a25d701cd0d07e56b6fb03d08431f27a2" target="_top" xlink:title=" ">
<polygon fill="none" stroke="black" points="704.5,-162.5 704.5,-181.5 775.5,-181.5 775.5,-162.5 704.5,-162.5"/>
<text text-anchor="middle" x="740" y="-169.5" font-family="Helvetica,sans-Serif" font-size="10.00">TEST_CASE</text>
</a>
</g>
</g>
<!-- Node10&#45;&gt;Node11 -->
<g id="edge10" class="edge">
<title>Node10&#45;&gt;Node11</title>
<path fill="none" stroke="midnightblue" d="M842.51,-172C818.57,-172 794.31,-172 775.51,-172"/>
<polygon fill="midnightblue" stroke="midnightblue" points="842.74,-175.5 852.74,-172 842.74,-168.5 842.74,-175.5"/>
</g>
<!-- Node13 -->
<g id="node13" class="node">
<title>Node13</title>
<g id="a_node13"><a xlink:href="test__component__input_8cpp.html#ac75dc6f525d583460008c72f843a1ffc" target="_top" xlink:title=" ">
<polygon fill="none" stroke="black" points="901.5,-124.5 901.5,-143.5 972.5,-143.5 972.5,-124.5 901.5,-124.5"/>
<text text-anchor="middle" x="937" y="-131.5" font-family="Helvetica,sans-Serif" font-size="10.00">TEST_CASE</text>
</a>
</g>
</g>
<!-- Node12&#45;&gt;Node13 -->
<g id="edge12" class="edge">
<title>Node12&#45;&gt;Node13</title>
<path fill="none" stroke="midnightblue" d="M1060.74,-134C1029.58,-134 996.49,-134 972.53,-134"/>
<polygon fill="midnightblue" stroke="midnightblue" points="1060.77,-137.5 1070.77,-134 1060.77,-130.5 1060.77,-137.5"/>
</g>
<!-- Node15 -->
<g id="node15" class="node">
<title>Node15</title>
<g id="a_node15"><a xlink:href="namespacewmtk.html#acc69252d3800a00676c9e7e51621538f" target="_top" xlink:title=" ">
<polygon fill="none" stroke="black" points="885,-80.5 885,-99.5 989,-99.5 989,-80.5 885,-80.5"/>
<text text-anchor="middle" x="937" y="-87.5" font-family="Helvetica,sans-Serif" font-size="10.00">wmtk::read_mesh</text>
</a>
</g>
</g>
<!-- Node14&#45;&gt;Node15 -->
<g id="edge14" class="edge">
<title>Node14&#45;&gt;Node15</title>
<path fill="none" stroke="midnightblue" d="M1074.47,-90C1046.21,-90 1014.84,-90 989.32,-90"/>
<polygon fill="midnightblue" stroke="midnightblue" points="1074.72,-93.5 1084.72,-90 1074.72,-86.5 1074.72,-93.5"/>
</g>
<!-- Node16 -->
<g id="node16" class="node">
<title>Node16</title>
<g id="a_node16"><a xlink:href="classwmtk_1_1io_1_1_cache.html#a6d9002c95cb93e5e4e68eaa6b5083f8c" target="_top" xlink:title="Compare two caches for equality.">
<polygon fill="none" stroke="black" points="673,-24.5 673,-43.5 807,-43.5 807,-24.5 673,-24.5"/>
<text text-anchor="middle" x="740" y="-31.5" font-family="Helvetica,sans-Serif" font-size="10.00">wmtk::io::Cache::equals</text>
</a>
</g>
</g>
<!-- Node15&#45;&gt;Node16 -->
<g id="edge15" class="edge">
<title>Node15&#45;&gt;Node16</title>
<path fill="none" stroke="midnightblue" d="M892.78,-77.59C856.95,-67.3 806.78,-52.89 774.08,-43.5"/>
<polygon fill="midnightblue" stroke="midnightblue" points="891.9,-80.98 902.48,-80.37 893.83,-74.25 891.9,-80.98"/>
</g>
<!-- Node18 -->
<g id="node18" class="node">
<title>Node18</title>
<g id="a_node18"><a xlink:href="namespacewmtk_1_1components.html#a7de2c2a52403b035714a612f42804af3" target="_top" xlink:title=" ">
<polygon fill="none" stroke="black" points="669.5,-124.5 669.5,-143.5 810.5,-143.5 810.5,-124.5 669.5,-124.5"/>
<text text-anchor="middle" x="740" y="-131.5" font-family="Helvetica,sans-Serif" font-size="10.00">wmtk::components::input</text>
</a>
</g>
</g>
<!-- Node15&#45;&gt;Node18 -->
<g id="edge17" class="edge">
<title>Node15&#45;&gt;Node18</title>
<path fill="none" stroke="midnightblue" d="M883.78,-101.78C852.3,-108.89 812.72,-117.82 783.23,-124.47"/>
<polygon fill="midnightblue" stroke="midnightblue" points="884.7,-105.16 893.69,-99.55 883.16,-98.33 884.7,-105.16"/>
</g>
<!-- Node24 -->
<g id="node24" class="node">
<title>Node24</title>
<g id="a_node24"><a xlink:href="classwmtk_1_1io_1_1_cached_multi_mesh.html#aa33ef463beccbfc46f941380e988765c" target="_top" xlink:title=" ">
<polygon fill="none" stroke="black" points="664,-75 664,-105 816,-105 816,-75 664,-75"/>
<text text-anchor="start" x="672" y="-93" font-family="Helvetica,sans-Serif" font-size="10.00">wmtk::io::CachedMultiMesh</text>
<text text-anchor="middle" x="740" y="-82" font-family="Helvetica,sans-Serif" font-size="10.00">::load</text>
</a>
</g>
</g>
<!-- Node15&#45;&gt;Node24 -->
<g id="edge26" class="edge">
<title>Node15&#45;&gt;Node24</title>
<path fill="none" stroke="midnightblue" d="M874.68,-90C856.1,-90 835.48,-90 816.1,-90"/>
<polygon fill="midnightblue" stroke="midnightblue" points="874.77,-93.5 884.77,-90 874.77,-86.5 874.77,-93.5"/>
</g>
<!-- Node17 -->
<g id="node17" class="node">
<title>Node17</title>
<g id="a_node17"><a xlink:href="test__component__import__cache_8cpp.html#a081b8f9743b3281709466fa4850cfb84" target="_top" xlink:title=" ">
<polygon fill="none" stroke="black" points="499,-0.5 499,-19.5 570,-19.5 570,-0.5 499,-0.5"/>
<text text-anchor="middle" x="534.5" y="-7.5" font-family="Helvetica,sans-Serif" font-size="10.00">TEST_CASE</text>
</a>
</g>
</g>
<!-- Node16&#45;&gt;Node17 -->
<g id="edge16" class="edge">
<title>Node16&#45;&gt;Node17</title>
<path fill="none" stroke="midnightblue" d="M662.74,-25.01C630.92,-21.25 595.54,-17.08 570.18,-14.09"/>
<polygon fill="midnightblue" stroke="midnightblue" points="662.59,-28.51 672.93,-26.21 663.41,-21.56 662.59,-28.51"/>
</g>
<!-- Node19 -->
<g id="node19" class="node">
<title>Node19</title>
<g id="a_node19"><a xlink:href="classwmtk_1_1utils_1_1metaprogramming_1_1detail_1_1_reference_wrapped_functor_return_cache.html#a5ffba4ecba9b713c61963ceb4fd5a2dd" target="_top" xlink:title=" ">
<polygon fill="none" stroke="black" points="221,-114.5 221,-155.5 406,-155.5 406,-114.5 221,-114.5"/>
<text text-anchor="start" x="229" y="-143.5" font-family="Helvetica,sans-Serif" font-size="10.00">wmtk::utils::metaprogramming</text>
<text text-anchor="start" x="229" y="-132.5" font-family="Helvetica,sans-Serif" font-size="10.00">::detail::ReferenceWrappedFunctor</text>
<text text-anchor="middle" x="313.5" y="-121.5" font-family="Helvetica,sans-Serif" font-size="10.00">ReturnCache::add</text>
</a>
</g>
</g>
<!-- Node18&#45;&gt;Node19 -->
<g id="edge18" class="edge">
<title>Node18&#45;&gt;Node19</title>
<path fill="none" stroke="midnightblue" d="M659.01,-134.19C587.05,-134.36 481.36,-134.61 406.05,-134.78"/>
<polygon fill="midnightblue" stroke="midnightblue" points="659.39,-137.69 669.38,-134.16 659.37,-130.69 659.39,-137.69"/>
</g>
<!-- Node20 -->
<g id="node20" class="node">
<title>Node20</title>
<g id="a_node20"><a xlink:href="classwmtk_1_1utils_1_1metaprogramming_1_1detail_1_1_reference_wrapped_functor_return_cache.html#ae3b4aa1a8b7415de2714b434e8520953" target="_top" xlink:title=" ">
<polygon fill="none" stroke="black" points="0,-108.5 0,-149.5 185,-149.5 185,-108.5 0,-108.5"/>
<text text-anchor="start" x="8" y="-137.5" font-family="Helvetica,sans-Serif" font-size="10.00">wmtk::utils::metaprogramming</text>
<text text-anchor="start" x="8" y="-126.5" font-family="Helvetica,sans-Serif" font-size="10.00">::detail::ReferenceWrappedFunctor</text>
<text text-anchor="middle" x="92.5" y="-115.5" font-family="Helvetica,sans-Serif" font-size="10.00">ReturnCache::get</text>
</a>
</g>
</g>
<!-- Node18&#45;&gt;Node20 -->
<g id="edge19" class="edge">
<title>Node18&#45;&gt;Node20</title>
<path fill="none" stroke="midnightblue" d="M678.84,-145.25C581.97,-161.64 385.62,-187.8 221,-165 198.56,-161.89 174.51,-155.85 153.41,-149.58"/>
<polygon fill="midnightblue" stroke="midnightblue" points="679.48,-148.69 688.74,-143.55 678.29,-141.79 679.48,-148.69"/>
</g>
<!-- Node21 -->
<g id="node21" class="node">
<title>Node21</title>
<g id="a_node21"><a xlink:href="classwmtk_1_1utils_1_1metaprogramming_1_1detail_1_1_reference_wrapped_functor_return_cache.html#a31b56eba1f5bd731f738170979d38bfc" target="_top" xlink:title=" ">
<polygon fill="none" stroke="black" points="442,-76.5 442,-117.5 627,-117.5 627,-76.5 442,-76.5"/>
<text text-anchor="start" x="450" y="-105.5" font-family="Helvetica,sans-Serif" font-size="10.00">wmtk::utils::metaprogramming</text>
<text text-anchor="start" x="450" y="-94.5" font-family="Helvetica,sans-Serif" font-size="10.00">::detail::ReferenceWrappedFunctor</text>
<text text-anchor="middle" x="534.5" y="-83.5" font-family="Helvetica,sans-Serif" font-size="10.00">ReturnCache::get_id</text>
</a>
</g>
</g>
<!-- Node18&#45;&gt;Node21 -->
<g id="edge20" class="edge">
<title>Node18&#45;&gt;Node21</title>
<path fill="none" stroke="midnightblue" d="M676.57,-122.65C660.97,-119.81 643.91,-116.71 627.21,-113.67"/>
<polygon fill="midnightblue" stroke="midnightblue" points="676.13,-126.13 686.59,-124.47 677.38,-119.24 676.13,-126.13"/>
</g>
<!-- Node22 -->
<g id="node22" class="node">
<title>Node22</title>
<g id="a_node22"><a xlink:href="classwmtk_1_1utils_1_1metaprogramming_1_1detail_1_1_reference_wrapped_functor_return_cache.html#a2d4e8819e94c7d717f9cb27fb953c9e1" target="_top" xlink:title=" ">
<polygon fill="none" stroke="black" points="221,-54.5 221,-95.5 406,-95.5 406,-54.5 221,-54.5"/>
<text text-anchor="start" x="229" y="-83.5" font-family="Helvetica,sans-Serif" font-size="10.00">wmtk::utils::metaprogramming</text>
<text text-anchor="start" x="229" y="-72.5" font-family="Helvetica,sans-Serif" font-size="10.00">::detail::ReferenceWrappedFunctor</text>
<text text-anchor="middle" x="313.5" y="-61.5" font-family="Helvetica,sans-Serif" font-size="10.00">ReturnCache::get_variant</text>
</a>
</g>
</g>
<!-- Node18&#45;&gt;Node22 -->
<g id="edge24" class="edge">
<title>Node18&#45;&gt;Node22</title>
<path fill="none" stroke="midnightblue" d="M675.2,-120.68C670.92,-118.75 666.81,-116.53 663,-114 641.1,-99.42 650.59,-78.65 627,-67 552.3,-30.12 454.83,-40.35 388.75,-54.44"/>
<polygon fill="midnightblue" stroke="midnightblue" points="674.17,-124.04 684.76,-124.48 676.76,-117.54 674.17,-124.04"/>
</g>
<!-- Node23 -->
<g id="node23" class="node">
<title>Node23</title>
<g id="a_node23"><a xlink:href="test__component__export__cache_8cpp.html#abcda20b0d7549011759e21e6f7401e27" target="_top" xlink:title=" ">
<polygon fill="none" stroke="black" points="499,-212.5 499,-231.5 570,-231.5 570,-212.5 499,-212.5"/>
<text text-anchor="middle" x="534.5" y="-219.5" font-family="Helvetica,sans-Serif" font-size="10.00">TEST_CASE</text>
</a>
</g>
</g>
<!-- Node18&#45;&gt;Node23 -->
<g id="edge25" class="edge">
<title>Node18&#45;&gt;Node23</title>
<path fill="none" stroke="midnightblue" d="M673.53,-147.3C669.86,-148.98 666.32,-150.87 663,-153 641.44,-166.83 648.48,-184.04 627,-198 610.06,-209.01 588.28,-214.98 570.21,-218.21"/>
<polygon fill="midnightblue" stroke="midnightblue" points="674.89,-150.53 682.87,-143.55 672.28,-144.03 674.89,-150.53"/>
</g>
<!-- Node21&#45;&gt;Node19 -->
<g id="edge21" class="edge">
<title>Node21&#45;&gt;Node19</title>
<path fill="none" stroke="midnightblue" d="M431.85,-114.64C423.26,-116.13 414.6,-117.63 406.09,-119.11"/>
<polygon fill="midnightblue" stroke="midnightblue" points="432.64,-118.05 441.89,-112.9 431.44,-111.16 432.64,-118.05"/>
</g>
<!-- Node21&#45;&gt;Node22 -->
<g id="edge22" class="edge">
<title>Node21&#45;&gt;Node22</title>
<path fill="none" stroke="midnightblue" d="M431.85,-86.79C423.26,-85.93 414.6,-85.06 406.09,-84.2"/>
<polygon fill="midnightblue" stroke="midnightblue" points="431.59,-90.28 441.89,-87.8 432.29,-83.32 431.59,-90.28"/>
</g>
<!-- Node22&#45;&gt;Node20 -->
<g id="edge23" class="edge">
<title>Node22&#45;&gt;Node20</title>
<path fill="none" stroke="midnightblue" d="M219.34,-97.97C205.17,-101.46 190.63,-105.05 176.69,-108.49"/>
<polygon fill="midnightblue" stroke="midnightblue" points="220.21,-101.36 229.08,-95.57 218.53,-94.57 220.21,-101.36"/>
</g>
</g>
</svg>
        <g id="navigator" transform="translate(0 0)" fill="#404254">
                <rect fill="#f2f5e9" fill-opacity="0.5" stroke="#606060" stroke-width=".5" x="0" y="0" width="60" height="60"/>
                <use id="zoomplus" xlink:href="#zoomPlus" x="17" y="9" onmousedown="handleZoom(evt,'in')"/>
                <use id="zoomminus" xlink:href="#zoomMin" x="42" y="9" onmousedown="handleZoom(evt,'out')"/>
                <use id="reset" xlink:href="#resetDef" x="30" y="36" onmousedown="handleReset()"/>
                <g id="arrowUp" xlink:href="#dirArrow" transform="translate(30 24)" onmousedown="handlePan(0,-1)">
                  <use xlink:href="#rim" fill="#404040">
                        <set attributeName="fill" to="#808080" begin="arrowUp.mouseover" end="arrowUp.mouseout"/>
                  </use>
                  <path fill="none" stroke="white" stroke-width="1.5" d="M0,-3.0v7 M-2.5,-0.5L0,-3.0L2.5,-0.5"/>
                </g>
                <g id="arrowRight" xlink:href="#dirArrow" transform="rotate(90) translate(36 -43)" onmousedown="handlePan(1,0)">
                  <use xlink:href="#rim" fill="#404040">
                        <set attributeName="fill" to="#808080" begin="arrowRight.mouseover" end="arrowRight.mouseout"/>
                  </use>
                  <path fill="none" stroke="white" stroke-width="1.5" d="M0,-3.0v7 M-2.5,-0.5L0,-3.0L2.5,-0.5"/>
                </g>
                <g id="arrowDown" xlink:href="#dirArrow" transform="rotate(180) translate(-30 -48)" onmousedown="handlePan(0,1)">
                  <use xlink:href="#rim" fill="#404040">
                        <set attributeName="fill" to="#808080" begin="arrowDown.mouseover" end="arrowDown.mouseout"/>
                  </use>
                  <path fill="none" stroke="white" stroke-width="1.5" d="M0,-3.0v7 M-2.5,-0.5L0,-3.0L2.5,-0.5"/>
                </g>
                <g id="arrowLeft" xlink:href="#dirArrow" transform="rotate(270) translate(-36 17)" onmousedown="handlePan(-1,0)">
                  <use xlink:href="#rim" fill="#404040">
                        <set attributeName="fill" to="#808080" begin="arrowLeft.mouseover" end="arrowLeft.mouseout"/>
                  </use>
                  <path fill="none" stroke="white" stroke-width="1.5" d="M0,-3.0v7 M-2.5,-0.5L0,-3.0L2.5,-0.5"/>
                </g>
        </g>
        <svg viewBox="0 0 15 15" width="100%" height="30px" preserveAspectRatio="xMaxYMin meet">
         <g id="arrow_out" transform="scale(0.3 0.3)">
          <a xlink:href="namespacewmtk_1_1mesh__utils_ad92eb4095d516f6a20e25587f9effe80_icgraph_org.svg" target="_base">
           <rect id="button" ry="5" rx="5" y="6" x="6" height="38" width="38"
                fill="#f2f5e9" fill-opacity="0.5" stroke="#606060" stroke-width="1.0"/>
           <path id="arrow"
             d="M 11.500037,31.436501 C 11.940474,20.09759 22.043105,11.32322 32.158766,21.979434 L 37.068811,17.246167 C 37.068811,17.246167 37.088388,32 37.088388,32 L 22.160133,31.978069 C 22.160133,31.978069 26.997745,27.140456 26.997745,27.140456 C 18.528582,18.264221 13.291696,25.230495 11.500037,31.436501 z"
             style="fill:#404040;"/>
          </a>
         </g>
        </svg>
</svg>
