<?xml version="1.0" encoding="UTF-8" standalone="no"?>
<!DOCTYPE svg PUBLIC "-//W3C//DTD SVG 1.1//EN"
 "http://www.w3.org/Graphics/SVG/1.1/DTD/svg11.dtd">
<!-- Generated by graphviz version 2.43.0 (0)
 -->
<!-- Title: wmtk::components::internal::delaunay_geogram Pages: 1 -->
<svg width="577pt" height="216pt"
 viewBox="0.00 0.00 577.00 216.00" xmlns="http://www.w3.org/2000/svg" xmlns:xlink="http://www.w3.org/1999/xlink">
<g id="graph0" class="graph" transform="scale(1 1) rotate(0) translate(4 212)">
<title>wmtk::components::internal::delaunay_geogram</title>
<!-- Node1 -->
<g id="Node000001" class="node">
<title>Node1</title>
<g id="a_Node000001"><a xlink:title=" ">
<polygon fill="#999999" stroke="#666666" points="569,-82.5 415,-82.5 415,-52.5 569,-52.5 569,-82.5"/>
<text text-anchor="start" x="423" y="-70.5" font-family="Helvetica,sans-Serif" font-size="10.00">wmtk::components::internal</text>
<text text-anchor="middle" x="492" y="-59.5" font-family="Helvetica,sans-Serif" font-size="10.00">::delaunay_geogram</text>
</a>
</g>
</g>
<!-- Node1&#45;&gt;Node1 -->
<g id="edge11_Node000001_Node000001" class="edge">
<title>Node1&#45;&gt;Node1</title>
<g id="a_edge11_Node000001_Node000001"><a xlink:title=" ">
<path fill="none" stroke="#63b8ff" d="M525.26,-93.1C520.71,-97.47 509.63,-100.5 492,-100.5 462.31,-100.5 451.18,-91.91 458.6,-82.78"/>
<polygon fill="#63b8ff" stroke="#63b8ff" points="528.76,-92.82 525.4,-82.78 521.76,-92.73 528.76,-92.82"/>
</a>
</g>
</g>
<!-- Node2 -->
<g id="Node000002" class="node">
<title>Node2</title>
<g id="a_Node000002"><a xlink:href="namespacewmtk_1_1components_1_1internal.html#ae80c4178ab57d7bc05e9512f49be096a" target="_top" xlink:title=" ">
<polygon fill="white" stroke="#666666" points="379,-174.5 225,-174.5 225,-144.5 379,-144.5 379,-174.5"/>
<text text-anchor="start" x="233" y="-162.5" font-family="Helvetica,sans-Serif" font-size="10.00">wmtk::components::internal</text>
<text text-anchor="middle" x="302" y="-151.5" font-family="Helvetica,sans-Serif" font-size="10.00">::delaunay_2d</text>
</a>
</g>
</g>
<!-- Node1&#45;&gt;Node2 -->
<g id="edge1_Node000001_Node000002" class="edge">
<title>Node1&#45;&gt;Node2</title>
<g id="a_edge1_Node000001_Node000002"><a xlink:title=" ">
<path fill="none" stroke="#63b8ff" d="M458.55,-87.96C436.59,-101.32 406.65,-118.61 379,-131.5 369.06,-136.13 358.12,-140.54 347.71,-144.43"/>
<polygon fill="#63b8ff" stroke="#63b8ff" points="460.46,-90.89 467.15,-82.68 456.8,-84.93 460.46,-90.89"/>
</a>
</g>
</g>
<!-- Node6 -->
<g id="Node000006" class="node">
<title>Node6</title>
<g id="a_Node000006"><a xlink:href="namespacewmtk_1_1components_1_1internal.html#a2b8f841c866f2be5ad04a5b453746b6e" target="_top" xlink:title=" ">
<polygon fill="white" stroke="#666666" points="379,-104.5 225,-104.5 225,-74.5 379,-74.5 379,-104.5"/>
<text text-anchor="start" x="233" y="-92.5" font-family="Helvetica,sans-Serif" font-size="10.00">wmtk::components::internal</text>
<text text-anchor="middle" x="302" y="-81.5" font-family="Helvetica,sans-Serif" font-size="10.00">::delaunay_3d</text>
</a>
</g>
</g>
<!-- Node1&#45;&gt;Node6 -->
<g id="edge6_Node000001_Node000006" class="edge">
<title>Node1&#45;&gt;Node6</title>
<g id="a_edge6_Node000001_Node000006"><a xlink:title=" ">
<path fill="none" stroke="#63b8ff" d="M404.85,-77.58C396.33,-78.58 387.72,-79.59 379.3,-80.57"/>
<polygon fill="#63b8ff" stroke="#63b8ff" points="405.28,-81.06 414.8,-76.42 404.47,-74.1 405.28,-81.06"/>
</a>
</g>
</g>
<!-- Node9 -->
<g id="Node000009" class="node">
<title>Node9</title>
<g id="a_Node000009"><a xlink:href="test__component__delaunay_8cpp.html#ab8a46e1482a21c41b01ca68f4f0144dc" target="_top" xlink:title=" ">
<polygon fill="white" stroke="#666666" points="337.5,-56 266.5,-56 266.5,-37 337.5,-37 337.5,-56"/>
<text text-anchor="middle" x="302" y="-44" font-family="Helvetica,sans-Serif" font-size="10.00">TEST_CASE</text>
</a>
</g>
</g>
<!-- Node1&#45;&gt;Node9 -->
<g id="edge12_Node000001_Node000009" class="edge">
<title>Node1&#45;&gt;Node9</title>
<g id="a_edge12_Node000001_Node000009"><a xlink:title=" ">
<path fill="none" stroke="#63b8ff" d="M404.73,-57.86C381.08,-55.22 356.78,-52.51 337.86,-50.39"/>
<polygon fill="#63b8ff" stroke="#63b8ff" points="404.48,-61.36 414.8,-58.99 405.25,-54.4 404.48,-61.36"/>
</a>
</g>
</g>
<!-- Node10 -->
<g id="Node000010" class="node">
<title>Node10</title>
<g id="a_Node000010"><a xlink:href="test__component__delaunay_8cpp.html#a73a69c5d875625f08c630cf0cafa2b71" target="_top" xlink:title=" ">
<polygon fill="white" stroke="#666666" points="337.5,-19 266.5,-19 266.5,0 337.5,0 337.5,-19"/>
<text text-anchor="middle" x="302" y="-7" font-family="Helvetica,sans-Serif" font-size="10.00">TEST_CASE</text>
</a>
</g>
</g>
<!-- Node1&#45;&gt;Node10 -->
<g id="edge13_Node000001_Node000010" class="edge">
<title>Node1&#45;&gt;Node10</title>
<g id="a_edge13_Node000001_Node000010"><a xlink:title=" ">
<path fill="none" stroke="#63b8ff" d="M442.6,-48.9C423.01,-41.71 400.09,-33.74 379,-27.5 365.61,-23.54 350.69,-19.85 337.64,-16.86"/>
<polygon fill="#63b8ff" stroke="#63b8ff" points="441.62,-52.27 452.22,-52.46 444.05,-45.7 441.62,-52.27"/>
</a>
</g>
</g>
<!-- Node2&#45;&gt;Node2 -->
<g id="edge2_Node000002_Node000002" class="edge">
<title>Node2&#45;&gt;Node2</title>
<g id="a_edge2_Node000002_Node000002"><a xlink:title=" ">
<path fill="none" stroke="#63b8ff" d="M335.26,-185.1C330.71,-189.47 319.63,-192.5 302,-192.5 272.31,-192.5 261.18,-183.91 268.6,-174.78"/>
<polygon fill="#63b8ff" stroke="#63b8ff" points="338.76,-184.82 335.4,-174.78 331.76,-184.73 338.76,-184.82"/>
</a>
</g>
</g>
<!-- Node3 -->
<g id="Node000003" class="node">
<title>Node3</title>
<g id="a_Node000003"><a xlink:href="namespacewmtk_1_1components.html#a1ff40f72f5ddf56191e77808727c3730" target="_top" xlink:title=" ">
<polygon fill="white" stroke="#666666" points="189,-134 0,-134 0,-115 189,-115 189,-134"/>
<text text-anchor="middle" x="94.5" y="-122" font-family="Helvetica,sans-Serif" font-size="10.00">wmtk::components::delaunay_exec</text>
</a>
</g>
</g>
<!-- Node2&#45;&gt;Node3 -->
<g id="edge3_Node000002_Node000003" class="edge">
<title>Node2&#45;&gt;Node3</title>
<g id="a_edge3_Node000002_Node000003"><a xlink:title=" ">
<path fill="none" stroke="#63b8ff" d="M214.69,-144.8C193.28,-141.15 170.89,-137.34 151.38,-134.02"/>
<polygon fill="#63b8ff" stroke="#63b8ff" points="214.33,-148.29 224.77,-146.52 215.5,-141.39 214.33,-148.29"/>
</a>
</g>
</g>
<!-- Node4 -->
<g id="Node000004" class="node">
<title>Node4</title>
<g id="a_Node000004"><a xlink:href="test__component__delaunay_8cpp.html#a3817f7ebe538bd98507ed2a69f3e65a3" target="_top" xlink:title=" ">
<polygon fill="white" stroke="#666666" points="130,-208 59,-208 59,-189 130,-189 130,-208"/>
<text text-anchor="middle" x="94.5" y="-196" font-family="Helvetica,sans-Serif" font-size="10.00">TEST_CASE</text>
</a>
</g>
</g>
<!-- Node2&#45;&gt;Node4 -->
<g id="edge4_Node000002_Node000004" class="edge">
<title>Node2&#45;&gt;Node4</title>
<g id="a_edge4_Node000002_Node000004"><a xlink:title=" ">
<path fill="none" stroke="#63b8ff" d="M214.75,-175.87C184.94,-181.53 153.23,-187.54 130,-191.95"/>
<polygon fill="#63b8ff" stroke="#63b8ff" points="215.6,-179.27 224.77,-173.97 214.29,-172.39 215.6,-179.27"/>
</a>
</g>
</g>
<!-- Node5 -->
<g id="Node000005" class="node">
<title>Node5</title>
<g id="a_Node000005"><a xlink:href="test__component__delaunay_8cpp.html#a64385d68ba4e206528466fe0e90d4c41" target="_top" xlink:title=" ">
<polygon fill="white" stroke="#666666" points="130,-171 59,-171 59,-152 130,-152 130,-171"/>
<text text-anchor="middle" x="94.5" y="-159" font-family="Helvetica,sans-Serif" font-size="10.00">TEST_CASE</text>
</a>
</g>
</g>
<!-- Node2&#45;&gt;Node5 -->
<g id="edge5_Node000002_Node000005" class="edge">
<title>Node2&#45;&gt;Node5</title>
<g id="a_edge5_Node000002_Node000005"><a xlink:title=" ">
<path fill="none" stroke="#63b8ff" d="M214.75,-160.34C184.94,-160.63 153.23,-160.94 130,-161.16"/>
<polygon fill="#63b8ff" stroke="#63b8ff" points="214.81,-163.84 224.77,-160.24 214.74,-156.84 214.81,-163.84"/>
</a>
</g>
</g>
<!-- Node6&#45;&gt;Node3 -->
<g id="edge8_Node000006_Node000003" class="edge">
<title>Node6&#45;&gt;Node3</title>
<g id="a_edge8_Node000006_Node000003"><a xlink:title=" ">
<path fill="none" stroke="#63b8ff" d="M214.69,-104.2C193.28,-107.85 170.89,-111.66 151.38,-114.98"/>
<polygon fill="#63b8ff" stroke="#63b8ff" points="215.5,-107.61 224.77,-102.48 214.33,-100.71 215.5,-107.61"/>
</a>
</g>
</g>
<!-- Node6&#45;&gt;Node6 -->
<g id="edge7_Node000006_Node000006" class="edge">
<title>Node6&#45;&gt;Node6</title>
<g id="a_edge7_Node000006_Node000006"><a xlink:title=" ">
<path fill="none" stroke="#63b8ff" d="M335.26,-115.1C330.71,-119.47 319.63,-122.5 302,-122.5 272.31,-122.5 261.18,-113.91 268.6,-104.78"/>
<polygon fill="#63b8ff" stroke="#63b8ff" points="338.76,-114.82 335.4,-104.78 331.76,-114.73 338.76,-114.82"/>
</a>
</g>
</g>
<!-- Node7 -->
<g id="Node000007" class="node">
<title>Node7</title>
<g id="a_Node000007"><a xlink:href="test__component__delaunay_8cpp.html#a3289eee87d4f27bda966d30b81c51812" target="_top" xlink:title=" ">
<polygon fill="white" stroke="#666666" points="130,-97 59,-97 59,-78 130,-78 130,-97"/>
<text text-anchor="middle" x="94.5" y="-85" font-family="Helvetica,sans-Serif" font-size="10.00">TEST_CASE</text>
</a>
</g>
</g>
<!-- Node6&#45;&gt;Node7 -->
<g id="edge9_Node000006_Node000007" class="edge">
<title>Node6&#45;&gt;Node7</title>
<g id="a_edge9_Node000006_Node000007"><a xlink:title=" ">
<path fill="none" stroke="#63b8ff" d="M214.75,-88.66C184.94,-88.37 153.23,-88.06 130,-87.84"/>
<polygon fill="#63b8ff" stroke="#63b8ff" points="214.74,-92.16 224.77,-88.76 214.81,-85.16 214.74,-92.16"/>
</a>
</g>
</g>
<!-- Node8 -->
<g id="Node000008" class="node">
<title>Node8</title>
<g id="a_Node000008"><a xlink:href="test__component__delaunay_8cpp.html#a8efb223c76864bc1dde445456c339570" target="_top" xlink:title=" ">
<polygon fill="white" stroke="#666666" points="130,-60 59,-60 59,-41 130,-41 130,-60"/>
<text text-anchor="middle" x="94.5" y="-48" font-family="Helvetica,sans-Serif" font-size="10.00">TEST_CASE</text>
</a>
</g>
</g>
<!-- Node6&#45;&gt;Node8 -->
<g id="edge10_Node000006_Node000008" class="edge">
<title>Node6&#45;&gt;Node8</title>
<g id="a_edge10_Node000006_Node000008"><a xlink:title=" ">
<path fill="none" stroke="#63b8ff" d="M214.75,-73.13C184.94,-67.47 153.23,-61.46 130,-57.05"/>
<polygon fill="#63b8ff" stroke="#63b8ff" points="214.29,-76.61 224.77,-75.03 215.6,-69.73 214.29,-76.61"/>
</a>
</g>
</g>
</g>
</svg>
