<?xml version="1.0" encoding="UTF-8" standalone="no"?>
<!DOCTYPE svg PUBLIC "-//W3C//DTD SVG 1.1//EN"
 "http://www.w3.org/Graphics/SVG/1.1/DTD/svg11.dtd">
<!-- Generated by graphviz version 2.43.0 (0)
 -->
<!-- Title: wmtk::multimesh::utils::tuples_to_vectors Pages: 1 -->
<svg width="654pt" height="235pt"
 viewBox="0.00 0.00 654.00 235.00" xmlns="http://www.w3.org/2000/svg" xmlns:xlink="http://www.w3.org/1999/xlink">
<g id="graph0" class="graph" transform="scale(1 1) rotate(0) translate(4 231)">
<title>wmtk::multimesh::utils::tuples_to_vectors</title>
<!-- Node1 -->
<g id="node1" class="node">
<title>Node1</title>
<g id="a_node1"><a xlink:title=" ">
<polygon fill="#bfbfbf" stroke="black" points="0,-122.5 0,-152.5 130,-152.5 130,-122.5 0,-122.5"/>
<text text-anchor="start" x="8" y="-140.5" font-family="Helvetica,sans-Serif" font-size="10.00">wmtk::multimesh::utils</text>
<text text-anchor="middle" x="65" y="-129.5" font-family="Helvetica,sans-Serif" font-size="10.00">::tuples_to_vectors</text>
</a>
</g>
</g>
<!-- Node2 -->
<g id="node2" class="node">
<title>Node2</title>
<g id="a_node2"><a xlink:href="namespacewmtk_1_1multimesh_1_1utils.html#a1e2e083555fd22678fcf96094992aaae" target="_top" xlink:title=" ">
<polygon fill="none" stroke="black" points="166,-122.5 166,-152.5 296,-152.5 296,-122.5 166,-122.5"/>
<text text-anchor="start" x="174" y="-140.5" font-family="Helvetica,sans-Serif" font-size="10.00">wmtk::multimesh::utils</text>
<text text-anchor="middle" x="231" y="-129.5" font-family="Helvetica,sans-Serif" font-size="10.00">::tuple_to_vector</text>
</a>
</g>
</g>
<!-- Node1&#45;&gt;Node2 -->
<g id="edge1" class="edge">
<title>Node1&#45;&gt;Node2</title>
<path fill="none" stroke="midnightblue" d="M130.35,-137.5C138.64,-137.5 147.19,-137.5 155.62,-137.5"/>
<polygon fill="midnightblue" stroke="midnightblue" points="155.84,-141 165.84,-137.5 155.84,-134 155.84,-141"/>
</g>
<!-- Node3 -->
<g id="node3" class="node">
<title>Node3</title>
<g id="a_node3"><a xlink:href="namespacewmtk_1_1multimesh_1_1utils.html#a594fa9c261e673d21832b4d8f932e637" target="_top" xlink:title=" ">
<polygon fill="none" stroke="black" points="332,-147.5 332,-177.5 462,-177.5 462,-147.5 332,-147.5"/>
<text text-anchor="start" x="340" y="-165.5" font-family="Helvetica,sans-Serif" font-size="10.00">wmtk::multimesh::utils</text>
<text text-anchor="middle" x="397" y="-154.5" font-family="Helvetica,sans-Serif" font-size="10.00">::tuple_to_vector2</text>
</a>
</g>
</g>
<!-- Node2&#45;&gt;Node3 -->
<g id="edge2" class="edge">
<title>Node2&#45;&gt;Node3</title>
<path fill="none" stroke="midnightblue" d="M296.35,-147.31C304.73,-148.59 313.37,-149.9 321.9,-151.2"/>
<polygon fill="midnightblue" stroke="midnightblue" points="321.43,-154.67 331.84,-152.72 322.48,-147.75 321.43,-154.67"/>
</g>
<!-- Node4 -->
<g id="node4" class="node">
<title>Node4</title>
<g id="a_node4"><a xlink:href="namespacewmtk_1_1multimesh_1_1utils.html#ab150c77419d0083e882dcc657e3ef5b5" target="_top" xlink:title=" ">
<polygon fill="none" stroke="black" points="332,-98.5 332,-128.5 462,-128.5 462,-98.5 332,-98.5"/>
<text text-anchor="start" x="340" y="-116.5" font-family="Helvetica,sans-Serif" font-size="10.00">wmtk::multimesh::utils</text>
<text text-anchor="middle" x="397" y="-105.5" font-family="Helvetica,sans-Serif" font-size="10.00">::tuple_to_vector5</text>
</a>
</g>
</g>
<!-- Node2&#45;&gt;Node4 -->
<g id="edge3" class="edge">
<title>Node2&#45;&gt;Node4</title>
<path fill="none" stroke="midnightblue" d="M296.35,-128.08C304.73,-126.86 313.37,-125.59 321.9,-124.34"/>
<polygon fill="midnightblue" stroke="midnightblue" points="322.45,-127.8 331.84,-122.89 321.44,-120.87 322.45,-127.8"/>
</g>
<!-- Node5 -->
<g id="node5" class="node">
<title>Node5</title>
<g id="a_node5"><a xlink:href="classwmtk_1_1utils_1_1_tuple_inspector.html#a5a92c6323c9678ae3785e395bc84d4a9" target="_top" xlink:title=" ">
<polygon fill="none" stroke="black" points="498,-196.5 498,-226.5 646,-226.5 646,-196.5 498,-196.5"/>
<text text-anchor="start" x="506" y="-214.5" font-family="Helvetica,sans-Serif" font-size="10.00">wmtk::utils::TupleInspector</text>
<text text-anchor="middle" x="572" y="-203.5" font-family="Helvetica,sans-Serif" font-size="10.00">::global_cid</text>
</a>
</g>
</g>
<!-- Node4&#45;&gt;Node5 -->
<g id="edge4" class="edge">
<title>Node4&#45;&gt;Node5</title>
<path fill="none" stroke="midnightblue" d="M445.78,-128.63C451.52,-131.45 457.08,-134.72 462,-138.5 483.43,-154.96 476.12,-171.64 498,-187.5 500.08,-189.01 502.26,-190.42 504.51,-191.75"/>
<polygon fill="midnightblue" stroke="midnightblue" points="503.02,-194.93 513.51,-196.47 506.28,-188.73 503.02,-194.93"/>
</g>
<!-- Node6 -->
<g id="node6" class="node">
<title>Node6</title>
<g id="a_node6"><a xlink:href="classwmtk_1_1utils_1_1_tuple_inspector.html#ae396c2b7e1c4c56d911d0dd848ff7ba7" target="_top" xlink:title=" ">
<polygon fill="none" stroke="black" points="498,-147.5 498,-177.5 646,-177.5 646,-147.5 498,-147.5"/>
<text text-anchor="start" x="506" y="-165.5" font-family="Helvetica,sans-Serif" font-size="10.00">wmtk::utils::TupleInspector</text>
<text text-anchor="middle" x="572" y="-154.5" font-family="Helvetica,sans-Serif" font-size="10.00">::hash</text>
</a>
</g>
</g>
<!-- Node4&#45;&gt;Node6 -->
<g id="edge5" class="edge">
<title>Node4&#45;&gt;Node6</title>
<path fill="none" stroke="midnightblue" d="M451.32,-128.6C469.24,-133.68 489.41,-139.39 508.01,-144.66"/>
<polygon fill="midnightblue" stroke="midnightblue" points="507.28,-148.09 517.86,-147.45 509.19,-141.36 507.28,-148.09"/>
</g>
<!-- Node7 -->
<g id="node7" class="node">
<title>Node7</title>
<g id="a_node7"><a xlink:href="classwmtk_1_1utils_1_1_tuple_inspector.html#a3ae49ee45025897b049dbd6291d38d3e" target="_top" xlink:title=" ">
<polygon fill="none" stroke="black" points="498,-98.5 498,-128.5 646,-128.5 646,-98.5 498,-98.5"/>
<text text-anchor="start" x="506" y="-116.5" font-family="Helvetica,sans-Serif" font-size="10.00">wmtk::utils::TupleInspector</text>
<text text-anchor="middle" x="572" y="-105.5" font-family="Helvetica,sans-Serif" font-size="10.00">::local_eid</text>
</a>
</g>
</g>
<!-- Node4&#45;&gt;Node7 -->
<g id="edge6" class="edge">
<title>Node4&#45;&gt;Node7</title>
<path fill="none" stroke="midnightblue" d="M462.42,-113.5C470.61,-113.5 479.09,-113.5 487.53,-113.5"/>
<polygon fill="midnightblue" stroke="midnightblue" points="487.79,-117 497.79,-113.5 487.79,-110 487.79,-117"/>
</g>
<!-- Node8 -->
<g id="node8" class="node">
<title>Node8</title>
<g id="a_node8"><a xlink:href="classwmtk_1_1utils_1_1_tuple_inspector.html#ad53c9feea9da16f5b31b9708a699e466" target="_top" xlink:title=" ">
<polygon fill="none" stroke="black" points="498,-49.5 498,-79.5 646,-79.5 646,-49.5 498,-49.5"/>
<text text-anchor="start" x="506" y="-67.5" font-family="Helvetica,sans-Serif" font-size="10.00">wmtk::utils::TupleInspector</text>
<text text-anchor="middle" x="572" y="-56.5" font-family="Helvetica,sans-Serif" font-size="10.00">::local_fid</text>
</a>
</g>
</g>
<!-- Node4&#45;&gt;Node8 -->
<g id="edge7" class="edge">
<title>Node4&#45;&gt;Node8</title>
<path fill="none" stroke="midnightblue" d="M451.32,-98.4C469.24,-93.32 489.41,-87.61 508.01,-82.34"/>
<polygon fill="midnightblue" stroke="midnightblue" points="509.19,-85.64 517.86,-79.55 507.28,-78.91 509.19,-85.64"/>
</g>
<!-- Node9 -->
<g id="node9" class="node">
<title>Node9</title>
<g id="a_node9"><a xlink:href="classwmtk_1_1utils_1_1_tuple_inspector.html#a164882d2ccc6019e0067e8ad5e7e3bdb" target="_top" xlink:title=" ">
<polygon fill="none" stroke="black" points="498,-0.5 498,-30.5 646,-30.5 646,-0.5 498,-0.5"/>
<text text-anchor="start" x="506" y="-18.5" font-family="Helvetica,sans-Serif" font-size="10.00">wmtk::utils::TupleInspector</text>
<text text-anchor="middle" x="572" y="-7.5" font-family="Helvetica,sans-Serif" font-size="10.00">::local_vid</text>
</a>
</g>
</g>
<!-- Node4&#45;&gt;Node9 -->
<g id="edge8" class="edge">
<title>Node4&#45;&gt;Node9</title>
<path fill="none" stroke="midnightblue" d="M415.35,-98.3C434.49,-82.17 466.74,-56.79 498,-40.5 502.05,-38.39 506.32,-36.4 510.68,-34.53"/>
<polygon fill="midnightblue" stroke="midnightblue" points="512.34,-37.63 520.3,-30.64 509.71,-31.14 512.34,-37.63"/>
</g>
</g>
</svg>
