<?xml version="1.0" encoding="UTF-8" standalone="no"?>
<!DOCTYPE svg PUBLIC "-//W3C//DTD SVG 1.1//EN"
 "http://www.w3.org/Graphics/SVG/1.1/DTD/svg11.dtd">
<!-- Generated by graphviz version 2.43.0 (0)
 -->
<!-- Title: wmtk::read_mesh Pages: 1 -->
<svg width="1188pt" height="368pt"
 viewBox="0.00 0.00 1188.00 367.50" xmlns="http://www.w3.org/2000/svg" xmlns:xlink="http://www.w3.org/1999/xlink">
<g id="graph0" class="graph" transform="scale(1 1) rotate(0) translate(4 363.5)">
<title>wmtk::read_mesh</title>
<!-- Node1 -->
<g id="Node000001" class="node">
<title>Node1</title>
<g id="a_Node000001"><a xlink:title=" ">
<polygon fill="#999999" stroke="#666666" points="104,-189 0,-189 0,-170 104,-170 104,-189"/>
<text text-anchor="middle" x="52" y="-177" font-family="Helvetica,sans-Serif" font-size="10.00">wmtk::read_mesh</text>
</a>
</g>
</g>
<!-- Node2 -->
<g id="Node000002" class="node">
<title>Node2</title>
<g id="a_Node000002"><a xlink:href="namespacewmtk_1_1io.html#a821417f1256959629cd64a293f5fcac0" target="_top" xlink:title=" ">
<polygon fill="white" stroke="#666666" points="259,-189 140,-189 140,-170 259,-170 259,-189"/>
<text text-anchor="middle" x="199.5" y="-177" font-family="Helvetica,sans-Serif" font-size="10.00">wmtk::io::read_mesh</text>
</a>
</g>
</g>
<!-- Node1&#45;&gt;Node2 -->
<g id="edge1_Node000001_Node000002" class="edge">
<title>Node1&#45;&gt;Node2</title>
<g id="a_edge1_Node000001_Node000002"><a xlink:title=" ">
<path fill="none" stroke="#63b8ff" d="M104.3,-179.5C112.59,-179.5 121.29,-179.5 129.91,-179.5"/>
<polygon fill="#63b8ff" stroke="#63b8ff" points="129.97,-183 139.97,-179.5 129.97,-176 129.97,-183"/>
</a>
</g>
</g>
<!-- Node3 -->
<g id="Node000003" class="node">
<title>Node3</title>
<g id="a_Node000003"><a xlink:href="namespacewmtk_1_1io_1_1utils.html#a6d2d518cab2596c09fdfde4126e5bc60" target="_top" xlink:title=" ">
<polygon fill="white" stroke="#666666" points="425.5,-194.5 304.5,-194.5 304.5,-164.5 425.5,-164.5 425.5,-194.5"/>
<text text-anchor="start" x="312.5" y="-182.5" font-family="Helvetica,sans-Serif" font-size="10.00">wmtk::io::utils::guess</text>
<text text-anchor="middle" x="365" y="-171.5" font-family="Helvetica,sans-Serif" font-size="10.00">_file_type</text>
</a>
</g>
</g>
<!-- Node2&#45;&gt;Node3 -->
<g id="edge2_Node000002_Node000003" class="edge">
<title>Node2&#45;&gt;Node3</title>
<g id="a_edge2_Node000002_Node000003"><a xlink:title=" ">
<path fill="none" stroke="#63b8ff" d="M259.07,-179.5C270.48,-179.5 282.54,-179.5 294.27,-179.5"/>
<polygon fill="#63b8ff" stroke="#63b8ff" points="294.47,-183 304.47,-179.5 294.47,-176 294.47,-183"/>
</a>
</g>
</g>
<!-- Node8 -->
<g id="Node000008" class="node">
<title>Node8</title>
<g id="a_Node000008"><a xlink:href="classwmtk_1_1_h_d_f5_reader.html#a2524f46ffeb8b8b9af898e7b2993bc00" target="_top" xlink:title=" ">
<polygon fill="white" stroke="#666666" points="435,-124 295,-124 295,-105 435,-105 435,-124"/>
<text text-anchor="middle" x="365" y="-112" font-family="Helvetica,sans-Serif" font-size="10.00">wmtk::HDF5Reader::read</text>
</a>
</g>
</g>
<!-- Node2&#45;&gt;Node8 -->
<g id="edge7_Node000002_Node000008" class="edge">
<title>Node2&#45;&gt;Node8</title>
<g id="a_edge7_Node000002_Node000008"><a xlink:title=" ">
<path fill="none" stroke="#63b8ff" d="M224.62,-169.91C252.6,-158.79 298.89,-140.39 330.38,-127.87"/>
<polygon fill="#63b8ff" stroke="#63b8ff" points="332.04,-130.97 340.04,-124.02 329.46,-124.47 332.04,-130.97"/>
</a>
</g>
</g>
<!-- Node14 -->
<g id="Node000014" class="node">
<title>Node14</title>
<g id="a_Node000014"><a xlink:href="classwmtk_1_1io_1_1_msh_reader.html#a679c3c7ab52537cca9b91987defa3c39" target="_top" xlink:title=" ">
<polygon fill="white" stroke="#666666" points="425,-273.5 305,-273.5 305,-243.5 425,-243.5 425,-273.5"/>
<text text-anchor="start" x="313" y="-261.5" font-family="Helvetica,sans-Serif" font-size="10.00">wmtk::io::MshReader</text>
<text text-anchor="middle" x="365" y="-250.5" font-family="Helvetica,sans-Serif" font-size="10.00">::read</text>
</a>
</g>
</g>
<!-- Node2&#45;&gt;Node14 -->
<g id="edge14_Node000002_Node000014" class="edge">
<title>Node2&#45;&gt;Node14</title>
<g id="a_edge14_Node000002_Node000014"><a xlink:title=" ">
<path fill="none" stroke="#63b8ff" d="M220.22,-189.03C245.65,-201.32 290.52,-222.99 323.38,-238.88"/>
<polygon fill="#63b8ff" stroke="#63b8ff" points="322.21,-242.19 332.74,-243.39 325.25,-235.89 322.21,-242.19"/>
</a>
</g>
</g>
<!-- Node4 -->
<g id="Node000004" class="node">
<title>Node4</title>
<g id="a_Node000004"><a xlink:href="namespacewmtk_1_1io_1_1utils.html#a7aa2d4b8fd8166da1dd28f86df6f9dab" target="_top" xlink:title=" ">
<polygon fill="white" stroke="#666666" points="630,-225.5 484,-225.5 484,-195.5 630,-195.5 630,-225.5"/>
<text text-anchor="start" x="492" y="-213.5" font-family="Helvetica,sans-Serif" font-size="10.00">wmtk::io::utils::guess</text>
<text text-anchor="middle" x="557" y="-202.5" font-family="Helvetica,sans-Serif" font-size="10.00">_file_type_from_extension</text>
</a>
</g>
</g>
<!-- Node3&#45;&gt;Node4 -->
<g id="edge3_Node000003_Node000004" class="edge">
<title>Node3&#45;&gt;Node4</title>
<g id="a_edge3_Node000003_Node000004"><a xlink:title=" ">
<path fill="none" stroke="#63b8ff" d="M425.6,-189.22C440.92,-191.72 457.67,-194.46 473.91,-197.11"/>
<polygon fill="#63b8ff" stroke="#63b8ff" points="473.51,-200.59 483.94,-198.74 474.64,-193.68 473.51,-200.59"/>
</a>
</g>
</g>
<!-- Node5 -->
<g id="Node000005" class="node">
<title>Node5</title>
<g id="a_Node000005"><a xlink:href="namespacewmtk.html#a441d6ad4f19569c7d4946e743da1a925" target="_top" xlink:title=" ">
<polygon fill="white" stroke="#666666" points="820.5,-186.5 698.5,-186.5 698.5,-156.5 820.5,-156.5 820.5,-186.5"/>
<text text-anchor="start" x="706.5" y="-174.5" font-family="Helvetica,sans-Serif" font-size="10.00">wmtk::log_and_throw</text>
<text text-anchor="middle" x="759.5" y="-163.5" font-family="Helvetica,sans-Serif" font-size="10.00">_error</text>
</a>
</g>
</g>
<!-- Node3&#45;&gt;Node5 -->
<g id="edge4_Node000003_Node000005" class="edge">
<title>Node3&#45;&gt;Node5</title>
<g id="a_edge4_Node000003_Node000005"><a xlink:title=" ">
<path fill="none" stroke="#63b8ff" d="M425.61,-178.28C496.07,-176.85 613.18,-174.46 688.05,-172.94"/>
<polygon fill="#63b8ff" stroke="#63b8ff" points="688.4,-176.43 698.33,-172.73 688.26,-169.43 688.4,-176.43"/>
</a>
</g>
</g>
<!-- Node6 -->
<g id="Node000006" class="node">
<title>Node6</title>
<g id="a_Node000006"><a xlink:href="namespacewmtk.html#a6a35f11c12436093d26fdd8be6fecc06" target="_top" xlink:title="Retrieves the current logger.">
<polygon fill="white" stroke="#666666" points="1000,-159 919,-159 919,-140 1000,-140 1000,-159"/>
<text text-anchor="middle" x="959.5" y="-147" font-family="Helvetica,sans-Serif" font-size="10.00">wmtk::logger</text>
</a>
</g>
</g>
<!-- Node5&#45;&gt;Node6 -->
<g id="edge5_Node000005_Node000006" class="edge">
<title>Node5&#45;&gt;Node6</title>
<g id="a_edge5_Node000005_Node000006"><a xlink:title=" ">
<path fill="none" stroke="#63b8ff" d="M820.71,-164.81C848.84,-161.68 881.92,-158.01 908.62,-155.04"/>
<polygon fill="#63b8ff" stroke="#63b8ff" points="909.34,-158.48 918.89,-153.9 908.56,-151.53 909.34,-158.48"/>
</a>
</g>
</g>
<!-- Node7 -->
<g id="Node000007" class="node">
<title>Node7</title>
<g id="a_Node000007"><a xlink:href="namespacewmtk.html#a3daa7951a5f8b78cf4600dc047fcc180" target="_top" xlink:title="Setup a logger object to be used by WildmeshToolkit.">
<polygon fill="white" stroke="#666666" points="1180,-159 1079,-159 1079,-140 1180,-140 1180,-159"/>
<text text-anchor="middle" x="1129.5" y="-147" font-family="Helvetica,sans-Serif" font-size="10.00">wmtk::set_logger</text>
</a>
</g>
</g>
<!-- Node6&#45;&gt;Node7 -->
<g id="edge6_Node000006_Node000007" class="edge">
<title>Node6&#45;&gt;Node7</title>
<g id="a_edge6_Node000006_Node000007"><a xlink:title=" ">
<path fill="none" stroke="#63b8ff" d="M1000.31,-149.5C1020.68,-149.5 1045.88,-149.5 1068.54,-149.5"/>
<polygon fill="#63b8ff" stroke="#63b8ff" points="1068.74,-153 1078.74,-149.5 1068.74,-146 1068.74,-153"/>
</a>
</g>
</g>
<!-- Node9 -->
<g id="Node000009" class="node">
<title>Node9</title>
<g id="a_Node000009"><a xlink:href="classwmtk_1_1multimesh_1_1_multi_mesh_manager.html#a8bbf1e9eb12a95c6b66bf85d0b900bb6" target="_top" xlink:title=" ">
<polygon fill="white" stroke="#666666" points="637,-41 477,-41 477,0 637,0 637,-41"/>
<text text-anchor="start" x="485" y="-29" font-family="Helvetica,sans-Serif" font-size="10.00">wmtk::multimesh::MultiMesh</text>
<text text-anchor="start" x="485" y="-18" font-family="Helvetica,sans-Serif" font-size="10.00">Manager::child_to_parent</text>
<text text-anchor="middle" x="557" y="-7" font-family="Helvetica,sans-Serif" font-size="10.00">_map_attribute_name</text>
</a>
</g>
</g>
<!-- Node8&#45;&gt;Node9 -->
<g id="edge8_Node000008_Node000009" class="edge">
<title>Node8&#45;&gt;Node9</title>
<g id="a_edge8_Node000008_Node000009"><a xlink:title=" ">
<path fill="none" stroke="#63b8ff" d="M379.37,-104.85C398.79,-91.14 436.3,-65.9 471,-49.5 474.37,-47.91 477.85,-46.36 481.4,-44.86"/>
<polygon fill="#63b8ff" stroke="#63b8ff" points="482.93,-48.02 490.88,-41.02 480.3,-41.53 482.93,-48.02"/>
</a>
</g>
</g>
<!-- Node10 -->
<g id="Node000010" class="node">
<title>Node10</title>
<g id="a_Node000010"><a xlink:href="classwmtk_1_1multimesh_1_1_multi_mesh_manager.html#a8789badb5de2a644770dcb8cdf6f3bd1" target="_top" xlink:title=" ">
<polygon fill="white" stroke="#666666" points="637,-100 477,-100 477,-59 637,-59 637,-100"/>
<text text-anchor="start" x="485" y="-88" font-family="Helvetica,sans-Serif" font-size="10.00">wmtk::multimesh::MultiMesh</text>
<text text-anchor="start" x="485" y="-77" font-family="Helvetica,sans-Serif" font-size="10.00">Manager::parent_to_child</text>
<text text-anchor="middle" x="557" y="-66" font-family="Helvetica,sans-Serif" font-size="10.00">_map_attribute_name</text>
</a>
</g>
</g>
<!-- Node8&#45;&gt;Node10 -->
<g id="edge9_Node000008_Node000010" class="edge">
<title>Node8&#45;&gt;Node10</title>
<g id="a_edge9_Node000008_Node000010"><a xlink:title=" ">
<path fill="none" stroke="#63b8ff" d="M417.67,-104.98C432.92,-102.17 450.06,-99.02 466.95,-95.9"/>
<polygon fill="#63b8ff" stroke="#63b8ff" points="467.65,-99.33 476.85,-94.08 466.38,-92.45 467.65,-99.33"/>
</a>
</g>
</g>
<!-- Node11 -->
<g id="Node000011" class="node">
<title>Node11</title>
<g id="a_Node000011"><a xlink:href="classwmtk_1_1_h_d_f5_reader.html#a590a9a7f8fcaf06216053ae632fac286" target="_top" xlink:title=" ">
<polygon fill="white" stroke="#666666" points="643,-137 471,-137 471,-118 643,-118 643,-137"/>
<text text-anchor="middle" x="557" y="-125" font-family="Helvetica,sans-Serif" font-size="10.00">wmtk::HDF5Reader::read_mesh</text>
</a>
</g>
</g>
<!-- Node8&#45;&gt;Node11 -->
<g id="edge10_Node000008_Node000011" class="edge">
<title>Node8&#45;&gt;Node11</title>
<g id="a_edge10_Node000008_Node000011"><a xlink:title=" ">
<path fill="none" stroke="#63b8ff" d="M435.13,-119.23C443.44,-119.8 452.04,-120.39 460.65,-120.98"/>
<polygon fill="#63b8ff" stroke="#63b8ff" points="460.51,-124.47 470.73,-121.67 460.99,-117.49 460.51,-124.47"/>
</a>
</g>
</g>
<!-- Node12 -->
<g id="Node000012" class="node">
<title>Node12</title>
<g id="a_Node000012"><a xlink:href="classwmtk_1_1_h_d_f5_reader.html#a1fa107577b2f430d4d064755c33110fd" target="_top" xlink:title=" ">
<polygon fill="white" stroke="#666666" points="829.5,-138.5 689.5,-138.5 689.5,-108.5 829.5,-108.5 829.5,-138.5"/>
<text text-anchor="start" x="697.5" y="-126.5" font-family="Helvetica,sans-Serif" font-size="10.00">wmtk::HDF5Reader::read</text>
<text text-anchor="middle" x="759.5" y="-115.5" font-family="Helvetica,sans-Serif" font-size="10.00">_attribute</text>
</a>
</g>
</g>
<!-- Node11&#45;&gt;Node12 -->
<g id="edge11_Node000011_Node000012" class="edge">
<title>Node11&#45;&gt;Node12</title>
<g id="a_edge11_Node000011_Node000012"><a xlink:title=" ">
<path fill="none" stroke="#63b8ff" d="M643.03,-125.8C655,-125.56 667.27,-125.32 679.12,-125.08"/>
<polygon fill="#63b8ff" stroke="#63b8ff" points="679.49,-128.58 689.42,-124.88 679.35,-121.58 679.49,-128.58"/>
</a>
</g>
</g>
<!-- Node12&#45;&gt;Node6 -->
<g id="edge13_Node000012_Node000006" class="edge">
<title>Node12&#45;&gt;Node6</title>
<g id="a_edge13_Node000012_Node000006"><a xlink:title=" ">
<path fill="none" stroke="#63b8ff" d="M829.75,-132.59C855.69,-136 884.63,-139.8 908.49,-142.93"/>
<polygon fill="#63b8ff" stroke="#63b8ff" points="908.36,-146.45 918.73,-144.28 909.27,-139.5 908.36,-146.45"/>
</a>
</g>
</g>
<!-- Node13 -->
<g id="Node000013" class="node">
<title>Node13</title>
<g id="a_Node000013"><a xlink:href="classwmtk_1_1_rational.html#aafdd2d4d5ec5db312372bfb3bf0ee86d" target="_top" xlink:title=" ">
<polygon fill="white" stroke="#666666" points="1016,-121.5 903,-121.5 903,-91.5 1016,-91.5 1016,-121.5"/>
<text text-anchor="start" x="911" y="-109.5" font-family="Helvetica,sans-Serif" font-size="10.00">wmtk::Rational::init</text>
<text text-anchor="middle" x="959.5" y="-98.5" font-family="Helvetica,sans-Serif" font-size="10.00">_from_binary</text>
</a>
</g>
</g>
<!-- Node12&#45;&gt;Node13 -->
<g id="edge12_Node000012_Node000013" class="edge">
<title>Node12&#45;&gt;Node13</title>
<g id="a_edge12_Node000012_Node000013"><a xlink:title=" ">
<path fill="none" stroke="#63b8ff" d="M829.75,-117.55C850.26,-115.79 872.65,-113.87 892.92,-112.13"/>
<polygon fill="#63b8ff" stroke="#63b8ff" points="893.33,-115.61 903,-111.27 892.73,-108.63 893.33,-115.61"/>
</a>
</g>
</g>
<!-- Node15 -->
<g id="Node000015" class="node">
<title>Node15</title>
<g id="a_Node000015"><a xlink:href="classwmtk_1_1io_1_1_msh_reader.html#a5993331b70b939129568f8dea340e61d" target="_top" xlink:title=" ">
<polygon fill="white" stroke="#666666" points="617,-273.5 497,-273.5 497,-243.5 617,-243.5 617,-273.5"/>
<text text-anchor="start" x="505" y="-261.5" font-family="Helvetica,sans-Serif" font-size="10.00">wmtk::io::MshReader</text>
<text text-anchor="middle" x="557" y="-250.5" font-family="Helvetica,sans-Serif" font-size="10.00">::generate</text>
</a>
</g>
</g>
<!-- Node14&#45;&gt;Node15 -->
<g id="edge15_Node000014_Node000015" class="edge">
<title>Node14&#45;&gt;Node15</title>
<g id="a_edge15_Node000014_Node000015"><a xlink:title=" ">
<path fill="none" stroke="#63b8ff" d="M425.08,-258.5C444.65,-258.5 466.6,-258.5 486.86,-258.5"/>
<polygon fill="#63b8ff" stroke="#63b8ff" points="486.96,-262 496.96,-258.5 486.96,-255 486.96,-262"/>
</a>
</g>
</g>
<!-- Node21 -->
<g id="Node000021" class="node">
<title>Node21</title>
<g id="a_Node000021"><a xlink:href="classwmtk_1_1io_1_1_msh_reader.html#a1f8099e61f9e5fe8192d6b3a39848d31" target="_top" xlink:title=" ">
<polygon fill="white" stroke="#666666" points="620.5,-337.5 493.5,-337.5 493.5,-307.5 620.5,-307.5 620.5,-337.5"/>
<text text-anchor="start" x="501.5" y="-325.5" font-family="Helvetica,sans-Serif" font-size="10.00">wmtk::io::MshReader</text>
<text text-anchor="middle" x="557" y="-314.5" font-family="Helvetica,sans-Serif" font-size="10.00">::get_mesh_dimension</text>
</a>
</g>
</g>
<!-- Node14&#45;&gt;Node21 -->
<g id="edge23_Node000014_Node000021" class="edge">
<title>Node14&#45;&gt;Node21</title>
<g id="a_edge23_Node000014_Node000021"><a xlink:title=" ">
<path fill="none" stroke="#63b8ff" d="M410.55,-273.51C437.84,-282.7 472.97,-294.53 501.86,-304.26"/>
<polygon fill="#63b8ff" stroke="#63b8ff" points="500.81,-307.6 511.4,-307.48 503.04,-300.97 500.81,-307.6"/>
</a>
</g>
</g>
<!-- Node15&#45;&gt;Node5 -->
<g id="edge17_Node000015_Node000005" class="edge">
<title>Node15&#45;&gt;Node5</title>
<g id="a_edge17_Node000015_Node000005"><a xlink:title=" ">
<path fill="none" stroke="#63b8ff" d="M617.33,-244.17C626.09,-241.36 634.89,-238.14 643,-234.5 660.32,-226.73 662.5,-220.89 679,-211.5 691.31,-204.5 704.99,-197.38 717.49,-191.13"/>
<polygon fill="#63b8ff" stroke="#63b8ff" points="719.36,-194.11 726.77,-186.54 716.25,-187.84 719.36,-194.11"/>
</a>
</g>
</g>
<!-- Node16 -->
<g id="Node000016" class="node">
<title>Node16</title>
<g id="a_Node000016"><a xlink:href="namespacewmtk.html#a3b08a5d7fb42f02c54bae85758b39f59" target="_top" xlink:title="Get the primitive type corresponding to its unique integer id.">
<polygon fill="white" stroke="#666666" points="817.5,-298.5 701.5,-298.5 701.5,-268.5 817.5,-268.5 817.5,-298.5"/>
<text text-anchor="start" x="709.5" y="-286.5" font-family="Helvetica,sans-Serif" font-size="10.00">wmtk::get_primitive</text>
<text text-anchor="middle" x="759.5" y="-275.5" font-family="Helvetica,sans-Serif" font-size="10.00">_type_from_id</text>
</a>
</g>
</g>
<!-- Node15&#45;&gt;Node16 -->
<g id="edge16_Node000015_Node000016" class="edge">
<title>Node15&#45;&gt;Node16</title>
<g id="a_edge16_Node000015_Node000016"><a xlink:title=" ">
<path fill="none" stroke="#63b8ff" d="M617.07,-265.87C640.32,-268.76 667.14,-272.11 691.14,-275.1"/>
<polygon fill="#63b8ff" stroke="#63b8ff" points="690.87,-278.59 701.23,-276.36 691.74,-271.65 690.87,-278.59"/>
</a>
</g>
</g>
<!-- Node17 -->
<g id="Node000017" class="node">
<title>Node17</title>
<g id="a_Node000017"><a xlink:href="namespacewmtk_1_1mesh__utils.html#ad92eb4095d516f6a20e25587f9effe80" target="_top" xlink:title=" ">
<polygon fill="white" stroke="#666666" points="822,-250.5 697,-250.5 697,-220.5 822,-220.5 822,-250.5"/>
<text text-anchor="start" x="705" y="-238.5" font-family="Helvetica,sans-Serif" font-size="10.00">wmtk::mesh_utils::set</text>
<text text-anchor="middle" x="759.5" y="-227.5" font-family="Helvetica,sans-Serif" font-size="10.00">_matrix_attribute</text>
</a>
</g>
</g>
<!-- Node15&#45;&gt;Node17 -->
<g id="edge18_Node000015_Node000017" class="edge">
<title>Node15&#45;&gt;Node17</title>
<g id="a_edge18_Node000015_Node000017"><a xlink:title=" ">
<path fill="none" stroke="#63b8ff" d="M617.07,-251.72C638.91,-249.22 663.9,-246.35 686.74,-243.73"/>
<polygon fill="#63b8ff" stroke="#63b8ff" points="687.18,-247.2 696.72,-242.59 686.38,-240.25 687.18,-247.2"/>
</a>
</g>
</g>
<!-- Node18 -->
<g id="Node000018" class="node">
<title>Node18</title>
<g id="a_Node000018"><a xlink:href="classwmtk_1_1attribute_1_1_mesh_attribute_handle.html#a9c02e0fc8ac13ad9f16ce928e7a2c84c" target="_top" xlink:title=" ">
<polygon fill="white" stroke="#666666" points="1043,-207.5 876,-207.5 876,-177.5 1043,-177.5 1043,-207.5"/>
<text text-anchor="start" x="884" y="-195.5" font-family="Helvetica,sans-Serif" font-size="10.00">wmtk::attribute::MeshAttribute</text>
<text text-anchor="middle" x="959.5" y="-184.5" font-family="Helvetica,sans-Serif" font-size="10.00">Handle::as</text>
</a>
</g>
</g>
<!-- Node17&#45;&gt;Node18 -->
<g id="edge19_Node000017_Node000018" class="edge">
<title>Node17&#45;&gt;Node18</title>
<g id="a_edge19_Node000017_Node000018"><a xlink:title=" ">
<path fill="none" stroke="#63b8ff" d="M822.06,-222.13C840.24,-218.18 860.39,-213.81 879.5,-209.66"/>
<polygon fill="#63b8ff" stroke="#63b8ff" points="880.35,-213.05 889.38,-207.51 878.86,-206.21 880.35,-213.05"/>
</a>
</g>
</g>
<!-- Node19 -->
<g id="Node000019" class="node">
<title>Node19</title>
<g id="a_Node000019"><a xlink:href="classwmtk_1_1_mesh.html#ad85569ecd50cc7c0b5161b1d1cd13ebb" target="_top" xlink:title=" ">
<polygon fill="white" stroke="#666666" points="1016,-311.5 903,-311.5 903,-281.5 1016,-281.5 1016,-311.5"/>
<text text-anchor="start" x="911" y="-299.5" font-family="Helvetica,sans-Serif" font-size="10.00">wmtk::Mesh::create</text>
<text text-anchor="middle" x="959.5" y="-288.5" font-family="Helvetica,sans-Serif" font-size="10.00">_accessor</text>
</a>
</g>
</g>
<!-- Node17&#45;&gt;Node19 -->
<g id="edge20_Node000017_Node000019" class="edge">
<title>Node17&#45;&gt;Node19</title>
<g id="a_edge20_Node000017_Node000019"><a xlink:title=" ">
<path fill="none" stroke="#63b8ff" d="M811.03,-250.52C820.67,-253.45 830.66,-256.53 840,-259.5 856.07,-264.6 859.93,-266.39 876,-271.5 883.14,-273.77 890.64,-276.11 898.09,-278.4"/>
<polygon fill="#63b8ff" stroke="#63b8ff" points="897.23,-281.8 907.82,-281.38 899.28,-275.11 897.23,-281.8"/>
</a>
</g>
</g>
<!-- Node20 -->
<g id="Node000020" class="node">
<title>Node20</title>
<g id="a_Node000020"><a xlink:href="classwmtk_1_1_mesh.html#a6d2a546c8f661bf6386cf845a1693d2f" target="_top" xlink:title="Generate a vector of Tuples from global vertex/edge/triangle/tetrahedron index.">
<polygon fill="white" stroke="#666666" points="1017.5,-245 901.5,-245 901.5,-226 1017.5,-226 1017.5,-245"/>
<text text-anchor="middle" x="959.5" y="-233" font-family="Helvetica,sans-Serif" font-size="10.00">wmtk::Mesh::get_all</text>
</a>
</g>
</g>
<!-- Node17&#45;&gt;Node20 -->
<g id="edge21_Node000017_Node000020" class="edge">
<title>Node17&#45;&gt;Node20</title>
<g id="a_edge21_Node000017_Node000020"><a xlink:title=" ">
<path fill="none" stroke="#63b8ff" d="M822.06,-235.5C844.02,-235.5 868.85,-235.5 891.26,-235.5"/>
<polygon fill="#63b8ff" stroke="#63b8ff" points="891.36,-239 901.36,-235.5 891.36,-232 891.36,-239"/>
</a>
</g>
</g>
<!-- Node20&#45;&gt;Node20 -->
<g id="edge22_Node000020_Node000020" class="edge">
<title>Node20&#45;&gt;Node20</title>
<g id="a_edge22_Node000020_Node000020"><a xlink:title=" ">
<path fill="none" stroke="#63b8ff" d="M933.3,-245.08C920.55,-253.73 929.29,-263 959.5,-263 979.8,-263 990.4,-258.82 991.31,-253.45"/>
<polygon fill="#63b8ff" stroke="#63b8ff" points="994.18,-251.44 985.7,-245.08 988.36,-255.34 994.18,-251.44"/>
</a>
</g>
</g>
<!-- Node22 -->
<g id="Node000022" class="node">
<title>Node22</title>
<g id="a_Node000022"><a xlink:href="classwmtk_1_1io_1_1_msh_reader.html#a1e3109afc940f7bbb09305b9a53b3286" target="_top" xlink:title=" ">
<polygon fill="white" stroke="#666666" points="840,-352.5 679,-352.5 679,-322.5 840,-322.5 840,-352.5"/>
<text text-anchor="start" x="687" y="-340.5" font-family="Helvetica,sans-Serif" font-size="10.00">wmtk::io::MshReader</text>
<text text-anchor="middle" x="759.5" y="-329.5" font-family="Helvetica,sans-Serif" font-size="10.00">::get_num_simplex_elements</text>
</a>
</g>
</g>
<!-- Node21&#45;&gt;Node22 -->
<g id="edge24_Node000021_Node000022" class="edge">
<title>Node21&#45;&gt;Node22</title>
<g id="a_edge24_Node000021_Node000022"><a xlink:title=" ">
<path fill="none" stroke="#63b8ff" d="M620.61,-327.18C635.84,-328.32 652.42,-329.56 668.63,-330.78"/>
<polygon fill="#63b8ff" stroke="#63b8ff" points="668.43,-334.27 678.66,-331.53 668.95,-327.29 668.43,-334.27"/>
</a>
</g>
</g>
<!-- Node23 -->
<g id="Node000023" class="node">
<title>Node23</title>
<g id="a_Node000023"><a xlink:href="classwmtk_1_1io_1_1_msh_reader.html#a14d91d914710de902770a6a173a2d61b" target="_top" xlink:title=" ">
<polygon fill="white" stroke="#666666" points="1039.5,-359.5 879.5,-359.5 879.5,-329.5 1039.5,-329.5 1039.5,-359.5"/>
<text text-anchor="start" x="887.5" y="-347.5" font-family="Helvetica,sans-Serif" font-size="10.00">wmtk::io::MshReader</text>
<text text-anchor="middle" x="959.5" y="-336.5" font-family="Helvetica,sans-Serif" font-size="10.00">::get_simplex_element_block</text>
</a>
</g>
</g>
<!-- Node22&#45;&gt;Node23 -->
<g id="edge25_Node000022_Node000023" class="edge">
<title>Node22&#45;&gt;Node23</title>
<g id="a_edge25_Node000022_Node000023"><a xlink:title=" ">
<path fill="none" stroke="#63b8ff" d="M840.18,-340.32C849.75,-340.66 859.57,-341 869.27,-341.35"/>
<polygon fill="#63b8ff" stroke="#63b8ff" points="869.19,-344.84 879.31,-341.7 869.44,-337.85 869.19,-344.84"/>
</a>
</g>
</g>
</g>
</svg>
