<?xml version="1.0" encoding="UTF-8" standalone="no"?>
<!DOCTYPE svg PUBLIC "-//W3C//DTD SVG 1.1//EN"
 "http://www.w3.org/Graphics/SVG/1.1/DTD/svg11.dtd">
<!-- Generated by graphviz version 2.43.0 (0)
 -->
<!-- Title: wmtk::multimesh::utils::vectors_to_tuples Pages: 1 -->
<svg width="1860pt" height="625pt"
 viewBox="0.00 0.00 1860.00 624.50" xmlns="http://www.w3.org/2000/svg" xmlns:xlink="http://www.w3.org/1999/xlink">
<g id="graph0" class="graph" transform="scale(1 1) rotate(0) translate(4 620.5)">
<title>wmtk::multimesh::utils::vectors_to_tuples</title>
<!-- Node1 -->
<g id="node1" class="node">
<title>Node1</title>
<g id="a_node1"><a xlink:title=" ">
<polygon fill="#bfbfbf" stroke="black" points="1722,-412.5 1722,-442.5 1852,-442.5 1852,-412.5 1722,-412.5"/>
<text text-anchor="start" x="1730" y="-430.5" font-family="Helvetica,sans-Serif" font-size="10.00">wmtk::multimesh::utils</text>
<text text-anchor="middle" x="1787" y="-419.5" font-family="Helvetica,sans-Serif" font-size="10.00">::vectors_to_tuples</text>
</a>
</g>
</g>
<!-- Node2 -->
<g id="node2" class="node">
<title>Node2</title>
<g id="a_node2"><a xlink:href="test__component__isotropic__remeshing_8cpp.html#a0a2599a72d0a25e4a2c9963351c85052" target="_top" xlink:title=" ">
<polygon fill="none" stroke="black" points="1527.5,-494 1527.5,-513 1643.5,-513 1643.5,-494 1527.5,-494"/>
<text text-anchor="middle" x="1585.5" y="-501" font-family="Helvetica,sans-Serif" font-size="10.00">print_tuple_map_iso</text>
</a>
</g>
</g>
<!-- Node1&#45;&gt;Node2 -->
<g id="edge1" class="edge">
<title>Node1&#45;&gt;Node2</title>
<path fill="none" stroke="midnightblue" d="M1755.8,-448.22C1736.59,-460.48 1710.76,-475.37 1686,-484.5 1672.64,-489.43 1657.77,-493.14 1643.68,-495.91"/>
<polygon fill="midnightblue" stroke="midnightblue" points="1757.92,-451.01 1764.39,-442.62 1754.1,-445.14 1757.92,-451.01"/>
</g>
<!-- Node3 -->
<g id="node3" class="node">
<title>Node3</title>
<g id="a_node3"><a xlink:href="namespacewmtk_1_1multimesh_1_1utils.html#a7d748ef4839b09a5460e8af97b9fa678" target="_top" xlink:title=" ">
<polygon fill="none" stroke="black" points="1511,-444.5 1511,-474.5 1660,-474.5 1660,-444.5 1511,-444.5"/>
<text text-anchor="start" x="1519" y="-462.5" font-family="Helvetica,sans-Serif" font-size="10.00">wmtk::multimesh::utils</text>
<text text-anchor="middle" x="1585.5" y="-451.5" font-family="Helvetica,sans-Serif" font-size="10.00">::read_tuple_map_attribute</text>
</a>
</g>
</g>
<!-- Node1&#45;&gt;Node3 -->
<g id="edge2" class="edge">
<title>Node1&#45;&gt;Node3</title>
<path fill="none" stroke="midnightblue" d="M1711.51,-439.45C1694.77,-442.13 1677.02,-444.98 1660.32,-447.66"/>
<polygon fill="midnightblue" stroke="midnightblue" points="1712.46,-442.84 1721.78,-437.8 1711.35,-435.93 1712.46,-442.84"/>
</g>
<!-- Node75 -->
<g id="node47" class="node">
<title>Node75</title>
<g id="a_node47"><a xlink:href="classwmtk_1_1operations_1_1utils_1_1_update_edge_operation_multi_mesh_map_functor.html#a4c69338c29bf0105b1881d829a177d45" target="_top" xlink:title=" ">
<polygon fill="none" stroke="black" points="1485,-380 1485,-421 1686,-421 1686,-380 1485,-380"/>
<text text-anchor="start" x="1493" y="-409" font-family="Helvetica,sans-Serif" font-size="10.00">wmtk::operations::utils</text>
<text text-anchor="start" x="1493" y="-398" font-family="Helvetica,sans-Serif" font-size="10.00">::UpdateEdgeOperationMultiMesh</text>
<text text-anchor="middle" x="1585.5" y="-387" font-family="Helvetica,sans-Serif" font-size="10.00">MapFunctor::update_ear_replacement</text>
</a>
</g>
</g>
<!-- Node1&#45;&gt;Node75 -->
<g id="edge49" class="edge">
<title>Node1&#45;&gt;Node75</title>
<path fill="none" stroke="midnightblue" d="M1711.74,-417.45C1703.39,-416.32 1694.79,-415.16 1686.19,-413.99"/>
<polygon fill="midnightblue" stroke="midnightblue" points="1711.4,-420.94 1721.78,-418.81 1712.34,-414 1711.4,-420.94"/>
</g>
<!-- Node77 -->
<g id="node49" class="node">
<title>Node77</title>
<g id="a_node49"><a xlink:href="classwmtk_1_1multimesh_1_1_multi_mesh_manager.html#abe80ff5ed63ac45969a4d7d087a5ffd8" target="_top" xlink:title=" ">
<polygon fill="none" stroke="black" points="1487.5,-322.5 1487.5,-352.5 1683.5,-352.5 1683.5,-322.5 1487.5,-322.5"/>
<text text-anchor="start" x="1495.5" y="-340.5" font-family="Helvetica,sans-Serif" font-size="10.00">wmtk::multimesh::MultiMesh</text>
<text text-anchor="middle" x="1585.5" y="-329.5" font-family="Helvetica,sans-Serif" font-size="10.00">Manager::update_map_tuple_hashes</text>
</a>
</g>
</g>
<!-- Node1&#45;&gt;Node77 -->
<g id="edge51" class="edge">
<title>Node1&#45;&gt;Node77</title>
<path fill="none" stroke="midnightblue" d="M1753.81,-406.98C1734.61,-395.3 1709.48,-380.96 1686,-370.5 1670.87,-363.76 1653.93,-357.64 1638.37,-352.55"/>
<polygon fill="midnightblue" stroke="midnightblue" points="1752.1,-410.04 1762.45,-412.3 1755.77,-404.08 1752.1,-410.04"/>
</g>
<!-- Node4 -->
<g id="node4" class="node">
<title>Node4</title>
<g id="a_node4"><a xlink:href="classwmtk_1_1multimesh_1_1_multi_mesh_manager.html#a6f9186ced3e97aef2a0af71a3aa5c6a0" target="_top" xlink:title=" ">
<polygon fill="none" stroke="black" points="1241,-405.5 1241,-435.5 1449,-435.5 1449,-405.5 1241,-405.5"/>
<text text-anchor="start" x="1249" y="-423.5" font-family="Helvetica,sans-Serif" font-size="10.00">wmtk::multimesh::MultiMesh</text>
<text text-anchor="middle" x="1345" y="-412.5" font-family="Helvetica,sans-Serif" font-size="10.00">Manager::map_tuple_between_meshes</text>
</a>
</g>
</g>
<!-- Node3&#45;&gt;Node4 -->
<g id="edge3" class="edge">
<title>Node3&#45;&gt;Node4</title>
<path fill="none" stroke="midnightblue" d="M1501.09,-445.86C1480.63,-442.51 1458.62,-438.92 1437.79,-435.51"/>
<polygon fill="midnightblue" stroke="midnightblue" points="1500.56,-449.32 1511,-447.48 1501.69,-442.41 1500.56,-449.32"/>
</g>
<!-- Node69 -->
<g id="node41" class="node">
<title>Node69</title>
<g id="a_node41"><a xlink:href="namespacewmtk_1_1multimesh_1_1utils.html#ad94e77dd28232bdd696412d346f30f62" target="_top" xlink:title=" ">
<polygon fill="none" stroke="black" points="1257,-454.5 1257,-484.5 1433,-484.5 1433,-454.5 1257,-454.5"/>
<text text-anchor="start" x="1265" y="-472.5" font-family="Helvetica,sans-Serif" font-size="10.00">wmtk::multimesh::utils</text>
<text text-anchor="middle" x="1345" y="-461.5" font-family="Helvetica,sans-Serif" font-size="10.00">::read_tuple_map_attribute_slow</text>
</a>
</g>
</g>
<!-- Node3&#45;&gt;Node69 -->
<g id="edge42" class="edge">
<title>Node3&#45;&gt;Node69</title>
<path fill="none" stroke="midnightblue" d="M1500.73,-463.01C1478.82,-463.93 1455.16,-464.92 1433.08,-465.85"/>
<polygon fill="midnightblue" stroke="midnightblue" points="1501.15,-466.5 1511,-462.58 1500.86,-459.5 1501.15,-466.5"/>
</g>
<!-- Node70 -->
<g id="node42" class="node">
<title>Node70</title>
<g id="a_node42"><a xlink:href="namespacewmtk_1_1operations_1_1utils.html#a45a56d2f7cd5b33c464cfe0779be372a" target="_top" xlink:title=" ">
<polygon fill="none" stroke="black" points="1272.5,-575 1272.5,-616 1417.5,-616 1417.5,-575 1272.5,-575"/>
<text text-anchor="start" x="1280.5" y="-604" font-family="Helvetica,sans-Serif" font-size="10.00">wmtk::operations::utils</text>
<text text-anchor="start" x="1280.5" y="-593" font-family="Helvetica,sans-Serif" font-size="10.00">::update_vertex_operation</text>
<text text-anchor="middle" x="1345" y="-582" font-family="Helvetica,sans-Serif" font-size="10.00">_multimesh_map_hash</text>
</a>
</g>
</g>
<!-- Node3&#45;&gt;Node70 -->
<g id="edge44" class="edge">
<title>Node3&#45;&gt;Node70</title>
<path fill="none" stroke="midnightblue" d="M1501.43,-473.91C1495.53,-476.83 1489.96,-480.32 1485,-484.5 1454.85,-509.86 1478.67,-539.58 1449,-565.5 1440.02,-573.34 1429.1,-579.14 1417.76,-583.42"/>
<polygon fill="midnightblue" stroke="midnightblue" points="1503.15,-476.98 1510.92,-469.77 1500.36,-470.56 1503.15,-476.98"/>
</g>
<!-- Node72 -->
<g id="node44" class="node">
<title>Node72</title>
<g id="a_node44"><a xlink:href="classwmtk_1_1multimesh_1_1_multi_mesh_manager.html#a49bf5ccfd29d9bbc2e2b0de2cfa67670" target="_top" xlink:title=" ">
<polygon fill="none" stroke="black" points="1265,-503.5 1265,-555.5 1425,-555.5 1425,-503.5 1265,-503.5"/>
<text text-anchor="start" x="1273" y="-543.5" font-family="Helvetica,sans-Serif" font-size="10.00">wmtk::multimesh::MultiMesh</text>
<text text-anchor="start" x="1273" y="-532.5" font-family="Helvetica,sans-Serif" font-size="10.00">Manager::update_vertex</text>
<text text-anchor="start" x="1273" y="-521.5" font-family="Helvetica,sans-Serif" font-size="10.00">_operation_multimesh_map</text>
<text text-anchor="middle" x="1345" y="-510.5" font-family="Helvetica,sans-Serif" font-size="10.00">_hash_internal</text>
</a>
</g>
</g>
<!-- Node3&#45;&gt;Node72 -->
<g id="edge46" class="edge">
<title>Node3&#45;&gt;Node72</title>
<path fill="none" stroke="midnightblue" d="M1512.09,-477.09C1502.95,-479.49 1493.74,-481.99 1485,-484.5 1464.89,-490.28 1443.3,-497 1423.28,-503.47"/>
<polygon fill="midnightblue" stroke="midnightblue" points="1513.16,-480.43 1521.96,-474.53 1511.4,-473.65 1513.16,-480.43"/>
</g>
<!-- Node5 -->
<g id="node5" class="node">
<title>Node5</title>
<g id="a_node5"><a xlink:href="classwmtk_1_1multimesh_1_1_multi_mesh_manager.html#ad1b3fcd12c4e092d9e92f2aa7db224bf" target="_top" xlink:title=" ">
<polygon fill="none" stroke="black" points="1016,-457.5 1016,-487.5 1195,-487.5 1195,-457.5 1016,-457.5"/>
<text text-anchor="start" x="1024" y="-475.5" font-family="Helvetica,sans-Serif" font-size="10.00">wmtk::multimesh::MultiMesh</text>
<text text-anchor="middle" x="1105.5" y="-464.5" font-family="Helvetica,sans-Serif" font-size="10.00">Manager::check_child_map_valid</text>
</a>
</g>
</g>
<!-- Node4&#45;&gt;Node5 -->
<g id="edge4" class="edge">
<title>Node4&#45;&gt;Node5</title>
<path fill="none" stroke="midnightblue" d="M1265.16,-437.76C1236,-444.15 1203.21,-451.33 1175.04,-457.49"/>
<polygon fill="midnightblue" stroke="midnightblue" points="1266.29,-441.1 1275.31,-435.54 1264.79,-434.26 1266.29,-441.1"/>
</g>
<!-- Node7 -->
<g id="node7" class="node">
<title>Node7</title>
<g id="a_node7"><a xlink:href="classwmtk_1_1multimesh_1_1_multi_mesh_manager.html#ad327312fd1808a9def38d576eb0a1557" target="_top" xlink:title=" ">
<polygon fill="none" stroke="black" points="1022.5,-408.5 1022.5,-438.5 1188.5,-438.5 1188.5,-408.5 1022.5,-408.5"/>
<text text-anchor="start" x="1030.5" y="-426.5" font-family="Helvetica,sans-Serif" font-size="10.00">wmtk::multimesh::MultiMesh</text>
<text text-anchor="middle" x="1105.5" y="-415.5" font-family="Helvetica,sans-Serif" font-size="10.00">Manager::map_to_child_tuples</text>
</a>
</g>
</g>
<!-- Node4&#45;&gt;Node7 -->
<g id="edge6" class="edge">
<title>Node4&#45;&gt;Node7</title>
<path fill="none" stroke="midnightblue" d="M1230.63,-421.93C1216.53,-422.11 1202.33,-422.29 1188.83,-422.46"/>
<polygon fill="midnightblue" stroke="midnightblue" points="1230.91,-425.43 1240.87,-421.8 1230.82,-418.43 1230.91,-425.43"/>
</g>
<!-- Node8 -->
<g id="node8" class="node">
<title>Node8</title>
<g id="a_node8"><a xlink:href="classwmtk_1_1multimesh_1_1_multi_mesh_manager.html#af6fd8d8b5cc1e8b2c877718b99374f03" target="_top" xlink:title=" ">
<polygon fill="none" stroke="black" points="1006,-359.5 1006,-389.5 1205,-389.5 1205,-359.5 1006,-359.5"/>
<text text-anchor="start" x="1014" y="-377.5" font-family="Helvetica,sans-Serif" font-size="10.00">wmtk::multimesh::MultiMesh</text>
<text text-anchor="middle" x="1105.5" y="-366.5" font-family="Helvetica,sans-Serif" font-size="10.00">Manager::map_tuple_to_parent_tuple</text>
</a>
</g>
</g>
<!-- Node4&#45;&gt;Node8 -->
<g id="edge7" class="edge">
<title>Node4&#45;&gt;Node8</title>
<path fill="none" stroke="midnightblue" d="M1256.21,-403.5C1232.54,-398.91 1207.1,-393.99 1184.04,-389.52"/>
<polygon fill="midnightblue" stroke="midnightblue" points="1255.75,-406.97 1266.23,-405.44 1257.08,-400.1 1255.75,-406.97"/>
</g>
<!-- Node6 -->
<g id="node6" class="node">
<title>Node6</title>
<g id="a_node6"><a xlink:href="classwmtk_1_1multimesh_1_1_multi_mesh_manager.html#a01d41f4e6fd9e1c07166ac2470068eaf" target="_top" xlink:title=" ">
<polygon fill="none" stroke="black" points="796.5,-457.5 796.5,-487.5 956.5,-487.5 956.5,-457.5 796.5,-457.5"/>
<text text-anchor="start" x="804.5" y="-475.5" font-family="Helvetica,sans-Serif" font-size="10.00">wmtk::multimesh::MultiMesh</text>
<text text-anchor="middle" x="876.5" y="-464.5" font-family="Helvetica,sans-Serif" font-size="10.00">Manager::check_map_valid</text>
</a>
</g>
</g>
<!-- Node5&#45;&gt;Node6 -->
<g id="edge5" class="edge">
<title>Node5&#45;&gt;Node6</title>
<path fill="none" stroke="midnightblue" d="M1005.62,-472.5C989.22,-472.5 972.4,-472.5 956.58,-472.5"/>
<polygon fill="midnightblue" stroke="midnightblue" points="1005.76,-476 1015.76,-472.5 1005.76,-469 1005.76,-476"/>
</g>
<!-- Node9 -->
<g id="node9" class="node">
<title>Node9</title>
<g id="a_node9"><a xlink:href="classwmtk_1_1multimesh_1_1_multi_mesh_manager.html#ac94a293fd16e73ca52793906e308b885" target="_top" xlink:title="optimized map from a simplex from this mesh to its direct parent">
<polygon fill="none" stroke="black" points="796.5,-310.5 796.5,-340.5 956.5,-340.5 956.5,-310.5 796.5,-310.5"/>
<text text-anchor="start" x="804.5" y="-328.5" font-family="Helvetica,sans-Serif" font-size="10.00">wmtk::multimesh::MultiMesh</text>
<text text-anchor="middle" x="876.5" y="-317.5" font-family="Helvetica,sans-Serif" font-size="10.00">Manager::map_to_parent</text>
</a>
</g>
</g>
<!-- Node8&#45;&gt;Node9 -->
<g id="edge8" class="edge">
<title>Node8&#45;&gt;Node9</title>
<path fill="none" stroke="midnightblue" d="M1024.89,-357.31C999.5,-351.84 971.63,-345.82 947.02,-340.51"/>
<polygon fill="midnightblue" stroke="midnightblue" points="1024.34,-360.78 1034.85,-359.47 1025.81,-353.93 1024.34,-360.78"/>
</g>
<!-- Node12 -->
<g id="node12" class="node">
<title>Node12</title>
<g id="a_node12"><a xlink:href="classwmtk_1_1multimesh_1_1_multi_mesh_manager.html#aceafdf106da35c6b5ba26539a8d47aac" target="_top" xlink:title="optimized map from a simplex from this mesh to its direct parent">
<polygon fill="none" stroke="black" points="792,-359.5 792,-389.5 961,-389.5 961,-359.5 792,-359.5"/>
<text text-anchor="start" x="800" y="-377.5" font-family="Helvetica,sans-Serif" font-size="10.00">wmtk::multimesh::MultiMesh</text>
<text text-anchor="middle" x="876.5" y="-366.5" font-family="Helvetica,sans-Serif" font-size="10.00">Manager::map_to_parent_tuple</text>
</a>
</g>
</g>
<!-- Node8&#45;&gt;Node12 -->
<g id="edge11" class="edge">
<title>Node8&#45;&gt;Node12</title>
<path fill="none" stroke="midnightblue" d="M995.72,-374.5C984.07,-374.5 972.35,-374.5 961.06,-374.5"/>
<polygon fill="midnightblue" stroke="midnightblue" points="995.92,-378 1005.92,-374.5 995.92,-371 995.92,-378"/>
</g>
<!-- Node14 -->
<g id="node14" class="node">
<title>Node14</title>
<g id="a_node14"><a xlink:href="classwmtk_1_1multimesh_1_1_multi_mesh_manager.html#abbd5b4aab00a9ebb113bc6fe5bb635bd" target="_top" xlink:title=" ">
<polygon fill="none" stroke="black" points="783,-408.5 783,-438.5 970,-438.5 970,-408.5 783,-408.5"/>
<text text-anchor="start" x="791" y="-426.5" font-family="Helvetica,sans-Serif" font-size="10.00">wmtk::multimesh::MultiMesh</text>
<text text-anchor="middle" x="876.5" y="-415.5" font-family="Helvetica,sans-Serif" font-size="10.00">Manager::map_tuple_to_root_tuple</text>
</a>
</g>
</g>
<!-- Node8&#45;&gt;Node14 -->
<g id="edge13" class="edge">
<title>Node8&#45;&gt;Node14</title>
<path fill="none" stroke="midnightblue" d="M1024.89,-391.69C999.5,-397.16 971.63,-403.18 947.02,-408.49"/>
<polygon fill="midnightblue" stroke="midnightblue" points="1025.81,-395.07 1034.85,-389.53 1024.34,-388.22 1025.81,-395.07"/>
</g>
<!-- Node32 -->
<g id="node23" class="node">
<title>Node32</title>
<g id="a_node23"><a xlink:href="classwmtk_1_1multimesh_1_1_multi_mesh_manager.html#aefe5179057c978e227c3349d13578c4a" target="_top" xlink:title=" ">
<polygon fill="none" stroke="black" points="796.5,-237.5 796.5,-267.5 956.5,-267.5 956.5,-237.5 796.5,-237.5"/>
<text text-anchor="start" x="804.5" y="-255.5" font-family="Helvetica,sans-Serif" font-size="10.00">wmtk::multimesh::MultiMesh</text>
<text text-anchor="middle" x="876.5" y="-244.5" font-family="Helvetica,sans-Serif" font-size="10.00">Manager::map_up_to_tuples</text>
</a>
</g>
</g>
<!-- Node8&#45;&gt;Node32 -->
<g id="edge22" class="edge">
<title>Node8&#45;&gt;Node32</title>
<path fill="none" stroke="midnightblue" d="M1015.22,-354.99C1012.03,-353.31 1008.94,-351.48 1006,-349.5 983.59,-334.4 990.53,-318.07 970,-300.5 954.06,-286.85 933.57,-275.72 915.93,-267.62"/>
<polygon fill="midnightblue" stroke="midnightblue" points="1013.93,-358.25 1024.46,-359.35 1016.91,-351.92 1013.93,-358.25"/>
</g>
<!-- Node10 -->
<g id="node10" class="node">
<title>Node10</title>
<g id="a_node10"><a xlink:href="classwmtk_1_1_mesh.html#abce79ed965e5c4631713fe534f1699a7" target="_top" xlink:title="optimized map from a simplex from this mesh to its direct parent">
<polygon fill="none" stroke="black" points="607.5,-310.5 607.5,-340.5 726.5,-340.5 726.5,-310.5 607.5,-310.5"/>
<text text-anchor="start" x="615.5" y="-328.5" font-family="Helvetica,sans-Serif" font-size="10.00">wmtk::Mesh::map_to</text>
<text text-anchor="middle" x="667" y="-317.5" font-family="Helvetica,sans-Serif" font-size="10.00">_parent</text>
</a>
</g>
</g>
<!-- Node9&#45;&gt;Node10 -->
<g id="edge9" class="edge">
<title>Node9&#45;&gt;Node10</title>
<path fill="none" stroke="midnightblue" d="M786.34,-325.5C766.2,-325.5 745.32,-325.5 726.81,-325.5"/>
<polygon fill="midnightblue" stroke="midnightblue" points="786.46,-329 796.46,-325.5 786.46,-322 786.46,-329"/>
</g>
<!-- Node11 -->
<g id="node11" class="node">
<title>Node11</title>
<g id="a_node11"><a xlink:href="classwmtk_1_1invariants_1_1_fusion_edge_invariant.html#abb8894b188e06d51bad0c0df062b37fe" target="_top" xlink:title=" ">
<polygon fill="none" stroke="black" points="402.5,-356.5 402.5,-386.5 539.5,-386.5 539.5,-356.5 402.5,-356.5"/>
<text text-anchor="start" x="410.5" y="-374.5" font-family="Helvetica,sans-Serif" font-size="10.00">wmtk::invariants::Fusion</text>
<text text-anchor="middle" x="471" y="-363.5" font-family="Helvetica,sans-Serif" font-size="10.00">EdgeInvariant::before</text>
</a>
</g>
</g>
<!-- Node10&#45;&gt;Node11 -->
<g id="edge10" class="edge">
<title>Node10&#45;&gt;Node11</title>
<path fill="none" stroke="midnightblue" d="M597.26,-341.8C577.19,-346.56 555.34,-351.74 535.6,-356.42"/>
<polygon fill="midnightblue" stroke="midnightblue" points="598.34,-345.14 607.27,-339.43 596.73,-338.33 598.34,-345.14"/>
</g>
<!-- Node13 -->
<g id="node13" class="node">
<title>Node13</title>
<g id="a_node13"><a xlink:href="classwmtk_1_1_mesh.html#a9a1a8863d4694baab3679edfb5c0dccb" target="_top" xlink:title="optimized map from a simplex from this mesh to its direct parent">
<polygon fill="none" stroke="black" points="607.5,-359.5 607.5,-389.5 726.5,-389.5 726.5,-359.5 607.5,-359.5"/>
<text text-anchor="start" x="615.5" y="-377.5" font-family="Helvetica,sans-Serif" font-size="10.00">wmtk::Mesh::map_to</text>
<text text-anchor="middle" x="667" y="-366.5" font-family="Helvetica,sans-Serif" font-size="10.00">_parent_tuple</text>
</a>
</g>
</g>
<!-- Node12&#45;&gt;Node13 -->
<g id="edge12" class="edge">
<title>Node12&#45;&gt;Node13</title>
<path fill="none" stroke="midnightblue" d="M781.94,-374.5C763.18,-374.5 743.97,-374.5 726.8,-374.5"/>
<polygon fill="midnightblue" stroke="midnightblue" points="782,-378 792,-374.5 782,-371 782,-378"/>
</g>
<!-- Node15 -->
<g id="node15" class="node">
<title>Node15</title>
<g id="a_node15"><a xlink:href="classwmtk_1_1multimesh_1_1_multi_mesh_manager.html#a04ea5ec1326046461d38b0dd74ded250" target="_top" xlink:title="maps a simplex from this mesh to the root mesh">
<polygon fill="none" stroke="black" points="587,-408.5 587,-438.5 747,-438.5 747,-408.5 587,-408.5"/>
<text text-anchor="start" x="595" y="-426.5" font-family="Helvetica,sans-Serif" font-size="10.00">wmtk::multimesh::MultiMesh</text>
<text text-anchor="middle" x="667" y="-415.5" font-family="Helvetica,sans-Serif" font-size="10.00">Manager::map_to_root_tuple</text>
</a>
</g>
</g>
<!-- Node14&#45;&gt;Node15 -->
<g id="edge14" class="edge">
<title>Node14&#45;&gt;Node15</title>
<path fill="none" stroke="midnightblue" d="M772.82,-423.5C764.15,-423.5 755.48,-423.5 747.03,-423.5"/>
<polygon fill="midnightblue" stroke="midnightblue" points="772.98,-427 782.98,-423.5 772.98,-420 772.98,-427"/>
</g>
<!-- Node16 -->
<g id="node16" class="node">
<title>Node16</title>
<g id="a_node16"><a xlink:href="classwmtk_1_1multimesh_1_1_multi_mesh_manager.html#adbdd51ce90b08ce81fec54bfaa85b533" target="_top" xlink:title=" ">
<polygon fill="none" stroke="black" points="391,-307.5 391,-337.5 551,-337.5 551,-307.5 391,-307.5"/>
<text text-anchor="start" x="399" y="-325.5" font-family="Helvetica,sans-Serif" font-size="10.00">wmtk::multimesh::MultiMesh</text>
<text text-anchor="middle" x="471" y="-314.5" font-family="Helvetica,sans-Serif" font-size="10.00">Manager::can_map</text>
</a>
</g>
</g>
<!-- Node15&#45;&gt;Node16 -->
<g id="edge15" class="edge">
<title>Node15&#45;&gt;Node16</title>
<path fill="none" stroke="midnightblue" d="M592.85,-403.41C590.83,-402.18 588.88,-400.88 587,-399.5 564.07,-382.62 573.93,-363.38 551,-346.5 546.38,-343.1 541.28,-340.18 535.95,-337.67"/>
<polygon fill="midnightblue" stroke="midnightblue" points="591.58,-406.7 602.05,-408.33 594.88,-400.53 591.58,-406.7"/>
</g>
<!-- Node20 -->
<g id="node19" class="node">
<title>Node20</title>
<g id="a_node19"><a xlink:href="classwmtk_1_1multimesh_1_1_multi_mesh_manager.html#ac385f8fb3dd7d7ac3c0ce66f35fa46bf" target="_top" xlink:title="maps a simplex from this mesh to the root mesh">
<polygon fill="none" stroke="black" points="391,-456.5 391,-486.5 551,-486.5 551,-456.5 391,-456.5"/>
<text text-anchor="start" x="399" y="-474.5" font-family="Helvetica,sans-Serif" font-size="10.00">wmtk::multimesh::MultiMesh</text>
<text text-anchor="middle" x="471" y="-463.5" font-family="Helvetica,sans-Serif" font-size="10.00">Manager::map_to_root</text>
</a>
</g>
</g>
<!-- Node15&#45;&gt;Node20 -->
<g id="edge18" class="edge">
<title>Node15&#45;&gt;Node20</title>
<path fill="none" stroke="midnightblue" d="M595.23,-441.01C574.7,-446.09 552.48,-451.59 532.63,-456.5"/>
<polygon fill="midnightblue" stroke="midnightblue" points="596.28,-444.36 605.15,-438.56 594.6,-437.56 596.28,-444.36"/>
</g>
<!-- Node31 -->
<g id="node22" class="node">
<title>Node31</title>
<g id="a_node22"><a xlink:href="classwmtk_1_1_mesh.html#a4fd4fede1199b98a60af2645b06ecf87" target="_top" xlink:title="maps a simplex from this mesh to the root mesh">
<polygon fill="none" stroke="black" points="411.5,-407.5 411.5,-437.5 530.5,-437.5 530.5,-407.5 411.5,-407.5"/>
<text text-anchor="start" x="419.5" y="-425.5" font-family="Helvetica,sans-Serif" font-size="10.00">wmtk::Mesh::map_to</text>
<text text-anchor="middle" x="471" y="-414.5" font-family="Helvetica,sans-Serif" font-size="10.00">_root_tuple</text>
</a>
</g>
</g>
<!-- Node15&#45;&gt;Node31 -->
<g id="edge21" class="edge">
<title>Node15&#45;&gt;Node31</title>
<path fill="none" stroke="midnightblue" d="M576.63,-423.04C561.05,-422.96 545.21,-422.88 530.73,-422.8"/>
<polygon fill="midnightblue" stroke="midnightblue" points="576.8,-426.54 586.81,-423.09 576.83,-419.54 576.8,-426.54"/>
</g>
<!-- Node17 -->
<g id="node17" class="node">
<title>Node17</title>
<g id="a_node17"><a xlink:href="classwmtk_1_1_mesh.html#ac57c4894358e3857c09dfb00eb934c1f" target="_top" xlink:title=" ">
<polygon fill="none" stroke="black" points="212,-411 212,-430 339,-430 339,-411 212,-411"/>
<text text-anchor="middle" x="275.5" y="-418" font-family="Helvetica,sans-Serif" font-size="10.00">wmtk::Mesh::can_map</text>
</a>
</g>
</g>
<!-- Node16&#45;&gt;Node17 -->
<g id="edge16" class="edge">
<title>Node16&#45;&gt;Node17</title>
<path fill="none" stroke="midnightblue" d="M397.53,-342.28C395.28,-343.6 393.09,-345 391,-346.5 368.73,-362.43 377.26,-380.55 355,-396.5 346.2,-402.81 335.7,-407.49 325.29,-410.95"/>
<polygon fill="midnightblue" stroke="midnightblue" points="399.28,-345.32 406.55,-337.62 396.06,-339.11 399.28,-345.32"/>
</g>
<!-- Node18 -->
<g id="node18" class="node">
<title>Node18</title>
<g id="a_node18"><a xlink:href="classwmtk_1_1multimesh_1_1_boundary_checker.html#ac3757a6c4ff01617e4c0ac4b968407b5" target="_top" xlink:title=" ">
<polygon fill="none" stroke="red" points="2.5,-384.5 2.5,-414.5 157.5,-414.5 157.5,-384.5 2.5,-384.5"/>
<text text-anchor="start" x="10.5" y="-402.5" font-family="Helvetica,sans-Serif" font-size="10.00">wmtk::multimesh::Boundary</text>
<text text-anchor="middle" x="80" y="-391.5" font-family="Helvetica,sans-Serif" font-size="10.00">Checker::is_boundary</text>
</a>
</g>
</g>
<!-- Node17&#45;&gt;Node18 -->
<g id="edge17" class="edge">
<title>Node17&#45;&gt;Node18</title>
<path fill="none" stroke="midnightblue" d="M201.61,-412.59C187.22,-411.03 172.07,-409.38 157.56,-407.81"/>
<polygon fill="midnightblue" stroke="midnightblue" points="201.62,-416.11 211.94,-413.71 202.38,-409.15 201.62,-416.11"/>
</g>
<!-- Node21 -->
<g id="node20" class="node">
<title>Node21</title>
<g id="a_node20"><a xlink:href="classwmtk_1_1_mesh.html#aa23d8c5ea9c2a2d635eb7c67221206e8" target="_top" xlink:title="maps a simplex from this mesh to the root mesh">
<polygon fill="none" stroke="black" points="203.5,-462 203.5,-481 347.5,-481 347.5,-462 203.5,-462"/>
<text text-anchor="middle" x="275.5" y="-469" font-family="Helvetica,sans-Serif" font-size="10.00">wmtk::Mesh::map_to_root</text>
</a>
</g>
</g>
<!-- Node20&#45;&gt;Node21 -->
<g id="edge19" class="edge">
<title>Node20&#45;&gt;Node21</title>
<path fill="none" stroke="midnightblue" d="M380.61,-471.5C369.53,-471.5 358.32,-471.5 347.57,-471.5"/>
<polygon fill="midnightblue" stroke="midnightblue" points="380.74,-475 390.74,-471.5 380.74,-468 380.74,-475"/>
</g>
<!-- Node22 -->
<g id="node21" class="node">
<title>Node22</title>
<g id="a_node21"><a xlink:href="classwmtk_1_1multimesh_1_1_multi_mesh_simplex_visitor.html#ad4359b5c36f328c241da00f5fc6d93a7" target="_top" xlink:title=" ">
<polygon fill="none" stroke="red" points="0,-451 0,-492 160,-492 160,-451 0,-451"/>
<text text-anchor="start" x="8" y="-480" font-family="Helvetica,sans-Serif" font-size="10.00">wmtk::multimesh::MultiMesh</text>
<text text-anchor="start" x="8" y="-469" font-family="Helvetica,sans-Serif" font-size="10.00">SimplexVisitor::execute</text>
<text text-anchor="middle" x="80" y="-458" font-family="Helvetica,sans-Serif" font-size="10.00">_from_root</text>
</a>
</g>
</g>
<!-- Node21&#45;&gt;Node22 -->
<g id="edge20" class="edge">
<title>Node21&#45;&gt;Node22</title>
<path fill="none" stroke="midnightblue" d="M192.98,-471.5C182.14,-471.5 171.03,-471.5 160.23,-471.5"/>
<polygon fill="midnightblue" stroke="midnightblue" points="193.27,-475 203.27,-471.5 193.27,-468 193.27,-475"/>
</g>
<!-- Node33 -->
<g id="node24" class="node">
<title>Node33</title>
<g id="a_node24"><a xlink:href="classwmtk_1_1multimesh_1_1_multi_mesh_manager.html#a3ded46d7d107bd43d3c40b43727c8ebf" target="_top" xlink:title=" ">
<polygon fill="none" stroke="black" points="587,-261.5 587,-291.5 747,-291.5 747,-261.5 587,-261.5"/>
<text text-anchor="start" x="595" y="-279.5" font-family="Helvetica,sans-Serif" font-size="10.00">wmtk::multimesh::MultiMesh</text>
<text text-anchor="middle" x="667" y="-268.5" font-family="Helvetica,sans-Serif" font-size="10.00">Manager::can_map_child</text>
</a>
</g>
</g>
<!-- Node32&#45;&gt;Node33 -->
<g id="edge23" class="edge">
<title>Node32&#45;&gt;Node33</title>
<path fill="none" stroke="midnightblue" d="M786.14,-262.84C773.18,-264.33 759.91,-265.87 747.16,-267.34"/>
<polygon fill="midnightblue" stroke="midnightblue" points="786.93,-266.27 796.46,-261.64 786.13,-259.31 786.93,-266.27"/>
</g>
<!-- Node34 -->
<g id="node25" class="node">
<title>Node34</title>
<g id="a_node25"><a xlink:href="classwmtk_1_1multimesh_1_1_multi_mesh_manager.html#ab5c1f3b38daa298b1ef25867a2dcd349" target="_top" xlink:title="maps a simplex from this mesh to any other mesh using the LUB as the root">
<polygon fill="none" stroke="black" points="587,-104.5 587,-134.5 747,-134.5 747,-104.5 587,-104.5"/>
<text text-anchor="start" x="595" y="-122.5" font-family="Helvetica,sans-Serif" font-size="10.00">wmtk::multimesh::MultiMesh</text>
<text text-anchor="middle" x="667" y="-111.5" font-family="Helvetica,sans-Serif" font-size="10.00">Manager::lub_map_tuples</text>
</a>
</g>
</g>
<!-- Node32&#45;&gt;Node34 -->
<g id="edge25" class="edge">
<title>Node32&#45;&gt;Node34</title>
<path fill="none" stroke="midnightblue" d="M843.21,-231.81C801.18,-204.87 728.72,-158.42 691.53,-134.58"/>
<polygon fill="midnightblue" stroke="midnightblue" points="841.39,-234.79 851.7,-237.24 845.17,-228.9 841.39,-234.79"/>
</g>
<!-- Node43 -->
<g id="node33" class="node">
<title>Node43</title>
<g id="a_node33"><a xlink:href="classwmtk_1_1multimesh_1_1_multi_mesh_manager.html#acaaab688faff0e1b2d9142d6cc128e46" target="_top" xlink:title="maps a simplex from this mesh to any other mesh">
<polygon fill="none" stroke="black" points="587,-212.5 587,-242.5 747,-242.5 747,-212.5 587,-212.5"/>
<text text-anchor="start" x="595" y="-230.5" font-family="Helvetica,sans-Serif" font-size="10.00">wmtk::multimesh::MultiMesh</text>
<text text-anchor="middle" x="667" y="-219.5" font-family="Helvetica,sans-Serif" font-size="10.00">Manager::map_tuples</text>
</a>
</g>
</g>
<!-- Node32&#45;&gt;Node43 -->
<g id="edge33" class="edge">
<title>Node32&#45;&gt;Node43</title>
<path fill="none" stroke="midnightblue" d="M786.53,-241.78C773.44,-240.2 760.03,-238.59 747.16,-237.04"/>
<polygon fill="midnightblue" stroke="midnightblue" points="786.11,-245.26 796.46,-242.98 786.95,-238.31 786.11,-245.26"/>
</g>
<!-- Node33&#45;&gt;Node16 -->
<g id="edge24" class="edge">
<title>Node33&#45;&gt;Node16</title>
<path fill="none" stroke="midnightblue" d="M592.73,-293.87C573.84,-298.35 553.67,-303.13 535.33,-307.48"/>
<polygon fill="midnightblue" stroke="midnightblue" points="593.55,-297.27 602.48,-291.56 591.94,-290.46 593.55,-297.27"/>
</g>
<!-- Node35 -->
<g id="node26" class="node">
<title>Node35</title>
<g id="a_node26"><a xlink:href="classwmtk_1_1multimesh_1_1_multi_mesh_manager.html#afda2cea3f093e5fd59ad9ed58f1c0f33" target="_top" xlink:title="maps a simplex from this mesh to any other mesh using the LUB as the root">
<polygon fill="none" stroke="black" points="391,-104.5 391,-134.5 551,-134.5 551,-104.5 391,-104.5"/>
<text text-anchor="start" x="399" y="-122.5" font-family="Helvetica,sans-Serif" font-size="10.00">wmtk::multimesh::MultiMesh</text>
<text text-anchor="middle" x="471" y="-111.5" font-family="Helvetica,sans-Serif" font-size="10.00">Manager::lub_map</text>
</a>
</g>
</g>
<!-- Node34&#45;&gt;Node35 -->
<g id="edge26" class="edge">
<title>Node34&#45;&gt;Node35</title>
<path fill="none" stroke="midnightblue" d="M576.56,-119.5C568.12,-119.5 559.59,-119.5 551.25,-119.5"/>
<polygon fill="midnightblue" stroke="midnightblue" points="576.81,-123 586.81,-119.5 576.81,-116 576.81,-123"/>
</g>
<!-- Node38 -->
<g id="node29" class="node">
<title>Node38</title>
<g id="a_node29"><a xlink:href="classwmtk_1_1_mesh.html#afca213673a7f569665d73353eae95ccc" target="_top" xlink:title="maps a simplex from this mesh to any other mesh using LUB mesh as root">
<polygon fill="none" stroke="black" points="408.5,-55.5 408.5,-85.5 533.5,-85.5 533.5,-55.5 408.5,-55.5"/>
<text text-anchor="start" x="416.5" y="-73.5" font-family="Helvetica,sans-Serif" font-size="10.00">wmtk::Mesh::lub_map</text>
<text text-anchor="middle" x="471" y="-62.5" font-family="Helvetica,sans-Serif" font-size="10.00">_tuples</text>
</a>
</g>
</g>
<!-- Node34&#45;&gt;Node38 -->
<g id="edge29" class="edge">
<title>Node34&#45;&gt;Node38</title>
<path fill="none" stroke="midnightblue" d="M596.52,-101.95C575.21,-96.57 551.98,-90.7 531.41,-85.51"/>
<polygon fill="midnightblue" stroke="midnightblue" points="595.92,-105.41 606.48,-104.47 597.64,-98.62 595.92,-105.41"/>
</g>
<!-- Node36 -->
<g id="node27" class="node">
<title>Node36</title>
<g id="a_node27"><a xlink:href="classwmtk_1_1_mesh.html#a41b770767cdea17fe0adc0c991202091" target="_top" xlink:title="maps a simplex from this mesh to any other mesh using LUB mesh as root">
<polygon fill="none" stroke="black" points="213,-110 213,-129 338,-129 338,-110 213,-110"/>
<text text-anchor="middle" x="275.5" y="-117" font-family="Helvetica,sans-Serif" font-size="10.00">wmtk::Mesh::lub_map</text>
</a>
</g>
</g>
<!-- Node35&#45;&gt;Node36 -->
<g id="edge27" class="edge">
<title>Node35&#45;&gt;Node36</title>
<path fill="none" stroke="midnightblue" d="M380.39,-119.5C366.11,-119.5 351.61,-119.5 338.17,-119.5"/>
<polygon fill="midnightblue" stroke="midnightblue" points="380.74,-123 390.74,-119.5 380.74,-116 380.74,-123"/>
</g>
<!-- Node37 -->
<g id="node28" class="node">
<title>Node37</title>
<g id="a_node28"><a xlink:href="classwmtk_1_1_mesh.html#a490bc8412756782456cdf3a5bb4582f3" target="_top" xlink:title=" ">
<polygon fill="none" stroke="black" points="17.5,-110 17.5,-129 142.5,-129 142.5,-110 17.5,-110"/>
<text text-anchor="middle" x="80" y="-117" font-family="Helvetica,sans-Serif" font-size="10.00">wmtk::Mesh::lub_map</text>
</a>
</g>
</g>
<!-- Node36&#45;&gt;Node37 -->
<g id="edge28" class="edge">
<title>Node36&#45;&gt;Node37</title>
<path fill="none" stroke="midnightblue" d="M202.57,-119.5C182.83,-119.5 161.6,-119.5 142.5,-119.5"/>
<polygon fill="midnightblue" stroke="midnightblue" points="202.74,-123 212.74,-119.5 202.74,-116 202.74,-123"/>
</g>
<!-- Node39 -->
<g id="node30" class="node">
<title>Node39</title>
<g id="a_node30"><a xlink:href="classwmtk_1_1operations_1_1_attribute_transfer_strategy_base.html#a6883c6416f61c4ee06588a86c3b8d731" target="_top" xlink:title=" ">
<polygon fill="none" stroke="red" points="200,-50 200,-91 351,-91 351,-50 200,-50"/>
<text text-anchor="start" x="208" y="-79" font-family="Helvetica,sans-Serif" font-size="10.00">wmtk::operations::Attribute</text>
<text text-anchor="start" x="208" y="-68" font-family="Helvetica,sans-Serif" font-size="10.00">TransferStrategyBase::get</text>
<text text-anchor="middle" x="275.5" y="-57" font-family="Helvetica,sans-Serif" font-size="10.00">_parent_simplices</text>
</a>
</g>
</g>
<!-- Node38&#45;&gt;Node39 -->
<g id="edge30" class="edge">
<title>Node38&#45;&gt;Node39</title>
<path fill="none" stroke="midnightblue" d="M397.86,-70.5C382.63,-70.5 366.53,-70.5 351.21,-70.5"/>
<polygon fill="midnightblue" stroke="midnightblue" points="398.24,-74 408.24,-70.5 398.24,-67 398.24,-74"/>
</g>
<!-- Node42 -->
<g id="node32" class="node">
<title>Node42</title>
<g id="a_node32"><a xlink:href="classwmtk_1_1_mesh.html#a200e9023103df15f15802116aa19ec03" target="_top" xlink:title=" ">
<polygon fill="none" stroke="black" points="213,-0.5 213,-30.5 338,-30.5 338,-0.5 213,-0.5"/>
<text text-anchor="start" x="221" y="-18.5" font-family="Helvetica,sans-Serif" font-size="10.00">wmtk::Mesh::lub_map</text>
<text text-anchor="middle" x="275.5" y="-7.5" font-family="Helvetica,sans-Serif" font-size="10.00">_tuples</text>
</a>
</g>
</g>
<!-- Node38&#45;&gt;Node42 -->
<g id="edge32" class="edge">
<title>Node38&#45;&gt;Node42</title>
<path fill="none" stroke="midnightblue" d="M407.3,-52.68C382.12,-45.52 353.41,-37.36 329.31,-30.51"/>
<polygon fill="midnightblue" stroke="midnightblue" points="406.55,-56.1 417.13,-55.47 408.46,-49.37 406.55,-56.1"/>
</g>
<!-- Node40 -->
<g id="node31" class="node">
<title>Node40</title>
<g id="a_node31"><a xlink:href="classwmtk_1_1operations_1_1_attribute_transfer_strategy_base.html#aa5e03221c4b6b49e1892ed464d84c0cd" target="_top" xlink:title=" ">
<polygon fill="none" stroke="black" points="4.5,-50 4.5,-91 155.5,-91 155.5,-50 4.5,-50"/>
<text text-anchor="start" x="12.5" y="-79" font-family="Helvetica,sans-Serif" font-size="10.00">wmtk::operations::Attribute</text>
<text text-anchor="start" x="12.5" y="-68" font-family="Helvetica,sans-Serif" font-size="10.00">TransferStrategyBase::get</text>
<text text-anchor="middle" x="80" y="-57" font-family="Helvetica,sans-Serif" font-size="10.00">_parent_simplices</text>
</a>
</g>
</g>
<!-- Node39&#45;&gt;Node40 -->
<g id="edge31" class="edge">
<title>Node39&#45;&gt;Node40</title>
<path fill="none" stroke="midnightblue" d="M189.69,-70.5C178.41,-70.5 166.91,-70.5 155.82,-70.5"/>
<polygon fill="midnightblue" stroke="midnightblue" points="189.96,-74 199.96,-70.5 189.96,-67 189.96,-74"/>
</g>
<!-- Node44 -->
<g id="node34" class="node">
<title>Node44</title>
<g id="a_node34"><a xlink:href="classwmtk_1_1multimesh_1_1_multi_mesh_manager.html#a99b3819552ae63c825dd77bebbd65040" target="_top" xlink:title="maps a simplex from this mesh to any other mesh">
<polygon fill="none" stroke="black" points="391,-197.5 391,-227.5 551,-227.5 551,-197.5 391,-197.5"/>
<text text-anchor="start" x="399" y="-215.5" font-family="Helvetica,sans-Serif" font-size="10.00">wmtk::multimesh::MultiMesh</text>
<text text-anchor="middle" x="471" y="-204.5" font-family="Helvetica,sans-Serif" font-size="10.00">Manager::map</text>
</a>
</g>
</g>
<!-- Node43&#45;&gt;Node44 -->
<g id="edge34" class="edge">
<title>Node43&#45;&gt;Node44</title>
<path fill="none" stroke="midnightblue" d="M576.84,-220.61C568.3,-219.95 559.68,-219.28 551.25,-218.63"/>
<polygon fill="midnightblue" stroke="midnightblue" points="576.57,-224.1 586.81,-221.38 577.11,-217.12 576.57,-224.1"/>
</g>
<!-- Node52 -->
<g id="node36" class="node">
<title>Node52</title>
<g id="a_node36"><a xlink:href="classwmtk_1_1_mesh.html#a82637d24776e0e06e2124ce914c4b40f" target="_top" xlink:title="maps a simplex from this mesh to any other mesh">
<polygon fill="none" stroke="black" points="401,-252 401,-271 541,-271 541,-252 401,-252"/>
<text text-anchor="middle" x="471" y="-259" font-family="Helvetica,sans-Serif" font-size="10.00">wmtk::Mesh::map_tuples</text>
</a>
</g>
</g>
<!-- Node43&#45;&gt;Node52 -->
<g id="edge36" class="edge">
<title>Node43&#45;&gt;Node52</title>
<path fill="none" stroke="midnightblue" d="M576.74,-243.14C559.53,-246.16 542,-249.23 526.33,-251.98"/>
<polygon fill="midnightblue" stroke="midnightblue" points="577.57,-246.55 586.81,-241.38 576.36,-239.66 577.57,-246.55"/>
</g>
<!-- Node45 -->
<g id="node35" class="node">
<title>Node45</title>
<g id="a_node35"><a xlink:href="classwmtk_1_1_mesh.html#abe23d31a7ad54af38da1bf7b6e232cab" target="_top" xlink:title="maps a simplex from this mesh to any other mesh">
<polygon fill="none" stroke="red" points="223.5,-148 223.5,-167 327.5,-167 327.5,-148 223.5,-148"/>
<text text-anchor="middle" x="275.5" y="-155" font-family="Helvetica,sans-Serif" font-size="10.00">wmtk::Mesh::map</text>
</a>
</g>
</g>
<!-- Node44&#45;&gt;Node45 -->
<g id="edge35" class="edge">
<title>Node44&#45;&gt;Node45</title>
<path fill="none" stroke="midnightblue" d="M414.7,-194.38C395.84,-188.41 374.57,-181.93 355,-176.5 343.11,-173.2 330.12,-169.93 318.19,-167.05"/>
<polygon fill="midnightblue" stroke="midnightblue" points="413.73,-197.74 424.32,-197.44 415.85,-191.07 413.73,-197.74"/>
</g>
<!-- Node52&#45;&gt;Node18 -->
<g id="edge39" class="edge">
<title>Node52&#45;&gt;Node18</title>
<path fill="none" stroke="midnightblue" d="M427.64,-274.94C414.83,-280.47 401.41,-287.88 391,-297.5 366.75,-319.92 382.26,-343.86 355,-362.5 323.79,-383.83 227.27,-392.92 157.62,-396.76"/>
<polygon fill="midnightblue" stroke="midnightblue" points="429.29,-278.05 437.26,-271.08 426.68,-271.56 429.29,-278.05"/>
</g>
<!-- Node53 -->
<g id="node37" class="node">
<title>Node53</title>
<g id="a_node37"><a xlink:href="classwmtk_1_1invariants_1_1_invariant_collection.html#a8ca33e950e39423425248ba8d25b3dca" target="_top" xlink:title=" ">
<polygon fill="none" stroke="red" points="201,-323.5 201,-353.5 350,-353.5 350,-323.5 201,-323.5"/>
<text text-anchor="start" x="209" y="-341.5" font-family="Helvetica,sans-Serif" font-size="10.00">wmtk::invariants::Invariant</text>
<text text-anchor="middle" x="275.5" y="-330.5" font-family="Helvetica,sans-Serif" font-size="10.00">Collection::after</text>
</a>
</g>
</g>
<!-- Node52&#45;&gt;Node53 -->
<g id="edge37" class="edge">
<title>Node52&#45;&gt;Node53</title>
<path fill="none" stroke="midnightblue" d="M439.79,-275.27C407.18,-290.11 359.28,-311.86 355,-313.5 345.92,-316.99 336.12,-320.38 326.64,-323.49"/>
<polygon fill="midnightblue" stroke="midnightblue" points="441.29,-278.43 448.94,-271.1 438.39,-272.06 441.29,-278.43"/>
</g>
<!-- Node55 -->
<g id="node38" class="node">
<title>Node55</title>
<g id="a_node38"><a xlink:href="classwmtk_1_1operations_1_1composite_1_1_project_operation.html#ac0aa2bc6e51b9d8f94fd5943627545dd" target="_top" xlink:title="returns an empty vector in case of failure">
<polygon fill="none" stroke="black" points="196,-274.5 196,-304.5 355,-304.5 355,-274.5 196,-274.5"/>
<text text-anchor="start" x="204" y="-292.5" font-family="Helvetica,sans-Serif" font-size="10.00">wmtk::operations::composite</text>
<text text-anchor="middle" x="275.5" y="-281.5" font-family="Helvetica,sans-Serif" font-size="10.00">::ProjectOperation::execute</text>
</a>
</g>
</g>
<!-- Node52&#45;&gt;Node55 -->
<g id="edge38" class="edge">
<title>Node52&#45;&gt;Node55</title>
<path fill="none" stroke="midnightblue" d="M394.09,-272.48C381.3,-274.34 368,-276.26 355.14,-278.12"/>
<polygon fill="midnightblue" stroke="midnightblue" points="394.82,-275.91 404.22,-271.02 393.82,-268.99 394.82,-275.91"/>
</g>
<!-- Node56 -->
<g id="node39" class="node">
<title>Node56</title>
<g id="a_node39"><a xlink:href="classwmtk_1_1_mesh.html#a2d38639fa705c42719431cdffe7885fb" target="_top" xlink:title=" ">
<polygon fill="none" stroke="black" points="205.5,-236 205.5,-255 345.5,-255 345.5,-236 205.5,-236"/>
<text text-anchor="middle" x="275.5" y="-243" font-family="Helvetica,sans-Serif" font-size="10.00">wmtk::Mesh::map_tuples</text>
</a>
</g>
</g>
<!-- Node52&#45;&gt;Node56 -->
<g id="edge40" class="edge">
<title>Node52&#45;&gt;Node56</title>
<path fill="none" stroke="midnightblue" d="M390.7,-254.94C375.71,-253.7 360.15,-252.42 345.51,-251.21"/>
<polygon fill="midnightblue" stroke="midnightblue" points="390.71,-258.46 400.96,-255.79 391.28,-251.48 390.71,-258.46"/>
</g>
<!-- Node57 -->
<g id="node40" class="node">
<title>Node57</title>
<g id="a_node40"><a xlink:href="classwmtk_1_1_mesh.html#a333e19ee5ddb037313fa7dbdb0e41771" target="_top" xlink:title="register a mesh as the child of this mesh">
<polygon fill="none" stroke="red" points="215.5,-186.5 215.5,-216.5 335.5,-216.5 335.5,-186.5 215.5,-186.5"/>
<text text-anchor="start" x="223.5" y="-204.5" font-family="Helvetica,sans-Serif" font-size="10.00">wmtk::Mesh::register</text>
<text text-anchor="middle" x="275.5" y="-193.5" font-family="Helvetica,sans-Serif" font-size="10.00">_child_mesh</text>
</a>
</g>
</g>
<!-- Node52&#45;&gt;Node57 -->
<g id="edge41" class="edge">
<title>Node52&#45;&gt;Node57</title>
<path fill="none" stroke="midnightblue" d="M429.49,-248.94C399.08,-239.51 357.32,-226.56 325.11,-216.57"/>
<polygon fill="midnightblue" stroke="midnightblue" points="428.75,-252.37 439.34,-251.99 430.82,-245.69 428.75,-252.37"/>
</g>
<!-- Node69&#45;&gt;Node5 -->
<g id="edge43" class="edge">
<title>Node69&#45;&gt;Node5</title>
<path fill="none" stroke="midnightblue" d="M1246.43,-470.73C1229.46,-470.95 1211.89,-471.17 1195.17,-471.38"/>
<polygon fill="midnightblue" stroke="midnightblue" points="1246.96,-474.23 1256.91,-470.6 1246.87,-467.23 1246.96,-474.23"/>
</g>
<!-- Node71 -->
<g id="node43" class="node">
<title>Node71</title>
<g id="a_node43"><a xlink:href="namespacewmtk_1_1operations_1_1utils.html#a62fab811bf86bb7a2702f63304574002" target="_top" xlink:title=" ">
<polygon fill="none" stroke="black" points="1033,-575 1033,-616 1178,-616 1178,-575 1033,-575"/>
<text text-anchor="start" x="1041" y="-604" font-family="Helvetica,sans-Serif" font-size="10.00">wmtk::operations::utils</text>
<text text-anchor="start" x="1041" y="-593" font-family="Helvetica,sans-Serif" font-size="10.00">::update_vertex_operation</text>
<text text-anchor="middle" x="1105.5" y="-582" font-family="Helvetica,sans-Serif" font-size="10.00">_hashes</text>
</a>
</g>
</g>
<!-- Node70&#45;&gt;Node71 -->
<g id="edge45" class="edge">
<title>Node70&#45;&gt;Node71</title>
<path fill="none" stroke="midnightblue" d="M1262.13,-595.5C1234.89,-595.5 1204.77,-595.5 1178.34,-595.5"/>
<polygon fill="midnightblue" stroke="midnightblue" points="1262.42,-599 1272.42,-595.5 1262.42,-592 1262.42,-599"/>
</g>
<!-- Node73 -->
<g id="node45" class="node">
<title>Node73</title>
<g id="a_node45"><a xlink:href="classwmtk_1_1multimesh_1_1_multi_mesh_manager.html#af971c830121bdd645f1bf3fc28aa76dd" target="_top" xlink:title="update all the hashes of the top&#45;simplces of the parent mesh around a vertex hashes of the parent tup...">
<polygon fill="none" stroke="black" points="1025.5,-509 1025.5,-550 1185.5,-550 1185.5,-509 1025.5,-509"/>
<text text-anchor="start" x="1033.5" y="-538" font-family="Helvetica,sans-Serif" font-size="10.00">wmtk::multimesh::MultiMesh</text>
<text text-anchor="start" x="1033.5" y="-527" font-family="Helvetica,sans-Serif" font-size="10.00">Manager::update_vertex</text>
<text text-anchor="middle" x="1105.5" y="-516" font-family="Helvetica,sans-Serif" font-size="10.00">_operation_hashes_internal</text>
</a>
</g>
</g>
<!-- Node72&#45;&gt;Node73 -->
<g id="edge47" class="edge">
<title>Node72&#45;&gt;Node73</title>
<path fill="none" stroke="midnightblue" d="M1254.62,-529.5C1231.95,-529.5 1207.76,-529.5 1185.64,-529.5"/>
<polygon fill="midnightblue" stroke="midnightblue" points="1254.92,-533 1264.92,-529.5 1254.92,-526 1254.92,-533"/>
</g>
<!-- Node74 -->
<g id="node46" class="node">
<title>Node74</title>
<g id="a_node46"><a xlink:href="classwmtk_1_1_mesh.html#a0b6f79f2dffa07d93a342306abd28b7e" target="_top" xlink:title="wrapper function to update hashes (for parent mesh *this and its child meshes) after vertex operation...">
<polygon fill="none" stroke="black" points="804,-514.5 804,-544.5 949,-544.5 949,-514.5 804,-514.5"/>
<text text-anchor="start" x="812" y="-532.5" font-family="Helvetica,sans-Serif" font-size="10.00">wmtk::Mesh::update</text>
<text text-anchor="middle" x="876.5" y="-521.5" font-family="Helvetica,sans-Serif" font-size="10.00">_vertex_operation_hashes</text>
</a>
</g>
</g>
<!-- Node73&#45;&gt;Node74 -->
<g id="edge48" class="edge">
<title>Node73&#45;&gt;Node74</title>
<path fill="none" stroke="midnightblue" d="M1015.42,-529.5C993.42,-529.5 970.13,-529.5 949.08,-529.5"/>
<polygon fill="midnightblue" stroke="midnightblue" points="1015.43,-533 1025.43,-529.5 1015.43,-526 1015.43,-533"/>
</g>
<!-- Node76 -->
<g id="node48" class="node">
<title>Node76</title>
<g id="a_node48"><a xlink:href="classwmtk_1_1operations_1_1utils_1_1_update_edge_operation_multi_mesh_map_functor.html#a57611fefa85bea3d1858ca385b0f350a" target="_top" xlink:title=" ">
<polygon fill="none" stroke="black" points="1015,-299 1015,-340 1196,-340 1196,-299 1015,-299"/>
<text text-anchor="start" x="1023" y="-328" font-family="Helvetica,sans-Serif" font-size="10.00">wmtk::operations::utils</text>
<text text-anchor="start" x="1023" y="-317" font-family="Helvetica,sans-Serif" font-size="10.00">::UpdateEdgeOperationMultiMesh</text>
<text text-anchor="middle" x="1105.5" y="-306" font-family="Helvetica,sans-Serif" font-size="10.00">MapFunctor::operator()</text>
</a>
</g>
</g>
<!-- Node75&#45;&gt;Node76 -->
<g id="edge50" class="edge">
<title>Node75&#45;&gt;Node76</title>
<path fill="none" stroke="midnightblue" d="M1474.64,-387.44C1407.01,-378.76 1318.68,-366.25 1241,-351.5 1223.55,-348.19 1204.95,-344.12 1187.32,-340"/>
<polygon fill="midnightblue" stroke="midnightblue" points="1474.53,-390.96 1484.89,-388.75 1475.42,-384.01 1474.53,-390.96"/>
</g>
<!-- Node78 -->
<g id="node50" class="node">
<title>Node78</title>
<g id="a_node50"><a xlink:href="classwmtk_1_1operations_1_1utils_1_1_update_edge_operation_multi_mesh_map_functor.html#affd40fcd5b842c963ae1511a255ba646" target="_top" xlink:title=" ">
<polygon fill="none" stroke="black" points="1254.5,-301 1254.5,-342 1435.5,-342 1435.5,-301 1254.5,-301"/>
<text text-anchor="start" x="1262.5" y="-330" font-family="Helvetica,sans-Serif" font-size="10.00">wmtk::operations::utils</text>
<text text-anchor="start" x="1262.5" y="-319" font-family="Helvetica,sans-Serif" font-size="10.00">::UpdateEdgeOperationMultiMesh</text>
<text text-anchor="middle" x="1345" y="-308" font-family="Helvetica,sans-Serif" font-size="10.00">MapFunctor::update_all_hashes</text>
</a>
</g>
</g>
<!-- Node77&#45;&gt;Node78 -->
<g id="edge52" class="edge">
<title>Node77&#45;&gt;Node78</title>
<path fill="none" stroke="midnightblue" d="M1477.38,-330.31C1463.42,-329.38 1449.24,-328.43 1435.61,-327.51"/>
<polygon fill="midnightblue" stroke="midnightblue" points="1477.28,-333.81 1487.49,-330.99 1477.75,-326.83 1477.28,-333.81"/>
</g>
<!-- Node78&#45;&gt;Node76 -->
<g id="edge53" class="edge">
<title>Node78&#45;&gt;Node76</title>
<path fill="none" stroke="midnightblue" d="M1243.85,-320.66C1227.97,-320.52 1211.64,-320.39 1196.02,-320.25"/>
<polygon fill="midnightblue" stroke="midnightblue" points="1244.18,-324.16 1254.21,-320.74 1244.24,-317.16 1244.18,-324.16"/>
</g>
</g>
</svg>
