<?xml version="1.0" encoding="UTF-8" standalone="no"?>
<!DOCTYPE svg PUBLIC "-//W3C//DTD SVG 1.1//EN"
 "http://www.w3.org/Graphics/SVG/1.1/DTD/svg11.dtd">
<!-- Generated by graphviz version 2.43.0 (0)
 -->
<!-- Title: wmtk::log_and_throw_error Pages: 1 -->
<svg width="355pt" height="274pt"
 viewBox="0.00 0.00 355.00 273.50" xmlns="http://www.w3.org/2000/svg" xmlns:xlink="http://www.w3.org/1999/xlink">
<g id="graph0" class="graph" transform="scale(1 1) rotate(0) translate(4 269.5)">
<title>wmtk::log_and_throw_error</title>
<!-- Node1 -->
<g id="node1" class="node">
<title>Node1</title>
<g id="a_node1"><a xlink:title=" ">
<polygon fill="#bfbfbf" stroke="black" points="225,-122.5 225,-152.5 347,-152.5 347,-122.5 225,-122.5"/>
<text text-anchor="start" x="233" y="-140.5" font-family="Helvetica,sans-Serif" font-size="10.00">wmtk::log_and_throw</text>
<text text-anchor="middle" x="286" y="-129.5" font-family="Helvetica,sans-Serif" font-size="10.00">_error</text>
</a>
</g>
</g>
<!-- Node2 -->
<g id="node2" class="node">
<title>Node2</title>
<g id="a_node2"><a xlink:href="namespacewmtk_1_1components.html#a21e25d3a6f734e991354c2294bf49bbe" target="_top" xlink:title=" ">
<polygon fill="none" stroke="black" points="0,-246 0,-265 189,-265 189,-246 0,-246"/>
<text text-anchor="middle" x="94.5" y="-253" font-family="Helvetica,sans-Serif" font-size="10.00">wmtk::components::delaunay_exec</text>
</a>
</g>
</g>
<!-- Node1&#45;&gt;Node2 -->
<g id="edge1" class="edge">
<title>Node1&#45;&gt;Node2</title>
<path fill="none" stroke="midnightblue" d="M268.96,-160.85C251.88,-183.83 222.71,-218.06 189,-236.5 181.88,-240.4 174.06,-243.5 166.07,-245.96"/>
<polygon fill="midnightblue" stroke="midnightblue" points="271.87,-162.81 274.9,-152.66 266.2,-158.7 271.87,-162.81"/>
</g>
<!-- Node3 -->
<g id="node3" class="node">
<title>Node3</title>
<g id="a_node3"><a xlink:href="namespacewmtk_1_1components.html#a6966b2a96c545f618a274961433aed56" target="_top" xlink:title=" ">
<polygon fill="none" stroke="black" points="15.5,-196.5 15.5,-226.5 173.5,-226.5 173.5,-196.5 15.5,-196.5"/>
<text text-anchor="start" x="23.5" y="-214.5" font-family="Helvetica,sans-Serif" font-size="10.00">wmtk::components::isotropic</text>
<text text-anchor="middle" x="94.5" y="-203.5" font-family="Helvetica,sans-Serif" font-size="10.00">_remeshing</text>
</a>
</g>
</g>
<!-- Node1&#45;&gt;Node3 -->
<g id="edge2" class="edge">
<title>Node1&#45;&gt;Node3</title>
<path fill="none" stroke="midnightblue" d="M251.13,-157.57C233.13,-167.6 210.37,-179.32 189,-187.5 180.39,-190.8 171.17,-193.78 161.99,-196.44"/>
<polygon fill="midnightblue" stroke="midnightblue" points="253.09,-160.48 260.07,-152.51 249.64,-154.39 253.09,-160.48"/>
</g>
<!-- Node4 -->
<g id="node4" class="node">
<title>Node4</title>
<g id="a_node4"><a xlink:href="namespacewmtk.html#a14feab21b3c2f51fc2d7ecc55fa4a941" target="_top" xlink:title=" ">
<polygon fill="none" stroke="black" points="33.5,-147.5 33.5,-177.5 155.5,-177.5 155.5,-147.5 33.5,-147.5"/>
<text text-anchor="start" x="41.5" y="-165.5" font-family="Helvetica,sans-Serif" font-size="10.00">wmtk::log_and_throw</text>
<text text-anchor="middle" x="94.5" y="-154.5" font-family="Helvetica,sans-Serif" font-size="10.00">_error</text>
</a>
</g>
</g>
<!-- Node1&#45;&gt;Node4 -->
<g id="edge3" class="edge">
<title>Node1&#45;&gt;Node4</title>
<path fill="none" stroke="midnightblue" d="M214.76,-146.77C195.31,-149.33 174.38,-152.09 155.56,-154.58"/>
<polygon fill="midnightblue" stroke="midnightblue" points="215.32,-150.22 224.78,-145.44 214.41,-143.28 215.32,-150.22"/>
</g>
<!-- Node5 -->
<g id="node5" class="node">
<title>Node5</title>
<g id="a_node5"><a xlink:href="classwmtk_1_1attribute_1_1_mesh_attributes.html#ab0a9808a1663fa7dacf4fce5ceaf38d9" target="_top" xlink:title=" ">
<polygon fill="none" stroke="black" points="8,-98.5 8,-128.5 181,-128.5 181,-98.5 8,-98.5"/>
<text text-anchor="start" x="16" y="-116.5" font-family="Helvetica,sans-Serif" font-size="10.00">wmtk::attribute::MeshAttributes</text>
<text text-anchor="middle" x="94.5" y="-105.5" font-family="Helvetica,sans-Serif" font-size="10.00">::register_attribute</text>
</a>
</g>
</g>
<!-- Node1&#45;&gt;Node5 -->
<g id="edge4" class="edge">
<title>Node1&#45;&gt;Node5</title>
<path fill="none" stroke="midnightblue" d="M214.86,-128.62C203.89,-127.23 192.44,-125.78 181.17,-124.35"/>
<polygon fill="midnightblue" stroke="midnightblue" points="214.42,-132.09 224.78,-129.87 215.3,-125.14 214.42,-132.09"/>
</g>
<!-- Node6 -->
<g id="node6" class="node">
<title>Node6</title>
<g id="a_node6"><a xlink:href="classwmtk_1_1components_1_1internal_1_1_regular_space.html#ab9acb6a12d22b09d54a55bd606dac011" target="_top" xlink:title=" ">
<polygon fill="none" stroke="black" points="9.5,-49.5 9.5,-79.5 179.5,-79.5 179.5,-49.5 9.5,-49.5"/>
<text text-anchor="start" x="17.5" y="-67.5" font-family="Helvetica,sans-Serif" font-size="10.00">wmtk::components::internal</text>
<text text-anchor="middle" x="94.5" y="-56.5" font-family="Helvetica,sans-Serif" font-size="10.00">::RegularSpace::regularize_tags</text>
</a>
</g>
</g>
<!-- Node1&#45;&gt;Node6 -->
<g id="edge5" class="edge">
<title>Node1&#45;&gt;Node6</title>
<path fill="none" stroke="midnightblue" d="M249.47,-117.58C231.7,-108.17 209.62,-97.32 189,-89.5 179.42,-85.87 169.09,-82.54 158.92,-79.59"/>
<polygon fill="midnightblue" stroke="midnightblue" points="247.88,-120.69 258.35,-122.34 251.19,-114.53 247.88,-120.69"/>
</g>
<!-- Node7 -->
<g id="node7" class="node">
<title>Node7</title>
<g id="a_node7"><a xlink:href="classwmtk_1_1_h_d_f5_reader.html#a3eeb547b48ad4f1acc284d48ef986d97" target="_top" xlink:title=" ">
<polygon fill="none" stroke="black" points="28,-0.5 28,-30.5 161,-30.5 161,-0.5 28,-0.5"/>
<text text-anchor="start" x="36" y="-18.5" font-family="Helvetica,sans-Serif" font-size="10.00">wmtk::HDF5Reader::set</text>
<text text-anchor="middle" x="94.5" y="-7.5" font-family="Helvetica,sans-Serif" font-size="10.00">_attribute</text>
</a>
</g>
</g>
<!-- Node1&#45;&gt;Node7 -->
<g id="edge6" class="edge">
<title>Node1&#45;&gt;Node7</title>
<path fill="none" stroke="midnightblue" d="M267.81,-114.01C250.37,-91.85 221.38,-59.3 189,-40.5 180.43,-35.52 170.84,-31.51 161.16,-28.29"/>
<polygon fill="midnightblue" stroke="midnightblue" points="265.26,-116.43 274.12,-122.23 270.81,-112.17 265.26,-116.43"/>
</g>
</g>
</svg>
