<?xml version="1.0" encoding="UTF-8" standalone="no"?>
<!DOCTYPE svg PUBLIC "-//W3C//DTD SVG 1.1//EN"
 "http://www.w3.org/Graphics/SVG/1.1/DTD/svg11.dtd">
<!-- Generated by graphviz version 2.43.0 (0)
 -->
<!-- Title: wmtk::multimesh::utils::write_tuple_map_attribute_slow Pages: 1 -->
<!--zoomable 332 -->
<svg id="main" version="1.1" xmlns="http://www.w3.org/2000/svg" xmlns:xlink="http://www.w3.org/1999/xlink" xml:space="preserve" onload="init(evt)">
<style type="text/css"><![CDATA[
.edge:hover path { stroke: red; }
.edge:hover polygon { stroke: red; fill: red; }
]]></style>
<script type="text/javascript"><![CDATA[
var edges = document.getElementsByTagName('g');
if (edges && edges.length) {
  for (var i=0;i<edges.length;i++) {
    if (edges[i].id.substr(0,4)=='edge') {
      edges[i].setAttribute('class','edge');
    }
  }
}
]]></script>
        <defs>
                <circle id="rim" cx="0" cy="0" r="7"/>
                <circle id="rim2" cx="0" cy="0" r="3.5"/>
                <g id="zoomPlus">
                        <use xlink:href="#rim" fill="#404040">
                                <set attributeName="fill" to="#808080" begin="zoomplus.mouseover" end="zoomplus.mouseout"/>
                        </use>
                        <path d="M-4,0h8M0,-4v8" fill="none" stroke="white" stroke-width="1.5" pointer-events="none"/>
                </g>
                <g id="zoomMin">
                        <use xlink:href="#rim" fill="#404040">
                                <set attributeName="fill" to="#808080" begin="zoomminus.mouseover" end="zoomminus.mouseout"/>
                        </use>
                        <path d="M-4,0h8" fill="none" stroke="white" stroke-width="1.5" pointer-events="none"/>
                </g>
                <g id="dirArrow">
                        <path fill="none" stroke="white" stroke-width="1.5" d="M0,-3.0v7 M-2.5,-0.5L0,-3.0L2.5,-0.5"/>
                </g>
               <g id="resetDef">
                       <use xlink:href="#rim2" fill="#404040">
                               <set attributeName="fill" to="#808080" begin="reset.mouseover" end="reset.mouseout"/>
                       </use>
               </g>
        </defs>

<script type="text/javascript">
var viewWidth = 1094;
var viewHeight = 332;
var sectionId = 'dynsection-35';
</script>
<script xlink:href="svgpan.js"/>
<svg id="graph" class="graph">
<g id="viewport">
<title>wmtk::multimesh::utils::write_tuple_map_attribute_slow</title>
<!-- Node1 -->
<g id="node1" class="node">
<title>Node1</title>
<g id="a_node1"><a xlink:title=" ">
<polygon fill="#bfbfbf" stroke="black" points="0,-170.5 0,-200.5 179,-200.5 179,-170.5 0,-170.5"/>
<text text-anchor="start" x="8" y="-188.5" font-family="Helvetica,sans-Serif" font-size="10.00">wmtk::multimesh::utils</text>
<text text-anchor="middle" x="89.5" y="-177.5" font-family="Helvetica,sans-Serif" font-size="10.00">::write_tuple_map_attribute_slow</text>
</a>
</g>
</g>
<!-- Node2 -->
<g id="node2" class="node">
<title>Node2</title>
<g id="a_node2"><a xlink:href="classwmtk_1_1_mesh.html#aa46034e33f1e4f5e91e721df5685fb11" target="_top" xlink:title=" ">
<polygon fill="none" stroke="black" points="234.5,-219.5 234.5,-249.5 347.5,-249.5 347.5,-219.5 234.5,-219.5"/>
<text text-anchor="start" x="242.5" y="-237.5" font-family="Helvetica,sans-Serif" font-size="10.00">wmtk::Mesh::create</text>
<text text-anchor="middle" x="291" y="-226.5" font-family="Helvetica,sans-Serif" font-size="10.00">_accessor</text>
</a>
</g>
</g>
<!-- Node1&#45;&gt;Node2 -->
<g id="edge1" class="edge">
<title>Node1&#45;&gt;Node2</title>
<path fill="none" stroke="midnightblue" d="M151.71,-200.53C174.76,-206.2 201.06,-212.65 224.49,-218.41"/>
<polygon fill="midnightblue" stroke="midnightblue" points="223.79,-221.84 234.33,-220.83 225.46,-215.04 223.79,-221.84"/>
</g>
<!-- Node6 -->
<g id="node6" class="node">
<title>Node6</title>
<g id="a_node6"><a xlink:href="namespacewmtk_1_1multimesh_1_1utils.html#aa6fb761beb691e021e87753de8c15b8f" target="_top" xlink:title=" ">
<polygon fill="none" stroke="black" points="215,-146.5 215,-176.5 367,-176.5 367,-146.5 215,-146.5"/>
<text text-anchor="start" x="223" y="-164.5" font-family="Helvetica,sans-Serif" font-size="10.00">wmtk::multimesh::utils</text>
<text text-anchor="middle" x="291" y="-153.5" font-family="Helvetica,sans-Serif" font-size="10.00">::write_tuple_map_attribute</text>
</a>
</g>
</g>
<!-- Node1&#45;&gt;Node6 -->
<g id="edge5" class="edge">
<title>Node1&#45;&gt;Node6</title>
<path fill="none" stroke="midnightblue" d="M179.17,-174.83C187.6,-173.82 196.14,-172.79 204.54,-171.78"/>
<polygon fill="midnightblue" stroke="midnightblue" points="205.2,-175.23 214.71,-170.56 204.36,-168.28 205.2,-175.23"/>
</g>
<!-- Node3 -->
<g id="node3" class="node">
<title>Node3</title>
<g id="a_node3"><a xlink:href="classwmtk_1_1attribute_1_1_mesh_attribute_handle.html#ac326961f01b9ba4fec395827f15a7ef2" target="_top" xlink:title=" ">
<polygon fill="none" stroke="black" points="403,-293.5 403,-323.5 570,-323.5 570,-293.5 403,-293.5"/>
<text text-anchor="start" x="411" y="-311.5" font-family="Helvetica,sans-Serif" font-size="10.00">wmtk::attribute::MeshAttribute</text>
<text text-anchor="middle" x="486.5" y="-300.5" font-family="Helvetica,sans-Serif" font-size="10.00">Handle::as</text>
</a>
</g>
</g>
<!-- Node2&#45;&gt;Node3 -->
<g id="edge2" class="edge">
<title>Node2&#45;&gt;Node3</title>
<path fill="none" stroke="midnightblue" d="M322.62,-249.69C344.64,-260.27 375.24,-274.27 403,-284.5 408.47,-286.52 414.19,-288.48 419.96,-290.35"/>
<polygon fill="midnightblue" stroke="midnightblue" points="419.09,-293.75 429.68,-293.42 421.2,-287.07 419.09,-293.75"/>
</g>
<!-- Node4 -->
<g id="node4" class="node">
<title>Node4</title>
<g id="a_node4"><a xlink:href="classwmtk_1_1attribute_1_1_mesh_attribute_handle.html#a2b86caeb22b007b85b138ebc6b0ed837" target="_top" xlink:title=" ">
<polygon fill="none" stroke="black" points="403,-244.5 403,-274.5 570,-274.5 570,-244.5 403,-244.5"/>
<text text-anchor="start" x="411" y="-262.5" font-family="Helvetica,sans-Serif" font-size="10.00">wmtk::attribute::MeshAttribute</text>
<text text-anchor="middle" x="486.5" y="-251.5" font-family="Helvetica,sans-Serif" font-size="10.00">Handle::holds</text>
</a>
</g>
</g>
<!-- Node2&#45;&gt;Node4 -->
<g id="edge3" class="edge">
<title>Node2&#45;&gt;Node4</title>
<path fill="none" stroke="midnightblue" d="M347.71,-241.7C361.81,-243.52 377.35,-245.53 392.74,-247.52"/>
<polygon fill="midnightblue" stroke="midnightblue" points="392.46,-251.01 402.83,-248.82 393.36,-244.07 392.46,-251.01"/>
</g>
<!-- Node5 -->
<g id="node5" class="node">
<title>Node5</title>
<g id="a_node5"><a xlink:href="classwmtk_1_1attribute_1_1_mesh_attribute_handle.html#a620620d54776b2c5f4f9cebad465cfa7" target="_top" xlink:title=" ">
<polygon fill="none" stroke="black" points="403,-195.5 403,-225.5 570,-225.5 570,-195.5 403,-195.5"/>
<text text-anchor="start" x="411" y="-213.5" font-family="Helvetica,sans-Serif" font-size="10.00">wmtk::attribute::MeshAttribute</text>
<text text-anchor="middle" x="486.5" y="-202.5" font-family="Helvetica,sans-Serif" font-size="10.00">Handle::mesh</text>
</a>
</g>
</g>
<!-- Node2&#45;&gt;Node5 -->
<g id="edge4" class="edge">
<title>Node2&#45;&gt;Node5</title>
<path fill="none" stroke="midnightblue" d="M347.71,-227.59C361.81,-225.84 377.35,-223.91 392.74,-222"/>
<polygon fill="midnightblue" stroke="midnightblue" points="393.33,-225.46 402.83,-220.75 392.47,-218.51 393.33,-225.46"/>
</g>
<!-- Node7 -->
<g id="node7" class="node">
<title>Node7</title>
<g id="a_node7"><a xlink:href="namespacewmtk_1_1multimesh_1_1utils.html#aa35461d0dfd6b7202351061ab67b5bc3" target="_top" xlink:title=" ">
<polygon fill="none" stroke="black" points="421.5,-97.5 421.5,-127.5 551.5,-127.5 551.5,-97.5 421.5,-97.5"/>
<text text-anchor="start" x="429.5" y="-115.5" font-family="Helvetica,sans-Serif" font-size="10.00">wmtk::multimesh::utils</text>
<text text-anchor="middle" x="486.5" y="-104.5" font-family="Helvetica,sans-Serif" font-size="10.00">::tuples_to_vectors</text>
</a>
</g>
</g>
<!-- Node6&#45;&gt;Node7 -->
<g id="edge6" class="edge">
<title>Node6&#45;&gt;Node7</title>
<path fill="none" stroke="midnightblue" d="M351.37,-146.47C371.9,-141.27 395.07,-135.4 416.31,-130.02"/>
<polygon fill="midnightblue" stroke="midnightblue" points="417.41,-133.35 426.24,-127.51 415.69,-126.57 417.41,-133.35"/>
</g>
<!-- Node16 -->
<g id="node16" class="node">
<title>Node16</title>
<g id="a_node16"><a xlink:href="classwmtk_1_1attribute_1_1_accessor.html#adec09b82253cebfebf4d7bfc43039ea7" target="_top" xlink:title=" ">
<polygon fill="none" stroke="black" points="415.5,-146.5 415.5,-176.5 557.5,-176.5 557.5,-146.5 415.5,-146.5"/>
<text text-anchor="start" x="423.5" y="-164.5" font-family="Helvetica,sans-Serif" font-size="10.00">wmtk::attribute::Accessor</text>
<text text-anchor="middle" x="486.5" y="-153.5" font-family="Helvetica,sans-Serif" font-size="10.00">::vector_attribute</text>
</a>
</g>
</g>
<!-- Node6&#45;&gt;Node16 -->
<g id="edge20" class="edge">
<title>Node6&#45;&gt;Node16</title>
<path fill="none" stroke="midnightblue" d="M367.09,-161.5C379.58,-161.5 392.58,-161.5 405.19,-161.5"/>
<polygon fill="midnightblue" stroke="midnightblue" points="405.21,-165 415.21,-161.5 405.21,-158 405.21,-165"/>
</g>
<!-- Node8 -->
<g id="node8" class="node">
<title>Node8</title>
<g id="a_node8"><a xlink:href="namespacewmtk_1_1multimesh_1_1utils.html#a1e2e083555fd22678fcf96094992aaae" target="_top" xlink:title=" ">
<polygon fill="none" stroke="black" points="606,-97.5 606,-127.5 736,-127.5 736,-97.5 606,-97.5"/>
<text text-anchor="start" x="614" y="-115.5" font-family="Helvetica,sans-Serif" font-size="10.00">wmtk::multimesh::utils</text>
<text text-anchor="middle" x="671" y="-104.5" font-family="Helvetica,sans-Serif" font-size="10.00">::tuple_to_vector</text>
</a>
</g>
</g>
<!-- Node7&#45;&gt;Node8 -->
<g id="edge7" class="edge">
<title>Node7&#45;&gt;Node8</title>
<path fill="none" stroke="midnightblue" d="M551.59,-112.5C565.86,-112.5 581.1,-112.5 595.74,-112.5"/>
<polygon fill="midnightblue" stroke="midnightblue" points="595.76,-116 605.76,-112.5 595.76,-109 595.76,-116"/>
</g>
<!-- Node9 -->
<g id="node9" class="node">
<title>Node9</title>
<g id="a_node9"><a xlink:href="namespacewmtk_1_1multimesh_1_1utils.html#a594fa9c261e673d21832b4d8f932e637" target="_top" xlink:title=" ">
<polygon fill="none" stroke="black" points="772,-122.5 772,-152.5 902,-152.5 902,-122.5 772,-122.5"/>
<text text-anchor="start" x="780" y="-140.5" font-family="Helvetica,sans-Serif" font-size="10.00">wmtk::multimesh::utils</text>
<text text-anchor="middle" x="837" y="-129.5" font-family="Helvetica,sans-Serif" font-size="10.00">::tuple_to_vector2</text>
</a>
</g>
</g>
<!-- Node8&#45;&gt;Node9 -->
<g id="edge8" class="edge">
<title>Node8&#45;&gt;Node9</title>
<path fill="none" stroke="midnightblue" d="M736.35,-122.31C744.73,-123.59 753.37,-124.9 761.9,-126.2"/>
<polygon fill="midnightblue" stroke="midnightblue" points="761.43,-129.67 771.84,-127.72 762.48,-122.75 761.43,-129.67"/>
</g>
<!-- Node15 -->
<g id="node15" class="node">
<title>Node15</title>
<g id="a_node15"><a xlink:href="namespacewmtk_1_1multimesh_1_1utils.html#ab150c77419d0083e882dcc657e3ef5b5" target="_top" xlink:title=" ">
<polygon fill="none" stroke="black" points="772,-73.5 772,-103.5 902,-103.5 902,-73.5 772,-73.5"/>
<text text-anchor="start" x="780" y="-91.5" font-family="Helvetica,sans-Serif" font-size="10.00">wmtk::multimesh::utils</text>
<text text-anchor="middle" x="837" y="-80.5" font-family="Helvetica,sans-Serif" font-size="10.00">::tuple_to_vector5</text>
</a>
</g>
</g>
<!-- Node8&#45;&gt;Node15 -->
<g id="edge14" class="edge">
<title>Node8&#45;&gt;Node15</title>
<path fill="none" stroke="midnightblue" d="M736.35,-103.08C744.73,-101.86 753.37,-100.59 761.9,-99.34"/>
<polygon fill="midnightblue" stroke="midnightblue" points="762.45,-102.8 771.84,-97.89 761.44,-95.87 762.45,-102.8"/>
</g>
<!-- Node10 -->
<g id="node10" class="node">
<title>Node10</title>
<g id="a_node10"><a xlink:href="classwmtk_1_1utils_1_1_tuple_inspector.html#a5a92c6323c9678ae3785e395bc84d4a9" target="_top" xlink:title=" ">
<polygon fill="none" stroke="black" points="938,-147.5 938,-177.5 1086,-177.5 1086,-147.5 938,-147.5"/>
<text text-anchor="start" x="946" y="-165.5" font-family="Helvetica,sans-Serif" font-size="10.00">wmtk::utils::TupleInspector</text>
<text text-anchor="middle" x="1012" y="-154.5" font-family="Helvetica,sans-Serif" font-size="10.00">::global_cid</text>
</a>
</g>
</g>
<!-- Node9&#45;&gt;Node10 -->
<g id="edge9" class="edge">
<title>Node9&#45;&gt;Node10</title>
<path fill="none" stroke="midnightblue" d="M902.42,-146.81C910.7,-148.01 919.28,-149.25 927.81,-150.48"/>
<polygon fill="midnightblue" stroke="midnightblue" points="927.39,-153.95 937.79,-151.92 928.39,-147.03 927.39,-153.95"/>
</g>
<!-- Node11 -->
<g id="node11" class="node">
<title>Node11</title>
<g id="a_node11"><a xlink:href="classwmtk_1_1utils_1_1_tuple_inspector.html#ae396c2b7e1c4c56d911d0dd848ff7ba7" target="_top" xlink:title=" ">
<polygon fill="none" stroke="black" points="938,-98.5 938,-128.5 1086,-128.5 1086,-98.5 938,-98.5"/>
<text text-anchor="start" x="946" y="-116.5" font-family="Helvetica,sans-Serif" font-size="10.00">wmtk::utils::TupleInspector</text>
<text text-anchor="middle" x="1012" y="-105.5" font-family="Helvetica,sans-Serif" font-size="10.00">::hash</text>
</a>
</g>
</g>
<!-- Node9&#45;&gt;Node11 -->
<g id="edge10" class="edge">
<title>Node9&#45;&gt;Node11</title>
<path fill="none" stroke="midnightblue" d="M902.42,-128.56C910.7,-127.41 919.28,-126.22 927.81,-125.04"/>
<polygon fill="midnightblue" stroke="midnightblue" points="928.36,-128.5 937.79,-123.66 927.4,-121.56 928.36,-128.5"/>
</g>
<!-- Node12 -->
<g id="node12" class="node">
<title>Node12</title>
<g id="a_node12"><a xlink:href="classwmtk_1_1utils_1_1_tuple_inspector.html#a3ae49ee45025897b049dbd6291d38d3e" target="_top" xlink:title=" ">
<polygon fill="none" stroke="black" points="938,-49.5 938,-79.5 1086,-79.5 1086,-49.5 938,-49.5"/>
<text text-anchor="start" x="946" y="-67.5" font-family="Helvetica,sans-Serif" font-size="10.00">wmtk::utils::TupleInspector</text>
<text text-anchor="middle" x="1012" y="-56.5" font-family="Helvetica,sans-Serif" font-size="10.00">::local_eid</text>
</a>
</g>
</g>
<!-- Node9&#45;&gt;Node12 -->
<g id="edge11" class="edge">
<title>Node9&#45;&gt;Node12</title>
<path fill="none" stroke="midnightblue" d="M882.3,-122.41C889.01,-119.69 895.77,-116.69 902,-113.5 919.11,-104.73 920.76,-98.02 938,-89.5 942.35,-87.35 946.93,-85.31 951.59,-83.39"/>
<polygon fill="midnightblue" stroke="midnightblue" points="953.18,-86.52 961.21,-79.62 950.62,-80.01 953.18,-86.52"/>
</g>
<!-- Node13 -->
<g id="node13" class="node">
<title>Node13</title>
<g id="a_node13"><a xlink:href="classwmtk_1_1utils_1_1_tuple_inspector.html#ad53c9feea9da16f5b31b9708a699e466" target="_top" xlink:title=" ">
<polygon fill="none" stroke="black" points="938,-0.5 938,-30.5 1086,-30.5 1086,-0.5 938,-0.5"/>
<text text-anchor="start" x="946" y="-18.5" font-family="Helvetica,sans-Serif" font-size="10.00">wmtk::utils::TupleInspector</text>
<text text-anchor="middle" x="1012" y="-7.5" font-family="Helvetica,sans-Serif" font-size="10.00">::local_fid</text>
</a>
</g>
</g>
<!-- Node9&#45;&gt;Node13 -->
<g id="edge12" class="edge">
<title>Node9&#45;&gt;Node13</title>
<path fill="none" stroke="midnightblue" d="M889.35,-122.44C893.91,-119.89 898.23,-116.93 902,-113.5 929.05,-88.88 910.45,-63.56 938,-39.5 939.35,-38.32 940.75,-37.2 942.21,-36.14"/>
<polygon fill="midnightblue" stroke="midnightblue" points="944.4,-38.9 951.01,-30.62 940.68,-32.97 944.4,-38.9"/>
</g>
<!-- Node14 -->
<g id="node14" class="node">
<title>Node14</title>
<g id="a_node14"><a xlink:href="classwmtk_1_1utils_1_1_tuple_inspector.html#a164882d2ccc6019e0067e8ad5e7e3bdb" target="_top" xlink:title=" ">
<polygon fill="none" stroke="black" points="938,-196.5 938,-226.5 1086,-226.5 1086,-196.5 938,-196.5"/>
<text text-anchor="start" x="946" y="-214.5" font-family="Helvetica,sans-Serif" font-size="10.00">wmtk::utils::TupleInspector</text>
<text text-anchor="middle" x="1012" y="-203.5" font-family="Helvetica,sans-Serif" font-size="10.00">::local_vid</text>
</a>
</g>
</g>
<!-- Node9&#45;&gt;Node14 -->
<g id="edge13" class="edge">
<title>Node9&#45;&gt;Node14</title>
<path fill="none" stroke="midnightblue" d="M865.51,-152.62C885.32,-163.17 912.87,-177.15 938,-187.5 942.66,-189.42 947.54,-191.29 952.46,-193.1"/>
<polygon fill="midnightblue" stroke="midnightblue" points="951.35,-196.42 961.95,-196.47 953.7,-189.82 951.35,-196.42"/>
</g>
<!-- Node15&#45;&gt;Node10 -->
<g id="edge15" class="edge">
<title>Node15&#45;&gt;Node10</title>
<path fill="none" stroke="midnightblue" d="M880.63,-103.53C887.89,-106.55 895.26,-109.91 902,-113.5 919.19,-122.66 920.57,-129.81 938,-138.5 941.59,-140.29 945.35,-141.99 949.18,-143.6"/>
<polygon fill="midnightblue" stroke="midnightblue" points="948.22,-146.98 958.81,-147.4 950.79,-140.47 948.22,-146.98"/>
</g>
<!-- Node15&#45;&gt;Node11 -->
<g id="edge16" class="edge">
<title>Node15&#45;&gt;Node11</title>
<path fill="none" stroke="midnightblue" d="M902.42,-97.81C910.7,-99.01 919.28,-100.25 927.81,-101.48"/>
<polygon fill="midnightblue" stroke="midnightblue" points="927.39,-104.95 937.79,-102.92 928.39,-98.03 927.39,-104.95"/>
</g>
<!-- Node15&#45;&gt;Node12 -->
<g id="edge17" class="edge">
<title>Node15&#45;&gt;Node12</title>
<path fill="none" stroke="midnightblue" d="M902.42,-79.56C910.7,-78.41 919.28,-77.22 927.81,-76.04"/>
<polygon fill="midnightblue" stroke="midnightblue" points="928.36,-79.5 937.79,-74.66 927.4,-72.56 928.36,-79.5"/>
</g>
<!-- Node15&#45;&gt;Node13 -->
<g id="edge18" class="edge">
<title>Node15&#45;&gt;Node13</title>
<path fill="none" stroke="midnightblue" d="M866.4,-73.28C886.16,-63.01 913.29,-49.56 938,-39.5 942.67,-37.6 947.55,-35.74 952.48,-33.94"/>
<polygon fill="midnightblue" stroke="midnightblue" points="953.71,-37.22 961.97,-30.59 951.38,-30.62 953.71,-37.22"/>
</g>
<!-- Node15&#45;&gt;Node14 -->
<g id="edge19" class="edge">
<title>Node15&#45;&gt;Node14</title>
<path fill="none" stroke="midnightblue" d="M887.76,-103.5C892.91,-106.31 897.79,-109.62 902,-113.5 928.88,-138.3 910.45,-163.44 938,-187.5 939.35,-188.68 940.75,-189.8 942.21,-190.86"/>
<polygon fill="midnightblue" stroke="midnightblue" points="940.68,-194.03 951.01,-196.38 944.4,-188.1 940.68,-194.03"/>
</g>
</g>
</svg>
        <g id="navigator" transform="translate(0 0)" fill="#404254">
                <rect fill="#f2f5e9" fill-opacity="0.5" stroke="#606060" stroke-width=".5" x="0" y="0" width="60" height="60"/>
                <use id="zoomplus" xlink:href="#zoomPlus" x="17" y="9" onmousedown="handleZoom(evt,'in')"/>
                <use id="zoomminus" xlink:href="#zoomMin" x="42" y="9" onmousedown="handleZoom(evt,'out')"/>
                <use id="reset" xlink:href="#resetDef" x="30" y="36" onmousedown="handleReset()"/>
                <g id="arrowUp" xlink:href="#dirArrow" transform="translate(30 24)" onmousedown="handlePan(0,-1)">
                  <use xlink:href="#rim" fill="#404040">
                        <set attributeName="fill" to="#808080" begin="arrowUp.mouseover" end="arrowUp.mouseout"/>
                  </use>
                  <path fill="none" stroke="white" stroke-width="1.5" d="M0,-3.0v7 M-2.5,-0.5L0,-3.0L2.5,-0.5"/>
                </g>
                <g id="arrowRight" xlink:href="#dirArrow" transform="rotate(90) translate(36 -43)" onmousedown="handlePan(1,0)">
                  <use xlink:href="#rim" fill="#404040">
                        <set attributeName="fill" to="#808080" begin="arrowRight.mouseover" end="arrowRight.mouseout"/>
                  </use>
                  <path fill="none" stroke="white" stroke-width="1.5" d="M0,-3.0v7 M-2.5,-0.5L0,-3.0L2.5,-0.5"/>
                </g>
                <g id="arrowDown" xlink:href="#dirArrow" transform="rotate(180) translate(-30 -48)" onmousedown="handlePan(0,1)">
                  <use xlink:href="#rim" fill="#404040">
                        <set attributeName="fill" to="#808080" begin="arrowDown.mouseover" end="arrowDown.mouseout"/>
                  </use>
                  <path fill="none" stroke="white" stroke-width="1.5" d="M0,-3.0v7 M-2.5,-0.5L0,-3.0L2.5,-0.5"/>
                </g>
                <g id="arrowLeft" xlink:href="#dirArrow" transform="rotate(270) translate(-36 17)" onmousedown="handlePan(-1,0)">
                  <use xlink:href="#rim" fill="#404040">
                        <set attributeName="fill" to="#808080" begin="arrowLeft.mouseover" end="arrowLeft.mouseout"/>
                  </use>
                  <path fill="none" stroke="white" stroke-width="1.5" d="M0,-3.0v7 M-2.5,-0.5L0,-3.0L2.5,-0.5"/>
                </g>
        </g>
        <svg viewBox="0 0 15 15" width="100%" height="30px" preserveAspectRatio="xMaxYMin meet">
         <g id="arrow_out" transform="scale(0.3 0.3)">
          <a xlink:href="namespacewmtk_1_1multimesh_1_1utils_ab96c92511f3311e2c2aa44286a401c5c_cgraph_org.svg" target="_base">
           <rect id="button" ry="5" rx="5" y="6" x="6" height="38" width="38"
                fill="#f2f5e9" fill-opacity="0.5" stroke="#606060" stroke-width="1.0"/>
           <path id="arrow"
             d="M 11.500037,31.436501 C 11.940474,20.09759 22.043105,11.32322 32.158766,21.979434 L 37.068811,17.246167 C 37.068811,17.246167 37.088388,32 37.088388,32 L 22.160133,31.978069 C 22.160133,31.978069 26.997745,27.140456 26.997745,27.140456 C 18.528582,18.264221 13.291696,25.230495 11.500037,31.436501 z"
             style="fill:#404040;"/>
          </a>
         </g>
        </svg>
</svg>
