<?xml version="1.0" encoding="UTF-8" standalone="no"?>
<!DOCTYPE svg PUBLIC "-//W3C//DTD SVG 1.1//EN"
 "http://www.w3.org/Graphics/SVG/1.1/DTD/svg11.dtd">
<!-- Generated by graphviz version 2.43.0 (0)
 -->
<!-- Title: wmtk::simplex::cofaces_single_dimension_tuples Pages: 1 -->
<!--zoomable 844 -->
<svg id="main" version="1.1" xmlns="http://www.w3.org/2000/svg" xmlns:xlink="http://www.w3.org/1999/xlink" xml:space="preserve" onload="init(evt)">
<style type="text/css"><![CDATA[
.edge:hover path { stroke: red; }
.edge:hover polygon { stroke: red; fill: red; }
]]></style>
<script type="text/javascript"><![CDATA[
var edges = document.getElementsByTagName('g');
if (edges && edges.length) {
  for (var i=0;i<edges.length;i++) {
    if (edges[i].id.substr(0,4)=='edge') {
      edges[i].setAttribute('class','edge');
    }
  }
}
]]></script>
        <defs>
                <circle id="rim" cx="0" cy="0" r="7"/>
                <circle id="rim2" cx="0" cy="0" r="3.5"/>
                <g id="zoomPlus">
                        <use xlink:href="#rim" fill="#404040">
                                <set attributeName="fill" to="#808080" begin="zoomplus.mouseover" end="zoomplus.mouseout"/>
                        </use>
                        <path d="M-4,0h8M0,-4v8" fill="none" stroke="white" stroke-width="1.5" pointer-events="none"/>
                </g>
                <g id="zoomMin">
                        <use xlink:href="#rim" fill="#404040">
                                <set attributeName="fill" to="#808080" begin="zoomminus.mouseover" end="zoomminus.mouseout"/>
                        </use>
                        <path d="M-4,0h8" fill="none" stroke="white" stroke-width="1.5" pointer-events="none"/>
                </g>
                <g id="dirArrow">
                        <path fill="none" stroke="white" stroke-width="1.5" d="M0,-3.0v7 M-2.5,-0.5L0,-3.0L2.5,-0.5"/>
                </g>
               <g id="resetDef">
                       <use xlink:href="#rim2" fill="#404040">
                               <set attributeName="fill" to="#808080" begin="reset.mouseover" end="reset.mouseout"/>
                       </use>
               </g>
        </defs>

<script type="text/javascript">
var viewWidth = 1681;
var viewHeight = 844;
var sectionId = 'dynsection-10';
</script>
<script xlink:href="svgpan.js"/>
<svg id="graph" class="graph">
<g id="viewport">
<title>wmtk::simplex::cofaces_single_dimension_tuples</title>
<!-- Node1 -->
<g id="node1" class="node">
<title>Node1</title>
<g id="a_node1"><a xlink:title=" ">
<polygon fill="#bfbfbf" stroke="black" points="0,-590.99 0,-620.99 143,-620.99 143,-590.99 0,-590.99"/>
<text text-anchor="start" x="8" y="-608.99" font-family="Helvetica,sans-Serif" font-size="10.00">wmtk::simplex::cofaces</text>
<text text-anchor="middle" x="71.5" y="-597.99" font-family="Helvetica,sans-Serif" font-size="10.00">_single_dimension_tuples</text>
</a>
</g>
</g>
<!-- Node2 -->
<g id="node2" class="node">
<title>Node2</title>
<g id="a_node2"><a xlink:href="namespacewmtk_1_1simplex_1_1internal.html#af3c31556d0dcfb8f9c4419470784a150" target="_top" xlink:title="Returns the faces (single&#45;dimension) of a simplex that are also cofaces of a given face.">
<polygon fill="none" stroke="black" points="180,-738.49 180,-779.49 329,-779.49 329,-738.49 180,-738.49"/>
<text text-anchor="start" x="188" y="-767.49" font-family="Helvetica,sans-Serif" font-size="10.00">wmtk::simplex::internal</text>
<text text-anchor="start" x="188" y="-756.49" font-family="Helvetica,sans-Serif" font-size="10.00">::boundary_with_preserved</text>
<text text-anchor="middle" x="254.5" y="-745.49" font-family="Helvetica,sans-Serif" font-size="10.00">_face_tuples</text>
</a>
</g>
</g>
<!-- Node1&#45;&gt;Node2 -->
<g id="edge1" class="edge">
<title>Node1&#45;&gt;Node2</title>
<path fill="none" stroke="midnightblue" d="M83.07,-621.17C100.63,-645.51 137.99,-693.59 179,-723.99 183.63,-727.43 188.66,-730.65 193.83,-733.64"/>
<polygon fill="midnightblue" stroke="midnightblue" points="192.19,-736.73 202.65,-738.45 195.55,-730.59 192.19,-736.73"/>
</g>
<!-- Node5 -->
<g id="node5" class="node">
<title>Node5</title>
<g id="a_node5"><a xlink:href="classwmtk_1_1simplex_1_1_simplex.html#ad2cc0340a0772b7d6f03ba7a781d1163" target="_top" xlink:title=" ">
<polygon fill="none" stroke="black" points="790,-541.99 790,-571.99 925,-571.99 925,-541.99 790,-541.99"/>
<text text-anchor="start" x="798" y="-559.99" font-family="Helvetica,sans-Serif" font-size="10.00">wmtk::simplex::Simplex</text>
<text text-anchor="middle" x="857.5" y="-548.99" font-family="Helvetica,sans-Serif" font-size="10.00">::primitive_type</text>
</a>
</g>
</g>
<!-- Node1&#45;&gt;Node5 -->
<g id="edge13" class="edge">
<title>Node1&#45;&gt;Node5</title>
<path fill="none" stroke="midnightblue" d="M143.45,-602.09C267.08,-595.2 530.04,-580.18 752,-564.99 761,-564.38 770.43,-563.7 779.79,-563.01"/>
<polygon fill="midnightblue" stroke="midnightblue" points="780.18,-566.49 789.89,-562.25 779.66,-559.51 780.18,-566.49"/>
</g>
<!-- Node6 -->
<g id="node6" class="node">
<title>Node6</title>
<g id="a_node6"><a xlink:href="classwmtk_1_1simplex_1_1_simplex.html#a3650fd31ff1864285502dba66db3c73c" target="_top" xlink:title=" ">
<polygon fill="none" stroke="black" points="790,-492.99 790,-522.99 925,-522.99 925,-492.99 790,-492.99"/>
<text text-anchor="start" x="798" y="-510.99" font-family="Helvetica,sans-Serif" font-size="10.00">wmtk::simplex::Simplex</text>
<text text-anchor="middle" x="857.5" y="-499.99" font-family="Helvetica,sans-Serif" font-size="10.00">::tuple</text>
</a>
</g>
</g>
<!-- Node1&#45;&gt;Node6 -->
<g id="edge52" class="edge">
<title>Node1&#45;&gt;Node6</title>
<path fill="none" stroke="midnightblue" d="M143.19,-592.99C155.13,-590.91 167.41,-588.83 179,-586.99 370.01,-556.67 417.72,-547.77 610,-526.99 666.77,-520.86 731.11,-515.97 779.82,-512.69"/>
<polygon fill="midnightblue" stroke="midnightblue" points="780.22,-516.17 789.96,-512.01 779.75,-509.18 780.22,-516.17"/>
</g>
<!-- Node9 -->
<g id="node9" class="node">
<title>Node9</title>
<g id="a_node9"><a xlink:href="classwmtk_1_1_mesh.html#abaf00438d0700358b160e310d69725c9" target="_top" xlink:title=" ">
<polygon fill="none" stroke="black" points="1147,-744.49 1147,-763.49 1317,-763.49 1317,-744.49 1147,-744.49"/>
<text text-anchor="middle" x="1232" y="-751.49" font-family="Helvetica,sans-Serif" font-size="10.00">wmtk::Mesh::top_simplex_type</text>
</a>
</g>
</g>
<!-- Node1&#45;&gt;Node9 -->
<g id="edge51" class="edge">
<title>Node1&#45;&gt;Node9</title>
<path fill="none" stroke="midnightblue" d="M102.13,-621.13C123.13,-631.35 152.23,-644.48 179,-652.99 304.17,-692.82 337.65,-709.99 469,-709.99 469,-709.99 469,-709.99 858.5,-709.99 969.83,-709.99 1098.59,-729.62 1171.85,-742.65"/>
<polygon fill="midnightblue" stroke="midnightblue" points="1171.35,-746.12 1181.81,-744.45 1172.59,-739.23 1171.35,-746.12"/>
</g>
<!-- Node10 -->
<g id="node10" class="node">
<title>Node10</title>
<g id="a_node10"><a xlink:href="namespacewmtk_1_1utils.html#a8dab5bd8df4c7c658413914f37210244" target="_top" xlink:title=" ">
<polygon fill="none" stroke="black" points="193.5,-612.99 193.5,-642.99 315.5,-642.99 315.5,-612.99 193.5,-612.99"/>
<text text-anchor="start" x="201.5" y="-630.99" font-family="Helvetica,sans-Serif" font-size="10.00">wmtk::utils::primitive</text>
<text text-anchor="middle" x="254.5" y="-619.99" font-family="Helvetica,sans-Serif" font-size="10.00">_range</text>
</a>
</g>
</g>
<!-- Node1&#45;&gt;Node10 -->
<g id="edge10" class="edge">
<title>Node1&#45;&gt;Node10</title>
<path fill="none" stroke="midnightblue" d="M143.26,-614.59C156.45,-616.2 170.24,-617.87 183.41,-619.47"/>
<polygon fill="midnightblue" stroke="midnightblue" points="183,-622.95 193.35,-620.68 183.84,-616 183,-622.95"/>
</g>
<!-- Node13 -->
<g id="node13" class="node">
<title>Node13</title>
<g id="a_node13"><a xlink:href="namespacewmtk_1_1simplex.html#ac133ab11355bb4cda7e8b1e3ed48226f" target="_top" xlink:title=" ">
<polygon fill="none" stroke="black" points="179,-378.99 179,-408.99 330,-408.99 330,-378.99 179,-378.99"/>
<text text-anchor="start" x="187" y="-396.99" font-family="Helvetica,sans-Serif" font-size="10.00">wmtk::simplex::top</text>
<text text-anchor="middle" x="254.5" y="-385.99" font-family="Helvetica,sans-Serif" font-size="10.00">_dimension_cofaces_tuples</text>
</a>
</g>
</g>
<!-- Node1&#45;&gt;Node13 -->
<g id="edge14" class="edge">
<title>Node1&#45;&gt;Node13</title>
<path fill="none" stroke="midnightblue" d="M85.52,-590.75C116.89,-554 196.83,-460.37 233.98,-416.86"/>
<polygon fill="midnightblue" stroke="midnightblue" points="236.77,-418.98 240.6,-409.1 231.45,-414.43 236.77,-418.98"/>
</g>
<!-- Node3 -->
<g id="node3" class="node">
<title>Node3</title>
<g id="a_node3"><a xlink:href="classwmtk_1_1_mesh.html#a7f8a7b7d592fdbf672f2c6c9653487ea" target="_top" xlink:title=" ">
<polygon fill="none" stroke="black" points="413,-743.99 413,-773.99 527,-773.99 527,-743.99 413,-743.99"/>
<text text-anchor="start" x="421" y="-761.99" font-family="Helvetica,sans-Serif" font-size="10.00">wmtk::Mesh::switch</text>
<text text-anchor="middle" x="470" y="-750.99" font-family="Helvetica,sans-Serif" font-size="10.00">_tuples</text>
</a>
</g>
</g>
<!-- Node2&#45;&gt;Node3 -->
<g id="edge2" class="edge">
<title>Node2&#45;&gt;Node3</title>
<path fill="none" stroke="midnightblue" d="M329.27,-758.99C353.11,-758.99 379.37,-758.99 402.64,-758.99"/>
<polygon fill="midnightblue" stroke="midnightblue" points="402.75,-762.49 412.75,-758.99 402.75,-755.49 402.75,-762.49"/>
</g>
<!-- Node4 -->
<g id="node4" class="node">
<title>Node4</title>
<g id="a_node4"><a xlink:href="classwmtk_1_1_mesh.html#a58bdbbfa0cd7bd9263241f6501db182a" target="_top" xlink:title="check if a simplex lies on a boundary or not">
<polygon fill="none" stroke="black" points="610,-536.49 610,-555.49 752,-555.49 752,-536.49 610,-536.49"/>
<text text-anchor="middle" x="681" y="-543.49" font-family="Helvetica,sans-Serif" font-size="10.00">wmtk::Mesh::is_boundary</text>
</a>
</g>
</g>
<!-- Node3&#45;&gt;Node4 -->
<g id="edge3" class="edge">
<title>Node3&#45;&gt;Node4</title>
<path fill="none" stroke="midnightblue" d="M499.62,-743.82C521.45,-731.4 551.51,-712.43 574,-690.99 615.57,-651.36 652.19,-593.7 669.47,-564.47"/>
<polygon fill="midnightblue" stroke="midnightblue" points="672.56,-566.12 674.56,-555.71 666.51,-562.6 672.56,-566.12"/>
</g>
<!-- Node7 -->
<g id="node7" class="node">
<title>Node7</title>
<g id="a_node7"><a xlink:href="classwmtk_1_1_mesh.html#a965a8a24158c4aa8580c57ba09f885f7" target="_top" xlink:title="switch the orientation of the Tuple of the given dimension">
<polygon fill="none" stroke="black" points="624,-738.99 624,-768.99 738,-768.99 738,-738.99 624,-738.99"/>
<text text-anchor="start" x="632" y="-756.99" font-family="Helvetica,sans-Serif" font-size="10.00">wmtk::Mesh::switch</text>
<text text-anchor="middle" x="681" y="-745.99" font-family="Helvetica,sans-Serif" font-size="10.00">_tuple</text>
</a>
</g>
</g>
<!-- Node3&#45;&gt;Node7 -->
<g id="edge6" class="edge">
<title>Node3&#45;&gt;Node7</title>
<path fill="none" stroke="midnightblue" d="M527.01,-757.65C553.72,-757.01 585.85,-756.25 613.76,-755.58"/>
<polygon fill="midnightblue" stroke="midnightblue" points="613.92,-759.08 623.84,-755.34 613.76,-752.08 613.92,-759.08"/>
</g>
<!-- Node8 -->
<g id="node8" class="node">
<title>Node8</title>
<g id="a_node8"><a xlink:href="classwmtk_1_1_mesh.html#a933f681cf24a63b155c9462280385200" target="_top" xlink:title=" ">
<polygon fill="none" stroke="black" points="1363.5,-779.99 1363.5,-809.99 1484.5,-809.99 1484.5,-779.99 1363.5,-779.99"/>
<text text-anchor="start" x="1371.5" y="-797.99" font-family="Helvetica,sans-Serif" font-size="10.00">wmtk::Mesh::top_cell</text>
<text text-anchor="middle" x="1424" y="-786.99" font-family="Helvetica,sans-Serif" font-size="10.00">_dimension</text>
</a>
</g>
</g>
<!-- Node3&#45;&gt;Node8 -->
<g id="edge7" class="edge">
<title>Node3&#45;&gt;Node8</title>
<path fill="none" stroke="midnightblue" d="M516.11,-774.02C587.5,-796.43 731.26,-835.99 856.5,-835.99 856.5,-835.99 856.5,-835.99 1038,-835.99 1148.65,-835.99 1276.18,-819.04 1353.14,-806.94"/>
<polygon fill="midnightblue" stroke="midnightblue" points="1353.87,-810.37 1363.19,-805.34 1352.77,-803.45 1353.87,-810.37"/>
</g>
<!-- Node3&#45;&gt;Node9 -->
<g id="edge8" class="edge">
<title>Node3&#45;&gt;Node9</title>
<path fill="none" stroke="midnightblue" d="M527.27,-768.96C552.49,-772.94 582.64,-777.04 610,-778.99 796.46,-792.34 1014.97,-776.17 1136.75,-764.32"/>
<polygon fill="midnightblue" stroke="midnightblue" points="1137.18,-767.8 1146.79,-763.34 1136.49,-760.83 1137.18,-767.8"/>
</g>
<!-- Node4&#45;&gt;Node5 -->
<g id="edge4" class="edge">
<title>Node4&#45;&gt;Node5</title>
<path fill="none" stroke="midnightblue" d="M752.22,-550.42C761.24,-550.99 770.5,-551.57 779.62,-552.15"/>
<polygon fill="midnightblue" stroke="midnightblue" points="779.62,-555.65 789.82,-552.79 780.06,-548.67 779.62,-555.65"/>
</g>
<!-- Node4&#45;&gt;Node6 -->
<g id="edge5" class="edge">
<title>Node4&#45;&gt;Node6</title>
<path fill="none" stroke="midnightblue" d="M726.03,-536.4C742.38,-532.84 761.43,-528.7 779.85,-524.69"/>
<polygon fill="midnightblue" stroke="midnightblue" points="780.67,-528.09 789.7,-522.54 779.18,-521.25 780.67,-528.09"/>
</g>
<!-- Node9&#45;&gt;Node8 -->
<g id="edge9" class="edge">
<title>Node9&#45;&gt;Node8</title>
<path fill="none" stroke="midnightblue" d="M1277.07,-763.5C1299.71,-768.39 1327.84,-774.46 1353.34,-779.96"/>
<polygon fill="midnightblue" stroke="midnightblue" points="1352.83,-783.43 1363.34,-782.12 1354.3,-776.59 1352.83,-783.43"/>
</g>
<!-- Node11 -->
<g id="node11" class="node">
<title>Node11</title>
<g id="a_node11"><a xlink:href="namespacewmtk.html#a3b08a5d7fb42f02c54bae85758b39f59" target="_top" xlink:title="Get the primitive type corresponding to its unique integer id.">
<polygon fill="none" stroke="black" points="412,-650.99 412,-680.99 528,-680.99 528,-650.99 412,-650.99"/>
<text text-anchor="start" x="420" y="-668.99" font-family="Helvetica,sans-Serif" font-size="10.00">wmtk::get_primitive</text>
<text text-anchor="middle" x="470" y="-657.99" font-family="Helvetica,sans-Serif" font-size="10.00">_type_from_id</text>
</a>
</g>
</g>
<!-- Node10&#45;&gt;Node11 -->
<g id="edge11" class="edge">
<title>Node10&#45;&gt;Node11</title>
<path fill="none" stroke="midnightblue" d="M315.54,-638.68C342.45,-643.47 374.3,-649.14 401.98,-654.07"/>
<polygon fill="midnightblue" stroke="midnightblue" points="401.52,-657.54 411.98,-655.84 402.75,-650.65 401.52,-657.54"/>
</g>
<!-- Node12 -->
<g id="node12" class="node">
<title>Node12</title>
<g id="a_node12"><a xlink:href="namespacewmtk.html#a5cf45c152e856196bb734c6f48919a24" target="_top" xlink:title="Get a unique integer id corresponding to each primitive type.">
<polygon fill="none" stroke="black" points="1366,-362.99 1366,-392.99 1482,-392.99 1482,-362.99 1366,-362.99"/>
<text text-anchor="start" x="1374" y="-380.99" font-family="Helvetica,sans-Serif" font-size="10.00">wmtk::get_primitive</text>
<text text-anchor="middle" x="1424" y="-369.99" font-family="Helvetica,sans-Serif" font-size="10.00">_type_id</text>
</a>
</g>
</g>
<!-- Node10&#45;&gt;Node12 -->
<g id="edge12" class="edge">
<title>Node10&#45;&gt;Node12</title>
<path fill="none" stroke="midnightblue" d="M315.6,-626.61C397.85,-624.84 550.09,-621.99 680,-621.99 680,-621.99 680,-621.99 1038,-621.99 1202.01,-621.99 1352.8,-462.07 1404.28,-401.17"/>
<polygon fill="midnightblue" stroke="midnightblue" points="1407.16,-403.18 1410.87,-393.26 1401.78,-398.7 1407.16,-403.18"/>
</g>
<!-- Node13&#45;&gt;Node5 -->
<g id="edge29" class="edge">
<title>Node13&#45;&gt;Node5</title>
<path fill="none" stroke="midnightblue" d="M297.75,-409.02C318.24,-416.08 343.27,-424.37 366,-430.99 535.73,-480.43 581.24,-481.26 752,-526.99 766.22,-530.8 781.48,-535.07 795.82,-539.18"/>
<polygon fill="midnightblue" stroke="midnightblue" points="795,-542.58 805.58,-541.98 796.93,-535.85 795,-542.58"/>
</g>
<!-- Node13&#45;&gt;Node6 -->
<g id="edge50" class="edge">
<title>Node13&#45;&gt;Node6</title>
<path fill="none" stroke="midnightblue" d="M330,-407.42C342.02,-409.41 354.34,-411.34 366,-412.99 536.91,-437.19 591.52,-392.41 752,-455.99 770.59,-463.36 770.42,-473.46 788,-482.99 791.92,-485.12 796.07,-487.14 800.3,-489.03"/>
<polygon fill="midnightblue" stroke="midnightblue" points="799.06,-492.31 809.63,-492.98 801.79,-485.86 799.06,-492.31"/>
</g>
<!-- Node14 -->
<g id="node14" class="node">
<title>Node14</title>
<g id="a_node14"><a xlink:href="classwmtk_1_1simplex_1_1_simplex_collection.html#a1e7079b3b75f70dd28c524556cab76cf" target="_top" xlink:title="Add simplex to the collection.">
<polygon fill="none" stroke="black" points="366,-384.49 366,-403.49 574,-403.49 574,-384.49 366,-384.49"/>
<text text-anchor="middle" x="470" y="-391.49" font-family="Helvetica,sans-Serif" font-size="10.00">wmtk::simplex::SimplexCollection::add</text>
</a>
</g>
</g>
<!-- Node13&#45;&gt;Node14 -->
<g id="edge15" class="edge">
<title>Node13&#45;&gt;Node14</title>
<path fill="none" stroke="midnightblue" d="M330.17,-393.99C338.47,-393.99 347.05,-393.99 355.69,-393.99"/>
<polygon fill="midnightblue" stroke="midnightblue" points="355.85,-397.49 365.85,-393.99 355.85,-390.49 355.85,-397.49"/>
</g>
<!-- Node15 -->
<g id="node15" class="node">
<title>Node15</title>
<g id="a_node15"><a xlink:href="classwmtk_1_1_edge_mesh.html#a534952cf2729f1509a380e3e9afb65b7" target="_top" xlink:title=" ">
<polygon fill="none" stroke="black" points="800,-404.99 800,-434.99 915,-434.99 915,-404.99 800,-404.99"/>
<text text-anchor="start" x="808" y="-422.99" font-family="Helvetica,sans-Serif" font-size="10.00">wmtk::EdgeMesh::is</text>
<text text-anchor="middle" x="857.5" y="-411.99" font-family="Helvetica,sans-Serif" font-size="10.00">_boundary_vertex</text>
</a>
</g>
</g>
<!-- Node13&#45;&gt;Node15 -->
<g id="edge16" class="edge">
<title>Node13&#45;&gt;Node15</title>
<path fill="none" stroke="midnightblue" d="M272.75,-378.85C293.3,-361.91 329.47,-335.46 366,-324.99 531.35,-277.61 601.81,-269.16 752,-352.99 773.47,-364.98 767.79,-380.99 788,-394.99 790.84,-396.96 793.86,-398.8 796.98,-400.5"/>
<polygon fill="midnightblue" stroke="midnightblue" points="795.48,-403.67 806,-404.97 798.59,-397.4 795.48,-403.67"/>
</g>
<!-- Node22 -->
<g id="node22" class="node">
<title>Node22</title>
<g id="a_node22"><a xlink:href="namespacewmtk.html#a441d6ad4f19569c7d4946e743da1a925" target="_top" xlink:title=" ">
<polygon fill="none" stroke="black" points="409,-334.99 409,-364.99 531,-364.99 531,-334.99 409,-334.99"/>
<text text-anchor="start" x="417" y="-352.99" font-family="Helvetica,sans-Serif" font-size="10.00">wmtk::log_and_throw</text>
<text text-anchor="middle" x="470" y="-341.99" font-family="Helvetica,sans-Serif" font-size="10.00">_error</text>
</a>
</g>
</g>
<!-- Node13&#45;&gt;Node22 -->
<g id="edge26" class="edge">
<title>Node13&#45;&gt;Node22</title>
<path fill="none" stroke="midnightblue" d="M328.38,-378.97C351.21,-374.27 376.35,-369.09 398.99,-364.42"/>
<polygon fill="midnightblue" stroke="midnightblue" points="399.76,-367.84 408.85,-362.39 398.35,-360.98 399.76,-367.84"/>
</g>
<!-- Node25 -->
<g id="node25" class="node">
<title>Node25</title>
<g id="a_node25"><a xlink:href="classwmtk_1_1_edge_mesh.html#a04f6595fe85e52dc6bf1e02512120100" target="_top" xlink:title=" ">
<polygon fill="none" stroke="black" points="386.5,-244.49 386.5,-263.49 553.5,-263.49 553.5,-244.49 386.5,-244.49"/>
<text text-anchor="middle" x="470" y="-251.49" font-family="Helvetica,sans-Serif" font-size="10.00">wmtk::EdgeMesh::switch_edge</text>
</a>
</g>
</g>
<!-- Node13&#45;&gt;Node25 -->
<g id="edge30" class="edge">
<title>Node13&#45;&gt;Node25</title>
<path fill="none" stroke="midnightblue" d="M268.34,-378.85C287.57,-356.99 325.92,-316.53 366,-291.99 383.5,-281.28 404.49,-272.86 422.95,-266.69"/>
<polygon fill="midnightblue" stroke="midnightblue" points="424.17,-269.98 432.62,-263.59 422.03,-263.31 424.17,-269.98"/>
</g>
<!-- Node16 -->
<g id="node16" class="node">
<title>Node16</title>
<g id="a_node16"><a xlink:href="classwmtk_1_1attribute_1_1_accessor.html#acbfbd5a98532cf295fdf6dd64066bb26" target="_top" xlink:title=" ">
<polygon fill="none" stroke="black" points="966,-227.99 966,-257.99 1108,-257.99 1108,-227.99 966,-227.99"/>
<text text-anchor="start" x="974" y="-245.99" font-family="Helvetica,sans-Serif" font-size="10.00">wmtk::attribute::Accessor</text>
<text text-anchor="middle" x="1037" y="-234.99" font-family="Helvetica,sans-Serif" font-size="10.00">::const_vector_attribute</text>
</a>
</g>
</g>
<!-- Node15&#45;&gt;Node16 -->
<g id="edge17" class="edge">
<title>Node15&#45;&gt;Node16</title>
<path fill="none" stroke="midnightblue" d="M910.39,-404.92C916.27,-402.11 921.96,-398.82 927,-394.99 951.02,-376.76 997.57,-304.96 1021.31,-266.93"/>
<polygon fill="midnightblue" stroke="midnightblue" points="1024.53,-268.38 1026.83,-258.04 1018.58,-264.69 1024.53,-268.38"/>
</g>
<!-- Node17 -->
<g id="node17" class="node">
<title>Node17</title>
<g id="a_node17"><a xlink:href="classwmtk_1_1_mesh.html#abbb1c54cfd6ec17f4730317ee5fab78d" target="_top" xlink:title=" ">
<polygon fill="none" stroke="black" points="963,-366.49 963,-385.49 1111,-385.49 1111,-366.49 963,-366.49"/>
<text text-anchor="middle" x="1037" y="-373.49" font-family="Helvetica,sans-Serif" font-size="10.00">wmtk::Mesh::is_valid_slow</text>
</a>
</g>
</g>
<!-- Node15&#45;&gt;Node17 -->
<g id="edge18" class="edge">
<title>Node15&#45;&gt;Node17</title>
<path fill="none" stroke="midnightblue" d="M915.15,-405.95C938.47,-400.17 965.2,-393.54 987.58,-388"/>
<polygon fill="midnightblue" stroke="midnightblue" points="988.67,-391.33 997.53,-385.53 986.98,-384.54 988.67,-391.33"/>
</g>
<!-- Node17&#45;&gt;Node9 -->
<g id="edge25" class="edge">
<title>Node17&#45;&gt;Node9</title>
<path fill="none" stroke="midnightblue" d="M1042.96,-385.72C1068.67,-436.06 1186.76,-667.35 1221.41,-735.22"/>
<polygon fill="midnightblue" stroke="midnightblue" points="1218.4,-737.02 1226.07,-744.33 1224.64,-733.84 1218.4,-737.02"/>
</g>
<!-- Node18 -->
<g id="node18" class="node">
<title>Node18</title>
<g id="a_node18"><a xlink:href="classwmtk_1_1_mesh.html#adf199d6a3ce6badd8bfa0e2ab3a1c1aa" target="_top" xlink:title=" ">
<polygon fill="none" stroke="black" points="1167,-289.99 1167,-319.99 1297,-319.99 1297,-289.99 1167,-289.99"/>
<text text-anchor="start" x="1175" y="-307.99" font-family="Helvetica,sans-Serif" font-size="10.00">wmtk::Mesh::get_const</text>
<text text-anchor="middle" x="1232" y="-296.99" font-family="Helvetica,sans-Serif" font-size="10.00">_cell_hash_accessor</text>
</a>
</g>
</g>
<!-- Node17&#45;&gt;Node18 -->
<g id="edge19" class="edge">
<title>Node17&#45;&gt;Node18</title>
<path fill="none" stroke="midnightblue" d="M1058.18,-366.36C1079.82,-356.25 1115.36,-340.28 1147,-328.99 1152.81,-326.92 1158.9,-324.9 1165.03,-322.97"/>
<polygon fill="midnightblue" stroke="midnightblue" points="1166.12,-326.29 1174.65,-320.01 1164.07,-319.6 1166.12,-326.29"/>
</g>
<!-- Node20 -->
<g id="node20" class="node">
<title>Node20</title>
<g id="a_node20"><a xlink:href="classwmtk_1_1_mesh.html#a6dbab927a2ee85f77a87f075fd5c1d94" target="_top" xlink:title=" ">
<polygon fill="none" stroke="black" points="1167,-338.99 1167,-368.99 1297,-368.99 1297,-338.99 1167,-338.99"/>
<text text-anchor="start" x="1175" y="-356.99" font-family="Helvetica,sans-Serif" font-size="10.00">wmtk::Mesh::get_const</text>
<text text-anchor="middle" x="1232" y="-345.99" font-family="Helvetica,sans-Serif" font-size="10.00">_flag_accessor</text>
</a>
</g>
</g>
<!-- Node17&#45;&gt;Node20 -->
<g id="edge21" class="edge">
<title>Node17&#45;&gt;Node20</title>
<path fill="none" stroke="midnightblue" d="M1111.24,-367.64C1126.14,-365.95 1141.83,-364.16 1156.77,-362.45"/>
<polygon fill="midnightblue" stroke="midnightblue" points="1157.43,-365.9 1166.97,-361.29 1156.64,-358.95 1157.43,-365.9"/>
</g>
<!-- Node21 -->
<g id="node21" class="node">
<title>Node21</title>
<g id="a_node21"><a xlink:href="classwmtk_1_1_mesh.html#a918c509096fc08691924c05c6143b9c3" target="_top" xlink:title="check validity of tuple including its hash">
<polygon fill="none" stroke="black" points="1172,-388.49 1172,-407.49 1292,-407.49 1292,-388.49 1172,-388.49"/>
<text text-anchor="middle" x="1232" y="-395.49" font-family="Helvetica,sans-Serif" font-size="10.00">wmtk::Mesh::is_valid</text>
</a>
</g>
</g>
<!-- Node17&#45;&gt;Node21 -->
<g id="edge24" class="edge">
<title>Node17&#45;&gt;Node21</title>
<path fill="none" stroke="midnightblue" d="M1111.24,-384.34C1127.84,-386.23 1145.42,-388.24 1161.85,-390.11"/>
<polygon fill="midnightblue" stroke="midnightblue" points="1161.58,-393.6 1171.91,-391.26 1162.37,-386.65 1161.58,-393.6"/>
</g>
<!-- Node19 -->
<g id="node19" class="node">
<title>Node19</title>
<g id="a_node19"><a xlink:href="classwmtk_1_1_mesh.html#a4a20dcdac339e7a4f6f8a6570114cbe6" target="_top" xlink:title=" ">
<polygon fill="none" stroke="black" points="1367.5,-313.99 1367.5,-343.99 1480.5,-343.99 1480.5,-313.99 1367.5,-313.99"/>
<text text-anchor="start" x="1375.5" y="-331.99" font-family="Helvetica,sans-Serif" font-size="10.00">wmtk::Mesh::create</text>
<text text-anchor="middle" x="1424" y="-320.99" font-family="Helvetica,sans-Serif" font-size="10.00">_const_accessor</text>
</a>
</g>
</g>
<!-- Node18&#45;&gt;Node19 -->
<g id="edge20" class="edge">
<title>Node18&#45;&gt;Node19</title>
<path fill="none" stroke="midnightblue" d="M1297.06,-313.09C1316.51,-315.54 1337.9,-318.24 1357.45,-320.71"/>
<polygon fill="midnightblue" stroke="midnightblue" points="1357.12,-324.2 1367.48,-321.98 1358,-317.25 1357.12,-324.2"/>
</g>
<!-- Node20&#45;&gt;Node12 -->
<g id="edge23" class="edge">
<title>Node20&#45;&gt;Node12</title>
<path fill="none" stroke="midnightblue" d="M1297.06,-362.09C1315.96,-364.47 1336.7,-367.09 1355.8,-369.5"/>
<polygon fill="midnightblue" stroke="midnightblue" points="1355.55,-373 1365.91,-370.78 1356.43,-366.06 1355.55,-373"/>
</g>
<!-- Node20&#45;&gt;Node19 -->
<g id="edge22" class="edge">
<title>Node20&#45;&gt;Node19</title>
<path fill="none" stroke="midnightblue" d="M1297.06,-345.56C1316.51,-343.01 1337.9,-340.19 1357.45,-337.62"/>
<polygon fill="midnightblue" stroke="midnightblue" points="1358.02,-341.07 1367.48,-336.3 1357.11,-334.13 1358.02,-341.07"/>
</g>
<!-- Node23 -->
<g id="node23" class="node">
<title>Node23</title>
<g id="a_node23"><a xlink:href="namespacewmtk.html#a6a35f11c12436093d26fdd8be6fecc06" target="_top" xlink:title="Retrieves the current logger.">
<polygon fill="none" stroke="black" points="640.5,-362.49 640.5,-381.49 721.5,-381.49 721.5,-362.49 640.5,-362.49"/>
<text text-anchor="middle" x="681" y="-369.49" font-family="Helvetica,sans-Serif" font-size="10.00">wmtk::logger</text>
</a>
</g>
</g>
<!-- Node22&#45;&gt;Node23 -->
<g id="edge27" class="edge">
<title>Node22&#45;&gt;Node23</title>
<path fill="none" stroke="midnightblue" d="M531.17,-356.33C562.56,-359.63 600.5,-363.63 630.22,-366.75"/>
<polygon fill="midnightblue" stroke="midnightblue" points="630.05,-370.26 640.37,-367.82 630.79,-363.29 630.05,-370.26"/>
</g>
<!-- Node24 -->
<g id="node24" class="node">
<title>Node24</title>
<g id="a_node24"><a xlink:href="namespacewmtk.html#a3daa7951a5f8b78cf4600dc047fcc180" target="_top" xlink:title="Setup a logger object to be used by WildmeshToolkit.">
<polygon fill="none" stroke="black" points="807,-454.49 807,-473.49 908,-473.49 908,-454.49 807,-454.49"/>
<text text-anchor="middle" x="857.5" y="-461.49" font-family="Helvetica,sans-Serif" font-size="10.00">wmtk::set_logger</text>
</a>
</g>
</g>
<!-- Node23&#45;&gt;Node24 -->
<g id="edge28" class="edge">
<title>Node23&#45;&gt;Node24</title>
<path fill="none" stroke="midnightblue" d="M697.2,-381.6C711.5,-390.72 733.44,-404.95 752,-417.99 768.36,-429.49 770.05,-436.17 788,-444.99 792.66,-447.28 797.63,-449.33 802.69,-451.16"/>
<polygon fill="midnightblue" stroke="midnightblue" points="801.89,-454.58 812.48,-454.41 804.09,-447.94 801.89,-454.58"/>
</g>
<!-- Node26 -->
<g id="node26" class="node">
<title>Node26</title>
<g id="a_node26"><a xlink:href="classwmtk_1_1_edge_mesh.html#a46725851b572b51a356450adc30c14ed" target="_top" xlink:title="switch the orientation of the Tuple of the given dimension">
<polygon fill="none" stroke="black" points="612,-205.99 612,-235.99 750,-235.99 750,-205.99 612,-205.99"/>
<text text-anchor="start" x="620" y="-223.99" font-family="Helvetica,sans-Serif" font-size="10.00">wmtk::EdgeMesh::switch</text>
<text text-anchor="middle" x="681" y="-212.99" font-family="Helvetica,sans-Serif" font-size="10.00">_tuple</text>
</a>
</g>
</g>
<!-- Node25&#45;&gt;Node26 -->
<g id="edge31" class="edge">
<title>Node25&#45;&gt;Node26</title>
<path fill="none" stroke="midnightblue" d="M531.17,-244.49C553.22,-241.01 578.51,-237.02 601.91,-233.32"/>
<polygon fill="midnightblue" stroke="midnightblue" points="602.47,-236.78 611.8,-231.76 601.38,-229.86 602.47,-236.78"/>
</g>
<!-- Node26&#45;&gt;Node16 -->
<g id="edge33" class="edge">
<title>Node26&#45;&gt;Node16</title>
<path fill="none" stroke="midnightblue" d="M750.04,-217.37C799.3,-215.63 867.43,-215.04 927,-220.99 938.63,-222.16 950.86,-224 962.75,-226.14"/>
<polygon fill="midnightblue" stroke="midnightblue" points="962.16,-229.59 972.63,-227.99 963.45,-222.71 962.16,-229.59"/>
</g>
<!-- Node26&#45;&gt;Node17 -->
<g id="edge49" class="edge">
<title>Node26&#45;&gt;Node17</title>
<path fill="none" stroke="midnightblue" d="M696.44,-236.13C720.27,-260.8 767.28,-308.05 788,-318.99 818.99,-335.37 906.83,-353.34 969.15,-364.64"/>
<polygon fill="midnightblue" stroke="midnightblue" points="968.84,-368.14 979.31,-366.46 970.08,-361.25 968.84,-368.14"/>
</g>
<!-- Node26&#45;&gt;Node18 -->
<g id="edge38" class="edge">
<title>Node26&#45;&gt;Node18</title>
<path fill="none" stroke="midnightblue" d="M750.32,-207.06C836.85,-192.42 989.34,-176.7 1111,-217.99 1149.8,-231.16 1186.76,-261.61 1209.15,-282.74"/>
<polygon fill="midnightblue" stroke="midnightblue" points="1206.82,-285.36 1216.45,-289.79 1211.69,-280.32 1206.82,-285.36"/>
</g>
<!-- Node27 -->
<g id="node27" class="node">
<title>Node27</title>
<g id="a_node27"><a xlink:href="classwmtk_1_1attribute_1_1_caching_accessor.html#ab7a79d239fdc3d22fbc0c3a83a5c50bc" target="_top" xlink:title=" ">
<polygon fill="none" stroke="black" points="789,-268.49 789,-309.49 926,-309.49 926,-268.49 789,-268.49"/>
<text text-anchor="start" x="797" y="-297.49" font-family="Helvetica,sans-Serif" font-size="10.00">wmtk::attribute::Caching</text>
<text text-anchor="start" x="797" y="-286.49" font-family="Helvetica,sans-Serif" font-size="10.00">Accessor::const_vector</text>
<text text-anchor="middle" x="857.5" y="-275.49" font-family="Helvetica,sans-Serif" font-size="10.00">_attribute</text>
</a>
</g>
</g>
<!-- Node26&#45;&gt;Node27 -->
<g id="edge32" class="edge">
<title>Node26&#45;&gt;Node27</title>
<path fill="none" stroke="midnightblue" d="M720.73,-236.08C742.27,-244.48 769.59,-255.13 794.07,-264.67"/>
<polygon fill="midnightblue" stroke="midnightblue" points="793.06,-268.03 803.65,-268.4 795.61,-261.51 793.06,-268.03"/>
</g>
<!-- Node28 -->
<g id="node28" class="node">
<title>Node28</title>
<g id="a_node28"><a xlink:href="classwmtk_1_1_mesh.html#a4bcf7281ec7f3bdfd506ffc87fc092d3" target="_top" xlink:title=" ">
<polygon fill="none" stroke="black" points="1157.5,-31.49 1157.5,-50.49 1306.5,-50.49 1306.5,-31.49 1157.5,-31.49"/>
<text text-anchor="middle" x="1232" y="-38.49" font-family="Helvetica,sans-Serif" font-size="10.00">wmtk::Mesh::get_cell_hash</text>
</a>
</g>
</g>
<!-- Node26&#45;&gt;Node28 -->
<g id="edge34" class="edge">
<title>Node26&#45;&gt;Node28</title>
<path fill="none" stroke="midnightblue" d="M687,-205.91C698.83,-172.72 731.83,-93.21 788,-53.99 911.97,32.57 1106.65,-6.1 1190.44,-28.75"/>
<polygon fill="midnightblue" stroke="midnightblue" points="1189.52,-32.13 1200.09,-31.42 1191.39,-25.38 1189.52,-32.13"/>
</g>
<!-- Node30 -->
<g id="node30" class="node">
<title>Node30</title>
<g id="a_node30"><a xlink:href="classwmtk_1_1attribute_1_1_accessor.html#a41f40a73a13789707c117bda177dfc83" target="_top" xlink:title=" ">
<polygon fill="none" stroke="black" points="1353,-94.99 1353,-124.99 1495,-124.99 1495,-94.99 1353,-94.99"/>
<text text-anchor="start" x="1361" y="-112.99" font-family="Helvetica,sans-Serif" font-size="10.00">wmtk::attribute::Accessor</text>
<text text-anchor="middle" x="1424" y="-101.99" font-family="Helvetica,sans-Serif" font-size="10.00">::index_access</text>
</a>
</g>
</g>
<!-- Node26&#45;&gt;Node30 -->
<g id="edge41" class="edge">
<title>Node26&#45;&gt;Node30</title>
<path fill="none" stroke="midnightblue" d="M724.09,-205.98C743.36,-199.6 766.61,-192.6 788,-187.99 984.78,-145.64 1221.16,-124.16 1342.47,-115.23"/>
<polygon fill="midnightblue" stroke="midnightblue" points="1343.06,-118.7 1352.78,-114.48 1342.56,-111.71 1343.06,-118.7"/>
</g>
<!-- Node32 -->
<g id="node32" class="node">
<title>Node32</title>
<g id="a_node32"><a xlink:href="classwmtk_1_1_edge_mesh.html#a34530ca80c07ae67ffe601c2b8f22e3e" target="_top" xlink:title=" ">
<polygon fill="none" stroke="black" points="799.5,-230.49 799.5,-249.49 915.5,-249.49 915.5,-230.49 799.5,-230.49"/>
<text text-anchor="middle" x="857.5" y="-237.49" font-family="Helvetica,sans-Serif" font-size="10.00">wmtk::EdgeMesh::id</text>
</a>
</g>
</g>
<!-- Node26&#45;&gt;Node32 -->
<g id="edge39" class="edge">
<title>Node26&#45;&gt;Node32</title>
<path fill="none" stroke="midnightblue" d="M750.22,-228.42C763.04,-229.82 776.44,-231.28 789.23,-232.67"/>
<polygon fill="midnightblue" stroke="midnightblue" points="789.02,-236.17 799.34,-233.77 789.78,-229.21 789.02,-236.17"/>
</g>
<!-- Node33 -->
<g id="node33" class="node">
<title>Node33</title>
<g id="a_node33"><a xlink:href="classwmtk_1_1_edge_mesh.html#a83db0c93833dacdfb169807d8ba4b6ca" target="_top" xlink:title="TODO this needs dimension?">
<polygon fill="none" stroke="black" points="788,-366.49 788,-385.49 927,-385.49 927,-366.49 788,-366.49"/>
<text text-anchor="middle" x="857.5" y="-373.49" font-family="Helvetica,sans-Serif" font-size="10.00">wmtk::EdgeMesh::is_ccw</text>
</a>
</g>
</g>
<!-- Node26&#45;&gt;Node33 -->
<g id="edge42" class="edge">
<title>Node26&#45;&gt;Node33</title>
<path fill="none" stroke="midnightblue" d="M699,-236.06C713.94,-249.79 735.78,-271.06 752,-291.99 771.05,-316.57 763.89,-332.35 788,-351.99 793.06,-356.12 798.89,-359.56 804.95,-362.42"/>
<polygon fill="midnightblue" stroke="midnightblue" points="804.04,-365.83 814.61,-366.46 806.73,-359.37 804.04,-365.83"/>
</g>
<!-- Node34 -->
<g id="node34" class="node">
<title>Node34</title>
<g id="a_node34"><a xlink:href="classwmtk_1_1_edge_mesh.html#a566cd5b0f3adad310bd9818f14c99127" target="_top" xlink:title="check validity of tuple including its hash">
<polygon fill="none" stroke="black" points="800,-63.99 800,-93.99 915,-93.99 915,-63.99 800,-63.99"/>
<text text-anchor="start" x="808" y="-81.99" font-family="Helvetica,sans-Serif" font-size="10.00">wmtk::EdgeMesh::is</text>
<text text-anchor="middle" x="857.5" y="-70.99" font-family="Helvetica,sans-Serif" font-size="10.00">_valid</text>
</a>
</g>
</g>
<!-- Node26&#45;&gt;Node34 -->
<g id="edge44" class="edge">
<title>Node26&#45;&gt;Node34</title>
<path fill="none" stroke="midnightblue" d="M693.17,-205.74C710.98,-182.3 747.92,-137.17 788,-108.99 793.49,-105.13 799.57,-101.6 805.76,-98.43"/>
<polygon fill="midnightblue" stroke="midnightblue" points="807.37,-101.54 814.86,-94.05 804.33,-95.24 807.37,-101.54"/>
</g>
<!-- Node29 -->
<g id="node29" class="node">
<title>Node29</title>
<g id="a_node29"><a xlink:href="classwmtk_1_1attribute_1_1_caching_accessor.html#a196b6b32e2495b971113d552be7f45d9" target="_top" xlink:title=" ">
<polygon fill="none" stroke="black" points="1355.5,-20.49 1355.5,-61.49 1492.5,-61.49 1492.5,-20.49 1355.5,-20.49"/>
<text text-anchor="start" x="1363.5" y="-49.49" font-family="Helvetica,sans-Serif" font-size="10.00">wmtk::attribute::Caching</text>
<text text-anchor="start" x="1363.5" y="-38.49" font-family="Helvetica,sans-Serif" font-size="10.00">Accessor::const_scalar</text>
<text text-anchor="middle" x="1424" y="-27.49" font-family="Helvetica,sans-Serif" font-size="10.00">_attribute</text>
</a>
</g>
</g>
<!-- Node28&#45;&gt;Node29 -->
<g id="edge35" class="edge">
<title>Node28&#45;&gt;Node29</title>
<path fill="none" stroke="midnightblue" d="M1306.73,-40.99C1319.32,-40.99 1332.44,-40.99 1345.14,-40.99"/>
<polygon fill="midnightblue" stroke="midnightblue" points="1345.21,-44.49 1355.21,-40.99 1345.21,-37.49 1345.21,-44.49"/>
</g>
<!-- Node28&#45;&gt;Node30 -->
<g id="edge36" class="edge">
<title>Node28&#45;&gt;Node30</title>
<path fill="none" stroke="midnightblue" d="M1259.42,-50.59C1288.44,-61.13 1335.73,-78.3 1372.02,-91.48"/>
<polygon fill="midnightblue" stroke="midnightblue" points="1370.87,-94.79 1381.47,-94.91 1373.26,-88.21 1370.87,-94.79"/>
</g>
<!-- Node31 -->
<g id="node31" class="node">
<title>Node31</title>
<g id="a_node31"><a xlink:href="classwmtk_1_1attribute_1_1_accessor.html#a9c7d323f50911892c8ea738f97d041d4" target="_top" xlink:title=" ">
<polygon fill="none" stroke="black" points="1531,-94.99 1531,-124.99 1673,-124.99 1673,-94.99 1531,-94.99"/>
<text text-anchor="start" x="1539" y="-112.99" font-family="Helvetica,sans-Serif" font-size="10.00">wmtk::attribute::Accessor</text>
<text text-anchor="middle" x="1602" y="-101.99" font-family="Helvetica,sans-Serif" font-size="10.00">::caching_base_type</text>
</a>
</g>
</g>
<!-- Node30&#45;&gt;Node31 -->
<g id="edge37" class="edge">
<title>Node30&#45;&gt;Node31</title>
<path fill="none" stroke="midnightblue" d="M1495.07,-109.99C1503.54,-109.99 1512.25,-109.99 1520.85,-109.99"/>
<polygon fill="midnightblue" stroke="midnightblue" points="1520.89,-113.49 1530.89,-109.99 1520.89,-106.49 1520.89,-113.49"/>
</g>
<!-- Node32&#45;&gt;Node16 -->
<g id="edge40" class="edge">
<title>Node32&#45;&gt;Node16</title>
<path fill="none" stroke="midnightblue" d="M915.64,-240.96C928.4,-241.17 942.16,-241.41 955.66,-241.64"/>
<polygon fill="midnightblue" stroke="midnightblue" points="955.86,-245.14 965.91,-241.81 955.98,-238.14 955.86,-245.14"/>
</g>
<!-- Node33&#45;&gt;Node17 -->
<g id="edge43" class="edge">
<title>Node33&#45;&gt;Node17</title>
<path fill="none" stroke="midnightblue" d="M927.13,-375.99C935.54,-375.99 944.21,-375.99 952.81,-375.99"/>
<polygon fill="midnightblue" stroke="midnightblue" points="952.85,-379.49 962.85,-375.99 952.85,-372.49 952.85,-379.49"/>
</g>
<!-- Node34&#45;&gt;Node20 -->
<g id="edge45" class="edge">
<title>Node34&#45;&gt;Node20</title>
<path fill="none" stroke="midnightblue" d="M908.51,-94C965.44,-113.58 1057.45,-153.19 1111,-217.99 1144.04,-257.97 1109.88,-292.77 1147,-328.99 1150.27,-332.19 1153.94,-334.98 1157.85,-337.41"/>
<polygon fill="midnightblue" stroke="midnightblue" points="1156.31,-340.56 1166.78,-342.2 1159.62,-334.39 1156.31,-340.56"/>
</g>
<!-- Node35 -->
<g id="node35" class="node">
<title>Node35</title>
<g id="a_node35"><a xlink:href="classwmtk_1_1_mesh.html#aad291410ffabfd61e42d0a813a610805" target="_top" xlink:title=" ">
<polygon fill="none" stroke="black" points="977.5,-25.99 977.5,-55.99 1096.5,-55.99 1096.5,-25.99 977.5,-25.99"/>
<text text-anchor="start" x="985.5" y="-43.99" font-family="Helvetica,sans-Serif" font-size="10.00">wmtk::Mesh::is_hash</text>
<text text-anchor="middle" x="1037" y="-32.99" font-family="Helvetica,sans-Serif" font-size="10.00">_valid</text>
</a>
</g>
</g>
<!-- Node34&#45;&gt;Node35 -->
<g id="edge46" class="edge">
<title>Node34&#45;&gt;Node35</title>
<path fill="none" stroke="midnightblue" d="M915.15,-66.87C931.77,-63.31 950.13,-59.38 967.42,-55.68"/>
<polygon fill="midnightblue" stroke="midnightblue" points="968.4,-59.04 977.45,-53.53 966.93,-52.2 968.4,-59.04"/>
</g>
<!-- Node36 -->
<g id="node36" class="node">
<title>Node36</title>
<g id="a_node36"><a xlink:href="classwmtk_1_1_tuple.html#a0023f575be92cd5ceeeaaaa3762ea06d" target="_top" xlink:title="Checks if a tuple is &quot;null&quot;. This merely implies the global index is &#45;1.">
<polygon fill="none" stroke="black" points="980.5,-75.49 980.5,-94.49 1093.5,-94.49 1093.5,-75.49 980.5,-75.49"/>
<text text-anchor="middle" x="1037" y="-82.49" font-family="Helvetica,sans-Serif" font-size="10.00">wmtk::Tuple::is_null</text>
</a>
</g>
</g>
<!-- Node34&#45;&gt;Node36 -->
<g id="edge48" class="edge">
<title>Node34&#45;&gt;Node36</title>
<path fill="none" stroke="midnightblue" d="M915.15,-80.91C932.7,-81.5 952.19,-82.16 970.31,-82.77"/>
<polygon fill="midnightblue" stroke="midnightblue" points="970.38,-86.28 980.49,-83.12 970.62,-79.28 970.38,-86.28"/>
</g>
<!-- Node35&#45;&gt;Node28 -->
<g id="edge47" class="edge">
<title>Node35&#45;&gt;Node28</title>
<path fill="none" stroke="midnightblue" d="M1096.69,-40.99C1112.49,-40.99 1129.89,-40.99 1146.78,-40.99"/>
<polygon fill="midnightblue" stroke="midnightblue" points="1147.22,-44.49 1157.22,-40.99 1147.22,-37.49 1147.22,-44.49"/>
</g>
</g>
</svg>
        <g id="navigator" transform="translate(0 0)" fill="#404254">
                <rect fill="#f2f5e9" fill-opacity="0.5" stroke="#606060" stroke-width=".5" x="0" y="0" width="60" height="60"/>
                <use id="zoomplus" xlink:href="#zoomPlus" x="17" y="9" onmousedown="handleZoom(evt,'in')"/>
                <use id="zoomminus" xlink:href="#zoomMin" x="42" y="9" onmousedown="handleZoom(evt,'out')"/>
                <use id="reset" xlink:href="#resetDef" x="30" y="36" onmousedown="handleReset()"/>
                <g id="arrowUp" xlink:href="#dirArrow" transform="translate(30 24)" onmousedown="handlePan(0,-1)">
                  <use xlink:href="#rim" fill="#404040">
                        <set attributeName="fill" to="#808080" begin="arrowUp.mouseover" end="arrowUp.mouseout"/>
                  </use>
                  <path fill="none" stroke="white" stroke-width="1.5" d="M0,-3.0v7 M-2.5,-0.5L0,-3.0L2.5,-0.5"/>
                </g>
                <g id="arrowRight" xlink:href="#dirArrow" transform="rotate(90) translate(36 -43)" onmousedown="handlePan(1,0)">
                  <use xlink:href="#rim" fill="#404040">
                        <set attributeName="fill" to="#808080" begin="arrowRight.mouseover" end="arrowRight.mouseout"/>
                  </use>
                  <path fill="none" stroke="white" stroke-width="1.5" d="M0,-3.0v7 M-2.5,-0.5L0,-3.0L2.5,-0.5"/>
                </g>
                <g id="arrowDown" xlink:href="#dirArrow" transform="rotate(180) translate(-30 -48)" onmousedown="handlePan(0,1)">
                  <use xlink:href="#rim" fill="#404040">
                        <set attributeName="fill" to="#808080" begin="arrowDown.mouseover" end="arrowDown.mouseout"/>
                  </use>
                  <path fill="none" stroke="white" stroke-width="1.5" d="M0,-3.0v7 M-2.5,-0.5L0,-3.0L2.5,-0.5"/>
                </g>
                <g id="arrowLeft" xlink:href="#dirArrow" transform="rotate(270) translate(-36 17)" onmousedown="handlePan(-1,0)">
                  <use xlink:href="#rim" fill="#404040">
                        <set attributeName="fill" to="#808080" begin="arrowLeft.mouseover" end="arrowLeft.mouseout"/>
                  </use>
                  <path fill="none" stroke="white" stroke-width="1.5" d="M0,-3.0v7 M-2.5,-0.5L0,-3.0L2.5,-0.5"/>
                </g>
        </g>
        <svg viewBox="0 0 15 15" width="100%" height="30px" preserveAspectRatio="xMaxYMin meet">
         <g id="arrow_out" transform="scale(0.3 0.3)">
          <a xlink:href="namespacewmtk_1_1simplex_abee08ace6632fab4e958282840e65e43_cgraph_org.svg" target="_base">
           <rect id="button" ry="5" rx="5" y="6" x="6" height="38" width="38"
                fill="#f2f5e9" fill-opacity="0.5" stroke="#606060" stroke-width="1.0"/>
           <path id="arrow"
             d="M 11.500037,31.436501 C 11.940474,20.09759 22.043105,11.32322 32.158766,21.979434 L 37.068811,17.246167 C 37.068811,17.246167 37.088388,32 37.088388,32 L 22.160133,31.978069 C 22.160133,31.978069 26.997745,27.140456 26.997745,27.140456 C 18.528582,18.264221 13.291696,25.230495 11.500037,31.436501 z"
             style="fill:#404040;"/>
          </a>
         </g>
        </svg>
</svg>
