<?xml version="1.0" encoding="UTF-8" standalone="no"?>
<!DOCTYPE svg PUBLIC "-//W3C//DTD SVG 1.1//EN"
 "http://www.w3.org/Graphics/SVG/1.1/DTD/svg11.dtd">
<!-- Generated by graphviz version 2.43.0 (0)
 -->
<!-- Title: wmtk::simplex::link_condition Pages: 1 -->
<!--zoomable 500 -->
<svg id="main" version="1.1" xmlns="http://www.w3.org/2000/svg" xmlns:xlink="http://www.w3.org/1999/xlink" xml:space="preserve" onload="init(evt)">
<style type="text/css"><![CDATA[
.edge:hover path { stroke: red; }
.edge:hover polygon { stroke: red; fill: red; }
]]></style>
<script type="text/javascript"><![CDATA[
var edges = document.getElementsByTagName('g');
if (edges && edges.length) {
  for (var i=0;i<edges.length;i++) {
    if (edges[i].id.substr(0,4)=='edge') {
      edges[i].setAttribute('class','edge');
    }
  }
}
]]></script>
        <defs>
                <circle id="rim" cx="0" cy="0" r="7"/>
                <circle id="rim2" cx="0" cy="0" r="3.5"/>
                <g id="zoomPlus">
                        <use xlink:href="#rim" fill="#404040">
                                <set attributeName="fill" to="#808080" begin="zoomplus.mouseover" end="zoomplus.mouseout"/>
                        </use>
                        <path d="M-4,0h8M0,-4v8" fill="none" stroke="white" stroke-width="1.5" pointer-events="none"/>
                </g>
                <g id="zoomMin">
                        <use xlink:href="#rim" fill="#404040">
                                <set attributeName="fill" to="#808080" begin="zoomminus.mouseover" end="zoomminus.mouseout"/>
                        </use>
                        <path d="M-4,0h8" fill="none" stroke="white" stroke-width="1.5" pointer-events="none"/>
                </g>
                <g id="dirArrow">
                        <path fill="none" stroke="white" stroke-width="1.5" d="M0,-3.0v7 M-2.5,-0.5L0,-3.0L2.5,-0.5"/>
                </g>
               <g id="resetDef">
                       <use xlink:href="#rim2" fill="#404040">
                               <set attributeName="fill" to="#808080" begin="reset.mouseover" end="reset.mouseout"/>
                       </use>
               </g>
        </defs>

<script type="text/javascript">
var viewWidth = 1421;
var viewHeight = 500;
var sectionId = 'dynsection-31';
</script>
<script xlink:href="svgpan.js"/>
<svg id="graph" class="graph">
<g id="viewport">
<title>wmtk::simplex::link_condition</title>
<!-- Node1 -->
<g id="node1" class="node">
<title>Node1</title>
<g id="a_node1"><a xlink:title=" ">
<polygon fill="#bfbfbf" stroke="black" points="0,-397.1 0,-427.1 113,-427.1 113,-397.1 0,-397.1"/>
<text text-anchor="start" x="8" y="-415.1" font-family="Helvetica,sans-Serif" font-size="10.00">wmtk::simplex::link</text>
<text text-anchor="middle" x="56.5" y="-404.1" font-family="Helvetica,sans-Serif" font-size="10.00">_condition</text>
</a>
</g>
</g>
<!-- Node2 -->
<g id="node2" class="node">
<title>Node2</title>
<g id="a_node2"><a xlink:href="namespacewmtk_1_1utils_1_1metaprogramming.html#a960863b4ff77683286c7b21062aeab8d" target="_top" xlink:title=" ">
<polygon fill="none" stroke="black" points="149,-422.1 149,-452.1 318,-452.1 318,-422.1 149,-422.1"/>
<text text-anchor="start" x="157" y="-440.1" font-family="Helvetica,sans-Serif" font-size="10.00">wmtk::utils::metaprogramming</text>
<text text-anchor="middle" x="233.5" y="-429.1" font-family="Helvetica,sans-Serif" font-size="10.00">::as_const_mesh_variant</text>
</a>
</g>
</g>
<!-- Node1&#45;&gt;Node2 -->
<g id="edge1" class="edge">
<title>Node1&#45;&gt;Node2</title>
<path fill="none" stroke="midnightblue" d="M113.35,-420.08C121.48,-421.24 130.02,-422.46 138.65,-423.69"/>
<polygon fill="midnightblue" stroke="midnightblue" points="138.4,-427.19 148.8,-425.14 139.39,-420.26 138.4,-427.19"/>
</g>
<!-- Node3 -->
<g id="node3" class="node">
<title>Node3</title>
<g id="a_node3"><a xlink:href="namespacewmtk_1_1simplex.html#a0ca1602c328b51a103411fcac3d70ebe" target="_top" xlink:title="Check if the edge to collapse satisfying the link condition.">
<polygon fill="none" stroke="black" points="177,-373.1 177,-403.1 290,-403.1 290,-373.1 177,-373.1"/>
<text text-anchor="start" x="185" y="-391.1" font-family="Helvetica,sans-Serif" font-size="10.00">wmtk::simplex::link</text>
<text text-anchor="middle" x="233.5" y="-380.1" font-family="Helvetica,sans-Serif" font-size="10.00">_condition</text>
</a>
</g>
</g>
<!-- Node1&#45;&gt;Node3 -->
<g id="edge2" class="edge">
<title>Node1&#45;&gt;Node3</title>
<path fill="none" stroke="midnightblue" d="M113.35,-404.44C130.33,-402.11 149.14,-399.53 166.7,-397.12"/>
<polygon fill="midnightblue" stroke="midnightblue" points="167.45,-400.55 176.88,-395.73 166.5,-393.62 167.45,-400.55"/>
</g>
<!-- Node4 -->
<g id="node4" class="node">
<title>Node4</title>
<g id="a_node4"><a xlink:href="classwmtk_1_1simplex_1_1utils_1_1_simplex_comparisons.html#a855a7009bb50500e9b336a05d424b34d" target="_top" xlink:title=" ">
<polygon fill="none" stroke="black" points="360,-416.6 360,-457.6 486,-457.6 486,-416.6 360,-416.6"/>
<text text-anchor="start" x="368" y="-445.6" font-family="Helvetica,sans-Serif" font-size="10.00">wmtk::simplex::utils</text>
<text text-anchor="start" x="368" y="-434.6" font-family="Helvetica,sans-Serif" font-size="10.00">::SimplexComparisons</text>
<text text-anchor="middle" x="423" y="-423.6" font-family="Helvetica,sans-Serif" font-size="10.00">::equal</text>
</a>
</g>
</g>
<!-- Node3&#45;&gt;Node4 -->
<g id="edge3" class="edge">
<title>Node3&#45;&gt;Node4</title>
<path fill="none" stroke="midnightblue" d="M290.25,-402.67C308.99,-407.57 330.18,-413.1 350,-418.28"/>
<polygon fill="midnightblue" stroke="midnightblue" points="349.34,-421.73 359.9,-420.87 351.11,-414.96 349.34,-421.73"/>
</g>
<!-- Node5 -->
<g id="node5" class="node">
<title>Node5</title>
<g id="a_node5"><a xlink:href="classwmtk_1_1_edge_mesh.html#a534952cf2729f1509a380e3e9afb65b7" target="_top" xlink:title=" ">
<polygon fill="none" stroke="black" points="540,-432.1 540,-462.1 655,-462.1 655,-432.1 540,-432.1"/>
<text text-anchor="start" x="548" y="-450.1" font-family="Helvetica,sans-Serif" font-size="10.00">wmtk::EdgeMesh::is</text>
<text text-anchor="middle" x="597.5" y="-439.1" font-family="Helvetica,sans-Serif" font-size="10.00">_boundary_vertex</text>
</a>
</g>
</g>
<!-- Node3&#45;&gt;Node5 -->
<g id="edge4" class="edge">
<title>Node3&#45;&gt;Node5</title>
<path fill="none" stroke="midnightblue" d="M290.03,-387.1C342.72,-387.34 423.76,-390.82 492,-407.1 508.86,-411.12 511.85,-415.79 528,-422.1 533.44,-424.22 539.14,-426.39 544.84,-428.52"/>
<polygon fill="midnightblue" stroke="midnightblue" points="543.77,-431.86 554.37,-432.06 546.21,-425.3 543.77,-431.86"/>
</g>
<!-- Node15 -->
<g id="node15" class="node">
<title>Node15</title>
<g id="a_node15"><a xlink:href="classwmtk_1_1_edge_mesh.html#a46725851b572b51a356450adc30c14ed" target="_top" xlink:title="switch the orientation of the Tuple of the given dimension">
<polygon fill="none" stroke="black" points="354,-271.1 354,-301.1 492,-301.1 492,-271.1 354,-271.1"/>
<text text-anchor="start" x="362" y="-289.1" font-family="Helvetica,sans-Serif" font-size="10.00">wmtk::EdgeMesh::switch</text>
<text text-anchor="middle" x="423" y="-278.1" font-family="Helvetica,sans-Serif" font-size="10.00">_tuple</text>
</a>
</g>
</g>
<!-- Node3&#45;&gt;Node15 -->
<g id="edge15" class="edge">
<title>Node3&#45;&gt;Node15</title>
<path fill="none" stroke="midnightblue" d="M262.17,-373.05C294.71,-355.35 348.86,-325.88 384.99,-306.23"/>
<polygon fill="midnightblue" stroke="midnightblue" points="387.11,-309.06 394.22,-301.21 383.76,-302.91 387.11,-309.06"/>
</g>
<!-- Node6 -->
<g id="node6" class="node">
<title>Node6</title>
<g id="a_node6"><a xlink:href="classwmtk_1_1attribute_1_1_accessor.html#acbfbd5a98532cf295fdf6dd64066bb26" target="_top" xlink:title=" ">
<polygon fill="none" stroke="black" points="706,-432.1 706,-462.1 848,-462.1 848,-432.1 706,-432.1"/>
<text text-anchor="start" x="714" y="-450.1" font-family="Helvetica,sans-Serif" font-size="10.00">wmtk::attribute::Accessor</text>
<text text-anchor="middle" x="777" y="-439.1" font-family="Helvetica,sans-Serif" font-size="10.00">::const_vector_attribute</text>
</a>
</g>
</g>
<!-- Node5&#45;&gt;Node6 -->
<g id="edge5" class="edge">
<title>Node5&#45;&gt;Node6</title>
<path fill="none" stroke="midnightblue" d="M655.15,-447.1C668.01,-447.1 681.9,-447.1 695.53,-447.1"/>
<polygon fill="midnightblue" stroke="midnightblue" points="695.88,-450.6 705.88,-447.1 695.88,-443.6 695.88,-450.6"/>
</g>
<!-- Node7 -->
<g id="node7" class="node">
<title>Node7</title>
<g id="a_node7"><a xlink:href="classwmtk_1_1_mesh.html#abbb1c54cfd6ec17f4730317ee5fab78d" target="_top" xlink:title=" ">
<polygon fill="none" stroke="black" points="703,-286.6 703,-305.6 851,-305.6 851,-286.6 703,-286.6"/>
<text text-anchor="middle" x="777" y="-293.6" font-family="Helvetica,sans-Serif" font-size="10.00">wmtk::Mesh::is_valid_slow</text>
</a>
</g>
</g>
<!-- Node5&#45;&gt;Node7 -->
<g id="edge6" class="edge">
<title>Node5&#45;&gt;Node7</title>
<path fill="none" stroke="midnightblue" d="M648.99,-432.06C655.3,-429.21 661.48,-425.91 667,-422.1 710.24,-392.28 746.98,-341.36 764.69,-314.29"/>
<polygon fill="midnightblue" stroke="midnightblue" points="767.69,-316.09 770.13,-305.78 761.79,-312.31 767.69,-316.09"/>
</g>
<!-- Node8 -->
<g id="node8" class="node">
<title>Node8</title>
<g id="a_node8"><a xlink:href="classwmtk_1_1_mesh.html#adf199d6a3ce6badd8bfa0e2ab3a1c1aa" target="_top" xlink:title=" ">
<polygon fill="none" stroke="black" points="907,-235.1 907,-265.1 1037,-265.1 1037,-235.1 907,-235.1"/>
<text text-anchor="start" x="915" y="-253.1" font-family="Helvetica,sans-Serif" font-size="10.00">wmtk::Mesh::get_const</text>
<text text-anchor="middle" x="972" y="-242.1" font-family="Helvetica,sans-Serif" font-size="10.00">_cell_hash_accessor</text>
</a>
</g>
</g>
<!-- Node7&#45;&gt;Node8 -->
<g id="edge7" class="edge">
<title>Node7&#45;&gt;Node8</title>
<path fill="none" stroke="midnightblue" d="M817.99,-286.57C841.1,-281.06 870.88,-273.96 898.02,-267.49"/>
<polygon fill="midnightblue" stroke="midnightblue" points="898.97,-270.86 907.89,-265.14 897.35,-264.05 898.97,-270.86"/>
</g>
<!-- Node10 -->
<g id="node10" class="node">
<title>Node10</title>
<g id="a_node10"><a xlink:href="classwmtk_1_1_mesh.html#a6dbab927a2ee85f77a87f075fd5c1d94" target="_top" xlink:title=" ">
<polygon fill="none" stroke="black" points="907,-186.1 907,-216.1 1037,-216.1 1037,-186.1 907,-186.1"/>
<text text-anchor="start" x="915" y="-204.1" font-family="Helvetica,sans-Serif" font-size="10.00">wmtk::Mesh::get_const</text>
<text text-anchor="middle" x="972" y="-193.1" font-family="Helvetica,sans-Serif" font-size="10.00">_flag_accessor</text>
</a>
</g>
</g>
<!-- Node7&#45;&gt;Node10 -->
<g id="edge9" class="edge">
<title>Node7&#45;&gt;Node10</title>
<path fill="none" stroke="midnightblue" d="M790.04,-286.5C809.42,-271.47 849.19,-242.34 887,-225.1 891.34,-223.12 895.89,-221.26 900.52,-219.53"/>
<polygon fill="midnightblue" stroke="midnightblue" points="901.84,-222.77 910.11,-216.15 899.51,-216.17 901.84,-222.77"/>
</g>
<!-- Node12 -->
<g id="node12" class="node">
<title>Node12</title>
<g id="a_node12"><a xlink:href="classwmtk_1_1_mesh.html#a918c509096fc08691924c05c6143b9c3" target="_top" xlink:title="check validity of tuple including its hash">
<polygon fill="none" stroke="black" points="912,-324.6 912,-343.6 1032,-343.6 1032,-324.6 912,-324.6"/>
<text text-anchor="middle" x="972" y="-331.6" font-family="Helvetica,sans-Serif" font-size="10.00">wmtk::Mesh::is_valid</text>
</a>
</g>
</g>
<!-- Node7&#45;&gt;Node12 -->
<g id="edge12" class="edge">
<title>Node7&#45;&gt;Node12</title>
<path fill="none" stroke="midnightblue" d="M826.7,-305.69C852.86,-310.84 885.28,-317.22 912.77,-322.63"/>
<polygon fill="midnightblue" stroke="midnightblue" points="912.16,-326.08 922.65,-324.58 913.51,-319.21 912.16,-326.08"/>
</g>
<!-- Node13 -->
<g id="node13" class="node">
<title>Node13</title>
<g id="a_node13"><a xlink:href="classwmtk_1_1_mesh.html#abaf00438d0700358b160e310d69725c9" target="_top" xlink:title=" ">
<polygon fill="none" stroke="black" points="887,-286.6 887,-305.6 1057,-305.6 1057,-286.6 887,-286.6"/>
<text text-anchor="middle" x="972" y="-293.6" font-family="Helvetica,sans-Serif" font-size="10.00">wmtk::Mesh::top_simplex_type</text>
</a>
</g>
</g>
<!-- Node7&#45;&gt;Node13 -->
<g id="edge13" class="edge">
<title>Node7&#45;&gt;Node13</title>
<path fill="none" stroke="midnightblue" d="M851.24,-296.1C859.59,-296.1 868.2,-296.1 876.77,-296.1"/>
<polygon fill="midnightblue" stroke="midnightblue" points="876.82,-299.6 886.82,-296.1 876.82,-292.6 876.82,-299.6"/>
</g>
<!-- Node9 -->
<g id="node9" class="node">
<title>Node9</title>
<g id="a_node9"><a xlink:href="classwmtk_1_1_mesh.html#a4a20dcdac339e7a4f6f8a6570114cbe6" target="_top" xlink:title=" ">
<polygon fill="none" stroke="black" points="1107.5,-234.1 1107.5,-264.1 1220.5,-264.1 1220.5,-234.1 1107.5,-234.1"/>
<text text-anchor="start" x="1115.5" y="-252.1" font-family="Helvetica,sans-Serif" font-size="10.00">wmtk::Mesh::create</text>
<text text-anchor="middle" x="1164" y="-241.1" font-family="Helvetica,sans-Serif" font-size="10.00">_const_accessor</text>
</a>
</g>
</g>
<!-- Node8&#45;&gt;Node9 -->
<g id="edge8" class="edge">
<title>Node8&#45;&gt;Node9</title>
<path fill="none" stroke="midnightblue" d="M1037.06,-249.76C1056.51,-249.66 1077.9,-249.55 1097.45,-249.44"/>
<polygon fill="midnightblue" stroke="midnightblue" points="1097.5,-252.94 1107.48,-249.39 1097.46,-245.94 1097.5,-252.94"/>
</g>
<!-- Node10&#45;&gt;Node9 -->
<g id="edge10" class="edge">
<title>Node10&#45;&gt;Node9</title>
<path fill="none" stroke="midnightblue" d="M1032.6,-216.15C1053.27,-221.38 1076.54,-227.26 1097.65,-232.59"/>
<polygon fill="midnightblue" stroke="midnightblue" points="1096.94,-236.02 1107.5,-235.08 1098.66,-229.23 1096.94,-236.02"/>
</g>
<!-- Node11 -->
<g id="node11" class="node">
<title>Node11</title>
<g id="a_node11"><a xlink:href="namespacewmtk.html#a5cf45c152e856196bb734c6f48919a24" target="_top" xlink:title="Get a unique integer id corresponding to each primitive type.">
<polygon fill="none" stroke="black" points="1106,-185.1 1106,-215.1 1222,-215.1 1222,-185.1 1106,-185.1"/>
<text text-anchor="start" x="1114" y="-203.1" font-family="Helvetica,sans-Serif" font-size="10.00">wmtk::get_primitive</text>
<text text-anchor="middle" x="1164" y="-192.1" font-family="Helvetica,sans-Serif" font-size="10.00">_type_id</text>
</a>
</g>
</g>
<!-- Node10&#45;&gt;Node11 -->
<g id="edge11" class="edge">
<title>Node10&#45;&gt;Node11</title>
<path fill="none" stroke="midnightblue" d="M1037.06,-200.76C1055.96,-200.66 1076.7,-200.55 1095.8,-200.45"/>
<polygon fill="midnightblue" stroke="midnightblue" points="1095.93,-203.95 1105.91,-200.4 1095.89,-196.95 1095.93,-203.95"/>
</g>
<!-- Node14 -->
<g id="node14" class="node">
<title>Node14</title>
<g id="a_node14"><a xlink:href="classwmtk_1_1_mesh.html#a933f681cf24a63b155c9462280385200" target="_top" xlink:title=" ">
<polygon fill="none" stroke="black" points="1103.5,-283.1 1103.5,-313.1 1224.5,-313.1 1224.5,-283.1 1103.5,-283.1"/>
<text text-anchor="start" x="1111.5" y="-301.1" font-family="Helvetica,sans-Serif" font-size="10.00">wmtk::Mesh::top_cell</text>
<text text-anchor="middle" x="1164" y="-290.1" font-family="Helvetica,sans-Serif" font-size="10.00">_dimension</text>
</a>
</g>
</g>
<!-- Node13&#45;&gt;Node14 -->
<g id="edge14" class="edge">
<title>Node13&#45;&gt;Node14</title>
<path fill="none" stroke="midnightblue" d="M1057.17,-296.98C1069.22,-297.11 1081.51,-297.24 1093.24,-297.36"/>
<polygon fill="midnightblue" stroke="midnightblue" points="1093.36,-300.87 1103.39,-297.47 1093.43,-293.87 1093.36,-300.87"/>
</g>
<!-- Node15&#45;&gt;Node6 -->
<g id="edge17" class="edge">
<title>Node15&#45;&gt;Node6</title>
<path fill="none" stroke="midnightblue" d="M432.62,-301.36C445.56,-324.29 470.75,-369.01 492,-407.1 508.09,-435.94 499.55,-455.33 528,-472.1 591.75,-509.66 680.97,-485.9 733.2,-465.97"/>
<polygon fill="midnightblue" stroke="midnightblue" points="734.8,-469.1 742.82,-462.18 732.24,-462.59 734.8,-469.1"/>
</g>
<!-- Node15&#45;&gt;Node7 -->
<g id="edge33" class="edge">
<title>Node15&#45;&gt;Node7</title>
<path fill="none" stroke="midnightblue" d="M492.29,-288.04C549.58,-289.67 631.61,-292 692.74,-293.73"/>
<polygon fill="midnightblue" stroke="midnightblue" points="692.65,-297.23 702.75,-294.02 692.85,-290.23 692.65,-297.23"/>
</g>
<!-- Node15&#45;&gt;Node8 -->
<g id="edge22" class="edge">
<title>Node15&#45;&gt;Node8</title>
<path fill="none" stroke="midnightblue" d="M456.44,-270.9C476.55,-262.33 503.2,-252.49 528,-248.1 656.03,-225.44 808.16,-233.58 896.72,-241.72"/>
<polygon fill="midnightblue" stroke="midnightblue" points="896.65,-245.23 906.93,-242.69 897.31,-238.26 896.65,-245.23"/>
</g>
<!-- Node16 -->
<g id="node16" class="node">
<title>Node16</title>
<g id="a_node16"><a xlink:href="classwmtk_1_1attribute_1_1_caching_accessor.html#ab7a79d239fdc3d22fbc0c3a83a5c50bc" target="_top" xlink:title=" ">
<polygon fill="none" stroke="black" points="529,-333.6 529,-374.6 666,-374.6 666,-333.6 529,-333.6"/>
<text text-anchor="start" x="537" y="-362.6" font-family="Helvetica,sans-Serif" font-size="10.00">wmtk::attribute::Caching</text>
<text text-anchor="start" x="537" y="-351.6" font-family="Helvetica,sans-Serif" font-size="10.00">Accessor::const_vector</text>
<text text-anchor="middle" x="597.5" y="-340.6" font-family="Helvetica,sans-Serif" font-size="10.00">_attribute</text>
</a>
</g>
</g>
<!-- Node15&#45;&gt;Node16 -->
<g id="edge16" class="edge">
<title>Node15&#45;&gt;Node16</title>
<path fill="none" stroke="midnightblue" d="M462.28,-301.19C483.58,-309.58 510.59,-320.23 534.79,-329.77"/>
<polygon fill="midnightblue" stroke="midnightblue" points="533.67,-333.09 544.26,-333.5 536.24,-326.58 533.67,-333.09"/>
</g>
<!-- Node17 -->
<g id="node17" class="node">
<title>Node17</title>
<g id="a_node17"><a xlink:href="classwmtk_1_1_mesh.html#a4bcf7281ec7f3bdfd506ffc87fc092d3" target="_top" xlink:title=" ">
<polygon fill="none" stroke="black" points="897.5,-74.6 897.5,-93.6 1046.5,-93.6 1046.5,-74.6 897.5,-74.6"/>
<text text-anchor="middle" x="972" y="-81.6" font-family="Helvetica,sans-Serif" font-size="10.00">wmtk::Mesh::get_cell_hash</text>
</a>
</g>
</g>
<!-- Node15&#45;&gt;Node17 -->
<g id="edge18" class="edge">
<title>Node15&#45;&gt;Node17</title>
<path fill="none" stroke="midnightblue" d="M431.1,-270.92C445.32,-242.16 480.11,-179.59 528,-146.1 634.68,-71.48 791.61,-68 887.23,-74.49"/>
<polygon fill="midnightblue" stroke="midnightblue" points="887.21,-78 897.44,-75.24 887.72,-71.02 887.21,-78"/>
</g>
<!-- Node19 -->
<g id="node19" class="node">
<title>Node19</title>
<g id="a_node19"><a xlink:href="classwmtk_1_1attribute_1_1_accessor.html#a41f40a73a13789707c117bda177dfc83" target="_top" xlink:title=" ">
<polygon fill="none" stroke="black" points="1093,-22.1 1093,-52.1 1235,-52.1 1235,-22.1 1093,-22.1"/>
<text text-anchor="start" x="1101" y="-40.1" font-family="Helvetica,sans-Serif" font-size="10.00">wmtk::attribute::Accessor</text>
<text text-anchor="middle" x="1164" y="-29.1" font-family="Helvetica,sans-Serif" font-size="10.00">::index_access</text>
</a>
</g>
</g>
<!-- Node15&#45;&gt;Node19 -->
<g id="edge25" class="edge">
<title>Node15&#45;&gt;Node19</title>
<path fill="none" stroke="midnightblue" d="M426.76,-271.08C434.69,-232.74 461.35,-131.11 528,-86.1 698.17,28.84 955.64,2.8 1084.18,-20.16"/>
<polygon fill="midnightblue" stroke="midnightblue" points="1083.87,-23.66 1094.33,-22.02 1085.13,-16.78 1083.87,-23.66"/>
</g>
<!-- Node21 -->
<g id="node21" class="node">
<title>Node21</title>
<g id="a_node21"><a xlink:href="classwmtk_1_1_edge_mesh.html#a34530ca80c07ae67ffe601c2b8f22e3e" target="_top" xlink:title=" ">
<polygon fill="none" stroke="black" points="539.5,-393.6 539.5,-412.6 655.5,-412.6 655.5,-393.6 539.5,-393.6"/>
<text text-anchor="middle" x="597.5" y="-400.6" font-family="Helvetica,sans-Serif" font-size="10.00">wmtk::EdgeMesh::id</text>
</a>
</g>
</g>
<!-- Node15&#45;&gt;Node21 -->
<g id="edge23" class="edge">
<title>Node15&#45;&gt;Node21</title>
<path fill="none" stroke="midnightblue" d="M436.07,-301.45C453.88,-323.07 489.31,-362.3 528,-384.1 531.92,-386.3 536.1,-388.27 540.41,-390.01"/>
<polygon fill="midnightblue" stroke="midnightblue" points="539.36,-393.36 549.95,-393.49 541.76,-386.78 539.36,-393.36"/>
</g>
<!-- Node22 -->
<g id="node22" class="node">
<title>Node22</title>
<g id="a_node22"><a xlink:href="classwmtk_1_1_edge_mesh.html#a83db0c93833dacdfb169807d8ba4b6ca" target="_top" xlink:title="TODO this needs dimension?">
<polygon fill="none" stroke="black" points="528,-257.6 528,-276.6 667,-276.6 667,-257.6 528,-257.6"/>
<text text-anchor="middle" x="597.5" y="-264.6" font-family="Helvetica,sans-Serif" font-size="10.00">wmtk::EdgeMesh::is_ccw</text>
</a>
</g>
</g>
<!-- Node15&#45;&gt;Node22 -->
<g id="edge26" class="edge">
<title>Node15&#45;&gt;Node22</title>
<path fill="none" stroke="midnightblue" d="M492.18,-278.59C500.64,-277.66 509.34,-276.7 517.94,-275.75"/>
<polygon fill="midnightblue" stroke="midnightblue" points="518.41,-279.22 527.97,-274.65 517.65,-272.26 518.41,-279.22"/>
</g>
<!-- Node23 -->
<g id="node23" class="node">
<title>Node23</title>
<g id="a_node23"><a xlink:href="classwmtk_1_1_edge_mesh.html#a566cd5b0f3adad310bd9818f14c99127" target="_top" xlink:title="check validity of tuple including its hash">
<polygon fill="none" stroke="black" points="540,-156.1 540,-186.1 655,-186.1 655,-156.1 540,-156.1"/>
<text text-anchor="start" x="548" y="-174.1" font-family="Helvetica,sans-Serif" font-size="10.00">wmtk::EdgeMesh::is</text>
<text text-anchor="middle" x="597.5" y="-163.1" font-family="Helvetica,sans-Serif" font-size="10.00">_valid</text>
</a>
</g>
</g>
<!-- Node15&#45;&gt;Node23 -->
<g id="edge28" class="edge">
<title>Node15&#45;&gt;Node23</title>
<path fill="none" stroke="midnightblue" d="M445.79,-270.96C466.75,-256.46 499.38,-234.05 528,-215.1 539.74,-207.32 552.71,-198.94 564.18,-191.59"/>
<polygon fill="midnightblue" stroke="midnightblue" points="566.07,-194.54 572.62,-186.21 562.31,-188.64 566.07,-194.54"/>
</g>
<!-- Node18 -->
<g id="node18" class="node">
<title>Node18</title>
<g id="a_node18"><a xlink:href="classwmtk_1_1attribute_1_1_caching_accessor.html#a196b6b32e2495b971113d552be7f45d9" target="_top" xlink:title=" ">
<polygon fill="none" stroke="black" points="1095.5,-71.6 1095.5,-112.6 1232.5,-112.6 1232.5,-71.6 1095.5,-71.6"/>
<text text-anchor="start" x="1103.5" y="-100.6" font-family="Helvetica,sans-Serif" font-size="10.00">wmtk::attribute::Caching</text>
<text text-anchor="start" x="1103.5" y="-89.6" font-family="Helvetica,sans-Serif" font-size="10.00">Accessor::const_scalar</text>
<text text-anchor="middle" x="1164" y="-78.6" font-family="Helvetica,sans-Serif" font-size="10.00">_attribute</text>
</a>
</g>
</g>
<!-- Node17&#45;&gt;Node18 -->
<g id="edge19" class="edge">
<title>Node17&#45;&gt;Node18</title>
<path fill="none" stroke="midnightblue" d="M1046.73,-87.2C1059.32,-87.73 1072.44,-88.29 1085.14,-88.82"/>
<polygon fill="midnightblue" stroke="midnightblue" points="1085.07,-92.32 1095.21,-89.24 1085.37,-85.33 1085.07,-92.32"/>
</g>
<!-- Node17&#45;&gt;Node19 -->
<g id="edge20" class="edge">
<title>Node17&#45;&gt;Node19</title>
<path fill="none" stroke="midnightblue" d="M1011.45,-74.59C1034.63,-68.85 1064.87,-61.37 1092.23,-54.6"/>
<polygon fill="midnightblue" stroke="midnightblue" points="1093.3,-57.95 1102.16,-52.15 1091.62,-51.15 1093.3,-57.95"/>
</g>
<!-- Node20 -->
<g id="node20" class="node">
<title>Node20</title>
<g id="a_node20"><a xlink:href="classwmtk_1_1attribute_1_1_accessor.html#a9c7d323f50911892c8ea738f97d041d4" target="_top" xlink:title=" ">
<polygon fill="none" stroke="black" points="1271,-22.1 1271,-52.1 1413,-52.1 1413,-22.1 1271,-22.1"/>
<text text-anchor="start" x="1279" y="-40.1" font-family="Helvetica,sans-Serif" font-size="10.00">wmtk::attribute::Accessor</text>
<text text-anchor="middle" x="1342" y="-29.1" font-family="Helvetica,sans-Serif" font-size="10.00">::caching_base_type</text>
</a>
</g>
</g>
<!-- Node19&#45;&gt;Node20 -->
<g id="edge21" class="edge">
<title>Node19&#45;&gt;Node20</title>
<path fill="none" stroke="midnightblue" d="M1235.07,-37.1C1243.54,-37.1 1252.25,-37.1 1260.85,-37.1"/>
<polygon fill="midnightblue" stroke="midnightblue" points="1260.89,-40.6 1270.89,-37.1 1260.89,-33.6 1260.89,-40.6"/>
</g>
<!-- Node21&#45;&gt;Node6 -->
<g id="edge24" class="edge">
<title>Node21&#45;&gt;Node6</title>
<path fill="none" stroke="midnightblue" d="M637.01,-412.65C657,-417.6 682.05,-423.81 705.36,-429.59"/>
<polygon fill="midnightblue" stroke="midnightblue" points="704.68,-433.02 715.22,-432.03 706.36,-426.23 704.68,-433.02"/>
</g>
<!-- Node22&#45;&gt;Node7 -->
<g id="edge27" class="edge">
<title>Node22&#45;&gt;Node7</title>
<path fill="none" stroke="midnightblue" d="M657.11,-276.67C673.25,-279.31 690.9,-282.19 707.54,-284.91"/>
<polygon fill="midnightblue" stroke="midnightblue" points="707.32,-288.42 717.75,-286.58 708.45,-281.52 707.32,-288.42"/>
</g>
<!-- Node23&#45;&gt;Node10 -->
<g id="edge29" class="edge">
<title>Node23&#45;&gt;Node10</title>
<path fill="none" stroke="midnightblue" d="M655.16,-176.74C670.66,-178.22 687.47,-179.78 703,-181.1 768.4,-186.67 842.86,-192.16 896.66,-195.97"/>
<polygon fill="midnightblue" stroke="midnightblue" points="896.58,-199.47 906.8,-196.69 897.07,-192.49 896.58,-199.47"/>
</g>
<!-- Node24 -->
<g id="node24" class="node">
<title>Node24</title>
<g id="a_node24"><a xlink:href="classwmtk_1_1_mesh.html#aad291410ffabfd61e42d0a813a610805" target="_top" xlink:title=" ">
<polygon fill="none" stroke="black" points="717.5,-142.1 717.5,-172.1 836.5,-172.1 836.5,-142.1 717.5,-142.1"/>
<text text-anchor="start" x="725.5" y="-160.1" font-family="Helvetica,sans-Serif" font-size="10.00">wmtk::Mesh::is_hash</text>
<text text-anchor="middle" x="777" y="-149.1" font-family="Helvetica,sans-Serif" font-size="10.00">_valid</text>
</a>
</g>
</g>
<!-- Node23&#45;&gt;Node24 -->
<g id="edge30" class="edge">
<title>Node23&#45;&gt;Node24</title>
<path fill="none" stroke="midnightblue" d="M655.15,-166.63C671.77,-165.32 690.13,-163.87 707.42,-162.51"/>
<polygon fill="midnightblue" stroke="midnightblue" points="707.75,-165.99 717.45,-161.72 707.2,-159.01 707.75,-165.99"/>
</g>
<!-- Node25 -->
<g id="node25" class="node">
<title>Node25</title>
<g id="a_node25"><a xlink:href="classwmtk_1_1_tuple.html#a0023f575be92cd5ceeeaaaa3762ea06d" target="_top" xlink:title="Checks if a tuple is &quot;null&quot;. This merely implies the global index is &#45;1.">
<polygon fill="none" stroke="black" points="720.5,-103.6 720.5,-122.6 833.5,-122.6 833.5,-103.6 720.5,-103.6"/>
<text text-anchor="middle" x="777" y="-110.6" font-family="Helvetica,sans-Serif" font-size="10.00">wmtk::Tuple::is_null</text>
</a>
</g>
</g>
<!-- Node23&#45;&gt;Node25 -->
<g id="edge32" class="edge">
<title>Node23&#45;&gt;Node25</title>
<path fill="none" stroke="midnightblue" d="M635.9,-156.08C655.68,-148.4 680.47,-139.21 703,-132.1 710.55,-129.71 718.61,-127.4 726.51,-125.25"/>
<polygon fill="midnightblue" stroke="midnightblue" points="727.62,-128.57 736.39,-122.62 725.82,-121.81 727.62,-128.57"/>
</g>
<!-- Node24&#45;&gt;Node17 -->
<g id="edge31" class="edge">
<title>Node24&#45;&gt;Node17</title>
<path fill="none" stroke="midnightblue" d="M823.3,-141.98C832.5,-138.8 842.08,-135.41 851,-132.1 880.95,-120.99 914.71,-107.39 938.77,-97.5"/>
<polygon fill="midnightblue" stroke="midnightblue" points="940.22,-100.69 948.13,-93.65 937.55,-94.22 940.22,-100.69"/>
</g>
</g>
</svg>
        <g id="navigator" transform="translate(0 0)" fill="#404254">
                <rect fill="#f2f5e9" fill-opacity="0.5" stroke="#606060" stroke-width=".5" x="0" y="0" width="60" height="60"/>
                <use id="zoomplus" xlink:href="#zoomPlus" x="17" y="9" onmousedown="handleZoom(evt,'in')"/>
                <use id="zoomminus" xlink:href="#zoomMin" x="42" y="9" onmousedown="handleZoom(evt,'out')"/>
                <use id="reset" xlink:href="#resetDef" x="30" y="36" onmousedown="handleReset()"/>
                <g id="arrowUp" xlink:href="#dirArrow" transform="translate(30 24)" onmousedown="handlePan(0,-1)">
                  <use xlink:href="#rim" fill="#404040">
                        <set attributeName="fill" to="#808080" begin="arrowUp.mouseover" end="arrowUp.mouseout"/>
                  </use>
                  <path fill="none" stroke="white" stroke-width="1.5" d="M0,-3.0v7 M-2.5,-0.5L0,-3.0L2.5,-0.5"/>
                </g>
                <g id="arrowRight" xlink:href="#dirArrow" transform="rotate(90) translate(36 -43)" onmousedown="handlePan(1,0)">
                  <use xlink:href="#rim" fill="#404040">
                        <set attributeName="fill" to="#808080" begin="arrowRight.mouseover" end="arrowRight.mouseout"/>
                  </use>
                  <path fill="none" stroke="white" stroke-width="1.5" d="M0,-3.0v7 M-2.5,-0.5L0,-3.0L2.5,-0.5"/>
                </g>
                <g id="arrowDown" xlink:href="#dirArrow" transform="rotate(180) translate(-30 -48)" onmousedown="handlePan(0,1)">
                  <use xlink:href="#rim" fill="#404040">
                        <set attributeName="fill" to="#808080" begin="arrowDown.mouseover" end="arrowDown.mouseout"/>
                  </use>
                  <path fill="none" stroke="white" stroke-width="1.5" d="M0,-3.0v7 M-2.5,-0.5L0,-3.0L2.5,-0.5"/>
                </g>
                <g id="arrowLeft" xlink:href="#dirArrow" transform="rotate(270) translate(-36 17)" onmousedown="handlePan(-1,0)">
                  <use xlink:href="#rim" fill="#404040">
                        <set attributeName="fill" to="#808080" begin="arrowLeft.mouseover" end="arrowLeft.mouseout"/>
                  </use>
                  <path fill="none" stroke="white" stroke-width="1.5" d="M0,-3.0v7 M-2.5,-0.5L0,-3.0L2.5,-0.5"/>
                </g>
        </g>
        <svg viewBox="0 0 15 15" width="100%" height="30px" preserveAspectRatio="xMaxYMin meet">
         <g id="arrow_out" transform="scale(0.3 0.3)">
          <a xlink:href="namespacewmtk_1_1simplex_a3307260114e435efa2ea5848902fa5cb_cgraph_org.svg" target="_base">
           <rect id="button" ry="5" rx="5" y="6" x="6" height="38" width="38"
                fill="#f2f5e9" fill-opacity="0.5" stroke="#606060" stroke-width="1.0"/>
           <path id="arrow"
             d="M 11.500037,31.436501 C 11.940474,20.09759 22.043105,11.32322 32.158766,21.979434 L 37.068811,17.246167 C 37.068811,17.246167 37.088388,32 37.088388,32 L 22.160133,31.978069 C 22.160133,31.978069 26.997745,27.140456 26.997745,27.140456 C 18.528582,18.264221 13.291696,25.230495 11.500037,31.436501 z"
             style="fill:#404040;"/>
          </a>
         </g>
        </svg>
</svg>
