<?xml version="1.0" encoding="UTF-8" standalone="no"?>
<!DOCTYPE svg PUBLIC "-//W3C//DTD SVG 1.1//EN"
 "http://www.w3.org/Graphics/SVG/1.1/DTD/svg11.dtd">
<!-- Generated by graphviz version 2.43.0 (0)
 -->
<!-- Title: wmtk::autogen::tet_mesh::local_id_table_offset Pages: 1 -->
<svg width="1259pt" height="584pt"
 viewBox="0.00 0.00 1259.00 584.00" xmlns="http://www.w3.org/2000/svg" xmlns:xlink="http://www.w3.org/1999/xlink">
<g id="graph0" class="graph" transform="scale(1 1) rotate(0) translate(4 580)">
<title>wmtk::autogen::tet_mesh::local_id_table_offset</title>
<!-- Node1 -->
<g id="node1" class="node">
<title>Node1</title>
<g id="a_node1"><a xlink:title=" ">
<polygon fill="#bfbfbf" stroke="black" points="1129,-396.5 1129,-437.5 1251,-437.5 1251,-396.5 1129,-396.5"/>
<text text-anchor="start" x="1137" y="-425.5" font-family="Helvetica,sans-Serif" font-size="10.00">wmtk::autogen::tet</text>
<text text-anchor="start" x="1137" y="-414.5" font-family="Helvetica,sans-Serif" font-size="10.00">_mesh::local_id_table</text>
<text text-anchor="middle" x="1190" y="-403.5" font-family="Helvetica,sans-Serif" font-size="10.00">_offset</text>
</a>
</g>
</g>
<!-- Node2 -->
<g id="node2" class="node">
<title>Node2</title>
<g id="a_node2"><a xlink:href="namespacewmtk_1_1autogen_1_1tet__mesh.html#a4243da89f13477619412eb6b6820fd7f" target="_top" xlink:title=" ">
<polygon fill="none" stroke="black" points="790,-471 790,-501 900,-501 900,-471 790,-471"/>
<text text-anchor="start" x="798" y="-489" font-family="Helvetica,sans-Serif" font-size="10.00">wmtk::autogen::tet</text>
<text text-anchor="middle" x="845" y="-478" font-family="Helvetica,sans-Serif" font-size="10.00">_mesh::is_ccw</text>
</a>
</g>
</g>
<!-- Node1&#45;&gt;Node2 -->
<g id="edge1" class="edge">
<title>Node1&#45;&gt;Node2</title>
<path fill="none" stroke="midnightblue" d="M1119.14,-440.13C1110.39,-442.64 1101.52,-445.01 1093,-447 1027.48,-462.32 950.75,-473.39 900.41,-479.73"/>
<polygon fill="midnightblue" stroke="midnightblue" points="1120.34,-443.43 1128.94,-437.24 1118.36,-436.71 1120.34,-443.43"/>
</g>
<!-- Node10 -->
<g id="node10" class="node">
<title>Node10</title>
<g id="a_node10"><a xlink:href="namespacewmtk_1_1autogen_1_1tet__mesh.html#a4060d948aa959f21810c425f3f197dd5" target="_top" xlink:title=" ">
<polygon fill="none" stroke="black" points="948,-150 948,-180 1093,-180 1093,-150 948,-150"/>
<text text-anchor="start" x="956" y="-168" font-family="Helvetica,sans-Serif" font-size="10.00">wmtk::autogen::tet</text>
<text text-anchor="middle" x="1020.5" y="-157" font-family="Helvetica,sans-Serif" font-size="10.00">_mesh::local_switch_tuple</text>
</a>
</g>
</g>
<!-- Node1&#45;&gt;Node10 -->
<g id="edge12" class="edge">
<title>Node1&#45;&gt;Node10</title>
<path fill="none" stroke="midnightblue" d="M1169.72,-387.99C1134.04,-334.31 1058.89,-221.25 1031.64,-180.25"/>
<polygon fill="midnightblue" stroke="midnightblue" points="1166.84,-389.99 1175.29,-396.38 1172.67,-386.11 1166.84,-389.99"/>
</g>
<!-- Node28 -->
<g id="node28" class="node">
<title>Node28</title>
<g id="a_node28"><a xlink:href="namespacewmtk_1_1autogen_1_1tet__mesh.html#a217b7c5c5312a716ad27c99abcfc0eb1" target="_top" xlink:title=" ">
<polygon fill="none" stroke="black" points="959.5,-396.5 959.5,-437.5 1081.5,-437.5 1081.5,-396.5 959.5,-396.5"/>
<text text-anchor="start" x="967.5" y="-425.5" font-family="Helvetica,sans-Serif" font-size="10.00">wmtk::autogen::tet</text>
<text text-anchor="start" x="967.5" y="-414.5" font-family="Helvetica,sans-Serif" font-size="10.00">_mesh::tuple_is_valid</text>
<text text-anchor="middle" x="1020.5" y="-403.5" font-family="Helvetica,sans-Serif" font-size="10.00">_for_ccw</text>
</a>
</g>
</g>
<!-- Node1&#45;&gt;Node28 -->
<g id="edge34" class="edge">
<title>Node1&#45;&gt;Node28</title>
<path fill="none" stroke="midnightblue" d="M1118.37,-417C1106.14,-417 1093.52,-417 1081.6,-417"/>
<polygon fill="midnightblue" stroke="midnightblue" points="1118.53,-420.5 1128.53,-417 1118.53,-413.5 1118.53,-420.5"/>
</g>
<!-- Node3 -->
<g id="node3" class="node">
<title>Node3</title>
<g id="a_node3"><a xlink:href="classwmtk_1_1_tet_mesh.html#a9a30d64d4b874e9bb156e6c771e7f08c" target="_top" xlink:title="TODO this needs dimension?">
<polygon fill="none" stroke="black" points="587,-480.5 587,-499.5 716,-499.5 716,-480.5 587,-480.5"/>
<text text-anchor="middle" x="651.5" y="-487.5" font-family="Helvetica,sans-Serif" font-size="10.00">wmtk::TetMesh::is_ccw</text>
</a>
</g>
</g>
<!-- Node2&#45;&gt;Node3 -->
<g id="edge2" class="edge">
<title>Node2&#45;&gt;Node3</title>
<path fill="none" stroke="midnightblue" d="M779.74,-487.34C759.3,-487.77 736.71,-488.24 716.3,-488.67"/>
<polygon fill="midnightblue" stroke="midnightblue" points="779.97,-490.84 789.89,-487.13 779.82,-483.84 779.97,-490.84"/>
</g>
<!-- Node9 -->
<g id="node9" class="node">
<title>Node9</title>
<g id="a_node9"><a xlink:href="namespacewmtk_1_1autogen.html#a365ab61cb89e1b96e57747b7a3a97558" target="_top" xlink:title=" ">
<polygon fill="none" stroke="black" points="587.5,-556.5 587.5,-575.5 715.5,-575.5 715.5,-556.5 587.5,-556.5"/>
<text text-anchor="middle" x="651.5" y="-563.5" font-family="Helvetica,sans-Serif" font-size="10.00">wmtk::autogen::is_ccw</text>
</a>
</g>
</g>
<!-- Node2&#45;&gt;Node9 -->
<g id="edge11" class="edge">
<title>Node2&#45;&gt;Node9</title>
<path fill="none" stroke="midnightblue" d="M811.67,-506.37C792.09,-518.03 766.27,-532.25 742,-542 727.52,-547.82 711.16,-552.67 696.43,-556.46"/>
<polygon fill="midnightblue" stroke="midnightblue" points="813.73,-509.21 820.48,-501.04 810.11,-503.22 813.73,-509.21"/>
</g>
<!-- Node4 -->
<g id="node4" class="node">
<title>Node4</title>
<g id="a_node4"><a xlink:href="classwmtk_1_1_tet_mesh.html#a68609916210858129ba39958a273e78e" target="_top" xlink:title=" ">
<polygon fill="none" stroke="black" points="387,-372 387,-402 508,-402 508,-372 387,-372"/>
<text text-anchor="start" x="395" y="-390" font-family="Helvetica,sans-Serif" font-size="10.00">wmtk::TetMesh::edge</text>
<text text-anchor="middle" x="447.5" y="-379" font-family="Helvetica,sans-Serif" font-size="10.00">_tuple_from_id</text>
</a>
</g>
</g>
<!-- Node3&#45;&gt;Node4 -->
<g id="edge3" class="edge">
<title>Node3&#45;&gt;Node4</title>
<path fill="none" stroke="midnightblue" d="M629.1,-474.47C604.82,-457.38 563.56,-429.96 525,-412 517.15,-408.34 508.61,-404.99 500.18,-402.01"/>
<polygon fill="midnightblue" stroke="midnightblue" points="627.36,-477.52 637.54,-480.47 631.42,-471.82 627.36,-477.52"/>
</g>
<!-- Node6 -->
<g id="node6" class="node">
<title>Node6</title>
<g id="a_node6"><a xlink:href="classwmtk_1_1_tet_mesh.html#a6d216046ac28a11f7d0fd07f9e090ba3" target="_top" xlink:title=" ">
<polygon fill="none" stroke="black" points="388.5,-519 388.5,-549 506.5,-549 506.5,-519 388.5,-519"/>
<text text-anchor="start" x="396.5" y="-537" font-family="Helvetica,sans-Serif" font-size="10.00">wmtk::TetMesh::face</text>
<text text-anchor="middle" x="447.5" y="-526" font-family="Helvetica,sans-Serif" font-size="10.00">_tuple_from_id</text>
</a>
</g>
</g>
<!-- Node3&#45;&gt;Node6 -->
<g id="edge5" class="edge">
<title>Node3&#45;&gt;Node6</title>
<path fill="none" stroke="midnightblue" d="M596.75,-501.71C569.03,-507.75 535.17,-515.12 506.82,-521.3"/>
<polygon fill="midnightblue" stroke="midnightblue" points="597.64,-505.1 606.67,-499.55 596.15,-498.26 597.64,-505.1"/>
</g>
<!-- Node7 -->
<g id="node7" class="node">
<title>Node7</title>
<g id="a_node7"><a xlink:href="classwmtk_1_1_tet_mesh.html#a8e0e56365f9c2cb86588a9d7b1874203" target="_top" xlink:title=" ">
<polygon fill="none" stroke="black" points="392.5,-470 392.5,-500 502.5,-500 502.5,-470 392.5,-470"/>
<text text-anchor="start" x="400.5" y="-488" font-family="Helvetica,sans-Serif" font-size="10.00">wmtk::TetMesh::tet</text>
<text text-anchor="middle" x="447.5" y="-477" font-family="Helvetica,sans-Serif" font-size="10.00">_tuple_from_id</text>
</a>
</g>
</g>
<!-- Node3&#45;&gt;Node7 -->
<g id="edge7" class="edge">
<title>Node3&#45;&gt;Node7</title>
<path fill="none" stroke="midnightblue" d="M576.87,-488.18C552.32,-487.57 525.44,-486.9 502.64,-486.34"/>
<polygon fill="midnightblue" stroke="midnightblue" points="576.78,-491.68 586.86,-488.42 576.95,-484.68 576.78,-491.68"/>
</g>
<!-- Node8 -->
<g id="node8" class="node">
<title>Node8</title>
<g id="a_node8"><a xlink:href="classwmtk_1_1_tet_mesh.html#ab247e83a140cafd3d62e06508ba128c7" target="_top" xlink:title=" ">
<polygon fill="none" stroke="black" points="383.5,-421 383.5,-451 511.5,-451 511.5,-421 383.5,-421"/>
<text text-anchor="start" x="391.5" y="-439" font-family="Helvetica,sans-Serif" font-size="10.00">wmtk::TetMesh::vertex</text>
<text text-anchor="middle" x="447.5" y="-428" font-family="Helvetica,sans-Serif" font-size="10.00">_tuple_from_id</text>
</a>
</g>
</g>
<!-- Node3&#45;&gt;Node8 -->
<g id="edge9" class="edge">
<title>Node3&#45;&gt;Node8</title>
<path fill="none" stroke="midnightblue" d="M605.16,-477.88C575.46,-469.94 536.43,-459.51 504.76,-451.04"/>
<polygon fill="midnightblue" stroke="midnightblue" points="604.29,-481.27 614.85,-480.47 606.09,-474.51 604.29,-481.27"/>
</g>
<!-- Node5 -->
<g id="node5" class="node">
<title>Node5</title>
<g id="a_node5"><a xlink:href="classwmtk_1_1_tet_mesh.html#a1ac65b024e2d1a8384dcf699297c9028" target="_top" xlink:title="internal function that returns the tuple of requested type, and has the global index cid">
<polygon fill="none" stroke="black" points="180.5,-470 180.5,-500 302.5,-500 302.5,-470 180.5,-470"/>
<text text-anchor="start" x="188.5" y="-488" font-family="Helvetica,sans-Serif" font-size="10.00">wmtk::TetMesh::tuple</text>
<text text-anchor="middle" x="241.5" y="-477" font-family="Helvetica,sans-Serif" font-size="10.00">_from_id</text>
</a>
</g>
</g>
<!-- Node4&#45;&gt;Node5 -->
<g id="edge4" class="edge">
<title>Node4&#45;&gt;Node5</title>
<path fill="none" stroke="midnightblue" d="M378.42,-406.68C375.49,-408.32 372.67,-410.09 370,-412 348.32,-427.53 356.05,-445.01 334,-460 324.6,-466.39 313.62,-471.15 302.6,-474.69"/>
<polygon fill="midnightblue" stroke="midnightblue" points="380.1,-409.75 387.46,-402.13 376.96,-403.49 380.1,-409.75"/>
</g>
<!-- Node6&#45;&gt;Node5 -->
<g id="edge6" class="edge">
<title>Node6&#45;&gt;Node5</title>
<path fill="none" stroke="midnightblue" d="M378.36,-517.63C353.82,-511.74 326.33,-505.14 302.54,-499.42"/>
<polygon fill="midnightblue" stroke="midnightblue" points="377.77,-521.09 388.31,-520.02 379.41,-514.29 377.77,-521.09"/>
</g>
<!-- Node7&#45;&gt;Node5 -->
<g id="edge8" class="edge">
<title>Node7&#45;&gt;Node5</title>
<path fill="none" stroke="midnightblue" d="M382.09,-485C356.67,-485 327.63,-485 302.64,-485"/>
<polygon fill="midnightblue" stroke="midnightblue" points="382.37,-488.5 392.37,-485 382.37,-481.5 382.37,-488.5"/>
</g>
<!-- Node8&#45;&gt;Node5 -->
<g id="edge10" class="edge">
<title>Node8&#45;&gt;Node5</title>
<path fill="none" stroke="midnightblue" d="M374.03,-453.41C350.62,-459.03 324.94,-465.2 302.53,-470.58"/>
<polygon fill="midnightblue" stroke="midnightblue" points="375,-456.77 383.91,-451.03 373.37,-449.97 375,-456.77"/>
</g>
<!-- Node11 -->
<g id="node11" class="node">
<title>Node11</title>
<g id="a_node11"><a xlink:href="namespacewmtk_1_1multimesh_1_1utils.html#af9c45a14e7a1550a7f54d461b61c5c04" target="_top" xlink:title=" ">
<polygon fill="none" stroke="black" points="780,-128 780,-158 910,-158 910,-128 780,-128"/>
<text text-anchor="start" x="788" y="-146" font-family="Helvetica,sans-Serif" font-size="10.00">wmtk::multimesh::utils</text>
<text text-anchor="middle" x="845" y="-135" font-family="Helvetica,sans-Serif" font-size="10.00">::local_switch_tuple</text>
</a>
</g>
</g>
<!-- Node10&#45;&gt;Node11 -->
<g id="edge13" class="edge">
<title>Node10&#45;&gt;Node11</title>
<path fill="none" stroke="midnightblue" d="M937.89,-154.65C928.59,-153.47 919.21,-152.28 910.19,-151.14"/>
<polygon fill="midnightblue" stroke="midnightblue" points="937.57,-158.14 947.93,-155.92 938.45,-151.19 937.57,-158.14"/>
</g>
<!-- Node13 -->
<g id="node13" class="node">
<title>Node13</title>
<g id="a_node13"><a xlink:href="namespacewmtk_1_1autogen.html#ac90627b246b2f7685a1478d0bc3f053f" target="_top" xlink:title=" ">
<polygon fill="none" stroke="black" points="785.5,-79 785.5,-109 904.5,-109 904.5,-79 785.5,-79"/>
<text text-anchor="start" x="793.5" y="-97" font-family="Helvetica,sans-Serif" font-size="10.00">wmtk::autogen::local</text>
<text text-anchor="middle" x="845" y="-86" font-family="Helvetica,sans-Serif" font-size="10.00">_switch_tuple</text>
</a>
</g>
</g>
<!-- Node10&#45;&gt;Node13 -->
<g id="edge15" class="edge">
<title>Node10&#45;&gt;Node13</title>
<path fill="none" stroke="midnightblue" d="M977.02,-145.69C957.36,-136.94 933.62,-126.65 912,-118 904.53,-115.01 896.52,-111.97 888.75,-109.1"/>
<polygon fill="midnightblue" stroke="midnightblue" points="975.76,-148.96 986.32,-149.84 978.62,-142.57 975.76,-148.96"/>
</g>
<!-- Node14 -->
<g id="node14" class="node">
<title>Node14</title>
<g id="a_node14"><a xlink:href="classwmtk_1_1_tet_mesh.html#a53d9ec91a1c80da4ae10dea485564f27" target="_top" xlink:title="switch the orientation of the Tuple of the given dimension">
<polygon fill="none" stroke="black" points="587.5,-172 587.5,-202 715.5,-202 715.5,-172 587.5,-172"/>
<text text-anchor="start" x="595.5" y="-190" font-family="Helvetica,sans-Serif" font-size="10.00">wmtk::TetMesh::switch</text>
<text text-anchor="middle" x="651.5" y="-179" font-family="Helvetica,sans-Serif" font-size="10.00">_tuple</text>
</a>
</g>
</g>
<!-- Node10&#45;&gt;Node14 -->
<g id="edge16" class="edge">
<title>Node10&#45;&gt;Node14</title>
<path fill="none" stroke="midnightblue" d="M937.76,-169.9C870.69,-173.92 777.11,-179.53 715.69,-183.21"/>
<polygon fill="midnightblue" stroke="midnightblue" points="938.09,-173.39 947.87,-169.29 937.68,-166.4 938.09,-173.39"/>
</g>
<!-- Node12 -->
<g id="node12" class="node">
<title>Node12</title>
<g id="a_node12"><a xlink:href="namespacewmtk_1_1multimesh_1_1utils.html#a35bfe2b004961f1f59b80cc181de7443" target="_top" xlink:title=" ">
<polygon fill="none" stroke="black" points="586.5,-123 586.5,-153 716.5,-153 716.5,-123 586.5,-123"/>
<text text-anchor="start" x="594.5" y="-141" font-family="Helvetica,sans-Serif" font-size="10.00">wmtk::multimesh::utils</text>
<text text-anchor="middle" x="651.5" y="-130" font-family="Helvetica,sans-Serif" font-size="10.00">::local_switch_tuples</text>
</a>
</g>
</g>
<!-- Node11&#45;&gt;Node12 -->
<g id="edge14" class="edge">
<title>Node11&#45;&gt;Node12</title>
<path fill="none" stroke="midnightblue" d="M769.8,-141.06C752.31,-140.61 733.81,-140.12 716.8,-139.68"/>
<polygon fill="midnightblue" stroke="midnightblue" points="769.88,-144.57 779.97,-141.33 770.06,-137.57 769.88,-144.57"/>
</g>
<!-- Node15 -->
<g id="node15" class="node">
<title>Node15</title>
<g id="a_node15"><a xlink:href="classwmtk_1_1operations_1_1tet__mesh_1_1_edge_operation_data.html#a0b36950981ccdbd5b04a2d7eccc758a3" target="_top" xlink:title=" ">
<polygon fill="none" stroke="black" points="372.5,-311.5 372.5,-352.5 522.5,-352.5 522.5,-311.5 372.5,-311.5"/>
<text text-anchor="start" x="380.5" y="-340.5" font-family="Helvetica,sans-Serif" font-size="10.00">wmtk::operations::tet</text>
<text text-anchor="start" x="380.5" y="-329.5" font-family="Helvetica,sans-Serif" font-size="10.00">_mesh::EdgeOperationData</text>
<text text-anchor="middle" x="447.5" y="-318.5" font-family="Helvetica,sans-Serif" font-size="10.00">::input_endpoints</text>
</a>
</g>
</g>
<!-- Node14&#45;&gt;Node15 -->
<g id="edge17" class="edge">
<title>Node14&#45;&gt;Node15</title>
<path fill="none" stroke="midnightblue" d="M621.03,-208.15C582.48,-235.83 515.36,-284.01 477.19,-311.4"/>
<polygon fill="midnightblue" stroke="midnightblue" points="623.18,-210.92 629.26,-202.24 619.1,-205.23 623.18,-210.92"/>
</g>
<!-- Node18 -->
<g id="node18" class="node">
<title>Node18</title>
<g id="a_node18"><a xlink:href="namespacewmtk_1_1simplex.html#aead7bf4f261c58bdb33bd0bf7fcd541d" target="_top" xlink:title=" ">
<polygon fill="none" stroke="black" points="0,-150 0,-180 113,-180 113,-150 0,-150"/>
<text text-anchor="start" x="8" y="-168" font-family="Helvetica,sans-Serif" font-size="10.00">wmtk::simplex::link</text>
<text text-anchor="middle" x="56.5" y="-157" font-family="Helvetica,sans-Serif" font-size="10.00">_condition</text>
</a>
</g>
</g>
<!-- Node14&#45;&gt;Node18 -->
<g id="edge20" class="edge">
<title>Node14&#45;&gt;Node18</title>
<path fill="none" stroke="midnightblue" d="M577.45,-183.08C513.31,-179.75 417.49,-175.03 334,-172 257.46,-169.22 168.96,-167.19 113.12,-166.05"/>
<polygon fill="midnightblue" stroke="midnightblue" points="577.3,-186.58 587.46,-183.6 577.66,-179.59 577.3,-186.58"/>
</g>
<!-- Node19 -->
<g id="node19" class="node">
<title>Node19</title>
<g id="a_node19"><a xlink:href="classwmtk_1_1_tet_mesh.html#a1ff7ac5989c664b7754dd699fa1e9b1a" target="_top" xlink:title=" ">
<polygon fill="none" stroke="black" points="162.5,-98.5 162.5,-117.5 320.5,-117.5 320.5,-98.5 162.5,-98.5"/>
<text text-anchor="middle" x="241.5" y="-105.5" font-family="Helvetica,sans-Serif" font-size="10.00">wmtk::TetMesh::switch_edge</text>
</a>
</g>
</g>
<!-- Node14&#45;&gt;Node19 -->
<g id="edge21" class="edge">
<title>Node14&#45;&gt;Node19</title>
<path fill="none" stroke="midnightblue" d="M577.44,-169.42C571.76,-167.21 566.22,-164.74 561,-162 542.56,-152.32 544.27,-139.91 525,-132 459.78,-105.21 379.09,-100.89 320.67,-102.28"/>
<polygon fill="midnightblue" stroke="midnightblue" points="576.5,-172.8 587.09,-172.92 578.88,-166.22 576.5,-172.8"/>
</g>
<!-- Node20 -->
<g id="node20" class="node">
<title>Node20</title>
<g id="a_node20"><a xlink:href="classwmtk_1_1_tet_mesh.html#a6c405e0d239a6ec627a6b50963c52ea5" target="_top" xlink:title=" ">
<polygon fill="none" stroke="black" points="370,-10.5 370,-29.5 525,-29.5 525,-10.5 370,-10.5"/>
<text text-anchor="middle" x="447.5" y="-17.5" font-family="Helvetica,sans-Serif" font-size="10.00">wmtk::TetMesh::switch_face</text>
</a>
</g>
</g>
<!-- Node14&#45;&gt;Node20 -->
<g id="edge23" class="edge">
<title>Node14&#45;&gt;Node20</title>
<path fill="none" stroke="midnightblue" d="M577.98,-174C571.74,-170.82 565.94,-166.87 561,-162 520.48,-121.97 566.1,-78.44 525,-39 521.05,-35.21 516.47,-32.14 511.55,-29.66"/>
<polygon fill="midnightblue" stroke="midnightblue" points="576.82,-177.32 587.38,-178.15 579.64,-170.91 576.82,-177.32"/>
</g>
<!-- Node23 -->
<g id="node23" class="node">
<title>Node23</title>
<g id="a_node23"><a xlink:href="classwmtk_1_1_tet_mesh.html#ac89db402ec507958c553e5ed0a26c774" target="_top" xlink:title=" ">
<polygon fill="none" stroke="black" points="383.5,-49 383.5,-79 511.5,-79 511.5,-49 383.5,-49"/>
<text text-anchor="start" x="391.5" y="-67" font-family="Helvetica,sans-Serif" font-size="10.00">wmtk::TetMesh::switch</text>
<text text-anchor="middle" x="447.5" y="-56" font-family="Helvetica,sans-Serif" font-size="10.00">_tetrahedron</text>
</a>
</g>
</g>
<!-- Node14&#45;&gt;Node23 -->
<g id="edge26" class="edge">
<title>Node14&#45;&gt;Node23</title>
<path fill="none" stroke="midnightblue" d="M577.62,-172.29C571.67,-169.45 566.03,-166.05 561,-162 534.37,-140.55 550.51,-116.77 525,-94 518.19,-87.92 510,-83 501.55,-79.05"/>
<polygon fill="midnightblue" stroke="midnightblue" points="576.59,-175.66 587.16,-176.33 579.32,-169.21 576.59,-175.66"/>
</g>
<!-- Node24 -->
<g id="node24" class="node">
<title>Node24</title>
<g id="a_node24"><a xlink:href="classwmtk_1_1_tet_mesh.html#a87165a8f0949177c42845b725feac1dd" target="_top" xlink:title=" ">
<polygon fill="none" stroke="black" points="383.5,-213 383.5,-243 511.5,-243 511.5,-213 383.5,-213"/>
<text text-anchor="start" x="391.5" y="-231" font-family="Helvetica,sans-Serif" font-size="10.00">wmtk::TetMesh::switch</text>
<text text-anchor="middle" x="447.5" y="-220" font-family="Helvetica,sans-Serif" font-size="10.00">_vertex</text>
</a>
</g>
</g>
<!-- Node14&#45;&gt;Node24 -->
<g id="edge28" class="edge">
<title>Node14&#45;&gt;Node24</title>
<path fill="none" stroke="midnightblue" d="M577.37,-201.84C555.9,-206.2 532.6,-210.93 511.8,-215.15"/>
<polygon fill="midnightblue" stroke="midnightblue" points="578.31,-205.22 587.42,-199.8 576.92,-198.36 578.31,-205.22"/>
</g>
<!-- Node16 -->
<g id="node16" class="node">
<title>Node16</title>
<g id="a_node16"><a xlink:href="classwmtk_1_1operations_1_1tet__mesh_1_1_split_new_attribute_topo_info.html#a89bd25c4ffb57ea07683a822dc5aae05" target="_top" xlink:title=" ">
<polygon fill="none" stroke="black" points="159.5,-409.5 159.5,-450.5 323.5,-450.5 323.5,-409.5 159.5,-409.5"/>
<text text-anchor="start" x="167.5" y="-438.5" font-family="Helvetica,sans-Serif" font-size="10.00">wmtk::operations::tet</text>
<text text-anchor="start" x="167.5" y="-427.5" font-family="Helvetica,sans-Serif" font-size="10.00">_mesh::SplitNewAttributeTopo</text>
<text text-anchor="middle" x="241.5" y="-416.5" font-family="Helvetica,sans-Serif" font-size="10.00">Info::input_ear_simplices</text>
</a>
</g>
</g>
<!-- Node15&#45;&gt;Node16 -->
<g id="edge18" class="edge">
<title>Node15&#45;&gt;Node16</title>
<path fill="none" stroke="midnightblue" d="M379.5,-357.18C376.22,-359.02 373.03,-360.96 370,-363 350.96,-375.8 353.46,-387.85 334,-400 328.47,-403.45 322.5,-406.55 316.35,-409.32"/>
<polygon fill="midnightblue" stroke="midnightblue" points="381.13,-360.28 388.36,-352.54 377.88,-354.08 381.13,-360.28"/>
</g>
<!-- Node17 -->
<g id="node17" class="node">
<title>Node17</title>
<g id="a_node17"><a xlink:href="classwmtk_1_1operations_1_1tet__mesh_1_1_collapse_new_attribute_topo_info.html#a9f0532f826f70f51e8b5a9a2275e426b" target="_top" xlink:title=" ">
<polygon fill="none" stroke="black" points="161,-349.5 161,-390.5 322,-390.5 322,-349.5 161,-349.5"/>
<text text-anchor="start" x="169" y="-378.5" font-family="Helvetica,sans-Serif" font-size="10.00">wmtk::operations::tet</text>
<text text-anchor="start" x="169" y="-367.5" font-family="Helvetica,sans-Serif" font-size="10.00">_mesh::CollapseNewAttribute</text>
<text text-anchor="middle" x="241.5" y="-356.5" font-family="Helvetica,sans-Serif" font-size="10.00">TopoInfo::merged_simplices</text>
</a>
</g>
</g>
<!-- Node15&#45;&gt;Node17 -->
<g id="edge19" class="edge">
<title>Node15&#45;&gt;Node17</title>
<path fill="none" stroke="midnightblue" d="M362.24,-347.7C348.98,-350.16 335.32,-352.71 322.17,-355.16"/>
<polygon fill="midnightblue" stroke="midnightblue" points="363.08,-351.1 372.27,-345.83 361.8,-344.22 363.08,-351.1"/>
</g>
<!-- Node19&#45;&gt;Node18 -->
<g id="edge22" class="edge">
<title>Node19&#45;&gt;Node18</title>
<path fill="none" stroke="midnightblue" d="M191.31,-120.04C177.55,-123.64 162.63,-127.76 149,-132 131.75,-137.36 112.93,-144.01 96.87,-149.93"/>
<polygon fill="midnightblue" stroke="midnightblue" points="192.29,-123.4 201.1,-117.51 190.54,-116.62 192.29,-123.4"/>
</g>
<!-- Node21 -->
<g id="node21" class="node">
<title>Node21</title>
<g id="a_node21"><a xlink:href="classwmtk_1_1_tet_mesh_1_1_tet_mesh_operation_executor.html#a0300c3eb5b2c02d01b447d69a3958727" target="_top" xlink:title="Get the incident tets and faces for an edge tuple.">
<polygon fill="none" stroke="black" points="149,-38.5 149,-79.5 334,-79.5 334,-38.5 149,-38.5"/>
<text text-anchor="start" x="157" y="-67.5" font-family="Helvetica,sans-Serif" font-size="10.00">wmtk::TetMesh::TetMeshOperation</text>
<text text-anchor="start" x="157" y="-56.5" font-family="Helvetica,sans-Serif" font-size="10.00">Executor::get_incident_tets</text>
<text text-anchor="middle" x="241.5" y="-45.5" font-family="Helvetica,sans-Serif" font-size="10.00">_and_faces</text>
</a>
</g>
</g>
<!-- Node20&#45;&gt;Node21 -->
<g id="edge24" class="edge">
<title>Node20&#45;&gt;Node21</title>
<path fill="none" stroke="midnightblue" d="M386.6,-31.45C370.14,-34.6 351.9,-38.09 334.09,-41.49"/>
<polygon fill="midnightblue" stroke="midnightblue" points="387.43,-34.86 396.6,-29.54 386.12,-27.98 387.43,-34.86"/>
</g>
<!-- Node22 -->
<g id="node22" class="node">
<title>Node22</title>
<g id="a_node22"><a xlink:href="namespacewmtk_1_1simplex.html#ae52e68a7ebacf23d85b0b15c1565dd5a" target="_top" xlink:title=" ">
<polygon fill="none" stroke="black" points="170,-0.5 170,-19.5 313,-19.5 313,-0.5 170,-0.5"/>
<text text-anchor="middle" x="241.5" y="-7.5" font-family="Helvetica,sans-Serif" font-size="10.00">wmtk::simplex::open_star</text>
</a>
</g>
</g>
<!-- Node20&#45;&gt;Node22 -->
<g id="edge25" class="edge">
<title>Node20&#45;&gt;Node22</title>
<path fill="none" stroke="midnightblue" d="M359.8,-15.75C344.21,-14.99 328.14,-14.2 313.07,-13.46"/>
<polygon fill="midnightblue" stroke="midnightblue" points="359.8,-19.25 369.96,-16.25 360.14,-12.26 359.8,-19.25"/>
</g>
<!-- Node23&#45;&gt;Node21 -->
<g id="edge27" class="edge">
<title>Node23&#45;&gt;Node21</title>
<path fill="none" stroke="midnightblue" d="M373.33,-62.21C360.64,-61.9 347.3,-61.57 334.19,-61.25"/>
<polygon fill="midnightblue" stroke="midnightblue" points="373.27,-65.71 383.35,-62.45 373.44,-58.71 373.27,-65.71"/>
</g>
<!-- Node24&#45;&gt;Node18 -->
<g id="edge30" class="edge">
<title>Node24&#45;&gt;Node18</title>
<path fill="none" stroke="midnightblue" d="M373.42,-210.85C360.33,-208.04 346.79,-205.3 334,-203 257.81,-189.32 169.04,-177.92 113.06,-171.28"/>
<polygon fill="midnightblue" stroke="midnightblue" points="372.8,-214.29 383.32,-213 374.29,-207.46 372.8,-214.29"/>
</g>
<!-- Node25 -->
<g id="node25" class="node">
<title>Node25</title>
<g id="a_node25"><a xlink:href="namespacewmtk_1_1simplex.html#a18647fe3e4b68cc5a6186aa5063fcd53" target="_top" xlink:title=" ">
<polygon fill="none" stroke="black" points="185,-311.5 185,-330.5 298,-330.5 298,-311.5 185,-311.5"/>
<text text-anchor="middle" x="241.5" y="-318.5" font-family="Helvetica,sans-Serif" font-size="10.00">wmtk::simplex::link</text>
</a>
</g>
</g>
<!-- Node24&#45;&gt;Node25 -->
<g id="edge29" class="edge">
<title>Node24&#45;&gt;Node25</title>
<path fill="none" stroke="midnightblue" d="M419.66,-249.42C397.79,-265.84 365.49,-287.86 334,-301 322.75,-305.7 310.23,-309.36 298.16,-312.19"/>
<polygon fill="midnightblue" stroke="midnightblue" points="421.97,-252.06 427.79,-243.2 417.72,-246.49 421.97,-252.06"/>
</g>
<!-- Node26 -->
<g id="node26" class="node">
<title>Node26</title>
<g id="a_node26"><a xlink:href="namespacewmtk_1_1simplex.html#a428755c0a4c93af10690b6828a3c79f5" target="_top" xlink:title=" ">
<polygon fill="none" stroke="black" points="167,-213 167,-243 316,-243 316,-213 167,-213"/>
<text text-anchor="start" x="175" y="-231" font-family="Helvetica,sans-Serif" font-size="10.00">wmtk::simplex::link</text>
<text text-anchor="middle" x="241.5" y="-220" font-family="Helvetica,sans-Serif" font-size="10.00">_condition_closed_tetmesh</text>
</a>
</g>
</g>
<!-- Node24&#45;&gt;Node26 -->
<g id="edge31" class="edge">
<title>Node24&#45;&gt;Node26</title>
<path fill="none" stroke="midnightblue" d="M373.19,-228C354.61,-228 334.66,-228 316.07,-228"/>
<polygon fill="midnightblue" stroke="midnightblue" points="373.35,-231.5 383.35,-228 373.35,-224.5 373.35,-231.5"/>
</g>
<!-- Node27 -->
<g id="node27" class="node">
<title>Node27</title>
<g id="a_node27"><a xlink:href="namespacewmtk_1_1simplex.html#a9c219fd0b4f590bc836d41011761968b" target="_top" xlink:title=" ">
<polygon fill="none" stroke="black" points="185,-262 185,-292 298,-292 298,-262 185,-262"/>
<text text-anchor="start" x="193" y="-280" font-family="Helvetica,sans-Serif" font-size="10.00">wmtk::simplex::link</text>
<text text-anchor="middle" x="241.5" y="-269" font-family="Helvetica,sans-Serif" font-size="10.00">_single_dimension</text>
</a>
</g>
</g>
<!-- Node24&#45;&gt;Node27 -->
<g id="edge33" class="edge">
<title>Node24&#45;&gt;Node27</title>
<path fill="none" stroke="midnightblue" d="M374.1,-245.39C349.1,-251.4 321.5,-258.03 298.06,-263.66"/>
<polygon fill="midnightblue" stroke="midnightblue" points="375,-248.77 383.91,-243.03 373.37,-241.97 375,-248.77"/>
</g>
<!-- Node26&#45;&gt;Node18 -->
<g id="edge32" class="edge">
<title>Node26&#45;&gt;Node18</title>
<path fill="none" stroke="midnightblue" d="M183.84,-209.71C172.29,-205.9 160.24,-201.87 149,-198 132.39,-192.28 114.18,-185.77 98.4,-180.04"/>
<polygon fill="midnightblue" stroke="midnightblue" points="182.8,-213.05 193.39,-212.85 184.98,-206.4 182.8,-213.05"/>
</g>
<!-- Node28&#45;&gt;Node2 -->
<g id="edge35" class="edge">
<title>Node28&#45;&gt;Node2</title>
<path fill="none" stroke="midnightblue" d="M958.56,-441.24C933.7,-451.12 905.73,-462.25 883.89,-470.93"/>
<polygon fill="midnightblue" stroke="midnightblue" points="959.92,-444.46 967.91,-437.52 957.33,-437.96 959.92,-444.46"/>
</g>
<!-- Node29 -->
<g id="node29" class="node">
<title>Node29</title>
<g id="a_node29"><a xlink:href="classwmtk_1_1_tet_mesh.html#af07828ce32b19a3d5fc8e1cb6f365029" target="_top" xlink:title="check validity of tuple including its hash">
<polygon fill="none" stroke="black" points="778,-407.5 778,-426.5 912,-426.5 912,-407.5 778,-407.5"/>
<text text-anchor="middle" x="845" y="-414.5" font-family="Helvetica,sans-Serif" font-size="10.00">wmtk::TetMesh::is_valid</text>
</a>
</g>
</g>
<!-- Node28&#45;&gt;Node29 -->
<g id="edge36" class="edge">
<title>Node28&#45;&gt;Node29</title>
<path fill="none" stroke="midnightblue" d="M949.13,-417C936.87,-417 924.15,-417 912.01,-417"/>
<polygon fill="midnightblue" stroke="midnightblue" points="949.31,-420.5 959.31,-417 949.31,-413.5 949.31,-420.5"/>
</g>
<!-- Node31 -->
<g id="node31" class="node">
<title>Node31</title>
<g id="a_node31"><a xlink:href="namespacewmtk_1_1autogen.html#ac29d917dc0d4499209fc0a43367fafd5" target="_top" xlink:title=" ">
<polygon fill="none" stroke="black" points="784.5,-358 784.5,-388 905.5,-388 905.5,-358 784.5,-358"/>
<text text-anchor="start" x="792.5" y="-376" font-family="Helvetica,sans-Serif" font-size="10.00">wmtk::autogen::tuple</text>
<text text-anchor="middle" x="845" y="-365" font-family="Helvetica,sans-Serif" font-size="10.00">_is_valid_for_ccw</text>
</a>
</g>
</g>
<!-- Node28&#45;&gt;Node31 -->
<g id="edge44" class="edge">
<title>Node28&#45;&gt;Node31</title>
<path fill="none" stroke="midnightblue" d="M949.3,-399.2C934.67,-395.49 919.39,-391.61 905.21,-388.02"/>
<polygon fill="midnightblue" stroke="midnightblue" points="948.75,-402.67 959.31,-401.73 950.47,-395.88 948.75,-402.67"/>
</g>
<!-- Node29&#45;&gt;Node3 -->
<g id="edge39" class="edge">
<title>Node29&#45;&gt;Node3</title>
<path fill="none" stroke="midnightblue" d="M817.82,-431.25C797.55,-441.86 768.56,-456.16 742,-466 726.76,-471.65 709.62,-476.57 694.44,-480.47"/>
<polygon fill="midnightblue" stroke="midnightblue" points="819.55,-434.29 826.74,-426.52 816.27,-428.11 819.55,-434.29"/>
</g>
<!-- Node29&#45;&gt;Node4 -->
<g id="edge37" class="edge">
<title>Node29&#45;&gt;Node4</title>
<path fill="none" stroke="midnightblue" d="M767.38,-411.19C691.63,-405.44 577.32,-396.77 508.11,-391.52"/>
<polygon fill="midnightblue" stroke="midnightblue" points="767.57,-414.71 777.8,-411.98 768.1,-407.73 767.57,-414.71"/>
</g>
<!-- Node29&#45;&gt;Node6 -->
<g id="edge38" class="edge">
<title>Node29&#45;&gt;Node6</title>
<path fill="none" stroke="midnightblue" d="M818.11,-431.94C805.32,-439.98 790.08,-450.57 778,-462 758.89,-480.09 765.08,-496.36 742,-509 668.55,-549.23 568.98,-548.22 506.76,-542.27"/>
<polygon fill="midnightblue" stroke="midnightblue" points="820.2,-434.77 826.91,-426.57 816.56,-428.79 820.2,-434.77"/>
</g>
<!-- Node29&#45;&gt;Node7 -->
<g id="edge42" class="edge">
<title>Node29&#45;&gt;Node7</title>
<path fill="none" stroke="midnightblue" d="M789.97,-428.59C774.51,-431.78 757.61,-435.14 742,-438 658.75,-453.23 561.71,-468.23 502.72,-477.05"/>
<polygon fill="midnightblue" stroke="midnightblue" points="790.82,-431.99 799.9,-426.52 789.4,-425.13 790.82,-431.99"/>
</g>
<!-- Node29&#45;&gt;Node8 -->
<g id="edge43" class="edge">
<title>Node29&#45;&gt;Node8</title>
<path fill="none" stroke="midnightblue" d="M767.55,-420.67C693.08,-424.25 581.21,-429.62 511.64,-432.97"/>
<polygon fill="midnightblue" stroke="midnightblue" points="767.98,-424.16 777.8,-420.18 767.65,-417.16 767.98,-424.16"/>
</g>
<!-- Node29&#45;&gt;Node14 -->
<g id="edge41" class="edge">
<title>Node29&#45;&gt;Node14</title>
<path fill="none" stroke="midnightblue" d="M783.31,-402.31C781.44,-400.99 779.66,-399.56 778,-398 743.27,-365.37 765.38,-338.53 742,-297 720.99,-259.67 687.19,-222.27 667.7,-202.14"/>
<polygon fill="midnightblue" stroke="midnightblue" points="781.62,-405.37 792.02,-407.36 785.13,-399.32 781.62,-405.37"/>
</g>
<!-- Node30 -->
<g id="node30" class="node">
<title>Node30</title>
<g id="a_node30"><a xlink:href="classwmtk_1_1operations_1_1utils_1_1_update_edge_operation_multi_mesh_map_functor.html#a9b36575024b847b2c0367ced7f1c5caa" target="_top" xlink:title=" ">
<polygon fill="none" stroke="black" points="561,-306.5 561,-347.5 742,-347.5 742,-306.5 561,-306.5"/>
<text text-anchor="start" x="569" y="-335.5" font-family="Helvetica,sans-Serif" font-size="10.00">wmtk::operations::utils</text>
<text text-anchor="start" x="569" y="-324.5" font-family="Helvetica,sans-Serif" font-size="10.00">::UpdateEdgeOperationMultiMesh</text>
<text text-anchor="middle" x="651.5" y="-313.5" font-family="Helvetica,sans-Serif" font-size="10.00">MapFunctor::operator()</text>
</a>
</g>
</g>
<!-- Node29&#45;&gt;Node30 -->
<g id="edge40" class="edge">
<title>Node29&#45;&gt;Node30</title>
<path fill="none" stroke="midnightblue" d="M789.55,-403.77C785.54,-402.06 781.64,-400.15 778,-398 758.51,-386.51 760.94,-374.38 742,-362 733.76,-356.61 724.57,-351.85 715.29,-347.71"/>
<polygon fill="midnightblue" stroke="midnightblue" points="788.47,-407.1 799.06,-407.39 790.96,-400.56 788.47,-407.1"/>
</g>
</g>
</svg>
