<?xml version="1.0" encoding="UTF-8" standalone="no"?>
<!DOCTYPE svg PUBLIC "-//W3C//DTD SVG 1.1//EN"
 "http://www.w3.org/Graphics/SVG/1.1/DTD/svg11.dtd">
<!-- Generated by graphviz version 2.43.0 (0)
 -->
<!-- Title: wmtk::simplex::top_dimension_cofaces Pages: 1 -->
<svg width="1290pt" height="361pt"
 viewBox="0.00 0.00 1290.00 361.00" xmlns="http://www.w3.org/2000/svg" xmlns:xlink="http://www.w3.org/1999/xlink">
<g id="graph0" class="graph" transform="scale(1 1) rotate(0) translate(4 357)">
<title>wmtk::simplex::top_dimension_cofaces</title>
<!-- Node1 -->
<g id="node1" class="node">
<title>Node1</title>
<g id="a_node1"><a xlink:title="Get all top dimension cofaces of the given simplex.">
<polygon fill="#bfbfbf" stroke="black" points="0,-115.5 0,-145.5 116,-145.5 116,-115.5 0,-115.5"/>
<text text-anchor="start" x="8" y="-133.5" font-family="Helvetica,sans-Serif" font-size="10.00">wmtk::simplex::top</text>
<text text-anchor="middle" x="58" y="-122.5" font-family="Helvetica,sans-Serif" font-size="10.00">_dimension_cofaces</text>
</a>
</g>
</g>
<!-- Node2 -->
<g id="node2" class="node">
<title>Node2</title>
<g id="a_node2"><a xlink:href="classwmtk_1_1simplex_1_1_simplex_collection.html#ab318c99d54327383ff1b985bed043f3a" target="_top" xlink:title="Sort simplex vector and remove duplicates.">
<polygon fill="none" stroke="black" points="152,-186.5 152,-216.5 336,-216.5 336,-186.5 152,-186.5"/>
<text text-anchor="start" x="160" y="-204.5" font-family="Helvetica,sans-Serif" font-size="10.00">wmtk::simplex::SimplexCollection</text>
<text text-anchor="middle" x="244" y="-193.5" font-family="Helvetica,sans-Serif" font-size="10.00">::sort_and_clean</text>
</a>
</g>
</g>
<!-- Node1&#45;&gt;Node2 -->
<g id="edge1" class="edge">
<title>Node1&#45;&gt;Node2</title>
<path fill="none" stroke="midnightblue" d="M86.05,-145.6C104.29,-155.35 129.11,-167.78 152,-176.5 158.38,-178.93 165.09,-181.23 171.86,-183.38"/>
<polygon fill="midnightblue" stroke="midnightblue" points="171.2,-186.83 181.78,-186.41 173.25,-180.14 171.2,-186.83"/>
</g>
<!-- Node3 -->
<g id="node3" class="node">
<title>Node3</title>
<g id="a_node3"><a xlink:href="namespacewmtk_1_1simplex.html#ac133ab11355bb4cda7e8b1e3ed48226f" target="_top" xlink:title=" ">
<polygon fill="none" stroke="black" points="168.5,-137.5 168.5,-167.5 319.5,-167.5 319.5,-137.5 168.5,-137.5"/>
<text text-anchor="start" x="176.5" y="-155.5" font-family="Helvetica,sans-Serif" font-size="10.00">wmtk::simplex::top</text>
<text text-anchor="middle" x="244" y="-144.5" font-family="Helvetica,sans-Serif" font-size="10.00">_dimension_cofaces_tuples</text>
</a>
</g>
</g>
<!-- Node1&#45;&gt;Node3 -->
<g id="edge2" class="edge">
<title>Node1&#45;&gt;Node3</title>
<path fill="none" stroke="midnightblue" d="M116.21,-137.34C129.45,-138.92 143.82,-140.64 157.97,-142.33"/>
<polygon fill="midnightblue" stroke="midnightblue" points="157.87,-145.85 168.22,-143.56 158.7,-138.9 157.87,-145.85"/>
</g>
<!-- Node20 -->
<g id="node20" class="node">
<title>Node20</title>
<g id="a_node20"><a xlink:href="classwmtk_1_1_mesh.html#abaf00438d0700358b160e310d69725c9" target="_top" xlink:title=" ">
<polygon fill="none" stroke="black" points="159,-99 159,-118 329,-118 329,-99 159,-99"/>
<text text-anchor="middle" x="244" y="-106" font-family="Helvetica,sans-Serif" font-size="10.00">wmtk::Mesh::top_simplex_type</text>
</a>
</g>
</g>
<!-- Node1&#45;&gt;Node20 -->
<g id="edge19" class="edge">
<title>Node1&#45;&gt;Node20</title>
<path fill="none" stroke="midnightblue" d="M116.21,-123.66C128.03,-122.25 140.75,-120.73 153.41,-119.21"/>
<polygon fill="midnightblue" stroke="midnightblue" points="154.01,-122.66 163.53,-118 153.18,-115.71 154.01,-122.66"/>
</g>
<!-- Node22 -->
<g id="node22" class="node">
<title>Node22</title>
<g id="a_node22"><a xlink:href="namespacewmtk_1_1simplex_1_1utils.html#abc97acf22bd5eb87df2b16ad3b372cfb" target="_top" xlink:title=" ">
<polygon fill="none" stroke="black" points="157.5,-39 157.5,-80 330.5,-80 330.5,-39 157.5,-39"/>
<text text-anchor="start" x="165.5" y="-68" font-family="Helvetica,sans-Serif" font-size="10.00">wmtk::simplex::utils</text>
<text text-anchor="start" x="165.5" y="-57" font-family="Helvetica,sans-Serif" font-size="10.00">::tuple_vector_to_homogeneous</text>
<text text-anchor="middle" x="244" y="-46" font-family="Helvetica,sans-Serif" font-size="10.00">_simplex_vector</text>
</a>
</g>
</g>
<!-- Node1&#45;&gt;Node22 -->
<g id="edge21" class="edge">
<title>Node1&#45;&gt;Node22</title>
<path fill="none" stroke="midnightblue" d="M90.96,-115.49C108.76,-107.37 131.41,-97.41 152,-89.5 157.37,-87.44 162.95,-85.38 168.59,-83.37"/>
<polygon fill="midnightblue" stroke="midnightblue" points="169.82,-86.65 178.1,-80.04 167.51,-80.04 169.82,-86.65"/>
</g>
<!-- Node4 -->
<g id="node4" class="node">
<title>Node4</title>
<g id="a_node4"><a xlink:href="classwmtk_1_1simplex_1_1_simplex_collection.html#a1e7079b3b75f70dd28c524556cab76cf" target="_top" xlink:title="Add simplex to the collection.">
<polygon fill="none" stroke="black" points="372,-285 372,-304 580,-304 580,-285 372,-285"/>
<text text-anchor="middle" x="476" y="-292" font-family="Helvetica,sans-Serif" font-size="10.00">wmtk::simplex::SimplexCollection::add</text>
</a>
</g>
</g>
<!-- Node3&#45;&gt;Node4 -->
<g id="edge3" class="edge">
<title>Node3&#45;&gt;Node4</title>
<path fill="none" stroke="midnightblue" d="M319.72,-165.51C325.63,-168.48 331.17,-172.09 336,-176.5 370.58,-208.07 336.26,-245.26 372,-275.5 373.8,-277.03 375.69,-278.45 377.65,-279.77"/>
<polygon fill="midnightblue" stroke="midnightblue" points="376.22,-282.98 386.63,-284.95 379.71,-276.92 376.22,-282.98"/>
</g>
<!-- Node5 -->
<g id="node5" class="node">
<title>Node5</title>
<g id="a_node5"><a xlink:href="classwmtk_1_1_edge_mesh.html#a534952cf2729f1509a380e3e9afb65b7" target="_top" xlink:title=" ">
<polygon fill="none" stroke="black" points="418.5,-235.5 418.5,-265.5 533.5,-265.5 533.5,-235.5 418.5,-235.5"/>
<text text-anchor="start" x="426.5" y="-253.5" font-family="Helvetica,sans-Serif" font-size="10.00">wmtk::EdgeMesh::is</text>
<text text-anchor="middle" x="476" y="-242.5" font-family="Helvetica,sans-Serif" font-size="10.00">_boundary_vertex</text>
</a>
</g>
</g>
<!-- Node3&#45;&gt;Node5 -->
<g id="edge4" class="edge">
<title>Node3&#45;&gt;Node5</title>
<path fill="none" stroke="midnightblue" d="M319.91,-167.62C325.58,-170.14 331.02,-173.07 336,-176.5 358.56,-192.01 349.21,-211.31 372,-226.5 382.9,-233.76 395.72,-238.84 408.54,-242.39"/>
<polygon fill="midnightblue" stroke="midnightblue" points="407.77,-245.8 418.32,-244.81 409.46,-239.01 407.77,-245.8"/>
</g>
<!-- Node14 -->
<g id="node14" class="node">
<title>Node14</title>
<g id="a_node14"><a xlink:href="namespacewmtk.html#a441d6ad4f19569c7d4946e743da1a925" target="_top" xlink:title=" ">
<polygon fill="none" stroke="black" points="415,-186.5 415,-216.5 537,-216.5 537,-186.5 415,-186.5"/>
<text text-anchor="start" x="423" y="-204.5" font-family="Helvetica,sans-Serif" font-size="10.00">wmtk::log_and_throw</text>
<text text-anchor="middle" x="476" y="-193.5" font-family="Helvetica,sans-Serif" font-size="10.00">_error</text>
</a>
</g>
</g>
<!-- Node3&#45;&gt;Node14 -->
<g id="edge13" class="edge">
<title>Node3&#45;&gt;Node14</title>
<path fill="none" stroke="midnightblue" d="M315.57,-167.53C343.92,-173.57 376.53,-180.52 404.83,-186.55"/>
<polygon fill="midnightblue" stroke="midnightblue" points="404.14,-189.98 414.65,-188.64 405.6,-183.14 404.14,-189.98"/>
</g>
<!-- Node17 -->
<g id="node17" class="node">
<title>Node17</title>
<g id="a_node17"><a xlink:href="classwmtk_1_1simplex_1_1_simplex.html#ad2cc0340a0772b7d6f03ba7a781d1163" target="_top" xlink:title=" ">
<polygon fill="none" stroke="black" points="408.5,-137.5 408.5,-167.5 543.5,-167.5 543.5,-137.5 408.5,-137.5"/>
<text text-anchor="start" x="416.5" y="-155.5" font-family="Helvetica,sans-Serif" font-size="10.00">wmtk::simplex::Simplex</text>
<text text-anchor="middle" x="476" y="-144.5" font-family="Helvetica,sans-Serif" font-size="10.00">::primitive_type</text>
</a>
</g>
</g>
<!-- Node3&#45;&gt;Node17 -->
<g id="edge16" class="edge">
<title>Node3&#45;&gt;Node17</title>
<path fill="none" stroke="midnightblue" d="M319.67,-152.5C344.81,-152.5 372.88,-152.5 398.18,-152.5"/>
<polygon fill="midnightblue" stroke="midnightblue" points="398.46,-156 408.46,-152.5 398.46,-149 398.46,-156"/>
</g>
<!-- Node18 -->
<g id="node18" class="node">
<title>Node18</title>
<g id="a_node18"><a xlink:href="classwmtk_1_1_edge_mesh.html#a04f6595fe85e52dc6bf1e02512120100" target="_top" xlink:title=" ">
<polygon fill="none" stroke="black" points="392.5,-99 392.5,-118 559.5,-118 559.5,-99 392.5,-99"/>
<text text-anchor="middle" x="476" y="-106" font-family="Helvetica,sans-Serif" font-size="10.00">wmtk::EdgeMesh::switch_edge</text>
</a>
</g>
</g>
<!-- Node3&#45;&gt;Node18 -->
<g id="edge17" class="edge">
<title>Node3&#45;&gt;Node18</title>
<path fill="none" stroke="midnightblue" d="M319.51,-137.68C336.74,-134.29 355,-130.74 372,-127.5 385.1,-125 399.14,-122.38 412.51,-119.9"/>
<polygon fill="midnightblue" stroke="midnightblue" points="413.38,-123.3 422.58,-118.04 412.11,-116.42 413.38,-123.3"/>
</g>
<!-- Node19 -->
<g id="node19" class="node">
<title>Node19</title>
<g id="a_node19"><a xlink:href="classwmtk_1_1simplex_1_1_simplex.html#a3650fd31ff1864285502dba66db3c73c" target="_top" xlink:title=" ">
<polygon fill="none" stroke="black" points="408.5,-49.5 408.5,-79.5 543.5,-79.5 543.5,-49.5 408.5,-49.5"/>
<text text-anchor="start" x="416.5" y="-67.5" font-family="Helvetica,sans-Serif" font-size="10.00">wmtk::simplex::Simplex</text>
<text text-anchor="middle" x="476" y="-56.5" font-family="Helvetica,sans-Serif" font-size="10.00">::tuple</text>
</a>
</g>
</g>
<!-- Node3&#45;&gt;Node19 -->
<g id="edge18" class="edge">
<title>Node3&#45;&gt;Node19</title>
<path fill="none" stroke="midnightblue" d="M315.19,-137.46C322.46,-134.67 329.54,-131.38 336,-127.5 355.95,-115.53 351.87,-101.17 372,-89.5 380.21,-84.74 389.3,-80.88 398.57,-77.76"/>
<polygon fill="midnightblue" stroke="midnightblue" points="399.75,-81.06 408.27,-74.76 397.68,-74.37 399.75,-81.06"/>
</g>
<!-- Node6 -->
<g id="node6" class="node">
<title>Node6</title>
<g id="a_node6"><a xlink:href="classwmtk_1_1attribute_1_1_accessor.html#a02b9afd258380cfdafdac411b30d48af" target="_top" xlink:title=" ">
<polygon fill="none" stroke="black" points="619,-276.5 619,-306.5 761,-306.5 761,-276.5 619,-276.5"/>
<text text-anchor="start" x="627" y="-294.5" font-family="Helvetica,sans-Serif" font-size="10.00">wmtk::attribute::Accessor</text>
<text text-anchor="middle" x="690" y="-283.5" font-family="Helvetica,sans-Serif" font-size="10.00">::const_vector_attribute</text>
</a>
</g>
</g>
<!-- Node5&#45;&gt;Node6 -->
<g id="edge5" class="edge">
<title>Node5&#45;&gt;Node6</title>
<path fill="none" stroke="midnightblue" d="M533.53,-261.43C556.71,-265.91 583.95,-271.18 609.1,-276.05"/>
<polygon fill="midnightblue" stroke="midnightblue" points="608.5,-279.5 618.99,-277.96 609.83,-272.62 608.5,-279.5"/>
</g>
<!-- Node7 -->
<g id="node7" class="node">
<title>Node7</title>
<g id="a_node7"><a xlink:href="classwmtk_1_1_mesh.html#abbb1c54cfd6ec17f4730317ee5fab78d" target="_top" xlink:title=" ">
<polygon fill="none" stroke="black" points="616,-238 616,-257 764,-257 764,-238 616,-238"/>
<text text-anchor="middle" x="690" y="-245" font-family="Helvetica,sans-Serif" font-size="10.00">wmtk::Mesh::is_valid_slow</text>
</a>
</g>
</g>
<!-- Node5&#45;&gt;Node7 -->
<g id="edge6" class="edge">
<title>Node5&#45;&gt;Node7</title>
<path fill="none" stroke="midnightblue" d="M533.53,-249.7C555.64,-249.39 581.45,-249.02 605.62,-248.68"/>
<polygon fill="midnightblue" stroke="midnightblue" points="605.91,-252.18 615.86,-248.54 605.81,-245.18 605.91,-252.18"/>
</g>
<!-- Node8 -->
<g id="node8" class="node">
<title>Node8</title>
<g id="a_node8"><a xlink:href="classwmtk_1_1_mesh.html#adf199d6a3ce6badd8bfa0e2ab3a1c1aa" target="_top" xlink:title=" ">
<polygon fill="none" stroke="black" points="800,-273.5 800,-303.5 930,-303.5 930,-273.5 800,-273.5"/>
<text text-anchor="start" x="808" y="-291.5" font-family="Helvetica,sans-Serif" font-size="10.00">wmtk::Mesh::get_const</text>
<text text-anchor="middle" x="865" y="-280.5" font-family="Helvetica,sans-Serif" font-size="10.00">_cell_hash_accessor</text>
</a>
</g>
</g>
<!-- Node7&#45;&gt;Node8 -->
<g id="edge7" class="edge">
<title>Node7&#45;&gt;Node8</title>
<path fill="none" stroke="midnightblue" d="M731.12,-257.01C748.8,-261.2 770.13,-266.25 790.49,-271.08"/>
<polygon fill="midnightblue" stroke="midnightblue" points="789.84,-274.52 800.38,-273.42 791.46,-267.71 789.84,-274.52"/>
</g>
<!-- Node13 -->
<g id="node13" class="node">
<title>Node13</title>
<g id="a_node13"><a xlink:href="classwmtk_1_1_mesh.html#a918c509096fc08691924c05c6143b9c3" target="_top" xlink:title="check validity of tuple including its hash">
<polygon fill="none" stroke="black" points="805,-235 805,-254 925,-254 925,-235 805,-235"/>
<text text-anchor="middle" x="865" y="-242" font-family="Helvetica,sans-Serif" font-size="10.00">wmtk::Mesh::is_valid</text>
</a>
</g>
</g>
<!-- Node7&#45;&gt;Node13 -->
<g id="edge12" class="edge">
<title>Node7&#45;&gt;Node13</title>
<path fill="none" stroke="midnightblue" d="M764.12,-246.23C774.18,-246.06 784.49,-245.88 794.48,-245.71"/>
<polygon fill="midnightblue" stroke="midnightblue" points="794.82,-249.2 804.76,-245.53 794.7,-242.2 794.82,-249.2"/>
</g>
<!-- Node9 -->
<g id="node9" class="node">
<title>Node9</title>
<g id="a_node9"><a xlink:href="classwmtk_1_1_mesh.html#a956cb71441391c99d736ec69c7467b61" target="_top" xlink:title=" ">
<polygon fill="none" stroke="black" points="966,-273.5 966,-303.5 1079,-303.5 1079,-273.5 966,-273.5"/>
<text text-anchor="start" x="974" y="-291.5" font-family="Helvetica,sans-Serif" font-size="10.00">wmtk::Mesh::create</text>
<text text-anchor="middle" x="1022.5" y="-280.5" font-family="Helvetica,sans-Serif" font-size="10.00">_const_accessor</text>
</a>
</g>
</g>
<!-- Node8&#45;&gt;Node9 -->
<g id="edge8" class="edge">
<title>Node8&#45;&gt;Node9</title>
<path fill="none" stroke="midnightblue" d="M930.15,-288.5C938.59,-288.5 947.26,-288.5 955.73,-288.5"/>
<polygon fill="midnightblue" stroke="midnightblue" points="955.94,-292 965.94,-288.5 955.94,-285 955.94,-292"/>
</g>
<!-- Node10 -->
<g id="node10" class="node">
<title>Node10</title>
<g id="a_node10"><a xlink:href="classwmtk_1_1attribute_1_1_mesh_attribute_handle.html#ac326961f01b9ba4fec395827f15a7ef2" target="_top" xlink:title=" ">
<polygon fill="none" stroke="black" points="1115,-322.5 1115,-352.5 1282,-352.5 1282,-322.5 1115,-322.5"/>
<text text-anchor="start" x="1123" y="-340.5" font-family="Helvetica,sans-Serif" font-size="10.00">wmtk::attribute::MeshAttribute</text>
<text text-anchor="middle" x="1198.5" y="-329.5" font-family="Helvetica,sans-Serif" font-size="10.00">Handle::as</text>
</a>
</g>
</g>
<!-- Node9&#45;&gt;Node10 -->
<g id="edge9" class="edge">
<title>Node9&#45;&gt;Node10</title>
<path fill="none" stroke="midnightblue" d="M1077.13,-303.6C1095.24,-308.7 1115.62,-314.44 1134.4,-319.73"/>
<polygon fill="midnightblue" stroke="midnightblue" points="1133.48,-323.11 1144.05,-322.45 1135.37,-316.37 1133.48,-323.11"/>
</g>
<!-- Node11 -->
<g id="node11" class="node">
<title>Node11</title>
<g id="a_node11"><a xlink:href="classwmtk_1_1attribute_1_1_mesh_attribute_handle.html#a2b86caeb22b007b85b138ebc6b0ed837" target="_top" xlink:title=" ">
<polygon fill="none" stroke="black" points="1115,-273.5 1115,-303.5 1282,-303.5 1282,-273.5 1115,-273.5"/>
<text text-anchor="start" x="1123" y="-291.5" font-family="Helvetica,sans-Serif" font-size="10.00">wmtk::attribute::MeshAttribute</text>
<text text-anchor="middle" x="1198.5" y="-280.5" font-family="Helvetica,sans-Serif" font-size="10.00">Handle::holds</text>
</a>
</g>
</g>
<!-- Node9&#45;&gt;Node11 -->
<g id="edge10" class="edge">
<title>Node9&#45;&gt;Node11</title>
<path fill="none" stroke="midnightblue" d="M1079.03,-288.5C1087.25,-288.5 1095.91,-288.5 1104.64,-288.5"/>
<polygon fill="midnightblue" stroke="midnightblue" points="1104.91,-292 1114.91,-288.5 1104.91,-285 1104.91,-292"/>
</g>
<!-- Node12 -->
<g id="node12" class="node">
<title>Node12</title>
<g id="a_node12"><a xlink:href="classwmtk_1_1attribute_1_1_mesh_attribute_handle.html#a620620d54776b2c5f4f9cebad465cfa7" target="_top" xlink:title=" ">
<polygon fill="none" stroke="black" points="1115,-224.5 1115,-254.5 1282,-254.5 1282,-224.5 1115,-224.5"/>
<text text-anchor="start" x="1123" y="-242.5" font-family="Helvetica,sans-Serif" font-size="10.00">wmtk::attribute::MeshAttribute</text>
<text text-anchor="middle" x="1198.5" y="-231.5" font-family="Helvetica,sans-Serif" font-size="10.00">Handle::mesh</text>
</a>
</g>
</g>
<!-- Node9&#45;&gt;Node12 -->
<g id="edge11" class="edge">
<title>Node9&#45;&gt;Node12</title>
<path fill="none" stroke="midnightblue" d="M1077.13,-273.4C1095.24,-268.3 1115.62,-262.56 1134.4,-257.27"/>
<polygon fill="midnightblue" stroke="midnightblue" points="1135.37,-260.63 1144.05,-254.55 1133.48,-253.89 1135.37,-260.63"/>
</g>
<!-- Node15 -->
<g id="node15" class="node">
<title>Node15</title>
<g id="a_node15"><a xlink:href="namespacewmtk.html#a6a35f11c12436093d26fdd8be6fecc06" target="_top" xlink:title="Retrieves the current logger.">
<polygon fill="none" stroke="black" points="649.5,-192 649.5,-211 730.5,-211 730.5,-192 649.5,-192"/>
<text text-anchor="middle" x="690" y="-199" font-family="Helvetica,sans-Serif" font-size="10.00">wmtk::logger</text>
</a>
</g>
</g>
<!-- Node14&#45;&gt;Node15 -->
<g id="edge14" class="edge">
<title>Node14&#45;&gt;Node15</title>
<path fill="none" stroke="midnightblue" d="M537.18,-201.5C569.38,-201.5 608.55,-201.5 639.05,-201.5"/>
<polygon fill="midnightblue" stroke="midnightblue" points="639.44,-205 649.44,-201.5 639.44,-198 639.44,-205"/>
</g>
<!-- Node16 -->
<g id="node16" class="node">
<title>Node16</title>
<g id="a_node16"><a xlink:href="namespacewmtk.html#a3daa7951a5f8b78cf4600dc047fcc180" target="_top" xlink:title="Setup a logger object to be used by WildmeshToolkit.">
<polygon fill="none" stroke="black" points="814.5,-192 814.5,-211 915.5,-211 915.5,-192 814.5,-192"/>
<text text-anchor="middle" x="865" y="-199" font-family="Helvetica,sans-Serif" font-size="10.00">wmtk::set_logger</text>
</a>
</g>
</g>
<!-- Node15&#45;&gt;Node16 -->
<g id="edge15" class="edge">
<title>Node15&#45;&gt;Node16</title>
<path fill="none" stroke="midnightblue" d="M730.69,-201.5C752.42,-201.5 779.8,-201.5 804.08,-201.5"/>
<polygon fill="midnightblue" stroke="midnightblue" points="804.27,-205 814.27,-201.5 804.27,-198 804.27,-205"/>
</g>
<!-- Node21 -->
<g id="node21" class="node">
<title>Node21</title>
<g id="a_node21"><a xlink:href="classwmtk_1_1_mesh.html#a933f681cf24a63b155c9462280385200" target="_top" xlink:title=" ">
<polygon fill="none" stroke="black" points="415.5,-0.5 415.5,-30.5 536.5,-30.5 536.5,-0.5 415.5,-0.5"/>
<text text-anchor="start" x="423.5" y="-18.5" font-family="Helvetica,sans-Serif" font-size="10.00">wmtk::Mesh::top_cell</text>
<text text-anchor="middle" x="476" y="-7.5" font-family="Helvetica,sans-Serif" font-size="10.00">_dimension</text>
</a>
</g>
</g>
<!-- Node20&#45;&gt;Node21 -->
<g id="edge20" class="edge">
<title>Node20&#45;&gt;Node21</title>
<path fill="none" stroke="midnightblue" d="M316.61,-98.95C323.45,-96.47 330.05,-93.37 336,-89.5 358.96,-74.58 349.21,-54.69 372,-39.5 382.03,-32.82 393.68,-27.98 405.47,-24.49"/>
<polygon fill="midnightblue" stroke="midnightblue" points="406.61,-27.81 415.37,-21.86 404.81,-21.05 406.61,-27.81"/>
</g>
</g>
</svg>
