<?xml version="1.0" encoding="UTF-8" standalone="no"?>
<!DOCTYPE svg PUBLIC "-//W3C//DTD SVG 1.1//EN"
 "http://www.w3.org/Graphics/SVG/1.1/DTD/svg11.dtd">
<!-- Generated by graphviz version 2.43.0 (0)
 -->
<!-- Title: components/wmtk_components/base/wmtk/components/base/resolve_path.hpp Pages: 1 -->
<svg width="754pt" height="128pt"
 viewBox="0.00 0.00 754.00 128.00" xmlns="http://www.w3.org/2000/svg" xmlns:xlink="http://www.w3.org/1999/xlink">
<g id="graph0" class="graph" transform="scale(1 1) rotate(0) translate(4 124)">
<title>components/wmtk_components/base/wmtk/components/base/resolve_path.hpp</title>
<!-- Node1 -->
<g id="node1" class="node">
<title>Node1</title>
<g id="a_node1"><a xlink:title=" ">
<polygon fill="#bfbfbf" stroke="black" points="286,-78.5 286,-119.5 459,-119.5 459,-78.5 286,-78.5"/>
<text text-anchor="start" x="294" y="-107.5" font-family="Helvetica,sans-Serif" font-size="10.00">components/wmtk_components</text>
<text text-anchor="start" x="294" y="-96.5" font-family="Helvetica,sans-Serif" font-size="10.00">/base/wmtk/components/base</text>
<text text-anchor="middle" x="372.5" y="-85.5" font-family="Helvetica,sans-Serif" font-size="10.00">/resolve_path.hpp</text>
</a>
</g>
</g>
<!-- Node2 -->
<g id="node2" class="node">
<title>Node2</title>
<g id="a_node2"><a xlink:href="resolve__path_8cpp.html" target="_top" xlink:title=" ">
<polygon fill="none" stroke="black" points="0,-0.5 0,-41.5 173,-41.5 173,-0.5 0,-0.5"/>
<text text-anchor="start" x="8" y="-29.5" font-family="Helvetica,sans-Serif" font-size="10.00">components/wmtk_components</text>
<text text-anchor="start" x="8" y="-18.5" font-family="Helvetica,sans-Serif" font-size="10.00">/base/wmtk/components/base</text>
<text text-anchor="middle" x="86.5" y="-7.5" font-family="Helvetica,sans-Serif" font-size="10.00">/resolve_path.cpp</text>
</a>
</g>
</g>
<!-- Node1&#45;&gt;Node2 -->
<g id="edge1" class="edge">
<title>Node1&#45;&gt;Node2</title>
<path fill="none" stroke="midnightblue" d="M289.17,-75.86C248.25,-64.98 199.39,-52 159.9,-41.51"/>
<polygon fill="midnightblue" stroke="midnightblue" points="288.28,-79.24 298.85,-78.43 290.08,-72.48 288.28,-79.24"/>
</g>
<!-- Node3 -->
<g id="node3" class="node">
<title>Node3</title>
<g id="a_node3"><a xlink:href="input_8cpp.html" target="_top" xlink:title=" ">
<polygon fill="none" stroke="black" points="191,-0.5 191,-41.5 364,-41.5 364,-0.5 191,-0.5"/>
<text text-anchor="start" x="199" y="-29.5" font-family="Helvetica,sans-Serif" font-size="10.00">components/wmtk_components</text>
<text text-anchor="start" x="199" y="-18.5" font-family="Helvetica,sans-Serif" font-size="10.00">/input/wmtk/components/input</text>
<text text-anchor="middle" x="277.5" y="-7.5" font-family="Helvetica,sans-Serif" font-size="10.00">/input.cpp</text>
</a>
</g>
</g>
<!-- Node1&#45;&gt;Node3 -->
<g id="edge2" class="edge">
<title>Node1&#45;&gt;Node3</title>
<path fill="none" stroke="midnightblue" d="M340.08,-72.06C327.57,-62.06 313.51,-50.8 301.88,-41.51"/>
<polygon fill="midnightblue" stroke="midnightblue" points="338.04,-74.91 348.04,-78.43 342.41,-69.45 338.04,-74.91"/>
</g>
<!-- Node4 -->
<g id="node4" class="node">
<title>Node4</title>
<g id="a_node4"><a xlink:href="output_8cpp.html" target="_top" xlink:title=" ">
<polygon fill="none" stroke="black" points="382,-0.5 382,-41.5 555,-41.5 555,-0.5 382,-0.5"/>
<text text-anchor="start" x="390" y="-29.5" font-family="Helvetica,sans-Serif" font-size="10.00">components/wmtk_components</text>
<text text-anchor="start" x="390" y="-18.5" font-family="Helvetica,sans-Serif" font-size="10.00">/output/wmtk/components</text>
<text text-anchor="middle" x="468.5" y="-7.5" font-family="Helvetica,sans-Serif" font-size="10.00">/output/output.cpp</text>
</a>
</g>
</g>
<!-- Node1&#45;&gt;Node4 -->
<g id="edge3" class="edge">
<title>Node1&#45;&gt;Node4</title>
<path fill="none" stroke="midnightblue" d="M405.26,-72.06C417.9,-62.06 432.12,-50.8 443.86,-41.51"/>
<polygon fill="midnightblue" stroke="midnightblue" points="402.89,-69.48 397.22,-78.43 407.24,-74.97 402.89,-69.48"/>
</g>
<!-- Node5 -->
<g id="node5" class="node">
<title>Node5</title>
<g id="a_node5"><a xlink:href="procedural_8cpp.html" target="_top" xlink:title=" ">
<polygon fill="none" stroke="black" points="573,-0.5 573,-41.5 746,-41.5 746,-0.5 573,-0.5"/>
<text text-anchor="start" x="581" y="-29.5" font-family="Helvetica,sans-Serif" font-size="10.00">components/wmtk_components</text>
<text text-anchor="start" x="581" y="-18.5" font-family="Helvetica,sans-Serif" font-size="10.00">/procedural/wmtk/components</text>
<text text-anchor="middle" x="659.5" y="-7.5" font-family="Helvetica,sans-Serif" font-size="10.00">/procedural/procedural.cpp</text>
</a>
</g>
</g>
<!-- Node1&#45;&gt;Node5 -->
<g id="edge4" class="edge">
<title>Node1&#45;&gt;Node5</title>
<path fill="none" stroke="midnightblue" d="M456.12,-75.86C497.18,-64.98 546.21,-52 585.84,-41.51"/>
<polygon fill="midnightblue" stroke="midnightblue" points="455.18,-72.48 446.41,-78.43 456.97,-79.25 455.18,-72.48"/>
</g>
</g>
</svg>
