<?xml version="1.0" encoding="UTF-8" standalone="no"?>
<!DOCTYPE svg PUBLIC "-//W3C//DTD SVG 1.1//EN"
 "http://www.w3.org/Graphics/SVG/1.1/DTD/svg11.dtd">
<!-- Generated by graphviz version 2.43.0 (0)
 -->
<!-- Title: std::hash&lt; wmtk::attribute::MeshAttributeHandle&lt; char &gt; &gt; Pages: 1 -->
<svg width="203pt" height="196pt"
 viewBox="0.00 0.00 202.50 196.00" xmlns="http://www.w3.org/2000/svg" xmlns:xlink="http://www.w3.org/1999/xlink">
<g id="graph0" class="graph" transform="scale(1 1) rotate(0) translate(4 192)">
<title>std::hash&lt; wmtk::attribute::MeshAttributeHandle&lt; char &gt; &gt;</title>
<!-- Node1 -->
<g id="node1" class="node">
<title>Node1</title>
<g id="a_node1"><a xlink:title=" ">
<polygon fill="#bfbfbf" stroke="black" points="0,-0.5 0,-30.5 181,-30.5 181,-0.5 0,-0.5"/>
<text text-anchor="start" x="8" y="-18.5" font-family="Helvetica,sans-Serif" font-size="10.00">std::hash&lt; wmtk::attribute</text>
<text text-anchor="middle" x="90.5" y="-7.5" font-family="Helvetica,sans-Serif" font-size="10.00">::MeshAttributeHandle&lt; char &gt; &gt;</text>
</a>
</g>
</g>
<!-- Node2 -->
<g id="node2" class="node">
<title>Node2</title>
<g id="a_node2"><a xlink:href="classwmtk_1_1hash.html" target="_top" xlink:title=" ">
<polygon fill="none" stroke="black" points="0,-68.5 0,-98.5 181,-98.5 181,-68.5 0,-68.5"/>
<text text-anchor="start" x="8" y="-86.5" font-family="Helvetica,sans-Serif" font-size="10.00">wmtk::hash&lt; wmtk::attribute</text>
<text text-anchor="middle" x="90.5" y="-75.5" font-family="Helvetica,sans-Serif" font-size="10.00">::MeshAttributeHandle&lt; char &gt; &gt;</text>
</a>
</g>
</g>
<!-- Node2&#45;&gt;Node1 -->
<g id="edge1" class="edge">
<title>Node2&#45;&gt;Node1</title>
<path fill="none" stroke="midnightblue" d="M90.5,-58.03C90.5,-48.86 90.5,-38.74 90.5,-30.79"/>
<polygon fill="midnightblue" stroke="midnightblue" points="87,-58.18 90.5,-68.18 94,-58.18 87,-58.18"/>
</g>
<!-- Node3 -->
<g id="node3" class="node">
<title>Node3</title>
<g id="a_node3"><a xlink:href="classwmtk_1_1hash.html" target="_top" xlink:title=" ">
<polygon fill="none" stroke="black" points="39.5,-168.5 39.5,-187.5 141.5,-187.5 141.5,-168.5 39.5,-168.5"/>
<text text-anchor="middle" x="90.5" y="-175.5" font-family="Helvetica,sans-Serif" font-size="10.00">wmtk::hash&lt; T &gt;</text>
</a>
</g>
</g>
<!-- Node3&#45;&gt;Node2 -->
<g id="edge2" class="edge">
<title>Node3&#45;&gt;Node2</title>
<path fill="none" stroke="orange" stroke-dasharray="5,2" d="M90.5,-158.29C90.5,-140.67 90.5,-114.67 90.5,-98.7"/>
<polygon fill="orange" stroke="orange" points="87,-158.46 90.5,-168.46 94,-158.46 87,-158.46"/>
<text text-anchor="start" x="90.5" y="-142" font-family="Helvetica,sans-Serif" font-size="10.00"> &lt; wmtk::attribute::</text>
<text text-anchor="start" x="90.5" y="-131" font-family="Helvetica,sans-Serif" font-size="10.00">MeshAttributeHandle</text>
<text text-anchor="middle" x="142.5" y="-120" font-family="Helvetica,sans-Serif" font-size="10.00">&lt; char &gt; &gt;</text>
</g>
</g>
</svg>
