<?xml version="1.0" encoding="UTF-8" standalone="no"?>
<!DOCTYPE svg PUBLIC "-//W3C//DTD SVG 1.1//EN"
 "http://www.w3.org/Graphics/SVG/1.1/DTD/svg11.dtd">
<!-- Generated by graphviz version 2.43.0 (0)
 -->
<!-- Title: wmtk::multimesh::MultiMeshManager::ChildData Pages: 1 -->
<svg width="345pt" height="269pt"
 viewBox="0.00 0.00 345.00 269.00" xmlns="http://www.w3.org/2000/svg" xmlns:xlink="http://www.w3.org/1999/xlink">
<g id="graph0" class="graph" transform="scale(1 1) rotate(0) translate(4 265)">
<title>wmtk::multimesh::MultiMeshManager::ChildData</title>
<!-- Node1 -->
<g id="Node000001" class="node">
<title>Node1</title>
<g id="a_Node000001"><a xlink:title=" ">
<polygon fill="#999999" stroke="#666666" points="165,-30 5,-30 5,0 165,0 165,-30"/>
<text text-anchor="start" x="13" y="-18" font-family="Helvetica,sans-Serif" font-size="10.00">wmtk::multimesh::MultiMesh</text>
<text text-anchor="middle" x="85" y="-7" font-family="Helvetica,sans-Serif" font-size="10.00">Manager::ChildData</text>
</a>
</g>
</g>
<!-- Node2 -->
<g id="Node000002" class="node">
<title>Node2</title>
<g id="a_Node000002"><a xlink:href="classwmtk_1_1attribute_1_1_typed_attribute_handle.html" target="_top" xlink:title=" ">
<polygon fill="white" stroke="#666666" points="170,-107 0,-107 0,-77 170,-77 170,-107"/>
<text text-anchor="start" x="8" y="-95" font-family="Helvetica,sans-Serif" font-size="10.00">wmtk::attribute::TypedAttribute</text>
<text text-anchor="middle" x="85" y="-84" font-family="Helvetica,sans-Serif" font-size="10.00">Handle&lt; int64_t &gt;</text>
</a>
</g>
</g>
<!-- Node2&#45;&gt;Node1 -->
<g id="edge1_Node000001_Node000002" class="edge">
<title>Node2&#45;&gt;Node1</title>
<g id="a_edge1_Node000001_Node000002"><a xlink:title=" ">
<path fill="none" stroke="#9a32cd" stroke-dasharray="5,2" d="M85,-66.54C85,-54.45 85,-40.29 85,-30.04"/>
<polygon fill="#9a32cd" stroke="#9a32cd" points="81.5,-66.89 85,-76.89 88.5,-66.89 81.5,-66.89"/>
</a>
</g>
<text text-anchor="middle" x="117" y="-51" font-family="Helvetica,sans-Serif" font-size="10.00" fill="grey"> map_handle</text>
</g>
<!-- Node3 -->
<g id="Node000003" class="node">
<title>Node3</title>
<g id="a_Node000003"><a xlink:href="classwmtk_1_1attribute_1_1_attribute_handle.html" target="_top" xlink:title="Internal handle representation used by TypedAttributeManager.">
<polygon fill="white" stroke="#666666" points="155.5,-261 14.5,-261 14.5,-231 155.5,-231 155.5,-261"/>
<text text-anchor="start" x="22.5" y="-249" font-family="Helvetica,sans-Serif" font-size="10.00">wmtk::attribute::Attribute</text>
<text text-anchor="middle" x="85" y="-238" font-family="Helvetica,sans-Serif" font-size="10.00">Handle</text>
</a>
</g>
</g>
<!-- Node3&#45;&gt;Node2 -->
<g id="edge2_Node000002_Node000003" class="edge">
<title>Node3&#45;&gt;Node2</title>
<g id="a_edge2_Node000002_Node000003"><a xlink:title=" ">
<path fill="none" stroke="#9a32cd" stroke-dasharray="5,2" d="M81.61,-221.06C80.19,-209.84 78.7,-196.26 78,-184 77.24,-170.69 77.24,-167.31 78,-154 78.93,-137.82 81.22,-119.35 82.93,-107.01"/>
<polygon fill="#9a32cd" stroke="#9a32cd" points="78.14,-221.53 82.93,-230.99 85.08,-220.61 78.14,-221.53"/>
</a>
</g>
<text text-anchor="middle" x="118" y="-166.5" font-family="Helvetica,sans-Serif" font-size="10.00" fill="grey"> m_base_handle</text>
</g>
<!-- Node4 -->
<g id="Node000004" class="node">
<title>Node4</title>
<g id="a_Node000004"><a xlink:href="classwmtk_1_1attribute_1_1_typed_attribute_handle.html" target="_top" xlink:title="Handle that represents attributes for some mesh.">
<polygon fill="white" stroke="#666666" points="337,-184 167,-184 167,-154 337,-154 337,-184"/>
<text text-anchor="start" x="175" y="-172" font-family="Helvetica,sans-Serif" font-size="10.00">wmtk::attribute::TypedAttribute</text>
<text text-anchor="middle" x="252" y="-161" font-family="Helvetica,sans-Serif" font-size="10.00">Handle&lt; T &gt;</text>
</a>
</g>
</g>
<!-- Node3&#45;&gt;Node4 -->
<g id="edge4_Node000004_Node000003" class="edge">
<title>Node3&#45;&gt;Node4</title>
<g id="a_edge4_Node000004_Node000003"><a xlink:title=" ">
<path fill="none" stroke="#9a32cd" stroke-dasharray="5,2" d="M125.55,-226.79C154.85,-213.63 193.83,-196.12 220.73,-184.04"/>
<polygon fill="#9a32cd" stroke="#9a32cd" points="124.1,-223.6 116.41,-230.89 126.97,-229.99 124.1,-223.6"/>
</a>
</g>
<text text-anchor="middle" x="218" y="-205" font-family="Helvetica,sans-Serif" font-size="10.00" fill="grey"> m_base_handle</text>
</g>
<!-- Node4&#45;&gt;Node2 -->
<g id="edge3_Node000002_Node000004" class="edge">
<title>Node4&#45;&gt;Node2</title>
<g id="a_edge3_Node000002_Node000004"><a xlink:title=" ">
<path fill="none" stroke="orange" stroke-dasharray="5,2" d="M211.45,-149.79C182.15,-136.63 143.17,-119.12 116.27,-107.04"/>
<polygon fill="orange" stroke="orange" points="210.03,-152.99 220.59,-153.89 212.9,-146.6 210.03,-152.99"/>
</a>
</g>
<text text-anchor="middle" x="208" y="-128" font-family="Helvetica,sans-Serif" font-size="10.00" fill="grey"> &lt; int64_t &gt;</text>
</g>
</g>
</svg>
