<?xml version="1.0" encoding="UTF-8" standalone="no"?>
<!DOCTYPE svg PUBLIC "-//W3C//DTD SVG 1.1//EN"
 "http://www.w3.org/Graphics/SVG/1.1/DTD/svg11.dtd">
<!-- Generated by graphviz version 2.43.0 (0)
 -->
<!-- Title: src/wmtk/operations/tet_mesh/CollapseNewAttributeTopoInfo.hpp Pages: 1 -->
<svg width="356pt" height="128pt"
 viewBox="0.00 0.00 355.50 128.00" xmlns="http://www.w3.org/2000/svg" xmlns:xlink="http://www.w3.org/1999/xlink">
<g id="graph0" class="graph" transform="scale(1 1) rotate(0) translate(4 124)">
<title>src/wmtk/operations/tet_mesh/CollapseNewAttributeTopoInfo.hpp</title>
<!-- Node1 -->
<g id="node1" class="node">
<title>Node1</title>
<g id="a_node1"><a xlink:title=" ">
<polygon fill="#bfbfbf" stroke="black" points="80.5,-78.5 80.5,-119.5 255.5,-119.5 255.5,-78.5 80.5,-78.5"/>
<text text-anchor="start" x="88.5" y="-107.5" font-family="Helvetica,sans-Serif" font-size="10.00">src/wmtk/operations</text>
<text text-anchor="start" x="88.5" y="-96.5" font-family="Helvetica,sans-Serif" font-size="10.00">/tet_mesh/CollapseNewAttribute</text>
<text text-anchor="middle" x="168" y="-85.5" font-family="Helvetica,sans-Serif" font-size="10.00">TopoInfo.hpp</text>
</a>
</g>
</g>
<!-- Node2 -->
<g id="node2" class="node">
<title>Node2</title>
<g id="a_node2"><a xlink:href="_collapse_new_attribute_strategy_8cpp.html" target="_top" xlink:title=" ">
<polygon fill="none" stroke="black" points="0,-0.5 0,-41.5 154,-41.5 154,-0.5 0,-0.5"/>
<text text-anchor="start" x="8" y="-29.5" font-family="Helvetica,sans-Serif" font-size="10.00">src/wmtk/operations</text>
<text text-anchor="start" x="8" y="-18.5" font-family="Helvetica,sans-Serif" font-size="10.00">/attribute_new/CollapseNew</text>
<text text-anchor="middle" x="77" y="-7.5" font-family="Helvetica,sans-Serif" font-size="10.00">AttributeStrategy.cpp</text>
</a>
</g>
</g>
<!-- Node1&#45;&gt;Node2 -->
<g id="edge1" class="edge">
<title>Node1&#45;&gt;Node2</title>
<path fill="none" stroke="midnightblue" d="M136.6,-71.78C124.71,-61.84 111.38,-50.72 100.36,-41.51"/>
<polygon fill="midnightblue" stroke="midnightblue" points="134.65,-74.7 144.57,-78.43 139.13,-69.33 134.65,-74.7"/>
</g>
<!-- Node3 -->
<g id="node3" class="node">
<title>Node3</title>
<g id="a_node3"><a xlink:href="tet__mesh_2_collapse_new_attribute_topo_info_8cpp.html" target="_top" xlink:title=" ">
<polygon fill="none" stroke="black" points="172.5,-0.5 172.5,-41.5 347.5,-41.5 347.5,-0.5 172.5,-0.5"/>
<text text-anchor="start" x="180.5" y="-29.5" font-family="Helvetica,sans-Serif" font-size="10.00">src/wmtk/operations</text>
<text text-anchor="start" x="180.5" y="-18.5" font-family="Helvetica,sans-Serif" font-size="10.00">/tet_mesh/CollapseNewAttribute</text>
<text text-anchor="middle" x="260" y="-7.5" font-family="Helvetica,sans-Serif" font-size="10.00">TopoInfo.cpp</text>
</a>
</g>
</g>
<!-- Node1&#45;&gt;Node3 -->
<g id="edge2" class="edge">
<title>Node1&#45;&gt;Node3</title>
<path fill="none" stroke="midnightblue" d="M199.74,-71.78C211.77,-61.84 225.24,-50.72 236.39,-41.51"/>
<polygon fill="midnightblue" stroke="midnightblue" points="197.17,-69.36 191.69,-78.43 201.63,-74.76 197.17,-69.36"/>
</g>
</g>
</svg>
