<?xml version="1.0" encoding="UTF-8" standalone="no"?>
<!DOCTYPE svg PUBLIC "-//W3C//DTD SVG 1.1//EN"
 "http://www.w3.org/Graphics/SVG/1.1/DTD/svg11.dtd">
<!-- Generated by graphviz version 2.43.0 (0)
 -->
<!-- Title: src/wmtk/multimesh/utils/tuple_map_attribute_io.hpp Pages: 1 -->
<svg width="1022pt" height="128pt"
 viewBox="0.00 0.00 1021.50 128.00" xmlns="http://www.w3.org/2000/svg" xmlns:xlink="http://www.w3.org/1999/xlink">
<g id="graph0" class="graph" transform="scale(1 1) rotate(0) translate(4 124)">
<title>src/wmtk/multimesh/utils/tuple_map_attribute_io.hpp</title>
<!-- Node1 -->
<g id="node1" class="node">
<title>Node1</title>
<g id="a_node1"><a xlink:title=" ">
<polygon fill="#bfbfbf" stroke="black" points="452.5,-78.5 452.5,-119.5 595.5,-119.5 595.5,-78.5 452.5,-78.5"/>
<text text-anchor="start" x="460.5" y="-107.5" font-family="Helvetica,sans-Serif" font-size="10.00">src/wmtk/multimesh</text>
<text text-anchor="start" x="460.5" y="-96.5" font-family="Helvetica,sans-Serif" font-size="10.00">/utils/tuple_map_attribute</text>
<text text-anchor="middle" x="524" y="-85.5" font-family="Helvetica,sans-Serif" font-size="10.00">_io.hpp</text>
</a>
</g>
</g>
<!-- Node2 -->
<g id="node2" class="node">
<title>Node2</title>
<g id="a_node2"><a xlink:href="_mesh__attributes_8cpp.html" target="_top" xlink:title=" ">
<polygon fill="none" stroke="black" points="0,-11.5 0,-30.5 164,-30.5 164,-11.5 0,-11.5"/>
<text text-anchor="middle" x="82" y="-18.5" font-family="Helvetica,sans-Serif" font-size="10.00">src/wmtk/Mesh_attributes.cpp</text>
</a>
</g>
</g>
<!-- Node1&#45;&gt;Node2 -->
<g id="edge1" class="edge">
<title>Node1&#45;&gt;Node2</title>
<path fill="none" stroke="midnightblue" d="M441.93,-86.29C370.65,-75.78 264.74,-59.38 173,-42 155.04,-38.6 135.21,-34.3 118.65,-30.56"/>
<polygon fill="midnightblue" stroke="midnightblue" points="441.79,-89.8 452.19,-87.79 442.81,-82.88 441.79,-89.8"/>
</g>
<!-- Node3 -->
<g id="node3" class="node">
<title>Node3</title>
<g id="a_node3"><a xlink:href="tuple__map__attribute__io_8cpp.html" target="_top" xlink:title=" ">
<polygon fill="none" stroke="black" points="182.5,-0.5 182.5,-41.5 325.5,-41.5 325.5,-0.5 182.5,-0.5"/>
<text text-anchor="start" x="190.5" y="-29.5" font-family="Helvetica,sans-Serif" font-size="10.00">src/wmtk/multimesh</text>
<text text-anchor="start" x="190.5" y="-18.5" font-family="Helvetica,sans-Serif" font-size="10.00">/utils/tuple_map_attribute</text>
<text text-anchor="middle" x="254" y="-7.5" font-family="Helvetica,sans-Serif" font-size="10.00">_io.cpp</text>
</a>
</g>
</g>
<!-- Node1&#45;&gt;Node3 -->
<g id="edge2" class="edge">
<title>Node1&#45;&gt;Node3</title>
<path fill="none" stroke="midnightblue" d="M444.84,-75.72C406.31,-64.87 360.42,-51.96 323.3,-41.51"/>
<polygon fill="midnightblue" stroke="midnightblue" points="443.89,-79.09 454.47,-78.43 445.79,-72.35 443.89,-79.09"/>
</g>
<!-- Node4 -->
<g id="node4" class="node">
<title>Node4</title>
<g id="a_node4"><a xlink:href="_multi_mesh_manager_8cpp.html" target="_top" xlink:title=" ">
<polygon fill="none" stroke="black" points="344,-11.5 344,-30.5 522,-30.5 522,-11.5 344,-11.5"/>
<text text-anchor="middle" x="433" y="-18.5" font-family="Helvetica,sans-Serif" font-size="10.00">src/wmtk/MultiMeshManager.cpp</text>
</a>
</g>
</g>
<!-- Node1&#45;&gt;Node4 -->
<g id="edge3" class="edge">
<title>Node1&#45;&gt;Node4</title>
<path fill="none" stroke="midnightblue" d="M492.88,-72.01C475.59,-57.57 455.21,-40.55 443.24,-30.55"/>
<polygon fill="midnightblue" stroke="midnightblue" points="490.65,-74.7 500.57,-78.43 495.13,-69.33 490.65,-74.7"/>
</g>
<!-- Node5 -->
<g id="node5" class="node">
<title>Node5</title>
<g id="a_node5"><a xlink:href="_update_edge_operation_multi_mesh_map_functor_8cpp.html" target="_top" xlink:title=" ">
<polygon fill="none" stroke="black" points="540.5,-0.5 540.5,-41.5 691.5,-41.5 691.5,-0.5 540.5,-0.5"/>
<text text-anchor="start" x="548.5" y="-29.5" font-family="Helvetica,sans-Serif" font-size="10.00">src/wmtk/operations</text>
<text text-anchor="start" x="548.5" y="-18.5" font-family="Helvetica,sans-Serif" font-size="10.00">/utils/UpdateEdgeOperation</text>
<text text-anchor="middle" x="616" y="-7.5" font-family="Helvetica,sans-Serif" font-size="10.00">MultiMeshMapFunctor.cpp</text>
</a>
</g>
</g>
<!-- Node1&#45;&gt;Node5 -->
<g id="edge4" class="edge">
<title>Node1&#45;&gt;Node5</title>
<path fill="none" stroke="midnightblue" d="M555.74,-71.78C567.77,-61.84 581.24,-50.72 592.39,-41.51"/>
<polygon fill="midnightblue" stroke="midnightblue" points="553.17,-69.36 547.69,-78.43 557.63,-74.76 553.17,-69.36"/>
</g>
<!-- Node6 -->
<g id="node6" class="node">
<title>Node6</title>
<g id="a_node6"><a xlink:href="_update_vertex_multi_mesh_map_hash_8cpp.html" target="_top" xlink:title=" ">
<polygon fill="none" stroke="black" points="709.5,-0.5 709.5,-41.5 870.5,-41.5 870.5,-0.5 709.5,-0.5"/>
<text text-anchor="start" x="717.5" y="-29.5" font-family="Helvetica,sans-Serif" font-size="10.00">src/wmtk/operations</text>
<text text-anchor="start" x="717.5" y="-18.5" font-family="Helvetica,sans-Serif" font-size="10.00">/utils/UpdateVertexMultiMesh</text>
<text text-anchor="middle" x="790" y="-7.5" font-family="Helvetica,sans-Serif" font-size="10.00">MapHash.cpp</text>
</a>
</g>
</g>
<!-- Node1&#45;&gt;Node6 -->
<g id="edge5" class="edge">
<title>Node1&#45;&gt;Node6</title>
<path fill="none" stroke="midnightblue" d="M602.47,-75.58C640.32,-64.76 685.31,-51.91 721.73,-41.51"/>
<polygon fill="midnightblue" stroke="midnightblue" points="601.16,-72.32 592.5,-78.43 603.08,-79.05 601.16,-72.32"/>
</g>
<!-- Node7 -->
<g id="node7" class="node">
<title>Node7</title>
<g id="a_node7"><a xlink:href="test__component__isotropic__remeshing_8cpp.html" target="_top" xlink:title=" ">
<polygon fill="none" stroke="black" points="888.5,-0.5 888.5,-41.5 1013.5,-41.5 1013.5,-0.5 888.5,-0.5"/>
<text text-anchor="start" x="896.5" y="-29.5" font-family="Helvetica,sans-Serif" font-size="10.00">components/tests/test</text>
<text text-anchor="start" x="896.5" y="-18.5" font-family="Helvetica,sans-Serif" font-size="10.00">_component_isotropic</text>
<text text-anchor="middle" x="951" y="-7.5" font-family="Helvetica,sans-Serif" font-size="10.00">_remeshing.cpp</text>
</a>
</g>
</g>
<!-- Node1&#45;&gt;Node7 -->
<g id="edge6" class="edge">
<title>Node1&#45;&gt;Node7</title>
<path fill="none" stroke="midnightblue" d="M605.71,-87.95C678.2,-78.37 786.75,-62.39 880,-42 882.75,-41.4 885.56,-40.75 888.38,-40.07"/>
<polygon fill="midnightblue" stroke="midnightblue" points="605.18,-84.49 595.72,-89.26 606.09,-91.43 605.18,-84.49"/>
</g>
</g>
</svg>
